####
#
# OBJ File Generated by Meshlab
#
####
# Object white_rain_sensations_apple_blossom_hydrating_body_wash_250_collision.obj
#
# Vertices: 127
# Faces: 250
#
####
vn 0.326103 -0.442893 -0.835166
v 0.013116 -0.029283 0.008302
vn -0.933294 -0.064218 -0.353325
v -0.011561 -0.013303 0.014415
vn -0.041940 0.045560 -0.998081
v 0.007168 -0.003450 0.005132
vn -0.198723 0.396711 -0.896175
v 0.000857 0.017864 0.008281
vn -0.024530 0.994529 -0.101544
v 0.007476 0.028736 0.028686
vn -0.230851 -0.972539 -0.029600
v 0.002860 -0.040022 0.135224
vn 0.101797 -0.985758 -0.133863
v 0.010705 -0.040714 0.153034
vn -0.883551 0.187277 0.429261
v -0.002967 -0.000458 0.217744
vn 0.042963 -0.876121 0.480173
v 0.006517 -0.035361 0.221817
vn -0.166952 0.955109 0.244732
v 0.008655 0.021344 0.200956
vn -0.304105 -0.733905 -0.607374
v -0.000313 -0.035781 0.013024
vn -0.301222 -0.431854 -0.850157
v 0.000034 -0.030554 0.009115
vn -0.473022 -0.126196 -0.871966
v -0.005486 -0.015185 0.007220
vn -0.622944 -0.674139 -0.396835
v -0.003544 -0.034364 0.014582
vn -0.317797 -0.917232 -0.240188
v 0.004004 -0.040070 0.018990
vn -0.774896 -0.627537 -0.075723
v -0.005197 -0.035551 0.029926
vn -0.824870 -0.400512 -0.398974
v -0.006755 -0.030509 0.015006
vn -0.519319 -0.854580 -0.000512
v -0.001642 -0.039497 0.043355
vn -0.963802 -0.257274 -0.069967
v -0.011267 -0.021740 0.037055
vn -0.877678 -0.477188 -0.044414
v -0.010623 -0.027052 0.053918
vn -0.578674 -0.814533 0.040881
v -0.004132 -0.036425 0.064149
vn -0.773583 -0.633692 0.001907
v -0.010917 -0.029662 0.075437
vn -0.980684 -0.191491 -0.039869
v -0.014922 -0.016107 0.062480
vn -0.996085 0.088132 0.006883
v -0.015863 -0.002480 0.069885
vn -0.413986 -0.910166 -0.014593
v -0.001055 -0.037722 0.104369
vn -0.927274 -0.373957 0.017891
v -0.011049 -0.028391 0.091303
vn -0.718059 -0.695251 0.031902
v -0.009081 -0.031791 0.130589
vn -0.953120 -0.302284 -0.013646
v -0.013891 -0.023529 0.108482
vn -0.985460 0.167442 0.028841
v -0.013923 0.000645 0.119122
vn -0.901513 -0.430644 0.042661
v -0.011771 -0.026096 0.146360
vn -0.999083 0.042728 0.002832
v -0.015809 -0.010260 0.126484
vn -0.998296 -0.042121 0.040381
v -0.013934 -0.008885 0.155209
vn -0.612632 -0.790023 -0.023346
v -0.002500 -0.039896 0.168778
vn -0.945844 -0.324381 0.012489
v -0.011716 -0.023703 0.163485
vn -0.438573 -0.853348 0.281873
v 0.002096 -0.042626 0.185689
vn -0.564467 -0.776841 0.279097
v 0.000994 -0.035484 0.197958
vn -0.936825 -0.299769 0.180271
v -0.012591 -0.022395 0.181260
vn -0.970594 0.149764 0.188460
v -0.011640 0.001540 0.182231
vn -0.952746 -0.151948 0.263033
v -0.006818 -0.016161 0.196118
vn -0.566521 -0.177828 0.804631
v -0.001302 -0.025403 0.224219
vn -0.539252 0.127587 -0.832424
v -0.004689 0.005416 0.007431
vn -0.993995 0.064617 -0.088314
v -0.012961 -0.005857 0.039743
vn -0.871162 0.359705 -0.334200
v -0.008592 0.011817 0.014185
vn -0.410698 0.814382 -0.410011
v 0.000858 0.024468 0.014942
vn -0.630355 0.770858 -0.091821
v -0.000981 0.026104 0.026268
vn -0.901697 0.430367 -0.041565
v -0.009156 0.014980 0.040755
vn -0.532677 0.844265 0.058911
v -0.000533 0.025715 0.055732
vn -0.920001 0.390316 -0.035383
v -0.012006 0.010548 0.056274
vn -0.535219 0.842802 0.056783
v -0.000935 0.022975 0.072694
vn -0.861146 0.506565 0.042652
v -0.009296 0.014736 0.074481
vn -0.149247 0.984544 0.091647
v 0.003807 0.024444 0.074706
vn -0.854442 0.518355 -0.035173
v -0.009416 0.014609 0.085838
vn -0.997872 0.051920 -0.039443
v -0.015192 -0.007139 0.088619
vn -0.987574 0.157155 -0.000277
v -0.016243 -0.001131 0.101037
vn -0.162567 0.986399 0.024250
v 0.003795 0.023400 0.099456
vn 0.294123 0.954857 0.041709
v 0.012202 0.023576 0.081558
vn -0.551331 0.834254 0.007415
v -0.004067 0.019972 0.101934
vn -0.877905 0.477716 0.032702
v -0.009683 0.014297 0.116027
vn 0.016363 0.999494 -0.027270
v 0.009752 0.024578 0.120797
vn -0.687137 0.726439 -0.011387
v -0.004927 0.020488 0.128509
vn -0.955744 0.294011 0.010518
v -0.013336 0.003436 0.146398
vn -0.946281 0.322761 0.019448
v -0.012522 0.003924 0.133599
vn -0.099256 0.993004 -0.063967
v 0.006331 0.026333 0.155021
vn -0.682891 0.730473 -0.008302
v -0.004792 0.020766 0.159791
vn -0.763102 0.621332 0.177824
v -0.005639 0.019397 0.184014
vn -0.784276 0.516839 0.343203
v 0.001057 0.012851 0.212137
vn -0.351388 0.151687 0.923860
v 0.002307 0.001915 0.221735
vn -0.510476 0.672241 0.536196
v 0.008027 0.018531 0.221345
vn -0.038289 -0.147812 -0.988274
v 0.007773 -0.019456 0.005495
vn 0.731250 -0.325867 -0.599236
v 0.021269 -0.019146 0.008965
vn 0.263783 -0.085684 -0.960769
v 0.016387 -0.014762 0.005678
vn 0.192886 -0.975650 -0.104413
v 0.009473 -0.042303 0.028624
vn 0.189446 -0.792206 -0.580104
v 0.009715 -0.037506 0.014045
vn 0.707746 -0.650153 -0.276399
v 0.017985 -0.036958 0.023701
vn 0.948544 -0.285291 -0.137381
v 0.026542 -0.020664 0.028886
vn 0.722962 -0.690881 0.003203
v 0.019934 -0.035551 0.046907
vn 0.101343 -0.993116 0.058741
v 0.009496 -0.041539 0.058061
vn 0.956388 -0.289830 -0.036348
v 0.026932 -0.022677 0.064352
vn 0.623651 -0.781200 0.028019
v 0.017841 -0.036529 0.066844
vn 0.997212 0.069892 -0.026150
v 0.030650 -0.005300 0.075615
vn 0.981693 -0.190447 -0.002925
v 0.029430 -0.013604 0.084471
vn 0.871286 -0.490754 -0.004579
v 0.024540 -0.028979 0.089753
vn -0.107286 -0.991887 0.068196
v 0.005937 -0.039557 0.081728
vn 0.536016 -0.844071 0.015197
v 0.018374 -0.035947 0.100701
vn 0.912430 -0.409221 -0.003220
v 0.026815 -0.024321 0.098811
vn 0.348788 -0.935828 -0.050721
v 0.014376 -0.038752 0.121960
vn 0.984937 -0.172697 -0.008663
v 0.028938 -0.016626 0.116889
vn 0.510922 -0.855203 -0.087105
v 0.019577 -0.037543 0.154596
vn 0.875147 -0.483273 -0.023760
v 0.025658 -0.027751 0.130927
vn 0.194067 -0.980075 0.042320
v 0.010250 -0.045215 0.179913
vn 0.804140 -0.592789 0.044279
v 0.024025 -0.034511 0.175321
vn 0.981437 -0.173675 0.081357
v 0.029449 -0.017509 0.178746
vn 0.999710 -0.021319 -0.011209
v 0.030481 -0.011186 0.139857
vn 0.894234 -0.368565 0.253979
v 0.026163 -0.029190 0.183099
vn 0.984118 0.157881 0.081148
v 0.030299 0.003057 0.173059
vn 0.452551 -0.815032 0.361828
v 0.014390 -0.038752 0.192746
vn 0.896573 -0.393128 0.203979
v 0.021517 -0.022901 0.199570
vn 0.971691 -0.031585 0.234134
v 0.024098 -0.009774 0.199042
vn 0.507437 -0.843853 0.174414
v 0.012558 -0.034501 0.207535
vn 0.664575 -0.450803 0.595917
v 0.017558 -0.025913 0.221494
vn 0.796882 0.000437 -0.604135
v 0.023527 -0.010706 0.009187
vn 0.316467 0.143816 -0.937638
v 0.015465 -0.000081 0.006035
vn 0.477349 0.439547 -0.760879
v 0.015173 0.016586 0.009702
vn 0.160784 0.814419 -0.557558
v 0.009536 0.024490 0.013220
vn 0.831205 0.334798 -0.443856
v 0.020821 0.010149 0.012445
vn 0.608662 0.765170 -0.209869
v 0.015551 0.025201 0.021529
vn 0.984961 0.130736 -0.112962
v 0.028801 0.000500 0.034119
vn 0.978503 0.204583 -0.026026
v 0.028970 0.004688 0.064910
vn 0.770895 0.636754 -0.016258
v 0.021318 0.020575 0.050815
vn 0.190783 0.979010 0.071709
v 0.008953 0.027592 0.050694
vn 0.820912 0.571022 -0.006150
v 0.022613 0.016508 0.085377
vn 0.988016 0.152891 -0.021196
v 0.029224 0.003556 0.105506
vn 0.418569 0.907870 -0.023905
v 0.016098 0.023139 0.103315
vn 0.832841 0.552403 -0.035018
v 0.024986 0.014881 0.104366
vn 0.661668 0.749722 -0.010622
v 0.021877 0.019058 0.126727
vn 0.941058 0.338205 0.005214
v 0.028156 0.009330 0.136420
vn 0.462615 0.885277 -0.047677
v 0.015211 0.024118 0.141894
vn 0.518455 0.851358 -0.079962
v 0.017491 0.024719 0.165375
vn 0.870008 0.491731 -0.035876
v 0.026050 0.014193 0.159941
vn 0.909190 0.290254 0.298540
v 0.026837 0.010063 0.186725
vn 0.790256 0.600875 0.120188
v 0.023703 0.020525 0.181769
vn 0.031722 0.989467 0.141239
v 0.009485 0.029666 0.181929
vn 0.783193 -0.055421 0.619303
v 0.022989 -0.012174 0.220665
vn 0.637401 0.717973 0.279704
v 0.016030 0.019266 0.198236
vn 0.927086 0.324854 0.187034
v 0.021452 0.010728 0.198692
vn 0.453256 0.690480 0.563735
v 0.014334 0.017821 0.222270
vn 0.633852 0.164640 0.755728
v 0.020417 0.005808 0.222183
# 127 vertices, 0 vertices normals

f 12//12 1//1 73//73
f 73//73 11//11 12//12
f 14//14 17//17 12//12
f 12//12 11//11 14//14
f 13//13 12//12 17//17
f 1//1 12//12 69//69
f 17//17 2//2 13//13
f 69//69 12//12 13//13
f 41//41 13//13 2//2
f 13//13 3//3 69//69
f 18//18 15//15 72//72
f 17//17 14//14 16//16
f 15//15 14//14 11//11
f 15//15 11//11 73//73
f 15//15 16//16 14//14
f 16//16 15//15 18//18
f 2//2 17//17 19//19
f 42//42 2//2 19//19
f 19//19 17//17 16//16
f 16//16 20//20 19//19
f 19//19 20//20 23//23
f 23//23 42//42 19//19
f 18//18 72//72 77//77
f 20//20 16//16 18//18
f 20//20 18//18 21//21
f 21//21 18//18 77//77
f 23//23 20//20 22//22
f 23//23 24//24 42//42
f 22//22 20//20 21//21
f 77//77 83//83 21//21
f 83//83 22//22 21//21
f 23//23 22//22 26//26
f 24//24 23//23 26//26
f 22//22 83//83 25//25
f 26//26 22//22 25//25
f 26//26 53//53 24//24
f 26//26 28//28 53//53
f 28//28 54//54 53//53
f 25//25 28//28 26//26
f 27//27 28//28 25//25
f 29//29 54//54 28//28
f 28//28 27//27 30//30
f 6//6 25//25 86//86
f 27//27 25//25 6//6
f 31//31 29//29 28//28
f 30//30 31//31 28//28
f 6//6 30//30 27//27
f 33//33 6//6 7//7
f 32//32 31//31 30//30
f 31//31 61//61 62//62
f 61//61 31//31 32//32
f 33//33 7//7 90//90
f 90//90 35//35 33//33
f 33//33 30//30 6//6
f 34//34 30//30 33//33
f 34//34 32//32 30//30
f 37//37 34//34 33//33
f 35//35 37//37 33//33
f 35//35 36//36 37//37
f 32//32 34//34 37//37
f 38//38 32//32 37//37
f 36//36 39//39 37//37
f 39//39 38//38 37//37
f 40//40 39//39 36//36
f 9//9 40//40 36//36
f 39//39 40//40 8//8
f 9//9 100//100 40//40
f 2//2 43//43 41//41
f 3//3 13//13 41//41
f 4//4 41//41 43//43
f 4//4 3//3 41//41
f 44//44 4//4 43//43
f 4//4 44//44 104//104
f 43//43 2//2 42//42
f 43//43 42//42 46//46
f 44//44 43//43 45//45
f 44//44 5//5 104//104
f 43//43 46//46 45//45
f 5//5 44//44 45//45
f 48//48 46//46 42//42
f 46//46 47//47 45//45
f 5//5 45//45 47//47
f 47//47 110//110 5//5
f 48//48 42//42 24//24
f 48//48 47//47 46//46
f 50//50 47//47 48//48
f 49//49 47//47 50//50
f 51//51 47//47 49//49
f 110//110 47//47 51//51
f 24//24 50//50 48//48
f 24//24 53//53 50//50
f 56//56 110//110 51//51
f 49//49 50//50 52//52
f 51//51 49//49 55//55
f 53//53 52//52 50//50
f 53//53 54//54 52//52
f 52//52 54//54 58//58
f 49//49 52//52 57//57
f 55//55 56//56 51//51
f 55//55 49//49 57//57
f 54//54 29//29 58//58
f 57//57 52//52 58//58
f 60//60 57//57 58//58
f 59//59 55//55 57//57
f 29//29 31//31 62//62
f 62//62 58//58 29//29
f 59//59 57//57 60//60
f 60//60 58//58 62//62
f 60//60 62//62 61//61
f 59//59 60//60 63//63
f 117//117 59//59 63//63
f 64//64 60//60 61//61
f 63//63 60//60 64//64
f 61//61 32//32 38//38
f 61//61 65//65 64//64
f 61//61 38//38 65//65
f 122//122 63//63 64//64
f 122//122 64//64 65//65
f 65//65 38//38 66//66
f 66//66 38//38 8//8
f 65//65 10//10 122//122
f 10//10 65//65 66//66
f 8//8 38//38 39//39
f 8//8 67//67 66//66
f 67//67 68//68 66//66
f 66//66 68//68 10//10
f 67//67 8//8 40//40
f 67//67 126//126 68//68
f 70//70 74//74 1//1
f 71//71 1//1 69//69
f 1//1 71//71 70//70
f 3//3 102//102 71//71
f 71//71 69//69 3//3
f 70//70 71//71 101//101
f 101//101 71//71 102//102
f 73//73 72//72 15//15
f 74//74 72//72 73//73
f 74//74 73//73 1//1
f 75//75 74//74 70//70
f 70//70 101//101 75//75
f 76//76 72//72 74//74
f 74//74 75//75 76//76
f 72//72 76//76 77//77
f 76//76 75//75 78//78
f 78//78 75//75 107//107
f 79//79 77//77 76//76
f 79//79 76//76 78//78
f 78//78 107//107 108//108
f 77//77 79//79 83//83
f 79//79 78//78 82//82
f 78//78 108//108 80//80
f 82//82 78//78 81//81
f 81//81 78//78 80//80
f 82//82 84//84 79//79
f 83//83 79//79 84//84
f 25//25 83//83 84//84
f 84//84 82//82 85//85
f 85//85 82//82 81//81
f 85//85 81//81 87//87
f 25//25 84//84 86//86
f 84//84 85//85 89//89
f 89//89 86//86 84//84
f 87//87 89//89 85//85
f 87//87 81//81 112//112
f 87//87 112//112 93//93
f 93//93 89//89 87//87
f 6//6 86//86 88//88
f 88//88 7//7 6//6
f 86//86 89//89 88//88
f 92//92 89//89 93//93
f 88//88 90//90 7//7
f 91//91 88//88 89//89
f 91//91 89//89 92//92
f 92//92 93//93 95//95
f 90//90 88//88 91//91
f 96//96 90//90 91//91
f 96//96 91//91 94//94
f 94//94 91//91 92//92
f 95//95 98//98 92//92
f 120//120 98//98 95//95
f 96//96 35//35 90//90
f 97//97 96//96 94//94
f 96//96 36//36 35//35
f 97//97 99//99 96//96
f 92//92 98//98 94//94
f 97//97 94//94 98//98
f 99//99 36//36 96//96
f 9//9 36//36 99//99
f 99//99 100//100 9//9
f 99//99 97//97 100//100
f 100//100 97//97 123//123
f 98//98 123//123 97//97
f 40//40 100//100 123//123
f 67//67 40//40 123//123
f 105//105 101//101 102//102
f 4//4 103//103 102//102
f 102//102 3//3 4//4
f 102//102 103//103 105//105
f 4//4 104//104 103//103
f 105//105 107//107 101//101
f 75//75 101//101 107//107
f 106//106 105//105 103//103
f 103//103 104//104 106//106
f 104//104 5//5 106//106
f 109//109 105//105 106//106
f 107//107 105//105 109//109
f 107//107 109//109 108//108
f 110//110 106//106 5//5
f 109//109 106//106 110//110
f 109//109 110//110 56//56
f 80//80 108//108 111//111
f 111//111 108//108 109//109
f 56//56 111//111 109//109
f 81//81 80//80 112//112
f 111//111 112//112 80//80
f 114//114 112//112 111//111
f 111//111 56//56 113//113
f 111//111 113//113 114//114
f 56//56 55//55 113//113
f 114//114 113//113 115//115
f 115//115 113//113 59//59
f 59//59 113//113 55//55
f 112//112 114//114 116//116
f 93//93 112//112 116//116
f 115//115 59//59 117//117
f 115//115 116//116 114//114
f 119//119 93//93 116//116
f 119//119 116//116 115//115
f 119//119 115//115 117//117
f 119//119 95//95 93//93
f 117//117 118//118 119//119
f 63//63 118//118 117//117
f 119//119 118//118 121//121
f 122//122 118//118 63//63
f 122//122 121//121 118//118
f 121//121 122//122 124//124
f 95//95 119//119 121//121
f 121//121 120//120 95//95
f 98//98 120//120 125//125
f 120//120 121//121 124//124
f 120//120 124//124 125//125
f 122//122 10//10 124//124
f 123//123 98//98 125//125
f 123//123 125//125 127//127
f 125//125 124//124 126//126
f 68//68 126//126 10//10
f 126//126 124//124 10//10
f 126//126 127//127 125//125
f 67//67 123//123 127//127
f 126//126 67//67 127//127
# 250 faces, 0 coords texture

# End of File
