####
#
# OBJ File Generated by Meshlab
#
####
# Object white_rain_sensations_apple_blossom_hydrating_body_wash_250_collision.obj
#
# Vertices: 127
# Faces: 250
#
####
vn -0.068560 -0.955021 -0.288505
v 0.006863 -0.042099 0.020898
vn -0.998551 0.047837 0.024660
v -0.016132 -0.005443 0.099619
vn 0.429095 0.738491 -0.520104
v 0.013263 0.024314 0.013939
vn -0.249814 0.967826 -0.030089
v 0.001996 0.023825 0.123851
vn -0.999913 -0.008364 0.010215
v -0.015615 -0.010063 0.127319
vn -0.022588 -0.998875 -0.041704
v 0.006327 -0.039879 0.132494
vn -0.951597 0.158987 0.263032
v -0.005368 0.000339 0.200244
vn -0.368962 -0.660790 -0.653623
v -0.001525 -0.034931 0.013579
vn -0.689556 -0.291536 -0.662963
v -0.007348 -0.026617 0.012080
vn -0.849343 0.026205 -0.527191
v -0.011376 -0.005048 0.012034
vn -0.837739 -0.532910 -0.119169
v -0.007461 -0.030783 0.020473
vn -0.509851 -0.860256 0.003325
v -0.001362 -0.039476 0.047335
vn -0.984237 -0.164959 -0.063766
v -0.014302 -0.016957 0.054793
vn -0.986492 -0.128824 -0.101183
v -0.012044 -0.014803 0.032935
vn -0.850127 -0.525096 -0.039477
v -0.008170 -0.032127 0.047442
vn -0.118936 -0.992149 0.038664
v 0.004035 -0.039561 0.073855
vn -0.884411 -0.465168 0.037889
v -0.012270 -0.027338 0.079925
vn -0.911548 -0.411023 -0.011829
v -0.013082 -0.026483 0.109612
vn -0.610114 -0.790501 0.053574
v -0.003170 -0.036133 0.083787
vn -0.931281 -0.363833 0.018501
v -0.012503 -0.024767 0.087331
vn -0.393930 -0.919011 -0.015416
v 0.002579 -0.038612 0.104755
vn -0.843335 -0.537372 -0.004152
v -0.011319 -0.029499 0.122544
vn -0.512550 -0.857926 -0.035432
v -0.003340 -0.036479 0.129627
vn -0.301168 -0.950433 -0.077299
v 0.002959 -0.040993 0.151270
vn -0.982110 -0.181592 0.049844
v -0.013416 -0.018926 0.141883
vn -0.983622 -0.179715 0.013822
v -0.013069 -0.018398 0.160058
vn 0.028857 -0.989761 0.139790
v 0.009044 -0.045237 0.181369
vn -0.983086 -0.162394 0.084675
v -0.013739 -0.015764 0.176263
vn -0.960421 -0.012416 0.278276
v -0.012230 -0.015183 0.182476
vn -0.825245 -0.564694 0.009606
v -0.008330 -0.032123 0.157805
vn -0.776027 -0.624744 0.086466
v -0.004684 -0.038406 0.180989
vn -0.894998 -0.338753 0.290216
v -0.008921 -0.028545 0.186025
vn -0.513920 -0.816312 0.263668
v 0.002147 -0.035616 0.199090
vn -0.895744 -0.378538 0.233133
v -0.003649 -0.029510 0.196486
vn -0.961585 -0.074629 0.264168
v -0.006784 -0.013731 0.197170
vn -0.538550 -0.528705 0.656075
v -0.000053 -0.029000 0.223881
vn -0.620552 -0.028951 0.783631
v -0.002315 -0.018289 0.223452
vn -0.796616 0.187485 0.574675
v -0.002850 -0.003794 0.220560
vn -0.602825 0.248232 -0.758277
v -0.010240 0.004774 0.013579
vn -0.975962 0.213704 -0.042763
v -0.011705 0.004530 0.027199
vn -0.425433 0.520481 -0.740342
v -0.001286 0.022865 0.013578
vn -0.994748 0.083521 -0.059165
v -0.012790 -0.002447 0.036158
vn -0.910445 0.409463 -0.058560
v -0.007198 0.017661 0.035820
vn -0.141234 0.981810 -0.126896
v 0.005133 0.028523 0.023103
vn -0.988535 0.138149 -0.060943
v -0.015374 -0.001129 0.060692
vn -0.662189 0.744641 -0.083763
v -0.001169 0.025514 0.024052
vn -0.621704 0.781972 0.044762
v -0.002898 0.023933 0.055186
vn -0.997507 0.070368 0.005367
v -0.015533 -0.004661 0.073394
vn -0.920591 0.390527 0.000397
v -0.013440 0.006569 0.063397
vn -0.742802 0.668894 0.028727
v -0.006023 0.019011 0.066917
vn -0.358328 0.929685 0.085367
v 0.001467 0.023541 0.077037
vn -0.862926 0.505327 0.001635
v -0.010136 0.013150 0.082093
vn 0.039223 0.996343 0.075912
v 0.007808 0.026185 0.066525
vn -0.799495 0.600609 -0.008746
v -0.007638 0.016594 0.102922
vn -0.501155 0.865302 -0.009815
v -0.002120 0.021311 0.104058
vn -0.932695 0.360665 -0.000886
v -0.012442 0.008182 0.092165
vn -0.996919 0.076035 0.019252
v -0.014254 -0.003446 0.117367
vn -0.950001 0.311649 0.019345
v -0.011214 0.009225 0.127103
vn -0.633863 0.773347 -0.012331
v -0.004385 0.020554 0.126580
vn -0.866563 0.498973 0.009688
v -0.007903 0.016455 0.138056
vn 0.222295 0.974027 -0.043085
v 0.010658 0.023963 0.120326
vn -0.983634 0.176846 0.034483
v -0.013660 0.001479 0.145998
vn -0.994836 0.061485 0.080754
v -0.013437 -0.006196 0.172833
vn -0.840411 0.541862 0.009689
v -0.007097 0.017331 0.158247
vn -0.958106 0.218154 0.185582
v -0.011680 0.001633 0.181154
vn -0.417945 0.908101 -0.025979
v 0.000985 0.024554 0.155333
vn -0.071961 0.995381 -0.063552
v 0.011180 0.028080 0.169425
vn -0.713584 0.682496 0.158107
v -0.005144 0.021251 0.183249
vn -0.214258 0.950790 0.223813
v 0.004624 0.026733 0.185794
vn -0.296728 0.909984 0.289622
v 0.005588 0.020030 0.202221
vn -0.860628 0.416123 0.293530
v -0.001268 0.011946 0.200325
vn 0.282831 -0.300868 -0.910761
v 0.018054 -0.030419 0.013566
vn 0.968182 -0.226715 -0.105943
v 0.026851 -0.019998 0.031512
vn 0.477488 -0.190899 -0.857650
v 0.022803 -0.021334 0.013581
vn 0.865714 0.083737 -0.493484
v 0.025071 -0.007690 0.012969
vn 0.747308 -0.641070 -0.174813
v 0.017706 -0.037152 0.023378
vn 0.895704 -0.442985 -0.038440
v 0.023661 -0.028644 0.039199
vn 0.242206 -0.969897 0.025201
v 0.011715 -0.041552 0.042556
vn 0.998151 0.025978 -0.054949
v 0.029342 -0.002055 0.056701
vn 0.759337 -0.650557 0.013499
v 0.019958 -0.035676 0.057138
vn 0.957892 -0.284986 -0.035013
v 0.027939 -0.019370 0.066214
vn 0.435329 -0.899417 0.039222
v 0.014297 -0.038378 0.072638
vn 0.996449 0.084153 0.002597
v 0.031004 -0.005456 0.073462
vn 0.897921 -0.440153 0.001595
v 0.026237 -0.025621 0.086160
vn 0.929533 -0.368738 0.000037
v 0.028170 -0.023694 0.110521
vn 0.151698 -0.988411 -0.005590
v 0.010226 -0.038848 0.101463
vn 0.624776 -0.780536 -0.020449
v 0.018730 -0.035914 0.104761
vn 0.568603 -0.821564 -0.041512
v 0.017924 -0.037609 0.134262
vn 0.998110 -0.060906 -0.008177
v 0.029671 -0.008153 0.122526
vn 0.763162 -0.644676 -0.044461
v 0.021542 -0.035021 0.141742
vn 0.926559 -0.374988 -0.029519
v 0.027062 -0.024124 0.126656
vn 0.484738 -0.872890 -0.055597
v 0.017480 -0.038733 0.151954
vn 0.913965 -0.405772 -0.004160
v 0.027314 -0.026557 0.164901
vn 0.996948 -0.075549 -0.019703
v 0.030290 -0.011574 0.142396
vn 0.767978 -0.619070 0.164200
v 0.021420 -0.037835 0.181479
vn 0.995295 -0.086670 0.043320
v 0.030107 -0.013642 0.174072
vn 0.904679 -0.335669 0.262455
v 0.022192 -0.020264 0.200073
vn 0.951043 -0.219981 0.217082
v 0.027340 -0.024129 0.185356
vn 0.126215 -0.893092 0.431806
v 0.008906 -0.035366 0.220260
vn 0.529420 -0.810608 0.250260
v 0.013570 -0.035618 0.202625
vn 0.721941 -0.310240 0.618508
v 0.018903 -0.024048 0.221418
vn 0.619462 0.056534 0.782988
v 0.022241 -0.008649 0.220836
vn 0.377908 0.201670 -0.903612
v 0.015855 0.019569 0.013578
vn 0.970956 0.212979 -0.109015
v 0.028096 0.003592 0.031124
vn 0.847981 0.475953 -0.233231
v 0.019351 0.019458 0.021310
vn 0.742910 0.669277 0.012399
v 0.021488 0.020568 0.055660
vn 0.501964 0.863397 -0.050768
v 0.014383 0.026959 0.030884
vn 0.944986 0.326945 0.010408
v 0.027130 0.008972 0.064179
vn 0.949614 0.312954 -0.017121
v 0.027499 0.005955 0.085209
vn 0.842101 0.539236 0.009544
v 0.022945 0.015481 0.081726
vn 0.999874 -0.011690 0.010697
v 0.029340 -0.007463 0.090787
vn 0.210419 0.977192 0.028645
v 0.012289 0.023968 0.089209
vn 0.971304 0.237322 -0.015687
v 0.028982 0.005123 0.123085
vn 0.735181 0.677310 -0.027576
v 0.022655 0.017685 0.108044
vn 0.717377 0.695569 -0.039424
v 0.022132 0.019271 0.128470
vn 0.574866 0.816351 -0.055684
v 0.020289 0.022136 0.153638
vn 0.989896 0.141344 -0.011347
v 0.029731 -0.000438 0.151435
vn 0.874667 0.484194 -0.022682
v 0.024550 0.016841 0.161950
vn 0.982044 0.126675 0.139796
v 0.030120 0.003503 0.177355
vn 0.433797 0.894272 0.109992
v 0.014250 0.028475 0.181563
vn 0.982387 -0.016694 0.186112
v 0.024672 -0.006548 0.198410
vn 0.846718 0.491927 0.202674
v 0.025909 0.016729 0.184449
vn 0.925076 0.306709 0.223971
v 0.021358 0.010322 0.199703
vn 0.963844 0.204356 0.171006
v 0.022345 0.001513 0.214526
vn 0.460067 0.829093 0.317716
v 0.015649 0.019550 0.199894
vn -0.278483 0.634426 0.721076
v 0.009165 0.018298 0.223905
vn 0.704872 0.634746 0.316628
v 0.016280 0.016518 0.219857
# 127 vertices, 0 vertices normals

f 12//12 1//1 78//78
f 1//1 11//11 8//8
f 1//1 12//12 11//11
f 12//12 15//15 11//11
f 11//11 14//14 9//9
f 10//10 9//9 14//14
f 42//42 10//10 14//14
f 15//15 13//13 11//11
f 13//13 14//14 11//11
f 14//14 13//13 42//42
f 12//12 78//78 16//16
f 45//45 42//42 13//13
f 48//48 13//13 17//17
f 48//48 45//45 13//13
f 13//13 15//15 17//17
f 12//12 16//16 19//19
f 17//17 12//12 19//19
f 15//15 12//12 17//17
f 48//48 17//17 20//20
f 16//16 82//82 86//86
f 20//20 17//17 19//19
f 18//18 19//19 21//21
f 21//21 19//19 16//16
f 21//21 16//16 86//86
f 20//20 19//19 18//18
f 20//20 2//2 48//48
f 18//18 21//21 22//22
f 22//22 21//21 23//23
f 2//2 20//20 18//18
f 57//57 2//2 18//18
f 6//6 21//21 86//86
f 23//23 21//21 6//6
f 22//22 5//5 18//18
f 5//5 57//57 18//18
f 25//25 5//5 22//22
f 25//25 22//22 30//30
f 24//24 30//30 23//23
f 30//30 22//22 23//23
f 6//6 24//24 23//23
f 62//62 5//5 25//25
f 26//26 25//25 30//30
f 25//25 26//26 62//62
f 31//31 24//24 27//27
f 33//33 31//31 27//27
f 30//30 24//24 31//31
f 26//26 63//63 62//62
f 63//63 26//26 28//28
f 28//28 26//26 31//31
f 28//28 31//31 32//32
f 29//29 28//28 32//32
f 30//30 31//31 26//26
f 29//29 63//63 28//28
f 27//27 100//100 33//33
f 32//32 31//31 33//33
f 34//34 32//32 33//33
f 35//35 29//29 32//32
f 35//35 32//32 34//34
f 7//7 29//29 35//35
f 33//33 36//36 34//34
f 37//37 34//34 36//36
f 36//36 33//33 99//99
f 35//35 34//34 37//37
f 38//38 7//7 35//35
f 38//38 35//35 37//37
f 99//99 101//101 36//36
f 37//37 36//36 101//101
f 40//40 39//39 10//10
f 40//40 10//10 42//42
f 43//43 41//41 39//39
f 46//46 41//41 43//43
f 41//41 44//44 3//3
f 44//44 41//41 46//46
f 39//39 40//40 43//43
f 42//42 43//43 40//40
f 43//43 42//42 45//45
f 44//44 46//46 47//47
f 107//107 44//44 53//53
f 45//45 49//49 43//43
f 43//43 47//47 46//46
f 47//47 43//43 49//49
f 50//50 47//47 49//49
f 44//44 47//47 53//53
f 48//48 49//49 45//45
f 52//52 49//49 48//48
f 52//52 50//50 49//49
f 47//47 51//51 53//53
f 51//51 47//47 50//50
f 52//52 55//55 50//50
f 51//51 50//50 55//55
f 56//56 48//48 2//2
f 52//52 48//48 56//56
f 56//56 54//54 52//52
f 55//55 52//52 54//54
f 112//112 53//53 51//51
f 112//112 51//51 55//55
f 58//58 56//56 2//2
f 58//58 2//2 57//57
f 55//55 4//4 112//112
f 61//61 112//112 4//4
f 54//54 56//56 58//58
f 59//59 55//55 54//54
f 60//60 54//54 58//58
f 60//60 59//59 54//54
f 58//58 57//57 5//5
f 5//5 62//62 58//58
f 4//4 55//55 59//59
f 60//60 58//58 62//62
f 64//64 60//60 62//62
f 4//4 59//59 66//66
f 64//64 59//59 60//60
f 66//66 59//59 64//64
f 4//4 66//66 61//61
f 62//62 63//63 65//65
f 62//62 65//65 64//64
f 29//29 65//65 63//63
f 65//65 68//68 64//64
f 68//68 66//66 64//64
f 68//68 69//69 67//67
f 67//67 66//66 68//68
f 65//65 29//29 7//7
f 68//68 65//65 71//71
f 71//71 65//65 7//7
f 70//70 68//68 71//71
f 70//70 69//69 68//68
f 38//38 71//71 7//7
f 126//126 70//70 71//71
f 38//38 126//126 71//71
f 1//1 76//76 78//78
f 72//72 76//76 1//1
f 74//74 76//76 72//72
f 76//76 74//74 73//73
f 77//77 76//76 73//73
f 74//74 75//75 73//73
f 73//73 75//75 104//104
f 78//78 76//76 80//80
f 80//80 76//76 77//77
f 73//73 104//104 79//79
f 73//73 79//79 81//81
f 77//77 73//73 81//81
f 80//80 77//77 81//81
f 82//82 80//80 84//84
f 80//80 81//81 84//84
f 80//80 82//82 78//78
f 16//16 78//78 82//82
f 82//82 84//84 87//87
f 83//83 81//81 79//79
f 81//81 83//83 84//84
f 87//87 86//86 82//82
f 84//84 83//83 111//111
f 84//84 111//111 85//85
f 87//87 88//88 86//86
f 87//87 84//84 85//85
f 85//85 111//111 89//89
f 88//88 87//87 85//85
f 6//6 86//86 88//88
f 88//88 85//85 91//91
f 88//88 91//91 90//90
f 91//91 85//85 89//89
f 94//94 89//89 113//113
f 6//6 88//88 92//92
f 92//92 24//24 6//6
f 90//90 92//92 88//88
f 94//94 113//113 117//117
f 91//91 89//89 94//94
f 93//93 91//91 94//94
f 92//92 27//27 24//24
f 27//27 92//92 95//95
f 93//93 92//92 90//90
f 92//92 93//93 95//95
f 90//90 91//91 93//93
f 117//117 96//96 94//94
f 93//93 94//94 96//96
f 96//96 117//117 119//119
f 95//95 93//93 98//98
f 93//93 96//96 98//98
f 98//98 96//96 119//119
f 27//27 95//95 100//100
f 97//97 100//100 95//95
f 95//95 98//98 97//97
f 97//97 98//98 121//121
f 99//99 33//33 100//100
f 99//99 100//100 101//101
f 101//101 100//100 97//97
f 121//121 101//101 97//97
f 102//102 101//101 121//121
f 121//121 124//124 102//102
f 37//37 101//101 102//102
f 3//3 105//105 103//103
f 44//44 107//107 3//3
f 105//105 3//3 107//107
f 105//105 106//106 104//104
f 108//108 79//79 104//104
f 106//106 108//108 104//104
f 106//106 105//105 107//107
f 106//106 107//107 53//53
f 108//108 83//83 79//79
f 83//83 108//108 110//110
f 83//83 110//110 109//109
f 110//110 108//108 106//106
f 110//110 106//106 112//112
f 111//111 83//83 109//109
f 106//106 53//53 112//112
f 114//114 110//110 112//112
f 89//89 111//111 113//113
f 109//109 113//113 111//111
f 114//114 112//112 61//61
f 61//61 115//115 114//114
f 109//109 110//110 114//114
f 109//109 114//114 113//113
f 113//113 114//114 115//115
f 117//117 113//113 118//118
f 61//61 116//116 115//115
f 118//118 115//115 116//116
f 116//116 61//61 67//67
f 113//113 115//115 118//118
f 118//118 119//119 117//117
f 66//66 67//67 61//61
f 120//120 118//118 116//116
f 116//116 67//67 120//120
f 120//120 122//122 118//118
f 119//119 118//118 122//122
f 120//120 67//67 69//69
f 121//121 123//123 124//124
f 121//121 98//98 119//119
f 121//121 119//119 123//123
f 123//123 119//119 122//122
f 125//125 122//122 120//120
f 125//125 120//120 69//69
f 123//123 122//122 125//125
f 124//124 123//123 127//127
f 102//102 124//124 127//127
f 127//127 125//125 70//70
f 123//123 125//125 127//127
f 125//125 69//69 70//70
f 127//127 70//70 126//126
f 37//37 102//102 38//38
f 38//38 102//102 126//126
f 102//102 127//127 126//126
f 72//72 1//1 8//8
f 105//105 104//104 75//75
f 41//41 3//3 103//103
f 103//103 105//105 75//75
f 8//8 11//11 9//9
f 72//72 8//8 9//9
f 72//72 9//9 10//10
f 72//72 10//10 39//39
f 103//103 75//75 74//74
f 41//41 103//103 74//74
f 74//74 72//72 39//39
f 41//41 74//74 39//39
# 250 faces, 0 coords texture

# End of File
