####
#
# OBJ File Generated by Meshlab
#
####
# Object spongebob_squarepants_fruit_snaks_250_collision.obj
#
# Vertices: 127
# Faces: 250
#
####
vn -0.589193 0.654111 0.474331
v 0.000396 -0.088396 0.006606
vn -0.160956 0.057337 0.985295
v -0.000124 -0.044719 0.000045
vn -0.297404 0.954744 -0.003738
v -0.007147 -0.092089 0.085482
vn -0.071396 0.017139 0.997301
v 0.002669 -0.011295 -0.000890
vn -0.736536 -0.676399 -0.000540
v 0.034582 0.049566 0.086627
vn -0.733166 0.550420 -0.399381
v -0.001410 -0.085146 0.176822
vn -0.324788 0.123013 -0.937753
v 0.006931 -0.017052 0.187320
vn 0.619045 0.214318 0.755547
v -0.038298 -0.074813 0.003662
vn 0.033672 0.762133 0.646544
v -0.006549 -0.090713 0.007195
vn 0.147963 0.307655 0.939923
v -0.027970 -0.076079 0.001600
vn -0.112270 0.238432 0.964648
v -0.006017 -0.080286 0.001632
vn 0.432476 0.842160 0.322073
v -0.035233 -0.083815 0.009630
vn -0.060842 0.994519 0.085029
v -0.009730 -0.092187 0.014218
vn -0.588151 0.808701 -0.008980
v -0.001077 -0.090319 0.037122
vn 0.056805 0.998354 0.007851
v -0.009300 -0.092178 0.048913
vn 0.845379 -0.193791 0.497774
v -0.040441 -0.061228 0.008098
vn 0.340500 -0.058530 0.938421
v -0.029636 -0.047980 0.001394
vn 0.160488 -0.046068 0.985962
v -0.012834 -0.024864 -0.000805
vn 0.013650 0.033306 0.999352
v -0.011452 -0.048726 -0.000673
vn 0.552019 -0.167890 0.816755
v -0.027263 -0.030982 0.002521
vn 0.970945 0.154432 0.182802
v -0.045605 -0.072562 0.016999
vn 0.958147 -0.266304 0.105058
v -0.038442 -0.045254 0.030197
vn 0.657943 0.752531 0.028422
v -0.042090 -0.082213 0.058155
vn 0.247576 0.968785 0.012737
v -0.020492 -0.090349 0.074371
vn 0.946770 0.320313 0.032032
v -0.046925 -0.074881 0.080319
vn 0.984186 -0.170249 0.048929
v -0.046262 -0.067950 0.054208
vn 0.960575 -0.267455 0.075916
v -0.037334 -0.033836 0.045274
vn 0.961945 -0.271367 0.031954
v -0.036086 -0.025028 0.078562
vn 0.964873 -0.260227 0.036083
v -0.042847 -0.049297 0.080637
vn 0.498816 0.866692 0.005247
v -0.040313 -0.083461 0.097209
vn 0.694247 0.719402 0.021949
v -0.044389 -0.080756 0.112900
vn 0.145077 0.989416 0.002956
v -0.012019 -0.092347 0.106008
vn -0.263775 0.964406 -0.018520
v -0.007745 -0.091929 0.121984
vn 0.325899 0.945388 0.005677
v -0.026952 -0.088426 0.123836
vn 0.945597 0.325188 0.009923
v -0.049535 -0.074375 0.147773
vn 0.466039 0.884761 0.002121
v -0.040135 -0.084216 0.140805
vn 0.118160 0.992881 -0.015001
v -0.015457 -0.091407 0.148600
vn 0.983068 -0.180595 0.031026
v -0.047512 -0.062677 0.105186
vn 0.994151 0.104742 0.026314
v -0.049445 -0.071887 0.123514
vn 0.972223 -0.234017 0.004318
v -0.047275 -0.060026 0.149112
vn 0.960205 -0.279128 0.009675
v -0.037828 -0.027903 0.120216
vn 0.956592 -0.291410 -0.003415
v -0.038209 -0.029906 0.151866
vn 0.010955 0.914827 -0.403697
v -0.013858 -0.091456 0.176751
vn -0.532992 0.845417 -0.034487
v -0.006756 -0.090992 0.144860
vn -0.257500 0.268034 -0.928360
v -0.010157 -0.077160 0.185093
vn 0.914623 -0.019444 -0.403840
v -0.049741 -0.069071 0.180555
vn 0.648163 0.690468 -0.321151
v -0.046206 -0.080395 0.177668
vn 0.941768 -0.288329 -0.173032
v -0.038670 -0.031026 0.176353
vn 0.268666 0.348520 -0.897971
v -0.038677 -0.074676 0.186757
vn 0.387991 -0.103355 -0.915850
v -0.031952 -0.032019 0.188148
vn 0.878918 -0.276737 0.388484
v -0.029289 -0.020354 0.009042
vn 0.555279 -0.171301 0.813831
v -0.017442 -0.003884 0.002317
vn 0.888984 -0.261685 0.375803
v -0.021757 0.001448 0.009542
vn 0.199848 -0.079947 0.976560
v -0.003408 0.022127 0.000182
vn 0.779421 -0.191945 0.596372
v -0.013501 0.029920 0.005910
vn 0.949678 -0.281510 0.137343
v -0.028932 -0.016249 0.015689
vn 0.953689 -0.291294 0.075003
v -0.023790 0.006925 0.038767
vn 0.915979 -0.377067 0.137124
v -0.010902 0.048188 0.018924
vn 0.525278 -0.450126 0.722128
v -0.008372 0.048068 0.004628
vn 0.348949 -0.936068 0.044855
v -0.002490 0.059767 0.026571
vn 0.954407 -0.291931 0.062324
v -0.030131 -0.008181 0.053768
vn 0.952208 -0.301826 0.046926
v -0.020751 0.027458 0.081508
vn 0.958127 -0.285454 0.022546
v -0.029056 0.001338 0.090623
vn 0.849456 -0.525676 0.045709
v -0.012120 0.050905 0.058575
vn 0.245904 -0.969145 0.017020
v -0.001876 0.060904 0.063525
vn 0.958677 -0.284011 0.016591
v -0.022679 0.024722 0.120765
vn 0.960827 -0.277102 -0.005001
v -0.030969 -0.005485 0.133285
vn 0.964795 -0.262989 -0.002827
v -0.021034 0.030867 0.142530
vn 0.586282 -0.809860 0.019984
v -0.006689 0.058690 0.089610
vn 0.887171 -0.460408 0.030848
v -0.013439 0.051416 0.109569
vn 0.569662 -0.821299 0.030887
v -0.008806 0.057949 0.126855
vn 0.959486 -0.281448 -0.013149
v -0.031412 -0.008072 0.159484
vn 0.886744 -0.265403 -0.378478
v -0.029764 -0.004620 0.180700
vn 0.742232 -0.351872 -0.570331
v -0.014121 0.047954 0.180447
vn 0.397854 -0.165296 -0.902435
v -0.017973 0.009291 0.186967
vn 0.434060 -0.861564 -0.263248
v -0.008504 0.060261 0.176068
vn 0.913632 -0.405660 -0.026770
v -0.014992 0.052881 0.161695
vn -0.516690 0.180324 0.836967
v 0.004619 -0.067594 0.002824
vn -0.906302 0.258934 0.334020
v 0.013271 -0.049888 0.008189
vn -0.463062 0.121620 0.877942
v 0.011177 -0.040627 0.002370
vn -0.302777 0.072614 0.950291
v 0.013735 -0.004471 0.000343
vn -0.962501 0.270622 0.018845
v 0.028652 -0.001515 0.049390
vn -0.884951 0.454932 0.099487
v 0.003855 -0.085234 0.011556
vn -0.935892 0.352233 -0.006136
v 0.006593 -0.076149 0.039141
vn -0.859417 0.510650 -0.025273
v 0.003071 -0.082940 0.080013
vn -0.955557 0.293923 -0.022813
v 0.016241 -0.045337 0.070301
vn -0.959042 0.281044 -0.035391
v 0.017887 -0.034866 0.104482
vn -0.778285 0.626459 -0.042690
v -0.001125 -0.087520 0.117224
vn -0.940482 0.337407 -0.040629
v 0.006471 -0.070447 0.111503
vn -0.956974 0.285016 -0.054472
v 0.015000 -0.042457 0.133672
vn -0.935439 0.347999 -0.062051
v 0.008472 -0.060367 0.145270
vn -0.794124 0.241829 -0.557571
v 0.006736 -0.055663 0.178899
vn -0.445215 0.126738 0.886409
v 0.019043 -0.001665 0.002041
vn -0.772075 0.212416 0.598983
v 0.021217 -0.019005 0.006439
vn -0.105783 -0.010712 0.994332
v 0.011876 0.021827 -0.000419
vn -0.854693 0.256677 0.451240
v 0.029140 0.006273 0.009068
vn -0.002359 -0.125041 0.992149
v 0.013764 0.041089 0.000810
vn -0.441513 0.027500 0.896833
v 0.031084 0.029704 0.002249
vn -0.507861 -0.606959 0.611292
v 0.033615 0.048757 0.006433
vn -0.955016 0.024336 0.295554
v 0.038688 0.035814 0.010425
vn -0.977723 -0.209803 0.006356
v 0.039596 0.042332 0.031033
vn 0.074951 -0.878686 0.471480
v 0.002102 0.058632 0.009971
vn -0.096159 -0.384327 0.918176
v 0.020764 0.048628 0.002393
vn -0.202653 -0.973358 0.107265
v 0.008769 0.059547 0.016964
vn -0.176099 -0.983661 0.037407
v 0.003906 0.060466 0.043090
vn -0.607449 -0.791701 0.064925
v 0.034738 0.051249 0.014273
vn -0.543491 -0.839415 0.000677
v 0.029355 0.053721 0.062087
vn -0.961867 0.272409 -0.024625
v 0.023494 -0.017712 0.085162
vn -0.976486 0.215313 -0.010780
v 0.036552 0.026971 0.066243
vn -0.334230 -0.942325 0.017707
v 0.024409 0.056175 0.081627
vn -0.983354 0.176509 -0.043126
v 0.035554 0.027192 0.114961
vn -0.960298 0.270772 -0.067160
v 0.024446 -0.005437 0.141976
vn 0.014110 -0.999897 0.002751
v 0.002379 0.061424 0.100900
vn -0.397056 -0.917193 -0.033226
v 0.022335 0.056175 0.120295
vn -0.992652 -0.114277 -0.039793
v 0.037968 0.041847 0.094444
vn -0.874143 -0.483057 -0.050297
v 0.035197 0.047562 0.119235
vn -0.460712 -0.887247 -0.023175
v 0.027173 0.055755 0.100751
vn 0.016502 -0.999809 -0.010502
v -0.001328 0.061885 0.146144
vn -0.792805 -0.607125 -0.053478
v 0.031979 0.050042 0.153584
vn -0.880028 0.266359 -0.393196
v 0.017961 -0.016881 0.178197
vn -0.998577 -0.018072 -0.050166
v 0.035650 0.038062 0.157420
vn -0.901370 -0.092519 -0.423050
v 0.034197 0.039897 0.180986
vn 0.045289 -0.045002 -0.997960
v -0.004758 0.011535 0.188227
vn -0.368479 0.106930 -0.923466
v 0.016561 0.010766 0.188400
vn -0.413862 -0.849307 -0.327714
v 0.024507 0.054010 0.179004
vn 0.156537 -0.447418 -0.880519
v -0.003306 0.055296 0.183769
vn -0.253885 -0.280884 -0.925552
v 0.023892 0.045787 0.186592
# 127 vertices, 0 vertices normals

f 1//1 9//9 13//13
f 9//9 10//10 12//12
f 10//10 8//8 12//12
f 9//9 11//11 10//10
f 11//11 9//9 1//1
f 8//8 21//21 12//12
f 21//21 23//23 12//12
f 13//13 14//14 1//1
f 12//12 13//13 9//9
f 12//12 15//15 13//13
f 15//15 14//14 13//13
f 8//8 16//16 21//21
f 17//17 16//16 8//8
f 10//10 17//17 8//8
f 10//10 11//11 19//19
f 2//2 19//19 11//11
f 17//17 10//10 19//19
f 17//17 19//19 18//18
f 16//16 17//17 20//20
f 20//20 17//17 18//18
f 18//18 52//52 20//20
f 51//51 16//16 20//20
f 18//18 19//19 4//4
f 22//22 21//21 16//16
f 26//26 21//21 22//22
f 16//16 51//51 22//22
f 56//56 22//22 51//51
f 22//22 56//56 27//27
f 27//27 56//56 57//57
f 12//12 24//24 15//15
f 15//15 3//3 14//14
f 23//23 24//24 12//12
f 23//23 21//21 25//25
f 24//24 23//23 30//30
f 30//30 23//23 25//25
f 15//15 24//24 3//3
f 32//32 24//24 30//30
f 3//3 24//24 32//32
f 26//26 22//22 27//27
f 21//21 26//26 25//25
f 26//26 27//27 29//29
f 27//27 61//61 28//28
f 29//29 27//27 28//28
f 25//25 26//26 38//38
f 38//38 26//26 29//29
f 41//41 38//38 29//29
f 41//41 29//29 28//28
f 31//31 25//25 39//39
f 25//25 31//31 30//30
f 35//35 31//31 39//39
f 34//34 30//30 31//31
f 34//34 31//31 36//36
f 32//32 30//30 34//34
f 32//32 33//33 3//3
f 88//88 3//3 33//33
f 88//88 33//33 44//44
f 36//36 31//31 35//35
f 47//47 36//36 35//35
f 37//37 34//34 36//36
f 32//32 34//34 37//37
f 33//33 32//32 37//37
f 44//44 33//33 37//37
f 39//39 25//25 38//38
f 39//39 38//38 40//40
f 40//40 38//38 41//41
f 40//40 35//35 39//39
f 67//67 42//42 41//41
f 40//40 41//41 42//42
f 47//47 35//35 46//46
f 43//43 37//37 36//36
f 43//43 36//36 47//47
f 49//49 43//43 47//47
f 44//44 37//37 43//43
f 44//44 43//43 6//6
f 43//43 49//49 45//45
f 6//6 43//43 45//45
f 92//92 6//6 45//45
f 46//46 35//35 40//40
f 47//47 46//46 49//49
f 46//46 40//40 48//48
f 40//40 42//42 48//48
f 48//48 42//42 72//72
f 46//46 48//48 50//50
f 48//48 72//72 73//73
f 50//50 48//48 73//73
f 50//50 49//49 46//46
f 45//45 49//49 50//50
f 7//7 45//45 50//50
f 20//20 52//52 51//51
f 51//51 52//52 53//53
f 52//52 18//18 54//54
f 18//18 4//4 54//54
f 53//53 52//52 55//55
f 55//55 52//52 54//54
f 55//55 54//54 59//59
f 56//56 51//51 53//53
f 58//58 56//56 53//53
f 58//58 57//57 56//56
f 58//58 53//53 55//55
f 59//59 58//58 55//55
f 58//58 59//59 60//60
f 60//60 59//59 102//102
f 64//64 57//57 58//58
f 64//64 58//58 60//60
f 28//28 61//61 63//63
f 57//57 61//61 27//27
f 61//61 57//57 62//62
f 62//62 63//63 61//61
f 57//57 64//64 62//62
f 65//65 64//64 60//60
f 105//105 65//65 60//60
f 69//69 64//64 65//65
f 69//69 65//65 113//113
f 62//62 64//64 70//70
f 70//70 64//64 69//69
f 28//28 63//63 41//41
f 41//41 63//63 67//67
f 66//66 67//67 63//63
f 72//72 42//42 67//67
f 67//67 66//66 68//68
f 72//72 67//67 68//68
f 70//70 69//69 71//71
f 70//70 63//63 62//62
f 71//71 69//69 113//113
f 70//70 66//66 63//63
f 77//77 70//70 71//71
f 66//66 70//70 77//77
f 77//77 68//68 66//66
f 118//118 71//71 113//113
f 76//76 77//77 71//71
f 76//76 71//71 118//118
f 77//77 72//72 68//68
f 74//74 75//75 73//73
f 72//72 77//77 73//73
f 74//74 73//73 77//77
f 50//50 73//73 75//75
f 123//123 50//50 75//75
f 7//7 50//50 123//123
f 74//74 77//77 76//76
f 76//76 126//126 74//74
f 74//74 126//126 75//75
f 1//1 78//78 11//11
f 79//79 78//78 1//1
f 1//1 83//83 79//79
f 83//83 1//1 14//14
f 2//2 11//11 78//78
f 2//2 78//78 80//80
f 79//79 80//80 78//78
f 94//94 80//80 79//79
f 4//4 19//19 2//2
f 80//80 4//4 2//2
f 4//4 80//80 81//81
f 80//80 94//94 81//81
f 79//79 83//83 84//84
f 94//94 79//79 82//82
f 82//82 79//79 84//84
f 84//84 83//83 14//14
f 85//85 84//84 14//14
f 85//85 14//14 3//3
f 3//3 88//88 85//85
f 89//89 85//85 88//88
f 86//86 84//84 85//85
f 82//82 84//84 86//86
f 89//89 86//86 85//85
f 87//87 108//108 86//86
f 88//88 91//91 89//89
f 91//91 88//88 44//44
f 44//44 6//6 91//91
f 87//87 86//86 89//89
f 90//90 87//87 89//89
f 91//91 90//90 89//89
f 112//112 87//87 90//90
f 120//120 112//112 90//90
f 92//92 91//91 6//6
f 120//120 90//90 91//91
f 120//120 91//91 92//92
f 92//92 7//7 120//120
f 7//7 92//92 45//45
f 95//95 54//54 4//4
f 95//95 4//4 81//81
f 94//94 93//93 81//81
f 96//96 93//93 94//94
f 98//98 93//93 96//96
f 81//81 93//93 95//95
f 95//95 93//93 98//98
f 97//97 59//59 54//54
f 54//54 95//95 97//97
f 98//98 97//97 95//95
f 98//98 103//103 97//97
f 100//100 98//98 96//96
f 100//100 99//99 98//98
f 98//98 99//99 103//103
f 96//96 94//94 82//82
f 106//106 100//100 101//101
f 82//82 100//100 96//96
f 82//82 101//101 100//100
f 97//97 103//103 59//59
f 102//102 59//59 103//103
f 99//99 102//102 103//103
f 102//102 99//99 104//104
f 99//99 100//100 106//106
f 102//102 104//104 60//60
f 107//107 105//105 106//106
f 60//60 104//104 106//106
f 60//60 106//106 105//105
f 106//106 104//104 99//99
f 107//107 106//106 101//101
f 108//108 82//82 86//86
f 101//101 82//82 109//109
f 109//109 115//115 101//101
f 82//82 108//108 109//109
f 109//109 108//108 111//111
f 111//111 115//115 109//109
f 105//105 107//107 110//110
f 65//65 105//105 110//110
f 107//107 101//101 5//5
f 113//113 65//65 110//110
f 117//117 113//113 110//110
f 5//5 101//101 115//115
f 110//110 107//107 5//5
f 5//5 117//117 110//110
f 87//87 111//111 108//108
f 111//111 87//87 112//112
f 116//116 115//115 111//111
f 111//111 112//112 121//121
f 121//121 116//116 111//111
f 114//114 113//113 117//117
f 115//115 116//116 5//5
f 117//117 5//5 116//116
f 114//114 117//117 116//116
f 114//114 118//118 113//113
f 125//125 118//118 114//114
f 125//125 114//114 119//119
f 119//119 116//116 121//121
f 119//119 114//114 116//116
f 120//120 122//122 112//112
f 120//120 124//124 122//122
f 119//119 121//121 122//122
f 121//121 112//112 122//122
f 124//124 7//7 123//123
f 124//124 120//120 7//7
f 127//127 124//124 123//123
f 124//124 127//127 122//122
f 76//76 118//118 125//125
f 126//126 76//76 125//125
f 127//127 126//126 125//125
f 125//125 119//119 122//122
f 127//127 125//125 122//122
f 123//123 75//75 126//126
f 127//127 123//123 126//126
# 250 faces, 0 coords texture

# End of File
