####
#
# OBJ File Generated by Meshlab
#
####
# Object mom_to_mom_butternut_squash_pear_250_collision.obj
#
# Vertices: 127
# Faces: 250
#
####
vn -0.015914 0.297252 0.954666
v 0.013387 -0.015322 0.000807
vn -0.148043 -0.038963 0.988213
v 0.015661 -0.000470 -0.000500
vn -0.428895 0.900838 0.067380
v 0.022055 -0.028991 0.082803
vn -0.811111 -0.520423 -0.266944
v 0.024646 -0.004491 0.063729
vn 0.014359 0.005152 0.999884
v 0.006072 0.001598 -0.001139
vn -0.098287 -0.300481 0.948710
v 0.009543 0.016526 0.001101
vn -0.313178 -0.906079 0.284501
v 0.009929 0.025060 0.008689
vn -0.684154 -0.682470 -0.257232
v 0.007510 0.006532 0.072650
vn 0.276801 -0.960797 0.015812
v -0.011670 0.023360 0.084297
vn -0.609836 -0.787671 0.087603
v -0.006134 0.021269 0.088504
vn 0.939180 0.310628 0.146461
v 0.002208 0.002936 0.138918
vn 0.967713 0.248261 -0.043568
v -0.002544 0.001584 0.152413
vn -0.922873 -0.377797 0.074665
v 0.025886 -0.012945 0.091381
vn -0.800830 -0.597429 0.041833
v 0.010342 0.002006 0.129536
vn -0.889164 0.237995 0.390826
v 0.027543 0.000467 0.143484
vn -0.129261 -0.707127 0.695171
v 0.008521 0.011875 0.137584
vn 0.331598 -0.933924 0.133523
v 0.006721 0.019255 0.149570
vn 0.072856 0.009145 -0.997301
v 0.007677 -0.002266 0.160539
vn 0.307479 0.840304 0.446483
v 0.006500 -0.023548 0.007796
vn 0.353597 0.258397 0.898999
v -0.001698 -0.011064 0.001139
vn 0.693505 0.577537 0.430699
v -0.008505 -0.012929 0.007573
vn 0.600126 0.799102 0.035856
v -0.002387 -0.020338 0.019479
vn 0.907961 0.414949 0.058523
v -0.012313 -0.010384 0.016047
vn 0.669815 0.741681 -0.035463
v -0.003093 -0.018796 0.036553
vn 0.964304 0.208837 -0.162804
v -0.012897 -0.004218 0.030990
vn 0.830260 0.547835 -0.102688
v -0.010004 -0.011769 0.033912
vn 0.353644 0.934625 0.037566
v 0.006977 -0.024684 0.028968
vn 0.920366 0.377838 -0.100825
v -0.007174 -0.011971 0.047546
vn 0.801532 0.591057 -0.090538
v -0.002926 -0.018626 0.066105
vn 0.564350 0.822651 -0.068955
v 0.004324 -0.024820 0.065165
vn 0.953289 0.296203 -0.059189
v -0.010334 -0.002687 0.067314
vn 0.777819 0.610773 -0.148168
v -0.003670 -0.013275 0.080054
vn 0.925386 0.361029 -0.115412
v -0.005333 -0.005114 0.095364
vn 0.800804 0.569548 -0.185277
v -0.002100 -0.009149 0.104716
vn 0.927517 0.299456 -0.223693
v -0.007330 0.003479 0.108920
vn 0.772442 0.562048 -0.295694
v 0.000099 -0.008005 0.114735
vn 0.759334 0.560957 -0.329756
v 0.003479 -0.003290 0.129324
vn 0.425095 0.574966 -0.699077
v 0.005336 -0.008274 0.157346
vn 0.591803 -0.224476 0.774196
v -0.009436 0.016002 0.003249
vn 0.151649 -0.108645 0.982445
v 0.000993 0.008264 -0.000475
vn 0.935253 -0.155149 0.318167
v -0.013848 0.012104 0.008644
vn 0.859812 0.126561 0.494678
v -0.013206 0.002677 0.006509
vn -0.102728 -0.806094 0.582804
v 0.005080 0.024742 0.005672
vn 0.999756 -0.022046 0.001151
v -0.015716 0.007699 0.023186
vn 0.795021 -0.562438 0.227167
v -0.012614 0.019331 0.012229
vn 0.272652 -0.643949 0.714836
v -0.002346 0.022336 0.003452
vn 0.887786 -0.460226 -0.005259
v -0.012650 0.020666 0.032161
vn -0.440979 -0.894184 -0.077281
v 0.012545 0.024077 0.016570
vn 0.192310 -0.974587 0.114881
v -0.004714 0.026475 0.019070
vn 0.634415 -0.770818 0.057945
v -0.009531 0.024243 0.023783
vn -0.320122 -0.942128 -0.099582
v 0.002339 0.025990 0.036846
vn 0.385092 -0.922468 0.027521
v -0.006795 0.026129 0.029261
vn 0.999484 -0.004235 -0.031846
v -0.012253 0.018464 0.044351
vn 0.938937 -0.337677 0.066122
v -0.015887 0.020616 0.066933
vn -0.655891 -0.718003 -0.232977
v 0.014648 0.016206 0.044551
vn 0.728626 -0.683871 0.037753
v -0.010870 0.025017 0.048100
vn -0.035142 -0.996895 -0.070460
v -0.005862 0.027376 0.054434
vn -0.572876 -0.763518 -0.298083
v -0.000237 0.023648 0.057392
vn -0.414941 -0.900874 -0.127480
v -0.009477 0.025050 0.075781
vn 0.748551 -0.642307 -0.164662
v -0.014688 0.023989 0.079092
vn -0.006424 -0.992375 -0.123091
v -0.008816 0.025717 0.066510
vn 0.994982 0.038855 -0.092202
v -0.013253 0.019778 0.086778
vn -0.742806 -0.663387 0.090316
v 0.001636 0.010252 0.085092
vn 0.989680 -0.123288 0.073034
v -0.014464 0.022959 0.096020
vn 0.923275 0.115361 -0.366408
v -0.013924 0.020152 0.109114
vn -0.741531 -0.670631 -0.019638
v 0.012392 0.007957 0.105336
vn -0.609813 -0.788866 0.076281
v -0.006018 0.026456 0.102694
vn 0.194854 -0.979087 0.058483
v -0.012033 0.028546 0.102058
vn 0.620255 -0.433276 -0.653878
v -0.000864 0.009501 0.123165
vn -0.570663 -0.769023 -0.288008
v 0.004904 0.010025 0.117403
vn 0.951360 -0.177631 -0.251717
v 0.000270 0.006965 0.127483
vn 0.072864 -0.997340 0.001897
v 0.002484 0.008961 0.128279
vn 0.803502 -0.547119 -0.234618
v -0.012753 0.027801 0.109376
vn -0.096677 -0.802982 -0.588110
v -0.007951 0.025169 0.117191
vn 0.765646 -0.598872 0.234816
v 0.002150 0.010599 0.140529
vn 0.946362 -0.271244 0.175570
v -0.000953 0.008654 0.147660
vn 0.720902 -0.224074 -0.655814
v -0.000911 0.007933 0.155551
vn 0.711030 -0.674413 -0.199004
v 0.003049 0.016174 0.152405
vn -0.215955 0.675407 0.705116
v 0.016433 -0.022358 0.004346
vn -0.463614 0.842558 0.274150
v 0.022362 -0.022655 0.008769
vn -0.789508 0.383154 0.479447
v 0.027781 -0.015575 0.007040
vn -0.446065 0.094248 0.890025
v 0.025272 -0.004303 0.001585
vn -0.023966 0.989021 0.145817
v 0.014433 -0.025586 0.016086
vn -0.392871 0.911810 0.119398
v 0.019263 -0.025003 0.017300
vn -0.991033 0.117468 0.063680
v 0.031224 -0.008182 0.014540
vn -0.835748 0.545798 0.060242
v 0.026729 -0.019649 0.020873
vn -0.463549 0.881103 0.093698
v 0.021362 -0.025974 0.030683
vn -0.877127 0.479779 0.021454
v 0.028396 -0.020521 0.051902
vn -0.998353 0.008458 -0.056745
v 0.030211 -0.013922 0.043128
vn -0.993424 -0.075985 -0.085647
v 0.030967 -0.006384 0.027412
vn -0.593540 0.803213 0.050591
v 0.023080 -0.026998 0.054788
vn 0.307614 0.951185 0.024894
v 0.011494 -0.028324 0.061166
vn -0.025212 0.998263 0.053246
v 0.016929 -0.029207 0.060149
vn -0.993316 -0.038584 -0.108787
v 0.028124 -0.017621 0.071085
vn -0.861164 0.508324 -0.001718
v 0.026142 -0.024104 0.075277
vn -0.842778 -0.527852 -0.105341
v 0.023151 -0.010802 0.081516
vn 0.340436 0.939902 -0.026206
v 0.015329 -0.029166 0.087884
vn -0.986131 0.161407 0.038652
v 0.026606 -0.023250 0.085321
vn -0.835349 0.548527 0.036187
v 0.026865 -0.029079 0.100441
vn 0.362096 0.927278 -0.095090
v 0.017204 -0.030287 0.097124
vn -0.558752 0.739979 -0.374469
v 0.025574 -0.028422 0.115389
vn 0.602640 0.750710 -0.270665
v 0.015004 -0.024658 0.108969
vn -0.983945 -0.121265 -0.130945
v 0.027173 -0.024558 0.107233
vn -0.887430 -0.432077 -0.160550
v 0.021145 -0.005128 0.106694
vn -0.115825 0.741609 -0.660758
v 0.021805 -0.025124 0.122483
vn -0.768246 0.364814 -0.526031
v 0.019548 -0.014678 0.130283
vn -0.931764 -0.259916 -0.253496
v 0.020876 -0.015059 0.122938
vn 0.253499 0.967159 -0.018512
v 0.011826 -0.008499 0.138547
vn -0.774080 0.220739 0.593358
v 0.018314 -0.004785 0.137858
vn -0.519399 0.843074 0.139465
v 0.023304 -0.009040 0.149056
vn 0.385443 0.922247 -0.029891
v 0.006479 -0.010977 0.151059
vn -0.577359 0.539505 -0.612855
v 0.024803 -0.005187 0.154870
vn -0.881371 -0.147716 0.448736
v 0.029739 0.002174 0.006436
vn -0.412919 -0.420032 0.808128
v 0.020718 0.013889 0.002643
vn -0.723010 -0.663255 0.193258
v 0.024229 0.015978 0.007822
vn -0.922065 -0.375388 -0.094236
v 0.029114 0.007585 0.014839
vn -0.865620 -0.460902 -0.195632
v 0.027031 0.005822 0.024540
vn -0.883740 -0.436787 -0.167991
v 0.026676 0.001702 0.042295
vn -0.567159 -0.803549 -0.180668
v 0.010410 0.022685 0.031789
vn -0.726820 -0.660879 -0.187005
v 0.019025 0.016401 0.025805
vn -0.564110 -0.266423 0.781536
v 0.023679 0.010724 0.139490
vn -0.307164 -0.854171 0.419574
v 0.018965 0.019292 0.143318
vn -0.942237 0.009997 -0.334797
v 0.029431 0.002733 0.149628
vn -0.885455 -0.461029 -0.058500
v 0.027706 0.011188 0.148747
vn 0.115293 -0.643502 -0.756712
v 0.010558 0.018655 0.153824
vn -0.341353 -0.865616 -0.366315
v 0.018804 0.019343 0.150583
vn -0.424829 -0.302783 -0.853137
v 0.019036 0.010764 0.156723
# 127 vertices, 0 vertices normals

f 20//20 19//19 1//1
f 21//21 19//19 20//20
f 42//42 21//21 20//20
f 22//22 21//21 23//23
f 19//19 21//21 22//22
f 23//23 21//21 42//42
f 26//26 24//24 22//22
f 23//23 26//26 22//22
f 24//24 27//27 22//22
f 27//27 19//19 22//22
f 26//26 23//23 25//25
f 24//24 26//26 28//28
f 24//24 30//30 27//27
f 30//30 24//24 29//29
f 29//29 24//24 28//28
f 30//30 29//29 32//32
f 31//31 29//29 28//28
f 31//31 32//32 29//29
f 97//97 30//30 32//32
f 31//31 33//33 32//32
f 34//34 32//32 33//33
f 100//100 32//32 34//34
f 34//34 33//33 35//35
f 34//34 35//35 36//36
f 37//37 36//36 35//35
f 11//11 108//108 37//37
f 111//111 11//11 12//12
f 108//108 11//11 111//111
f 38//38 111//111 12//12
f 39//39 42//42 20//20
f 39//39 20//20 40//40
f 42//42 39//39 41//41
f 40//40 20//20 5//5
f 40//40 5//5 6//6
f 39//39 40//40 46//46
f 39//39 45//45 41//41
f 46//46 45//45 39//39
f 6//6 46//46 40//40
f 46//46 6//6 43//43
f 23//23 42//42 44//44
f 41//41 44//44 42//42
f 45//45 46//46 49//49
f 49//49 50//50 45//45
f 45//45 44//44 41//41
f 23//23 44//44 25//25
f 25//25 28//28 26//26
f 25//25 44//44 53//53
f 53//53 28//28 25//25
f 44//44 45//45 47//47
f 50//50 47//47 45//45
f 53//53 44//44 47//47
f 53//53 47//47 56//56
f 50//50 49//49 52//52
f 49//49 46//46 43//43
f 49//49 43//43 7//7
f 49//49 7//7 48//48
f 52//52 49//49 51//51
f 47//47 50//50 52//52
f 51//51 49//49 48//48
f 119//119 51//51 48//48
f 51//51 119//119 55//55
f 53//53 31//31 28//28
f 54//54 53//53 56//56
f 54//54 31//31 53//53
f 58//58 51//51 55//55
f 47//47 52//52 56//56
f 56//56 52//52 57//57
f 51//51 57//57 52//52
f 54//54 56//56 61//61
f 61//61 56//56 57//57
f 57//57 51//51 58//58
f 8//8 61//61 58//58
f 8//8 59//59 61//61
f 60//60 31//31 54//54
f 31//31 60//60 62//62
f 62//62 60//60 9//9
f 9//9 59//59 10//10
f 59//59 8//8 63//63
f 63//63 10//10 59//59
f 61//61 60//60 54//54
f 57//57 58//58 61//61
f 60//60 61//61 59//59
f 60//60 59//59 9//9
f 62//62 33//33 31//31
f 35//35 33//33 62//62
f 35//35 62//62 64//64
f 9//9 64//64 62//62
f 35//35 64//64 65//65
f 10//10 63//63 67//67
f 65//65 64//64 73//73
f 74//74 67//67 70//70
f 63//63 66//66 67//67
f 70//70 67//67 66//66
f 64//64 9//9 68//68
f 64//64 68//68 73//73
f 67//67 68//68 9//9
f 9//9 10//10 67//67
f 73//73 68//68 74//74
f 68//68 67//67 74//74
f 35//35 65//65 69//69
f 69//69 65//65 74//74
f 70//70 69//69 74//74
f 71//71 37//37 35//35
f 11//11 37//37 71//71
f 71//71 35//35 69//69
f 72//72 71//71 69//69
f 69//69 70//70 72//72
f 72//72 70//70 14//14
f 70//70 66//66 14//14
f 74//74 65//65 73//73
f 11//11 71//71 75//75
f 75//75 71//71 72//72
f 16//16 72//72 14//14
f 72//72 16//16 75//75
f 76//76 12//12 11//11
f 11//11 75//75 76//76
f 75//75 16//16 17//17
f 77//77 12//12 76//76
f 77//77 76//76 78//78
f 38//38 12//12 77//77
f 78//78 76//76 75//75
f 75//75 17//17 78//78
f 17//17 125//125 78//78
f 125//125 77//77 78//78
f 38//38 77//77 18//18
f 125//125 18//18 77//77
f 19//19 79//79 1//1
f 82//82 1//1 79//79
f 82//82 79//79 81//81
f 81//81 79//79 80//80
f 5//5 20//20 1//1
f 2//2 5//5 1//1
f 82//82 2//2 1//1
f 113//113 82//82 81//81
f 83//83 19//19 27//27
f 27//27 93//93 83//83
f 87//87 84//84 83//83
f 87//87 83//83 93//93
f 93//93 27//27 92//92
f 83//83 79//79 19//19
f 80//80 79//79 83//83
f 80//80 83//83 84//84
f 86//86 81//81 80//80
f 85//85 81//81 86//86
f 86//86 80//80 84//84
f 86//86 90//90 85//85
f 81//81 85//85 113//113
f 85//85 116//116 113//113
f 85//85 90//90 116//116
f 86//86 84//84 87//87
f 90//90 86//86 89//89
f 89//89 86//86 88//88
f 92//92 27//27 30//30
f 91//91 87//87 93//93
f 88//88 86//86 87//87
f 88//88 87//87 91//91
f 89//89 118//118 90//90
f 89//89 4//4 118//118
f 3//3 91//91 93//93
f 3//3 95//95 91//91
f 92//92 30//30 97//97
f 97//97 93//93 92//92
f 3//3 93//93 97//97
f 98//98 95//95 3//3
f 94//94 89//89 88//88
f 88//88 91//91 95//95
f 94//94 88//88 95//95
f 4//4 89//89 94//94
f 94//94 96//96 4//4
f 94//94 95//95 98//98
f 96//96 94//94 98//98
f 3//3 97//97 100//100
f 99//99 3//3 100//100
f 98//98 3//3 99//99
f 99//99 100//100 101//101
f 101//101 103//103 99//99
f 32//32 100//100 97//97
f 96//96 98//98 13//13
f 13//13 98//98 99//99
f 13//13 63//63 96//96
f 100//100 34//34 102//102
f 13//13 99//99 103//103
f 104//104 66//66 13//13
f 104//104 13//13 103//103
f 102//102 101//101 100//100
f 101//101 102//102 105//105
f 36//36 102//102 34//34
f 105//105 102//102 37//37
f 104//104 103//103 107//107
f 107//107 103//103 101//101
f 14//14 104//104 107//107
f 37//37 106//106 105//105
f 36//36 37//37 102//102
f 107//107 101//101 105//105
f 105//105 106//106 107//107
f 106//106 37//37 108//108
f 14//14 107//107 106//106
f 14//14 106//106 109//109
f 109//109 106//106 108//108
f 110//110 109//109 108//108
f 15//15 109//109 110//110
f 110//110 108//108 111//111
f 111//111 38//38 112//112
f 112//112 110//110 111//111
f 38//38 18//18 112//112
f 112//112 15//15 110//110
f 123//123 15//15 112//112
f 2//2 114//114 6//6
f 6//6 5//5 2//2
f 82//82 114//114 2//2
f 82//82 113//113 114//114
f 114//114 113//113 115//115
f 43//43 6//6 114//114
f 7//7 43//43 114//114
f 7//7 114//114 115//115
f 117//117 116//116 90//90
f 115//115 113//113 116//116
f 7//7 115//115 48//48
f 115//115 116//116 120//120
f 115//115 120//120 48//48
f 118//118 117//117 90//90
f 120//120 119//119 48//48
f 120//120 116//116 117//117
f 55//55 118//118 4//4
f 55//55 120//120 118//118
f 118//118 120//120 117//117
f 119//119 120//120 55//55
f 4//4 58//58 55//55
f 8//8 58//58 4//4
f 96//96 8//8 4//4
f 63//63 8//8 96//96
f 66//66 63//63 13//13
f 66//66 104//104 14//14
f 14//14 109//109 16//16
f 16//16 109//109 121//121
f 121//121 109//109 15//15
f 15//15 124//124 121//121
f 124//124 15//15 123//123
f 16//16 121//121 122//122
f 122//122 17//17 16//16
f 122//122 121//121 124//124
f 112//112 18//18 127//127
f 125//125 127//127 18//18
f 127//127 124//124 123//123
f 127//127 123//123 112//112
f 126//126 124//124 127//127
f 17//17 122//122 126//126
f 17//17 126//126 125//125
f 126//126 127//127 125//125
f 126//126 122//122 124//124
# 250 faces, 0 coords texture

# End of File
