####
#
# OBJ File Generated by Meshlab
#
####
# Object nutrigrain_harvest_country_strawberry_250_collision.obj
#
# Vertices: 127
# Faces: 250
#
####
vn -0.899746 -0.015539 -0.436137
v -0.083235 0.021527 0.007828
vn 0.759556 -0.375310 -0.531240
v 0.082191 -0.043957 0.005871
vn -0.420386 -0.886851 -0.191758
v 0.044487 -0.074368 0.009785
vn 0.357641 0.931766 -0.062492
v -0.043053 0.062622 0.006790
vn -0.214895 -0.362773 -0.906761
v 0.039471 -0.066942 0.005871
vn -0.718491 0.685487 0.117806
v -0.056615 0.058403 0.137605
vn 0.266295 0.306835 0.913750
v 0.066536 -0.024399 0.146917
vn -0.529345 -0.817470 0.227016
v 0.043133 -0.064467 0.140731
vn -0.791954 -0.598100 -0.122826
v -0.082191 0.017976 0.007828
vn 0.574017 0.818830 0.004694
v -0.033268 0.056293 0.135029
vn -0.969814 -0.192596 0.149557
v -0.075839 0.025492 0.136172
vn -0.401752 -0.304187 -0.863751
v -0.080235 0.017612 0.006662
vn -0.597171 -0.799814 0.060700
v -0.068729 0.015762 0.135291
vn 0.724727 -0.638848 -0.258157
v 0.060665 -0.070450 0.006102
vn -0.744049 0.528754 -0.408425
v -0.076321 0.035491 0.005871
vn -0.205272 0.969426 0.134451
v -0.048937 0.062930 0.136458
vn 0.811186 -0.581153 0.065103
v 0.065232 -0.061586 0.135029
vn 0.562227 0.791048 -0.241128
v -0.003914 0.035225 0.006018
vn 0.525323 0.794436 0.304806
v -0.036049 0.057411 0.142799
vn 0.924400 0.170960 -0.340966
v 0.084148 -0.034987 0.007828
vn 0.067695 0.014699 0.997598
v 0.063051 -0.046896 0.148137
vn -0.404008 -0.298071 0.864830
v -0.068613 0.022788 0.147079
vn -0.370695 -0.924076 0.093102
v 0.049710 -0.068493 0.136986
vn 0.317840 -0.945730 0.067616
v 0.056930 -0.068799 0.134705
vn -0.814424 -0.576271 0.068010
v -0.074364 0.021118 0.133072
vn -0.974919 0.161680 0.152949
v -0.075971 0.029397 0.136182
vn -0.082034 -0.317950 -0.944552
v 0.051627 -0.071106 0.005871
vn -0.812289 0.371197 -0.449888
v -0.080235 0.029354 0.006442
vn -0.147023 -0.136327 -0.979693
v -0.076321 0.016057 0.005871
vn 0.203542 0.978783 0.023533
v -0.045010 0.062820 0.131115
vn -0.096673 0.972487 -0.211950
v -0.046967 0.062622 0.007058
vn 0.992385 0.058351 0.108479
v 0.081563 -0.033268 0.135029
vn 0.672605 0.735143 0.084668
v 0.074846 -0.021833 0.137372
vn 0.456097 0.653796 0.603760
v -0.033268 0.054031 0.144814
vn 0.067583 0.165122 0.983955
v -0.041499 0.054042 0.147702
vn -0.465258 -0.870796 0.158901
v 0.046300 -0.066606 0.140186
vn -0.044925 -0.997433 0.055751
v 0.052837 -0.069388 0.135029
vn -0.678891 0.688823 -0.254225
v -0.060434 0.054794 0.005871
vn -0.827964 0.558223 0.053501
v -0.073283 0.035225 0.135029
vn -0.933398 0.330530 -0.139709
v -0.082312 0.025440 0.007828
vn -0.772962 0.634107 -0.020912
v -0.064179 0.050880 0.011742
vn -0.296322 0.107343 -0.949037
v -0.078278 0.032308 0.005871
vn -0.317653 0.946073 0.063578
v -0.053183 0.060665 0.005871
vn -0.602505 0.798072 -0.008365
v -0.056751 0.058430 0.013699
vn 0.032456 0.999446 0.007360
v -0.046967 0.062926 0.131115
vn 0.343237 0.937178 0.062334
v -0.043053 0.062052 0.135029
vn 0.825840 -0.538238 0.168192
v 0.078297 -0.043036 0.135358
vn 0.641890 -0.764835 0.054806
v 0.061984 -0.065690 0.138240
vn 0.340917 0.432533 -0.834680
v 0.068594 -0.017612 0.005871
vn 0.577446 0.816428 0.001242
v -0.011669 0.041177 0.113522
vn 0.581539 0.813517 -0.001384
v 0.002152 0.031311 0.105675
vn 0.987704 -0.142666 0.063924
v 0.081568 -0.035225 0.133072
vn 0.925366 0.378861 0.012705
v 0.081689 -0.030712 0.095790
vn 0.839514 0.542711 0.026098
v 0.079159 -0.026419 0.133072
vn 0.023332 0.028623 0.999318
v 0.003582 0.001960 0.148584
vn -0.117869 -0.145317 0.982339
v -0.015900 -0.013454 0.148340
vn -0.005211 0.006345 0.999966
v -0.012692 -0.000373 0.148820
vn -0.287338 0.679355 0.675214
v -0.050813 0.057941 0.146840
vn -0.244871 -0.966774 0.073396
v 0.050880 -0.069084 0.135029
vn -0.583879 -0.808310 0.075640
v 0.011745 -0.042255 0.138764
vn -0.371204 -0.607458 0.702284
v 0.046967 -0.062622 0.147674
vn 0.303207 -0.730104 -0.612384
v 0.058707 -0.072417 0.005871
vn 0.093826 -0.994490 -0.046751
v 0.048893 -0.074771 0.011028
vn -0.636826 0.771007 -0.000352
v -0.054794 0.060219 0.123287
vn -0.555178 0.675624 0.485087
v -0.054168 0.057875 0.143661
vn -0.811692 0.571642 0.119920
v -0.065229 0.045993 0.138465
vn 0.423804 0.905722 0.007645
v -0.041096 0.061151 0.135029
vn 0.345396 0.938418 0.008583
v -0.044452 0.062622 0.131115
vn 0.258187 -0.371658 0.891745
v 0.056356 -0.064586 0.148468
vn 0.414627 0.476056 0.775535
v 0.070616 -0.022115 0.144771
vn 0.219575 0.432551 -0.874464
v -0.040198 0.060565 0.005871
vn 0.721735 0.582759 -0.373484
v 0.080235 -0.027726 0.005871
vn 0.667137 0.744862 -0.010395
v 0.075588 -0.023483 0.009785
vn 0.593644 0.804144 0.030635
v 0.066764 -0.015609 0.131394
vn 0.583183 0.812341 -0.000385
v 0.028814 0.012200 0.102368
vn 0.582193 0.813027 0.006179
v 0.011414 0.024658 0.122309
vn 0.394978 0.912000 0.110672
v -0.040079 0.060652 0.136893
vn 0.585205 0.805033 0.097245
v 0.068493 -0.017473 0.139567
vn 0.983586 -0.122607 -0.132389
v 0.084157 -0.037515 0.007829
vn 0.749980 0.660085 0.042639
v 0.077362 -0.024288 0.133561
vn -0.899449 -0.408186 0.156123
v -0.074356 0.021665 0.137544
vn 0.054505 0.060682 0.996668
v 0.012494 0.011215 0.147948
vn 0.278525 0.414049 0.866595
v -0.040382 0.056450 0.146998
vn -0.873021 0.480028 0.086065
v -0.074371 0.033395 0.136460
vn -0.581662 -0.811451 0.056720
v 0.025440 -0.052220 0.136986
vn -0.431478 -0.659600 0.615430
v 0.045010 -0.062517 0.146679
vn 0.143673 -0.988220 0.052710
v 0.054794 -0.069360 0.132093
vn -0.720876 0.692742 -0.021133
v -0.060867 0.054847 0.011778
vn -0.542664 0.839922 0.006857
v -0.054203 0.060665 0.123287
vn -0.668912 0.743013 -0.022083
v -0.060665 0.055034 0.011742
vn -0.073344 0.133290 -0.988360
v -0.052467 0.061219 0.005871
vn -0.801617 0.596471 0.040412
v -0.059002 0.055567 0.133118
vn 0.347309 0.417129 0.839869
v 0.050391 -0.010763 0.146585
vn 0.585440 0.806345 0.084066
v 0.050521 -0.004032 0.137104
vn 0.614567 0.787658 -0.043611
v 0.064579 -0.013699 0.008895
vn 0.587052 0.809439 0.013326
v 0.048946 -0.002280 0.120269
vn 0.513012 0.853357 0.092736
v -0.037060 0.058919 0.137943
vn 0.944232 -0.264183 0.196553
v 0.080414 -0.039050 0.137131
vn -0.225418 -0.421679 0.878279
v 0.049291 -0.062738 0.148744
vn -0.449107 -0.566758 0.690716
v -0.066439 0.017612 0.144753
vn 0.427303 -0.044736 0.903001
v 0.076509 -0.034237 0.146619
vn -0.046317 -0.044599 0.997931
v -0.040117 0.007828 0.148341
vn 0.246538 0.832448 0.496235
v -0.043082 0.060117 0.145131
vn 0.097972 0.140818 0.985176
v -0.010029 0.032045 0.147489
vn 0.170044 0.976457 0.132727
v -0.046475 0.062794 0.136029
vn -0.516362 -0.768016 0.378842
v 0.039938 -0.061216 0.143732
vn -0.572760 -0.802305 0.168086
v 0.034532 -0.058429 0.141161
vn -0.694179 -0.640310 0.328813
v -0.072568 0.019651 0.141122
vn -0.616576 0.787184 0.013232
v -0.054794 0.060215 0.129158
vn -0.475734 0.866817 0.149347
v -0.053591 0.060671 0.135534
vn -0.642604 0.765249 -0.038141
v -0.058762 0.056737 0.013126
vn -0.465955 0.884550 0.021370
v -0.052837 0.061402 0.130626
vn 0.701173 -0.437602 0.562904
v 0.070342 -0.050488 0.144807
vn 0.581022 0.812214 0.052170
v -0.015729 0.043827 0.137050
vn 0.684557 0.151957 0.712945
v 0.078614 -0.033085 0.145447
vn 0.881369 0.415190 0.225403
v 0.079628 -0.027871 0.139776
vn -0.846600 -0.146337 0.511717
v -0.073751 0.025661 0.143447
vn -0.110939 -0.105665 0.988194
v -0.063845 0.021771 0.147680
vn -0.009131 -0.045661 0.998915
v 0.049818 -0.061605 0.148923
vn -0.126198 -0.930147 0.344819
v 0.053232 -0.068719 0.144586
vn -0.616259 -0.778994 0.115730
v -0.070591 0.017523 0.139005
vn -0.506860 -0.697294 0.506828
v 0.023072 -0.048550 0.144790
vn 0.677849 -0.680818 0.277504
v 0.061328 -0.065886 0.142085
vn 0.598292 0.644871 0.475592
v 0.071768 -0.021131 0.142830
vn -0.310682 0.091976 0.946053
v -0.068258 0.032539 0.147895
vn -0.822928 0.387533 0.415461
v -0.072991 0.033304 0.144233
vn 0.756640 -0.411750 0.507896
v 0.076658 -0.041048 0.143590
# 127 vertices, 0 vertices normals

f 11//11 1//1 9//9
f 12//12 5//5 3//3
f 12//12 3//3 9//9
f 12//12 9//9 1//1
f 20//20 2//2 72//72
f 13//13 9//9 3//3
f 27//27 62//62 3//3
f 62//62 2//2 14//14
f 28//28 12//12 1//1
f 29//29 5//5 12//12
f 31//31 4//4 43//43
f 31//31 43//43 16//16
f 48//48 14//14 2//2
f 50//50 18//18 4//4
f 50//50 4//4 10//10
f 71//71 4//4 18//18
f 97//97 10//10 4//4
f 97//97 4//4 77//77
f 79//79 98//98 2//2
f 79//79 2//2 20//20
f 36//36 8//8 3//3
f 81//81 11//11 9//9
f 81//81 9//9 25//25
f 27//27 3//3 5//5
f 48//48 62//62 14//14
f 63//63 62//62 24//24
f 39//39 15//15 28//28
f 39//39 92//92 15//15
f 40//40 26//26 84//84
f 40//40 28//28 1//1
f 40//40 1//1 26//26
f 41//41 38//38 15//15
f 41//41 88//88 38//38
f 42//42 28//28 15//15
f 42//42 29//29 12//12
f 42//42 12//12 28//28
f 43//43 112//112 16//16
f 45//45 30//30 4//4
f 45//45 31//31 16//16
f 45//45 4//4 31//31
f 47//47 17//17 2//2
f 49//49 95//95 72//72
f 49//49 18//18 95//95
f 33//33 95//95 74//74
f 50//50 10//10 114//114
f 51//51 95//95 18//18
f 51//51 18//18 50//50
f 91//91 43//43 4//4
f 91//91 4//4 71//71
f 19//19 34//34 124//124
f 79//79 32//32 52//52
f 53//53 20//20 72//72
f 53//53 72//72 54//54
f 103//103 34//34 19//19
f 36//36 3//3 23//23
f 59//59 23//23 3//3
f 59//59 3//3 37//37
f 120//120 59//59 37//37
f 108//108 25//25 9//9
f 108//108 9//9 121//121
f 11//11 26//26 1//1
f 11//11 117//117 26//26
f 121//121 9//9 13//13
f 60//60 13//13 3//3
f 107//107 3//3 8//8
f 122//122 106//106 86//86
f 3//3 63//63 37//37
f 87//87 63//63 24//24
f 63//63 3//3 62//62
f 84//84 39//39 28//28
f 84//84 28//28 40//40
f 92//92 41//41 15//15
f 67//67 77//77 4//4
f 67//67 4//4 46//46
f 68//68 46//46 4//4
f 68//68 4//4 30//30
f 68//68 30//30 46//46
f 123//123 17//17 47//47
f 98//98 47//47 2//2
f 17//17 48//48 2//2
f 17//17 123//123 48//48
f 74//74 95//95 96//96
f 71//71 18//18 49//49
f 73//73 33//33 72//72
f 73//73 95//95 33//33
f 75//75 95//95 51//51
f 76//76 51//51 50//50
f 76//76 75//75 51//51
f 76//76 50//50 114//114
f 97//97 114//114 10//10
f 98//98 79//79 52//52
f 79//79 20//20 32//32
f 53//53 32//32 20//20
f 117//117 11//11 81//81
f 119//119 21//21 55//55
f 21//21 82//82 55//55
f 82//82 7//7 104//104
f 103//103 104//104 83//83
f 35//35 104//104 103//103
f 83//83 34//34 103//103
f 83//83 70//70 34//34
f 106//106 120//120 86//86
f 120//120 23//23 59//59
f 120//120 36//36 23//23
f 85//85 107//107 60//60
f 85//85 60//60 3//3
f 85//85 3//3 107//107
f 120//120 99//99 61//61
f 62//62 48//48 24//24
f 120//120 24//24 48//48
f 87//87 37//37 63//63
f 87//87 120//120 37//37
f 87//87 24//24 120//120
f 6//6 88//88 41//41
f 6//6 41//41 92//92
f 111//111 64//64 44//44
f 89//89 43//43 44//44
f 89//89 44//44 64//64
f 89//89 112//112 43//43
f 89//89 110//110 112//112
f 90//90 111//111 38//38
f 90//90 38//38 88//88
f 91//91 111//111 44//44
f 91//91 44//44 43//43
f 91//91 38//38 111//111
f 91//91 15//15 38//38
f 91//91 42//42 15//15
f 91//91 29//29 42//42
f 91//91 5//5 29//29
f 91//91 27//27 5//5
f 91//91 62//62 27//27
f 91//91 2//2 62//62
f 91//91 72//72 2//2
f 91//91 71//71 49//49
f 91//91 49//49 72//72
f 92//92 39//39 66//66
f 84//84 126//126 66//66
f 93//93 70//70 83//83
f 115//115 70//70 93//93
f 124//124 34//34 70//70
f 33//33 19//19 124//124
f 33//33 78//78 19//19
f 94//94 19//19 78//78
f 96//96 76//76 114//114
f 94//94 74//74 96//96
f 33//33 80//80 72//72
f 95//95 73//73 72//72
f 75//75 96//96 95//95
f 96//96 75//75 76//76
f 77//77 103//103 97//97
f 97//97 19//19 114//114
f 19//19 97//97 103//103
f 98//98 52//52 32//32
f 116//116 32//32 53//53
f 80//80 54//54 72//72
f 116//116 80//80 33//33
f 100//100 99//99 22//22
f 100//100 61//61 99//99
f 100//100 86//86 61//61
f 100//100 122//122 86//86
f 126//126 84//84 26//26
f 57//57 119//119 55//55
f 101//101 82//82 21//21
f 101//101 7//7 82//82
f 118//118 125//125 22//22
f 119//119 56//56 99//99
f 102//102 56//56 119//119
f 57//57 125//125 102//102
f 125//125 126//126 117//117
f 22//22 125//125 117//117
f 103//103 58//58 35//35
f 93//93 83//83 104//104
f 105//105 45//45 16//16
f 105//105 30//30 45//45
f 8//8 120//120 106//106
f 108//108 81//81 25//25
f 84//84 66//66 39//39
f 106//106 108//108 107//107
f 106//106 107//107 8//8
f 108//108 122//122 100//100
f 120//120 61//61 86//86
f 109//109 88//88 6//6
f 109//109 6//6 110//110
f 109//109 90//90 88//88
f 109//109 64//64 90//90
f 109//109 89//89 64//64
f 109//109 110//110 89//89
f 111//111 90//90 64//64
f 16//16 112//112 110//110
f 65//65 58//58 110//110
f 66//66 126//126 6//6
f 6//6 92//92 66//66
f 77//77 67//67 46//46
f 127//127 113//113 47//47
f 127//127 47//47 98//98
f 101//101 127//127 115//115
f 101//101 115//115 93//93
f 114//114 19//19 94//94
f 124//124 115//115 116//116
f 124//124 116//116 33//33
f 114//114 94//94 96//96
f 116//116 98//98 32//32
f 115//115 98//98 116//116
f 116//116 54//54 80//80
f 116//116 53//53 54//54
f 117//117 81//81 108//108
f 117//117 126//126 26//26
f 35//35 82//82 104//104
f 55//55 82//82 35//35
f 69//69 101//101 21//21
f 118//118 56//56 102//102
f 102//102 119//119 57//57
f 56//56 118//118 22//22
f 56//56 22//22 99//99
f 125//125 35//35 58//58
f 16//16 103//103 105//105
f 16//16 58//58 103//103
f 16//16 110//110 58//58
f 121//121 107//107 108//108
f 121//121 60//60 107//107
f 8//8 36//36 120//120
f 108//108 22//22 117//117
f 22//22 108//108 100//100
f 106//106 122//122 108//108
f 6//6 65//65 110//110
f 65//65 6//6 126//126
f 113//113 123//123 47//47
f 69//69 120//120 123//123
f 113//113 127//127 101//101
f 7//7 101//101 93//93
f 7//7 93//93 104//104
f 74//74 94//94 78//78
f 74//74 78//78 33//33
f 105//105 46//46 30//30
f 105//105 77//77 46//46
f 125//125 57//57 35//35
f 113//113 101//101 69//69
f 125//125 118//118 102//102
f 69//69 119//119 99//99
f 69//69 99//99 120//120
f 69//69 21//21 119//119
f 125//125 65//65 126//126
f 125//125 58//58 65//65
f 105//105 103//103 77//77
f 60//60 121//121 13//13
f 123//123 120//120 48//48
f 98//98 115//115 127//127
f 124//124 70//70 115//115
f 57//57 55//55 35//35
f 69//69 123//123 113//113
# 250 faces, 0 coords texture

# End of File
