####
#
# OBJ File Generated by Meshlab
#
####
# Object nutrigrain_harvest_country_strawberry_250_collision.obj
#
# Vertices: 127
# Faces: 250
#
####
vn -0.160986 -0.254409 0.953604
v 0.005141 0.008726 0.000567
vn -0.716397 0.697685 0.003307
v 0.061031 -0.066232 0.078681
vn -0.874859 -0.483193 0.033862
v 0.078042 -0.029351 0.061033
vn 0.016562 0.001878 0.999861
v 0.001035 -0.007182 -0.001168
vn -0.579762 -0.812070 0.066471
v 0.000107 0.024834 0.023433
vn 0.507963 0.741169 0.438910
v -0.027657 -0.016374 0.006893
vn 0.227608 0.321798 0.919043
v -0.010824 -0.018666 0.000847
vn 0.531343 0.783201 0.322910
v -0.007515 -0.030384 0.008165
vn 0.578359 0.815609 0.016839
v -0.052949 -0.000214 0.044010
vn 0.574842 0.817889 0.024791
v -0.026043 -0.019002 0.046057
vn 0.580486 0.814214 -0.009560
v -0.036369 -0.011859 0.069941
vn 0.583201 0.812317 -0.004258
v -0.010875 -0.029850 0.074022
vn 0.585331 0.810238 -0.030036
v -0.014976 -0.026506 0.097219
vn 0.488547 0.670331 -0.558551
v -0.015426 -0.022615 0.142180
vn 0.148078 0.228880 -0.962126
v -0.002061 -0.020343 0.150156
vn 0.552417 0.791438 0.261649
v -0.046043 -0.003840 0.008993
vn 0.568808 0.822273 0.018015
v -0.050574 -0.000494 0.020610
vn 0.671930 0.577886 0.463204
v -0.074419 0.015968 0.007076
vn 0.929318 0.362001 0.072965
v -0.078165 0.020568 0.013970
vn 0.468927 -0.052389 0.881682
v -0.071829 0.025213 0.001932
vn 0.183562 -0.153367 0.970971
v -0.058282 0.033961 0.000455
vn 0.924222 -0.283922 0.255345
v -0.077822 0.029413 0.009977
vn 0.056803 0.072190 0.995772
v -0.025496 0.005188 -0.000222
vn 0.141044 0.182893 0.972963
v -0.049090 0.012736 0.000127
vn 0.334721 0.477696 0.812261
v -0.042958 -0.002324 0.004018
vn -0.056412 -0.115731 0.991677
v -0.035291 0.027507 -0.000277
vn -0.318076 -0.488325 0.812629
v -0.034657 0.043484 0.002666
vn -0.550225 -0.763244 0.338690
v -0.017854 0.036769 0.008496
vn -0.511348 -0.746522 0.425710
v 0.016579 0.012236 0.007712
vn 0.503482 -0.668863 0.546926
v -0.059169 0.053659 0.008103
vn -0.006770 -0.571693 0.820440
v -0.050885 0.051895 0.002884
vn 0.659218 -0.751707 0.019199
v -0.059135 0.054209 0.035164
vn 0.105805 -0.982038 0.156224
v -0.050115 0.057444 0.014474
vn -0.437282 -0.830332 0.345446
v -0.038949 0.052775 0.009239
vn 0.659379 0.751750 0.009524
v -0.070680 0.012816 0.031105
vn 0.997822 -0.065134 -0.010445
v -0.078091 0.025226 0.048032
vn 0.861993 -0.506888 0.005765
v -0.074834 0.033493 0.049383
vn -0.587817 -0.805637 0.073624
v -0.020662 0.040292 0.026428
vn 0.975490 -0.220036 -0.001973
v -0.078019 0.028912 0.077475
vn 0.699719 -0.714386 0.006781
v -0.058221 0.056723 0.078484
vn -0.445063 -0.892501 0.073215
v -0.044363 0.057882 0.033503
vn -0.262167 -0.963634 0.051741
v -0.044862 0.059875 0.065870
vn 0.641451 0.767106 -0.009399
v -0.072828 0.014489 0.063770
vn 0.875541 0.482871 -0.016215
v -0.075755 0.017718 0.065221
vn 0.716980 0.696297 -0.033311
v -0.070804 0.013637 0.099571
vn 0.918593 -0.395035 -0.011563
v -0.076106 0.032499 0.107483
vn 0.967123 0.250913 -0.041423
v -0.077225 0.023430 0.108698
vn 0.763775 -0.645344 -0.013364
v -0.067924 0.043515 0.116944
vn -0.574754 -0.818325 0.001406
v -0.002882 0.033951 0.109293
vn 0.580417 0.813354 -0.039640
v -0.042284 -0.006736 0.107656
vn 0.388782 -0.921287 0.008862
v -0.053205 0.059894 0.094955
vn 0.485270 -0.868286 -0.102919
v -0.053792 0.059906 0.135488
vn -0.551651 -0.832727 0.047399
v -0.034529 0.054545 0.078784
vn -0.274703 -0.961377 0.017120
v -0.044271 0.061034 0.100944
vn -0.562705 -0.772943 -0.293125
v -0.022374 0.047233 0.138394
vn -0.153854 -0.918112 -0.365239
v -0.042691 0.061167 0.138432
vn 0.557369 0.769236 -0.312436
v -0.040487 -0.005223 0.139941
vn 0.900854 -0.137218 -0.411867
v -0.075850 0.029458 0.142524
vn 0.821992 -0.557854 -0.114581
v -0.074493 0.035214 0.134000
vn 0.669778 0.617697 -0.412127
v -0.071086 0.016200 0.140116
vn 0.226489 0.270922 -0.935577
v -0.039849 0.006535 0.150025
vn 0.237248 -0.018960 -0.971264
v -0.060565 0.027663 0.151021
vn -0.327871 -0.431847 -0.840243
v -0.006827 0.030516 0.143478
vn -0.573803 -0.773841 -0.268181
v -0.001295 0.031521 0.134621
vn 0.445391 -0.656218 -0.609102
v -0.053574 0.058019 0.140977
vn -0.163282 -0.516287 -0.840706
v -0.040851 0.051671 0.147477
vn 0.350997 0.583292 0.732511
v 0.034166 -0.056536 0.003984
vn 0.371948 0.885953 0.277022
v 0.044827 -0.068530 0.011828
vn -0.029120 0.597495 0.801344
v 0.056087 -0.066857 0.005181
vn 0.062538 0.247446 0.966881
v 0.041795 -0.050404 0.000102
vn 0.050313 0.075220 0.995897
v 0.019743 -0.029632 -0.000449
vn -0.009551 0.069708 0.997522
v 0.044792 -0.040134 -0.001162
vn -0.018988 -0.034962 0.999208
v 0.020241 -0.012993 -0.000814
vn 0.277859 0.400281 0.873252
v 0.017026 -0.039617 0.001433
vn 0.583489 0.811560 0.030190
v 0.004648 -0.039245 0.022872
vn 0.549928 0.766298 0.332214
v 0.010036 -0.042926 0.010856
vn -0.104348 -0.163118 0.981073
v 0.042001 -0.023360 -0.000974
vn -0.337186 0.257008 0.905678
v 0.063105 -0.051260 0.001596
vn -0.790022 0.286274 0.542137
v 0.077262 -0.041676 0.008056
vn -0.375652 -0.143983 0.915508
v 0.069036 -0.032993 0.001274
vn -0.932706 -0.179801 0.312619
v 0.077622 -0.032792 0.007728
vn -0.505221 0.817080 0.277727
v 0.058436 -0.068184 0.007961
vn -0.654894 -0.668427 0.352589
v 0.072722 -0.025630 0.008091
vn -0.479204 -0.692874 0.538784
v 0.053042 -0.013213 0.004787
vn 0.259050 0.965847 0.005642
v 0.047954 -0.071066 0.060343
vn 0.273602 0.961128 0.037089
v 0.045680 -0.069669 0.028882
vn -0.385079 0.922806 0.011955
v 0.056650 -0.069318 0.047293
vn 0.576564 0.816838 0.018707
v 0.020634 -0.052587 0.052451
vn -0.744522 0.667505 0.011126
v 0.062716 -0.063717 0.031015
vn -0.908422 0.417241 0.026055
v 0.078012 -0.042756 0.030720
vn -0.601319 -0.797390 0.050841
v 0.062297 -0.015973 0.047434
vn 0.327308 0.944798 -0.015008
v 0.044794 -0.069333 0.090627
vn 0.476552 0.863379 -0.165754
v 0.044880 -0.068063 0.136233
vn -0.231270 0.972856 -0.008063
v 0.053466 -0.070088 0.095265
vn 0.573919 0.818761 -0.015740
v 0.031414 -0.060560 0.091175
vn 0.586466 0.800912 -0.120816
v 0.029998 -0.057240 0.132267
vn -0.979898 0.198420 0.020700
v 0.079409 -0.039926 0.066324
vn -0.924897 0.379959 0.014020
v 0.078846 -0.042589 0.091169
vn -0.742045 -0.669785 0.027521
v 0.075902 -0.025356 0.079683
vn -0.950881 0.193643 -0.241513
v 0.081241 -0.039689 0.136667
vn -0.903602 0.427993 0.018049
v 0.079431 -0.041577 0.113032
vn -0.989127 -0.146488 0.012992
v 0.080383 -0.032898 0.109485
vn -0.751946 -0.617370 -0.231152
v 0.075891 -0.024080 0.137605
vn -0.014156 0.991766 -0.127279
v 0.052122 -0.070517 0.133496
vn -0.606686 0.771430 -0.191906
v 0.060269 -0.066861 0.137300
vn 0.057448 0.726948 -0.684286
v 0.050938 -0.066486 0.146296
vn 0.578816 0.805488 -0.127127
v -0.002350 -0.034498 0.132648
vn 0.501599 0.689900 -0.521954
v 0.024540 -0.050613 0.142616
vn 0.119968 0.205280 -0.971323
v 0.030685 -0.047912 0.146755
vn -0.042988 -0.010918 -0.999016
v 0.032049 -0.021792 0.148231
vn -0.460566 0.374422 -0.804790
v 0.069276 -0.048680 0.147014
vn -0.421005 -0.114489 -0.899804
v 0.074237 -0.034096 0.148932
vn -0.347263 -0.481146 -0.804927
v 0.054648 -0.015401 0.146018
vn -0.340683 -0.473947 0.811978
v -0.007034 0.025359 0.004086
vn -0.549677 -0.833652 0.053659
v 0.029260 0.004587 0.017786
vn -0.464312 -0.710860 0.528292
v 0.036544 -0.001021 0.006324
vn -0.569710 -0.818442 0.074722
v 0.017084 0.013140 0.031392
vn -0.563036 -0.823568 0.068753
v 0.034892 0.002845 0.042281
vn -0.577893 -0.812972 0.071530
v 0.004124 0.026083 0.060578
vn -0.578095 -0.814146 0.054514
v 0.033758 0.004427 0.054665
vn -0.577279 -0.812446 0.081736
v -0.007379 0.033285 0.046581
vn -0.591308 -0.805989 0.027125
v 0.039380 0.002764 0.088698
vn -0.578334 -0.814297 0.049506
v 0.003164 0.028697 0.087060
vn -0.569420 -0.790542 -0.225399
v 0.036484 0.005002 0.134134
vn -0.094235 -0.213300 -0.972431
v 0.005445 0.008449 0.148654
vn -0.115000 -0.155923 -0.981052
v 0.016401 -0.001077 0.149706
vn -0.407424 -0.588119 -0.698657
v 0.025356 0.007975 0.143826
# 127 vertices, 0 vertices normals

f 25//25 16//16 6//6
f 17//17 6//6 16//16
f 8//8 7//7 6//6
f 25//25 6//6 7//7
f 8//8 6//6 17//17
f 10//10 8//8 17//17
f 11//11 10//10 9//9
f 75//75 8//8 10//10
f 12//12 10//10 11//11
f 50//50 13//13 11//11
f 12//12 11//11 13//13
f 107//107 13//13 57//57
f 13//13 50//50 57//57
f 61//61 14//14 57//57
f 61//61 15//15 14//14
f 107//107 57//57 14//14
f 14//14 15//15 108//108
f 20//20 24//24 21//21
f 16//16 25//25 18//18
f 16//16 18//18 17//17
f 18//18 25//25 24//24
f 20//20 18//18 24//24
f 19//19 35//35 18//18
f 35//35 17//17 18//18
f 20//20 22//22 18//18
f 18//18 22//22 19//19
f 20//20 30//30 22//22
f 30//30 20//20 21//21
f 31//31 30//30 21//21
f 19//19 22//22 36//36
f 36//36 22//22 37//37
f 23//23 26//26 24//24
f 23//23 7//7 4//4
f 26//26 23//23 1//1
f 23//23 4//4 1//1
f 26//26 21//21 24//24
f 26//26 31//31 21//21
f 7//7 23//23 25//25
f 23//23 24//24 25//25
f 31//31 26//26 27//27
f 27//27 26//26 114//114
f 28//28 34//34 27//27
f 34//34 28//28 38//38
f 26//26 1//1 114//114
f 28//28 114//114 29//29
f 28//28 29//29 5//5
f 27//27 114//114 28//28
f 38//38 28//28 5//5
f 22//22 30//30 32//32
f 33//33 32//32 30//30
f 37//37 22//22 32//32
f 31//31 27//27 34//34
f 33//33 30//30 31//31
f 33//33 31//31 34//34
f 33//33 34//34 41//41
f 38//38 41//41 34//34
f 35//35 19//19 44//44
f 44//44 43//43 35//35
f 35//35 9//9 17//17
f 43//43 9//9 35//35
f 44//44 19//19 36//36
f 44//44 36//36 39//39
f 37//37 39//39 36//36
f 9//9 10//10 17//17
f 121//121 38//38 5//5
f 38//38 121//121 41//41
f 43//43 11//11 9//9
f 53//53 121//121 119//119
f 53//53 119//119 123//123
f 37//37 32//32 40//40
f 37//37 40//40 39//39
f 40//40 32//32 33//33
f 40//40 33//33 51//51
f 33//33 41//41 42//42
f 42//42 51//51 33//33
f 42//42 41//41 121//121
f 53//53 42//42 121//121
f 43//43 50//50 11//11
f 50//50 43//43 45//45
f 44//44 45//45 43//43
f 45//45 44//44 47//47
f 44//44 39//39 47//47
f 39//39 40//40 46//46
f 40//40 48//48 46//46
f 47//47 39//39 46//46
f 60//60 45//45 47//47
f 60//60 50//50 45//45
f 47//47 46//46 58//58
f 59//59 58//58 46//46
f 48//48 59//59 46//46
f 123//123 49//49 53//53
f 55//55 49//49 64//64
f 48//48 40//40 51//51
f 48//48 51//51 52//52
f 59//59 48//48 52//52
f 54//54 42//42 53//53
f 51//51 42//42 54//54
f 49//49 54//54 53//53
f 55//55 54//54 49//49
f 54//54 55//55 56//56
f 54//54 52//52 51//51
f 56//56 52//52 54//54
f 57//57 50//50 60//60
f 57//57 60//60 61//61
f 60//60 62//62 61//61
f 60//60 47//47 58//58
f 65//65 58//58 59//59
f 60//60 58//58 62//62
f 58//58 65//65 62//62
f 61//61 125//125 15//15
f 63//63 61//61 62//62
f 63//63 62//62 66//66
f 66//66 55//55 63//63
f 64//64 63//63 55//55
f 63//63 125//125 61//61
f 59//59 52//52 65//65
f 52//52 56//56 65//65
f 56//56 55//55 66//66
f 66//66 62//62 65//65
f 66//66 65//65 56//56
f 70//70 67//67 69//69
f 70//70 69//69 78//78
f 69//69 67//67 68//68
f 82//82 68//68 86//86
f 82//82 78//78 69//69
f 82//82 69//69 68//68
f 72//72 74//74 70//70
f 71//71 74//74 72//72
f 7//7 74//74 71//71
f 4//4 7//7 71//71
f 4//4 71//71 73//73
f 77//77 73//73 71//71
f 77//77 71//71 72//72
f 8//8 76//76 74//74
f 8//8 74//74 7//7
f 76//76 67//67 74//74
f 70//70 74//74 67//67
f 68//68 76//76 75//75
f 75//75 76//76 8//8
f 68//68 67//67 76//76
f 86//86 68//68 75//75
f 77//77 116//116 1//1
f 116//116 77//77 84//84
f 72//72 70//70 78//78
f 78//78 80//80 72//72
f 77//77 72//72 80//80
f 79//79 78//78 82//82
f 78//78 79//79 80//80
f 79//79 81//81 80//80
f 90//90 79//79 82//82
f 89//89 90//90 82//82
f 81//81 79//79 90//90
f 80//80 84//84 77//77
f 84//84 80//80 83//83
f 83//83 80//80 81//81
f 88//88 86//86 75//75
f 87//87 82//82 86//86
f 87//87 86//86 85//85
f 85//85 86//86 88//88
f 95//95 92//92 85//85
f 95//95 85//85 88//88
f 87//87 89//89 82//82
f 87//87 2//2 89//89
f 85//85 94//94 87//87
f 2//2 87//87 94//94
f 88//88 75//75 10//10
f 120//120 118//118 91//91
f 12//12 88//88 10//10
f 81//81 90//90 97//97
f 3//3 81//81 97//97
f 83//83 81//81 3//3
f 91//91 83//83 3//3
f 91//91 84//84 83//83
f 118//118 84//84 91//91
f 99//99 91//91 3//3
f 90//90 89//89 2//2
f 97//97 90//90 2//2
f 2//2 98//98 97//97
f 122//122 91//91 99//99
f 94//94 85//85 92//92
f 96//96 93//93 95//95
f 93//93 92//92 95//95
f 104//104 92//92 93//93
f 94//94 92//92 104//104
f 94//94 105//105 2//2
f 105//105 94//94 104//104
f 105//105 101//101 2//2
f 100//100 101//101 105//105
f 95//95 88//88 12//12
f 13//13 95//95 12//12
f 95//95 13//13 107//107
f 96//96 95//95 107//107
f 98//98 2//2 101//101
f 102//102 3//3 97//97
f 102//102 97//97 98//98
f 99//99 3//3 102//102
f 102//102 98//98 101//101
f 102//102 101//101 100//100
f 103//103 122//122 99//99
f 102//102 103//103 99//99
f 93//93 96//96 108//108
f 93//93 108//108 106//106
f 106//106 104//104 93//93
f 109//109 106//106 108//108
f 104//104 106//106 105//105
f 100//100 105//105 111//111
f 111//111 105//105 106//106
f 108//108 96//96 107//107
f 14//14 108//108 107//107
f 15//15 109//109 108//108
f 112//112 109//109 110//110
f 110//110 109//109 15//15
f 126//126 15//15 125//125
f 126//126 110//110 15//15
f 126//126 113//113 110//110
f 111//111 112//112 100//100
f 111//111 106//106 109//109
f 109//109 112//112 111//111
f 100//100 112//112 103//103
f 112//112 113//113 103//103
f 124//124 103//103 113//113
f 112//112 110//110 113//113
f 100//100 103//103 102//102
f 1//1 4//4 73//73
f 77//77 1//1 73//73
f 116//116 29//29 1//1
f 114//114 1//1 29//29
f 29//29 116//116 115//115
f 29//29 115//115 5//5
f 5//5 115//115 117//117
f 118//118 115//115 116//116
f 84//84 118//118 116//116
f 119//119 117//117 118//118
f 118//118 120//120 119//119
f 118//118 117//117 115//115
f 121//121 5//5 117//117
f 121//121 117//117 119//119
f 119//119 120//120 123//123
f 120//120 91//91 122//122
f 122//122 123//123 120//120
f 122//122 49//49 123//123
f 64//64 49//49 124//124
f 49//49 122//122 124//124
f 124//124 122//122 103//103
f 64//64 124//124 127//127
f 127//127 126//126 125//125
f 125//125 63//63 127//127
f 124//124 113//113 127//127
f 127//127 113//113 126//126
f 127//127 63//63 64//64
# 250 faces, 0 coords texture

# End of File
