####
#
# OBJ File Generated by Meshlab
#
####
# Object pop_tarts_strawberry_250_collision.obj
#
# Vertices: 127
# Faces: 250
#
####
vn 0.249934 0.540628 0.803277
v 0.001181 -0.056873 0.004589
vn 0.066101 0.011158 0.997751
v -0.028828 -0.003291 0.000451
vn 0.991142 -0.132579 0.007730
v -0.058669 -0.006181 0.048875
vn 0.010860 -0.068377 0.997600
v 0.000364 0.020655 -0.000077
vn -0.311638 -0.950180 -0.006308
v 0.000160 0.057975 0.035823
vn 0.283898 0.817836 -0.500546
v -0.000832 -0.059769 0.136466
vn 0.705199 -0.409461 -0.578823
v -0.053686 0.000167 0.135977
vn 0.031855 -0.108843 -0.993548
v 0.011699 -0.002747 0.143357
vn -0.555665 0.056284 -0.829499
v 0.054634 0.003984 0.139868
vn 0.079641 0.171230 0.982007
v -0.007256 -0.040796 0.001721
vn 0.443733 0.896093 -0.010925
v 0.000134 -0.062179 0.033811
vn 0.423717 0.056845 0.904009
v -0.051961 -0.010786 0.003816
vn 0.375083 0.458466 0.805681
v -0.027153 -0.033974 0.003315
vn 0.618994 0.784644 0.034344
v -0.027975 -0.040405 0.018987
vn 0.764022 0.572535 0.297446
v -0.054863 -0.018151 0.011922
vn 0.919699 0.392407 0.013079
v -0.057309 -0.015770 0.048270
vn 0.087786 0.085383 0.992473
v -0.022430 -0.026282 0.001095
vn 0.003892 0.007789 0.999962
v -0.002898 -0.010995 0.000598
vn 0.639015 0.769125 0.010368
v -0.045620 -0.026086 0.040624
vn 0.989035 -0.032523 0.144058
v -0.058408 -0.008922 0.015528
vn 0.944832 -0.327278 0.013473
v -0.058618 -0.005981 0.032972
vn 0.980197 -0.198022 0.000947
v -0.059086 -0.006968 0.073925
vn 0.484903 0.874522 0.008949
v -0.004903 -0.059145 0.068247
vn 0.544989 0.838439 -0.002665
v -0.005562 -0.059148 0.098989
vn 0.878751 0.477223 0.007476
v -0.057773 -0.016515 0.082128
vn 0.634147 0.773200 0.004299
v -0.031748 -0.038653 0.090485
vn 0.849388 0.527710 -0.007859
v -0.057570 -0.016166 0.100803
vn 0.998188 -0.057265 -0.018463
v -0.060018 -0.008961 0.112907
vn 0.911248 -0.266356 -0.314138
v -0.058670 -0.006352 0.132420
vn 0.443115 0.192393 -0.875576
v -0.048663 -0.014062 0.140359
vn 0.791953 0.503408 -0.345529
v -0.056393 -0.016576 0.132442
vn 0.619435 0.773744 -0.132741
v -0.031521 -0.038733 0.128431
vn 0.194301 0.263123 -0.944994
v -0.024820 -0.033965 0.141306
vn 0.435135 0.546739 -0.715356
v -0.022167 -0.041671 0.137458
vn 0.091090 0.202694 -0.974996
v -0.004204 -0.039818 0.142305
vn -0.029567 -0.040075 -0.998759
v -0.000127 -0.016408 0.145382
vn 0.843226 -0.266386 0.466913
v -0.056074 -0.005782 0.009396
vn 0.718991 -0.542951 0.433884
v -0.032140 0.025282 0.007936
vn 0.834230 -0.540926 0.107051
v -0.055032 -0.000650 0.017321
vn 0.171283 -0.104282 0.979687
v -0.027421 0.012499 0.000862
vn 0.508787 -0.361874 0.781142
v -0.035547 0.016725 0.004292
vn 0.003451 -0.007902 0.999963
v -0.011014 0.007175 0.000015
vn 0.047613 -0.063545 0.996843
v -0.016157 0.024718 0.000567
vn 0.310593 -0.286850 0.906228
v -0.016006 0.038223 0.002586
vn 0.796879 -0.604030 0.011431
v -0.046481 0.010344 0.041074
vn 0.792502 -0.603219 0.089818
v -0.040358 0.017744 0.018499
vn 0.005751 -0.538841 0.842388
v -0.004251 0.053093 0.004119
vn 0.573933 -0.707694 0.412031
v -0.011821 0.054808 0.008555
vn 0.649112 -0.760537 0.015400
v -0.013152 0.054445 0.029680
vn 0.086572 -0.987599 0.130975
v -0.004839 0.059031 0.019724
vn 0.820853 -0.571139 0.001113
v -0.053765 0.001599 0.063582
vn 0.692966 -0.720893 0.010544
v -0.013360 0.054679 0.057982
vn 0.171598 -0.985094 0.011986
v -0.005226 0.058507 0.053587
vn 0.807453 -0.589820 -0.011483
v -0.048253 0.008600 0.089961
vn 0.787184 -0.614358 -0.053894
v -0.047531 0.009473 0.118159
vn -0.016443 -0.999825 -0.008946
v -0.002439 0.059297 0.073778
vn 0.450809 -0.892574 -0.009071
v -0.011876 0.056318 0.086336
vn 0.424735 -0.905231 -0.012512
v -0.008811 0.058514 0.109388
vn 0.650784 -0.557610 -0.515317
v -0.041713 0.013068 0.137045
vn -0.061093 -0.122745 -0.990556
v 0.000255 -0.000604 0.141498
vn 0.752802 -0.591146 -0.289545
v -0.025151 0.036967 0.130873
vn 0.270964 -0.151446 -0.950601
v -0.039008 0.004890 0.143267
vn 0.370441 -0.308353 -0.876180
v -0.025600 0.021341 0.143005
vn 0.068846 0.027814 -0.997240
v -0.022712 -0.006782 0.143499
vn -0.069063 -0.040624 -0.996785
v -0.008518 0.012384 0.142719
vn 0.399233 -0.840421 -0.366476
v -0.007728 0.057913 0.133439
vn 0.320906 -0.311120 -0.894552
v -0.013212 0.041024 0.142758
vn 0.010225 -0.545329 -0.838159
v -0.000969 0.055185 0.139774
vn -0.244960 0.519899 0.818352
v 0.009207 -0.057723 0.004066
vn 0.258556 0.930082 0.260952
v 0.001742 -0.062818 0.012962
vn -0.597930 0.795333 0.099626
v 0.013575 -0.059002 0.018349
vn -0.002889 0.046789 0.998901
v 0.000419 -0.024271 0.000179
vn -0.189982 0.158112 0.968972
v 0.017232 -0.030475 0.000886
vn -0.502062 0.401874 0.765788
v 0.037591 -0.019932 0.004734
vn -0.162633 0.105045 0.981079
v 0.030709 -0.015788 0.001057
vn -0.005747 0.013623 0.999891
v 0.015132 -0.010408 -0.000011
vn -0.708678 0.539233 0.454977
v 0.024937 -0.042919 0.009750
vn -0.848365 0.527587 0.043927
v 0.056599 -0.002064 0.025125
vn -0.832018 0.461278 0.308170
v 0.054828 -0.003546 0.012665
vn -0.085880 0.996304 0.001914
v 0.006546 -0.062702 0.045260
vn -0.608429 0.793508 0.012634
v 0.013946 -0.059320 0.062669
vn -0.795891 0.604716 0.029601
v 0.032643 -0.034488 0.043709
vn -0.787677 0.615829 0.017872
v 0.037999 -0.029699 0.088870
vn 0.046094 0.998886 0.010140
v 0.003638 -0.063692 0.092910
vn 0.190979 0.977400 -0.090643
v 0.002198 -0.063319 0.126088
vn -0.552959 0.833202 -0.003305
v 0.013212 -0.060639 0.105021
vn -0.779927 0.613643 -0.123112
v 0.032151 -0.037245 0.121082
vn -0.877864 0.478062 0.028483
v 0.059588 -0.001999 0.086634
vn -0.455560 0.813488 -0.361527
v 0.011821 -0.060997 0.131106
vn -0.627576 0.532846 -0.567647
v 0.017027 -0.050662 0.136089
vn -0.096182 0.447228 -0.889234
v 0.004276 -0.054647 0.141399
vn -0.240356 0.170569 -0.955581
v 0.030589 -0.021697 0.143205
vn -0.920694 0.219512 -0.322704
v 0.060206 0.000400 0.131382
vn -0.671113 0.521196 -0.527220
v 0.045849 -0.014801 0.135751
vn 0.003127 0.004248 0.999986
v 0.003302 0.003447 0.000504
vn -0.033897 -0.028414 0.999021
v 0.020503 0.020875 0.000264
vn -0.181644 -0.105857 0.977650
v 0.036350 0.017558 0.001122
vn -0.123941 -0.217105 0.968248
v 0.014828 0.032626 0.001164
vn -0.374788 -0.521103 0.766803
v 0.019812 0.037588 0.003965
vn -0.455534 -0.483106 0.747728
v 0.044601 0.019481 0.004008
vn -0.609826 -0.761459 0.219756
v 0.035214 0.030899 0.010735
vn -0.490291 0.218178 0.843809
v 0.049856 -0.001355 0.003574
vn -0.719501 -0.053491 0.692428
v 0.054257 0.008241 0.005407
vn -0.826338 -0.496361 0.266066
v 0.056598 0.013800 0.013123
vn -0.328406 -0.838127 0.435538
v 0.002437 0.055803 0.008727
vn -0.434808 -0.898827 0.055248
v 0.002346 0.057604 0.019026
vn -0.986048 0.091202 0.139253
v 0.058892 0.004293 0.017568
vn -0.929825 0.365239 0.045018
v 0.057883 -0.002037 0.056710
vn -0.948106 -0.316661 0.028644
v 0.059758 0.011107 0.067533
vn -0.997672 0.059532 0.033268
v 0.061107 0.002408 0.086370
vn -0.785584 -0.618566 0.015288
v 0.057210 0.012494 0.025179
vn -0.409141 -0.912198 0.022319
v 0.002966 0.057641 0.069219
vn -0.597478 -0.801794 0.012084
v 0.012806 0.049869 0.046042
vn -0.629804 -0.776525 0.018840
v 0.032109 0.035553 0.068952
vn -0.827745 -0.561034 0.008851
v 0.058365 0.013368 0.098510
vn -0.906653 0.421790 -0.008563
v 0.060388 -0.000866 0.108029
vn -0.992343 -0.121341 -0.023053
v 0.061520 0.007192 0.116530
vn -0.628459 -0.777748 -0.012141
v 0.025970 0.041208 0.109237
vn -0.290828 -0.956773 0.002196
v 0.002796 0.057893 0.094227
vn -0.140765 -0.151505 -0.978382
v 0.018145 0.029321 0.141783
vn -0.106303 -0.094339 -0.989848
v 0.014082 0.038177 0.141434
vn -0.790598 -0.556255 -0.255998
v 0.058830 0.012399 0.130042
vn -0.482441 -0.495888 -0.722043
v 0.030440 0.031126 0.136320
vn -0.610511 -0.716131 -0.338279
v 0.030465 0.035959 0.130808
vn -0.633201 -0.391552 -0.667640
v 0.055853 0.011488 0.135699
vn -0.388361 -0.901213 -0.192329
v 0.004917 0.057173 0.130560
vn -0.410556 -0.503236 -0.760393
v 0.007218 0.048643 0.141109
# 127 vertices, 0 vertices normals

f 1//1 69//69 10//10
f 11//11 70//70 14//14
f 13//13 12//12 15//15
f 15//15 12//12 37//37
f 20//20 15//15 37//37
f 39//39 20//20 37//37
f 15//15 20//20 16//16
f 19//19 14//14 15//15
f 21//21 20//20 39//39
f 70//70 1//1 13//13
f 15//15 70//70 13//13
f 13//13 1//1 10//10
f 10//10 69//69 72//72
f 17//17 13//13 10//10
f 72//72 17//17 10//10
f 12//12 13//13 17//17
f 2//2 12//12 17//17
f 2//2 40//40 12//12
f 18//18 2//2 17//17
f 17//17 72//72 18//18
f 2//2 18//18 42//42
f 95//95 42//42 18//18
f 14//14 70//70 15//15
f 24//24 84//84 23//23
f 16//16 19//19 15//15
f 16//16 20//20 21//21
f 16//16 21//21 3//3
f 25//25 16//16 3//3
f 25//25 3//3 22//22
f 51//51 22//22 3//3
f 16//16 25//25 19//19
f 19//19 11//11 14//14
f 19//19 23//23 11//11
f 23//23 19//19 26//26
f 25//25 26//26 19//19
f 24//24 23//23 26//26
f 84//84 24//24 85//85
f 26//26 25//25 27//27
f 27//27 25//25 22//22
f 27//27 22//22 28//28
f 28//28 22//22 54//54
f 29//29 28//28 54//54
f 32//32 24//24 26//26
f 32//32 85//85 24//24
f 85//85 32//32 6//6
f 91//91 6//6 34//34
f 35//35 91//91 34//34
f 34//34 32//32 31//31
f 31//31 27//27 28//28
f 31//31 28//28 29//29
f 27//27 32//32 26//26
f 32//32 27//27 31//31
f 30//30 34//34 31//31
f 31//31 29//29 30//30
f 7//7 30//30 29//29
f 62//62 30//30 7//7
f 33//33 34//34 30//30
f 6//6 32//32 34//34
f 35//35 34//34 33//33
f 30//30 64//64 33//33
f 64//64 30//30 62//62
f 33//33 36//36 35//35
f 36//36 33//33 64//64
f 65//65 36//36 64//64
f 36//36 60//60 8//8
f 65//65 60//60 36//36
f 41//41 37//37 12//12
f 39//39 37//37 38//38
f 41//41 38//38 37//37
f 39//39 38//38 46//46
f 45//45 39//39 46//46
f 40//40 41//41 12//12
f 41//41 40//40 44//44
f 44//44 38//38 41//41
f 40//40 2//2 42//42
f 40//40 42//42 43//43
f 43//43 42//42 95//95
f 43//43 95//95 4//4
f 43//43 44//44 40//40
f 38//38 44//44 48//48
f 4//4 44//44 43//43
f 44//44 4//4 47//47
f 46//46 38//38 48//48
f 46//46 48//48 49//49
f 46//46 49//49 45//45
f 45//45 49//49 52//52
f 48//48 44//44 47//47
f 48//48 47//47 50//50
f 105//105 50//50 47//47
f 49//49 48//48 50//50
f 50//50 105//105 106//106
f 50//50 106//106 5//5
f 21//21 39//39 45//45
f 3//3 21//21 51//51
f 21//21 45//45 51//51
f 52//52 51//51 45//45
f 54//54 51//51 52//52
f 49//49 50//50 53//53
f 5//5 53//53 50//50
f 53//53 52//52 49//49
f 112//112 56//56 53//53
f 53//53 5//5 112//112
f 57//57 52//52 53//53
f 57//57 53//53 56//56
f 22//22 51//51 54//54
f 29//29 54//54 55//55
f 54//54 52//52 57//57
f 55//55 54//54 61//61
f 57//57 56//56 119//119
f 58//58 57//57 119//119
f 58//58 61//61 54//54
f 54//54 57//57 58//58
f 58//58 119//119 126//126
f 29//29 55//55 7//7
f 7//7 55//55 59//59
f 55//55 61//61 59//59
f 59//59 62//62 7//7
f 63//63 62//62 59//59
f 61//61 63//63 59//59
f 63//63 61//61 67//67
f 121//121 65//65 67//67
f 65//65 62//62 63//63
f 65//65 64//64 62//62
f 63//63 67//67 65//65
f 61//61 58//58 66//66
f 126//126 66//66 58//58
f 66//66 67//67 61//61
f 68//68 67//67 66//66
f 68//68 66//66 126//126
f 1//1 70//70 69//69
f 70//70 71//71 69//69
f 77//77 69//69 71//71
f 80//80 71//71 70//70
f 82//82 77//77 71//71
f 73//73 72//72 69//69
f 73//73 69//69 77//77
f 75//75 73//73 74//74
f 77//77 74//74 73//73
f 18//18 72//72 73//73
f 18//18 73//73 76//76
f 76//76 73//73 75//75
f 18//18 76//76 95//95
f 75//75 74//74 102//102
f 79//79 74//74 77//77
f 82//82 79//79 77//77
f 78//78 79//79 82//82
f 102//102 74//74 79//79
f 11//11 80//80 70//70
f 82//82 71//71 81//81
f 81//81 71//71 80//80
f 80//80 11//11 23//23
f 84//84 80//80 23//23
f 83//83 82//82 81//81
f 78//78 82//82 83//83
f 83//83 108//108 78//78
f 83//83 88//88 108//108
f 81//81 80//80 84//84
f 84//84 86//86 81//81
f 83//83 81//81 86//86
f 86//86 87//87 83//83
f 86//86 84//84 85//85
f 89//89 86//86 85//85
f 87//87 86//86 89//89
f 116//116 88//88 83//83
f 116//116 83//83 87//87
f 87//87 89//89 90//90
f 6//6 89//89 85//85
f 91//91 89//89 6//6
f 90//90 89//89 91//91
f 92//92 91//91 35//35
f 92//92 90//90 91//91
f 90//90 94//94 87//87
f 92//92 94//94 90//90
f 36//36 92//92 35//35
f 8//8 92//92 36//36
f 93//93 87//87 94//94
f 116//116 87//87 93//93
f 9//9 93//93 94//94
f 94//94 92//92 9//9
f 95//95 76//76 96//96
f 96//96 4//4 95//95
f 75//75 96//96 76//76
f 102//102 97//97 75//75
f 96//96 75//75 97//97
f 96//96 98//98 4//4
f 98//98 96//96 97//97
f 98//98 47//47 4//4
f 47//47 98//98 99//99
f 105//105 99//99 101//101
f 97//97 100//100 98//98
f 98//98 100//100 99//99
f 101//101 99//99 100//100
f 106//106 105//105 101//101
f 97//97 102//102 103//103
f 102//102 79//79 103//103
f 100//100 97//97 103//103
f 100//100 103//103 104//104
f 103//103 79//79 107//107
f 107//107 104//104 103//103
f 107//107 79//79 78//78
f 104//104 107//107 111//111
f 101//101 104//104 111//111
f 104//104 101//101 100//100
f 99//99 105//105 47//47
f 113//113 5//5 106//106
f 106//106 101//101 113//113
f 113//113 101//101 111//111
f 114//114 113//113 111//111
f 107//107 78//78 108//108
f 108//108 109//109 107//107
f 109//109 111//111 107//107
f 109//109 108//108 110//110
f 109//109 114//114 111//111
f 110//110 108//108 88//88
f 112//112 5//5 113//113
f 112//112 113//113 114//114
f 118//118 114//114 115//115
f 115//115 114//114 109//109
f 110//110 115//115 109//109
f 110//110 88//88 116//116
f 116//116 117//117 110//110
f 117//117 115//115 110//110
f 117//117 122//122 115//115
f 112//112 114//114 119//119
f 119//119 114//114 118//118
f 56//56 112//112 119//119
f 126//126 119//119 118//118
f 120//120 60//60 65//65
f 92//92 8//8 120//120
f 120//120 9//9 92//92
f 120//120 125//125 9//9
f 121//121 120//120 65//65
f 127//127 124//124 123//123
f 121//121 127//127 123//123
f 122//122 118//118 115//115
f 122//122 124//124 118//118
f 120//120 121//121 123//123
f 123//123 122//122 125//125
f 120//120 123//123 125//125
f 122//122 123//123 124//124
f 8//8 60//60 120//120
f 117//117 116//116 93//93
f 122//122 117//117 93//93
f 125//125 122//122 93//93
f 125//125 93//93 9//9
f 124//124 126//126 118//118
f 127//127 68//68 126//126
f 126//126 124//124 127//127
f 68//68 127//127 121//121
f 121//121 67//67 68//68
# 250 faces, 0 coords texture

# End of File
