####
#
# OBJ File Generated by Meshlab
#
####
# Object coca_cola_glass_bottle_250_collision.obj
#
# Vertices: 127
# Faces: 250
#
####
vn -0.244040 -0.689928 -0.681501
v -0.015656 -0.028458 0.113503
vn 0.606696 0.730863 -0.312665
v 0.018258 0.020558 0.120223
vn 0.122297 -0.982755 0.138696
v -0.001957 -0.029354 0.161511
vn -0.857021 0.101278 -0.505230
v -0.034829 0.000978 0.115459
vn 0.087652 0.915232 0.393277
v -0.001957 0.009785 0.242107
vn 0.917615 -0.178052 0.355360
v 0.009632 -0.007828 0.240704
vn 0.629110 -0.659431 -0.411548
v 0.021526 -0.021158 0.113503
vn -0.593062 -0.796445 0.118125
v -0.015656 -0.028710 0.160469
vn -0.018342 0.993719 0.110395
v -0.011742 0.027397 0.121725
vn 0.032331 -0.963434 0.265987
v -0.001957 -0.016053 0.240704
vn 0.334603 0.385077 0.860091
v 0.001913 0.005135 0.245863
vn -0.802249 -0.596480 -0.024663
v -0.031311 -0.017242 0.117416
vn -0.844110 0.385041 -0.373124
v -0.033472 0.006983 0.115462
vn -0.280331 -0.316301 -0.906293
v -0.017612 -0.027482 0.113503
vn -0.994396 0.045465 0.095440
v -0.034567 0.000188 0.122640
vn -0.782318 0.549333 0.293619
v -0.013699 0.005871 0.241512
vn 0.164206 0.981135 0.102031
v 0.009785 0.025084 0.127201
vn 0.165654 0.887761 -0.429464
v 0.008806 0.024502 0.118171
vn 0.784887 -0.610482 0.106134
v 0.018274 -0.023483 0.158512
vn 0.731295 -0.177014 -0.658691
v 0.023980 -0.015656 0.113503
vn 0.473136 -0.704095 0.529521
v 0.005871 -0.013699 0.242618
vn -0.584618 -0.773322 0.245346
v -0.011742 -0.013579 0.240704
vn 0.666106 0.642962 0.378023
v 0.007828 0.003914 0.241845
vn 0.999046 -0.020821 -0.038392
v 0.028540 -0.003755 0.123384
vn -0.743885 -0.632770 0.215029
v -0.015875 -0.009785 0.240704
vn -0.969564 0.228473 0.088014
v -0.033505 0.005382 0.123776
vn -0.731572 -0.399154 -0.552701
v -0.031705 -0.015656 0.115459
vn -0.441917 -0.896869 -0.018330
v -0.015656 -0.030135 0.123287
vn -0.906956 0.154052 0.392045
v -0.016636 -0.003916 0.242695
vn -0.966601 -0.229383 0.114305
v -0.033203 -0.007828 0.127201
vn 0.067173 0.988338 0.136659
v -0.001957 0.024717 0.136986
vn 0.509193 0.810042 0.290782
v 0.001957 0.009140 0.240704
vn -0.113996 0.986702 -0.115864
v -0.012120 0.027397 0.121330
vn 0.181608 0.977109 -0.110798
v 0.005871 0.025926 0.121330
vn 0.739327 -0.339361 -0.581575
v 0.022513 -0.019521 0.113601
vn 0.806113 -0.384940 0.449448
v 0.007828 -0.011742 0.241056
vn -0.363153 -0.754474 0.546707
v -0.009767 -0.013874 0.243563
vn 0.314015 -0.941594 0.121637
v 0.011742 -0.027422 0.160469
vn 0.121383 -0.992566 0.008939
v 0.000392 -0.032289 0.125227
vn 0.860751 0.353718 0.366049
v 0.009109 0.001957 0.242661
vn 0.616062 -0.787639 -0.009630
v 0.015656 -0.027106 0.123287
vn 0.840894 -0.076863 -0.535713
v 0.026660 -0.007898 0.115802
vn -0.497556 -0.466706 0.731180
v -0.013446 -0.010706 0.244007
vn -0.478079 0.441285 -0.759413
v -0.027751 0.015414 0.115462
vn -0.897477 0.313065 0.310685
v -0.015656 0.001957 0.240813
vn -0.778732 0.612295 0.136647
v -0.026590 0.017612 0.129158
vn -0.439956 0.829153 0.344882
v -0.011742 0.007828 0.241051
vn -0.410976 0.233959 0.881114
v -0.010662 0.003545 0.245643
vn -0.953632 -0.299306 0.031645
v -0.032029 -0.015656 0.117416
vn -0.980581 -0.143605 0.133561
v -0.033052 -0.005871 0.131115
vn 0.236100 0.896391 0.375154
v 0.000000 0.009785 0.241311
vn 0.492289 0.862173 0.119623
v 0.014554 0.023483 0.125244
vn -0.271356 0.841975 -0.466308
v -0.018227 0.024896 0.115461
vn -0.231653 0.922635 0.308351
v -0.005577 0.009785 0.240704
vn 0.973186 -0.175898 0.148217
v 0.021783 -0.013741 0.158660
vn 0.031533 -0.148797 0.988365
v -0.000477 -0.008096 0.246131
vn 0.303153 -0.920372 0.247010
v 0.003914 -0.015061 0.240704
vn 0.549830 -0.829506 0.098021
v 0.017612 -0.023953 0.158512
vn 0.130819 -0.987523 0.087660
v -0.000465 -0.030656 0.144814
vn -0.067484 -0.997326 -0.028058
v -0.008806 -0.032140 0.122309
vn 0.995447 0.037462 0.087645
v 0.028445 -0.001787 0.124719
vn 0.777204 0.629020 0.016948
v 0.022087 0.017612 0.123287
vn 0.699188 -0.714935 -0.002105
v 0.019567 -0.023483 0.123287
vn 0.240316 0.513259 -0.823901
v 0.014742 0.019580 0.113502
vn 0.275487 0.160898 -0.947744
v 0.019396 0.015037 0.113503
vn -0.886529 0.444827 0.127260
v -0.031311 0.010318 0.129158
vn -0.264544 0.954529 0.137443
v -0.013699 0.026532 0.125244
vn -0.574228 0.818549 -0.015487
v -0.021517 0.023672 0.122879
vn -0.972465 0.188088 0.137603
v -0.032883 0.003914 0.131115
vn -0.980735 0.142402 0.133715
v -0.033512 0.001957 0.129158
vn -0.606004 -0.792395 -0.069778
v -0.021806 -0.026453 0.122481
vn -0.944667 -0.300823 0.130805
v -0.032362 -0.009785 0.129158
vn -0.990280 -0.114918 0.078358
v -0.034514 -0.003392 0.122255
vn 0.377483 0.878133 0.293921
v 0.000738 0.009785 0.240704
vn 0.394210 0.885165 -0.247145
v 0.013101 0.023484 0.119372
vn -0.144432 0.923178 0.356205
v -0.003914 0.009785 0.241797
vn 0.519044 -0.155270 0.840526
v 0.006131 -0.008317 0.243941
vn 0.553028 -0.059275 0.831051
v 0.007509 -0.003241 0.243648
vn 0.116243 -0.974120 0.193849
v 0.000000 -0.015844 0.240704
vn 0.145845 -0.929195 0.339596
v 0.001230 -0.015586 0.241185
vn -0.267816 -0.954808 -0.128903
v -0.011830 -0.031669 0.119567
vn 0.473512 0.682075 0.557279
v 0.003431 0.006436 0.243134
vn 0.977119 0.058724 0.204423
v 0.009780 0.000000 0.240704
vn 0.789861 -0.613214 0.009323
v 0.021498 -0.021489 0.123287
vn 0.089762 -0.934993 -0.343118
v -0.001928 -0.031560 0.115472
vn 0.148676 -0.439690 -0.885759
v 0.011639 -0.025440 0.113503
vn 0.805990 0.464311 -0.367145
v 0.024112 0.012215 0.116331
vn -0.921518 0.373198 0.107366
v -0.031564 0.009785 0.129158
vn -0.752349 0.658715 0.008072
v -0.025816 0.020009 0.122755
vn -0.890447 -0.105630 -0.442659
v -0.034708 -0.001576 0.115462
vn -0.623052 -0.673964 -0.396962
v -0.028723 -0.018824 0.115459
vn -0.937175 -0.321849 0.134593
v -0.031694 -0.011742 0.129158
vn 0.378355 0.925644 0.005527
v 0.013710 0.023922 0.125225
vn -0.379892 0.922498 0.068403
v -0.019691 0.024455 0.123422
vn -0.130050 0.614865 0.777836
v -0.003623 0.007444 0.245380
vn 0.892412 -0.450519 0.025175
v 0.024629 -0.016310 0.125956
vn 0.218692 -0.973937 0.060178
v 0.005580 -0.030730 0.133415
vn -0.430095 -0.891867 -0.139969
v -0.012510 -0.031311 0.119373
vn 0.618810 0.738562 0.267582
v 0.005871 0.006413 0.240704
vn 0.986311 0.149256 0.070094
v 0.028007 0.001957 0.125244
vn 0.961547 -0.274350 -0.012639
v 0.027760 -0.008568 0.123662
vn 0.838002 0.135412 -0.528599
v 0.026299 0.004466 0.115738
vn 0.524946 0.851131 0.002578
v 0.017612 0.021835 0.123287
vn 0.354605 -0.832208 -0.426246
v 0.013699 -0.026911 0.116927
vn 0.860689 0.489476 0.140098
v 0.023208 0.014905 0.126223
vn -0.960853 0.239868 0.138653
v -0.032610 0.006086 0.129886
vn -0.794101 0.591526 0.139644
v -0.027397 0.016556 0.129158
vn -0.653784 0.742865 0.143939
v -0.023383 0.021445 0.127201
vn -0.469899 -0.873129 -0.129773
v -0.016053 -0.029731 0.120352
vn -0.719617 -0.690950 0.068846
v -0.026419 -0.021751 0.125244
vn -0.728149 0.291985 0.620116
v -0.014393 0.001381 0.243049
vn -0.059463 -0.766521 0.639460
v -0.007430 -0.014371 0.243852
vn -0.140966 -0.984701 0.102430
v -0.011742 -0.030437 0.160469
vn 0.683489 0.717872 0.132294
v 0.019569 0.019873 0.125244
vn 0.957579 0.268470 0.104720
v 0.026975 0.005869 0.127202
vn 0.973071 0.216091 -0.080236
v 0.027663 0.004849 0.122309
vn 0.924574 0.361934 0.119022
v 0.025675 0.009785 0.127201
vn 0.542971 0.825205 0.155628
v 0.015656 0.022768 0.125244
vn 0.411078 -0.906930 -0.092160
v 0.012766 -0.029011 0.121459
vn 0.629336 0.777116 -0.005163
v 0.018066 0.021530 0.123210
vn -0.849592 0.520294 0.086529
v -0.029835 0.013953 0.126017
vn -0.916698 -0.251589 0.310431
v -0.016667 -0.007828 0.242666
vn 0.942023 -0.309361 0.129959
v 0.021526 -0.016310 0.156555
vn -0.015624 -0.999844 -0.008291
v -0.005382 -0.032254 0.126223
vn 0.906993 0.420516 0.023013
v 0.024918 0.013026 0.121374
vn 0.877995 0.457257 0.141564
v 0.024245 0.012720 0.127201
vn 0.895133 0.424044 0.137565
v 0.025440 0.010302 0.127201
# 127 vertices, 0 vertices normals

f 14//14 44//44 64//64
f 113//113 3//3 10//10
f 25//25 12//12 8//8
f 25//25 122//122 12//12
f 25//25 8//8 22//22
f 44//44 53//53 64//64
f 4//4 13//13 14//14
f 4//4 26//26 13//13
f 28//28 113//113 8//8
f 29//29 15//15 122//122
f 31//31 17//17 9//9
f 31//31 9//9 5//5
f 34//34 9//9 17//17
f 34//34 33//33 9//9
f 123//123 6//6 19//19
f 96//96 84//84 7//7
f 96//96 19//19 84//84
f 35//35 96//96 7//7
f 36//36 21//21 19//19
f 36//36 19//19 6//6
f 37//37 8//8 113//113
f 86//86 85//85 1//1
f 87//87 102//102 65//65
f 43//43 25//25 22//22
f 43//43 122//122 25//25
f 44//44 14//14 13//13
f 45//45 106//106 29//29
f 44//44 13//13 89//89
f 90//90 4//4 14//14
f 90//90 14//14 27//27
f 109//109 14//14 1//1
f 49//49 12//12 122//122
f 49//49 27//27 12//12
f 49//49 90//90 27//27
f 50//50 30//30 122//122
f 48//48 47//47 16//16
f 51//51 31//31 5//5
f 51//51 17//17 31//31
f 18//18 64//64 53//53
f 18//18 53//53 33//33
f 18//18 33//33 34//34
f 96//96 123//123 19//19
f 101//101 35//35 20//20
f 77//77 36//36 6//6
f 77//77 21//21 36//36
f 57//57 38//38 21//21
f 80//80 3//3 38//38
f 80//80 38//38 57//57
f 58//58 19//19 21//21
f 58//58 21//21 38//38
f 58//58 41//41 19//19
f 112//112 37//37 113//113
f 112//112 113//113 10//10
f 8//8 37//37 22//22
f 62//62 23//23 40//40
f 63//63 41//41 7//7
f 63//63 19//19 41//41
f 104//104 85//85 86//86
f 64//64 75//75 2//2
f 65//65 102//102 42//42
f 65//65 42//42 20//20
f 65//65 20//20 35//35
f 65//65 35//35 7//7
f 65//65 7//7 86//86
f 65//65 86//86 1//1
f 65//65 1//1 14//14
f 65//65 14//14 64//64
f 65//65 64//64 2//2
f 37//37 43//43 22//22
f 108//108 16//16 47//47
f 67//67 47//47 54//54
f 67//67 54//54 9//9
f 67//67 9//9 33//33
f 15//15 26//26 4//4
f 69//69 29//29 106//106
f 69//69 106//106 26//26
f 70//70 26//26 15//15
f 70//70 15//15 29//29
f 70//70 69//69 26//26
f 70//70 29//29 69//69
f 91//91 27//27 14//14
f 91//91 12//12 27//27
f 71//71 14//14 109//109
f 29//29 122//122 48//48
f 72//72 122//122 30//30
f 72//72 30//30 49//49
f 73//73 50//50 122//122
f 74//74 17//17 51//51
f 74//74 32//32 52//52
f 75//75 64//64 18//18
f 75//75 18//18 34//34
f 94//94 33//33 53//53
f 94//94 67//67 33//33
f 76//76 5//5 9//9
f 76//76 9//9 54//54
f 55//55 123//123 101//101
f 55//55 6//6 123//123
f 42//42 101//101 20//20
f 96//96 35//35 101//101
f 24//24 101//101 42//42
f 78//78 77//77 6//6
f 78//78 6//6 40//40
f 79//79 10//10 3//3
f 79//79 3//3 80//80
f 80//80 57//57 21//21
f 80//80 21//21 112//112
f 80//80 112//112 10//10
f 80//80 10//10 79//79
f 119//119 58//58 38//38
f 119//119 41//41 58//58
f 97//97 119//119 38//38
f 59//59 3//3 113//113
f 59//59 38//38 3//3
f 39//39 59//59 113//113
f 81//81 60//60 113//113
f 81//81 1//1 85//85
f 82//82 40//40 23//23
f 82//82 11//11 40//40
f 82//82 74//74 51//51
f 82//82 32//32 74//74
f 83//83 40//40 6//6
f 83//83 6//6 61//61
f 24//24 61//61 6//6
f 24//24 6//6 55//55
f 43//43 56//56 48//48
f 84//84 63//63 7//7
f 84//84 19//19 63//63
f 86//86 7//7 104//104
f 119//119 97//97 39//39
f 119//119 39//39 85//85
f 119//119 104//104 7//7
f 119//119 7//7 41//41
f 87//87 65//65 2//2
f 88//88 45//45 16//16
f 88//88 16//16 66//66
f 88//88 66//66 121//121
f 121//121 66//66 16//16
f 111//111 16//16 45//45
f 111//111 45//45 29//29
f 89//89 46//46 16//16
f 89//89 16//16 108//108
f 89//89 68//68 44//44
f 53//53 44//44 68//68
f 90//90 15//15 4//4
f 91//91 14//14 71//71
f 91//91 71//71 12//12
f 71//71 28//28 8//8
f 110//110 8//8 12//12
f 43//43 48//48 122//122
f 92//92 72//72 49//49
f 92//92 49//49 122//122
f 92//92 122//122 72//72
f 111//111 48//48 16//16
f 111//111 29//29 48//48
f 93//93 74//74 52//52
f 93//93 17//17 74//74
f 93//93 75//75 34//34
f 93//93 34//34 17//17
f 94//94 53//53 68//68
f 94//94 68//68 47//47
f 94//94 47//47 67//67
f 95//95 76//76 54//54
f 95//95 54//54 47//47
f 95//95 5//5 76//76
f 101//101 123//123 96//96
f 11//11 77//77 78//78
f 11//11 56//56 77//77
f 37//37 112//112 56//56
f 97//97 59//59 39//39
f 97//97 38//38 59//59
f 124//124 85//85 39//39
f 60//60 85//85 124//124
f 81//81 113//113 28//28
f 98//98 81//81 28//28
f 98//98 109//109 1//1
f 98//98 1//1 81//81
f 85//85 60//60 81//81
f 99//99 82//82 23//23
f 99//99 23//23 62//62
f 99//99 32//32 82//82
f 11//11 82//82 51//51
f 11//11 51//51 5//5
f 11//11 5//5 95//95
f 78//78 40//40 11//11
f 100//100 40//40 83//83
f 101//101 24//24 55//55
f 103//103 120//120 2//2
f 103//103 2//2 75//75
f 103//103 99//99 120//120
f 103//103 32//32 99//99
f 119//119 85//85 104//104
f 42//42 102//102 24//24
f 87//87 62//62 125//125
f 105//105 40//40 126//126
f 37//37 56//56 43//43
f 13//13 88//88 121//121
f 13//13 26//26 88//88
f 121//121 89//89 13//13
f 106//106 45//45 88//88
f 106//106 88//88 26//26
f 107//107 16//16 46//46
f 121//121 107//107 46//46
f 108//108 47//47 68//68
f 15//15 73//73 122//122
f 73//73 30//30 50//50
f 109//109 28//28 71//71
f 110//110 71//71 8//8
f 110//110 12//12 71//71
f 93//93 103//103 75//75
f 93//93 52//52 103//103
f 48//48 95//95 47//47
f 56//56 21//21 77//77
f 112//112 21//21 56//56
f 124//124 39//39 113//113
f 109//109 98//98 28//28
f 114//114 99//99 62//62
f 114//114 120//120 99//99
f 61//61 100//100 83//83
f 61//61 24//24 100//100
f 116//116 115//115 100//100
f 116//116 100//100 24//24
f 115//115 40//40 100//100
f 24//24 102//102 116//116
f 117//117 40//40 115//115
f 118//118 103//103 52//52
f 118//118 52//52 32//32
f 118//118 32//32 103//103
f 48//48 56//56 95//95
f 2//2 62//62 87//87
f 120//120 114//114 62//62
f 120//120 62//62 2//2
f 105//105 62//62 40//40
f 125//125 105//105 126//126
f 121//121 16//16 107//107
f 89//89 121//121 46//46
f 90//90 73//73 15//15
f 90//90 49//49 73//73
f 73//73 49//49 30//30
f 95//95 56//56 11//11
f 125//125 117//117 115//115
f 102//102 87//87 116//116
f 116//116 125//125 115//115
f 125//125 116//116 87//87
f 125//125 62//62 105//105
f 68//68 89//89 108//108
f 124//124 113//113 60//60
f 127//127 126//126 40//40
f 127//127 40//40 117//117
f 127//127 117//117 125//125
f 127//127 125//125 126//126
# 250 faces, 0 coords texture

# End of File
