####
#
# OBJ File Generated by Meshlab
#
####
# Object eating_right_for_healthy_living_apple_250_collision.obj
#
# Vertices: 121
# Faces: 238
#
####
vn -6.160800 0.414772 -0.165545
v -0.065115 0.068493 0.013699
vn 0.215425 -2.532553 2.085237
v 0.054586 -0.092328 0.152448
vn 2.746744 0.094280 -2.055656
v 0.084148 -0.066536 0.009060
vn 3.996519 4.411079 1.040259
v -0.026674 0.088566 0.143530
vn -2.944530 -2.861425 -2.926402
v 0.043076 -0.086698 0.009444
vn 3.585627 3.773787 -2.234282
v -0.026123 0.087714 0.010161
vn 5.502673 2.451443 0.905047
v 0.077751 -0.059830 0.143049
vn -5.163534 -1.705229 1.727532
v -0.061832 0.064033 0.144735
vn 2.000329 -3.630921 -2.839533
v 0.059341 -0.088511 0.009534
vn 3.216977 2.258721 -2.967180
v 0.048923 -0.013699 0.008606
vn -1.867834 3.878465 -2.646087
v -0.041065 0.089806 0.009889
vn 1.705613 1.213156 5.747816
v 0.010852 0.024915 0.152887
vn 4.984230 -3.582280 0.648770
v 0.078278 -0.072762 0.140900
vn -4.879580 -3.924750 0.267430
v 0.041323 -0.084298 0.133258
vn -0.665054 -2.991706 -2.790607
v 0.048943 -0.090243 0.008767
vn 4.895610 3.926182 0.022380
v -0.021610 0.082881 0.115138
vn 5.234604 3.461937 0.186407
v 0.074723 -0.054811 0.138990
vn 1.147544 2.566606 -4.199872
v -0.031301 0.090044 0.008189
vn -4.174373 4.309611 1.093494
v -0.059126 0.076330 0.143147
vn 4.373044 3.064175 3.256258
v -0.013699 0.067911 0.148727
vn 2.046594 0.766971 5.731980
v 0.075102 -0.066365 0.151570
vn -2.072059 1.350447 4.761926
v -0.056529 0.072346 0.152137
vn 6.134668 0.635842 0.393960
v 0.079744 -0.066536 0.138943
vn 2.508866 -3.035360 -2.935786
v 0.076409 -0.076324 0.009785
vn -3.018258 -5.436469 0.005084
v 0.046797 -0.090048 0.111301
vn -4.878561 -3.510529 1.731225
v 0.039995 -0.080408 0.146771
vn -3.039100 -1.996899 -2.963882
v -0.054794 0.046967 0.009199
vn 0.746036 -3.242538 -2.796577
v 0.055016 -0.090228 0.009093
vn 1.315492 0.824227 -5.850111
v 0.064579 -0.039139 0.008016
vn 4.785674 4.003764 -0.307971
v -0.023046 0.084607 0.013416
vn 3.278384 2.090979 -3.003588
v 0.076332 -0.054573 0.008762
vn 5.135361 3.617941 0.124135
v 0.023610 0.019569 0.103718
vn 4.952260 3.771796 0.582208
v -0.022588 0.083534 0.142884
vn 2.790273 2.136159 -4.584745
v -0.019569 0.078278 0.008691
vn -0.297352 5.763893 1.063738
v -0.035196 0.092049 0.141444
vn 3.012877 5.321990 -0.793780
v -0.029354 0.090318 0.011742
vn -4.126164 3.891298 -1.506255
v -0.060593 0.076069 0.010133
vn -5.439695 1.940843 0.555134
v -0.062450 0.072412 0.141349
vn 0.582317 0.371500 6.209018
v 0.018018 0.008996 0.153413
vn 2.783629 -1.626112 3.539040
v 0.075425 -0.072224 0.151740
vn 4.196003 0.685777 2.931037
v 0.078106 -0.065547 0.149893
vn -3.956076 -2.607233 3.818840
v -0.054895 0.056751 0.148838
vn 0.233176 0.918565 6.095292
v -0.029642 0.082751 0.152322
vn 5.520459 -1.726069 1.005816
v 0.079345 -0.070595 0.142736
vn 3.006901 -2.855719 -2.744624
v 0.080758 -0.072407 0.009785
vn 4.219508 -4.491961 0.768520
v 0.074369 -0.076708 0.142149
vn 2.796059 -4.060966 -2.490824
v 0.062576 -0.086585 0.009786
vn -4.422660 -4.428096 0.123734
v 0.043189 -0.086962 0.121382
vn -2.539777 -5.612098 0.130826
v 0.048955 -0.090936 0.139675
vn -2.442885 -5.642714 -0.092965
v 0.046967 -0.089878 0.015656
vn -5.040630 -3.707343 0.489035
v 0.039139 -0.080611 0.140900
vn -5.143263 -3.603628 0.192328
v -0.012222 -0.009618 0.107609
vn -5.729516 -2.518129 -0.045406
v -0.064636 0.064182 0.009785
vn -2.550761 -1.855780 -3.256460
v 0.007828 -0.039139 0.008245
vn 1.016563 0.762296 -6.007294
v 0.007828 0.039139 0.008026
vn 5.083107 3.692629 0.028121
v -0.013698 0.072145 0.101760
vn 4.319904 3.448999 -2.324751
v -0.021526 0.081935 0.009785
vn 5.147364 3.600717 0.131179
v 0.041285 -0.005871 0.109589
vn 5.104197 3.580906 0.619598
v 0.045790 -0.013709 0.142553
vn 4.632427 3.440311 2.336043
v -0.021526 0.080665 0.146770
vn 5.001683 3.794903 0.092451
v -0.021225 0.082191 0.127201
vn -3.590587 5.072827 0.584664
v -0.045514 0.086719 0.141743
vn 3.573857 5.039726 -0.673505
v -0.028900 0.090019 0.011742
vn 0.257966 4.363831 -2.128351
v -0.033268 0.091992 0.009706
vn -1.965056 2.196437 -4.072315
v -0.058812 0.076524 0.008218
vn -6.195306 -0.829180 0.149278
v -0.062867 0.066536 0.129158
vn -5.131894 3.154878 -0.959703
v -0.063577 0.072413 0.011722
vn -4.006539 1.183782 2.623149
v -0.061254 0.071625 0.148817
vn -0.587165 -0.375254 6.189394
v -0.000480 -0.005744 0.153694
vn 0.642672 0.225803 6.211709
v 0.070701 -0.065840 0.152287
vn 1.108245 3.153063 3.265782
v -0.029947 0.088218 0.150945
vn 4.856991 3.089417 2.396793
v 0.074515 -0.056751 0.147039
vn -3.823041 -3.432718 2.883683
v 0.045912 -0.087466 0.148803
vn -4.655100 -2.690946 2.892778
v -0.058554 0.060355 0.146810
vn 4.326201 -2.845751 -2.128111
v 0.082191 -0.070509 0.009785
vn 4.530164 -4.315719 0.190676
v 0.076987 -0.074386 0.138827
vn 2.599154 -3.460708 -2.886643
v 0.072407 -0.079362 0.009785
vn -4.020149 -4.809673 0.044582
v 0.045010 -0.088695 0.113503
vn -5.068421 -3.712710 0.020826
v 0.034045 -0.075662 0.091112
vn -3.489072 -4.758115 -1.274754
v 0.044410 -0.087997 0.010082
vn -5.017422 -3.640065 0.953164
v 0.039139 -0.079901 0.144814
vn -5.353101 -3.146506 0.467257
v -0.061256 0.062642 0.142802
vn -1.584175 -1.257784 -5.555687
v 0.021352 -0.056539 0.008272
vn 5.141838 3.479776 0.794410
v 0.074405 -0.054731 0.143279
vn 4.913100 3.645115 1.321194
v -0.021526 0.081581 0.144814
vn -2.147613 5.293531 1.471652
v -0.039783 0.090421 0.143483
vn -3.868989 4.923614 0.274881
v -0.056751 0.078406 0.140900
vn -3.588962 5.139305 -0.227534
v -0.048845 0.084708 0.013326
vn 2.547547 5.447703 0.815958
v -0.029301 0.090532 0.141967
vn -1.692704 6.028268 -0.246879
v -0.037182 0.091106 0.011742
vn -3.116426 0.617839 -3.174354
v -0.064585 0.068502 0.008643
vn -6.241850 -0.017554 0.258834
v -0.062839 0.069471 0.136007
vn -6.048592 -1.672964 0.136636
v -0.062622 0.065486 0.129158
vn -3.475820 -0.925552 -2.712735
v -0.064786 0.064572 0.009051
vn -5.775074 2.145885 -0.273223
v -0.064700 0.070450 0.013699
vn -2.833755 -1.224611 5.014400
v -0.056512 0.065084 0.151358
vn 4.242667 2.780797 3.578886
v 0.074364 -0.058161 0.148727
vn 3.104249 2.130549 5.001323
v 0.017612 0.019080 0.151438
vn 1.826120 1.743575 5.516448
v -0.028597 0.084298 0.151859
vn 4.557748 3.237042 2.840964
v -0.017612 0.074364 0.147713
vn -3.580433 -2.504420 4.453398
v 0.007120 -0.029354 0.150684
vn -3.885076 -4.558443 0.929957
v 0.046039 -0.088726 0.145861
vn -4.899265 -3.910199 0.089666
v 0.039433 -0.082834 0.112860
vn -4.861155 -3.938991 -0.216622
v 0.038881 -0.082207 0.013698
vn -3.429559 -5.206503 -0.277551
v 0.045010 -0.088494 0.011742
vn -5.214670 -3.498312 0.173500
v -0.059388 0.058708 0.121330
vn -5.014671 -2.833083 -1.602812
v -0.061465 0.057988 0.009652
vn 5.040163 3.354147 1.612806
v 0.074364 -0.055229 0.144814
vn -2.003878 5.933052 0.018230
v -0.037182 0.091536 0.136986
vn -2.273283 4.055832 3.242722
v -0.043121 0.086855 0.148096
vn 1.780921 5.915575 0.215119
v -0.031343 0.091538 0.138572
vn -2.109103 -1.469529 5.547671
v 0.004326 -0.020828 0.152694
vn 3.758272 2.623264 4.236131
v 0.014245 0.025440 0.150684
vn -3.304212 -2.337612 4.761243
v 0.036693 -0.070514 0.151147
vn -5.121001 -3.638156 0.110782
v 0.023025 -0.060240 0.097591
vn -4.681927 -3.561266 -1.906971
v 0.039139 -0.081806 0.009785
vn -5.434544 -3.135181 0.128484
v -0.060697 0.060687 0.120070
vn -1.708999 -1.262229 5.645614
v 0.048572 -0.083798 0.152537
vn -3.263967 -2.244042 4.853623
v -0.023483 0.014677 0.150609
vn 4.175719 2.918228 3.677365
v 0.009785 0.033268 0.149554
vn -4.920885 -3.830778 -0.702572
v 0.039139 -0.082235 0.011558
# 121 vertices, 0 vertices normals

f 17//17 7//7 3//3
f 23//23 3//3 7//7
f 28//28 15//15 3//3
f 28//28 9//9 2//2
f 28//28 24//24 9//9
f 28//28 3//3 24//24
f 28//28 2//2 15//15
f 29//29 3//3 15//15
f 30//30 6//6 4//4
f 30//30 4//4 16//16
f 31//31 17//17 3//3
f 31//31 10//10 17//17
f 31//31 29//29 10//10
f 31//31 3//3 29//29
f 34//34 18//18 6//6
f 38//38 19//19 37//37
f 39//39 21//21 12//12
f 41//41 12//12 21//21
f 41//41 23//23 7//7
f 41//41 21//21 40//40
f 43//43 39//39 12//12
f 44//44 3//3 23//23
f 44//44 23//23 41//41
f 44//44 41//41 40//40
f 44//44 40//40 13//13
f 45//45 24//24 3//3
f 46//46 2//2 24//24
f 46//46 24//24 45//45
f 46//46 40//40 2//2
f 46//46 13//13 40//40
f 47//47 2//2 9//9
f 50//50 49//49 25//25
f 50//50 15//15 2//2
f 50//50 2//2 49//49
f 55//55 10//10 29//29
f 55//55 29//29 54//54
f 55//55 34//34 10//10
f 55//55 18//18 34//34
f 56//56 30//30 16//16
f 56//56 10//10 30//30
f 57//57 30//30 10//10
f 57//57 6//6 30//30
f 57//57 34//34 6//6
f 57//57 10//10 34//34
f 58//58 17//17 10//10
f 58//58 10//10 32//32
f 59//59 32//32 33//33
f 59//59 58//58 32//32
f 59//59 17//17 58//58
f 61//61 16//16 4//4
f 61//61 4//4 33//33
f 61//61 56//56 16//16
f 61//61 33//33 32//32
f 61//61 32//32 10//10
f 61//61 10//10 56//56
f 63//63 4//4 6//6
f 63//63 6//6 36//36
f 64//64 36//36 6//6
f 64//64 6//6 18//18
f 64//64 18//18 11//11
f 65//65 37//37 11//11
f 65//65 11//11 18//18
f 65//65 55//55 54//54
f 65//65 18//18 55//55
f 67//67 38//38 37//37
f 68//68 19//19 38//38
f 68//68 38//38 8//8
f 69//69 43//43 22//22
f 69//69 39//39 43//43
f 70//70 2//2 40//40
f 70//70 40//40 21//21
f 70//70 21//21 39//39
f 70//70 69//69 2//2
f 70//70 39//39 69//69
f 71//71 60//60 4//4
f 71//71 22//22 43//43
f 72//72 41//41 7//7
f 74//74 8//8 26//26
f 74//74 73//73 42//42
f 74//74 26//26 73//73
f 75//75 44//44 13//13
f 75//75 3//3 44//44
f 75//75 45//45 3//3
f 75//75 13//13 45//45
f 76//76 46//46 45//45
f 76//76 45//45 13//13
f 76//76 13//13 46//46
f 77//77 24//24 2//2
f 77//77 2//2 47//47
f 77//77 47//47 9//9
f 77//77 9//9 24//24
f 80//80 5//5 15//15
f 80//80 78//78 48//48
f 80//80 48//48 5//5
f 81//81 26//26 8//8
f 82//82 14//14 51//51
f 82//82 81//81 8//8
f 82//82 51//51 81//81
f 82//82 52//52 14//14
f 82//82 8//8 53//53
f 83//83 15//15 5//5
f 83//83 5//5 54//54
f 83//83 54//54 29//29
f 83//83 29//29 15//15
f 84//84 7//7 17//17
f 84//84 17//17 59//59
f 85//85 33//33 4//4
f 85//85 4//4 60//60
f 85//85 59//59 33//33
f 85//85 84//84 59//59
f 86//86 11//11 62//62
f 86//86 71//71 35//35
f 87//87 62//62 37//37
f 87//87 37//37 19//19
f 87//87 19//19 62//62
f 88//88 62//62 11//11
f 88//88 11//11 37//37
f 88//88 37//37 62//62
f 89//89 63//63 36//36
f 89//89 4//4 63//63
f 89//89 71//71 4//4
f 89//89 35//35 71//71
f 90//90 64//64 11//11
f 90//90 35//35 64//64
f 91//91 65//65 54//54
f 91//91 54//54 27//27
f 91//91 67//67 37//37
f 91//91 37//37 65//65
f 92//92 38//38 1//1
f 92//92 1//1 66//66
f 92//92 66//66 8//8
f 92//92 8//8 38//38
f 93//93 8//8 66//66
f 94//94 66//66 1//1
f 94//94 1//1 91//91
f 94//94 8//8 93//93
f 94//94 93//93 66//66
f 94//94 91//91 27//27
f 94//94 53//53 8//8
f 95//95 1//1 38//38
f 95//95 38//38 67//67
f 95//95 91//91 1//1
f 95//95 67//67 91//91
f 96//96 22//22 68//68
f 96//96 74//74 42//42
f 96//96 69//69 22//22
f 96//96 68//68 8//8
f 96//96 8//8 74//74
f 97//97 72//72 20//20
f 97//97 41//41 72//72
f 98//98 12//12 41//41
f 99//99 71//71 43//43
f 99//99 43//43 12//12
f 99//99 98//98 71//71
f 99//99 12//12 98//98
f 100//100 71//71 20//20
f 100//100 60//60 71//71
f 100//100 72//72 60//60
f 100//100 20//20 72//72
f 101//101 42//42 73//73
f 102//102 49//49 2//2
f 102//102 2//2 73//73
f 102//102 14//14 48//48
f 102//102 48//48 78//78
f 102//102 51//51 14//14
f 102//102 78//78 25//25
f 102//102 25//25 49//49
f 102//102 81//81 51//51
f 102//102 73//73 26//26
f 102//102 26//26 81//81
f 103//103 48//48 14//14
f 103//103 14//14 52//52
f 104//104 79//79 27//27
f 104//104 103//103 79//79
f 104//104 27//27 54//54
f 104//104 5//5 48//48
f 104//104 48//48 103//103
f 105//105 80//80 15//15
f 105//105 15//15 50//50
f 105//105 50//50 25//25
f 105//105 25//25 78//78
f 105//105 78//78 80//80
f 106//106 27//27 52//52
f 106//106 52//52 82//82
f 107//107 94//94 27//27
f 107//107 53//53 94//94
f 108//108 72//72 7//7
f 108//108 7//7 84//84
f 108//108 60//60 72//72
f 108//108 85//85 60//60
f 108//108 84//84 85//85
f 109//109 86//86 35//35
f 109//109 11//11 86//86
f 109//109 90//90 11//11
f 109//109 35//35 90//90
f 110//110 22//22 71//71
f 110//110 71//71 86//86
f 110//110 68//68 22//22
f 110//110 19//19 68//68
f 110//110 86//86 62//62
f 110//110 62//62 19//19
f 111//111 89//89 36//36
f 111//111 36//36 64//64
f 111//111 64//64 35//35
f 111//111 35//35 89//89
f 112//112 69//69 96//96
f 113//113 20//20 71//71
f 113//113 71//71 98//98
f 113//113 98//98 41//41
f 113//113 41//41 97//97
f 114//114 101//101 73//73
f 114//114 73//73 2//2
f 114//114 112//112 101//101
f 115//115 103//103 52//52
f 115//115 52//52 27//27
f 115//115 27//27 79//79
f 115//115 79//79 103//103
f 116//116 54//54 5//5
f 117//117 82//82 53//53
f 117//117 53//53 107//107
f 117//117 106//106 82//82
f 117//117 107//107 27//27
f 117//117 27//27 106//106
f 118//118 2//2 69//69
f 118//118 69//69 112//112
f 118//118 114//114 2//2
f 118//118 112//112 114//114
f 119//119 112//112 96//96
f 119//119 96//96 42//42
f 119//119 42//42 101//101
f 119//119 101//101 112//112
f 120//120 113//113 97//97
f 120//120 97//97 20//20
f 120//120 20//20 113//113
f 121//121 104//104 54//54
f 121//121 54//54 116//116
f 121//121 116//116 5//5
f 121//121 5//5 104//104
# 238 faces, 0 coords texture

# End of File
