####
#
# OBJ File Generated by Meshlab
#
####
# Object eating_right_for_healthy_living_apple_250_collision.obj
#
# Vertices: 127
# Faces: 250
#
####
vn 0.062700 0.053005 0.996624
v 0.003223 0.002336 -0.000333
vn -0.221495 -0.169895 0.960248
v 0.023516 -0.003985 0.000489
vn -0.816924 -0.575903 0.031153
v 0.044227 -0.012843 0.051027
vn 0.292247 0.222025 -0.930213
v 0.007861 -0.021024 0.153825
vn 0.462119 0.324428 0.825344
v 0.005866 -0.025180 0.002761
vn 0.796496 0.545447 0.260924
v 0.006830 -0.034957 0.009972
vn 0.758534 0.543865 0.358939
v -0.004270 -0.018777 0.009692
vn 0.458106 0.354758 0.815037
v -0.010821 -0.001901 0.002595
vn 0.816303 0.576515 0.035782
v -0.008860 -0.013019 0.029121
vn 0.815373 0.578912 -0.005304
v 0.018539 -0.056224 0.095790
vn 0.820620 0.570975 -0.023868
v -0.009079 -0.017141 0.104932
vn 0.721751 0.500687 -0.477900
v 0.024294 -0.059857 0.145422
vn 0.818315 0.571026 -0.065502
v -0.019840 0.000476 0.126516
vn 0.398524 0.194541 0.896288
v -0.048956 0.054573 0.000903
vn 0.755433 0.553675 0.350378
v -0.023469 0.008020 0.008194
vn 0.517047 0.379292 0.767333
v -0.031473 0.024299 0.003170
vn 0.146895 0.112035 0.982787
v -0.015114 0.015216 0.000111
vn -0.079463 -0.065058 0.994713
v -0.013303 0.031952 0.000239
vn 0.151557 0.109138 0.982405
v -0.028989 0.036320 0.000119
vn 0.675606 0.468366 0.569376
v -0.047902 0.043433 0.004465
vn -0.444764 -0.334349 0.830900
v 0.007288 0.025953 0.002755
vn -0.376199 -0.265063 0.887815
v -0.010492 0.049090 0.002502
vn 0.463563 -0.047336 0.884799
v -0.057288 0.066016 0.002848
vn 0.922762 0.223281 0.314096
v -0.063576 0.063268 0.012256
vn 0.106333 -0.950132 0.293161
v -0.038601 0.088814 0.008968
vn 0.712832 -0.477135 0.514016
v -0.060197 0.071736 0.006834
vn -0.092764 -0.133403 0.986711
v -0.032698 0.069905 0.000650
vn -0.609351 -0.434251 0.663414
v -0.016624 0.066228 0.005682
vn -0.055679 -0.459039 0.886670
v -0.036530 0.083210 0.002997
vn -0.595423 -0.669518 0.444090
v -0.025038 0.080310 0.007433
vn 0.977425 0.211277 0.001353
v -0.063525 0.062187 0.064157
vn 0.792206 0.573362 0.208964
v -0.036456 0.025941 0.008902
vn 0.818629 0.573564 0.029511
v -0.018895 -0.002242 0.063091
vn 0.815402 0.578056 0.031155
v -0.048652 0.041585 0.038497
vn -0.817255 -0.574898 0.039833
v -0.001318 0.052133 0.059694
vn 0.779822 -0.625551 0.023742
v -0.061787 0.072323 0.027678
vn 0.578983 -0.815337 -0.002139
v -0.050306 0.081789 0.076412
vn -0.746592 -0.522626 0.411659
v 0.004925 0.038664 0.009105
vn -0.604412 -0.794207 0.062629
v -0.027644 0.086082 0.026136
vn 0.231944 -0.972698 0.007774
v -0.039985 0.088071 0.027804
vn 0.115385 -0.993260 0.010966
v -0.037339 0.089795 0.056077
vn -0.639908 -0.768346 0.012758
v -0.022840 0.082180 0.059889
vn 0.965922 0.258764 -0.005983
v -0.063224 0.061534 0.094229
vn 0.896153 0.313467 -0.314084
v -0.062121 0.060471 0.143184
vn 0.823415 0.567408 -0.005955
v -0.034822 0.020349 0.088445
vn -0.818510 -0.574463 -0.005835
v -0.000814 0.052159 0.099724
vn 0.775836 0.555501 -0.299162
v -0.048154 0.041688 0.142055
vn 0.853104 -0.521738 -0.001616
v -0.061331 0.072992 0.086540
vn -0.544493 -0.838057 0.034464
v -0.024235 0.085433 0.112185
vn 0.118003 -0.957296 -0.263931
v -0.037139 0.091284 0.141021
vn 0.180185 -0.983539 0.013573
v -0.038044 0.089708 0.095144
vn -0.651995 -0.730560 -0.202942
v -0.026978 0.088619 0.142956
vn 0.695276 0.503075 -0.513330
v -0.026985 0.013773 0.144875
vn -0.198167 -0.118513 -0.972977
v -0.017367 0.058539 0.151388
vn 0.756202 0.511839 -0.407652
v -0.004644 -0.019121 0.144935
vn 0.229696 0.129488 -0.964610
v -0.012195 0.012329 0.152712
vn 0.386191 0.280468 -0.878746
v -0.043122 0.047902 0.153162
vn 0.514822 -0.091991 -0.852348
v -0.057995 0.070424 0.153116
vn -0.682969 -0.450631 -0.574878
v -0.004929 0.053569 0.145836
vn 0.863919 -0.473101 -0.172683
v -0.062609 0.074237 0.143792
vn -0.224521 -0.542580 -0.809443
v -0.032199 0.084842 0.152383
vn 0.329369 0.291756 0.897995
v 0.042668 -0.073076 0.001266
vn 0.334043 0.278060 0.900610
v 0.026412 -0.053733 0.003006
vn 0.702675 0.518045 0.487727
v 0.028747 -0.065331 0.007909
vn -0.294582 0.925685 0.237336
v 0.055963 -0.089047 0.010298
vn -0.037807 0.502127 0.863967
v 0.054851 -0.082343 0.001582
vn 0.525849 0.765868 0.370041
v 0.043941 -0.087015 0.009873
vn 0.174275 0.983780 0.042478
v 0.050173 -0.090496 0.025134
vn -0.505262 0.101243 0.857007
v 0.073692 -0.067775 0.002947
vn -0.474739 0.697478 0.536793
v 0.060083 -0.085419 0.006867
vn -0.886642 -0.316859 0.336847
v 0.076607 -0.061918 0.007192
vn -0.876773 0.426528 0.222133
v 0.077314 -0.072868 0.011705
vn 0.161762 0.142384 0.976504
v 0.027212 -0.041823 0.000359
vn 0.453430 0.314951 0.833791
v 0.016475 -0.041877 0.002973
vn 0.068772 0.061063 0.995762
v 0.035268 -0.041991 -0.000347
vn 0.068890 0.039410 0.996846
v 0.019960 -0.017386 -0.000443
vn -0.038573 0.028340 0.998854
v 0.050047 -0.056311 -0.000584
vn -0.240489 -0.161643 0.957098
v 0.054239 -0.045231 0.000303
vn -0.688222 -0.489303 0.535661
v 0.062012 -0.043625 0.005088
vn -0.806443 -0.585845 0.080221
v 0.061918 -0.040751 0.015739
vn -0.633679 -0.453757 0.626543
v 0.046463 -0.022397 0.005078
vn -0.809869 -0.576152 0.110277
v 0.047778 -0.020987 0.015246
vn 0.667416 0.744236 0.025859
v 0.041587 -0.086468 0.045146
vn -0.282638 0.959132 0.013455
v 0.055138 -0.089902 0.057592
vn 0.297564 0.954495 0.019864
v 0.046909 -0.090133 0.070702
vn 0.810924 0.584616 0.025042
v 0.024433 -0.064123 0.060470
vn -0.828281 0.560146 0.013657
v 0.076042 -0.075378 0.063923
vn 0.709995 0.704062 0.014276
v 0.039967 -0.085287 0.072998
vn -0.983211 -0.182272 0.008576
v 0.078454 -0.064971 0.082924
vn 0.813386 0.579525 0.050530
v 0.029303 -0.068671 0.031960
vn 0.820493 0.570757 0.032058
v 0.001668 -0.031694 0.066718
vn -0.968022 -0.249628 0.024868
v 0.077437 -0.061573 0.020934
vn -0.856518 -0.516037 0.009032
v 0.075820 -0.058454 0.047133
vn -0.276801 0.960829 0.013702
v 0.054001 -0.091289 0.091136
vn 0.375507 0.926743 0.011915
v 0.046015 -0.090734 0.100006
vn -0.299923 0.937704 -0.175381
v 0.054681 -0.091197 0.140848
vn -0.937694 0.347462 0.000753
v 0.078658 -0.073056 0.110359
vn -0.928862 -0.370419 -0.002507
v 0.076864 -0.059821 0.115853
vn -0.885842 -0.382071 -0.263258
v 0.077307 -0.061254 0.143838
vn -0.758324 0.630778 -0.164512
v 0.076093 -0.075840 0.138561
vn 0.766425 0.641952 -0.022148
v 0.038757 -0.084797 0.111090
vn -0.821588 -0.569987 -0.010375
v 0.053605 -0.025708 0.100175
vn 0.812939 0.577570 -0.074457
v 0.018058 -0.052946 0.137469
vn -0.722440 -0.510666 -0.466156
v 0.054764 -0.030298 0.143027
vn -0.860243 -0.509863 0.004765
v 0.074499 -0.056485 0.081321
vn 0.509702 0.826598 -0.238622
v 0.043658 -0.089768 0.143925
vn 0.250310 0.125063 -0.960054
v 0.030172 -0.058827 0.150194
vn 0.156725 0.554631 -0.817204
v 0.049068 -0.086710 0.151468
vn -0.564239 0.543234 -0.621716
v 0.069978 -0.076530 0.150990
vn -0.332240 -0.113274 -0.936368
v 0.065819 -0.064964 0.155803
vn -0.898829 0.122668 -0.420784
v 0.078207 -0.068031 0.145189
vn -0.148053 -0.217246 -0.964824
v 0.052539 -0.046279 0.151901
vn -0.025913 -0.011444 -0.999599
v 0.038423 -0.044042 0.150470
vn -0.420827 -0.279758 -0.862925
v 0.048203 -0.029719 0.148954
vn -0.274802 -0.179545 -0.944589
v 0.017288 0.001871 0.154739
vn -0.743213 -0.519908 -0.421106
v 0.047081 -0.019225 0.143228
vn -0.556294 -0.415129 0.719865
v 0.025384 0.003550 0.003486
vn -0.774905 -0.562013 0.289247
v 0.034354 -0.002947 0.008217
vn -0.763035 -0.549553 0.340249
v 0.016709 0.020883 0.008661
vn -0.809607 -0.584060 0.058400
v 0.027111 0.008781 0.031568
vn -0.815275 -0.577487 0.042831
v 0.023872 0.015936 0.053460
vn -0.818805 -0.573989 0.009720
v 0.027157 0.011996 0.078547
vn -0.821607 -0.569434 -0.026602
v 0.040011 -0.006197 0.109529
vn -0.813932 -0.573783 -0.091042
v 0.029499 0.007131 0.134114
vn -0.822104 -0.559744 -0.104079
v 0.000372 0.049441 0.131376
vn -0.718420 -0.491535 -0.492205
v 0.020221 0.016266 0.146229
vn -0.337930 -0.264969 -0.903103
v 0.008852 0.021978 0.151734
# 127 vertices, 0 vertices normals

f 6//6 5//5 7//7
f 15//15 7//7 8//8
f 7//7 5//5 8//8
f 5//5 1//1 8//8
f 76//76 1//1 5//5
f 1//1 17//17 8//8
f 15//15 9//9 7//7
f 6//6 7//7 9//9
f 91//91 9//9 33//33
f 6//6 9//9 91//91
f 91//91 33//33 11//11
f 86//86 91//91 10//10
f 10//10 91//91 11//11
f 11//11 45//45 13//13
f 103//103 11//11 55//55
f 12//12 103//103 55//55
f 55//55 11//11 13//13
f 55//55 13//13 53//53
f 4//4 107//107 12//12
f 4//4 12//12 55//55
f 4//4 55//55 56//56
f 115//115 4//4 56//56
f 23//23 24//24 14//14
f 24//24 20//20 14//14
f 34//34 20//20 24//24
f 16//16 8//8 17//17
f 8//8 16//16 15//15
f 32//32 15//15 16//16
f 17//17 1//1 18//18
f 2//2 18//18 1//1
f 18//18 2//2 21//21
f 21//21 22//22 18//18
f 32//32 9//9 15//15
f 34//34 9//9 32//32
f 16//16 20//20 32//32
f 17//17 18//18 19//19
f 20//20 16//16 19//19
f 19//19 16//16 17//17
f 20//20 19//19 14//14
f 14//14 19//19 27//27
f 18//18 27//27 19//19
f 27//27 18//18 22//22
f 34//34 32//32 20//20
f 22//22 21//21 38//38
f 38//38 28//28 22//22
f 119//119 35//35 38//38
f 26//26 29//29 25//25
f 26//26 24//24 23//23
f 36//36 24//24 26//26
f 26//26 25//25 36//36
f 23//23 14//14 27//27
f 29//29 27//27 28//28
f 29//29 26//26 23//23
f 29//29 23//23 27//27
f 28//28 30//30 29//29
f 25//25 29//29 30//30
f 36//36 25//25 40//40
f 25//25 30//30 39//39
f 28//28 27//27 22//22
f 38//38 39//39 28//28
f 30//30 28//28 39//39
f 33//33 34//34 45//45
f 34//34 33//33 9//9
f 39//39 38//38 35//35
f 45//45 34//34 31//31
f 24//24 36//36 31//31
f 31//31 34//34 24//24
f 31//31 36//36 48//48
f 37//37 48//48 36//36
f 41//41 37//37 36//36
f 43//43 31//31 48//48
f 40//40 41//41 36//36
f 41//41 39//39 42//42
f 39//39 35//35 42//42
f 40//40 25//25 39//39
f 40//40 39//39 41//41
f 46//46 42//42 35//35
f 44//44 47//47 43//43
f 11//11 33//33 45//45
f 45//45 31//31 43//43
f 47//47 45//45 43//43
f 13//13 45//45 47//47
f 43//43 48//48 60//60
f 60//60 44//44 43//43
f 60//60 48//48 51//51
f 42//42 51//51 41//41
f 48//48 37//37 51//51
f 42//42 46//46 49//49
f 51//51 42//42 49//49
f 51//51 37//37 41//41
f 51//51 50//50 60//60
f 52//52 49//49 46//46
f 52//52 46//46 125//125
f 59//59 52//52 125//125
f 49//49 50//50 51//51
f 50//50 49//49 52//52
f 44//44 58//58 47//47
f 53//53 13//13 47//47
f 55//55 53//53 56//56
f 127//127 115//115 56//56
f 47//47 57//57 53//53
f 57//57 56//56 53//53
f 54//54 56//56 57//57
f 57//57 47//47 58//58
f 127//127 59//59 126//126
f 127//127 56//56 54//54
f 127//127 54//54 59//59
f 126//126 59//59 125//125
f 60//60 58//58 44//44
f 54//54 57//57 58//58
f 61//61 54//54 58//58
f 60//60 50//50 58//58
f 50//50 61//61 58//58
f 59//59 61//61 52//52
f 54//54 61//61 59//59
f 50//50 52//52 61//61
f 63//63 64//64 62//62
f 67//67 64//64 90//90
f 65//65 66//66 67//67
f 67//67 66//66 62//62
f 64//64 67//67 62//62
f 70//70 66//66 65//65
f 62//62 66//66 77//77
f 62//62 75//75 63//63
f 77//77 66//66 69//69
f 77//77 69//69 78//78
f 65//65 67//67 68//68
f 68//68 67//67 83//83
f 90//90 83//83 67//67
f 65//65 72//72 70//70
f 69//69 66//66 70//70
f 69//69 70//70 72//72
f 71//71 69//69 72//72
f 92//92 71//71 72//72
f 63//63 74//74 64//64
f 73//73 63//63 75//75
f 74//74 63//63 73//73
f 6//6 74//74 5//5
f 76//76 73//73 75//75
f 6//6 64//64 74//74
f 75//75 62//62 77//77
f 78//78 69//69 79//79
f 75//75 77//77 78//78
f 78//78 76//76 75//75
f 81//81 78//78 79//79
f 81//81 79//79 82//82
f 80//80 82//82 79//79
f 5//5 74//74 76//76
f 76//76 74//74 73//73
f 78//78 2//2 76//76
f 1//1 76//76 2//2
f 117//117 2//2 81//81
f 117//117 81//81 118//118
f 120//120 118//118 82//82
f 81//81 2//2 78//78
f 82//82 118//118 81//81
f 79//79 69//69 71//71
f 80//80 79//79 71//71
f 92//92 80//80 71//71
f 65//65 68//68 84//84
f 83//83 90//90 86//86
f 65//65 87//87 72//72
f 87//87 65//65 84//84
f 83//83 85//85 68//68
f 85//85 94//94 84//84
f 84//84 68//68 85//85
f 94//94 87//87 84//84
f 88//88 86//86 10//10
f 88//88 83//83 86//86
f 85//85 83//83 88//88
f 92//92 72//72 87//87
f 89//89 92//92 87//87
f 93//93 92//92 89//89
f 105//105 93//93 89//89
f 90//90 64//64 6//6
f 93//93 80//80 92//92
f 80//80 93//93 3//3
f 3//3 82//82 80//80
f 120//120 82//82 3//3
f 90//90 91//91 86//86
f 90//90 6//6 91//91
f 105//105 3//3 93//93
f 105//105 102//102 3//3
f 122//122 3//3 102//102
f 95//95 85//85 88//88
f 94//94 85//85 95//95
f 96//96 94//94 95//95
f 101//101 88//88 10//10
f 101//101 95//95 88//88
f 96//96 95//95 106//106
f 12//12 106//106 101//101
f 12//12 101//101 103//103
f 95//95 101//101 106//106
f 97//97 87//87 94//94
f 105//105 89//89 98//98
f 97//97 94//94 96//96
f 100//100 97//97 96//96
f 89//89 87//87 97//97
f 98//98 89//89 97//97
f 99//99 98//98 97//97
f 100//100 111//111 97//97
f 111//111 99//99 97//97
f 123//123 122//122 102//102
f 101//101 10//10 103//103
f 11//11 103//103 10//10
f 99//99 102//102 98//98
f 104//104 102//102 99//99
f 123//123 102//102 104//104
f 116//116 123//123 104//104
f 124//124 123//123 116//116
f 102//102 105//105 98//98
f 96//96 106//106 108//108
f 108//108 106//106 12//12
f 108//108 12//12 107//107
f 108//108 107//107 110//110
f 96//96 109//109 100//100
f 96//96 108//108 109//109
f 110//110 109//109 108//108
f 112//112 110//110 107//107
f 112//112 107//107 113//113
f 111//111 100//100 109//109
f 110//110 111//111 109//109
f 111//111 110//110 99//99
f 112//112 104//104 110//110
f 104//104 99//99 110//110
f 104//104 112//112 114//114
f 113//113 114//114 112//112
f 4//4 113//113 107//107
f 114//114 113//113 115//115
f 115//115 113//113 4//4
f 126//126 124//124 116//116
f 127//127 126//126 115//115
f 114//114 116//116 104//104
f 115//115 116//116 114//114
f 116//116 115//115 126//126
f 119//119 117//117 118//118
f 21//21 2//2 117//117
f 119//119 21//21 117//117
f 21//21 119//119 38//38
f 119//119 118//118 120//120
f 120//120 35//35 119//119
f 121//121 120//120 3//3
f 121//121 35//35 120//120
f 122//122 121//121 3//3
f 35//35 121//121 122//122
f 46//46 122//122 123//123
f 35//35 122//122 46//46
f 46//46 123//123 124//124
f 125//125 124//124 126//126
f 125//125 46//46 124//124
# 250 faces, 0 coords texture

# End of File
