####
#
# OBJ File Generated by Meshlab
#
####
# Object eating_right_for_healthy_living_apple_250_collision.obj
#
# Vertices: 127
# Faces: 250
#
####
vn -0.751976 -0.656029 -0.064481
v 0.037182 -0.091162 0.011742
vn 0.791463 0.579861 0.193257
v -0.021526 0.081581 0.144814
vn 0.266478 -0.962410 0.052502
v 0.054794 -0.090783 0.136986
vn 0.837509 0.538994 -0.089806
v 0.074364 -0.046967 0.006303
vn 0.230356 -0.963899 -0.133546
v 0.056751 -0.091976 0.006226
vn -0.543681 -0.834803 0.086686
v 0.047052 -0.089997 0.140652
vn -0.596134 0.438728 -0.672415
v -0.064579 0.073341 0.005871
vn -0.226202 -0.973235 -0.040582
v 0.038370 -0.091976 0.011742
vn 0.546496 -0.808227 -0.219342
v 0.064579 -0.088062 0.006481
vn -0.228479 -0.219979 -0.948370
v 0.039262 -0.083971 0.005871
vn 0.964064 0.244938 -0.102891
v 0.084161 -0.066561 0.009064
vn 0.560200 0.828320 0.007923
v -0.031311 0.095890 0.011502
vn 0.794097 0.607761 0.006040
v -0.021526 0.082769 0.115459
vn -0.565975 0.817154 0.109230
v -0.046205 0.086142 0.142090
vn 0.184619 0.128590 0.974362
v 0.016634 0.014677 0.153099
vn 0.048286 -0.998104 0.038158
v 0.052837 -0.090967 0.136986
vn -0.590123 -0.410056 -0.695420
v -0.035917 0.017612 0.005871
vn 0.997697 -0.020319 0.064715
v 0.079744 -0.066536 0.138943
vn 0.635980 -0.771093 0.030734
v 0.074364 -0.076741 0.138943
vn 0.539245 0.179884 -0.822713
v 0.080235 -0.059157 0.005871
vn 0.793553 0.604565 0.069105
v -0.021526 0.082026 0.142857
vn 0.812873 0.350444 0.465217
v 0.076264 -0.060953 0.148791
vn -0.458972 -0.290108 0.839751
v -0.054794 0.060410 0.150779
vn 0.223134 0.968003 0.114814
v -0.032855 0.091976 0.136986
vn 0.575841 0.425047 -0.698385
v 0.000000 0.054721 0.005871
vn -0.571796 0.769927 -0.283305
v -0.056751 0.082191 0.006420
vn -0.892675 0.148625 -0.425491
v -0.066545 0.070435 0.006610
vn -0.930000 0.356640 0.088932
v -0.062476 0.072381 0.140920
vn 0.000023 -0.999992 0.004035
v 0.039139 -0.091976 0.011967
vn -0.800371 -0.577762 0.159990
v 0.039139 -0.079901 0.144814
vn 0.438517 -0.500018 -0.746783
v 0.074361 -0.080237 0.005871
vn 0.965278 -0.242501 0.097120
v 0.079419 -0.070450 0.140900
vn 0.706206 -0.697164 0.123427
v 0.076741 -0.074477 0.143502
vn 0.587108 -0.809076 0.026477
v 0.062045 -0.086105 0.138943
vn 0.249510 -0.140454 -0.958132
v 0.078825 -0.075081 0.005871
vn 0.981609 0.150274 0.117735
v 0.079565 -0.064536 0.141468
vn 0.818054 0.574015 0.035993
v 0.047207 -0.015656 0.140900
vn 0.815656 0.572920 0.080430
v 0.021526 0.020791 0.142857
vn 0.791374 0.611149 0.014997
v -0.021526 0.082611 0.127201
vn 0.779712 0.384651 0.494057
v 0.074667 -0.056751 0.146770
vn -0.605534 0.691255 0.394328
v -0.057448 0.075959 0.149285
vn -0.861104 0.171088 0.478778
v -0.061580 0.070154 0.148093
vn 0.204921 0.977045 0.058234
v -0.033268 0.096326 0.011742
vn 0.616309 0.785375 0.057872
v -0.028596 0.090019 0.140900
vn 0.365931 0.222295 -0.903703
v 0.074364 -0.047645 0.005871
vn -0.483795 0.871301 -0.082319
v -0.037182 0.095946 0.011742
vn -0.287332 0.361376 -0.887044
v -0.056751 0.081382 0.005871
vn -0.736551 0.659425 0.150503
v -0.059367 0.076011 0.144842
vn -0.726261 -0.305864 -0.615623
v -0.064581 0.060664 0.005871
vn -0.585267 0.802540 0.115722
v -0.055616 0.079234 0.141361
vn 0.397620 0.278930 0.874126
v 0.009906 0.028635 0.152197
vn -0.818370 -0.566390 0.097336
v -0.058708 0.059022 0.142857
vn 0.054300 -0.722139 -0.689613
v 0.055810 -0.091976 0.005871
vn 0.879667 -0.394785 -0.265201
v 0.084148 -0.071538 0.007830
vn 0.863511 -0.478529 0.159244
v 0.078394 -0.072584 0.140900
vn 0.931604 0.262856 0.251038
v 0.078202 -0.060716 0.142362
vn 0.820923 0.563626 0.091707
v 0.074724 -0.055026 0.142861
vn 0.812509 0.582573 0.020916
v -0.021225 0.082191 0.127201
vn 0.227746 -0.291734 0.928990
v 0.065823 -0.076748 0.152080
vn -0.785067 -0.565905 0.251835
v 0.039995 -0.080408 0.146771
vn 0.248507 0.151844 0.956654
v 0.051248 -0.033907 0.152374
vn -0.417116 0.181149 0.890617
v -0.057409 0.072111 0.152068
vn 0.142532 0.985802 0.088767
v -0.033268 0.092061 0.136986
vn 0.269433 0.957791 0.100209
v -0.031311 0.091520 0.136986
vn -0.558121 0.828645 0.043000
v -0.043521 0.088062 0.140900
vn -0.566890 0.823748 -0.008649
v -0.037265 0.095890 0.011742
vn -0.040827 0.116796 -0.992316
v -0.037486 0.092623 0.005871
vn -0.940487 -0.287025 0.181933
v -0.062290 0.065959 0.147330
vn -0.833116 -0.552318 0.029389
v -0.059466 0.058837 0.121551
vn 0.626742 0.567922 -0.533535
v -0.023683 0.086139 0.005868
vn 0.012051 0.936004 -0.351784
v -0.032807 0.096574 0.008216
vn 0.156359 0.239191 0.958300
v -0.029833 0.083536 0.152310
vn -0.634589 -0.753882 0.170169
v 0.045383 -0.087935 0.145774
vn -0.131583 -0.305484 -0.943062
v 0.047234 -0.089955 0.005871
vn -0.399332 -0.689696 -0.604031
v 0.039796 -0.091976 0.009782
vn 0.462000 -0.885787 0.044020
v 0.056579 -0.089918 0.137190
vn 0.770501 0.552706 0.317561
v -0.021526 0.080665 0.146770
vn 0.737636 0.508733 0.443941
v 0.074364 -0.056751 0.147307
vn 0.593995 0.413951 0.689793
v 0.014245 0.025440 0.150684
vn -0.572546 -0.399894 0.715735
v 0.007120 -0.029354 0.150684
vn -0.772963 -0.535008 0.341021
v -0.056751 0.057758 0.146770
vn -0.790904 -0.539630 0.288565
v -0.061194 0.063129 0.144759
vn 0.200509 0.079942 0.976425
v 0.070450 -0.064579 0.152210
vn -0.112330 0.993651 -0.006353
v -0.035225 0.096699 0.011745
vn 0.416346 0.904816 0.089239
v -0.029354 0.090536 0.140900
vn 0.728461 0.683283 0.049678
v -0.026132 0.087920 0.139246
vn -0.517333 0.852241 0.077796
v -0.040761 0.089826 0.140900
vn -0.967604 -0.115947 -0.224276
v -0.066536 0.066536 0.006735
vn -0.217672 -0.197577 0.955815
v 0.048354 -0.083169 0.152546
vn -0.216618 -0.960316 0.175698
v 0.049162 -0.090904 0.141830
vn -0.765257 -0.639757 0.071357
v 0.043107 -0.086105 0.138943
vn 0.856870 0.430905 0.283010
v 0.077333 -0.059253 0.144386
vn 0.695342 0.488884 0.526775
v -0.013699 0.067911 0.148727
vn 0.559798 0.240849 0.792854
v 0.076085 -0.063674 0.150464
vn 0.536184 0.406782 0.739618
v -0.025440 0.081193 0.151158
vn -0.621687 -0.572139 0.534941
v 0.045912 -0.087466 0.148803
vn -0.527267 -0.359374 0.769961
v -0.054794 0.058708 0.150046
vn -0.065467 -0.058974 0.996110
v 0.047033 -0.080011 0.152620
vn -0.123285 -0.753011 0.646355
v 0.050443 -0.087446 0.151883
vn -0.295755 -0.140535 0.944870
v -0.054794 0.062622 0.151373
vn -0.434695 0.892402 0.121072
v -0.039207 0.090534 0.143575
vn 0.011587 0.992880 0.118556
v -0.035257 0.091952 0.138964
vn -0.541810 0.836838 0.078388
v -0.043053 0.088372 0.140900
vn -0.997873 0.025030 0.060193
v -0.062810 0.069471 0.136986
vn 0.026546 -0.012742 0.999566
v 0.066536 -0.066536 0.152355
vn -0.797535 -0.596594 0.089522
v 0.040617 -0.082720 0.140866
vn -0.866313 -0.497829 0.040842
v -0.060665 0.061772 0.141870
vn 0.938477 -0.102200 0.329872
v 0.078664 -0.068738 0.148005
vn 0.553273 0.759508 0.342106
v -0.028389 0.088964 0.148373
vn 0.740400 0.522797 0.422482
v -0.021526 0.080235 0.147385
vn -0.453008 -0.316280 0.833517
v 0.012642 -0.033555 0.152390
vn 0.668235 -0.588864 0.454644
v 0.075122 -0.074303 0.148683
vn -0.272094 -0.186867 0.943952
v 0.000978 -0.015656 0.152680
vn -0.516800 -0.359157 0.777125
v 0.007828 -0.029354 0.151171
vn 0.310999 0.211123 0.926664
v 0.017612 0.015689 0.152650
vn -0.700066 -0.337705 0.629177
v -0.060589 0.064734 0.148736
vn 0.077401 -0.028702 0.996587
v 0.069471 -0.065557 0.152273
vn -0.055902 -0.033118 0.997887
v -0.001048 -0.006742 0.153700
vn 0.048401 0.027179 0.998458
v 0.016606 0.007954 0.153437
vn 0.603483 -0.795759 0.050750
v 0.064601 -0.084130 0.141645
vn 0.737098 0.515745 0.436684
v -0.013699 0.068493 0.148041
vn 0.308920 -0.893213 0.326709
v 0.054980 -0.089730 0.147436
vn 0.547505 -0.082852 0.832690
v 0.075776 -0.070225 0.151076
vn -0.518274 -0.363439 0.774148
v 0.017612 -0.043053 0.151319
vn -0.151973 0.799349 0.581331
v -0.035449 0.091057 0.148881
vn -0.517369 -0.379097 0.767213
v 0.043053 -0.080362 0.150755
vn 0.566504 -0.815762 0.116643
v 0.059199 -0.087962 0.144316
# 127 vertices, 0 vertices normals

f 13//13 70//70 12//12
f 16//16 5//5 3//3
f 6//6 1//1 8//8
f 76//76 3//3 5//5
f 76//76 5//5 9//9
f 75//75 8//8 1//1
f 75//75 17//17 10//10
f 75//75 1//1 17//17
f 20//20 11//11 54//54
f 20//20 4//4 11//11
f 56//56 11//11 4//4
f 25//25 13//13 4//4
f 25//25 70//70 13//13
f 71//71 12//12 70//70
f 29//29 16//16 8//8
f 29//29 5//5 16//16
f 90//90 8//8 16//16
f 31//31 35//35 54//54
f 31//31 19//19 9//9
f 32//32 54//54 18//18
f 33//33 54//54 55//55
f 35//35 20//20 54//54
f 92//92 56//56 4//4
f 36//36 18//18 11//11
f 38//38 21//21 2//2
f 38//38 57//57 37//37
f 38//38 37//37 4//4
f 38//38 4//4 21//21
f 39//39 4//4 13//13
f 39//39 13//13 12//12
f 43//43 24//24 12//12
f 43//43 71//71 84//84
f 43//43 12//12 71//71
f 45//45 25//25 4//4
f 45//45 4//4 20//20
f 47//47 7//7 26//26
f 27//27 7//7 49//49
f 27//27 28//28 7//7
f 48//48 26//26 7//7
f 48//48 7//7 28//28
f 88//88 104//104 27//27
f 88//88 27//27 49//49
f 69//69 17//17 1//1
f 69//69 49//49 17//17
f 90//90 6//6 8//8
f 122//122 16//16 3//3
f 122//122 90//90 16//16
f 53//53 31//31 9//9
f 53//53 9//9 5//5
f 53//53 5//5 29//29
f 53//53 29//29 8//8
f 53//53 8//8 75//75
f 54//54 19//19 31//31
f 10//10 74//74 75//75
f 55//55 54//54 32//32
f 11//11 18//18 54//54
f 127//127 9//9 34//34
f 120//120 9//9 19//19
f 57//57 92//92 4//4
f 57//57 4//4 37//37
f 57//57 38//38 2//2
f 58//58 39//39 21//21
f 58//58 21//21 4//4
f 58//58 4//4 39//39
f 63//63 43//43 84//84
f 63//63 24//24 43//43
f 63//63 84//84 102//102
f 64//64 12//12 24//24
f 66//66 46//46 26//26
f 66//66 26//26 14//14
f 66//66 65//65 46//46
f 66//66 14//14 65//65
f 67//67 47//47 26//26
f 28//28 27//27 104//104
f 42//42 48//48 28//28
f 71//71 46//46 84//84
f 71//71 67//67 26//26
f 71//71 26//26 46//46
f 50//50 14//14 26//26
f 76//76 122//122 3//3
f 73//73 1//1 6//6
f 106//106 30//30 52//52
f 106//106 52//52 1//1
f 107//107 69//69 1//1
f 107//107 1//1 52//52
f 74//74 53//53 75//75
f 108//108 32//32 18//18
f 108//108 55//55 32//32
f 76//76 9//9 127//127
f 120//120 34//34 9//9
f 11//11 56//56 36//36
f 92//92 57//57 2//2
f 77//77 92//92 2//2
f 77//77 40//40 92//92
f 81//81 60//60 96//96
f 81//81 116//116 82//82
f 81//81 96//96 116//116
f 82//82 52//52 30//30
f 82//82 30//30 60//60
f 82//82 60//60 81//81
f 48//48 42//42 41//41
f 85//85 44//44 12//12
f 85//85 12//12 64//64
f 109//109 2//2 21//21
f 68//68 88//88 49//49
f 50//50 41//41 14//14
f 48//48 50//50 26//26
f 119//119 117//117 83//83
f 118//118 119//119 72//72
f 125//125 101//101 41//41
f 73//73 90//90 99//99
f 127//127 122//122 76//76
f 91//91 1//1 73//73
f 82//82 42//42 68//68
f 73//73 30//30 106//106
f 73//73 60//60 30//30
f 107//107 49//49 69//69
f 82//82 107//107 52//52
f 56//56 108//108 36//36
f 93//93 22//22 78//78
f 22//22 40//40 78//78
f 95//95 93//93 109//109
f 95//95 79//79 93//93
f 95//95 72//72 51//51
f 90//90 122//122 99//99
f 96//96 80//80 116//116
f 111//111 89//89 113//113
f 97//97 116//116 80//80
f 82//82 116//116 42//42
f 112//112 33//33 55//55
f 33//33 19//19 54//54
f 108//108 123//123 112//112
f 33//33 120//120 19//19
f 123//123 83//83 117//117
f 41//41 62//62 125//125
f 100//100 113//113 118//118
f 101//101 102//102 84//84
f 101//101 46//46 87//87
f 101//101 84//84 46//46
f 125//125 102//102 101//101
f 109//109 77//77 2//2
f 86//86 21//21 39//39
f 86//86 109//109 21//21
f 86//86 39//39 12//12
f 86//86 12//12 44//44
f 109//109 44//44 85//85
f 109//109 85//85 64//64
f 109//109 64//64 24//24
f 103//103 87//87 46//46
f 103//103 46//46 65//65
f 42//42 28//28 104//104
f 104//104 88//88 68//68
f 104//104 68//68 42//42
f 107//107 68//68 49//49
f 107//107 82//82 68//68
f 67//67 71//71 70//70
f 67//67 7//7 47//47
f 67//67 70//70 25//25
f 67//67 17//17 49//49
f 67//67 49//49 7//7
f 67//67 25//25 45//45
f 67//67 45//45 20//20
f 67//67 20//20 35//35
f 67//67 35//35 31//31
f 67//67 31//31 53//53
f 67//67 53//53 74//74
f 67//67 74//74 10//10
f 67//67 10//10 17//17
f 89//89 98//98 113//113
f 118//118 113//113 98//98
f 48//48 41//41 50//50
f 105//105 98//98 89//89
f 62//62 118//118 72//72
f 72//72 125//125 62//62
f 90//90 73//73 6//6
f 106//106 1//1 91//91
f 106//106 91//91 73//73
f 36//36 108//108 18//18
f 112//112 55//55 108//108
f 127//127 34//34 120//120
f 110//110 109//109 93//93
f 110//110 40//40 77//77
f 110//110 78//78 40//40
f 22//22 93//93 79//79
f 56//56 92//92 40//40
f 56//56 40//40 22//22
f 51//51 94//94 79//79
f 94//94 22//22 79//79
f 22//22 123//123 108//108
f 108//108 56//56 22//22
f 112//112 123//123 59//59
f 99//99 96//96 73//73
f 113//113 23//23 111//111
f 113//113 100//100 23//23
f 23//23 97//97 111//111
f 23//23 116//116 97//97
f 114//114 97//97 80//80
f 114//114 111//111 97//97
f 73//73 96//96 60//60
f 123//123 61//61 83//83
f 115//115 15//15 61//61
f 51//51 72//72 15//15
f 51//51 15//15 115//115
f 99//99 59//59 89//89
f 116//116 118//118 62//62
f 116//116 100//100 118//118
f 116//116 23//23 100//100
f 42//42 116//116 62//62
f 102//102 109//109 24//24
f 102//102 125//125 109//109
f 14//14 101//101 87//87
f 14//14 87//87 103//103
f 109//109 110//110 77//77
f 86//86 44//44 109//109
f 117//117 119//119 105//105
f 118//118 98//98 105//105
f 118//118 105//105 119//119
f 59//59 105//105 89//89
f 119//119 61//61 15//15
f 119//119 15//15 72//72
f 121//121 110//110 93//93
f 121//121 93//93 78//78
f 121//121 78//78 110//110
f 51//51 79//79 95//95
f 126//126 89//89 111//111
f 59//59 123//123 117//117
f 96//96 99//99 89//89
f 124//124 111//111 114//114
f 124//124 126//126 111//111
f 124//124 114//114 80//80
f 124//124 80//80 126//126
f 94//94 51//51 115//115
f 94//94 115//115 61//61
f 94//94 61//61 123//123
f 42//42 62//62 41//41
f 102//102 24//24 63//63
f 101//101 14//14 41//41
f 14//14 103//103 65//65
f 72//72 95//95 109//109
f 59//59 117//117 105//105
f 61//61 119//119 83//83
f 72//72 109//109 125//125
f 126//126 80//80 96//96
f 127//127 120//120 33//33
f 127//127 33//33 112//112
f 96//96 89//89 126//126
f 122//122 112//112 59//59
f 122//122 59//59 99//99
f 127//127 112//112 122//122
f 22//22 94//94 123//123
# 250 faces, 0 coords texture

# End of File
