####
#
# OBJ File Generated by Meshlab
#
####
# Object nature_valley_sweet_and_salty_nut_peanut_250_collision.obj
#
# Vertices: 127
# Faces: 250
#
####
vn 0.767633 0.640888 -0.001654
v -0.009666 -0.017419 0.081842
vn 0.674924 0.586112 -0.448276
v -0.009797 -0.011954 0.135893
vn 0.145084 0.989309 0.014782
v 0.043888 -0.074857 0.067883
vn 0.542994 0.477754 0.690586
v 0.003720 -0.024062 0.004611
vn 0.232649 0.246731 0.940743
v -0.004977 -0.006821 0.002221
vn 0.745456 0.664650 0.050362
v -0.024922 0.002979 0.022860
vn 0.733291 0.652174 0.192230
v 0.000255 -0.025841 0.012849
vn 0.769716 0.619707 -0.153297
v 0.002151 -0.028683 0.125816
vn 0.581223 0.452423 -0.676383
v 0.007673 -0.029651 0.139113
vn 0.214384 0.192727 -0.957547
v 0.006469 -0.013453 0.144257
vn 0.048714 -0.017023 0.998668
v -0.027824 0.029203 0.000627
vn 0.341688 0.274896 0.898711
v -0.031471 0.018056 0.001999
vn 0.900918 0.372981 0.221883
v -0.048998 0.029275 0.011862
vn 0.633614 0.164760 0.755902
v -0.045580 0.033945 0.003622
vn 0.830626 -0.346352 0.436005
v -0.047896 0.041886 0.007738
vn 0.969070 0.245329 0.026786
v -0.050742 0.032547 0.021143
vn 0.967349 -0.252900 -0.016636
v -0.050441 0.040097 0.035070
vn 0.339080 0.372704 0.863780
v -0.017739 0.003121 0.002328
vn 0.639254 0.597622 0.483944
v -0.017898 -0.004787 0.009375
vn 0.687310 0.586202 0.428919
v -0.036396 0.016955 0.006721
vn 0.068096 0.090210 0.993592
v -0.008170 0.005456 0.000815
vn -0.042035 -0.034886 0.998507
v -0.004696 0.016388 0.000530
vn -0.691543 -0.618551 0.373045
v -0.003333 0.044879 0.009072
vn -0.506844 -0.452403 0.733785
v 0.012819 0.021504 0.004975
vn 0.366169 -0.356545 0.859532
v -0.038821 0.044717 0.002203
vn 0.641527 -0.739584 0.203613
v -0.042373 0.050090 0.014417
vn 0.899186 -0.434246 0.053811
v -0.050687 0.041180 0.022711
vn -0.167155 -0.175825 0.970126
v -0.008772 0.035164 0.001366
vn -0.249861 -0.481858 0.839870
v -0.021365 0.055669 0.003511
vn 0.146022 -0.929555 0.338534
v -0.025138 0.061490 0.009643
vn -0.607056 -0.764219 0.217835
v -0.013006 0.058161 0.016647
vn 0.765893 0.642854 0.012098
v -0.035424 0.012638 0.043970
vn 0.998444 -0.053797 -0.014707
v -0.050486 0.036129 0.067306
vn -0.755850 -0.651823 0.061790
v 0.026880 0.012734 0.038195
vn 0.689445 -0.724317 0.005550
v -0.039295 0.052295 0.047076
vn 0.809988 -0.586418 0.005825
v -0.048660 0.043481 0.068037
vn 0.468114 -0.883648 0.006049
v -0.029174 0.059875 0.031715
vn -0.379879 -0.924555 0.029828
v -0.016281 0.061035 0.032351
vn -0.761744 -0.645997 0.049346
v -0.001229 0.043662 0.028134
vn -0.748653 -0.661520 0.043706
v 0.011725 0.032115 0.057977
vn -0.488249 -0.872469 0.020274
v -0.014623 0.061181 0.067761
vn 0.838147 0.545261 -0.014111
v -0.047785 0.027297 0.088059
vn 0.759607 0.650371 -0.003938
v -0.024063 -0.000163 0.067392
vn 0.959917 0.279961 -0.013442
v -0.049590 0.029571 0.067178
vn 0.845102 -0.534598 -0.002691
v -0.048386 0.043313 0.109149
vn 0.847358 0.489857 -0.204997
v -0.048498 0.030308 0.132641
vn 0.998142 -0.036815 -0.048561
v -0.050218 0.037032 0.119960
vn -0.761639 -0.647799 0.016212
v 0.027150 0.014735 0.084571
vn 0.763380 0.644159 -0.048063
v -0.015632 -0.009497 0.106474
vn 0.938471 -0.344974 -0.016302
v -0.049613 0.042592 0.088501
vn 0.840286 -0.532285 -0.102920
v -0.047257 0.045978 0.125652
vn 0.335833 -0.941582 0.025279
v -0.028329 0.061808 0.058220
vn 0.580335 -0.814359 0.005577
v -0.030449 0.060529 0.098405
vn -0.194900 -0.980664 0.017693
v -0.020217 0.063791 0.095671
vn -0.714686 -0.699100 0.021973
v -0.002346 0.048789 0.081095
vn -0.767251 -0.640846 -0.025350
v 0.006786 0.039087 0.109720
vn 0.460731 0.440805 -0.770336
v -0.025879 0.010723 0.140731
vn 0.843721 0.072446 -0.531871
v -0.047986 0.035040 0.139501
vn 0.066267 0.113025 -0.991380
v -0.006626 0.008649 0.144474
vn -0.050767 -0.028110 -0.998315
v 0.009368 0.003052 0.144524
vn 0.123890 0.036709 -0.991617
v -0.024712 0.023721 0.146806
vn -0.277815 -0.216678 -0.935879
v 0.004486 0.024323 0.143996
vn -0.662943 -0.591686 -0.458710
v -0.003712 0.049379 0.135062
vn 0.589301 -0.431614 -0.682960
v -0.045682 0.042118 0.139510
vn -0.338810 -0.744939 -0.574694
v -0.017563 0.062633 0.135426
vn -0.580815 -0.813938 -0.012587
v -0.010675 0.059807 0.120001
vn 0.108539 -0.429250 -0.896640
v -0.028128 0.052416 0.142651
vn 0.268243 -0.929608 -0.252733
v -0.023858 0.063882 0.133203
vn -0.289380 -0.338734 -0.895276
v -0.009787 0.045552 0.141225
vn 0.158010 0.131905 0.978588
v 0.034678 -0.046032 0.001337
vn 0.478072 0.838367 0.261892
v 0.037444 -0.070656 0.011884
vn -0.021207 0.498896 0.866402
v 0.046519 -0.068653 0.002878
vn 0.760834 0.627867 0.164057
v 0.018294 -0.047051 0.015236
vn -0.357181 0.907250 0.222080
v 0.053080 -0.072506 0.011431
vn 0.043005 0.997750 0.051433
v 0.046917 -0.074232 0.022657
vn -0.820032 0.454293 0.348088
v 0.070232 -0.054734 0.008777
vn -0.802622 0.596136 0.020473
v 0.071322 -0.056154 0.050875
vn 0.527754 0.437995 0.727761
v 0.024494 -0.051745 0.005746
vn 0.125361 0.103110 0.986739
v 0.016015 -0.018559 0.001173
vn -0.033529 -0.030915 0.998959
v 0.023254 -0.008451 0.001082
vn -0.266105 -0.247297 0.931683
v 0.029746 -0.003088 0.002414
vn -0.654614 -0.579187 0.485822
v 0.048326 -0.017342 0.005315
vn 0.760212 0.648653 0.036439
v 0.000395 -0.028367 0.043588
vn -0.732807 -0.661070 0.161184
v 0.043439 -0.008449 0.013979
vn -0.047680 -0.000941 0.998862
v 0.048997 -0.037146 0.000524
vn -0.426737 0.131383 0.894781
v 0.067287 -0.050177 0.002796
vn -0.395500 -0.315906 0.862429
v 0.056309 -0.030968 0.002162
vn -0.820662 -0.200883 0.534940
v 0.072113 -0.044325 0.006780
vn -0.993324 0.111976 0.027739
v 0.074324 -0.048445 0.046127
vn -0.962427 -0.252788 0.099163
v 0.073259 -0.044385 0.011503
vn -0.753488 -0.611030 0.242689
v 0.067666 -0.036404 0.010371
vn 0.625978 0.779455 0.024518
v 0.036509 -0.070949 0.042980
vn 0.760865 0.648833 0.009995
v 0.014670 -0.046370 0.066513
vn -0.431319 0.902198 0.001722
v 0.053135 -0.072097 0.030943
vn -0.791325 -0.610773 0.027578
v 0.066853 -0.033142 0.042999
vn -0.752826 -0.656605 0.046082
v 0.046923 -0.010732 0.033563
vn -0.433748 0.900887 0.016300
v 0.052469 -0.073673 0.074725
vn 0.664876 0.746948 -0.002836
v 0.034444 -0.069075 0.077841
vn 0.359962 0.932966 0.001590
v 0.041688 -0.075096 0.104821
vn -0.642360 0.743069 -0.187674
v 0.057695 -0.070063 0.130030
vn -0.794010 0.607796 0.011541
v 0.071659 -0.057022 0.087186
vn -0.891353 0.448781 -0.063920
v 0.072388 -0.055999 0.128902
vn 0.757809 0.651969 -0.025724
v 0.020363 -0.052648 0.105625
vn -0.764304 -0.644527 -0.020603
v 0.056086 -0.018756 0.106790
vn -0.901548 -0.432573 0.009569
v 0.072530 -0.040052 0.077836
vn -0.997025 0.077081 0.000117
v 0.075066 -0.048668 0.091691
vn -0.228061 0.921939 -0.313076
v 0.049865 -0.075328 0.133428
vn 0.565186 0.757216 -0.327398
v 0.038274 -0.072992 0.134132
vn 0.479255 0.363780 -0.798736
v 0.023586 -0.046899 0.140624
vn 0.180086 0.496851 -0.848945
v 0.043075 -0.068415 0.142817
vn -0.381192 0.337481 -0.860697
v 0.059716 -0.058195 0.144816
vn 0.744759 0.581247 -0.327849
v 0.017146 -0.046386 0.134349
vn 0.207253 0.164386 -0.964377
v 0.023107 -0.035994 0.142959
vn 0.138191 0.077621 -0.987359
v 0.037065 -0.054687 0.143280
vn -0.087611 -0.076865 -0.993185
v 0.036906 -0.019129 0.143931
vn -0.481292 -0.417813 -0.770578
v 0.039228 -0.008388 0.139907
vn -0.865733 -0.486597 -0.117173
v 0.072368 -0.039427 0.131114
vn -0.856234 -0.127190 -0.500686
v 0.073714 -0.045890 0.136675
vn -0.768077 0.467429 -0.437683
v 0.072075 -0.054199 0.136844
vn -0.290975 -0.203697 -0.934795
v 0.058112 -0.040376 0.144566
vn -0.735217 -0.621080 -0.271506
v 0.042605 -0.004920 0.132935
vn -0.676606 -0.564763 -0.472491
v 0.060105 -0.027249 0.135986
vn -0.740627 -0.629164 0.235848
v 0.015789 0.021888 0.009542
vn -0.747634 -0.655479 0.106726
v 0.020906 0.016389 0.014192
vn -0.760532 -0.648449 -0.033240
v 0.026386 0.015486 0.110460
vn -0.316234 -0.240758 -0.917623
v 0.013067 0.013412 0.143295
vn -0.678190 -0.561399 -0.474225
v 0.020265 0.020470 0.135577
# 127 vertices, 0 vertices normals

f 19//19 4//4 5//5
f 79//79 5//5 4//4
f 83//83 73//73 7//7
f 19//19 7//7 4//4
f 7//7 19//19 6//6
f 7//7 6//6 83//83
f 1//1 83//83 43//43
f 93//93 83//83 1//1
f 1//1 103//103 93//93
f 103//103 1//1 49//49
f 8//8 103//103 49//49
f 9//9 112//112 8//8
f 9//9 8//8 2//2
f 9//9 10//10 113//113
f 2//2 10//10 9//9
f 57//57 10//10 2//2
f 12//12 14//14 20//20
f 12//12 25//25 14//14
f 32//32 6//6 13//13
f 13//13 20//20 14//14
f 13//13 14//14 15//15
f 16//16 13//13 27//27
f 27//27 13//13 15//15
f 32//32 13//13 16//16
f 16//16 27//27 17//17
f 18//18 19//19 5//5
f 19//19 18//18 12//12
f 19//19 12//12 20//20
f 12//12 18//18 21//21
f 11//11 12//12 21//21
f 11//11 21//21 22//22
f 18//18 5//5 21//21
f 21//21 5//5 80//80
f 21//21 80//80 22//22
f 28//28 22//22 81//81
f 11//11 22//22 28//28
f 25//25 12//12 11//11
f 19//19 20//20 6//6
f 6//6 20//20 13//13
f 123//123 23//23 24//24
f 39//39 23//23 123//123
f 39//39 123//123 124//124
f 39//39 124//124 34//34
f 25//25 15//15 14//14
f 27//27 15//15 26//26
f 25//25 26//26 15//15
f 27//27 26//26 37//37
f 29//29 25//25 11//11
f 11//11 28//28 29//29
f 24//24 23//23 29//29
f 30//30 25//25 29//29
f 23//23 31//31 29//29
f 30//30 29//29 31//31
f 29//29 28//28 24//24
f 30//30 26//26 25//25
f 26//26 30//30 37//37
f 30//30 31//31 38//38
f 38//38 37//37 30//30
f 31//31 23//23 39//39
f 38//38 31//31 39//39
f 44//44 32//32 16//16
f 44//44 16//16 17//17
f 43//43 32//32 42//42
f 42//42 32//32 44//44
f 44//44 17//17 33//33
f 33//33 17//17 36//36
f 43//43 83//83 32//32
f 83//83 6//6 32//32
f 17//17 27//27 35//35
f 35//35 27//27 37//37
f 17//17 35//35 36//36
f 36//36 35//35 52//52
f 50//50 36//36 53//53
f 36//36 52//52 53//53
f 52//52 35//35 37//37
f 52//52 37//37 38//38
f 38//38 39//39 40//40
f 39//39 34//34 40//40
f 41//41 38//38 40//40
f 41//41 52//52 38//38
f 52//52 41//41 54//54
f 41//41 40//40 55//55
f 33//33 36//36 50//50
f 50//50 44//44 33//33
f 49//49 43//43 42//42
f 47//47 42//42 44//44
f 50//50 47//47 44//44
f 47//47 50//50 45//45
f 46//46 49//49 42//42
f 46//46 42//42 47//47
f 1//1 43//43 49//49
f 55//55 48//48 56//56
f 45//45 50//50 53//53
f 51//51 45//45 53//53
f 53//53 52//52 54//54
f 55//55 54//54 41//41
f 54//54 55//55 66//66
f 68//68 54//54 66//66
f 56//56 66//66 55//55
f 66//66 56//56 63//63
f 54//54 68//68 53//53
f 46//46 47//47 58//58
f 46//46 58//58 57//57
f 57//57 58//58 61//61
f 61//61 58//58 64//64
f 67//67 61//61 64//64
f 2//2 8//8 49//49
f 2//2 49//49 46//46
f 2//2 46//46 57//57
f 59//59 57//57 61//61
f 10//10 57//57 59//59
f 59//59 60//60 10//10
f 62//62 59//59 61//61
f 62//62 60//60 59//59
f 62//62 126//126 60//60
f 126//126 62//62 127//127
f 69//69 62//62 61//61
f 62//62 69//69 63//63
f 47//47 45//45 51//51
f 47//47 51//51 58//58
f 64//64 58//58 51//51
f 68//68 64//64 51//51
f 64//64 68//68 67//67
f 51//51 53//53 68//68
f 66//66 65//65 68//68
f 63//63 65//65 66//66
f 69//69 61//61 67//67
f 65//65 63//63 69//69
f 65//65 67//67 68//68
f 69//69 67//67 65//65
f 72//72 78//78 71//71
f 78//78 72//72 70//70
f 72//72 74//74 76//76
f 72//72 76//76 86//86
f 70//70 72//72 85//85
f 85//85 72//72 86//86
f 73//73 71//71 78//78
f 92//92 73//73 83//83
f 71//71 73//73 92//92
f 74//74 72//72 71//71
f 74//74 71//71 75//75
f 94//94 74//74 75//75
f 75//75 71//71 92//92
f 92//92 3//3 75//75
f 88//88 86//86 76//76
f 74//74 77//77 76//76
f 89//89 90//90 76//76
f 89//89 76//76 77//77
f 77//77 74//74 94//94
f 4//4 78//78 79//79
f 78//78 70//70 79//79
f 79//79 70//70 85//85
f 79//79 85//85 80//80
f 5//5 79//79 80//80
f 80//80 85//85 87//87
f 87//87 81//81 80//80
f 82//82 81//81 87//87
f 78//78 4//4 73//73
f 7//7 73//73 4//4
f 91//91 84//84 82//82
f 96//96 84//84 91//91
f 86//86 87//87 85//85
f 87//87 86//86 88//88
f 91//91 87//87 88//88
f 91//91 82//82 87//87
f 90//90 88//88 76//76
f 91//91 88//88 90//90
f 90//90 95//95 91//91
f 95//95 96//96 91//91
f 92//92 83//83 93//93
f 94//94 75//75 3//3
f 92//92 93//93 98//98
f 3//3 97//97 94//94
f 3//3 92//92 98//98
f 77//77 94//94 97//97
f 101//101 77//77 97//97
f 106//106 77//77 101//101
f 89//89 77//77 106//106
f 95//95 104//104 96//96
f 48//48 96//96 104//104
f 105//105 90//90 89//89
f 105//105 95//95 90//90
f 105//105 89//89 106//106
f 104//104 95//95 105//105
f 97//97 3//3 99//99
f 98//98 93//93 103//103
f 99//99 98//98 103//103
f 99//99 3//3 98//98
f 107//107 97//97 99//99
f 107//107 99//99 108//108
f 108//108 99//99 103//103
f 107//107 100//100 97//97
f 101//101 97//97 100//100
f 106//106 101//101 102//102
f 102//102 101//101 100//100
f 103//103 8//8 112//112
f 117//117 104//104 105//105
f 117//117 105//105 106//106
f 108//108 103//103 112//112
f 109//109 110//110 108//108
f 112//112 109//109 108//108
f 108//108 110//110 107//107
f 100//100 107//107 111//111
f 110//110 111//111 107//107
f 114//114 110//110 109//109
f 114//114 111//111 110//110
f 120//120 111//111 114//114
f 118//118 106//106 102//102
f 118//118 102//102 119//119
f 111//111 119//119 100//100
f 102//102 100//100 119//119
f 109//109 112//112 9//9
f 113//113 114//114 109//109
f 114//114 113//113 115//115
f 9//9 113//113 109//109
f 120//120 114//114 115//115
f 115//115 113//113 10//10
f 60//60 115//115 10//10
f 126//126 116//116 115//115
f 116//116 122//122 120//120
f 120//120 115//115 116//116
f 116//116 121//121 122//122
f 117//117 106//106 118//118
f 104//104 122//122 121//121
f 122//122 104//104 117//117
f 119//119 111//111 118//118
f 111//111 120//120 118//118
f 122//122 117//117 118//118
f 118//118 120//120 122//122
f 22//22 80//80 81//81
f 24//24 81//81 82//82
f 24//24 82//82 123//123
f 28//28 81//81 24//24
f 123//123 82//82 124//124
f 124//124 82//82 84//84
f 84//84 96//96 124//124
f 124//124 96//96 34//34
f 34//34 48//48 40//40
f 34//34 96//96 48//48
f 125//125 48//48 104//104
f 55//55 40//40 48//48
f 121//121 127//127 125//125
f 125//125 104//104 121//121
f 56//56 48//48 125//125
f 127//127 56//56 125//125
f 60//60 126//126 115//115
f 127//127 121//121 116//116
f 116//116 126//126 127//127
f 63//63 56//56 127//127
f 127//127 62//62 63//63
# 250 faces, 0 coords texture

# End of File
