####
#
# OBJ File Generated by Meshlab
#
####
# Object quaker_chewy_peanut_butter_chocolate_chip_250_collision.obj
#
# Vertices: 127
# Faces: 250
#
####
vn 0.331231 0.943472 -0.012072
v 0.047662 -0.063826 0.095998
vn -0.053989 -0.049446 0.997317
v 0.014063 0.006648 0.000550
vn -0.680095 -0.692356 -0.241069
v 0.010680 0.034267 0.158085
vn 0.411635 0.454396 0.789988
v 0.005218 -0.019045 0.003408
vn 0.333288 0.353009 0.874244
v -0.004857 -0.007991 0.003067
vn 0.625759 0.670710 0.398213
v -0.005500 -0.012585 0.008032
vn 0.684524 0.726728 0.057381
v -0.001863 -0.017561 0.019306
vn 0.693265 0.720665 0.005102
v -0.021819 -0.000102 0.048710
vn 0.710647 0.703300 -0.018690
v -0.027940 0.006366 0.072465
vn 0.696592 0.717280 -0.016384
v -0.002295 -0.018647 0.096150
vn 0.688315 0.725323 0.011353
v 0.005695 -0.026673 0.061881
vn 0.697260 0.715464 -0.044043
v -0.014482 -0.005340 0.136166
vn 0.623906 0.636821 -0.452991
v 0.002468 -0.018080 0.163105
vn 0.616085 0.643783 -0.453854
v -0.014140 -0.003245 0.161859
vn 0.693591 0.561087 0.451788
v -0.045557 0.022631 0.007998
vn 0.550731 -0.050843 0.833133
v -0.045404 0.035651 0.003165
vn 0.747352 0.664318 -0.012064
v -0.043039 0.020503 0.026857
vn 0.944740 0.242735 0.220331
v -0.050668 0.029778 0.010440
vn 0.846028 -0.492795 0.203442
v -0.048960 0.040888 0.013369
vn 0.999937 -0.000437 0.011237
v -0.051511 0.033708 0.019715
vn 0.652547 0.727875 0.210667
v -0.028868 0.007475 0.010333
vn 0.382113 0.384097 0.840511
v -0.031529 0.016340 0.002506
vn 0.022208 -0.072234 0.997140
v -0.023414 0.030975 0.000224
vn 0.059458 0.065123 0.996104
v -0.008300 0.011660 0.000136
vn -0.146114 -0.167338 0.975012
v -0.001007 0.021656 0.000449
vn -0.560294 -0.603787 0.567020
v 0.020743 0.017385 0.006289
vn -0.344228 -0.398972 0.849899
v -0.000719 0.032106 0.002739
vn -0.644526 -0.698581 0.310759
v 0.013033 0.026091 0.009880
vn -0.677114 -0.733701 0.056564
v 0.005702 0.034377 0.031046
vn 0.298861 -0.606266 0.736969
v -0.033586 0.050577 0.003494
vn -0.258056 -0.542691 0.799308
v -0.021171 0.052125 0.003822
vn 0.451463 -0.868510 0.204627
v -0.031381 0.057685 0.014026
vn -0.307775 -0.912233 0.270382
v -0.019591 0.057342 0.012180
vn 0.763047 -0.646023 0.020321
v -0.045159 0.044736 0.029011
vn 0.904140 0.426316 -0.028029
v -0.049794 0.029504 0.029419
vn 0.893092 0.449177 -0.025044
v -0.048165 0.027904 0.079217
vn 0.993621 -0.110805 -0.020959
v -0.050676 0.034851 0.036562
vn 0.909849 -0.414483 0.019438
v -0.049981 0.039969 0.056583
vn 0.753761 0.656932 -0.016856
v -0.045446 0.023614 0.059113
vn 0.705923 -0.707159 0.039982
v -0.041506 0.050810 0.063851
vn -0.672894 -0.738634 0.040403
v 0.004946 0.039356 0.079025
vn 0.283148 -0.958120 0.042820
v -0.029919 0.059408 0.057362
vn -0.445747 -0.893761 0.050005
v -0.017720 0.057936 0.061053
vn 0.463291 -0.885717 0.029436
v -0.034222 0.058113 0.079156
vn -0.522430 -0.851970 0.034858
v -0.015916 0.058397 0.090776
vn 0.999769 0.012939 -0.017174
v -0.049949 0.036126 0.087244
vn 0.842904 -0.538012 0.007428
v -0.047892 0.044132 0.091602
vn 0.627378 -0.778706 0.003750
v -0.036800 0.056701 0.095994
vn 0.805574 0.592214 -0.018250
v -0.045696 0.026348 0.133239
vn 0.975294 0.220570 -0.012287
v -0.049310 0.033191 0.134989
vn 0.886970 -0.461466 -0.018264
v -0.047593 0.044367 0.137475
vn -0.680166 -0.732791 0.019784
v 0.002999 0.041697 0.103979
vn 0.827420 0.561266 -0.018919
v -0.046860 0.026760 0.107266
vn -0.687647 -0.726044 0.001361
v 0.022900 0.023478 0.127585
vn -0.617317 -0.786105 0.030966
v -0.012760 0.056987 0.123519
vn 0.613564 -0.788635 -0.039924
v -0.034030 0.057965 0.133442
vn 0.265385 -0.964119 0.006750
v -0.027770 0.061136 0.113144
vn -0.162335 -0.985988 0.038403
v -0.022437 0.061676 0.103571
vn -0.075475 -0.996209 0.043258
v -0.023588 0.060371 0.079191
vn 0.822978 0.537682 -0.183315
v -0.045275 0.026205 0.159172
vn 0.892802 -0.330076 -0.306519
v -0.049631 0.039329 0.158971
vn 0.248435 -0.414706 -0.875385
v -0.031329 0.047811 0.168587
vn 0.547779 0.198413 -0.812755
v -0.043808 0.032366 0.167651
vn -0.429432 -0.903088 0.004474
v -0.016731 0.060881 0.133419
vn -0.323757 -0.764704 -0.557144
v -0.015631 0.059709 0.162201
vn 0.303830 0.303582 -0.903064
v -0.006150 0.001023 0.169837
vn -0.036983 -0.023326 -0.999044
v 0.006292 0.006989 0.171280
vn -0.300861 -0.364275 -0.881355
v -0.007576 0.040560 0.169966
vn 0.059830 -0.025599 -0.997880
v -0.018867 0.030757 0.172344
vn 0.322629 -0.907232 -0.269888
v -0.027468 0.061955 0.157930
vn 0.451942 0.835196 0.313362
v 0.044545 -0.061157 0.012330
vn -0.237510 0.856716 0.457850
v 0.058466 -0.062450 0.008323
vn -0.304776 0.952283 0.016378
v 0.056878 -0.063564 0.026885
vn 0.415525 0.494179 0.763627
v 0.034135 -0.044641 0.003646
vn 0.663987 0.709208 0.236950
v 0.016630 -0.035494 0.014685
vn 0.140927 0.385510 0.911878
v 0.049888 -0.052745 0.002364
vn -0.070257 0.048549 0.996347
v 0.051510 -0.036878 0.000939
vn -0.574121 0.123899 0.809342
v 0.072956 -0.040427 0.003194
vn 0.092780 0.104987 0.990136
v 0.012867 -0.009501 0.000380
vn 0.024158 0.049262 0.998494
v 0.036201 -0.025615 -0.000011
vn -0.308337 -0.273240 0.911190
v 0.061249 -0.025860 0.002049
vn -0.682952 -0.726327 0.077629
v 0.043842 -0.000868 0.030136
vn -0.634640 -0.704025 0.318716
v 0.059102 -0.017008 0.007667
vn -0.369663 0.446596 0.814802
v 0.061519 -0.056087 0.003594
vn -0.979673 -0.082518 0.182843
v 0.078029 -0.037470 0.010079
vn -0.722278 -0.509095 0.468121
v 0.074246 -0.029550 0.008171
vn -0.800345 0.573848 0.173628
v 0.076480 -0.044900 0.017522
vn -0.934606 0.355238 0.017822
v 0.077120 -0.043559 0.038627
vn -0.764489 -0.644503 0.013175
v 0.072878 -0.028449 0.026165
vn 0.060534 0.998151 0.005544
v 0.051337 -0.064330 0.053566
vn 0.602259 0.798280 -0.005769
v 0.039156 -0.057788 0.072742
vn -0.411209 0.911535 0.003429
v 0.057636 -0.063068 0.085970
vn -0.572068 0.820172 0.007508
v 0.060645 -0.060756 0.058595
vn 0.446367 0.894681 0.017381
v 0.043999 -0.061714 0.041854
vn -0.703209 -0.710217 0.033011
v 0.065122 -0.019404 0.055962
vn -0.869250 0.494367 0.002463
v 0.077739 -0.044699 0.075757
vn -0.907364 -0.419575 0.025454
v 0.076664 -0.031527 0.061249
vn -0.992199 -0.121369 0.028488
v 0.078606 -0.036799 0.073407
vn 0.636952 0.770699 -0.017763
v 0.033944 -0.052912 0.107116
vn 0.191934 0.981394 -0.005210
v 0.050565 -0.064140 0.114686
vn 0.033289 0.997641 -0.060033
v 0.053190 -0.064054 0.152375
vn 0.534107 0.845405 -0.004537
v 0.042895 -0.060312 0.136196
vn -0.697618 -0.716365 0.012224
v 0.040309 0.006624 0.108858
vn 0.696497 0.716124 -0.045368
v 0.015945 -0.034491 0.137866
vn -0.997963 0.063414 0.006990
v 0.079353 -0.038449 0.107540
vn -0.804437 0.594037 -0.000726
v 0.076752 -0.044958 0.099143
vn -0.701950 -0.712097 0.013544
v 0.061645 -0.015122 0.094176
vn -0.857013 -0.514963 0.018467
v 0.076447 -0.030020 0.092270
vn -0.521274 0.853389 0.000012
v 0.059525 -0.062480 0.130145
vn -0.930927 -0.364454 -0.023426
v 0.079030 -0.031314 0.152858
vn -0.376053 0.877136 -0.298690
v 0.060328 -0.061346 0.162004
vn 0.390029 0.828375 -0.402085
v 0.045217 -0.061555 0.162017
vn 0.607252 0.601878 -0.518640
v 0.028444 -0.045139 0.163176
vn -0.299040 0.462716 -0.834547
v 0.058972 -0.055707 0.170140
vn -0.683089 -0.687455 -0.246568
v 0.062934 -0.016262 0.156424
vn -0.305681 -0.274861 -0.911598
v 0.044354 -0.010892 0.168399
vn 0.193975 0.233522 -0.952807
v 0.032418 -0.036356 0.171077
vn 0.230901 0.224024 -0.946836
v 0.016291 -0.016874 0.171846
vn -0.242336 -0.008094 -0.970159
v 0.062058 -0.045808 0.170721
vn -0.922174 0.386501 0.014584
v 0.078309 -0.043632 0.137393
vn -0.745342 -0.210055 -0.632727
v 0.078952 -0.034082 0.161903
vn -0.881017 0.419653 -0.218404
v 0.079421 -0.042588 0.157540
vn -0.339670 -0.372562 0.863610
v 0.036011 -0.001644 0.002285
vn -0.630740 -0.690629 0.353834
v 0.042928 -0.002377 0.007819
vn -0.688134 -0.724193 0.044894
v 0.026517 0.018062 0.059458
vn -0.694191 -0.715716 -0.076485
v 0.037161 0.009576 0.151576
vn -0.626168 -0.608504 -0.487481
v 0.047045 -0.002430 0.161051
# 127 vertices, 0 vertices normals

f 75//75 4//4 6//6
f 24//24 5//5 79//79
f 4//4 5//5 6//6
f 7//7 11//11 75//75
f 75//75 6//6 7//7
f 11//11 7//7 8//8
f 9//9 11//11 8//8
f 11//11 9//9 10//10
f 104//104 10//10 12//12
f 13//13 104//104 12//12
f 13//13 12//12 14//14
f 14//14 66//66 13//13
f 66//66 118//118 13//13
f 66//66 67//67 118//118
f 22//22 16//16 15//15
f 15//15 16//16 18//18
f 16//16 19//19 18//18
f 30//30 19//19 16//16
f 17//17 21//21 15//15
f 18//18 17//17 15//15
f 18//18 19//19 20//20
f 17//17 18//18 35//35
f 18//18 20//20 35//35
f 35//35 39//39 17//17
f 35//35 20//20 37//37
f 20//20 19//19 37//37
f 34//34 37//37 19//19
f 6//6 22//22 21//21
f 5//5 22//22 6//6
f 23//23 16//16 22//22
f 22//22 15//15 21//21
f 23//23 22//22 24//24
f 22//22 5//5 24//24
f 2//2 24//24 79//79
f 25//25 23//23 24//24
f 2//2 25//25 24//24
f 23//23 25//25 27//27
f 30//30 16//16 23//23
f 30//30 23//23 31//31
f 23//23 27//27 31//31
f 31//31 27//27 28//28
f 26//26 27//27 25//25
f 28//28 27//27 26//26
f 7//7 6//6 21//21
f 8//8 7//7 21//21
f 32//32 19//19 30//30
f 30//30 31//31 33//33
f 32//32 30//30 33//33
f 33//33 31//31 28//28
f 32//32 34//34 19//19
f 33//33 28//28 29//29
f 34//34 32//32 42//42
f 32//32 33//33 42//42
f 8//8 21//21 17//17
f 39//39 8//8 17//17
f 37//37 34//34 38//38
f 37//37 38//38 46//46
f 37//37 36//36 35//35
f 38//38 34//34 40//40
f 47//47 46//46 38//38
f 9//9 39//39 36//36
f 39//39 35//35 36//36
f 36//36 37//37 46//46
f 53//53 36//36 46//46
f 47//47 38//38 40//40
f 39//39 9//9 8//8
f 29//29 41//41 43//43
f 41//41 29//29 125//125
f 45//45 41//41 52//52
f 47//47 40//40 44//44
f 43//43 33//33 29//29
f 42//42 33//33 43//43
f 42//42 40//40 34//34
f 43//43 59//59 42//42
f 42//42 44//44 40//40
f 44//44 42//42 59//59
f 59//59 43//43 45//45
f 43//43 41//41 45//45
f 9//9 36//36 53//53
f 46//46 47//47 51//51
f 49//49 53//53 50//50
f 46//46 50//50 53//53
f 51//51 47//47 48//48
f 51//51 48//48 56//56
f 46//46 51//51 50//50
f 10//10 9//9 53//53
f 12//12 10//10 53//53
f 41//41 103//103 52//52
f 55//55 52//52 54//54
f 12//12 53//53 49//49
f 60//60 12//12 49//49
f 64//64 55//55 54//54
f 47//47 44//44 48//48
f 48//48 44//44 57//57
f 58//58 57//57 44//44
f 44//44 59//59 58//58
f 45//45 58//58 59//59
f 58//58 45//45 55//55
f 52//52 55//55 45//45
f 57//57 56//56 48//48
f 57//57 58//58 64//64
f 55//55 64//64 58//58
f 56//56 57//57 70//70
f 64//64 70//70 57//57
f 70//70 64//64 65//65
f 50//50 60//60 49//49
f 60//60 50//50 61//61
f 61//61 50//50 51//51
f 61//61 51//51 56//56
f 61//61 56//56 70//70
f 63//63 60//60 61//61
f 63//63 61//61 62//62
f 70//70 62//62 61//61
f 12//12 60//60 14//14
f 14//14 63//63 66//66
f 60//60 63//63 14//14
f 63//63 62//62 69//69
f 3//3 64//64 54//54
f 65//65 64//64 3//3
f 65//65 3//3 68//68
f 63//63 69//69 66//66
f 67//67 66//66 69//69
f 69//69 68//68 67//67
f 69//69 62//62 68//68
f 65//65 62//62 70//70
f 68//68 62//62 65//65
f 71//71 76//76 74//74
f 72//72 76//76 71//71
f 76//76 72//72 84//84
f 73//73 72//72 71//71
f 72//72 73//73 87//87
f 73//73 71//71 94//94
f 73//73 94//94 90//90
f 4//4 74//74 80//80
f 71//71 74//74 75//75
f 75//75 74//74 4//4
f 76//76 84//84 77//77
f 77//77 84//84 78//78
f 80//80 74//74 76//76
f 80//80 76//76 77//77
f 81//81 77//77 78//78
f 5//5 4//4 79//79
f 4//4 80//80 79//79
f 79//79 80//80 2//2
f 2//2 80//80 123//123
f 81//81 80//80 77//77
f 123//123 80//80 81//81
f 83//83 123//123 81//81
f 124//124 123//123 83//83
f 71//71 11//11 94//94
f 11//11 71//71 75//75
f 89//89 83//83 86//86
f 89//89 95//95 83//83
f 82//82 124//124 83//83
f 82//82 83//83 95//95
f 86//86 78//78 85//85
f 86//86 83//83 81//81
f 86//86 81//81 78//78
f 87//87 84//84 72//72
f 87//87 78//78 84//84
f 87//87 85//85 78//78
f 88//88 87//87 73//73
f 87//87 88//88 85//85
f 89//89 86//86 85//85
f 88//88 97//97 85//85
f 89//89 85//85 97//97
f 90//90 93//93 73//73
f 90//90 94//94 91//91
f 73//73 93//93 88//88
f 99//99 1//1 91//91
f 1//1 92//92 90//90
f 92//92 93//93 90//90
f 1//1 90//90 91//91
f 92//92 96//96 93//93
f 92//92 106//106 96//96
f 91//91 94//94 11//11
f 10//10 91//91 11//11
f 107//107 95//95 108//108
f 97//97 88//88 98//98
f 97//97 95//95 89//89
f 96//96 88//88 93//93
f 98//98 88//88 96//96
f 105//105 96//96 106//106
f 98//98 96//96 105//105
f 108//108 97//97 98//98
f 95//95 97//97 108//108
f 109//109 106//106 92//92
f 92//92 1//1 100//100
f 99//99 100//100 1//1
f 109//109 92//92 100//100
f 109//109 100//100 101//101
f 102//102 100//100 99//99
f 101//101 100//100 102//102
f 101//101 102//102 112//112
f 91//91 10//10 99//99
f 104//104 99//99 10//10
f 104//104 102//102 99//99
f 104//104 112//112 102//102
f 103//103 107//107 115//115
f 108//108 98//98 105//105
f 120//120 106//106 109//109
f 105//105 106//106 120//120
f 110//110 108//108 105//105
f 110//110 107//107 108//108
f 105//105 120//120 110//110
f 110//110 115//115 107//107
f 109//109 101//101 111//111
f 122//122 109//109 111//111
f 114//114 111//111 112//112
f 111//111 101//101 112//112
f 112//112 104//104 113//113
f 113//113 104//104 13//13
f 68//68 127//127 116//116
f 113//113 117//117 112//112
f 114//114 112//112 117//117
f 117//117 119//119 114//114
f 113//113 13//13 118//118
f 113//113 118//118 117//117
f 117//117 118//118 116//116
f 117//117 116//116 119//119
f 120//120 109//109 122//122
f 120//120 122//122 110//110
f 121//121 110//110 122//122
f 111//111 114//114 122//122
f 114//114 121//121 122//122
f 115//115 110//110 121//121
f 121//121 114//114 119//119
f 121//121 119//119 116//116
f 116//116 127//127 115//115
f 115//115 121//121 116//116
f 26//26 123//123 124//124
f 123//123 26//26 25//25
f 25//25 2//2 123//123
f 82//82 28//28 26//26
f 26//26 124//124 82//82
f 29//29 28//28 82//82
f 29//29 82//82 125//125
f 125//125 82//82 95//95
f 103//103 41//41 125//125
f 103//103 125//125 107//107
f 125//125 95//95 107//107
f 54//54 52//52 103//103
f 115//115 126//126 103//103
f 54//54 103//103 126//126
f 127//127 3//3 126//126
f 126//126 115//115 127//127
f 54//54 126//126 3//3
f 68//68 3//3 127//127
f 67//67 116//116 118//118
f 116//116 67//67 68//68
# 250 faces, 0 coords texture

# End of File
