####
#
# OBJ File Generated by Meshlab
#
####
# Object nature_valley_sweet_and_salty_nut_almond_250_collision.obj
#
# Vertices: 127
# Faces: 250
#
####
vn 0.781678 0.620409 0.063803
v 0.011088 -0.027397 0.025741
vn -0.909941 -0.414587 0.011192
v 0.075854 -0.034150 0.082553
vn 0.039232 0.036527 0.998562
v 0.008667 0.007440 0.001173
vn 0.608014 -0.793870 0.009480
v -0.025238 0.068837 0.087306
vn -0.235897 -0.179913 -0.954979
v 0.014261 0.026583 0.144372
vn 0.326339 0.264556 0.907476
v 0.011565 -0.017085 0.003014
vn 0.776968 0.627666 0.048548
v -0.004930 -0.008811 0.036235
vn 0.780229 0.625181 0.019772
v 0.017822 -0.039242 0.062401
vn 0.771471 0.635083 0.038756
v -0.024193 0.014776 0.038679
vn 0.780172 0.625358 0.016094
v -0.015734 0.003648 0.067162
vn 0.784455 0.619995 -0.015362
v 0.004878 -0.023183 0.094706
vn 0.785446 0.618454 0.024262
v 0.003044 -0.020527 0.071338
vn 0.722521 0.551615 -0.416754
v 0.012133 -0.027773 0.136164
vn 0.683066 0.527243 -0.505406
v -0.028707 0.023522 0.136770
vn 0.779149 0.617784 -0.106161
v -0.004019 -0.010076 0.119250
vn 0.709243 -0.035269 0.704082
v -0.043598 0.043331 0.006064
vn 0.338478 0.150832 0.928807
v -0.036024 0.039664 0.002143
vn 0.960841 0.252658 0.113793
v -0.045036 0.041420 0.012336
vn 0.649229 0.552284 0.522957
v -0.028359 0.022119 0.006799
vn 0.121270 0.109608 0.986549
v -0.016726 0.027909 0.000873
vn 0.458690 0.392269 0.797326
v -0.005332 0.001189 0.003106
vn -0.212431 -0.168028 0.962621
v 0.000114 0.037583 0.001665
vn -0.656512 -0.525513 0.541136
v 0.017685 0.033998 0.008569
vn 0.759709 0.627872 0.169173
v -0.004916 -0.006036 0.014464
vn 0.820137 -0.523031 0.231977
v -0.042165 0.054135 0.012253
vn 0.151378 -0.181824 0.971609
v -0.024211 0.056275 0.001465
vn 0.440343 -0.590697 0.676147
v -0.028069 0.063039 0.005373
vn -0.162305 -0.621341 0.766546
v -0.012920 0.066785 0.003845
vn 0.331209 -0.930863 0.154256
v -0.021956 0.071144 0.016153
vn -0.506102 -0.849118 0.151194
v -0.009511 0.068828 0.012160
vn 0.049434 -0.998514 0.022930
v -0.018065 0.071414 0.026683
vn -0.670637 -0.521102 0.527919
v 0.001572 0.053168 0.006923
vn 0.912473 0.409073 0.007300
v -0.044308 0.038611 0.070486
vn 0.891215 -0.453331 0.015020
v -0.044550 0.050886 0.036656
vn 0.705527 -0.708656 0.006233
v -0.041277 0.055454 0.064949
vn 0.531051 -0.847338 -0.001801
v -0.025268 0.068688 0.047764
vn -0.709148 -0.704541 0.027035
v -0.004893 0.065431 0.047512
vn -0.377737 -0.925825 0.012798
v -0.012820 0.071526 0.062374
vn -0.773789 -0.631401 0.050819
v 0.024284 0.030681 0.050354
vn -0.726980 -0.686216 0.024650
v -0.000571 0.062072 0.077796
vn 0.911350 0.409941 -0.037280
v -0.043910 0.038298 0.106637
vn 0.781475 0.623453 -0.024587
v -0.022198 0.011189 0.101211
vn -0.779256 -0.626693 0.004005
v 0.028379 0.027532 0.089349
vn 0.758005 -0.652248 -0.000441
v -0.041857 0.055171 0.094509
vn 0.975337 -0.220717 0.001146
v -0.045576 0.049033 0.076117
vn 0.962576 -0.165353 -0.214724
v -0.044976 0.048989 0.130506
vn 0.440235 -0.897762 -0.014695
v -0.020774 0.072137 0.115592
vn 0.256612 -0.966493 0.006390
v -0.020194 0.071747 0.060833
vn -0.780206 -0.623878 -0.045333
v 0.016068 0.042558 0.118518
vn -0.520926 -0.853498 0.013335
v -0.006996 0.069796 0.098947
vn -0.168225 -0.985747 0.001795
v -0.013078 0.072547 0.119564
vn 0.853649 0.319187 -0.411585
v -0.042737 0.039610 0.134588
vn 0.600866 0.486294 -0.634411
v -0.007443 0.000075 0.138178
vn 0.218572 0.158034 -0.962939
v -0.015156 0.025505 0.146479
vn 0.242954 0.080090 -0.966726
v -0.025169 0.038902 0.143760
vn -0.143095 -0.157890 -0.977034
v -0.003530 0.040708 0.145265
vn -0.645488 -0.508594 -0.569805
v 0.010981 0.044611 0.138197
vn 0.138950 0.139851 -0.980375
v -0.004493 0.014842 0.145202
vn 0.691273 -0.631020 -0.352073
v -0.040917 0.056298 0.133508
vn 0.565581 -0.045680 -0.823427
v -0.036775 0.049376 0.142422
vn 0.337932 -0.884839 -0.320720
v -0.021838 0.070687 0.133757
vn 0.204670 -0.433943 -0.877384
v -0.016701 0.062220 0.144193
vn -0.672475 -0.717120 -0.183073
v -0.004050 0.067372 0.131942
vn -0.356977 -0.516822 -0.778114
v -0.010756 0.066265 0.142168
vn -0.115409 -0.905086 -0.409268
v -0.011813 0.072739 0.134728
vn 0.503049 0.419003 0.755896
v 0.025748 -0.038360 0.003883
vn 0.293590 0.290926 0.910586
v 0.043571 -0.054766 0.001816
vn 0.592761 0.739807 0.318309
v 0.038924 -0.062235 0.010979
vn -0.061077 0.627604 0.776133
v 0.049662 -0.062580 0.003470
vn -0.261194 0.957507 0.122300
v 0.052568 -0.065778 0.013107
vn -0.744533 0.484104 0.459689
v 0.071640 -0.049596 0.007695
vn -0.774677 0.631675 0.029355
v 0.072924 -0.048510 0.028272
vn 0.721810 0.575401 0.384583
v 0.013245 -0.027989 0.009265
vn 0.077677 0.052223 0.995610
v 0.033544 -0.024714 0.000848
vn -0.405101 -0.316375 0.857788
v 0.058609 -0.023710 0.002465
vn -0.083443 -0.059746 0.994720
v 0.050153 -0.025198 0.000773
vn -0.281253 0.028563 0.959208
v 0.065913 -0.037024 0.001965
vn -0.346618 -0.312933 0.884267
v 0.041891 -0.002550 0.002825
vn 0.750348 0.589387 0.299332
v 0.028765 -0.048484 0.013474
vn -0.765372 -0.631631 0.123483
v 0.046712 -0.000770 0.013871
vn -0.831783 -0.297367 0.468732
v 0.074502 -0.035489 0.007073
vn -0.985379 0.158700 0.061991
v 0.075991 -0.040803 0.018737
vn -0.784723 -0.611909 0.098879
v 0.070217 -0.028403 0.013863
vn -0.786052 -0.616909 0.039310
v 0.064815 -0.021050 0.033753
vn -0.909504 -0.415050 0.023171
v 0.074960 -0.035090 0.029324
vn 0.555452 0.830996 0.030305
v 0.037175 -0.063416 0.056945
vn -0.089422 0.995452 0.032861
v 0.050490 -0.066905 0.049702
vn -0.604937 0.796121 0.015575
v 0.058153 -0.062115 0.043107
vn 0.527384 0.849604 0.006270
v 0.040323 -0.065475 0.067443
vn -0.811665 0.583832 0.018438
v 0.074520 -0.048425 0.059604
vn 0.790869 0.609307 0.057186
v 0.026416 -0.047815 0.036287
vn -0.800423 -0.598904 0.025236
v 0.068724 -0.023812 0.060996
vn 0.149554 0.988734 0.006301
v 0.046523 -0.067554 0.088771
vn 0.689418 0.724362 0.001840
v 0.034723 -0.060823 0.084435
vn -0.542041 0.840350 -0.001502
v 0.054064 -0.065722 0.100464
vn 0.529675 0.846593 -0.052209
v 0.040708 -0.066187 0.113403
vn 0.779412 0.624470 -0.050535
v 0.022346 -0.044462 0.110387
vn -0.797358 0.603432 0.009542
v 0.073720 -0.049590 0.081142
vn -0.869520 0.493772 -0.011166
v 0.075289 -0.048319 0.108534
vn -0.992973 0.117262 0.015939
v 0.076948 -0.041801 0.069929
vn -0.998084 -0.060619 -0.012368
v 0.077726 -0.039277 0.111366
vn 0.674194 0.616630 -0.406485
v 0.035334 -0.058679 0.135236
vn 0.076423 0.250396 -0.965122
v 0.043005 -0.056709 0.142858
vn -0.545723 0.587114 -0.597899
v 0.062875 -0.057313 0.135963
vn 0.174349 0.765974 -0.618778
v 0.046206 -0.064861 0.139643
vn -0.185972 0.966705 -0.175772
v 0.050890 -0.067477 0.133899
vn -0.769438 0.598278 -0.223672
v 0.073486 -0.049463 0.129820
vn -0.423884 -0.029672 -0.905230
v 0.067597 -0.037596 0.143234
vn -0.826098 -0.010422 -0.563431
v 0.074599 -0.039439 0.137711
vn 0.345680 0.258634 -0.902006
v 0.007879 -0.008596 0.144910
vn -0.306425 -0.237513 -0.921787
v 0.056926 -0.025987 0.142870
vn 0.302271 0.261922 -0.916531
v 0.022340 -0.030044 0.143602
vn -0.757622 -0.619975 -0.204058
v 0.052965 -0.005848 0.130883
vn -0.790164 -0.612589 -0.019389
v 0.057975 -0.009794 0.099308
vn -0.217989 -0.148038 -0.964658
v 0.040588 -0.006735 0.143774
vn -0.614554 -0.481864 -0.624605
v 0.045126 -0.002725 0.140347
vn -0.980916 0.073910 -0.179835
v 0.076762 -0.040517 0.132453
vn -0.861256 -0.494435 -0.117360
v 0.074939 -0.032245 0.124709
vn -0.685410 -0.518166 -0.511584
v 0.065513 -0.022833 0.135099
vn -0.091537 -0.094360 0.991321
v 0.025360 0.002375 0.001412
vn -0.463060 -0.400739 0.790559
v 0.023417 0.020247 0.004352
vn -0.749866 -0.599211 0.280442
v 0.027444 0.022267 0.010314
vn -0.676419 -0.572263 0.463650
v 0.048857 -0.005895 0.006880
vn -0.775309 -0.626653 0.078753
v 0.014707 0.040146 0.026325
vn -0.775055 -0.607168 -0.175035
v 0.033404 0.019586 0.127440
vn -0.163199 -0.102597 -0.981244
v 0.026307 0.009176 0.144656
vn -0.564616 -0.429854 -0.704581
v 0.028517 0.019798 0.139662
# 127 vertices, 0 vertices normals

f 73//73 6//6 21//21
f 21//21 6//6 3//3
f 24//24 1//1 73//73
f 24//24 9//9 7//7
f 73//73 21//21 24//24
f 1//1 24//24 7//7
f 21//21 19//19 24//24
f 8//8 1//1 12//12
f 7//7 9//9 10//10
f 12//12 1//1 7//7
f 12//12 7//7 10//10
f 12//12 10//10 42//42
f 11//11 12//12 42//42
f 97//97 11//11 15//15
f 13//13 97//97 15//15
f 11//11 42//42 15//15
f 15//15 14//14 53//53
f 53//53 13//13 15//15
f 53//53 110//110 13//13
f 19//19 17//17 16//16
f 19//19 16//16 18//18
f 9//9 19//19 18//18
f 21//21 20//20 19//19
f 20//20 17//17 19//19
f 20//20 21//21 3//3
f 20//20 3//3 22//22
f 22//22 3//3 120//120
f 17//17 20//20 26//26
f 22//22 26//26 20//20
f 121//121 23//23 22//22
f 32//32 22//22 23//23
f 9//9 24//24 19//19
f 32//32 23//23 124//124
f 16//16 17//17 26//26
f 27//27 16//16 26//26
f 16//16 27//27 25//25
f 18//18 16//16 25//25
f 25//25 34//34 18//18
f 22//22 28//28 26//26
f 22//22 32//32 28//28
f 28//28 27//27 26//26
f 29//29 25//25 27//27
f 29//29 27//27 28//28
f 30//30 29//29 28//28
f 34//34 25//25 29//29
f 31//31 36//36 29//29
f 31//31 29//29 30//30
f 32//32 30//30 28//28
f 30//30 32//32 124//124
f 33//33 9//9 18//18
f 33//33 18//18 34//34
f 33//33 10//10 9//9
f 33//33 34//34 45//45
f 36//36 35//35 34//34
f 45//45 34//34 35//35
f 45//45 35//35 44//44
f 44//44 35//35 4//4
f 34//34 29//29 36//36
f 36//36 31//31 48//48
f 31//31 30//30 38//38
f 38//38 30//30 37//37
f 30//30 124//124 37//37
f 38//38 48//48 31//31
f 48//48 35//35 36//36
f 4//4 35//35 48//48
f 50//50 48//48 38//38
f 39//39 40//40 37//37
f 40//40 38//38 37//37
f 40//40 50//50 38//38
f 41//41 42//42 33//33
f 14//14 42//42 41//41
f 33//33 45//45 41//41
f 46//46 41//41 45//45
f 52//52 14//14 41//41
f 46//46 52//52 41//41
f 42//42 10//10 33//33
f 46//46 45//45 44//44
f 44//44 4//4 47//47
f 59//59 46//46 44//44
f 47//47 59//59 44//44
f 47//47 4//4 48//48
f 51//51 48//48 50//50
f 51//51 47//47 48//48
f 51//51 50//50 63//63
f 49//49 40//40 43//43
f 50//50 40//40 49//49
f 50//50 49//49 63//63
f 14//14 52//52 60//60
f 15//15 42//42 14//14
f 14//14 54//54 53//53
f 54//54 58//58 53//53
f 58//58 110//110 53//53
f 54//54 14//14 55//55
f 55//55 14//14 60//60
f 62//62 56//56 55//55
f 63//63 49//49 57//57
f 56//56 57//57 5//5
f 64//64 57//57 56//56
f 58//58 126//126 110//110
f 5//5 58//58 54//54
f 5//5 126//126 58//58
f 56//56 54//54 55//55
f 5//5 54//54 56//56
f 61//61 59//59 47//47
f 59//59 60//60 46//46
f 52//52 46//46 60//60
f 62//62 55//55 60//60
f 62//62 60//60 59//59
f 62//62 59//59 61//61
f 62//62 61//61 65//65
f 62//62 65//65 64//64
f 57//57 64//64 63//63
f 56//56 62//62 64//64
f 65//65 63//63 64//64
f 51//51 61//61 47//47
f 61//61 51//51 65//65
f 65//65 51//51 63//63
f 69//69 67//67 68//68
f 68//68 67//67 79//79
f 71//71 69//69 70//70
f 67//67 69//69 77//77
f 79//79 67//67 66//66
f 68//68 79//79 91//91
f 68//68 70//70 69//69
f 70//70 68//68 86//86
f 72//72 70//70 88//88
f 71//71 77//77 69//69
f 71//71 81//81 77//77
f 82//82 81//81 71//71
f 82//82 71//71 72//72
f 72//72 71//71 70//70
f 74//74 66//66 67//67
f 6//6 73//73 66//66
f 74//74 6//6 66//66
f 76//76 74//74 67//67
f 77//77 76//76 67//67
f 76//76 77//77 75//75
f 3//3 6//6 74//74
f 120//120 3//3 74//74
f 120//120 74//74 76//76
f 120//120 76//76 78//78
f 123//123 75//75 81//81
f 75//75 123//123 78//78
f 75//75 78//78 76//76
f 73//73 79//79 66//66
f 1//1 79//79 73//73
f 79//79 1//1 91//91
f 83//83 80//80 123//123
f 75//75 77//77 81//81
f 82//82 85//85 81//81
f 83//83 81//81 85//85
f 123//123 81//81 83//83
f 80//80 83//83 84//84
f 86//86 87//87 70//70
f 87//87 86//86 89//89
f 68//68 91//91 86//86
f 88//88 70//70 87//87
f 89//89 93//93 87//87
f 93//93 95//95 87//87
f 8//8 86//86 91//91
f 89//89 86//86 8//8
f 89//89 8//8 94//94
f 95//95 88//88 87//87
f 90//90 88//88 95//95
f 98//98 90//90 95//95
f 88//88 90//90 72//72
f 82//82 72//72 90//90
f 100//100 90//90 98//98
f 91//91 1//1 8//8
f 84//84 83//83 85//85
f 85//85 82//82 100//100
f 2//2 85//85 100//100
f 84//84 85//85 92//92
f 92//92 85//85 2//2
f 100//100 82//82 90//90
f 94//94 8//8 11//11
f 97//97 94//94 11//11
f 94//94 93//93 89//89
f 94//94 96//96 93//93
f 95//95 93//93 106//106
f 106//106 93//93 96//96
f 97//97 96//96 94//94
f 96//96 97//97 102//102
f 100//100 98//98 99//99
f 99//99 98//98 95//95
f 107//107 95//95 104//104
f 107//107 99//99 95//95
f 117//117 101//101 99//99
f 8//8 12//12 11//11
f 43//43 92//92 114//114
f 2//2 114//114 92//92
f 101//101 100//100 99//99
f 2//2 100//100 101//101
f 101//101 118//118 2//2
f 114//114 2//2 118//118
f 106//106 96//96 105//105
f 102//102 97//97 13//13
f 105//105 102//102 103//103
f 102//102 112//112 103//103
f 102//102 105//105 96//96
f 104//104 95//95 106//106
f 104//104 106//106 105//105
f 108//108 103//103 111//111
f 104//104 105//105 103//103
f 103//103 108//108 104//104
f 117//117 99//99 107//107
f 104//104 109//109 107//107
f 104//104 108//108 109//109
f 117//117 107//107 109//109
f 13//13 112//112 102//102
f 112//112 115//115 103//103
f 13//13 110//110 112//112
f 111//111 103//103 115//115
f 126//126 112//112 110//110
f 126//126 115//115 112//112
f 113//113 125//125 114//114
f 116//116 119//119 111//111
f 116//116 111//111 115//115
f 119//119 116//116 113//113
f 118//118 101//101 117//117
f 109//109 118//118 117//117
f 119//119 118//118 109//109
f 114//114 118//118 113//113
f 113//113 118//118 119//119
f 108//108 111//111 119//119
f 109//109 108//108 119//119
f 121//121 78//78 123//123
f 120//120 78//78 121//121
f 121//121 123//123 122//122
f 22//22 120//120 121//121
f 122//122 23//23 121//121
f 124//124 122//122 39//39
f 122//122 123//123 80//80
f 80//80 39//39 122//122
f 23//23 122//122 124//124
f 84//84 39//39 80//80
f 92//92 39//39 84//84
f 37//37 124//124 39//39
f 43//43 39//39 92//92
f 40//40 39//39 43//43
f 49//49 43//43 125//125
f 114//114 125//125 43//43
f 127//127 125//125 116//116
f 126//126 127//127 115//115
f 116//116 115//115 127//127
f 5//5 127//127 126//126
f 116//116 125//125 113//113
f 125//125 57//57 49//49
f 127//127 57//57 125//125
f 127//127 5//5 57//57
# 250 faces, 0 coords texture

# End of File
