####
#
# OBJ File Generated by Meshlab
#
####
# Object tapatio_hot_sauce_250_collision.obj
#
# Vertices: 127
# Faces: 250
#
####
vn -0.202831 -0.235362 -0.950507
v -0.015843 -0.017612 0.007828
vn -0.616146 0.785238 -0.061355
v -0.015656 0.017612 0.021706
vn 0.423588 -0.873693 -0.239235
v 0.019569 -0.031311 0.014699
vn -0.077375 0.547165 -0.833441
v 0.009010 0.019569 0.013699
vn 0.293253 -0.266644 -0.918098
v 0.015656 -0.028085 0.009785
vn 0.825233 -0.420658 0.376879
v 0.027228 -0.015656 0.091976
vn -0.392761 0.308317 -0.866418
v -0.019972 -0.003914 0.009785
vn 0.395889 0.854173 0.337135
v 0.013699 0.002054 0.168297
vn -0.292148 -0.753666 -0.588758
v -0.003312 -0.031302 0.009782
vn 0.849084 -0.395709 -0.349958
v 0.029354 -0.023483 0.016474
vn -0.414851 0.531878 -0.738244
v -0.011742 0.016625 0.017612
vn 0.044090 0.213423 -0.975964
v 0.021363 0.003914 0.009785
vn 0.961484 0.256969 0.097551
v 0.027127 -0.000372 0.093073
vn -0.063069 0.991271 0.115779
v 0.003914 0.015908 0.088062
vn 0.950794 0.059069 -0.304142
v 0.032668 0.000000 0.011742
vn 0.450428 0.420906 -0.787371
v 0.030043 0.005871 0.011742
vn -0.815823 0.544022 -0.196146
v -0.017612 0.015106 0.021526
vn -0.232440 0.448258 -0.863155
v -0.005871 0.013699 0.014026
vn -0.063583 0.037321 -0.997278
v -0.017612 -0.015151 0.007828
vn -0.477519 -0.871204 0.113925
v -0.004130 -0.027386 0.088292
vn -0.978118 -0.165890 0.125565
v -0.016561 -0.011120 0.087388
vn -0.429668 -0.581893 -0.690497
v -0.007828 -0.028694 0.009785
vn 0.125976 -0.628834 -0.767266
v 0.009159 -0.032601 0.009773
vn 0.547952 -0.137146 -0.825191
v 0.031332 -0.005832 0.010812
vn 0.606371 0.743253 -0.282648
v 0.023483 0.014870 0.015656
vn 0.875814 0.470011 -0.109721
v 0.031443 0.005872 0.013660
vn 0.835887 0.542427 0.084058
v 0.024066 0.007828 0.084148
vn -0.877845 0.457308 0.142325
v -0.014127 0.003914 0.090019
vn -0.214541 0.637303 -0.740147
v -0.004300 0.020454 0.017612
vn 0.071126 0.992720 -0.097201
v 0.003914 0.023483 0.019569
vn 0.165242 0.074752 -0.983416
v 0.027397 0.000879 0.009785
vn -0.704342 -0.212005 -0.677463
v -0.019569 -0.013697 0.008133
vn -0.704377 0.592398 0.391048
v -0.001322 -0.000319 0.170535
vn 0.629956 0.674423 0.385108
v 0.015577 0.000449 0.169445
vn -0.874698 -0.351864 0.333308
v -0.004195 -0.012310 0.168297
vn -0.156990 -0.944617 0.288190
v 0.004215 -0.019516 0.168233
vn -0.985175 0.097255 0.141321
v -0.015709 -0.003914 0.095890
vn -0.552561 -0.648633 -0.523403
v -0.011742 -0.027397 0.012135
vn 0.883870 -0.455787 0.105034
v 0.026361 -0.017612 0.091976
vn 0.429202 -0.898648 0.090644
v 0.016926 -0.027397 0.091976
vn 0.105896 -0.940894 0.321721
v 0.009765 -0.019478 0.168872
vn 0.253770 0.645432 -0.720429
v 0.015655 0.019120 0.013690
vn 0.511342 0.851379 0.116976
v 0.018668 0.012307 0.089984
vn 0.141773 0.937906 0.316595
v 0.007828 0.003524 0.168297
vn 0.878355 0.467729 0.098603
v 0.025440 0.004324 0.090019
vn 0.728582 0.684782 0.015530
v 0.027630 0.011742 0.019569
vn -0.763973 0.627483 0.150370
v -0.011185 0.007828 0.091976
vn 0.123571 0.984012 0.128257
v 0.009257 0.015567 0.090088
vn 0.061793 0.849822 -0.523434
v 0.011742 0.021073 0.015656
vn 0.984612 -0.093424 0.147686
v 0.019092 -0.009785 0.167697
vn -0.985445 -0.108260 0.131066
v 0.027389 -0.013699 0.093933
vn 0.993569 -0.077171 0.082861
v 0.028052 -0.009785 0.091976
vn 0.850707 0.198551 0.486699
v 0.018530 -0.005578 0.170707
vn -0.736220 -0.495665 0.460756
v -0.003417 -0.013666 0.168719
vn -0.638959 -0.758384 0.128781
v -0.009312 -0.023774 0.089131
vn -0.990498 -0.011208 0.137067
v -0.016004 -0.005871 0.093933
vn 0.706056 -0.699570 0.109934
v 0.022756 -0.023424 0.089729
vn 0.528137 -0.843077 0.101453
v 0.017612 -0.027018 0.091976
vn 0.430759 -0.901483 0.042142
v 0.023483 -0.029354 0.017267
vn 0.050212 -0.990866 0.125156
v 0.007828 -0.029803 0.091976
vn 0.562391 -0.783617 0.263932
v 0.013699 -0.017942 0.168297
vn 0.344715 0.910701 -0.227586
v 0.014599 0.021526 0.017612
vn 0.553070 0.832895 0.019978
v 0.014763 0.021528 0.021543
vn 0.118256 0.935614 0.332628
v 0.009785 0.003588 0.166340
vn -0.019412 0.989768 0.141360
v 0.005633 0.014826 0.097419
vn 0.898684 0.424815 0.109086
v 0.025897 0.002223 0.094912
vn 0.873735 0.484786 -0.039628
v 0.020994 0.010973 0.086369
vn -0.815460 0.559774 0.147235
v -0.011742 0.007068 0.091976
vn -0.595722 0.788809 0.151313
v -0.006775 0.011742 0.091976
vn -0.090953 0.959767 -0.265660
v 0.003914 0.023483 0.019569
vn -0.328302 0.896958 -0.296115
v -0.007828 0.021213 0.019569
vn -0.487569 -0.075212 0.869839
v -0.002153 -0.009142 0.172304
vn 0.941036 -0.271583 0.201729
v 0.027305 -0.015371 0.092659
vn 0.144355 -0.549974 0.822612
v 0.009780 -0.017086 0.172325
vn -0.887538 -0.439536 0.138145
v -0.013897 -0.017612 0.090019
vn -0.713458 -0.639873 0.285553
v -0.001994 -0.015695 0.168297
vn -0.793877 -0.605863 -0.051865
v -0.020826 -0.025440 0.019569
vn -0.958926 -0.098981 0.265826
v -0.005014 -0.009745 0.168453
vn -0.338316 -0.933871 0.115876
v -0.001957 -0.028169 0.090019
vn -0.254269 -0.967000 -0.016087
v -0.001958 -0.035412 0.019501
vn -0.208878 -0.971252 0.114189
v 0.002446 -0.029642 0.087605
vn -0.589641 -0.724084 0.357807
v -0.000120 -0.017612 0.168297
vn -0.406463 -0.764973 0.499604
v 0.001994 -0.018538 0.169430
vn -0.886461 0.383877 0.258506
v -0.003914 -0.003672 0.168297
vn -0.997490 -0.070808 0.000554
v -0.025440 -0.002022 0.021614
vn 0.232785 -0.967767 0.096116
v 0.011769 -0.029297 0.091800
vn 0.053775 -0.990318 -0.127977
v 0.001803 -0.035614 0.018324
vn 0.835212 -0.539235 0.107922
v 0.024964 -0.019569 0.093933
vn 0.699357 -0.566239 0.436203
v 0.017454 -0.013622 0.169473
vn 0.667703 -0.744367 -0.009465
v 0.027403 -0.027402 0.018253
vn -0.118862 -0.983387 0.137191
v 0.005852 -0.021107 0.158487
vn 0.035587 -0.995157 0.091626
v 0.007828 -0.030031 0.090019
vn 0.595361 -0.796617 0.104630
v 0.019492 -0.025440 0.093933
vn 0.993297 0.063102 0.096849
v 0.028023 -0.006015 0.093686
vn 0.344427 0.929682 0.130616
v 0.014938 0.014311 0.088936
vn 0.239343 0.961722 0.133437
v 0.011672 0.015210 0.089041
vn 0.272920 0.950770 0.146802
v 0.013699 0.013921 0.093933
vn 0.178067 0.924600 0.336758
v 0.011742 0.002753 0.168297
vn 0.011907 0.993272 0.115187
v 0.005871 0.015760 0.090019
vn 0.772685 0.630788 0.071165
v 0.022126 0.010852 0.082611
vn -0.547779 0.814919 0.189326
v 0.000000 0.001257 0.168297
vn -0.231816 0.853389 0.466892
v 0.003925 0.003100 0.169545
vn -0.504678 0.849924 0.151427
v -0.005871 0.012374 0.091976
vn 0.295637 0.953586 0.057203
v 0.013720 0.022018 0.021514
vn 0.171759 0.486654 0.856544
v 0.012996 -0.000800 0.172233
vn 0.756322 0.648814 0.083769
v 0.023483 0.008561 0.084148
vn -0.938704 -0.317203 0.134970
v -0.015196 -0.013699 0.092955
vn -0.972480 0.206157 -0.108547
v -0.025440 -0.001632 0.021526
vn -0.902212 0.213994 0.374459
v -0.004699 -0.005875 0.168387
vn -0.941574 0.304394 0.144161
v -0.015563 0.000095 0.090598
vn -0.825509 0.533389 0.184473
v -0.003035 -0.001957 0.168297
vn -0.989307 -0.056514 0.134453
v -0.016341 -0.007828 0.090998
vn 0.724415 -0.641295 0.252912
v 0.016360 -0.015647 0.168353
vn 0.351602 -0.931537 0.092810
v 0.015656 -0.028009 0.090998
vn 0.043088 -0.989355 0.138995
v 0.007828 -0.019720 0.168297
vn -0.093172 -0.989645 0.109183
v 0.005871 -0.029952 0.090019
vn -0.018967 0.996450 0.082024
v 0.003914 0.023483 0.019570
vn -0.662708 0.733429 0.151328
v -0.009702 0.009714 0.090019
vn -0.378619 0.915318 0.137261
v -0.003236 0.013711 0.092311
vn -0.172284 0.976570 0.128958
v 0.001744 0.015297 0.091745
vn 0.852904 0.459060 0.248634
v 0.017635 -0.001980 0.169212
vn -0.833328 0.530155 0.156525
v -0.012036 0.004510 0.099315
vn 0.782871 -0.292265 0.549268
v 0.018324 -0.011639 0.170236
vn 0.822059 0.559912 0.103526
v 0.023391 0.007974 0.089326
vn -0.628774 0.761262 0.158503
v -0.007268 0.009785 0.099804
vn -0.783328 0.600316 0.161300
v -0.001957 -0.000542 0.168297
vn 0.393618 -0.854096 0.339977
v 0.011670 -0.018817 0.169304
# 127 vertices, 0 vertices normals

f 31//31 5//5 1//1
f 10//10 3//3 5//5
f 12//12 7//7 4//4
f 12//12 4//4 42//42
f 23//23 1//1 5//5
f 16//16 15//15 31//31
f 16//16 12//12 42//42
f 16//16 31//31 12//12
f 17//17 11//11 7//7
f 17//17 2//2 11//11
f 17//17 7//7 108//108
f 71//71 11//11 2//2
f 18//18 4//4 7//7
f 18//18 7//7 11//11
f 19//19 12//12 31//31
f 19//19 7//7 12//12
f 22//22 1//1 9//9
f 23//23 5//5 3//3
f 23//23 9//9 1//1
f 73//73 10//10 15//15
f 13//13 15//15 26//26
f 13//13 94//94 15//15
f 24//24 15//15 10//10
f 24//24 10//10 5//5
f 24//24 5//5 31//31
f 26//26 15//15 16//16
f 26//26 16//16 25//25
f 28//28 17//17 108//108
f 29//29 11//11 71//71
f 29//29 18//18 11//11
f 29//29 4//4 18//18
f 31//31 1//1 19//19
f 32//32 19//19 1//1
f 32//32 7//7 19//19
f 53//53 50//50 94//94
f 38//38 1//1 22//22
f 38//38 32//32 1//1
f 38//38 77//77 32//32
f 9//9 38//38 22//22
f 9//9 77//77 38//38
f 39//39 90//90 10//10
f 39//39 73//73 6//6
f 39//39 10//10 73//73
f 90//90 3//3 10//10
f 24//24 31//31 15//15
f 42//42 25//25 16//16
f 45//45 26//26 27//27
f 46//46 27//27 26//26
f 46//46 26//26 25//25
f 46//46 25//25 63//63
f 47//47 2//2 17//17
f 49//49 42//42 4//4
f 32//32 108//108 7//7
f 32//32 77//77 85//85
f 43//43 8//8 34//34
f 51//51 50//50 6//6
f 51//51 6//6 73//73
f 53//53 13//13 121//121
f 55//55 76//76 77//77
f 110//110 28//28 108//108
f 21//21 85//85 77//77
f 56//56 112//112 78//78
f 56//56 78//78 37//37
f 87//87 23//23 3//3
f 87//87 9//9 23//23
f 123//123 39//39 6//6
f 123//123 6//6 50//50
f 58//58 40//40 90//90
f 114//114 3//3 40//40
f 59//59 40//40 3//3
f 59//59 3//3 90//90
f 59//59 90//90 40//40
f 127//127 41//41 86//86
f 60//60 86//86 41//41
f 61//61 40//40 58//58
f 62//62 63//63 25//25
f 62//62 25//25 42//42
f 62//62 42//42 49//49
f 62//62 49//49 30//30
f 66//66 13//13 26//26
f 66//66 26//26 45//45
f 67//67 46//46 63//63
f 68//68 47//47 17//17
f 68//68 17//17 28//28
f 70//70 4//4 29//29
f 70//70 29//29 71//71
f 70//70 49//49 4//4
f 70//70 30//30 49//49
f 70//70 71//71 120//120
f 70//70 120//120 14//14
f 71//71 2//2 119//119
f 104//104 30//30 48//48
f 104//104 62//62 30//30
f 104//104 63//63 62//62
f 124//124 100//100 34//34
f 100//100 43//43 34//34
f 94//94 52//52 15//15
f 94//94 50//50 52//52
f 73//73 52//52 50//50
f 73//73 15//15 52//52
f 75//75 54//54 35//35
f 75//75 77//77 54//54
f 76//76 54//54 77//77
f 35//35 78//78 107//107
f 35//35 107//107 75//75
f 20//20 77//77 80//80
f 20//20 80//80 79//79
f 20//20 79//79 83//83
f 81//81 36//36 79//79
f 80//80 77//77 9//9
f 80//80 9//9 87//87
f 20//20 55//55 77//77
f 82//82 55//55 20//20
f 82//82 76//76 55//55
f 21//21 78//78 112//112
f 110//110 108//108 37//37
f 85//85 56//56 37//37
f 85//85 37//37 108//108
f 85//85 108//108 32//32
f 86//86 87//87 3//3
f 88//88 57//57 90//90
f 88//88 90//90 39//39
f 89//89 39//39 123//123
f 86//86 3//3 114//114
f 127//127 40//40 61//61
f 92//92 87//87 86//86
f 92//92 86//86 60//60
f 92//92 80//80 87//87
f 93//93 61//61 58//58
f 93//93 57//57 61//61
f 93//93 90//90 57//57
f 93//93 58//58 90//90
f 113//113 61//61 57//57
f 94//94 13//13 53//53
f 95//95 8//8 43//43
f 96//96 95//95 104//104
f 97//97 95//95 96//96
f 98//98 97//97 96//96
f 98//98 96//96 64//64
f 98//98 8//8 95//95
f 98//98 95//95 97//97
f 120//120 65//65 14//14
f 99//99 65//65 48//48
f 99//99 48//48 30//30
f 99//99 14//14 65//65
f 48//48 64//64 96//96
f 48//48 65//65 44//44
f 48//48 44//44 64//64
f 105//105 44//44 102//102
f 66//66 121//121 13//13
f 100//100 67//67 63//63
f 118//118 2//2 47//47
f 120//120 71//71 119//119
f 103//103 119//119 2//2
f 103//103 2//2 69//69
f 103//103 69//69 101//101
f 33//33 72//72 102//102
f 34//34 53//53 121//121
f 105//105 34//34 8//8
f 105//105 8//8 98//98
f 43//43 100//100 63//63
f 106//106 124//124 27//27
f 106//106 27//27 46//46
f 73//73 50//50 51//51
f 105//105 53//53 34//34
f 102//102 44//44 65//65
f 107//107 77//77 75//75
f 107//107 21//21 77//77
f 107//107 78//78 21//21
f 72//72 78//78 35//35
f 36//36 83//83 79//79
f 80//80 81//81 79//79
f 81//81 91//91 36//36
f 83//83 82//82 20//20
f 109//109 110//110 37//37
f 110//110 84//84 28//28
f 111//111 28//28 84//84
f 111//111 47//47 68//68
f 112//112 56//56 85//85
f 112//112 85//85 21//21
f 113//113 57//57 88//88
f 123//123 50//50 53//53
f 114//114 127//127 86//86
f 114//114 40//40 127//127
f 115//115 91//91 60//60
f 115//115 60//60 41//41
f 116//116 60//60 91//91
f 116//116 92//92 60//60
f 116//116 91//91 81//81
f 116//116 81//81 80//80
f 116//116 80//80 92//92
f 96//96 104//104 48//48
f 105//105 98//98 64//64
f 105//105 64//64 44//44
f 120//120 102//102 65//65
f 117//117 99//99 30//30
f 117//117 30//30 70//70
f 117//117 70//70 14//14
f 117//117 14//14 99//99
f 124//124 45//45 27//27
f 118//118 69//69 2//2
f 33//33 118//118 47//47
f 33//33 102//102 101//101
f 43//43 104//104 95//95
f 43//43 63//63 104//104
f 105//105 72//72 74//74
f 83//83 74//74 72//72
f 89//89 127//127 61//61
f 89//89 61//61 113//113
f 74//74 123//123 105//105
f 121//121 124//124 34//34
f 67//67 124//124 106//106
f 102//102 119//119 103//103
f 102//102 103//103 101//101
f 72//72 105//105 102//102
f 41//41 127//127 74//74
f 127//127 89//89 74//74
f 54//54 76//76 82//82
f 54//54 82//82 83//83
f 72//72 35//35 54//54
f 72//72 54//54 83//83
f 41//41 36//36 91//91
f 41//41 91//91 115//115
f 78//78 109//109 37//37
f 110//110 109//109 84//84
f 72//72 109//109 78//78
f 109//109 72//72 33//33
f 122//122 68//68 28//28
f 122//122 28//28 111//111
f 89//89 113//113 88//88
f 89//89 88//88 39//39
f 123//123 53//53 105//105
f 123//123 74//74 89//89
f 124//124 66//66 45//45
f 124//124 121//121 66//66
f 125//125 118//118 33//33
f 125//125 69//69 118//118
f 125//125 33//33 101//101
f 125//125 101//101 69//69
f 126//126 33//33 47//47
f 126//126 47//47 111//111
f 119//119 102//102 120//120
f 33//33 126//126 111//111
f 33//33 111//111 84//84
f 33//33 84//84 109//109
f 67//67 100//100 124//124
f 67//67 106//106 46//46
f 74//74 83//83 36//36
f 74//74 36//36 41//41
f 122//122 111//111 68//68
# 250 faces, 0 coords texture

# End of File
