####
#
# OBJ File Generated by Meshlab
#
####
# Object tapatio_hot_sauce_250_collision.obj
#
# Vertices: 127
# Faces: 250
#
####
vn -2.889308 1.191206 -3.659443
v -0.013060 -0.001718 0.012176
vn 4.698257 1.352889 -2.366929
v 0.023489 -0.002406 0.016338
vn -0.608873 2.770898 -4.644520
v 0.000635 0.009188 0.012729
vn -1.251857 5.232297 -1.963753
v 0.000633 0.013637 0.019118
vn -2.922863 -5.329859 0.917222
v 0.001391 -0.017151 0.124057
vn 0.873972 -5.501555 0.252514
v 0.008256 -0.019026 0.129342
vn 6.091311 1.159477 -0.230388
v 0.014645 -0.007556 0.142928
vn 2.198799 1.095513 3.183725
v 0.013864 -0.004463 0.170662
vn -3.397949 3.978840 0.299126
v -0.001430 0.000629 0.125501
vn -2.605055 0.886758 3.486343
v -0.001832 -0.005635 0.170118
vn -2.569733 -2.334509 -4.681687
v -0.005700 -0.020220 0.012762
vn -1.367092 -0.810067 -5.595577
v -0.002551 -0.020127 0.011328
vn -1.068905 -1.135826 -4.369847
v -0.009267 -0.014405 0.011096
vn -0.929915 -3.393212 -3.695836
v 0.000623 -0.024925 0.012359
vn -3.905683 -3.821916 -1.928660
v -0.009451 -0.021582 0.017730
vn -4.897088 -0.811045 -1.776461
v -0.017081 -0.009422 0.017707
vn -5.591507 -2.659333 -0.682161
v -0.015300 -0.015524 0.033419
vn -3.690893 -4.645592 -0.868893
v -0.007542 -0.026006 0.028641
vn -2.817724 -5.321440 0.085203
v -0.006715 -0.028258 0.047988
vn -1.037505 -6.093283 -0.108667
v 0.002203 -0.030422 0.037241
vn -4.871396 -3.602232 -0.156081
v -0.013811 -0.022000 0.046934
vn -5.034513 -3.653012 -0.040616
v -0.014029 -0.020061 0.065087
vn -0.611050 -6.199347 -0.038539
v 0.005213 -0.030615 0.058357
vn -5.928587 -1.036839 -0.118363
v -0.018725 -0.011165 0.049100
vn -2.947213 -5.405042 0.136584
v -0.005959 -0.027589 0.059494
vn -1.667124 -5.726597 0.474617
v -0.000539 -0.030559 0.084726
vn -5.889040 -1.506292 0.183387
v -0.017889 -0.012882 0.076179
vn -4.397129 -3.992154 0.420367
v -0.012253 -0.023550 0.082159
vn -3.247053 -4.684001 1.698943
v -0.006115 -0.025711 0.096224
vn -5.232150 -2.174514 1.749265
v -0.014890 -0.014687 0.096538
vn -3.730528 -3.955657 2.275641
v -0.003162 -0.017259 0.115951
vn -5.817420 -0.217356 1.867234
v -0.004841 -0.008746 0.119519
vn -5.344424 -3.009495 0.942648
v -0.002851 -0.012781 0.123742
vn -5.960948 -0.334943 0.416779
v -0.003368 -0.009116 0.135303
vn -3.775877 -4.618950 -0.344966
v -0.000328 -0.015141 0.144143
vn -5.796387 -1.941475 -0.722402
v -0.002786 -0.012271 0.150444
vn -3.460902 -4.099603 0.799960
v -0.001073 -0.017682 0.161403
vn -5.425044 1.891932 -0.702373
v -0.003481 -0.006774 0.151708
vn -4.779001 -0.843681 1.041750
v -0.005515 -0.010422 0.163144
vn -1.778741 2.438023 -3.864353
v -0.006357 0.006444 0.012621
vn -6.144408 -0.315051 -0.482915
v -0.017604 -0.007270 0.032586
vn -4.706306 3.136904 -1.204248
v -0.014775 0.005789 0.027555
vn -1.807972 5.632803 -0.652422
v -0.003904 0.014348 0.031523
vn -3.849106 4.549623 -0.125903
v -0.011735 0.010970 0.039156
vn -5.611755 2.003624 -0.235521
v -0.017291 0.002999 0.038016
vn -5.834511 1.845591 0.151424
v -0.017563 -0.000697 0.058098
vn -2.214895 5.749276 0.104902
v -0.006195 0.013461 0.047461
vn -4.533300 4.202705 0.195116
v -0.011700 0.008724 0.059599
vn -5.803484 1.503399 0.067995
v -0.018135 -0.001619 0.073702
vn -2.989482 5.445005 0.520749
v -0.005778 0.012837 0.074599
vn -1.544171 5.662362 0.211398
v -0.001218 0.016144 0.067656
vn -5.862542 0.205379 1.127695
v -0.017397 -0.006683 0.092078
vn -4.957449 2.687441 1.867564
v -0.013875 0.002239 0.096755
vn -0.761917 6.048029 0.639137
v 0.003878 0.014707 0.086418
vn -4.038628 4.233234 0.535207
v -0.011954 0.008705 0.084124
vn -5.095556 1.204037 2.621874
v -0.013049 -0.004075 0.103943
vn -3.076017 4.523265 1.810529
v -0.006619 0.010021 0.098214
vn -2.109843 4.754961 2.986421
v 0.000810 0.005926 0.111251
vn -4.586137 3.693380 1.451654
v -0.002109 -0.000580 0.119937
vn -0.787947 6.021885 0.976755
v 0.003144 0.001732 0.122478
vn -2.105520 5.555671 0.179628
v 0.002964 -0.000677 0.145850
vn -5.504694 2.613647 0.696463
v -0.001966 -0.003572 0.135613
vn -4.295196 3.368028 0.546573
v -0.002911 -0.002504 0.163591
vn -1.352253 5.419143 -0.528907
v 0.003873 0.001693 0.159251
vn 1.548734 -1.306172 -4.727933
v 0.015482 -0.019242 0.011458
vn 3.473057 -3.727859 -2.525580
v 0.018497 -0.022134 0.016270
vn 3.196407 -1.052366 -4.490108
v 0.019852 -0.013669 0.012759
vn 2.713895 -0.530726 -4.645636
v 0.020067 -0.010497 0.012255
vn 1.109564 -4.866898 -2.674401
v 0.008423 -0.027367 0.016228
vn -1.113562 -5.664025 -0.894674
v 0.001928 -0.030496 0.027207
vn 4.358277 -4.357180 -0.504712
v 0.020261 -0.023595 0.033244
vn 5.000651 -2.024629 -1.339493
v 0.024173 -0.017628 0.021384
vn 1.856697 -5.611541 -0.513489
v 0.010921 -0.030347 0.033048
vn 5.751459 -2.101679 -0.412324
v 0.024519 -0.017442 0.035932
vn 1.758208 -5.801662 -0.144650
v 0.012233 -0.030309 0.050959
vn 6.112281 0.380496 -0.146395
v 0.027033 -0.008889 0.048807
vn 5.886748 -1.251861 -0.635244
v 0.026219 -0.014844 0.044135
vn 3.625261 -4.946586 0.050104
v 0.019428 -0.026823 0.063136
vn 4.602139 -3.898869 -0.230027
v 0.022008 -0.024361 0.055873
vn 5.983339 -1.116534 0.179131
v 0.026104 -0.015517 0.065020
vn 5.543548 -2.826047 -0.187549
v 0.023556 -0.021432 0.074228
vn 6.177509 -0.118891 -0.280956
v 0.026189 -0.011707 0.070325
vn 1.062387 -5.977886 0.299262
v 0.009380 -0.030828 0.085056
vn 3.979410 -4.574971 0.104072
v 0.021092 -0.025373 0.080924
vn 5.389822 -2.411473 0.396536
v 0.025862 -0.018881 0.087354
vn -0.017063 -5.264775 2.246425
v 0.007682 -0.028282 0.102901
vn 2.770486 -4.666777 1.474964
v 0.016162 -0.027967 0.097490
vn 4.838637 -2.057653 2.244131
v 0.023509 -0.015867 0.103650
vn 5.073726 1.722897 2.655771
v 0.020938 -0.003904 0.109190
vn 1.393879 -4.981593 2.915162
v 0.009089 -0.021916 0.112378
vn 4.438158 -3.821250 1.758621
v 0.014921 -0.015008 0.116711
vn 5.836043 -0.098983 1.813423
v 0.017269 -0.008620 0.117107
vn 4.974157 -2.455082 0.490335
v 0.015741 -0.013586 0.128741
vn 0.718066 -5.925633 1.129825
v 0.006744 -0.018918 0.120616
vn 4.818185 -3.775538 0.077872
v 0.012986 -0.014713 0.142159
vn 0.259366 -4.860632 0.606934
v 0.007153 -0.021185 0.161063
vn 1.095730 -5.728281 -0.589753
v 0.008782 -0.017944 0.146543
vn 6.114284 -1.036760 -0.050841
v 0.014637 -0.010527 0.142206
vn 2.957205 -2.588578 1.792660
v 0.014924 -0.016715 0.165573
vn -1.003318 -2.435846 3.852310
v 0.003308 -0.015192 0.170290
vn 2.310214 0.193084 -4.738626
v 0.020202 -0.006185 0.011969
vn 1.174553 2.420871 -3.943179
v 0.010941 0.008784 0.012054
vn 3.518366 4.401734 -1.388964
v 0.016293 0.011249 0.022630
vn 6.162195 0.528517 -0.436172
v 0.025399 -0.006466 0.032440
vn 5.456484 2.643469 -0.811606
v 0.022665 0.002783 0.024422
vn 1.113823 5.607512 -1.342079
v 0.008968 0.014291 0.021853
vn 5.036985 3.180387 -0.197700
v 0.023007 0.006306 0.048525
vn -0.110198 6.256459 -0.210561
v 0.003160 0.014644 0.044136
vn 2.344196 5.590305 -0.213458
v 0.013512 0.013758 0.046064
vn 1.282755 5.939588 -0.145212
v 0.008536 0.015775 0.058050
vn 5.710573 2.273436 -0.035684
v 0.023915 0.003416 0.068081
vn 4.017307 4.619967 0.064777
v 0.019551 0.010037 0.060699
vn 3.630933 4.679609 0.565248
v 0.018744 0.011011 0.085979
vn 5.566262 2.279184 0.123963
v 0.025781 0.001435 0.086828
vn 1.660165 5.882539 0.431435
v 0.011813 0.014319 0.083586
vn 5.795942 0.350442 0.941134
v 0.027496 -0.007160 0.093510
vn 4.435994 3.367919 1.743328
v 0.022428 0.004508 0.097572
vn 0.330127 4.815092 2.164568
v 0.005857 0.012629 0.104301
vn 2.690528 4.617351 2.850219
v 0.011655 0.003575 0.113624
vn 4.876696 3.300303 1.889592
v 0.015541 -0.002047 0.116077
vn 3.119669 4.961305 1.971755
v 0.011527 0.001299 0.117281
vn 5.139668 2.683061 0.449994
v 0.014515 -0.003915 0.135276
vn 1.372520 5.682189 0.513579
v 0.008110 0.001017 0.134541
vn 3.185780 4.734650 -0.331190
v 0.011729 -0.001228 0.147350
vn 2.944400 4.319346 0.654649
v 0.013060 0.000335 0.163277
vn 5.284719 0.719958 0.345258
v 0.017588 -0.006961 0.161640
vn -0.685675 3.984842 2.305694
v 0.004308 0.001503 0.167417
# 127 vertices, 0 vertices normals

f 12//12 14//14 11//11
f 11//11 14//14 15//15
f 13//13 11//11 15//15
f 13//13 15//15 16//16
f 16//16 1//1 13//13
f 14//14 69//69 70//70
f 14//14 18//18 15//15
f 70//70 18//18 14//14
f 18//18 16//16 15//15
f 16//16 18//18 17//17
f 16//16 17//17 41//41
f 21//21 18//18 19//19
f 73//73 20//20 70//70
f 70//70 20//20 18//18
f 18//18 20//20 19//19
f 18//18 21//21 17//17
f 25//25 21//21 19//19
f 23//23 19//19 20//20
f 25//25 19//19 23//23
f 21//21 24//24 17//17
f 17//17 24//24 41//41
f 21//21 22//22 24//24
f 21//21 25//25 22//22
f 26//26 25//25 23//23
f 27//27 46//46 24//24
f 24//24 22//22 27//27
f 25//25 28//28 22//22
f 25//25 26//26 28//28
f 46//46 27//27 49//49
f 27//27 22//22 28//28
f 28//28 26//26 29//29
f 26//26 86//86 29//29
f 30//30 27//27 28//28
f 49//49 27//27 52//52
f 30//30 52//52 27//27
f 31//31 29//29 86//86
f 28//28 29//29 30//30
f 31//31 30//30 29//29
f 30//30 56//56 52//52
f 30//30 31//31 32//32
f 30//30 32//32 56//56
f 90//90 5//5 31//31
f 31//31 33//33 32//32
f 5//5 33//33 31//31
f 32//32 33//33 34//34
f 94//94 6//6 5//5
f 33//33 5//5 35//35
f 33//33 35//35 34//34
f 97//97 35//35 6//6
f 5//5 6//6 35//35
f 36//36 62//62 34//34
f 34//34 35//35 36//36
f 97//97 96//96 35//35
f 35//35 96//96 37//37
f 37//37 36//36 35//35
f 62//62 36//36 38//38
f 37//37 39//39 36//36
f 36//36 39//39 38//38
f 37//37 96//96 100//100
f 39//39 37//37 100//100
f 39//39 100//100 10//10
f 3//3 4//4 102//102
f 40//40 4//4 3//3
f 1//1 16//16 42//42
f 40//40 1//1 42//42
f 41//41 42//42 16//16
f 42//42 45//45 44//44
f 44//44 43//43 42//42
f 4//4 40//40 42//42
f 4//4 42//42 43//43
f 41//41 24//24 45//45
f 42//42 41//41 45//45
f 4//4 43//43 106//106
f 44//44 47//47 43//43
f 108//108 43//43 47//47
f 45//45 24//24 46//46
f 46//46 44//44 45//45
f 44//44 46//46 48//48
f 48//48 47//47 44//44
f 46//46 49//49 48//48
f 47//47 48//48 51//51
f 51//51 108//108 47//47
f 108//108 51//51 110//110
f 51//51 48//48 50//50
f 48//48 49//49 55//55
f 55//55 50//50 48//48
f 51//51 50//50 54//54
f 49//49 52//52 53//53
f 53//53 55//55 49//49
f 55//55 53//53 57//57
f 50//50 55//55 54//54
f 57//57 54//54 55//55
f 52//52 56//56 53//53
f 57//57 53//53 56//56
f 57//57 56//56 58//58
f 54//54 57//57 118//118
f 118//118 115//115 54//54
f 118//118 57//57 58//58
f 59//59 58//58 56//56
f 56//56 32//32 59//59
f 60//60 58//58 59//59
f 32//32 9//9 59//59
f 32//32 34//34 9//9
f 9//9 34//34 62//62
f 60//60 59//59 9//9
f 9//9 62//62 61//61
f 62//62 38//38 61//61
f 61//61 38//38 64//64
f 39//39 63//63 38//38
f 64//64 38//38 63//63
f 64//64 63//63 127//127
f 39//39 10//10 63//63
f 10//10 127//127 63//63
f 14//14 65//65 69//69
f 65//65 66//66 69//69
f 2//2 72//72 68//68
f 68//68 72//72 67//67
f 68//68 101//101 2//2
f 69//69 73//73 70//70
f 69//69 66//66 73//73
f 66//66 71//71 73//73
f 66//66 72//72 71//71
f 67//67 72//72 66//66
f 72//72 2//2 104//104
f 72//72 74//74 71//71
f 79//79 75//75 73//73
f 73//73 71//71 79//79
f 72//72 104//104 74//74
f 76//76 74//74 104//104
f 73//73 75//75 20//20
f 71//71 74//74 79//79
f 74//74 77//77 79//79
f 75//75 79//79 78//78
f 76//76 77//77 74//74
f 77//77 76//76 80//80
f 20//20 75//75 23//23
f 78//78 83//83 75//75
f 77//77 80//80 79//79
f 78//78 84//84 83//83
f 81//81 78//78 79//79
f 79//79 80//80 81//81
f 83//83 23//23 75//75
f 23//23 83//83 26//26
f 83//83 84//84 87//87
f 78//78 81//81 84//84
f 80//80 82//82 81//81
f 85//85 81//81 82//82
f 116//116 85//85 82//82
f 83//83 86//86 26//26
f 83//83 87//87 86//86
f 81//81 85//85 84//84
f 84//84 85//85 87//87
f 116//116 88//88 85//85
f 85//85 88//88 87//87
f 89//89 88//88 116//116
f 31//31 86//86 90//90
f 90//90 86//86 87//87
f 90//90 94//94 5//5
f 90//90 91//91 94//94
f 87//87 88//88 90//90
f 90//90 88//88 91//91
f 92//92 91//91 88//88
f 89//89 92//92 88//88
f 91//91 6//6 94//94
f 93//93 6//6 91//91
f 91//91 92//92 93//93
f 122//122 93//93 92//92
f 93//93 98//98 95//95
f 7//7 98//98 122//122
f 93//93 122//122 98//98
f 93//93 95//95 6//6
f 6//6 95//95 97//97
f 97//97 95//95 99//99
f 97//97 99//99 96//96
f 126//126 95//95 98//98
f 98//98 7//7 126//126
f 126//126 99//99 95//95
f 100//100 96//96 99//99
f 99//99 126//126 8//8
f 8//8 100//100 99//99
f 8//8 10//10 100//100
f 101//101 102//102 2//2
f 2//2 105//105 104//104
f 103//103 102//102 106//106
f 102//102 4//4 106//106
f 102//102 103//103 2//2
f 2//2 103//103 105//105
f 108//108 106//106 43//43
f 106//106 108//108 109//109
f 103//103 106//106 109//109
f 107//107 105//105 103//103
f 109//109 107//107 103//103
f 105//105 107//107 104//104
f 104//104 107//107 76//76
f 76//76 111//111 80//80
f 76//76 107//107 111//111
f 110//110 109//109 108//108
f 109//109 110//110 112//112
f 112//112 107//107 109//109
f 107//107 112//112 111//111
f 80//80 111//111 82//82
f 110//110 115//115 112//112
f 112//112 115//115 113//113
f 111//111 114//114 82//82
f 111//111 113//113 114//114
f 110//110 51//51 115//115
f 54//54 115//115 51//51
f 111//111 112//112 113//113
f 82//82 114//114 116//116
f 114//114 117//117 116//116
f 113//113 117//117 114//114
f 89//89 116//116 117//117
f 118//118 113//113 115//115
f 118//118 117//117 113//113
f 119//119 117//117 118//118
f 58//58 60//60 119//119
f 60//60 121//121 119//119
f 119//119 121//121 120//120
f 119//119 89//89 117//117
f 119//119 120//120 89//89
f 120//120 92//92 89//89
f 118//118 58//58 119//119
f 120//120 122//122 92//92
f 120//120 121//121 122//122
f 121//121 60//60 123//123
f 60//60 9//9 123//123
f 121//121 123//123 122//122
f 61//61 123//123 9//9
f 122//122 124//124 7//7
f 122//122 123//123 124//124
f 123//123 61//61 124//124
f 61//61 64//64 124//124
f 7//7 124//124 126//126
f 124//124 125//125 126//126
f 124//124 64//64 125//125
f 64//64 127//127 125//125
f 8//8 127//127 10//10
f 126//126 125//125 8//8
f 127//127 8//8 125//125
f 66//66 65//65 67//67
f 1//1 40//40 13//13
f 102//102 101//101 3//3
f 101//101 68//68 3//3
f 14//14 12//12 65//65
f 65//65 12//12 67//67
f 67//67 12//12 68//68
f 68//68 12//12 3//3
f 12//12 11//11 3//3
f 13//13 40//40 11//11
f 11//11 40//40 3//3
# 250 faces, 0 coords texture

# End of File
