####
#
# OBJ File Generated by Meshlab
#
####
# Object tapatio_hot_sauce_250_collision.obj
#
# Vertices: 127
# Faces: 250
#
####
vn -0.377459 0.569548 0.730164
v 0.011170 -0.022507 0.011432
vn 0.101390 0.085140 0.991197
v 0.002934 -0.009606 0.008081
vn 0.064216 0.997912 0.006935
v 0.004811 -0.030458 0.048914
vn 0.130042 0.986669 0.097848
v 0.002633 -0.030886 0.029280
vn 0.999666 0.025390 -0.004872
v -0.018360 -0.008857 0.062186
vn 0.215022 0.976289 -0.025010
v 0.000755 -0.030891 0.086484
vn -0.993555 0.082120 0.078135
v 0.025921 -0.009960 0.034689
vn -0.487331 0.853053 -0.186572
v 0.016301 -0.028107 0.095226
vn -0.035154 -0.516914 0.855316
v 0.006814 0.007748 0.011058
vn -0.216764 -0.942727 0.253534
v 0.008559 0.014255 0.019930
vn 0.228255 -0.823601 0.519212
v 0.000582 0.013150 0.017616
vn -0.072075 -0.991826 -0.105290
v 0.007763 0.014204 0.089081
vn 0.007975 0.902955 -0.429660
v 0.006667 -0.027480 0.104707
vn 0.481126 0.865799 -0.137514
v 0.001391 -0.017151 0.124057
vn -0.237514 0.970842 -0.032464
v 0.008256 -0.019026 0.129342
vn -0.988296 -0.129740 0.080242
v 0.014645 -0.007556 0.142928
vn -0.492105 -0.266211 -0.828833
v 0.013864 -0.004463 0.170662
vn 0.368404 -0.777662 -0.509432
v 0.002511 0.007150 0.110889
vn 0.562473 -0.242779 -0.790369
v -0.001832 -0.005635 0.170118
vn 0.403212 0.508178 0.761036
v -0.007234 -0.019182 0.012571
vn 0.644207 0.731371 0.223816
v -0.006965 -0.026269 0.023764
vn 0.089774 0.846199 0.525250
v 0.003563 -0.027591 0.016091
vn 0.960792 0.135059 0.242151
v -0.017297 -0.009190 0.018670
vn 0.591107 0.267406 0.760977
v -0.012868 -0.011763 0.012343
vn 0.839657 0.536171 0.086586
v -0.012517 -0.019502 0.029226
vn 0.642917 0.763108 0.065759
v -0.007878 -0.025186 0.035040
vn 0.985782 0.150623 0.074473
v -0.017640 -0.008079 0.033693
vn 0.457512 0.889180 0.006427
v -0.007512 -0.027924 0.049953
vn 0.871486 0.488545 0.042843
v -0.015676 -0.019446 0.047790
vn 0.922363 0.385972 -0.016515
v -0.017460 -0.014430 0.073019
vn 0.256770 0.965622 -0.040545
v -0.002366 -0.028845 0.056993
vn 0.556493 0.830756 -0.012636
v -0.007227 -0.026672 0.065133
vn 0.550865 0.805492 -0.218471
v -0.007550 -0.026865 0.089513
vn 0.857634 0.510335 -0.063422
v -0.014870 -0.019602 0.083570
vn 0.867398 0.382157 -0.318711
v -0.014974 -0.014612 0.096500
vn 0.556094 0.737988 -0.382274
v -0.004572 -0.017157 0.113587
vn 0.922167 0.279975 -0.266875
v -0.003623 -0.011833 0.121997
vn 0.999957 0.003078 -0.008703
v -0.004142 -0.008230 0.126058
vn 0.630998 0.774871 0.037635
v -0.000328 -0.015141 0.144143
vn 0.986762 0.143961 0.074680
v -0.003322 -0.010836 0.149610
vn 0.691337 0.713717 -0.112519
v -0.001073 -0.017682 0.161403
vn 0.948576 0.184593 -0.257156
v -0.005515 -0.010423 0.163144
vn 0.695825 -0.236779 0.678058
v -0.013683 -0.003270 0.012811
vn 0.534038 -0.621749 0.572915
v -0.009181 0.004741 0.014146
vn 0.213877 -0.276854 0.936808
v -0.002710 0.000553 0.008859
vn 0.816230 -0.483787 0.315783
v -0.013780 0.002712 0.018476
vn 0.642662 -0.729662 0.233622
v -0.012096 0.008203 0.028137
vn 0.298950 -0.950870 0.080468
v -0.003648 0.014283 0.030527
vn 0.931564 -0.333942 0.143774
v -0.015610 0.003513 0.028002
vn 0.791286 -0.611104 0.020463
v -0.015271 0.007347 0.037435
vn 0.997743 -0.059301 0.031486
v -0.018763 -0.005564 0.044178
vn 0.953625 -0.300615 -0.015169
v -0.017197 -0.000680 0.055016
vn 0.723211 -0.689557 -0.038438
v -0.013125 0.007366 0.050394
vn 0.396065 -0.918189 -0.007883
v -0.004948 0.013708 0.051538
vn 0.280572 -0.959073 -0.038177
v 0.000243 0.016587 0.067068
vn 0.905359 -0.424612 -0.005427
v -0.017271 0.002528 0.067813
vn 0.488601 -0.869292 -0.074833
v -0.006050 0.012502 0.076176
vn 0.988412 -0.030896 -0.148618
v -0.017602 -0.007652 0.091681
vn 0.757862 -0.644614 -0.100585
v -0.013383 0.006458 0.085196
vn 0.360018 -0.923274 -0.133987
v -0.002521 0.013199 0.088463
vn 0.747865 -0.585523 -0.312827
v -0.012236 0.004872 0.098630
vn 0.820014 -0.295954 -0.489887
v -0.013049 -0.004075 0.103943
vn 0.524210 -0.716583 -0.460123
v -0.006121 0.007869 0.101323
vn 0.822825 -0.533654 -0.195380
v -0.002479 -0.000880 0.118503
vn 0.207251 -0.961938 -0.178108
v 0.003144 0.001732 0.122478
vn 0.756830 -0.648791 -0.079239
v -0.002307 -0.000704 0.126234
vn 0.366715 -0.929278 -0.044295
v 0.002430 -0.000952 0.145405
vn 0.876421 -0.481478 -0.008092
v -0.002411 -0.006245 0.144373
vn 0.826808 -0.558277 -0.068676
v -0.002911 -0.002504 0.163591
vn 0.262647 -0.961366 0.082416
v 0.003873 0.001693 0.159251
vn -0.052139 0.317513 0.946820
v 0.006882 -0.019885 0.009285
vn -0.577199 0.004622 0.816591
v 0.020636 -0.007977 0.011822
vn -0.500743 0.822083 0.270990
v 0.014577 -0.026587 0.021025
vn -0.797088 0.367245 0.479356
v 0.023393 -0.014205 0.016372
vn -0.821364 0.564646 0.080849
v 0.021711 -0.021849 0.036064
vn -0.902242 0.413912 0.120981
v 0.023355 -0.019233 0.024852
vn -0.401214 0.913009 0.073762
v 0.013835 -0.028881 0.037236
vn -0.269898 0.962307 0.033468
v 0.012233 -0.030309 0.050959
vn -0.996774 -0.077659 0.020258
v 0.027033 -0.008889 0.048807
vn -0.962600 0.262677 0.066354
v 0.026356 -0.014277 0.043400
vn -0.605598 0.795761 0.003934
v 0.019428 -0.026823 0.063136
vn -0.727470 0.684849 0.042062
v 0.022008 -0.024361 0.055873
vn -0.917926 0.396289 0.019166
v 0.024671 -0.019324 0.057352
vn -0.868715 0.495098 0.014582
v 0.023556 -0.021432 0.074228
vn -0.989429 -0.144094 0.016360
v 0.025846 -0.005321 0.068718
vn 0.130027 0.991493 0.005798
v 0.004515 -0.030485 0.066372
vn -0.226139 0.974095 0.000357
v 0.010473 -0.030441 0.078232
vn -0.668715 0.743398 -0.013399
v 0.021092 -0.025373 0.080924
vn -0.984696 0.173991 0.010051
v 0.025901 -0.014418 0.069313
vn -0.984285 -0.054917 -0.167830
v 0.027496 -0.007160 0.093510
vn 0.054048 0.985288 -0.162133
v 0.005072 -0.031185 0.090532
vn -0.891784 0.447354 -0.067797
v 0.025862 -0.018881 0.087354
vn -0.768862 0.475348 -0.427664
v 0.021596 -0.018207 0.105830
vn -0.899586 -0.283866 -0.331912
v 0.017317 -0.004166 0.116047
vn -0.878757 0.423245 -0.220568
v 0.017145 -0.012141 0.116678
vn -0.907623 0.411825 -0.081365
v 0.015741 -0.013586 0.128741
vn -0.140057 0.936439 -0.321661
v 0.007426 -0.019239 0.117496
vn -0.795645 0.605693 0.009216
v 0.012986 -0.014713 0.142159
vn 0.065986 0.991908 -0.108460
v 0.007153 -0.021185 0.161063
vn -0.258268 0.962458 0.083502
v 0.008782 -0.017944 0.146543
vn -0.992134 0.125063 0.005354
v 0.014637 -0.010527 0.142206
vn -0.689603 0.654272 -0.310444
v 0.014924 -0.016715 0.165573
vn 0.258905 0.568593 -0.780814
v 0.003308 -0.015192 0.170290
vn -0.222730 -0.128774 0.966338
v 0.014290 -0.001812 0.009531
vn -0.939414 -0.172364 0.296298
v 0.024642 -0.004425 0.018297
vn -0.452214 -0.579544 0.677962
v 0.014184 0.007667 0.012693
vn -0.711012 -0.662000 0.237102
v 0.018700 0.008563 0.020633
vn -0.467457 -0.878906 0.094912
v 0.014033 0.012727 0.024789
vn -0.928267 -0.365957 0.066302
v 0.023396 0.002428 0.033167
vn -0.166414 -0.985706 0.026276
v 0.010552 0.014338 0.042630
vn -0.642262 -0.766008 0.027024
v 0.019236 0.010210 0.047061
vn -0.871172 -0.490976 -0.001446
v 0.023164 0.005456 0.071498
vn -0.905721 -0.423699 0.012173
v 0.024113 0.004045 0.055367
vn -0.645955 -0.763325 0.008786
v 0.019293 0.010255 0.064922
vn -0.909365 -0.413334 -0.047013
v 0.026104 0.000666 0.088687
vn -0.144086 -0.987998 -0.055669
v 0.007315 0.015832 0.073125
vn -0.547688 -0.832790 -0.080619
v 0.016737 0.012465 0.084356
vn -0.734618 -0.596511 -0.323283
v 0.021419 0.005582 0.098087
vn -0.047646 -0.931112 -0.361609
v 0.005970 0.012545 0.105093
vn -0.423788 -0.837188 -0.345717
v 0.011128 0.001670 0.116950
vn -0.938087 -0.338792 -0.072200
v 0.014515 -0.003915 0.135276
vn -0.272967 -0.959787 -0.065556
v 0.008110 0.001017 0.134542
vn -0.795117 -0.601517 0.077240
v 0.014287 -0.003381 0.152017
vn -0.263960 -0.960991 0.082589
v 0.009856 -0.000278 0.151163
vn -0.539572 -0.839630 -0.062316
v 0.013060 0.000335 0.163277
vn -0.993760 -0.111335 -0.006829
v 0.017588 -0.006961 0.161640
vn 0.162433 -0.880568 -0.445215
v 0.004308 0.001503 0.167417
# 127 vertices, 0 vertices normals

f 20//20 22//22 71//71
f 71//71 22//22 1//1
f 24//24 43//43 23//23
f 71//71 2//2 20//20
f 24//24 2//2 45//45
f 24//24 20//20 2//2
f 21//21 22//22 20//20
f 21//21 4//4 22//22
f 24//24 21//21 20//20
f 21//21 24//24 23//23
f 25//25 21//21 23//23
f 29//29 26//26 25//25
f 4//4 21//21 26//26
f 21//21 25//25 26//26
f 25//25 23//23 27//27
f 29//29 25//25 27//27
f 28//28 26//26 29//29
f 4//4 26//26 28//28
f 28//28 3//3 4//4
f 28//28 31//31 3//3
f 29//29 27//27 51//51
f 29//29 51//51 5//5
f 32//32 28//28 29//29
f 32//32 29//29 30//30
f 31//31 86//86 3//3
f 31//31 28//28 32//32
f 86//86 31//31 32//32
f 5//5 30//30 29//29
f 33//33 32//32 34//34
f 32//32 30//30 34//34
f 6//6 86//86 32//32
f 6//6 32//32 33//33
f 58//58 30//30 5//5
f 5//5 56//56 58//58
f 91//91 6//6 33//33
f 34//34 30//30 58//58
f 35//35 34//34 58//58
f 13//13 91//91 33//33
f 33//33 36//36 13//13
f 33//33 34//34 35//35
f 35//35 36//36 33//33
f 62//62 35//35 58//58
f 36//36 35//35 37//37
f 37//37 35//35 62//62
f 97//97 13//13 36//36
f 14//14 97//97 36//36
f 37//37 14//14 36//36
f 15//15 97//97 14//14
f 14//14 37//37 39//39
f 39//39 37//37 38//38
f 39//39 100//100 15//15
f 15//15 14//14 39//39
f 68//68 40//40 38//38
f 39//39 38//38 40//40
f 99//99 100//100 39//39
f 99//99 39//39 41//41
f 40//40 41//41 39//39
f 42//42 41//41 40//40
f 99//99 41//41 103//103
f 41//41 42//42 103//103
f 103//103 42//42 19//19
f 24//24 45//45 43//43
f 43//43 44//44 46//46
f 45//45 44//44 43//43
f 44//44 45//45 11//11
f 9//9 11//11 45//45
f 23//23 43//43 46//46
f 23//23 46//46 49//49
f 49//49 27//27 23//23
f 49//49 46//46 47//47
f 46//46 44//44 47//47
f 44//44 11//11 47//47
f 47//47 11//11 48//48
f 48//48 11//11 10//10
f 27//27 49//49 51//51
f 50//50 51//51 49//49
f 49//49 47//47 50//50
f 51//51 50//50 52//52
f 48//48 50//50 47//47
f 50//50 48//48 54//54
f 53//53 52//52 50//50
f 54//54 53//53 50//50
f 48//48 110//110 54//54
f 5//5 51//51 52//52
f 55//55 54//54 110//110
f 52//52 53//53 56//56
f 5//5 52//52 56//56
f 53//53 54//54 55//55
f 56//56 53//53 57//57
f 57//57 59//59 56//56
f 57//57 53//53 55//55
f 57//57 55//55 116//116
f 57//57 116//116 60//60
f 58//58 56//56 59//59
f 59//59 57//57 60//60
f 60//60 61//61 59//59
f 62//62 58//58 61//61
f 61//61 58//58 59//59
f 61//61 63//63 62//62
f 62//62 63//63 18//18
f 63//63 61//61 60//60
f 119//119 63//63 60//60
f 12//12 119//119 60//60
f 63//63 119//119 18//18
f 18//18 64//64 62//62
f 37//37 62//62 64//64
f 18//18 65//65 64//64
f 38//38 37//37 64//64
f 66//66 38//38 64//64
f 64//64 65//65 66//66
f 38//38 66//66 68//68
f 66//66 65//65 67//67
f 68//68 66//66 67//67
f 68//68 67//67 70//70
f 69//69 42//42 40//40
f 40//40 68//68 69//69
f 68//68 70//70 69//69
f 69//69 70//70 127//127
f 19//19 42//42 69//69
f 127//127 19//19 69//69
f 22//22 73//73 1//1
f 71//71 104//104 2//2
f 71//71 1//1 72//72
f 71//71 72//72 104//104
f 74//74 72//72 1//1
f 73//73 22//22 4//4
f 74//74 1//1 73//73
f 76//76 74//74 73//73
f 75//75 73//73 77//77
f 76//76 73//73 75//75
f 76//76 105//105 74//74
f 105//105 76//76 7//7
f 4//4 77//77 73//73
f 77//77 4//4 3//3
f 78//78 82//82 77//77
f 75//75 77//77 82//82
f 75//75 7//7 76//76
f 80//80 7//7 75//75
f 78//78 77//77 3//3
f 83//83 75//75 82//82
f 82//82 78//78 81//81
f 80//80 79//79 7//7
f 80//80 75//75 83//83
f 79//79 80//80 89//89
f 78//78 3//3 86//86
f 87//87 81//81 78//78
f 88//88 81//81 87//87
f 81//81 84//84 82//82
f 83//83 82//82 84//84
f 89//89 80//80 83//83
f 86//86 87//87 78//78
f 87//87 86//86 6//6
f 88//88 87//87 8//8
f 84//84 81//81 88//88
f 89//89 83//83 84//84
f 89//89 90//90 85//85
f 84//84 92//92 89//89
f 92//92 90//90 89//89
f 6//6 91//91 87//87
f 8//8 87//87 91//91
f 92//92 84//84 88//88
f 92//92 88//88 8//8
f 8//8 91//91 13//13
f 8//8 13//13 93//93
f 92//92 8//8 93//93
f 93//93 90//90 92//92
f 93//93 94//94 90//90
f 13//13 97//97 93//93
f 93//93 97//97 95//95
f 95//95 94//94 93//93
f 15//15 95//95 97//97
f 15//15 96//96 95//95
f 96//96 121//121 95//95
f 101//101 96//96 98//98
f 101//101 16//16 121//121
f 121//121 96//96 101//101
f 98//98 96//96 15//15
f 98//98 15//15 100//100
f 98//98 100//100 102//102
f 102//102 100//100 99//99
f 98//98 126//126 101//101
f 16//16 101//101 126//126
f 102//102 126//126 98//98
f 99//99 103//103 102//102
f 126//126 102//102 17//17
f 103//103 17//17 102//102
f 19//19 17//17 103//103
f 45//45 2//2 104//104
f 45//45 104//104 9//9
f 106//106 9//9 104//104
f 72//72 74//74 105//105
f 106//106 104//104 72//72
f 105//105 107//107 106//106
f 106//106 72//72 105//105
f 9//9 106//106 11//11
f 10//10 11//11 106//106
f 109//109 105//105 7//7
f 107//107 105//105 109//109
f 106//106 107//107 10//10
f 10//10 107//107 108//108
f 111//111 108//108 107//107
f 10//10 110//110 48//48
f 10//10 108//108 110//110
f 110//110 108//108 111//111
f 109//109 111//111 107//107
f 109//109 7//7 79//79
f 113//113 109//109 79//79
f 85//85 79//79 89//89
f 113//113 79//79 85//85
f 55//55 110//110 116//116
f 111//111 116//116 110//110
f 116//116 111//111 114//114
f 111//111 109//109 113//113
f 111//111 113//113 114//114
f 113//113 85//85 112//112
f 115//115 112//112 85//85
f 114//114 117//117 116//116
f 114//114 113//113 112//112
f 114//114 112//112 117//117
f 115//115 85//85 90//90
f 118//118 115//115 90//90
f 60//60 116//116 12//12
f 12//12 116//116 117//117
f 115//115 117//117 112//112
f 115//115 118//118 117//117
f 90//90 94//94 118//118
f 117//117 119//119 12//12
f 119//119 117//117 118//118
f 118//118 120//120 119//119
f 65//65 18//18 120//120
f 94//94 120//120 118//118
f 120//120 18//18 119//119
f 121//121 94//94 95//95
f 120//120 94//94 121//121
f 65//65 120//120 122//122
f 67//67 65//65 122//122
f 122//122 120//120 121//121
f 123//123 121//121 16//16
f 123//123 124//124 122//122
f 122//122 121//121 123//123
f 67//67 122//122 124//124
f 70//70 67//67 124//124
f 123//123 16//16 126//126
f 125//125 123//123 126//126
f 70//70 124//124 125//125
f 127//127 70//70 125//125
f 123//123 125//125 124//124
f 127//127 17//17 19//19
f 125//125 126//126 17//17
f 17//17 127//127 125//125
# 250 faces, 0 coords texture

# End of File
