####
#
# OBJ File Generated by Meshlab
#
####
# Object campbells_soup_at_hand_creamy_tomato_250_collision.obj
#
# Vertices: 127
# Faces: 250
#
####
vn -0.879084 0.419945 -0.225516
v -0.021757 0.009785 0.011742
vn 0.660076 -0.099161 -0.744625
v 0.032434 -0.008766 0.005870
vn -0.320641 -0.946600 -0.033721
v -0.003929 -0.035411 0.093640
vn -0.727179 -0.056071 -0.684154
v -0.022776 -0.005871 0.005871
vn 0.020578 0.995350 -0.094100
v 0.005871 0.029149 0.017612
vn 0.894296 -0.445885 -0.037710
v 0.037271 -0.017393 0.082626
vn -0.417523 -0.336159 -0.844199
v -0.015581 -0.019569 0.005871
vn -0.995309 -0.095356 -0.016360
v -0.028640 -0.005424 0.090687
vn -0.648298 0.760948 -0.025825
v -0.016805 0.023584 0.087236
vn -0.248073 0.962819 -0.106956
v -0.000978 0.028198 0.016634
vn -0.043995 -0.999011 -0.006478
v 0.004224 -0.036916 0.098303
vn 0.829942 0.552275 -0.078672
v 0.031311 0.016220 0.017612
vn 0.952065 0.288686 -0.101159
v 0.035275 0.007828 0.015656
vn 0.419429 0.227637 -0.878784
v 0.030465 0.011560 0.005873
vn 0.211285 0.974793 -0.071674
v 0.011492 0.028686 0.024511
vn 0.470417 0.869057 0.153124
v 0.020213 0.029686 0.109309
vn -0.284407 0.205025 -0.936524
v -0.016390 0.013617 0.005871
vn -0.287080 0.957456 -0.029390
v -0.002188 0.031550 0.087900
vn -0.942711 -0.329685 0.051021
v -0.026945 -0.013237 0.103311
vn -0.725857 -0.644881 -0.239291
v -0.017634 -0.021683 0.012141
vn -0.040499 -0.815960 -0.576688
v -0.001957 -0.030113 0.005871
vn 0.870071 -0.455614 -0.188126
v 0.032756 -0.016729 0.015656
vn 0.232376 -0.598799 -0.766447
v 0.013809 -0.028692 0.005871
vn 0.621715 -0.421139 -0.660388
v 0.029367 -0.015937 0.005872
vn 0.600916 -0.798411 -0.037958
v 0.027242 -0.029388 0.083949
vn 0.696045 0.711856 -0.093711
v 0.028400 0.019741 0.018392
vn 0.809679 0.504589 -0.299684
v 0.030728 0.014962 0.008436
vn 0.887099 0.459326 -0.045560
v 0.036844 0.012831 0.086595
vn 0.914682 0.403606 0.021421
v 0.038106 0.011609 0.099240
vn 0.923822 -0.296178 -0.242553
v 0.035593 -0.009945 0.014352
vn -0.775240 0.244244 -0.582536
v -0.021076 0.005854 0.005871
vn 0.158997 0.973587 -0.163854
v 0.009258 0.027708 0.010213
vn 0.023803 0.742678 -0.669226
v 0.004685 0.026997 0.005892
vn 0.309130 0.950628 -0.027303
v 0.015701 0.031361 0.090380
vn -0.033432 0.999426 0.005459
v 0.006309 0.032721 0.093833
vn -0.658613 0.748322 -0.079015
v -0.016439 0.019569 0.019569
vn -0.558630 0.829243 -0.016985
v -0.013699 0.025983 0.086105
vn -0.778048 0.612755 -0.138462
v -0.017607 0.018295 0.019349
vn -0.428948 0.822340 -0.373845
v -0.008196 0.023862 0.005878
vn -0.837773 -0.545983 0.006257
v -0.022574 -0.022146 0.090866
vn -0.547130 -0.836992 0.009676
v -0.015557 -0.029823 0.093880
vn 0.011640 -0.997871 -0.064167
v 0.004795 -0.033064 0.029794
vn -0.425691 -0.903028 -0.057692
v -0.008402 -0.029825 0.027795
vn -0.143253 -0.986672 -0.077185
v 0.000004 -0.032110 0.020594
vn 0.735968 -0.676716 -0.020135
v 0.032204 -0.024870 0.083405
vn 0.977760 -0.209632 -0.006303
v 0.040274 -0.007796 0.086288
vn -0.280711 -0.603495 0.746321
v -0.008438 -0.031934 0.115955
vn -0.266702 -0.957960 0.105750
v -0.003728 -0.035326 0.110250
vn 0.074821 0.920560 0.383368
v 0.009953 0.031601 0.114284
vn -0.244672 0.802121 0.544736
v -0.005763 0.029451 0.115047
vn 0.457214 -0.888927 -0.027662
v 0.023516 -0.031768 0.085118
vn 0.080900 -0.922847 0.376574
v 0.011093 -0.035991 0.114687
vn 0.413749 0.848794 -0.329180
v 0.019569 0.025440 0.008948
vn 0.789896 0.610789 0.054774
v 0.033475 0.019475 0.099234
vn 0.899003 0.430983 -0.077770
v 0.033844 0.011745 0.019148
vn 0.980751 -0.179556 -0.076728
v 0.035761 -0.009788 0.015548
vn 0.974422 0.222687 -0.030215
v 0.039944 0.003914 0.084148
vn -0.957340 0.288811 -0.009379
v -0.027541 0.006713 0.090782
vn -0.981142 0.108087 -0.160243
v -0.024971 -0.000234 0.014500
vn -0.981208 0.184697 -0.055838
v -0.024526 0.003914 0.019569
vn -0.685635 -0.325963 -0.650886
v -0.021880 -0.009802 0.005871
vn 0.163999 0.983473 -0.076719
v 0.007828 0.029201 0.021526
vn 0.135352 0.990730 -0.011549
v 0.009783 0.032525 0.092028
vn -0.710439 0.678586 -0.186539
v -0.013110 0.020793 0.010217
vn -0.733389 0.679257 -0.027392
v -0.018898 0.021526 0.086105
vn -0.613283 0.785889 -0.079141
v -0.011913 0.023623 0.019569
vn -0.451176 0.892139 -0.022998
v -0.008668 0.028659 0.077092
vn -0.743759 0.610055 0.273232
v -0.019605 0.020543 0.113197
vn -0.976566 -0.214397 -0.018778
v -0.027569 -0.010788 0.087691
vn -0.834981 -0.534889 -0.129234
v -0.023483 -0.015867 0.019578
vn -0.583487 -0.808365 -0.078030
v -0.012523 -0.027084 0.020287
vn 0.186300 -0.970040 -0.155934
v 0.011758 -0.031535 0.013033
vn 0.671841 -0.734824 -0.093077
v 0.026926 -0.024463 0.017349
vn 0.234584 -0.971994 -0.014048
v 0.013056 -0.036094 0.093086
vn 0.191262 -0.494688 0.847764
v 0.019789 -0.031058 0.117223
vn 0.505400 -0.851073 0.142290
v 0.024993 -0.031270 0.112434
vn 0.832602 -0.553813 -0.008032
v 0.035798 -0.020088 0.085523
vn 0.984705 -0.171150 0.032600
v 0.040692 -0.004892 0.102739
vn -0.100821 0.275479 0.956005
v -0.000730 0.028192 0.117252
vn 0.318888 0.523000 0.790431
v 0.022308 0.026226 0.117199
vn -0.093977 0.968669 0.229888
v 0.002969 0.031629 0.113351
vn 0.785155 -0.597135 -0.164198
v 0.030325 -0.020610 0.015285
vn 0.776238 0.286524 0.561568
v 0.036851 0.010843 0.115840
vn 0.993075 0.097611 0.065369
v 0.040781 -0.000469 0.107005
vn 0.915789 -0.153306 0.371251
v 0.039684 -0.005208 0.116210
vn 0.931745 0.140883 -0.334669
v 0.035633 0.002742 0.010568
vn 0.947009 0.319206 -0.035811
v 0.039092 0.007514 0.085872
vn 0.981405 -0.034705 -0.188786
v 0.036133 -0.001365 0.012271
vn 0.964929 -0.261991 -0.016489
v 0.039539 -0.011687 0.085634
vn -0.963321 -0.241880 -0.116218
v -0.023592 -0.015656 0.019570
vn -0.998731 0.013099 -0.048622
v -0.025167 -0.001297 0.018633
vn -0.961052 -0.067327 0.268042
v -0.028204 -0.005383 0.112260
vn -0.814714 0.564091 -0.134322
v -0.019589 0.015471 0.019241
vn -0.889897 0.449517 -0.077576
v -0.022251 0.011414 0.021132
vn -0.152824 0.987929 -0.025314
v 0.000000 0.031980 0.088062
vn 0.596848 0.800720 0.051185
v 0.026384 0.026594 0.102388
vn -0.408442 0.909277 -0.079936
v -0.007816 0.026266 0.021248
vn -0.919153 -0.393711 -0.012189
v -0.026369 -0.015655 0.088679
vn -0.731404 -0.681438 -0.026258
v -0.019747 -0.025779 0.091601
vn -0.764707 -0.535389 0.358583
v -0.020287 -0.024239 0.114927
vn -0.389398 -0.805727 -0.446288
v -0.005837 -0.029352 0.005871
vn 0.385196 -0.917615 -0.098013
v 0.018082 -0.029912 0.016756
vn 0.346974 -0.937160 -0.036603
v 0.018956 -0.033818 0.083746
vn -0.019369 -0.993656 -0.110780
v 0.006360 -0.032066 0.016634
vn -0.027632 -0.287740 0.957310
v 0.007036 -0.033289 0.117003
vn 0.928757 -0.360567 -0.086039
v 0.035239 -0.011691 0.016851
vn 0.901163 -0.388332 0.192620
v 0.037887 -0.015195 0.114913
vn -0.335396 0.265891 0.903776
v -0.014368 0.021336 0.116943
vn -0.496773 0.036325 0.867120
v -0.025615 0.001127 0.115584
vn -0.901317 0.279873 0.330604
v -0.026337 0.008219 0.112418
vn 0.538584 -0.810906 -0.228822
v 0.022983 -0.026994 0.012486
vn 0.970587 0.238863 0.030080
v 0.039645 0.005794 0.102984
vn 0.999178 -0.024163 -0.032556
v 0.040835 -0.002799 0.086251
vn 0.989391 0.140667 -0.036297
v 0.040376 0.001938 0.084959
vn -0.868371 0.495881 -0.005832
v -0.023663 0.015353 0.089777
vn -0.947183 0.308481 -0.087654
v -0.023513 0.007924 0.019569
vn -0.145747 0.980458 -0.132134
v 0.001981 0.028748 0.016332
vn -0.085648 0.995510 -0.040310
v 0.002935 0.032241 0.086105
vn -0.258317 0.964837 0.048591
v -0.002673 0.031416 0.108121
vn -0.172283 -0.984879 -0.018217
v -0.000001 -0.036325 0.096149
vn 0.752573 0.613039 0.240454
v 0.033738 0.017549 0.114167
vn -0.916969 0.397873 -0.029408
v -0.025462 0.011570 0.085917
vn -0.791449 0.610895 -0.020403
v -0.020933 0.019109 0.087532
vn -0.521714 0.795816 0.307395
v -0.010183 0.027899 0.113472
vn 0.498740 -0.399002 0.769452
v 0.031076 -0.024756 0.117269
vn -0.993873 0.110374 -0.005897
v -0.028246 0.002044 0.087887
vn -0.684742 0.728265 0.027532
v -0.017678 0.022800 0.108527
# 127 vertices, 0 vertices normals

f 24//24 2//2 30//30
f 14//14 33//33 53//53
f 14//14 53//53 27//27
f 17//17 31//31 1//1
f 44//44 42//42 11//11
f 79//79 108//108 105//105
f 79//79 105//105 75//75
f 22//22 24//24 30//30
f 24//24 111//111 23//23
f 26//26 53//53 96//96
f 27//27 53//53 26//26
f 26//26 12//12 27//27
f 87//87 13//13 55//55
f 31//31 4//4 59//59
f 20//20 61//61 7//7
f 90//90 4//4 61//61
f 32//32 53//53 33//33
f 53//53 34//34 96//96
f 15//15 34//34 53//53
f 32//32 15//15 53//53
f 36//36 64//64 38//38
f 98//98 70//70 40//40
f 98//98 90//90 70//70
f 99//99 70//70 20//20
f 120//120 44//44 11//11
f 120//120 3//3 44//44
f 41//41 71//71 43//43
f 44//44 101//101 21//21
f 44//44 21//21 104//104
f 79//79 75//75 125//125
f 79//79 125//125 80//80
f 109//109 47//47 108//108
f 105//105 108//108 47//47
f 49//49 50//50 79//79
f 22//22 82//82 24//24
f 23//23 111//111 72//72
f 72//72 21//21 23//23
f 49//49 63//63 35//35
f 54//54 28//28 12//12
f 55//55 27//27 12//12
f 55//55 12//12 28//28
f 55//55 13//13 27//27
f 28//28 87//87 55//55
f 30//30 2//2 88//88
f 56//56 113//113 46//46
f 113//113 84//84 78//78
f 113//113 88//88 114//114
f 57//57 114//114 13//13
f 86//86 14//14 27//27
f 59//59 90//90 91//91
f 59//59 4//4 90//90
f 61//61 20//20 70//70
f 61//61 70//70 90//90
f 32//32 33//33 5//5
f 62//62 32//32 5//5
f 62//62 5//5 63//63
f 63//63 5//5 35//35
f 96//96 34//34 16//16
f 16//16 34//34 63//63
f 65//65 9//9 36//36
f 65//65 36//36 38//38
f 66//66 39//39 64//64
f 66//66 9//9 37//37
f 93//93 94//94 115//115
f 64//64 17//17 38//38
f 50//50 119//119 124//124
f 110//110 109//109 108//108
f 110//110 108//108 68//68
f 69//69 90//90 98//98
f 102//102 72//72 111//111
f 73//73 111//111 82//82
f 51//51 103//103 102//102
f 101//101 43//43 71//71
f 43//43 101//101 3//3
f 104//104 42//42 44//44
f 6//6 82//82 22//22
f 6//6 77//77 82//82
f 78//78 46//46 113//113
f 47//47 109//109 100//100
f 52//52 47//47 48//48
f 50//50 124//124 79//79
f 82//82 77//77 45//45
f 81//81 49//49 35//35
f 96//96 54//54 26//26
f 26//26 54//54 12//12
f 83//83 125//125 85//85
f 83//83 80//80 125//125
f 86//86 114//114 88//88
f 86//86 13//13 114//114
f 86//86 27//27 13//13
f 28//28 29//29 87//87
f 88//88 56//56 30//30
f 89//89 56//56 46//46
f 89//89 6//6 106//106
f 89//89 106//106 56//56
f 114//114 84//84 113//113
f 87//87 57//57 13//13
f 112//112 114//114 57//57
f 14//14 86//86 2//2
f 86//86 88//88 2//2
f 90//90 69//69 8//8
f 91//91 90//90 8//8
f 20//20 101//101 71//71
f 92//92 8//8 19//19
f 115//115 94//94 122//122
f 93//93 17//17 1//1
f 93//93 38//38 17//17
f 93//93 1//1 94//94
f 94//94 1//1 116//116
f 59//59 116//116 1//1
f 59//59 1//1 31//31
f 59//59 91//91 60//60
f 117//117 33//33 39//39
f 117//117 5//5 33//33
f 15//15 62//62 63//63
f 15//15 63//63 34//34
f 15//15 32//32 62//62
f 118//118 35//35 5//5
f 118//118 5//5 117//117
f 95//95 10//10 18//18
f 95//95 117//117 10//10
f 95//95 18//18 119//119
f 95//95 119//119 35//35
f 95//95 35//35 118//118
f 49//49 16//16 63//63
f 9//9 64//64 36//36
f 123//123 65//65 38//38
f 66//66 64//64 9//9
f 67//67 66//66 37//37
f 67//67 97//97 66//66
f 97//97 18//18 10//10
f 97//97 67//67 18//18
f 123//123 93//93 115//115
f 123//123 38//38 93//93
f 17//17 64//64 39//39
f 17//17 4//4 31//31
f 17//17 39//39 33//33
f 17//17 61//61 4//4
f 17//17 7//7 61//61
f 17//17 101//101 7//7
f 17//17 33//33 14//14
f 17//17 21//21 101//101
f 17//17 23//23 21//21
f 17//17 24//24 23//23
f 17//17 2//2 24//24
f 17//17 14//14 2//2
f 97//97 39//39 66//66
f 92//92 109//109 110//110
f 69//69 19//19 8//8
f 99//99 40//40 70//70
f 99//99 100//100 40//40
f 41//41 99//99 71//71
f 100//100 99//99 41//41
f 20//20 71//71 99//99
f 41//41 43//43 3//3
f 41//41 3//3 48//48
f 101//101 44//44 3//3
f 74//74 52//52 11//11
f 48//48 3//3 120//120
f 103//103 74//74 72//72
f 103//103 72//72 102//102
f 102//102 111//111 51//51
f 72//72 74//74 42//42
f 72//72 42//42 104//104
f 76//76 125//125 75//75
f 105//105 52//52 75//75
f 77//77 125//125 45//45
f 106//106 6//6 22//22
f 106//106 22//22 30//30
f 6//6 89//89 107//107
f 85//85 107//107 89//89
f 46//46 85//85 89//89
f 46//46 78//78 85//85
f 108//108 79//79 124//124
f 108//108 124//124 68//68
f 52//52 105//105 47//47
f 11//11 52//52 48//48
f 80//80 49//49 79//79
f 81//81 50//50 49//49
f 72//72 104//104 21//21
f 24//24 82//82 111//111
f 51//51 111//111 25//25
f 73//73 45//45 25//25
f 73//73 25//25 111//111
f 16//16 49//49 80//80
f 29//29 28//28 54//54
f 54//54 121//121 29//29
f 112//112 83//83 84//84
f 83//83 112//112 29//29
f 83//83 29//29 121//121
f 113//113 56//56 88//88
f 114//114 112//112 84//84
f 87//87 112//112 57//57
f 29//29 112//112 87//87
f 115//115 122//122 58//58
f 126//126 58//58 60//60
f 20//20 7//7 101//101
f 116//116 59//59 60//60
f 116//116 60//60 58//58
f 122//122 116//116 58//58
f 122//122 94//94 116//116
f 39//39 10//10 117//117
f 39//39 97//97 10//10
f 118//118 117//117 95//95
f 119//119 18//18 67//67
f 124//124 67//67 37//37
f 124//124 37//37 9//9
f 81//81 119//119 50//50
f 127//127 68//68 124//124
f 92//92 126//126 8//8
f 100//100 109//109 92//92
f 69//69 98//98 19//19
f 40//40 19//19 98//98
f 40//40 100//100 19//19
f 120//120 11//11 48//48
f 103//103 51//51 74//74
f 76//76 74//74 51//51
f 11//11 42//42 74//74
f 76//76 75//75 52//52
f 45//45 76//76 25//25
f 107//107 125//125 77//77
f 56//56 106//106 30//30
f 107//107 77//77 6//6
f 47//47 100//100 41//41
f 80//80 121//121 16//16
f 9//9 127//127 124//124
f 45//45 73//73 82//82
f 54//54 16//16 121//121
f 54//54 96//96 16//16
f 81//81 35//35 119//119
f 121//121 80//80 83//83
f 85//85 125//125 107//107
f 110//110 115//115 58//58
f 91//91 8//8 126//126
f 100//100 92//92 19//19
f 110//110 58//58 126//126
f 126//126 92//92 110//110
f 127//127 9//9 65//65
f 127//127 65//65 123//123
f 119//119 67//67 124//124
f 68//68 115//115 110//110
f 68//68 123//123 115//115
f 123//123 68//68 127//127
f 48//48 47//47 41//41
f 76//76 51//51 25//25
f 74//74 76//76 52//52
f 125//125 76//76 45//45
f 85//85 78//78 84//84
f 126//126 60//60 91//91
f 85//85 84//84 83//83
# 250 faces, 0 coords texture

# End of File
