####
#
# OBJ File Generated by Meshlab
#
####
# Object softsoap_green_250_collision.obj
#
# Vertices: 113
# Faces: 222
#
####
vn -0.199509 0.070480 0.977358
v 0.000000 0.011742 0.142871
vn 0.435179 0.802002 -0.409160
v 0.021183 0.017612 0.045010
vn 0.486855 -0.863403 0.132312
v 0.011090 -0.033268 0.068493
vn -0.372520 0.884855 -0.279752
v -0.011742 0.013915 0.041096
vn -0.657021 -0.734891 0.168103
v -0.014450 -0.023483 0.086105
vn 0.945929 -0.028139 0.323151
v 0.015656 -0.003914 0.135797
vn 0.832567 -0.317602 -0.453828
v 0.023483 -0.009785 0.033692
vn -0.040206 0.995227 0.088923
v 0.016682 0.025440 0.072407
vn -0.356293 -0.920439 -0.160772
v -0.015651 -0.025440 0.045010
vn -0.852980 0.247831 0.459352
v -0.011742 0.001957 0.138175
vn -0.120052 -0.946765 0.298704
v 0.001957 -0.017016 0.138943
vn 0.285611 0.226487 -0.931198
v 0.021073 0.005871 0.033268
vn 0.860437 -0.508413 0.034128
v 0.017612 -0.025103 0.046967
vn 0.997812 -0.004357 0.065974
v 0.025554 -0.001957 0.039139
vn -0.589272 0.807138 0.035884
v -0.006843 0.017612 0.078278
vn -0.120079 0.946750 -0.298738
v 0.014859 0.023483 0.056751
vn 0.970316 0.226568 0.084581
v 0.019539 0.023483 0.060665
vn 0.809229 0.204089 0.550906
v 0.009785 0.013699 0.141932
vn -0.215884 -0.975697 -0.037534
v 0.003914 -0.033268 0.063311
vn 0.013581 -0.617297 -0.786613
v -0.013699 -0.019569 0.037512
vn -0.878753 -0.028430 -0.476429
v -0.021526 -0.010311 0.037182
vn 0.869274 -0.381344 0.314546
v 0.013699 -0.011742 0.137172
vn -0.777626 -0.567712 0.270187
v -0.007828 -0.011742 0.135647
vn -0.417650 -0.312540 0.853163
v -0.003914 -0.013699 0.141731
vn 0.633116 0.547827 -0.546854
v 0.022833 0.011742 0.037182
vn 0.388160 0.017572 -0.921425
v 0.023483 -0.003670 0.033268
vn -0.293149 0.112169 -0.949464
v -0.017612 -0.004204 0.033268
vn 0.945582 -0.324721 0.020758
v 0.021569 -0.015656 0.039139
vn -0.280454 0.959789 0.012260
v 0.009051 0.023483 0.076321
vn -0.592984 0.714092 0.372080
v -0.001957 0.013699 0.140645
vn -0.853858 0.516600 0.063642
v -0.008503 0.015656 0.076321
vn 0.983902 0.147053 0.101550
v 0.021714 0.013699 0.056751
vn -0.023534 0.996592 -0.079057
v 0.017871 0.025440 0.064579
vn 0.834990 0.544116 0.082032
v 0.018166 0.025440 0.068493
vn -0.455055 -0.887801 0.068809
v -0.013699 -0.024421 0.080235
vn 0.202895 -0.879410 -0.430663
v 0.014285 -0.029354 0.048923
vn -0.143615 -0.983432 0.110614
v 0.005871 -0.033268 0.068850
vn 0.156598 -0.398215 -0.903826
v 0.021526 -0.011742 0.033522
vn -0.843127 0.458043 -0.281663
v -0.017612 0.001957 0.035979
vn -0.450546 -0.581769 -0.677166
v -0.017612 -0.023258 0.041096
vn -0.884881 -0.388324 0.257274
v -0.011742 -0.005871 0.135678
vn 0.340735 -0.841937 0.418380
v 0.007828 -0.016940 0.138943
vn 0.739425 -0.667945 0.084268
v 0.011742 -0.033268 0.063744
vn 0.703898 -0.111226 0.701539
v 0.013699 -0.007828 0.138426
vn 0.977844 -0.207125 0.030343
v 0.025440 -0.003288 0.037182
vn 0.081006 -0.073779 0.993979
v 0.003914 -0.005871 0.142437
vn -0.149253 -0.719049 0.678743
v 0.000000 -0.015656 0.141435
vn -0.283016 0.521310 -0.805070
v -0.012003 0.009785 0.037182
vn 0.072032 0.781025 -0.620332
v 0.021421 0.013699 0.039139
vn 0.922644 0.385584 0.007314
v 0.019591 0.023483 0.058708
vn 0.764842 0.161659 -0.623605
v 0.025039 0.000000 0.035225
vn -0.225539 -0.346824 -0.910409
v -0.013635 -0.013699 0.033268
vn 0.652141 -0.643546 -0.400699
v 0.018612 -0.023483 0.043053
vn -0.360251 0.931043 -0.058113
v -0.008994 0.015656 0.048923
vn -0.813808 0.565061 0.135732
v -0.009785 0.005630 0.136986
vn -0.487863 0.362119 0.794267
v -0.001957 0.011742 0.141947
vn -0.360020 0.932186 0.037612
v -0.005871 0.018021 0.078278
vn -0.244526 0.792729 0.558379
v 0.003914 0.015656 0.142723
vn -0.817291 0.575779 0.022649
v -0.012023 0.013699 0.043053
vn 0.975578 0.176086 0.131307
v 0.015656 -0.001957 0.134341
vn 0.980866 0.173425 -0.088467
v 0.025440 0.001957 0.036672
vn -0.276411 0.955198 -0.105798
v 0.013699 0.024122 0.062622
vn 0.382947 0.527678 0.758227
v 0.007828 0.015656 0.142297
vn -0.053516 -0.960287 -0.273835
v 0.005871 -0.032735 0.060665
vn -0.689089 0.356461 -0.630945
v -0.017612 0.001101 0.035225
vn -0.632251 -0.719828 -0.286542
v -0.017612 -0.023483 0.041400
vn -0.982479 -0.180324 -0.047092
v -0.021526 -0.011742 0.038043
vn -0.806212 -0.539931 0.241861
v -0.009785 -0.009785 0.133599
vn -0.900275 -0.168712 0.401300
v -0.011742 -0.003914 0.137454
vn 0.630120 -0.574536 0.522357
v 0.009266 -0.015656 0.138943
vn 0.083563 -0.986849 0.138373
v 0.010187 -0.033268 0.070450
vn 0.226922 -0.971963 -0.061605
v 0.011843 -0.033268 0.062622
vn 0.768507 0.037954 0.638715
v 0.013010 0.001957 0.138943
vn -0.006109 -0.046232 0.998912
v 0.001957 -0.003914 0.142611
vn 0.465215 -0.173984 0.867932
v 0.007828 -0.013699 0.140807
vn 0.070764 -0.837375 0.542029
v 0.005871 -0.016063 0.140900
vn 0.021580 -0.122197 0.992271
v 0.003914 -0.013699 0.141721
vn -0.368888 0.671717 -0.642431
v -0.011742 0.013699 0.040845
vn 0.895037 0.445649 -0.017470
v 0.019586 0.023483 0.056751
vn 0.925861 0.376978 0.025871
v 0.019569 0.023483 0.059833
vn 0.739860 0.231734 -0.631591
v 0.024463 0.001957 0.035225
vn 0.933670 -0.025922 -0.357196
v 0.025440 -0.002838 0.035225
vn 0.005348 -0.014764 -0.999877
v 0.019569 -0.005582 0.033268
vn -0.058533 -0.659925 -0.749048
v -0.015854 -0.021526 0.039139
vn 0.064462 -0.656236 -0.751797
v 0.016738 -0.021526 0.041096
vn -0.789334 0.610947 0.060783
v -0.007828 0.016737 0.076321
vn -0.203197 0.974273 0.097484
v 0.009785 0.023483 0.077891
vn -0.770039 0.574535 -0.277399
v -0.011929 0.013699 0.041096
vn 0.980285 0.175117 0.091511
v 0.021526 0.014901 0.056751
vn 0.971357 0.204267 0.121407
v 0.018197 0.019569 0.078278
vn 0.969793 0.146073 0.195357
v 0.015656 -0.002827 0.135029
vn -0.297751 0.948846 -0.105046
v -0.008387 0.015656 0.046967
vn 0.276104 0.956327 0.095944
v 0.017625 0.025440 0.070450
vn 0.081130 0.660782 0.746180
v 0.005871 0.015656 0.142537
vn 0.116249 -0.028880 0.992800
v 0.003914 -0.003914 0.142533
vn -0.917258 -0.267104 0.295454
v -0.011742 -0.004437 0.136986
vn 0.529264 -0.055625 0.846632
v 0.011742 -0.001957 0.140329
vn -0.090675 -0.032085 0.995364
v 0.000000 -0.003914 0.142463
vn -0.000619 -0.089021 0.996030
v 0.001957 -0.005871 0.142437
vn 0.282392 -0.039079 0.958503
v 0.009785 0.007828 0.141827
vn 0.578714 -0.278872 0.766368
v 0.011742 -0.011829 0.138943
vn 0.330430 -0.339837 0.880527
v 0.005871 -0.015656 0.141391
vn 0.514326 0.836948 -0.187048
v 0.019569 0.023483 0.056342
vn 0.962585 0.079520 -0.259051
v 0.025440 0.000000 0.036015
vn 0.999405 -0.018610 -0.029052
v 0.025543 -0.001957 0.037182
vn 0.978187 0.175849 0.110573
v 0.020819 0.017612 0.058708
vn 0.978632 0.193923 0.068364
v 0.021527 0.015656 0.054794
vn 0.971594 0.204491 0.119112
v 0.018824 0.023483 0.066536
vn 0.968088 0.216180 0.126773
v 0.017942 0.019569 0.080235
vn 0.070860 0.002801 0.997482
v 0.003914 0.013699 0.142778
vn 0.586961 -0.379563 0.715128
v 0.010544 -0.013699 0.138943
vn 0.516104 -0.163291 0.840817
v 0.011742 -0.011742 0.138965
vn 0.978619 0.191863 0.074123
v 0.021526 0.015656 0.054808
# 113 vertices, 0 vertices normals

f 16//16 2//2 4//4
f 24//24 1//1 10//10
f 24//24 23//23 5//5
f 33//33 29//29 8//8
f 35//35 19//19 5//5
f 35//35 5//5 9//9
f 35//35 9//9 19//19
f 37//37 11//11 5//5
f 37//37 5//5 19//19
f 38//38 26//26 7//7
f 39//39 21//21 10//10
f 41//41 23//23 24//24
f 43//43 22//22 3//3
f 43//43 13//13 22//22
f 44//44 22//22 6//6
f 45//45 14//14 6//6
f 45//45 6//6 22//22
f 45//45 22//22 28//28
f 45//45 28//28 7//7
f 47//47 24//24 5//5
f 47//47 5//5 11//11
f 48//48 25//25 12//12
f 48//48 12//12 27//27
f 49//49 4//4 2//2
f 49//49 2//2 25//25
f 51//51 26//26 12//12
f 52//52 21//21 27//27
f 52//52 40//40 21//21
f 52//52 38//38 20//20
f 53//53 28//28 22//22
f 53//53 22//22 13//13
f 53//53 38//38 7//7
f 53//53 7//7 28//28
f 53//53 13//13 36//36
f 54//54 4//4 15//15
f 55//55 30//30 15//15
f 55//55 10//10 30//30
f 56//56 30//30 10//10
f 56//56 10//10 1//1
f 57//57 15//15 30//30
f 57//57 54//54 15//15
f 57//57 29//29 54//54
f 58//58 56//56 1//1
f 58//58 30//30 56//56
f 58//58 57//57 30//30
f 58//58 29//29 57//57
f 59//59 55//55 31//31
f 59//59 15//15 4//4
f 59//59 39//39 10//10
f 59//59 10//10 55//55
f 60//60 34//34 18//18
f 61//61 32//32 60//60
f 61//61 25//25 50//50
f 61//61 60//60 14//14
f 62//62 33//33 16//16
f 62//62 16//16 4//4
f 62//62 54//54 29//29
f 62//62 29//29 33//33
f 63//63 18//18 34//34
f 64//64 19//19 9//9
f 64//64 9//9 36//36
f 65//65 27//27 21//21
f 65//65 21//21 39//39
f 65//65 48//48 27//27
f 65//65 39//39 48//48
f 66//66 40//40 36//36
f 66//66 36//36 9//9
f 66//66 9//9 5//5
f 67//67 5//5 41//41
f 67//67 10//10 21//21
f 67//67 66//66 5//5
f 67//67 21//21 40//40
f 67//67 40//40 66//66
f 68//68 41//41 5//5
f 68//68 5//5 23//23
f 68//68 23//23 41//41
f 69//69 24//24 10//10
f 69//69 10//10 67//67
f 70//70 42//42 3//3
f 70//70 3//3 22//22
f 71//71 3//3 42//42
f 71//71 42//42 11//11
f 71//71 11//11 37//37
f 72//72 36//36 13//13
f 72//72 13//13 43//43
f 72//72 64//64 36//36
f 72//72 19//19 64//64
f 72//72 71//71 37//37
f 72//72 37//37 19//19
f 72//72 43//43 3//3
f 72//72 3//3 71//71
f 73//73 44//44 6//6
f 73//73 6//6 18//18
f 76//76 47//47 11//11
f 76//76 11//11 42//42
f 77//77 46//46 24//24
f 77//77 24//24 47//47
f 78//78 25//25 48//48
f 78//78 48//48 39//39
f 78//78 49//49 25//25
f 78//78 4//4 49//49
f 79//79 50//50 25//25
f 79//79 25//25 2//2
f 79//79 34//34 50//50
f 80//80 50//50 34//34
f 80//80 34//34 17//17
f 80//80 61//61 50//50
f 80//80 17//17 61//61
f 81//81 51//51 12//12
f 81//81 12//12 25//25
f 81//81 61//61 51//51
f 81//81 25//25 61//61
f 82//82 45//45 7//7
f 82//82 7//7 26//26
f 82//82 26//26 51//51
f 83//83 26//26 38//38
f 83//83 38//38 52//52
f 83//83 12//12 26//26
f 83//83 52//52 27//27
f 83//83 27//27 12//12
f 84//84 52//52 20//20
f 84//84 40//40 52//52
f 84//84 53//53 36//36
f 84//84 36//36 40//40
f 85//85 20//20 38//38
f 85//85 38//38 53//53
f 85//85 84//84 20//20
f 85//85 53//53 84//84
f 86//86 55//55 15//15
f 86//86 31//31 55//55
f 86//86 59//59 31//31
f 86//86 15//15 59//59
f 87//87 58//58 8//8
f 87//87 8//8 29//29
f 87//87 29//29 58//58
f 88//88 59//59 4//4
f 88//88 39//39 59//59
f 88//88 78//78 39//39
f 88//88 4//4 78//78
f 89//89 32//32 61//61
f 89//89 60//60 32//32
f 90//90 60//60 17//17
f 91//91 6//6 14//14
f 91//91 14//14 60//60
f 91//91 60//60 18//18
f 91//91 18//18 6//6
f 92//92 62//62 4//4
f 92//92 4//4 54//54
f 92//92 54//54 62//62
f 93//93 63//63 34//34
f 93//93 8//8 63//63
f 93//93 34//34 33//33
f 93//93 33//33 8//8
f 94//94 63//63 8//8
f 94//94 8//8 58//58
f 95//95 74//74 46//46
f 96//96 41//41 24//24
f 96//96 24//24 69//69
f 96//96 69//69 67//67
f 96//96 67//67 41//41
f 97//97 73//73 18//18
f 97//97 44//44 73//73
f 98//98 74//74 1//1
f 98//98 1//1 24//24
f 98//98 24//24 74//74
f 99//99 74//74 24//24
f 99//99 24//24 46//46
f 99//99 46//46 74//74
f 100//100 97//97 18//18
f 100//100 95//95 46//46
f 100//100 18//18 63//63
f 100//100 63//63 95//95
f 101//101 22//22 44//44
f 102//102 76//76 42//42
f 102//102 42//42 70//70
f 102//102 75//75 97//97
f 102//102 101//101 75//75
f 102//102 77//77 47//47
f 102//102 47//47 76//76
f 102//102 46//46 77//77
f 102//102 100//100 46//46
f 102//102 97//97 100//100
f 103//103 79//79 2//2
f 103//103 2//2 16//16
f 103//103 16//16 33//33
f 103//103 33//33 34//34
f 103//103 34//34 79//79
f 104//104 82//82 51//51
f 104//104 51//51 61//61
f 105//105 14//14 45//45
f 105//105 45//45 82//82
f 105//105 82//82 104//104
f 105//105 104//104 61//61
f 105//105 61//61 14//14
f 106//106 89//89 17//17
f 106//106 17//17 60//60
f 106//106 60//60 89//89
f 107//107 89//89 61//61
f 107//107 61//61 17//17
f 108//108 90//90 17//17
f 108//108 17//17 34//34
f 108//108 34//34 90//90
f 109//109 90//90 34//34
f 109//109 34//34 60//60
f 109//109 60//60 90//90
f 110//110 95//95 63//63
f 110//110 63//63 94//94
f 110//110 94//94 58//58
f 110//110 58//58 1//1
f 110//110 1//1 74//74
f 110//110 74//74 95//95
f 111//111 70//70 22//22
f 111//111 22//22 101//101
f 111//111 102//102 70//70
f 111//111 101//101 102//102
f 112//112 97//97 75//75
f 112//112 75//75 101//101
f 112//112 101//101 44//44
f 112//112 44//44 97//97
f 113//113 107//107 17//17
f 113//113 17//17 89//89
f 113//113 89//89 107//107
# 222 faces, 0 coords texture

# End of File
