####
#
# OBJ File Generated by Meshlab
#
####
# Object nature_valley_granola_thins_dark_chocolate_250_collision.obj
#
# Vertices: 127
# Faces: 250
#
####
vn -0.269250 0.058417 0.961297
v 0.008993 -0.029899 0.000217
vn 0.076526 -0.020766 0.996851
v 0.000167 0.005549 -0.000304
vn -0.476765 0.851911 0.216663
v 0.005619 -0.066078 0.012246
vn -0.143179 0.036375 0.989028
v 0.011237 0.006712 -0.000237
vn 0.206080 -0.053689 0.977061
v 0.002184 0.037889 0.000151
vn 0.040824 0.023208 -0.998897
v 0.004491 -0.002413 0.145478
vn 0.965269 -0.259772 -0.027839
v -0.018029 0.006594 0.084718
vn -0.281114 0.789877 -0.545040
v 0.009073 -0.064737 0.137529
vn 0.436741 -0.899543 -0.008935
v 0.010332 0.084492 0.112273
vn 0.380996 -0.163977 -0.909920
v 0.010594 0.065009 0.147317
vn 0.010029 0.928417 0.371405
v -0.002561 -0.067201 0.009308
vn 0.030050 0.999021 0.032467
v -0.000546 -0.068724 0.026122
vn 0.502894 0.846101 0.176666
v -0.025948 -0.062247 0.014090
vn 0.808066 0.367766 0.460193
v -0.031055 -0.053766 0.008477
vn 0.265118 0.514184 0.815676
v -0.016057 -0.060029 0.002149
vn -0.347947 0.452676 0.820985
v 0.002667 -0.060186 0.001427
vn 0.033028 0.040914 0.998617
v -0.005281 -0.040816 -0.001060
vn 0.038775 -0.022331 0.998998
v -0.001512 -0.021887 -0.000722
vn 0.500220 -0.027510 0.865461
v -0.024152 -0.044305 0.001677
vn 0.760478 -0.230281 0.607160
v -0.022199 -0.022158 0.005277
vn 0.278412 -0.088184 0.956405
v -0.014606 -0.022900 0.000740
vn 0.968235 -0.055876 0.243720
v -0.032511 -0.048957 0.011557
vn 0.957040 -0.276954 0.085854
v -0.025889 -0.026418 0.018857
vn 0.393380 -0.098989 0.914031
v -0.008331 -0.001738 0.000808
vn 0.873439 0.486916 0.004250
v -0.029746 -0.057530 0.027775
vn 0.999884 -0.012823 0.008273
v -0.032827 -0.048507 0.042369
vn -0.404606 0.914416 0.011726
v 0.003572 -0.068291 0.054943
vn 0.116591 0.993179 0.001505
v -0.001656 -0.068586 0.057568
vn 0.466041 0.884711 -0.009555
v -0.024315 -0.062241 0.044188
vn 0.897421 0.441176 0.000154
v -0.031184 -0.055655 0.053653
vn 0.279086 0.960261 0.003048
v -0.012282 -0.065295 0.074235
vn 0.967694 -0.251521 -0.017469
v -0.025882 -0.020696 0.080050
vn 0.964844 -0.261723 0.024013
v -0.024457 -0.017897 0.043191
vn 0.994291 -0.106633 -0.003831
v -0.032238 -0.045766 0.062974
vn -0.384505 0.923026 0.013376
v 0.005072 -0.068507 0.094992
vn 0.549554 0.835450 0.003664
v -0.025824 -0.061654 0.084186
vn 0.654925 0.755629 -0.009908
v -0.025893 -0.061795 0.104900
vn 0.161326 0.986856 0.009448
v -0.001984 -0.068954 0.107601
vn 0.584346 0.787713 -0.195059
v -0.024964 -0.062005 0.132948
vn 0.995717 0.080796 -0.044937
v -0.032163 -0.050899 0.119581
vn 0.093928 0.944046 -0.316156
v -0.003520 -0.069190 0.131083
vn 0.970798 0.239655 -0.010760
v -0.032777 -0.052030 0.086772
vn 0.935435 -0.270803 -0.227216
v -0.022825 -0.020165 0.132471
vn 0.961293 -0.269681 -0.056462
v -0.017626 0.003370 0.113779
vn 0.869288 0.091588 -0.485747
v -0.031189 -0.050211 0.137565
vn 0.233682 0.410738 -0.881298
v -0.019074 -0.058313 0.143200
vn 0.540313 -0.119099 -0.832993
v -0.018678 -0.021793 0.140889
vn 0.880844 -0.229527 -0.414042
v -0.011587 0.019038 0.135947
vn 0.390327 -0.034230 -0.920040
v -0.008016 -0.003981 0.144693
vn 0.906718 -0.222351 0.358360
v -0.015675 0.008055 0.009547
vn 0.554524 -0.116115 0.824027
v -0.007699 0.018658 0.001960
vn 0.909598 -0.232724 0.344196
v -0.010168 0.031442 0.009301
vn 0.256547 -0.175475 0.950469
v 0.008312 0.068787 0.001075
vn 0.946920 -0.266684 0.179504
v -0.004383 0.052791 0.010605
vn 0.732674 -0.221241 0.643615
v -0.000542 0.056327 0.004461
vn 0.886890 -0.421350 0.189448
v 0.001387 0.076725 0.014400
vn 0.440308 -0.624450 0.645128
v 0.007897 0.081922 0.004877
vn 0.966524 -0.255560 0.022805
v -0.012458 0.029969 0.050179
vn 0.649739 -0.759951 0.017720
v 0.004858 0.082424 0.033989
vn 0.915337 -0.402678 -0.002870
v 0.000775 0.075472 0.044390
vn 0.962274 -0.269503 -0.037361
v -0.011361 0.032592 0.086235
vn 0.962489 -0.263765 -0.063584
v -0.008844 0.033995 0.113449
vn 0.907915 -0.417770 -0.034034
v 0.001941 0.077128 0.084327
vn 0.842460 -0.537650 -0.034542
v 0.003565 0.076964 0.121193
vn 0.377661 -0.072885 -0.923071
v -0.001664 0.026089 0.145677
vn 0.934269 -0.262420 -0.241407
v -0.002393 0.054662 0.134146
vn 0.873523 -0.241112 -0.422874
v -0.005410 0.040021 0.137890
vn 0.717263 -0.587885 -0.374067
v 0.005352 0.079203 0.137455
vn -0.846454 0.452861 0.280058
v 0.011569 -0.059439 0.010385
vn -0.868315 0.227588 0.440718
v 0.015077 -0.043173 0.006873
vn -0.942545 0.246399 0.225601
v 0.024404 -0.007102 0.013332
vn -0.683862 0.182096 0.706522
v 0.022083 0.001020 0.004140
vn -0.963850 0.262107 0.047889
v 0.014924 -0.048951 0.027936
vn -0.841687 0.539470 0.023126
v 0.011862 -0.061812 0.045934
vn -0.960905 0.272094 0.051245
v 0.022733 -0.026522 0.049179
vn -0.958252 0.283863 0.034269
v 0.025389 -0.019631 0.071667
vn -0.854222 0.519584 0.018359
v 0.012180 -0.061331 0.070972
vn -0.846100 0.533023 0.001116
v 0.012505 -0.062004 0.105771
vn -0.953733 0.300653 0.000599
v 0.018171 -0.045581 0.095292
vn -0.960997 0.276271 -0.012618
v 0.029243 -0.007872 0.096038
vn -0.935163 0.273405 -0.225210
v 0.023109 -0.025245 0.131496
vn -0.959808 0.278271 -0.036525
v 0.035456 0.016449 0.118472
vn -0.411845 0.906387 -0.094057
v 0.006018 -0.068353 0.130919
vn -0.814576 0.450092 -0.365900
v 0.012739 -0.061491 0.136328
vn -0.358317 0.397996 -0.844516
v 0.006438 -0.059449 0.143489
vn -0.899751 0.274243 -0.339467
v 0.028870 -0.003464 0.135158
vn -0.453406 0.126507 -0.882281
v 0.014390 -0.018393 0.145328
vn -0.080499 0.026218 0.996410
v 0.013928 0.030894 -0.000626
vn -0.000535 -0.052442 0.998624
v 0.017731 0.061144 -0.000411
vn -0.536615 0.161264 0.828274
v 0.028485 0.022181 0.003279
vn -0.918188 0.269736 0.290127
v 0.032471 0.022440 0.010478
vn -0.304830 0.056943 0.950703
v 0.029828 0.053499 0.000647
vn -0.839159 0.194484 0.507926
v 0.036404 0.041815 0.006377
vn -0.312232 -0.147903 0.938422
v 0.034554 0.071678 0.001402
vn -0.896417 -0.221505 0.383890
v 0.043781 0.069215 0.009829
vn -0.444164 -0.691218 0.570031
v 0.036153 0.077425 0.004635
vn -0.544370 -0.832990 0.098943
v 0.038092 0.079344 0.016865
vn -0.481595 -0.876393 0.001512
v 0.037845 0.078743 0.045814
vn 0.068220 -0.983142 0.169640
v 0.012901 0.086309 0.013125
vn -0.959245 0.270610 0.081364
v 0.030108 0.003967 0.039204
vn -0.969053 0.241266 0.052218
v 0.042078 0.040028 0.059552
vn -0.964365 0.245212 0.099353
v 0.039893 0.040540 0.031835
vn -0.960106 0.276497 0.041776
v 0.034925 0.013702 0.062853
vn 0.587031 -0.809335 -0.019252
v 0.007374 0.083610 0.067720
vn 0.043868 -0.998983 -0.010458
v 0.013034 0.085982 0.040350
vn -0.863490 -0.501088 0.057399
v 0.043770 0.073514 0.021878
vn -0.996035 0.045923 0.076194
v 0.045602 0.063750 0.028687
vn -0.039518 -0.999217 -0.002060
v 0.015858 0.085624 0.079407
vn -0.981548 0.185208 0.047544
v 0.045924 0.058666 0.060857
vn -0.838689 -0.543942 0.026983
v 0.044356 0.073364 0.046299
vn -0.991301 -0.127119 0.034103
v 0.047224 0.066970 0.066483
vn -0.973749 0.226378 0.023788
v 0.045795 0.053368 0.087757
vn -0.964807 0.262949 0.002375
v 0.040107 0.030303 0.093064
vn -0.967264 0.253433 -0.013113
v 0.045436 0.050111 0.113269
vn -0.998970 0.036338 0.027161
v 0.048294 0.063411 0.094907
vn -0.455025 -0.890409 0.011156
v 0.038137 0.079239 0.083805
vn -0.835742 -0.548991 0.012001
v 0.045122 0.074226 0.096179
vn -0.121456 -0.992475 0.015558
v 0.017023 0.085311 0.108735
vn -0.517482 -0.855496 -0.018393
v 0.039951 0.078611 0.123512
vn -0.613305 0.184702 -0.767947
v 0.034458 0.027168 0.139463
vn -0.154486 0.055679 -0.986425
v 0.026571 0.044473 0.143261
vn -0.919819 0.265585 -0.288788
v 0.041370 0.039392 0.133927
vn 0.032060 -0.987059 -0.157118
v 0.016217 0.086540 0.133055
vn -0.502550 -0.766195 -0.400485
v 0.038705 0.078424 0.137312
vn 0.036489 -0.627044 -0.778128
v 0.017802 0.081368 0.143709
vn -0.956253 -0.224997 -0.186966
v 0.049221 0.067139 0.134780
vn -0.498057 -0.074657 -0.863924
v 0.043454 0.065891 0.143398
# 127 vertices, 0 vertices normals

f 15//15 17//17 19//19
f 15//15 16//16 17//17
f 3//3 11//11 12//12
f 14//14 13//13 15//15
f 15//15 19//19 14//14
f 22//22 14//14 19//19
f 14//14 25//25 13//13
f 25//25 14//14 22//22
f 25//25 22//22 26//26
f 13//13 11//11 15//15
f 16//16 15//15 11//11
f 3//3 16//16 11//11
f 13//13 12//12 11//11
f 21//21 19//19 17//17
f 18//18 21//21 17//17
f 17//17 16//16 1//1
f 1//1 18//18 17//17
f 24//24 21//21 18//18
f 2//2 24//24 18//18
f 2//2 18//18 1//1
f 2//2 1//1 4//4
f 22//22 19//19 20//20
f 20//20 19//19 21//21
f 22//22 20//20 23//23
f 50//50 23//23 20//20
f 23//23 50//50 33//33
f 24//24 20//20 21//21
f 24//24 50//50 20//20
f 51//51 50//50 24//24
f 52//52 50//50 51//51
f 27//27 12//12 28//28
f 29//29 12//12 13//13
f 29//29 13//13 25//25
f 29//29 25//25 30//30
f 26//26 30//30 25//25
f 3//3 12//12 27//27
f 12//12 29//29 28//28
f 31//31 29//29 36//36
f 29//29 30//30 36//36
f 30//30 26//26 34//34
f 36//36 30//30 42//42
f 34//34 42//42 30//30
f 28//28 29//29 31//31
f 28//28 35//35 27//27
f 23//23 26//26 22//22
f 26//26 23//23 33//33
f 33//33 50//50 58//58
f 26//26 33//33 34//34
f 32//32 34//34 33//33
f 7//7 32//32 33//33
f 58//58 7//7 33//33
f 35//35 28//28 38//38
f 37//37 36//36 42//42
f 42//42 32//32 40//40
f 38//38 31//31 36//36
f 31//31 38//38 28//28
f 38//38 36//36 37//37
f 38//38 83//83 35//35
f 83//83 38//38 41//41
f 37//37 42//42 40//40
f 40//40 39//39 37//37
f 39//39 38//38 37//37
f 38//38 39//39 41//41
f 42//42 34//34 32//32
f 44//44 32//32 7//7
f 44//44 40//40 32//32
f 43//43 40//40 44//44
f 43//43 44//44 48//48
f 41//41 8//8 83//83
f 45//45 39//39 40//40
f 39//39 45//45 46//46
f 46//46 45//45 47//47
f 41//41 39//39 46//46
f 41//41 46//46 8//8
f 85//85 8//8 46//46
f 46//46 87//87 85//85
f 6//6 87//87 46//46
f 43//43 45//45 40//40
f 45//45 43//43 47//47
f 47//47 6//6 46//46
f 6//6 47//47 49//49
f 47//47 43//43 48//48
f 47//47 48//48 49//49
f 65//65 49//49 48//48
f 65//65 6//6 49//49
f 51//51 24//24 2//2
f 51//51 2//2 5//5
f 2//2 4//4 5//5
f 58//58 50//50 52//52
f 51//51 5//5 55//55
f 55//55 52//52 51//51
f 53//53 55//55 5//5
f 54//54 52//52 55//55
f 54//54 58//58 52//52
f 57//57 55//55 53//53
f 56//56 54//54 55//55
f 55//55 57//57 56//56
f 54//54 56//56 60//60
f 60//60 56//56 59//59
f 59//59 56//56 57//57
f 60//60 58//58 54//54
f 60//60 61//61 58//58
f 60//60 59//59 104//104
f 63//63 60//60 104//104
f 7//7 58//58 61//61
f 7//7 61//61 62//62
f 61//61 60//60 63//63
f 62//62 61//61 63//63
f 62//62 63//63 66//66
f 62//62 44//44 7//7
f 48//48 44//44 62//62
f 48//48 62//62 67//67
f 67//67 62//62 66//66
f 66//66 63//63 64//64
f 64//64 63//63 104//104
f 64//64 104//104 9//9
f 68//68 64//64 9//9
f 67//67 65//65 48//48
f 67//67 66//66 10//10
f 10//10 65//65 67//67
f 68//68 66//66 64//64
f 10//10 66//66 68//68
f 69//69 16//16 3//3
f 16//16 69//69 70//70
f 16//16 70//70 1//1
f 70//70 69//69 73//73
f 70//70 72//72 1//1
f 73//73 75//75 70//70
f 71//71 70//70 75//75
f 72//72 4//4 1//1
f 72//72 70//70 71//71
f 71//71 91//91 72//72
f 100//100 71//71 75//75
f 91//91 71//71 100//100
f 69//69 74//74 73//73
f 69//69 3//3 74//74
f 74//74 3//3 27//27
f 74//74 75//75 73//73
f 27//27 77//77 74//74
f 77//77 27//27 35//35
f 77//77 75//75 74//74
f 77//77 76//76 75//75
f 77//77 79//79 76//76
f 100//100 75//75 76//76
f 76//76 103//103 100//100
f 103//103 76//76 80//80
f 35//35 78//78 77//77
f 78//78 35//35 83//83
f 79//79 77//77 78//78
f 78//78 81//81 79//79
f 84//84 78//78 83//83
f 84//84 81//81 78//78
f 80//80 79//79 81//81
f 76//76 79//79 80//80
f 86//86 82//82 80//80
f 86//86 80//80 81//81
f 8//8 84//84 83//83
f 84//84 8//8 85//85
f 87//87 84//84 85//85
f 84//84 87//87 81//81
f 86//86 81//81 87//87
f 120//120 86//86 87//87
f 5//5 4//4 88//88
f 89//89 53//53 5//5
f 5//5 88//88 89//89
f 92//92 89//89 88//88
f 4//4 72//72 90//90
f 88//88 4//4 90//90
f 90//90 72//72 91//91
f 92//92 88//88 90//90
f 90//90 91//91 93//93
f 100//100 102//102 91//91
f 102//102 93//93 91//91
f 92//92 90//90 93//93
f 94//94 92//92 93//93
f 107//107 93//93 102//102
f 95//95 93//93 107//107
f 53//53 89//89 94//94
f 94//94 89//89 92//92
f 94//94 57//57 53//53
f 57//57 94//94 96//96
f 96//96 99//99 57//57
f 59//59 57//57 99//99
f 59//59 99//99 105//105
f 99//99 96//96 97//97
f 94//94 93//93 95//95
f 96//96 94//94 95//95
f 97//97 96//96 95//95
f 95//95 107//107 106//106
f 97//97 95//95 106//106
f 98//98 97//97 106//106
f 103//103 101//101 100//100
f 102//102 100//100 101//101
f 101//101 109//109 102//102
f 102//102 109//109 107//107
f 103//103 113//113 101//101
f 105//105 99//99 97//97
f 98//98 105//105 97//97
f 59//59 105//105 104//104
f 110//110 106//106 107//107
f 111//111 107//107 109//109
f 110//110 107//107 111//111
f 98//98 106//106 110//110
f 104//104 105//105 108//108
f 105//105 98//98 108//108
f 108//108 98//98 116//116
f 110//110 116//116 98//98
f 117//117 110//110 111//111
f 112//112 115//115 109//109
f 111//111 109//109 115//115
f 116//116 110//110 117//117
f 113//113 103//103 80//80
f 112//112 101//101 113//113
f 112//112 109//109 101//101
f 112//112 113//113 114//114
f 115//115 112//112 114//114
f 113//113 80//80 82//82
f 82//82 114//114 113//113
f 86//86 122//122 82//82
f 122//122 114//114 82//82
f 122//122 126//126 114//114
f 104//104 108//108 9//9
f 9//9 108//108 118//118
f 116//116 118//118 108//108
f 117//117 111//111 115//115
f 119//119 118//118 116//116
f 123//123 9//9 118//118
f 118//118 119//119 123//123
f 126//126 115//115 114//114
f 117//117 115//115 126//126
f 126//126 119//119 117//117
f 119//119 116//116 117//117
f 121//121 6//6 65//65
f 121//121 120//120 87//87
f 121//121 87//87 6//6
f 120//120 122//122 86//86
f 127//127 120//120 121//121
f 121//121 65//65 10//10
f 127//127 121//121 10//10
f 120//120 127//127 122//122
f 126//126 122//122 127//127
f 68//68 9//9 123//123
f 68//68 123//123 125//125
f 123//123 124//124 125//125
f 10//10 125//125 127//127
f 68//68 125//125 10//10
f 127//127 125//125 124//124
f 126//126 124//124 119//119
f 124//124 123//123 119//119
f 127//127 124//124 126//126
# 250 faces, 0 coords texture

# End of File
