####
#
# OBJ File Generated by Meshlab
#
####
# Object hersheys_cocoa_250_collision.obj
#
# Vertices: 127
# Faces: 250
#
####
vn 0.951707 0.278539 -0.129111
v 0.060665 0.003914 0.005958
vn -0.451380 -0.869677 -0.199794
v 0.000000 -0.039762 0.007828
vn -0.951670 0.081999 -0.295973
v -0.035225 0.035473 0.005871
vn 0.802547 0.582697 -0.127990
v 0.039139 0.048923 0.006175
vn -0.493519 0.869547 -0.018117
v -0.015656 0.056296 0.011742
vn -0.851031 -0.483575 0.204698
v -0.017583 -0.009721 0.102898
vn -0.956458 -0.288726 0.042722
v -0.031468 0.021526 0.101761
vn 0.334079 -0.907706 0.253892
v 0.021619 -0.039136 0.102736
vn -0.117814 -0.383920 0.915820
v 0.008401 -0.037196 0.106766
vn 0.960333 0.273735 0.053198
v 0.058379 0.005933 0.101742
vn 0.967123 -0.192959 -0.165647
v 0.060665 -0.011742 0.006630
vn 0.814307 -0.572185 0.097514
v 0.056751 -0.018496 0.099804
vn -0.222806 -0.253432 -0.941345
v -0.003914 -0.033832 0.005871
vn -0.523256 -0.154529 -0.838048
v -0.033196 0.023405 0.005871
vn 0.758899 0.426186 -0.492380
v 0.042837 0.043053 0.005871
vn 0.824849 0.537162 0.176299
v 0.041003 0.042947 0.103017
vn -0.362572 0.931913 -0.008931
v 0.000000 0.063989 0.011742
vn -0.502080 0.730692 -0.462606
v -0.023483 0.051255 0.005871
vn -0.987840 0.031689 0.152212
v -0.033772 0.035225 0.101761
vn 0.270838 -0.929119 -0.251762
v 0.019569 -0.041096 0.007133
vn -0.004225 0.006801 0.999968
v -0.023483 0.041096 0.106161
vn 0.906473 0.410601 0.098555
v 0.052735 0.021653 0.102370
vn 0.645950 -0.038580 -0.762404
v 0.061727 -0.003914 0.005871
vn 0.964612 -0.256613 0.060610
v 0.059976 -0.011742 0.099804
vn 0.828376 -0.443517 -0.342177
v 0.058708 -0.019569 0.006368
vn -0.857470 -0.498329 -0.128117
v -0.019569 -0.011742 0.007033
vn -0.556056 -0.273527 0.784847
v -0.021101 0.000034 0.106307
vn -0.886849 -0.386771 0.252798
v -0.025532 0.005442 0.103244
vn -0.776648 -0.611866 -0.149793
v -0.003914 -0.035225 0.006977
vn -0.301280 0.621319 0.723321
v -0.001210 0.061016 0.105900
vn 0.219524 0.966677 -0.131699
v 0.017613 0.068493 0.006503
vn -0.021119 0.997630 0.065480
v 0.011742 0.067902 0.099804
vn 0.522333 0.484000 -0.702077
v 0.029355 0.060674 0.005871
vn 0.950266 0.189994 0.246774
v 0.059825 -0.000076 0.103611
vn 0.879098 0.273237 0.390548
v 0.056882 0.010403 0.103570
vn 0.144796 -0.301518 -0.942402
v 0.046967 -0.027338 0.005871
vn 0.992175 -0.116839 0.044027
v 0.060753 -0.007828 0.099804
vn 0.066304 -0.034416 -0.997206
v 0.054794 -0.020622 0.005871
vn 0.928760 -0.360426 0.086597
v 0.059301 -0.013699 0.099804
vn -0.886662 -0.458472 0.060279
v -0.023029 0.000000 0.101761
vn -0.945290 -0.296541 -0.135980
v -0.031311 0.015656 0.007159
vn -0.987830 -0.151657 0.034536
v -0.033383 0.029354 0.099804
vn -0.384683 0.704442 -0.596473
v -0.013859 0.056776 0.005872
vn -0.498296 0.865483 0.051375
v -0.020537 0.052742 0.102272
vn -0.657050 -0.459808 -0.597379
v -0.007828 -0.029354 0.006015
vn -0.999942 0.003486 0.010228
v -0.035225 0.034246 0.006693
vn -0.916679 -0.226829 0.329011
v -0.032541 0.025620 0.103730
vn -0.398614 -0.004127 0.917109
v -0.030895 0.033057 0.106161
vn 0.121688 -0.966435 0.226262
v 0.017576 -0.040201 0.103347
vn 0.423782 -0.849514 0.314221
v 0.028528 -0.035676 0.103662
vn -0.333633 -0.925626 0.178620
v 0.007828 -0.038750 0.101761
vn -0.142642 -0.873997 0.464524
v 0.011563 -0.039771 0.104274
vn 0.000331 -0.999806 0.019704
v 0.015656 -0.040346 0.099804
vn -0.166033 -0.464578 -0.869828
v 0.001957 -0.039139 0.006486
vn -0.212995 0.926814 0.309273
v 0.007632 0.067245 0.103301
vn -0.332047 0.943025 0.021179
v 0.005871 0.066798 0.099804
vn 0.101418 0.993698 0.047738
v 0.013699 0.067813 0.099804
vn 0.505955 0.317968 0.801814
v 0.042611 0.036965 0.106226
vn 0.037340 -0.136075 -0.989995
v 0.031391 -0.033268 0.005871
vn 0.523977 -0.767994 -0.368284
v 0.054794 -0.023483 0.006034
vn 0.863483 -0.496117 0.090908
v 0.057325 -0.017612 0.099804
vn -0.894523 -0.446763 0.015223
v -0.025440 0.000000 0.007293
vn -0.872952 -0.486735 0.032302
v -0.018686 -0.007828 0.101761
vn -0.885098 -0.376360 -0.273779
v -0.027397 0.003914 0.006950
vn 0.811999 0.582571 0.035621
v 0.037182 0.048448 0.101761
vn 0.728920 0.683777 0.033531
v 0.029257 0.058678 0.101893
vn 0.891721 0.450536 0.043025
v 0.049961 0.027397 0.101761
vn -0.377250 0.841299 -0.387167
v -0.001949 0.063123 0.005872
vn -0.282596 0.777923 -0.561227
v 0.002821 0.064950 0.005871
vn -0.644384 0.758682 0.095762
v -0.026825 0.048729 0.101851
vn -0.709442 0.041414 0.703546
v -0.032229 0.038906 0.104518
vn -0.943355 -0.322701 0.077100
v -0.030827 0.019585 0.101854
vn -0.336093 -0.186884 -0.923101
v -0.015653 -0.016709 0.005871
vn -0.650917 -0.742222 0.159417
v 0.001905 -0.035249 0.102597
vn 0.258847 -0.965283 0.035030
v 0.019569 -0.039780 0.101761
vn -0.046895 -0.789439 -0.612035
v 0.011764 -0.041098 0.006570
vn -0.021486 -0.167240 -0.985682
v 0.006849 -0.039139 0.006223
vn -0.379178 0.925146 0.018105
v 0.005185 0.066536 0.099804
vn -0.138527 0.990104 0.022439
v 0.009785 0.067691 0.099804
vn 0.177090 0.983930 0.022803
v 0.015656 0.067502 0.099804
vn -0.124750 0.869371 -0.478154
v 0.012966 0.068496 0.005871
vn 0.613021 0.501180 -0.610757
v 0.034407 0.054795 0.005871
vn 0.493518 0.676071 -0.547145
v 0.025453 0.064581 0.005871
vn 0.199256 0.446312 0.872412
v 0.016875 0.065579 0.106045
vn 0.185379 0.937857 0.293358
v 0.017610 0.066991 0.104795
vn 0.224205 0.196206 0.954586
v 0.028990 0.055573 0.106188
vn 0.996395 0.060351 0.059627
v 0.060807 -0.005872 0.099877
vn -0.951029 -0.050918 0.304880
v -0.033553 0.031623 0.102648
vn 0.758764 0.544962 0.356781
v 0.033867 0.052872 0.103645
vn 0.857619 0.513629 0.025975
v 0.043349 0.039139 0.101761
vn 0.616060 0.700671 0.359903
v 0.025552 0.062250 0.103513
vn -0.453100 0.890760 -0.035319
v -0.005872 0.061343 0.009767
vn -0.731770 0.549530 0.403149
v -0.030247 0.045087 0.103474
vn -0.892389 0.386146 -0.233523
v -0.033268 0.041979 0.005871
vn -0.952838 -0.066467 0.296111
v -0.033588 0.037182 0.101761
vn -0.718695 -0.644430 0.261126
v -0.003800 -0.029151 0.103388
vn -0.800799 -0.596456 0.054413
v -0.008100 -0.023886 0.101154
vn -0.763391 -0.598494 0.242979
v -0.005411 -0.027173 0.103420
vn -0.081489 -0.995899 0.039312
v 0.013776 -0.040269 0.100639
vn -0.543730 -0.452742 0.706670
v -0.003418 -0.026859 0.106417
vn 0.482431 0.207270 0.851058
v 0.051039 0.019585 0.106181
vn 0.847879 0.339145 0.407532
v 0.054598 0.016616 0.103455
vn 0.842097 0.449082 0.298659
v 0.046984 0.032898 0.103707
vn 0.508066 0.793228 0.335647
v 0.021368 0.065324 0.103590
vn 0.521992 0.136137 0.842016
v 0.056964 0.003272 0.106145
vn 0.921751 -0.047025 0.384921
v 0.060198 -0.008245 0.104849
vn 0.699695 -0.670268 0.247321
v 0.055485 -0.019638 0.103625
vn -0.982554 -0.147583 -0.113172
v -0.035226 0.029357 0.006684
vn 0.697939 0.618465 0.361085
v 0.031101 0.056460 0.103952
vn -0.454033 0.856534 0.245363
v -0.005625 0.060991 0.102696
vn -0.693359 0.703015 0.158191
v -0.028731 0.046967 0.101761
vn -0.886152 0.461648 0.040196
v -0.031424 0.043255 0.101761
vn -0.105782 0.032030 -0.993873
v -0.034166 0.039139 0.005871
vn -0.502438 -0.781112 0.370701
v 0.005412 -0.037343 0.105047
vn -0.795154 -0.540219 0.275486
v -0.012547 -0.017492 0.103691
vn 0.188951 -0.339121 0.921572
v 0.047203 -0.023298 0.106797
vn 0.782505 -0.360750 0.507489
v 0.058899 -0.012924 0.105858
vn -0.416621 0.898354 0.139237
v 0.002182 0.065218 0.101666
vn 0.528504 -0.776547 0.343014
v 0.050818 -0.023517 0.103417
vn -0.717169 0.589960 -0.370966
v -0.032639 0.043052 0.005871
vn -0.941799 0.236021 0.239391
v -0.033174 0.039061 0.103938
vn -0.919900 0.391724 0.018336
v -0.032466 0.041096 0.098825
vn 0.172558 -0.615522 0.768997
v 0.019662 -0.037679 0.105796
vn 0.046043 -0.343608 0.937984
v 0.019202 -0.035470 0.106509
vn -0.540042 0.781239 0.313081
v -0.023706 0.050780 0.103471
vn 0.246974 -0.247993 0.936751
v 0.050952 -0.020633 0.106756
vn -0.255042 0.226997 0.939908
v -0.026648 0.045475 0.106113
# 127 vertices, 0 vertices normals

f 21//21 116//116 86//86
f 21//21 9//9 116//116
f 22//22 1//1 15//15
f 23//23 1//1 87//87
f 25//25 23//23 11//11
f 25//25 11//11 24//24
f 108//108 3//3 14//14
f 16//16 15//15 4//4
f 125//125 5//5 18//18
f 29//29 2//2 96//96
f 29//29 13//13 2//2
f 46//46 108//108 19//19
f 50//50 20//20 60//60
f 50//50 8//8 20//20
f 76//76 99//99 2//2
f 126//126 58//58 86//86
f 126//126 86//86 116//116
f 127//127 21//21 86//86
f 127//127 86//86 84//84
f 34//34 1//1 10//10
f 36//36 60//60 20//20
f 37//37 23//23 87//87
f 37//37 11//11 23//23
f 37//37 24//24 11//11
f 37//37 87//87 106//106
f 15//15 1//1 23//23
f 107//107 25//25 12//12
f 107//107 60//60 25//25
f 38//38 25//25 60//60
f 38//38 23//23 25//25
f 39//39 25//25 24//24
f 40//40 28//28 64//64
f 41//41 108//108 14//14
f 41//41 7//7 108//108
f 14//14 73//73 64//64
f 14//14 64//64 41//41
f 43//43 18//18 5//5
f 92//92 5//5 118//118
f 72//72 64//64 28//28
f 72//72 41//41 64//64
f 72//72 7//7 41//41
f 115//115 26//26 29//29
f 45//45 13//13 29//29
f 45//45 29//29 26//26
f 45//45 26//26 73//73
f 46//46 19//19 3//3
f 46//46 3//3 108//108
f 52//52 2//2 99//99
f 50//50 60//60 119//119
f 53//53 99//99 76//76
f 53//53 20//20 49//49
f 54//54 76//76 2//2
f 54//54 2//2 13//13
f 48//48 27//27 9//9
f 105//105 101//101 126//126
f 101//101 58//58 126//126
f 55//55 84//84 85//85
f 55//55 30//30 84//84
f 104//104 31//31 85//85
f 104//104 83//83 31//31
f 104//104 91//91 83//83
f 57//57 31//31 32//32
f 81//81 32//32 31//31
f 82//82 4//4 15//15
f 83//83 81//81 31//31
f 30//30 127//127 84//84
f 1//1 34//34 87//87
f 35//35 34//34 10//10
f 102//102 35//35 1//1
f 102//102 1//1 22//22
f 59//59 36//36 20//20
f 59//59 20//20 76//76
f 38//38 60//60 36//36
f 61//61 12//12 25//25
f 61//61 25//25 39//39
f 62//62 40//40 64//64
f 62//62 26//26 40//40
f 63//63 40//40 26//26
f 63//63 26//26 6//6
f 47//47 108//108 7//7
f 88//88 108//108 42//42
f 64//64 73//73 26//26
f 64//64 26//26 62//62
f 16//16 89//89 58//58
f 65//65 16//16 4//4
f 65//65 89//89 16//16
f 66//66 33//33 83//83
f 67//67 15//15 103//103
f 68//68 92//92 118//118
f 69//69 56//56 81//81
f 69//69 17//17 56//56
f 125//125 44//44 5//5
f 110//110 118//118 5//5
f 70//70 18//18 120//120
f 115//115 6//6 26//26
f 73//73 13//13 45//45
f 74//74 96//96 2//2
f 74//74 2//2 114//114
f 28//28 27//27 47//47
f 28//28 47//47 72//72
f 75//75 49//49 20//20
f 2//2 52//52 51//51
f 52//52 9//9 51//51
f 114//114 2//2 51//51
f 76//76 20//20 53//53
f 77//77 59//59 76//76
f 77//77 13//13 59//59
f 27//27 100//100 9//9
f 48//48 9//9 21//21
f 48//48 21//21 127//127
f 114//114 51//51 9//9
f 117//117 105//105 126//126
f 78//78 56//56 17//17
f 78//78 68//68 118//118
f 78//78 17//17 68//68
f 79//79 32//32 81//81
f 80//80 85//85 31//31
f 80//80 31//31 57//57
f 85//85 80//80 57//57
f 87//87 34//34 106//106
f 10//10 1//1 35//35
f 105//105 102//102 101//101
f 106//106 24//24 37//37
f 106//106 39//39 24//24
f 117//117 61//61 39//39
f 117//117 39//39 106//106
f 47//47 88//88 42//42
f 88//88 19//19 108//108
f 109//109 84//84 86//86
f 109//109 91//91 84//84
f 86//86 89//89 109//109
f 90//90 15//15 16//16
f 89//89 65//65 4//4
f 91//91 66//66 83//83
f 66//66 82//82 33//33
f 22//22 15//15 67//67
f 22//22 67//67 103//103
f 69//69 68//68 17//17
f 43//43 5//5 92//92
f 92//92 68//68 43//43
f 110//110 5//5 44//44
f 95//95 3//3 19//19
f 6//6 115//115 27//27
f 6//6 40//40 63//63
f 97//97 115//115 29//29
f 98//98 97//97 29//29
f 72//72 47//47 7//7
f 49//49 52//52 99//99
f 99//99 53//53 49//49
f 8//8 75//75 20//20
f 123//123 8//8 50//50
f 123//123 49//49 8//8
f 77//77 54//54 13//13
f 77//77 76//76 54//54
f 101//101 103//103 58//58
f 102//102 22//22 103//103
f 102//102 103//103 101//101
f 117//117 12//12 61//61
f 104//104 85//85 84//84
f 85//85 57//57 32//32
f 55//55 79//79 81//81
f 55//55 81//81 56//56
f 55//55 56//56 118//118
f 110//110 125//125 30//30
f 110//110 44//44 125//125
f 35//35 105//105 106//106
f 35//35 106//106 34//34
f 105//105 117//117 106//106
f 108//108 47//47 42//42
f 104//104 84//84 91//91
f 109//109 89//89 4//4
f 109//109 4//4 82//82
f 103//103 15//15 90//90
f 70//70 125//125 18//18
f 111//111 70//70 120//120
f 113//113 3//3 121//121
f 113//113 121//121 94//94
f 113//113 14//14 3//3
f 113//113 73//73 14//14
f 113//113 13//13 73//73
f 113//113 59//59 13//13
f 113//113 36//36 59//59
f 113//113 38//38 36//36
f 113//113 23//23 38//38
f 113//113 15//15 23//23
f 113//113 82//82 15//15
f 113//113 33//33 82//82
f 113//113 83//83 33//33
f 113//113 81//81 83//83
f 113//113 69//69 81//81
f 113//113 68//68 69//69
f 113//113 43//43 68//68
f 113//113 18//18 43//43
f 113//113 94//94 120//120
f 113//113 120//120 18//18
f 121//121 3//3 95//95
f 71//71 95//95 19//19
f 71//71 121//121 95//95
f 71//71 19//19 88//88
f 114//114 9//9 100//100
f 115//115 100//100 27//27
f 28//28 6//6 27//27
f 28//28 40//40 6//6
f 100//100 98//98 96//96
f 115//115 97//97 98//98
f 96//96 98//98 29//29
f 98//98 100//100 115//115
f 47//47 27//27 48//48
f 8//8 49//49 75//75
f 116//116 9//9 124//124
f 100//100 96//96 114//114
f 52//52 124//124 9//9
f 16//16 58//58 103//103
f 117//117 126//126 107//107
f 55//55 85//85 32//32
f 55//55 32//32 79//79
f 118//118 56//56 78//78
f 89//89 86//86 58//58
f 102//102 105//105 35//35
f 119//119 60//60 107//107
f 107//107 12//12 117//117
f 88//88 47//47 48//48
f 66//66 91//91 109//109
f 66//66 109//109 82//82
f 16//16 103//103 90//90
f 120//120 93//93 111//111
f 125//125 70//70 111//111
f 122//122 112//112 94//94
f 112//112 93//93 120//120
f 112//112 120//120 94//94
f 71//71 88//88 48//48
f 93//93 121//121 71//71
f 121//121 112//112 122//122
f 114//114 96//96 74//74
f 123//123 52//52 49//49
f 123//123 124//124 52//52
f 123//123 116//116 124//124
f 127//127 93//93 71//71
f 127//127 30//30 125//125
f 110//110 30//30 118//118
f 122//122 94//94 121//121
f 121//121 93//93 112//112
f 123//123 50//50 116//116
f 127//127 71//71 48//48
f 55//55 118//118 30//30
f 119//119 116//116 50//50
f 119//119 107//107 126//126
f 116//116 119//119 126//126
f 93//93 125//125 111//111
f 127//127 125//125 93//93
# 250 faces, 0 coords texture

# End of File
