####
#
# OBJ File Generated by Meshlab
#
####
# Object hersheys_bar_250_collision.obj
#
# Vertices: 143
# Faces: 249
#
####
vn 0.161142 -0.105740 0.981250
v -0.079919 -0.103408 0.012098
vn 0.165123 -0.097090 0.981482
v -0.057409 -0.072888 0.012098
vn 0.037947 -0.052673 0.997891
v -0.057409 -0.103408 0.007171
vn -0.086711 0.139541 0.986412
v -0.017660 -0.097129 0.012098
vn 0.046382 0.001245 0.998923
v -0.009852 -0.103408 0.012098
vn 0.031106 -0.075804 0.996637
v -0.004411 -0.103408 0.011213
vn -0.047663 -0.132940 0.989977
v 0.008839 -0.100132 0.012098
vn -0.023704 -0.505726 0.862368
v 0.008839 -0.103408 0.011300
vn 0.050937 -0.238343 0.969844
v 0.022088 -0.103118 0.012098
vn -0.062246 0.382068 0.922035
v 0.019644 -0.084888 0.013314
vn 0.056590 -0.136682 0.988997
v 0.035335 -0.103409 0.011626
vn 0.022028 0.134593 0.990656
v 0.048587 -0.103408 0.011909
vn -0.087460 0.005344 0.996154
v 0.091091 -0.103408 0.012098
vn 0.043163 -0.022997 0.998803
v 0.101585 -0.050410 0.010314
vn -0.021886 0.029034 0.999339
v 0.075086 -0.103408 0.010159
vn -0.033760 0.005637 0.999414
v 0.101585 -0.076909 0.011952
vn -0.015061 -0.126573 0.991843
v 0.057192 -0.049238 0.010999
vn -0.021461 -0.107725 0.993949
v 0.101585 -0.032068 0.012098
vn -0.014953 -0.078675 0.996788
v 0.060493 -0.003438 0.005983
vn -0.138046 -0.027205 0.990052
v 0.075086 0.002588 0.005802
vn -0.187606 0.097887 0.977355
v 0.090488 0.002588 0.012098
vn 0.063039 0.059040 0.996263
v 0.101585 0.029087 0.005906
vn 0.078821 -0.048820 0.995693
v 0.101585 0.055586 0.008720
vn 0.002122 -0.039580 0.999214
v 0.048587 0.108584 0.011243
vn -0.018036 -0.033809 0.999266
v 0.090252 0.108584 0.012098
vn 0.102420 -0.031629 0.994238
v -0.110407 -0.103408 0.014907
vn 0.131774 -0.039085 0.990509
v -0.110407 -0.050410 0.016882
vn -0.129924 0.056926 0.989888
v -0.026767 -0.103411 0.010967
vn 0.144722 0.015740 0.989347
v -0.110407 -0.023911 0.018725
vn 0.052436 0.036509 0.997957
v -0.110407 0.002588 0.015164
vn 0.031132 0.044757 0.998513
v -0.083908 0.002588 0.014795
vn -0.053853 0.026435 0.998199
v 0.101585 -0.103405 0.012671
vn -0.084345 -0.049361 0.995213
v 0.101585 -0.023911 0.013901
vn -0.062082 0.144516 0.987553
v 0.101585 0.001893 0.012898
vn 0.138567 -0.021555 0.990118
v -0.110407 0.029087 0.016547
vn 0.168329 -0.080526 0.982436
v -0.110407 0.055586 0.018759
vn 0.082364 -0.060374 0.994772
v -0.110407 0.082085 0.018205
vn 0.132304 -0.112352 0.984821
v -0.110407 0.108584 0.021228
vn 0.010211 -0.078594 0.996854
v -0.083908 0.108584 0.017668
vn 0.012751 -0.096708 0.995231
v -0.057409 0.108584 0.020053
vn 0.090707 -0.012919 0.995794
v -0.044159 0.108584 0.018523
vn 0.125551 -0.075699 0.989195
v -0.013291 0.108615 0.014943
vn 0.057037 -0.095715 0.993773
v 0.019883 0.108584 0.012070
vn 0.002002 -0.054354 0.998520
v 0.101591 0.107150 0.012390
vn 0.186312 -0.108459 0.976486
v -0.057409 -0.076909 0.011158
vn 0.090690 0.056895 0.994253
v -0.030910 -0.076909 0.005794
vn -0.040739 0.137945 0.989602
v -0.030910 -0.090158 0.008578
vn -0.103196 0.249265 0.962921
v -0.018818 -0.084048 0.007818
vn -0.066935 0.137152 0.988286
v -0.013075 -0.071690 0.005511
vn -0.114287 -0.176454 0.977651
v -0.014167 -0.051465 0.004059
vn 0.172742 -0.078524 0.981832
v -0.021835 -0.054969 0.005312
vn 0.160175 -0.075313 0.984211
v -0.047993 -0.050084 0.011649
vn 0.137196 -0.145863 0.979745
v -0.039258 -0.036860 0.011679
vn 0.044557 -0.173287 0.983863
v -0.018907 -0.038218 0.007810
vn 0.133859 0.064643 0.988890
v -0.034665 -0.002309 0.009166
vn 0.090270 0.017646 0.995761
v -0.021445 -0.014492 0.007632
vn 0.009791 -0.000098 0.999952
v -0.012222 -0.009535 0.009182
vn 0.067867 -0.021963 0.997453
v -0.083908 -0.050410 0.013863
vn 0.105183 -0.025381 0.994129
v -0.083908 -0.023911 0.014177
vn 0.066126 0.003942 0.997803
v -0.083908 -0.010661 0.014408
vn 0.025689 -0.014368 0.999567
v -0.061471 -0.024324 0.013343
vn 0.051929 -0.044955 0.997638
v -0.053646 -0.033526 0.012977
vn 0.071165 0.057359 0.995814
v -0.048245 -0.013091 0.013465
vn 0.264789 0.061555 0.962340
v -0.026246 -0.020418 0.013202
vn 0.150330 0.014683 0.988527
v -0.082321 0.035768 0.011910
vn 0.165041 -0.017633 0.986129
v -0.069059 0.049762 0.009213
vn -0.136025 0.059974 0.988888
v -0.055300 0.045394 0.009081
vn 0.096417 0.040607 0.994512
v -0.053568 0.002907 0.013481
vn -0.040401 -0.012171 0.999109
v -0.044304 0.017028 0.010877
vn -0.005939 -0.063874 0.997940
v -0.028817 0.008686 0.012138
vn 0.022753 0.101382 0.994587
v -0.043339 0.040857 0.012979
vn 0.046900 0.059267 0.997140
v -0.029655 0.035677 0.008311
vn -0.025466 0.012292 0.999600
v -0.018178 0.023701 0.011228
vn -0.103147 -0.045402 0.993629
v -0.021822 0.046492 0.010690
vn 0.039738 0.050201 0.997948
v -0.038658 0.053341 0.009169
vn 0.223119 -0.273091 0.935756
v -0.074114 0.061814 0.013146
vn -0.128864 0.171104 0.976789
v -0.050709 0.063195 0.012298
vn 0.029737 -0.210831 0.977070
v -0.056369 0.066956 0.007240
vn 0.202778 -0.252471 0.946118
v -0.040612 0.071807 0.007648
vn -0.018691 0.125479 0.991920
v -0.009126 0.063266 0.012145
vn -0.053333 -0.178032 0.982578
v -0.019654 0.081594 0.004508
vn 0.186505 -0.330650 0.925141
v -0.014137 0.093058 0.014255
vn 0.066720 0.056836 0.996152
v -0.083908 0.015838 0.013544
vn 0.059669 0.101481 0.993046
v -0.066867 0.017642 0.012655
vn 0.210841 -0.120602 0.970052
v -0.086314 0.051298 0.013533
vn 0.111122 -0.096728 0.989088
v -0.083908 0.068836 0.015712
vn 0.045362 -0.128511 0.990670
v -0.080036 0.074701 0.016241
vn 0.187254 -0.504962 0.842585
v -0.053765 0.072766 0.014421
vn 0.011125 -0.105645 0.994342
v -0.054780 0.095286 0.018727
vn 0.198433 -0.258267 0.945475
v -0.026005 0.089308 0.017452
vn 0.160252 0.012781 0.986993
v -0.023234 0.108537 0.016068
vn 0.112942 -0.115910 0.986818
v -0.002123 0.093722 0.012115
vn -0.053981 0.106742 0.992820
v -0.007321 -0.090655 0.011282
vn -0.039950 0.510747 0.858802
v 0.013695 -0.079805 0.005133
vn 0.005271 0.074283 0.997223
v 0.044321 -0.088030 0.009914
vn -0.034121 0.318143 0.947429
v 0.025458 -0.080183 0.011626
vn 0.021555 0.288854 0.957131
v 0.002518 -0.078026 0.009932
vn -0.088727 -0.127723 0.987833
v 0.005286 -0.062941 0.007392
vn -0.022739 0.079922 0.996542
v 0.035206 -0.073034 0.009085
vn -0.189841 -0.236498 0.952906
v 0.002443 -0.052586 0.011216
vn -0.088378 0.022264 0.995838
v 0.054841 -0.070033 0.010091
vn 0.065812 -0.143087 0.987520
v 0.034926 -0.060137 0.008115
vn -0.059462 -0.022267 0.997982
v 0.074018 -0.075714 0.010451
vn -0.007082 -0.348718 0.937201
v 0.050192 -0.053573 0.008055
vn -0.024280 -0.042188 0.998815
v 0.075099 -0.063653 0.011384
vn 0.002867 -0.031164 0.999510
v 0.075559 -0.055875 0.011891
vn -0.038724 0.048021 0.998095
v 0.016090 -0.039909 0.011455
vn 0.014506 -0.120512 0.992606
v 0.019750 -0.051871 0.012084
vn -0.073979 0.028106 0.996864
v 0.012286 -0.011678 0.008454
vn 0.113240 0.162999 0.980106
v 0.034768 -0.020284 0.013406
vn -0.028405 0.002243 0.999594
v 0.024670 0.002255 0.010030
vn 0.144274 -0.094532 0.985012
v 0.042664 -0.002614 0.005831
vn 0.152471 0.121496 0.980812
v 0.054782 -0.040349 0.011985
vn -0.125023 0.017102 0.992006
v 0.082037 -0.023934 0.012092
vn -0.128393 0.148656 0.980519
v 0.071740 -0.028584 0.011209
vn 0.097546 0.225175 0.969423
v 0.052266 -0.022554 0.005652
vn -0.217289 0.134305 0.966823
v 0.075086 -0.010661 0.008629
vn -0.101514 0.012792 0.994752
v 0.060957 -0.010502 0.005788
vn -0.009243 0.259443 0.965714
v 0.011850 -0.086967 0.013394
vn -0.141965 -0.013048 0.989786
v -0.005386 -0.035170 0.012634
vn 0.114802 0.061612 0.991476
v 0.043603 -0.033089 0.014184
vn 0.184044 -0.306191 0.934010
v 0.050964 -0.047467 0.013690
vn -0.009371 -0.019290 0.999770
v 0.073305 -0.043280 0.011863
vn 0.029448 -0.037183 0.998874
v 0.006370 0.013155 0.009750
vn -0.003180 0.034159 0.999411
v 0.023737 0.024215 0.007669
vn -0.020138 -0.046701 0.998706
v 0.032800 0.008620 0.012399
vn 0.081469 -0.130431 0.988104
v 0.051444 0.013901 0.010330
vn -0.005188 0.091560 0.995786
v 0.042624 0.020385 0.010178
vn 0.105584 -0.015364 0.994292
v 0.005376 0.035007 0.012429
vn 0.127051 0.030935 0.991414
v 0.016052 0.041231 0.008905
vn -0.029138 0.062918 0.997593
v 0.037174 0.033894 0.008523
vn -0.053118 0.059140 0.996835
v 0.048587 0.042337 0.008406
vn 0.010499 -0.041986 0.999063
v 0.035338 0.055586 0.009135
vn 0.005924 -0.038219 0.999252
v 0.048587 0.055586 0.008290
vn 0.081854 -0.150370 0.985235
v 0.062445 0.015786 0.009218
vn -0.020108 -0.088493 0.995874
v 0.075086 0.015838 0.008316
vn -0.004010 -0.000866 0.999992
v 0.061836 0.029087 0.010660
vn 0.079628 -0.077445 0.993812
v 0.075086 0.029087 0.010409
vn -0.016788 -0.012277 0.999784
v 0.075086 0.055586 0.009636
vn -0.011417 -0.095418 0.995372
v -0.002261 0.078537 0.009646
vn -0.011791 -0.060535 0.998096
v 0.020745 0.082064 0.009347
vn -0.016231 -0.060959 0.998008
v 0.048587 0.082085 0.010760
vn 0.021065 -0.097778 0.994985
v 0.020337 0.095137 0.010947
# 143 vertices, 0 vertices normals

f 1//1 3//3 45//45
f 1//1 45//45 2//2
f 47//47 45//45 3//3
f 3//3 28//28 47//47
f 45//45 47//47 46//46
f 4//4 48//48 47//47
f 4//4 47//47 28//28
f 5//5 6//6 93//93
f 4//4 5//5 93//93
f 93//93 48//48 4//4
f 48//48 46//46 47//47
f 46//46 48//48 49//49
f 97//97 48//48 93//93
f 97//97 49//49 48//48
f 2//2 45//45 46//46
f 2//2 46//46 51//51
f 52//52 2//2 51//51
f 51//51 46//46 49//49
f 49//49 50//50 51//51
f 50//50 49//49 98//98
f 52//52 51//51 53//53
f 51//51 50//50 54//54
f 53//53 51//51 54//54
f 54//54 50//50 100//100
f 100//100 120//120 54//54
f 54//54 64//64 53//53
f 120//120 56//56 54//54
f 64//64 56//56 55//55
f 56//56 64//64 54//54
f 57//57 56//56 120//120
f 70//70 55//55 56//56
f 57//57 70//70 56//56
f 2//2 62//62 58//58
f 1//1 2//2 58//58
f 58//58 27//27 26//26
f 58//58 26//26 1//1
f 4//4 28//28 5//5
f 52//52 62//62 2//2
f 59//59 29//29 27//27
f 27//27 58//58 59//59
f 61//61 59//59 58//58
f 62//62 61//61 58//58
f 60//60 30//30 29//29
f 29//29 59//59 60//60
f 30//30 60//60 31//31
f 60//60 59//59 61//61
f 68//68 31//31 60//60
f 60//60 61//61 68//68
f 52//52 53//53 62//62
f 62//62 53//53 64//64
f 61//61 62//62 63//63
f 64//64 63//63 62//62
f 64//64 55//55 63//63
f 68//68 61//61 63//63
f 68//68 63//63 55//55
f 66//66 65//65 84//84
f 66//66 84//84 67//67
f 66//66 76//76 85//85
f 68//68 69//69 84//84
f 69//69 68//68 55//55
f 69//69 55//55 70//70
f 84//84 69//69 67//67
f 72//72 71//71 70//70
f 57//57 73//73 70//70
f 57//57 124//124 73//73
f 70//70 73//73 72//72
f 124//124 74//74 73//73
f 67//67 69//69 71//71
f 67//67 71//71 75//75
f 75//75 77//77 67//67
f 72//72 75//75 71//71
f 74//74 72//72 73//73
f 129//129 74//74 124//124
f 75//75 72//72 74//74
f 80//80 75//75 74//74
f 76//76 66//66 78//78
f 66//66 67//67 78//78
f 76//76 78//78 88//88
f 78//78 67//67 77//77
f 79//79 78//78 77//77
f 78//78 79//79 88//88
f 79//79 77//77 75//75
f 79//79 75//75 80//80
f 81//81 79//79 80//80
f 140//140 81//81 80//80
f 79//79 81//81 82//82
f 81//81 140//140 82//82
f 140//140 92//92 82//82
f 83//83 35//35 30//30
f 30//30 31//31 83//83
f 35//35 83//83 65//65
f 84//84 83//83 31//31
f 31//31 68//68 84//84
f 84//84 65//65 83//83
f 65//65 36//36 35//35
f 36//36 65//65 85//85
f 65//65 66//66 85//85
f 69//69 70//70 71//71
f 86//86 37//37 36//36
f 36//36 85//85 76//76
f 36//36 76//76 86//86
f 37//37 86//86 87//87
f 87//87 86//86 76//76
f 88//88 87//87 76//76
f 39//39 38//38 37//37
f 37//37 87//87 39//39
f 89//89 39//39 87//87
f 87//87 88//88 89//89
f 39//39 89//89 40//40
f 79//79 82//82 90//90
f 90//90 88//88 79//79
f 74//74 129//129 80//80
f 90//90 89//89 88//88
f 41//41 40//40 89//89
f 41//41 89//89 90//90
f 91//91 41//41 90//90
f 90//90 82//82 91//91
f 91//91 82//82 42//42
f 82//82 92//92 42//42
f 7//7 119//119 93//93
f 7//7 93//93 6//6
f 6//6 8//8 7//7
f 9//9 7//7 8//8
f 8//8 11//11 9//9
f 119//119 97//97 93//93
f 97//97 119//119 94//94
f 96//96 99//99 94//94
f 96//96 94//94 10//10
f 94//94 119//119 10//10
f 96//96 9//9 11//11
f 11//11 99//99 96//96
f 9//9 96//96 10//10
f 95//95 99//99 11//11
f 95//95 11//11 12//12
f 97//97 98//98 49//49
f 97//97 94//94 98//98
f 98//98 94//94 99//99
f 100//100 50//50 98//98
f 100//100 98//98 108//108
f 99//99 108//108 98//98
f 102//102 99//99 101//101
f 102//102 108//108 99//99
f 102//102 121//121 108//108
f 101//101 104//104 102//102
f 15//15 103//103 101//101
f 95//95 101//101 99//99
f 101//101 95//95 15//15
f 95//95 12//12 15//15
f 32//32 16//16 103//103
f 13//13 32//32 103//103
f 103//103 15//15 13//13
f 101//101 103//103 17//17
f 17//17 103//103 105//105
f 17//17 104//104 101//101
f 106//106 123//123 17//17
f 17//17 105//105 106//106
f 14//14 106//106 105//105
f 105//105 103//103 16//16
f 105//105 16//16 14//14
f 100//100 108//108 107//107
f 110//110 109//109 107//107
f 121//121 107//107 108//108
f 102//102 104//104 122//122
f 121//121 102//102 122//122
f 121//121 110//110 107//107
f 57//57 120//120 107//107
f 57//57 107//107 109//109
f 124//124 57//57 109//109
f 109//109 111//111 124//124
f 111//111 109//109 110//110
f 110//110 116//116 112//112
f 111//111 110//110 112//112
f 104//104 17//17 122//122
f 123//123 114//114 115//115
f 113//113 116//116 121//121
f 116//116 113//113 115//115
f 18//18 114//114 123//123
f 123//123 106//106 14//14
f 123//123 14//14 18//18
f 117//117 118//118 116//116
f 116//116 115//115 117//117
f 112//112 116//116 118//118
f 112//112 118//118 19//19
f 19//19 127//127 112//112
f 19//19 118//118 117//117
f 19//19 117//117 20//20
f 21//21 20//20 117//117
f 114//114 21//21 117//117
f 117//117 115//115 114//114
f 9//9 10//10 119//119
f 7//7 9//9 119//119
f 120//120 100//100 107//107
f 110//110 121//121 116//116
f 122//122 17//17 113//113
f 121//121 122//122 113//113
f 123//123 113//113 17//17
f 115//115 113//113 123//123
f 18//18 33//33 114//114
f 21//21 114//114 33//33
f 33//33 34//34 21//21
f 124//124 111//111 125//125
f 129//129 124//124 125//125
f 126//126 111//111 112//112
f 125//125 111//111 126//126
f 127//127 126//126 112//112
f 125//125 126//126 131//131
f 126//126 128//128 131//131
f 126//126 127//127 128//128
f 130//130 129//129 125//125
f 80//80 129//129 130//130
f 130//130 140//140 80//80
f 140//140 130//130 141//141
f 131//131 128//128 132//132
f 133//133 130//130 125//125
f 125//125 131//131 133//133
f 134//134 133//133 131//131
f 131//131 132//132 134//134
f 135//135 127//127 19//19
f 135//135 19//19 20//20
f 135//135 20//20 136//136
f 137//137 128//128 127//127
f 127//127 135//135 137//137
f 138//138 137//137 135//135
f 135//135 136//136 138//138
f 21//21 34//34 22//22
f 22//22 138//138 136//136
f 22//22 136//136 21//21
f 136//136 20//20 21//21
f 139//139 134//134 132//132
f 132//132 128//128 137//137
f 139//139 132//132 137//137
f 137//137 138//138 139//139
f 23//23 139//139 138//138
f 138//138 22//22 23//23
f 141//141 143//143 140//140
f 141//141 130//130 133//133
f 142//142 141//141 133//133
f 133//133 134//134 142//142
f 140//140 143//143 92//92
f 43//43 92//92 143//143
f 24//24 43//43 143//143
f 143//143 141//141 142//142
f 143//143 142//142 24//24
f 25//25 24//24 142//142
f 139//139 25//25 142//142
f 142//142 134//134 139//139
f 44//44 25//25 139//139
f 139//139 23//23 44//44
f 92//92 43//43 42//42
# 249 faces, 0 coords texture

# End of File
