####
#
# OBJ File Generated by Meshlab
#
####
# Object hersheys_bar_250_collision.obj
#
# Vertices: 68
# Faces: 132
#
####
vn 0.921011 0.371401 0.117478
v 0.062622 -0.039139 0.007805
vn -0.156430 -0.025059 -0.987371
v -0.060665 0.039191 0.005871
vn 0.154586 -0.178880 0.971651
v 0.056751 -0.060665 0.012568
vn -0.042607 -0.057519 -0.997435
v -0.005871 -0.056751 0.006220
vn 0.526780 0.373588 -0.763502
v 0.000000 0.070450 0.006090
vn -0.674706 -0.189437 0.713362
v -0.070450 0.054794 0.010368
vn 0.260620 -0.396951 -0.880061
v 0.041096 -0.070450 0.010223
vn 0.090839 0.382045 0.919668
v -0.017612 0.090019 0.011839
vn -0.434865 0.744263 -0.506916
v -0.052837 0.076321 0.008135
vn 0.024699 0.003523 -0.999689
v 0.019569 0.036652 0.005871
vn -0.848317 -0.501954 -0.168525
v -0.015656 -0.043854 0.007828
vn -0.456706 -0.696942 0.552893
v 0.007828 -0.082191 0.010852
vn 0.643927 -0.311147 -0.698960
v 0.062622 -0.052837 0.009708
vn -0.225033 -0.310288 -0.923624
v 0.005871 -0.078278 0.007062
vn 0.447845 0.135900 0.883723
v 0.062622 -0.050771 0.011742
vn 0.680698 0.639606 -0.357147
v -0.011742 0.088062 0.007824
vn -0.127810 0.202910 0.970820
v -0.041096 0.080235 0.011759
vn -0.730979 0.600112 0.324863
v -0.068493 0.062622 0.009829
vn 0.000877 -0.014440 -0.999895
v -0.012118 -0.045010 0.005871
vn 0.019524 0.020220 -0.999605
v 0.003914 0.062622 0.005986
vn 0.670962 0.388316 0.631681
v 0.025440 0.027397 0.008044
vn -0.701902 -0.190269 -0.686390
v -0.068493 0.048923 0.008373
vn -0.311231 -0.189232 -0.931304
v -0.013699 -0.043886 0.005871
vn 0.367122 -0.705846 0.605807
v 0.033268 -0.076321 0.011604
vn 0.589372 -0.738470 -0.327572
v 0.052837 -0.064579 0.011550
vn 0.142710 0.049878 -0.988507
v 0.048923 -0.015656 0.006682
vn -0.056864 -0.572771 -0.817741
v 0.007997 -0.080235 0.007828
vn 0.134443 -0.217814 -0.966686
v 0.027397 -0.074364 0.009058
vn 0.614078 -0.038607 -0.788300
v 0.062622 -0.041096 0.007712
vn 0.081937 0.036849 0.995956
v 0.058708 -0.056751 0.012355
vn 0.809408 -0.534300 0.243684
v 0.060665 -0.056751 0.012008
vn 0.573011 0.778199 0.257031
v -0.013699 0.090019 0.008901
vn -0.181180 0.955298 -0.233623
v -0.023483 0.090019 0.009453
vn 0.341613 0.317026 -0.884757
v -0.007828 0.082191 0.007188
vn -0.345456 0.518672 0.782074
v -0.046967 0.078278 0.011026
vn -0.881213 0.190340 0.432706
v -0.070450 0.058708 0.010186
vn 0.516546 0.297282 -0.802996
v 0.018841 0.039139 0.005871
vn 0.811303 0.490307 0.318413
v 0.017612 0.041096 0.007240
vn 0.536159 0.278467 0.796862
v 0.060665 -0.039139 0.009282
vn -0.805279 -0.457364 -0.377284
v -0.041096 0.000256 0.007828
vn -0.687332 -0.390644 0.612350
v -0.035225 -0.007828 0.010226
vn -0.591315 0.624147 -0.510673
v -0.060665 0.070450 0.008724
vn 0.181726 -0.983277 0.011907
v 0.021526 -0.082191 0.010379
vn 0.306426 -0.407210 -0.860397
v 0.050880 -0.064579 0.010764
vn 0.303201 -0.551435 -0.777167
v 0.025440 -0.080235 0.010348
vn 0.564134 -0.673302 0.477930
v 0.054794 -0.062622 0.012355
vn -0.112249 -0.912433 -0.393530
v 0.010967 -0.082191 0.009785
vn 0.455372 -0.343214 0.821487
v 0.058708 -0.058708 0.012417
vn 0.828245 -0.083783 0.554067
v 0.062622 -0.051010 0.011742
vn 0.346147 0.819843 0.456114
v -0.014832 0.090019 0.009785
vn -0.342510 0.763184 0.547939
v -0.031311 0.086105 0.010657
vn -0.147014 0.128435 0.980761
v -0.060665 0.066536 0.010687
vn -0.867758 -0.016386 -0.496717
v -0.070450 0.056751 0.010115
vn 0.833632 0.508379 0.215889
v 0.011742 0.050880 0.006898
vn 0.916739 0.133378 0.376564
v 0.062622 -0.043053 0.009258
vn 0.575298 0.304896 0.758993
v 0.060665 -0.037182 0.008539
vn -0.554241 -0.309017 -0.772868
v -0.048923 0.017612 0.005949
vn -0.810033 -0.461201 0.362133
v -0.050880 0.017612 0.008463
vn -0.482846 0.706775 0.517038
v -0.050880 0.076321 0.010128
vn -0.524467 0.663659 0.533376
v -0.062622 0.068493 0.009592
vn 0.454678 -0.750591 -0.479460
v 0.043053 -0.070450 0.011261
vn 0.148218 -0.254946 -0.955528
v 0.027397 -0.076321 0.009537
vn 0.110620 -0.568704 -0.815070
v 0.019569 -0.082191 0.010019
vn -0.206817 0.204075 0.956860
v -0.064579 0.064579 0.010293
vn 0.578297 0.287646 0.763435
v 0.062592 -0.039139 0.007828
vn -0.500719 0.717762 0.483837
v -0.054794 0.074364 0.009061
vn 0.137514 -0.255043 -0.957101
v 0.021526 -0.078278 0.009205
vn -0.020848 -0.955277 -0.294977
v 0.011742 -0.082191 0.009603
# 68 vertices, 0 vertices normals

f 9//9 5//5 2//2
f 14//14 12//12 11//11
f 17//17 3//3 8//8
f 17//17 12//12 3//3
f 17//17 6//6 12//12
f 20//20 2//2 5//5
f 21//21 8//8 15//15
f 23//23 19//19 4//4
f 23//23 14//14 11//11
f 23//23 4//4 14//14
f 24//24 3//3 12//12
f 26//26 14//14 4//4
f 26//26 4//4 19//19
f 26//26 19//19 10//10
f 27//27 12//12 14//14
f 28//28 14//14 13//13
f 28//28 13//13 7//7
f 28//28 27//27 14//14
f 29//29 13//13 14//14
f 29//29 26//26 1//1
f 29//29 14//14 26//26
f 30//30 15//15 8//8
f 31//31 25//25 13//13
f 33//33 16//16 9//9
f 33//33 32//32 16//16
f 34//34 16//16 5//5
f 34//34 5//5 9//9
f 34//34 9//9 16//16
f 36//36 18//18 22//22
f 37//37 2//2 20//20
f 37//37 20//20 5//5
f 37//37 23//23 2//2
f 37//37 10//10 19//19
f 37//37 26//26 10//10
f 37//37 19//19 23//23
f 37//37 21//21 1//1
f 37//37 1//1 26//26
f 38//38 21//21 37//37
f 38//38 32//32 21//21
f 38//38 16//16 32//32
f 39//39 21//21 15//15
f 40//40 23//23 11//11
f 41//41 12//12 6//6
f 42//42 22//22 18//18
f 42//42 9//9 2//2
f 42//42 2//2 22//22
f 43//43 24//24 12//12
f 44//44 25//25 7//7
f 44//44 7//7 13//13
f 44//44 13//13 25//25
f 45//45 24//24 43//43
f 46//46 3//3 24//24
f 46//46 24//24 25//25
f 47//47 12//12 27//27
f 48//48 15//15 30//30
f 48//48 30//30 8//8
f 48//48 8//8 3//3
f 48//48 3//3 46//46
f 48//48 46//46 25//25
f 48//48 25//25 31//31
f 49//49 31//31 13//13
f 49//49 48//48 31//31
f 49//49 15//15 48//48
f 50//50 8//8 21//21
f 50//50 21//21 32//32
f 50//50 33//33 8//8
f 50//50 32//32 33//33
f 51//51 17//17 8//8
f 51//51 8//8 33//33
f 51//51 35//35 17//17
f 51//51 33//33 9//9
f 51//51 9//9 35//35
f 52//52 36//36 6//6
f 52//52 6//6 17//17
f 52//52 17//17 35//35
f 53//53 36//36 22//22
f 53//53 22//22 6//6
f 53//53 6//6 36//36
f 54//54 5//5 16//16
f 54//54 16//16 38//38
f 54//54 38//38 37//37
f 54//54 37//37 5//5
f 55//55 39//39 15//15
f 55//55 15//15 49//49
f 55//55 29//29 1//1
f 55//55 49//49 13//13
f 55//55 13//13 29//29
f 56//56 1//1 21//21
f 56//56 21//21 39//39
f 57//57 40//40 22//22
f 57//57 22//22 2//2
f 57//57 2//2 23//23
f 57//57 23//23 40//40
f 58//58 40//40 11//11
f 58//58 11//11 12//12
f 58//58 12//12 41//41
f 58//58 41//41 6//6
f 58//58 22//22 40//40
f 58//58 6//6 22//22
f 59//59 35//35 9//9
f 60//60 42//42 18//18
f 60//60 18//18 35//35
f 60//60 35//35 59//59
f 61//61 25//25 24//24
f 61//61 24//24 45//45
f 61//61 45//45 7//7
f 61//61 7//7 25//25
f 62//62 28//28 7//7
f 62//62 7//7 45//45
f 63//63 45//45 43//43
f 64//64 52//52 35//35
f 64//64 35//35 18//18
f 64//64 18//18 36//36
f 64//64 36//36 52//52
f 65//65 55//55 1//1
f 65//65 39//39 55//55
f 65//65 56//56 39//39
f 65//65 1//1 56//56
f 66//66 60//60 59//59
f 66//66 59//59 9//9
f 66//66 9//9 42//42
f 66//66 42//42 60//60
f 67//67 27//27 28//28
f 67//67 28//28 62//62
f 67//67 63//63 27//27
f 67//67 62//62 45//45
f 67//67 45//45 63//63
f 68//68 12//12 47//47
f 68//68 47//47 27//27
f 68//68 27//27 63//63
f 68//68 63//63 43//43
f 68//68 43//43 12//12
# 132 faces, 0 coords texture

# End of File
