####
#
# OBJ File Generated by Meshlab
#
####
# Object hunts_paste_250_collision.obj
#
# Vertices: 127
# Faces: 250
#
####
vn 0.259629 -0.840572 -0.475427
v 0.021164 -0.033268 0.009785
vn 0.926187 0.366333 0.089317
v 0.041372 0.016582 0.088537
vn 0.867109 0.443932 -0.225933
v 0.045010 0.019569 0.008636
vn -0.858609 0.499034 -0.117285
v -0.025440 0.025440 0.007837
vn 0.526264 -0.312451 -0.790835
v 0.045010 -0.003914 0.007060
vn -0.399108 -0.139080 -0.906294
v -0.025404 -0.012029 0.007130
vn -0.300775 0.927566 0.221708
v -0.001737 0.037824 0.094472
vn 0.734913 -0.668741 -0.112641
v 0.031279 -0.027397 0.009785
vn -0.674396 0.724082 0.144553
v -0.016362 0.029092 0.094552
vn -0.167720 0.174647 -0.970241
v -0.019569 0.027686 0.005871
vn -0.203070 0.933920 -0.294203
v -0.001965 0.043059 0.006474
vn 0.115576 0.032783 -0.992758
v 0.029354 0.036557 0.005871
vn -0.394987 -0.817001 -0.420113
v -0.019661 -0.025436 0.009863
vn -0.015811 -0.992465 0.121506
v 0.007932 -0.028710 0.094340
vn 0.829641 0.122806 -0.544623
v 0.046975 0.009844 0.007803
vn -0.656153 0.658431 -0.368690
v -0.018328 0.033268 0.007828
vn -0.023731 -0.082732 -0.996289
v 0.000000 -0.029354 0.007472
vn -0.931382 -0.355067 0.080348
v -0.023488 -0.007828 0.090019
vn -0.897014 0.419695 0.138643
v -0.023179 0.019050 0.092452
vn 0.136482 0.987505 -0.078779
v 0.021526 0.042524 0.007828
vn -0.069698 0.954829 0.288867
v 0.006107 0.039310 0.094897
vn 0.444403 0.233533 -0.864851
v 0.043910 0.019569 0.007828
vn 0.144352 0.128528 -0.981144
v 0.029042 0.037182 0.005871
vn -0.308735 -0.949602 0.054203
v -0.001019 -0.027397 0.091976
vn -0.124814 -0.990363 0.060025
v 0.003914 -0.028638 0.088062
vn 0.926375 -0.192820 -0.323496
v 0.046967 -0.000001 0.007219
vn 0.803479 0.592480 0.058212
v 0.035317 0.027398 0.086284
vn -0.094471 0.079923 0.992314
v -0.014041 0.019888 0.103002
vn 0.686932 -0.715113 0.129378
v 0.032249 -0.019569 0.091976
vn 0.301197 -0.381569 -0.873891
v 0.029489 -0.026325 0.007829
vn 0.458029 -0.794859 -0.398005
v 0.024966 -0.031311 0.009785
vn 0.179290 -0.416165 -0.891438
v 0.023483 -0.030019 0.007828
vn -0.644463 0.755061 0.120628
v -0.014138 0.031311 0.091976
vn -0.607006 -0.084268 -0.790217
v -0.028261 -0.003914 0.007828
vn -0.665066 0.009438 -0.746725
v -0.031311 0.007290 0.009785
vn -0.038946 -0.013822 -0.999146
v -0.019569 0.026858 0.005871
vn 0.020707 -0.059889 -0.997990
v 0.021526 -0.027397 0.007508
vn -0.868500 0.487751 0.088358
v -0.021526 0.022645 0.090019
vn 0.021456 0.662642 -0.748629
v 0.003629 0.043091 0.006461
vn 0.542354 0.773937 0.326915
v 0.028629 0.032834 0.096184
vn -0.312218 -0.936754 -0.158153
v -0.001957 -0.031311 0.008569
vn -0.265876 -0.926673 0.265682
v 0.000059 -0.027491 0.095938
vn -0.320458 -0.304434 -0.897010
v -0.021445 -0.019508 0.007385
vn -0.153171 -0.869749 -0.469121
v 0.004552 -0.033285 0.007829
vn -0.147291 -0.983340 0.106524
v 0.001957 -0.028128 0.091976
vn 0.969859 0.180229 0.163985
v 0.042705 0.009839 0.093487
vn 0.773317 0.627511 -0.090608
v 0.034033 0.033268 0.007828
vn 0.467166 0.156179 0.870267
v 0.035856 0.015569 0.102766
vn 0.329704 0.455569 0.826893
v 0.024608 0.030438 0.102885
vn 0.071319 -0.858204 -0.508331
v 0.015656 -0.033268 0.008468
vn -0.580264 0.800121 0.151989
v -0.011758 0.033201 0.092979
vn -0.454216 0.194362 -0.869432
v -0.025440 0.023483 0.006702
vn -0.524122 0.052110 -0.850048
v -0.027397 0.016634 0.007065
vn -0.989715 0.000520 0.143051
v -0.025749 0.003914 0.093933
vn -0.681500 -0.699822 0.214027
v -0.015833 -0.017991 0.096386
vn -0.896450 0.439150 0.059373
v -0.023092 0.019569 0.090019
vn -0.410097 0.909728 0.064933
v -0.005871 0.036580 0.090019
vn -0.190898 -0.371197 -0.908719
v -0.014445 -0.025454 0.007817
vn 0.817564 -0.574218 0.043161
v 0.036466 -0.014677 0.090998
vn 0.778452 -0.618959 0.104419
v 0.035477 -0.015783 0.094402
vn 0.935636 -0.324741 0.138303
v 0.041766 -0.004057 0.092935
vn 0.866917 0.492548 0.076487
v 0.039034 0.023233 0.073702
vn 0.531871 -0.840097 0.106541
v 0.027339 -0.023283 0.095123
vn 0.651287 -0.749948 0.115776
v 0.031311 -0.020402 0.091976
vn -0.945460 -0.316626 0.076508
v -0.024025 -0.005871 0.091976
vn -0.997648 0.005492 0.068323
v -0.033268 0.005871 0.012720
vn -0.773036 0.629342 0.079646
v -0.018036 0.027428 0.093063
vn -0.833645 0.545546 0.086115
v -0.020413 0.024462 0.090019
vn -0.501499 0.688402 0.524024
v -0.010572 0.031540 0.101051
vn -0.155556 0.670692 0.725241
v 0.001947 0.035477 0.102519
vn -0.370157 0.925764 0.077103
v -0.004040 0.037232 0.091976
vn 0.062749 0.974665 0.214688
v 0.010033 0.039373 0.094650
vn 0.409876 -0.904170 0.120326
v 0.021526 -0.026468 0.091976
vn 0.419477 -0.897808 0.134090
v 0.024462 -0.024991 0.092955
vn 0.180312 -0.980451 0.078758
v 0.015656 -0.028400 0.090019
vn 0.150543 -0.597120 0.787899
v 0.015366 -0.024828 0.101979
vn 0.686334 -0.565789 0.456977
v 0.034470 -0.015492 0.099482
vn 0.990357 0.010700 0.138126
v 0.043077 0.005750 0.092920
vn 0.776923 0.617333 0.123655
v 0.033626 0.028813 0.093406
vn 0.797180 0.442000 0.411266
v 0.037585 0.021956 0.099418
vn 0.074955 0.567580 0.819899
v 0.014677 0.034690 0.102950
vn 0.246796 -0.263174 0.932647
v 0.025903 -0.016306 0.103102
vn -0.896603 -0.427624 0.115073
v -0.022470 -0.009785 0.091976
vn -0.736936 -0.661254 0.140246
v -0.017612 -0.016723 0.093933
vn -0.979955 -0.176404 0.092577
v -0.025440 0.000981 0.093933
vn -0.985067 -0.073066 0.155895
v -0.025382 0.002216 0.096627
vn -0.778386 -0.622816 -0.078835
v -0.023483 -0.023483 0.011203
vn -0.973357 0.104997 0.203841
v -0.025554 0.007863 0.095938
vn 0.000000 0.970143 0.242536
v -0.025171 0.012660 0.091976
vn 0.267873 0.942503 0.199833
v 0.018919 0.037794 0.095758
vn 0.155809 0.984616 0.079092
v 0.013681 0.039137 0.091976
vn 0.270706 0.828264 0.490609
v 0.019031 0.036208 0.098891
vn -0.511402 0.834571 -0.204841
v -0.011755 0.039175 0.007851
vn 0.249550 -0.946102 0.206435
v 0.018992 -0.027116 0.096272
vn 0.005225 -0.904198 0.427082
v 0.008447 -0.027606 0.099411
vn 0.208832 -0.973982 0.088022
v 0.017612 -0.027858 0.091976
vn 0.895927 -0.443152 0.030504
v 0.039731 -0.009790 0.086178
vn 0.864818 -0.485306 0.128717
v 0.038862 -0.010969 0.093759
vn 0.746740 -0.281291 0.602706
v 0.038107 -0.008180 0.100283
vn 0.963725 -0.157600 0.215399
v 0.042683 0.000099 0.093994
vn 0.196346 -0.014700 0.980424
v 0.036321 0.006274 0.103163
vn -0.761715 -0.526250 0.377956
v -0.019724 -0.013282 0.097336
vn -0.469153 -0.293586 0.832888
v -0.018630 -0.008088 0.102337
vn -0.970086 -0.179231 -0.163736
v -0.033268 0.004507 0.011742
vn -0.579682 -0.795153 0.178048
v -0.011760 -0.021582 0.096504
vn -0.211197 -0.042861 0.976503
v -0.018200 -0.003806 0.102994
vn -0.796502 0.525463 0.299121
v -0.018228 0.026167 0.098002
vn -0.438944 0.886112 0.148776
v -0.007949 0.035339 0.093613
vn 0.127172 -0.986132 0.106639
v 0.013699 -0.028581 0.091976
vn 0.835621 0.025392 0.548719
v 0.041135 0.004953 0.099874
vn -0.808477 -0.049838 0.586414
v -0.024327 0.002113 0.100778
vn -0.866000 -0.481775 0.133931
v -0.021526 -0.011548 0.091976
vn -0.647131 -0.751561 0.127976
v -0.013699 -0.020387 0.093933
vn -0.948172 0.186472 -0.257288
v -0.033268 0.006910 0.011743
vn -0.525478 0.211282 0.824156
v -0.020296 0.014938 0.102279
vn -0.866909 0.298985 0.398844
v -0.023314 0.015349 0.097380
vn 0.562196 0.738217 -0.372787
v 0.027397 0.041096 0.006564
vn 0.050720 -0.996017 0.073331
v 0.010763 -0.028815 0.091487
vn -0.500913 -0.702020 0.506215
v -0.011480 -0.020613 0.099893
vn -0.109863 -0.338117 0.934669
v 0.001498 -0.022466 0.103174
vn 0.466928 -0.795798 0.385595
v 0.027189 -0.022461 0.099235
vn -0.923289 -0.319918 0.212580
v -0.023940 -0.004474 0.098308
vn -0.680889 -0.721001 0.128642
v -0.015978 -0.018369 0.093933
vn -0.934703 0.296935 0.195345
v -0.024209 0.015685 0.094445
vn -0.242091 0.968364 0.060523
v 0.025416 0.035210 0.091976
vn 0.230632 -0.972558 0.030641
v 0.021526 -0.033268 0.010324
vn -0.415851 -0.896996 0.149887
v -0.005617 -0.025599 0.093952
# 127 vertices, 0 vertices normals

f 6//6 87//87 104//104
f 18//18 104//104 87//87
f 19//19 4//4 114//114
f 71//71 11//11 93//93
f 72//72 11//11 21//21
f 11//11 39//39 10//10
f 22//22 117//117 3//3
f 23//23 10//10 39//39
f 23//23 39//39 117//117
f 23//23 22//22 12//12
f 23//23 117//117 22//22
f 58//58 17//17 44//44
f 25//25 44//44 14//14
f 26//26 5//5 12//12
f 81//81 28//28 101//101
f 30//30 5//5 8//8
f 31//31 30//30 8//8
f 31//31 126//126 1//1
f 31//31 8//8 63//63
f 31//31 63//63 126//126
f 32//32 31//31 1//1
f 32//32 30//30 31//31
f 33//33 16//16 9//9
f 33//33 93//93 16//16
f 67//67 16//16 4//4
f 52//52 16//16 10//10
f 52//52 53//53 114//114
f 34//34 6//6 104//104
f 35//35 34//34 104//104
f 36//36 17//17 6//6
f 36//36 52//52 10//10
f 36//36 6//6 52//52
f 36//36 23//23 12//12
f 36//36 10//10 23//23
f 37//37 12//12 5//5
f 37//37 36//36 12//12
f 37//37 17//17 36//36
f 37//37 32//32 44//44
f 37//37 44//44 17//17
f 37//37 5//5 30//30
f 37//37 30//30 32//32
f 124//124 19//19 114//114
f 39//39 20//20 117//117
f 90//90 117//117 20//20
f 7//7 11//11 71//71
f 93//93 11//11 10//10
f 93//93 10//10 16//16
f 15//15 3//3 46//46
f 41//41 24//24 13//13
f 41//41 44//44 24//24
f 42//42 24//24 44//44
f 127//127 87//87 13//13
f 127//127 13//13 24//24
f 43//43 6//6 17//17
f 44//44 126//126 14//14
f 45//45 44//44 25//25
f 45//45 42//42 44//44
f 45//45 95//95 42//42
f 97//97 98//98 8//8
f 97//97 8//8 5//5
f 97//97 5//5 26//26
f 46//46 3//3 2//2
f 78//78 26//26 15//15
f 78//78 15//15 46//46
f 62//62 3//3 27//27
f 47//47 27//27 3//3
f 47//47 3//3 117//117
f 47//47 117//117 27//27
f 120//120 101//101 28//28
f 50//50 32//32 1//1
f 50//50 44//44 32//32
f 50//50 1//1 126//126
f 50//50 126//126 44//44
f 51//51 93//93 33//33
f 67//67 9//9 16//16
f 52//52 4//4 16//16
f 52//52 114//114 4//4
f 53//53 52//52 6//6
f 53//53 6//6 34//34
f 53//53 34//34 35//35
f 35//35 114//114 53//53
f 35//35 104//104 114//114
f 56//56 38//38 4//4
f 56//56 4//4 19//19
f 39//39 72//72 20//20
f 39//39 11//11 72//72
f 57//57 93//93 108//108
f 108//108 93//93 51//51
f 7//7 21//21 11//11
f 15//15 22//22 3//3
f 15//15 12//12 22//22
f 13//13 58//58 44//44
f 13//13 44//44 41//41
f 13//13 43//43 58//58
f 43//43 13//13 87//87
f 58//58 43//43 17//17
f 14//14 45//45 25//25
f 14//14 95//95 45//45
f 60//60 29//29 8//8
f 60//60 8//8 59//59
f 62//62 2//2 3//3
f 79//79 62//62 27//27
f 120//120 82//82 101//101
f 48//48 49//49 101//101
f 64//64 63//63 8//8
f 64//64 8//8 29//29
f 121//121 64//64 29//29
f 121//121 63//63 64//64
f 65//65 122//122 104//104
f 65//65 104//104 18//18
f 65//65 18//18 122//122
f 66//66 114//114 104//104
f 66//66 104//104 54//54
f 86//86 54//54 104//104
f 19//19 38//38 56//56
f 107//107 38//38 19//19
f 67//67 4//4 68//68
f 68//68 4//4 38//38
f 68//68 38//38 107//107
f 70//70 21//21 7//7
f 71//71 57//57 108//108
f 15//15 26//26 12//12
f 43//43 87//87 6//6
f 73//73 126//126 74//74
f 74//74 126//126 63//63
f 76//76 82//82 120//120
f 121//121 95//95 94//94
f 121//121 76//76 95//95
f 61//61 97//97 26//26
f 8//8 98//98 59//59
f 48//48 101//101 110//110
f 80//80 48//48 110//110
f 81//81 101//101 49//49
f 70//70 28//28 81//81
f 110//110 101//101 99//99
f 121//121 29//29 77//77
f 69//69 51//51 33//33
f 69//69 33//33 9//9
f 83//83 18//18 87//87
f 88//88 114//114 66//66
f 88//88 66//66 54//54
f 85//85 104//104 122//122
f 85//85 122//122 86//86
f 111//111 88//88 54//54
f 106//106 28//28 115//115
f 106//106 120//120 28//28
f 111//111 106//106 115//115
f 89//89 124//124 114//114
f 19//19 124//124 116//116
f 90//90 20//20 91//91
f 91//91 20//20 72//72
f 91//91 72//72 90//90
f 69//69 7//7 108//108
f 93//93 57//57 71//71
f 108//108 7//7 71//71
f 42//42 127//127 24//24
f 94//94 126//126 73//73
f 96//96 75//75 126//126
f 96//96 126//126 94//94
f 95//95 76//76 120//120
f 42//42 95//95 120//120
f 121//121 82//82 76//76
f 97//97 61//61 98//98
f 77//77 29//29 60//60
f 99//99 101//101 82//82
f 100//100 61//61 26//26
f 27//27 117//117 79//79
f 80//80 46//46 2//2
f 80//80 62//62 79//79
f 80//80 49//49 48//48
f 69//69 115//115 28//28
f 69//69 28//28 70//70
f 99//99 61//61 100//100
f 100//100 110//110 99//99
f 9//9 67//67 107//107
f 122//122 18//18 83//83
f 114//114 124//124 89//89
f 104//104 85//85 86//86
f 111//111 54//54 86//86
f 86//86 122//122 111//111
f 107//107 69//69 9//9
f 111//111 103//103 106//106
f 115//115 116//116 111//111
f 115//115 69//69 107//107
f 115//115 107//107 116//116
f 107//107 19//19 116//116
f 107//107 67//67 68//68
f 7//7 69//69 70//70
f 92//92 40//40 90//90
f 72//72 92//92 90//90
f 81//81 92//92 72//72
f 81//81 72//72 21//21
f 121//121 73//73 74//74
f 121//121 74//74 63//63
f 109//109 75//75 96//96
f 109//109 126//126 75//75
f 118//118 14//14 126//126
f 119//119 120//120 103//103
f 94//94 95//95 14//14
f 77//77 82//82 121//121
f 60//60 59//59 98//98
f 99//99 98//98 61//61
f 98//98 99//99 77//77
f 60//60 98//98 77//77
f 77//77 99//99 82//82
f 78//78 100//100 26//26
f 80//80 79//79 40//40
f 49//49 80//80 40//40
f 2//2 62//62 80//80
f 49//49 92//92 81//81
f 110//110 46//46 80//80
f 81//81 21//21 70//70
f 112//112 83//83 87//87
f 112//112 87//87 102//102
f 112//112 122//122 83//83
f 102//102 87//87 84//84
f 123//123 55//55 84//84
f 123//123 84//84 87//87
f 113//113 87//87 105//105
f 120//120 106//106 103//103
f 111//111 116//116 88//88
f 117//117 90//90 40//40
f 117//117 90//90 125//125
f 108//108 51//51 69//69
f 121//121 94//94 73//73
f 94//94 109//109 96//96
f 94//94 14//14 109//109
f 119//119 42//42 120//120
f 40//40 79//79 117//117
f 78//78 46//46 110//110
f 102//102 111//111 122//122
f 105//105 55//55 113//113
f 102//102 103//103 111//111
f 124//124 114//114 88//88
f 116//116 124//124 88//88
f 127//127 119//119 105//105
f 125//125 90//90 117//117
f 49//49 40//40 92//92
f 14//14 118//118 109//109
f 126//126 109//109 118//118
f 105//105 119//119 55//55
f 78//78 110//110 100//100
f 102//102 119//119 103//103
f 55//55 119//119 102//102
f 102//102 122//122 112//112
f 123//123 113//113 55//55
f 123//123 87//87 113//113
f 55//55 102//102 84//84
f 127//127 105//105 87//87
f 127//127 42//42 119//119
# 250 faces, 0 coords texture

# End of File
