####
#
# OBJ File Generated by Meshlab
#
####
# Object vo5_split_ends_anti_breakage_shampoo_250_collision.obj
#
# Vertices: 127
# Faces: 250
#
####
vn 0.177898 -0.393336 -0.902020
v 0.005825 -0.014318 0.013323
vn -0.000892 -0.063495 -0.997982
v 0.003427 -0.002176 0.010998
vn -0.216339 -0.935577 -0.279093
v -0.000317 -0.029916 0.029178
vn 0.096419 -0.991848 -0.083314
v 0.005705 -0.034100 0.058694
vn 0.249815 0.243659 -0.937136
v 0.002869 0.009575 0.012562
vn 0.221789 0.670777 -0.707720
v 0.001114 0.024730 0.017409
vn 0.295823 0.940883 -0.165009
v 0.005151 0.033103 0.041994
vn 0.088856 0.994245 0.059841
v 0.004050 0.035031 0.116694
vn 0.999732 -0.003651 0.022880
v 0.020739 -0.001782 0.177960
vn -0.394510 -0.574057 -0.717510
v -0.004073 -0.021934 0.017411
vn -0.496041 -0.138335 -0.857209
v -0.008074 -0.004284 0.011945
vn -0.874660 -0.471269 -0.113473
v -0.013054 -0.017752 0.039954
vn -0.898863 -0.265984 -0.348278
v -0.012805 -0.010545 0.019622
vn -0.562855 -0.823528 -0.070680
v -0.004653 -0.031054 0.056948
vn -0.999587 -0.005415 -0.028239
v -0.016821 0.004053 0.043884
vn -0.573680 -0.818275 -0.036308
v -0.004374 -0.032668 0.083299
vn -0.934367 -0.355333 -0.026409
v -0.013293 -0.019819 0.076588
vn -0.892888 -0.450031 -0.014919
v -0.010667 -0.025872 0.097854
vn -0.648157 -0.757931 0.073713
v -0.006866 -0.031355 0.105929
vn -0.957182 -0.287283 0.035657
v -0.015772 -0.013731 0.109943
vn -0.996717 -0.076887 -0.025354
v -0.018245 0.002603 0.085642
vn -0.959088 -0.282022 -0.024792
v -0.014117 -0.013238 0.135064
vn -0.937075 -0.348051 0.027396
v -0.014898 -0.016451 0.148493
vn -0.784861 -0.619529 0.013284
v -0.008416 -0.026036 0.126410
vn -0.602154 -0.797106 0.045088
v -0.005699 -0.029359 0.137710
vn -0.454987 -0.882560 0.118632
v -0.005442 -0.027451 0.153810
vn -0.672399 -0.728160 0.132904
v -0.008809 -0.022079 0.175770
vn -0.881867 -0.465297 0.076217
v -0.011254 -0.019235 0.160267
vn -0.964879 -0.254043 0.066857
v -0.014710 -0.009145 0.180860
vn -0.993980 -0.090411 0.061883
v -0.015167 -0.002931 0.160497
vn -0.776682 -0.628058 0.048050
v -0.008686 -0.017467 0.193315
vn 0.079445 -0.988306 0.130150
v 0.006363 -0.024064 0.200566
vn -0.960279 -0.118473 0.252644
v -0.012900 -0.002917 0.207337
vn -0.696527 -0.704737 0.134888
v -0.008809 -0.019285 0.201013
vn -0.358760 -0.806648 0.469692
v 0.000302 -0.022909 0.206648
vn -0.225637 -0.306850 0.924625
v -0.003353 -0.011717 0.214384
vn -0.317229 0.170590 -0.932880
v -0.007672 0.013778 0.012820
vn -0.512645 0.512495 -0.688871
v -0.007623 0.022109 0.016019
vn -0.023048 0.436356 -0.899479
v -0.004407 0.019125 0.013589
vn -0.895657 0.153578 -0.417387
v -0.014896 0.011749 0.019665
vn -0.715388 0.640493 -0.279266
v -0.010526 0.023640 0.022392
vn -0.247977 0.771816 -0.585498
v -0.005357 0.025865 0.019378
vn -0.146946 0.934170 -0.325167
v -0.002428 0.029288 0.024289
vn -0.929676 0.361397 -0.071374
v -0.014882 0.018440 0.033001
vn -0.597726 0.794604 -0.106432
v -0.007399 0.030742 0.042996
vn -0.186487 0.974303 -0.126320
v -0.001453 0.033276 0.043977
vn -0.864108 0.502544 -0.027681
v -0.011751 0.028447 0.069432
vn -0.996357 0.072801 -0.044418
v -0.016579 0.007194 0.063993
vn -0.336671 0.941206 -0.027988
v -0.001579 0.035257 0.068930
vn -0.958500 0.285026 -0.006237
v -0.015361 0.020956 0.093098
vn -0.997970 0.056580 0.029239
v -0.017401 0.007844 0.109750
vn -0.653478 0.756060 0.036604
v -0.008976 0.032113 0.105888
vn -0.998829 -0.044111 0.019865
v -0.016631 0.001307 0.132871
vn -0.946773 0.318706 0.045245
v -0.014888 0.018854 0.133503
vn -0.562899 0.820830 0.096864
v -0.006785 0.029888 0.141942
vn -0.993719 0.103092 0.043519
v -0.015793 0.008593 0.153374
vn -0.054822 0.988274 0.142507
v 0.000724 0.031168 0.149767
vn -0.860921 0.500072 0.093504
v -0.012620 0.020449 0.160432
vn -0.467751 0.867307 0.170254
v -0.005617 0.026566 0.166491
vn -0.972573 0.221203 0.071908
v -0.013970 0.010786 0.187069
vn -0.663249 0.739902 0.112449
v -0.008048 0.019009 0.192238
vn -0.028504 0.985835 0.165279
v 0.002699 0.026564 0.176918
vn -0.097956 0.957701 0.270580
v -0.001585 0.022915 0.203393
vn -0.757944 0.477334 0.444604
v -0.010617 0.015220 0.205047
vn -0.534544 -0.144234 0.832742
v -0.007770 -0.007546 0.213589
vn 0.069952 0.479584 0.874703
v 0.003310 0.017333 0.212972
vn 0.260199 -0.720166 -0.643163
v 0.005490 -0.024519 0.020339
vn 0.726241 -0.367921 -0.580697
v 0.016221 -0.011220 0.017321
vn 0.456204 0.013172 -0.889778
v 0.012617 -0.005125 0.012453
vn 0.417389 -0.891569 -0.175759
v 0.010171 -0.031372 0.046499
vn 0.922824 -0.277415 -0.267277
v 0.018197 -0.011575 0.023217
vn 0.563487 -0.751936 -0.342161
v 0.008526 -0.028121 0.028438
vn 0.777507 -0.592549 -0.210637
v 0.014908 -0.024037 0.036985
vn 0.952469 -0.295855 -0.072606
v 0.022118 -0.014478 0.044968
vn 0.691776 -0.718118 -0.075837
v 0.013472 -0.031661 0.059007
vn -0.021967 -0.998858 -0.042423
v 0.005412 -0.035083 0.076548
vn 0.946657 -0.322208 -0.004779
v 0.018764 -0.021732 0.062687
vn 0.841757 -0.539697 -0.013125
v 0.015340 -0.029658 0.081480
vn 0.999970 -0.001749 0.007557
v 0.022242 0.002593 0.073062
vn 0.979209 -0.196049 -0.052094
v 0.021112 -0.015350 0.081478
vn 0.530118 -0.847892 -0.007391
v 0.012129 -0.032760 0.081420
vn -0.072130 -0.994841 0.071328
v 0.005006 -0.033714 0.122729
vn 0.055098 -0.997628 0.041259
v 0.005490 -0.035762 0.106536
vn 0.876655 -0.481052 -0.008053
v 0.017942 -0.026418 0.095164
vn 0.989067 -0.142316 0.038636
v 0.023176 -0.011996 0.099612
vn 0.994248 -0.105911 0.015907
v 0.020866 -0.012573 0.125384
vn 0.959666 -0.270813 0.075506
v 0.020394 -0.019213 0.109355
vn 0.672640 -0.737923 0.054999
v 0.014979 -0.030428 0.113255
vn 0.633808 -0.769984 0.073565
v 0.013684 -0.030078 0.129555
vn 0.993018 0.115197 0.025392
v 0.021906 0.007290 0.115334
vn 0.005309 -0.993569 0.113100
v 0.005835 -0.032745 0.139445
vn 0.363313 -0.920713 0.142448
v 0.008982 -0.029256 0.157753
vn -0.042505 -0.989847 0.135633
v 0.003085 -0.027121 0.175162
vn 0.997626 -0.062984 0.027838
v 0.020503 -0.010582 0.144461
vn 0.896909 -0.438029 0.060711
v 0.017987 -0.021660 0.151866
vn 0.611663 -0.777581 0.145725
v 0.011600 -0.021746 0.191389
vn 0.884170 -0.458471 0.089705
v 0.018480 -0.017805 0.177549
vn 0.993678 0.084783 0.073599
v 0.020102 -0.001673 0.197598
vn 0.924149 -0.372545 0.084610
v 0.017770 -0.012688 0.197995
vn 0.303786 -0.605969 0.735198
v 0.007452 -0.019025 0.212470
vn 0.858651 -0.359787 0.365065
v 0.017913 -0.011056 0.206919
vn 0.377758 0.041864 0.924958
v 0.011496 -0.006732 0.213229
vn 0.887501 0.159650 -0.432266
v 0.017162 0.005671 0.019766
vn 0.593333 0.373779 -0.712913
v 0.011222 0.010645 0.016050
vn 0.503891 0.508026 -0.698573
v 0.006572 0.024534 0.020774
vn 0.788502 0.475046 -0.390636
v 0.014861 0.019566 0.027340
vn 0.539725 0.733400 -0.413304
v 0.008607 0.026998 0.026067
vn 0.938972 0.308585 -0.152010
v 0.020759 0.015286 0.039871
vn 0.994324 0.055238 -0.090929
v 0.022688 0.000679 0.044601
vn 0.740718 0.654151 -0.153047
v 0.014920 0.027360 0.046723
vn 0.602418 0.795692 -0.062982
v 0.010743 0.032000 0.052995
vn 0.905546 0.424131 -0.009977
v 0.018339 0.023424 0.070358
vn 0.993286 0.111340 0.031401
v 0.021742 0.009358 0.100487
vn 0.849695 0.526374 0.030805
v 0.017741 0.025889 0.091389
vn 0.706210 0.705993 0.053310
v 0.011395 0.030042 0.121804
vn 0.068474 0.996647 -0.044796
v 0.002784 0.035734 0.067345
vn 0.509893 0.860139 -0.013058
v 0.007620 0.034586 0.078889
vn 0.917531 0.394310 0.051546
v 0.016231 0.023388 0.116836
vn 0.873484 0.483144 0.059979
v 0.016498 0.020993 0.147259
vn 0.980209 0.193365 0.042435
v 0.020478 0.008896 0.141311
vn 0.515243 0.849807 0.111144
v 0.010318 0.029388 0.144030
vn 0.950776 0.309650 0.011893
v 0.018469 0.012357 0.167580
vn 0.636236 0.762361 0.118361
v 0.010878 0.022571 0.183060
vn 0.902530 0.428095 0.046641
v 0.017969 0.014560 0.177083
vn 0.731214 0.675515 0.094900
v 0.012845 0.019058 0.190137
vn 0.846780 0.316714 0.427382
v 0.017487 0.010970 0.202867
vn 0.455265 0.813551 0.361757
v 0.007718 0.020911 0.206693
# 127 vertices, 0 vertices normals

f 10//10 1//1 67//67
f 13//13 11//11 10//10
f 11//11 2//2 10//10
f 1//1 10//10 2//2
f 11//11 13//13 40//40
f 4//4 14//14 3//3
f 10//10 67//67 3//3
f 12//12 10//10 3//3
f 12//12 13//13 10//10
f 14//14 12//12 3//3
f 12//12 15//15 13//13
f 40//40 13//13 15//15
f 14//14 4//4 76//76
f 16//16 14//14 76//76
f 17//17 12//12 14//14
f 16//16 17//17 14//14
f 17//17 15//15 12//12
f 17//17 48//48 15//15
f 17//17 16//16 18//18
f 17//17 21//21 48//48
f 19//19 16//16 83//83
f 19//19 18//18 16//16
f 21//21 17//17 18//18
f 18//18 20//20 21//21
f 20//20 19//19 24//24
f 19//19 20//20 18//18
f 51//51 21//21 20//20
f 19//19 83//83 82//82
f 24//24 19//19 82//82
f 25//25 24//24 82//82
f 22//22 20//20 24//24
f 51//51 20//20 53//53
f 53//53 20//20 22//22
f 23//23 24//24 25//25
f 25//25 82//82 91//91
f 23//23 22//22 24//24
f 53//53 22//22 23//23
f 26//26 28//28 25//25
f 91//91 26//26 25//25
f 26//26 91//91 92//92
f 23//23 25//25 28//28
f 26//26 92//92 93//93
f 28//28 30//30 23//23
f 23//23 30//30 53//53
f 27//27 26//26 93//93
f 28//28 26//26 27//27
f 27//27 29//29 28//28
f 30//30 28//28 29//29
f 27//27 93//93 32//32
f 31//31 29//29 27//27
f 31//31 27//27 32//32
f 33//33 29//29 31//31
f 31//31 34//34 33//33
f 31//31 32//32 34//34
f 34//34 32//32 35//35
f 35//35 36//36 65//65
f 34//34 35//35 65//65
f 65//65 33//33 34//34
f 100//100 36//36 35//35
f 37//37 5//5 2//2
f 2//2 11//11 37//37
f 40//40 37//37 11//11
f 40//40 38//38 37//37
f 39//39 5//5 37//37
f 39//39 37//37 38//38
f 39//39 6//6 5//5
f 42//42 6//6 39//39
f 39//39 38//38 42//42
f 41//41 38//38 40//40
f 41//41 42//42 38//38
f 41//41 43//43 42//42
f 42//42 43//43 6//6
f 41//41 45//45 43//43
f 44//44 45//45 41//41
f 45//45 46//46 43//43
f 7//7 43//43 46//46
f 44//44 40//40 15//15
f 40//40 44//44 41//41
f 15//15 47//47 44//44
f 45//45 44//44 47//47
f 46//46 116//116 7//7
f 47//47 15//15 48//48
f 50//50 48//48 21//21
f 48//48 50//50 47//47
f 49//49 45//45 47//47
f 46//46 45//45 49//49
f 116//116 46//46 49//49
f 50//50 21//21 51//51
f 47//47 50//50 52//52
f 50//50 51//51 54//54
f 116//116 49//49 8//8
f 49//49 47//47 52//52
f 52//52 8//8 49//49
f 8//8 52//52 55//55
f 52//52 50//50 54//54
f 55//55 52//52 54//54
f 54//54 51//51 53//53
f 53//53 56//56 54//54
f 57//57 121//121 8//8
f 55//55 54//54 58//58
f 57//57 8//8 55//55
f 59//59 57//57 55//55
f 30//30 56//56 53//53
f 58//58 54//54 56//56
f 56//56 30//30 60//60
f 58//58 56//56 60//60
f 60//60 30//30 29//29
f 59//59 55//55 58//58
f 62//62 57//57 59//59
f 59//59 58//58 61//61
f 60//60 29//29 33//33
f 60//60 64//64 61//61
f 60//60 61//61 58//58
f 62//62 59//59 61//61
f 63//63 62//62 61//61
f 33//33 64//64 60//60
f 33//33 65//65 64//64
f 64//64 63//63 61//61
f 66//66 63//63 64//64
f 63//63 66//66 127//127
f 64//64 65//65 66//66
f 68//68 67//67 1//1
f 1//1 69//69 68//68
f 69//69 1//1 2//2
f 4//4 3//3 70//70
f 72//72 3//3 67//67
f 67//67 68//68 72//72
f 72//72 68//68 71//71
f 73//73 70//70 72//72
f 71//71 73//73 72//72
f 103//103 71//71 68//68
f 74//74 71//71 109//109
f 103//103 109//109 71//71
f 71//71 74//74 73//73
f 72//72 70//70 3//3
f 4//4 70//70 75//75
f 81//81 76//76 4//4
f 4//4 75//75 81//81
f 81//81 75//75 78//78
f 70//70 73//73 75//75
f 74//74 75//75 73//73
f 75//75 74//74 77//77
f 79//79 77//77 74//74
f 74//74 109//109 79//79
f 78//78 75//75 77//77
f 80//80 78//78 77//77
f 80//80 77//77 79//79
f 81//81 83//83 76//76
f 16//16 76//76 83//83
f 88//88 82//82 83//83
f 83//83 81//81 88//88
f 82//82 88//88 89//89
f 84//84 78//78 80//80
f 78//78 84//84 81//81
f 84//84 80//80 85//85
f 85//85 80//80 113//113
f 81//81 84//84 88//88
f 88//88 84//84 87//87
f 84//84 85//85 87//87
f 85//85 113//113 87//87
f 113//113 86//86 87//87
f 86//86 113//113 90//90
f 82//82 89//89 91//91
f 87//87 89//89 88//88
f 89//89 87//87 95//95
f 86//86 95//95 87//87
f 94//94 86//86 90//90
f 89//89 92//92 91//91
f 95//95 86//86 94//94
f 92//92 89//89 95//95
f 92//92 95//95 97//97
f 97//97 96//96 92//92
f 95//95 94//94 97//97
f 97//97 94//94 9//9
f 122//122 9//9 94//94
f 93//93 92//92 96//96
f 32//32 93//93 96//96
f 96//96 97//97 99//99
f 9//9 99//99 97//97
f 100//100 35//35 32//32
f 32//32 96//96 101//101
f 101//101 96//96 99//99
f 32//32 101//101 100//100
f 99//99 98//98 101//101
f 126//126 102//102 101//101
f 36//36 100//100 102//102
f 101//101 102//102 100//100
f 36//36 102//102 65//65
f 65//65 102//102 66//66
f 5//5 104//104 69//69
f 69//69 2//2 5//5
f 68//68 69//69 103//103
f 103//103 69//69 104//104
f 6//6 105//105 5//5
f 104//104 5//5 105//105
f 106//106 103//103 104//104
f 106//106 108//108 103//103
f 108//108 109//109 103//103
f 105//105 107//107 104//104
f 104//104 107//107 106//106
f 107//107 105//105 6//6
f 6//6 43//43 107//107
f 107//107 43//43 7//7
f 107//107 110//110 106//106
f 108//108 106//106 110//110
f 110//110 107//107 7//7
f 111//111 110//110 7//7
f 108//108 112//112 109//109
f 79//79 109//109 112//112
f 112//112 108//108 110//110
f 112//112 110//110 111//111
f 113//113 79//79 112//112
f 112//112 111//111 117//117
f 112//112 114//114 113//113
f 117//117 7//7 116//116
f 111//111 7//7 117//117
f 80//80 79//79 113//113
f 117//117 114//114 112//112
f 90//90 113//113 118//118
f 115//115 118//118 114//114
f 113//113 114//114 118//118
f 117//117 116//116 8//8
f 115//115 114//114 117//117
f 115//115 117//117 8//8
f 120//120 94//94 90//90
f 115//115 119//119 118//118
f 120//120 90//90 118//118
f 120//120 118//118 119//119
f 119//119 115//115 121//121
f 115//115 8//8 121//121
f 120//120 119//119 122//122
f 122//122 94//94 120//120
f 57//57 62//62 121//121
f 119//119 121//121 123//123
f 122//122 119//119 123//123
f 9//9 122//122 124//124
f 124//124 122//122 123//123
f 124//124 123//123 125//125
f 123//123 121//121 62//62
f 98//98 124//124 125//125
f 98//98 9//9 124//124
f 99//99 9//9 98//98
f 123//123 62//62 63//63
f 98//98 125//125 126//126
f 126//126 125//125 127//127
f 101//101 98//98 126//126
f 126//126 66//66 102//102
f 66//66 126//126 127//127
f 125//125 123//123 63//63
f 125//125 63//63 127//127
# 250 faces, 0 coords texture

# End of File
