####
#
# OBJ File Generated by Meshlab
#
####
# Object nutrigrain_strawberry_250_collision.obj
#
# Vertices: 127
# Faces: 250
#
####
vn -0.045354 -0.085382 0.995315
v 0.004462 0.002663 -0.000308
vn 0.085812 0.160858 0.983240
v 0.000652 -0.005550 0.000066
vn 0.520235 0.853977 -0.008813
v 0.007919 -0.029873 0.080001
vn -0.133799 -0.209755 0.968556
v 0.050537 -0.017207 0.000285
vn -0.522458 -0.852596 0.010837
v -0.004066 0.031205 0.081436
vn 0.183447 0.289076 -0.939565
v -0.005237 -0.008374 0.149923
vn 0.334829 0.534245 0.776191
v 0.005068 -0.020257 0.003754
vn 0.228920 0.427049 0.874771
v -0.020171 -0.003656 0.001619
vn 0.477685 0.810523 0.338923
v -0.010104 -0.016603 0.010466
vn 0.520045 0.853567 0.031270
v 0.007706 -0.029260 0.044978
vn 0.537550 0.843124 0.013502
v -0.035090 -0.003143 0.057182
vn 0.536723 0.843515 -0.020280
v -0.027140 -0.007587 0.097220
vn 0.531054 0.845489 -0.055939
v -0.001939 -0.022415 0.117472
vn 0.463348 0.758161 -0.458803
v -0.013736 -0.012872 0.141093
vn 0.240822 0.342915 0.907972
v -0.050541 0.016651 0.001031
vn 0.043102 -0.004022 0.999063
v -0.047726 0.027879 -0.000213
vn 0.640701 0.483475 0.596451
v -0.078292 0.025994 0.008056
vn 0.507219 0.796386 0.329390
v -0.055594 0.011130 0.006942
vn 0.877645 0.476299 0.053649
v -0.078680 0.025250 0.013334
vn 0.317235 0.150907 0.936263
v -0.069867 0.029354 0.001756
vn 0.286622 -0.201469 0.936621
v -0.069480 0.042328 0.002306
vn 0.605887 -0.700353 0.377367
v -0.067819 0.055158 0.008717
vn 0.853503 -0.107929 0.509788
v -0.078629 0.033685 0.006282
vn 0.032942 0.052581 0.998073
v -0.025666 0.012295 -0.000212
vn 0.434455 0.732831 0.523649
v -0.037662 0.001341 0.005077
vn -0.091971 -0.145767 0.985035
v -0.017773 0.019407 0.000320
vn -0.339301 -0.514148 0.787735
v -0.011987 0.027514 0.003480
vn -0.316190 -0.516029 0.796077
v -0.031933 0.041425 0.003310
vn -0.030262 -0.138187 0.989944
v -0.047617 0.037156 0.000331
vn 0.008800 -0.506582 0.862147
v -0.055672 0.053294 0.003000
vn -0.175779 -0.933128 0.313646
v -0.054624 0.059416 0.011083
vn 0.526622 0.848796 0.047070
v -0.026031 -0.007190 0.021914
vn 0.970497 -0.235138 0.053349
v -0.080576 0.036402 0.025540
vn 0.692451 -0.721265 0.017000
v -0.068522 0.056046 0.058217
vn -0.346062 -0.937872 0.025254
v -0.052314 0.059013 0.049853
vn -0.515832 -0.812244 0.272356
v -0.014298 0.034607 0.010672
vn -0.525146 -0.850175 0.037754
v 0.014683 0.019237 0.044353
vn -0.512302 -0.858381 0.026994
v -0.014220 0.036988 0.060455
vn 0.276603 -0.960396 0.033607
v -0.063716 0.059534 0.036475
vn -0.021195 -0.999614 0.017966
v -0.057034 0.062160 0.093626
vn 0.679925 -0.733259 0.005839
v -0.067931 0.057831 0.099929
vn 0.626914 0.779087 0.001499
v -0.074050 0.022615 0.057457
vn 0.960670 0.277626 -0.006161
v -0.080463 0.031884 0.083044
vn 0.936752 -0.349963 0.004652
v -0.080475 0.039467 0.080618
vn 0.806559 0.591058 -0.010634
v -0.077269 0.024886 0.110349
vn 0.995347 -0.019514 -0.094356
v -0.080338 0.034985 0.137027
vn 0.980815 -0.192575 -0.030261
v -0.080629 0.037498 0.123874
vn -0.512892 -0.858388 0.010543
v -0.028781 0.046546 0.107289
vn -0.527676 -0.849424 -0.006044
v -0.013277 0.036960 0.112424
vn 0.528782 0.846377 -0.063533
v -0.052690 0.009514 0.124589
vn -0.528530 -0.845092 -0.080472
v -0.013927 0.037347 0.131017
vn -0.445150 -0.698127 -0.560767
v -0.024232 0.041501 0.140650
vn -0.485309 -0.815517 -0.315290
v 0.008097 0.023051 0.135474
vn 0.625741 -0.767371 -0.139963
v -0.065827 0.059648 0.136317
vn -0.290935 -0.935178 -0.201988
v -0.053680 0.061630 0.136173
vn 0.458557 0.701417 -0.545655
v -0.061170 0.016824 0.142134
vn 0.077187 0.097877 -0.992201
v -0.048974 0.024243 0.152697
vn 0.736741 0.601544 -0.308802
v -0.076695 0.025643 0.138561
vn 0.874600 -0.141381 -0.463773
v -0.079629 0.035235 0.140963
vn 0.481075 0.220482 -0.848501
v -0.069976 0.033933 0.149984
vn 0.122505 -0.609477 -0.783282
v -0.062736 0.057138 0.146542
vn 0.268909 0.439345 -0.857125
v -0.022799 -0.002257 0.146215
vn -0.133656 -0.195148 -0.971624
v -0.015675 0.021459 0.149965
vn -0.285859 -0.456751 -0.842415
v -0.030471 0.040371 0.145625
vn 0.275094 0.902015 0.332705
v 0.075375 -0.068134 0.009611
vn -0.524645 0.826829 0.202734
v 0.086423 -0.068797 0.011839
vn 0.376205 0.611071 0.696464
v 0.034294 -0.041675 0.004762
vn 0.517864 0.852559 0.070426
v 0.053717 -0.056767 0.024875
vn 0.144387 0.322663 0.935436
v 0.064872 -0.051561 0.001592
vn 0.068296 0.143969 0.987223
v 0.058047 -0.040383 0.000348
vn -0.102542 0.094567 0.990223
v 0.083142 -0.049336 0.000926
vn 0.397984 0.722272 0.565625
v 0.059181 -0.058136 0.007530
vn 0.129934 0.215246 0.967877
v 0.025826 -0.027726 0.001085
vn 0.011421 0.020318 0.999728
v 0.037050 -0.023823 -0.000069
vn 0.506172 0.814205 0.284359
v 0.011547 -0.029136 0.009513
vn -0.051070 -0.041744 0.997822
v 0.066779 -0.033725 0.000092
vn -0.227728 -0.366480 0.902127
v 0.065649 -0.022691 0.001559
vn -0.448593 -0.731628 0.513308
v 0.067012 -0.016957 0.005953
vn -0.210129 0.527442 0.823196
v 0.084117 -0.065097 0.004220
vn -0.209477 -0.194384 0.958297
v 0.086572 -0.036820 0.001393
vn -0.567570 -0.114453 0.815331
v 0.096718 -0.040399 0.004003
vn -0.447060 -0.648886 0.615699
v 0.083731 -0.027749 0.004687
vn 0.158631 0.986528 0.039988
v 0.077800 -0.071175 0.027656
vn -0.157031 0.987543 0.010005
v 0.080807 -0.071220 0.067449
vn -0.658605 0.752363 0.013765
v 0.088286 -0.066977 0.060095
vn 0.400757 0.916175 0.004212
v 0.074716 -0.069992 0.055965
vn 0.516381 0.856336 0.006218
v 0.044919 -0.051525 0.051686
vn -0.536733 -0.843419 0.023689
v 0.060971 -0.009606 0.057591
vn -0.943094 0.174998 0.282754
v 0.101280 -0.044827 0.011629
vn -0.944345 0.328765 0.011190
v 0.101043 -0.046481 0.054256
vn -0.954712 -0.297510 0.003659
v 0.101036 -0.038896 0.061157
vn -0.763719 -0.605889 0.222783
v 0.099099 -0.035895 0.010677
vn -0.535386 -0.838312 0.102932
v 0.084136 -0.025721 0.015906
vn -0.623124 -0.782076 0.008621
v 0.094309 -0.031455 0.058303
vn -0.973441 0.228822 0.007231
v 0.101432 -0.046929 0.085113
vn 0.502620 0.802916 -0.320466
v 0.046184 -0.051471 0.141180
vn 0.174870 0.984585 -0.003528
v 0.076882 -0.071307 0.106638
vn 0.233522 0.955091 -0.182397
v 0.077046 -0.071051 0.137721
vn 0.524704 0.851264 -0.005908
v 0.057799 -0.059377 0.093829
vn -0.559640 -0.827789 -0.039595
v 0.073576 -0.017472 0.111318
vn -0.861380 -0.507958 0.001455
v 0.099629 -0.035647 0.105415
vn -0.551011 0.834490 -0.003534
v 0.087579 -0.068996 0.114288
vn -0.968586 0.179017 -0.172610
v 0.102203 -0.046396 0.136278
vn -0.693357 -0.598384 -0.401489
v 0.099450 -0.035471 0.140235
vn -0.476319 0.741013 -0.473307
v 0.086536 -0.068877 0.145049
vn 0.395085 0.623426 -0.674721
v 0.024002 -0.036756 0.143377
vn 0.198129 0.275512 -0.940658
v 0.050770 -0.043789 0.149063
vn 0.110085 0.239729 -0.964578
v 0.007518 -0.015115 0.149721
vn -0.034674 -0.048730 -0.998210
v 0.037513 -0.018710 0.150801
vn -0.273422 -0.479036 -0.834126
v 0.016917 0.008142 0.147540
vn -0.427393 -0.665319 -0.612116
v 0.051109 -0.006965 0.142249
vn 0.149345 0.447706 -0.881621
v 0.076760 -0.063555 0.150036
vn -0.151155 -0.271121 -0.950603
v 0.065697 -0.027875 0.148701
vn -0.542029 -0.016219 -0.840203
v 0.095085 -0.044080 0.149865
vn -0.291641 -0.534864 0.793011
v 0.011427 0.012849 0.003064
vn -0.176291 -0.305485 0.935735
v 0.028905 -0.002019 0.000640
vn -0.515989 -0.828248 0.218544
v 0.048319 -0.003971 0.009309
vn -0.447184 -0.752860 0.482937
v 0.034350 0.003894 0.006453
vn -0.498801 -0.826634 0.260526
v 0.007353 0.021060 0.012199
vn -0.356369 -0.575546 0.736036
v 0.049923 -0.008111 0.004362
vn -0.527238 -0.848332 0.048517
v 0.035852 0.004949 0.031058
vn -0.528712 -0.848571 0.019747
v 0.021351 0.015207 0.070199
vn -0.521475 -0.853167 0.012998
v 0.016880 0.018498 0.088784
vn -0.532148 -0.846651 0.000786
v 0.043948 0.002153 0.100447
vn -0.521063 -0.853399 -0.014274
v 0.013183 0.020782 0.113900
vn -0.524661 -0.822631 -0.219110
v 0.039424 0.003918 0.134540
vn -0.218612 -0.343701 -0.913279
v 0.009728 0.009328 0.148653
# 127 vertices, 0 vertices normals

f 32//32 9//9 25//25
f 8//8 7//7 2//2
f 7//7 73//73 2//2
f 75//75 7//7 9//9
f 10//10 75//75 9//9
f 8//8 9//9 7//7
f 9//9 8//8 25//25
f 10//10 9//9 32//32
f 10//10 32//32 11//11
f 12//12 3//3 11//11
f 10//10 11//11 3//3
f 13//13 3//3 12//12
f 14//14 106//106 13//13
f 62//62 6//6 14//14
f 106//106 14//14 108//108
f 14//14 6//6 108//108
f 18//18 15//15 17//17
f 20//20 17//17 15//15
f 18//18 17//17 19//19
f 17//17 23//23 19//19
f 33//33 19//19 23//23
f 20//20 23//23 17//17
f 20//20 21//21 23//23
f 20//20 15//15 16//16
f 29//29 30//30 21//21
f 21//21 20//20 16//16
f 21//21 16//16 29//29
f 21//21 30//30 22//22
f 21//21 22//22 23//23
f 33//33 23//23 22//22
f 15//15 25//25 8//8
f 15//15 8//8 24//24
f 15//15 18//18 25//25
f 16//16 15//15 24//24
f 16//16 24//24 26//26
f 25//25 18//18 32//32
f 24//24 8//8 2//2
f 1//1 24//24 2//2
f 26//26 24//24 1//1
f 27//27 26//26 1//1
f 115//115 27//27 1//1
f 36//36 27//27 119//119
f 27//27 115//115 119//119
f 29//29 16//16 26//26
f 29//29 26//26 28//28
f 27//27 28//28 26//26
f 30//30 29//29 28//28
f 31//31 30//30 28//28
f 36//36 31//31 28//28
f 36//36 28//28 27//27
f 31//31 22//22 30//30
f 39//39 22//22 31//31
f 42//42 18//18 19//19
f 42//42 32//32 18//18
f 11//11 32//32 42//42
f 19//19 33//33 43//43
f 42//42 19//19 43//43
f 43//43 33//33 44//44
f 34//34 33//33 22//22
f 44//44 33//33 34//34
f 36//36 35//35 31//31
f 35//35 36//36 38//38
f 36//36 119//119 38//38
f 119//119 37//37 38//38
f 122//122 38//38 37//37
f 122//122 5//5 38//38
f 5//5 122//122 123//123
f 34//34 22//22 39//39
f 39//39 31//31 35//35
f 41//41 34//34 40//40
f 35//35 40//40 39//39
f 39//39 40//40 34//34
f 41//41 44//44 34//34
f 42//42 12//12 11//11
f 50//50 12//12 45//45
f 12//12 42//42 45//45
f 42//42 43//43 45//45
f 43//43 44//44 47//47
f 47//47 44//44 41//41
f 58//58 50//50 45//45
f 50//50 58//58 56//56
f 45//45 43//43 47//47
f 46//46 58//58 45//45
f 45//45 47//47 46//46
f 46//46 59//59 58//58
f 46//46 47//47 54//54
f 46//46 54//54 59//59
f 61//61 59//59 54//54
f 5//5 48//48 38//38
f 48//48 5//5 49//49
f 49//49 5//5 125//125
f 5//5 123//123 125//125
f 13//13 12//12 50//50
f 13//13 50//50 14//14
f 14//14 50//50 56//56
f 51//51 55//55 48//48
f 55//55 51//51 52//52
f 51//51 49//49 53//53
f 125//125 53//53 49//49
f 51//51 48//48 49//49
f 51//51 53//53 52//52
f 41//41 40//40 54//54
f 47//47 41//41 54//54
f 54//54 40//40 55//55
f 61//61 54//54 55//55
f 40//40 35//35 38//38
f 48//48 40//40 38//38
f 55//55 40//40 48//48
f 60//60 57//57 56//56
f 59//59 60//60 58//58
f 56//56 58//58 60//60
f 60//60 61//61 57//57
f 61//61 60//60 59//59
f 56//56 62//62 14//14
f 56//56 57//57 62//62
f 57//57 63//63 62//62
f 63//63 6//6 62//62
f 63//63 127//127 6//6
f 64//64 52//52 63//63
f 127//127 63//63 52//52
f 53//53 127//127 52//52
f 57//57 64//64 63//63
f 61//61 64//64 57//57
f 52//52 61//61 55//55
f 61//61 52//52 64//64
f 65//65 66//66 79//79
f 65//65 83//83 66//66
f 68//68 65//65 72//72
f 68//68 67//67 75//75
f 68//68 75//75 10//10
f 69//69 67//67 72//72
f 67//67 69//69 70//70
f 70//70 73//73 67//67
f 71//71 70//70 69//69
f 70//70 71//71 76//76
f 68//68 72//72 67//67
f 67//67 73//73 7//7
f 1//1 2//2 73//73
f 73//73 74//74 1//1
f 1//1 74//74 116//116
f 116//116 74//74 4//4
f 67//67 7//7 75//75
f 74//74 73//73 70//70
f 74//74 70//70 76//76
f 4//4 74//74 76//76
f 4//4 76//76 77//77
f 4//4 77//77 120//120
f 77//77 78//78 120//120
f 117//117 120//120 78//78
f 117//117 78//78 93//93
f 88//88 117//117 93//93
f 79//79 69//69 72//72
f 71//71 69//69 79//79
f 79//79 81//81 71//71
f 76//76 71//71 80//80
f 81//81 80//80 71//71
f 72//72 65//65 79//79
f 81//81 79//79 89//89
f 89//89 79//79 66//66
f 81//81 89//89 92//92
f 76//76 80//80 77//77
f 82//82 77//77 80//80
f 77//77 82//82 78//78
f 80//80 81//81 82//82
f 93//93 78//78 82//82
f 81//81 92//92 82//82
f 92//92 93//93 82//82
f 87//87 86//86 83//83
f 83//83 65//65 68//68
f 85//85 66//66 83//83
f 86//86 84//84 83//83
f 85//85 83//83 84//84
f 68//68 10//10 87//87
f 87//87 83//83 68//68
f 10//10 3//3 87//87
f 99//99 87//87 3//3
f 86//86 87//87 99//99
f 100//100 124//124 88//88
f 90//90 66//66 85//85
f 89//89 66//66 90//90
f 92//92 89//89 91//91
f 90//90 91//91 89//89
f 93//93 92//92 94//94
f 94//94 92//92 91//91
f 88//88 93//93 94//94
f 85//85 95//95 90//90
f 91//91 90//90 95//95
f 100//100 88//88 94//94
f 94//94 91//91 101//101
f 99//99 97//97 86//86
f 84//84 86//86 97//97
f 85//85 102//102 95//95
f 102//102 85//85 84//84
f 98//98 97//97 99//99
f 97//97 102//102 84//84
f 102//102 97//97 98//98
f 98//98 105//105 102//102
f 96//96 3//3 13//13
f 96//96 99//99 3//3
f 98//98 99//99 96//96
f 96//96 13//13 106//106
f 104//104 111//111 100//100
f 126//126 100//100 111//111
f 91//91 95//95 101//101
f 101//101 95//95 103//103
f 101//101 100//100 94//94
f 95//95 102//102 103//103
f 102//102 105//105 103//103
f 103//103 104//104 101//101
f 104//104 103//103 114//114
f 100//100 101//101 104//104
f 112//112 105//105 98//98
f 96//96 106//106 107//107
f 98//98 96//96 112//112
f 96//96 107//107 112//112
f 107//107 106//106 109//109
f 109//109 106//106 108//108
f 108//108 110//110 109//109
f 127//127 108//108 6//6
f 110//110 108//108 127//127
f 110//110 111//111 109//109
f 113//113 107//107 109//109
f 113//113 109//109 111//111
f 114//114 112//112 113//113
f 105//105 114//114 103//103
f 114//114 105//105 112//112
f 113//113 112//112 107//107
f 114//114 113//113 104//104
f 111//111 104//104 113//113
f 1//1 116//116 115//115
f 116//116 118//118 115//115
f 120//120 118//118 116//116
f 118//118 120//120 117//117
f 121//121 118//118 117//117
f 119//119 115//115 118//118
f 121//121 119//119 118//118
f 116//116 4//4 120//120
f 37//37 119//119 121//121
f 88//88 121//121 117//117
f 121//121 122//122 37//37
f 88//88 122//122 121//121
f 124//124 122//122 88//88
f 124//124 123//123 122//122
f 123//123 124//124 125//125
f 126//126 125//125 124//124
f 126//126 53//53 125//125
f 126//126 124//124 100//100
f 126//126 110//110 53//53
f 110//110 126//126 111//111
f 53//53 110//110 127//127
# 250 faces, 0 coords texture

# End of File
