####
#
# OBJ File Generated by Meshlab
#
####
# Object nutrigrain_strawberry_250_collision.obj
#
# Vertices: 127
# Faces: 250
#
####
vn 0.033874 -0.965006 -0.260030
v 0.086995 -0.072410 0.007831
vn -0.030120 0.999043 0.031704
v -0.060665 0.068493 0.012884
vn 0.674580 0.730367 -0.107265
v 0.100094 -0.029354 0.007828
vn -0.886047 -0.446821 -0.123579
v -0.082192 0.027397 0.007491
vn 0.970291 -0.228740 0.078823
v 0.103061 -0.043053 0.135029
vn -0.871082 0.480874 0.099886
v -0.076558 0.042610 0.136728
vn 0.525631 0.842972 -0.114499
v 0.015378 0.027397 0.013699
vn -0.316705 -0.857682 -0.405068
v 0.075002 -0.070450 0.005871
vn -0.555888 -0.744642 -0.369454
v -0.074364 0.020764 0.005871
vn 0.460711 -0.879697 0.117807
v 0.086038 -0.069492 0.140365
vn -0.963888 -0.245839 0.102391
v -0.079529 0.033268 0.135029
vn 0.977882 0.209154 0.000859
v 0.104141 -0.037182 0.011742
vn 0.061624 0.149913 0.986777
v -0.052837 0.054794 0.147768
vn 0.194742 0.503542 -0.841737
v -0.048923 0.060394 0.005871
vn -0.237026 -0.970459 0.045046
v 0.080126 -0.070484 0.135029
vn 0.499380 -0.454281 -0.737732
v 0.090185 -0.068493 0.005871
vn -0.650613 -0.756613 0.065114
v -0.076303 0.027027 0.136127
vn 0.522569 0.845460 0.110086
v 0.003864 0.027369 0.137196
vn -0.000171 0.996851 0.079296
v -0.056751 0.062665 0.138943
vn -0.610682 0.741611 -0.277635
v -0.064579 0.066536 0.010240
vn 0.822041 0.282582 -0.494364
v 0.103647 -0.035225 0.005871
vn 0.999515 0.005562 -0.030645
v 0.104444 -0.039139 0.011742
vn 0.395611 0.544449 -0.739640
v 0.097847 -0.028689 0.005871
vn 0.510246 0.857164 0.070129
v -0.046437 0.058025 0.138847
vn 0.291972 0.491285 -0.820604
v -0.028769 0.048923 0.005871
vn -0.163393 -0.986561 -0.000207
v 0.080235 -0.071414 0.013699
vn -0.471541 -0.768454 -0.432583
v -0.037182 -0.002386 0.005871
vn -0.615151 -0.787998 0.025464
v -0.077918 0.023483 0.011742
vn 0.231854 0.254918 0.938755
v 0.095426 -0.036752 0.147108
vn -0.935178 0.324762 0.141324
v -0.079143 0.037208 0.136927
vn -0.995868 0.032895 0.084649
v -0.079691 0.035177 0.135232
vn -0.889747 0.455876 0.022943
v -0.078328 0.041096 0.107632
vn -0.184528 0.974026 0.131237
v -0.060665 0.062438 0.136986
vn -0.002272 0.999512 0.031169
v -0.058708 0.068493 0.014269
vn -0.176893 0.979986 -0.091299
v -0.061771 0.068493 0.011742
vn -0.774870 0.616365 0.140253
v -0.066451 0.058734 0.138809
vn -0.168100 0.818414 -0.549491
v -0.061664 0.066536 0.007828
vn 0.888434 -0.458932 -0.008159
v 0.101891 -0.047207 0.013699
vn 0.958171 -0.286195 0.000867
v 0.103873 -0.043053 0.015656
vn 0.842285 -0.232625 -0.486252
v 0.103763 -0.043162 0.005871
vn -0.344356 -0.562323 0.751806
v 0.073433 -0.063601 0.146992
vn 0.299288 0.815958 -0.494610
v -0.054794 0.068429 0.011742
vn -0.521892 -0.852760 0.020694
v 0.017612 -0.033784 0.095890
vn -0.433776 -0.717333 -0.545226
v 0.043053 -0.051207 0.005871
vn -0.650329 -0.759643 -0.003862
v -0.078310 0.023744 0.009813
vn 0.477961 0.692311 0.540610
v 0.091148 -0.030113 0.144115
vn 0.400575 0.880736 0.252672
v -0.052804 0.061318 0.141729
vn 0.426272 0.675142 0.602059
v 0.056751 -0.008862 0.144814
vn 0.539398 0.837796 0.084540
v 0.067355 -0.012406 0.137468
vn 0.523269 0.823083 0.220735
v 0.059681 -0.007799 0.139601
vn -0.913873 0.404591 0.033793
v -0.078626 0.039139 0.131115
vn -0.954240 0.251543 -0.161719
v -0.082197 0.037172 0.006624
vn 0.013000 0.999647 0.023178
v -0.057358 0.068493 0.013699
vn -0.011254 0.999813 0.015757
v -0.059725 0.068493 0.013699
vn -0.775736 0.555597 0.299242
v -0.072241 0.056751 0.005871
vn -0.140296 0.984365 0.106505
v -0.058708 0.062725 0.135029
vn -0.581221 0.807884 0.097492
v -0.064579 0.060995 0.135029
vn -0.697002 0.565029 0.441510
v -0.064150 0.062806 0.006096
vn 0.903713 -0.420672 0.079614
v 0.101755 -0.046949 0.135154
vn 0.999260 0.008509 0.037524
v 0.103558 -0.041096 0.131112
vn 0.521586 0.851206 0.058284
v -0.012128 0.037387 0.134765
vn 0.257278 0.964848 -0.053637
v -0.054794 0.068493 0.011904
vn 0.455098 0.745654 -0.486710
v 0.019848 0.022798 0.010536
vn 0.635579 -0.768689 -0.071811
v 0.088062 -0.072407 0.008850
vn -0.420962 -0.705932 0.569606
v 0.074364 -0.066318 0.144814
vn -0.511872 -0.858323 0.035625
v 0.073209 -0.066722 0.139415
vn -0.348097 -0.890360 0.293407
v 0.077341 -0.068512 0.144002
vn -0.513967 -0.857660 0.016033
v 0.071962 -0.068493 0.013699
vn 0.488985 0.787146 0.375893
v -0.025752 0.044031 0.142857
vn 0.484016 0.771128 0.413631
v 0.048462 -0.001957 0.142351
vn 0.572838 0.794968 0.199707
v 0.100365 -0.034618 0.135554
vn 0.550821 0.831303 0.074368
v 0.092436 -0.028777 0.137737
vn -0.010699 0.018755 -0.999767
v -0.074191 0.065747 0.005871
vn -0.392352 0.911748 0.121551
v -0.062638 0.061774 0.137342
vn -0.012094 0.001002 0.999926
v -0.046967 0.027886 0.148572
vn 0.179209 0.448397 0.875685
v -0.053782 0.057391 0.147258
vn -0.342383 -0.533205 0.773606
v -0.045010 0.011742 0.147135
vn -0.436862 -0.898223 0.048455
v 0.078278 -0.069692 0.135029
vn 0.002141 -0.995057 0.099283
v 0.082191 -0.070634 0.136986
vn 0.778998 -0.610319 0.143783
v 0.090015 -0.066026 0.138732
vn -0.429556 -0.676446 0.598250
v -0.049144 0.011742 0.144814
vn -0.585092 -0.802104 0.119570
v -0.069627 0.022338 0.138089
vn -0.530418 -0.841162 0.105369
v -0.052781 0.011652 0.139056
vn -0.527393 -0.849140 0.028594
v -0.008578 -0.017277 0.113976
vn -0.498058 -0.853612 0.152594
v 0.075489 -0.067709 0.142903
vn 0.835546 0.227993 0.499882
v 0.102300 -0.039399 0.144255
vn 0.432139 0.700548 0.567880
v -0.035394 0.048920 0.144814
vn 0.854663 0.503908 0.125011
v 0.102460 -0.037319 0.140687
vn 0.611948 0.766160 0.196261
v 0.097690 -0.032468 0.139667
vn 0.530550 0.843524 0.083569
v 0.046712 0.000842 0.136170
vn 0.013820 0.030402 0.999442
v 0.016107 -0.001875 0.149186
vn 0.040770 0.849763 0.525585
v -0.056360 0.061553 0.144741
vn 0.015233 -0.091183 0.995718
v 0.077363 -0.063456 0.148238
vn -0.035134 -0.058198 0.997687
v 0.026923 -0.027192 0.149178
vn 0.390612 -0.678075 0.622604
v 0.084752 -0.068660 0.146518
vn -0.450257 -0.582479 0.676747
v -0.070469 0.026406 0.145746
vn -0.412928 -0.636576 0.651354
v -0.066312 0.022994 0.145128
vn -0.591657 -0.804291 0.055297
v -0.074399 0.025414 0.135029
vn -0.519181 -0.828420 0.210170
v -0.021526 -0.007525 0.140900
vn -0.747923 -0.653167 0.118251
v -0.076700 0.027477 0.136997
vn 0.302778 -0.131774 0.943907
v 0.091976 -0.054201 0.148273
vn 0.058664 0.065063 0.996155
v 0.070450 -0.028376 0.148286
vn 0.353146 0.555955 0.752464
v 0.060665 -0.012720 0.146022
vn 0.495004 0.844923 0.202670
v -0.051574 0.060782 0.141161
vn -0.197856 0.239213 0.950595
v -0.065919 0.051238 0.148192
vn -0.483901 0.763975 0.426828
v -0.062499 0.060106 0.145203
vn -0.352165 -0.365123 0.861780
v -0.069471 0.027397 0.147007
vn -0.229107 -0.351144 0.907859
v -0.017612 -0.003914 0.148177
vn -0.385852 -0.608867 0.693108
v 0.031400 -0.037341 0.146755
vn -0.305217 -0.480292 0.822291
v 0.012231 -0.023483 0.147992
vn -0.034842 -0.039289 0.998620
v -0.020124 0.002627 0.148806
vn 0.081720 0.126125 0.988643
v 0.023170 0.005132 0.148451
vn -0.193421 -0.512863 0.836397
v 0.080699 -0.066862 0.147764
vn -0.524178 -0.769024 0.365842
v -0.070536 0.023822 0.142829
vn 0.807126 -0.439160 0.394571
v 0.097391 -0.052831 0.143057
vn -0.861942 -0.024537 0.506412
v -0.078003 0.034049 0.144656
vn -0.300060 0.022813 0.953648
v -0.072776 0.037657 0.148166
vn -0.129894 -0.178826 0.975269
v -0.052226 0.018591 0.147974
vn -0.225969 -0.359260 0.905467
v 0.024687 -0.030333 0.148496
vn 0.207044 0.328346 0.921586
v 0.016811 0.011847 0.147865
vn -0.111490 -0.170439 0.979041
v 0.010787 -0.020303 0.148817
vn 0.011317 0.004250 0.999927
v 0.040826 -0.025885 0.149243
vn 0.039663 0.049606 0.997981
v 0.032779 -0.008562 0.148938
vn 0.046714 0.040976 0.998068
v 0.070932 -0.033036 0.148493
vn -0.781362 0.432145 0.450250
v -0.072492 0.046361 0.144484
vn -0.756964 -0.540004 0.367969
v -0.077046 0.029767 0.143307
vn 0.067582 0.089630 0.993680
v 0.049413 -0.014218 0.148492
# 127 vertices, 0 vertices normals

f 16//16 1//1 8//8
f 16//16 64//64 1//1
f 72//72 3//3 7//7
f 20//20 55//55 36//36
f 22//22 21//21 12//12
f 23//23 7//7 3//3
f 23//23 3//3 21//21
f 26//26 15//15 8//8
f 26//26 8//8 1//1
f 26//26 1//1 15//15
f 27//27 84//84 9//9
f 31//31 30//30 52//52
f 32//32 55//55 52//52
f 35//35 19//19 2//2
f 37//37 20//20 35//35
f 38//38 16//16 40//40
f 39//39 38//38 40//40
f 39//39 59//59 38//38
f 39//39 40//40 22//22
f 60//60 39//39 22//22
f 60//60 5//5 39//39
f 40//40 21//21 22//22
f 24//24 7//7 62//62
f 63//63 7//7 23//23
f 42//42 25//25 14//14
f 42//42 14//14 37//37
f 42//42 63//63 25//25
f 42//42 37//37 35//35
f 42//42 35//35 62//62
f 42//42 62//62 7//7
f 42//42 7//7 63//63
f 43//43 27//27 66//66
f 43//43 66//66 84//84
f 43//43 84//84 27//27
f 44//44 66//66 27//27
f 45//45 28//28 17//17
f 45//45 17//17 4//4
f 100//100 4//4 17//17
f 88//88 21//21 3//3
f 88//88 60//60 12//12
f 88//88 12//12 21//21
f 52//52 4//4 31//31
f 51//51 32//32 52//52
f 51//51 52//52 30//30
f 4//4 52//52 9//9
f 53//53 34//34 19//19
f 53//53 19//19 62//62
f 54//54 2//2 19//19
f 54//54 35//35 2//2
f 54//54 34//34 53//53
f 54//54 19//19 34//34
f 54//54 53//53 62//62
f 54//54 62//62 35//35
f 6//6 32//32 51//51
f 6//6 55//55 32//32
f 74//74 33//33 35//35
f 56//56 35//35 33//33
f 56//56 19//19 35//35
f 57//57 35//35 20//20
f 57//57 20//20 36//36
f 57//57 36//36 106//106
f 57//57 74//74 35//35
f 58//58 55//55 20//20
f 58//58 20//20 37//37
f 59//59 80//80 64//64
f 38//38 59//59 64//64
f 38//38 64//64 16//16
f 59//59 39//39 5//5
f 60//60 22//22 12//12
f 61//61 18//18 7//7
f 62//62 104//104 24//24
f 47//47 104//104 62//62
f 63//63 23//23 25//25
f 83//83 9//9 84//84
f 66//66 85//85 83//83
f 68//68 44//44 8//8
f 68//68 8//8 66//66
f 68//68 66//66 44//44
f 86//86 89//89 46//46
f 71//71 88//88 3//3
f 90//90 7//7 18//18
f 90//90 50//50 49//49
f 90//90 18//18 50//50
f 31//31 4//4 11//11
f 55//55 73//73 52//52
f 73//73 9//9 52//52
f 92//92 33//33 106//106
f 74//74 106//106 33//33
f 36//36 55//55 6//6
f 92//92 56//56 33//33
f 92//92 19//19 56//56
f 74//74 57//57 106//106
f 73//73 58//58 37//37
f 73//73 37//37 14//14
f 73//73 55//55 58//58
f 73//73 14//14 25//25
f 73//73 25//25 23//23
f 73//73 23//23 21//21
f 73//73 21//21 40//40
f 73//73 40//40 16//16
f 73//73 16//16 8//8
f 73//73 8//8 44//44
f 73//73 44//44 27//27
f 73//73 27//27 9//9
f 115//115 80//80 59//59
f 86//86 59//59 5//5
f 86//86 5//5 60//60
f 47//47 92//92 87//87
f 47//47 87//87 69//69
f 76//76 87//87 92//92
f 78//78 67//67 85//85
f 78//78 66//66 8//8
f 79//79 15//15 1//1
f 79//79 1//1 64//64
f 79//79 64//64 10//10
f 120//120 76//76 13//13
f 24//24 61//61 7//7
f 47//47 62//62 19//19
f 80//80 10//10 64//64
f 81//81 114//114 65//65
f 67//67 65//65 114//114
f 98//98 17//17 28//28
f 82//82 9//9 83//83
f 84//84 66//66 83//83
f 85//85 66//66 78//78
f 45//45 4//4 9//9
f 45//45 9//9 28//28
f 17//17 82//82 100//100
f 116//116 31//31 11//11
f 50//50 72//72 49//49
f 50//50 89//89 72//72
f 87//87 48//48 70//70
f 69//69 87//87 70//70
f 46//46 103//103 29//29
f 46//46 70//70 48//48
f 46//46 29//29 86//86
f 120//120 29//29 103//103
f 88//88 86//86 60//60
f 49//49 72//72 7//7
f 72//72 89//89 3//3
f 71//71 3//3 89//89
f 90//90 49//49 7//7
f 104//104 47//47 69//69
f 104//104 69//69 70//70
f 105//105 13//13 76//76
f 105//105 76//76 92//92
f 105//105 92//92 106//106
f 41//41 113//113 119//119
f 121//121 94//94 111//111
f 109//109 97//97 81//81
f 94//94 93//93 122//122
f 15//15 78//78 8//8
f 15//15 67//67 78//78
f 95//95 79//79 10//10
f 105//105 91//91 13//13
f 29//29 101//101 86//86
f 112//112 120//120 13//13
f 61//61 24//24 18//18
f 47//47 19//19 92//92
f 114//114 85//85 67//67
f 126//126 114//114 96//96
f 97//97 114//114 81//81
f 113//113 41//41 65//65
f 98//98 28//28 9//9
f 98//98 9//9 82//82
f 98//98 82//82 17//17
f 82//82 83//83 114//114
f 99//99 83//83 85//85
f 126//126 4//4 100//100
f 126//126 11//11 4//4
f 116//116 30//30 31//31
f 89//89 50//50 46//46
f 103//103 46//46 48//48
f 103//103 48//48 87//87
f 103//103 87//87 76//76
f 71//71 89//89 86//86
f 18//18 104//104 50//50
f 50//50 104//104 70//70
f 50//50 70//70 46//46
f 30//30 6//6 51//51
f 115//115 59//59 86//86
f 117//117 125//125 116//116
f 117//117 105//105 125//125
f 113//113 95//95 93//93
f 67//67 113//113 65//65
f 107//107 116//116 126//126
f 107//107 117//117 116//116
f 108//108 118//118 107//107
f 121//121 93//93 94//94
f 97//97 109//109 77//77
f 97//97 77//77 96//96
f 109//109 81//81 65//65
f 109//109 65//65 41//41
f 110//110 109//109 41//41
f 110//110 77//77 109//109
f 113//113 93//93 119//119
f 67//67 15//15 79//79
f 95//95 67//67 79//79
f 95//95 10//10 80//80
f 101//101 93//93 95//95
f 101//101 122//122 93//93
f 111//111 75//75 117//117
f 112//112 29//29 120//120
f 112//112 13//13 91//91
f 126//126 82//82 114//114
f 126//126 100//100 82//82
f 96//96 114//114 97//97
f 113//113 67//67 95//95
f 114//114 99//99 85//85
f 114//114 83//83 99//99
f 126//126 116//116 11//11
f 123//123 102//102 127//127
f 122//122 101//101 124//124
f 120//120 103//103 76//76
f 86//86 88//88 71//71
f 18//18 24//24 104//104
f 116//116 125//125 30//30
f 115//115 86//86 101//101
f 91//91 105//105 75//75
f 125//125 106//106 36//36
f 125//125 105//105 106//106
f 125//125 36//36 6//6
f 125//125 6//6 30//30
f 117//117 107//107 118//118
f 107//107 96//96 77//77
f 107//107 77//77 108//108
f 117//117 118//118 111//111
f 118//118 121//121 111//111
f 110//110 41//41 119//119
f 119//119 93//93 121//121
f 110//110 108//108 77//77
f 110//110 119//119 108//108
f 111//111 94//94 122//122
f 111//111 91//91 75//75
f 123//123 112//112 91//91
f 123//123 127//127 112//112
f 126//126 96//96 107//107
f 115//115 101//101 95//95
f 29//29 102//102 124//124
f 29//29 124//124 101//101
f 124//124 123//123 122//122
f 122//122 91//91 111//111
f 105//105 117//117 75//75
f 121//121 118//118 108//108
f 121//121 108//108 119//119
f 122//122 123//123 91//91
f 127//127 102//102 29//29
f 124//124 102//102 123//123
f 127//127 29//29 112//112
f 95//95 80//80 115//115
# 250 faces, 0 coords texture

# End of File
