####
#
# OBJ File Generated by Meshlab
#
####
# Object cup_noodles_shrimp_picante_250_collision.obj
#
# Vertices: 127
# Faces: 250
#
####
vn 0.054801 -0.034117 0.997914
v -0.013820 0.019627 0.002248
vn 0.342130 0.930098 0.133661
v -0.013607 -0.026654 0.046989
vn -0.050943 0.009695 0.998654
v 0.012041 0.008946 0.002350
vn 0.129205 -0.972743 0.192555
v -0.006571 0.050642 0.037588
vn 0.346553 0.928596 0.132706
v -0.013151 -0.031533 0.083615
vn 0.369080 0.791715 0.486792
v -0.037549 -0.021060 0.017092
vn 0.308847 0.946306 0.095491
v -0.040512 -0.021058 0.032501
vn 0.365402 0.853779 0.370868
v -0.015382 -0.020216 0.009999
vn 0.917557 0.072032 0.391026
v -0.039059 -0.010619 0.018835
vn 0.306056 0.290005 0.906767
v -0.025149 -0.007830 0.004385
vn 0.103749 0.484641 0.868539
v -0.011378 -0.017567 0.004282
vn 0.124946 0.014870 0.992052
v -0.019181 0.010568 0.002646
vn 0.427461 -0.009747 0.903981
v -0.031377 0.015405 0.004070
vn 0.042073 0.065279 0.996980
v -0.012087 -0.000961 0.001903
vn 0.662002 0.338587 0.668664
v -0.034909 -0.004832 0.008342
vn 0.288143 0.951782 0.105284
v -0.026728 -0.014659 0.018311
vn 0.345591 0.773860 0.530761
v -0.034095 -0.011682 0.013927
vn -0.014858 0.998065 0.060377
v -0.032461 -0.016806 0.047495
vn 0.004263 0.998231 0.059295
v -0.042952 -0.023065 0.047906
vn 0.930664 0.271906 0.244810
v -0.042651 -0.018775 0.032394
vn 0.979885 -0.099610 0.172926
v -0.042895 0.017373 0.040175
vn 0.909625 -0.099202 0.403411
v -0.036318 0.016134 0.011124
vn 0.975688 -0.083378 0.202686
v -0.044832 -0.004333 0.044362
vn 0.937580 0.308188 0.161132
v -0.046155 -0.016577 0.042511
vn -0.451322 0.890558 0.056708
v -0.033151 -0.016479 0.030713
vn -0.474548 0.879848 -0.025911
v -0.039191 -0.019644 0.060729
vn 0.293075 0.952977 0.077087
v -0.045521 -0.022749 0.069858
vn 0.301320 0.952966 -0.032579
v -0.030592 -0.026838 0.105271
vn 0.989065 0.076152 0.126296
v -0.048037 -0.012341 0.062544
vn -0.033291 0.979682 0.197777
v -0.038152 -0.019182 0.088966
vn 0.972120 0.207599 0.109022
v -0.050135 -0.017561 0.080026
vn 0.867124 0.222785 -0.445491
v -0.051665 -0.016471 0.104689
vn 0.002195 0.997744 0.067095
v -0.036437 -0.017778 0.077380
vn 0.421583 0.903735 -0.074364
v -0.047662 -0.024874 0.098164
vn 0.208463 0.762501 -0.612484
v -0.019300 -0.030270 0.108912
vn -0.000137 0.166095 -0.986110
v -0.024111 -0.020247 0.113245
vn 0.132690 0.975013 -0.178167
v -0.008464 -0.034618 0.103538
vn 0.979927 -0.073114 -0.185467
v -0.051371 -0.004974 0.098341
vn 0.423187 -0.084540 -0.902090
v -0.043192 0.004283 0.110866
vn 0.766423 -0.075381 -0.637897
v -0.046242 0.013561 0.108352
vn 0.245687 0.048824 -0.968119
v -0.041234 -0.013938 0.113730
vn 0.328360 0.611085 -0.720247
v -0.038292 -0.020573 0.112570
vn -0.048416 -0.079220 -0.995681
v -0.024101 0.003572 0.110007
vn 0.282978 -0.919552 0.272668
v -0.030963 0.043904 0.011903
vn 0.332372 -0.618983 0.711610
v -0.027364 0.039434 0.004533
vn 0.630588 -0.722660 0.283058
v -0.038254 0.042071 0.034317
vn -0.114797 -0.985765 0.122840
v -0.029376 0.039680 0.027837
vn 0.030004 -0.927813 0.371837
v -0.032506 0.052626 0.051309
vn -0.038436 -0.945347 0.323792
v -0.027709 0.048036 0.047607
vn 0.987782 -0.112637 0.107698
v -0.047009 0.013062 0.068220
vn 0.942051 -0.304706 0.140336
v -0.040873 0.038120 0.052886
vn 0.977110 -0.188343 -0.098912
v -0.047179 0.028655 0.100587
vn 0.960352 -0.262297 0.094463
v -0.043094 0.042809 0.082392
vn 0.737624 -0.666908 0.105570
v -0.037697 0.059635 0.081512
vn -0.304007 -0.926212 0.222959
v -0.026782 0.054738 0.083801
vn 0.103574 -0.981507 0.160984
v -0.013279 0.053985 0.065496
vn 0.354649 -0.889110 0.289323
v -0.034718 0.057232 0.061934
vn -0.183755 -0.973705 0.134658
v -0.031362 0.061914 0.094878
vn 0.748463 -0.180287 -0.638200
v -0.044808 0.032284 0.106095
vn 0.296728 -0.047867 -0.953762
v -0.040628 0.024139 0.109787
vn -0.011817 0.043643 -0.998977
v -0.024459 0.013539 0.109780
vn 0.005561 -0.028174 -0.999588
v -0.001363 0.046395 0.112033
vn 0.047472 0.045629 -0.997830
v -0.024538 0.039696 0.113631
vn 0.588573 -0.746570 -0.310185
v -0.038937 0.061066 0.101539
vn 0.206451 -0.386370 -0.898942
v -0.029361 0.055104 0.112274
vn -0.073519 -0.977760 -0.196418
v -0.019333 0.060477 0.104851
vn 0.032370 0.868307 0.494970
v -0.000207 -0.023260 0.009973
vn 0.156583 0.986859 0.039894
v 0.016127 -0.025114 0.031835
vn 0.089987 0.801031 0.591821
v 0.016521 -0.030120 0.010518
vn 0.260538 0.762364 0.592386
v 0.010570 -0.023697 0.010153
vn -0.710754 0.618885 0.334380
v 0.023730 -0.028871 0.013053
vn -0.096008 0.242574 0.965371
v 0.012070 -0.004943 0.003637
vn -0.596325 0.302257 0.743665
v 0.024442 -0.016180 0.008882
vn -0.829132 0.180594 0.529080
v 0.032021 0.006644 0.008120
vn 0.055551 0.988401 0.141342
v -0.004193 -0.025197 0.029383
vn -0.282450 0.957482 -0.058729
v 0.022210 -0.028423 0.025981
vn -0.022386 0.994679 0.100564
v 0.015114 -0.027393 0.052732
vn -0.019075 0.992640 0.119594
v 0.000823 -0.031104 0.063186
vn -0.382189 0.916956 0.114554
v 0.026901 -0.028116 0.052832
vn -0.916327 0.359274 0.176827
v 0.031605 -0.015042 0.034442
vn -0.970491 0.204858 0.127206
v 0.041044 0.014540 0.052664
vn -0.409807 0.910775 0.050476
v 0.029357 -0.029117 0.069454
vn -0.047487 0.877981 -0.476335
v 0.009775 -0.033065 0.105508
vn -0.170927 0.983182 0.064320
v 0.021303 -0.029377 0.085491
vn -0.835555 0.541014 0.095670
v 0.034779 -0.024724 0.077669
vn -0.871007 0.464896 0.158806
v 0.032378 -0.022600 0.059358
vn -0.979393 0.187442 0.075196
v 0.043574 0.015185 0.078710
vn 0.016105 0.066739 -0.997641
v 0.016044 -0.020023 0.111680
vn -0.144088 0.510770 -0.847557
v 0.021897 -0.030065 0.112467
vn -0.036322 0.422783 -0.905503
v -0.009293 -0.028907 0.111703
vn -0.030878 0.109001 -0.993562
v 0.005210 -0.022575 0.110944
vn -0.003667 -0.011283 -0.999930
v 0.029697 0.007747 0.110331
vn -0.324452 0.037216 -0.945170
v 0.038008 0.007931 0.109812
vn 0.010664 0.020734 -0.999728
v 0.007196 0.020485 0.110304
vn -0.558568 0.812018 -0.169198
v 0.034505 -0.030164 0.100866
vn -0.519298 0.188073 -0.833641
v 0.031638 -0.024275 0.109261
vn -0.928601 0.172044 -0.328786
v 0.044061 0.004234 0.104068
vn -0.275547 0.100401 0.956030
v 0.024837 0.004046 0.003689
vn -0.314921 -0.617101 0.721118
v 0.018046 0.036453 0.003760
vn -0.513177 -0.565506 0.645642
v 0.031916 0.032578 0.005441
vn -0.069382 -0.628895 0.774388
v 0.000671 0.043443 0.003457
vn -0.324839 -0.922946 0.206519
v 0.006675 0.045550 0.018255
vn -0.257874 -0.961353 0.096442
v 0.030278 0.031175 0.021718
vn -0.903047 -0.358485 0.236633
v 0.038505 0.032561 0.017921
vn -0.255898 -0.950704 0.175152
v 0.008591 0.051969 0.047143
vn -0.493540 -0.853688 0.166239
v 0.020007 0.047986 0.060412
vn -0.668991 -0.706664 0.230384
v 0.041989 0.034242 0.038560
vn -0.126463 -0.973490 0.190590
v 0.034838 0.033773 0.042739
vn -0.342812 -0.936474 0.074142
v 0.044417 0.037186 0.051503
vn -0.952222 -0.228244 0.202925
v 0.045637 0.033936 0.058574
vn -0.195622 -0.910056 0.365417
v 0.037560 0.040801 0.086757
vn -0.162612 -0.970629 0.177306
v 0.036260 0.037383 0.060416
vn -0.660521 -0.674133 0.330540
v 0.046709 0.040502 0.064657
vn -0.997410 -0.020325 0.068998
v 0.047704 0.037136 0.077032
vn -0.483437 -0.844247 0.231377
v 0.046472 0.041731 0.087336
vn -0.449550 -0.856894 0.252263
v 0.043124 0.049560 0.096355
vn -0.175360 -0.974169 0.142277
v 0.004983 0.056044 0.073642
vn -0.290166 -0.942839 -0.163882
v 0.016553 0.057301 0.104566
vn -0.061895 0.056825 -0.996464
v 0.025743 0.033187 0.111277
vn -0.076459 -0.384796 -0.919829
v 0.015770 0.050633 0.114441
vn -0.977776 -0.208910 -0.017640
v 0.048521 0.040573 0.096878
vn -0.309120 -0.359389 -0.880502
v 0.037298 0.045219 0.110258
vn -0.708829 -0.415769 -0.569822
v 0.045060 0.045498 0.105729
vn -0.008787 -0.999690 -0.023299
v -0.006487 0.060793 0.100224
vn -0.037641 -0.719793 -0.693168
v -0.001984 0.056545 0.108791
vn -0.281326 -0.947186 -0.153932
v 0.029671 0.051942 0.104532
vn -0.301342 -0.547417 -0.780723
v 0.026005 0.049645 0.111436
# 127 vertices, 0 vertices normals

f 7//7 6//6 20//20
f 7//7 25//25 6//6
f 6//6 25//25 17//17
f 67//67 11//11 8//8
f 67//67 8//8 75//75
f 8//8 16//16 2//2
f 75//75 8//8 2//2
f 6//6 17//17 9//9
f 17//17 15//15 9//9
f 15//15 22//22 9//9
f 8//8 10//10 15//15
f 11//11 10//10 8//8
f 14//14 10//10 11//11
f 11//11 72//72 14//14
f 13//13 15//15 10//10
f 12//12 13//13 10//10
f 10//10 14//14 12//12
f 12//12 14//14 1//1
f 1//1 14//14 3//3
f 17//17 16//16 8//8
f 15//15 17//17 8//8
f 16//16 17//17 25//25
f 25//25 18//18 16//16
f 22//22 15//15 13//13
f 25//25 7//7 19//19
f 19//19 7//7 24//24
f 26//26 25//25 19//19
f 26//26 19//19 27//27
f 2//2 78//78 75//75
f 20//20 6//6 9//9
f 20//20 9//9 23//23
f 7//7 20//20 24//24
f 24//24 20//20 23//23
f 21//21 23//23 9//9
f 9//9 22//22 21//21
f 27//27 19//19 24//24
f 27//27 24//24 29//29
f 29//29 24//24 23//23
f 21//21 50//50 23//23
f 50//50 29//29 23//23
f 2//2 16//16 18//18
f 18//18 25//25 26//26
f 18//18 26//26 33//33
f 27//27 33//33 26//26
f 31//31 34//34 27//27
f 27//27 30//30 33//33
f 30//30 27//27 34//34
f 33//33 2//2 18//18
f 33//33 5//5 2//2
f 78//78 2//2 5//5
f 5//5 33//33 30//30
f 5//5 30//30 28//28
f 37//37 5//5 28//28
f 78//78 5//5 37//37
f 27//27 29//29 31//31
f 50//50 31//31 29//29
f 31//31 50//50 38//38
f 38//38 32//32 31//31
f 34//34 31//31 32//32
f 28//28 30//30 34//34
f 32//32 42//42 34//34
f 37//37 28//28 35//35
f 42//42 28//28 34//34
f 42//42 35//35 28//28
f 36//36 35//35 42//42
f 36//36 42//42 41//41
f 90//90 37//37 35//35
f 83//83 37//37 90//90
f 90//90 91//91 83//83
f 36//36 90//90 35//35
f 41//41 42//42 32//32
f 39//39 41//41 32//32
f 38//38 39//39 32//32
f 38//38 40//40 39//39
f 43//43 41//41 39//39
f 52//52 40//40 38//38
f 39//39 61//61 43//43
f 39//39 40//40 60//60
f 61//61 39//39 60//60
f 36//36 41//41 43//43
f 43//43 90//90 36//36
f 91//91 90//90 43//43
f 21//21 22//22 46//46
f 13//13 1//1 45//45
f 45//45 22//22 13//13
f 12//12 1//1 13//13
f 101//101 1//1 3//3
f 45//45 1//1 101//101
f 46//46 22//22 44//44
f 44//44 22//22 45//45
f 47//47 44//44 45//45
f 47//47 45//45 4//4
f 45//45 101//101 4//4
f 51//51 46//46 48//48
f 21//21 46//46 51//51
f 50//50 21//21 51//51
f 57//57 51//51 48//48
f 46//46 44//44 47//47
f 46//46 47//47 49//49
f 48//48 46//46 49//49
f 49//49 47//47 4//4
f 48//48 49//49 55//55
f 49//49 4//4 56//56
f 51//51 57//57 53//53
f 50//50 51//51 53//53
f 50//50 52//52 38//38
f 50//50 53//53 52//52
f 54//54 52//52 53//53
f 53//53 57//57 54//54
f 57//57 48//48 55//55
f 55//55 49//49 56//56
f 55//55 56//56 124//124
f 56//56 4//4 105//105
f 56//56 105//105 117//117
f 56//56 117//117 124//124
f 55//55 124//124 66//66
f 54//54 57//57 58//58
f 58//58 57//57 55//55
f 58//58 64//64 54//54
f 40//40 52//52 59//59
f 60//60 40//40 59//59
f 59//59 52//52 64//64
f 52//52 54//54 64//64
f 59//59 65//65 60//60
f 61//61 60//60 63//63
f 94//94 61//61 62//62
f 63//63 60//60 65//65
f 63//63 62//62 61//61
f 62//62 63//63 65//65
f 59//59 64//64 65//65
f 64//64 58//58 66//66
f 66//66 58//58 55//55
f 66//66 65//65 64//64
f 65//65 66//66 125//125
f 125//125 66//66 124//124
f 70//70 76//76 69//69
f 67//67 70//70 72//72
f 70//70 67//67 68//68
f 76//76 71//71 69//69
f 69//69 71//71 73//73
f 76//76 70//70 68//68
f 76//76 73//73 71//71
f 72//72 11//11 67//67
f 70//70 69//69 73//73
f 72//72 70//70 73//73
f 98//98 72//72 73//73
f 3//3 14//14 72//72
f 72//72 98//98 3//3
f 98//98 73//73 74//74
f 74//74 73//73 80//80
f 104//104 74//74 80//80
f 75//75 68//68 67//67
f 77//77 68//68 75//75
f 76//76 80//80 73//73
f 68//68 79//79 76//76
f 79//79 80//80 76//76
f 77//77 75//75 78//78
f 79//79 68//68 77//77
f 79//79 86//86 80//80
f 81//81 80//80 86//86
f 85//85 81//81 86//86
f 80//80 81//81 104//104
f 107//107 104//104 81//81
f 84//84 77//77 78//78
f 77//77 82//82 79//79
f 79//79 82//82 86//86
f 85//85 86//86 82//82
f 83//83 84//84 78//78
f 84//84 82//82 77//77
f 85//85 82//82 84//84
f 85//85 84//84 95//95
f 85//85 87//87 81//81
f 95//95 97//97 85//85
f 97//97 87//87 85//85
f 83//83 78//78 37//37
f 83//83 95//95 84//84
f 88//88 83//83 91//91
f 89//89 83//83 88//88
f 89//89 95//95 83//83
f 96//96 95//95 89//89
f 88//88 96//96 89//89
f 92//92 88//88 91//91
f 92//92 91//91 94//94
f 93//93 88//88 92//92
f 93//93 96//96 88//88
f 43//43 94//94 91//91
f 94//94 43//43 61//61
f 96//96 97//97 95//95
f 93//93 97//97 96//96
f 121//121 87//87 97//97
f 93//93 92//92 119//119
f 99//99 101//101 3//3
f 98//98 99//99 3//3
f 104//104 100//100 74//74
f 98//98 100//100 99//99
f 100//100 98//98 74//74
f 102//102 99//99 103//103
f 101//101 99//99 102//102
f 99//99 100//100 103//103
f 4//4 101//101 102//102
f 104//104 103//103 100//100
f 105//105 102//102 103//103
f 106//106 103//103 108//108
f 108//108 112//112 106//106
f 105//105 103//103 106//106
f 103//103 104//104 107//107
f 108//108 103//103 107//107
f 81//81 110//110 107//107
f 114//114 81//81 87//87
f 110//110 81//81 114//114
f 108//108 107//107 109//109
f 109//109 112//112 108//108
f 109//109 107//107 110//110
f 110//110 112//112 109//109
f 4//4 102//102 105//105
f 111//111 106//106 112//112
f 118//118 111//111 126//126
f 113//113 110//110 114//114
f 110//110 113//113 112//112
f 113//113 115//115 112//112
f 115//115 113//113 114//114
f 115//115 111//111 112//112
f 121//121 114//114 87//87
f 115//115 114//114 121//121
f 111//111 115//115 116//116
f 116//116 115//115 121//121
f 106//106 117//117 105//105
f 117//117 106//106 118//118
f 106//106 111//111 118//118
f 119//119 92//92 94//94
f 62//62 119//119 94//94
f 62//62 120//120 119//119
f 119//119 127//127 122//122
f 120//120 127//127 119//119
f 123//123 121//121 97//97
f 93//93 119//119 122//122
f 93//93 123//123 97//97
f 116//116 126//126 111//111
f 123//123 116//116 121//121
f 122//122 123//123 93//93
f 123//123 122//122 126//126
f 118//118 124//124 117//117
f 118//118 120//120 125//125
f 125//125 62//62 65//65
f 125//125 120//120 62//62
f 124//124 118//118 125//125
f 127//127 118//118 126//126
f 127//127 120//120 118//118
f 127//127 126//126 122//122
f 126//126 116//116 123//123
# 250 faces, 0 coords texture

# End of File
