####
#
# OBJ File Generated by Meshlab
#
####
# Object crayola_24_crayons_250_collision.obj
#
# Vertices: 127
# Faces: 250
#
####
vn 0.372556 0.482827 0.792515
v 0.002770 -0.026328 0.004157
vn 0.188160 0.180421 0.965424
v 0.001655 -0.014838 0.001547
vn 0.184700 0.115531 0.975981
v -0.002209 -0.003796 0.000452
vn 0.673930 0.738218 0.029195
v -0.002436 -0.030005 0.030997
vn 0.374942 0.926614 0.028390
v -0.000439 -0.031540 0.050607
vn -0.807086 -0.292827 0.512703
v 0.010658 0.013730 0.006229
vn -0.082690 0.996486 0.013328
v 0.006929 -0.032687 0.052538
vn 0.927067 0.372130 0.045454
v -0.019254 0.011123 0.050614
vn -0.792144 -0.609067 -0.039313
v 0.003764 0.035935 0.033856
vn -0.322465 -0.102818 -0.940981
v -0.004723 0.024756 0.103595
vn 0.628524 0.293191 0.720414
v -0.005760 -0.014900 0.004558
vn 0.844857 0.471520 0.252757
v -0.005842 -0.022405 0.010646
vn 0.929384 0.319957 0.184044
v -0.010667 -0.007296 0.011328
vn 0.950528 0.308755 0.034160
v -0.009967 -0.010065 0.019790
vn 0.921977 0.386326 0.026652
v -0.007214 -0.022769 0.031904
vn 0.938166 0.345130 0.027010
v -0.011223 -0.012787 0.050284
vn 0.455983 0.889973 -0.005256
v -0.003123 -0.031503 0.079674
vn 0.835691 0.547700 0.040561
v -0.007097 -0.026401 0.058874
vn 0.950574 0.309682 0.022487
v -0.009950 -0.018657 0.073080
vn 0.766701 0.550793 -0.329844
v -0.007779 -0.026703 0.094665
vn 0.937366 0.347417 -0.025413
v -0.016125 -0.002405 0.088071
vn 0.896925 0.303044 -0.322010
v -0.012186 -0.012204 0.092754
vn 0.440823 0.170360 -0.881279
v -0.006401 -0.014549 0.099359
vn 0.037887 0.117629 -0.992335
v -0.000707 -0.000697 0.103180
vn 0.569483 0.041435 0.820958
v -0.018196 0.022836 0.002548
vn 0.264592 0.081106 0.960944
v -0.009730 0.011248 0.000743
vn 0.631395 -0.319868 0.706416
v -0.019001 0.028870 0.004402
vn 0.160010 -0.189571 0.968741
v -0.011919 0.028759 0.001401
vn -0.169513 -0.136752 0.975994
v -0.003034 0.026173 0.001260
vn 0.337905 -0.612931 0.714238
v -0.013146 0.037877 0.004703
vn 0.800657 0.315779 0.509149
v -0.015280 0.010993 0.004306
vn 0.984077 0.173328 0.039359
v -0.024432 0.025919 0.027485
vn 0.924444 0.370953 0.088304
v -0.017323 0.009734 0.014350
vn 0.942519 0.330892 0.046575
v -0.013643 0.000507 0.032250
vn 0.950278 -0.019568 0.310789
v -0.023912 0.026059 0.009937
vn 0.628397 -0.756691 0.180378
v -0.019070 0.036875 0.012420
vn 0.870991 -0.489357 0.043636
v -0.022963 0.032573 0.032423
vn -0.073464 -0.967918 0.240288
v -0.005373 0.041157 0.007667
vn -0.048025 -0.998716 0.016106
v -0.004834 0.041547 0.027777
vn 0.535411 -0.844047 0.030333
v -0.018784 0.036931 0.026201
vn 0.697767 -0.715355 0.037260
v -0.020980 0.036161 0.049833
vn 0.962782 -0.266665 0.044044
v -0.025390 0.030317 0.054307
vn 0.392927 -0.918684 0.040351
v -0.014790 0.039733 0.041760
vn 0.127663 -0.991712 0.014458
v -0.008183 0.041363 0.039551
vn -0.381844 -0.924227 -0.000520
v -0.003366 0.041103 0.045795
vn 0.935696 0.350030 0.044185
v -0.016347 0.003291 0.067238
vn 0.966636 0.251016 0.051049
v -0.024678 0.023301 0.054684
vn 0.698173 -0.715293 0.030164
v -0.022195 0.036316 0.071740
vn 0.979623 0.198030 0.033495
v -0.026170 0.024759 0.070204
vn 0.940162 0.329315 -0.087452
v -0.024789 0.019189 0.086680
vn 0.883742 0.337928 -0.323736
v -0.021026 0.013158 0.093918
vn 0.960020 -0.279525 0.015073
v -0.025897 0.029707 0.072550
vn 0.946635 -0.092865 -0.308638
v -0.025975 0.027791 0.094489
vn 0.611982 -0.553403 -0.564998
v -0.022466 0.034596 0.095569
vn 0.738855 -0.670006 -0.072013
v -0.023891 0.035433 0.088654
vn 0.332344 -0.874738 -0.352677
v -0.014710 0.040112 0.092711
vn -0.134278 -0.911606 -0.388514
v -0.006458 0.041467 0.092792
vn 0.354014 -0.935197 0.008995
v -0.015261 0.040083 0.071873
vn -0.017097 -0.999842 0.004810
v -0.008125 0.041713 0.071992
vn 0.073576 -0.996086 -0.048979
v -0.010108 0.041913 0.089266
vn 0.819154 0.232847 -0.524183
v -0.023691 0.023724 0.097341
vn 0.536450 0.225878 -0.813142
v -0.015821 0.010477 0.099709
vn 0.165322 0.117718 -0.979189
v -0.007665 0.017278 0.103088
vn 0.510182 -0.072727 -0.856986
v -0.018306 0.025429 0.102045
vn -0.122706 -0.006448 -0.992422
v 0.000524 0.009574 0.105014
vn 0.409579 -0.555346 -0.723764
v -0.013943 0.032911 0.101414
vn -0.464016 -0.482391 -0.742959
v -0.004283 0.033617 0.101369
vn 0.038094 -0.421596 -0.905983
v -0.009100 0.031560 0.105356
vn -0.070052 0.851031 0.520422
v 0.008207 -0.031552 0.007103
vn 0.288334 0.930030 0.227831
v 0.003907 -0.032677 0.010874
vn -0.082238 0.481144 0.872776
v 0.008950 -0.028762 0.004247
vn -0.347196 0.211912 0.913536
v 0.014773 -0.020303 0.002622
vn -0.522098 0.555735 0.646972
v 0.016451 -0.026829 0.005564
vn -0.070371 0.164902 0.983796
v 0.011269 -0.018347 0.001305
vn -0.084575 0.012304 0.996341
v 0.007121 -0.006093 0.000412
vn -0.378335 -0.036348 0.924955
v 0.014957 -0.009895 0.001835
vn -0.770916 -0.291577 0.566278
v 0.017830 -0.005588 0.004446
vn -0.405625 -0.174674 0.897194
v 0.008793 0.005525 0.001790
vn -0.850608 0.454427 0.264505
v 0.021904 -0.022239 0.009623
vn -0.623905 0.777465 0.079319
v 0.017333 -0.029616 0.012236
vn -0.742432 0.104439 0.661731
v 0.022499 -0.016851 0.006348
vn -0.992416 0.071708 0.099845
v 0.024661 -0.016362 0.012922
vn -0.856683 0.514476 -0.037534
v 0.019835 -0.025674 0.027935
vn -0.900687 0.433696 -0.025911
v 0.022258 -0.022279 0.020220
vn -0.928470 -0.359644 0.092738
v 0.017914 -0.000175 0.013921
vn -0.020205 0.999774 0.006600
v 0.005634 -0.032185 0.032805
vn -0.575690 0.817594 -0.010976
v 0.016642 -0.029039 0.042222
vn -0.997938 -0.000811 -0.064175
v 0.023518 -0.016774 0.027318
vn -0.935181 0.352770 -0.031457
v 0.021524 -0.022314 0.049799
vn -0.980208 -0.192285 -0.047105
v 0.022069 -0.014452 0.046502
vn -0.740880 0.671281 -0.021891
v 0.018324 -0.027087 0.057648
vn -0.430666 0.902357 -0.016660
v 0.011341 -0.030978 0.071282
vn 0.033749 0.975804 -0.216027
v 0.003627 -0.033035 0.091798
vn 0.114215 0.567980 -0.815079
v 0.002468 -0.027330 0.100560
vn -0.403502 0.820892 -0.404131
v 0.013074 -0.029878 0.093666
vn -0.927771 0.371382 -0.036279
v 0.020050 -0.023495 0.066965
vn -0.943002 -0.331106 -0.033402
v 0.018717 -0.006917 0.058513
vn -0.998279 -0.045974 -0.036393
v 0.021391 -0.017308 0.067964
vn -0.933961 -0.355716 -0.034387
v 0.015537 0.000787 0.067938
vn -0.759928 0.636378 -0.132407
v 0.017265 -0.027179 0.091548
vn -0.983085 0.147892 -0.108037
v 0.020953 -0.018817 0.092159
vn -0.937063 -0.311131 -0.158463
v 0.019688 -0.012673 0.094483
vn 0.222645 0.180444 -0.958055
v 0.009775 -0.020021 0.103199
vn -0.078596 0.566093 -0.820586
v 0.013775 -0.021665 0.102334
vn -0.834187 0.245700 -0.493725
v 0.018291 -0.017573 0.104107
vn 0.416526 0.097602 -0.903869
v 0.013075 -0.013471 0.106019
vn -0.085382 0.160144 -0.983394
v 0.015843 -0.014708 0.107319
vn -0.729664 -0.449900 -0.514957
v 0.015191 -0.005931 0.098812
vn 0.099635 -0.187184 -0.977259
v 0.009211 -0.007249 0.102763
vn -0.437848 -0.518245 -0.734651
v 0.014317 -0.010414 0.105998
vn -0.057617 -0.040759 0.997506
v -0.000593 0.009481 0.000078
vn -0.552728 -0.226078 0.802110
v 0.005697 0.020337 0.003885
vn -0.818531 -0.391927 0.420000
v 0.006132 0.032579 0.008530
vn -0.357409 -0.532787 0.767070
v -0.001279 0.037621 0.004059
vn -0.947164 -0.312142 0.073806
v 0.010332 0.020719 0.012300
vn -0.760246 -0.648544 0.037644
v 0.005298 0.036287 0.018607
vn -0.936037 -0.349782 -0.038578
v 0.015689 0.003023 0.031346
vn -0.944204 -0.325159 -0.052439
v 0.009959 0.019459 0.028834
vn -0.940046 -0.339766 -0.029529
v 0.010647 0.015338 0.050288
vn -0.847025 -0.531106 -0.021807
v 0.003628 0.035047 0.063880
vn -0.879092 -0.442615 -0.176886
v 0.003361 0.033297 0.088981
vn -0.499038 -0.866309 -0.021668
v -0.001052 0.040001 0.074231
vn -0.931516 -0.346431 -0.110742
v 0.011449 0.009131 0.088326
vn -0.858442 -0.319573 -0.401186
v 0.008222 0.014311 0.095660
vn -0.651871 -0.661664 -0.370493
v -0.001297 0.038587 0.094422
vn -0.542535 -0.154842 -0.825639
v 0.006535 0.006046 0.101303
vn -0.706602 -0.297053 -0.642240
v 0.002287 0.025703 0.099334
# 127 vertices, 0 vertices normals

f 70//70 1//1 12//12
f 12//12 1//1 11//11
f 11//11 1//1 2//2
f 3//3 11//11 2//2
f 11//11 31//31 13//13
f 3//3 26//26 11//11
f 4//4 70//70 12//12
f 12//12 11//11 13//13
f 12//12 13//13 14//14
f 12//12 15//15 4//4
f 12//12 14//14 15//15
f 14//14 13//13 33//33
f 15//15 14//14 34//34
f 14//14 33//33 34//34
f 5//5 4//4 18//18
f 16//16 4//4 15//15
f 16//16 15//15 34//34
f 4//4 16//16 18//18
f 34//34 8//8 16//16
f 93//93 17//17 20//20
f 17//17 5//5 18//18
f 20//20 17//17 18//18
f 20//20 18//18 19//19
f 18//18 16//16 19//19
f 46//46 19//19 16//16
f 16//16 8//8 46//46
f 20//20 19//19 22//22
f 22//22 19//19 21//21
f 21//21 19//19 46//46
f 51//51 22//22 21//21
f 23//23 94//94 20//20
f 23//23 20//20 22//22
f 109//109 23//23 24//24
f 51//51 62//62 22//22
f 23//23 22//22 62//62
f 62//62 65//65 24//24
f 24//24 23//23 62//62
f 35//35 31//31 25//25
f 31//31 11//11 26//26
f 26//26 3//3 111//111
f 31//31 26//26 25//25
f 25//25 26//26 28//28
f 26//26 111//111 29//29
f 29//29 28//28 26//26
f 35//35 25//25 27//27
f 35//35 27//27 36//36
f 36//36 27//27 30//30
f 28//28 27//27 25//25
f 28//28 29//29 114//114
f 30//30 27//27 28//28
f 30//30 28//28 114//114
f 30//30 114//114 38//38
f 33//33 31//31 35//35
f 33//33 35//35 32//32
f 33//33 13//13 31//31
f 34//34 33//33 32//32
f 35//35 36//36 37//37
f 37//37 36//36 40//40
f 32//32 35//35 37//37
f 36//36 30//30 38//38
f 39//39 40//40 36//36
f 36//36 38//38 39//39
f 43//43 40//40 39//39
f 32//32 8//8 34//34
f 8//8 32//32 47//47
f 41//41 37//37 40//40
f 43//43 41//41 40//40
f 47//47 32//32 42//42
f 42//42 32//32 37//37
f 42//42 37//37 41//41
f 42//42 41//41 48//48
f 41//41 43//43 48//48
f 43//43 39//39 44//44
f 44//44 39//39 45//45
f 43//43 44//44 58//58
f 58//58 44//44 59//59
f 45//45 59//59 44//44
f 46//46 8//8 49//49
f 47//47 49//49 8//8
f 46//46 49//49 50//50
f 49//49 47//47 42//42
f 52//52 49//49 42//42
f 52//52 42//42 48//48
f 48//48 43//43 58//58
f 46//46 50//50 21//21
f 21//21 50//50 51//51
f 51//51 50//50 61//61
f 50//50 49//49 53//53
f 49//49 52//52 53//53
f 53//53 52//52 55//55
f 52//52 48//48 55//55
f 48//48 58//58 55//55
f 50//50 53//53 61//61
f 53//53 55//55 54//54
f 56//56 54//54 55//55
f 56//56 55//55 58//58
f 56//56 57//57 68//68
f 67//67 68//68 57//57
f 59//59 60//60 58//58
f 122//122 59//59 45//45
f 58//58 60//60 56//56
f 60//60 59//59 122//122
f 60//60 57//57 56//56
f 57//57 60//60 122//122
f 122//122 125//125 57//57
f 61//61 62//62 51//51
f 64//64 62//62 61//61
f 62//62 63//63 65//65
f 63//63 62//62 64//64
f 63//63 10//10 65//65
f 53//53 64//64 61//61
f 54//54 64//64 53//53
f 64//64 68//68 63//63
f 68//68 10//10 63//63
f 66//66 68//68 64//64
f 127//127 10//10 67//67
f 66//66 54//54 56//56
f 66//66 56//56 68//68
f 64//64 54//54 66//66
f 67//67 57//57 125//125
f 10//10 68//68 67//67
f 80//80 69//69 70//70
f 80//80 70//70 86//86
f 86//86 87//87 80//80
f 69//69 71//71 1//1
f 1//1 71//71 74//74
f 1//1 70//70 69//69
f 72//72 74//74 71//71
f 73//73 72//72 71//71
f 69//69 73//73 71//71
f 2//2 1//1 74//74
f 2//2 74//74 75//75
f 74//74 72//72 76//76
f 81//81 72//72 73//73
f 79//79 73//73 80//80
f 81//81 76//76 72//72
f 73//73 79//79 81//81
f 3//3 2//2 75//75
f 75//75 74//74 76//76
f 111//111 3//3 75//75
f 111//111 75//75 78//78
f 78//78 75//75 76//76
f 78//78 76//76 77//77
f 6//6 78//78 77//77
f 85//85 6//6 77//77
f 77//77 76//76 81//81
f 85//85 77//77 82//82
f 73//73 69//69 80//80
f 83//83 80//80 87//87
f 82//82 79//79 80//80
f 84//84 80//80 83//83
f 84//84 82//82 80//80
f 82//82 81//81 79//79
f 83//83 88//88 84//84
f 88//88 85//85 82//82
f 88//88 82//82 84//84
f 82//82 77//77 81//81
f 88//88 117//117 85//85
f 85//85 117//117 115//115
f 4//4 86//86 70//70
f 86//86 4//4 5//5
f 5//5 7//7 86//86
f 87//87 86//86 7//7
f 7//7 5//5 17//17
f 87//87 7//7 92//92
f 83//83 89//89 88//88
f 119//119 117//117 97//97
f 117//117 88//88 90//90
f 117//117 90//90 97//97
f 91//91 87//87 92//92
f 89//89 83//83 87//87
f 89//89 87//87 91//91
f 90//90 88//88 89//89
f 89//89 98//98 90//90
f 89//89 91//91 96//96
f 98//98 89//89 96//96
f 119//119 97//97 99//99
f 98//98 97//97 90//90
f 17//17 93//93 7//7
f 92//92 7//7 93//93
f 95//95 92//92 93//93
f 93//93 20//20 94//94
f 95//95 93//93 94//94
f 100//100 96//96 91//91
f 92//92 100//100 91//91
f 98//98 96//96 101//101
f 98//98 102//102 97//97
f 99//99 97//97 102//102
f 100//100 92//92 95//95
f 105//105 100//100 95//95
f 100//100 101//101 96//96
f 101//101 100//100 105//105
f 102//102 98//98 101//101
f 102//102 123//123 99//99
f 108//108 123//123 102//102
f 104//104 95//95 94//94
f 95//95 104//104 105//105
f 103//103 104//104 94//94
f 23//23 103//103 94//94
f 23//23 109//109 103//103
f 103//103 109//109 106//106
f 106//106 107//107 104//104
f 104//104 103//103 106//106
f 107//107 105//105 104//104
f 105//105 102//102 101//101
f 107//107 110//110 105//105
f 106//106 109//109 110//110
f 109//109 108//108 110//110
f 109//109 126//126 108//108
f 126//126 109//109 24//24
f 24//24 65//65 126//126
f 108//108 126//126 124//124
f 110//110 107//107 106//106
f 110//110 108//108 102//102
f 110//110 102//102 105//105
f 112//112 78//78 6//6
f 29//29 111//111 78//78
f 29//29 78//78 112//112
f 6//6 113//113 112//112
f 29//29 112//112 114//114
f 114//114 112//112 113//113
f 113//113 6//6 115//115
f 85//85 115//115 6//6
f 118//118 115//115 117//117
f 116//116 38//38 114//114
f 114//114 113//113 116//116
f 39//39 38//38 116//116
f 116//116 115//115 118//118
f 116//116 113//113 115//115
f 9//9 116//116 118//118
f 39//39 116//116 9//9
f 118//118 117//117 119//119
f 45//45 39//39 9//9
f 9//9 118//118 119//119
f 119//119 120//120 9//9
f 120//120 45//45 9//9
f 122//122 45//45 120//120
f 119//119 99//99 123//123
f 120//120 119//119 123//123
f 120//120 123//123 121//121
f 121//121 122//122 120//120
f 125//125 122//122 121//121
f 108//108 124//124 123//123
f 121//121 123//123 124//124
f 127//127 124//124 126//126
f 127//127 126//126 65//65
f 10//10 127//127 65//65
f 121//121 124//124 127//127
f 121//121 127//127 125//125
f 127//127 67//67 125//125
# 250 faces, 0 coords texture

# End of File
