####
#
# OBJ File Generated by Meshlab
#
####
# Object crayola_24_crayons_250_collision.obj
#
# Vertices: 127
# Faces: 250
#
####
vn 0.059617 0.935068 -0.349419
v 0.003914 0.045010 0.007457
vn 0.131433 -0.029421 0.990888
v 0.017612 -0.015656 0.105122
vn 0.967411 -0.142972 -0.208987
v 0.028892 -0.021526 0.007828
vn 0.629819 0.725971 0.276215
v 0.000339 0.039139 0.099804
vn -0.975152 -0.169104 -0.143120
v -0.025029 0.027397 0.009785
vn 0.196235 -0.737554 -0.646147
v 0.007827 -0.033282 0.007222
vn -0.784039 -0.619368 0.040809
v -0.005871 -0.025494 0.009785
vn -0.142031 0.445219 0.884086
v -0.003914 0.039139 0.102409
vn 0.074344 0.993256 0.088969
v -0.005871 0.042680 0.088062
vn -0.841272 0.439440 -0.314888
v -0.023702 0.035225 0.007828
vn 0.831281 0.555623 0.015967
v 0.005871 0.043053 0.008579
vn 0.900657 0.279875 0.332396
v 0.020665 -0.015656 0.103718
vn 0.015519 -0.018972 -0.999700
v 0.021526 -0.004086 0.005871
vn -0.992195 -0.079505 -0.096063
v -0.026129 0.027397 0.088062
vn -0.804892 -0.577792 -0.135297
v -0.003914 -0.029807 0.011742
vn -0.361329 -0.216351 -0.906992
v -0.005536 -0.023483 0.007828
vn -0.941947 -0.334570 -0.028246
v -0.023730 0.023483 0.011742
vn -0.936017 -0.351653 0.014602
v -0.007828 -0.023291 0.090019
vn -0.115703 -0.979698 0.163722
v 0.001952 -0.032004 0.090747
vn 0.500892 -0.865506 -0.002505
v 0.019569 -0.029063 0.013699
vn -0.838461 -0.224708 0.496478
v -0.021660 0.021526 0.098053
vn 0.379474 0.919489 0.102658
v -0.001957 0.041182 0.091976
vn -0.617714 0.785651 0.034375
v -0.022213 0.037182 0.086105
vn -0.388623 0.879222 0.275574
v -0.015827 0.039639 0.095381
vn 0.458162 0.888331 -0.030926
v 0.004332 0.045010 0.007828
vn 0.861608 0.502432 0.072070
v 0.002526 0.037182 0.093933
vn 0.220380 0.128784 0.966875
v 0.013699 -0.001957 0.104470
vn 0.954209 0.297200 0.034021
v 0.027072 -0.015656 0.009785
vn 0.863159 -0.489051 0.125637
v 0.019569 -0.024866 0.091976
vn 0.403485 0.090196 -0.910530
v 0.021019 0.000000 0.005871
vn 0.517862 -0.645670 -0.561186
v 0.025440 -0.025440 0.006939
vn -0.947317 -0.319401 -0.023943
v -0.025549 0.025440 0.088062
vn -0.700587 -0.582383 -0.412319
v -0.002025 -0.031311 0.009785
vn -0.735874 -0.676901 0.017152
v -0.005073 -0.029354 0.088259
vn -0.149389 -0.291483 -0.944839
v 0.005871 -0.033268 0.007342
vn -0.788423 -0.237014 -0.567639
v -0.023483 0.023483 0.008605
vn 0.315833 -0.948759 0.010291
v 0.011742 -0.031984 0.013699
vn 0.101001 -0.980776 0.166962
v 0.003914 -0.032013 0.090019
vn -0.258404 -0.203986 0.944255
v -0.001799 -0.021750 0.102060
vn -0.836164 -0.380984 0.394564
v -0.006324 -0.023483 0.097847
vn 0.495257 -0.544091 0.677263
v 0.020246 -0.019852 0.103812
vn -0.095717 0.995401 -0.003771
v -0.003914 0.044518 0.013699
vn -0.098533 0.993601 0.055210
v -0.007829 0.042737 0.086150
vn -0.984415 0.157084 -0.079063
v -0.024743 0.031311 0.009785
vn -0.177809 0.983927 -0.016450
v -0.007829 0.044004 0.011529
vn -0.046385 -0.011491 -0.998858
v 0.009826 0.029492 0.005871
vn -0.544210 0.009593 -0.838894
v -0.024133 0.033157 0.007828
vn -0.529591 0.847857 -0.025911
v -0.016050 0.041096 0.013699
vn 0.486509 0.858403 0.162645
v 0.000000 0.039370 0.099804
vn 0.859041 0.507761 0.065022
v 0.006947 0.041096 0.009785
vn 0.914986 0.389300 0.106046
v 0.003589 0.035225 0.093933
vn -0.007106 0.043966 0.999008
v 0.015656 -0.009785 0.104860
vn 0.334585 -0.015709 -0.942235
v 0.027397 -0.021526 0.007145
vn 0.420843 -0.885371 -0.197507
v 0.019569 -0.028652 0.007828
vn 0.504589 -0.858551 0.090994
v 0.016822 -0.027397 0.090019
vn -0.766836 -0.522419 -0.372882
v -0.003504 -0.029354 0.009785
vn -0.596180 -0.496562 -0.630868
v -0.003914 -0.027397 0.008283
vn -0.865832 -0.494947 0.073228
v -0.005949 -0.028043 0.090472
vn -0.407785 -0.177444 -0.895670
v -0.006530 -0.021526 0.007828
vn -0.921634 -0.386894 0.030050
v -0.007752 -0.023483 0.090019
vn 0.174136 -0.984716 -0.003487
v 0.001957 -0.035225 0.010221
vn 0.273648 -0.954647 0.117325
v 0.007652 -0.031254 0.090019
vn -0.986789 -0.137010 0.086460
v -0.026486 0.027997 0.090068
vn -0.886830 -0.257766 0.383522
v -0.023483 0.021526 0.094259
vn 0.855576 -0.083631 0.510877
v 0.021000 -0.017612 0.103718
vn -0.236135 0.970892 0.040116
v -0.011742 0.041828 0.088062
vn 0.032450 0.998709 0.039080
v -0.005871 0.042769 0.086105
vn -0.121050 0.964123 0.236249
v -0.007828 0.041753 0.094625
vn 0.270202 0.957092 0.104722
v -0.003914 0.042104 0.090019
vn -0.426737 -0.067335 0.901866
v -0.019569 0.026419 0.100635
vn -0.688691 -0.178619 0.702709
v -0.021526 0.023483 0.098930
vn -0.596474 0.769453 -0.228386
v -0.021526 0.037183 0.007828
vn -0.808086 0.588941 0.012076
v -0.024234 0.035225 0.080235
vn -0.969550 0.244762 -0.008055
v -0.025826 0.031311 0.084148
vn 0.126777 0.000078 -0.991931
v 0.021561 -0.003914 0.005871
vn 0.559299 -0.828055 0.038850
v 0.019569 -0.027403 0.050880
vn 0.586304 -0.807513 0.064581
v 0.017612 -0.026847 0.090019
vn -0.398176 -0.860258 -0.318453
v 0.001562 -0.035225 0.009784
vn -0.910129 -0.411363 -0.049453
v -0.005859 -0.025530 0.009775
vn 0.198041 -0.965648 0.168237
v 0.005871 -0.031725 0.090019
vn 0.332898 -0.942910 0.010012
v 0.013699 -0.031311 0.014761
vn -0.708496 0.153014 0.688926
v -0.021856 0.031427 0.100192
vn -0.276570 -0.010097 0.960941
v -0.018464 0.030433 0.101202
vn -0.388732 -0.614398 0.686587
v 0.001326 -0.026306 0.101032
vn -0.476522 -0.220481 0.851067
v -0.003914 -0.022505 0.101053
vn -0.274616 -0.294154 0.915456
v 0.000978 -0.023483 0.102217
vn 0.812215 -0.349989 0.466707
v 0.020405 -0.019569 0.103718
vn -0.140046 -0.616686 0.774652
v 0.002031 -0.026664 0.101428
vn -0.386229 0.922397 0.003415
v -0.013699 0.042321 0.013699
vn -0.289149 0.957216 0.011378
v -0.011638 0.043053 0.011742
vn 0.368935 0.767562 0.524153
v -0.001974 0.039814 0.101748
vn -0.312189 0.717585 -0.622583
v -0.011742 0.043053 0.006922
vn 0.721170 0.371908 -0.584464
v 0.010680 0.035225 0.005871
vn -0.614491 -0.199892 0.763180
v -0.012720 0.000000 0.099929
vn -0.699593 0.714538 0.002010
v -0.023483 0.036039 0.080235
vn -0.539713 0.837292 0.087475
v -0.021526 0.037664 0.086105
vn -0.912562 0.406337 0.046057
v -0.025345 0.033025 0.086105
vn -0.715713 -0.127540 0.686650
v -0.022163 0.026792 0.098820
vn -0.615908 0.648716 0.447018
v -0.020471 0.035955 0.097747
vn 0.900589 0.346287 0.262727
v 0.003914 0.032078 0.099804
vn 0.410287 -0.911949 -0.003546
v 0.019022 -0.029354 0.013699
vn 0.454513 -0.886051 0.091272
v 0.014677 -0.028523 0.089041
vn -0.912431 -0.389556 0.125360
v -0.007540 -0.023483 0.093933
vn -0.881710 -0.393394 0.260440
v -0.007112 -0.023483 0.095890
vn -0.397728 -0.134129 0.907646
v -0.003914 -0.019569 0.101612
vn -0.541120 -0.142853 0.828723
v -0.019645 0.021285 0.099892
vn 0.927473 -0.352149 0.125640
v 0.020759 -0.019569 0.101761
vn -0.469334 0.882856 -0.017075
v -0.015656 0.041324 0.013699
vn 0.117454 0.978871 0.167380
v -0.004866 0.041658 0.094889
vn -0.461475 0.884248 0.071741
v -0.019057 0.039044 0.087084
vn 0.809142 0.506184 0.298442
v 0.001709 0.037701 0.099648
vn 0.608581 0.252041 0.752399
v 0.017617 -0.007836 0.103992
vn 0.926311 0.340697 0.160854
v 0.004198 0.031311 0.099804
vn -0.588204 -0.384310 0.711563
v -0.004656 -0.024564 0.099948
vn -0.597544 -0.716931 0.359096
v -0.003921 -0.029472 0.094617
vn -0.934879 -0.169738 0.311755
v -0.026019 0.027240 0.092192
vn 0.911179 -0.400318 0.097461
v 0.020225 -0.023483 0.091976
vn 0.390323 -0.851846 0.349296
v 0.012627 -0.028680 0.094704
vn 0.703604 -0.694374 0.150948
v 0.019204 -0.025449 0.091811
vn -0.377878 0.925694 0.017262
v -0.017612 0.039663 0.086105
vn -0.486148 0.873729 0.016067
v -0.019569 0.038803 0.086105
vn -0.299212 0.951136 0.076235
v -0.013635 0.041166 0.090900
vn -0.700603 0.700194 0.137420
v -0.023239 0.036146 0.087573
vn -0.966837 0.231752 0.107313
v -0.026285 0.029393 0.091083
vn 0.342062 -0.927675 0.149707
v 0.011606 -0.029802 0.092378
vn -0.572182 -0.814629 0.094799
v -0.004281 -0.029937 0.091305
vn 0.030332 -0.921883 0.386278
v 0.004314 -0.029988 0.096417
# 127 vertices, 0 vertices normals

f 83//83 2//2 8//8
f 124//124 5//5 14//14
f 92//92 1//1 93//93
f 25//25 11//11 93//93
f 25//25 93//93 1//1
f 28//28 12//12 3//3
f 28//28 3//3 93//93
f 28//28 93//93 12//12
f 30//30 93//93 3//3
f 31//31 6//6 13//13
f 63//63 124//124 14//14
f 32//32 14//14 5//5
f 32//32 5//5 17//17
f 32//32 18//18 63//63
f 33//33 78//78 15//15
f 34//34 15//15 78//78
f 35//35 6//6 78//78
f 79//79 17//17 5//5
f 79//79 32//32 17//17
f 79//79 5//5 36//36
f 79//79 18//18 32//32
f 39//39 2//2 83//83
f 41//41 2//2 88//88
f 42//42 1//1 45//45
f 43//43 1//1 42//42
f 43//43 42//42 45//45
f 43//43 25//25 1//1
f 91//91 8//8 27//27
f 44//44 5//5 124//124
f 45//45 1//1 92//92
f 47//47 10//10 92//92
f 47//47 92//92 46//46
f 47//47 36//36 5//5
f 47//47 44//44 10//10
f 47//47 5//5 44//44
f 49//49 25//25 22//22
f 49//49 4//4 25//25
f 49//49 91//91 4//4
f 111//111 26//26 11//11
f 111//111 11//11 25//25
f 111//111 25//25 4//4
f 50//50 26//26 93//93
f 50//50 93//93 11//11
f 50//50 11//11 26//26
f 51//51 12//12 93//93
f 51//51 93//93 26//26
f 52//52 27//27 8//8
f 52//52 8//8 2//2
f 52//52 2//2 27//27
f 112//112 27//27 2//2
f 112//112 2//2 12//12
f 112//112 91//91 27//27
f 53//53 30//30 3//3
f 53//53 3//3 31//31
f 54//54 31//31 20//20
f 54//54 6//6 31//31
f 119//119 31//31 3//3
f 119//119 3//3 29//29
f 63//63 14//14 32//32
f 56//56 33//33 15//15
f 56//56 15//15 7//7
f 57//57 33//33 56//56
f 57//57 35//35 78//78
f 57//57 16//16 35//35
f 57//57 56//56 7//7
f 59//59 16//16 57//57
f 59//59 35//35 16//16
f 59//59 6//6 35//35
f 60//60 79//79 7//7
f 60//60 18//18 79//79
f 61//61 37//37 62//62
f 61//61 78//78 6//6
f 61//61 6//6 37//37
f 61//61 38//38 19//19
f 61//61 19//19 78//78
f 86//86 88//88 2//2
f 65//65 12//12 2//2
f 65//65 3//3 12//12
f 66//66 43//43 45//45
f 67//67 43//43 9//9
f 67//67 9//9 25//25
f 67//67 25//25 43//43
f 68//68 91//91 109//109
f 68//68 8//8 91//91
f 69//69 25//25 9//9
f 69//69 22//22 25//25
f 46//46 13//13 6//6
f 46//46 6//6 59//59
f 71//71 106//106 98//98
f 71//71 21//21 114//114
f 72//72 48//48 92//92
f 72//72 92//92 10//10
f 72//72 23//23 48//48
f 73//73 10//10 97//97
f 74//74 44//44 124//124
f 74//74 10//10 44//44
f 98//98 83//83 82//82
f 111//111 91//91 112//112
f 75//75 30//30 53//53
f 75//75 53//53 31//31
f 75//75 31//31 13//13
f 76//76 55//55 20//20
f 76//76 20//20 31//31
f 77//77 31//31 119//119
f 77//77 76//76 31//31
f 77//77 55//55 76//76
f 78//78 33//33 57//57
f 58//58 34//34 126//126
f 34//34 78//78 126//126
f 58//58 7//7 15//15
f 58//58 15//15 34//34
f 47//47 59//59 36//36
f 47//47 46//46 59//59
f 79//79 36//36 59//59
f 79//79 59//59 57//57
f 79//79 57//57 7//7
f 80//80 61//61 62//62
f 80//80 38//38 61//61
f 81//81 37//37 6//6
f 81//81 62//62 37//37
f 81//81 125//125 62//62
f 82//82 83//83 8//8
f 116//116 98//98 82//82
f 21//21 64//64 40//40
f 86//86 2//2 39//39
f 87//87 65//65 2//2
f 87//87 2//2 41//41
f 127//127 19//19 38//38
f 127//127 38//38 80//80
f 90//90 66//66 45//45
f 90//90 45//45 92//92
f 43//43 68//68 9//9
f 109//109 9//9 68//68
f 109//109 69//69 9//9
f 91//91 69//69 109//109
f 93//93 30//30 75//75
f 93//93 75//75 13//13
f 93//93 13//13 46//46
f 93//93 46//46 92//92
f 98//98 21//21 71//71
f 98//98 64//64 21//21
f 94//94 71//71 114//114
f 94//94 106//106 71//71
f 95//95 72//72 10//10
f 95//95 23//23 72//72
f 95//95 10//10 73//73
f 96//96 48//48 23//23
f 97//97 10//10 74//74
f 123//123 73//73 97//97
f 98//98 70//70 83//83
f 111//111 51//51 26//26
f 111//111 4//4 91//91
f 100//100 111//111 112//112
f 100//100 51//51 111//111
f 101//101 102//102 125//125
f 101//101 125//125 81//81
f 101//101 20//20 55//55
f 101//101 6//6 54//54
f 101//101 54//54 20//20
f 102//102 101//101 55//55
f 103//103 18//18 60//60
f 103//103 60//60 58//58
f 103//103 63//63 18//18
f 104//104 115//115 40//40
f 104//104 40//40 64//64
f 58//58 60//60 7//7
f 127//127 80//80 62//62
f 127//127 62//62 125//125
f 99//99 82//82 8//8
f 39//39 83//83 70//70
f 82//82 124//124 63//63
f 82//82 99//99 124//124
f 63//63 116//116 82//82
f 114//114 21//21 40//40
f 114//114 84//84 39//39
f 114//114 39//39 85//85
f 105//105 85//85 39//39
f 105//105 39//39 70//70
f 105//105 106//106 85//85
f 106//106 94//94 85//85
f 84//84 86//86 39//39
f 107//107 87//87 29//29
f 107//107 3//3 65//65
f 107//107 65//65 87//87
f 41//41 88//88 118//118
f 119//119 29//29 87//87
f 115//115 19//19 127//127
f 122//122 90//90 89//89
f 122//122 66//66 90//90
f 108//108 110//110 89//89
f 108//108 89//89 92//92
f 108//108 92//92 48//48
f 92//92 89//89 90//90
f 122//122 68//68 43//43
f 24//24 68//68 122//122
f 91//91 49//49 22//22
f 91//91 22//22 69//69
f 94//94 114//114 85//85
f 124//124 97//97 74//74
f 99//99 24//24 123//123
f 99//99 123//123 124//124
f 123//123 96//96 23//23
f 112//112 12//12 100//100
f 113//113 100//100 12//12
f 113//113 12//12 51//51
f 113//113 51//51 100//100
f 6//6 101//101 81//81
f 118//118 102//102 55//55
f 119//119 55//55 77//77
f 119//119 118//118 55//55
f 116//116 64//64 98//98
f 115//115 58//58 126//126
f 19//19 126//126 78//78
f 19//19 115//115 126//126
f 115//115 103//103 58//58
f 115//115 104//104 103//103
f 116//116 103//103 104//104
f 116//116 104//104 64//64
f 116//116 63//63 103//103
f 70//70 106//106 105//105
f 70//70 98//98 106//106
f 84//84 88//88 86//86
f 117//117 107//107 29//29
f 117//117 29//29 3//3
f 117//117 3//3 107//107
f 119//119 87//87 41//41
f 119//119 41//41 118//118
f 120//120 122//122 89//89
f 120//120 89//89 110//110
f 120//120 110//110 122//122
f 121//121 110//110 108//108
f 121//121 108//108 48//48
f 121//121 48//48 96//96
f 121//121 96//96 110//110
f 122//122 43//43 66//66
f 122//122 110//110 24//24
f 24//24 8//8 68//68
f 123//123 23//23 95//95
f 123//123 95//95 73//73
f 123//123 97//97 124//124
f 123//123 110//110 96//96
f 123//123 24//24 110//110
f 24//24 99//99 8//8
f 118//118 125//125 102//102
f 115//115 84//84 114//114
f 114//114 40//40 115//115
f 127//127 88//88 84//84
f 127//127 84//84 115//115
f 127//127 118//118 88//88
f 127//127 125//125 118//118
# 250 faces, 0 coords texture

# End of File
