####
#
# OBJ File Generated by Meshlab
#
####
# Object motts_original_assorted_fruit_250_collision.obj
#
# Vertices: 127
# Faces: 250
#
####
vn -0.097451 -0.106745 0.989499
v 0.014797 0.009829 0.000257
vn 0.682731 0.730646 -0.005844
v -0.004162 -0.024156 0.099348
vn -0.003032 0.999956 0.008865
v 0.040199 -0.059171 0.117597
vn 0.129580 0.166421 0.977503
v -0.001958 -0.000663 0.000536
vn 0.519970 0.598102 0.609840
v -0.021210 -0.001612 0.006638
vn 0.662828 0.747980 0.034410
v 0.008276 -0.034969 0.065800
vn 0.676467 0.734919 0.047811
v -0.012863 -0.014391 0.048778
vn 0.690295 0.722864 0.030979
v -0.038604 0.007920 0.064387
vn 0.688861 0.724542 -0.022583
v -0.034201 0.004569 0.104052
vn 0.692646 0.720678 -0.029392
v -0.018600 -0.009222 0.148969
vn 0.689912 0.723586 -0.021107
v -0.019982 -0.007639 0.125829
vn 0.691874 0.721659 -0.022774
v 0.008691 -0.034123 0.153506
vn 0.652537 0.649220 -0.390781
v -0.022335 -0.002597 0.178871
vn 0.148019 0.164983 -0.975126
v -0.015036 0.007757 0.185553
vn 0.040660 -0.002277 -0.999170
v 0.010337 -0.009141 0.186569
vn 0.594429 0.599959 0.535447
v -0.054953 0.027671 0.005989
vn 0.733152 0.362251 0.575554
v -0.060363 0.033575 0.006959
vn 0.889374 0.456656 0.021903
v -0.062279 0.032951 0.044397
vn 0.962310 -0.170727 0.211689
v -0.065008 0.041966 0.013776
vn 0.580587 0.671011 0.461154
v -0.034284 0.011191 0.005656
vn 0.279365 0.332528 0.900767
v -0.029758 0.012763 0.002065
vn 0.219751 0.114268 0.968841
v -0.045403 0.034891 0.001072
vn 0.066980 0.047507 0.996623
v -0.025520 0.026283 -0.000286
vn -0.045528 -0.069779 0.996523
v -0.016654 0.033911 -0.000413
vn 0.549489 -0.225671 0.804447
v -0.058532 0.042921 0.003735
vn 0.344797 -0.663919 0.663571
v -0.039477 0.066754 0.005357
vn 0.072087 -0.124003 0.989660
v -0.032455 0.050615 0.000708
vn -0.588801 -0.719151 0.368966
v -0.013558 0.057879 0.009159
vn -0.230453 -0.551318 0.801835
v -0.027568 0.065862 0.003695
vn 0.672831 0.735238 0.082004
v -0.034646 0.008787 0.025170
vn 0.671912 -0.723066 0.160343
v -0.048346 0.062696 0.014189
vn -0.516954 -0.855872 0.015554
v -0.025435 0.070003 0.036473
vn -0.640272 -0.768024 0.013841
v -0.013770 0.060038 0.063715
vn -0.048985 -0.990818 0.126019
v -0.032705 0.072852 0.022492
vn 0.944698 -0.327797 0.009722
v -0.063656 0.043564 0.069869
vn 0.880300 -0.474356 -0.007689
v -0.062379 0.046166 0.041060
vn 0.761758 0.647860 0.001438
v -0.058289 0.028037 0.094093
vn 0.347908 -0.937527 0.001843
v -0.036680 0.071406 0.041734
vn 0.684424 -0.728801 0.020331
v -0.045495 0.066236 0.074191
vn -0.253168 -0.967310 0.014739
v -0.030843 0.072164 0.071508
vn 0.863309 0.504539 0.011777
v -0.062213 0.032426 0.113533
vn 0.766292 0.642461 -0.006414
v -0.059035 0.029271 0.138956
vn 0.828191 -0.560396 0.007489
v -0.058287 0.052369 0.106941
vn 0.991319 0.131480 -0.000430
v -0.064168 0.037554 0.145036
vn 0.998457 0.053686 0.014167
v -0.064276 0.038020 0.108244
vn 0.689095 0.724295 -0.023332
v -0.042771 0.014700 0.132465
vn 0.674833 0.736872 -0.040255
v -0.047071 0.019639 0.158690
vn -0.672512 -0.739888 -0.017138
v -0.010629 0.057488 0.120590
vn -0.365868 -0.930665 0.001678
v -0.027142 0.071868 0.101374
vn 0.275188 -0.961374 0.005664
v -0.037050 0.072105 0.098923
vn -0.495277 -0.868357 -0.025604
v -0.025768 0.069922 0.149582
vn 0.646769 -0.762686 -0.000804
v -0.043223 0.068533 0.114422
vn 0.746177 0.608636 -0.269783
v -0.061731 0.031575 0.178298
vn 0.869299 -0.494056 0.015120
v -0.061143 0.049584 0.147229
vn 0.695833 -0.718202 0.001569
v -0.052492 0.059355 0.152804
vn 0.867118 -0.465354 -0.177630
v -0.062194 0.048518 0.173882
vn 0.969239 0.165544 -0.182131
v -0.064345 0.037491 0.177951
vn 0.537194 0.601575 -0.591211
v -0.031987 0.007468 0.179249
vn 0.593210 -0.003159 -0.805042
v -0.062023 0.038384 0.182383
vn -0.682350 -0.730153 -0.035704
v 0.005367 0.040693 0.152355
vn -0.649291 -0.679196 -0.342220
v 0.009030 0.036209 0.177107
vn -0.328881 -0.320782 -0.888221
v 0.014583 0.023818 0.183540
vn -0.365193 -0.322908 -0.873135
v -0.003171 0.036680 0.187625
vn 0.077366 -0.362438 -0.928791
v -0.031353 0.062459 0.187344
vn 0.207803 -0.978079 -0.013406
v -0.036674 0.072087 0.144909
vn 0.488554 -0.783472 -0.384041
v -0.041207 0.070304 0.176042
vn -0.392143 -0.853102 -0.344153
v -0.027483 0.070211 0.179421
vn -0.549510 0.740645 0.386631
v 0.049473 -0.053735 0.008404
vn 0.039829 0.687831 0.724777
v 0.040585 -0.053225 0.004705
vn 0.463230 0.860982 0.210066
v 0.033190 -0.055319 0.015293
vn -0.277074 0.953674 0.117199
v 0.046109 -0.056870 0.016180
vn -0.435655 0.900075 0.008385
v 0.046759 -0.056121 0.042470
vn 0.659752 0.710589 0.244522
v 0.004461 -0.025761 0.010443
vn 0.462476 0.562629 0.685248
v 0.029198 -0.046380 0.004648
vn 0.365363 0.393038 0.843820
v -0.003664 -0.013937 0.004823
vn 0.090754 0.101560 0.990681
v 0.022957 -0.018912 -0.000087
vn 0.067089 0.171566 0.982886
v 0.037766 -0.037494 0.000687
vn -0.321002 0.250351 0.913390
v 0.058407 -0.037044 0.002580
vn -0.074012 -0.030821 0.996781
v 0.041587 -0.017784 0.000010
vn -0.324500 -0.279701 0.903586
v 0.058710 -0.015307 0.001839
vn -0.292153 -0.341275 0.893408
v 0.041250 0.000423 0.002696
vn -0.605578 -0.694060 0.389302
v 0.046273 0.002585 0.008061
vn -0.678481 -0.093138 0.728690
v 0.067974 -0.021771 0.004419
vn -0.858436 0.398868 0.322479
v 0.071110 -0.030636 0.010894
vn -0.958059 -0.238928 0.158229
v 0.071497 -0.021350 0.011731
vn -0.933809 0.357768 -0.001611
v 0.071718 -0.030195 0.047405
vn -0.693767 -0.581659 0.424687
v 0.065922 -0.014296 0.006924
vn 0.186611 0.982312 0.015484
v 0.038116 -0.058383 0.043372
vn 0.287754 0.957540 0.017756
v 0.034518 -0.058091 0.080699
vn -0.378915 0.925314 0.014727
v 0.045444 -0.058071 0.089777
vn -0.693819 0.720092 0.009128
v 0.051005 -0.053994 0.074524
vn -0.682466 -0.730800 0.013070
v 0.047427 0.003590 0.063914
vn -0.692531 -0.721211 -0.015998
v 0.056492 -0.005603 0.100412
vn -0.733195 0.679997 0.005470
v 0.067421 -0.035650 0.040721
vn -0.759932 -0.649983 0.004929
v 0.068898 -0.016027 0.053895
vn -0.985866 -0.167190 -0.010740
v 0.071703 -0.022433 0.064214
vn 0.533773 0.845618 -0.003996
v 0.032109 -0.057289 0.131766
vn -0.471550 0.881805 0.007761
v 0.047807 -0.057336 0.134874
vn 0.135445 0.966381 -0.218547
v 0.037820 -0.059745 0.180473
vn -0.920341 0.391063 0.006460
v 0.069698 -0.034372 0.097997
vn -0.976481 0.215595 -0.001657
v 0.072456 -0.028848 0.139633
vn -0.846783 -0.531710 -0.015600
v 0.069611 -0.018327 0.094265
vn -0.792893 -0.609091 -0.018132
v 0.068278 -0.017189 0.127192
vn -0.726470 0.687198 -0.000214
v 0.060559 -0.044670 0.111515
vn -0.741751 0.630892 -0.227555
v 0.064661 -0.040765 0.177292
vn -0.973902 -0.226960 -0.002167
v 0.071233 -0.023465 0.119927
vn 0.127621 0.355555 -0.925902
v 0.036327 -0.050925 0.187107
vn -0.439649 0.898167 -0.002402
v 0.047535 -0.057877 0.164021
vn -0.414350 0.721152 -0.555206
v 0.044800 -0.058848 0.179979
vn 0.407058 0.386632 -0.827539
v 0.008831 -0.028692 0.184264
vn 0.660481 0.699987 -0.271632
v 0.026487 -0.051783 0.175322
vn -0.644851 -0.414799 -0.641957
v 0.068423 -0.021679 0.179282
vn -0.645978 -0.676009 -0.354575
v 0.047895 -0.000443 0.176114
vn -0.433812 0.162064 -0.886308
v 0.061336 -0.032236 0.184906
vn -0.168016 -0.111588 -0.979448
v 0.046782 -0.015206 0.185891
vn -0.310313 -0.327506 -0.892438
v 0.035247 0.000914 0.185916
vn -0.920123 0.055722 -0.387645
v 0.071624 -0.029825 0.177685
vn -0.856046 -0.514674 -0.047921
v 0.068992 -0.019705 0.163223
vn -0.314481 -0.346905 0.883605
v -0.006490 0.040258 0.001540
vn -0.505545 -0.560837 0.655658
v 0.022327 0.022977 0.005320
vn -0.639204 -0.703110 0.311536
v 0.003757 0.040651 0.007228
vn -0.671405 -0.739522 0.048198
v 0.030182 0.017517 0.021963
vn -0.678867 -0.733191 0.039630
v 0.021715 0.026344 0.037433
vn -0.678358 -0.734693 0.007574
v 0.015736 0.033451 0.072645
vn -0.686247 -0.727220 -0.014720
v 0.029777 0.020349 0.099173
vn -0.681831 -0.731015 -0.026902
v 0.010814 0.037025 0.124660
vn -0.685720 -0.727153 -0.032186
v 0.037641 0.011293 0.139129
# 127 vertices, 0 vertices normals

f 20//20 5//5 21//21
f 5//5 73//73 75//75
f 75//75 4//4 5//5
f 21//21 5//5 4//4
f 7//7 6//6 73//73
f 5//5 20//20 30//30
f 73//73 5//5 30//30
f 30//30 7//7 73//73
f 7//7 30//30 8//8
f 9//9 7//7 8//8
f 2//2 6//6 7//7
f 2//2 7//7 9//9
f 9//9 46//46 11//11
f 2//2 9//9 11//11
f 12//12 2//2 11//11
f 11//11 46//46 10//10
f 12//12 11//11 10//10
f 13//13 10//10 47//47
f 47//47 58//58 13//13
f 13//13 12//12 10//10
f 13//13 111//111 12//12
f 110//110 13//13 14//14
f 58//58 14//14 13//13
f 62//62 15//15 14//14
f 25//25 17//17 22//22
f 19//19 17//17 25//25
f 31//31 19//19 25//25
f 18//18 16//16 17//17
f 18//18 30//30 16//16
f 19//19 18//18 17//17
f 18//18 19//19 36//36
f 22//22 16//16 21//21
f 22//22 21//21 23//23
f 16//16 20//20 21//21
f 22//22 17//17 16//16
f 22//22 23//23 27//27
f 24//24 27//27 23//23
f 23//23 21//21 4//4
f 23//23 4//4 24//24
f 1//1 24//24 4//4
f 4//4 76//76 1//1
f 24//24 1//1 119//119
f 25//25 22//22 27//27
f 26//26 31//31 25//25
f 27//27 24//24 29//29
f 25//25 27//27 26//26
f 29//29 26//26 27//27
f 28//28 119//119 121//121
f 29//29 24//24 119//119
f 28//28 29//29 119//119
f 30//30 20//20 16//16
f 36//36 19//19 31//31
f 28//28 121//121 32//32
f 123//123 33//33 32//32
f 34//34 31//31 26//26
f 31//31 34//34 38//38
f 26//26 29//29 34//34
f 31//31 38//38 36//36
f 32//32 38//38 34//34
f 28//28 34//34 29//29
f 32//32 34//34 28//28
f 8//8 30//30 18//18
f 18//18 36//36 35//35
f 8//8 18//18 37//37
f 45//45 37//37 18//18
f 37//37 45//45 41//41
f 35//35 45//45 18//18
f 35//35 36//36 39//39
f 43//43 45//45 35//35
f 35//35 39//39 43//43
f 37//37 9//9 8//8
f 52//52 43//43 39//39
f 49//49 33//33 48//48
f 33//33 124//124 48//48
f 38//38 32//32 40//40
f 38//38 39//39 36//36
f 33//33 40//40 32//32
f 40//40 50//50 38//38
f 39//39 38//38 50//50
f 52//52 39//39 50//50
f 50//50 40//40 49//49
f 33//33 49//49 40//40
f 41//41 42//42 37//37
f 44//44 42//42 41//41
f 42//42 44//44 57//57
f 45//45 44//44 41//41
f 45//45 43//43 54//54
f 44//44 45//45 54//54
f 46//46 9//9 37//37
f 42//42 46//46 37//37
f 48//48 124//124 126//126
f 48//48 51//51 49//49
f 46//46 42//42 47//47
f 10//10 46//46 47//47
f 48//48 60//60 51//51
f 54//54 43//43 52//52
f 65//65 52//52 50//50
f 50//50 49//49 65//65
f 52//52 55//55 54//54
f 55//55 52//52 65//65
f 65//65 49//49 51//51
f 47//47 42//42 53//53
f 53//53 42//42 57//57
f 54//54 55//55 56//56
f 57//57 44//44 56//56
f 56//56 44//44 54//54
f 57//57 59//59 53//53
f 56//56 59//59 57//57
f 47//47 53//53 58//58
f 58//58 59//59 14//14
f 53//53 59//59 58//58
f 66//66 56//56 55//55
f 55//55 65//65 66//66
f 56//56 66//66 59//59
f 59//59 66//66 64//64
f 67//67 61//61 63//63
f 59//59 64//64 14//14
f 14//14 63//63 62//62
f 63//63 14//14 64//64
f 63//63 64//64 67//67
f 66//66 65//65 67//67
f 67//67 65//65 51//51
f 67//67 64//64 66//66
f 67//67 51//51 60//60
f 61//61 67//67 60//60
f 69//69 74//74 70//70
f 88//88 70//70 6//6
f 71//71 69//69 70//70
f 69//69 71//71 68//68
f 71//71 70//70 88//88
f 72//72 71//71 88//88
f 74//74 75//75 73//73
f 70//70 74//74 73//73
f 4//4 75//75 76//76
f 75//75 74//74 77//77
f 76//76 75//75 77//77
f 77//77 74//74 69//69
f 78//78 77//77 69//69
f 69//69 68//68 78//78
f 78//78 79//79 77//77
f 79//79 76//76 77//77
f 79//79 78//78 80//80
f 83//83 80//80 78//78
f 1//1 76//76 79//79
f 1//1 79//79 81//81
f 81//81 79//79 80//80
f 81//81 80//80 82//82
f 82//82 120//120 81//81
f 82//82 80//80 87//87
f 70//70 73//73 6//6
f 94//94 68//68 71//71
f 94//94 71//71 72//72
f 84//84 68//68 94//94
f 82//82 87//87 95//95
f 122//122 82//82 95//95
f 84//84 78//78 68//68
f 84//84 83//83 78//78
f 87//87 80//80 83//83
f 84//84 85//85 83//83
f 84//84 86//86 85//85
f 86//86 84//84 94//94
f 96//96 85//85 86//86
f 87//87 83//83 85//85
f 85//85 95//95 87//87
f 95//95 85//85 96//96
f 89//89 88//88 6//6
f 94//94 72//72 91//91
f 72//72 88//88 89//89
f 91//91 72//72 90//90
f 90//90 72//72 89//89
f 3//3 90//90 89//89
f 86//86 94//94 91//91
f 92//92 122//122 95//95
f 89//89 6//6 2//2
f 100//100 86//86 91//91
f 91//91 104//104 100//100
f 100//100 96//96 86//86
f 95//95 93//93 92//92
f 95//95 96//96 102//102
f 93//93 95//95 102//102
f 3//3 89//89 97//97
f 98//98 90//90 3//3
f 104//104 91//91 90//90
f 104//104 90//90 98//98
f 98//98 3//3 99//99
f 99//99 3//3 97//97
f 89//89 2//2 97//97
f 93//93 103//103 127//127
f 12//12 97//97 2//2
f 127//127 103//103 118//118
f 100//100 106//106 96//96
f 102//102 96//96 106//106
f 106//106 100//100 101//101
f 103//103 93//93 102//102
f 103//103 102//102 106//106
f 101//101 100//100 104//104
f 105//105 104//104 98//98
f 101//101 104//104 105//105
f 117//117 101//101 105//105
f 118//118 103//103 106//106
f 118//118 106//106 101//101
f 12//12 111//111 97//97
f 108//108 98//98 99//99
f 111//111 99//99 97//97
f 108//108 99//99 109//109
f 105//105 108//108 109//109
f 99//99 107//107 109//109
f 110//110 107//107 111//111
f 99//99 111//111 107//107
f 111//111 13//13 110//110
f 105//105 98//98 108//108
f 114//114 105//105 109//109
f 117//117 105//105 114//114
f 115//115 112//112 114//114
f 127//127 118//118 113//113
f 116//116 112//112 115//115
f 112//112 116//116 113//113
f 110//110 15//15 107//107
f 114//114 109//109 107//107
f 107//107 15//15 115//115
f 107//107 115//115 114//114
f 115//115 15//15 116//116
f 15//15 110//110 14//14
f 118//118 101//101 117//117
f 117//117 112//112 118//118
f 112//112 117//117 114//114
f 112//112 113//113 118//118
f 119//119 1//1 120//120
f 1//1 81//81 120//120
f 121//121 119//119 120//120
f 122//122 121//121 120//120
f 121//121 122//122 123//123
f 122//122 120//120 82//82
f 123//123 32//32 121//121
f 124//124 123//123 92//92
f 92//92 123//123 122//122
f 33//33 123//123 124//124
f 124//124 92//92 125//125
f 125//125 92//92 93//93
f 126//126 124//124 125//125
f 127//127 126//126 125//125
f 125//125 93//93 127//127
f 60//60 126//126 127//127
f 127//127 61//61 60//60
f 60//60 48//48 126//126
f 61//61 127//127 113//113
f 116//116 15//15 62//62
f 116//116 62//62 113//113
f 62//62 61//61 113//113
f 61//61 62//62 63//63
# 250 faces, 0 coords texture

# End of File
