####
#
# OBJ File Generated by Meshlab
#
####
# Object motts_original_assorted_fruit_250_collision.obj
#
# Vertices: 127
# Faces: 250
#
####
vn -0.018885 0.999595 -0.021302
v -0.031311 0.074427 0.013699
vn -0.059838 -0.064899 0.996096
v 0.012252 -0.025330 0.186147
vn 0.259325 -0.500701 -0.825863
v 0.048923 -0.055861 0.005871
vn -0.803160 -0.483742 -0.347747
v -0.061742 0.031311 0.005871
vn 0.203768 0.904919 -0.373631
v -0.022303 0.074364 0.005871
vn -0.405120 -0.897792 -0.172764
v 0.039066 -0.062622 0.011742
vn 0.641269 -0.745384 0.182145
v 0.052885 -0.052744 0.175561
vn -0.837330 0.545167 -0.040867
v -0.064579 0.046967 0.006307
vn 0.152239 0.156402 -0.975890
v 0.067786 -0.009785 0.005871
vn -0.662488 -0.747920 0.041542
v 0.031334 -0.053311 0.174268
vn 0.950282 0.285115 -0.125194
v 0.076321 -0.017500 0.007828
vn 0.549019 -0.828315 -0.111681
v 0.046967 -0.062622 0.014282
vn -0.020827 0.999731 0.010226
v -0.033256 0.073580 0.107055
vn -0.807186 0.346894 -0.477613
v -0.064560 0.046905 0.005877
vn -0.564767 0.803197 -0.189508
v -0.040046 0.072572 0.007517
vn 0.585295 0.684299 -0.434931
v -0.019569 0.072407 0.005985
vn 0.691574 0.715601 0.098187
v 0.067020 -0.015656 0.176125
vn -0.537471 -0.659785 0.525175
v 0.031311 -0.051681 0.181995
vn -0.609030 -0.659454 -0.440685
v -0.033331 0.003971 0.005871
vn 0.998689 0.041318 0.030209
v 0.072434 -0.027397 0.174168
vn 0.567727 0.394414 -0.722581
v 0.074364 -0.015656 0.006073
vn 0.373514 -0.416495 -0.828866
v 0.052832 -0.052837 0.005871
vn 0.411953 -0.901164 0.134901
v 0.046967 -0.057361 0.174168
vn -0.150359 -0.985163 0.082740
v 0.039139 -0.058600 0.174168
vn -0.993969 0.041134 0.101657
v -0.063953 0.041096 0.174168
vn -0.098948 0.994109 -0.044239
v -0.035225 0.074289 0.011742
vn 0.751201 0.649597 -0.117138
v 0.074364 -0.013599 0.007828
vn -0.559876 -0.796026 0.229957
v 0.035042 -0.055958 0.180090
vn 0.322621 -0.186508 0.927971
v 0.067380 -0.029340 0.185361
vn -0.057128 -0.045316 0.997338
v -0.025894 0.012456 0.185965
vn -0.678308 -0.734726 0.008743
v 0.005871 -0.031380 0.091976
vn -0.688915 -0.724757 0.011111
v -0.040663 0.011742 0.066536
vn 0.970119 0.227339 0.084774
v 0.071455 -0.021573 0.175392
vn 0.323758 -0.418563 -0.848520
v 0.050880 -0.054385 0.005871
vn 0.056712 -0.990519 -0.125126
v 0.043053 -0.062932 0.013699
vn -0.570796 -0.820585 0.028859
v 0.035399 -0.056945 0.166380
vn 0.817282 -0.559892 0.136277
v 0.068927 -0.035165 0.177293
vn 0.735190 -0.478711 -0.479928
v 0.074229 -0.031311 0.005871
vn 0.030895 0.985112 0.169118
v -0.031661 0.072480 0.177288
vn -0.998291 0.020749 -0.054632
v -0.065645 0.041096 0.011742
vn 0.671952 0.734952 0.091248
v -0.018333 0.063694 0.176146
vn 0.659373 0.750991 0.035217
v -0.018204 0.065722 0.133991
vn 0.725977 0.678939 0.109539
v 0.068493 -0.017135 0.176125
vn 0.281837 0.958591 0.040881
v -0.029354 0.072315 0.170254
vn -0.576896 -0.543154 0.610061
v -0.056585 0.031311 0.181995
vn 0.098646 0.104445 0.989626
v 0.024363 0.013504 0.186107
vn 0.044664 0.109151 0.993021
v -0.027397 0.062622 0.185581
vn -0.589022 -0.593050 -0.548949
v -0.060651 0.030159 0.005871
vn -0.683003 -0.730289 0.013590
v -0.010829 -0.015656 0.109589
vn -0.078077 -0.521382 -0.849744
v 0.038979 -0.058752 0.005871
vn 0.176976 -0.851597 -0.493419
v 0.044031 -0.061719 0.010763
vn -0.681832 -0.731239 0.019879
v 0.011078 -0.035225 0.150684
vn 0.986638 0.159480 0.033341
v 0.072591 -0.023483 0.152641
vn 0.638281 0.048840 -0.768253
v 0.076361 -0.020798 0.005871
vn 0.550143 -0.817024 0.172667
v 0.048003 -0.056751 0.174168
vn 0.623247 -0.778690 0.072139
v 0.050744 -0.054674 0.174168
vn 0.086668 -0.995664 0.033776
v 0.043053 -0.058447 0.170254
vn 0.930684 -0.364153 0.034935
v 0.071715 -0.030333 0.169275
vn 0.706844 -0.706951 0.024337
v 0.054818 -0.050880 0.174168
vn -0.091590 0.995678 0.015393
v -0.034895 0.072959 0.154400
vn -0.729084 0.684198 -0.017589
v -0.050490 0.062631 0.015104
vn -0.962835 0.269289 0.020784
v -0.063820 0.043053 0.162426
vn -0.808626 0.587291 0.034823
v -0.059591 0.050880 0.170254
vn -0.763708 -0.136475 -0.630971
v -0.064579 0.038776 0.005871
vn -0.947412 -0.318412 0.032013
v -0.063278 0.037182 0.170254
vn -0.153091 0.897438 -0.413725
v -0.029747 0.074075 0.006080
vn 0.169573 0.985321 0.019662
v -0.029354 0.073038 0.135029
vn 0.522702 0.843886 0.120988
v -0.025494 0.069728 0.178516
vn -0.681332 -0.726124 0.092366
v -0.057310 0.029624 0.176218
vn -0.667188 -0.682160 0.299195
v -0.055945 0.029372 0.180010
vn -0.475927 -0.503534 0.721073
v 0.017612 -0.036608 0.183952
vn -0.036018 -0.083902 0.995823
v 0.034453 -0.047776 0.185841
vn 0.314182 0.169004 0.934199
v 0.065492 -0.024912 0.185800
vn -0.727843 -0.681447 0.076651
v -0.060665 0.032773 0.176125
vn -0.682576 -0.730747 0.009930
v -0.017612 -0.009757 0.078278
vn -0.666699 -0.745189 0.014329
v 0.029382 -0.052256 0.148763
vn 0.599648 -0.793509 0.103758
v 0.048923 -0.056061 0.174168
vn 0.189706 -0.977814 0.088835
v 0.044996 -0.058127 0.173335
vn 0.170569 -0.838945 0.516796
v 0.042118 -0.056913 0.183720
vn 0.770087 -0.637812 0.012722
v 0.066755 -0.038261 0.165941
vn 0.957518 -0.219501 -0.187025
v 0.076320 -0.027398 0.006960
vn 0.702852 -0.700594 0.123158
v 0.058802 -0.046809 0.175515
vn 0.080941 0.996556 0.017997
v -0.031311 0.073013 0.152641
vn -0.839864 0.541358 0.039509
v -0.060553 0.050133 0.173829
vn -0.961718 -0.270228 -0.045547
v -0.065318 0.038980 0.012036
vn -0.893054 -0.448903 0.030664
v -0.062396 0.035225 0.172211
vn 0.027241 0.055747 0.998073
v -0.009543 0.046926 0.185792
vn 0.222137 0.310109 0.924385
v -0.043951 0.082607 0.184637
vn -0.825726 -0.426849 0.368750
v -0.062221 0.036039 0.180081
vn -0.485012 -0.432666 0.759976
v -0.054794 0.031311 0.183175
vn -0.272363 -0.281614 0.920061
v 0.014875 -0.031072 0.185629
vn -0.229274 -0.407805 0.883815
v 0.038429 -0.053832 0.185484
vn -0.030512 -0.001297 0.999534
v -0.036081 0.023850 0.185718
vn -0.187601 0.260858 0.946974
v -0.036707 0.065700 0.185165
vn 0.293119 0.307176 0.905386
v 0.031800 0.010274 0.185055
vn -0.331400 0.735598 0.590821
v -0.032079 0.070361 0.183958
vn 0.689154 0.699121 0.190517
v 0.066559 -0.015656 0.178144
vn -0.835262 -0.548700 0.035584
v -0.061134 0.033268 0.174168
vn 0.850462 0.502008 0.157169
v 0.070476 -0.019605 0.177291
vn 0.599455 0.648275 0.469460
v -0.013724 0.057015 0.182151
vn 0.539792 0.571478 0.618091
v 0.064579 -0.015656 0.181790
vn -0.403159 0.909334 -0.102836
v -0.039139 0.073144 0.011742
vn -0.259387 0.957925 -0.122873
v -0.037182 0.073949 0.011742
vn -0.731511 0.681792 0.007144
v -0.051485 0.060440 0.151661
vn -0.746166 0.621731 -0.238089
v -0.061410 0.047945 0.173189
vn 0.482151 0.418601 0.769613
v 0.064207 -0.017612 0.183737
vn 0.457988 0.884447 0.089445
v -0.026723 0.070000 0.180496
vn -0.870453 -0.492245 -0.002534
v -0.062622 0.032755 0.009785
vn 0.906533 -0.046764 0.419536
v 0.071547 -0.028147 0.182358
vn -0.551622 0.834001 0.012463
v -0.039139 0.071286 0.158512
vn -0.519620 0.853981 0.026670
v -0.044095 0.068433 0.092758
vn -0.700456 0.713658 0.007332
v -0.045010 0.067492 0.097847
vn -0.911253 -0.411343 -0.020359
v -0.062878 0.033268 0.009802
vn -0.056451 0.096104 -0.993769
v -0.040612 0.070450 0.005871
vn -0.129577 -0.069849 0.989106
v -0.052465 0.034326 0.185159
vn -0.503489 0.738144 0.449046
v -0.041982 0.067527 0.181384
vn 0.688873 0.563899 0.455491
v 0.068884 -0.018571 0.180027
vn 0.733152 -0.668941 0.122496
v 0.062692 -0.042792 0.176185
vn -0.379325 0.921422 0.084230
v -0.037147 0.072282 0.173801
vn -0.704109 0.709859 -0.018205
v -0.044691 0.068607 0.013666
vn -0.568156 0.821966 0.039627
v -0.049046 0.062749 0.170254
vn -0.621813 0.781764 0.046833
v -0.042948 0.068500 0.169743
vn -0.670220 0.219542 0.708948
v -0.060903 0.042441 0.183894
vn -0.436106 -0.326747 0.838479
v -0.057267 0.035433 0.184043
vn -0.561538 0.785618 0.259768
v -0.049360 0.061666 0.178072
vn -0.828179 0.507679 -0.237447
v -0.057931 0.052850 0.172550
vn 0.645084 -0.606717 0.464501
v 0.061194 -0.041723 0.182449
# 127 vertices, 0 vertices normals

f 11//11 27//27 99//99
f 13//13 5//5 1//1
f 16//16 9//9 5//5
f 17//17 27//27 41//41
f 68//68 16//16 5//5
f 21//21 27//27 11//11
f 21//21 16//16 27//27
f 21//21 9//9 16//16
f 22//22 38//38 12//12
f 42//42 27//27 16//16
f 70//70 28//28 18//18
f 31//31 19//19 6//6
f 51//51 50//50 3//3
f 76//76 31//31 6//6
f 33//33 11//11 99//99
f 54//54 20//20 81//81
f 54//54 11//11 20//20
f 54//54 21//21 11//11
f 34//34 22//22 12//12
f 34//34 12//12 3//3
f 35//35 24//24 6//6
f 35//35 6//6 51//51
f 36//36 6//6 24//24
f 37//37 58//58 109//109
f 38//38 81//81 58//58
f 38//38 58//58 37//37
f 80//80 12//12 38//38
f 118//118 12//12 80//80
f 40//40 8//8 14//14
f 66//66 1//1 5//5
f 13//13 1//1 26//26
f 14//14 8//8 15//15
f 42//42 41//41 27//27
f 42//42 16//16 68//68
f 43//43 27//27 17//17
f 44//44 68//68 5//5
f 97//97 43//43 17//17
f 97//97 17//17 41//41
f 50//50 6//6 19//19
f 48//48 19//19 32//32
f 49//49 31//31 76//76
f 50//50 51//51 6//6
f 51//51 3//3 12//12
f 51//51 12//12 35//35
f 36//36 10//10 76//76
f 52//52 76//76 10//10
f 52//52 49//49 76//76
f 53//53 20//20 11//11
f 53//53 11//11 33//33
f 54//54 9//9 21//21
f 54//54 81//81 38//38
f 55//55 23//23 12//12
f 56//56 12//12 7//7
f 57//57 35//35 12//12
f 57//57 24//24 35//35
f 80//80 38//38 37//37
f 59//59 7//7 12//12
f 60//60 13//13 26//26
f 64//64 40//40 14//14
f 66//66 26//26 1//1
f 42//42 68//68 41//41
f 99//99 27//27 43//43
f 67//67 44//44 5//5
f 68//68 44//44 39//39
f 79//79 28//28 24//24
f 69//69 52//52 10//10
f 69//69 49//49 52//52
f 70//70 18//18 45//45
f 71//71 45//45 18//18
f 46//46 87//87 30//30
f 30//30 87//87 47//47
f 100//100 117//117 107//107
f 68//68 107//107 117//117
f 68//68 97//97 41//41
f 74//74 48//48 32//32
f 74//74 4//4 48//48
f 74//74 32//32 49//49
f 74//74 49//49 69//69
f 75//75 49//49 32//32
f 75//75 32//32 19//19
f 75//75 19//19 31//31
f 75//75 31//31 49//49
f 76//76 6//6 36//36
f 33//33 20//20 53//53
f 77//77 55//55 12//12
f 77//77 12//12 56//56
f 78//78 57//57 12//12
f 78//78 12//12 23//23
f 81//81 109//109 58//58
f 82//82 59//59 12//12
f 82//82 12//12 118//118
f 83//83 60//60 39//39
f 83//83 44//44 67//67
f 83//83 67//67 5//5
f 83//83 5//5 13//13
f 60//60 83//83 13//13
f 119//119 39//39 60//60
f 120//120 15//15 8//8
f 120//120 61//61 104//104
f 62//62 40//40 25//25
f 62//62 8//8 40//40
f 85//85 64//64 4//4
f 85//85 40//40 64//64
f 85//85 65//65 25//25
f 85//85 25//25 40//40
f 88//88 87//87 95//95
f 39//39 44//44 83//83
f 79//79 18//18 28//28
f 28//28 36//36 24//24
f 69//69 28//28 70//70
f 69//69 70//70 74//74
f 90//90 45//45 71//71
f 92//92 71//71 18//18
f 91//91 71//71 92//92
f 91//91 90//90 71//71
f 89//89 74//74 70//70
f 72//72 92//92 29//29
f 92//92 79//79 29//29
f 2//2 46//46 30//30
f 93//93 30//30 47//47
f 94//94 115//115 47//47
f 30//30 93//93 115//115
f 2//2 91//91 72//72
f 96//96 68//68 39//39
f 97//97 68//68 117//117
f 98//98 74//74 89//89
f 98//98 4//4 74//74
f 98//98 89//89 86//86
f 28//28 10//10 36//36
f 99//99 109//109 33//33
f 101//101 117//117 100//100
f 101//101 100//100 88//88
f 78//78 79//79 24//24
f 78//78 24//24 57//57
f 79//79 78//78 23//23
f 33//33 81//81 20//20
f 33//33 109//109 81//81
f 102//102 66//66 15//15
f 103//103 119//119 60//60
f 103//103 60//60 26//26
f 103//103 102//102 119//119
f 103//103 26//26 66//66
f 103//103 66//66 102//102
f 61//61 120//120 8//8
f 104//104 61//61 8//8
f 126//126 8//8 63//63
f 84//84 8//8 62//62
f 84//84 62//62 25//25
f 8//8 105//105 63//63
f 84//84 105//105 8//8
f 121//121 120//120 104//104
f 113//113 85//85 4//4
f 106//106 88//88 95//95
f 96//96 87//87 88//88
f 96//96 94//94 47//47
f 96//96 47//47 87//87
f 46//46 73//73 95//95
f 46//46 95//95 87//87
f 92//92 18//18 79//79
f 89//89 25//25 65//65
f 89//89 65//65 86//86
f 123//123 89//89 124//124
f 89//89 90//90 124//124
f 89//89 45//45 90//90
f 89//89 70//70 45//45
f 91//91 124//124 90//90
f 93//93 47//47 115//115
f 123//123 115//115 94//94
f 115//115 91//91 30//30
f 2//2 30//30 91//91
f 46//46 2//2 73//73
f 2//2 72//72 73//73
f 92//92 72//72 91//91
f 73//73 106//106 95//95
f 107//107 68//68 96//96
f 108//108 98//98 86//86
f 108//108 4//4 98//98
f 108//108 113//113 4//4
f 73//73 109//109 117//117
f 109//109 99//99 117//117
f 107//107 96//96 88//88
f 107//107 88//88 100//100
f 117//117 101//101 88//88
f 99//99 97//97 117//117
f 99//99 43//43 97//97
f 118//118 80//80 37//37
f 110//110 122//122 119//119
f 110//110 119//119 102//102
f 122//122 15//15 111//111
f 84//84 104//104 8//8
f 84//84 8//8 126//126
f 126//126 63//63 105//105
f 126//126 105//105 84//84
f 89//89 123//123 25//25
f 84//84 25//25 123//123
f 112//112 111//111 120//120
f 112//112 121//121 111//111
f 113//113 86//86 65//65
f 85//85 113//113 65//65
f 114//114 14//14 15//15
f 114//114 15//15 66//66
f 114//114 66//66 5//5
f 114//114 5//5 9//9
f 114//114 9//9 54//54
f 114//114 54//54 38//38
f 114//114 38//38 22//22
f 114//114 22//22 34//34
f 114//114 34//34 3//3
f 114//114 3//3 50//50
f 114//114 50//50 19//19
f 114//114 19//19 48//48
f 114//114 48//48 4//4
f 114//114 4//4 64//64
f 114//114 64//64 14//14
f 72//72 29//29 73//73
f 73//73 29//29 109//109
f 79//79 23//23 55//55
f 69//69 10//10 28//28
f 123//123 124//124 115//115
f 125//125 84//84 123//123
f 117//117 88//88 106//106
f 117//117 106//106 73//73
f 127//127 29//29 79//79
f 113//113 108//108 86//86
f 82//82 7//7 59//59
f 109//109 29//29 127//127
f 109//109 127//127 37//37
f 127//127 118//118 37//37
f 96//96 39//39 116//116
f 15//15 110//110 102//102
f 15//15 122//122 110//110
f 119//119 116//116 39//39
f 120//120 111//111 15//15
f 121//121 104//104 84//84
f 121//121 84//84 125//125
f 122//122 125//125 116//116
f 116//116 119//119 122//122
f 125//125 122//122 111//111
f 125//125 111//111 121//121
f 120//120 121//121 112//112
f 7//7 79//79 55//55
f 7//7 55//55 77//77
f 7//7 77//77 56//56
f 124//124 91//91 115//115
f 123//123 94//94 116//116
f 123//123 116//116 125//125
f 82//82 127//127 7//7
f 127//127 82//82 118//118
f 96//96 116//116 94//94
f 79//79 7//7 127//127
# 250 faces, 0 coords texture

# End of File
