####
#
# OBJ File Generated by Meshlab
#
####
# Object pop_secret_light_butter_250_collision.obj
#
# Vertices: 127
# Faces: 250
#
####
vn -0.263148 0.611315 0.746356
v 0.003130 -0.092190 0.003556
vn -0.207311 0.094114 0.973738
v 0.002288 -0.062615 -0.002464
vn 0.956965 -0.267412 0.112734
v -0.023758 0.006297 0.012261
vn -0.169295 0.042446 0.984651
v 0.012938 -0.018001 -0.002587
vn -0.964544 0.261516 0.035546
v 0.026346 -0.037889 0.063333
vn 0.036288 -0.006561 0.999320
v 0.001051 0.001426 -0.003547
vn 0.275740 -0.078446 0.958026
v -0.008814 0.015604 -0.001830
vn -0.374844 -0.926856 0.020722
v 0.039145 0.062301 0.064633
vn 0.111487 0.981849 -0.153440
v -0.000630 -0.097451 0.097053
vn -0.139013 0.027371 -0.989912
v 0.010422 -0.051069 0.114303
vn 0.506538 -0.860326 0.057087
v -0.000289 0.069718 0.059239
vn 0.463376 0.506937 0.726841
v -0.038627 -0.081811 0.003484
vn 0.088310 0.458421 0.884337
v -0.008404 -0.087343 0.000655
vn -0.063494 0.144212 0.987508
v -0.005518 -0.072607 -0.002536
vn 0.151020 0.110309 0.982357
v -0.025928 -0.070032 -0.001576
vn 0.612101 -0.037646 0.789883
v -0.040824 -0.068643 0.002232
vn 0.256725 -0.050689 0.965154
v -0.027931 -0.047069 -0.001204
vn 0.045545 0.017290 0.998813
v -0.011162 -0.052933 -0.003439
vn 0.122793 -0.029675 0.991989
v -0.016018 -0.036254 -0.002908
vn 0.011480 -0.004776 0.999923
v 0.000770 -0.015956 -0.003589
vn 0.005185 0.999897 0.013380
v -0.002353 -0.096579 0.043366
vn 0.960383 0.162405 0.226469
v -0.048605 -0.075132 0.014550
vn 0.543029 0.828617 0.136064
v -0.041855 -0.084606 0.014014
vn 0.402664 0.915326 -0.006357
v -0.038165 -0.086187 0.040727
vn 0.225828 0.874826 0.428580
v -0.018605 -0.091115 0.007715
vn 0.030958 0.994186 0.103133
v -0.003312 -0.096531 0.016842
vn 0.772642 0.634586 -0.018003
v -0.043643 -0.081924 0.049005
vn 0.546194 0.837627 -0.007237
v -0.040137 -0.084791 0.066890
vn 0.996531 0.082478 -0.011121
v -0.048174 -0.072621 0.061240
vn 0.915112 -0.249906 0.316412
v -0.038539 -0.044395 0.008587
vn 0.639156 -0.192668 0.744553
v -0.030530 -0.030220 0.002313
vn 0.929043 -0.283532 0.237674
v -0.033732 -0.025166 0.009922
vn 0.992550 0.120606 -0.017281
v -0.048379 -0.074425 0.043993
vn 0.956180 -0.292695 0.007016
v -0.038067 -0.041191 0.032521
vn 0.831689 0.555016 -0.015861
v -0.044673 -0.080209 0.080464
vn 0.951371 0.082745 -0.296726
v -0.047300 -0.073059 0.102279
vn 0.303298 0.952784 -0.014561
v -0.018666 -0.092113 0.073945
vn 0.588345 0.755186 -0.289040
v -0.040643 -0.084533 0.105156
vn 0.251085 0.833492 -0.492187
v -0.015442 -0.091915 0.105416
vn 0.405341 0.209810 -0.889763
v -0.036196 -0.077318 0.112316
vn 0.954600 -0.297268 -0.019252
v -0.041121 -0.049081 0.073445
vn 0.953079 -0.302719 -0.001154
v -0.029136 -0.012119 0.065223
vn 0.948202 -0.304686 -0.089885
v -0.031387 -0.020791 0.096143
vn 0.812337 -0.248879 -0.527416
v -0.040126 -0.051345 0.105758
vn 0.798791 -0.253862 -0.545424
v -0.029307 -0.021224 0.105712
vn 0.131722 0.227180 -0.964903
v -0.016902 -0.080471 0.113837
vn 0.242111 -0.093235 -0.965759
v -0.025544 -0.032860 0.109785
vn 0.254927 -0.071480 0.964315
v -0.013652 -0.009573 -0.001757
vn 0.693331 -0.197327 0.693075
v -0.023012 -0.003910 0.003208
vn 0.764278 -0.216819 0.607346
v -0.013359 0.040764 0.004368
vn 0.382470 -0.334500 0.861294
v -0.004013 0.059208 0.002051
vn 0.960241 -0.278313 0.021873
v -0.010623 0.055895 0.017598
vn 0.964356 -0.264474 -0.008393
v -0.016470 0.034499 0.037565
vn 0.960924 -0.276370 -0.015635
v -0.023463 0.005068 0.029384
vn 0.960311 -0.278093 -0.021623
v -0.014211 0.039611 0.062568
vn 0.762824 -0.567677 0.309584
v -0.007863 0.063566 0.008664
vn 0.138748 -0.764120 0.629976
v 0.001917 0.067117 0.004817
vn 0.856037 -0.516633 -0.017054
v -0.007191 0.064200 0.044923
vn 0.959549 -0.281288 -0.011974
v -0.011704 0.049638 0.034823
vn 0.960163 -0.278914 -0.017153
v -0.021724 0.011560 0.076223
vn 0.287713 -0.084268 -0.954002
v -0.012711 0.013689 0.110677
vn 0.953899 -0.284810 -0.094659
v -0.019094 0.018221 0.095878
vn 0.857061 -0.257669 -0.446153
v -0.013451 0.032830 0.104458
vn 0.908600 -0.415675 -0.040756
v -0.008199 0.060790 0.077489
vn 0.729091 -0.565291 -0.385841
v -0.005565 0.064880 0.102268
vn -0.867877 0.414728 0.273477
v 0.010479 -0.088690 0.008069
vn -0.674263 0.220421 0.704829
v 0.012747 -0.070489 0.002981
vn -0.640517 0.174556 0.747843
v 0.018956 -0.040400 0.000868
vn -0.565965 0.813776 0.132111
v 0.007269 -0.093285 0.011831
vn -0.560717 0.827816 0.017828
v 0.006744 -0.093838 0.046385
vn -0.903423 0.428385 0.017711
v 0.011323 -0.087977 0.049839
vn -0.962943 0.268465 0.025842
v 0.013862 -0.077546 0.029012
vn -0.951379 0.252555 0.176332
v 0.016289 -0.066925 0.010130
vn -0.961237 0.275303 0.015245
v 0.024670 -0.038567 0.019000
vn -0.960273 0.277360 0.030780
v 0.017502 -0.068476 0.057132
vn -0.962893 0.268470 0.027591
v 0.022958 -0.044688 0.031025
vn -0.960117 0.278269 0.027240
v 0.032374 -0.011768 0.044931
vn -0.860861 0.486121 -0.150348
v 0.011955 -0.089442 0.101808
vn -0.414773 0.898733 -0.142273
v 0.006137 -0.096074 0.100946
vn -0.278193 0.615299 -0.737574
v 0.003497 -0.091255 0.113601
vn -0.841187 0.254593 -0.477061
v 0.021073 -0.057609 0.106071
vn -0.957878 0.287132 0.004973
v 0.017266 -0.071975 0.087960
vn -0.953875 0.274928 -0.120570
v 0.029461 -0.030027 0.101937
vn -0.372444 0.094644 0.923216
v 0.023643 -0.010863 -0.000165
vn -0.135562 0.030245 0.990307
v 0.017572 0.012109 -0.003207
vn -0.031457 -0.022539 0.999251
v 0.013040 0.027236 -0.003524
vn 0.159186 -0.121597 0.979732
v 0.004031 0.045516 -0.002147
vn -0.354213 0.072580 0.932344
v 0.030423 0.021643 -0.001169
vn -0.754872 0.215571 0.619434
v 0.033123 0.000956 0.004315
vn -0.296646 0.020755 0.954762
v 0.030743 0.031171 -0.001482
vn -0.747736 0.175603 0.640355
v 0.042433 0.029051 0.005364
vn -0.077079 -0.106285 0.991344
v 0.025024 0.047466 -0.001702
vn -0.043190 -0.425558 0.903900
v 0.013172 0.060487 0.000267
vn -0.267150 -0.316859 0.910072
v 0.035905 0.053567 0.000547
vn -0.688962 -0.213735 0.692566
v 0.045611 0.050623 0.004261
vn -0.938669 0.274891 0.208171
v 0.030365 -0.017499 0.011181
vn -0.940015 0.293190 0.174389
v 0.043220 0.024394 0.011639
vn -0.952995 0.302186 0.021997
v 0.039744 0.013894 0.026910
vn -0.983010 0.030079 0.181072
v 0.050344 0.047342 0.014818
vn -0.949960 0.310553 0.033650
v 0.039945 0.011028 0.051023
vn -0.948131 0.316414 0.030477
v 0.045627 0.027830 0.051850
vn 0.109820 -0.987843 0.110028
v 0.001791 0.071229 0.015245
vn -0.785881 -0.586174 0.196957
v 0.047728 0.054312 0.012441
vn -0.382132 -0.808728 0.447139
v 0.038551 0.059793 0.007175
vn -0.478811 -0.877172 0.036183
v 0.044056 0.058949 0.039585
vn -0.184226 -0.974824 0.125612
v 0.019272 0.066388 0.042273
vn 0.032535 -0.974116 0.223695
v 0.005481 0.070313 0.051368
vn -0.884803 -0.464966 0.030500
v 0.049240 0.054633 0.051037
vn -0.958202 0.283722 0.036736
v 0.034999 -0.007225 0.081005
vn -0.995570 0.091347 0.022285
v 0.051782 0.044978 0.070195
vn 0.061742 -0.028821 -0.997676
v -0.004120 -0.010412 0.110131
vn -0.899442 0.274771 -0.339860
v 0.039690 0.004042 0.105487
vn -0.512469 0.143028 -0.846710
v 0.026549 -0.018347 0.113680
vn -0.951475 0.306681 0.025343
v 0.045370 0.024820 0.086835
vn -0.250618 0.088820 -0.964003
v 0.036371 0.021396 0.112266
vn -0.262539 -0.964792 0.015785
v 0.012138 0.069352 0.078489
vn -0.702135 -0.711924 -0.013112
v 0.048496 0.056578 0.086767
vn -0.953287 -0.300965 -0.025763
v 0.051600 0.051185 0.084955
vn -0.359837 -0.889276 -0.282321
v 0.042284 0.060685 0.099428
vn -0.083345 -0.996280 0.021885
v 0.006713 0.070692 0.071385
vn 0.406047 -0.120773 -0.905837
v -0.003083 0.044958 0.110202
vn -0.044939 -0.271053 -0.961515
v 0.021762 0.056361 0.110198
vn 0.086410 -0.536165 -0.839679
v 0.005622 0.064150 0.111736
vn -0.926424 0.093367 -0.364720
v 0.051610 0.043404 0.106699
vn -0.357831 -0.074422 -0.930816
v 0.044283 0.043439 0.113762
vn -0.650820 -0.601847 -0.462832
v 0.047146 0.055994 0.108097
vn 0.027593 -0.983921 -0.176458
v 0.005763 0.071333 0.099772
# 127 vertices, 0 vertices normals

f 12//12 13//13 15//15
f 15//15 16//16 12//12
f 25//25 13//13 12//12
f 13//13 25//25 1//1
f 13//13 1//1 14//14
f 15//15 13//13 14//14
f 15//15 17//17 16//16
f 30//30 16//16 31//31
f 16//16 17//17 31//31
f 18//18 15//15 14//14
f 18//18 19//19 17//17
f 17//17 15//15 18//18
f 2//2 18//18 14//14
f 20//20 19//19 18//18
f 18//18 2//2 20//20
f 32//32 30//30 31//31
f 17//17 19//19 48//48
f 17//17 48//48 31//31
f 31//31 48//48 49//49
f 48//48 19//19 20//20
f 23//23 25//25 12//12
f 23//23 12//12 22//22
f 16//16 22//22 12//12
f 26//26 23//23 24//24
f 26//26 25//25 23//23
f 25//25 26//26 1//1
f 24//24 23//23 27//27
f 27//27 28//28 24//24
f 27//27 23//23 22//22
f 27//27 22//22 33//33
f 28//28 27//27 35//35
f 28//28 37//37 24//24
f 27//27 33//33 29//29
f 35//35 27//27 29//29
f 21//21 26//26 24//24
f 21//21 24//24 37//37
f 16//16 30//30 22//22
f 34//34 22//22 30//30
f 34//34 33//33 22//22
f 34//34 30//30 32//32
f 49//49 32//32 31//31
f 3//3 32//32 49//49
f 34//34 32//32 54//54
f 33//33 34//34 29//29
f 29//29 34//34 41//41
f 9//9 21//21 37//37
f 35//35 29//29 36//36
f 35//35 38//38 28//28
f 80//80 9//9 39//39
f 37//37 28//28 38//38
f 38//38 39//39 37//37
f 38//38 35//35 36//36
f 39//39 38//38 40//40
f 38//38 36//36 40//40
f 44//44 40//40 36//36
f 9//9 37//37 39//39
f 40//40 46//46 39//39
f 39//39 46//46 80//80
f 80//80 46//46 10//10
f 36//36 29//29 41//41
f 41//41 34//34 42//42
f 44//44 41//41 43//43
f 42//42 43//43 41//41
f 60//60 43//43 42//42
f 36//36 41//41 44//44
f 47//47 40//40 44//44
f 47//47 46//46 40//40
f 10//10 46//46 47//47
f 45//45 44//44 43//43
f 47//47 44//44 45//45
f 111//111 10//10 47//47
f 111//111 47//47 61//61
f 61//61 47//47 45//45
f 48//48 20//20 6//6
f 49//49 48//48 7//7
f 7//7 48//48 6//6
f 50//50 49//49 7//7
f 7//7 87//87 50//50
f 51//51 50//50 87//87
f 50//50 51//51 56//56
f 56//56 51//51 57//57
f 3//3 54//54 32//32
f 50//50 3//3 49//49
f 50//50 52//52 3//3
f 53//53 54//54 3//3
f 3//3 52//52 59//59
f 59//59 53//53 3//3
f 34//34 54//54 42//42
f 60//60 42//42 54//54
f 53//53 60//60 54//54
f 53//53 59//59 55//55
f 60//60 53//53 55//55
f 50//50 56//56 52//52
f 56//56 57//57 102//102
f 58//58 52//52 56//56
f 102//102 58//58 56//56
f 58//58 102//102 11//11
f 59//59 52//52 58//58
f 55//55 59//59 58//58
f 62//62 60//60 55//55
f 62//62 43//43 60//60
f 43//43 62//62 45//45
f 45//45 62//62 63//63
f 63//63 61//61 45//45
f 62//62 55//55 64//64
f 62//62 64//64 63//63
f 63//63 121//121 61//61
f 121//121 63//63 65//65
f 64//64 55//55 58//58
f 11//11 64//64 58//58
f 64//64 11//11 65//65
f 65//65 63//63 64//64
f 65//65 11//11 127//127
f 65//65 127//127 123//123
f 121//121 65//65 123//123
f 66//66 67//67 1//1
f 2//2 14//14 1//1
f 67//67 2//2 1//1
f 68//68 2//2 67//67
f 4//4 20//20 2//2
f 4//4 2//2 68//68
f 68//68 84//84 4//4
f 68//68 89//89 84//84
f 21//21 70//70 26//26
f 66//66 1//1 69//69
f 69//69 1//1 26//26
f 26//26 70//70 69//69
f 66//66 73//73 67//67
f 73//73 66//66 72//72
f 69//69 71//71 66//66
f 72//72 66//66 71//71
f 71//71 69//69 70//70
f 75//75 72//72 71//71
f 79//79 21//21 9//9
f 70//70 21//21 79//79
f 74//74 73//73 76//76
f 76//76 73//73 72//72
f 68//68 67//67 73//73
f 74//74 96//96 73//73
f 96//96 68//68 73//73
f 89//89 68//68 96//96
f 77//77 74//74 76//76
f 98//98 96//96 74//74
f 98//98 74//74 77//77
f 75//75 76//76 72//72
f 75//75 5//5 76//76
f 77//77 76//76 5//5
f 70//70 78//78 71//71
f 82//82 75//75 71//71
f 82//82 71//71 78//78
f 78//78 70//70 79//79
f 80//80 79//79 9//9
f 78//78 81//81 82//82
f 80//80 78//78 79//79
f 81//81 78//78 80//80
f 82//82 83//83 75//75
f 5//5 75//75 83//83
f 109//109 77//77 5//5
f 81//81 83//83 82//82
f 81//81 80//80 10//10
f 113//113 83//83 81//81
f 109//109 5//5 83//83
f 10//10 113//113 81//81
f 113//113 10//10 111//111
f 112//112 83//83 113//113
f 4//4 6//6 20//20
f 6//6 4//4 85//85
f 85//85 86//86 6//6
f 84//84 88//88 85//85
f 84//84 85//85 4//4
f 88//88 84//84 89//89
f 86//86 7//7 6//6
f 86//86 85//85 88//88
f 86//86 88//88 90//90
f 86//86 87//87 7//7
f 92//92 87//87 86//86
f 90//90 92//92 86//86
f 92//92 90//90 94//94
f 89//89 91//91 88//88
f 91//91 95//95 90//90
f 90//90 88//88 91//91
f 87//87 92//92 93//93
f 87//87 93//93 51//51
f 94//94 93//93 92//92
f 93//93 57//57 51//51
f 57//57 93//93 104//104
f 90//90 95//95 94//94
f 104//104 93//93 94//94
f 94//94 95//95 104//104
f 96//96 97//97 89//89
f 97//97 96//96 98//98
f 100//100 98//98 77//77
f 91//91 89//89 97//97
f 97//97 99//99 91//91
f 91//91 99//99 95//95
f 97//97 98//98 101//101
f 101//101 98//98 100//100
f 99//99 97//97 101//101
f 99//99 101//101 110//110
f 57//57 104//104 102//102
f 105//105 106//106 102//102
f 103//103 95//95 99//99
f 105//105 102//102 104//104
f 104//104 95//95 103//103
f 108//108 105//105 103//103
f 105//105 104//104 103//103
f 116//116 107//107 106//106
f 106//106 8//8 116//116
f 99//99 108//108 103//103
f 106//106 105//105 8//8
f 108//108 99//99 110//110
f 117//117 105//105 108//108
f 11//11 102//102 106//106
f 11//11 106//106 107//107
f 109//109 100//100 77//77
f 114//114 109//109 112//112
f 114//114 100//100 109//109
f 100//100 114//114 101//101
f 114//114 110//110 101//101
f 115//115 113//113 111//111
f 115//115 111//111 61//61
f 109//109 83//83 112//112
f 113//113 115//115 112//112
f 115//115 61//61 122//122
f 122//122 61//61 121//121
f 114//114 112//112 124//124
f 114//114 124//124 110//110
f 112//112 115//115 124//124
f 122//122 125//125 115//115
f 124//124 115//115 125//125
f 116//116 120//120 107//107
f 119//119 116//116 8//8
f 108//108 110//110 118//118
f 117//117 108//108 118//118
f 8//8 105//105 117//117
f 11//11 107//107 120//120
f 11//11 120//120 127//127
f 127//127 120//120 116//116
f 119//119 127//127 116//116
f 122//122 121//121 123//123
f 127//127 119//119 123//123
f 126//126 122//122 119//119
f 122//122 123//123 119//119
f 118//118 110//110 124//124
f 126//126 117//117 118//118
f 124//124 126//126 118//118
f 8//8 117//117 119//119
f 117//117 126//126 119//119
f 126//126 125//125 122//122
f 124//124 125//125 126//126
# 250 faces, 0 coords texture

# End of File
