####
#
# OBJ File Generated by Meshlab
#
####
# Object pop_secret_light_butter_250_collision.obj
#
# Vertices: 127
# Faces: 250
#
####
vn 0.791776 -0.356609 -0.495904
v 0.009572 -0.088154 0.006362
vn 0.283327 -0.080180 -0.955666
v 0.014841 -0.054865 0.001398
vn -0.665906 0.337386 -0.665387
v -0.006114 0.061217 0.004583
vn 0.905455 -0.208754 0.369558
v 0.051458 0.042504 0.105905
vn 0.959168 -0.263161 -0.103644
v 0.011358 -0.087075 0.013034
vn -0.960585 0.275884 -0.034133
v -0.040735 -0.047168 0.019575
vn -0.893753 0.341428 -0.290916
v -0.009385 0.059076 0.009317
vn -0.908298 0.239903 0.342698
v -0.045526 -0.068438 0.104417
vn -0.949671 0.311227 0.035535
v -0.008833 0.059076 0.078514
vn 0.785345 -0.619045 -0.004005
v 0.009731 -0.092562 0.095746
vn 0.951093 -0.308348 -0.018521
v 0.014119 -0.083147 0.075086
vn -0.133410 0.967885 0.213075
v 0.004206 0.070799 0.103577
vn -0.968243 0.201869 -0.147491
v -0.047192 -0.070532 0.013554
vn -0.962885 0.269854 0.005576
v -0.046369 -0.065225 0.054467
vn -0.196957 0.054350 -0.978905
v -0.033605 -0.047633 0.001311
vn 0.198100 -0.979130 -0.045401
v 0.001439 -0.096220 0.016693
vn 0.481562 0.806257 0.343581
v 0.044832 0.058902 0.103115
vn 0.550864 0.181213 0.814684
v 0.047644 0.048200 0.112156
vn 0.070005 -0.033799 0.996974
v -0.000945 -0.074915 0.115717
vn 0.938478 -0.342717 -0.042469
v 0.051800 0.050404 0.017813
vn 0.392598 0.919668 -0.008829
v 0.041511 0.061407 0.072847
vn 0.531235 0.845073 0.060347
v 0.044151 0.059853 0.097574
vn 0.253363 0.966779 -0.033853
v 0.011024 0.068867 0.018221
vn -0.935428 0.349729 -0.051606
v -0.008945 0.062233 0.012686
vn 0.099393 0.936783 -0.335499
v 0.006129 0.069102 0.009505
vn -0.772557 -0.014491 -0.634781
v -0.043072 -0.075092 0.004365
vn -0.053069 -0.236892 -0.970086
v -0.016767 -0.086450 0.001464
vn -0.204272 -0.848285 -0.488554
v -0.018387 -0.090197 0.005669
vn -0.984037 0.177791 0.007843
v -0.047168 -0.068788 0.073304
vn -0.943192 0.331783 0.017560
v -0.009320 0.059847 0.044051
vn 0.073744 0.235763 -0.969009
v 0.022764 0.059185 0.001370
vn -0.919402 0.193226 -0.342585
v -0.044009 -0.062280 0.009552
vn 0.658903 -0.750783 -0.046609
v 0.008003 -0.092662 0.016480
vn 0.681133 -0.346446 0.645006
v 0.008308 -0.088425 0.109993
vn -0.728459 0.310375 0.610750
v -0.006054 0.060799 0.103050
vn -0.248387 -0.340523 0.906834
v -0.033357 -0.076774 0.113034
vn -0.290419 -0.956895 0.002888
v -0.005874 -0.096297 0.095746
vn -0.469191 -0.881854 -0.046826
v -0.040290 -0.084997 0.017265
vn 0.421198 -0.123120 0.898573
v 0.026978 -0.015882 0.113331
vn 0.384154 -0.122965 0.915044
v 0.016879 -0.045553 0.113844
vn 0.582915 -0.807468 0.090586
v 0.007772 -0.094711 0.100148
vn 0.793727 -0.571762 0.207573
v 0.011300 -0.090355 0.102349
vn 0.970852 -0.233217 0.055290
v 0.052349 0.043374 0.102042
vn 0.456574 0.815394 -0.355911
v 0.042692 0.059067 0.008057
vn 0.098575 0.987634 -0.121909
v 0.004112 0.070319 0.012721
vn -0.298500 0.904177 -0.305550
v -0.001995 0.069172 0.011961
vn -0.837143 0.191197 -0.512479
v -0.043783 -0.064992 0.007081
vn -0.973696 -0.057476 -0.220483
v -0.047962 -0.075179 0.014431
vn -0.905421 0.009784 -0.424403
v -0.045506 -0.073644 0.007736
vn -0.932463 -0.348134 0.096515
v -0.045426 -0.078581 0.101391
vn -0.958935 0.283130 0.016728
v -0.043058 -0.054653 0.075068
vn 0.278174 -0.071648 -0.957855
v 0.035482 0.021166 0.001500
vn -0.794009 0.226023 -0.564325
v -0.011201 0.046842 0.005059
vn 0.930465 -0.309758 -0.195666
v 0.011358 -0.085696 0.009557
vn 0.320073 -0.887255 -0.332161
v 0.003280 -0.095168 0.009135
vn 0.411082 -0.223002 -0.883901
v 0.006695 -0.083941 0.001570
vn 0.182115 -0.982076 0.048593
v 0.001019 -0.097562 0.095746
vn -0.995247 -0.047285 0.085128
v -0.047197 -0.072573 0.099496
vn -0.912657 0.343534 0.221451
v -0.006718 0.060799 0.100915
vn -0.955611 0.290553 0.048847
v -0.039609 -0.045660 0.098188
vn -0.690541 0.592850 0.414346
v -0.003270 0.067014 0.101523
vn -0.601954 0.798343 0.017291
v -0.002553 0.068141 0.084004
vn -0.345378 -0.914810 -0.209374
v -0.030446 -0.088684 0.011937
vn -0.746037 -0.556821 -0.365212
v -0.045260 -0.080602 0.010429
vn -0.104666 0.147265 0.983544
v 0.006339 0.059503 0.111595
vn 0.819902 0.123798 -0.558959
v 0.047297 0.051776 0.006518
vn 0.915682 0.400727 -0.030713
v 0.050659 0.052336 0.057611
vn 0.728322 -0.208978 -0.652591
v 0.014804 -0.063269 0.003551
vn 0.838581 -0.190842 -0.510256
v 0.045136 0.037938 0.006199
vn 0.436040 -0.899675 -0.021312
v 0.004610 -0.095674 0.040636
vn -0.962620 0.269126 -0.030576
v 0.048985 0.040121 0.019927
vn 0.944678 -0.012803 -0.327750
v 0.050057 0.044168 0.016765
vn 0.286217 0.957992 -0.018208
v 0.038060 0.062277 0.057836
vn -0.700768 0.663185 -0.262889
v -0.006137 0.066071 0.010555
vn -0.852549 0.522159 0.022584
v -0.007327 0.062712 0.082499
vn -0.243267 0.562157 -0.790443
v 0.000167 0.063099 0.002004
vn -0.356592 0.122286 -0.926223
v -0.009465 0.038293 0.001340
vn -0.727260 0.196105 -0.657751
v -0.035837 -0.046502 0.003085
vn 0.166246 -0.599399 -0.782997
v 0.001731 -0.089646 0.002142
vn -0.965958 0.235767 0.106483
v -0.046800 -0.069596 0.100000
vn -0.748433 0.282926 0.599834
v -0.004512 0.059076 0.106084
vn -0.867513 -0.490126 -0.084843
v -0.046997 -0.078482 0.013342
vn 0.921610 -0.264924 -0.283638
v 0.045048 0.032231 0.009946
vn 0.412900 0.284065 -0.865344
v 0.042209 0.051953 0.002270
vn 0.983414 -0.179021 -0.029141
v 0.050981 0.043614 0.044469
vn 0.985549 0.134427 -0.103063
v 0.050374 0.048156 0.016867
vn 0.300793 0.950423 -0.078859
v 0.039038 0.060844 0.014031
vn 0.811809 0.578165 0.081802
v 0.051796 0.052174 0.098938
vn -0.358462 0.053642 -0.932002
v -0.037120 -0.058917 0.001441
vn 0.045934 0.804052 -0.592782
v 0.008565 0.067039 0.005704
vn 0.628663 -0.146100 -0.763831
v 0.039227 0.027066 0.002824
vn -0.852913 0.267307 -0.448428
v -0.009754 0.053983 0.006034
vn 0.749971 -0.211565 0.626725
v 0.048126 0.036211 0.108638
vn -0.551496 -0.829207 0.090929
v -0.040657 -0.084394 0.101533
vn -0.867345 -0.000266 0.497708
v -0.045757 -0.073872 0.106414
vn -0.753305 0.212690 0.622330
v -0.043783 -0.068438 0.107281
vn -0.753022 0.241951 0.611896
v -0.025303 -0.004629 0.105246
vn -0.954893 0.210612 0.209336
v -0.045755 -0.067576 0.102550
vn -0.919294 0.383261 0.089493
v -0.006802 0.062579 0.096894
vn -0.343513 0.227551 0.911164
v 0.002582 0.060196 0.110674
vn -0.469403 0.095374 0.877818
v -0.039476 -0.070161 0.110546
vn -0.327922 -0.944704 -0.001363
v -0.032467 -0.088075 0.036663
vn -0.096845 -0.986403 -0.132779
v -0.002497 -0.096255 0.013986
vn 0.104208 0.138195 0.984908
v 0.042899 0.046867 0.113077
vn 0.599654 0.800130 -0.014412
v 0.045586 0.058894 0.067313
vn 0.408666 -0.065372 -0.910340
v 0.039374 0.034567 0.001665
vn 0.927446 -0.346794 0.139923
v 0.013542 -0.085800 0.101521
vn 0.252090 0.966754 0.042870
v 0.013798 0.069483 0.096056
vn -0.347429 -0.521784 -0.779124
v -0.035244 -0.080421 0.001830
vn -0.972084 0.234324 -0.012040
v -0.046899 -0.067114 0.033754
vn 0.856960 -0.490687 -0.157627
v 0.010442 -0.089118 0.008455
vn -0.353723 -0.934281 0.044713
v -0.037036 -0.086438 0.097480
vn 0.861194 -0.267873 0.431960
v 0.014804 -0.077044 0.106079
vn -0.572224 0.149366 0.806380
v -0.042648 -0.068438 0.108279
vn -0.108040 -0.124913 0.986268
v -0.023724 -0.078284 0.114318
vn -0.251642 -0.962517 -0.101184
v -0.012465 -0.094003 0.014740
vn 0.967571 0.168273 0.188390
v 0.052917 0.048475 0.104823
vn -0.389183 -0.085009 0.917229
v -0.036364 -0.075276 0.112264
vn -0.115546 0.572722 0.811565
v 0.006686 0.067409 0.108368
vn 0.811471 0.573397 -0.112828
v 0.046461 0.056139 0.011222
vn 0.745063 0.666709 0.019472
v 0.049404 0.055810 0.093161
vn 0.133901 -0.339638 0.930976
v 0.001309 -0.088934 0.114168
vn 0.201654 -0.825882 0.526549
v 0.001738 -0.094904 0.109860
vn -0.421354 0.131600 0.897297
v -0.015915 0.008431 0.109908
vn -0.586133 -0.666875 0.460138
v -0.042723 -0.082416 0.105314
vn -0.203068 -0.970551 0.129589
v -0.002196 -0.097361 0.100022
vn -0.568741 0.350634 0.744035
v -0.002052 0.060859 0.107716
# 127 vertices, 0 vertices normals

f 20//20 5//5 54//54
f 85//85 11//11 5//5
f 7//7 32//32 13//13
f 32//32 7//7 92//92
f 1//1 54//54 5//5
f 56//56 27//27 2//2
f 116//116 126//126 37//37
f 72//72 69//69 66//66
f 111//111 5//5 107//107
f 111//111 1//1 5//5
f 41//41 33//33 10//10
f 42//42 111//111 107//107
f 42//42 10//10 111//111
f 11//11 85//85 43//43
f 72//72 85//85 5//5
f 11//11 107//107 5//5
f 46//46 74//74 62//62
f 45//45 87//87 25//25
f 45//45 23//23 87//87
f 47//47 32//32 92//92
f 89//89 26//26 78//78
f 109//109 26//26 89//89
f 49//49 32//32 47//47
f 24//24 13//13 6//6
f 24//24 110//110 14//14
f 24//24 7//7 13//13
f 24//24 74//74 7//7
f 51//51 80//80 9//9
f 51//51 9//9 30//30
f 75//75 30//30 9//9
f 75//75 24//24 30//30
f 15//15 31//31 2//2
f 15//15 77//77 31//31
f 15//15 2//2 27//27
f 15//15 27//27 89//89
f 76//76 31//31 77//77
f 44//44 84//84 31//31
f 52//52 31//31 106//106
f 52//52 2//2 31//31
f 3//3 7//7 74//74
f 53//53 3//3 78//78
f 77//77 3//3 76//76
f 77//77 15//15 78//78
f 53//53 78//78 26//26
f 53//53 26//26 47//47
f 79//79 27//27 56//56
f 57//57 103//103 16//16
f 57//57 126//126 103//103
f 93//93 113//113 4//4
f 8//8 95//95 97//97
f 8//8 97//97 35//35
f 97//97 61//61 35//35
f 59//59 98//98 8//8
f 60//60 9//9 80//80
f 102//102 63//63 37//37
f 86//86 66//66 120//120
f 44//44 25//25 87//87
f 83//83 20//20 54//54
f 72//72 20//20 83//83
f 83//83 1//1 69//69
f 83//83 54//54 1//1
f 84//84 106//106 31//31
f 33//33 111//111 10//10
f 111//111 55//55 1//1
f 70//70 33//33 41//41
f 42//42 41//41 10//10
f 117//117 43//43 85//85
f 72//72 86//86 85//85
f 71//71 72//72 5//5
f 71//71 5//5 20//20
f 72//72 71//71 20//20
f 72//72 66//66 86//86
f 107//107 11//11 43//43
f 21//21 108//108 22//22
f 87//87 73//73 21//21
f 87//87 23//23 73//73
f 73//73 108//108 21//21
f 17//17 22//22 108//108
f 24//24 51//51 30//30
f 24//24 14//14 51//51
f 25//25 90//90 46//46
f 76//76 46//46 90//90
f 76//76 74//74 46//46
f 26//26 49//49 47//47
f 89//89 78//78 15//15
f 29//29 51//51 14//14
f 29//29 80//80 51//51
f 48//48 13//13 32//32
f 48//48 32//32 49//49
f 125//125 50//50 82//82
f 6//6 110//110 24//24
f 91//91 2//2 52//52
f 106//106 91//91 52//52
f 92//92 7//7 3//3
f 92//92 3//3 53//53
f 92//92 53//53 47//47
f 79//79 56//56 1//1
f 55//55 16//16 103//103
f 123//123 126//126 57//57
f 126//126 112//112 37//37
f 4//4 107//107 43//43
f 58//58 29//29 48//48
f 95//95 80//80 58//58
f 80//80 29//29 58//58
f 95//95 8//8 98//98
f 35//35 59//59 8//8
f 80//80 59//59 99//99
f 60//60 99//99 9//9
f 102//102 37//37 112//112
f 126//126 116//116 103//103
f 116//116 37//37 63//63
f 102//102 38//38 63//63
f 102//102 112//112 38//38
f 117//117 67//67 88//88
f 65//65 104//104 119//119
f 19//19 65//65 115//115
f 121//121 88//88 67//67
f 72//72 83//83 69//69
f 91//91 106//106 66//66
f 91//91 66//66 69//69
f 1//1 56//56 68//68
f 1//1 68//68 69//69
f 84//84 66//66 106//106
f 2//2 68//68 56//56
f 111//111 33//33 55//55
f 70//70 55//55 33//33
f 117//117 4//4 43//43
f 67//67 86//86 120//120
f 86//86 67//67 117//117
f 117//117 85//85 86//86
f 105//105 21//21 22//22
f 105//105 44//44 21//21
f 87//87 21//21 44//44
f 108//108 45//45 12//12
f 12//12 46//46 62//62
f 61//61 12//12 62//62
f 90//90 25//25 44//44
f 3//3 74//74 76//76
f 109//109 89//89 27//27
f 64//64 26//26 109//109
f 28//28 27//27 79//79
f 28//28 79//79 55//55
f 27//27 28//28 109//109
f 110//110 13//13 29//29
f 26//26 64//64 49//49
f 99//99 75//75 9//9
f 74//74 75//75 62//62
f 74//74 24//24 75//75
f 3//3 77//77 78//78
f 55//55 79//79 1//1
f 123//123 57//57 41//41
f 34//34 93//93 39//39
f 34//34 107//107 4//4
f 34//34 4//4 113//113
f 48//48 50//50 58//58
f 14//14 110//110 29//29
f 96//96 97//97 95//95
f 58//58 50//50 95//95
f 97//97 81//81 61//61
f 97//97 96//96 81//81
f 98//98 59//59 80//80
f 80//80 95//95 98//98
f 99//99 60//60 80//80
f 61//61 62//62 75//75
f 64//64 63//63 38//38
f 63//63 64//64 109//109
f 104//104 65//65 19//19
f 18//18 119//119 104//104
f 18//18 39//39 93//93
f 40//40 34//34 39//39
f 122//122 40//40 19//19
f 39//39 19//19 40//40
f 39//39 104//104 19//19
f 39//39 18//18 104//104
f 66//66 84//84 44//44
f 66//66 44//44 120//120
f 120//120 121//121 67//67
f 91//91 69//69 68//68
f 91//91 68//68 2//2
f 70//70 41//41 57//57
f 105//105 22//22 121//121
f 108//108 73//73 23//23
f 108//108 23//23 45//45
f 12//12 17//17 108//108
f 25//25 46//46 45//45
f 46//46 12//12 45//45
f 28//28 55//55 103//103
f 28//28 63//63 109//109
f 28//28 103//103 116//116
f 13//13 48//48 29//29
f 48//48 49//49 64//64
f 110//110 6//6 13//13
f 82//82 50//50 48//48
f 44//44 31//31 90//90
f 16//16 55//55 70//70
f 16//16 70//70 57//57
f 34//34 122//122 123//123
f 126//126 94//94 112//112
f 18//18 4//4 117//117
f 38//38 112//112 94//94
f 126//126 123//123 125//125
f 61//61 59//59 35//35
f 127//127 61//61 81//81
f 114//114 96//96 95//95
f 114//114 127//127 81//81
f 114//114 81//81 96//96
f 61//61 75//75 99//99
f 63//63 28//28 116//116
f 94//94 82//82 64//64
f 94//94 64//64 38//38
f 119//119 100//100 65//65
f 118//118 36//36 65//65
f 115//115 65//65 36//36
f 100//100 118//118 65//65
f 17//17 119//119 18//18
f 18//18 93//93 4//4
f 120//120 44//44 105//105
f 121//121 120//120 105//105
f 41//41 42//42 123//123
f 42//42 107//107 34//34
f 17//17 117//117 88//88
f 88//88 121//121 22//22
f 88//88 22//22 17//17
f 48//48 64//64 82//82
f 90//90 31//31 76//76
f 34//34 123//123 42//42
f 122//122 34//34 40//40
f 94//94 126//126 125//125
f 124//124 127//127 114//114
f 127//127 124//124 100//100
f 124//124 101//101 100//100
f 100//100 119//119 127//127
f 36//36 122//122 115//115
f 125//125 123//123 36//36
f 125//125 82//82 94//94
f 12//12 119//119 17//17
f 17//17 18//18 117//117
f 119//119 61//61 127//127
f 34//34 113//113 93//93
f 36//36 123//123 122//122
f 99//99 59//59 61//61
f 118//118 100//100 101//101
f 95//95 118//118 101//101
f 125//125 36//36 118//118
f 95//95 101//101 124//124
f 95//95 124//124 114//114
f 122//122 19//19 115//115
f 119//119 12//12 61//61
f 125//125 95//95 50//50
f 118//118 95//95 125//125
# 250 faces, 0 coords texture

# End of File
