####
#
# OBJ File Generated by Meshlab
#
####
# Object vo5_extra_body_volumizing_shampoo_250_collision.obj
#
# Vertices: 127
# Faces: 250
#
####
vn -0.411459 -0.112971 -0.904400
v -0.016513 0.002059 0.007820
vn 0.742235 -0.632726 -0.220782
v 0.019569 -0.029354 0.017950
vn 0.843553 -0.526882 0.103991
v 0.019354 -0.017806 0.182265
vn 0.067172 0.858688 -0.508078
v 0.007276 0.035064 0.011906
vn -0.949204 -0.273456 -0.155671
v -0.021526 -0.009785 0.020378
vn -0.173381 -0.984367 0.030988
v 0.003512 -0.034961 0.097524
vn 0.364019 -0.412988 -0.834824
v 0.018567 -0.021526 0.011742
vn -0.561118 0.160032 -0.812119
v -0.016864 0.007828 0.007828
vn 0.111753 0.993735 0.001211
v 0.007357 0.038294 0.093974
vn -0.705933 -0.519288 -0.481662
v -0.008363 -0.023482 0.011743
vn 0.881284 -0.269296 -0.388353
v 0.025440 -0.007828 0.011915
vn 0.926203 -0.374909 0.039893
v 0.021341 -0.015656 0.166340
vn 0.914479 0.374338 -0.153623
v 0.026675 0.013699 0.027397
vn -0.856216 0.504416 -0.111619
v -0.017613 0.017612 0.016115
vn -0.194739 0.980207 -0.035658
v 0.002097 0.037435 0.051562
vn 0.144901 0.914924 0.376720
v 0.008743 0.024064 0.206303
vn -0.827956 -0.555727 -0.075208
v -0.019569 -0.013699 0.021389
vn -0.361298 -0.931831 -0.033989
v -0.000110 -0.033235 0.046936
vn -0.726603 -0.286239 -0.624592
v -0.015627 -0.005871 0.009785
vn -0.370228 -0.355930 -0.858047
v -0.007746 -0.021728 0.009801
vn -0.906402 -0.418389 0.058184
v -0.009715 -0.019569 0.144814
vn 0.370335 -0.181573 -0.910980
v 0.025440 0.000230 0.007828
vn 0.965043 -0.261953 0.008558
v 0.025732 -0.011742 0.045010
vn 0.889983 -0.454951 0.030826
v 0.018132 -0.027431 0.115735
vn 0.869128 0.457160 -0.188735
v 0.017457 0.029447 0.017485
vn 0.933013 0.358073 0.035650
v 0.021526 0.022089 0.144814
vn 0.409898 0.911617 -0.030613
v 0.013705 0.035665 0.038786
vn -0.361254 -0.788949 -0.497046
v -0.004234 -0.029354 0.013699
vn -0.988346 -0.127813 0.082675
v -0.010576 -0.004861 0.188233
vn 0.031992 -0.980668 -0.193046
v 0.007897 -0.033074 0.019872
vn 0.946344 -0.323147 -0.003025
v 0.023292 -0.019569 0.037182
vn 0.567378 -0.823292 0.016487
v 0.016305 -0.031813 0.057764
vn 0.564057 -0.775337 0.284063
v 0.014333 -0.018114 0.209305
vn 0.764981 -0.643085 0.035307
v 0.017612 -0.028245 0.115459
vn 0.726822 0.172217 -0.664884
v 0.025910 0.002192 0.007862
vn 0.839861 0.542277 -0.023831
v 0.021932 0.027397 0.048923
vn 0.920436 0.390729 -0.011367
v 0.023483 0.024579 0.048923
vn -0.853077 0.519797 0.045498
v -0.008095 0.028102 0.109470
vn -0.518413 0.715706 -0.467988
v -0.003602 0.030805 0.011646
vn 0.128757 0.990966 -0.037527
v 0.008930 0.037340 0.053794
vn 0.699585 0.663587 -0.265015
v 0.014685 0.033268 0.015656
vn -0.417973 0.908143 0.023972
v 0.000027 0.037089 0.097422
vn -0.120636 0.991583 0.047016
v 0.003829 0.037968 0.100819
vn 0.314029 -0.943993 0.101310
v 0.012177 -0.031261 0.135591
vn 0.925953 -0.376862 0.024227
v 0.021895 -0.019569 0.097847
vn 0.973944 -0.225320 0.025759
v 0.024560 -0.011742 0.093933
vn 0.991760 -0.122526 0.037407
v 0.024769 -0.000813 0.152385
vn 0.926942 0.117471 0.356341
v 0.021415 0.007628 0.212012
vn 0.610968 -0.787394 0.082028
v 0.014986 -0.029439 0.137845
vn 0.798272 -0.597636 0.074781
v 0.017657 -0.025533 0.148622
vn 0.980097 0.194888 -0.037794
v 0.029396 0.005834 0.026657
vn -0.809288 0.581545 0.082820
v -0.005750 0.026780 0.153407
vn -0.753256 0.654151 0.068494
v -0.005645 0.029871 0.129182
vn -0.719403 0.694172 -0.024167
v -0.006774 0.031055 0.040053
vn -0.987239 0.008799 0.159003
v -0.009286 0.001505 0.209647
vn -0.976791 0.195050 0.088517
v -0.010209 0.009785 0.185909
vn -0.534186 0.834249 0.136648
v -0.001315 0.027026 0.176125
vn 0.431353 0.890814 0.142778
v 0.013771 0.027543 0.175273
vn 0.426618 -0.287149 0.857638
v 0.016565 -0.011472 0.214647
vn -0.646548 -0.762846 0.006510
v -0.005858 -0.029988 0.084239
vn -0.943188 -0.306689 0.127821
v -0.009383 -0.010975 0.188849
vn -0.270100 -0.952382 0.141472
v 0.002140 -0.028109 0.161356
vn 0.951794 -0.305739 0.024722
v 0.023414 -0.015656 0.097850
vn 0.965516 -0.256314 0.045621
v 0.022068 -0.011739 0.180079
vn 0.521959 -0.852181 0.036701
v 0.014677 -0.031578 0.104352
vn 0.302086 -0.953088 -0.019160
v 0.011814 -0.034108 0.056998
vn 0.988951 -0.143741 -0.036243
v 0.029387 0.003570 0.025341
vn 0.957392 0.286950 0.032563
v 0.021714 0.021526 0.144814
vn 0.870235 0.491897 0.026984
v 0.019569 0.029670 0.097847
vn 0.796702 0.603787 0.026583
v 0.018735 0.031311 0.093933
vn 0.622288 0.782476 0.022119
v 0.015712 0.034318 0.096849
vn -0.251176 -0.331351 0.909460
v -0.001035 -0.014310 0.214874
vn -0.559483 0.828026 -0.036764
v -0.003610 0.034091 0.043183
vn -0.906272 0.419155 0.054600
v -0.010138 0.023483 0.114482
vn -0.993293 0.092176 0.069808
v -0.010881 0.005871 0.183952
vn 0.275372 0.960126 0.048242
v 0.009626 0.037630 0.105360
vn -0.041689 0.992068 0.118586
v 0.004397 0.034964 0.137438
vn 0.630459 0.766041 0.125314
v 0.015656 0.026048 0.176125
vn -0.222935 0.933989 0.279220
v 0.003295 0.023641 0.207935
vn -0.847003 -0.527967 0.061934
v -0.007884 -0.023330 0.144099
vn -0.726497 -0.685799 0.043381
v -0.005982 -0.029176 0.102864
vn -0.600956 -0.797040 0.059829
v -0.003624 -0.029240 0.130563
vn -0.009415 -0.999658 -0.024413
v 0.006762 -0.034841 0.056593
vn 0.190923 -0.979942 0.057111
v 0.007924 -0.034220 0.109485
vn -0.899619 -0.428716 0.082995
v -0.008858 -0.017474 0.169375
vn -0.710216 -0.632066 0.309977
v -0.002425 -0.017452 0.210854
vn -0.105316 -0.877787 0.467332
v 0.004080 -0.020902 0.210988
vn -0.461568 -0.872569 0.159931
v 0.000403 -0.019960 0.207123
vn 0.250996 -0.967771 0.020509
v 0.008007 -0.034858 0.093683
vn 0.487745 -0.860222 0.148736
v 0.013450 -0.021879 0.191653
vn 0.982881 0.174850 0.058073
v 0.023228 0.010190 0.179001
vn 0.895064 0.445055 0.028044
v 0.020926 0.027397 0.093933
vn 0.706918 0.707053 -0.018506
v 0.017293 0.033094 0.052330
vn -0.792598 -0.099843 0.601514
v -0.007240 -0.002034 0.214249
vn -0.395168 0.911645 -0.112898
v 0.001422 0.034852 0.019759
vn -0.997770 0.009691 0.066044
v -0.010985 0.001944 0.185382
vn -0.350295 0.930792 0.104498
v 0.001902 0.035023 0.133268
vn -0.796128 0.515553 0.316835
v -0.005201 0.018041 0.209273
vn 0.878710 0.446031 0.170075
v 0.019581 0.015333 0.206879
vn 0.415255 0.553535 0.721916
v 0.014514 0.018271 0.214679
vn 0.550366 0.800241 0.238142
v 0.013259 0.021857 0.209123
vn 0.804075 0.584848 0.106844
v 0.019383 0.022080 0.178663
vn 0.119691 0.980800 0.153968
v 0.008501 0.029285 0.174558
vn -0.510956 -0.859108 0.029283
v -0.002166 -0.032885 0.094340
vn -0.845492 -0.519844 0.122088
v -0.007030 -0.018520 0.180115
vn -0.694612 -0.711970 0.103019
v -0.005490 -0.025019 0.155910
vn 0.998602 -0.014352 0.050877
v 0.023507 0.000215 0.188101
vn 0.954094 0.294319 0.055502
v 0.022259 0.015655 0.174173
vn 0.917503 0.396678 0.028894
v 0.021526 0.026076 0.093933
vn 0.859607 0.509422 0.039560
v 0.019595 0.027442 0.129158
vn 0.563281 0.821979 0.084053
v 0.015122 0.032794 0.133254
vn 0.285058 0.951600 0.114891
v 0.011225 0.034900 0.133252
vn -0.740225 0.663612 0.108101
v -0.005333 0.022791 0.180488
vn -0.631011 0.771894 -0.077491
v -0.005514 0.031521 0.027812
vn -0.939063 -0.096249 -0.329995
v -0.021712 -0.004754 0.018144
vn -0.929744 0.360717 0.073885
v -0.009104 0.015914 0.181817
vn -0.591340 0.800206 0.099939
v -0.001316 0.033324 0.133161
vn 0.732058 0.677598 0.070369
v 0.016317 0.031574 0.134986
vn 0.878058 0.475390 0.054943
v 0.020415 0.023560 0.157038
vn 0.094222 -0.982981 0.157701
v 0.006817 -0.027866 0.166281
vn -0.089086 -0.990432 0.105398
v 0.004020 -0.032711 0.130603
vn -0.435530 -0.894680 0.099301
v -0.001036 -0.030489 0.135866
vn 0.813432 0.579401 0.051216
v 0.017798 0.029678 0.134050
vn -0.988067 0.135804 -0.072667
v -0.021543 0.004116 0.017484
vn 0.951052 -0.266014 0.157279
v 0.021690 -0.006016 0.206135
vn -0.164072 0.432456 0.886601
v 0.001376 0.018291 0.215024
vn -0.670013 0.741585 0.033686
v -0.003685 0.034675 0.098817
# 127 vertices, 0 vertices normals

f 4//4 41//41 35//35
f 7//7 2//2 28//28
f 8//8 4//4 35//35
f 11//11 2//2 7//7
f 11//11 67//67 2//2
f 11//11 35//35 67//67
f 17//17 10//10 28//28
f 18//18 28//28 30//30
f 20//20 7//7 28//28
f 20//20 28//28 10//10
f 21//21 5//5 17//17
f 30//30 28//28 2//2
f 22//22 11//11 7//7
f 22//22 35//35 11//11
f 22//22 7//7 20//20
f 22//22 20//20 1//1
f 1//1 115//115 8//8
f 1//1 8//8 35//35
f 1//1 35//35 22//22
f 115//115 1//1 19//19
f 124//124 14//14 8//8
f 124//124 8//8 115//115
f 28//28 60//60 17//17
f 10//10 17//17 5//5
f 20//20 10//10 5//5
f 20//20 5//5 19//19
f 20//20 19//19 1//1
f 85//85 5//5 21//21
f 30//30 2//2 66//66
f 30//30 66//66 83//83
f 31//31 2//2 67//67
f 31//31 67//67 23//23
f 34//34 32//32 2//2
f 34//34 2//2 24//24
f 51//51 67//67 35//35
f 35//35 13//13 51//51
f 35//35 25//25 13//13
f 35//35 41//41 25//25
f 37//37 13//13 25//25
f 37//37 25//25 36//36
f 39//39 8//8 14//14
f 115//115 19//19 5//5
f 41//41 4//4 27//27
f 43//43 9//9 15//15
f 43//43 76//76 9//9
f 60//60 28//28 18//18
f 83//83 18//18 30//30
f 83//83 6//6 18//18
f 89//89 83//83 66//66
f 89//89 6//6 83//83
f 63//63 31//31 23//23
f 45//45 24//24 2//2
f 45//45 2//2 31//31
f 45//45 31//31 63//63
f 45//45 12//12 24//24
f 46//46 23//23 67//67
f 46//46 67//67 64//64
f 46//46 63//63 23//23
f 46//46 64//64 63//63
f 3//3 50//50 12//12
f 24//24 12//12 50//50
f 50//50 34//34 24//24
f 50//50 49//49 34//34
f 51//51 13//13 37//37
f 25//25 41//41 36//36
f 39//39 4//4 8//8
f 124//124 116//116 14//14
f 74//74 52//52 38//38
f 27//27 4//4 40//40
f 15//15 9//9 40//40
f 42//42 43//43 15//15
f 59//59 126//126 72//72
f 6//6 104//104 18//18
f 80//80 85//85 21//21
f 80//80 21//21 17//17
f 60//60 81//81 17//17
f 104//104 60//60 18//18
f 84//84 6//6 89//89
f 61//61 5//5 85//85
f 61//61 29//29 5//5
f 122//122 6//6 121//121
f 63//63 64//64 12//12
f 63//63 12//12 45//45
f 65//65 34//34 49//49
f 89//89 66//66 32//32
f 66//66 2//2 32//32
f 3//3 12//12 64//64
f 67//67 51//51 107//107
f 67//67 107//107 47//47
f 108//108 91//91 51//51
f 108//108 26//26 119//119
f 68//68 51//51 37//37
f 68//68 37//37 26//26
f 68//68 108//108 51//51
f 68//68 26//26 108//108
f 93//93 36//36 41//41
f 70//70 93//93 71//71
f 70//70 36//36 93//93
f 70//70 69//69 36//36
f 39//39 95//95 4//4
f 114//114 39//39 14//14
f 127//127 54//54 14//14
f 127//127 14//14 38//38
f 73//73 127//127 42//42
f 15//15 73//73 42//42
f 74//74 38//38 14//14
f 14//14 116//116 74//74
f 74//74 116//116 52//52
f 75//75 56//56 124//124
f 4//4 15//15 40//40
f 15//15 4//4 95//95
f 97//97 42//42 127//127
f 97//97 127//127 117//117
f 97//97 43//43 42//42
f 112//112 58//58 111//111
f 9//9 27//27 40//40
f 100//100 99//99 101//101
f 78//78 111//111 58//58
f 78//78 101//101 102//102
f 102//102 101//101 99//99
f 103//103 58//58 112//112
f 103//103 16//16 58//58
f 101//101 78//78 58//58
f 101//101 58//58 16//16
f 106//106 81//81 82//82
f 106//106 80//80 81//81
f 80//80 17//17 81//81
f 82//82 81//81 60//60
f 82//82 60//60 104//104
f 104//104 122//122 82//82
f 121//121 84//84 44//44
f 106//106 105//105 85//85
f 106//106 85//85 80//80
f 121//121 6//6 84//84
f 122//122 106//106 82//82
f 47//47 64//64 67//67
f 65//65 44//44 84//84
f 65//65 89//89 32//32
f 65//65 84//84 89//89
f 44//44 65//65 49//49
f 65//65 32//32 34//34
f 125//125 64//64 47//47
f 90//90 49//49 50//50
f 90//90 50//50 3//3
f 91//91 99//99 48//48
f 102//102 108//108 119//119
f 102//102 99//99 108//108
f 92//92 37//37 36//36
f 92//92 36//36 69//69
f 92//92 119//119 26//26
f 110//110 69//69 70//70
f 93//93 41//41 27//27
f 93//93 27//27 71//71
f 113//113 52//52 116//116
f 53//53 38//38 52//52
f 54//54 114//114 14//14
f 95//95 73//73 15//15
f 95//95 39//39 114//114
f 38//38 53//53 127//127
f 73//73 54//54 127//127
f 73//73 114//114 54//54
f 124//124 96//96 75//75
f 96//96 5//5 55//55
f 55//55 5//5 29//29
f 55//55 75//75 96//96
f 55//55 56//56 75//75
f 98//98 56//56 55//55
f 76//76 111//111 71//71
f 76//76 112//112 111//111
f 76//76 71//71 27//27
f 76//76 27//27 9//9
f 43//43 77//77 76//76
f 43//43 97//97 77//77
f 112//112 76//76 77//77
f 113//113 98//98 57//57
f 117//117 113//113 57//57
f 117//117 52//52 113//113
f 101//101 16//16 100//100
f 118//118 70//70 71//71
f 119//119 118//118 102//102
f 103//103 77//77 79//79
f 79//79 57//57 98//98
f 104//104 6//6 122//122
f 44//44 120//120 121//121
f 94//94 86//86 72//72
f 105//105 86//86 61//61
f 105//105 61//61 85//85
f 122//122 62//62 88//88
f 122//122 121//121 62//62
f 44//44 49//49 90//90
f 120//120 44//44 90//90
f 87//87 59//59 72//72
f 106//106 122//122 88//88
f 125//125 47//47 107//107
f 91//91 107//107 51//51
f 48//48 100//100 59//59
f 33//33 59//59 87//87
f 3//3 64//64 125//125
f 33//33 90//90 3//3
f 108//108 99//99 91//91
f 109//109 92//92 26//26
f 109//109 26//26 37//37
f 109//109 37//37 92//92
f 123//123 119//119 110//110
f 123//123 110//110 70//70
f 123//123 70//70 118//118
f 110//110 92//92 69//69
f 110//110 119//119 92//92
f 111//111 118//118 71//71
f 94//94 72//72 126//126
f 98//98 55//55 94//94
f 16//16 79//79 126//126
f 73//73 95//95 114//114
f 53//53 117//117 127//127
f 53//53 52//52 117//117
f 115//115 5//5 96//96
f 115//115 96//96 124//124
f 61//61 55//55 29//29
f 116//116 56//56 98//98
f 97//97 117//117 57//57
f 59//59 100//100 126//126
f 118//118 78//78 102//102
f 119//119 123//123 118//118
f 120//120 87//87 62//62
f 120//120 62//62 121//121
f 87//87 72//72 86//86
f 33//33 120//120 90//90
f 86//86 106//106 88//88
f 86//86 88//88 87//87
f 86//86 105//105 106//106
f 91//91 48//48 107//107
f 48//48 59//59 125//125
f 125//125 107//107 48//48
f 99//99 100//100 48//48
f 125//125 33//33 3//3
f 59//59 33//33 125//125
f 116//116 98//98 113//113
f 126//126 79//79 98//98
f 16//16 126//126 100//100
f 124//124 56//56 116//116
f 97//97 79//79 77//77
f 97//97 57//57 79//79
f 112//112 77//77 103//103
f 118//118 111//111 78//78
f 16//16 103//103 79//79
f 94//94 61//61 86//86
f 94//94 55//55 61//61
f 88//88 62//62 87//87
f 87//87 120//120 33//33
f 94//94 126//126 98//98
# 250 faces, 0 coords texture

# End of File
