####
#
# OBJ File Generated by Meshlab
#
####
# Object vo5_extra_body_volumizing_shampoo_250_collision.obj
#
# Vertices: 127
# Faces: 250
#
####
vn 0.995481 0.091870 -0.024049
v -0.013189 -0.002170 0.041233
vn -0.067692 0.995876 0.060402
v 0.005904 -0.034357 0.058969
vn -0.402178 0.031982 0.915003
v 0.005743 0.000636 0.016217
vn -0.566005 0.090832 0.819383
v 0.012116 -0.003547 0.020062
vn -0.856117 0.017346 0.516491
v 0.020212 -0.002962 0.026654
vn -0.968032 0.203912 0.146062
v 0.023432 -0.010331 0.040143
vn -0.209915 -0.887653 0.409888
v 0.005314 0.029683 0.021735
vn -0.076916 -0.742253 0.665691
v 0.002165 0.027854 0.019093
vn -0.136717 -0.988802 0.059825
v 0.006428 0.035420 0.064172
vn -0.025976 -0.999619 -0.009349
v 0.004495 0.036085 0.091369
vn 0.999200 -0.039191 -0.008005
v -0.014788 0.003173 0.141406
vn 0.237506 0.248590 -0.939039
v -0.003383 -0.006195 0.215677
vn -0.995143 -0.096617 -0.018846
v 0.022541 0.008649 0.127112
vn -0.956369 -0.049949 -0.287861
v 0.021143 0.003923 0.207650
vn 0.591255 -0.693378 -0.411879
v -0.002756 0.020460 0.206383
vn -0.314711 0.456061 0.832445
v 0.001042 -0.017981 0.015958
vn 0.648273 0.145036 0.747467
v -0.008601 -0.007952 0.013408
vn -0.082696 0.209324 0.974343
v -0.003948 -0.011712 0.012294
vn -0.054573 0.863831 0.500817
v 0.001919 -0.027693 0.024537
vn 0.600473 0.633006 0.488606
v -0.006709 -0.020708 0.018864
vn 0.377666 0.906784 0.187379
v -0.000883 -0.030058 0.037885
vn 0.948322 0.211422 0.236615
v -0.011874 -0.012219 0.022391
vn 0.715955 0.689934 0.106763
v -0.006102 -0.028011 0.043413
vn 0.998712 0.043265 0.026514
v -0.014118 0.000931 0.032301
vn 0.955273 0.293605 0.035354
v -0.011049 -0.019240 0.045084
vn 0.207007 0.978297 0.009133
v 0.002200 -0.034015 0.073720
vn 0.991890 0.124142 0.027252
v -0.013264 -0.005584 0.058544
vn 0.891673 0.451970 0.025341
v -0.009405 -0.024728 0.066013
vn 0.440999 0.895199 0.064337
v -0.001236 -0.032760 0.059391
vn 0.128196 0.991261 -0.031105
v -0.000592 -0.034164 0.101317
vn 0.752114 0.658967 0.009346
v -0.007897 -0.028261 0.088994
vn 0.978320 0.205753 0.023595
v -0.013321 -0.013323 0.083786
vn 0.998074 -0.061470 0.008318
v -0.014610 0.001408 0.078245
vn 0.998880 -0.035757 -0.031002
v -0.014499 -0.003159 0.108176
vn 0.951106 0.307925 -0.024070
v -0.012571 -0.018834 0.115537
vn 0.458116 0.886868 -0.059962
v -0.002739 -0.032510 0.121070
vn 0.880376 0.473265 -0.030958
v -0.010732 -0.023083 0.133082
vn 0.695768 0.707082 -0.126260
v -0.006531 -0.025433 0.155350
vn 0.312342 0.944431 -0.102431
v 0.001793 -0.030712 0.149993
vn 0.948857 0.290755 -0.123016
v -0.011732 -0.016976 0.160209
vn 0.153654 0.971908 -0.178285
v 0.002225 -0.027572 0.171682
vn 0.409407 0.896531 -0.169167
v -0.000777 -0.021910 0.193528
vn 0.963572 -0.262303 -0.052203
v -0.011531 0.013997 0.167504
vn 0.980399 0.175354 -0.089830
v -0.011806 -0.008646 0.175980
vn 0.922470 0.372009 -0.103242
v -0.011144 -0.013465 0.188727
vn 0.707087 0.546233 -0.449063
v -0.005660 -0.015539 0.207758
vn 0.044264 -0.025321 0.998699
v -0.004790 0.005204 0.012712
vn 0.031849 -0.268283 0.962813
v -0.002321 0.019309 0.012763
vn 0.319543 -0.624292 0.712848
v -0.002511 0.024092 0.014762
vn 0.854237 -0.179104 0.488058
v -0.011243 0.013376 0.017133
vn 0.383868 -0.866082 0.320231
v -0.002064 0.028916 0.022243
vn 0.115138 -0.983078 0.142479
v 0.002581 0.031913 0.031859
vn 0.853257 -0.499531 0.149739
v -0.010135 0.022911 0.029567
vn 0.577916 -0.813149 0.069296
v -0.004502 0.030949 0.045208
vn 0.995460 -0.094887 0.007444
v -0.013699 0.009034 0.047747
vn 0.914784 -0.403912 -0.004977
v -0.009444 0.024134 0.062108
vn 0.949286 -0.314409 -0.001651
v -0.010927 0.020388 0.092867
vn 0.243679 -0.968336 0.054275
v 0.003162 0.035211 0.066602
vn 0.647466 -0.762092 0.001705
v -0.003209 0.033405 0.084181
vn 0.913884 -0.404719 -0.031913
v -0.009586 0.024874 0.113088
vn 0.520845 -0.852189 -0.049945
v -0.001517 0.032728 0.117825
vn 0.999242 -0.038861 -0.002171
v -0.013198 0.000590 0.124850
vn 0.912279 -0.408569 -0.028595
v -0.010502 0.019838 0.134949
vn 0.285988 -0.952751 -0.102352
v -0.000219 0.033657 0.138431
vn 0.994496 -0.083328 -0.063517
v -0.012598 0.005946 0.155954
vn 0.614364 -0.781051 -0.111877
v -0.003264 0.027978 0.156136
vn 0.259534 -0.951935 -0.162670
v 0.001394 0.027537 0.177226
vn 0.737072 -0.661881 -0.136519
v -0.006905 0.020730 0.179187
vn 0.912717 -0.389490 -0.123468
v -0.010325 0.011620 0.195089
vn 0.859374 -0.058835 -0.507952
v -0.010302 -0.000945 0.209761
vn 0.020969 -0.432198 -0.901535
v 0.005372 0.016111 0.214294
vn -0.154389 0.970398 0.185718
v 0.005658 -0.032224 0.044249
vn -0.493940 0.549451 0.673889
v 0.005876 -0.024021 0.022793
vn -0.567231 0.716549 0.405963
v 0.011721 -0.026348 0.030527
vn -0.743843 0.344399 0.572789
v 0.017407 -0.013063 0.026927
vn -0.790265 0.593172 0.153713
v 0.016874 -0.025365 0.041768
vn -0.551408 0.831345 0.069389
v 0.011875 -0.031787 0.055853
vn -0.293861 0.955830 0.005849
v 0.007538 -0.033877 0.069650
vn -0.962012 0.272290 0.019772
v 0.021274 -0.014725 0.068218
vn -0.998830 0.047777 -0.007496
v 0.024763 -0.001370 0.085051
vn -0.279749 0.958431 -0.056133
v 0.008237 -0.034341 0.093770
vn -0.467343 0.883100 -0.041536
v 0.010714 -0.033361 0.121497
vn -0.864246 0.503049 0.004401
v 0.016923 -0.025832 0.077834
vn -0.942064 0.333120 0.039339
v 0.021319 -0.016910 0.089212
vn -0.721993 0.691257 0.029827
v 0.013296 -0.030936 0.088693
vn -0.932291 0.360690 0.027139
v 0.021579 -0.019751 0.099742
vn -0.645203 0.762691 -0.044886
v 0.016081 -0.028737 0.103932
vn -0.998880 0.047070 -0.004785
v 0.023834 -0.005683 0.100833
vn -0.916446 0.396367 -0.054960
v 0.018939 -0.021261 0.127239
vn -0.990052 0.127139 -0.060265
v 0.023371 -0.008544 0.118044
vn -0.995743 0.083294 -0.039481
v 0.022613 -0.005225 0.129814
vn -0.827161 0.558292 -0.064153
v 0.017727 -0.022719 0.154519
vn -0.293869 0.948003 -0.122197
v 0.011033 -0.029656 0.152260
vn -0.976940 0.213484 0.003558
v 0.020536 -0.014694 0.157614
vn -0.933245 0.353230 -0.065435
v 0.022155 -0.010896 0.182879
vn -0.858231 0.303160 -0.414166
v 0.019896 -0.009125 0.204874
vn -0.383475 0.911017 -0.151639
v 0.010626 -0.023296 0.188345
vn 0.281336 0.868073 -0.409023
v 0.003124 -0.021811 0.207334
vn -0.538685 0.621942 -0.568336
v 0.012430 -0.019158 0.208672
vn -0.516458 0.039852 -0.855385
v 0.015508 0.000969 0.213166
vn -0.459472 -0.087739 0.883848
v 0.005525 0.019398 0.015330
vn -0.524945 -0.476581 0.705197
v 0.009557 0.024905 0.019824
vn -0.732544 -0.125092 0.669127
v 0.014294 0.015728 0.022382
vn -0.615170 -0.746017 0.254999
v 0.011463 0.028528 0.028300
vn -0.975918 -0.141414 0.166090
v 0.023453 0.008648 0.039518
vn -0.275498 -0.948241 0.157923
v 0.007793 0.031775 0.034644
vn -0.856209 -0.397680 0.329782
v 0.016573 0.022395 0.029229
vn -0.999015 -0.040030 0.019137
v 0.023936 0.008432 0.066956
vn -0.742194 -0.665159 0.081931
v 0.016346 0.029702 0.056514
vn -0.921392 -0.380550 0.078856
v 0.020834 0.023178 0.055084
vn -0.925011 -0.379444 -0.019400
v 0.022352 0.022186 0.089557
vn -0.478243 -0.873877 0.087307
v 0.012171 0.033243 0.057689
vn -0.557834 -0.829914 0.008041
v 0.013450 0.032873 0.076803
vn -0.976715 -0.207775 -0.053455
v 0.020805 0.019500 0.109308
vn -0.736063 -0.676251 -0.029932
v 0.016263 0.031209 0.106739
vn -0.947614 -0.318859 -0.018877
v 0.020593 0.018304 0.135079
vn -0.982982 -0.183089 -0.014958
v 0.021662 0.014066 0.149847
vn -0.602377 -0.793001 -0.091051
v 0.015384 0.029558 0.139946
vn -0.169225 -0.984310 -0.049967
v 0.009281 0.034748 0.117965
vn -0.845493 -0.527318 -0.084130
v 0.018387 0.022100 0.167997
vn -0.253360 -0.955025 -0.154062
v 0.009210 0.029739 0.159147
vn -0.993217 -0.113025 -0.027290
v 0.022667 0.006725 0.178254
vn 0.409571 -0.900157 -0.148219
v 0.000799 0.024496 0.189804
vn -0.275507 -0.953801 -0.119833
v 0.009946 0.024569 0.188710
vn -0.807533 -0.583777 -0.084233
v 0.018413 0.018715 0.184226
vn -0.746612 -0.414915 -0.520016
v 0.019947 0.013016 0.206307
vn -0.258797 -0.916681 -0.304499
v 0.009500 0.024322 0.204244
# 127 vertices, 0 vertices normals

f 20//20 16//16 18//18
f 22//22 20//20 17//17
f 17//17 20//20 18//18
f 18//18 16//16 4//4
f 18//18 47//47 17//17
f 18//18 4//4 3//3
f 29//29 21//21 23//23
f 72//72 21//21 29//29
f 16//16 20//20 19//19
f 19//19 73//73 16//16
f 23//23 20//20 25//25
f 20//20 21//21 19//19
f 21//21 20//20 23//23
f 22//22 25//25 20//20
f 24//24 22//22 50//50
f 22//22 17//17 50//50
f 21//21 72//72 19//19
f 25//25 22//22 24//24
f 1//1 25//25 24//24
f 27//27 25//25 1//1
f 29//29 2//2 72//72
f 2//2 29//29 26//26
f 26//26 29//29 31//31
f 23//23 25//25 28//28
f 29//29 23//23 28//28
f 25//25 27//27 28//28
f 28//28 31//31 29//29
f 31//31 28//28 32//32
f 32//32 28//28 27//27
f 33//33 32//32 27//27
f 31//31 30//30 26//26
f 81//81 26//26 30//30
f 81//81 78//78 26//26
f 32//32 33//33 34//34
f 35//35 31//31 32//32
f 31//31 36//36 30//30
f 36//36 31//31 35//35
f 34//34 35//35 32//32
f 62//62 35//35 34//34
f 82//82 30//30 36//36
f 93//93 36//36 39//39
f 37//37 36//36 35//35
f 37//37 35//35 62//62
f 38//38 39//39 37//37
f 36//36 37//37 39//39
f 37//37 62//62 11//11
f 40//40 37//37 11//11
f 38//38 37//37 40//40
f 39//39 38//38 41//41
f 40//40 11//11 65//65
f 38//38 42//42 41//41
f 38//38 40//40 44//44
f 38//38 44//44 45//45
f 42//42 38//38 45//45
f 45//45 43//43 69//69
f 45//45 69//69 70//70
f 98//98 42//42 45//45
f 46//46 98//98 45//45
f 98//98 46//46 12//12
f 46//46 45//45 70//70
f 70//70 12//12 46//46
f 50//50 17//17 47//47
f 47//47 18//18 3//3
f 47//47 3//3 101//101
f 47//47 48//48 50//50
f 48//48 47//47 101//101
f 50//50 48//48 49//49
f 53//53 50//50 49//49
f 51//51 53//53 49//49
f 51//51 49//49 8//8
f 51//51 8//8 7//7
f 53//53 51//51 54//54
f 52//52 51//51 7//7
f 54//54 51//51 52//52
f 55//55 1//1 24//24
f 24//24 50//50 55//55
f 27//27 1//1 55//55
f 53//53 55//55 50//50
f 53//53 54//54 56//56
f 58//58 54//54 52//52
f 55//55 33//33 27//27
f 56//56 33//33 55//55
f 53//53 56//56 55//55
f 33//33 56//56 57//57
f 56//56 54//54 59//59
f 57//57 56//56 59//59
f 58//58 52//52 9//9
f 54//54 58//58 59//59
f 10//10 59//59 58//58
f 34//34 33//33 57//57
f 57//57 59//59 60//60
f 61//61 60//60 59//59
f 61//61 59//59 10//10
f 34//34 57//57 60//60
f 62//62 34//34 60//60
f 63//63 11//11 62//62
f 62//62 60//60 63//63
f 63//63 60//60 61//61
f 64//64 63//63 61//61
f 65//65 11//11 63//63
f 63//63 64//64 66//66
f 65//65 63//63 43//43
f 43//43 63//63 66//66
f 121//121 66//66 64//64
f 40//40 65//65 44//44
f 44//44 65//65 43//43
f 43//43 68//68 69//69
f 68//68 43//43 66//66
f 68//68 66//66 67//67
f 121//121 67//67 66//66
f 45//45 44//44 43//43
f 68//68 67//67 123//123
f 69//69 68//68 123//123
f 70//70 69//69 15//15
f 69//69 123//123 15//15
f 15//15 123//123 127//127
f 71//71 12//12 70//70
f 70//70 15//15 71//71
f 73//73 75//75 16//16
f 75//75 73//73 74//74
f 73//73 19//19 74//74
f 16//16 75//75 4//4
f 5//5 4//4 75//75
f 72//72 74//74 19//19
f 74//74 76//76 75//75
f 72//72 76//76 74//74
f 72//72 77//77 76//76
f 79//79 6//6 76//76
f 6//6 75//75 76//76
f 5//5 75//75 6//6
f 2//2 77//77 72//72
f 77//77 2//2 78//78
f 78//78 2//2 26//26
f 78//78 85//85 77//77
f 76//76 77//77 83//83
f 83//83 79//79 76//76
f 108//108 6//6 79//79
f 83//83 77//77 85//85
f 85//85 78//78 81//81
f 87//87 85//85 81//81
f 30//30 87//87 81//81
f 87//87 30//30 82//82
f 85//85 84//84 83//83
f 86//86 84//84 85//85
f 83//83 84//84 79//79
f 80//80 79//79 84//84
f 88//88 80//80 84//84
f 86//86 88//88 84//84
f 87//87 86//86 85//85
f 87//87 82//82 89//89
f 86//86 87//87 89//89
f 90//90 86//86 89//89
f 90//90 88//88 86//86
f 93//93 82//82 36//36
f 13//13 90//90 91//91
f 91//91 90//90 89//89
f 92//92 82//82 93//93
f 89//89 82//82 92//92
f 92//92 94//94 89//89
f 94//94 91//91 89//89
f 93//93 39//39 41//41
f 94//94 122//122 91//91
f 122//122 94//94 95//95
f 92//92 95//95 94//94
f 97//97 92//92 93//93
f 41//41 97//97 93//93
f 97//97 95//95 92//92
f 97//97 41//41 42//42
f 99//99 95//95 97//97
f 14//14 95//95 96//96
f 122//122 95//95 14//14
f 97//97 42//42 98//98
f 99//99 97//97 98//98
f 96//96 95//95 99//99
f 100//100 96//96 99//99
f 14//14 96//96 100//100
f 12//12 99//99 98//98
f 100//100 99//99 12//12
f 102//102 49//49 48//48
f 102//102 48//48 101//101
f 101//101 3//3 4//4
f 4//4 103//103 101//101
f 103//103 4//4 5//5
f 5//5 107//107 103//103
f 107//107 5//5 105//105
f 102//102 101//101 103//103
f 103//103 107//107 102//102
f 8//8 49//49 102//102
f 8//8 102//102 7//7
f 102//102 104//104 7//7
f 104//104 102//102 107//107
f 106//106 52//52 7//7
f 106//106 7//7 104//104
f 105//105 5//5 6//6
f 106//106 104//104 112//112
f 104//104 107//107 109//109
f 112//112 104//104 109//109
f 109//109 107//107 110//110
f 110//110 107//107 105//105
f 105//105 6//6 108//108
f 110//110 111//111 109//109
f 110//110 105//105 108//108
f 108//108 79//79 80//80
f 113//113 112//112 109//109
f 113//113 109//109 111//111
f 111//111 110//110 108//108
f 52//52 106//106 9//9
f 9//9 106//106 112//112
f 9//9 112//112 113//113
f 58//58 9//9 10//10
f 10//10 9//9 113//113
f 111//111 108//108 80//80
f 114//114 80//80 88//88
f 80//80 114//114 111//111
f 113//113 111//111 115//115
f 114//114 115//115 111//111
f 10//10 113//113 115//115
f 10//10 115//115 119//119
f 61//61 10//10 119//119
f 88//88 90//90 13//13
f 88//88 13//13 114//114
f 115//115 114//114 116//116
f 115//115 118//118 119//119
f 114//114 13//13 116//116
f 13//13 91//91 117//117
f 13//13 117//117 116//116
f 118//118 115//115 116//116
f 121//121 64//64 118//118
f 119//119 64//64 61//61
f 118//118 64//64 119//119
f 117//117 91//91 122//122
f 118//118 116//116 120//120
f 118//118 120//120 121//121
f 120//120 116//116 117//117
f 117//117 122//122 120//120
f 121//121 120//120 125//125
f 124//124 121//121 125//125
f 125//125 120//120 122//122
f 14//14 125//125 122//122
f 126//126 125//125 14//14
f 67//67 121//121 124//124
f 123//123 67//67 124//124
f 124//124 125//125 127//127
f 14//14 100//100 126//126
f 127//127 126//126 71//71
f 127//127 123//123 124//124
f 127//127 125//125 126//126
f 15//15 127//127 71//71
f 12//12 71//71 100//100
f 100//100 71//71 126//126
# 250 faces, 0 coords texture

# End of File
