####
#
# OBJ File Generated by Meshlab
#
####
# Object bai5_sumatra_dragonfruit_250_collision.obj
#
# Vertices: 127
# Faces: 250
#
####
vn 0.760289 -0.643760 -0.086802
v 0.031311 -0.031632 0.021526
vn 0.574304 0.811044 0.111278
v 0.019569 0.022375 0.127201
vn -0.581409 0.769055 0.265553
v -0.013699 0.009785 0.192416
vn -0.081254 -0.292301 -0.952868
v -0.025547 -0.033268 0.015656
vn 0.897808 0.411293 0.157414
v 0.030469 0.009436 0.128479
vn 0.984058 0.136852 -0.113585
v 0.041096 -0.003914 0.021676
vn 0.184794 -0.636345 -0.748943
v 0.015656 -0.041096 0.018892
vn 0.117194 -0.003681 -0.993102
v 0.027404 0.010978 0.015651
vn -0.042292 0.272320 -0.961277
v -0.021529 0.024330 0.013698
vn 0.909005 -0.349052 -0.227755
v 0.037182 -0.021526 0.021683
vn 0.893772 0.432578 -0.118527
v 0.035225 0.013930 0.019569
vn 0.593838 -0.801416 -0.071334
v 0.025440 -0.037182 0.021594
vn -0.762875 -0.640580 -0.087626
v -0.031311 -0.029354 0.019910
vn 0.580181 0.071617 -0.811333
v 0.037182 0.001363 0.017612
vn 0.519414 0.837867 -0.167895
v 0.023434 0.027397 0.017612
vn -0.554537 0.816238 0.161999
v -0.021574 0.021559 0.129158
vn 0.722165 0.645764 0.247925
v 0.011742 0.015656 0.184086
vn 0.968855 -0.235725 -0.075852
v 0.039139 -0.015656 0.021871
vn 0.942819 -0.325007 0.073912
v 0.031311 -0.017167 0.127201
vn -0.484177 -0.869999 -0.093135
v -0.018366 -0.041114 0.023058
vn 0.231656 -0.972325 -0.030318
v 0.008916 -0.043053 0.021526
vn -0.952520 -0.278891 -0.122174
v -0.041096 -0.013699 0.022044
vn 0.076332 -0.150986 -0.985584
v 0.017612 -0.034208 0.017612
vn 0.309626 -0.181376 -0.933400
v 0.031316 -0.025445 0.017612
vn -0.821532 0.569537 0.026709
v -0.032738 0.015656 0.019569
vn 0.341100 0.933646 0.109344
v 0.011742 0.026346 0.127201
vn 0.429832 0.898171 0.092374
v 0.014487 0.025440 0.125244
vn 0.631481 0.454786 -0.628014
v 0.030035 0.021038 0.016673
vn 0.183115 0.476322 -0.859992
v 0.023672 0.025440 0.015656
vn -0.885967 0.359571 0.292867
v -0.025440 -0.001957 0.182740
vn -0.467923 0.844629 0.260096
v -0.010675 0.011742 0.191780
vn 0.916326 -0.372234 0.147609
v 0.031445 -0.015728 0.131138
vn 0.954148 0.266314 0.136672
v 0.032633 0.003285 0.129302
vn 0.866844 0.488767 0.098430
v 0.029354 0.011927 0.127201
vn 0.109159 -0.974342 -0.196831
v -0.001266 -0.045010 0.021526
vn 0.302266 -0.951719 0.053541
v 0.009785 -0.038580 0.123287
vn 0.563284 -0.553272 -0.613679
v 0.029206 -0.033107 0.019569
vn -0.359197 -0.926424 0.112764
v -0.013195 -0.037837 0.123439
vn -0.870532 -0.491388 -0.026687
v -0.039139 -0.017612 0.023995
vn 0.047637 -0.199142 -0.978812
v 0.009852 -0.037182 0.017612
vn 0.715333 -0.186304 -0.673491
v 0.039117 -0.011977 0.019963
vn -0.127214 -0.965084 0.228976
v -0.003057 -0.029354 0.181996
vn -0.698066 0.715893 -0.014208
v -0.025440 0.025550 0.017612
vn 0.166208 0.932193 -0.321544
v 0.007803 0.033366 0.021258
vn 0.493369 0.863481 0.104819
v 0.017779 0.023483 0.127201
vn 0.517434 0.823762 0.231685
v 0.007828 0.018643 0.185909
vn 0.294995 0.144648 0.944487
v 0.013150 0.002027 0.201554
vn 0.945891 -0.047489 -0.320990
v 0.041096 -0.004408 0.021526
vn 0.995626 0.006918 0.093170
v 0.033419 -0.003914 0.129158
vn 0.821587 -0.439044 -0.363642
v 0.035181 -0.025808 0.021527
vn 0.988365 -0.103031 0.111888
v 0.033401 -0.007848 0.129176
vn 0.810611 -0.570448 0.132283
v 0.027308 -0.025391 0.126387
vn 0.828139 0.538120 0.156888
v 0.028048 0.013762 0.128551
vn 0.042519 -0.994227 0.098511
v 0.000201 -0.039816 0.126669
vn -0.097935 -0.936706 -0.336141
v -0.002296 -0.045049 0.021542
vn 0.423421 -0.874090 -0.238081
v 0.021526 -0.039139 0.020244
vn 0.574963 -0.810925 0.108713
v 0.018208 -0.034147 0.126194
vn -0.929620 0.276892 -0.243182
v -0.039139 -0.000586 0.017612
vn -0.569240 0.253948 -0.781969
v -0.031310 0.017527 0.013698
vn -0.592786 -0.768036 0.242332
v -0.013618 -0.024649 0.184689
vn -0.513683 -0.848039 0.130231
v -0.018142 -0.035225 0.125244
vn -0.987732 0.143804 0.060879
v -0.035225 0.001957 0.127763
vn -0.562305 -0.509179 -0.651575
v -0.027404 -0.031708 0.015657
vn -0.880613 0.473599 -0.014992
v -0.033268 0.015006 0.017612
vn 0.046971 0.987788 -0.148557
v -0.004406 0.035243 0.023513
vn 0.207449 0.923369 0.323040
v 0.004118 0.019571 0.187929
vn 0.743519 0.660856 0.102221
v 0.025907 0.016682 0.128583
vn 0.649082 0.749601 0.129579
v 0.022760 0.019692 0.127966
vn -0.892049 -0.376227 0.250404
v -0.019548 -0.013699 0.191780
vn -0.470729 0.871896 0.134950
v -0.019354 0.023264 0.127151
vn 0.945339 -0.205371 0.253294
v 0.019362 -0.008075 0.195575
vn 0.063145 0.573736 0.816602
v 0.002395 0.009766 0.200057
vn 0.887910 0.283767 0.362066
v 0.018464 -0.000080 0.195083
vn 0.839814 -0.471642 0.268824
v 0.016466 -0.015898 0.195442
vn 0.984714 0.023982 0.172518
v 0.033268 -0.003914 0.130461
vn 0.974651 -0.210499 0.075804
v 0.033268 -0.009289 0.127201
vn 0.898789 -0.422332 0.117534
v 0.030273 -0.019656 0.128254
vn 0.823927 0.480804 0.299953
v 0.016934 0.003702 0.194708
vn -0.108010 -0.984542 0.137882
v -0.003565 -0.039841 0.126460
vn 0.689185 -0.716450 0.108280
v 0.023454 -0.030028 0.125585
vn -0.721963 -0.175222 -0.669378
v -0.040102 -0.011424 0.018235
vn -0.822677 -0.557946 0.109079
v -0.029172 -0.024820 0.126423
vn -0.738906 0.653962 0.162332
v -0.026501 0.017308 0.129021
vn -0.929565 0.347146 -0.124092
v -0.036843 0.005871 0.017612
vn -0.279427 0.954581 -0.103415
v -0.009829 0.035226 0.023483
vn 0.333013 0.941454 -0.052593
v 0.015656 0.031311 0.021118
vn 0.016683 0.748056 -0.663426
v 0.000371 0.033119 0.019655
vn -0.359562 0.737173 -0.572094
v -0.022653 0.027378 0.016017
vn -0.700606 0.575414 0.421960
v -0.015394 0.006259 0.197274
vn -0.825669 0.564104 0.007595
v -0.031958 0.010345 0.126934
vn -0.885663 -0.414328 0.209601
v -0.029922 -0.017821 0.138925
vn -0.698982 0.390698 0.598982
v -0.016946 0.000669 0.199125
vn -0.401930 0.672779 0.621144
v -0.009673 0.009865 0.198478
vn -0.272258 0.950909 0.147130
v -0.010826 0.026919 0.126908
vn 0.958266 0.123872 0.257647
v 0.019501 -0.003914 0.193737
vn 0.850466 -0.121820 0.511729
v 0.018292 -0.007981 0.198491
vn 0.985409 0.102625 0.135785
v 0.033425 0.000141 0.128314
vn 0.412080 -0.906376 0.093130
v 0.013727 -0.037042 0.125391
vn -0.992350 -0.014348 -0.122623
v -0.041096 -0.013116 0.021526
vn -0.932238 0.146426 -0.330896
v -0.039462 -0.001957 0.017612
vn -0.723274 -0.373747 -0.580678
v -0.035679 -0.021070 0.017438
vn -0.873895 -0.460352 0.156149
v -0.030952 -0.021641 0.126579
vn -0.925990 -0.354106 0.130964
v -0.033126 -0.017135 0.127056
vn -0.986164 -0.115837 0.118585
v -0.034935 -0.008068 0.127071
vn -0.954946 -0.121773 0.270647
v -0.025399 -0.003914 0.183952
vn -0.916911 0.394729 0.058849
v -0.033119 0.007498 0.125244
vn -0.952304 0.302919 0.036846
v -0.035225 0.002068 0.127201
vn 0.106177 0.990224 0.090460
v 0.004009 0.028282 0.125854
vn -0.038115 0.993561 0.106693
v -0.000646 0.028230 0.127150
vn -0.253424 0.912169 0.322062
v 0.001971 0.019562 0.187977
vn 0.629874 0.544803 0.553577
v 0.013001 0.006152 0.198995
vn -0.749759 -0.228845 0.620879
v -0.018304 -0.009590 0.199297
vn -0.392002 0.911315 0.125857
v -0.015535 0.025391 0.125244
vn -0.239261 -0.965996 0.098015
v -0.008895 -0.039138 0.123324
vn 0.193657 -0.975684 0.102650
v 0.006627 -0.039277 0.126486
vn -0.985247 0.167039 0.037245
v -0.035250 0.001957 0.127201
vn -0.734904 -0.664478 0.135591
v -0.027096 -0.027582 0.125601
vn -0.339787 -0.915100 0.217110
v -0.009778 -0.027984 0.181891
vn 0.024307 -0.975760 0.217488
v 0.005871 -0.029868 0.181995
vn -0.898746 0.353939 -0.258813
v -0.031306 0.011131 0.127528
vn 0.245798 0.965240 0.088852
v 0.008876 0.027414 0.126295
vn -0.168907 -0.702933 0.690909
v -0.003147 -0.023713 0.201715
vn 0.532836 -0.459449 0.710628
v 0.012155 -0.019259 0.199671
vn 0.491276 -0.837197 0.240311
v 0.009787 -0.029357 0.182614
vn -0.635498 -0.765601 0.099986
v -0.021513 -0.033138 0.123454
vn -0.758281 -0.541326 0.363285
v -0.016049 -0.017301 0.198154
vn -0.532377 0.179411 0.827276
v -0.016848 -0.002963 0.201737
# 127 vertices, 0 vertices normals

f 9//9 8//8 4//4
f 55//55 4//4 7//7
f 24//24 4//4 8//8
f 14//14 8//8 28//28
f 14//14 11//11 6//6
f 59//59 9//9 4//4
f 19//19 10//10 18//18
f 33//33 6//6 11//11
f 20//20 4//4 55//55
f 114//114 20//20 55//55
f 80//80 12//12 1//1
f 63//63 4//4 20//20
f 63//63 20//20 13//13
f 125//125 13//13 20//20
f 23//23 24//24 7//7
f 23//23 4//4 24//24
f 24//24 8//8 14//14
f 27//27 15//15 86//86
f 27//27 86//86 26//26
f 68//68 15//15 2//2
f 29//29 15//15 28//28
f 29//29 28//28 8//8
f 29//29 8//8 9//9
f 16//16 83//83 3//3
f 31//31 16//16 3//3
f 31//31 110//110 16//16
f 41//41 24//24 14//14
f 32//32 19//19 18//18
f 77//77 50//50 10//10
f 77//77 19//19 32//32
f 5//5 73//73 33//33
f 33//33 11//11 5//5
f 33//33 97//97 6//6
f 34//34 5//5 11//11
f 34//34 11//11 53//53
f 28//28 11//11 14//14
f 67//67 53//53 11//11
f 67//67 11//11 28//28
f 35//35 55//55 7//7
f 35//35 7//7 21//21
f 35//35 21//21 115//115
f 36//36 21//21 7//7
f 36//36 115//115 21//21
f 36//36 7//7 56//56
f 37//37 56//56 7//7
f 37//37 7//7 24//24
f 37//37 1//1 12//12
f 98//98 56//56 12//12
f 80//80 52//52 124//124
f 59//59 4//4 63//63
f 101//101 39//39 22//22
f 40//40 23//23 7//7
f 40//40 7//7 4//4
f 40//40 4//4 23//23
f 41//41 10//10 50//50
f 41//41 50//50 24//24
f 41//41 18//18 10//10
f 43//43 85//85 88//88
f 43//43 83//83 16//16
f 43//43 88//88 59//59
f 44//44 65//65 108//108
f 44//44 86//86 15//15
f 44//44 15//15 29//29
f 45//45 2//2 15//15
f 45//45 15//15 27//27
f 67//67 28//28 15//15
f 46//46 2//2 45//45
f 46//46 45//45 27//27
f 46//46 27//27 26//26
f 46//46 26//26 66//66
f 127//127 30//30 105//105
f 111//111 17//17 46//46
f 74//74 124//124 52//52
f 48//48 51//51 18//18
f 48//48 18//18 41//41
f 48//48 41//41 14//14
f 48//48 14//14 6//6
f 49//49 6//6 97//97
f 50//50 52//52 1//1
f 80//80 1//1 52//52
f 51//51 6//6 49//49
f 51//51 48//48 6//6
f 32//32 96//96 74//74
f 77//77 10//10 19//19
f 52//52 50//50 77//77
f 55//55 54//54 79//79
f 55//55 35//35 54//54
f 37//37 24//24 50//50
f 37//37 50//50 1//1
f 56//56 37//37 12//12
f 98//98 12//12 57//57
f 98//98 36//36 56//56
f 98//98 115//115 36//36
f 98//98 124//124 115//115
f 124//124 98//98 57//57
f 80//80 57//57 12//12
f 59//59 88//88 9//9
f 82//82 39//39 13//13
f 117//117 13//13 125//125
f 61//61 20//20 38//38
f 61//61 118//118 60//60
f 103//103 22//22 39//39
f 62//62 104//104 105//105
f 62//62 105//105 30//30
f 62//62 22//22 104//104
f 63//63 13//13 101//101
f 39//39 101//101 13//13
f 122//122 118//118 42//42
f 70//70 85//85 43//43
f 90//90 43//43 25//25
f 64//64 43//43 59//59
f 64//64 25//25 43//43
f 121//121 26//26 86//86
f 121//121 86//86 44//44
f 65//65 109//109 108//108
f 87//87 44//44 29//29
f 87//87 29//29 9//9
f 66//66 109//109 110//110
f 108//108 109//109 66//66
f 68//68 67//67 15//15
f 68//68 2//2 46//46
f 89//89 3//3 83//83
f 112//112 127//127 105//105
f 70//70 16//16 110//110
f 71//71 32//32 51//51
f 78//78 17//17 111//111
f 78//78 53//53 17//17
f 111//111 73//73 78//78
f 75//75 71//71 51//51
f 75//75 51//51 49//49
f 76//76 51//51 32//32
f 76//76 32//32 18//18
f 76//76 18//18 51//51
f 77//77 32//32 74//74
f 77//77 74//74 52//52
f 53//53 78//78 5//5
f 53//53 5//5 34//34
f 67//67 17//17 53//53
f 79//79 114//114 55//55
f 79//79 119//119 42//42
f 115//115 54//54 35//35
f 80//80 124//124 57//57
f 82//82 13//13 117//117
f 117//117 126//126 82//82
f 20//20 61//61 125//125
f 38//38 20//20 114//114
f 60//60 125//125 61//61
f 102//102 103//103 39//39
f 102//102 39//39 82//82
f 70//70 43//43 16//16
f 83//83 43//43 90//90
f 90//90 62//62 30//30
f 120//120 90//90 25//25
f 120//120 25//25 64//64
f 84//84 64//64 59//59
f 84//84 59//59 58//58
f 121//121 44//44 108//108
f 121//121 66//66 26//26
f 85//85 109//109 65//65
f 87//87 85//85 65//65
f 87//87 65//65 44//44
f 87//87 9//9 88//88
f 88//88 85//85 87//87
f 111//111 46//46 66//66
f 89//89 83//83 30//30
f 90//90 30//30 83//83
f 91//91 69//69 105//105
f 92//92 30//30 127//127
f 93//93 110//110 31//31
f 93//93 31//31 3//3
f 113//113 85//85 70//70
f 95//95 96//96 71//71
f 95//95 75//75 97//97
f 95//95 71//71 75//75
f 95//95 97//97 33//33
f 111//111 96//96 73//73
f 71//71 96//96 32//32
f 72//72 93//93 127//127
f 72//72 66//66 110//110
f 47//47 96//96 111//111
f 97//97 75//75 49//49
f 101//101 22//22 81//81
f 99//99 81//81 22//22
f 99//99 22//22 62//62
f 100//100 58//58 59//59
f 100//100 59//59 81//81
f 100//100 81//81 99//99
f 101//101 81//81 59//59
f 101//101 59//59 63//63
f 60//60 126//126 117//117
f 102//102 69//69 91//91
f 102//102 91//91 103//103
f 102//102 82//82 126//126
f 104//104 22//22 103//103
f 104//104 103//103 105//105
f 105//105 103//103 91//91
f 42//42 119//119 122//122
f 107//107 84//84 58//58
f 107//107 58//58 100//100
f 107//107 62//62 106//106
f 107//107 106//106 64//64
f 107//107 64//64 84//84
f 109//109 85//85 94//94
f 109//109 94//94 110//110
f 110//110 93//93 72//72
f 111//111 66//66 72//72
f 68//68 46//46 17//17
f 68//68 17//17 67//67
f 112//112 105//105 69//69
f 93//93 89//89 92//92
f 93//93 3//3 89//89
f 70//70 110//110 94//94
f 113//113 94//94 85//85
f 113//113 70//70 94//94
f 73//73 95//95 33//33
f 73//73 96//96 95//95
f 47//47 72//72 127//127
f 72//72 47//47 111//111
f 79//79 42//42 118//118
f 114//114 79//79 118//118
f 115//115 124//124 119//119
f 116//116 100//100 99//99
f 116//116 99//99 62//62
f 116//116 107//107 100//100
f 116//116 62//62 107//107
f 122//122 126//126 60//60
f 118//118 61//61 38//38
f 126//126 69//69 102//102
f 126//126 112//112 69//69
f 119//119 124//124 122//122
f 106//106 120//120 64//64
f 120//120 106//106 62//62
f 120//120 62//62 90//90
f 121//121 108//108 66//66
f 89//89 30//30 92//92
f 92//92 127//127 93//93
f 78//78 73//73 5//5
f 96//96 123//123 74//74
f 124//124 74//74 123//123
f 118//118 38//38 114//114
f 54//54 115//115 119//119
f 54//54 119//119 79//79
f 125//125 60//60 117//117
f 122//122 60//60 118//118
f 47//47 127//127 122//122
f 123//123 47//47 122//122
f 123//123 96//96 47//47
f 123//123 122//122 124//124
f 122//122 112//112 126//126
f 127//127 112//112 122//122
# 250 faces, 0 coords texture

# End of File
