####
#
# OBJ File Generated by Meshlab
#
####
# Object nutrigrain_fruit_crunch_apple_cobbler_250_collision.obj
#
# Vertices: 127
# Faces: 250
#
####
vn 0.880712 -0.439962 -0.175444
v 0.090019 -0.039139 0.008415
vn -0.074933 0.997098 0.013475
v -0.035225 0.075232 0.133072
vn -0.925085 0.267608 -0.269450
v -0.068493 0.043161 0.005871
vn 0.464706 0.864660 -0.190819
v -0.026002 0.074364 0.005871
vn 0.367764 -0.462409 -0.806801
v 0.066536 -0.061929 0.005871
vn -0.736125 -0.649237 0.191340
v -0.060175 0.032475 0.139298
vn 0.594111 0.599480 -0.536335
v 0.082191 -0.019696 0.005871
vn -0.146167 -0.381294 -0.912825
v 0.048088 -0.066536 0.005871
vn -0.119996 0.992430 -0.026130
v -0.035225 0.074316 0.015656
vn -0.657798 -0.741706 0.131052
v 0.040189 -0.055251 0.140699
vn -0.783067 -0.621513 -0.022965
v -0.066676 0.033268 0.013699
vn 0.622719 -0.770019 -0.138892
v 0.059986 -0.070450 0.011742
vn 0.580139 0.813992 0.029257
v -0.028014 0.072407 0.136986
vn 0.655496 0.754989 0.017804
v 0.077880 -0.017612 0.133072
vn -0.608902 0.520123 -0.598924
v -0.064263 0.048923 0.005871
vn -0.952609 0.289147 0.094503
v -0.064154 0.045010 0.131115
vn -0.648665 -0.760424 0.031433
v 0.047687 -0.070450 0.013699
vn -0.966712 -0.238546 -0.092538
v -0.068521 0.037182 0.009785
vn 0.895903 -0.438407 0.071816
v 0.085173 -0.036203 0.135029
vn 0.194411 0.055540 -0.979346
v 0.084148 -0.023716 0.005871
vn -0.477908 0.782122 -0.399861
v -0.043513 0.070721 0.005871
vn -0.426829 0.903241 -0.044427
v -0.041096 0.072735 0.013699
vn -0.079497 0.859865 -0.504293
v -0.028275 0.074346 0.005871
vn -0.972483 0.137864 0.187804
v -0.064685 0.043053 0.131115
vn -0.211147 -0.968272 0.133666
v 0.054772 -0.065498 0.138922
vn -0.611158 -0.788874 0.064525
v 0.046967 -0.060932 0.140900
vn -0.652514 -0.704665 0.278699
v -0.057419 0.031311 0.142857
vn -0.953668 -0.291981 0.072552
v -0.063924 0.037203 0.130330
vn 0.955897 0.285401 0.069330
v 0.085965 -0.027397 0.133072
vn 0.391594 0.451522 0.801737
v -0.011742 0.053816 0.147871
vn 0.250422 -0.921410 -0.297141
v 0.056954 -0.072407 0.011742
vn 0.504561 0.853466 0.130439
v -0.029406 0.073295 0.139261
vn 0.236001 -0.079450 -0.968500
v 0.084239 -0.039993 0.005871
vn 0.654408 0.756026 0.013238
v 0.037537 0.017922 0.103718
vn 0.649587 0.760060 0.018591
v 0.001957 0.048378 0.111546
vn 0.614707 0.786510 0.059481
v -0.025433 0.070531 0.136799
vn -0.633460 0.770861 0.067092
v -0.042866 0.072324 0.136810
vn -0.857373 0.501483 0.115874
v -0.061910 0.048948 0.130998
vn -0.297011 0.954291 0.033369
v -0.039240 0.074633 0.129850
vn -0.952902 0.215617 0.213276
v -0.064579 0.043527 0.131115
vn -0.603744 -0.667123 -0.436395
v -0.055852 0.023483 0.005871
vn -0.668978 -0.730244 0.138609
v 0.042475 -0.056751 0.142857
vn -0.641855 -0.750122 0.159184
v 0.044298 -0.058683 0.142275
vn -0.983801 -0.037754 0.175245
v -0.064804 0.041104 0.131496
vn -0.999937 0.006920 0.008785
v -0.068645 0.039139 0.010763
vn -0.885458 -0.463282 -0.036514
v -0.067824 0.035225 0.011742
vn -0.333238 -0.231623 0.913949
v -0.052837 0.033268 0.147616
vn 0.973367 0.058808 0.221580
v 0.086389 -0.031331 0.137646
vn 0.769093 -0.635632 0.066842
v 0.068507 -0.058083 0.135188
vn 0.037739 -0.996322 0.076931
v 0.056751 -0.065967 0.135029
vn 0.087215 -0.449719 -0.888902
v 0.058618 -0.066045 0.005871
vn 0.664856 -0.730258 0.157132
v 0.062642 -0.063990 0.138600
vn 0.617254 0.741539 0.262903
v -0.015295 0.061467 0.142952
vn 0.220124 0.249568 0.943006
v 0.010061 0.032725 0.148758
vn 0.645568 0.761071 0.063344
v -0.002068 0.051092 0.137859
vn -0.795333 0.555584 0.242430
v -0.055905 0.056036 0.139914
vn 0.080429 0.143420 0.986388
v -0.027819 0.066055 0.148532
vn -0.697579 0.715318 -0.041279
v -0.046897 0.068493 0.011742
vn -0.225997 0.969577 -0.094055
v -0.037098 0.073894 0.013088
vn -0.491214 0.868260 0.069526
v -0.041142 0.073583 0.127700
vn 0.102728 0.992382 0.068006
v -0.033605 0.075232 0.136827
vn -0.517983 0.804243 0.291353
v -0.041776 0.071818 0.141254
vn -0.693776 -0.718827 -0.044313
v -0.062921 0.029355 0.011690
vn -0.428209 -0.493156 -0.757255
v -0.005871 -0.020699 0.005871
vn -0.513658 -0.798996 0.312666
v 0.049129 -0.062336 0.143413
vn -0.400502 -0.910026 -0.107011
v 0.050026 -0.072407 0.011742
vn -0.985780 -0.005716 0.167944
v -0.064036 0.041098 0.136828
vn -0.768512 -0.518319 -0.375146
v -0.065412 0.033064 0.005873
vn 0.581580 -0.452775 0.675840
v 0.072404 -0.047248 0.146541
vn 0.428345 -0.466692 0.773769
v 0.058043 -0.061184 0.148582
vn -0.195024 -0.210822 0.957872
v 0.014677 -0.024462 0.148989
vn 0.820553 -0.563435 0.096092
v 0.083441 -0.039058 0.136979
vn 0.281417 0.132383 0.950410
v 0.072735 -0.021595 0.148583
vn 0.972408 -0.210067 0.101459
v 0.086298 -0.033268 0.135029
vn 0.843969 0.491626 0.214524
v 0.084065 -0.023789 0.138672
vn -0.019415 -0.999440 0.027272
v 0.050880 -0.072407 0.013021
vn 0.764685 -0.630142 0.134824
v 0.064588 -0.062650 0.135079
vn 0.532341 -0.810011 0.245958
v 0.061114 -0.064464 0.141451
vn 0.491732 0.590854 0.639602
v -0.023483 0.064976 0.147141
vn 0.605152 0.494576 0.623847
v 0.080414 -0.022590 0.144839
vn 0.194789 -0.132526 0.971851
v 0.066255 -0.049258 0.149082
vn 0.552477 0.650611 0.521032
v -0.006666 0.052837 0.144814
vn -0.025386 0.953474 0.300404
v -0.035406 0.075227 0.139703
vn -0.890720 0.425048 0.161095
v -0.062810 0.047155 0.139818
vn -0.668179 -0.742815 0.041976
v -0.058719 0.030906 0.135042
vn -0.235792 -0.727559 -0.644252
v 0.048963 -0.070450 0.009785
vn -0.645746 -0.726172 0.235977
v -0.058507 0.031311 0.140260
vn -0.894252 -0.419029 0.157253
v -0.062583 0.035140 0.137868
vn -0.332337 -0.266230 0.904806
v -0.053327 0.034736 0.147900
vn -0.123454 -0.374284 0.919060
v 0.055797 -0.061231 0.149133
vn -0.452370 -0.497483 0.740183
v -0.054794 0.031311 0.145585
vn 0.943486 -0.319002 0.089846
v 0.086105 -0.034034 0.135029
vn 0.856852 0.319852 -0.404349
v 0.090048 -0.027877 0.007834
vn 0.133196 -0.870639 0.473547
v 0.057197 -0.064260 0.146394
vn 0.007568 -0.999363 0.034876
v 0.054794 -0.072407 0.012486
vn 0.696652 0.713829 0.071583
v 0.082215 -0.021516 0.137715
vn -0.836411 0.528397 0.145647
v -0.058560 0.053226 0.135858
vn -0.061155 -0.061946 0.996204
v 0.015898 -0.023314 0.149218
vn -0.780273 -0.127560 0.612293
v -0.061898 0.042744 0.146564
vn -0.374116 -0.415946 0.828870
v 0.015656 -0.027397 0.148340
vn -0.563738 -0.414651 0.714327
v -0.058958 0.034066 0.144812
vn 0.389076 0.441490 0.808521
v 0.065490 -0.012231 0.146957
vn 0.011461 -0.999716 0.020896
v 0.056751 -0.072407 0.011904
vn 0.705381 0.674215 0.218797
v 0.078966 -0.019192 0.140654
vn 0.785578 0.264786 0.559245
v 0.080757 -0.023121 0.144356
vn 0.079491 0.079471 0.993663
v 0.063813 -0.017523 0.148916
vn 0.390247 0.914457 0.107126
v -0.031283 0.074375 0.136015
vn -0.324209 0.662645 0.675122
v -0.039320 0.070538 0.146125
vn -0.041299 -0.036133 0.998493
v -0.025929 0.016389 0.148957
vn -0.164839 0.233464 0.958292
v -0.038796 0.067664 0.147716
vn -0.595026 -0.685521 0.419531
v 0.005462 -0.023116 0.144695
vn -0.263222 -0.289041 0.920418
v 0.015656 -0.026276 0.148727
vn -0.339185 -0.395668 0.853464
v 0.049181 -0.056751 0.148639
vn 0.874735 -0.391395 0.285743
v 0.084334 -0.036459 0.141528
vn 0.693441 -0.631708 0.346531
v 0.065926 -0.060192 0.141712
vn 0.243977 0.286002 0.926649
v 0.056017 -0.006605 0.148105
vn 0.047533 0.053980 0.997410
v 0.028077 0.005757 0.149667
vn 0.475079 0.761047 0.441709
v -0.026694 0.070202 0.143943
vn -0.788075 0.615570 -0.003379
v -0.066038 0.046967 0.009790
vn 0.199344 0.574582 0.793800
v -0.030364 0.069310 0.148115
vn -0.587596 0.458824 0.666492
v -0.056457 0.051895 0.146967
vn -0.103642 -0.106405 -0.988907
v -0.057730 0.025229 0.005871
vn -0.486641 -0.575533 0.657223
v 0.044394 -0.054794 0.147171
vn -0.422985 -0.298992 0.855387
v -0.054794 0.033260 0.146774
vn -0.001982 -0.002445 0.999995
v 0.017911 0.001125 0.150098
vn 0.652725 -0.055526 0.755557
v 0.081790 -0.032527 0.147693
vn -0.141106 -0.029193 0.989564
v -0.055882 0.040892 0.148587
# 127 vertices, 0 vertices normals

f 12//12 5//5 1//1
f 39//39 2//2 9//9
f 23//23 9//9 2//2
f 23//23 2//2 4//4
f 77//77 12//12 1//1
f 36//36 55//55 4//4
f 36//36 4//4 13//13
f 20//20 7//7 93//93
f 20//20 93//93 33//33
f 34//34 7//7 4//4
f 96//96 7//7 14//14
f 58//58 21//21 15//15
f 119//119 15//15 3//3
f 119//119 58//58 15//15
f 119//119 37//37 58//58
f 84//84 3//3 16//16
f 63//63 66//66 17//17
f 26//26 17//17 66//66
f 26//26 66//66 65//65
f 45//45 24//24 3//3
f 31//31 51//51 5//5
f 31//31 5//5 12//12
f 32//32 13//13 4//4
f 61//61 107//107 4//4
f 61//61 4//4 2//2
f 33//33 1//1 5//5
f 34//34 14//14 7//7
f 35//35 34//34 4//4
f 35//35 4//4 55//55
f 35//35 55//55 14//14
f 35//35 14//14 34//34
f 93//93 7//7 96//96
f 38//38 119//119 3//3
f 38//38 3//3 84//84
f 59//59 22//22 39//39
f 59//59 39//39 9//9
f 40//40 16//16 3//3
f 40//40 3//3 24//24
f 67//67 16//16 40//40
f 85//85 10//10 6//6
f 85//85 17//17 10//10
f 68//68 63//63 11//11
f 43//43 10//10 17//17
f 43//43 17//17 26//26
f 44//44 45//45 18//18
f 44//44 24//24 45//45
f 45//45 3//3 18//18
f 46//46 28//28 18//18
f 46//46 68//68 11//11
f 49//49 72//72 115//115
f 49//49 1//1 72//72
f 50//50 25//25 66//66
f 52//52 31//31 12//12
f 107//107 32//32 4//4
f 58//58 37//37 21//21
f 21//21 22//22 59//59
f 59//59 9//9 23//23
f 59//59 23//23 21//21
f 60//60 39//39 22//22
f 60//60 22//22 21//21
f 60//60 21//21 37//37
f 61//61 2//2 39//39
f 61//61 39//39 83//83
f 83//83 39//39 60//60
f 44//44 67//67 40//40
f 44//44 40//40 24//24
f 63//63 17//17 85//85
f 64//64 66//66 41//41
f 66//66 63//63 41//41
f 87//87 6//6 10//10
f 87//87 10//10 42//42
f 43//43 111//111 27//27
f 43//43 27//27 42//42
f 43//43 65//65 111//111
f 65//65 43//43 26//26
f 43//43 42//42 10//10
f 88//88 11//11 6//6
f 88//88 46//46 11//11
f 88//88 28//28 46//46
f 28//28 44//44 18//18
f 68//68 46//46 18//18
f 72//72 1//1 19//19
f 114//114 115//115 72//72
f 74//74 1//1 48//48
f 93//93 48//48 1//1
f 48//48 93//93 29//29
f 75//75 29//29 93//93
f 77//77 1//1 49//49
f 76//76 50//50 66//66
f 77//77 52//52 12//12
f 78//78 50//50 31//31
f 104//104 80//80 105//105
f 80//80 30//30 102//102
f 55//55 96//96 14//14
f 80//80 104//104 53//53
f 82//82 53//53 118//118
f 82//82 80//80 53//53
f 82//82 79//79 80//80
f 82//82 118//118 79//79
f 32//32 36//36 13//13
f 38//38 97//97 119//119
f 37//37 97//97 56//56
f 62//62 60//60 37//37
f 62//62 83//83 60//60
f 84//84 16//16 67//67
f 6//6 99//99 88//88
f 85//85 6//6 63//63
f 63//63 6//6 11//11
f 86//86 64//64 8//8
f 86//86 66//66 64//64
f 86//86 8//8 51//51
f 86//86 51//51 31//31
f 86//86 31//31 66//66
f 65//65 66//66 25//25
f 87//87 42//42 27//27
f 67//67 44//44 28//28
f 88//88 67//67 28//28
f 88//88 99//99 67//67
f 114//114 69//69 115//115
f 70//70 115//115 69//69
f 71//71 98//98 127//127
f 90//90 98//98 71//71
f 81//81 69//69 126//126
f 114//114 72//72 19//19
f 92//92 19//19 1//1
f 92//92 1//1 74//74
f 93//93 1//1 33//33
f 75//75 48//48 29//29
f 75//75 93//93 96//96
f 104//104 105//105 75//75
f 115//115 77//77 49//49
f 95//95 50//50 76//76
f 52//52 78//78 31//31
f 79//79 30//30 80//80
f 73//73 105//105 80//80
f 57//57 54//54 30//30
f 53//53 36//36 32//32
f 118//118 53//53 32//32
f 107//107 61//61 83//83
f 120//120 79//79 118//118
f 84//84 121//121 56//56
f 56//56 97//97 38//38
f 56//56 38//38 84//84
f 120//120 57//57 30//30
f 120//120 30//30 79//79
f 109//109 127//127 98//98
f 62//62 37//37 56//56
f 99//99 127//127 121//121
f 68//68 18//18 3//3
f 6//6 87//87 27//27
f 6//6 27//27 111//111
f 6//6 111//111 101//101
f 99//99 6//6 101//101
f 94//94 115//115 70//70
f 94//94 70//70 90//90
f 94//94 25//25 50//50
f 89//89 71//71 127//127
f 89//89 47//47 71//71
f 89//89 99//99 101//101
f 89//89 101//101 47//47
f 73//73 80//80 102//102
f 102//102 30//30 54//54
f 126//126 105//105 73//73
f 96//96 104//104 75//75
f 103//103 31//31 50//50
f 103//103 50//50 95//95
f 103//103 95//95 76//76
f 103//103 66//66 31//31
f 103//103 76//76 66//66
f 77//77 115//115 78//78
f 78//78 94//94 50//50
f 104//104 96//96 55//55
f 104//104 55//55 53//53
f 55//55 36//36 53//53
f 107//107 83//83 32//32
f 84//84 99//99 121//121
f 119//119 97//97 37//37
f 57//57 110//110 127//127
f 57//57 120//120 110//110
f 121//121 127//127 110//110
f 120//120 83//83 108//108
f 125//125 98//98 90//90
f 108//108 83//83 62//62
f 56//56 121//121 62//62
f 99//99 84//84 67//67
f 94//94 65//65 25//25
f 112//112 71//71 47//47
f 112//112 47//47 100//100
f 124//124 101//101 91//91
f 124//124 91//91 100//100
f 81//81 90//90 70//70
f 127//127 99//99 89//89
f 126//126 114//114 48//48
f 114//114 126//126 69//69
f 116//116 102//102 54//54
f 116//116 73//73 102//102
f 105//105 126//126 48//48
f 78//78 52//52 77//77
f 73//73 116//116 106//106
f 116//116 54//54 106//106
f 117//117 54//54 57//57
f 118//118 32//32 83//83
f 108//108 110//110 120//120
f 118//118 83//83 120//120
f 108//108 121//121 110//110
f 127//127 125//125 57//57
f 125//125 127//127 109//109
f 108//108 62//62 121//121
f 122//122 41//41 63//63
f 122//122 63//63 68//68
f 123//123 91//91 101//101
f 90//90 111//111 65//65
f 113//113 90//90 71//71
f 113//113 71//71 112//112
f 113//113 112//112 100//100
f 123//123 113//113 100//100
f 123//123 100//100 91//91
f 124//124 100//100 47//47
f 124//124 47//47 101//101
f 81//81 70//70 69//69
f 114//114 74//74 48//48
f 114//114 92//92 74//74
f 75//75 105//105 48//48
f 115//115 94//94 78//78
f 117//117 106//106 54//54
f 106//106 117//117 125//125
f 125//125 117//117 57//57
f 90//90 81//81 125//125
f 81//81 106//106 125//125
f 81//81 73//73 106//106
f 122//122 68//68 3//3
f 122//122 3//3 15//15
f 122//122 15//15 21//21
f 122//122 21//21 23//23
f 122//122 23//23 4//4
f 122//122 4//4 7//7
f 122//122 7//7 20//20
f 122//122 20//20 33//33
f 122//122 33//33 5//5
f 122//122 5//5 51//51
f 122//122 51//51 8//8
f 122//122 8//8 64//64
f 122//122 64//64 41//41
f 94//94 90//90 65//65
f 111//111 123//123 101//101
f 90//90 123//123 111//111
f 90//90 113//113 123//123
f 114//114 19//19 92//92
f 98//98 125//125 109//109
f 81//81 126//126 73//73
# 250 faces, 0 coords texture

# End of File
