####
#
# OBJ File Generated by Meshlab
#
####
# Object nutrigrain_fruit_crunch_apple_cobbler_250_collision.obj
#
# Vertices: 127
# Faces: 250
#
####
vn 0.053040 0.064363 0.996516
v 0.002758 0.001855 -0.000455
vn 0.659648 0.750799 -0.034135
v -0.024719 -0.001324 0.106698
vn 0.006098 -0.038558 -0.999238
v 0.008000 0.009666 0.151255
vn 0.305955 0.280679 -0.909731
v 0.003119 -0.012277 0.149928
vn 0.356855 0.441354 0.823323
v -0.014297 -0.003826 0.003125
vn 0.610125 0.720484 0.329621
v -0.006419 -0.016530 0.009832
vn 0.655777 0.754426 0.028261
v -0.001278 -0.022353 0.038298
vn 0.660052 0.751207 -0.004510
v -0.012958 -0.012552 0.064943
vn 0.664335 0.747073 -0.023279
v -0.004177 -0.019789 0.100425
vn 0.606117 0.678382 -0.415234
v -0.001682 -0.019986 0.139917
vn 0.583560 0.642953 -0.496054
v 0.015697 -0.033923 0.142384
vn 0.321042 0.311459 -0.894385
v -0.007169 -0.003499 0.147763
vn 0.443214 0.296212 0.846061
v -0.057804 0.031613 0.002196
vn 0.639757 0.768090 0.027354
v -0.033345 0.006245 0.017136
vn 0.684660 0.696285 0.215473
v -0.061908 0.028794 0.010562
vn 0.796981 0.603884 -0.012005
v -0.064201 0.031595 0.032031
vn 0.676744 -0.213466 0.704592
v -0.063437 0.042392 0.004898
vn 0.874351 -0.462339 0.147492
v -0.066749 0.044092 0.013105
vn 0.915217 0.298939 0.270210
v -0.066560 0.034783 0.010946
vn 0.032624 0.052622 0.998081
v -0.019971 0.018109 -0.000166
vn 0.201538 0.256838 0.945207
v -0.034112 0.016149 0.001472
vn -0.043276 -0.067507 0.996780
v -0.012932 0.031173 -0.000382
vn -0.122449 -0.135204 0.983222
v -0.002994 0.027079 0.000017
vn 0.020663 -0.018830 0.999609
v -0.033606 0.033932 -0.000569
vn -0.264692 -0.321104 0.909302
v -0.018893 0.052326 0.002637
vn -0.474515 -0.549770 0.687451
v 0.002872 0.037144 0.004974
vn 0.542792 0.671820 0.504018
v -0.033381 0.007009 0.006579
vn -0.294678 -0.954438 0.047051
v -0.031855 0.071755 0.034558
vn 0.345006 -0.820495 0.455805
v -0.042310 0.068357 0.007255
vn 0.535972 -0.843029 0.045121
v -0.044202 0.069193 0.023347
vn 0.196082 -0.210673 0.957689
v -0.046611 0.051645 0.000667
vn -0.584961 -0.675362 0.449118
v -0.015335 0.055587 0.008132
vn -0.225609 -0.535182 0.814052
v -0.030535 0.064845 0.003320
vn -0.410528 -0.883892 0.224057
v -0.029978 0.070084 0.015383
vn 0.653560 0.756869 -0.002935
v -0.040600 0.010962 0.058173
vn 0.799896 -0.599963 -0.014506
v -0.064795 0.045239 0.034172
vn 0.817965 0.575207 -0.008428
v -0.064074 0.032081 0.076693
vn 0.812218 -0.583314 0.006814
v -0.062162 0.049124 0.074141
vn 0.436794 -0.899352 0.019427
v -0.042815 0.071274 0.059846
vn 0.591817 -0.806052 0.005659
v -0.044583 0.069960 0.073963
vn -0.383364 -0.923162 0.028349
v -0.030064 0.071683 0.061866
vn 0.653596 0.756033 -0.035007
v -0.043769 0.015379 0.110544
vn 0.995254 -0.095795 -0.017103
v -0.066281 0.041054 0.062943
vn 0.947972 0.318022 -0.014537
v -0.065291 0.034048 0.104841
vn 0.910355 -0.413706 0.010068
v -0.064069 0.046347 0.100122
vn 0.966808 -0.170421 -0.190364
v -0.065653 0.044268 0.135486
vn -0.649984 -0.759646 -0.021419
v 0.005816 0.042973 0.100562
vn 0.734125 -0.678881 0.013423
v -0.045897 0.068614 0.105427
vn 0.691146 -0.689845 -0.215480
v -0.045429 0.069915 0.136346
vn -0.079871 -0.996567 0.021788
v -0.032526 0.073674 0.092479
vn -0.640191 -0.768187 0.006670
v -0.013486 0.059571 0.100721
vn 0.784904 0.482014 -0.389344
v -0.063519 0.033648 0.138129
vn 0.803230 -0.581843 -0.127598
v -0.061690 0.051703 0.134949
vn 0.298218 0.261683 -0.917926
v -0.043380 0.027242 0.149833
vn 0.684917 -0.278731 -0.673199
v -0.058035 0.048734 0.147503
vn 0.230597 0.300059 -0.925629
v -0.024998 0.012005 0.149219
vn 0.597325 0.692807 -0.404007
v -0.033757 0.009254 0.142219
vn -0.041154 -0.043260 -0.998216
v -0.020603 0.034216 0.148884
vn 0.156771 -0.172630 -0.972431
v -0.046456 0.053231 0.150662
vn -0.616310 -0.685706 -0.387259
v -0.005743 0.052426 0.138632
vn -0.294210 -0.347814 -0.890205
v 0.004356 0.032137 0.147695
vn 0.460673 -0.636626 -0.618456
v -0.043666 0.066900 0.144772
vn 0.098870 -0.932268 -0.347996
v -0.035440 0.074670 0.139491
vn 0.508890 -0.850961 -0.129985
v -0.042121 0.072532 0.136757
vn -0.500396 -0.843065 -0.197092
v -0.028907 0.073113 0.138301
vn -0.175835 -0.529039 -0.830181
v -0.031108 0.067840 0.148275
vn -0.242368 0.375982 0.894369
v 0.059712 -0.057223 0.002268
vn 0.327999 0.557490 0.762641
v 0.045628 -0.056760 0.003749
vn 0.092196 0.176650 0.979946
v 0.047112 -0.047311 0.000798
vn 0.625243 0.723693 0.292129
v 0.027323 -0.045835 0.009766
vn 0.369538 0.895220 0.249043
v 0.048810 -0.064733 0.012157
vn -0.123853 0.858564 0.497522
v 0.057781 -0.065106 0.007794
vn -0.641070 0.721510 0.261634
v 0.062469 -0.062461 0.009492
vn 0.354151 0.402841 0.843977
v 0.017830 -0.031054 0.002814
vn 0.057925 0.069079 0.995928
v 0.028491 -0.024865 -0.000215
vn -0.048538 -0.044922 0.997811
v 0.045157 -0.020415 -0.000364
vn -0.068717 0.018420 0.997466
v 0.060743 -0.034685 0.000060
vn -0.096598 -0.119039 0.988179
v 0.034770 -0.005890 0.000073
vn -0.305749 -0.332873 0.892028
v 0.061450 -0.015172 0.001855
vn -0.648290 -0.759792 0.049352
v 0.045105 0.005863 0.024213
vn -0.512578 -0.022484 0.858346
v 0.076724 -0.031915 0.002250
vn -0.779998 0.405456 0.476664
v 0.080565 -0.039707 0.007334
vn -0.792926 -0.511023 0.331850
v 0.080580 -0.024655 0.008087
vn -0.965267 0.132671 0.225075
v 0.083596 -0.032620 0.012047
vn -0.855626 0.516943 0.025966
v 0.082421 -0.039112 0.030974
vn -0.200775 0.979192 0.029534
v 0.057302 -0.065619 0.013807
vn 0.444348 0.895571 0.022514
v 0.047738 -0.064683 0.031529
vn -0.124100 0.992231 0.008733
v 0.056587 -0.066347 0.065168
vn -0.829445 0.556209 0.051499
v 0.077512 -0.045862 0.015358
vn -0.650467 0.759452 0.011216
v 0.063501 -0.062757 0.052767
vn -0.786725 0.617153 0.013639
v 0.076297 -0.047406 0.059018
vn -0.579275 0.815116 0.005175
v 0.062611 -0.064121 0.089079
vn 0.657693 0.753261 0.006121
v 0.011697 -0.034641 0.060207
vn -0.995822 0.088502 0.022497
v 0.084463 -0.035769 0.052412
vn -0.814878 -0.578718 0.032549
v 0.081411 -0.024301 0.050731
vn 0.451958 0.892035 0.002702
v 0.047703 -0.065173 0.066091
vn 0.642701 0.766053 -0.009862
v 0.029898 -0.050031 0.092495
vn 0.152541 0.988277 0.006330
v 0.051246 -0.066446 0.100537
vn 0.661610 0.747438 -0.060077
v 0.020467 -0.040807 0.124008
vn 0.454096 0.882446 -0.122826
v 0.050167 -0.067033 0.134139
vn -0.870461 0.492226 -0.003436
v 0.082540 -0.040732 0.118393
vn -0.435282 0.853790 -0.285608
v 0.060650 -0.066075 0.139292
vn -0.955397 -0.294672 0.019603
v 0.084001 -0.027951 0.073138
vn -0.927352 0.374172 0.003683
v 0.084071 -0.039100 0.094063
vn -0.989416 -0.144949 0.006720
v 0.085250 -0.029069 0.119132
vn -0.728556 -0.684927 0.008989
v 0.077130 -0.018470 0.097957
vn -0.808682 -0.484505 -0.333597
v 0.083117 -0.024223 0.140318
vn 0.255615 0.298594 -0.919512
v 0.037767 -0.046604 0.146895
vn 0.190921 0.628015 -0.754418
v 0.051301 -0.062993 0.146318
vn -0.220795 0.342625 -0.913158
v 0.063284 -0.047463 0.150630
vn 0.013458 0.039104 -0.999144
v 0.027583 -0.020112 0.151626
vn -0.052915 -0.046333 -0.997524
v 0.019327 -0.003244 0.151227
vn -0.312408 -0.342806 -0.885937
v 0.027959 0.011932 0.147852
vn -0.871316 0.294936 -0.392201
v 0.085078 -0.036585 0.141163
vn -0.414450 -0.150249 -0.897584
v 0.076356 -0.034128 0.150092
vn -0.409783 -0.513286 0.754066
v 0.037067 0.008593 0.004249
vn -0.256290 -0.322707 0.911140
v 0.024226 0.013064 0.001532
vn -0.592031 -0.722290 0.357487
v 0.028186 0.019393 0.009368
vn -0.603676 -0.715385 0.351853
v 0.052882 -0.002065 0.008351
vn -0.642556 -0.746139 0.174353
v -0.004134 0.047273 0.012694
vn -0.648371 -0.759699 0.049713
v 0.013611 0.033033 0.026646
vn -0.643741 -0.764554 0.032485
v 0.003032 0.044746 0.063341
vn -0.655910 -0.753962 0.036392
v 0.043930 0.009905 0.073441
vn -0.651109 -0.758984 0.000514
v 0.025904 0.026059 0.093547
vn -0.604065 -0.688363 -0.401575
v 0.033150 0.016957 0.140554
vn -0.602126 -0.687704 -0.405595
v 0.015472 0.033056 0.140735
vn -0.602280 -0.712989 -0.359035
v 0.058813 -0.003792 0.139194
# 127 vertices, 0 vertices normals

f 5//5 74//74 1//1
f 5//5 27//27 6//6
f 6//6 27//27 14//14
f 14//14 7//7 6//6
f 5//5 6//6 74//74
f 7//7 14//14 35//35
f 8//8 7//7 35//35
f 93//93 7//7 8//8
f 35//35 2//2 8//8
f 9//9 93//93 8//8
f 97//97 93//93 9//9
f 9//9 8//8 2//2
f 57//57 2//2 42//42
f 2//2 10//10 9//9
f 57//57 10//10 2//2
f 4//4 11//11 10//10
f 12//12 4//4 10//10
f 12//12 10//10 56//56
f 3//3 4//4 12//12
f 13//13 27//27 21//21
f 13//13 21//21 24//24
f 13//13 17//17 19//19
f 13//13 24//24 31//31
f 17//17 13//13 31//31
f 27//27 13//13 15//15
f 15//15 14//14 27//27
f 14//14 15//15 16//16
f 19//19 15//15 13//13
f 17//17 18//18 19//19
f 18//18 17//17 29//29
f 17//17 31//31 29//29
f 16//16 15//15 19//19
f 19//19 18//18 43//43
f 43//43 18//18 36//36
f 21//21 27//27 5//5
f 21//21 5//5 1//1
f 20//20 21//21 1//1
f 24//24 21//21 20//20
f 22//22 24//24 20//20
f 23//23 22//22 20//20
f 23//23 20//20 1//1
f 23//23 1//1 117//117
f 31//31 24//24 33//33
f 24//24 22//22 25//25
f 25//25 33//33 24//24
f 23//23 25//25 22//22
f 25//25 23//23 26//26
f 32//32 25//25 26//26
f 120//120 32//32 26//26
f 28//28 120//120 121//121
f 30//30 18//18 29//29
f 30//30 36//36 18//18
f 33//33 29//29 31//31
f 32//32 33//33 25//25
f 34//34 33//33 32//32
f 34//34 32//32 120//120
f 33//33 34//34 29//29
f 34//34 28//28 29//29
f 34//34 120//120 28//28
f 30//30 29//29 28//28
f 16//16 35//35 14//14
f 35//35 16//16 37//37
f 16//16 19//19 43//43
f 37//37 16//16 43//43
f 43//43 36//36 38//38
f 43//43 38//38 45//45
f 122//122 28//28 121//121
f 51//51 122//122 47//47
f 38//38 36//36 39//39
f 36//36 30//30 39//39
f 38//38 39//39 40//40
f 39//39 30//30 28//28
f 41//41 28//28 122//122
f 39//39 28//28 41//41
f 50//50 40//40 39//39
f 41//41 50//50 39//39
f 51//51 41//41 122//122
f 35//35 37//37 42//42
f 42//42 37//37 44//44
f 43//43 44//44 37//37
f 44//44 43//43 45//45
f 45//45 38//38 48//48
f 42//42 44//44 52//52
f 44//44 45//45 46//46
f 45//45 48//48 53//53
f 46//46 45//45 53//53
f 2//2 35//35 42//42
f 126//126 51//51 47//47
f 60//60 51//51 126//126
f 38//38 40//40 48//48
f 48//48 40//40 64//64
f 48//48 64//64 49//49
f 53//53 48//48 49//49
f 50//50 41//41 51//51
f 50//50 64//64 40//40
f 64//64 50//50 63//63
f 65//65 63//63 50//50
f 50//50 51//51 65//65
f 54//54 57//57 52//52
f 52//52 44//44 46//46
f 46//46 53//53 55//55
f 55//55 54//54 52//52
f 52//52 46//46 55//55
f 55//55 62//62 59//59
f 59//59 54//54 55//55
f 57//57 42//42 52//52
f 57//57 56//56 10//10
f 54//54 56//56 57//57
f 54//54 58//58 56//56
f 58//58 3//3 56//56
f 56//56 3//3 12//12
f 61//61 3//3 58//58
f 58//58 54//54 59//59
f 61//61 126//126 113//113
f 126//126 61//61 60//60
f 49//49 55//55 53//53
f 55//55 49//49 62//62
f 59//59 62//62 66//66
f 64//64 62//62 49//49
f 65//65 51//51 60//60
f 60//60 66//66 65//65
f 62//62 64//64 63//63
f 65//65 66//66 63//63
f 59//59 66//66 58//58
f 61//61 66//66 60//60
f 61//61 58//58 66//66
f 63//63 66//66 62//62
f 67//67 68//68 72//72
f 74//74 68//68 69//69
f 69//69 68//68 67//67
f 86//86 72//72 71//71
f 71//71 68//68 70//70
f 68//68 71//71 72//72
f 86//86 71//71 87//87
f 87//87 71//71 70//70
f 67//67 82//82 81//81
f 73//73 67//67 72//72
f 82//82 67//67 73//73
f 73//73 89//89 82//82
f 86//86 73//73 72//72
f 74//74 69//69 75//75
f 75//75 69//69 77//77
f 69//69 67//67 77//77
f 75//75 77//77 76//76
f 76//76 77//77 79//79
f 1//1 74//74 75//75
f 75//75 76//76 78//78
f 1//1 75//75 78//78
f 1//1 78//78 117//117
f 79//79 78//78 76//76
f 117//117 78//78 116//116
f 116//116 78//78 79//79
f 74//74 70//70 68//68
f 70//70 74//74 6//6
f 7//7 70//70 6//6
f 77//77 67//67 81//81
f 79//79 77//77 81//81
f 83//83 79//79 81//81
f 89//89 84//84 82//82
f 84//84 81//81 82//82
f 83//83 81//81 84//84
f 85//85 84//84 89//89
f 85//85 94//94 84//84
f 83//83 84//84 94//94
f 95//95 83//83 94//94
f 119//119 79//79 83//83
f 80//80 119//119 83//83
f 87//87 88//88 86//86
f 88//88 87//87 96//96
f 88//88 90//90 86//86
f 96//96 87//87 93//93
f 96//96 93//93 97//97
f 90//90 73//73 86//86
f 90//90 89//89 73//73
f 90//90 85//85 89//89
f 91//91 85//85 90//90
f 92//92 90//90 88//88
f 91//91 90//90 92//92
f 104//104 91//91 92//92
f 93//93 87//87 7//7
f 87//87 70//70 7//7
f 123//123 80//80 95//95
f 94//94 85//85 91//91
f 95//95 94//94 103//103
f 83//83 95//95 80//80
f 94//94 91//91 104//104
f 103//103 106//106 95//95
f 123//123 95//95 106//106
f 97//97 98//98 96//96
f 96//96 98//98 88//88
f 92//92 88//88 98//98
f 100//100 97//97 99//99
f 100//100 98//98 97//97
f 100//100 102//102 98//98
f 92//92 98//98 102//102
f 92//92 101//101 104//104
f 101//101 92//92 102//102
f 97//97 9//9 99//99
f 10//10 99//99 9//9
f 106//106 103//103 105//105
f 103//103 94//94 104//104
f 107//107 106//106 105//105
f 105//105 104//104 101//101
f 105//105 103//103 104//104
f 105//105 101//101 114//114
f 107//107 127//127 106//106
f 100//100 99//99 11//11
f 102//102 100//100 109//109
f 11//11 109//109 100//100
f 108//108 109//109 11//11
f 108//108 110//110 109//109
f 114//114 101//101 102//102
f 102//102 110//110 114//114
f 110//110 115//115 114//114
f 110//110 102//102 109//109
f 99//99 10//10 11//11
f 108//108 11//11 4//4
f 108//108 4//4 111//111
f 111//111 110//110 108//108
f 4//4 112//112 111//111
f 4//4 3//3 112//112
f 112//112 113//113 111//111
f 113//113 127//127 115//115
f 115//115 110//110 111//111
f 113//113 115//115 111//111
f 127//127 113//113 125//125
f 115//115 107//107 114//114
f 107//107 105//105 114//114
f 107//107 115//115 127//127
f 26//26 23//23 117//117
f 26//26 117//117 118//118
f 120//120 26//26 118//118
f 118//118 117//117 116//116
f 121//121 118//118 80//80
f 121//121 120//120 118//118
f 118//118 116//116 119//119
f 116//116 79//79 119//119
f 119//119 80//80 118//118
f 123//123 122//122 121//121
f 123//123 121//121 80//80
f 124//124 47//47 122//122
f 106//106 124//124 123//123
f 127//127 124//124 106//106
f 124//124 122//122 123//123
f 126//126 47//47 125//125
f 47//47 124//124 127//127
f 125//125 47//47 127//127
f 112//112 3//3 113//113
f 3//3 61//61 113//113
f 126//126 125//125 113//113
# 250 faces, 0 coords texture

# End of File
