####
#
# OBJ File Generated by Meshlab
#
####
# Object red_cup_250_collision.obj
#
# Vertices: 127
# Faces: 250
#
####
vn -0.664405 -0.737248 -0.122605
v -0.023100 -0.014848 0.011005
vn 0.876532 -0.001520 0.481341
v 0.051107 0.013899 0.109615
vn 0.088435 0.832972 -0.546202
v 0.002572 0.046967 0.005871
vn -0.861996 0.404819 -0.305097
v -0.031311 0.027397 0.008212
vn 0.831468 0.358015 -0.424837
v 0.035225 0.027397 0.007287
vn 0.250707 -0.125652 -0.959874
v 0.033268 -0.009143 0.005871
vn 0.166558 -0.924879 -0.341843
v 0.013699 -0.024208 0.007828
vn -0.814099 0.100223 -0.572013
v -0.033268 0.015154 0.005871
vn 0.987783 -0.067078 -0.140659
v 0.039087 0.007828 0.013699
vn -0.177997 -0.822803 -0.539733
v -0.008341 -0.023483 0.005871
vn 0.945498 -0.325617 -0.002771
v 0.048923 -0.002500 0.107632
vn -0.814043 0.578304 -0.053841
v -0.035225 0.041086 0.105675
vn 0.727900 0.317364 0.607817
v 0.045288 0.035586 0.109749
vn -0.547717 -0.827525 -0.123323
v -0.017612 -0.019623 0.013699
vn 0.350148 -0.829264 -0.435566
v 0.015656 -0.023483 0.007569
vn 0.805283 -0.591828 0.035472
v 0.042941 -0.014423 0.107312
vn 0.987511 -0.156387 0.019087
v 0.050779 0.005871 0.107632
vn -0.003011 -0.126669 0.991941
v 0.003914 -0.025442 0.118783
vn -0.037837 -0.986845 -0.157180
v 0.000000 -0.025937 0.013699
vn -0.324052 -0.408119 0.853481
v -0.021269 -0.024543 0.113004
vn -0.805480 -0.165370 0.569082
v -0.043084 0.000578 0.111209
vn -0.799119 -0.601141 -0.006263
v -0.035225 -0.016544 0.107632
vn -0.692775 0.559166 -0.455408
v -0.025440 0.035225 0.007292
vn -0.831103 -0.105524 -0.546015
v -0.033268 0.008729 0.005871
vn -0.978302 0.203598 0.038372
v -0.043343 0.023957 0.108245
vn 0.985632 0.047207 -0.162175
v 0.038845 0.013699 0.011742
vn 0.254268 0.961202 -0.106946
v 0.017545 0.058708 0.103718
vn 0.413748 0.727866 0.546831
v 0.025440 0.054794 0.109011
vn 0.548838 0.724313 -0.417309
v 0.025440 0.039139 0.006534
vn 0.841499 0.538066 0.048628
v 0.045173 0.037090 0.107275
vn -0.221226 -0.975166 -0.010491
v -0.011742 -0.033463 0.109589
vn -0.480165 -0.866238 -0.138106
v -0.013699 -0.021562 0.011742
vn 0.292625 -0.956226 -0.001532
v 0.017379 -0.033268 0.107632
vn 0.838814 -0.459927 -0.291304
v 0.033268 -0.009785 0.006056
vn 0.913770 -0.402547 0.054585
v 0.046967 -0.007110 0.107632
vn 0.997440 -0.052812 -0.048220
v 0.051077 0.009797 0.106299
vn 0.945358 -0.299528 -0.128767
v 0.036614 -0.001957 0.011742
vn 0.968218 -0.248144 0.031272
v 0.049085 -0.001957 0.107632
vn 0.973325 -0.079964 -0.215044
v 0.038263 0.005871 0.009785
vn 0.920224 -0.204074 -0.333977
v 0.037180 0.001955 0.007125
vn 0.013088 -0.945317 -0.325892
v 0.005871 -0.024834 0.007828
vn -0.334956 -0.811027 0.479624
v -0.015568 -0.032113 0.111490
vn -0.980924 -0.192252 0.028752
v -0.043332 -0.000008 0.109888
vn -0.882994 -0.468368 -0.030863
v -0.039414 -0.009821 0.108103
vn -0.293297 0.145372 -0.944904
v -0.032280 0.017612 0.005871
vn -0.672416 0.736371 0.074928
v -0.028123 0.049293 0.107456
vn -0.470431 -0.341132 -0.813833
v -0.023483 -0.012252 0.005871
vn -0.838335 0.539947 -0.075180
v -0.037182 0.038134 0.105675
vn 0.984401 0.175928 -0.001958
v 0.050880 0.019949 0.105675
vn 0.997012 -0.000237 -0.077250
v 0.051111 0.013699 0.105675
vn 0.737249 0.574958 -0.354806
v 0.031311 0.033268 0.006271
vn 0.956902 0.279447 0.079039
v 0.049098 0.027607 0.106957
vn 0.522351 0.450599 0.723954
v 0.043087 0.039179 0.109799
vn 0.349345 0.923352 -0.159308
v 0.017612 0.044749 0.017612
vn -0.731678 -0.680964 -0.030583
v -0.033268 -0.018800 0.107632
vn -0.811314 -0.540162 -0.223594
v -0.026921 -0.009898 0.008304
vn -0.164887 -0.979431 -0.116308
v -0.001957 -0.025706 0.013699
vn -0.085996 -0.995419 -0.041773
v -0.000222 -0.035391 0.107678
vn 0.216618 -0.974230 -0.062867
v 0.015656 -0.033669 0.107632
vn 0.492990 -0.847885 0.195070
v 0.029432 -0.027666 0.109173
vn 0.768575 0.111055 -0.630047
v 0.037165 0.019477 0.005871
vn 0.669976 -0.718575 0.186498
v 0.035385 -0.023503 0.109806
vn -0.055110 -0.969598 -0.238419
v 0.001957 -0.025112 0.009785
vn 0.069441 -0.990338 -0.120036
v 0.005867 -0.025970 0.015350
vn -0.754274 0.297797 0.585139
v -0.041602 0.028366 0.110337
vn -0.358628 0.661913 0.658222
v -0.019595 0.054874 0.109834
vn -0.781945 -0.436435 0.445068
v -0.038738 -0.010688 0.111907
vn -0.943512 -0.317099 0.096092
v -0.043053 -0.000942 0.109589
vn -0.990397 -0.113572 -0.078835
v -0.043570 0.003914 0.105675
vn -0.924105 -0.368701 0.100450
v -0.041378 -0.005881 0.109846
vn -0.623337 0.675290 -0.394252
v -0.023483 0.037182 0.007073
vn -0.937661 0.345860 -0.034254
v -0.041096 0.030190 0.105675
vn 0.997709 0.035133 -0.057815
v 0.051035 0.017612 0.105675
vn 0.762920 0.645366 -0.038153
v 0.039139 0.045010 0.106808
vn 0.349444 0.694180 -0.629287
v 0.021526 0.041083 0.005871
vn 0.492923 0.869493 0.031750
v 0.026972 0.054857 0.106055
vn 0.247601 0.792743 -0.557003
v 0.009785 0.045458 0.005871
vn -0.610516 -0.782846 -0.120095
v -0.018629 -0.018853 0.013699
vn -0.727295 -0.615925 -0.302786
v -0.025152 -0.012287 0.008139
vn -0.184517 -0.978652 -0.090515
v -0.009785 -0.033666 0.107632
vn 0.035175 -0.996539 -0.075317
v 0.005871 -0.035285 0.107632
vn -0.227983 -0.297654 -0.927052
v -0.018818 -0.017350 0.005871
vn -0.520478 -0.822695 0.228639
v -0.019892 -0.029921 0.110151
vn 0.424090 -0.623098 -0.657189
v 0.025440 -0.017612 0.006995
vn 0.403313 -0.913316 0.056505
v 0.022502 -0.031321 0.107809
vn 0.852992 -0.254076 0.455905
v 0.048923 -0.001203 0.109453
vn 0.123529 -0.989090 0.080259
v 0.008896 -0.035233 0.109658
vn 0.550614 -0.371949 0.747314
v 0.039664 -0.017481 0.111511
vn -0.628738 0.547889 0.551820
v -0.029433 0.047128 0.110350
vn -0.554651 0.831764 -0.023052
v -0.023559 0.052956 0.106180
vn -0.230557 0.196107 -0.953093
v -0.019569 0.038548 0.005871
vn -0.997069 0.076473 0.002306
v -0.044169 0.015741 0.105686
vn -0.992685 -0.077092 -0.092912
v -0.044102 0.009785 0.105675
vn -0.999444 -0.023390 0.023749
v -0.044393 0.011732 0.107436
vn -0.862325 0.496048 0.101645
v -0.039250 0.035034 0.107140
vn 0.993245 0.110681 0.034844
v 0.050935 0.019569 0.105675
vn 0.917991 0.391528 0.063238
v 0.047097 0.033303 0.106771
vn 0.800999 0.586701 -0.119091
v 0.043142 0.039263 0.103718
vn 0.712196 0.701756 0.017747
v 0.037190 0.047076 0.105742
vn 0.226479 0.144684 -0.963210
v 0.030513 0.031990 0.005871
vn 0.100092 0.994555 0.029000
v 0.007374 0.060964 0.106070
vn 0.383734 0.923403 0.008651
v 0.021568 0.057503 0.105357
vn 0.136912 0.638461 -0.757378
v 0.007828 0.045900 0.005871
vn 0.312102 0.936850 -0.157812
v 0.011742 0.045826 0.011742
vn -0.850773 -0.524007 -0.040022
v -0.037137 -0.013726 0.107537
vn -0.865081 -0.389842 -0.315686
v -0.031311 -0.001957 0.007004
vn -0.059729 -0.881658 0.468093
v -0.001327 -0.035190 0.110345
vn 0.263508 -0.805936 0.530124
v 0.016495 -0.032990 0.111430
vn 0.381921 -0.550938 0.742027
v 0.033272 -0.023483 0.111539
vn -0.769252 0.638084 0.033180
v -0.033370 0.043604 0.106970
vn 0.173491 0.667427 0.724184
v 0.015707 0.059066 0.109249
vn -0.401275 0.915908 -0.009560
v -0.016267 0.056832 0.105757
vn -0.293535 0.793644 -0.532884
v -0.009760 0.046963 0.005871
vn -0.813719 0.080708 0.575628
v -0.043412 0.017953 0.110723
vn -0.732991 0.678948 -0.041862
v -0.029747 0.047398 0.105900
vn 0.787810 0.606749 -0.105884
v 0.041096 0.042296 0.105675
vn 0.743013 0.658686 -0.118595
v 0.037279 0.046967 0.105675
vn 0.801014 0.166094 0.575143
v 0.049680 0.022171 0.109682
vn 0.566695 0.821856 -0.058395
v 0.029655 0.053128 0.105193
vn -0.628960 -0.777077 0.023703
v -0.026241 -0.025539 0.108534
vn -0.616001 -0.607995 0.500884
v -0.033687 -0.017845 0.111787
vn -0.140939 0.956227 0.256450
v -0.005109 0.060652 0.109026
vn -0.025717 0.995436 -0.091905
v 0.001824 0.060942 0.104427
vn -0.733388 0.671646 -0.105039
v -0.031311 0.045673 0.105675
vn 0.621904 0.762858 0.176867
v 0.035016 0.049189 0.107282
vn 0.866223 -0.458936 0.197575
v 0.045212 -0.010824 0.109381
vn -0.695092 -0.718688 0.018293
v -0.030535 -0.021598 0.108557
# 127 vertices, 0 vertices normals

f 84//84 6//6 34//34
f 84//84 10//10 6//6
f 84//84 34//34 62//62
f 61//61 100//100 5//5
f 15//15 7//7 10//10
f 15//15 10//10 84//84
f 89//89 18//18 66//66
f 23//23 4//4 12//12
f 24//24 94//94 8//8
f 25//25 4//4 8//8
f 52//52 61//61 5//5
f 52//52 5//5 97//97
f 33//33 7//7 15//15
f 60//60 15//15 84//84
f 35//35 34//34 11//11
f 36//36 17//17 9//9
f 37//37 40//40 11//11
f 37//37 11//11 34//34
f 38//38 40//40 17//17
f 38//38 11//11 40//40
f 39//39 9//9 17//17
f 39//39 17//17 40//40
f 39//39 26//26 9//9
f 40//40 34//34 6//6
f 40//40 37//37 34//34
f 2//2 18//18 88//88
f 109//109 88//88 18//18
f 41//41 10//10 7//7
f 64//64 7//7 87//87
f 64//64 19//19 41//41
f 42//42 18//18 20//20
f 20//20 18//18 121//121
f 67//67 121//121 18//18
f 65//65 18//18 89//89
f 43//43 24//24 106//106
f 45//45 23//23 91//91
f 45//45 8//8 4//4
f 45//45 4//4 23//23
f 47//47 106//106 24//24
f 92//92 8//8 94//94
f 48//48 12//12 4//4
f 48//48 4//4 95//95
f 49//49 26//26 61//61
f 49//49 61//61 52//52
f 50//50 9//9 26//26
f 50//50 36//36 9//9
f 50//50 2//2 36//36
f 30//30 97//97 5//5
f 51//51 98//98 30//30
f 51//51 30//30 5//5
f 51//51 5//5 100//100
f 101//101 27//27 3//3
f 53//53 18//18 13//13
f 54//54 27//27 102//102
f 42//42 10//10 31//31
f 57//57 31//31 10//10
f 57//57 10//10 19//19
f 58//58 57//57 19//19
f 82//82 10//10 32//32
f 82//82 32//32 14//14
f 120//120 14//14 83//83
f 83//83 14//14 32//32
f 83//83 10//10 42//42
f 59//59 33//33 87//87
f 59//59 87//87 7//7
f 59//59 7//7 33//33
f 60//60 84//84 62//62
f 85//85 33//33 15//15
f 16//16 62//62 34//34
f 126//126 16//16 34//34
f 126//126 34//34 35//35
f 61//61 39//39 40//40
f 61//61 26//26 39//39
f 61//61 40//40 6//6
f 118//118 13//13 18//18
f 118//118 18//18 2//2
f 63//63 41//41 19//19
f 63//63 19//19 10//10
f 63//63 10//10 41//41
f 64//64 41//41 7//7
f 111//111 122//122 66//66
f 111//111 66//66 18//18
f 111//111 53//53 28//28
f 111//111 18//18 53//53
f 67//67 18//18 21//21
f 114//114 21//21 18//18
f 114//114 18//18 65//65
f 68//68 43//43 106//106
f 69//69 24//24 43//43
f 70//70 106//106 44//44
f 70//70 68//68 106//106
f 71//71 90//90 113//113
f 71//71 113//113 91//91
f 71//71 91//91 23//23
f 110//110 23//23 12//12
f 92//92 25//25 8//8
f 114//114 25//25 92//92
f 72//72 65//65 95//95
f 72//72 95//95 4//4
f 72//72 25//25 65//65
f 72//72 4//4 25//25
f 73//73 2//2 50//50
f 73//73 50//50 26//26
f 75//75 54//54 102//102
f 123//123 3//3 113//113
f 76//76 29//29 75//75
f 111//111 27//27 101//101
f 53//53 13//13 30//30
f 77//77 54//54 75//75
f 78//78 120//120 1//1
f 127//127 55//55 1//1
f 127//127 1//1 120//120
f 79//79 55//55 22//22
f 79//79 1//1 55//55
f 105//105 44//44 106//106
f 105//105 106//106 56//56
f 79//79 106//106 47//47
f 80//80 31//31 57//57
f 81//81 58//58 19//19
f 81//81 19//19 64//64
f 83//83 42//42 20//20
f 83//83 20//20 121//121
f 83//83 32//32 10//10
f 108//108 87//87 33//33
f 108//108 33//33 85//85
f 86//86 38//38 17//17
f 86//86 88//88 126//126
f 86//86 11//11 38//38
f 86//86 126//126 35//35
f 86//86 35//35 11//11
f 2//2 17//17 36//36
f 2//2 86//86 17//17
f 107//107 18//18 42//42
f 87//87 58//58 81//81
f 108//108 109//109 18//18
f 88//88 109//109 62//62
f 89//89 66//66 46//46
f 90//90 112//112 113//113
f 121//121 22//22 55//55
f 67//67 70//70 44//44
f 21//21 94//94 43//43
f 21//21 114//114 94//94
f 21//21 43//43 68//68
f 21//21 68//68 70//70
f 90//90 71//71 46//46
f 115//115 71//71 23//23
f 115//115 46//46 71//71
f 92//92 94//94 114//114
f 93//93 24//24 69//69
f 93//93 69//69 94//94
f 93//93 94//94 24//24
f 94//94 69//69 43//43
f 95//95 12//12 48//48
f 95//95 110//110 12//12
f 96//96 2//2 73//73
f 96//96 73//73 26//26
f 96//96 26//26 49//49
f 97//97 30//30 13//13
f 30//30 74//74 99//99
f 99//99 51//51 29//29
f 100//100 75//75 29//29
f 100//100 29//29 51//51
f 118//118 49//49 52//52
f 118//118 96//96 49//49
f 101//101 3//3 123//123
f 53//53 125//125 28//28
f 53//53 30//30 99//99
f 119//119 29//29 76//76
f 76//76 28//28 125//125
f 102//102 76//76 75//75
f 102//102 27//27 111//111
f 103//103 3//3 27//27
f 103//103 27//27 77//77
f 104//104 77//77 27//27
f 104//104 27//27 54//54
f 104//104 54//54 77//77
f 78//78 14//14 120//120
f 78//78 82//82 14//14
f 56//56 79//79 22//22
f 105//105 56//56 22//22
f 105//105 22//22 67//67
f 106//106 79//79 56//56
f 82//82 79//79 47//47
f 82//82 1//1 79//79
f 82//82 47//47 24//24
f 82//82 24//24 8//8
f 82//82 6//6 10//10
f 82//82 8//8 45//45
f 82//82 61//61 6//6
f 82//82 45//45 91//91
f 82//82 100//100 61//61
f 82//82 91//91 113//113
f 82//82 113//113 3//3
f 82//82 3//3 103//103
f 82//82 75//75 100//100
f 82//82 103//103 77//77
f 82//82 77//77 75//75
f 58//58 31//31 80//80
f 58//58 80//80 57//57
f 64//64 87//87 81//81
f 60//60 85//85 15//15
f 88//88 62//62 16//16
f 108//108 107//107 87//87
f 108//108 18//18 107//107
f 107//107 42//42 31//31
f 107//107 31//31 58//58
f 107//107 58//58 87//87
f 109//109 60//60 62//62
f 109//109 108//108 60//60
f 110//110 95//95 89//89
f 89//89 95//95 65//65
f 90//90 66//66 112//112
f 90//90 46//46 66//66
f 122//122 111//111 101//101
f 112//112 66//66 122//122
f 67//67 44//44 105//105
f 67//67 22//22 121//121
f 114//114 65//65 25//25
f 70//70 67//67 21//21
f 115//115 89//89 46//46
f 13//13 52//52 97//97
f 116//116 98//98 51//51
f 116//116 51//51 74//74
f 116//116 74//74 30//30
f 116//116 30//30 98//98
f 117//117 74//74 51//51
f 117//117 51//51 99//99
f 117//117 99//99 74//74
f 118//118 52//52 13//13
f 118//118 2//2 96//96
f 119//119 76//76 125//125
f 102//102 111//111 28//28
f 102//102 28//28 76//76
f 82//82 78//78 1//1
f 127//127 121//121 55//55
f 120//120 83//83 121//121
f 120//120 121//121 127//127
f 126//126 88//88 16//16
f 88//88 86//86 2//2
f 123//123 122//122 101//101
f 124//124 115//115 23//23
f 124//124 23//23 110//110
f 110//110 115//115 124//124
f 125//125 53//53 99//99
f 125//125 99//99 29//29
f 125//125 29//29 119//119
f 85//85 60//60 108//108
f 122//122 123//123 113//113
f 122//122 113//113 112//112
f 115//115 110//110 89//89
# 250 faces, 0 coords texture

# End of File
