####
#
# OBJ File Generated by Meshlab
#
####
# Object palmolive_green_250_collision.obj
#
# Vertices: 127
# Faces: 250
#
####
vn -0.308617 0.253116 -0.916890
v 0.014007 -0.009785 0.021526
vn -0.991088 0.118075 -0.061672
v -0.020494 -0.005871 0.045010
vn 0.779387 0.623501 0.061670
v 0.022508 0.013699 0.058708
vn -0.163437 -0.587905 -0.792248
v 0.011742 -0.025440 0.029417
vn -0.210508 0.796132 -0.567328
v 0.014916 0.005871 0.031311
vn 0.995576 -0.068578 -0.064230
v 0.026402 -0.013699 0.027397
vn -0.571038 0.783617 0.244665
v -0.007828 0.007828 0.159884
vn 0.484387 -0.843791 0.231056
v 0.015656 -0.024721 0.158512
vn -0.694370 0.276102 -0.664543
v -0.019569 -0.006713 0.041096
vn -0.421199 0.906760 -0.019452
v -0.011742 0.008077 0.060665
vn -0.899956 0.094924 0.425521
v -0.010339 -0.007828 0.174168
vn -0.151027 -0.863273 -0.481613
v 0.011286 -0.033268 0.037182
vn -0.838216 -0.545207 -0.011963
v -0.015656 -0.026724 0.064579
vn -0.013357 -0.980872 0.194193
v 0.001957 -0.028059 0.158512
vn -0.498666 -0.326983 -0.802754
v 0.009785 -0.019569 0.026967
vn -0.646320 0.654352 -0.392549
v -0.019569 -0.004797 0.043053
vn 0.194179 -0.556005 -0.808179
v 0.021297 -0.021551 0.027411
vn 0.928577 0.048602 -0.367945
v 0.026162 -0.009777 0.025440
vn 0.969957 0.068109 0.233547
v 0.021704 -0.007828 0.160469
vn -0.966099 -0.092093 0.241187
v -0.016603 -0.009785 0.158512
vn -0.267056 -0.670640 -0.692043
v 0.011355 -0.029354 0.033268
vn -0.802844 -0.533085 -0.266951
v -0.015798 -0.021526 0.050880
vn -0.469126 -0.847344 -0.248856
v -0.013699 -0.027397 0.060140
vn -0.385364 -0.921085 -0.055655
v -0.013699 -0.027980 0.062622
vn 0.470593 -0.867404 -0.161718
v 0.018766 -0.033268 0.045010
vn -0.083271 0.249793 -0.964712
v 0.015656 -0.007835 0.021526
vn -0.411023 -0.317187 -0.854665
v 0.011749 -0.013699 0.023483
vn -0.373263 -0.439185 -0.817185
v 0.010430 -0.021526 0.027397
vn -0.408410 0.881991 -0.235143
v -0.011375 0.008132 0.059355
vn 0.184292 0.846384 -0.499671
v 0.021629 0.007828 0.035225
vn 0.634229 0.766593 -0.100448
v 0.021913 0.013699 0.046967
vn -0.762190 0.638335 -0.107684
v -0.015656 0.003345 0.054794
vn -0.683400 0.717570 0.134382
v -0.010398 0.005871 0.158512
vn 0.080408 -0.697585 -0.711976
v 0.012912 -0.027397 0.031311
vn 0.819997 -0.373296 -0.433884
v 0.025453 -0.018619 0.027382
vn 0.453449 0.831006 0.322199
v 0.009785 0.009811 0.160469
vn 0.870423 -0.441456 0.217898
v 0.021526 -0.019778 0.158512
vn -0.917939 0.346204 0.193727
v -0.015656 -0.003651 0.158512
vn -0.689761 -0.341236 -0.638583
v -0.019266 -0.007828 0.041096
vn -0.942085 -0.294258 -0.160898
v -0.019709 -0.007828 0.043053
vn -0.569043 -0.757197 -0.320689
v -0.013699 -0.026843 0.058708
vn -0.573402 -0.813740 -0.095063
v -0.014880 -0.027397 0.062622
vn -0.268437 -0.941650 0.203071
v -0.001957 -0.027553 0.158512
vn -0.112716 -0.992769 0.041282
v 0.012429 -0.035225 0.048923
vn 0.467178 -0.880658 0.078649
v 0.018207 -0.033268 0.052837
vn 0.272017 -0.925474 0.263639
v 0.009785 -0.027397 0.159101
vn -0.110437 -0.987512 -0.112357
v 0.011830 -0.035250 0.044195
vn 0.655988 -0.753398 0.045513
v 0.018819 -0.033289 0.048750
vn 0.626851 -0.678159 -0.383612
v 0.021720 -0.027397 0.033268
vn -0.196748 0.627957 -0.752968
v 0.015159 0.003914 0.029354
vn 0.353765 0.742815 -0.568398
v 0.022424 0.003914 0.029354
vn 0.428038 0.439781 -0.789542
v 0.023293 -0.000084 0.025380
vn -0.168314 -0.226334 -0.959397
v 0.013699 -0.010173 0.021526
vn 0.040376 0.973431 -0.225392
v 0.021455 0.013686 0.045724
vn 0.736207 0.603542 -0.306164
v 0.022403 0.009785 0.039139
vn -0.795300 0.606034 0.014900
v -0.013693 0.005871 0.060665
vn -0.874241 0.485490 -0.001614
v -0.016550 0.001957 0.054794
vn -0.664094 0.747025 -0.030529
v -0.012146 0.007828 0.060665
vn -0.788606 0.441203 0.428300
v -0.009578 -0.002272 0.172211
vn 0.528331 -0.321009 -0.786015
v 0.024974 -0.015656 0.025440
vn 0.175913 0.594621 0.784526
v 0.003504 -0.000654 0.182459
vn 0.221719 0.973798 0.050587
v 0.021950 0.013699 0.062622
vn 0.407824 0.766088 0.496779
v 0.006890 0.001952 0.176125
vn -0.233312 0.972185 -0.020547
v -0.009785 0.008721 0.062622
vn -0.318445 0.924659 0.208801
v -0.003914 0.009785 0.159334
vn 0.925238 -0.189454 0.328698
v 0.021526 -0.019569 0.158707
vn 0.586433 -0.747684 0.311551
v 0.017411 -0.023483 0.158512
vn 0.844218 0.254485 0.471735
v 0.014785 -0.005871 0.174168
vn 0.959406 0.261377 0.105940
v 0.020988 -0.001957 0.158512
vn 0.984011 0.145908 0.102140
v 0.021526 -0.004840 0.158512
vn 0.801306 0.598064 0.015118
v 0.022635 0.013699 0.056751
vn -0.420733 -0.774383 0.472561
v -0.001957 -0.017270 0.180038
vn -0.767961 -0.598245 0.228778
v -0.011824 -0.021526 0.158512
vn -0.821875 -0.066400 0.565785
v -0.008448 -0.010457 0.178237
vn -0.572470 -0.611392 -0.546331
v -0.012712 -0.021344 0.045205
vn -0.512003 -0.830532 0.219247
v -0.007828 -0.024987 0.158512
vn 0.258705 -0.965417 0.032277
v 0.014602 -0.035231 0.050814
vn -0.140224 -0.951896 0.272456
v 0.000000 -0.027891 0.158512
vn 0.892421 0.379613 -0.243882
v 0.023731 0.000978 0.027615
vn -0.792935 0.581353 0.182434
v -0.011743 0.004437 0.158568
vn 0.299567 -0.164315 -0.939819
v 0.022275 -0.013661 0.023480
vn -0.721324 0.419999 0.550720
v -0.007037 -0.003629 0.176942
vn -0.111032 0.971458 0.209621
v 0.003914 0.011742 0.159078
vn -0.076641 0.997055 -0.002791
v 0.020911 0.013699 0.054794
vn -0.152548 0.987925 0.027073
v 0.002940 0.011754 0.156949
vn 0.928955 -0.063910 0.364633
v 0.021526 -0.011471 0.160415
vn 0.900555 0.285555 0.327808
v 0.020117 0.000025 0.160404
vn 0.698658 0.633734 0.332051
v 0.017612 0.003914 0.160004
vn -0.340409 -0.847911 0.406410
v -0.002935 -0.022557 0.168297
vn -0.563414 -0.433455 0.703335
v -0.003943 -0.014433 0.181949
vn -0.684966 -0.249541 0.684508
v -0.006613 -0.011123 0.179394
vn -0.645223 -0.712998 0.274448
v -0.009926 -0.023479 0.158600
vn 0.125630 -0.916806 0.379056
v 0.007843 -0.027394 0.160176
vn -0.265064 -0.856743 0.442416
v -0.000572 -0.017831 0.180038
vn 0.407228 -0.808184 0.425445
v 0.012141 -0.025638 0.160469
vn -0.851820 0.267906 0.450143
v -0.010600 -0.004892 0.172211
vn -0.964048 0.117999 0.238094
v -0.016622 -0.007827 0.158541
vn -0.660866 0.598769 0.452473
v -0.006961 0.000946 0.172211
vn 0.147569 0.927382 0.343783
v 0.005868 0.011742 0.159380
vn -0.173465 0.872124 0.457504
v 0.000000 0.003806 0.173956
vn -0.460631 0.580690 0.671281
v 0.000000 0.000215 0.180402
vn 0.734963 -0.396609 0.550029
v 0.010808 -0.013699 0.180038
vn 0.336475 0.940467 0.048030
v 0.022299 0.013699 0.060665
vn 0.977457 0.207777 -0.037511
v 0.024131 0.006079 0.048808
vn -0.606910 -0.674770 0.419935
v -0.006951 -0.017409 0.173189
vn -0.909435 -0.337950 0.242316
v -0.015515 -0.015656 0.158512
vn -0.445316 -0.892791 0.067963
v -0.006922 -0.025440 0.158512
vn 0.176780 -0.838614 0.515242
v 0.003914 -0.018168 0.180038
vn -0.435428 0.152552 0.887204
v -0.003028 -0.006429 0.183510
vn 0.610481 0.737518 0.288758
v 0.015654 0.005696 0.160474
vn 0.518658 0.714032 0.470268
v 0.009770 0.003904 0.170254
vn -0.556235 0.628823 0.543309
v -0.004282 0.001634 0.174818
vn 0.602616 -0.123075 0.788484
v 0.011669 -0.011742 0.180038
vn 0.494618 -0.319023 0.808442
v 0.009257 -0.015232 0.180869
vn 0.608812 0.604370 0.513891
v 0.010165 -0.000650 0.176125
vn 0.743582 0.440371 0.503150
v 0.013142 -0.003628 0.175146
vn -0.742097 -0.530896 0.409197
v -0.009785 -0.016155 0.170254
vn -0.773756 -0.389398 0.499671
v -0.007949 -0.013209 0.176698
vn -0.412491 -0.885699 0.213045
v -0.005868 -0.025956 0.158627
vn 0.274780 -0.830026 0.485338
v 0.006086 -0.017612 0.180155
vn 0.747750 0.124414 0.652220
v 0.012901 -0.009612 0.179088
vn 0.839072 0.495174 0.225302
v 0.019569 0.001956 0.159522
vn -0.069499 -0.777179 0.625430
v 0.001885 -0.017610 0.181717
vn 0.122868 -0.203062 0.971426
v 0.004403 -0.013699 0.183151
vn 0.371478 -0.677671 0.634639
v 0.007339 -0.016177 0.181582
vn 0.625901 0.357934 0.692915
v 0.010087 -0.005171 0.180558
vn 0.362612 0.013864 0.931837
v 0.007787 -0.009779 0.182807
# 127 vertices, 0 vertices normals

f 50//50 9//9 5//5
f 16//16 9//9 2//2
f 16//16 5//5 9//9
f 19//19 6//6 18//18
f 21//21 12//12 75//75
f 21//21 75//75 4//4
f 23//23 12//12 47//47
f 24//24 23//23 47//47
f 26//26 1//1 9//9
f 28//28 4//4 75//75
f 28//28 15//15 27//27
f 30//30 5//5 54//54
f 32//32 16//16 2//2
f 33//33 80//80 7//7
f 34//34 4//4 17//17
f 34//34 21//21 4//4
f 34//34 12//12 21//21
f 106//106 20//20 2//2
f 106//106 2//2 13//13
f 39//39 28//28 75//75
f 39//39 15//15 28//28
f 39//39 27//27 15//15
f 40//40 22//22 13//13
f 40//40 13//13 2//2
f 40//40 39//39 22//22
f 40//40 2//2 9//9
f 40//40 9//9 39//39
f 41//41 75//75 12//12
f 41//41 12//12 23//23
f 42//42 13//13 22//22
f 42//42 23//23 24//24
f 42//42 41//41 23//23
f 42//42 22//22 41//41
f 43//43 24//24 47//47
f 44//44 43//43 47//47
f 45//45 77//77 48//48
f 45//45 48//48 8//8
f 45//45 8//8 77//77
f 46//46 77//77 8//8
f 46//46 14//14 77//77
f 47//47 12//12 25//25
f 47//47 25//25 77//77
f 48//48 77//77 25//25
f 49//49 25//25 12//12
f 49//49 12//12 34//34
f 49//49 48//48 25//25
f 49//49 37//37 48//48
f 49//49 35//35 37//37
f 50//50 26//26 9//9
f 50//50 52//52 26//26
f 51//51 79//79 52//52
f 51//51 52//52 50//50
f 51//51 50//50 5//5
f 51//51 5//5 30//30
f 53//53 1//1 26//26
f 53//53 9//9 1//1
f 53//53 39//39 9//9
f 53//53 27//27 39//39
f 53//53 28//28 27//27
f 53//53 26//26 81//81
f 53//53 81//81 17//17
f 53//53 17//17 4//4
f 53//53 4//4 28//28
f 54//54 5//5 29//29
f 29//29 5//5 16//16
f 29//29 16//16 32//32
f 55//55 54//54 31//31
f 55//55 79//79 51//51
f 55//55 51//51 30//30
f 55//55 30//30 54//54
f 56//56 32//32 80//80
f 57//57 32//32 2//2
f 57//57 80//80 32//32
f 57//57 38//38 80//80
f 57//57 2//2 38//38
f 58//58 80//80 33//33
f 58//58 33//33 7//7
f 58//58 7//7 10//10
f 58//58 32//32 56//56
f 58//58 56//56 80//80
f 98//98 7//7 80//80
f 60//60 35//35 17//17
f 60//60 17//17 81//81
f 60//60 18//18 35//35
f 35//35 18//18 6//6
f 35//35 6//6 37//37
f 62//62 36//36 110//110
f 62//62 99//99 36//36
f 64//64 54//54 29//29
f 64//64 29//29 10//10
f 65//65 10//10 7//7
f 65//65 64//64 10//10
f 86//86 19//19 121//121
f 66//66 37//37 6//6
f 66//66 6//6 19//19
f 67//67 8//8 48//48
f 67//67 48//48 37//37
f 68//68 121//121 19//19
f 68//68 19//19 87//87
f 122//122 69//69 3//3
f 122//122 87//87 69//69
f 70//70 19//19 18//18
f 70//70 18//18 104//104
f 71//71 70//70 104//104
f 71//71 3//3 69//69
f 71//71 69//69 70//70
f 97//97 38//38 2//2
f 97//97 2//2 20//20
f 97//97 20//20 11//11
f 73//73 106//106 13//13
f 74//74 11//11 20//20
f 74//74 20//20 106//106
f 75//75 41//41 22//22
f 75//75 22//22 39//39
f 76//76 13//13 42//42
f 77//77 14//14 44//44
f 77//77 44//44 47//47
f 78//78 44//44 14//14
f 78//78 43//43 44//44
f 123//123 78//78 14//14
f 95//95 46//46 8//8
f 17//17 49//49 34//34
f 17//17 35//35 49//49
f 79//79 18//18 52//52
f 29//29 32//32 58//58
f 29//29 58//58 10//10
f 96//96 59//59 38//38
f 80//80 38//38 59//59
f 81//81 18//18 60//60
f 52//52 18//18 81//81
f 52//52 81//81 26//26
f 112//112 7//7 98//98
f 83//83 62//62 85//85
f 83//83 99//99 62//62
f 83//83 85//85 65//65
f 84//84 85//85 62//62
f 84//84 54//54 64//64
f 61//61 63//63 99//99
f 85//85 64//64 65//65
f 85//85 84//84 64//64
f 112//112 100//100 65//65
f 112//112 65//65 7//7
f 86//86 66//66 19//19
f 86//86 121//121 66//66
f 87//87 70//70 69//69
f 87//87 19//19 70//70
f 104//104 55//55 31//31
f 104//104 31//31 71//71
f 104//104 79//79 55//55
f 105//105 76//76 72//72
f 92//92 73//73 13//13
f 92//92 13//13 76//76
f 92//92 76//76 105//105
f 119//119 43//43 89//89
f 119//119 24//24 43//43
f 119//119 42//42 24//24
f 93//93 123//123 14//14
f 93//93 14//14 46//46
f 94//94 43//43 78//78
f 94//94 78//78 123//123
f 94//94 89//89 43//43
f 125//125 95//95 8//8
f 125//125 8//8 67//67
f 96//96 97//97 11//11
f 97//97 96//96 38//38
f 98//98 80//80 59//59
f 82//82 59//59 96//96
f 99//99 83//83 100//100
f 99//99 100//100 61//61
f 100//100 83//83 65//65
f 102//102 114//114 37//37
f 102//102 37//37 66//66
f 114//114 67//67 37//37
f 114//114 125//125 67//67
f 116//116 68//68 87//87
f 103//103 62//62 110//110
f 103//103 110//110 88//88
f 103//103 88//88 122//122
f 103//103 122//122 3//3
f 103//103 84//84 62//62
f 103//103 3//3 71//71
f 103//103 71//71 31//31
f 103//103 31//31 54//54
f 103//103 54//54 84//84
f 18//18 79//79 104//104
f 90//90 105//105 72//72
f 119//119 89//89 72//72
f 119//119 72//72 76//76
f 107//107 76//76 42//42
f 107//107 42//42 119//119
f 108//108 123//123 93//93
f 94//94 72//72 89//89
f 120//120 95//95 125//125
f 120//120 46//46 95//95
f 120//120 93//93 46//46
f 74//74 96//96 11//11
f 74//74 82//82 96//96
f 82//82 98//98 59//59
f 82//82 112//112 98//98
f 109//109 82//82 74//74
f 109//109 74//74 91//91
f 111//111 110//110 36//36
f 101//101 61//61 100//100
f 101//101 100//100 112//112
f 113//113 102//102 66//66
f 113//113 66//66 121//121
f 114//114 102//102 113//113
f 121//121 68//68 116//116
f 115//115 88//88 110//110
f 115//115 110//110 111//111
f 115//115 111//111 63//63
f 115//115 63//63 61//61
f 126//126 121//121 116//116
f 116//116 115//115 126//126
f 116//116 122//122 88//88
f 116//116 88//88 115//115
f 90//90 124//124 109//109
f 123//123 90//90 72//72
f 123//123 124//124 90//90
f 117//117 73//73 92//92
f 117//117 92//92 105//105
f 117//117 106//106 73//73
f 118//118 91//91 74//74
f 118//118 106//106 117//117
f 118//118 74//74 106//106
f 119//119 76//76 107//107
f 120//120 108//108 93//93
f 82//82 109//109 112//112
f 126//126 115//115 61//61
f 61//61 109//109 127//127
f 61//61 101//101 112//112
f 61//61 112//112 109//109
f 91//91 90//90 109//109
f 63//63 111//111 36//36
f 63//63 36//36 99//99
f 121//121 114//114 113//113
f 114//114 124//124 125//125
f 114//114 127//127 124//124
f 122//122 116//116 87//87
f 90//90 91//91 118//118
f 123//123 72//72 94//94
f 127//127 109//109 124//124
f 125//125 124//124 123//123
f 90//90 117//117 105//105
f 90//90 118//118 117//117
f 125//125 123//123 108//108
f 125//125 108//108 120//120
f 126//126 61//61 127//127
f 127//127 114//114 121//121
f 121//121 126//126 127//127
# 250 faces, 0 coords texture

# End of File
