####
#
# OBJ File Generated by Meshlab
#
####
# Object dove_pink_250_collision.obj
#
# Vertices: 127
# Faces: 250
#
####
vn 0.107755 0.232203 0.966680
v 0.003234 -0.039922 0.000034
vn -0.020198 0.009678 0.999749
v 0.004309 -0.007232 -0.001884
vn 0.956942 0.096657 0.273716
v -0.011774 -0.007494 0.007534
vn 0.995336 0.094697 0.018431
v -0.014116 -0.003032 0.032635
vn -0.992746 -0.111527 0.044912
v 0.023025 -0.008303 0.038030
vn -0.076061 -0.041193 0.996252
v 0.004285 0.015890 -0.001681
vn 0.996128 -0.087909 -0.000879
v -0.017712 0.031296 0.043925
vn -0.317195 -0.532465 -0.784773
v 0.013487 0.039018 0.070094
vn 0.140228 0.731995 0.666722
v 0.000997 -0.045747 0.002960
vn 0.882100 0.202806 0.425169
v -0.008845 -0.038047 0.006740
vn 0.192985 0.057337 0.979525
v 0.000983 -0.025143 -0.000915
vn 0.505803 0.134298 0.852131
v -0.005064 -0.036771 0.001794
vn 0.422714 0.050056 0.904880
v -0.004119 -0.010656 -0.000012
vn 0.720309 0.069296 0.690183
v -0.008275 -0.009292 0.002523
vn 0.555288 0.452280 0.697924
v -0.004651 -0.042702 0.003469
vn 0.611123 0.751336 0.249044
v -0.007803 -0.047977 0.016664
vn 0.494527 0.869064 0.013064
v -0.003971 -0.049343 0.035936
vn 0.946997 0.319259 -0.035641
v -0.011357 -0.040842 0.030433
vn 0.906828 0.097970 0.409958
v -0.010939 -0.016196 0.008389
vn 0.943743 0.329009 0.033204
v -0.012292 -0.043059 0.021412
vn 0.990216 0.038690 0.134072
v -0.011964 -0.024230 0.015869
vn 0.999195 0.039871 -0.004506
v -0.012432 -0.028898 0.030917
vn 0.997521 0.057457 0.040621
v -0.012209 -0.018784 0.026715
vn 0.993087 0.103567 0.055250
v -0.014158 -0.002035 0.021683
vn 0.090167 0.994561 0.052134
v 0.001153 -0.051834 0.044436
vn 0.996999 0.076758 0.010110
v -0.011818 -0.037846 0.046333
vn 0.395738 0.917781 -0.032696
v -0.005160 -0.050531 0.052268
vn 0.880581 0.473872 0.004708
v -0.011369 -0.044675 0.048570
vn 0.066313 0.685561 -0.724989
v 0.000749 -0.049889 0.068668
vn 0.632728 0.532358 -0.562361
v -0.006373 -0.047485 0.068362
vn 0.996333 0.079840 0.030763
v -0.013473 -0.018332 0.051292
vn 0.998005 0.062414 0.009530
v -0.012723 -0.028000 0.047874
vn 0.963021 0.061764 -0.262250
v -0.012807 -0.024241 0.062992
vn 0.630111 0.064983 -0.773781
v -0.010528 -0.032469 0.069473
vn 0.954833 0.077325 -0.286907
v -0.012441 -0.033712 0.066072
vn 0.101635 0.065425 -0.992668
v 0.000191 -0.033514 0.073065
vn 0.580675 -0.073354 -0.810824
v -0.007541 -0.019586 0.070386
vn -0.329646 -0.052402 -0.942649
v 0.014643 -0.010920 0.069904
vn 0.048401 -0.007008 -0.998803
v 0.004107 -0.007604 0.071441
vn 0.573203 0.050316 -0.817867
v -0.010729 -0.008169 0.068432
vn 0.222858 0.005808 0.974834
v -0.003465 0.012973 -0.001333
vn 0.783679 0.091864 0.614335
v -0.009472 -0.000911 0.002798
vn 0.533967 0.049890 0.844032
v -0.008334 0.007518 0.001139
vn 0.901977 0.103871 0.419103
v -0.012983 0.016762 0.005590
vn 0.714943 -0.087795 0.693648
v -0.013122 0.029968 0.003357
vn 0.355023 -0.107533 0.928653
v -0.008130 0.028514 0.000322
vn 0.289393 -0.529045 0.797724
v -0.006439 0.036301 0.002003
vn 0.042200 -0.198893 0.979112
v 0.000819 0.030669 -0.000956
vn -0.083639 -0.636288 0.766904
v 0.006697 0.039610 0.002710
vn 0.979557 0.122739 0.159384
v -0.014910 0.013660 0.013790
vn 0.942346 0.006489 0.334578
v -0.015735 0.027444 0.008181
vn 0.992012 -0.050962 0.115395
v -0.017249 0.027368 0.014654
vn 0.994288 0.103842 0.024669
v -0.015481 0.014445 0.029671
vn 0.776719 -0.478567 0.409489
v -0.013425 0.037984 0.007841
vn 0.843114 -0.530971 0.085024
v -0.014881 0.037888 0.014434
vn 0.912001 -0.408176 0.040575
v -0.016411 0.034590 0.024974
vn 0.276576 -0.926329 0.255775
v -0.007296 0.044066 0.014661
vn 0.994190 0.096980 0.046694
v -0.014651 0.002024 0.050357
vn 0.994977 0.096459 0.026775
v -0.016401 0.015646 0.048283
vn 0.954188 0.089867 -0.285392
v -0.015661 0.000482 0.063258
vn 0.309651 0.056301 -0.949182
v -0.007940 0.011125 0.071595
vn 0.914306 -0.044363 -0.402586
v -0.017088 0.028075 0.065934
vn 0.762183 -0.464097 -0.451322
v -0.014486 0.035174 0.068414
vn 0.831646 -0.554467 -0.030509
v -0.014157 0.041146 0.047714
vn 0.532006 -0.846205 0.030116
v -0.009712 0.043525 0.036839
vn 0.050083 -0.998653 0.013593
v -0.000135 0.045579 0.039575
vn 0.542971 -0.370654 -0.753524
v -0.009881 0.036338 0.071437
vn 0.396888 -0.887480 -0.234220
v -0.007529 0.044951 0.062988
vn 0.618143 -0.029502 -0.785512
v -0.007870 0.031487 0.072573
vn 0.210010 -0.126325 -0.969504
v -0.006736 0.034194 0.073959
vn 0.113155 -0.703953 -0.701174
v -0.001361 0.043009 0.070578
vn -0.227755 0.398934 0.888245
v 0.013758 -0.041125 0.001300
vn -0.575616 0.278199 0.768942
v 0.019282 -0.039592 0.003005
vn -0.189623 0.002965 0.981852
v 0.008222 -0.009339 -0.001416
vn -0.014016 0.051905 0.998554
v 0.006416 -0.026844 -0.001228
vn -0.848720 0.225381 0.478412
v 0.023346 -0.040410 0.007381
vn -0.186241 0.083202 0.978975
v 0.012302 -0.034195 -0.000448
vn -0.426090 0.065220 0.902327
v 0.017579 -0.033941 0.001193
vn -0.725517 -0.076946 0.683889
v 0.018837 -0.022025 0.002361
vn -0.936763 -0.118916 0.329141
v 0.022116 -0.023112 0.006923
vn -0.422901 -0.039554 0.905312
v 0.012738 -0.009866 0.000014
vn -0.014485 0.990219 0.138771
v 0.004653 -0.052352 0.016741
vn -0.415908 0.791570 0.447703
v 0.017479 -0.047415 0.008191
vn -0.882317 0.456965 0.112691
v 0.023971 -0.044223 0.016052
vn -0.991877 -0.015508 0.126256
v 0.025734 -0.034552 0.015772
vn -0.999301 0.025032 0.027752
v 0.026202 -0.034403 0.037908
vn -0.133995 0.989520 0.053806
v 0.010627 -0.051135 0.031427
vn -0.959807 -0.117169 0.255032
v 0.022133 -0.013277 0.011255
vn -0.990436 -0.121077 0.066152
v 0.023192 -0.017603 0.026197
vn -0.285614 0.958133 0.020132
v 0.016319 -0.050557 0.047708
vn -0.677085 0.734831 0.039738
v 0.023056 -0.045858 0.034678
vn -0.130009 0.988231 0.080601
v 0.007893 -0.051927 0.059933
vn -0.276433 0.849294 -0.449761
v 0.018560 -0.049462 0.066864
vn -0.041416 0.399987 -0.915585
v 0.010515 -0.046148 0.069359
vn -0.194977 0.105052 -0.975166
v 0.013990 -0.034105 0.072273
vn -0.665076 0.628191 -0.403794
v 0.020598 -0.048015 0.068168
vn -0.991688 -0.115716 -0.056261
v 0.023749 -0.012482 0.055149
vn -0.802764 -0.040217 -0.594939
v 0.025066 -0.032521 0.066367
vn -0.985245 0.142161 -0.095300
v 0.026871 -0.037257 0.058892
vn -0.893987 -0.066124 -0.443187
v 0.021746 -0.005430 0.064570
vn -0.789660 -0.061900 0.610415
v 0.016737 0.002052 0.004164
vn -0.343058 -0.031115 0.938799
v 0.009731 0.011567 -0.000913
vn -0.269819 -0.191279 0.943721
v 0.008404 0.032667 0.000323
vn -0.636298 -0.087892 0.766420
v 0.014347 0.025108 0.002083
vn -0.917104 -0.085678 0.389333
v 0.018154 0.020345 0.006978
vn -0.987039 -0.085775 0.135632
v 0.020656 0.007798 0.016561
vn -0.974938 -0.176045 0.136031
v 0.019082 0.031749 0.016239
vn -0.996452 -0.068570 0.048809
v 0.019438 0.012995 0.032759
vn -0.991165 -0.122577 0.050658
v 0.019273 0.033086 0.028589
vn -0.698100 -0.395133 0.597098
v 0.013362 0.036634 0.003928
vn -0.756201 -0.634019 0.161798
v 0.015928 0.040332 0.014242
vn -0.303206 -0.869747 0.389367
v 0.009396 0.043532 0.009524
vn -0.245904 -0.965994 0.079913
v 0.009170 0.045268 0.017252
vn -0.845338 -0.531454 0.054405
v 0.017483 0.038128 0.022734
vn -0.390513 -0.920384 0.019837
v 0.010571 0.044184 0.034547
vn -0.997488 -0.068291 0.018797
v 0.022116 0.008948 0.050308
vn -0.999208 -0.024071 -0.031679
v 0.021036 0.015547 0.061516
vn -0.992962 -0.047688 0.108410
v 0.020367 0.022710 0.042110
vn -0.991549 -0.129496 0.007837
v 0.021214 0.033474 0.053018
vn -0.303214 0.010856 -0.952861
v 0.011520 0.008423 0.071467
vn -0.865491 -0.037158 -0.499545
v 0.021010 0.022303 0.066356
vn -0.343872 -0.023039 -0.938734
v 0.014229 0.029451 0.070563
vn -0.926735 -0.371387 0.056872
v 0.019354 0.037213 0.043513
vn -0.551460 -0.834095 0.013360
v 0.013515 0.044411 0.049603
vn -0.176284 -0.964609 -0.196096
v 0.007344 0.046101 0.062907
vn -0.410699 -0.868521 -0.277482
v 0.013338 0.043355 0.062448
vn -0.765817 -0.516911 -0.382528
v 0.018101 0.039741 0.066700
# 127 vertices, 0 vertices normals

f 10//10 15//15 12//12
f 15//15 9//9 1//1
f 12//12 15//15 1//1
f 12//12 1//1 11//11
f 11//11 1//1 75//75
f 11//11 13//13 12//12
f 11//11 75//75 2//2
f 11//11 2//2 41//41
f 14//14 12//12 13//13
f 14//14 10//10 12//12
f 19//19 10//10 14//14
f 11//11 41//41 13//13
f 19//19 14//14 42//42
f 19//19 42//42 3//3
f 15//15 16//16 9//9
f 82//82 9//9 16//16
f 15//15 10//10 16//16
f 20//20 16//16 10//10
f 17//17 16//16 20//20
f 17//17 82//82 16//16
f 26//26 18//18 22//22
f 18//18 17//17 20//20
f 17//17 18//18 28//28
f 87//87 82//82 17//17
f 87//87 17//17 25//25
f 28//28 18//18 26//26
f 23//23 22//22 21//21
f 20//20 10//10 21//21
f 21//21 10//10 19//19
f 20//20 21//21 22//22
f 23//23 3//3 24//24
f 21//21 19//19 3//3
f 23//23 21//21 3//3
f 32//32 23//23 31//31
f 18//18 20//20 22//22
f 22//22 23//23 32//32
f 4//4 23//23 24//24
f 31//31 4//4 58//58
f 27//27 17//17 28//28
f 25//25 17//17 27//27
f 27//27 28//28 30//30
f 27//27 92//92 25//25
f 27//27 29//29 92//92
f 30//30 29//29 27//27
f 93//93 92//92 29//29
f 28//28 26//26 35//35
f 30//30 28//28 35//35
f 30//30 35//35 34//34
f 29//29 94//94 93//93
f 34//34 36//36 30//30
f 29//29 30//30 36//36
f 32//32 26//26 22//22
f 31//31 23//23 4//4
f 31//31 58//58 60//60
f 33//33 26//26 32//32
f 33//33 32//32 31//31
f 35//35 26//26 33//33
f 37//37 36//36 34//34
f 37//37 34//34 35//35
f 35//35 33//33 37//37
f 39//39 36//36 37//37
f 38//38 36//36 39//39
f 33//33 31//31 60//60
f 40//40 33//33 60//60
f 37//37 33//33 40//40
f 40//40 39//39 37//37
f 41//41 2//2 6//6
f 42//42 14//14 43//43
f 43//43 14//14 13//13
f 42//42 43//43 45//45
f 43//43 13//13 41//41
f 44//44 3//3 42//42
f 44//44 42//42 45//45
f 45//45 43//43 46//46
f 46//46 43//43 41//41
f 48//48 41//41 6//6
f 51//51 44//44 45//45
f 46//46 41//41 48//48
f 47//47 45//45 46//46
f 54//54 45//45 47//47
f 48//48 47//47 46//46
f 47//47 48//48 49//49
f 48//48 103//103 49//49
f 54//54 47//47 57//57
f 49//49 57//57 47//47
f 24//24 3//3 50//50
f 50//50 3//3 44//44
f 24//24 50//50 53//53
f 50//50 44//44 51//51
f 52//52 50//50 51//51
f 53//53 50//50 52//52
f 24//24 53//53 4//4
f 59//59 58//58 4//4
f 4//4 53//53 59//59
f 59//59 53//53 7//7
f 53//53 52//52 7//7
f 7//7 52//52 56//56
f 51//51 45//45 54//54
f 54//54 52//52 51//51
f 52//52 54//54 55//55
f 55//55 56//56 52//52
f 55//55 54//54 57//57
f 112//112 57//57 49//49
f 57//57 112//112 113//113
f 66//66 65//65 57//57
f 57//57 113//113 66//66
f 56//56 55//55 65//65
f 56//56 65//65 64//64
f 57//57 65//65 55//55
f 59//59 60//60 58//58
f 59//59 7//7 62//62
f 61//61 40//40 60//60
f 39//39 40//40 61//61
f 120//120 39//39 61//61
f 60//60 59//59 62//62
f 61//61 60//60 62//62
f 61//61 62//62 70//70
f 63//63 69//69 70//70
f 63//63 70//70 62//62
f 122//122 61//61 70//70
f 7//7 56//56 64//64
f 68//68 64//64 65//65
f 68//68 65//65 66//66
f 68//68 66//66 125//125
f 64//64 62//62 7//7
f 62//62 64//64 63//63
f 63//63 64//64 68//68
f 71//71 68//68 125//125
f 63//63 68//68 67//67
f 67//67 69//69 63//63
f 67//67 70//70 69//69
f 71//71 70//70 67//67
f 70//70 8//8 122//122
f 8//8 70//70 71//71
f 67//67 68//68 71//71
f 83//83 72//72 9//9
f 9//9 72//72 1//1
f 72//72 77//77 1//1
f 73//73 78//78 72//72
f 73//73 72//72 83//83
f 1//1 77//77 75//75
f 78//78 77//77 72//72
f 73//73 79//79 78//78
f 73//73 76//76 79//79
f 76//76 80//80 79//79
f 75//75 77//77 74//74
f 77//77 81//81 74//74
f 81//81 77//77 78//78
f 81//81 78//78 79//79
f 2//2 75//75 74//74
f 79//79 101//101 81//81
f 101//101 79//79 88//88
f 79//79 80//80 88//88
f 82//82 83//83 9//9
f 83//83 84//84 76//76
f 83//83 76//76 73//73
f 91//91 83//83 82//82
f 84//84 83//83 91//91
f 85//85 76//76 84//84
f 84//84 86//86 85//85
f 91//91 82//82 87//87
f 87//87 90//90 91//91
f 25//25 90//90 87//87
f 86//86 84//84 91//91
f 99//99 86//86 91//91
f 85//85 80//80 76//76
f 85//85 89//89 80//80
f 89//89 88//88 80//80
f 89//89 85//85 86//86
f 5//5 89//89 86//86
f 5//5 106//106 88//88
f 5//5 88//88 89//89
f 90//90 25//25 92//92
f 92//92 96//96 90//90
f 96//96 91//91 90//90
f 99//99 91//91 96//96
f 93//93 96//96 92//92
f 94//94 96//96 93//93
f 95//95 94//94 29//29
f 36//36 95//95 29//29
f 96//96 94//94 95//95
f 98//98 96//96 95//95
f 98//98 99//99 96//96
f 86//86 97//97 5//5
f 95//95 36//36 38//38
f 38//38 98//98 95//95
f 98//98 97//97 99//99
f 97//97 86//86 99//99
f 100//100 98//98 38//38
f 100//100 97//97 98//98
f 102//102 6//6 2//2
f 102//102 2//2 74//74
f 74//74 81//81 102//102
f 101//101 102//102 81//81
f 101//101 104//104 102//102
f 104//104 101//101 105//105
f 103//103 102//102 104//104
f 6//6 102//102 103//103
f 48//48 6//6 103//103
f 103//103 104//104 110//110
f 49//49 103//103 110//110
f 101//101 88//88 106//106
f 106//106 105//105 101//101
f 107//107 105//105 106//106
f 5//5 108//108 106//106
f 108//108 5//5 116//116
f 108//108 107//107 106//106
f 107//107 108//108 109//109
f 118//118 108//108 116//116
f 118//118 109//109 108//108
f 123//123 109//109 118//118
f 110//110 104//104 105//105
f 107//107 110//110 105//105
f 107//107 111//111 110//110
f 114//114 111//111 107//107
f 49//49 110//110 112//112
f 112//112 110//110 111//111
f 113//113 112//112 111//111
f 114//114 107//107 109//109
f 115//115 66//66 113//113
f 111//111 115//115 113//113
f 123//123 114//114 109//109
f 114//114 115//115 111//111
f 124//124 115//115 114//114
f 123//123 124//124 114//114
f 116//116 5//5 97//97
f 116//116 97//97 100//100
f 119//119 123//123 118//118
f 119//119 116//116 117//117
f 117//117 121//121 119//119
f 118//118 116//116 119//119
f 100//100 117//117 116//116
f 100//100 121//121 117//117
f 120//120 38//38 39//39
f 38//38 120//120 100//100
f 120//120 121//121 100//100
f 120//120 122//122 121//121
f 122//122 120//120 61//61
f 66//66 115//115 125//125
f 125//125 115//115 124//124
f 119//119 127//127 123//123
f 125//125 124//124 126//126
f 124//124 123//123 127//127
f 121//121 127//127 119//119
f 126//126 124//124 127//127
f 127//127 121//121 122//122
f 8//8 127//127 122//122
f 125//125 126//126 8//8
f 125//125 8//8 71//71
f 127//127 8//8 126//126
# 250 faces, 0 coords texture

# End of File
