####
#
# OBJ File Generated by Meshlab
#
####
# Object bumblebee_albacore_250_collision.obj
#
# Vertices: 127
# Faces: 250
#
####
vn -0.057834 0.995224 -0.078637
v 0.000227 0.053162 0.013690
vn 0.070900 -0.349765 0.934151
v -0.007828 -0.039139 0.033766
vn 0.883549 -0.255236 -0.392678
v 0.045177 -0.009785 0.007828
vn 0.149695 -0.889554 -0.431607
v 0.013699 -0.040176 0.009785
vn 0.137310 0.895975 -0.422344
v 0.008799 0.051204 0.005871
vn -0.807244 0.500064 -0.313518
v -0.035225 0.033751 0.005871
vn 0.814127 0.474081 -0.335327
v 0.042843 0.029354 0.005871
vn 0.046055 -0.007105 0.998914
v 0.039139 -0.009785 0.032549
vn 0.445106 -0.850145 0.281307
v 0.023483 -0.031104 0.029354
vn -0.929973 0.123293 -0.346336
v -0.043053 0.011418 0.005871
vn -0.157582 0.604447 -0.780904
v -0.018034 0.048923 0.005871
vn -0.612937 0.730029 0.302267
v -0.025440 0.042059 0.029354
vn 0.946288 0.017405 0.322857
v 0.047343 0.007762 0.030025
vn 0.051397 0.006120 0.998660
v 0.039139 0.025440 0.032627
vn 0.114779 -0.146556 0.982521
v 0.025440 -0.025440 0.032548
vn -0.916887 -0.399120 0.004670
v -0.039102 -0.011742 0.011742
vn -0.088564 0.741684 -0.664877
v -0.004020 0.051167 0.005871
vn 0.116968 0.990964 -0.065642
v 0.007930 0.052902 0.013809
vn 0.576497 0.805582 -0.136708
v 0.029354 0.044936 0.011742
vn -0.835756 0.541429 0.091465
v -0.035225 0.030678 0.029354
vn -0.617229 0.780868 -0.096295
v -0.023483 0.046967 0.006201
vn -0.379025 -0.763171 0.523365
v -0.009780 -0.039139 0.033104
vn 0.083867 -0.232415 -0.968994
v 0.022430 -0.031313 0.005871
vn -0.071466 -0.376126 -0.923808
v -0.015954 -0.037318 0.007884
vn 0.260765 -0.566235 0.781907
v 0.019569 -0.031311 0.031874
vn 0.265180 -0.893401 0.362649
v 0.015656 -0.034238 0.029354
vn -0.961360 0.161326 0.223071
v -0.041096 0.016565 0.029354
vn -0.864615 -0.272094 -0.422380
v -0.039355 -0.009785 0.007828
vn -0.854250 -0.303794 0.421860
v -0.038759 -0.007752 0.030647
vn -0.993936 -0.099157 0.047539
v -0.042637 0.005655 0.012961
vn -0.595594 0.202309 -0.777392
v -0.041096 0.017595 0.005871
vn -0.241172 -0.083193 -0.966910
v -0.035225 -0.013947 0.005871
vn -0.164511 0.975309 -0.147337
v -0.009785 0.051135 0.009785
vn 0.009598 0.547004 0.837075
v 0.010274 0.049902 0.032074
vn 0.461307 0.729235 -0.505382
v 0.026467 0.045010 0.005871
vn -0.840557 0.442726 0.312183
v -0.036292 0.028649 0.030401
vn -0.463045 0.291167 0.837145
v -0.033268 0.031311 0.031995
vn -0.445106 0.398404 -0.801969
v -0.033952 0.035225 0.005871
vn -0.302003 0.950166 -0.077325
v -0.019569 0.048923 0.007249
vn -0.269638 -0.221978 0.937028
v -0.027397 -0.019569 0.033137
vn -0.507763 -0.818247 -0.269535
v -0.017613 -0.039139 0.009111
vn 0.156849 -0.119405 -0.980378
v 0.031182 -0.025194 0.005871
vn 0.371737 0.214099 0.903312
v 0.038035 0.031245 0.032618
vn 0.240120 -0.354500 0.903699
v 0.025440 -0.027397 0.032187
vn 0.346429 -0.855154 0.385615
v 0.019569 -0.033028 0.029354
vn 0.390557 -0.907960 0.151900
v 0.017612 -0.039139 0.012206
vn -0.969717 0.053540 0.238289
v -0.041457 0.013699 0.029354
vn -0.964660 0.263135 0.013841
v -0.040821 0.019569 0.011742
vn -0.592366 -0.439565 -0.675193
v -0.033268 -0.019569 0.005929
vn -0.976749 -0.207480 -0.053977
v -0.040604 -0.005871 0.009785
vn -0.445842 -0.279033 0.850509
v -0.032290 -0.013699 0.033002
vn 0.146175 0.965359 0.216136
v 0.009785 0.051956 0.029354
vn 0.156260 0.467804 0.869909
v 0.018279 0.047621 0.032574
vn 0.515782 0.533626 -0.670233
v 0.034246 0.038580 0.005871
vn 0.210961 0.972495 -0.098737
v 0.011252 0.052096 0.012231
vn 0.774231 0.564319 0.286549
v 0.039168 0.033619 0.029775
vn -0.813255 0.579871 0.048637
v -0.032415 0.034780 0.029354
vn -0.939021 0.342091 -0.034821
v -0.039139 0.025441 0.009031
vn -0.769630 0.636292 0.052938
v -0.031311 0.037523 0.015656
vn -0.738137 -0.571869 0.357937
v -0.032260 -0.019032 0.029825
vn -0.648682 -0.641556 0.409412
v -0.025637 -0.025937 0.030131
vn 0.994333 -0.093815 -0.050010
v 0.046617 -0.002568 0.011900
vn 0.899273 -0.163950 0.405497
v 0.047075 0.001361 0.029899
vn 0.780741 -0.013878 -0.624700
v 0.046971 0.012813 0.005871
vn 0.857208 0.228761 0.461371
v 0.045147 0.020106 0.030069
vn 0.119434 0.014997 0.992729
v 0.043053 0.013699 0.032441
vn 0.497712 0.079747 0.863669
v 0.045010 0.010274 0.032151
vn 0.357966 -0.101152 0.928239
v 0.043053 -0.003914 0.032352
vn 0.110516 -0.180733 0.977303
v 0.023483 -0.027397 0.032410
vn 0.152392 -0.303333 0.940620
v 0.021526 -0.029354 0.032193
vn 0.265364 -0.164991 0.949926
v 0.039041 -0.012147 0.032523
vn 0.669845 -0.683217 -0.290727
v 0.037901 -0.025440 0.007828
vn -0.934996 0.249641 0.251917
v -0.040874 0.017612 0.029354
vn -0.960517 0.278038 0.010068
v -0.040270 0.021526 0.011742
vn -0.350731 -0.043973 0.935443
v -0.038310 0.000518 0.032846
vn -0.099495 0.046131 0.993968
v -0.035225 0.019080 0.032516
vn -0.903642 -0.083923 0.419987
v -0.041299 0.005260 0.030318
vn -0.950513 -0.169672 0.260261
v -0.040588 0.000000 0.029354
vn -0.991239 -0.101077 -0.085021
v -0.043053 0.009785 0.006977
vn -0.960602 0.011341 0.277695
v -0.041502 0.007828 0.029354
vn -0.067031 0.578588 0.812861
v -0.003669 0.049902 0.032005
vn -0.028921 0.158355 0.986959
v -0.005139 0.048515 0.032419
vn -0.132509 -0.045884 0.990119
v -0.033276 -0.009803 0.033115
vn -0.168408 0.985694 -0.006745
v -0.004417 0.052603 0.015865
vn 0.008081 0.748390 -0.663210
v 0.002446 0.051607 0.005871
vn -0.061462 0.920076 0.386888
v -0.000000 0.052411 0.029362
vn 0.035428 0.936063 0.350044
v 0.005225 0.052494 0.029417
vn 0.129110 0.793989 0.594064
v 0.011742 0.050880 0.031204
vn 0.592095 0.749192 -0.296874
v 0.029354 0.043053 0.006552
vn 0.251186 0.939534 0.232771
v 0.015626 0.050891 0.029378
vn 0.753407 0.630647 0.186181
v 0.036799 0.036727 0.029354
vn -0.759443 0.600587 0.250083
v -0.031623 0.035925 0.029841
vn -0.438953 0.834690 0.332586
v -0.015618 0.048911 0.029366
vn -0.515205 -0.449127 0.729965
v -0.024462 -0.024462 0.032540
vn 0.981832 0.189386 -0.011768
v 0.047426 0.015344 0.012964
vn 0.300274 -0.300749 0.905199
v 0.031800 -0.021526 0.032226
vn 0.485932 -0.037024 0.873212
v 0.045010 0.003914 0.032251
vn 0.290239 -0.803248 0.520148
v 0.015644 -0.033268 0.031306
vn 0.454969 -0.776968 0.435114
v 0.025012 -0.029957 0.030282
vn 0.547624 -0.609207 0.573564
v 0.033089 -0.023980 0.030308
vn 0.641488 -0.476346 0.601321
v 0.037594 -0.018521 0.030810
vn -0.868648 0.140279 0.475155
v -0.041096 0.015656 0.029703
vn -0.906383 0.342099 0.247866
v -0.039377 0.022167 0.029354
vn -0.180476 0.237064 0.954583
v -0.024005 0.040032 0.032316
vn -0.676575 0.095132 0.730202
v -0.039702 0.014159 0.032129
vn -0.633275 -0.162587 0.756656
v -0.038164 -0.003914 0.032102
vn -0.977138 -0.204846 0.056919
v -0.041193 -0.001957 0.015656
vn -0.228165 0.895347 0.382485
v -0.010020 0.051065 0.029766
vn -0.243964 0.534753 0.809025
v -0.012720 0.047945 0.031903
vn 0.454153 0.544466 -0.705197
v 0.031437 0.041096 0.005871
vn 0.339565 0.929686 -0.142756
v 0.019341 0.049885 0.009478
vn 0.428860 0.855001 0.291638
v 0.021470 0.048894 0.029470
vn 0.443705 0.895606 -0.031875
v 0.023483 0.048152 0.012720
vn 0.702716 0.706046 -0.087685
v 0.033022 0.041901 0.013090
vn -0.673176 0.694046 0.255214
v -0.029007 0.038778 0.029354
vn -0.537938 0.583691 0.608217
v -0.028357 0.038151 0.031305
vn 0.808119 -0.353410 0.471216
v 0.044244 -0.007414 0.030544
vn 0.932619 0.358678 0.039636
v 0.044213 0.025276 0.015545
vn 0.843076 0.399679 0.359833
v 0.042051 0.028302 0.030655
vn -0.746899 0.256283 0.613564
v -0.039150 0.020575 0.030896
vn 0.036997 0.114517 -0.992732
v 0.016289 0.049681 0.005871
vn 0.640415 0.684270 0.348773
v 0.032976 0.040973 0.029679
vn 0.285551 0.395777 0.872824
v 0.026314 0.042837 0.032654
vn 0.869696 0.491955 0.040122
v 0.041283 0.031625 0.015656
vn 0.814756 0.579605 0.015183
v 0.038896 0.035133 0.014677
vn -0.496856 0.710521 0.498292
v -0.021524 0.044931 0.029603
vn 0.771871 0.635744 0.006686
v 0.037295 0.037310 0.014677
# 127 vertices, 0 vertices normals

f 72//72 4//4 23//23
f 22//22 41//41 4//4
f 60//60 49//49 41//41
f 24//24 4//4 41//41
f 24//24 49//49 23//23
f 14//14 2//2 8//8
f 117//117 72//72 3//3
f 46//46 2//2 4//4
f 46//46 4//4 72//72
f 16//16 49//49 60//60
f 22//22 4//4 2//2
f 61//61 41//41 22//22
f 23//23 4//4 24//24
f 24//24 41//41 49//49
f 42//42 64//64 3//3
f 42//42 3//3 72//72
f 71//71 2//2 15//15
f 99//99 46//46 72//72
f 99//99 9//9 46//46
f 31//31 58//58 6//6
f 31//31 10//10 58//58
f 32//32 23//23 49//49
f 32//32 28//28 10//10
f 32//32 49//49 28//28
f 33//33 1//1 17//17
f 36//36 20//20 6//6
f 38//38 21//21 11//11
f 39//39 11//11 21//21
f 39//39 33//33 11//11
f 93//93 39//39 21//21
f 40//40 22//22 2//2
f 40//40 94//94 22//22
f 40//40 51//51 94//94
f 62//62 3//3 64//64
f 42//42 72//72 23//23
f 71//71 8//8 2//2
f 45//45 26//26 46//46
f 45//45 46//46 9//9
f 46//46 26//26 2//2
f 100//100 99//99 72//72
f 101//101 100//100 72//72
f 99//99 44//44 25//25
f 99//99 100//100 44//44
f 47//47 27//27 10//10
f 49//49 16//16 28//28
f 60//60 29//29 16//16
f 50//50 28//28 16//16
f 51//51 83//83 106//106
f 17//17 11//11 33//33
f 84//84 86//86 1//1
f 1//1 18//18 85//85
f 43//43 2//2 14//14
f 112//112 111//111 90//90
f 111//111 19//19 35//35
f 57//57 6//6 20//20
f 115//115 12//12 21//21
f 58//58 36//36 6//6
f 36//36 120//120 37//37
f 116//116 12//12 115//115
f 59//59 21//21 38//38
f 59//59 38//38 6//6
f 59//59 6//6 57//57
f 126//126 93//93 21//21
f 126//126 21//21 12//12
f 61//61 60//60 41//41
f 62//62 63//63 3//3
f 64//64 7//7 95//95
f 65//65 13//13 95//95
f 118//118 95//95 7//7
f 13//13 63//63 62//62
f 66//66 14//14 8//8
f 66//66 67//67 43//43
f 96//96 101//101 71//71
f 96//96 71//71 15//15
f 68//68 8//8 71//71
f 68//68 66//66 8//8
f 69//69 44//44 15//15
f 69//69 15//15 2//2
f 69//69 2//2 44//44
f 70//70 44//44 2//2
f 70//70 2//2 25//25
f 70//70 25//25 44//44
f 98//98 2//2 26//26
f 98//98 26//26 45//45
f 99//99 45//45 9//9
f 71//71 101//101 117//117
f 73//73 48//48 10//10
f 73//73 10//10 27//27
f 74//74 58//58 10//10
f 74//74 48//48 73//73
f 74//74 10//10 48//48
f 74//74 73//73 58//58
f 75//75 106//106 83//83
f 75//75 83//83 104//104
f 75//75 77//77 106//106
f 79//79 30//30 47//47
f 79//79 47//47 10//10
f 79//79 50//50 30//30
f 79//79 10//10 28//28
f 79//79 28//28 50//50
f 80//80 30//30 77//77
f 80//80 47//47 30//30
f 80//80 105//105 47//47
f 80//80 77//77 105//105
f 107//107 30//30 50//50
f 107//107 29//29 78//78
f 82//82 109//109 104//104
f 81//81 82//82 34//34
f 81//81 34//34 86//86
f 82//82 104//104 83//83
f 82//82 83//83 2//2
f 29//29 51//51 106//106
f 83//83 51//51 40//40
f 83//83 40//40 2//2
f 84//84 1//1 33//33
f 84//84 33//33 39//39
f 84//84 39//39 108//108
f 85//85 17//17 1//1
f 5//5 85//85 18//18
f 87//87 1//1 86//86
f 87//87 18//18 1//1
f 88//88 34//34 53//53
f 87//87 88//88 52//52
f 87//87 34//34 88//88
f 123//123 2//2 43//43
f 43//43 14//14 66//66
f 89//89 35//35 19//19
f 92//92 59//59 57//57
f 92//92 21//21 59//59
f 36//36 58//58 103//103
f 92//92 57//57 20//20
f 92//92 20//20 36//36
f 120//120 36//36 103//103
f 126//126 12//12 116//116
f 126//126 116//116 104//104
f 93//93 108//108 39//39
f 94//94 51//51 60//60
f 61//61 94//94 60//60
f 61//61 22//22 94//94
f 95//95 118//118 65//65
f 65//65 43//43 67//67
f 64//64 13//13 62//62
f 64//64 95//95 13//13
f 96//96 44//44 100//100
f 96//96 15//15 44//44
f 97//97 67//67 66//66
f 97//97 66//66 68//68
f 97//97 13//13 67//67
f 98//98 25//25 2//2
f 117//117 68//68 71//71
f 101//101 72//72 117//117
f 105//105 75//75 76//76
f 105//105 77//77 75//75
f 102//102 27//27 47//47
f 102//102 47//47 105//105
f 102//102 73//73 27//27
f 102//102 105//105 73//73
f 103//103 58//58 73//73
f 103//103 73//73 120//120
f 120//120 73//73 105//105
f 76//76 75//75 104//104
f 104//104 37//37 76//76
f 104//104 116//116 37//37
f 105//105 37//37 120//120
f 106//106 78//78 29//29
f 77//77 78//78 106//106
f 30//30 78//78 77//77
f 30//30 107//107 78//78
f 107//107 50//50 16//16
f 107//107 16//16 29//29
f 108//108 109//109 81//81
f 108//108 81//81 86//86
f 81//81 109//109 82//82
f 29//29 60//60 51//51
f 86//86 84//84 108//108
f 18//18 55//55 5//5
f 87//87 52//52 18//18
f 90//90 18//18 52//52
f 90//90 52//52 88//88
f 90//90 88//88 53//53
f 86//86 34//34 87//87
f 53//53 82//82 2//2
f 53//53 2//2 123//123
f 110//110 35//35 89//89
f 110//110 89//89 19//19
f 110//110 19//19 54//54
f 90//90 111//111 55//55
f 111//111 5//5 55//55
f 112//112 19//19 113//113
f 113//113 19//19 111//111
f 113//113 111//111 112//112
f 112//112 90//90 53//53
f 114//114 19//19 122//122
f 114//114 127//127 7//7
f 114//114 7//7 54//54
f 114//114 54//54 19//19
f 115//115 21//21 92//92
f 92//92 36//36 37//37
f 116//116 115//115 92//92
f 108//108 93//93 109//109
f 117//117 3//3 63//63
f 63//63 13//13 97//97
f 65//65 67//67 13//13
f 118//118 7//7 124//124
f 119//119 43//43 65//65
f 100//100 101//101 96//96
f 63//63 97//97 68//68
f 63//63 68//68 117//117
f 99//99 25//25 98//98
f 99//99 98//98 45//45
f 105//105 76//76 37//37
f 90//90 55//55 18//18
f 53//53 34//34 82//82
f 121//121 5//5 111//111
f 122//122 19//19 112//112
f 112//112 53//53 123//123
f 123//123 122//122 112//112
f 119//119 118//118 124//124
f 124//124 7//7 125//125
f 125//125 7//7 127//127
f 127//127 114//114 122//122
f 56//56 119//119 124//124
f 127//127 91//91 56//56
f 92//92 37//37 116//116
f 126//126 104//104 109//109
f 121//121 111//111 35//35
f 121//121 35//35 110//110
f 121//121 110//110 54//54
f 121//121 54//54 7//7
f 121//121 7//7 64//64
f 121//121 64//64 42//42
f 121//121 42//42 23//23
f 121//121 23//23 32//32
f 121//121 32//32 10//10
f 121//121 10//10 31//31
f 121//121 31//31 6//6
f 121//121 6//6 38//38
f 121//121 38//38 11//11
f 121//121 11//11 17//17
f 121//121 17//17 85//85
f 121//121 85//85 5//5
f 122//122 123//123 43//43
f 56//56 43//43 119//119
f 125//125 56//56 124//124
f 125//125 127//127 56//56
f 122//122 56//56 91//91
f 122//122 43//43 56//56
f 127//127 122//122 91//91
f 93//93 126//126 109//109
f 118//118 119//119 65//65
# 250 faces, 0 coords texture

# End of File
