####
#
# OBJ File Generated by Meshlab
#
####
# Object quaker_big_chewy_chocolate_chip_250_collision.obj
#
# Vertices: 127
# Faces: 250
#
####
vn 0.058363 0.068123 0.995968
v 0.021644 -0.009752 0.001112
vn -0.695545 -0.718377 -0.012281
v 0.084981 -0.031706 0.079202
vn -0.320440 -0.947245 0.006661
v -0.014969 0.054415 0.082819
vn 0.649315 0.760335 0.016723
v 0.026220 -0.041304 0.095357
vn 0.221430 0.278512 -0.934559
v 0.016234 -0.014781 0.157426
vn 0.596925 0.725070 0.343445
v 0.023113 -0.033954 0.012081
vn 0.653435 0.755987 0.038807
v 0.012127 -0.025209 0.027950
vn 0.668091 0.744078 -0.001371
v 0.003722 -0.021227 0.116302
vn 0.674872 0.124214 0.727406
v -0.040034 0.024099 0.003916
vn 0.799815 -0.478371 0.362570
v -0.040622 0.036369 0.009723
vn 0.442326 -0.231818 0.866376
v -0.037805 0.032010 0.003071
vn 0.749393 0.596361 0.287686
v -0.040369 0.018522 0.009334
vn 0.983508 0.157753 0.088463
v -0.044130 0.026791 0.015201
vn 0.144179 0.206983 0.967662
v -0.007513 0.005251 0.001016
vn 0.575232 0.719329 0.389455
v -0.007302 -0.007578 0.010210
vn 0.331501 0.421971 0.843829
v -0.021738 0.009847 0.002611
vn 0.067031 0.005940 0.997733
v -0.011184 0.022571 0.000137
vn -0.156165 -0.184986 0.970254
v 0.006649 0.018629 0.000651
vn 0.025090 -0.465658 0.884609
v -0.019113 0.048027 0.003276
vn -0.518854 -0.631888 0.575768
v 0.007549 0.032310 0.006667
vn -0.425215 -0.826158 0.369669
v -0.011365 0.050770 0.008831
vn 0.288056 -0.882019 0.372917
v -0.023707 0.052379 0.008508
vn 0.537079 -0.843429 0.013198
v -0.028114 0.050731 0.034595
vn -0.152322 -0.987473 0.041164
v -0.016873 0.055059 0.024241
vn 0.711884 0.702237 -0.009131
v -0.036710 0.016626 0.028990
vn 0.999044 0.043205 0.006595
v -0.043774 0.028039 0.061770
vn 0.803373 0.595366 0.011448
v -0.039852 0.018617 0.064088
vn 0.881811 -0.471575 0.005161
v -0.042272 0.034749 0.059995
vn 0.664355 0.747132 0.020631
v -0.019482 0.001176 0.076772
vn -0.629973 -0.775379 0.043843
v 0.006344 0.036945 0.028329
vn 0.492308 -0.870380 0.008436
v -0.026603 0.052795 0.072940
vn -0.198162 -0.980115 0.010262
v -0.015632 0.054342 0.046580
vn -0.603954 -0.796940 0.011200
v -0.007376 0.049021 0.063513
vn -0.637569 -0.770372 0.005684
v 0.010711 0.034299 0.088412
vn 0.676993 0.735896 0.011742
v -0.030703 0.009764 0.109243
vn 0.846838 0.531562 0.017511
v -0.041990 0.021008 0.090304
vn 0.985825 -0.167763 -0.002268
v -0.044409 0.030006 0.110189
vn 0.862574 -0.505882 -0.007095
v -0.041628 0.036090 0.089630
vn 0.905298 0.424642 -0.010698
v -0.042931 0.021289 0.125219
vn -0.653836 -0.756039 -0.030040
v 0.023700 0.023350 0.121542
vn 0.707682 -0.706482 -0.008402
v -0.030706 0.048182 0.118817
vn -0.508731 -0.860857 0.010872
v -0.011542 0.052912 0.110230
vn 0.160432 -0.987001 0.009565
v -0.019918 0.055036 0.119183
vn 0.782195 0.588103 -0.205683
v -0.040716 0.018829 0.144075
vn 0.649250 0.264023 -0.713279
v -0.039575 0.024186 0.152475
vn 0.953417 -0.210753 -0.215824
v -0.043930 0.031573 0.144624
vn 0.497446 -0.270421 -0.824269
v -0.036587 0.034958 0.153776
vn 0.655614 0.738889 -0.155606
v -0.002367 -0.015076 0.139981
vn 0.497239 0.557006 -0.665205
v -0.005690 -0.007708 0.150451
vn 0.098077 -0.345794 -0.933171
v -0.018429 0.043754 0.155591
vn -0.639560 -0.757922 -0.128523
v 0.003007 0.040329 0.140720
vn -0.546936 -0.591177 -0.592766
v 0.009018 0.030759 0.152188
vn 0.201056 0.123449 -0.971770
v -0.018058 0.019677 0.158382
vn 0.150031 0.171092 -0.973765
v -0.000086 -0.001297 0.156110
vn -0.240299 -0.217004 -0.946132
v 0.013259 0.014549 0.157420
vn -0.195077 -0.223650 -0.954948
v 0.001675 0.026695 0.158790
vn 0.456751 -0.816929 -0.352145
v -0.026435 0.052602 0.147865
vn -0.305548 -0.767694 -0.563281
v -0.015771 0.053404 0.149875
vn -0.247309 -0.967927 -0.044214
v -0.014843 0.055228 0.133082
vn -0.141580 0.423256 0.894880
v 0.075000 -0.062686 0.002443
vn 0.245806 0.931959 0.266518
v 0.068218 -0.070208 0.015145
vn 0.236347 0.572814 0.784872
v 0.068322 -0.062661 0.003350
vn -0.547439 0.799679 0.246626
v 0.077998 -0.067148 0.010587
vn 0.134670 0.191626 0.972185
v 0.063042 -0.048604 0.000904
vn 0.488448 0.645339 0.587329
v 0.053783 -0.059055 0.007517
vn 0.371090 0.466319 0.803018
v 0.016735 -0.022842 0.003849
vn 0.203373 0.250544 0.946503
v 0.039093 -0.033486 0.001144
vn -0.080474 -0.103622 0.991356
v 0.034718 -0.003177 0.001474
vn -0.072470 -0.037024 0.996683
v 0.067979 -0.034993 0.000445
vn -0.287668 -0.362347 0.886539
v 0.057574 -0.014893 0.002385
vn 0.626246 0.777966 0.050850
v 0.053966 -0.060959 0.033067
vn -0.800691 0.041576 0.597633
v 0.092420 -0.044443 0.004811
vn -0.401701 -0.329363 0.854492
v 0.084949 -0.034589 0.003065
vn -0.740585 -0.623520 0.250512
v 0.090770 -0.033801 0.011146
vn -0.895558 -0.440801 0.060586
v 0.094203 -0.037980 0.017558
vn -0.955954 0.252908 0.148959
v 0.094936 -0.047907 0.012687
vn 0.499340 0.865587 0.037676
v 0.062165 -0.069042 0.055599
vn -0.020078 0.999012 0.039643
v 0.070270 -0.071752 0.065237
vn -0.618793 0.784784 0.034765
v 0.078178 -0.068546 0.068057
vn 0.664825 0.746192 0.034708
v 0.015921 -0.031261 0.067795
vn 0.637492 0.769440 0.039576
v 0.039327 -0.050856 0.064778
vn -0.655895 -0.754302 0.028809
v 0.054119 -0.003245 0.034431
vn -0.655993 -0.754594 -0.016145
v 0.078065 -0.024646 0.031458
vn -0.777088 -0.628701 -0.029490
v 0.091575 -0.036057 0.043400
vn -0.886416 0.462766 0.010698
v 0.093250 -0.050841 0.046871
vn -0.991118 -0.132209 -0.014385
v 0.094689 -0.043190 0.050335
vn -0.836956 0.547049 0.015527
v 0.092827 -0.052461 0.075533
vn 0.617645 0.786251 0.018010
v 0.052283 -0.062885 0.107037
vn 0.511971 0.858724 0.021877
v 0.061109 -0.069673 0.093466
vn 0.287167 0.957510 0.026640
v 0.065746 -0.072468 0.105646
vn -0.352356 0.935716 0.016772
v 0.073315 -0.073414 0.117005
vn -0.469869 0.882120 0.032961
v 0.075793 -0.071767 0.091504
vn -0.307204 0.902827 -0.300879
v 0.075486 -0.073454 0.144561
vn 0.653223 0.757149 -0.005033
v 0.037059 -0.050559 0.122245
vn -0.834932 0.550257 0.010230
v 0.092060 -0.054384 0.099219
vn -0.893612 -0.448743 -0.009379
v 0.093755 -0.041677 0.089188
vn -0.990430 0.137534 0.011557
v 0.094913 -0.046662 0.084699
vn -0.775560 -0.631269 0.002578
v 0.090863 -0.037337 0.111038
vn -0.998462 -0.055352 0.003048
v 0.095704 -0.047384 0.113499
vn 0.458535 0.887459 -0.046495
v 0.061594 -0.071703 0.139120
vn 0.280500 0.752403 -0.595994
v 0.064640 -0.070440 0.152694
vn -0.880882 0.425788 -0.206765
v 0.093633 -0.053083 0.145968
vn 0.665686 0.734037 -0.134358
v 0.029113 -0.042886 0.141274
vn 0.595127 0.673604 -0.438272
v 0.053618 -0.063764 0.149311
vn 0.299357 0.283734 -0.910978
v 0.055212 -0.054059 0.156172
vn 0.540459 0.566106 -0.622437
v 0.038559 -0.048349 0.150782
vn 0.270557 0.295189 -0.916331
v 0.028848 -0.030164 0.154954
vn 0.550921 0.601824 -0.578181
v 0.025671 -0.036445 0.150321
vn -0.145116 -0.117474 -0.982416
v 0.039945 -0.012612 0.158867
vn 0.105391 0.048713 -0.993237
v 0.047218 -0.040516 0.156992
vn -0.131892 -0.178619 -0.975038
v 0.068903 -0.034249 0.158142
vn 0.054852 0.137851 -0.988933
v 0.030204 -0.025886 0.155800
vn -0.134714 -0.220935 -0.965940
v 0.057197 -0.023638 0.156196
vn -0.871363 -0.467492 -0.148921
v 0.093407 -0.039513 0.142020
vn -0.705517 -0.190082 -0.682726
v 0.093170 -0.045508 0.150610
vn -0.657020 -0.739821 -0.144878
v 0.058122 -0.008286 0.142021
vn -0.496031 -0.603913 -0.623892
v 0.066703 -0.019742 0.151419
vn -0.258288 0.358202 -0.897206
v 0.073325 -0.060525 0.159577
vn -0.604058 -0.723731 0.333658
v 0.057826 -0.007986 0.008460
vn -0.422989 -0.523593 0.739548
v 0.028955 0.013977 0.005184
vn -0.627562 -0.762379 0.157936
v 0.029399 0.017078 0.012227
vn -0.643785 -0.765019 0.016934
v 0.024254 0.022404 0.046007
vn -0.661844 -0.749636 0.002899
v 0.053499 -0.002039 0.061685
vn -0.667294 -0.744709 -0.011294
v 0.047713 0.002698 0.094155
vn -0.636240 -0.719920 -0.277333
v 0.027913 0.017323 0.145250
vn -0.496948 -0.595821 -0.630904
v 0.061616 -0.014553 0.149725
vn -0.471300 -0.513733 -0.716906
v 0.034393 0.006618 0.152257
# 127 vertices, 0 vertices normals

f 6//6 66//66 15//15
f 14//14 15//15 66//66
f 6//6 15//15 7//7
f 7//7 25//25 29//29
f 29//29 80//80 7//7
f 4//4 80//80 8//8
f 8//8 80//80 29//29
f 4//4 8//8 94//94
f 8//8 103//103 94//94
f 48//48 103//103 8//8
f 103//103 48//48 108//108
f 108//108 106//106 103//103
f 108//108 48//48 49//49
f 108//108 49//49 5//5
f 108//108 5//5 107//107
f 54//54 5//5 49//49
f 112//112 107//107 5//5
f 17//17 9//9 16//16
f 11//11 9//9 17//17
f 9//9 12//12 16//16
f 13//13 9//9 10//10
f 10//10 9//9 11//11
f 11//11 17//17 19//19
f 11//11 19//19 10//10
f 13//13 12//12 9//9
f 25//25 12//12 13//13
f 13//13 10//10 28//28
f 28//28 26//26 13//13
f 10//10 23//23 28//28
f 15//15 16//16 12//12
f 14//14 16//16 15//15
f 17//17 16//16 14//14
f 17//17 14//14 18//18
f 14//14 66//66 1//1
f 68//68 18//18 14//14
f 14//14 1//1 68//68
f 18//18 68//68 120//120
f 17//17 18//18 19//19
f 20//20 19//19 18//18
f 120//120 20//20 18//18
f 121//121 20//20 120//120
f 15//15 12//12 25//25
f 7//7 15//15 25//25
f 21//21 20//20 30//30
f 30//30 20//20 121//121
f 30//30 121//121 122//122
f 10//10 19//19 22//22
f 10//10 22//22 23//23
f 23//23 22//22 24//24
f 22//22 19//19 21//21
f 21//21 19//19 20//20
f 21//21 24//24 22//22
f 24//24 21//21 30//30
f 32//32 23//23 24//24
f 27//27 29//29 25//25
f 25//25 13//13 27//27
f 27//27 13//13 26//26
f 29//29 27//27 36//36
f 26//26 36//36 27//27
f 26//26 28//28 38//38
f 33//33 30//30 34//34
f 34//34 30//30 122//122
f 31//31 28//28 23//23
f 31//31 38//38 28//28
f 32//32 24//24 30//30
f 32//32 30//30 33//33
f 32//32 31//31 23//23
f 31//31 32//32 3//3
f 3//3 32//32 33//33
f 3//3 33//33 34//34
f 36//36 26//26 37//37
f 38//38 37//37 26//26
f 35//35 39//39 44//44
f 35//35 36//36 39//39
f 37//37 38//38 41//41
f 39//39 36//36 37//37
f 37//37 41//41 46//46
f 36//36 35//35 29//29
f 124//124 40//40 34//34
f 8//8 29//29 35//35
f 8//8 35//35 48//48
f 35//35 44//44 48//48
f 42//42 34//34 40//40
f 51//51 42//42 40//40
f 38//38 31//31 41//41
f 43//43 41//41 31//31
f 41//41 43//43 57//57
f 3//3 34//34 42//42
f 31//31 3//3 43//43
f 42//42 43//43 3//3
f 59//59 42//42 51//51
f 43//43 42//42 59//59
f 45//45 49//49 44//44
f 39//39 37//37 46//46
f 44//44 39//39 46//46
f 46//46 41//41 57//57
f 44//44 46//46 45//45
f 53//53 54//54 49//49
f 49//49 45//45 53//53
f 53//53 45//45 47//47
f 45//45 46//46 47//47
f 47//47 46//46 57//57
f 44//44 49//49 48//48
f 127//127 55//55 52//52
f 56//56 50//50 58//58
f 58//58 52//52 56//56
f 51//51 40//40 125//125
f 55//55 56//56 52//52
f 125//125 52//52 51//51
f 54//54 109//109 5//5
f 55//55 109//109 54//54
f 55//55 54//54 56//56
f 56//56 54//54 53//53
f 56//56 53//53 50//50
f 50//50 53//53 47//47
f 50//50 47//47 57//57
f 58//58 59//59 51//51
f 57//57 43//43 59//59
f 57//57 59//59 58//58
f 58//58 50//50 57//57
f 58//58 51//51 52//52
f 65//65 61//61 62//62
f 60//60 62//62 61//61
f 61//61 65//65 71//71
f 6//6 71//71 65//65
f 61//61 71//71 77//77
f 63//63 60//60 61//61
f 67//67 66//66 6//6
f 67//67 6//6 65//65
f 65//65 62//62 64//64
f 67//67 65//65 64//64
f 60//60 64//64 62//62
f 67//67 64//64 69//69
f 64//64 60//60 69//69
f 67//67 1//1 66//66
f 68//68 1//1 67//67
f 69//69 68//68 67//67
f 68//68 69//69 70//70
f 71//71 6//6 7//7
f 72//72 60//60 63//63
f 63//63 76//76 72//72
f 69//69 60//60 73//73
f 73//73 60//60 72//72
f 73//73 72//72 74//74
f 70//70 69//69 73//73
f 119//119 73//73 74//74
f 119//119 70//70 73//73
f 76//76 75//75 72//72
f 74//74 72//72 75//75
f 63//63 85//85 76//76
f 76//76 86//86 75//75
f 119//119 74//74 83//83
f 75//75 83//83 74//74
f 83//83 75//75 84//84
f 77//77 71//71 81//81
f 77//77 78//78 61//61
f 78//78 77//77 89//89
f 89//89 90//90 78//78
f 92//92 78//78 90//90
f 89//89 77//77 81//81
f 63//63 61//61 78//78
f 78//78 79//79 63//63
f 85//85 63//63 79//79
f 79//79 78//78 92//92
f 87//87 85//85 79//79
f 87//87 79//79 92//92
f 81//81 7//7 80//80
f 71//71 7//7 81//81
f 82//82 83//83 123//123
f 4//4 81//81 80//80
f 2//2 124//124 123//123
f 86//86 76//76 85//85
f 86//86 84//84 75//75
f 86//86 85//85 97//97
f 97//97 85//85 87//87
f 97//97 96//96 86//86
f 84//84 86//86 96//96
f 2//2 84//84 96//96
f 83//83 84//84 2//2
f 2//2 123//123 83//83
f 89//89 81//81 88//88
f 90//90 89//89 88//88
f 100//100 90//90 88//88
f 92//92 90//90 91//91
f 94//94 100//100 88//88
f 95//95 87//87 92//92
f 95//95 92//92 91//91
f 102//102 95//95 91//91
f 102//102 91//91 93//93
f 88//88 81//81 4//4
f 88//88 4//4 94//94
f 97//97 87//87 95//95
f 97//97 95//95 99//99
f 2//2 96//96 98//98
f 99//99 96//96 97//97
f 98//98 96//96 99//99
f 124//124 2//2 98//98
f 99//99 95//95 102//102
f 99//99 114//114 98//98
f 91//91 90//90 100//100
f 93//93 91//91 100//100
f 93//93 100//100 101//101
f 103//103 100//100 94//94
f 104//104 101//101 100//100
f 103//103 104//104 100//100
f 101//101 104//104 105//105
f 118//118 101//101 105//105
f 93//93 101//101 118//118
f 93//93 118//118 102//102
f 104//104 103//103 106//106
f 106//106 105//105 104//104
f 106//106 108//108 107//107
f 107//107 110//110 105//105
f 105//105 106//106 107//107
f 112//112 110//110 107//107
f 126//126 109//109 127//127
f 116//116 114//114 117//117
f 111//111 113//113 117//117
f 113//113 126//126 117//117
f 113//113 109//109 126//126
f 117//117 126//126 116//116
f 105//105 111//111 118//118
f 111//111 105//105 110//110
f 112//112 113//113 110//110
f 5//5 109//109 112//112
f 113//113 112//112 109//109
f 111//111 110//110 113//113
f 102//102 114//114 99//99
f 114//114 102//102 115//115
f 115//115 111//111 117//117
f 115//115 117//117 114//114
f 116//116 98//98 114//114
f 118//118 111//111 115//115
f 115//115 102//102 118//118
f 70//70 120//120 68//68
f 70//70 119//119 120//120
f 121//121 120//120 119//119
f 121//121 119//119 82//82
f 122//122 121//121 82//82
f 83//83 82//82 119//119
f 123//123 122//122 82//82
f 34//34 123//123 124//124
f 34//34 122//122 123//123
f 40//40 124//124 116//116
f 116//116 124//124 98//98
f 40//40 116//116 125//125
f 126//126 127//127 125//125
f 109//109 55//55 127//127
f 125//125 116//116 126//126
f 125//125 127//127 52//52
# 250 faces, 0 coords texture

# End of File
