####
#
# OBJ File Generated by Meshlab
#
####
# Object quaker_big_chewy_chocolate_chip_250_collision.obj
#
# Vertices: 127
# Faces: 250
#
####
vn 0.866690 -0.342806 -0.362399
v 0.099804 -0.045010 0.007217
vn -0.451619 -0.892060 -0.016418
v 0.067401 -0.072407 0.142857
vn 0.239816 0.441818 -0.864456
v -0.009177 0.056334 0.005871
vn -0.357389 -0.883063 -0.304094
v 0.066858 -0.074364 0.007828
vn 0.615461 0.542129 -0.572104
v 0.093933 -0.030483 0.005871
vn -0.377286 -0.340754 0.861128
v -0.034342 0.022505 0.154792
vn -0.656808 -0.753382 0.031916
v 0.020152 -0.033872 0.134135
vn -0.500481 0.833944 -0.232500
v -0.021526 0.060665 0.010737
vn -0.770449 -0.618143 0.155912
v -0.040912 0.021434 0.144939
vn 0.849222 0.482537 -0.214432
v 0.097847 -0.035225 0.007295
vn 0.997328 -0.038174 0.062282
v 0.095960 -0.046967 0.142857
vn 0.612650 0.758361 0.222595
v -0.009785 0.051138 0.149528
vn 0.446040 -0.266990 -0.854263
v 0.095890 -0.049578 0.005871
vn 0.730069 -0.652596 -0.202775
v 0.082191 -0.068493 0.006675
vn -0.386704 -0.158077 -0.908555
v -0.045010 0.022267 0.005871
vn -0.862619 -0.495381 -0.102400
v -0.048923 0.023483 0.009002
vn -0.851817 0.492831 -0.177556
v -0.048924 0.037182 0.008137
vn -0.579651 -0.806091 0.119253
v 0.058857 -0.066486 0.147911
vn 0.931111 0.166823 -0.324350
v 0.100152 -0.041056 0.007685
vn 0.659905 0.749759 0.048857
v 0.025440 0.023198 0.131115
vn 0.650041 0.744255 0.153396
v 0.052210 -0.001537 0.146184
vn 0.005918 -0.046615 -0.998895
v 0.075249 -0.075811 0.005871
vn -0.232465 0.966813 -0.105982
v -0.018296 0.062647 0.011738
vn -0.242748 -0.587787 -0.771738
v 0.066535 -0.072405 0.006358
vn -0.649871 -0.759948 0.012102
v 0.035450 -0.046967 0.135029
vn -0.375315 -0.429362 -0.821454
v -0.039419 0.016896 0.005869
vn -0.920354 -0.379745 0.093498
v -0.042088 0.023483 0.142857
vn -0.997714 0.042181 0.052792
v -0.043535 0.029354 0.140900
vn -0.295376 0.019535 -0.955181
v -0.045010 0.032488 0.005871
vn -0.118622 0.603549 -0.788452
v -0.018709 0.058753 0.005871
vn -0.486244 0.737832 -0.468156
v -0.023145 0.058708 0.008168
vn -0.521090 0.849097 0.086594
v -0.025572 0.053761 0.144691
vn -0.646923 -0.761261 0.044420
v 0.055375 -0.063817 0.145362
vn -0.564238 -0.825137 0.028012
v 0.062470 -0.069136 0.142857
vn 0.916967 -0.398733 0.013538
v 0.095697 -0.048962 0.128456
vn 0.815461 -0.578695 0.011670
v 0.093149 -0.052837 0.129158
vn 0.647932 0.753884 0.108824
v -0.000035 0.044031 0.143835
vn 0.427521 0.892635 -0.142932
v -0.013699 0.062623 0.012117
vn 0.243994 -0.958340 -0.148499
v 0.074823 -0.074364 0.009785
vn -0.244509 0.967710 0.061251
v -0.021526 0.055508 0.142857
vn -0.151537 -0.195056 -0.969015
v 0.058482 -0.064579 0.005871
vn 0.104659 -0.924088 -0.367570
v 0.080857 -0.067841 0.005906
vn -0.999788 0.002144 0.020469
v -0.048923 0.033268 0.008925
vn -0.980688 -0.077320 0.179645
v -0.043075 0.027577 0.148460
vn -0.964006 0.247687 0.096663
v -0.043109 0.031458 0.142857
vn -0.762872 0.625008 0.165499
v -0.039506 0.037179 0.147564
vn -0.828810 -0.024867 -0.558978
v -0.048923 0.029354 0.008247
vn -0.307674 0.300015 -0.902955
v -0.042708 0.041102 0.005871
vn 0.067355 0.014188 0.997628
v 0.084026 -0.046110 0.156019
vn 0.533565 0.751743 0.387545
v -0.012162 0.052793 0.150722
vn -0.758313 0.648528 0.066123
v -0.029177 0.050248 0.144755
vn -0.546299 -0.837311 0.021611
v 0.065557 -0.071265 0.141878
vn -0.496693 -0.566398 0.657639
v 0.035847 -0.043559 0.152991
vn 0.914745 0.347755 0.205687
v 0.094812 -0.040848 0.146038
vn 0.828048 -0.038262 0.559350
v 0.094525 -0.046713 0.152257
vn 0.977408 0.189454 0.093707
v 0.095691 -0.043053 0.138943
vn 0.749401 -0.661498 0.028606
v 0.080235 -0.068433 0.136986
vn 0.656693 0.704255 0.269779
v 0.088062 -0.033958 0.148727
vn 0.669074 0.735589 0.106062
v 0.088103 -0.033171 0.145658
vn 0.608876 0.544934 0.576469
v 0.090233 -0.038456 0.152574
vn 0.605666 0.784267 0.134515
v -0.010679 0.052719 0.146710
vn 0.222147 -0.967295 0.122439
v 0.074348 -0.072314 0.145085
vn -0.009889 -0.999270 -0.036893
v 0.070450 -0.074950 0.011742
vn -0.137749 0.982325 0.126741
v -0.019569 0.055938 0.142857
vn -0.952892 -0.299032 0.050761
v -0.042945 0.025440 0.138943
vn -0.720832 0.449803 0.527331
v -0.039345 0.034760 0.152959
vn 0.604735 -0.726753 0.325771
v 0.077116 -0.070714 0.149099
vn 0.017489 0.084599 0.996262
v -0.013699 0.045010 0.156071
vn -0.303313 0.349139 0.886625
v -0.026118 0.045690 0.156020
vn -0.313162 0.940079 0.134838
v -0.023149 0.054831 0.146259
vn -0.655119 0.724732 0.213501
v -0.026554 0.052801 0.148575
vn -0.127125 -0.128372 0.983545
v -0.003043 -0.002092 0.156141
vn -0.022594 -0.022389 0.999494
v 0.020303 -0.015160 0.156761
vn -0.576978 -0.666818 0.471646
v 0.052837 -0.060288 0.150684
vn -0.756788 -0.353246 0.549991
v -0.041273 0.025082 0.151560
vn 0.625872 0.715700 0.309931
v 0.050880 -0.001322 0.148727
vn 0.229636 0.289690 0.929165
v -0.009785 0.045010 0.155740
vn 0.145153 0.121865 0.981876
v 0.084148 -0.041096 0.155753
vn 0.644401 0.761442 0.070385
v 0.005749 0.039761 0.138460
vn 0.653013 0.755720 0.049602
v 0.011563 0.035225 0.133072
vn -0.303588 0.863085 0.403633
v -0.022580 0.053566 0.151568
vn 0.487870 -0.872507 0.026715
v 0.076321 -0.071721 0.138943
vn 0.065985 -0.997753 -0.011644
v 0.070450 -0.072941 0.142857
vn 0.584168 -0.759082 -0.287302
v 0.080235 -0.070917 0.007787
vn 0.664128 -0.527254 0.530036
v 0.088449 -0.055547 0.152757
vn 0.038580 0.041646 0.998387
v 0.032390 0.000237 0.156766
vn 0.081056 0.144477 0.986183
v -0.011742 0.045010 0.155988
vn -0.388794 0.045180 0.920216
v -0.037169 0.032442 0.155758
vn 0.178945 0.566626 0.804310
v -0.017607 0.052419 0.154848
vn 0.254780 -0.170372 0.951872
v 0.070657 -0.067350 0.156230
vn -0.270454 -0.298385 0.915326
v 0.022994 -0.027397 0.155723
vn -0.120987 -0.134337 0.983522
v 0.024462 -0.025440 0.156420
vn -0.508113 -0.535414 0.674650
v -0.035225 0.020903 0.153156
vn -0.614889 -0.749811 0.244327
v 0.056779 -0.064577 0.148894
vn 0.742912 0.641291 0.191905
v 0.092422 -0.037308 0.145914
vn 0.593370 0.677396 0.434794
v 0.053571 -0.004642 0.150642
vn 0.444912 0.537494 0.716348
v -0.009785 0.047025 0.154598
vn 0.629328 0.659316 0.411399
v 0.088062 -0.035061 0.150883
vn 0.202560 0.221090 0.953986
v 0.042808 -0.003302 0.155926
vn 0.267809 0.244954 0.931813
v 0.085127 -0.039139 0.155132
vn 0.024343 0.989232 0.144320
v -0.017621 0.055832 0.145098
vn -0.205218 -0.977916 -0.039572
v 0.068493 -0.072842 0.142915
vn 0.768777 -0.639346 0.014785
v 0.081862 -0.066536 0.135029
vn -0.638119 -0.681054 0.359123
v -0.036203 0.018253 0.149170
vn -0.571473 -0.634155 0.520832
v -0.002215 -0.010763 0.151320
vn 0.343127 -0.023589 0.938993
v 0.090022 -0.047549 0.155363
vn 0.955228 -0.261711 0.138010
v 0.095612 -0.048679 0.146639
vn 0.119649 0.131600 0.984056
v 0.033237 0.001929 0.156550
vn 0.328956 0.915415 0.231955
v -0.014141 0.054670 0.147949
vn -0.422206 -0.468971 0.775763
v 0.031311 -0.037266 0.154647
vn 0.775357 -0.627815 0.068343
v 0.091614 -0.054522 0.143848
vn 0.502257 0.574091 0.646650
v -0.005871 0.045010 0.153375
vn 0.510799 0.617669 0.597972
v -0.009749 0.049194 0.152656
vn 0.378594 0.460568 0.802835
v -0.010763 0.046967 0.155126
vn 0.342715 0.382177 0.858188
v 0.048434 -0.005382 0.155020
vn -0.279993 -0.955953 0.088077
v 0.068618 -0.073140 0.145085
vn -0.875820 0.396378 0.275359
v -0.040901 0.035126 0.148838
vn 0.014417 0.001297 0.999895
v 0.058296 -0.033347 0.156647
vn 0.324357 -0.925692 0.194644
v 0.070659 -0.069304 0.155938
vn -0.054605 0.028751 0.998094
v -0.029875 0.038848 0.156350
vn -0.429832 -0.811881 0.395087
v 0.067020 -0.070505 0.151776
vn -0.359596 -0.439763 0.822982
v 0.077291 -0.076427 0.155722
vn -0.671217 -0.736176 0.086680
v -0.037272 0.017643 0.142942
vn 0.542066 0.361116 0.758788
v 0.090333 -0.040227 0.153641
vn 0.671338 -0.739973 0.041777
v 0.078156 -0.070422 0.140998
vn 0.001556 0.012479 0.999921
v 0.012537 0.009846 0.156710
vn 0.418529 0.471513 0.776214
v 0.069471 -0.021526 0.153552
# 127 vertices, 0 vertices normals

f 3//3 38//38 5//5
f 80//80 5//5 38//38
f 13//13 5//5 1//1
f 14//14 13//13 1//1
f 38//38 3//3 30//30
f 16//16 26//26 4//4
f 16//16 4//4 33//33
f 123//123 16//16 7//7
f 95//95 10//10 5//5
f 19//19 11//11 1//1
f 19//19 1//1 5//5
f 19//19 5//5 10//10
f 20//20 59//59 5//5
f 20//20 5//5 80//80
f 21//21 20//20 80//80
f 21//21 59//59 20//20
f 22//22 14//14 42//42
f 22//22 13//13 14//14
f 23//23 101//101 38//38
f 24//24 4//4 26//26
f 25//25 16//16 33//33
f 25//25 33//33 7//7
f 25//25 7//7 16//16
f 26//26 16//16 15//15
f 29//29 17//17 48//48
f 47//47 29//29 15//15
f 47//47 17//17 29//29
f 30//30 48//48 31//31
f 31//31 17//17 8//8
f 32//32 8//8 17//17
f 33//33 4//4 18//18
f 123//123 9//9 16//16
f 19//19 10//10 54//54
f 35//35 1//1 11//11
f 36//36 14//14 1//1
f 36//36 1//1 35//35
f 79//79 80//80 38//38
f 23//23 38//38 30//30
f 41//41 24//24 26//26
f 42//42 4//4 24//24
f 9//9 27//27 16//16
f 43//43 16//16 28//28
f 43//43 28//28 17//17
f 44//44 28//28 16//16
f 45//45 17//17 28//28
f 117//117 46//46 17//17
f 47//47 15//15 16//16
f 47//47 16//16 43//43
f 47//47 43//43 17//17
f 30//30 31//31 8//8
f 30//30 8//8 23//23
f 48//48 17//17 31//31
f 32//32 23//23 8//8
f 51//51 17//17 46//46
f 34//34 18//18 4//4
f 52//52 4//4 2//2
f 123//123 7//7 33//33
f 123//123 33//33 94//94
f 54//54 10//10 95//95
f 5//5 59//59 95//95
f 56//56 19//19 54//54
f 56//56 11//11 19//19
f 107//107 36//36 35//35
f 59//59 21//21 58//58
f 61//61 12//12 21//21
f 37//37 61//61 21//21
f 37//37 79//79 61//61
f 79//79 38//38 61//61
f 79//79 37//37 21//21
f 79//79 21//21 80//80
f 109//109 38//38 101//101
f 63//63 4//4 39//39
f 84//84 42//42 14//14
f 64//64 23//23 40//40
f 64//64 40//40 70//70
f 64//64 101//101 23//23
f 22//22 42//42 24//24
f 22//22 24//24 41//41
f 22//22 41//41 26//26
f 22//22 26//26 15//15
f 22//22 15//15 29//29
f 22//22 29//29 48//48
f 22//22 48//48 30//30
f 22//22 30//30 3//3
f 22//22 3//3 5//5
f 22//22 5//5 13//13
f 65//65 44//44 16//16
f 65//65 16//16 27//27
f 65//65 27//27 44//44
f 109//109 12//12 61//61
f 70//70 40//40 23//23
f 71//71 32//32 17//17
f 52//52 34//34 4//4
f 18//18 94//94 33//33
f 116//116 18//18 34//34
f 107//107 56//56 54//54
f 107//107 11//11 56//56
f 107//107 35//35 11//11
f 76//76 98//98 58//58
f 76//76 58//58 21//21
f 76//76 12//12 50//50
f 76//76 21//21 12//12
f 95//95 59//59 58//58
f 95//95 58//58 98//98
f 82//82 39//39 84//84
f 102//102 2//2 4//4
f 102//102 4//4 63//63
f 83//83 63//63 39//39
f 83//83 102//102 63//63
f 84//84 39//39 4//4
f 84//84 4//4 42//42
f 111//111 84//84 14//14
f 111//111 14//14 36//36
f 75//75 27//27 9//9
f 75//75 44//44 27//27
f 86//86 78//78 108//108
f 86//86 49//49 78//78
f 87//87 77//77 89//89
f 87//87 108//108 77//77
f 87//87 89//89 68//68
f 87//87 68//68 86//86
f 126//126 86//86 68//68
f 126//126 68//68 120//120
f 69//69 89//89 81//81
f 50//50 12//12 109//109
f 50//50 109//109 89//89
f 32//32 70//70 23//23
f 51//51 71//71 17//17
f 71//71 51//51 46//46
f 73//73 90//90 118//118
f 91//91 72//72 6//6
f 91//91 92//92 72//72
f 92//92 73//73 72//72
f 92//92 90//90 73//73
f 73//73 120//120 72//72
f 116//116 34//34 52//52
f 116//116 52//52 2//2
f 94//94 74//74 104//104
f 107//107 54//54 55//55
f 107//107 111//111 36//36
f 96//96 76//76 50//50
f 96//96 98//98 76//76
f 89//89 113//113 50//50
f 89//89 97//97 113//113
f 99//99 77//77 108//108
f 114//114 89//89 77//77
f 109//109 61//61 38//38
f 81//81 101//101 64//64
f 81//81 64//64 70//70
f 62//62 39//39 82//82
f 62//62 83//83 39//39
f 116//116 102//102 83//83
f 116//116 83//83 62//62
f 102//102 116//116 2//2
f 125//125 84//84 57//57
f 125//125 57//57 111//111
f 125//125 82//82 84//84
f 103//103 57//57 84//84
f 103//103 84//84 111//111
f 103//103 111//111 57//57
f 104//104 74//74 105//105
f 75//75 104//104 105//105
f 44//44 45//45 28//28
f 66//66 46//46 117//117
f 88//88 120//120 69//69
f 117//117 17//17 45//45
f 67//67 62//62 82//82
f 62//62 67//67 119//119
f 49//49 86//86 118//118
f 108//108 87//87 86//86
f 69//69 68//68 89//89
f 120//120 68//68 69//69
f 86//86 126//126 73//73
f 81//81 66//66 69//69
f 69//69 66//66 88//88
f 109//109 101//101 81//81
f 66//66 71//71 46//46
f 91//91 6//6 110//110
f 88//88 72//72 120//120
f 88//88 6//6 72//72
f 110//110 93//93 53//53
f 53//53 74//74 94//94
f 66//66 75//75 88//88
f 9//9 94//94 104//104
f 9//9 104//104 75//75
f 124//124 55//55 54//54
f 124//124 54//54 60//60
f 96//96 50//50 113//113
f 112//112 97//97 60//60
f 112//112 113//113 97//97
f 113//113 60//60 98//98
f 113//113 112//112 60//60
f 114//114 97//97 89//89
f 115//115 77//77 99//99
f 115//115 99//99 100//100
f 99//99 78//78 100//100
f 106//106 100//100 78//78
f 106//106 78//78 49//49
f 89//89 109//109 81//81
f 116//116 62//62 119//119
f 75//75 105//105 53//53
f 75//75 53//53 93//93
f 44//44 117//117 45//45
f 49//49 118//118 90//90
f 49//49 90//90 106//106
f 85//85 55//55 106//106
f 55//55 85//85 107//107
f 107//107 85//85 111//111
f 118//118 86//86 73//73
f 32//32 81//81 70//70
f 71//71 66//66 81//81
f 117//117 75//75 66//66
f 119//119 90//90 122//122
f 126//126 120//120 73//73
f 91//91 110//110 122//122
f 75//75 6//6 88//88
f 6//6 75//75 93//93
f 6//6 93//93 110//110
f 121//121 94//94 18//18
f 122//122 92//92 91//91
f 122//122 90//90 92//92
f 123//123 94//94 9//9
f 95//95 60//60 54//54
f 60//60 95//95 98//98
f 111//111 85//85 67//67
f 125//125 111//111 67//67
f 124//124 115//115 100//100
f 124//124 106//106 55//55
f 99//99 108//108 78//78
f 115//115 114//114 77//77
f 121//121 116//116 119//119
f 85//85 106//106 90//90
f 67//67 82//82 125//125
f 53//53 105//105 74//74
f 67//67 90//90 119//119
f 85//85 90//90 67//67
f 81//81 32//32 71//71
f 44//44 75//75 117//117
f 121//121 18//18 116//116
f 122//122 110//110 53//53
f 122//122 53//53 94//94
f 96//96 113//113 98//98
f 124//124 100//100 106//106
f 127//127 60//60 97//97
f 127//127 97//97 114//114
f 127//127 114//114 115//115
f 119//119 122//122 94//94
f 119//119 94//94 121//121
f 127//127 124//124 60//60
f 124//124 127//127 115//115
# 250 faces, 0 coords texture

# End of File
