####
#
# OBJ File Generated by Meshlab
#
####
# Object nutrigrain_raspberry_250_collision.obj
#
# Vertices: 127
# Faces: 250
#
####
vn 0.812447 -0.529506 -0.244035
v 0.090019 -0.072407 0.010081
vn 0.622511 0.780473 -0.057808
v -0.025440 0.090019 0.006602
vn -0.299990 -0.891684 -0.338979
v 0.047417 -0.091976 0.009785
vn 0.874835 0.482300 -0.045291
v 0.088062 -0.060665 0.009314
vn -0.802703 -0.595930 0.023131
v 0.021901 -0.062622 0.011742
vn -0.081599 -0.440434 -0.894069
v 0.052798 -0.090032 0.005861
vn -0.497053 -0.372522 0.783687
v 0.029354 -0.056751 0.145616
vn 0.997343 -0.011045 0.072004
v 0.084334 -0.066536 0.131115
vn 0.687803 0.519019 0.507490
v 0.021654 0.019569 0.143022
vn 0.796336 0.602666 0.051409
v 0.043693 -0.005875 0.135032
vn -0.548554 -0.390129 -0.739519
v -0.047351 0.035225 0.005871
vn -0.767269 -0.608888 -0.201380
v 0.021887 -0.062624 0.009785
vn 0.426827 0.223717 -0.876225
v 0.084148 -0.056765 0.005871
vn 0.337830 -0.874575 -0.347834
v 0.062622 -0.090019 0.006337
vn -0.192341 0.967512 -0.164092
v -0.039134 0.090021 0.006450
vn 0.530767 -0.844353 0.073180
v 0.062801 -0.086687 0.134179
vn -0.199781 -0.978674 0.047805
v 0.052837 -0.088958 0.133072
vn 0.636880 0.755547 0.153402
v -0.026409 0.083988 0.139195
vn 0.786014 0.592390 -0.176797
v 0.023483 0.025440 0.006140
vn -0.435413 -0.900185 -0.009108
v 0.046967 -0.091976 0.011169
vn -0.702292 -0.532271 0.472730
v 0.027397 -0.058238 0.142857
vn 0.858462 0.109282 -0.501099
v 0.089053 -0.064579 0.007828
vn 0.208162 -0.977375 0.037514
v 0.058708 -0.088941 0.129158
vn -0.997207 -0.030122 0.068341
v -0.062089 0.062622 0.133072
vn 0.032535 -0.577703 0.815599
v 0.055726 -0.086639 0.145362
vn 0.983963 0.165460 0.066638
v 0.084225 -0.062622 0.131115
vn 0.738013 0.673535 0.041077
v -0.025440 0.083229 0.135029
vn 0.798932 0.601044 0.021310
v 0.043071 -0.003890 0.103718
vn 0.717406 0.535703 -0.445366
v 0.029354 0.017612 0.006138
vn 0.785689 0.612201 0.088903
v -0.019434 0.075985 0.138140
vn 0.764364 0.582784 0.275882
v -0.011742 0.065194 0.140900
vn -0.773188 -0.633715 0.024217
v 0.023483 -0.064579 0.013866
vn -0.773295 -0.525769 0.354375
v -0.055165 0.050428 0.139690
vn -0.605221 -0.445965 0.659410
v -0.037182 0.029354 0.143342
vn -0.810585 -0.585013 0.026681
v -0.038275 0.025012 0.116310
vn -0.611669 -0.246251 -0.751812
v -0.064582 0.060524 0.005871
vn -0.368131 -0.355758 -0.859021
v 0.041304 -0.082406 0.005871
vn 0.343623 -0.197066 -0.918198
v 0.082191 -0.074121 0.005871
vn 0.011764 -0.997870 0.064171
v 0.054794 -0.089082 0.133072
vn -0.483426 0.756760 -0.440016
v -0.046947 0.086120 0.006672
vn -0.206847 0.976862 0.054367
v -0.037182 0.087804 0.131115
vn -0.157808 0.204261 -0.966113
v -0.056751 0.077653 0.005871
vn -0.592160 -0.443996 0.672469
v 0.028334 -0.056751 0.144814
vn 0.995938 0.052257 -0.073329
v 0.090019 -0.070217 0.010044
vn 0.963396 0.264818 0.041715
v 0.084148 -0.062335 0.131115
vn 0.605495 0.450429 0.656117
v 0.021526 0.017683 0.144814
vn 0.759213 0.639584 0.120529
v -0.022879 0.079968 0.140206
vn -0.450752 0.256605 0.854972
v -0.057018 0.069035 0.145940
vn 0.800850 0.598460 0.022004
v 0.045010 -0.006696 0.109589
vn 0.799798 0.600186 0.010041
v 0.064579 -0.029354 0.008630
vn 0.315468 0.303049 -0.899245
v -0.023993 0.088056 0.005871
vn 0.678892 0.418578 0.603240
v 0.078278 -0.055809 0.141743
vn -0.506349 -0.860944 0.048852
v 0.050684 -0.088198 0.133072
vn -0.802152 -0.595609 0.042454
v -0.014462 -0.007792 0.110426
vn -0.804070 -0.592441 0.049851
v -0.035225 0.021620 0.129158
vn -0.765726 -0.577845 0.282415
v 0.027397 -0.060616 0.138943
vn -0.823745 -0.565628 -0.038854
v -0.058755 0.051106 0.007818
vn -0.890282 -0.454684 0.025687
v -0.060665 0.057900 0.129158
vn 0.103981 -0.134332 -0.985466
v 0.074740 -0.080998 0.005871
vn -0.999634 0.003223 0.026853
v -0.066536 0.065557 0.008055
vn -0.601954 0.797619 0.038153
v -0.043604 0.084148 0.133072
vn -0.052779 0.377043 -0.924691
v -0.035914 0.090019 0.005871
vn -0.265860 -0.205667 0.941817
v 0.040108 -0.067522 0.146980
vn 0.899291 -0.401373 0.173714
v 0.083957 -0.068129 0.134687
vn -0.618038 -0.473043 0.627901
v 0.037182 -0.070450 0.143345
vn -0.520730 -0.334454 0.785482
v -0.052529 0.052525 0.144851
vn 0.801101 0.596023 0.054714
v 0.060266 -0.028068 0.134880
vn -0.353204 0.893747 0.276520
v -0.038637 0.086675 0.140138
vn -0.554450 0.827776 0.085863
v -0.040819 0.085984 0.137087
vn 0.792757 0.608611 0.033607
v 0.031981 0.009604 0.131817
vn 0.521233 0.367254 0.770351
v 0.064237 -0.039605 0.144151
vn -0.774599 -0.629195 0.064115
v 0.037083 -0.073507 0.137225
vn -0.671601 -0.495517 0.550831
v -0.037690 0.029353 0.142857
vn 0.617159 -0.772266 0.150733
v 0.076994 -0.075138 0.136526
vn -0.996544 0.043497 0.070767
v -0.062069 0.064579 0.133072
vn -0.691515 0.462650 -0.554763
v -0.064579 0.072407 0.006343
vn -0.616560 0.785810 0.048538
v -0.053391 0.076380 0.135141
vn 0.081272 0.081219 0.993377
v 0.000000 0.038160 0.147304
vn 0.936737 0.336165 0.097555
v 0.083592 -0.060666 0.133044
vn 0.844138 0.535066 0.033692
v 0.082404 -0.057253 0.118750
vn 0.783487 0.590362 0.193961
v 0.042289 -0.004556 0.137951
vn 0.165660 0.169880 0.971441
v -0.028121 0.079210 0.146354
vn 0.635944 0.651720 0.413323
v -0.025282 0.082068 0.142258
vn 0.189084 0.119479 0.974665
v 0.038709 -0.012314 0.146994
vn 0.065202 0.991389 0.113562
v -0.033161 0.088066 0.134585
vn 0.245140 0.728004 0.640248
v -0.031968 0.084965 0.145638
vn -0.392308 0.918702 0.045612
v -0.039138 0.087093 0.133126
vn 0.329308 0.244379 0.912050
v 0.018100 0.017934 0.147069
vn 0.715518 0.532034 0.452741
v 0.052654 -0.020556 0.141646
vn -0.812652 -0.581449 0.038906
v -0.050733 0.043053 0.131115
vn -0.801285 -0.589399 0.102721
v -0.039286 0.027805 0.135575
vn -0.789353 -0.601729 0.121839
v 0.026892 -0.060869 0.136459
vn -0.790534 -0.610764 0.044981
v 0.026378 -0.060665 0.131123
vn -0.746140 -0.563313 0.354898
v 0.028376 -0.060430 0.141566
vn -0.673417 -0.454284 0.583212
v -0.053144 0.050880 0.143151
vn -0.960930 0.102638 -0.257058
v -0.066536 0.068492 0.007303
vn -0.900829 -0.064744 0.429320
v -0.060903 0.063524 0.142907
vn -0.331424 -0.239114 0.912679
v -0.034985 0.031761 0.146189
vn -0.086515 -0.148214 0.985164
v 0.050540 -0.080317 0.146937
vn 0.639169 -0.666178 0.384279
v 0.078182 -0.072301 0.142898
vn -0.490048 -0.486502 0.723304
v 0.048094 -0.082119 0.145193
vn 0.099807 -0.077809 0.991960
v 0.068339 -0.074509 0.146295
vn -0.309684 -0.907051 0.285228
v 0.051561 -0.088153 0.141686
vn 0.407900 0.887676 0.213655
v -0.029206 0.086710 0.135445
vn -0.730162 -0.643025 0.231045
v 0.044606 -0.082243 0.140659
vn -0.742008 -0.552101 0.380274
v -0.039139 0.029511 0.140640
vn -0.840761 -0.529241 0.114128
v -0.058674 0.054782 0.137818
vn -0.967826 -0.241475 -0.070724
v -0.066536 0.064319 0.007834
vn -0.861226 -0.508220 0.001493
v -0.062431 0.056759 0.008407
vn -0.928188 0.348371 0.130782
v -0.061441 0.068292 0.136430
vn -0.604962 0.741111 -0.291161
v -0.062622 0.074364 0.006496
vn -0.714354 0.671566 0.196718
v -0.058490 0.072177 0.138063
vn -0.171510 -0.078252 0.982070
v -0.049619 0.054938 0.146614
vn 0.753866 -0.622207 0.211058
v 0.080914 -0.071826 0.137083
vn 0.356448 -0.879979 0.313977
v 0.058549 -0.088013 0.141756
vn 0.573323 0.447394 0.686396
v -0.010246 0.059387 0.145030
vn 0.827085 0.513689 0.228154
v 0.080397 -0.055527 0.137309
vn 0.909365 0.099958 0.403811
v 0.083145 -0.066261 0.142116
vn 0.341540 0.176258 0.923192
v 0.076545 -0.061842 0.145463
vn -0.927715 -0.321663 0.189414
v -0.061528 0.060496 0.138126
vn 0.034119 0.026960 0.999054
v 0.006743 0.017326 0.148394
vn -0.083707 -0.050549 0.995207
v -0.022753 0.026319 0.147835
vn 0.000928 0.035055 0.999385
v -0.010423 0.032152 0.147884
vn 0.575377 -0.419498 0.702112
v 0.079049 -0.068785 0.145407
vn -0.036595 -0.033526 0.998768
v 0.009261 -0.013980 0.147767
vn 0.083325 0.031773 0.996016
v 0.055401 -0.039179 0.146675
vn 0.048946 0.010748 0.998744
v 0.042260 -0.037138 0.147463
# 127 vertices, 0 vertices normals

f 16//16 1//1 74//74
f 20//20 12//12 3//3
f 57//57 12//12 5//5
f 57//57 11//11 12//12
f 57//57 90//90 107//107
f 37//37 3//3 12//12
f 37//37 12//12 11//11
f 22//22 13//13 4//4
f 6//6 14//14 3//3
f 23//23 3//3 14//14
f 23//23 20//20 3//3
f 16//16 14//14 1//1
f 87//87 40//40 69//69
f 64//64 1//1 8//8
f 26//26 22//22 4//4
f 27//27 2//2 18//18
f 15//15 85//85 2//2
f 28//28 19//19 2//2
f 28//28 2//2 10//10
f 29//29 4//4 13//13
f 70//70 10//10 2//2
f 70//70 2//2 30//30
f 32//32 20//20 105//105
f 32//32 93//93 5//5
f 32//32 5//5 12//12
f 35//35 57//57 5//5
f 35//35 90//90 57//57
f 36//36 11//11 57//57
f 37//37 6//6 3//3
f 38//38 13//13 22//22
f 38//38 22//22 1//1
f 14//14 16//16 23//23
f 39//39 17//17 20//20
f 39//39 20//20 23//23
f 40//40 87//87 15//15
f 41//41 85//85 15//15
f 41//41 15//15 87//87
f 96//96 76//76 36//36
f 42//42 111//111 40//40
f 42//42 76//76 111//111
f 42//42 36//36 76//76
f 112//112 111//111 76//76
f 98//98 66//66 7//7
f 43//43 7//7 66//66
f 114//114 74//74 1//1
f 1//1 64//64 114//114
f 44//44 26//26 8//8
f 44//44 8//8 1//1
f 45//45 26//26 4//4
f 45//45 4//4 79//79
f 81//81 10//10 30//30
f 47//47 31//31 30//30
f 47//47 30//30 2//2
f 47//47 2//2 27//27
f 104//104 18//18 2//2
f 85//85 104//104 2//2
f 50//50 28//28 4//4
f 50//50 19//19 28//28
f 50//50 29//29 19//19
f 50//50 4//4 29//29
f 51//51 2//2 19//19
f 51//51 19//19 29//29
f 51//51 29//29 13//13
f 70//70 30//30 10//10
f 72//72 93//93 32//32
f 12//12 20//20 32//32
f 53//53 20//20 17//17
f 54//54 5//5 93//93
f 73//73 43//43 34//34
f 35//35 5//5 54//54
f 35//35 54//54 55//55
f 58//58 109//109 107//107
f 108//108 109//109 58//58
f 108//108 96//96 36//36
f 108//108 24//24 60//60
f 59//59 38//38 1//1
f 115//115 23//23 16//16
f 115//115 39//39 23//23
f 110//110 76//76 96//96
f 61//61 40//40 111//111
f 62//62 42//42 40//40
f 62//62 40//40 15//15
f 62//62 2//2 51//51
f 62//62 15//15 2//2
f 118//118 8//8 26//26
f 101//101 7//7 43//43
f 65//65 43//43 21//21
f 65//65 101//101 43//43
f 66//66 34//34 43//43
f 44//44 1//1 22//22
f 44//44 22//22 26//26
f 80//80 79//79 4//4
f 67//67 49//49 10//10
f 67//67 4//4 49//49
f 81//81 30//30 31//31
f 116//116 46//46 9//9
f 83//83 31//31 47//47
f 18//18 47//47 27//27
f 83//83 18//18 104//104
f 86//86 68//68 48//48
f 28//28 10//10 49//49
f 28//28 49//49 4//4
f 89//89 81//81 31//31
f 89//89 83//83 9//9
f 89//89 31//31 83//83
f 83//83 116//116 9//9
f 89//89 9//9 46//46
f 89//89 46//46 71//71
f 117//117 89//89 52//52
f 117//117 81//81 89//89
f 89//89 71//71 52//52
f 72//72 32//32 105//105
f 20//20 53//53 105//105
f 54//54 92//92 55//55
f 54//54 93//93 92//92
f 106//106 73//73 33//33
f 106//106 21//21 73//73
f 95//95 33//33 73//73
f 73//73 21//21 43//43
f 35//35 55//55 90//90
f 120//120 24//24 108//108
f 14//14 59//59 1//1
f 59//59 14//14 6//6
f 59//59 13//13 38//38
f 59//59 51//51 13//13
f 59//59 6//6 37//37
f 59//59 62//62 51//51
f 59//59 42//42 62//62
f 59//59 37//37 11//11
f 59//59 36//36 42//42
f 59//59 11//11 36//36
f 103//103 39//39 115//115
f 103//103 17//17 39//39
f 103//103 115//115 25//25
f 114//114 100//100 74//74
f 75//75 110//110 96//96
f 75//75 60//60 24//24
f 76//76 110//110 112//112
f 69//69 40//40 61//61
f 77//77 61//61 111//111
f 113//113 123//123 82//82
f 63//63 98//98 7//7
f 124//124 100//100 114//114
f 101//101 63//63 7//7
f 101//101 65//65 21//21
f 103//103 53//53 17//17
f 79//79 117//117 118//118
f 79//79 26//26 45//45
f 79//79 118//118 26//26
f 117//117 79//79 80//80
f 80//80 4//4 67//67
f 81//81 117//117 67//67
f 10//10 81//81 67//67
f 82//82 116//116 86//86
f 86//86 116//116 83//83
f 86//86 48//48 82//82
f 18//18 83//83 47//47
f 84//84 119//119 71//71
f 88//88 84//84 71//71
f 85//85 68//68 86//86
f 87//87 69//69 68//68
f 68//68 85//85 41//41
f 68//68 41//41 87//87
f 88//88 71//71 46//46
f 88//88 46//46 116//116
f 91//91 107//107 90//90
f 91//91 90//90 55//55
f 91//91 55//55 92//92
f 33//33 107//107 91//91
f 93//93 72//72 92//92
f 94//94 56//56 105//105
f 94//94 21//21 106//106
f 95//95 73//73 34//34
f 95//95 34//34 66//66
f 109//109 57//57 107//107
f 109//109 36//36 57//57
f 109//109 108//108 36//36
f 97//97 24//24 120//120
f 96//96 60//60 75//75
f 96//96 108//108 60//60
f 48//48 97//97 66//66
f 113//113 66//66 98//98
f 112//112 69//69 77//77
f 97//97 48//48 112//112
f 112//112 48//48 68//68
f 78//78 82//82 123//123
f 63//63 125//125 122//122
f 63//63 122//122 98//98
f 100//100 124//124 115//115
f 119//119 124//124 118//118
f 64//64 8//8 118//118
f 64//64 124//124 114//114
f 124//124 64//64 118//118
f 103//103 101//101 105//105
f 99//99 63//63 101//101
f 105//105 101//101 21//21
f 105//105 21//21 94//94
f 97//97 95//95 66//66
f 102//102 25//25 124//124
f 105//105 53//53 103//103
f 119//119 118//118 52//52
f 119//119 52//52 71//71
f 117//117 52//52 118//118
f 86//86 104//104 85//85
f 112//112 68//68 69//69
f 106//106 56//56 94//94
f 33//33 56//56 106//106
f 33//33 97//97 120//120
f 33//33 95//95 97//97
f 91//91 92//92 33//33
f 33//33 92//92 56//56
f 107//107 33//33 120//120
f 120//120 58//58 107//107
f 108//108 58//58 120//120
f 74//74 115//115 16//16
f 97//97 75//75 24//24
f 110//110 75//75 97//97
f 97//97 112//112 110//110
f 66//66 113//113 48//48
f 77//77 69//69 61//61
f 111//111 112//112 77//77
f 113//113 98//98 122//122
f 121//121 125//125 99//99
f 113//113 82//82 48//48
f 122//122 123//123 113//113
f 117//117 80//80 67//67
f 103//103 25//25 101//101
f 25//25 102//102 99//99
f 25//25 99//99 101//101
f 115//115 124//124 25//25
f 115//115 74//74 100//100
f 88//88 116//116 82//82
f 88//88 82//82 78//78
f 104//104 86//86 83//83
f 102//102 119//119 126//126
f 84//84 126//126 119//119
f 121//121 84//84 88//88
f 105//105 92//92 72//72
f 123//123 121//121 78//78
f 122//122 125//125 121//121
f 119//119 102//102 124//124
f 125//125 63//63 99//99
f 127//127 99//99 102//102
f 127//127 121//121 99//99
f 127//127 102//102 126//126
f 123//123 122//122 121//121
f 121//121 127//127 84//84
f 105//105 56//56 92//92
f 121//121 88//88 78//78
f 126//126 84//84 127//127
# 250 faces, 0 coords texture

# End of File
