####
#
# OBJ File Generated by Meshlab
#
####
# Object nutrigrain_raspberry_250_collision.obj
#
# Vertices: 127
# Faces: 250
#
####
vn -0.020812 -0.016785 0.999643
v 0.011359 0.000492 -0.000350
vn 0.708716 0.579300 0.402658
v -0.023282 0.007725 0.008105
vn -0.722480 0.691385 0.002964
v 0.079227 -0.073875 0.061199
vn -0.942886 -0.333029 -0.007540
v 0.081605 -0.059210 0.084204
vn -0.795873 -0.605452 0.003659
v 0.036526 0.002736 0.097313
vn 0.798600 0.601774 0.010281
v -0.014926 -0.009575 0.102118
vn 0.153372 0.118587 -0.981027
v 0.013814 -0.020626 0.149354
vn 0.616796 0.439687 0.652869
v 0.009445 -0.029754 0.004766
vn 0.449063 0.352160 0.821173
v 0.001615 -0.016352 0.002634
vn 0.302468 0.261235 0.916662
v -0.010957 0.002635 0.001278
vn 0.758111 0.589220 0.279442
v -0.001903 -0.018470 0.008583
vn 0.782588 0.617532 0.078803
v 0.003081 -0.028228 0.045493
vn 0.779082 0.624677 0.053014
v -0.001591 -0.019202 0.025153
vn 0.786074 0.616443 0.045666
v -0.005875 -0.019693 0.073939
vn 0.788401 0.615008 0.013718
v 0.006764 -0.037959 0.109033
vn 0.800032 0.594008 -0.084280
v -0.005425 -0.021587 0.121056
vn 0.744346 0.538681 -0.394681
v -0.018765 -0.000633 0.136514
vn 0.615134 0.449047 -0.648049
v 0.004228 -0.028220 0.143273
vn 0.360527 0.231109 -0.903664
v -0.005433 -0.006143 0.146708
vn 0.315649 0.205752 0.926300
v -0.040761 0.041192 0.000983
vn 0.884234 0.320496 0.339723
v -0.061943 0.057183 0.008933
vn 0.413467 0.334141 0.846992
v -0.025637 0.019037 0.001719
vn 0.728465 0.556838 0.399087
v -0.044577 0.034409 0.007386
vn 0.047427 0.039143 0.998107
v -0.006699 0.015718 -0.000444
vn -0.119457 -0.101899 0.987596
v -0.019900 0.043340 -0.000066
vn 0.118310 -0.098155 0.988113
v -0.040443 0.058454 0.000129
vn -0.167537 -0.154424 0.973696
v -0.004905 0.031177 0.000372
vn -0.377925 -0.309120 0.872707
v 0.011618 0.021744 0.002473
vn -0.568268 -0.447117 0.690766
v -0.000157 0.044169 0.005535
vn -0.791647 -0.608975 0.049447
v 0.000261 0.046747 0.033306
vn 0.467285 0.023817 0.883786
v -0.058591 0.062162 0.003917
vn 0.696081 -0.462135 0.549456
v -0.060999 0.068844 0.006870
vn -0.040105 -0.236737 0.970746
v -0.034784 0.073719 0.001170
vn 0.010957 -0.772875 0.634464
v -0.039020 0.083486 0.005051
vn -0.613516 -0.530890 0.584597
v -0.018820 0.069945 0.005667
vn 0.906288 0.422622 0.005713
v -0.061877 0.056441 0.053804
vn 0.782326 0.621292 0.044306
v -0.031886 0.016906 0.032295
vn 0.800099 0.599255 0.027108
v -0.048203 0.037989 0.030643
vn 0.788561 0.613020 0.048775
v -0.021830 0.001938 0.055032
vn -0.786926 -0.616818 0.016830
v 0.001719 0.047224 0.077755
vn 0.737088 -0.675756 0.007412
v -0.058510 0.072532 0.061503
vn 0.983524 -0.180728 0.004158
v -0.062748 0.065028 0.059887
vn -0.370197 -0.910273 0.185360
v -0.028694 0.083502 0.010819
vn -0.165068 -0.986127 0.017495
v -0.034539 0.085717 0.054289
vn 0.355512 -0.934386 0.023119
v -0.040507 0.085030 0.041159
vn -0.688129 -0.725303 0.020347
v -0.025897 0.081617 0.054947
vn 0.398130 -0.917214 0.014535
v -0.041138 0.085012 0.084328
vn 0.806980 0.590288 0.018536
v -0.040565 0.025645 0.066543
vn 0.981429 0.191766 -0.004731
v -0.062428 0.058178 0.091485
vn 0.833539 0.552457 -0.001777
v -0.054039 0.044960 0.092340
vn 0.828504 0.559525 -0.022639
v -0.052269 0.042234 0.115493
vn 0.805142 0.592108 -0.033971
v -0.032371 0.014333 0.114609
vn 0.726271 0.519192 -0.450522
v -0.048525 0.039348 0.138435
vn 0.816763 -0.576973 -0.001109
v -0.060736 0.070300 0.081199
vn 0.828466 -0.544403 -0.131412
v -0.061807 0.070025 0.136979
vn 0.876715 0.300987 -0.375202
v -0.062955 0.060290 0.138531
vn -0.589645 -0.807657 0.002944
v -0.025564 0.082305 0.090374
vn 0.317969 -0.948032 0.011471
v -0.040681 0.086037 0.116048
vn -0.704392 -0.709803 0.003463
v -0.022472 0.079010 0.116051
vn -0.182171 -0.983120 0.017019
v -0.034808 0.086622 0.097346
vn -0.322305 -0.945730 -0.041396
v -0.030267 0.086725 0.128038
vn 0.204489 -0.883877 -0.420649
v -0.040170 0.086441 0.138779
vn 0.429440 0.313278 -0.847017
v -0.020287 0.015665 0.146686
vn 0.082256 0.069130 -0.994211
v -0.013148 0.018123 0.148192
vn 0.257800 0.182611 -0.948784
v -0.029703 0.036231 0.148706
vn -0.776556 -0.571291 -0.265681
v -0.001064 0.050663 0.138264
vn -0.311764 -0.208558 -0.926988
v -0.011030 0.047141 0.147791
vn 0.563411 -0.215963 -0.797451
v -0.059252 0.066164 0.144733
vn -0.050269 -0.353352 -0.934139
v -0.031113 0.076988 0.148225
vn -0.559395 -0.682518 -0.470368
v -0.023965 0.080129 0.142914
vn 0.531604 0.412384 0.739822
v 0.035689 -0.061078 0.002353
vn 0.626322 0.722664 0.292364
v 0.047842 -0.085349 0.010506
vn 0.182727 0.348960 0.919151
v 0.051165 -0.079084 0.002178
vn -0.273440 0.859957 0.430934
v 0.059292 -0.087726 0.006710
vn -0.303494 0.185254 0.934651
v 0.071030 -0.070166 0.001830
vn -0.739930 -0.313024 0.595415
v 0.080830 -0.059052 0.005820
vn -0.887384 0.242799 0.391915
v 0.082728 -0.066027 0.007861
vn 0.105709 0.102509 0.989099
v 0.041072 -0.053151 -0.000300
vn 0.649336 0.483288 0.587193
v 0.017129 -0.041084 0.003945
vn 0.781785 0.586564 0.211553
v 0.012206 -0.037316 0.009385
vn -0.084819 -0.003419 0.996391
v 0.057874 -0.055867 -0.000640
vn -0.088249 -0.081181 0.992785
v 0.030974 -0.022317 -0.000660
vn -0.389593 -0.237675 0.889791
v 0.066815 -0.049964 0.001474
vn -0.733083 -0.588671 0.340668
v 0.067564 -0.042417 0.007383
vn 0.235976 0.161657 0.958218
v 0.020400 -0.030646 -0.000027
vn -0.498666 -0.402309 0.767776
v 0.050465 -0.025267 0.002161
vn -0.629665 -0.479228 0.611443
v 0.039342 -0.009818 0.003367
vn -0.787327 -0.605311 0.117110
v 0.048632 -0.016224 0.019842
vn 0.226504 0.973705 0.024369
v 0.053692 -0.088888 0.035895
vn -0.459149 0.888285 0.011452
v 0.061363 -0.087274 0.035353
vn 0.791942 0.592987 0.145584
v 0.033635 -0.065769 0.017227
vn -0.267868 0.963417 0.008671
v 0.058001 -0.088626 0.069081
vn 0.771048 0.635404 0.041783
v 0.037363 -0.073689 0.060583
vn 0.473388 0.880466 0.026152
v 0.049666 -0.088378 0.066295
vn -0.930103 0.365984 0.031051
v 0.082139 -0.070102 0.023300
vn -0.988827 0.149046 0.002640
v 0.082729 -0.066000 0.059921
vn -0.944350 -0.328524 0.016589
v 0.081727 -0.059179 0.057486
vn 0.796074 0.604331 0.032409
v 0.018583 -0.045337 0.027727
vn -0.902582 -0.430472 0.006290
v 0.080619 -0.058920 0.026801
vn -0.806726 -0.590874 0.007834
v 0.063270 -0.033411 0.068738
vn 0.029986 0.999549 0.001555
v 0.055618 -0.089512 0.104176
vn 0.608824 0.793295 0.004024
v 0.045828 -0.086170 0.110760
vn -0.470689 0.882297 0.001836
v 0.060935 -0.088035 0.101736
vn 0.369265 0.888459 -0.272551
v 0.048756 -0.088162 0.137847
vn -0.359818 0.927296 -0.103210
v 0.058516 -0.088622 0.134112
vn 0.772215 0.634939 0.023163
v 0.031202 -0.068181 0.097656
vn 0.737943 0.592111 -0.323797
v 0.027182 -0.063676 0.138729
vn -0.773759 0.633468 -0.003944
v 0.079648 -0.073601 0.103390
vn -0.996994 0.077038 0.008305
v 0.082696 -0.067983 0.106472
vn -0.905056 0.263225 -0.334046
v 0.083409 -0.068535 0.136984
vn -0.790188 -0.592107 -0.158154
v 0.048157 -0.013856 0.132341
vn -0.882993 -0.454989 -0.115362
v 0.080361 -0.057493 0.129276
vn -0.235668 0.772275 -0.589959
v 0.055766 -0.087557 0.141416
vn 0.197763 0.374591 -0.905854
v 0.050054 -0.080047 0.146324
vn -0.437058 0.078963 -0.895961
v 0.075859 -0.067119 0.145296
vn 0.216990 0.195706 -0.956355
v 0.027019 -0.044804 0.147911
vn -0.200437 -0.099529 -0.974638
v 0.059518 -0.050653 0.146772
vn -0.660909 -0.446848 -0.602931
v 0.062734 -0.038578 0.141157
vn -0.252612 -0.158791 -0.954449
v 0.039528 -0.020420 0.148293
vn -0.499492 -0.397323 0.769833
v 0.027228 0.005830 0.002997
vn -0.786929 -0.596560 0.157669
v 0.030003 0.006778 0.012214
vn -0.748423 -0.585600 0.311346
v 0.018813 0.019930 0.007667
vn -0.789141 -0.612903 0.040089
v 0.017779 0.025435 0.046617
vn -0.795004 -0.594020 -0.122918
v 0.021880 0.019766 0.132045
vn -0.792983 -0.609197 -0.007570
v 0.015123 0.030749 0.103273
vn -0.627257 -0.475383 -0.616895
v 0.024826 0.011419 0.141914
vn -0.090510 -0.090654 -0.991761
v 0.017594 -0.001841 0.149501
# 127 vertices, 0 vertices normals

f 80//80 79//79 8//8
f 9//9 8//8 85//85
f 8//8 9//9 11//11
f 9//9 10//10 2//2
f 24//24 10//10 1//1
f 10//10 9//9 1//1
f 11//11 80//80 8//8
f 98//98 11//11 13//13
f 11//11 9//9 2//2
f 11//11 2//2 13//13
f 37//37 13//13 2//2
f 12//12 13//13 39//39
f 14//14 12//12 39//39
f 15//15 14//14 6//6
f 14//14 39//39 6//6
f 15//15 6//6 16//16
f 107//107 15//15 16//16
f 16//16 6//6 52//52
f 17//17 16//16 52//52
f 18//18 107//107 16//16
f 16//16 17//17 18//18
f 17//17 19//19 18//18
f 64//64 19//19 63//63
f 19//19 7//7 18//18
f 7//7 19//19 127//127
f 127//127 19//19 64//64
f 20//20 21//21 23//23
f 20//20 31//31 21//21
f 31//31 20//20 26//26
f 38//38 23//23 21//21
f 37//37 2//2 23//23
f 37//37 23//23 38//38
f 10//10 22//22 2//2
f 22//22 10//10 24//24
f 27//27 1//1 28//28
f 20//20 22//22 24//24
f 24//24 1//1 27//27
f 23//23 2//2 22//22
f 23//23 22//22 20//20
f 26//26 20//20 25//25
f 26//26 25//25 33//33
f 25//25 20//20 24//24
f 25//25 24//24 27//27
f 27//27 28//28 29//29
f 29//29 25//25 27//27
f 35//35 25//25 29//29
f 30//30 29//29 122//122
f 35//35 29//29 30//30
f 32//32 31//31 26//26
f 33//33 32//32 26//26
f 21//21 31//31 32//32
f 35//35 33//33 25//25
f 34//34 32//32 33//33
f 35//35 34//34 33//33
f 35//35 43//43 34//34
f 32//32 34//34 45//45
f 45//45 34//34 43//43
f 38//38 21//21 36//36
f 36//36 48//48 38//38
f 50//50 48//48 36//36
f 13//13 37//37 39//39
f 48//48 37//37 38//38
f 48//48 39//39 37//37
f 46//46 30//30 40//40
f 21//21 32//32 42//42
f 36//36 21//21 42//42
f 42//42 32//32 41//41
f 45//45 41//41 32//32
f 36//36 42//42 49//49
f 43//43 44//44 45//45
f 44//44 43//43 46//46
f 46//46 43//43 35//35
f 35//35 30//30 46//46
f 54//54 41//41 45//45
f 54//54 45//45 47//47
f 57//57 46//46 40//40
f 47//47 45//45 44//44
f 47//47 44//44 60//60
f 44//44 46//46 57//57
f 49//49 50//50 36//36
f 51//51 48//48 50//50
f 51//51 50//50 49//49
f 56//56 51//51 49//49
f 53//53 51//51 56//56
f 39//39 48//48 52//52
f 52//52 6//6 39//39
f 51//51 52//52 48//48
f 40//40 125//125 66//66
f 17//17 52//52 53//53
f 52//52 51//51 53//53
f 49//49 42//42 54//54
f 42//42 41//41 54//54
f 54//54 55//55 49//49
f 47//47 55//55 54//54
f 58//58 55//55 47//47
f 49//49 55//55 56//56
f 55//55 58//58 62//62
f 55//55 68//68 56//56
f 59//59 40//40 66//66
f 59//59 57//57 40//40
f 60//60 44//44 57//57
f 58//58 47//47 60//60
f 59//59 60//60 57//57
f 61//61 59//59 70//70
f 66//66 70//70 59//59
f 58//58 60//60 61//61
f 60//60 59//59 61//61
f 61//61 62//62 58//58
f 68//68 65//65 56//56
f 63//63 19//19 17//17
f 53//53 63//63 17//17
f 64//64 67//67 127//127
f 67//67 126//126 127//127
f 53//53 65//65 63//63
f 65//65 64//64 63//63
f 53//53 56//56 65//65
f 65//65 67//67 64//64
f 68//68 69//69 65//65
f 69//69 67//67 65//65
f 55//55 62//62 68//68
f 68//68 62//62 69//69
f 70//70 69//69 62//62
f 70//70 66//66 67//67
f 69//69 70//70 67//67
f 62//62 61//61 70//70
f 71//71 72//72 73//73
f 72//72 71//71 91//91
f 74//74 73//73 72//72
f 75//75 73//73 74//74
f 71//71 73//73 78//78
f 78//78 73//73 81//81
f 73//73 75//75 81//81
f 75//75 77//77 76//76
f 77//77 75//75 74//74
f 77//77 74//74 95//95
f 76//76 77//77 99//99
f 95//95 99//99 77//77
f 85//85 79//79 71//71
f 79//79 85//85 8//8
f 78//78 82//82 85//85
f 85//85 71//71 78//78
f 79//79 80//80 91//91
f 91//91 71//71 79//79
f 91//91 80//80 98//98
f 11//11 98//98 80//80
f 81//81 75//75 83//83
f 82//82 78//78 81//81
f 86//86 82//82 81//81
f 86//86 81//81 83//83
f 86//86 83//83 84//84
f 76//76 99//99 84//84
f 1//1 9//9 85//85
f 82//82 1//1 85//85
f 1//1 82//82 120//120
f 120//120 82//82 87//87
f 82//82 86//86 87//87
f 88//88 87//87 86//86
f 88//88 86//86 84//84
f 88//88 84//84 99//99
f 88//88 121//121 87//87
f 87//87 121//121 120//120
f 83//83 75//75 76//76
f 83//83 76//76 84//84
f 72//72 89//89 74//74
f 90//90 74//74 89//89
f 92//92 90//90 89//89
f 92//92 89//89 94//94
f 93//93 72//72 91//91
f 89//89 72//72 93//93
f 92//92 3//3 90//90
f 103//103 3//3 92//92
f 94//94 89//89 93//93
f 94//94 93//93 106//106
f 95//95 74//74 90//90
f 95//95 97//97 99//99
f 3//3 95//95 90//90
f 96//96 95//95 3//3
f 97//97 95//95 96//96
f 96//96 3//3 108//108
f 4//4 97//97 96//96
f 98//98 13//13 12//12
f 88//88 99//99 100//100
f 91//91 98//98 93//93
f 93//93 98//98 12//12
f 93//93 12//12 14//14
f 100//100 5//5 88//88
f 100//100 99//99 97//97
f 97//97 4//4 100//100
f 92//92 94//94 101//101
f 103//103 92//92 101//101
f 101//101 94//94 102//102
f 106//106 102//102 94//94
f 101//101 102//102 104//104
f 103//103 101//101 105//105
f 105//105 101//101 104//104
f 105//105 104//104 113//113
f 106//106 15//15 107//107
f 102//102 106//106 107//107
f 104//104 102//102 107//107
f 108//108 103//103 105//105
f 108//108 3//3 103//103
f 109//109 96//96 108//108
f 4//4 96//96 109//109
f 109//109 112//112 4//4
f 105//105 110//110 108//108
f 109//109 108//108 110//110
f 112//112 109//109 110//110
f 15//15 93//93 14//14
f 93//93 15//15 106//106
f 100//100 4//4 112//112
f 112//112 111//111 100//100
f 111//111 5//5 100//100
f 111//111 124//124 5//5
f 112//112 110//110 118//118
f 107//107 114//114 104//104
f 114//114 113//113 104//104
f 115//115 113//113 114//114
f 117//117 115//115 114//114
f 110//110 105//105 113//113
f 115//115 110//110 113//113
f 118//118 115//115 117//117
f 116//116 114//114 107//107
f 116//116 18//18 7//7
f 107//107 18//18 116//116
f 117//117 114//114 116//116
f 119//119 117//117 116//116
f 117//117 119//119 118//118
f 119//119 116//116 7//7
f 7//7 127//127 119//119
f 111//111 112//112 118//118
f 119//119 126//126 118//118
f 126//126 111//111 118//118
f 126//126 124//124 111//111
f 110//110 115//115 118//118
f 120//120 28//28 1//1
f 122//122 28//28 120//120
f 122//122 29//29 28//28
f 122//122 120//120 121//121
f 122//122 121//121 123//123
f 30//30 122//122 123//123
f 121//121 88//88 5//5
f 123//123 121//121 5//5
f 125//125 40//40 123//123
f 30//30 123//123 40//40
f 125//125 123//123 5//5
f 125//125 5//5 124//124
f 66//66 125//125 124//124
f 126//126 66//66 124//124
f 119//119 127//127 126//126
f 67//67 66//66 126//126
# 250 faces, 0 coords texture

# End of File
