####
#
# OBJ File Generated by Meshlab
#
####
# Object cinnamon_toast_crunch_250_collision.obj
#
# Vertices: 127
# Faces: 250
#
####
vn 0.018925 0.033639 0.999255
v 0.010389 -0.011509 -0.000890
vn -0.131449 -0.192793 0.972395
v 0.064768 -0.019971 0.001296
vn -0.344513 -0.565305 0.749494
v 0.043341 0.000783 0.004241
vn -0.118643 -0.218207 -0.968664
v 0.025394 -0.005766 0.261458
vn 0.152020 0.223395 0.962801
v -0.040720 0.001439 0.000488
vn 0.480032 0.770846 0.418767
v -0.044115 -0.008560 0.006411
vn 0.508807 0.833120 0.216858
v -0.011214 -0.030270 0.015690
vn 0.251629 0.443560 0.860196
v -0.010135 -0.024158 0.002067
vn 0.285975 0.480767 0.828904
v 0.021699 -0.042577 0.002373
vn 0.509494 0.860287 0.017954
v 0.019287 -0.050830 0.057130
vn 0.529415 0.847862 0.029136
v -0.020248 -0.026744 0.060776
vn 0.521730 0.853074 -0.007919
v 0.003746 -0.041925 0.113615
vn 0.517501 0.855651 0.007320
v -0.021181 -0.024932 0.218267
vn 0.492354 0.816740 -0.300871
v 0.024402 -0.052128 0.252702
vn 0.438962 0.773530 -0.457125
v -0.011184 -0.029904 0.256355
vn 0.183451 0.335614 -0.923964
v -0.017131 -0.020017 0.261964
vn 0.163798 0.295783 -0.941107
v 0.021341 -0.041996 0.261071
vn 0.501087 0.279743 0.818936
v -0.072959 0.013848 0.002825
vn 0.882411 -0.216598 0.417656
v -0.080575 0.023408 0.010870
vn 0.832660 0.513388 0.207629
v -0.078469 0.011416 0.012834
vn 0.749632 0.661837 0.004911
v -0.077491 0.011472 0.046671
vn 0.999897 0.011882 0.008087
v -0.081325 0.023715 0.058998
vn 0.223331 -0.086450 0.970902
v -0.063438 0.028530 0.000620
vn 0.028256 0.039571 0.998817
v -0.026601 0.006727 -0.000742
vn -0.120013 -0.220980 0.967866
v 0.012279 0.007430 0.000428
vn -0.024469 -0.066850 0.997463
v -0.031693 0.018792 -0.000767
vn -0.208554 -0.546920 0.810792
v -0.044598 0.051216 0.002030
vn -0.238386 -0.940925 0.240483
v -0.049668 0.058697 0.012161
vn -0.343058 -0.549172 0.762051
v -0.021927 0.036628 0.002455
vn -0.493490 -0.854024 0.164652
v -0.020665 0.042752 0.018316
vn 0.419239 -0.765652 0.487869
v -0.059342 0.056045 0.005587
vn -0.081192 -0.996689 0.004429
v -0.050889 0.059023 0.038502
vn 0.978176 -0.207518 0.010387
v -0.082069 0.023312 0.097120
vn 0.821857 0.569641 0.007751
v -0.078010 0.011498 0.102191
vn 0.703384 0.710809 0.001359
v -0.077903 0.011100 0.135822
vn 0.552074 0.833360 0.026942
v -0.054356 -0.004903 0.057533
vn 0.539889 0.841732 0.002470
v -0.026916 -0.023196 0.088966
vn -0.482797 -0.875656 0.011548
v -0.013037 0.040359 0.079642
vn 0.638488 -0.769572 0.009630
v -0.062052 0.054570 0.056256
vn -0.183221 -0.983057 0.005414
v -0.048898 0.058836 0.081205
vn 0.215348 -0.976536 0.001389
v -0.053650 0.059346 0.111948
vn 0.752432 -0.658653 0.004764
v -0.062997 0.053332 0.125159
vn -0.298590 -0.954278 -0.014086
v -0.044798 0.056954 0.137342
vn -0.487385 -0.873120 -0.010844
v -0.012381 0.039769 0.129628
vn 0.997741 0.066926 0.005864
v -0.082446 0.022585 0.140245
vn 0.806936 0.590545 0.010552
v -0.078187 0.010321 0.184447
vn 0.985267 -0.171020 0.001316
v -0.082745 0.021438 0.188852
vn 0.530840 0.847447 -0.006467
v -0.047198 -0.008874 0.166533
vn 0.304270 -0.952580 -0.003298
v -0.058575 0.057654 0.149744
vn -0.494041 -0.868890 -0.030869
v -0.000929 0.031857 0.178342
vn 0.770162 0.637828 0.005119
v -0.079874 0.012134 0.212764
vn 0.632003 -0.774903 -0.009847
v -0.062390 0.054538 0.191603
vn -0.102137 -0.994606 -0.018105
v -0.050114 0.058808 0.181483
vn -0.494377 -0.867577 -0.053873
v -0.023504 0.043542 0.208384
vn 0.762080 0.558704 -0.327237
v -0.077722 0.009134 0.257365
vn 0.741209 -0.390468 -0.546026
v -0.078661 0.024248 0.257053
vn 0.978986 0.009234 -0.203720
v -0.081959 0.020699 0.252747
vn 0.619993 -0.781520 -0.069534
v -0.062061 0.054423 0.239797
vn 0.714980 0.699051 0.011455
v -0.076654 0.007850 0.236495
vn 0.450213 0.779556 -0.435431
v -0.047574 -0.009891 0.255009
vn -0.214300 -0.973346 -0.081689
v -0.049390 0.056783 0.233654
vn 0.327249 -0.814536 -0.478998
v -0.059456 0.053863 0.256342
vn 0.534180 0.186901 -0.824451
v -0.075062 0.013698 0.263229
vn 0.135957 0.250730 -0.958462
v -0.046827 -0.001585 0.262366
vn -0.174418 -0.264168 -0.948574
v -0.010815 0.015776 0.262409
vn 0.112354 -0.292884 -0.949524
v -0.056984 0.046458 0.260951
vn -0.257477 -0.726003 -0.637671
v -0.048608 0.053437 0.255794
vn -0.483821 -0.787967 -0.380823
v -0.003464 0.027180 0.253668
vn 0.199596 0.356832 0.912597
v 0.062236 -0.063050 0.001081
vn 0.093333 0.663532 0.742303
v 0.073620 -0.076166 0.003504
vn 0.004104 0.011905 0.999921
v 0.039200 -0.028250 -0.000806
vn -0.081317 -0.059567 0.994907
v 0.069238 -0.035834 -0.000418
vn -0.320146 0.244286 0.915331
v 0.084727 -0.063434 0.001835
vn -0.438414 -0.144598 0.887065
v 0.096907 -0.035866 0.002453
vn -0.362087 -0.549564 0.752910
v 0.076735 -0.020336 0.003779
vn 0.478832 0.789121 0.384718
v 0.025412 -0.052686 0.012515
vn 0.437556 0.860846 0.259785
v 0.054537 -0.070432 0.012759
vn -0.415031 0.868114 0.272265
v 0.083829 -0.079181 0.011503
vn 0.260795 0.965004 0.027437
v 0.072969 -0.080531 0.058335
vn -0.847837 0.232009 0.476807
v 0.104002 -0.046720 0.010323
vn -0.782242 -0.567153 0.257750
v 0.102602 -0.033620 0.009340
vn -0.982474 0.185502 0.018269
v 0.105161 -0.046699 0.046628
vn -0.552054 0.833682 0.014529
v 0.085557 -0.079079 0.066871
vn -0.571925 -0.820278 0.006770
v 0.068220 -0.010591 0.104177
vn 0.495628 0.868509 0.006687
v 0.034580 -0.059809 0.102694
vn 0.502475 0.864569 -0.006204
v 0.041595 -0.063795 0.157357
vn 0.141781 0.989704 0.019602
v 0.073245 -0.081842 0.101900
vn -0.621393 0.783391 0.013017
v 0.085919 -0.079068 0.133715
vn -0.827094 -0.562006 -0.008077
v 0.102661 -0.035541 0.071368
vn -0.996370 0.085011 0.004362
v 0.105751 -0.047364 0.100473
vn -0.814168 -0.580618 0.003628
v 0.102172 -0.035720 0.120669
vn 0.078562 0.996879 0.007792
v 0.076179 -0.083473 0.147716
vn 0.104079 0.994445 -0.015733
v 0.076247 -0.083073 0.200897
vn 0.508281 0.861120 -0.011062
v 0.042878 -0.064059 0.204528
vn -0.561411 0.827528 -0.003775
v 0.085674 -0.079959 0.205133
vn 0.524111 0.851491 -0.016459
v 0.002537 -0.040230 0.161488
vn 0.523479 0.851979 -0.010058
v -0.010310 -0.031532 0.191545
vn -0.833765 -0.552011 0.010920
v 0.102859 -0.035701 0.153318
vn -0.570370 -0.821362 0.006497
v 0.069610 -0.010852 0.176611
vn -0.974593 0.223954 0.003464
v 0.105295 -0.047946 0.167864
vn -0.863396 0.504464 0.007972
v 0.090170 -0.072507 0.215916
vn -0.837502 -0.546414 -0.004700
v 0.103851 -0.035967 0.199536
vn 0.227429 0.355888 -0.906432
v 0.042657 -0.055641 0.261113
vn 0.176411 0.928909 -0.325587
v 0.073961 -0.081544 0.254330
vn -0.186017 0.517140 -0.835443
v 0.079581 -0.074518 0.261672
vn -0.684599 0.641994 -0.345206
v 0.085255 -0.080568 0.250453
vn -0.809622 -0.550449 -0.203761
v 0.102699 -0.035146 0.255714
vn -0.272510 0.053871 -0.960644
v 0.089400 -0.051486 0.263806
vn -0.171498 -0.369201 -0.913389
v 0.045923 -0.006815 0.259376
vn -0.066076 -0.139982 -0.987947
v 0.063059 -0.028682 0.262195
vn -0.387027 -0.692256 -0.609091
v 0.075150 -0.020363 0.256415
vn -0.989803 -0.142437 -0.001006
v 0.106286 -0.043261 0.219253
vn -0.613834 -0.788121 -0.045525
v 0.092355 -0.026167 0.228011
vn -0.956259 0.263087 -0.127882
v 0.106271 -0.046282 0.239404
vn -0.705573 -0.016258 -0.708450
v 0.100919 -0.038088 0.260966
vn -0.197597 -0.386844 0.900726
v 0.027965 0.005734 0.001774
vn -0.097890 -0.136859 0.985742
v 0.033783 -0.008988 -0.000031
vn -0.520095 -0.837929 0.165457
v 0.053835 -0.002199 0.014073
vn -0.432658 -0.773027 0.463935
v 0.003384 0.027282 0.010459
vn -0.527252 -0.849208 0.029190
v 0.014805 0.023520 0.054452
vn -0.556233 -0.831023 -0.002594
v 0.082485 -0.020686 0.031631
vn -0.528433 -0.848961 0.004833
v 0.028993 0.015512 0.097835
vn -0.526714 -0.849986 -0.009786
v 0.036235 0.010597 0.158448
vn -0.520331 -0.853592 -0.025215
v 0.059810 -0.004780 0.202726
vn -0.506562 -0.855633 -0.106242
v 0.058413 -0.004833 0.228091
vn -0.499620 -0.862537 -0.080066
v 0.014885 0.020320 0.221249
vn -0.407516 -0.747854 -0.524067
v 0.030398 0.006580 0.251774
# 127 vertices, 0 vertices normals

f 7//7 9//9 8//8
f 6//6 7//7 8//8
f 5//5 8//8 24//24
f 8//8 5//5 6//6
f 8//8 9//9 1//1
f 1//1 24//24 8//8
f 7//7 6//6 36//36
f 11//11 7//7 36//36
f 7//7 10//10 76//76
f 10//10 7//7 11//11
f 37//37 11//11 36//36
f 10//10 11//11 37//37
f 10//10 37//37 12//12
f 12//12 37//37 35//35
f 48//48 12//12 35//35
f 48//48 96//96 12//12
f 96//96 48//48 97//97
f 48//48 13//13 97//97
f 60//60 16//16 15//15
f 14//14 13//13 15//15
f 60//60 15//15 13//13
f 14//14 15//15 17//17
f 17//17 15//15 16//16
f 4//4 17//17 16//16
f 20//20 18//18 19//19
f 18//18 23//23 19//19
f 19//19 23//23 31//31
f 19//19 22//22 20//20
f 21//21 20//20 22//22
f 39//39 22//22 19//19
f 18//18 6//6 5//5
f 6//6 18//18 20//20
f 23//23 18//18 5//5
f 23//23 5//5 24//24
f 26//26 23//23 24//24
f 25//25 26//26 24//24
f 25//25 24//24 1//1
f 25//25 1//1 117//117
f 29//29 27//27 26//26
f 29//29 26//26 25//25
f 29//29 25//25 119//119
f 119//119 25//25 116//116
f 27//27 31//31 23//23
f 23//23 26//26 27//27
f 28//28 31//31 27//27
f 30//30 29//29 119//119
f 21//21 6//6 20//20
f 36//36 6//6 21//21
f 30//30 119//119 120//120
f 19//19 31//31 39//39
f 30//30 28//28 27//27
f 32//32 28//28 30//30
f 31//31 28//28 32//32
f 39//39 31//31 32//32
f 27//27 29//29 30//30
f 120//120 38//38 30//30
f 38//38 32//32 30//30
f 34//34 21//21 22//22
f 34//34 22//22 33//33
f 37//37 36//36 34//34
f 34//34 36//36 21//21
f 45//45 34//34 33//33
f 35//35 34//34 45//45
f 42//42 45//45 33//33
f 39//39 32//32 40//40
f 32//32 38//38 40//40
f 39//39 40//40 41//41
f 41//41 42//42 39//39
f 42//42 33//33 39//39
f 40//40 38//38 44//44
f 35//35 37//37 34//34
f 44//44 122//122 123//123
f 22//22 39//39 33//33
f 41//41 40//40 43//43
f 43//43 40//40 44//44
f 41//41 49//49 42//42
f 35//35 45//45 46//46
f 47//47 46//46 45//45
f 47//47 45//45 42//42
f 51//51 46//46 47//47
f 58//58 47//47 52//52
f 35//35 46//46 48//48
f 123//123 50//50 44//44
f 49//49 41//41 43//43
f 52//52 47//47 42//42
f 53//53 43//43 50//50
f 49//49 43//43 53//53
f 52//52 42//42 49//49
f 52//52 49//49 53//53
f 43//43 44//44 50//50
f 51//51 13//13 48//48
f 51//51 48//48 46//46
f 54//54 53//53 50//50
f 53//53 58//58 52//52
f 61//61 53//53 54//54
f 50//50 126//126 54//54
f 51//51 47//47 57//57
f 57//57 55//55 59//59
f 59//59 51//51 57//57
f 58//58 57//57 47//47
f 56//56 57//57 58//58
f 56//56 58//58 62//62
f 55//55 57//57 63//63
f 57//57 56//56 63//63
f 60//60 13//13 59//59
f 59//59 13//13 51//51
f 60//60 59//59 55//55
f 61//61 54//54 68//68
f 58//58 53//53 61//61
f 68//68 67//67 61//61
f 62//62 58//58 61//61
f 62//62 61//61 67//67
f 68//68 54//54 126//126
f 60//60 63//63 64//64
f 55//55 63//63 60//60
f 16//16 60//60 64//64
f 66//66 64//64 63//63
f 66//66 63//63 56//56
f 66//66 65//65 64//64
f 16//16 64//64 65//65
f 65//65 4//4 16//16
f 62//62 66//66 56//56
f 62//62 67//67 66//66
f 65//65 66//66 67//67
f 67//67 68//68 65//65
f 69//69 77//77 70//70
f 77//77 69//69 76//76
f 69//69 9//9 76//76
f 70//70 78//78 73//73
f 73//73 69//69 70//70
f 73//73 78//78 80//80
f 7//7 76//76 9//9
f 9//9 69//69 71//71
f 1//1 9//9 71//71
f 1//1 71//71 117//117
f 117//117 71//71 2//2
f 72//72 71//71 69//69
f 69//69 73//73 72//72
f 72//72 73//73 74//74
f 72//72 2//2 71//71
f 2//2 72//72 75//75
f 75//75 72//72 74//74
f 74//74 81//81 75//75
f 79//79 77//77 10//10
f 78//78 70//70 77//77
f 78//78 77//77 79//79
f 82//82 78//78 83//83
f 79//79 83//83 78//78
f 10//10 77//77 76//76
f 74//74 73//73 80//80
f 80//80 81//81 74//74
f 80//80 78//78 82//82
f 81//81 80//80 82//82
f 81//81 82//82 89//89
f 89//89 121//121 81//81
f 85//85 79//79 10//10
f 12//12 85//85 10//10
f 83//83 79//79 87//87
f 85//85 87//87 79//79
f 84//84 121//121 89//89
f 86//86 85//85 12//12
f 87//87 88//88 83//83
f 88//88 90//90 83//83
f 86//86 87//87 85//85
f 86//86 92//92 87//87
f 87//87 92//92 88//88
f 91//91 84//84 89//89
f 84//84 91//91 98//98
f 90//90 82//82 83//83
f 89//89 82//82 90//90
f 90//90 91//91 89//89
f 98//98 90//90 100//100
f 91//91 90//90 98//98
f 86//86 94//94 92//92
f 93//93 92//92 94//94
f 92//92 95//95 88//88
f 100//100 88//88 95//95
f 93//93 95//95 92//92
f 86//86 12//12 96//96
f 99//99 84//84 98//98
f 94//94 86//86 96//96
f 96//96 97//97 94//94
f 100//100 95//95 101//101
f 95//95 93//93 104//104
f 99//99 102//102 113//113
f 124//124 99//99 113//113
f 124//124 113//113 125//125
f 90//90 88//88 100//100
f 99//99 98//98 102//102
f 100//100 101//101 112//112
f 102//102 98//98 100//100
f 102//102 100//100 112//112
f 101//101 114//114 112//112
f 94//94 104//104 93//93
f 104//104 94//94 14//14
f 101//101 95//95 106//106
f 95//95 104//104 106//106
f 106//106 114//114 101//101
f 105//105 106//106 104//104
f 103//103 104//104 14//14
f 14//14 97//97 13//13
f 94//94 97//97 14//14
f 103//103 14//14 17//17
f 125//125 113//113 111//111
f 107//107 111//111 113//113
f 115//115 111//111 107//107
f 104//104 103//103 105//105
f 103//103 108//108 105//105
f 110//110 17//17 109//109
f 109//109 17//17 4//4
f 17//17 110//110 103//103
f 110//110 108//108 103//103
f 108//108 110//110 111//111
f 115//115 108//108 111//111
f 109//109 111//111 110//110
f 106//106 105//105 108//108
f 106//106 108//108 115//115
f 112//112 113//113 102//102
f 113//113 112//112 107//107
f 107//107 112//112 114//114
f 106//106 115//115 114//114
f 115//115 107//107 114//114
f 25//25 117//117 116//116
f 116//116 117//117 3//3
f 3//3 117//117 2//2
f 3//3 2//2 75//75
f 119//119 116//116 3//3
f 118//118 119//119 3//3
f 118//118 3//3 75//75
f 118//118 75//75 81//81
f 120//120 119//119 118//118
f 118//118 81//81 121//121
f 120//120 118//118 121//121
f 120//120 121//121 84//84
f 122//122 120//120 84//84
f 38//38 120//120 122//122
f 123//123 122//122 84//84
f 44//44 38//38 122//122
f 99//99 123//123 84//84
f 99//99 124//124 123//123
f 124//124 50//50 123//123
f 126//126 124//124 125//125
f 124//124 126//126 50//50
f 125//125 127//127 126//126
f 68//68 127//127 65//65
f 4//4 65//65 127//127
f 111//111 127//127 125//125
f 4//4 127//127 109//109
f 109//109 127//127 111//111
f 68//68 126//126 127//127
# 250 faces, 0 coords texture

# End of File
