####
#
# OBJ File Generated by Meshlab
#
####
# Object cinnamon_toast_crunch_250_collision.obj
#
# Vertices: 127
# Faces: 250
#
####
vn 0.964057 0.033014 -0.263638
v 0.113206 -0.037181 0.009719
vn -0.947781 0.123256 -0.294142
v -0.082191 0.023483 0.006568
vn -0.237291 -0.968337 -0.077570
v 0.070450 -0.086418 0.015656
vn 0.267635 0.927228 -0.261954
v -0.051339 0.066536 0.007828
vn -0.525978 -0.645658 -0.553600
v -0.074364 0.008183 0.005871
vn 0.761861 -0.597007 -0.251300
v 0.091976 -0.080235 0.008807
vn 0.179713 0.414679 -0.892045
v -0.045683 0.062622 0.005871
vn -0.547074 -0.837081 0.002334
v -0.068493 0.004158 0.011742
vn -0.746865 0.575424 -0.333287
v -0.064558 0.060713 0.008069
vn 0.362763 0.917807 0.161351
v -0.048919 0.056733 0.252892
vn -0.021007 -0.996225 0.084231
v 0.080235 -0.081566 0.252445
vn -0.021678 -0.389605 0.920727
v 0.079783 -0.078012 0.261205
vn -0.202741 -0.604926 -0.770040
v 0.068266 -0.080228 0.005871
vn -0.484522 -0.866159 -0.122501
v 0.069689 -0.086105 0.015656
vn 0.558264 0.750034 -0.354669
v 0.103718 -0.027397 0.006419
vn 0.874486 -0.400329 -0.273882
v 0.111546 -0.041469 0.009785
vn -0.393342 0.913134 0.107089
v -0.056779 0.057004 0.254125
vn -0.125729 -0.221622 0.966993
v -0.010903 -0.022508 0.263085
vn -0.505458 -0.855480 0.112546
v 0.046301 -0.063983 0.252945
vn -0.285704 -0.504943 0.814497
v 0.062622 -0.069961 0.260511
vn 0.957094 -0.288460 0.027616
v 0.106765 -0.045010 0.234833
vn 0.991436 0.041730 0.123744
v 0.107006 -0.039058 0.251778
vn 0.289841 0.468811 0.834391
v 0.010041 0.015975 0.262117
vn -0.281712 -0.487323 -0.826532
v 0.055908 -0.073712 0.005871
vn -0.551499 -0.834052 -0.014386
v -0.071116 0.005871 0.009785
vn 0.234175 0.382266 -0.893888
v 0.068493 -0.006591 0.005871
vn 0.000000 0.000000 0.000000
v 0.099206 -0.026080 0.005871
vn 0.532579 0.834297 0.142509
v 0.099767 -0.030701 0.250662
vn 0.593333 -0.139186 -0.792832
v 0.109681 -0.039525 0.005857
vn 0.909051 -0.356897 -0.215058
v 0.112525 -0.039139 0.009785
vn 0.151374 0.986685 0.059493
v -0.050880 0.057226 0.250488
vn -0.854212 0.519222 0.027039
v -0.066536 0.046658 0.228962
vn 0.491462 0.870500 0.026367
v -0.011085 0.040238 0.145225
vn 0.514168 0.857520 0.017032
v 0.019569 0.023511 0.105675
vn 0.166316 -0.797928 -0.579353
v 0.084993 -0.085810 0.008556
vn -0.271745 -0.959222 0.077765
v 0.078278 -0.081367 0.250488
vn -0.141145 -0.949662 -0.279678
v 0.074297 -0.086569 0.013263
vn 0.712197 0.699573 0.058088
v 0.102929 -0.033268 0.248531
vn 0.999989 -0.003806 -0.002863
v 0.106843 -0.039139 0.248531
vn -0.560296 -0.828280 -0.004607
v -0.072407 0.006717 0.011742
vn 0.038854 0.050474 -0.997969
v 0.098842 -0.025480 0.005871
vn -0.957231 -0.288389 -0.023261
v -0.081836 0.015656 0.011742
vn -0.999740 0.018852 0.012804
v -0.081217 0.019569 0.227005
vn -0.869545 -0.473415 -0.140605
v -0.081064 0.013698 0.008116
vn 0.260956 -0.231072 -0.937287
v 0.092113 -0.074191 0.005872
vn -0.208445 0.955529 -0.208601
v -0.052837 0.066536 0.008360
vn -0.792318 0.607425 0.057166
v -0.061522 0.053685 0.250701
vn -0.571919 0.818816 0.049480
v -0.058708 0.056562 0.242661
vn -0.169629 0.186359 -0.967727
v -0.065443 0.053553 0.005871
vn -0.880608 0.473470 0.018878
v -0.078721 0.027397 0.203522
vn -0.547537 0.234095 -0.803370
v -0.080195 0.027849 0.005871
vn 0.477532 0.878084 0.030518
v -0.017610 0.042840 0.174195
vn 0.504738 0.862889 0.025735
v 0.017611 0.022899 0.172203
vn 0.015813 -0.291165 -0.956542
v 0.078766 -0.082272 0.005871
vn 0.322799 -0.946406 0.010781
v 0.084151 -0.086113 0.010449
vn -0.372162 -0.927527 0.034477
v 0.074110 -0.080883 0.226629
vn -0.411768 -0.908082 0.076387
v 0.071192 -0.078440 0.253251
vn 0.025696 0.014480 0.999565
v 0.016186 -0.011392 0.263973
vn -0.072979 -0.101375 0.992168
v -0.033653 -0.005995 0.263343
vn -0.514149 -0.846895 0.135717
v -0.047684 -0.007558 0.253391
vn -0.224080 -0.370002 0.901602
v -0.017539 -0.020337 0.262487
vn 0.902868 -0.429373 0.021641
v 0.105830 -0.047077 0.241138
vn 0.557506 -0.829082 0.042542
v 0.084129 -0.080463 0.252398
vn 0.542482 0.805162 0.239638
v 0.100595 -0.031336 0.250969
vn 0.867066 0.487207 -0.104048
v 0.111545 -0.033268 0.010243
vn 0.998337 0.057276 0.006499
v 0.107148 -0.041096 0.240704
vn 0.168891 0.240345 0.955882
v 0.056751 -0.013209 0.261612
vn -0.589786 -0.807008 0.029838
v -0.075494 0.009819 0.250616
vn -0.681875 -0.731209 0.019506
v -0.078059 0.011969 0.250488
vn -0.615480 -0.788080 -0.010691
v -0.076823 0.009776 0.012682
vn -0.662515 -0.748563 -0.026968
v -0.079095 0.011736 0.011425
vn -0.962124 -0.272550 0.005904
v -0.080719 0.015656 0.221134
vn 0.062726 0.996890 0.047708
v -0.052837 0.057484 0.250488
vn -0.544039 0.834679 -0.085624
v -0.063058 0.062622 0.009795
vn 0.471351 0.880953 0.041824
v -0.045007 0.054879 0.250579
vn -0.929386 0.368816 0.014734
v -0.080397 0.023908 0.205479
vn -0.962363 0.271406 0.014031
v -0.081125 0.021458 0.214835
vn -0.903704 0.427967 0.012803
v -0.079835 0.025397 0.199853
vn 0.463031 0.857100 0.225790
v 0.091976 -0.025408 0.246785
vn 0.556820 0.830019 0.031927
v 0.095387 -0.027397 0.242661
vn 0.747213 -0.217678 0.627925
v 0.104815 -0.043796 0.258507
vn -0.350079 -0.585354 0.731304
v -0.040382 -0.008258 0.261506
vn -0.353731 -0.839393 0.412666
v 0.075514 -0.080044 0.258181
vn -0.521333 -0.700585 0.487230
v -0.071716 0.009145 0.260089
vn 0.925851 -0.364388 0.100106
v 0.105390 -0.047269 0.250507
vn 0.874448 0.475826 0.094502
v 0.103718 -0.034171 0.248531
vn 0.985680 -0.163639 0.040718
v 0.106907 -0.043053 0.242661
vn 0.406289 0.659952 0.631975
v 0.088756 -0.027617 0.258249
vn -0.006806 0.012879 0.999894
v -0.023840 0.011937 0.263987
vn -0.571214 -0.817643 0.071941
v -0.072442 0.007867 0.254441
vn -0.574101 -0.756412 0.313448
v -0.074645 0.009980 0.258333
vn -0.990169 -0.139629 0.008280
v -0.081076 0.017612 0.221134
vn -0.301559 0.135927 0.943709
v -0.073635 0.023833 0.262591
vn 0.487275 0.872471 0.036836
v -0.009903 0.037368 0.208365
vn 0.510580 0.858243 0.052222
v 0.055690 -0.002018 0.229845
vn 0.502474 0.842248 0.195290
v 0.094221 -0.027397 0.250488
vn 0.534573 0.844197 0.039540
v 0.081023 -0.017439 0.229656
vn 0.527723 0.849276 0.015447
v 0.041096 0.009435 0.146770
vn -0.007473 -0.036030 0.999323
v 0.015367 -0.018118 0.263806
vn 0.820296 -0.570771 0.036539
v 0.088058 -0.076340 0.239793
vn -0.964118 -0.264129 0.026681
v -0.080201 0.014963 0.266932
vn -0.988628 -0.145300 -0.038758
v -0.082345 0.017612 0.012166
vn -0.098769 0.603690 0.791077
v -0.056711 0.055021 0.261677
vn 0.496780 0.866252 0.053078
v -0.017910 0.040819 0.229385
vn 0.491354 0.861841 0.125702
v -0.045010 0.054758 0.252445
vn -0.885814 0.463319 0.025879
v -0.078847 0.025409 0.243974
vn 0.500255 0.865027 0.038391
v 0.004662 0.029647 0.195879
vn 0.526448 0.418594 0.740022
v 0.104059 -0.038600 0.259377
vn 0.541762 -0.725942 0.423678
v 0.084433 -0.079716 0.258567
vn -0.360894 -0.370906 0.855678
v -0.077719 0.015020 0.261755
vn 0.327841 0.561141 0.760027
v -0.020749 0.035940 0.260985
vn 0.413750 0.775527 0.476832
v -0.045080 0.052849 0.258316
vn 0.470422 0.727171 0.499925
v 0.097993 -0.031872 0.256347
vn 0.084076 0.102462 0.991177
v 0.031940 -0.002078 0.262888
vn 0.043053 0.976173 0.212681
v -0.054802 0.057161 0.257873
vn -0.678020 0.647149 0.348551
v -0.059237 0.054797 0.258922
vn 0.512452 0.858162 0.030832
v 0.042514 0.007358 0.197412
vn 0.513169 0.854689 0.078520
v 0.067960 -0.009981 0.237985
vn 0.643303 0.713431 0.277809
v 0.102259 -0.033270 0.253868
vn 0.179382 0.022051 0.983532
v 0.098674 -0.043000 0.260976
vn 0.240423 -0.137920 0.960820
v 0.089516 -0.063794 0.261611
vn -0.925590 0.363093 0.106988
v -0.080334 0.021774 0.255304
vn -0.829887 -0.198600 0.521389
v -0.080295 0.017706 0.260619
vn -0.715451 -0.691619 0.098959
v -0.079547 0.013703 0.254965
vn 0.477180 0.837755 0.265455
v -0.045010 0.054219 0.254402
vn 0.134314 0.223558 0.965392
v -0.001348 0.020659 0.263078
vn 0.524901 0.850838 0.023512
v 0.053595 0.000808 0.191926
# 127 vertices, 0 vertices normals

f 51//51 5//5 2//2
f 15//15 7//7 4//4
f 44//44 2//2 5//5
f 16//16 62//62 6//6
f 49//49 4//4 7//7
f 63//63 55//55 6//6
f 37//37 11//11 3//3
f 37//37 55//55 11//11
f 37//37 35//35 55//55
f 24//24 14//14 5//5
f 13//13 14//14 24//24
f 68//68 8//8 14//14
f 25//25 14//14 8//8
f 25//25 5//5 14//14
f 26//26 7//7 15//15
f 28//28 65//65 15//15
f 1//1 15//15 65//65
f 1//1 29//29 15//15
f 44//44 5//5 71//71
f 29//29 6//6 45//45
f 30//30 29//29 1//1
f 30//30 1//1 21//21
f 30//30 21//21 62//62
f 30//30 62//62 16//16
f 9//9 4//4 49//49
f 32//32 9//9 106//106
f 34//34 15//15 4//4
f 34//34 4//4 33//33
f 54//54 35//35 13//13
f 35//35 54//54 45//45
f 36//36 3//3 11//11
f 56//56 14//14 3//3
f 37//37 13//13 35//35
f 37//37 3//3 14//14
f 37//37 14//14 13//13
f 91//91 83//83 84//84
f 19//19 14//14 57//57
f 39//39 1//1 65//65
f 90//90 68//68 14//14
f 40//40 25//25 8//8
f 40//40 8//8 68//68
f 40//40 5//5 25//25
f 41//41 26//26 15//15
f 41//41 15//15 27//27
f 41//41 27//27 15//15
f 41//41 15//15 29//29
f 41//41 29//29 45//45
f 41//41 45//45 54//54
f 41//41 54//54 13//13
f 41//41 13//13 24//24
f 41//41 24//24 5//5
f 41//41 5//5 51//51
f 41//41 51//51 49//49
f 41//41 49//49 7//7
f 41//41 7//7 26//26
f 29//29 16//16 6//6
f 29//29 30//30 16//16
f 45//45 6//6 35//35
f 46//46 4//4 9//9
f 47//47 9//9 32//32
f 9//9 74//74 46//46
f 51//51 9//9 49//49
f 106//106 47//47 32//32
f 50//50 106//106 9//9
f 50//50 9//9 78//78
f 51//51 78//78 9//9
f 52//52 33//33 4//4
f 52//52 94//94 33//33
f 53//53 34//34 33//33
f 55//55 63//63 11//11
f 55//55 35//35 6//6
f 56//56 3//3 36//36
f 57//57 14//14 56//56
f 60//60 19//19 83//83
f 60//60 83//83 91//91
f 62//62 21//21 85//85
f 62//62 100//100 6//6
f 64//64 65//65 28//28
f 66//66 1//1 39//39
f 60//60 90//90 14//14
f 124//124 44//44 69//69
f 69//69 44//44 71//71
f 69//69 71//71 70//70
f 70//70 40//40 68//68
f 70//70 5//5 40//40
f 71//71 5//5 70//70
f 102//102 43//43 2//2
f 102//102 44//44 42//42
f 102//102 2//2 44//44
f 72//72 42//42 44//44
f 72//72 102//102 42//42
f 17//17 46//46 74//74
f 73//73 31//31 4//4
f 73//73 4//4 46//46
f 74//74 9//9 47//47
f 122//122 47//47 106//106
f 122//122 116//116 47//47
f 47//47 48//48 74//74
f 74//74 48//48 17//17
f 75//75 4//4 10//10
f 75//75 52//52 4//4
f 10//10 4//4 31//31
f 78//78 51//51 2//2
f 76//76 2//2 77//77
f 77//77 2//2 43//43
f 78//78 106//106 50//50
f 80//80 28//28 15//15
f 57//57 36//36 11//11
f 57//57 11//11 83//83
f 109//109 11//11 63//63
f 83//83 11//11 109//109
f 60//60 91//91 90//90
f 19//19 60//60 14//14
f 12//12 83//83 109//109
f 61//61 110//110 82//82
f 83//83 82//82 84//84
f 84//84 82//82 110//110
f 110//110 61//61 59//59
f 85//85 100//100 62//62
f 86//86 65//65 38//38
f 64//64 38//38 65//65
f 64//64 119//119 38//38
f 22//22 39//39 65//65
f 87//87 21//21 1//1
f 87//87 1//1 66//66
f 87//87 85//85 21//21
f 22//22 66//66 39//39
f 124//124 90//90 91//91
f 101//101 44//44 124//124
f 101//101 72//72 44//44
f 68//68 69//69 70//70
f 68//68 124//124 69//69
f 68//68 90//90 124//124
f 115//115 73//73 46//46
f 115//115 46//46 17//17
f 116//116 17//17 48//48
f 116//116 48//48 47//47
f 115//115 10//10 31//31
f 115//115 31//31 73//73
f 76//76 78//78 2//2
f 76//76 106//106 78//78
f 122//122 77//77 43//43
f 106//106 77//77 122//122
f 106//106 76//76 77//77
f 96//96 64//64 79//79
f 97//97 80//80 15//15
f 97//97 15//15 127//127
f 98//98 127//127 15//15
f 98//98 15//15 34//34
f 57//57 56//56 36//36
f 59//59 99//99 89//89
f 18//18 99//99 59//59
f 123//123 91//91 84//84
f 123//123 84//84 110//110
f 83//83 19//19 57//57
f 83//83 20//20 82//82
f 12//12 20//20 83//83
f 18//18 59//59 61//61
f 20//20 18//18 61//61
f 109//109 85//85 81//81
f 119//119 22//22 65//65
f 119//119 65//65 86//86
f 119//119 86//86 38//38
f 22//22 81//81 85//85
f 22//22 87//87 66//66
f 22//22 85//85 87//87
f 111//111 103//103 126//126
f 88//88 23//23 108//108
f 101//101 92//92 72//72
f 102//102 92//92 43//43
f 102//102 72//72 92//92
f 104//104 94//94 75//75
f 105//105 75//75 10//10
f 105//105 104//104 75//75
f 105//105 118//118 95//95
f 105//105 96//96 79//79
f 52//52 75//75 94//94
f 107//107 33//33 94//94
f 107//107 53//53 33//33
f 95//95 127//127 117//117
f 28//28 79//79 64//64
f 28//28 97//97 79//79
f 100//100 109//109 63//63
f 99//99 18//18 12//12
f 81//81 120//120 121//121
f 121//121 58//58 99//99
f 121//121 12//12 109//109
f 109//109 100//100 85//85
f 93//93 89//89 103//103
f 59//59 93//93 110//110
f 124//124 91//91 123//123
f 61//61 82//82 20//20
f 12//12 18//18 20//20
f 6//6 100//100 63//63
f 81//81 22//22 108//108
f 126//126 67//67 23//23
f 126//126 23//23 111//111
f 88//88 112//112 111//111
f 88//88 113//113 112//112
f 10//10 115//115 112//112
f 112//112 115//115 103//103
f 112//112 103//103 111//111
f 23//23 88//88 111//111
f 113//113 88//88 108//108
f 58//58 121//121 120//120
f 124//124 123//123 122//122
f 101//101 43//43 92//92
f 122//122 43//43 101//101
f 122//122 101//101 124//124
f 103//103 17//17 116//116
f 115//115 17//17 103//103
f 93//93 116//116 123//123
f 118//118 105//105 79//79
f 107//107 117//117 53//53
f 127//127 98//98 34//34
f 117//117 34//34 53//53
f 117//117 127//127 34//34
f 97//97 127//127 95//95
f 118//118 79//79 97//97
f 118//118 97//97 95//95
f 117//117 107//107 95//95
f 104//104 107//107 94//94
f 104//104 95//95 107//107
f 119//119 112//112 113//113
f 97//97 28//28 80//80
f 119//119 108//108 22//22
f 120//120 67//67 114//114
f 120//120 81//81 108//108
f 109//109 81//81 121//121
f 121//121 99//99 12//12
f 89//89 58//58 126//126
f 123//123 110//110 93//93
f 93//93 59//59 89//89
f 108//108 23//23 67//67
f 125//125 10//10 112//112
f 125//125 112//112 119//119
f 125//125 96//96 105//105
f 125//125 105//105 10//10
f 113//113 108//108 119//119
f 114//114 67//67 126//126
f 93//93 103//103 116//116
f 123//123 116//116 122//122
f 95//95 104//104 105//105
f 64//64 96//96 125//125
f 64//64 125//125 119//119
f 58//58 89//89 99//99
f 126//126 58//58 114//114
f 108//108 67//67 120//120
f 126//126 103//103 89//89
f 114//114 58//58 120//120
# 250 faces, 0 coords texture

# End of File
