####
#
# OBJ File Generated by Meshlab
#
####
# Object cup_noodles_chicken_250_collision.obj
#
# Vertices: 127
# Faces: 250
#
####
vn -0.020457 0.008811 0.999752
v 0.004212 0.011656 -0.000051
vn -0.106586 0.030854 0.993825
v 0.014749 0.013466 0.000474
vn 0.956791 -0.259200 0.131784
v -0.041289 0.021232 0.057363
vn 0.276967 0.913151 -0.299074
v -0.015836 -0.033102 0.105773
vn 0.035785 0.071747 -0.996781
v -0.013382 0.026594 0.109298
vn -0.150695 -0.981511 0.118013
v -0.017629 0.054671 0.071508
vn -0.065812 -0.981062 -0.182171
v -0.000943 0.061932 0.106443
vn 0.352548 0.741270 0.571165
v -0.030037 -0.006830 0.002599
vn 0.345688 0.899581 0.266936
v -0.013241 -0.018936 0.002459
vn 0.053058 0.129251 0.990191
v -0.002855 -0.016043 -0.000657
vn 0.204385 -0.034184 0.978294
v -0.025531 0.007147 0.001115
vn 0.057311 -0.020526 0.998145
v -0.010174 0.021643 0.000398
vn 0.515272 0.856339 0.034337
v -0.026294 -0.006820 0.014076
vn 0.064587 0.997904 0.004050
v -0.002849 -0.019189 0.010943
vn 0.349604 0.932413 0.091557
v -0.012317 -0.017555 0.016792
vn 0.420791 0.887202 0.189228
v -0.013794 -0.023723 0.040186
vn 0.023697 0.999158 0.033478
v -0.037927 -0.003677 0.033008
vn 0.838672 0.517377 0.170147
v -0.045994 -0.006223 0.041947
vn 0.478042 0.877458 0.039296
v -0.041148 -0.005407 0.021581
vn 0.423379 0.885522 0.191313
v -0.035337 -0.006379 0.042627
vn 0.432669 0.887885 0.156392
v -0.016362 -0.027793 0.077429
vn 0.287853 0.917076 0.275885
v -0.035175 -0.011900 0.066282
vn 0.455111 0.844634 0.281900
v -0.047471 -0.007729 0.058210
vn 0.988219 -0.130896 0.079301
v -0.048183 0.001938 0.069525
vn 0.531202 0.798259 0.283913
v -0.047326 -0.015425 0.068144
vn 0.328909 0.929916 0.164544
v -0.046443 -0.018433 0.082879
vn 0.152359 0.960714 0.231983
v -0.036377 -0.016918 0.089988
vn 0.185095 0.967220 -0.173854
v -0.038140 -0.022646 0.105877
vn 0.385003 0.836129 -0.390718
v -0.026832 -0.025920 0.108574
vn 0.104635 0.327648 -0.938988
v -0.020574 -0.023500 0.113177
vn 0.718631 0.524038 -0.457115
v -0.046789 -0.020058 0.104507
vn 0.416451 0.310241 -0.854587
v -0.040417 -0.012869 0.113261
vn 0.137232 -0.073829 -0.987784
v -0.037618 0.003611 0.112417
vn 0.877207 -0.122682 -0.464173
v -0.047104 0.010646 0.105469
vn 0.970190 0.217209 -0.107474
v -0.050138 -0.014262 0.101148
vn -0.020851 -0.100420 -0.994727
v -0.010639 -0.008217 0.113025
vn 0.004876 -0.125184 -0.992122
v -0.007005 0.002928 0.110212
vn 0.587448 -0.138499 0.797322
v -0.031696 0.015970 0.004299
vn 0.437044 -0.734287 0.519438
v -0.022014 0.043981 0.005001
vn 0.089231 -0.709846 0.698682
v -0.008350 0.045675 0.002666
vn 0.180583 -0.136485 0.974044
v -0.013860 0.037144 0.001463
vn 0.912120 0.107242 0.395647
v -0.038873 -0.006882 0.009560
vn 0.902418 -0.313838 0.295209
v -0.032684 0.027580 0.011993
vn 0.591113 -0.724228 0.355076
v -0.024643 0.045334 0.017419
vn 0.957952 -0.234167 0.165812
v -0.039100 0.019908 0.037027
vn 0.924320 -0.337061 0.178945
v -0.034291 0.036290 0.036167
vn -0.200744 -0.936317 0.288119
v -0.014597 0.047745 0.024916
vn 0.485969 -0.741290 0.462950
v -0.024351 0.052210 0.025846
vn -0.059278 -0.980072 0.189593
v -0.024015 0.059717 0.041451
vn -0.308257 -0.946705 0.093424
v -0.016091 0.052173 0.048285
vn 0.814175 -0.562180 0.145163
v -0.028601 0.054904 0.044241
vn 0.016696 -0.998646 0.049278
v -0.025780 0.058478 0.064134
vn 0.958632 -0.268458 0.094634
v -0.041510 0.030344 0.074660
vn 0.850632 -0.513796 0.111533
v -0.032918 0.052713 0.071262
vn 0.804324 -0.580745 -0.125691
v -0.034688 0.057466 0.101007
vn -0.192788 -0.971306 0.139273
v -0.019984 0.056946 0.087466
vn 0.256396 -0.957715 0.130550
v -0.027905 0.060423 0.084569
vn 0.352766 -0.090905 -0.931285
v -0.040283 0.019095 0.111439
vn 0.939071 -0.293297 -0.179230
v -0.042508 0.033062 0.100547
vn 0.586586 -0.169628 -0.791923
v -0.038404 0.033102 0.109546
vn 0.130707 -0.978824 -0.157544
v -0.026729 0.063186 0.106264
vn 0.436183 -0.423171 -0.794148
v -0.027285 0.056321 0.114434
vn -0.034188 -0.952829 -0.301576
v -0.016112 0.060872 0.108779
vn 0.045972 -0.514997 -0.855958
v -0.013875 0.057032 0.114529
vn -0.056863 0.832931 0.550448
v 0.010475 -0.020933 0.000989
vn -0.558334 0.613373 0.558602
v 0.021293 -0.019590 0.003160
vn -0.158685 0.032727 0.986787
v 0.014209 -0.000852 0.000354
vn -0.404305 0.049555 0.913281
v 0.029950 0.016984 0.002760
vn -0.212813 0.969757 0.119507
v 0.023717 -0.017530 0.016226
vn -0.835235 0.485984 0.257297
v 0.029921 -0.012762 0.019814
vn -0.724692 0.235815 0.647466
v 0.026409 -0.009111 0.004389
vn 0.018423 0.979980 0.198241
v 0.002615 -0.024386 0.034412
vn -0.568277 0.754331 0.328703
v 0.030848 -0.025663 0.038429
vn 0.116430 0.977428 0.176292
v 0.021189 -0.022663 0.039089
vn -0.914969 0.362301 0.177678
v 0.038084 -0.017796 0.051918
vn -0.952471 0.217816 0.212967
v 0.037989 0.004029 0.029873
vn 0.046573 0.990852 -0.126664
v 0.029621 -0.035763 0.101232
vn 0.345250 0.931607 0.113626
v 0.025016 -0.026159 0.070169
vn -0.014601 0.990655 0.135610
v 0.000158 -0.030702 0.072645
vn 0.345462 0.923955 0.164202
v 0.024921 -0.028639 0.086882
vn -0.071828 0.990505 0.117220
v 0.032925 -0.034675 0.075022
vn -0.199939 0.956066 0.214388
v 0.030083 -0.028207 0.048550
vn -0.910019 0.405277 0.087269
v 0.038185 -0.026080 0.070725
vn -0.731130 0.490290 -0.474409
v 0.035835 -0.028261 0.105890
vn -0.989692 0.031420 0.139722
v 0.046711 0.019128 0.081304
vn -0.951169 0.280827 -0.128118
v 0.042341 -0.010043 0.097473
vn -0.983587 0.154215 0.093671
v 0.045163 0.003953 0.080315
vn -0.054664 0.847213 -0.528433
v 0.019342 -0.032274 0.109416
vn -0.166327 0.183640 -0.968820
v 0.028629 -0.020766 0.111154
vn -0.018687 0.213657 -0.976730
v -0.000094 -0.025431 0.112778
vn 0.002981 -0.075156 -0.997167
v 0.009043 -0.003474 0.112161
vn -0.012164 0.014723 -0.999818
v 0.025097 -0.004602 0.111750
vn -0.940766 0.183418 -0.285162
v 0.047378 0.007882 0.105294
vn -0.545446 0.198298 -0.814350
v 0.039015 -0.004501 0.111593
vn -0.207770 0.131876 -0.969247
v 0.040056 0.014338 0.112835
vn -0.035367 0.021405 0.999145
v 0.009138 0.023312 -0.000507
vn -0.146222 0.013224 0.989163
v 0.023203 0.028749 0.000886
vn -0.023813 -0.168444 0.985423
v 0.009226 0.039596 -0.000399
vn -0.239262 -0.878973 0.412504
v 0.011907 0.044881 0.002327
vn -0.152431 -0.981463 0.116173
v 0.027466 0.037140 0.011595
vn -0.329234 -0.504178 0.798379
v 0.029027 0.036810 0.002060
vn -0.103342 -0.988857 0.107157
v 0.003774 0.046350 0.012292
vn -0.197827 -0.962820 0.183961
v 0.023170 0.045082 0.035593
vn -0.748973 -0.501844 0.432657
v 0.035236 0.037436 0.006994
vn -0.895032 0.117423 0.430268
v 0.036015 0.013915 0.008462
vn -0.990311 0.008258 0.138622
v 0.038740 0.020304 0.025606
vn -0.937050 -0.319290 0.141391
v 0.039289 0.038819 0.043137
vn -0.292340 -0.941530 0.167509
v 0.033889 0.045568 0.036932
vn -0.273355 -0.958744 0.078025
v 0.028662 0.046659 0.065626
vn -0.545006 -0.835240 0.073091
v 0.038028 0.045395 0.062074
vn -0.207546 -0.972422 0.106396
v 0.036981 0.043964 0.086245
vn -0.932888 -0.309916 0.183499
v 0.045505 0.037989 0.076640
vn -0.517985 -0.845611 0.128971
v 0.042640 0.043926 0.076585
vn -0.986239 -0.152876 0.062945
v 0.050402 0.034719 0.099361
vn -0.533743 -0.810272 0.242027
v 0.044669 0.045666 0.091887
vn -0.155796 -0.976571 0.148449
v 0.007997 0.054938 0.062768
vn -0.109822 -0.981844 0.154668
v 0.005258 0.058460 0.082680
vn 0.067285 0.042113 -0.996845
v 0.017312 0.018304 0.111384
vn 0.050180 -0.067328 -0.996468
v 0.016585 0.047359 0.116696
vn -0.125907 0.009410 -0.991997
v 0.033661 0.038230 0.118068
vn -0.210441 -0.576211 -0.789744
v 0.028749 0.047085 0.117324
vn -0.615946 -0.765707 -0.185213
v 0.045093 0.050381 0.105925
vn -0.713943 -0.161954 -0.681216
v 0.048104 0.040944 0.111894
vn -0.363890 -0.926312 0.097625
v 0.019096 0.057203 0.098677
vn -0.036380 -0.445094 -0.894745
v -0.000553 0.055434 0.116795
vn -0.244834 -0.850235 -0.466000
v 0.019417 0.056956 0.108666
vn -0.269294 -0.962723 -0.025408
v 0.032088 0.051844 0.107635
# 127 vertices, 0 vertices normals

f 9//9 10//10 8//8
f 8//8 10//10 11//11
f 65//65 10//10 9//9
f 14//14 65//65 9//9
f 42//42 8//8 38//38
f 38//38 8//8 11//11
f 11//11 10//10 12//12
f 10//10 1//1 12//12
f 12//12 41//41 11//11
f 19//19 8//8 42//42
f 9//9 8//8 13//13
f 13//13 8//8 17//17
f 14//14 9//9 15//15
f 13//13 15//15 9//9
f 15//15 72//72 14//14
f 72//72 15//15 16//16
f 21//21 16//16 22//22
f 79//79 16//16 21//21
f 72//72 16//16 79//79
f 17//17 19//19 18//18
f 45//45 19//19 42//42
f 45//45 18//18 19//19
f 18//18 23//23 17//17
f 23//23 20//20 17//17
f 23//23 22//22 20//20
f 23//23 18//18 24//24
f 45//45 24//24 18//18
f 3//3 24//24 45//45
f 16//16 15//15 13//13
f 17//17 20//20 13//13
f 16//16 13//13 20//20
f 17//17 8//8 19//19
f 22//22 16//16 20//20
f 4//4 21//21 27//27
f 21//21 4//4 79//79
f 22//22 23//23 25//25
f 27//27 22//22 25//25
f 27//27 25//25 26//26
f 25//25 23//23 24//24
f 25//25 24//24 35//35
f 53//53 34//34 24//24
f 26//26 25//25 35//35
f 35//35 31//31 26//26
f 34//34 53//53 59//59
f 35//35 24//24 34//34
f 21//21 22//22 27//27
f 29//29 27//27 28//28
f 4//4 27//27 29//29
f 30//30 4//4 29//29
f 30//30 90//90 4//4
f 88//88 4//4 90//90
f 28//28 27//27 26//26
f 26//26 31//31 28//28
f 31//31 35//35 34//34
f 34//34 32//32 31//31
f 33//33 32//32 34//34
f 58//58 33//33 34//34
f 28//28 32//32 29//29
f 31//31 32//32 28//28
f 29//29 32//32 30//30
f 32//32 33//33 30//30
f 33//33 36//36 30//30
f 90//90 30//30 36//36
f 33//33 37//37 36//36
f 33//33 5//5 37//37
f 38//38 11//11 41//41
f 43//43 38//38 39//39
f 39//39 38//38 41//41
f 41//41 12//12 98//98
f 41//41 40//40 39//39
f 40//40 102//102 39//39
f 98//98 40//40 41//41
f 43//43 42//42 38//38
f 43//43 45//45 42//42
f 45//45 43//43 46//46
f 44//44 43//43 39//39
f 48//48 44//44 47//47
f 47//47 44//44 39//39
f 47//47 39//39 102//102
f 46//46 3//3 45//45
f 43//43 44//44 46//46
f 46//46 44//44 48//48
f 46//46 48//48 51//51
f 51//51 54//54 46//46
f 46//46 53//53 3//3
f 54//54 53//53 46//46
f 49//49 51//51 48//48
f 49//49 48//48 47//47
f 49//49 47//47 50//50
f 50//50 47//47 102//102
f 51//51 49//49 52//52
f 50//50 52//52 49//49
f 52//52 54//54 51//51
f 102//102 116//116 50//50
f 53//53 24//24 3//3
f 54//54 59//59 53//53
f 59//59 54//54 55//55
f 57//57 54//54 52//52
f 50//50 6//6 52//52
f 52//52 6//6 56//56
f 6//6 50//50 116//116
f 55//55 54//54 57//57
f 56//56 57//57 52//52
f 56//56 6//6 117//117
f 56//56 117//117 7//7
f 61//61 56//56 63//63
f 34//34 59//59 60//60
f 58//58 34//34 60//60
f 58//58 5//5 33//33
f 5//5 58//58 60//60
f 60//60 62//62 5//5
f 64//64 5//5 62//62
f 62//62 60//60 59//59
f 59//59 55//55 62//62
f 55//55 61//61 62//62
f 55//55 57//57 61//61
f 56//56 61//61 57//57
f 62//62 63//63 64//64
f 63//63 62//62 61//61
f 63//63 56//56 7//7
f 125//125 5//5 64//64
f 63//63 7//7 64//64
f 125//125 64//64 7//7
f 69//69 14//14 72//72
f 69//69 65//65 14//14
f 10//10 65//65 67//67
f 66//66 67//67 65//65
f 1//1 10//10 67//67
f 2//2 1//1 67//67
f 66//66 71//71 67//67
f 67//67 71//71 68//68
f 71//71 105//105 68//68
f 68//68 2//2 67//67
f 74//74 69//69 72//72
f 69//69 66//66 65//65
f 69//69 70//70 66//66
f 66//66 70//70 71//71
f 76//76 71//71 70//70
f 73//73 69//69 74//74
f 73//73 70//70 69//69
f 105//105 71//71 76//76
f 76//76 106//106 105//105
f 82//82 73//73 74//74
f 82//82 75//75 73//73
f 79//79 74//74 72//72
f 78//78 74//74 79//79
f 82//82 74//74 78//78
f 76//76 70//70 73//73
f 76//76 73//73 75//75
f 83//83 87//87 75//75
f 75//75 87//87 76//76
f 106//106 76//76 87//87
f 78//78 79//79 80//80
f 78//78 81//81 82//82
f 81//81 78//78 80//80
f 80//80 77//77 81//81
f 83//83 82//82 81//81
f 83//83 75//75 82//82
f 81//81 77//77 84//84
f 84//84 83//83 81//81
f 86//86 83//83 84//84
f 87//87 83//83 86//86
f 87//87 93//93 85//85
f 79//79 4//4 88//88
f 80//80 79//79 88//88
f 88//88 77//77 80//80
f 90//90 89//89 88//88
f 77//77 88//88 84//84
f 84//84 88//88 89//89
f 92//92 89//89 90//90
f 92//92 90//90 91//91
f 90//90 36//36 91//91
f 89//89 94//94 84//84
f 94//94 89//89 92//92
f 37//37 91//91 36//36
f 118//118 91//91 37//37
f 118//118 37//37 5//5
f 92//92 91//91 118//118
f 95//95 94//94 92//92
f 86//86 84//84 94//94
f 86//86 94//94 93//93
f 93//93 87//87 86//86
f 94//94 95//95 93//93
f 96//96 12//12 1//1
f 1//1 2//2 96//96
f 98//98 12//12 96//96
f 97//97 96//96 2//2
f 68//68 97//97 2//2
f 101//101 97//97 68//68
f 68//68 105//105 104//104
f 97//97 98//98 96//96
f 40//40 98//98 99//99
f 102//102 40//40 99//99
f 102//102 99//99 100//100
f 98//98 97//97 101//101
f 99//99 98//98 101//101
f 100//100 99//99 101//101
f 101//101 68//68 104//104
f 101//101 104//104 100//100
f 100//100 104//104 108//108
f 100//100 103//103 102//102
f 108//108 103//103 100//100
f 105//105 106//106 104//104
f 104//104 106//106 107//107
f 108//108 104//104 107//107
f 116//116 102//102 103//103
f 103//103 108//108 109//109
f 109//109 108//108 110//110
f 106//106 87//87 85//85
f 107//107 110//110 108//108
f 107//107 106//106 85//85
f 116//116 103//103 109//109
f 85//85 112//112 107//107
f 111//111 109//109 110//110
f 110//110 107//107 112//112
f 113//113 110//110 112//112
f 111//111 110//110 113//113
f 112//112 85//85 114//114
f 93//93 114//114 85//85
f 115//115 111//111 113//113
f 112//112 115//115 113//113
f 115//115 127//127 111//111
f 115//115 112//112 114//114
f 116//116 117//117 6//6
f 117//117 116//116 109//109
f 7//7 117//117 124//124
f 111//111 124//124 109//109
f 117//117 109//109 124//124
f 127//127 124//124 111//111
f 118//118 95//95 92//92
f 95//95 118//118 119//119
f 119//119 120//120 95//95
f 5//5 119//119 118//118
f 5//5 125//125 119//119
f 120//120 119//119 121//121
f 93//93 123//123 114//114
f 93//93 95//95 123//123
f 127//127 115//115 122//122
f 122//122 115//115 114//114
f 122//122 114//114 123//123
f 121//121 122//122 123//123
f 123//123 95//95 120//120
f 121//121 123//123 120//120
f 7//7 124//124 126//126
f 125//125 7//7 126//126
f 125//125 126//126 119//119
f 126//126 121//121 119//119
f 126//126 124//124 127//127
f 121//121 126//126 127//127
f 122//122 121//121 127//127
# 250 faces, 0 coords texture

# End of File
