####
#
# OBJ File Generated by Meshlab
#
####
# Object eating_right_for_healthy_living_raspberry_250_collision.obj
#
# Vertices: 127
# Faces: 250
#
####
vn -0.093917 0.968146 -0.232104
v -0.031311 0.097244 0.007828
vn -0.772226 -0.587723 -0.241350
v 0.035225 -0.085063 0.005871
vn 0.803786 0.549519 0.227941
v -0.014515 0.088062 0.144814
vn 0.781462 0.273382 -0.560874
v 0.078278 -0.060240 0.005871
vn -0.959424 -0.137507 -0.246167
v -0.060074 0.070450 0.005871
vn 0.507988 -0.656034 -0.558182
v 0.074364 -0.080993 0.005871
vn -0.887441 -0.452128 0.089604
v -0.052965 0.068134 0.140899
vn 0.865990 -0.381345 -0.323476
v 0.080235 -0.076321 0.007942
vn 0.444515 0.885297 0.136586
v -0.021526 0.096292 0.138943
vn -0.163980 0.416507 -0.894222
v -0.034792 0.093933 0.005871
vn 0.842917 0.531769 -0.081933
v 0.033268 0.011742 0.007095
vn 0.871173 0.490372 0.024358
v 0.076456 -0.058708 0.138943
vn 0.999446 0.013279 0.030525
v 0.079271 -0.066536 0.135029
vn 0.588309 -0.805187 0.074611
v 0.074214 -0.076203 0.140900
vn 0.334224 0.817439 -0.469135
v -0.024765 0.095890 0.005871
vn 0.660244 0.423852 -0.620022
v -0.001826 0.066536 0.005871
vn -0.456951 0.859071 -0.230635
v -0.034807 0.095890 0.007828
vn -0.592892 -0.294660 0.749436
v -0.048923 0.068493 0.150304
vn 0.847194 0.392100 0.358498
v 0.076868 -0.061605 0.146703
vn -0.373146 -0.224863 -0.900110
v -0.050880 0.053556 0.005871
vn -0.846539 -0.525623 0.084211
v 0.023080 -0.054794 0.142857
vn -0.827905 0.553590 0.090067
v -0.053592 0.080313 0.138778
vn 0.400439 -0.094338 -0.911455
v 0.078184 -0.077299 0.007113
vn 0.984452 0.169220 0.047105
v 0.079047 -0.064579 0.136986
vn 0.451058 -0.892485 -0.004189
v 0.064579 -0.086105 0.008727
vn 0.472733 -0.876250 0.093325
v 0.056754 -0.087623 0.143503
vn -0.323641 -0.928304 -0.183052
v 0.045003 -0.091988 0.006181
vn 0.194323 0.980916 0.006484
v -0.023483 0.096735 0.136986
vn 0.584366 0.581963 -0.565540
v -0.017612 0.090314 0.005871
vn -0.474578 0.661615 -0.580553
v -0.050862 0.084602 0.005871
vn 0.881729 0.471557 0.013703
v 0.076495 -0.058708 0.136986
vn 0.839793 0.542851 -0.007831
v -0.014138 0.088062 0.129158
vn -0.490444 -0.259027 -0.832087
v -0.056751 0.063588 0.005871
vn -0.962104 0.260138 0.081759
v -0.054794 0.078278 0.137106
vn -0.722485 0.571489 -0.389122
v -0.056806 0.079646 0.005871
vn 0.977760 0.083412 -0.192426
v 0.080246 -0.069136 0.007839
vn 0.690266 -0.707578 0.151217
v 0.076529 -0.074318 0.142076
vn 0.984338 -0.172167 0.037917
v 0.078982 -0.070450 0.138943
vn 0.346922 -0.936154 0.057113
v 0.054794 -0.088711 0.138943
vn 0.556541 -0.826616 0.083474
v 0.071163 -0.078278 0.140900
vn 0.668702 0.743386 0.014642
v -0.020905 0.095890 0.136986
vn 0.725685 0.515015 -0.456225
v -0.015668 0.087719 0.005871
vn -0.642455 0.766323 -0.000226
v -0.054072 0.082191 0.011742
vn 0.085878 0.995471 0.040779
v -0.025440 0.097081 0.136986
vn -0.368772 -0.224653 0.901964
v 0.006849 -0.017612 0.152466
vn 0.945735 0.314396 0.082098
v 0.078453 -0.062731 0.138709
vn 0.884915 0.453419 0.106474
v 0.076674 -0.059347 0.142856
vn -0.806521 -0.500687 0.314381
v 0.027388 -0.060665 0.146795
vn -0.941487 -0.328508 0.075401
v -0.054123 0.070450 0.138943
vn -0.841230 -0.487053 -0.234759
v -0.048924 0.046967 0.008053
vn -0.994114 -0.013245 0.107522
v -0.054951 0.074364 0.138946
vn -0.920278 0.391247 -0.003670
v -0.058648 0.076321 0.013699
vn 0.167464 -0.983323 0.070934
v 0.052837 -0.089444 0.136986
vn -0.560501 -0.828103 0.009112
v 0.039139 -0.088062 0.007020
vn -0.242890 -0.969324 0.037626
v 0.046967 -0.089379 0.135029
vn -0.696596 0.714683 0.063103
v -0.051695 0.082191 0.140872
vn -0.593774 0.802948 0.052020
v -0.049117 0.084339 0.141155
vn -0.087135 0.995521 0.036670
v -0.027397 0.097008 0.136986
vn 0.451822 0.283284 0.845935
v -0.004892 0.064579 0.151737
vn 0.817719 0.575598 -0.004723
v -0.015522 0.090198 0.131115
vn 0.829431 0.502065 0.244896
v 0.074658 -0.056751 0.144814
vn -0.841635 -0.522167 0.137816
v 0.024316 -0.056384 0.144845
vn -0.976468 -0.203683 0.070879
v -0.054949 0.072407 0.135029
vn -0.362855 -0.225421 -0.904169
v 0.003641 -0.034246 0.005871
vn -0.005076 -0.999425 0.033513
v 0.050880 -0.089787 0.131115
vn 0.292628 -0.916399 0.273097
v 0.054646 -0.087612 0.148210
vn -0.165577 -0.206755 -0.964280
v 0.036267 -0.086105 0.005871
vn -0.708488 -0.704364 0.043767
v 0.044458 -0.088062 0.133072
vn 0.701736 0.712183 0.019020
v -0.017291 0.092560 0.135605
vn 0.706801 0.707413 0.000423
v -0.019769 0.094799 0.126653
vn -0.481310 0.865800 0.136862
v -0.033800 0.094432 0.142334
vn -0.383374 -0.212431 0.898831
v -0.046967 0.067514 0.151043
vn -0.499809 -0.305816 0.810350
v 0.013699 -0.031311 0.151783
vn -0.690728 -0.493247 0.528775
v 0.040637 -0.080235 0.148727
vn -0.253961 0.426227 0.868236
v -0.038667 0.086839 0.150731
vn -0.120149 -0.066574 0.990521
v -0.000198 -0.001008 0.153333
vn 0.420661 0.208726 0.882880
v 0.071314 -0.060665 0.150976
vn 0.442969 0.266068 0.856146
v 0.017612 0.027397 0.151847
vn 0.659976 0.403257 0.633890
v 0.005871 0.050880 0.149960
vn 0.566840 0.347722 0.746848
v 0.000719 0.057526 0.150955
vn 0.589357 0.782710 0.200059
v -0.020728 0.095847 0.145006
vn 0.811727 0.499829 0.302109
v -0.001957 0.066742 0.146770
vn -0.871711 -0.320243 0.370897
v -0.053598 0.071594 0.146541
vn -0.842398 -0.490788 0.222469
v -0.051360 0.066536 0.144814
vn -0.794255 -0.473700 0.380482
v -0.050880 0.066739 0.146503
vn 0.878661 -0.471719 0.073729
v 0.078297 -0.072425 0.140325
vn -0.572363 -0.818727 0.045674
v 0.045011 -0.088578 0.133209
vn -0.292185 0.954763 0.055280
v -0.029343 0.096597 0.140647
vn -0.045388 0.941804 0.333085
v -0.026809 0.096321 0.147581
vn -0.591156 -0.361351 0.721083
v 0.011742 -0.029354 0.151181
vn -0.057739 -0.115359 0.991644
v 0.048696 -0.082949 0.152410
vn 0.294204 0.177102 0.939190
v 0.019569 0.021526 0.152476
vn 0.205624 0.105729 0.972903
v -0.021217 0.089509 0.152007
vn 0.621282 0.372056 0.689625
v 0.072407 -0.056751 0.148886
vn 0.831555 0.552321 0.058805
v -0.014095 0.088063 0.142857
vn 0.807643 0.493890 0.322157
v 0.074364 -0.056751 0.145571
vn 0.385155 0.055112 0.921205
v 0.073067 -0.068679 0.151858
vn 0.059671 0.031869 0.997709
v 0.021866 0.011065 0.153092
vn 0.050593 0.041729 0.997847
v -0.016089 0.079721 0.152155
vn -0.858167 -0.492325 0.145483
v -0.051746 0.066536 0.142857
vn -0.699558 -0.401338 0.591224
v -0.048923 0.066160 0.148955
vn -0.766028 0.232296 0.599365
v -0.052743 0.078176 0.149393
vn 0.517191 -0.493260 0.699434
v 0.073246 -0.074254 0.150893
vn -0.371965 -0.885697 0.277820
v 0.047253 -0.088791 0.147341
vn 0.239468 -0.898087 -0.368909
v 0.052414 -0.091996 0.005871
vn -0.716711 -0.693488 0.073476
v 0.043135 -0.086185 0.139519
vn -0.597948 0.690501 0.407023
v -0.049877 0.082378 0.149302
vn -0.173538 0.151713 0.973071
v -0.047156 0.078263 0.151930
vn 0.498681 0.199920 0.843416
v 0.071428 -0.057730 0.150037
vn 0.670229 0.251845 0.698117
v 0.074422 -0.059375 0.148411
vn 0.700622 0.439652 0.561992
v -0.015814 0.087905 0.148842
vn -0.737984 -0.455392 0.497994
v 0.025698 -0.056338 0.148727
vn -0.752031 -0.440912 0.489945
v -0.048923 0.064579 0.147657
vn -0.782044 -0.481933 0.395156
v 0.025440 -0.056751 0.147737
vn -0.424217 -0.108397 0.899049
v -0.048295 0.074322 0.151805
vn 0.071735 -0.579117 0.812082
v 0.050393 -0.086951 0.151600
vn -0.790551 -0.583658 0.185398
v 0.041199 -0.083235 0.145678
vn -0.840847 -0.537313 0.065351
v 0.039139 -0.080414 0.142857
vn -0.494468 -0.305497 0.813740
v 0.033268 -0.063111 0.151638
vn 0.177294 0.105720 0.978463
v 0.022864 0.013779 0.152768
vn 0.085166 -0.088255 0.992450
v 0.069963 -0.068970 0.152120
vn -0.609797 -0.376150 0.697609
v 0.021686 -0.047456 0.150224
vn 0.209813 0.439054 0.873619
v -0.021194 0.091613 0.151909
vn 0.931904 -0.107735 0.346334
v 0.078578 -0.070184 0.146513
vn 0.542895 -0.787902 0.290647
v 0.071147 -0.077103 0.148000
vn -0.447706 -0.351949 0.822004
v 0.044922 -0.081573 0.151863
vn 0.559779 0.063501 0.826206
v 0.074053 -0.059252 0.148727
# 127 vertices, 0 vertices normals

f 36//36 8//8 4//4
f 118//118 50//50 2//2
f 23//23 6//6 4//4
f 13//13 8//8 36//36
f 14//14 6//6 8//8
f 15//15 10//10 1//1
f 16//16 11//11 4//4
f 17//17 1//1 10//10
f 95//95 4//4 11//11
f 7//7 5//5 50//50
f 21//21 7//7 50//50
f 21//21 50//50 118//118
f 52//52 35//35 5//5
f 23//23 8//8 6//6
f 23//23 4//4 8//8
f 24//24 13//13 36//36
f 24//24 36//36 4//4
f 25//25 105//105 6//6
f 28//28 15//15 1//1
f 28//28 9//9 15//15
f 88//88 1//1 17//17
f 30//30 17//17 10//10
f 30//30 57//57 17//17
f 31//31 95//95 12//12
f 31//31 4//4 95//95
f 32//32 95//95 11//11
f 32//32 11//11 16//16
f 32//32 16//16 42//42
f 33//33 20//20 50//50
f 33//33 50//50 5//5
f 34//34 52//52 5//5
f 34//34 102//102 22//22
f 22//22 56//56 35//35
f 35//35 52//52 22//22
f 124//124 13//13 24//24
f 37//37 14//14 8//8
f 38//38 86//86 8//8
f 38//38 8//8 13//13
f 38//38 13//13 124//124
f 39//39 105//105 25//25
f 26//26 25//25 6//6
f 40//40 26//26 6//6
f 41//41 15//15 9//9
f 42//42 29//29 69//69
f 43//43 57//57 30//30
f 88//88 17//17 71//71
f 44//44 28//28 1//1
f 44//44 9//9 28//28
f 71//71 17//17 57//57
f 46//46 24//24 4//4
f 46//46 4//4 31//31
f 60//60 32//32 42//42
f 60//60 95//95 32//32
f 47//47 12//12 95//95
f 49//49 5//5 7//7
f 50//50 20//20 64//64
f 51//51 102//102 34//34
f 51//51 34//34 5//5
f 52//52 34//34 22//22
f 107//107 56//56 22//22
f 86//86 37//37 8//8
f 53//53 39//39 66//66
f 53//53 105//105 39//39
f 26//26 39//39 25//25
f 26//26 66//66 39//39
f 14//14 40//40 6//6
f 54//54 27//27 87//87
f 55//55 87//87 27//27
f 55//55 104//104 87//87
f 70//70 29//29 15//15
f 70//70 15//15 41//41
f 56//56 43//43 35//35
f 30//30 35//35 43//43
f 57//57 43//43 56//56
f 58//58 44//44 1//1
f 58//58 1//1 88//88
f 47//47 46//46 31//31
f 47//47 31//31 12//12
f 60//60 42//42 69//69
f 19//19 46//46 47//47
f 61//61 47//47 95//95
f 61//61 95//95 3//3
f 61//61 19//19 47//47
f 62//62 21//21 118//118
f 63//63 83//83 51//51
f 63//63 49//49 83//83
f 63//63 5//5 49//49
f 63//63 51//51 5//5
f 64//64 2//2 50//50
f 102//102 115//115 108//108
f 124//124 24//24 46//46
f 86//86 38//38 124//124
f 65//65 105//105 53//53
f 65//65 55//55 27//27
f 26//26 125//125 66//66
f 125//125 40//40 14//14
f 125//125 26//26 40//40
f 37//37 125//125 14//14
f 67//67 54//54 87//87
f 67//67 27//27 54//54
f 67//67 2//2 64//64
f 67//67 105//105 27//27
f 67//67 6//6 105//105
f 67//67 4//4 6//6
f 67//67 16//16 4//4
f 67//67 42//42 16//16
f 67//67 29//29 42//42
f 67//67 15//15 29//29
f 67//67 10//10 15//15
f 67//67 30//30 10//10
f 67//67 35//35 30//30
f 67//67 5//5 35//35
f 67//67 33//33 5//5
f 67//67 20//20 33//33
f 67//67 64//64 20//20
f 117//117 118//118 2//2
f 117//117 2//2 106//106
f 68//68 106//106 2//2
f 68//68 67//67 87//87
f 68//68 2//2 67//67
f 69//69 29//29 70//70
f 70//70 41//41 9//9
f 107//107 71//71 57//57
f 73//73 72//72 18//18
f 73//73 45//45 72//72
f 89//89 9//9 44//44
f 69//69 70//70 9//9
f 69//69 9//9 89//89
f 93//93 108//108 76//76
f 93//93 76//76 99//99
f 78//78 109//109 80//80
f 81//81 95//95 69//69
f 81//81 69//69 89//89
f 81//81 3//3 95//95
f 95//95 60//60 69//69
f 82//82 111//111 19//19
f 82//82 61//61 3//3
f 83//83 49//49 7//7
f 84//84 85//85 83//83
f 84//84 48//48 85//85
f 84//84 62//62 48//48
f 102//102 108//108 75//75
f 107//107 22//22 102//102
f 19//19 124//124 46//46
f 104//104 53//53 66//66
f 104//104 65//65 53//53
f 104//104 55//55 65//65
f 71//71 89//89 88//88
f 45//45 76//76 72//72
f 115//115 72//72 76//76
f 90//90 73//73 18//18
f 90//90 18//18 122//122
f 90//90 122//122 73//73
f 126//126 76//76 45//45
f 91//91 76//76 126//126
f 123//123 108//108 93//93
f 98//98 99//99 76//76
f 120//120 97//97 77//77
f 92//92 77//77 78//78
f 92//92 120//120 77//77
f 59//59 92//92 78//78
f 59//59 93//93 92//92
f 94//94 110//110 79//79
f 111//111 79//79 110//110
f 111//111 110//110 19//19
f 80//80 79//79 111//111
f 111//111 3//3 81//81
f 111//111 81//81 123//123
f 111//111 82//82 3//3
f 96//96 82//82 19//19
f 96//96 61//61 82//82
f 96//96 19//19 61//61
f 120//120 98//98 97//97
f 120//120 99//99 98//98
f 100//100 62//62 84//84
f 100//100 7//7 21//21
f 100//100 21//21 62//62
f 101//101 122//122 18//18
f 83//83 18//18 115//115
f 105//105 65//65 27//27
f 103//103 125//125 37//37
f 125//125 103//103 116//116
f 116//116 91//91 126//126
f 104//104 116//116 126//126
f 106//106 68//68 87//87
f 57//57 56//56 107//107
f 89//89 75//75 123//123
f 89//89 44//44 58//58
f 89//89 58//58 88//88
f 89//89 71//71 107//107
f 119//119 126//126 45//45
f 119//119 45//45 73//73
f 119//119 73//73 122//122
f 126//126 119//119 122//122
f 117//117 74//74 48//48
f 89//89 123//123 81//81
f 107//107 102//102 75//75
f 80//80 59//59 78//78
f 120//120 93//93 99//99
f 109//109 78//78 77//77
f 110//110 109//109 77//77
f 111//111 93//93 59//59
f 111//111 59//59 80//80
f 80//80 109//109 94//94
f 80//80 94//94 79//79
f 98//98 76//76 91//91
f 121//121 98//98 91//91
f 97//97 98//98 121//121
f 83//83 7//7 100//100
f 83//83 100//100 84//84
f 83//83 101//101 18//18
f 112//112 48//48 74//74
f 112//112 74//74 122//122
f 113//113 112//112 101//101
f 113//113 85//85 112//112
f 113//113 83//83 85//85
f 113//113 101//101 83//83
f 114//114 112//112 85//85
f 114//114 85//85 48//48
f 114//114 48//48 112//112
f 115//115 102//102 83//83
f 115//115 76//76 108//108
f 115//115 18//18 72//72
f 83//83 102//102 51//51
f 124//124 103//103 37//37
f 124//124 37//37 86//86
f 97//97 103//103 124//124
f 116//116 104//104 66//66
f 125//125 116//116 66//66
f 103//103 121//121 116//116
f 106//106 87//87 104//104
f 118//118 117//117 62//62
f 75//75 89//89 107//107
f 126//126 122//122 74//74
f 117//117 48//48 62//62
f 104//104 126//126 74//74
f 104//104 74//74 117//117
f 123//123 75//75 108//108
f 120//120 92//92 93//93
f 111//111 123//123 93//93
f 127//127 110//110 94//94
f 127//127 94//94 109//109
f 103//103 97//97 121//121
f 121//121 91//91 116//116
f 122//122 101//101 112//112
f 124//124 19//19 110//110
f 104//104 117//117 106//106
f 97//97 110//110 77//77
f 127//127 109//109 110//110
f 110//110 97//97 124//124
# 250 faces, 0 coords texture

# End of File
