####
#
# OBJ File Generated by Meshlab
#
####
# Object quaker_chewy_smores_250_collision.obj
#
# Vertices: 127
# Faces: 250
#
####
vn 0.113346 -0.992637 0.042719
v -0.009785 -0.077771 0.154598
vn -0.081734 0.953207 -0.291061
v 0.019569 0.072407 0.007643
vn 0.957919 -0.265416 -0.109296
v 0.050725 0.044692 0.011912
vn -0.871300 0.486102 0.067397
v 0.013156 0.060571 0.158907
vn 0.886632 -0.459325 -0.053895
v -0.000136 -0.068493 0.009785
vn 0.912638 -0.408706 -0.007137
v 0.042819 0.021526 0.113503
vn 0.724921 -0.123735 -0.677627
v 0.049938 0.045010 0.007828
vn -0.118966 -0.923581 -0.364479
v -0.011861 -0.077333 0.007736
vn -0.560638 0.096485 -0.822421
v -0.045010 -0.054794 0.007364
vn 0.381795 0.918790 0.100285
v 0.033144 0.066533 0.156801
vn 0.934673 -0.355263 -0.013203
v 0.051593 0.041107 0.135120
vn 0.900229 -0.390845 -0.191904
v 0.048981 0.041096 0.009785
vn 0.286442 -0.148483 -0.946522
v 0.001957 -0.062622 0.007053
vn 0.666260 -0.683202 -0.298885
v -0.003914 -0.073995 0.007828
vn -0.236580 0.113451 -0.964966
v -0.003914 0.035225 0.007289
vn -0.547300 0.666165 -0.506644
v 0.013699 0.070496 0.007828
vn -0.836712 0.376847 -0.397366
v -0.039139 -0.041096 0.007786
vn -0.911649 0.409929 0.029234
v -0.034911 -0.035225 0.086105
vn -0.719931 -0.694016 -0.006375
v -0.042029 -0.064579 0.011742
vn -0.964879 0.261205 -0.027922
v -0.045724 -0.054850 0.010343
vn -0.907300 0.416887 0.054890
v -0.017663 -0.002400 0.136918
vn -0.857522 0.393096 0.331859
v -0.011512 0.004892 0.162426
vn 0.373691 0.927490 -0.010867
v 0.027496 0.070335 0.013018
vn 0.922192 -0.378353 -0.080065
v 0.050202 0.043053 0.011742
vn 0.906027 -0.423191 -0.004917
v 0.011742 -0.046598 0.115459
vn 0.887096 -0.406571 -0.218540
v 0.001396 -0.064579 0.007828
vn 0.856312 -0.321402 -0.404265
v 0.049365 0.043053 0.007828
vn 0.988911 -0.057713 -0.136836
v 0.051211 0.046967 0.011742
vn 0.832476 0.553712 -0.019643
v 0.048448 0.058721 0.013590
vn 0.135537 0.628409 -0.765984
v 0.021526 0.072407 0.007395
vn 0.415371 -0.909193 -0.028894
v -0.007640 -0.076335 0.012057
vn -0.051174 0.022890 -0.998427
v -0.027397 -0.017612 0.007217
vn -0.762518 0.625208 0.166380
v 0.015605 0.064680 0.153947
vn -0.807838 0.414237 -0.419292
v 0.008149 0.062622 0.007828
vn -0.906454 0.420673 0.037079
v -0.023021 -0.011742 0.115459
vn -0.479765 -0.877035 0.025199
v -0.029354 -0.070962 0.154598
vn -0.392101 -0.906836 -0.154614
v -0.033541 -0.070433 0.007902
vn -0.132034 -0.990876 -0.027039
v -0.015468 -0.077447 0.013617
vn -0.081675 -0.993405 0.080471
v -0.011873 -0.077766 0.155328
vn -0.643238 -0.665292 -0.378987
v -0.039855 -0.066553 0.007253
vn -0.901940 0.402757 0.155855
v -0.035782 -0.045872 0.158737
vn -0.755063 0.277846 0.593869
v -0.036565 -0.051785 0.164450
vn 0.911407 -0.410395 -0.030224
v 0.036193 0.011742 0.013699
vn 0.909618 -0.415361 -0.008441
v 0.031117 -0.003914 0.095890
vn 0.912762 -0.408455 0.005532
v 0.050770 0.039139 0.144814
vn 0.865857 -0.500280 0.003344
v -0.001151 -0.072407 0.152641
vn 0.907782 -0.419190 -0.014523
v 0.015937 -0.037182 0.105675
vn 0.908136 -0.415676 -0.050023
v 0.000000 -0.068200 0.009785
vn 0.814044 -0.467669 -0.344410
v -0.001415 -0.070450 0.007828
vn 0.991029 -0.133303 0.009556
v 0.053772 0.046972 0.156713
vn 0.779038 0.625183 0.047398
v 0.050804 0.056661 0.154598
vn 0.971591 0.210206 -0.108740
v 0.051281 0.050880 0.013699
vn 0.441457 0.893132 -0.086201
v 0.041009 0.064273 0.011823
vn 0.535209 -0.839324 0.095317
v -0.004099 -0.075749 0.158478
vn 0.272311 -0.960832 0.051468
v -0.007828 -0.077355 0.154598
vn -0.305283 -0.946336 -0.106065
v -0.019572 -0.076315 0.011182
vn -0.419408 0.906998 0.038103
v 0.017612 0.066647 0.152641
vn -0.916419 0.398037 0.041748
v -0.034213 -0.035300 0.106838
vn -0.943727 0.267569 0.194387
v -0.038508 -0.052997 0.160279
vn -0.903945 0.427647 0.000923
v 0.007982 0.062622 0.009785
vn -0.539762 -0.840820 0.040970
v -0.033429 -0.068613 0.155081
vn -0.322847 -0.938767 0.120357
v -0.018243 -0.076308 0.158078
vn -0.453229 -0.878519 0.150956
v -0.024709 -0.073299 0.158338
vn -0.988818 0.002918 0.149100
v -0.039459 -0.056751 0.158512
vn -0.917966 0.392185 0.059399
v -0.035922 -0.045511 0.154551
vn -0.903823 0.425925 0.041130
v -0.008146 0.018550 0.131439
vn -0.267634 0.122089 0.955754
v -0.014927 -0.016257 0.168794
vn 0.871618 0.176877 0.457162
v 0.052386 0.050930 0.167524
vn 0.219148 -0.899220 0.378652
v -0.009611 -0.076260 0.165340
vn 0.882129 -0.435805 0.178670
v 0.002226 -0.065088 0.161510
vn 0.499735 0.866148 0.007305
v 0.043056 0.062848 0.084325
vn 0.281321 0.958721 0.041387
v 0.029365 0.068010 0.153391
vn 0.910518 -0.413167 -0.015812
v 0.033267 0.000986 0.088057
vn 0.919542 -0.392677 -0.015724
v 0.048816 0.035665 0.105981
vn 0.916047 -0.400765 -0.015642
v 0.040966 0.017723 0.101342
vn 0.900311 -0.433801 0.035445
v 0.003614 -0.062803 0.158513
vn 0.725194 -0.688509 -0.007021
v -0.002548 -0.074364 0.154598
vn 0.835057 -0.549556 -0.025837
v -0.001294 -0.070450 0.009785
vn 0.604973 0.078745 -0.792343
v 0.049871 0.050391 0.007828
vn 0.974289 0.221427 0.041607
v 0.053576 0.050227 0.142316
vn 0.611253 0.778170 0.144293
v 0.048766 0.058395 0.158986
vn 0.937719 0.340893 -0.066891
v 0.049348 0.056751 0.015656
vn -0.590542 0.787324 0.177145
v 0.017570 0.066492 0.155579
vn -0.849188 0.525821 -0.048904
v 0.009785 0.066274 0.009794
vn -0.898296 0.437734 0.038113
v 0.007911 0.052017 0.135108
vn -0.328844 -0.615031 -0.716657
v -0.037182 -0.068493 0.007123
vn -0.683803 -0.712048 0.159376
v -0.035562 -0.066842 0.160035
vn -0.386597 -0.922239 -0.004255
v -0.025440 -0.073887 0.011742
vn -0.997162 -0.060132 0.045292
v -0.040098 -0.058702 0.144968
vn -0.954059 -0.278242 0.111142
v -0.039552 -0.060664 0.151824
vn -0.901042 0.424230 0.090295
v 0.011746 0.057760 0.158515
vn -0.673775 0.457528 0.580254
v 0.015531 0.061182 0.164346
vn 0.897716 -0.440437 0.011029
v 0.002145 -0.066134 0.140325
vn 0.804743 -0.593522 -0.010999
v -0.001957 -0.073626 0.154598
vn 0.946471 0.322752 0.004819
v 0.052920 0.053071 0.144324
vn -0.289517 0.829877 -0.476953
v 0.017614 0.072234 0.007889
vn -0.711529 -0.167415 0.682422
v -0.035518 -0.061831 0.168017
vn -0.921812 -0.353930 -0.158102
v -0.045410 -0.060658 0.009049
vn -0.907098 0.414976 0.070492
v -0.015814 0.000344 0.144814
vn -0.210772 0.888017 0.408658
v 0.024636 0.068252 0.164265
vn -0.805143 0.546398 0.230639
v 0.013824 0.061388 0.160437
vn 0.599498 -0.287561 0.746934
v 0.003933 -0.054794 0.166357
vn 0.639422 -0.308363 0.704310
v 0.049764 0.043744 0.166538
vn -0.124148 0.079390 0.989083
v 0.005164 0.020216 0.168625
vn 0.857289 -0.349918 0.377640
v 0.051894 0.043579 0.163425
vn 0.219257 -0.094838 0.971047
v 0.048714 0.046105 0.167914
vn 0.008052 -0.022068 0.999724
v 0.012884 -0.023721 0.168716
vn 0.444346 0.895330 0.030671
v 0.041453 0.062807 0.154598
vn 0.424015 0.905617 0.008344
v 0.039827 0.064487 0.087187
vn 0.117788 0.992238 0.039869
v 0.025323 0.069083 0.150051
vn 0.584778 0.810905 -0.021645
v 0.044093 0.062582 0.011646
vn -0.188702 0.980103 0.061553
v 0.023731 0.068775 0.159035
vn 0.748167 0.580879 -0.320663
v 0.047229 0.060100 0.007845
vn -0.937131 0.345996 0.045513
v -0.039167 -0.048923 0.121330
vn -0.974055 0.215456 0.069253
v -0.039182 -0.054796 0.157676
vn -0.506639 0.243365 0.827098
v -0.013517 -0.008406 0.167331
vn 0.316864 -0.331641 0.888601
v -0.006241 -0.072437 0.167418
vn 0.263429 0.577347 0.772836
v 0.038474 0.061198 0.167675
vn 0.467214 0.875536 0.123075
v 0.045300 0.060680 0.157717
vn 0.922267 0.384615 0.038657
v 0.052069 0.054782 0.151102
vn 0.955854 -0.272335 0.110350
v 0.053391 0.045394 0.159446
vn 0.171833 -0.670007 -0.722194
v -0.009857 -0.076936 0.007037
vn -0.284618 0.276708 0.917837
v 0.018114 0.059847 0.166715
vn 0.727204 -0.485761 0.484985
v -0.001273 -0.069946 0.164388
vn 0.249221 -0.119409 0.961057
v 0.016296 -0.021571 0.168726
vn -0.268920 -0.623370 0.734229
v -0.022679 -0.070232 0.167861
vn 0.801928 -0.582869 0.131053
v -0.002114 -0.073932 0.158561
# 127 vertices, 0 vertices normals

f 17//17 15//15 9//9
f 18//18 20//20 58//58
f 40//40 9//9 86//86
f 26//26 12//12 24//24
f 27//27 13//13 7//7
f 27//27 12//12 26//26
f 27//27 24//24 12//12
f 27//27 26//26 13//13
f 27//27 7//7 3//3
f 27//27 3//3 24//24
f 28//28 3//3 7//7
f 30//30 13//13 15//15
f 30//30 15//15 16//16
f 32//32 86//86 9//9
f 32//32 9//9 15//15
f 96//96 2//2 30//30
f 96//96 30//30 16//16
f 33//33 16//16 84//84
f 34//34 16//16 15//15
f 34//34 84//84 16//16
f 34//34 15//15 17//17
f 60//60 20//20 18//18
f 60//60 84//84 34//34
f 35//35 18//18 58//58
f 35//35 60//60 18//18
f 37//37 36//36 86//86
f 39//39 38//38 1//1
f 40//40 86//86 61//61
f 40//40 19//19 98//98
f 87//87 98//98 19//19
f 89//89 20//20 98//98
f 98//98 9//9 40//40
f 98//98 20//20 9//9
f 20//20 17//17 9//9
f 72//72 23//23 30//30
f 75//75 6//6 73//73
f 44//44 25//25 73//73
f 44//44 73//73 6//6
f 44//44 6//6 25//25
f 45//45 25//25 6//6
f 45//45 6//6 11//11
f 47//47 73//73 25//25
f 48//48 26//26 24//24
f 48//48 5//5 26//26
f 48//48 24//24 43//43
f 48//48 43//43 73//73
f 48//48 73//73 47//47
f 48//48 47//47 25//25
f 48//48 25//25 5//5
f 49//49 14//14 13//13
f 49//49 13//13 26//26
f 49//49 26//26 5//5
f 50//50 3//3 28//28
f 52//52 28//28 79//79
f 110//110 30//30 2//2
f 55//55 122//122 31//31
f 55//55 1//1 122//122
f 122//122 32//32 15//15
f 122//122 15//15 13//13
f 122//122 86//86 32//32
f 122//122 8//8 86//86
f 122//122 13//13 14//14
f 57//57 96//96 16//16
f 20//20 114//114 58//58
f 59//59 114//114 20//20
f 85//85 84//84 60//60
f 85//85 60//60 66//66
f 60//60 35//35 66//66
f 58//58 21//21 35//35
f 63//63 36//36 37//37
f 8//8 1//1 38//38
f 8//8 122//122 1//1
f 87//87 19//19 40//40
f 87//87 40//40 61//61
f 64//64 115//115 20//20
f 90//90 89//89 98//98
f 20//20 60//60 34//34
f 20//20 34//34 17//17
f 66//66 35//35 21//21
f 66//66 91//91 85//85
f 66//66 21//21 91//91
f 105//105 103//103 124//124
f 70//70 105//105 124//124
f 109//109 23//23 10//10
f 72//72 10//10 23//23
f 72//72 30//30 110//110
f 73//73 43//43 24//24
f 75//75 73//73 24//24
f 74//74 24//24 11//11
f 75//75 11//11 6//6
f 75//75 74//74 11//11
f 76//76 25//25 45//45
f 77//77 54//54 14//14
f 78//78 14//14 49//49
f 78//78 49//49 5//5
f 78//78 5//5 46//46
f 79//79 28//28 7//7
f 79//79 7//7 13//13
f 79//79 13//13 30//30
f 79//79 30//30 113//113
f 79//79 113//113 52//52
f 81//81 51//51 111//111
f 82//82 113//113 29//29
f 80//80 50//50 28//28
f 80//80 28//28 52//52
f 80//80 121//121 50//50
f 112//112 110//110 2//2
f 112//112 2//2 96//96
f 23//23 53//53 30//30
f 31//31 14//14 54//54
f 31//31 122//122 14//14
f 54//54 55//55 31//31
f 56//56 8//8 38//38
f 37//37 86//86 8//8
f 62//62 56//56 38//38
f 83//83 57//57 16//16
f 83//83 16//16 33//33
f 59//59 20//20 115//115
f 85//85 4//4 84//84
f 85//85 91//91 4//4
f 86//86 36//36 61//61
f 88//88 62//62 37//37
f 89//89 64//64 20//20
f 90//90 64//64 89//89
f 90//90 97//97 64//64
f 87//87 97//97 90//90
f 99//99 41//41 91//91
f 65//65 99//99 21//21
f 65//65 41//41 99//99
f 65//65 58//58 114//114
f 116//116 92//92 42//42
f 42//42 67//67 116//116
f 92//92 101//101 22//22
f 92//92 22//22 42//42
f 68//68 106//106 103//103
f 126//126 107//107 97//97
f 69//69 39//39 1//1
f 74//74 75//75 24//24
f 93//93 46//46 5//5
f 93//93 5//5 25//25
f 70//70 121//121 105//105
f 70//70 76//76 121//121
f 94//94 77//77 14//14
f 94//94 14//14 78//78
f 94//94 78//78 46//46
f 95//95 80//80 52//52
f 95//95 52//52 82//82
f 29//29 113//113 111//111
f 113//113 82//82 52//52
f 95//95 82//82 29//29
f 120//120 95//95 29//29
f 111//111 71//71 81//81
f 53//53 109//109 71//71
f 53//53 71//71 111//111
f 69//69 1//1 55//55
f 69//69 54//54 127//127
f 56//56 37//37 8//8
f 4//4 33//33 84//84
f 88//88 56//56 62//62
f 88//88 37//37 56//56
f 62//62 63//63 37//37
f 62//62 38//38 39//39
f 59//59 97//97 42//42
f 97//97 67//67 42//42
f 97//97 59//59 64//64
f 99//99 91//91 21//21
f 41//41 101//101 91//91
f 58//58 65//65 21//21
f 59//59 42//42 22//22
f 123//123 92//92 116//116
f 92//92 100//100 101//101
f 67//67 97//97 107//107
f 68//68 105//105 121//121
f 117//117 107//107 126//126
f 107//107 125//125 67//67
f 62//62 39//39 69//69
f 69//69 124//124 117//117
f 109//109 53//53 23//23
f 100//100 10//10 72//72
f 100//100 72//72 110//110
f 11//11 24//24 3//3
f 11//11 50//50 121//121
f 121//121 45//45 11//11
f 76//76 93//93 25//25
f 127//127 54//54 77//77
f 121//121 80//80 68//68
f 111//111 51//51 29//29
f 51//51 68//68 120//120
f 51//51 120//120 29//29
f 81//81 68//68 51//51
f 100//100 110//110 112//112
f 112//112 96//96 57//57
f 112//112 57//57 83//83
f 113//113 30//30 53//53
f 113//113 53//53 111//111
f 69//69 55//55 54//54
f 4//4 101//101 33//33
f 63//63 87//87 61//61
f 63//63 61//61 36//36
f 87//87 90//90 98//98
f 41//41 65//65 59//59
f 4//4 91//91 101//101
f 114//114 59//59 65//65
f 41//41 59//59 22//22
f 41//41 22//22 101//101
f 115//115 64//64 59//59
f 33//33 101//101 100//100
f 123//123 118//118 100//100
f 103//103 105//105 68//68
f 106//106 104//104 125//125
f 117//117 125//125 107//107
f 104//104 67//67 125//125
f 117//117 126//126 69//69
f 109//109 10//10 108//108
f 108//108 71//71 109//109
f 108//108 119//119 71//71
f 119//119 81//81 71//71
f 50//50 11//11 3//3
f 121//121 76//76 45//45
f 127//127 93//93 76//76
f 127//127 76//76 70//70
f 127//127 46//46 93//93
f 127//127 94//94 46//46
f 127//127 77//77 94//94
f 120//120 80//80 95//95
f 69//69 127//127 124//124
f 124//124 127//127 70//70
f 83//83 33//33 100//100
f 112//112 83//83 100//100
f 62//62 126//126 63//63
f 123//123 100//100 92//92
f 123//123 116//116 104//104
f 104//104 116//116 67//67
f 68//68 81//81 118//118
f 81//81 119//119 118//118
f 124//124 102//102 117//117
f 102//102 124//124 103//103
f 125//125 117//117 102//102
f 68//68 118//118 106//106
f 106//106 118//118 104//104
f 10//10 119//119 108//108
f 126//126 62//62 69//69
f 100//100 118//118 10//10
f 120//120 68//68 80//80
f 126//126 87//87 63//63
f 118//118 123//123 104//104
f 119//119 10//10 118//118
f 87//87 126//126 97//97
f 125//125 103//103 106//106
f 125//125 102//102 103//103
# 250 faces, 0 coords texture

# End of File
