####
#
# OBJ File Generated by Meshlab
#
####
# Object quaker_chewy_smores_250_collision.obj
#
# Vertices: 127
# Faces: 250
#
####
vn 0.087993 -0.995227 0.042191
v -0.009785 -0.077771 0.154598
vn 0.009771 0.999665 0.023952
v 0.015656 0.074364 0.008673
vn 0.627819 -0.236552 -0.741543
v 0.050880 0.041255 0.005871
vn 0.767962 -0.575456 -0.281219
v 0.000000 -0.070450 0.006834
vn 0.441600 0.896934 0.022345
v 0.041453 0.062807 0.154598
vn -0.332461 -0.185807 -0.924632
v -0.042370 -0.064820 0.005871
vn 0.911101 -0.412181 -0.001701
v 0.042819 0.021526 0.113503
vn -0.120162 -0.991963 -0.039637
v -0.015656 -0.077401 0.013699
vn 0.341727 0.839440 -0.422567
v 0.027397 0.070943 0.005871
vn 0.961424 -0.151155 -0.229819
v 0.052837 0.046967 0.006015
vn -0.888519 0.433252 -0.151084
v -0.013578 0.025440 0.007828
vn -0.809519 -0.562711 -0.167437
v -0.048577 -0.062622 0.009785
vn 0.855140 -0.376577 0.356265
v 0.049415 0.039139 0.164383
vn 0.878957 -0.395693 -0.266197
v 0.045010 0.027397 0.006028
vn 0.549649 0.834975 -0.026530
v 0.044029 0.062622 0.011742
vn -0.242841 0.964105 0.107377
v 0.023105 0.068593 0.157044
vn 0.950794 -0.296992 0.088241
v 0.053138 0.044852 0.158806
vn -0.913048 0.401974 0.068996
v -0.035627 -0.045237 0.157187
vn -0.348019 0.114738 -0.930440
v -0.043053 -0.045905 0.005871
vn -0.499479 0.003369 -0.866319
v -0.045010 -0.052837 0.006237
vn 0.691521 -0.719994 0.058368
v -0.002352 -0.074180 0.154082
vn 0.889627 -0.401835 0.217007
v 0.048923 0.036575 0.162426
vn 0.322496 -0.238743 -0.915968
v 0.000005 -0.069223 0.005871
vn 0.896373 -0.443301 0.000791
v 0.001957 -0.066465 0.140900
vn -0.197027 -0.974771 0.104889
v -0.014677 -0.077207 0.155577
vn 0.448301 0.893850 0.007598
v 0.041096 0.063900 0.084148
vn 0.291235 0.952964 -0.083917
v 0.023564 0.072377 0.007096
vn 0.077488 0.951076 0.299083
v 0.025887 0.068467 0.161953
vn 0.502176 0.857667 0.110575
v 0.045148 0.060738 0.159908
vn 0.916215 0.400677 -0.002874
v 0.052837 0.053304 0.144814
vn 0.652398 0.757876 -0.000078
v 0.045010 0.061796 0.011742
vn -0.834538 0.540174 0.108437
v 0.013229 0.060834 0.157187
vn -0.926109 0.309972 0.215036
v -0.037729 -0.051005 0.161070
vn -0.763858 0.205470 -0.611803
v -0.046929 -0.050880 0.007910
vn -0.923854 -0.119038 -0.363762
v -0.048923 -0.061756 0.009785
vn -0.300799 -0.953536 -0.017006
v -0.019569 -0.076314 0.011742
vn -0.405517 -0.805787 -0.431582
v -0.035241 -0.070444 0.005871
vn -0.570267 -0.820834 -0.032041
v -0.046967 -0.064579 0.012291
vn 0.443043 -0.785349 -0.432366
v -0.004500 -0.074364 0.007828
vn 0.065153 -0.996404 -0.054174
v -0.011742 -0.077349 0.013699
vn 0.254366 -0.163980 0.953105
v -0.003914 -0.066536 0.167659
vn 0.210626 -0.881915 0.421738
v -0.007508 -0.076314 0.164646
vn 0.555707 -0.830256 0.043177
v -0.003914 -0.075583 0.154598
vn 0.913889 -0.330693 0.235475
v 0.051425 0.041359 0.160546
vn 0.863096 -0.402302 0.305316
v 0.006647 -0.054794 0.162426
vn 0.894655 -0.446722 0.005671
v 0.000937 -0.068493 0.152641
vn 0.904818 -0.425792 0.002255
v 0.011690 -0.046710 0.115458
vn -0.066776 -0.995494 0.067327
v -0.011742 -0.077770 0.154598
vn 0.462532 0.886577 -0.006802
v 0.041096 0.064221 0.013699
vn 0.057678 0.910197 -0.410140
v 0.016540 0.074364 0.007828
vn 0.417739 0.908504 0.010673
v 0.039623 0.064579 0.086105
vn 0.370100 0.927642 0.050064
v 0.033359 0.066449 0.155466
vn 0.997534 -0.070117 -0.003184
v 0.053614 0.046967 0.150684
vn 0.723646 0.380735 -0.575654
v 0.050880 0.053557 0.005871
vn 0.799348 0.138214 -0.584756
v 0.052838 0.049432 0.005871
vn 0.585445 0.645396 -0.490631
v 0.046688 0.060331 0.005871
vn 0.893602 0.448616 0.014792
v 0.052069 0.054782 0.151102
vn -0.907270 0.415372 0.065778
v -0.017613 -0.002302 0.136993
vn -0.882539 0.449642 0.137652
v 0.011742 0.057750 0.158512
vn -0.318277 0.153518 -0.935485
v -0.013699 0.020526 0.005871
vn -0.984427 0.079157 0.156963
v -0.039476 -0.056719 0.158235
vn -0.648289 0.307800 -0.696406
v -0.013699 0.023483 0.006639
vn -0.793103 -0.589782 0.152132
v -0.036890 -0.065100 0.159615
vn -0.336232 -0.941542 0.021120
v -0.018168 -0.076321 0.154598
vn -0.161562 -0.783113 -0.600527
v -0.018608 -0.076319 0.005871
vn 0.146425 -0.984254 -0.099016
v -0.009778 -0.076949 0.011171
vn 0.009354 -0.999896 -0.010987
v -0.013699 -0.077446 0.015656
vn -0.901865 0.406927 0.145085
v -0.035291 -0.045003 0.159772
vn -0.478174 0.151271 0.865140
v -0.033957 -0.054221 0.167806
vn 0.279495 -0.064500 0.957978
v 0.048655 0.046030 0.167915
vn -0.368306 -0.739526 0.563429
v -0.025289 -0.069950 0.165410
vn 0.384502 -0.922292 -0.039185
v -0.007757 -0.076337 0.006166
vn 0.597082 -0.780436 -0.185508
v -0.003914 -0.073995 0.007828
vn 0.904054 -0.423108 0.060544
v 0.003443 -0.063147 0.159255
vn 0.916592 -0.399810 0.003237
v 0.051696 0.041196 0.146302
vn 0.999928 0.011996 -0.000426
v 0.053658 0.048923 0.146770
vn 0.981770 0.190059 -0.002422
v 0.053543 0.050956 0.153436
vn 0.805780 0.591945 -0.017873
v 0.048451 0.058718 0.013676
vn -0.454597 0.849697 -0.267128
v 0.013699 0.074364 0.008471
vn -0.999236 -0.004882 0.038784
v -0.048923 -0.059076 0.011775
vn -0.902755 -0.424637 0.068676
v -0.038503 -0.062622 0.154598
vn -0.135879 0.067842 0.988400
v -0.003353 0.004541 0.168720
vn -0.989242 -0.076455 0.124720
v -0.039399 -0.058708 0.158512
vn -0.940114 -0.320115 0.117100
v -0.039070 -0.060666 0.158568
vn 0.175584 -0.778032 -0.603189
v -0.011260 -0.076446 0.005871
vn -0.274249 -0.961032 0.034717
v -0.017612 -0.076495 0.154598
vn -0.356765 -0.911309 0.205512
v -0.021657 -0.074781 0.160625
vn -0.789049 0.281547 0.546016
v -0.036988 -0.052740 0.164470
vn -0.856015 0.422756 0.297517
v 0.011742 0.056792 0.160535
vn 0.540203 -0.284212 0.792088
v -0.001957 -0.064579 0.167224
vn 0.830277 -0.532019 0.166121
v -0.001183 -0.072453 0.160977
vn 0.285927 -0.957362 0.041281
v -0.007821 -0.077365 0.156555
vn 0.606874 0.794577 0.018759
v 0.048642 0.058489 0.154598
vn -0.111676 0.313828 -0.942889
v 0.017612 0.070483 0.005871
vn -0.215346 0.181953 0.959437
v 0.020059 0.057730 0.167568
vn 0.831606 -0.216380 0.511480
v 0.051626 0.045113 0.165126
vn 0.956726 0.173981 0.233250
v 0.053836 0.050171 0.159215
vn 0.641551 0.145229 0.753207
v 0.049222 0.049057 0.167682
vn 0.741552 0.666073 0.080302
v 0.050819 0.056670 0.155499
vn 0.015816 -0.363847 0.931324
v -0.011254 -0.072475 0.167789
vn -0.308568 0.142555 0.940459
v -0.017806 -0.021112 0.168296
vn -0.998413 -0.035834 0.043442
v -0.048923 -0.060665 0.011155
vn -0.688612 -0.723508 0.048482
v -0.037228 -0.066478 0.137140
vn -0.786191 0.387887 0.481090
v 0.013781 0.057153 0.164448
vn -0.593742 0.277268 0.755376
v -0.009367 0.003011 0.166340
vn -0.882890 0.417170 0.215577
v -0.011418 0.004892 0.162633
vn 0.672443 -0.245557 0.698227
v 0.048541 0.041630 0.166699
vn 0.170794 -0.081620 0.981920
v 0.021771 -0.009295 0.168530
vn 0.471790 -0.362844 0.803591
v -0.004525 -0.069838 0.166899
vn 0.433669 -0.204981 0.877448
v 0.021037 -0.012721 0.168289
vn 0.621135 -0.306790 0.721160
v 0.002945 -0.056837 0.166348
vn 0.435363 -0.899160 0.044380
v -0.005400 -0.076321 0.154598
vn 0.504777 0.863219 0.007280
v 0.043069 0.062842 0.084268
vn 0.097795 0.994061 0.047734
v 0.025655 0.068852 0.157919
vn 0.050744 0.362476 0.930611
v 0.028408 0.063162 0.167685
vn -0.532861 0.837492 0.121104
v 0.017739 0.066438 0.157602
vn -0.647189 0.602946 0.466479
v 0.018497 0.065884 0.164302
vn 0.032761 -0.020413 0.999255
v 0.012629 -0.022702 0.168760
vn -0.187354 -0.198765 0.961972
v -0.032686 -0.062912 0.168016
vn -0.832607 -0.264355 0.486706
v -0.037267 -0.060798 0.166350
vn 0.574109 0.667594 0.474043
v 0.046590 0.058697 0.163987
vn -0.970689 0.223169 -0.089212
v -0.048925 -0.054972 0.009784
vn -0.443199 0.243170 0.862811
v 0.016267 0.056751 0.166401
vn -0.143540 0.097109 -0.984869
v 0.010715 0.066680 0.005871
vn -0.027565 0.028988 0.999200
v 0.004851 0.018763 0.168640
vn -0.497459 -0.794842 0.347506
v -0.028736 -0.071186 0.159633
vn 0.707219 -0.405296 0.579289
v -0.001343 -0.069962 0.164514
# 127 vertices, 0 vertices normals

f 10//10 3//3 55//55
f 47//47 14//14 7//7
f 47//47 4//4 14//14
f 15//15 56//56 9//9
f 17//17 3//3 10//10
f 18//18 11//11 122//122
f 20//20 19//19 6//6
f 37//37 12//12 6//6
f 23//23 14//14 4//4
f 23//23 4//4 85//85
f 75//75 7//7 14//14
f 75//75 47//47 7//7
f 31//31 56//56 15//15
f 32//32 79//79 11//11
f 124//124 11//11 79//79
f 34//34 19//19 20//20
f 35//35 20//20 6//6
f 35//35 6//6 12//12
f 35//35 34//34 20//20
f 35//35 122//122 34//34
f 36//36 65//65 8//8
f 36//36 37//37 65//65
f 38//38 12//12 37//37
f 39//39 85//85 4//4
f 45//45 22//22 13//13
f 45//45 13//13 127//127
f 23//23 3//3 14//14
f 46//46 4//4 24//24
f 47//47 24//24 4//4
f 47//47 46//46 24//24
f 74//74 47//47 75//75
f 75//75 14//14 3//3
f 48//48 25//25 8//8
f 49//49 15//15 9//9
f 49//49 9//9 26//26
f 50//50 79//79 2//2
f 50//50 27//27 9//9
f 51//51 26//26 9//9
f 51//51 9//9 52//52
f 51//51 5//5 26//26
f 44//44 13//13 22//22
f 53//53 17//17 10//10
f 54//54 30//30 55//55
f 54//54 78//78 30//30
f 54//54 56//56 78//78
f 57//57 30//30 78//78
f 93//93 99//99 31//31
f 93//93 31//31 15//15
f 58//58 11//11 18//18
f 59//59 11//11 58//58
f 59//59 68//68 89//89
f 59//59 32//32 11//11
f 116//116 16//16 79//79
f 34//34 122//122 11//11
f 62//62 34//34 11//11
f 62//62 19//19 34//34
f 62//62 60//60 19//19
f 62//62 11//11 124//124
f 62//62 124//124 60//60
f 120//120 119//119 69//69
f 84//84 35//35 12//12
f 85//85 8//8 65//65
f 85//85 40//40 8//8
f 64//64 87//87 37//37
f 64//64 37//37 36//36
f 66//66 1//1 40//40
f 66//66 40//40 85//85
f 67//67 40//40 1//1
f 67//67 8//8 40//40
f 67//67 48//48 8//8
f 67//67 1//1 48//48
f 72//72 39//39 43//43
f 73//73 43//43 39//39
f 73//73 39//39 4//4
f 21//21 73//73 4//4
f 21//21 43//43 73//73
f 96//96 127//127 13//13
f 97//97 17//17 53//53
f 17//17 44//44 74//74
f 75//75 17//17 74//74
f 74//74 46//46 47//47
f 74//74 91//91 46//46
f 75//75 3//3 17//17
f 113//113 49//49 26//26
f 113//113 15//15 49//49
f 114//114 2//2 79//79
f 114//114 50//50 2//2
f 52//52 5//5 51//51
f 52//52 9//9 27//27
f 29//29 52//52 28//28
f 29//29 5//5 52//52
f 99//99 121//121 97//97
f 97//97 96//96 44//44
f 76//76 53//53 10//10
f 76//76 10//10 55//55
f 76//76 55//55 77//77
f 78//78 56//56 31//31
f 99//99 57//57 78//78
f 122//122 33//33 18//18
f 81//81 84//84 12//12
f 81//81 12//12 63//63
f 103//103 63//63 12//12
f 103//103 12//12 38//38
f 83//83 35//35 84//84
f 84//84 81//81 63//63
f 86//86 64//64 36//36
f 86//86 36//36 8//8
f 87//87 38//38 37//37
f 66//66 85//85 39//39
f 68//68 18//18 33//33
f 18//18 68//68 59//59
f 88//88 104//104 106//106
f 117//117 106//106 104//104
f 117//117 59//59 89//89
f 89//89 33//33 106//106
f 89//89 106//106 117//117
f 89//89 68//68 33//33
f 70//70 107//107 98//98
f 110//110 108//108 41//41
f 90//90 110//110 41//41
f 127//127 96//96 107//107
f 100//100 42//42 109//109
f 42//42 48//48 1//1
f 42//42 25//25 48//48
f 91//91 21//21 4//4
f 91//91 4//4 46//46
f 74//74 44//44 22//22
f 92//92 1//1 66//66
f 42//42 21//21 91//91
f 21//21 42//42 43//43
f 44//44 17//17 97//97
f 5//5 113//113 26//26
f 121//121 28//28 115//115
f 28//28 114//114 16//16
f 114//114 27//27 50//50
f 114//114 79//79 16//16
f 94//94 124//124 79//79
f 94//94 79//79 50//50
f 94//94 50//50 9//9
f 28//28 52//52 114//114
f 107//107 96//96 98//98
f 77//77 55//55 30//30
f 99//99 78//78 31//31
f 97//97 57//57 99//99
f 116//116 79//79 32//32
f 117//117 116//116 32//32
f 33//33 61//61 120//120
f 122//122 80//80 61//61
f 120//120 84//84 63//63
f 100//100 109//109 41//41
f 101//101 69//69 119//119
f 120//120 61//61 83//83
f 102//102 35//35 83//83
f 84//84 120//120 83//83
f 25//25 86//86 8//8
f 87//87 64//64 86//86
f 66//66 39//39 72//72
f 58//58 18//18 59//59
f 105//105 104//104 88//88
f 105//105 88//88 69//69
f 120//120 88//88 33//33
f 101//101 105//105 69//69
f 106//106 33//33 88//88
f 120//120 69//69 88//88
f 108//108 110//110 70//70
f 111//111 127//127 107//107
f 108//108 70//70 118//118
f 109//109 90//90 41//41
f 110//110 90//90 111//111
f 111//111 90//90 109//109
f 71//71 42//42 100//100
f 119//119 120//120 71//71
f 91//91 74//74 22//22
f 91//91 22//22 45//45
f 112//112 72//72 43//43
f 112//112 42//42 92//92
f 72//72 92//92 66//66
f 72//72 112//112 92//92
f 42//42 91//91 127//127
f 77//77 97//97 53//53
f 113//113 93//93 15//15
f 114//114 52//52 27//27
f 29//29 28//28 121//121
f 115//115 70//70 98//98
f 44//44 96//96 13//13
f 97//97 98//98 96//96
f 98//98 97//97 121//121
f 57//57 77//77 30//30
f 77//77 53//53 76//76
f 57//57 97//97 77//77
f 29//29 93//93 113//113
f 29//29 113//113 5//5
f 29//29 121//121 99//99
f 99//99 93//93 29//29
f 28//28 16//16 116//116
f 118//118 119//119 100//100
f 118//118 41//41 108//108
f 95//95 82//82 125//125
f 118//118 82//82 119//119
f 80//80 35//35 102//102
f 80//80 102//102 83//83
f 80//80 83//83 61//61
f 80//80 122//122 35//35
f 87//87 86//86 25//25
f 123//123 105//105 101//101
f 123//123 104//104 105//105
f 123//123 117//117 104//104
f 70//70 125//125 118//118
f 110//110 107//107 70//70
f 127//127 111//111 109//109
f 100//100 119//119 71//71
f 42//42 1//1 92//92
f 42//42 127//127 109//109
f 87//87 25//25 42//42
f 91//91 45//45 127//127
f 42//42 112//112 43//43
f 125//125 70//70 115//115
f 115//115 98//98 121//121
f 117//117 32//32 59//59
f 116//116 117//117 28//28
f 122//122 61//61 33//33
f 63//63 126//126 120//120
f 118//118 100//100 41//41
f 123//123 82//82 95//95
f 123//123 95//95 117//117
f 125//125 82//82 118//118
f 82//82 101//101 119//119
f 126//126 103//103 38//38
f 126//126 38//38 87//87
f 117//117 115//115 28//28
f 107//107 110//110 111//111
f 126//126 71//71 120//120
f 124//124 94//94 9//9
f 124//124 9//9 56//56
f 124//124 56//56 54//54
f 124//124 54//54 55//55
f 124//124 55//55 3//3
f 124//124 3//3 23//23
f 124//124 23//23 85//85
f 124//124 85//85 65//65
f 124//124 65//65 37//37
f 124//124 37//37 6//6
f 124//124 6//6 19//19
f 124//124 19//19 60//60
f 115//115 117//117 95//95
f 115//115 95//95 125//125
f 101//101 82//82 123//123
f 126//126 42//42 71//71
f 126//126 63//63 103//103
f 126//126 87//87 42//42
# 250 faces, 0 coords texture

# End of File
