####
#
# OBJ File Generated by Meshlab
#
####
# Object nature_valley_crunchy_variety_pack_250_collision.obj
#
# Vertices: 127
# Faces: 250
#
####
vn 0.225369 0.306918 0.924667
v -0.050654 0.014835 0.000382
vn 0.002780 0.000667 0.999996
v 0.024624 -0.008687 -0.001027
vn -0.145031 -0.269064 0.952140
v 0.022152 0.007076 0.000783
vn 0.454775 -0.890431 0.017705
v -0.057001 0.061209 0.061298
vn 0.129330 0.209731 0.969168
v -0.014700 -0.002900 -0.000168
vn 0.521430 0.852437 0.038238
v -0.008777 -0.020240 0.026569
vn 0.536355 0.843254 0.035310
v 0.026965 -0.042970 0.030777
vn 0.511611 0.731456 0.450805
v -0.062226 0.012337 0.007010
vn 0.448295 0.743366 0.496426
v -0.030965 -0.006569 0.007934
vn 0.230087 0.366432 0.901547
v -0.007069 -0.013013 0.001238
vn 0.518961 0.854383 0.026629
v -0.035571 -0.004444 0.033351
vn 0.530509 0.847346 0.023763
v -0.034199 -0.006565 0.056012
vn 0.650499 0.759504 -0.002061
v -0.070666 0.016437 0.068234
vn 0.536085 0.843912 -0.020629
v -0.046918 0.001917 0.103652
vn 0.535169 0.844634 -0.013669
v -0.013433 -0.019618 0.088618
vn 0.530457 0.836601 -0.136797
v -0.004070 -0.023904 0.134243
vn 0.523270 0.835493 -0.167751
v -0.032199 -0.006350 0.134405
vn 0.419944 0.671349 -0.610686
v -0.026678 -0.006202 0.142138
vn 0.153194 0.237405 -0.959255
v -0.030789 0.006056 0.147273
vn -0.040180 -0.165877 0.985327
v -0.043063 0.042322 0.000032
vn 0.635321 0.261896 0.726483
v -0.074172 0.026694 0.004216
vn 0.653444 0.734443 0.183315
v -0.072509 0.018120 0.013902
vn 0.950739 0.255870 0.175003
v -0.078143 0.025274 0.013040
vn 0.246847 -0.107859 0.963033
v -0.063464 0.036870 0.000660
vn 0.807095 -0.398101 0.436019
v -0.073655 0.039588 0.008025
vn 0.163421 -0.485036 0.859089
v -0.056554 0.053663 0.002844
vn 0.032992 0.008686 0.999418
v -0.040276 0.024833 -0.000787
vn -0.033350 -0.057140 0.997809
v -0.017588 0.017525 -0.000797
vn -0.186550 -0.296793 0.936543
v -0.009448 0.026135 0.000837
vn -0.368465 -0.598890 0.711031
v -0.000484 0.027969 0.005225
vn -0.269985 -0.515669 0.813138
v -0.033709 0.045972 0.002531
vn -0.492481 -0.775663 0.394727
v -0.026077 0.046312 0.007910
vn -0.530157 -0.845270 0.066720
v -0.017196 0.042979 0.029803
vn -0.304727 -0.861490 0.406173
v -0.045773 0.060210 0.010260
vn -0.492879 -0.819205 0.293212
v 0.011079 0.023761 0.010281
vn 0.350381 -0.900291 0.258280
v -0.059035 0.060376 0.010911
vn 0.142993 -0.989494 0.021306
v -0.052844 0.062072 0.040368
vn -0.294041 -0.954816 0.043209
v -0.047460 0.061354 0.029726
vn 0.928314 0.371792 -0.002053
v -0.077613 0.025517 0.064003
vn 0.685736 0.727832 0.005097
v -0.074244 0.019620 0.040540
vn 0.970683 -0.237662 0.035943
v -0.078297 0.030951 0.022036
vn 0.732967 -0.680219 0.007828
v -0.062562 0.057182 0.046454
vn 0.982390 -0.186607 0.009333
v -0.078374 0.032688 0.047464
vn -0.517794 -0.854193 0.047372
v -0.030054 0.052520 0.050426
vn -0.355274 -0.934398 0.026107
v -0.043177 0.060621 0.055104
vn 0.680899 0.732290 -0.011306
v -0.074487 0.019764 0.104293
vn 0.923667 -0.383131 0.007035
v -0.078098 0.032772 0.100346
vn 0.978648 -0.164838 -0.122783
v -0.079162 0.031411 0.136710
vn 0.970355 0.241675 0.002194
v -0.078379 0.026678 0.098475
vn 0.781223 0.593808 -0.192568
v -0.074376 0.019628 0.134779
vn 0.780283 -0.625324 -0.011316
v -0.064908 0.054595 0.118820
vn -0.551478 -0.833368 -0.037014
v -0.017086 0.045138 0.116301
vn 0.720516 -0.693431 0.003201
v -0.062415 0.057249 0.082320
vn 0.039164 -0.999077 0.017649
v -0.051102 0.063188 0.083814
vn 0.480425 -0.877031 0.002921
v -0.057423 0.061376 0.104692
vn -0.044945 -0.998912 -0.012436
v -0.050009 0.063564 0.115826
vn -0.366931 -0.930142 0.014045
v -0.044036 0.061730 0.086384
vn -0.464660 -0.885455 -0.007809
v -0.040649 0.060133 0.105042
vn -0.522882 -0.738462 -0.425757
v -0.034186 0.055474 0.139098
vn 0.471844 0.738063 -0.482313
v -0.055691 0.009609 0.140130
vn 0.645996 0.183680 -0.740912
v -0.076413 0.030852 0.144700
vn 0.547897 -0.753239 -0.363923
v -0.058316 0.061057 0.139898
vn 0.245081 -0.102665 -0.964051
v -0.063833 0.035761 0.150023
vn -0.042985 -0.055264 -0.997546
v -0.002157 0.013562 0.148439
vn -0.227428 -0.293534 -0.928501
v -0.026080 0.038745 0.146849
vn -0.512418 -0.765244 -0.389652
v -0.000577 0.031686 0.137989
vn -0.230810 -0.910414 -0.343328
v -0.046076 0.062001 0.142261
vn -0.050993 -0.486204 -0.872356
v -0.050771 0.055168 0.148992
vn 0.147421 0.683095 0.715296
v 0.050257 -0.052762 0.003903
vn -0.093677 0.264858 0.959726
v 0.054486 -0.043215 0.000092
vn -0.516527 0.652263 0.554754
v 0.062467 -0.053834 0.008246
vn 0.077752 0.105176 0.991409
v 0.018513 -0.018163 -0.000271
vn 0.246258 0.393542 0.885710
v 0.016695 -0.027438 0.001506
vn 0.023096 0.055413 0.998196
v 0.036667 -0.024317 -0.001003
vn 0.492885 0.779935 0.385701
v 0.028119 -0.042762 0.007819
vn 0.487459 0.791677 0.368282
v -0.000108 -0.025006 0.009416
vn -0.428175 -0.695665 0.576816
v 0.044356 0.002044 0.005124
vn -0.530908 -0.840900 0.104995
v 0.050639 0.000442 0.013278
vn -0.241414 0.108608 0.964325
v 0.061684 -0.032995 -0.000167
vn -0.626308 0.104768 0.772503
v 0.073185 -0.029564 0.003704
vn -0.914508 0.364209 0.176145
v 0.078340 -0.028514 0.013797
vn -0.961406 -0.180988 0.207224
v 0.078965 -0.020862 0.012056
vn -0.191531 -0.228084 0.954617
v 0.052558 -0.011280 0.000222
vn -0.606670 -0.593762 0.528581
v 0.072692 -0.013658 0.005687
vn -0.688068 -0.725124 0.027519
v 0.074483 -0.014010 0.027103
vn 0.157904 0.975984 0.150073
v 0.050410 -0.058037 0.016356
vn 0.060228 0.997826 0.026751
v 0.050609 -0.058391 0.043613
vn 0.414250 0.909970 0.018752
v 0.048307 -0.058076 0.066337
vn -0.648083 0.761366 0.017639
v 0.062371 -0.054466 0.031153
vn 0.527840 0.848975 0.025015
v 0.012274 -0.035563 0.062725
vn -0.966010 0.258387 0.007754
v 0.078361 -0.029670 0.041270
vn -0.967595 -0.252378 0.008034
v 0.078814 -0.020181 0.043497
vn -0.925109 0.379054 0.022144
v 0.078538 -0.029670 0.061544
vn -0.991034 -0.133512 0.005089
v 0.080052 -0.023456 0.074947
vn -0.537924 -0.842748 0.020327
v 0.048056 0.004597 0.059832
vn 0.358034 0.933698 0.004449
v 0.046545 -0.057825 0.099477
vn -0.575002 0.817780 0.024655
v 0.060985 -0.056408 0.070332
vn -0.726632 0.686858 0.015238
v 0.063792 -0.054856 0.111852
vn -0.104219 0.994491 0.011200
v 0.055935 -0.059228 0.095331
vn 0.543589 0.838828 -0.029647
v 0.015625 -0.037566 0.117512
vn -0.968742 0.247435 0.017717
v 0.078573 -0.031650 0.093375
vn -0.725654 -0.688032 0.006175
v 0.073722 -0.012688 0.060916
vn -0.899440 -0.436827 0.013742
v 0.078088 -0.016321 0.101306
vn -0.993890 0.107827 0.023588
v 0.080490 -0.027494 0.109537
vn -0.955424 0.249355 -0.158071
v 0.080321 -0.029975 0.136494
vn -0.820147 -0.542131 -0.182898
v 0.077443 -0.016528 0.136596
vn -0.549985 -0.834900 -0.021431
v 0.062837 -0.005756 0.097899
vn 0.361784 0.908499 -0.209146
v 0.048383 -0.058390 0.137453
vn 0.071646 0.560588 -0.824990
v 0.051135 -0.051828 0.148205
vn -0.200413 0.945203 -0.257732
v 0.056264 -0.059610 0.138036
vn -0.613575 0.671100 -0.416114
v 0.062634 -0.056356 0.138961
vn 0.484398 0.707365 -0.514776
v 0.020732 -0.038554 0.139459
vn 0.148188 0.178021 -0.972805
v 0.032207 -0.037634 0.145731
vn 0.215110 0.350366 -0.911576
v 0.000574 -0.014793 0.146966
vn -0.015068 0.016009 -0.999758
v 0.009451 -0.006094 0.148064
vn -0.507327 -0.106099 -0.855197
v 0.076328 -0.026008 0.147178
vn -0.480085 -0.774081 -0.412694
v 0.051580 -0.000360 0.138967
vn -0.328691 -0.586758 0.740052
v 0.024457 0.010644 0.002645
vn -0.489638 -0.812377 0.316698
v 0.036857 0.009052 0.008650
vn -0.521774 -0.851510 0.051801
v 0.020985 0.019262 0.033410
vn -0.529029 -0.847877 0.035108
v 0.005937 0.030889 0.057913
vn -0.528907 -0.848679 0.000897
v -0.013472 0.043137 0.081178
vn -0.534229 -0.844905 -0.027101
v 0.034123 0.012539 0.097917
vn -0.535405 -0.843442 -0.044127
v 0.018246 0.021622 0.113646
vn -0.284925 -0.458360 -0.841857
v 0.021734 0.009318 0.145943
vn -0.498252 -0.828046 -0.257071
v 0.037132 0.009215 0.134987
vn -0.163698 -0.255314 -0.952900
v 0.040231 -0.003243 0.146685
# 127 vertices, 0 vertices normals

f 10//10 2//2 5//5
f 9//9 1//1 8//8
f 1//1 9//9 5//5
f 9//9 76//76 10//10
f 5//5 9//9 10//10
f 5//5 27//27 1//1
f 6//6 76//76 9//9
f 6//6 9//9 11//11
f 6//6 11//11 12//12
f 13//13 14//14 12//12
f 15//15 90//90 12//12
f 14//14 15//15 12//12
f 100//100 15//15 16//16
f 16//16 15//15 14//14
f 17//17 16//16 14//14
f 18//18 112//112 16//16
f 17//17 60//60 18//18
f 16//16 17//17 18//18
f 114//114 112//112 18//18
f 114//114 18//18 19//19
f 19//19 115//115 114//114
f 115//115 19//19 64//64
f 27//27 24//24 1//1
f 24//24 27//27 20//20
f 39//39 23//23 41//41
f 21//21 8//8 1//1
f 21//21 1//1 24//24
f 21//21 22//22 8//8
f 23//23 22//22 21//21
f 25//25 21//21 24//24
f 25//25 23//23 21//21
f 23//23 25//25 41//41
f 25//25 26//26 36//36
f 26//26 25//25 24//24
f 26//26 24//24 20//20
f 42//42 41//41 25//25
f 25//25 36//36 42//42
f 27//27 5//5 28//28
f 27//27 28//28 20//20
f 28//28 29//29 20//20
f 9//9 8//8 11//11
f 11//11 8//8 22//22
f 20//20 29//29 31//31
f 26//26 20//20 31//31
f 26//26 31//31 34//34
f 31//31 32//32 34//34
f 34//34 32//32 33//33
f 31//31 29//29 30//30
f 31//31 30//30 32//32
f 35//35 32//32 30//30
f 33//33 32//32 35//35
f 26//26 34//34 36//36
f 42//42 36//36 37//37
f 38//38 36//36 34//34
f 38//38 34//34 33//33
f 38//38 37//37 36//36
f 39//39 41//41 43//43
f 40//40 22//22 23//23
f 39//39 40//40 23//23
f 40//40 12//12 11//11
f 11//11 22//22 40//40
f 12//12 40//40 13//13
f 43//43 41//41 42//42
f 39//39 43//43 49//49
f 39//39 13//13 40//40
f 49//49 43//43 47//47
f 47//47 43//43 42//42
f 53//53 47//47 42//42
f 121//121 44//44 33//33
f 121//121 122//122 44//44
f 37//37 4//4 42//42
f 4//4 37//37 54//54
f 4//4 53//53 42//42
f 53//53 4//4 55//55
f 44//44 38//38 33//33
f 37//37 38//38 45//45
f 38//38 44//44 45//45
f 54//54 37//37 45//45
f 54//54 45//45 57//57
f 57//57 45//45 122//122
f 45//45 44//44 122//122
f 46//46 14//14 13//13
f 46//46 13//13 39//39
f 46//46 39//39 49//49
f 47//47 53//53 51//51
f 47//47 48//48 49//49
f 46//46 17//17 14//14
f 17//17 46//46 60//60
f 50//50 46//46 49//49
f 50//50 49//49 48//48
f 51//51 48//48 47//47
f 58//58 122//122 52//52
f 59//59 58//58 52//52
f 52//52 124//124 66//66
f 51//51 53//53 55//55
f 55//55 4//4 54//54
f 56//56 55//55 54//54
f 51//51 55//55 62//62
f 62//62 55//55 56//56
f 57//57 122//122 58//58
f 54//54 57//57 56//56
f 58//58 56//56 57//57
f 67//67 58//58 59//59
f 56//56 58//58 67//67
f 60//60 46//46 50//50
f 50//50 48//48 61//61
f 61//61 60//60 50//50
f 19//19 60//60 61//61
f 61//61 63//63 19//19
f 62//62 63//63 61//61
f 62//62 48//48 51//51
f 62//62 61//61 48//48
f 68//68 63//63 62//62
f 18//18 60//60 19//19
f 65//65 19//19 63//63
f 65//65 64//64 19//19
f 59//59 52//52 66//66
f 65//65 63//63 68//68
f 68//68 59//59 65//65
f 59//59 66//66 65//65
f 67//67 68//68 62//62
f 62//62 56//56 67//67
f 59//59 68//68 67//67
f 86//86 69//69 75//75
f 70//70 69//69 71//71
f 71//71 69//69 86//86
f 89//89 71//71 86//86
f 70//70 74//74 73//73
f 74//74 72//72 73//73
f 79//79 74//74 70//70
f 10//10 72//72 2//2
f 5//5 2//2 28//28
f 2//2 72//72 74//74
f 83//83 2//2 74//74
f 74//74 79//79 83//83
f 83//83 3//3 2//2
f 76//76 75//75 73//73
f 75//75 76//76 7//7
f 6//6 7//7 76//76
f 73//73 75//75 69//69
f 73//73 69//69 70//70
f 7//7 86//86 75//75
f 10//10 73//73 72//72
f 76//76 73//73 10//10
f 118//118 3//3 83//83
f 118//118 83//83 77//77
f 71//71 79//79 70//70
f 71//71 80//80 79//79
f 71//71 81//81 80//80
f 82//82 80//80 81//81
f 81//81 71//71 89//89
f 82//82 81//81 91//91
f 83//83 79//79 80//80
f 83//83 80//80 84//84
f 84//84 80//80 82//82
f 84//84 77//77 83//83
f 77//77 84//84 78//78
f 85//85 78//78 84//84
f 84//84 82//82 85//85
f 7//7 87//87 86//86
f 88//88 87//87 7//7
f 89//89 86//86 87//87
f 93//93 89//89 97//97
f 97//97 89//89 87//87
f 99//99 87//87 88//88
f 97//97 87//87 99//99
f 93//93 97//97 98//98
f 90//90 7//7 6//6
f 12//12 90//90 6//6
f 7//7 90//90 88//88
f 89//89 91//91 81//81
f 93//93 91//91 89//89
f 92//92 82//82 91//91
f 85//85 82//82 92//92
f 92//92 102//102 85//85
f 95//95 85//85 102//102
f 92//92 91//91 93//93
f 93//93 94//94 92//92
f 94//94 93//93 101//101
f 94//94 102//102 92//92
f 95//95 102//102 107//107
f 107//107 102//102 103//103
f 99//99 88//88 96//96
f 88//88 100//100 96//96
f 99//99 96//96 108//108
f 100//100 108//108 96//96
f 108//108 110//110 99//99
f 98//98 97//97 99//99
f 98//98 99//99 110//110
f 111//111 98//98 110//110
f 88//88 90//90 100//100
f 100//100 90//90 15//15
f 123//123 95//95 107//107
f 101//101 93//93 98//98
f 103//103 94//94 101//101
f 103//103 101//101 104//104
f 103//103 102//102 94//94
f 104//104 101//101 98//98
f 105//105 104//104 98//98
f 105//105 98//98 111//111
f 107//107 103//103 106//106
f 106//106 117//117 107//107
f 107//107 117//117 123//123
f 106//106 103//103 104//104
f 106//106 104//104 105//105
f 108//108 112//112 109//109
f 110//110 108//108 109//109
f 111//111 110//110 109//109
f 116//116 111//111 109//109
f 112//112 108//108 100//100
f 16//16 112//112 100//100
f 113//113 112//112 114//114
f 112//112 113//113 109//109
f 115//115 127//127 113//113
f 116//116 113//113 127//127
f 114//114 115//115 113//113
f 115//115 125//125 127//127
f 127//127 117//117 116//116
f 111//111 116//116 105//105
f 113//113 116//116 109//109
f 117//117 106//106 116//116
f 105//105 116//116 106//106
f 28//28 2//2 3//3
f 3//3 29//29 28//28
f 35//35 118//118 119//119
f 29//29 3//3 30//30
f 118//118 30//30 3//3
f 118//118 35//35 30//30
f 33//33 35//35 120//120
f 119//119 118//118 77//77
f 77//77 78//78 119//119
f 120//120 119//119 78//78
f 35//35 119//119 120//120
f 121//121 33//33 120//120
f 120//120 78//78 95//95
f 95//95 78//78 85//85
f 122//122 121//121 123//123
f 121//121 120//120 95//95
f 123//123 121//121 95//95
f 123//123 124//124 122//122
f 124//124 52//52 122//122
f 124//124 123//123 126//126
f 126//126 123//123 117//117
f 126//126 117//117 125//125
f 66//66 125//125 65//65
f 66//66 124//124 126//126
f 126//126 125//125 66//66
f 115//115 64//64 125//125
f 65//65 125//125 64//64
f 127//127 125//125 117//117
# 250 faces, 0 coords texture

# End of File
