####
#
# OBJ File Generated by Meshlab
#
####
# Object paper_cup_holder_250_collision.obj
#
# Vertices: 127
# Faces: 250
#
####
vn -0.113281 -0.941457 -0.317530
v 0.048923 -0.138943 0.050435
vn 0.904018 0.388106 -0.179232
v 0.133067 0.058723 0.047171
vn -0.002723 -0.081934 -0.996634
v -0.054794 -0.091976 0.006684
vn 0.248011 -0.029424 0.968310
v 0.117416 -0.033268 0.053848
vn 0.275157 0.540318 -0.795201
v 0.078278 0.070450 0.007150
vn -0.594349 -0.634421 0.494226
v -0.105968 -0.100132 0.050377
vn 0.036588 0.058190 0.997635
v 0.035225 0.093933 0.051553
vn 0.314962 -0.208006 -0.926030
v 0.085751 -0.080235 0.007828
vn -0.488555 0.194384 -0.850605
v -0.076321 0.058708 0.008294
vn -0.217276 -0.906413 -0.362225
v -0.081343 -0.111546 0.048923
vn -0.107474 -0.377600 0.919711
v -0.027397 -0.123287 0.055043
vn 0.472803 0.601928 0.643537
v 0.117416 0.082191 0.048125
vn 0.004393 -0.595928 -0.803026
v 0.035225 -0.115459 0.011551
vn 0.017606 0.080536 -0.996596
v 0.068493 0.070450 0.006763
vn 0.769005 -0.614292 -0.176852
v 0.095714 -0.119373 0.050880
vn 0.696512 0.137395 -0.704268
v 0.111546 0.027402 0.009785
vn -0.399618 0.115408 0.909388
v -0.103718 0.039354 0.054794
vn -0.423763 -0.150028 -0.893262
v -0.095890 -0.053645 0.007828
vn -0.364677 -0.682837 -0.633043
v -0.065154 -0.091976 0.007828
vn -0.191740 -0.968017 0.161801
v 0.027397 -0.135029 0.052202
vn -0.287685 -0.629899 0.721432
v -0.095890 -0.105675 0.050439
vn 0.220342 0.869521 -0.442021
v 0.091015 0.090019 0.041096
vn 0.108791 0.488621 0.865687
v -0.007828 0.111546 0.050185
vn -0.173796 -0.867027 -0.466967
v 0.031311 -0.116947 0.015656
vn 0.425648 -0.036314 -0.904160
v 0.109589 0.015656 0.008278
vn -0.026094 0.036185 -0.999004
v -0.048923 0.072407 0.006986
vn 0.026657 0.637321 -0.770137
v -0.020518 0.093933 0.011742
vn -0.838596 0.535583 -0.099535
v -0.088062 0.097847 0.047986
vn 0.114838 -0.033862 0.992807
v 0.113503 -0.046967 0.054040
vn 0.020964 0.062846 0.997803
v 0.027397 0.095890 0.051651
vn -0.880142 0.142077 -0.452950
v -0.103718 -0.041096 0.019141
vn -0.161526 -0.490995 -0.856057
v -0.062622 -0.091976 0.006976
vn -0.885758 -0.342984 -0.312722
v -0.111546 -0.091976 0.047332
vn 0.375825 0.878951 -0.293600
v 0.108392 0.086466 0.046298
vn 0.047183 0.051060 0.997580
v 0.053494 0.089888 0.050948
vn 0.722839 -0.109551 0.682277
v 0.133072 0.025440 0.049880
vn 0.943062 0.148479 0.297636
v 0.135151 0.052406 0.048278
vn 0.182757 0.909040 0.374496
v -0.029354 0.117416 0.049392
vn 0.821196 0.541153 -0.181081
v 0.127201 0.070450 0.046100
vn 0.503420 0.592764 -0.628649
v 0.117416 0.079075 0.045010
vn 0.475635 0.263187 -0.839347
v 0.107553 0.035989 0.009556
vn 0.723903 0.311951 -0.615347
v 0.129791 0.062622 0.045010
vn -0.171903 -0.847988 -0.501364
v 0.033268 -0.115209 0.011742
vn 0.873167 -0.122929 -0.471665
v 0.133577 0.033268 0.045010
vn -0.298780 0.095438 -0.949538
v -0.076321 0.055935 0.007828
vn -0.034420 -0.138207 -0.989805
v -0.058708 -0.091976 0.006763
vn 0.101327 0.815878 -0.569277
v -0.026812 0.097847 0.015656
vn -0.118007 -0.732766 0.670170
v 0.019569 -0.133072 0.053466
vn -0.045034 -0.897153 0.439418
v 0.054794 -0.138943 0.052771
vn 0.289091 -0.532578 -0.795479
v 0.050198 -0.113503 0.013699
vn 0.442473 -0.601774 -0.664895
v 0.084148 -0.091980 0.013418
vn -0.214526 0.521581 0.825792
v -0.056751 0.117416 0.049604
vn 0.007506 0.014712 0.999864
v -0.103122 0.039139 0.054794
vn 0.544954 -0.377353 0.748752
v 0.093933 -0.121330 0.052013
vn 0.784967 -0.205281 0.584540
v 0.105675 -0.090019 0.051916
vn 0.016815 0.110568 0.993726
v -0.009727 0.107674 0.051358
vn -0.795842 0.133317 -0.590646
v -0.099804 -0.039139 0.012885
vn -0.894272 0.195198 -0.402710
v -0.099804 0.052355 0.045010
vn -0.563194 -0.476401 -0.675170
v -0.068493 -0.090870 0.009785
vn -0.880359 -0.015378 -0.474059
v -0.103718 -0.046605 0.017612
vn -0.218297 -0.621745 0.752183
v -0.078278 -0.111546 0.050968
vn -0.174266 -0.975330 0.135508
v 0.037182 -0.136986 0.051630
vn -0.418678 -0.894703 -0.155614
v -0.094086 -0.107668 0.048138
vn -0.301472 -0.878451 0.370727
v -0.088062 -0.109589 0.049480
vn 0.256584 0.912027 0.319955
v 0.097847 0.090019 0.046840
vn 0.061025 0.187215 0.980422
v 0.050302 0.095873 0.050774
vn 0.508959 0.469323 -0.721593
v 0.086105 0.066840 0.009785
vn -0.183695 -0.856700 -0.481996
v -0.061181 -0.093933 0.009785
vn 0.829350 -0.121559 -0.545345
v 0.111546 0.020232 0.009785
vn 0.899670 0.005591 -0.436535
v 0.135029 0.045010 0.046513
vn -0.154689 0.274254 -0.949134
v -0.050880 0.076321 0.007406
vn 0.082600 0.952303 -0.293761
v -0.041096 0.119373 0.048849
vn 0.081648 -0.405516 0.910434
v 0.064566 -0.138963 0.053115
vn 0.039461 -0.876050 -0.480603
v 0.057749 -0.138416 0.049598
vn 0.609882 -0.454261 -0.649377
v 0.086105 -0.088578 0.011742
vn 0.483329 -0.734367 -0.476548
v 0.082191 -0.131115 0.049475
vn -0.356772 0.933565 -0.034209
v -0.058708 0.117416 0.047839
vn 0.275788 -0.092006 0.956805
v 0.107632 -0.074364 0.053334
vn 0.965585 -0.260007 0.006481
v 0.105675 -0.091976 0.050140
vn 0.064506 0.299418 0.951939
v -0.017612 0.112172 0.050880
vn -0.639272 0.102796 -0.762079
v -0.095890 -0.035225 0.009854
vn -0.855897 -0.031385 0.516193
v -0.113503 -0.060665 0.051748
vn -0.932651 0.274121 -0.234565
v -0.091976 0.085775 0.046967
vn -0.747997 0.226478 -0.623866
v -0.076321 0.060665 0.008858
vn -0.981624 0.135442 -0.134423
v -0.111546 -0.001957 0.048090
vn -0.998452 -0.031484 -0.045846
v -0.114654 -0.060665 0.046967
vn -0.240414 -0.966761 0.087026
v -0.075328 -0.113298 0.050191
vn 0.129216 0.512355 0.848997
v 0.049442 0.098890 0.049627
vn 0.644035 0.453219 -0.616288
v 0.125249 0.070455 0.043860
vn 0.464193 0.457586 -0.758379
v 0.080235 0.069604 0.007828
vn -0.185140 0.550277 -0.814198
v -0.035225 0.093933 0.012870
vn -0.094344 0.354277 -0.930369
v -0.041096 0.082191 0.008386
vn -0.032143 0.191758 -0.980916
v -0.045010 0.078278 0.007431
vn -0.124486 0.982219 -0.140534
v -0.050621 0.119400 0.048965
vn 0.011702 0.489766 0.871775
v -0.045010 0.119373 0.050199
vn 0.887163 -0.232297 -0.398724
v 0.105675 -0.085138 0.045010
vn 0.810765 -0.226651 -0.539712
v 0.089058 -0.084148 0.013699
vn 0.572586 -0.609239 -0.548611
v 0.090019 -0.123287 0.048319
vn 0.438288 -0.839232 0.321859
v 0.076321 -0.135029 0.051949
vn 0.524911 -0.603795 0.599917
v 0.090019 -0.125244 0.052116
vn 0.812890 -0.303311 0.497205
v 0.099801 -0.109596 0.051789
vn -0.772692 -0.039268 -0.633565
v -0.099777 -0.050037 0.011672
vn -0.396690 -0.088154 0.913710
v -0.112082 -0.072099 0.051663
vn -0.973733 0.217857 -0.066193
v -0.103718 0.041072 0.050880
vn -0.535339 0.410060 -0.738419
v -0.075679 0.064579 0.009785
vn -0.959779 0.050507 0.276175
v -0.113503 -0.031311 0.049185
vn -0.926852 0.030410 -0.374193
v -0.109589 -0.045010 0.030815
vn -0.082803 -0.959375 0.269709
v 0.050893 -0.138941 0.051983
vn -0.510870 -0.644101 -0.569338
v -0.096173 -0.103718 0.044742
vn 0.978326 -0.145563 -0.147272
v 0.135029 0.033268 0.047876
vn -0.044132 0.759648 -0.648835
v -0.027719 0.097847 0.015656
vn -0.006764 0.349943 -0.936747
v -0.016408 0.090299 0.009842
vn 0.083597 0.404370 0.910767
v -0.029354 0.115459 0.050520
vn -0.073486 0.126855 0.989195
v -0.054794 0.117416 0.049757
vn 0.195104 -0.737947 -0.646040
v 0.045603 -0.117120 0.014896
vn 0.867243 -0.202608 -0.454796
v 0.126134 0.009785 0.041096
vn 0.141393 -0.969324 -0.201044
v 0.066536 -0.138943 0.051899
vn -0.434843 0.624800 0.648488
v -0.078566 0.105847 0.048177
vn 0.921338 -0.305066 -0.240980
v 0.101761 -0.104208 0.048923
vn 0.874675 -0.409402 -0.259486
v 0.097847 -0.115459 0.049749
vn -0.498539 0.727960 -0.470674
v -0.074154 0.109589 0.045010
vn -0.975003 0.010276 0.221953
v -0.114280 -0.056751 0.048923
vn -0.985484 0.057093 -0.159878
v -0.113498 -0.030866 0.045000
vn -0.174077 0.738761 -0.651099
v -0.035225 0.096837 0.015656
vn -0.619009 0.492154 -0.612057
v -0.084675 0.093933 0.041096
vn -0.922222 -0.106391 -0.371737
v -0.111823 -0.083170 0.045010
vn 0.834250 -0.263310 -0.484454
v 0.089758 -0.085818 0.015604
# 127 vertices, 0 vertices normals

f 12//12 5//5 34//34
f 13//13 3//3 8//8
f 14//14 8//8 3//3
f 21//21 11//11 6//6
f 35//35 4//4 12//12
f 24//24 1//1 10//10
f 25//25 14//14 5//5
f 25//25 8//8 14//14
f 26//26 14//14 3//3
f 103//103 6//6 11//11
f 103//103 11//11 17//17
f 29//29 11//11 73//73
f 30//30 4//4 7//7
f 32//32 19//19 18//18
f 87//87 20//20 11//11
f 87//87 10//10 1//1
f 63//63 19//19 10//10
f 34//34 5//5 22//22
f 66//66 35//35 12//12
f 66//66 30//30 7//7
f 36//36 37//37 12//12
f 36//36 12//12 4//4
f 37//37 2//2 12//12
f 37//37 16//16 2//2
f 39//39 12//12 2//2
f 40//40 5//5 12//12
f 40//40 12//12 89//89
f 42//42 2//2 16//16
f 43//43 13//13 1//1
f 43//43 1//1 24//24
f 43//43 24//24 10//10
f 43//43 32//32 13//13
f 43//43 19//19 32//32
f 45//45 26//26 18//18
f 46//46 26//26 3//3
f 46//46 18//18 26//26
f 46//46 32//32 18//18
f 46//46 3//3 13//13
f 46//46 13//13 32//32
f 112//112 27//27 5//5
f 112//112 5//5 14//14
f 47//47 22//22 5//5
f 47//47 5//5 27//27
f 48//48 11//11 20//20
f 50//50 13//13 8//8
f 53//53 17//17 11//11
f 53//53 11//11 29//29
f 53//53 29//29 4//4
f 53//53 30//30 17//17
f 53//53 4//4 30//30
f 55//55 36//36 4//4
f 56//56 30//30 66//66
f 56//56 17//17 30//30
f 58//58 57//57 31//31
f 59//59 33//33 18//18
f 59//59 18//18 19//19
f 59//59 19//19 33//33
f 60//60 31//31 57//57
f 61//61 11//11 21//21
f 62//62 87//87 1//1
f 62//62 20//20 87//87
f 62//62 48//48 20//20
f 63//63 21//21 6//6
f 64//64 21//21 63//63
f 64//64 63//63 10//10
f 64//64 10//10 87//87
f 64//64 61//61 21//21
f 35//35 7//7 4//4
f 35//35 66//66 7//7
f 65//65 88//88 12//12
f 65//65 12//12 34//34
f 65//65 34//34 22//22
f 65//65 22//22 38//38
f 66//66 12//12 88//88
f 89//89 12//12 39//39
f 67//67 89//89 41//41
f 41//41 42//42 16//16
f 41//41 89//89 42//42
f 41//41 16//16 25//25
f 41//41 25//25 5//5
f 68//68 43//43 10//10
f 68//68 10//10 19//19
f 68//68 19//19 43//43
f 69//69 25//25 16//16
f 70//70 16//16 37//37
f 70//70 69//69 16//16
f 70//70 44//44 69//69
f 71//71 45//45 9//9
f 71//71 26//26 45//45
f 72//72 38//38 22//22
f 72//72 22//22 47//47
f 73//73 11//11 48//48
f 73//73 48//48 49//49
f 74//74 1//1 13//13
f 75//75 50//50 8//8
f 75//75 51//51 50//50
f 76//76 50//50 51//51
f 118//118 28//28 17//17
f 118//118 17//17 52//52
f 78//78 29//29 73//73
f 78//78 55//55 4//4
f 78//78 4//4 29//29
f 101//101 78//78 54//54
f 101//101 55//55 78//78
f 79//79 36//36 55//55
f 79//79 55//55 101//101
f 81//81 45//45 18//18
f 81//81 57//57 9//9
f 81//81 9//9 45//45
f 82//82 103//103 17//17
f 83//83 17//17 28//28
f 84//84 9//9 57//57
f 84//84 57//57 58//58
f 84//84 58//58 83//83
f 85//85 58//58 31//31
f 102//102 18//18 33//33
f 102//102 33//33 60//60
f 102//102 60//60 57//57
f 86//86 33//33 82//82
f 87//87 11//11 61//61
f 108//108 62//62 1//1
f 109//109 19//19 63//63
f 109//109 6//6 33//33
f 109//109 33//33 19//19
f 87//87 61//61 64//64
f 88//88 65//65 38//38
f 88//88 38//38 23//23
f 88//88 80//80 66//66
f 88//88 23//23 80//80
f 89//89 67//67 40//40
f 90//90 5//5 40//40
f 90//90 40//40 67//67
f 90//90 67//67 41//41
f 90//90 41//41 5//5
f 2//2 89//89 39//39
f 2//2 42//42 89//89
f 92//92 71//71 91//91
f 93//93 14//14 26//26
f 93//93 26//26 71//71
f 93//93 71//71 92//92
f 94//94 77//77 52//52
f 95//95 38//38 72//72
f 95//95 94//94 52//52
f 95//95 72//72 94//94
f 95//95 23//23 38//38
f 95//95 17//17 56//56
f 95//95 56//56 80//80
f 115//115 50//50 76//76
f 97//97 75//75 8//8
f 97//97 8//8 25//25
f 97//97 25//25 69//69
f 98//98 76//76 51//51
f 98//98 51//51 75//75
f 98//98 75//75 15//15
f 98//98 15//15 76//76
f 100//100 76//76 15//15
f 100//100 15//15 54//54
f 100//100 99//99 76//76
f 100//100 73//73 99//99
f 100//100 78//78 73//73
f 100//100 54//54 78//78
f 101//101 54//54 15//15
f 56//56 66//66 80//80
f 102//102 81//81 18//18
f 102//102 57//57 81//81
f 103//103 82//82 33//33
f 103//103 33//33 6//6
f 104//104 83//83 58//58
f 104//104 17//17 83//83
f 104//104 85//85 17//17
f 104//104 58//58 85//85
f 105//105 84//84 83//83
f 105//105 83//83 28//28
f 105//105 91//91 71//71
f 105//105 71//71 9//9
f 105//105 9//9 84//84
f 106//106 82//82 17//17
f 106//106 17//17 85//85
f 107//107 85//85 31//31
f 107//107 31//31 60//60
f 107//107 86//86 123//123
f 108//108 49//49 48//48
f 108//108 48//48 62//62
f 109//109 63//63 6//6
f 110//110 44//44 70//70
f 110//110 70//70 37//37
f 110//110 37//37 36//36
f 110//110 36//36 79//79
f 110//110 79//79 96//96
f 111//111 47//47 27//27
f 111//111 27//27 91//91
f 111//111 94//94 72//72
f 111//111 72//72 47//47
f 112//112 92//92 91//91
f 112//112 91//91 27//27
f 112//112 93//93 92//92
f 112//112 14//14 93//93
f 113//113 95//95 80//80
f 113//113 80//80 23//23
f 113//113 23//23 95//95
f 114//114 95//95 52//52
f 114//114 52//52 17//17
f 114//114 17//17 95//95
f 115//115 74//74 13//13
f 115//115 13//13 50//50
f 116//116 69//69 44//44
f 116//116 110//110 96//96
f 116//116 44//44 110//110
f 117//117 99//99 73//73
f 117//117 108//108 1//1
f 117//117 1//1 74//74
f 117//117 73//73 49//49
f 117//117 49//49 108//108
f 117//117 74//74 115//115
f 117//117 115//115 76//76
f 117//117 76//76 99//99
f 118//118 52//52 77//77
f 119//119 79//79 101//101
f 119//119 96//96 79//79
f 120//120 101//101 15//15
f 120//120 15//15 75//75
f 120//120 119//119 101//101
f 121//121 28//28 118//118
f 121//121 91//91 105//105
f 121//121 118//118 77//77
f 122//122 106//106 86//86
f 122//122 86//86 82//82
f 122//122 82//82 106//106
f 123//123 106//106 85//85
f 123//123 86//86 106//106
f 123//123 85//85 107//107
f 126//126 107//107 60//60
f 126//126 33//33 86//86
f 126//126 86//86 107//107
f 124//124 111//111 91//91
f 124//124 121//121 77//77
f 124//124 91//91 121//121
f 124//124 77//77 94//94
f 124//124 94//94 111//111
f 127//127 97//97 69//69
f 127//127 69//69 116//116
f 127//127 116//116 96//96
f 125//125 121//121 105//105
f 125//125 105//105 28//28
f 125//125 28//28 121//121
f 126//126 60//60 33//33
f 127//127 96//96 119//119
f 127//127 119//119 120//120
f 127//127 120//120 75//75
f 127//127 75//75 97//97
# 250 faces, 0 coords texture

# End of File
