####
#
# OBJ File Generated by Meshlab
#
####
# Object nutrigrain_strawberry_greek_yogurt_250_collision.obj
#
# Vertices: 127
# Faces: 250
#
####
vn -0.619086 -0.560392 0.550176
v 0.039648 -0.010025 0.006314
vn -0.733316 0.679800 0.010909
v 0.078748 -0.077549 0.084883
vn 0.482988 0.875571 0.009955
v 0.050863 -0.090003 0.062381
vn 0.352961 -0.935635 0.002346
v -0.047476 0.078083 0.052801
vn 0.587913 0.451982 0.670873
v 0.006145 -0.033236 0.005287
vn 0.420148 0.346992 0.838494
v 0.001019 -0.019592 0.001817
vn 0.748670 0.616492 0.243783
v -0.002790 -0.026257 0.012029
vn 0.756675 0.653468 0.020555
v -0.013977 -0.016671 0.079847
vn 0.757357 0.652273 0.030810
v -0.005082 -0.026335 0.053492
vn 0.750667 0.660492 0.015755
v 0.015004 -0.051252 0.093484
vn 0.760708 0.649079 -0.004352
v -0.010702 -0.021618 0.112242
vn 0.433088 0.362588 -0.825206
v -0.010714 -0.010404 0.145471
vn 0.750334 0.535878 0.387083
v -0.063542 0.043885 0.006310
vn 0.709088 0.635105 0.306327
v -0.044164 0.020671 0.010278
vn 0.436178 0.406976 0.802570
v -0.028333 0.009691 0.001934
vn 0.089756 0.078612 0.992856
v -0.034463 0.031835 -0.000400
vn 0.710352 0.643677 0.284746
v -0.023735 -0.002341 0.010848
vn 0.082665 0.097299 0.991816
v -0.009670 0.004198 -0.000097
vn -0.047351 -0.022889 0.998616
v 0.000279 0.005711 -0.000442
vn -0.257798 -0.214993 0.941976
v 0.003711 0.019089 0.001240
vn 0.067145 -0.054090 0.996276
v -0.044312 0.049025 -0.000581
vn 0.400945 0.337339 0.851731
v -0.043943 0.027390 0.001837
vn -0.056690 -0.064366 0.996315
v -0.030951 0.044659 -0.000616
vn -0.624212 -0.506771 0.594595
v 0.002451 0.030228 0.005681
vn 0.931454 0.141648 0.335155
v -0.068765 0.052070 0.008536
vn 0.449371 -0.037120 0.892573
v -0.060949 0.052097 0.001709
vn 0.325256 -0.503434 0.800476
v -0.047909 0.073962 0.004000
vn 0.319190 -0.904234 0.283689
v -0.048141 0.077229 0.009854
vn 0.788201 -0.538637 0.297674
v -0.066662 0.060739 0.010209
vn -0.350605 -0.345845 0.870326
v -0.026379 0.057727 0.001495
vn -0.429614 -0.862251 0.268242
v -0.035666 0.078123 0.011099
vn -0.089444 -0.603744 0.792145
v -0.040224 0.074518 0.003232
vn -0.715285 -0.624568 0.313499
v -0.014899 0.053420 0.006959
vn 0.999416 -0.033304 0.007621
v -0.068531 0.054185 0.034076
vn 0.858760 0.512268 0.010642
v -0.064035 0.043832 0.035221
vn 0.767203 0.640983 0.023241
v -0.051372 0.027941 0.039320
vn 0.753692 0.656332 0.034297
v -0.029547 0.002532 0.041369
vn -0.765839 -0.642697 0.020773
v 0.006647 0.030450 0.041000
vn 0.763669 0.645331 0.018909
v -0.039001 0.011725 0.072089
vn 0.819177 -0.573494 0.007267
v -0.065553 0.062362 0.050451
vn -0.520330 -0.853965 0.000776
v -0.033924 0.076285 0.047802
vn -0.208527 -0.977988 0.007512
v -0.036420 0.078703 0.083325
vn -0.746313 -0.665473 0.012765
v -0.026209 0.068065 0.041288
vn 0.970375 0.241246 0.013123
v -0.068571 0.051729 0.054536
vn 0.817623 0.575648 0.011055
v -0.064942 0.044225 0.079050
vn 0.914936 0.400431 -0.050460
v -0.067416 0.047072 0.125183
vn 0.656778 0.156239 -0.737721
v -0.065860 0.049780 0.142706
vn 0.732441 0.621702 -0.277518
v -0.014833 -0.015446 0.136655
vn 0.768051 0.639970 -0.023162
v -0.040211 0.012637 0.119696
vn 0.686291 0.563573 -0.459772
v -0.047097 0.023599 0.139480
vn -0.752201 -0.658852 -0.010369
v 0.004680 0.034035 0.111345
vn 0.951531 -0.307549 -0.001654
v -0.068421 0.057991 0.072936
vn 0.445479 -0.895270 -0.006380
v -0.050507 0.075749 0.091643
vn 0.990251 -0.139292 0.001300
v -0.068624 0.055397 0.095604
vn 0.910133 -0.378376 -0.168786
v -0.068987 0.059548 0.129170
vn 0.761572 -0.648080 0.000575
v -0.064783 0.063199 0.090670
vn -0.503969 -0.862477 -0.046350
v -0.035520 0.078405 0.123890
vn -0.744006 -0.668152 0.005295
v -0.005768 0.045580 0.080030
vn 0.430063 -0.896006 -0.110537
v -0.047240 0.077779 0.135882
vn -0.679416 -0.607447 -0.411584
v -0.016407 0.056351 0.138313
vn 0.147547 0.107463 -0.983200
v -0.030571 0.024255 0.148604
vn -0.089821 -0.049178 -0.994743
v 0.011352 0.000559 0.148915
vn -0.298323 -0.256205 -0.919436
v 0.002948 0.017870 0.148583
vn -0.358249 -0.282391 -0.889895
v -0.011683 0.038549 0.146816
vn -0.205316 -0.836534 -0.507992
v -0.041874 0.078168 0.142338
vn -0.230545 -0.253567 -0.939443
v -0.027332 0.057788 0.148126
vn 0.431430 -0.515173 -0.740584
v -0.048485 0.070836 0.147101
vn 0.552125 0.567569 0.610756
v 0.043824 -0.075546 0.004479
vn 0.316729 0.887142 0.335652
v 0.054467 -0.089670 0.008894
vn 0.022206 0.327427 0.944615
v 0.059953 -0.080973 0.001504
vn -0.001129 0.062453 0.998047
v 0.055000 -0.061076 -0.000688
vn -0.397974 0.775446 0.490205
v 0.064096 -0.089218 0.007491
vn -0.628193 0.084143 0.773495
v 0.079752 -0.066212 0.002984
vn 0.310970 0.297237 0.902745
v 0.038507 -0.063518 0.001177
vn 0.207136 0.156345 0.965739
v 0.015357 -0.033352 0.000483
vn 0.699831 0.614789 0.363692
v 0.024637 -0.057193 0.007284
vn 0.063265 0.045020 0.996981
v 0.033539 -0.045581 -0.000583
vn -0.199994 -0.087750 0.975860
v 0.062413 -0.056691 -0.000056
vn -0.081759 -0.073435 0.993943
v 0.047422 -0.041350 -0.000718
vn -0.430074 -0.375134 0.821165
v 0.050887 -0.027397 0.002236
vn 0.006814 0.009543 0.999931
v 0.010671 -0.007706 -0.000019
vn -0.110819 -0.125421 0.985895
v 0.028933 -0.018681 0.000113
vn -0.763015 -0.628423 0.151304
v 0.055547 -0.027689 0.010771
vn -0.671746 -0.499273 0.547252
v 0.076630 -0.055166 0.005418
vn -0.889758 -0.416054 0.187697
v 0.083238 -0.059993 0.012765
vn -0.032214 0.999322 0.017847
v 0.058644 -0.091483 0.059431
vn 0.563084 0.825198 0.044550
v 0.050659 -0.088897 0.028464
vn -0.218317 0.975819 0.010684
v 0.062675 -0.091339 0.093951
vn -0.448592 0.893555 0.018027
v 0.064673 -0.089524 0.041583
vn -0.916084 0.371429 0.151097
v 0.084003 -0.070909 0.015201
vn -0.856951 0.515385 0.003631
v 0.083153 -0.072663 0.062470
vn -0.544080 0.838924 0.013572
v 0.065352 -0.089284 0.065642
vn 0.740230 0.663652 0.107825
v 0.031573 -0.066384 0.017942
vn 0.755436 0.653691 0.044785
v 0.004904 -0.037052 0.038264
vn -0.759228 -0.645583 0.082430
v 0.065917 -0.040211 0.015795
vn -0.780219 -0.625502 -0.002115
v 0.062937 -0.035830 0.046464
vn -0.951813 -0.306648 -0.004276
v 0.084034 -0.062503 0.045448
vn 0.546527 0.837429 0.004569
v 0.049702 -0.089479 0.109564
vn 0.076874 0.964699 -0.251887
v 0.056819 -0.092818 0.137394
vn 0.544242 0.705333 -0.454209
v 0.044556 -0.084103 0.141626
vn -0.867008 -0.498233 0.007777
v 0.082709 -0.060145 0.083107
vn -0.992571 0.121620 0.003416
v 0.084672 -0.067906 0.088642
vn -0.916280 0.400414 0.009977
v 0.083748 -0.073342 0.117864
vn -0.781140 0.526084 -0.336238
v 0.081195 -0.076434 0.138565
vn 0.752819 0.657632 0.027984
v 0.013609 -0.048621 0.070044
vn -0.783010 -0.621990 0.004871
v 0.064446 -0.038088 0.091525
vn -0.771336 -0.636244 -0.015300
v 0.045880 -0.014294 0.110914
vn -0.778689 -0.627399 0.003799
v 0.071071 -0.047224 0.067377
vn -0.928799 -0.370349 0.013175
v 0.083823 -0.062150 0.115573
vn -0.969477 -0.157727 -0.187713
v 0.084998 -0.062800 0.133262
vn -0.742608 -0.597340 -0.302852
v 0.071419 -0.046426 0.134919
vn 0.216285 0.264967 -0.939688
v 0.041107 -0.070951 0.149225
vn -0.553025 0.818787 -0.154116
v 0.065525 -0.090015 0.134511
vn -0.180460 0.624360 -0.760005
v 0.059855 -0.087037 0.144782
vn -0.564905 -0.046157 -0.823864
v 0.080904 -0.069690 0.143604
vn 0.722669 0.604141 -0.335802
v 0.012478 -0.048539 0.136836
vn 0.247977 0.185936 -0.950755
v 0.020101 -0.040922 0.148545
vn -0.721467 -0.590463 -0.361715
v 0.046042 -0.016467 0.137148
vn -0.354278 -0.261496 -0.897835
v 0.057423 -0.045548 0.145502
vn -0.347359 -0.292402 0.890978
v 0.023045 -0.000848 0.001699
vn -0.743328 -0.628515 0.228980
v 0.015447 0.017651 0.011265
vn -0.762802 -0.646372 0.018336
v 0.041271 -0.009036 0.053786
vn -0.757604 -0.652375 0.021042
v 0.020053 0.015382 0.062817
vn -0.767774 -0.622247 0.152747
v 0.007057 0.029504 0.015911
vn -0.759092 -0.650984 0.000060
v 0.028181 0.006617 0.096404
vn -0.755516 -0.648659 -0.091855
v 0.018557 0.017354 0.125939
vn -0.577993 -0.465643 -0.670149
v 0.024384 0.004746 0.143253
# 127 vertices, 0 vertices normals

f 5//5 75//75 6//6
f 17//17 7//7 6//6
f 6//6 15//15 17//17
f 7//7 5//5 6//6
f 7//7 76//76 5//5
f 94//94 76//76 7//7
f 9//9 94//94 7//7
f 37//37 9//9 7//7
f 7//7 17//17 37//37
f 105//105 94//94 9//9
f 8//8 9//9 37//37
f 39//39 8//8 37//37
f 105//105 9//9 8//8
f 105//105 8//8 10//10
f 11//11 10//10 8//8
f 48//48 116//116 11//11
f 12//12 116//116 48//48
f 12//12 117//117 116//116
f 117//117 12//12 62//62
f 22//22 26//26 13//13
f 13//13 14//14 22//22
f 25//25 13//13 26//26
f 36//36 14//14 13//13
f 13//13 25//25 35//35
f 35//35 25//25 34//34
f 17//17 15//15 14//14
f 15//15 16//16 22//22
f 17//17 14//14 36//36
f 15//15 6//6 18//18
f 18//18 6//6 81//81
f 18//18 81//81 19//19
f 16//16 15//15 18//18
f 16//16 18//18 19//19
f 23//23 19//19 20//20
f 21//21 26//26 22//22
f 16//16 21//21 22//22
f 15//15 22//22 14//14
f 16//16 19//19 23//23
f 21//21 16//16 23//23
f 20//20 30//30 23//23
f 30//30 20//20 24//24
f 24//24 33//33 30//30
f 121//121 124//124 24//24
f 24//24 124//124 33//33
f 25//25 26//26 29//29
f 29//29 26//26 27//27
f 26//26 21//21 27//27
f 29//29 27//27 28//28
f 29//29 34//34 25//25
f 21//21 23//23 30//30
f 30//30 32//32 21//21
f 31//31 30//30 33//33
f 27//27 21//21 32//32
f 32//32 30//30 31//31
f 28//28 27//27 32//32
f 28//28 32//32 31//31
f 33//33 43//43 31//31
f 43//43 41//41 31//31
f 13//13 35//35 36//36
f 44//44 35//35 34//34
f 45//45 35//35 44//44
f 45//45 36//36 35//35
f 45//45 39//39 36//36
f 37//37 17//17 36//36
f 39//39 37//37 36//36
f 38//38 33//33 124//124
f 43//43 38//38 58//58
f 58//58 38//38 123//123
f 40//40 34//34 29//29
f 40//40 29//29 4//4
f 4//4 29//29 28//28
f 44//44 34//34 52//52
f 40//40 52//52 34//34
f 56//56 52//52 40//40
f 4//4 56//56 40//40
f 56//56 4//4 53//53
f 28//28 31//31 4//4
f 43//43 33//33 38//38
f 41//41 4//4 31//31
f 42//42 4//4 41//41
f 58//58 41//41 43//43
f 41//41 58//58 42//42
f 39//39 45//45 49//49
f 45//45 44//44 46//46
f 49//49 45//45 46//46
f 50//50 49//49 46//46
f 8//8 39//39 49//49
f 49//49 11//11 8//8
f 48//48 11//11 49//49
f 51//51 58//58 123//123
f 50//50 48//48 49//49
f 126//126 60//60 51//51
f 44//44 52//52 54//54
f 54//54 52//52 56//56
f 46//46 44//44 54//54
f 46//46 54//54 55//55
f 54//54 56//56 55//55
f 56//56 53//53 59//59
f 55//55 47//47 46//46
f 55//55 56//56 59//59
f 57//57 42//42 58//58
f 57//57 58//58 51//51
f 53//53 4//4 42//42
f 60//60 57//57 51//51
f 42//42 59//59 53//53
f 59//59 42//42 57//57
f 65//65 59//59 57//57
f 47//47 50//50 46//46
f 48//48 50//50 12//12
f 61//61 12//12 50//50
f 62//62 12//12 61//61
f 63//63 62//62 61//61
f 63//63 61//61 64//64
f 50//50 47//47 61//61
f 66//66 64//64 61//61
f 47//47 66//66 61//61
f 64//64 60//60 63//63
f 55//55 67//67 47//47
f 66//66 47//47 67//67
f 67//67 55//55 59//59
f 67//67 59//59 65//65
f 66//66 67//67 65//65
f 60//60 65//65 57//57
f 66//66 65//65 60//60
f 66//66 60//60 64//64
f 93//93 68//68 76//76
f 69//69 72//72 70//70
f 68//68 69//69 70//70
f 70//70 74//74 68//68
f 70//70 71//71 74//74
f 74//74 76//76 68//68
f 71//71 70//70 78//78
f 93//93 69//69 68//68
f 93//93 87//87 69//69
f 78//78 70//70 73//73
f 72//72 73//73 70//70
f 90//90 73//73 72//72
f 85//85 73//73 90//90
f 85//85 90//90 97//97
f 76//76 74//74 5//5
f 74//74 77//77 75//75
f 74//74 75//75 5//5
f 77//77 74//74 71//71
f 77//77 71//71 79//79
f 79//79 71//71 78//78
f 82//82 77//77 79//79
f 79//79 78//78 80//80
f 78//78 84//84 80//80
f 80//80 84//84 83//83
f 77//77 82//82 75//75
f 75//75 81//81 6//6
f 82//82 81//81 75//75
f 82//82 79//79 80//80
f 82//82 80//80 1//1
f 83//83 1//1 80//80
f 83//83 122//122 1//1
f 73//73 84//84 78//78
f 85//85 95//95 84//84
f 84//84 73//73 85//85
f 83//83 84//84 95//95
f 89//89 72//72 69//69
f 3//3 87//87 105//105
f 86//86 69//69 87//87
f 89//89 69//69 86//86
f 92//92 89//89 86//86
f 87//87 93//93 105//105
f 86//86 87//87 3//3
f 92//92 86//86 88//88
f 90//90 72//72 89//89
f 91//91 90//90 89//89
f 97//97 90//90 91//91
f 91//91 102//102 97//97
f 91//91 89//89 92//92
f 92//92 2//2 91//91
f 102//102 101//101 97//97
f 93//93 76//76 94//94
f 94//94 105//105 93//93
f 95//95 96//96 83//83
f 122//122 83//83 96//96
f 108//108 106//106 96//96
f 106//106 122//122 96//96
f 107//107 122//122 106//106
f 85//85 97//97 96//96
f 95//95 85//85 96//96
f 108//108 96//96 97//97
f 108//108 97//97 101//101
f 3//3 88//88 86//86
f 88//88 3//3 98//98
f 98//98 99//99 88//88
f 3//3 10//10 98//98
f 113//113 88//88 99//99
f 116//116 100//100 98//98
f 99//99 98//98 100//100
f 2//2 92//92 88//88
f 102//102 91//91 2//2
f 102//102 2//2 103//103
f 2//2 88//88 113//113
f 113//113 103//103 2//2
f 101//101 102//102 109//109
f 109//109 102//102 103//103
f 103//103 113//113 104//104
f 109//109 103//103 110//110
f 110//110 103//103 104//104
f 3//3 105//105 10//10
f 125//125 122//122 107//107
f 98//98 10//10 116//116
f 10//10 11//11 116//116
f 111//111 107//107 106//106
f 118//118 107//107 111//111
f 106//106 108//108 101//101
f 109//109 106//106 101//101
f 106//106 109//109 111//111
f 110//110 111//111 109//109
f 113//113 99//99 114//114
f 100//100 116//116 112//112
f 114//114 99//99 100//100
f 114//114 104//104 113//113
f 114//114 100//100 112//112
f 115//115 114//114 112//112
f 114//114 115//115 104//104
f 112//112 119//119 115//115
f 110//110 104//104 115//115
f 117//117 112//112 116//116
f 119//119 112//112 117//117
f 119//119 117//117 62//62
f 62//62 127//127 119//119
f 127//127 118//118 119//119
f 115//115 119//119 111//111
f 111//111 110//110 115//115
f 119//119 118//118 111//111
f 120//120 19//19 81//81
f 81//81 82//82 120//120
f 19//19 120//120 20//20
f 120//120 24//24 20//20
f 120//120 121//121 24//24
f 120//120 82//82 1//1
f 1//1 121//121 120//120
f 121//121 1//1 122//122
f 121//121 122//122 123//123
f 38//38 121//121 123//123
f 38//38 124//124 121//121
f 122//122 125//125 123//123
f 125//125 51//51 123//123
f 107//107 126//126 125//125
f 51//51 125//125 126//126
f 126//126 107//107 118//118
f 127//127 126//126 118//118
f 127//127 60//60 126//126
f 62//62 63//63 127//127
f 127//127 63//63 60//60
# 250 faces, 0 coords texture

# End of File
