####
#
# OBJ File Generated by Meshlab
#
####
# Object clif_z_bar_chocolate_chip_250_collision.obj
#
# Vertices: 127
# Faces: 250
#
####
vn -0.543101 0.234820 0.806165
v 0.001579 -0.067294 0.002929
vn -0.672690 0.667170 0.319957
v 0.001126 -0.080721 0.010659
vn -0.340440 0.087911 0.936147
v 0.004062 -0.036127 0.000354
vn -0.057195 0.010003 0.998313
v 0.000752 -0.015520 -0.000935
vn -0.183207 0.021683 0.982835
v 0.007718 0.003388 -0.000453
vn -0.825762 0.179622 0.534652
v 0.016657 -0.010667 0.005656
vn -0.968828 0.237606 0.070110
v 0.026434 0.015203 0.028742
vn 0.308902 -0.103698 -0.945424
v 0.001889 0.037213 0.138573
vn -0.021237 0.940978 0.337801
v -0.007471 -0.084554 0.012330
vn -0.183224 0.983067 0.002727
v -0.005915 -0.084604 0.035956
vn 0.521430 0.797804 0.302687
v -0.032026 -0.078641 0.011985
vn 0.837829 0.126565 0.531060
v -0.037191 -0.068464 0.008350
vn 0.372220 0.227970 0.899712
v -0.030203 -0.069445 0.002545
vn 0.181690 0.553053 0.813094
v -0.020755 -0.075464 0.002127
vn -0.198401 0.520514 0.830483
v -0.006509 -0.078455 0.002981
vn 0.165871 0.020830 0.985928
v -0.020058 -0.057367 0.000093
vn -0.025149 0.084564 0.996101
v -0.011659 -0.057262 -0.000421
vn 0.487310 -0.092342 0.868333
v -0.028540 -0.051178 0.002735
vn 0.889027 -0.238941 0.390562
v -0.030027 -0.039744 0.006841
vn 0.175995 -0.029470 0.983950
v -0.013086 -0.034749 -0.000676
vn -0.000662 0.004773 0.999988
v -0.006265 -0.025245 -0.001088
vn 0.565842 -0.152366 0.810313
v -0.020538 -0.023189 0.002296
vn 0.981423 0.181169 0.063136
v -0.039579 -0.068609 0.021892
vn 0.169197 0.985582 0.000221
v -0.012092 -0.084352 0.063475
vn -0.467261 0.883814 0.023218
v -0.002784 -0.084193 0.060346
vn 0.989475 0.144703 -0.000933
v -0.039548 -0.068554 0.061346
vn 0.532152 0.846648 0.000895
v -0.030373 -0.079265 0.039676
vn 0.967527 -0.249622 0.039763
v -0.029096 -0.031382 0.036877
vn 0.928747 -0.238880 0.283486
v -0.024808 -0.016535 0.011519
vn 0.971327 -0.234857 0.036958
v -0.019633 0.005097 0.028043
vn 0.969446 -0.243973 0.025521
v -0.028314 -0.023757 0.051761
vn -0.700252 0.713800 0.011699
v 0.002486 -0.080300 0.086819
vn -0.134425 0.990924 -0.000412
v -0.005970 -0.084865 0.089872
vn 0.633667 0.773565 -0.007999
v -0.031498 -0.078319 0.071449
vn 0.983562 0.178703 -0.025899
v -0.038954 -0.067438 0.082660
vn 0.404634 0.914368 -0.014252
v -0.029191 -0.079191 0.095637
vn 0.862056 0.506014 -0.028449
v -0.036602 -0.072712 0.100430
vn 0.013669 0.970301 -0.241513
v -0.008577 -0.084869 0.127394
vn 0.537654 0.648814 -0.538487
v -0.030416 -0.077647 0.133902
vn 0.915793 0.061303 -0.396945
v -0.036404 -0.069208 0.130567
vn 0.968508 -0.248193 -0.019838
v -0.030693 -0.034456 0.082075
vn 0.966926 -0.253507 -0.028072
v -0.024572 -0.012890 0.097869
vn 0.967458 -0.252432 -0.017397
v -0.025338 -0.013138 0.073396
vn 0.991860 -0.113141 -0.058419
v -0.037377 -0.063827 0.111752
vn 0.963548 -0.257646 -0.072065
v -0.028287 -0.028589 0.114525
vn -0.610345 0.662163 -0.434763
v 0.001501 -0.081174 0.132976
vn -0.091924 0.325365 -0.941110
v -0.005659 -0.074933 0.139884
vn 0.485066 -0.055935 -0.872687
v -0.025381 -0.048545 0.136984
vn 0.346457 -0.100664 -0.932649
v -0.015988 -0.028602 0.140036
vn 0.854608 -0.223404 -0.468759
v -0.027403 -0.030406 0.129795
vn 0.450853 -0.131148 -0.882911
v -0.015149 -0.013776 0.137565
vn 0.232188 -0.061858 0.970702
v -0.008536 0.003562 0.000169
vn 0.703123 -0.159076 0.693046
v -0.013889 0.010367 0.003282
vn 0.928712 -0.215136 0.302011
v -0.016390 0.016705 0.010192
vn 0.640366 -0.151736 0.752933
v -0.007997 0.037079 0.003211
vn 0.958824 -0.216051 0.184331
v -0.010858 0.042159 0.011140
vn 0.885962 -0.409850 0.217011
v -0.004335 0.073799 0.011678
vn 0.970441 -0.241161 0.009210
v -0.017834 0.016229 0.050295
vn 0.970301 -0.241662 -0.010725
v -0.010121 0.048268 0.056965
vn 0.907763 -0.419410 -0.007852
v -0.004057 0.072712 0.033000
vn 0.968431 -0.247416 -0.030452
v -0.014884 0.025646 0.088452
vn 0.965408 -0.254068 -0.058620
v -0.008859 0.047909 0.102945
vn 0.965782 -0.229915 -0.120022
v -0.018141 0.009752 0.113701
vn 0.961067 -0.222202 -0.164247
v -0.012402 0.028495 0.124538
vn 0.817602 -0.207580 -0.537063
v -0.009850 0.027286 0.132689
vn 0.843705 -0.232895 -0.483654
v -0.002173 0.062730 0.130448
vn 0.892664 -0.450020 -0.025154
v -0.002771 0.074202 0.076785
vn 0.734934 -0.677461 -0.030308
v 0.000265 0.078614 0.098994
vn 0.819756 -0.505772 -0.268691
v 0.000024 0.076300 0.126160
vn -0.760429 0.174865 0.625436
v 0.008574 -0.045280 0.004793
vn -0.896133 0.301160 0.325958
v 0.004670 -0.073402 0.010757
vn -0.946388 0.208627 0.246627
v 0.012916 -0.037930 0.009733
vn -0.395129 0.081285 0.915022
v 0.010685 -0.010078 0.000566
vn -0.970125 0.209819 0.121789
v 0.016766 -0.021143 0.013064
vn -0.863291 0.503906 0.028405
v 0.004729 -0.075536 0.049642
vn -0.891712 0.452125 0.020795
v 0.004917 -0.073986 0.026048
vn -0.963589 0.263857 0.043299
v 0.011239 -0.054448 0.045833
vn -0.967388 0.223624 0.118968
v 0.021011 -0.006493 0.021159
vn -0.970134 0.236122 0.055564
v 0.019470 -0.020400 0.043902
vn -0.968703 0.247020 0.024418
v 0.016731 -0.037516 0.078447
vn -0.970514 0.239853 0.023951
v 0.022279 -0.014280 0.087799
vn -0.912503 0.408689 0.017635
v 0.006942 -0.072741 0.089672
vn -0.625340 0.780342 -0.003885
v 0.000872 -0.082402 0.111533
vn -0.925480 0.373623 -0.062394
v 0.008436 -0.071693 0.123230
vn -0.969851 0.243284 -0.014172
v 0.019056 -0.029577 0.115752
vn -0.844393 0.228191 -0.484695
v 0.016188 -0.037018 0.131977
vn -0.965578 0.252809 -0.061211
v 0.028951 0.008291 0.121374
vn -0.193768 0.011114 -0.980984
v 0.007311 -0.024361 0.140605
vn -0.668040 0.176784 -0.722821
v 0.022703 -0.003429 0.134246
vn -0.564516 0.127287 0.815548
v 0.017883 0.006455 0.002933
vn -0.919309 0.236828 0.314299
v 0.026310 0.018655 0.010458
vn -0.090839 0.016794 0.995724
v 0.009539 0.029975 -0.000459
vn -0.297772 0.066362 0.952328
v 0.018708 0.025551 0.001548
vn -0.630860 0.146180 0.762002
v 0.029265 0.040994 0.004482
vn 0.117655 -0.037425 0.992349
v 0.001538 0.025047 -0.000560
vn -0.956608 0.211767 0.200140
v 0.033847 0.047800 0.010690
vn -0.227427 0.026538 0.973434
v 0.021742 0.057115 -0.000050
vn 0.023004 -0.103751 0.994337
v 0.013199 0.064638 -0.000383
vn 0.496993 -0.301677 0.813627
v 0.000154 0.074010 0.003609
vn -0.265849 -0.360416 0.894105
v 0.029077 0.072954 0.002151
vn 0.434629 -0.808959 0.395832
v 0.002909 0.082086 0.008162
vn -0.381903 -0.883803 0.270265
v 0.026234 0.079301 0.009358
vn -0.808002 -0.210601 0.550254
v 0.035802 0.067988 0.005502
vn -0.902516 -0.353859 0.245455
v 0.037631 0.069836 0.010816
vn -0.622389 -0.770737 0.136370
v 0.033630 0.076384 0.014522
vn -0.968981 0.241847 0.050859
v 0.029665 0.017021 0.059820
vn -0.973754 0.221559 0.052105
v 0.035664 0.039972 0.062973
vn -0.423245 -0.905912 0.013716
v 0.029326 0.078574 0.027664
vn -0.786477 -0.617466 0.013797
v 0.035804 0.074202 0.029408
vn -0.746084 -0.664881 0.035947
v 0.035959 0.076208 0.074121
vn 0.426442 -0.904393 0.014850
v 0.002787 0.082824 0.024514
vn -0.111270 -0.993647 0.016891
v 0.012590 0.083150 0.048553
vn 0.453881 -0.890958 -0.013662
v 0.003715 0.082390 0.054024
vn -0.343223 -0.939091 0.017477
v 0.031316 0.079293 0.083048
vn -0.991742 -0.119927 0.045440
v 0.039788 0.065418 0.045974
vn -0.973961 0.225775 0.020640
v 0.036092 0.037185 0.101835
vn 0.107473 -0.994173 0.008395
v 0.011682 0.084002 0.097266
vn -0.990548 -0.132228 0.036476
v 0.041681 0.066815 0.090110
vn 0.069952 -0.977770 -0.197667
v 0.012585 0.084956 0.128001
vn -0.964920 -0.092690 -0.245637
v 0.042681 0.066810 0.127572
vn -0.674877 -0.731127 -0.099971
v 0.038478 0.075973 0.123174
vn 0.178521 -0.041662 -0.983054
v -0.007198 0.003896 0.139587
vn -0.345032 0.075254 -0.935569
v 0.023006 0.018854 0.139971
vn -0.340640 0.012912 -0.940105
v 0.025870 0.037685 0.138371
vn -0.872501 0.182664 -0.453184
v 0.035451 0.033362 0.128237
vn 0.305521 -0.402597 -0.862886
v 0.011977 0.077941 0.139376
vn -0.562445 -0.408426 -0.718919
v 0.033550 0.074170 0.136038
# 127 vertices, 0 vertices normals

f 9//9 2//2 15//15
f 18//18 12//12 13//13
f 12//12 11//11 13//13
f 14//14 13//13 11//11
f 11//11 12//12 23//23
f 12//12 19//19 23//23
f 2//2 1//1 15//15
f 17//17 16//16 13//13
f 13//13 14//14 17//17
f 16//16 18//18 13//13
f 15//15 17//17 14//14
f 1//1 17//17 15//15
f 9//9 15//15 14//14
f 9//9 14//14 11//11
f 10//10 9//9 11//11
f 12//12 18//18 19//19
f 19//19 29//29 28//28
f 16//16 17//17 20//20
f 20//20 22//22 18//18
f 18//18 16//16 20//20
f 18//18 22//22 19//19
f 21//21 20//20 17//17
f 3//3 21//21 17//17
f 17//17 1//1 3//3
f 20//20 52//52 22//22
f 21//21 52//52 20//20
f 21//21 3//3 4//4
f 52//52 53//53 22//22
f 52//52 21//21 4//4
f 52//52 4//4 95//95
f 19//19 22//22 29//29
f 53//53 29//29 22//22
f 10//10 2//2 9//9
f 24//24 10//10 27//27
f 25//25 10//10 24//24
f 23//23 27//27 11//11
f 27//27 23//23 26//26
f 10//10 11//11 27//27
f 34//34 27//27 26//26
f 24//24 27//27 34//34
f 24//24 34//34 36//36
f 23//23 19//19 28//28
f 26//26 23//23 28//28
f 29//29 30//30 28//28
f 30//30 31//31 28//28
f 31//31 26//26 28//28
f 35//35 26//26 41//41
f 26//26 31//31 41//41
f 43//43 41//41 31//31
f 43//43 31//31 58//58
f 33//33 24//24 36//36
f 25//25 24//24 33//33
f 32//32 25//25 33//33
f 33//33 36//36 38//38
f 34//34 26//26 35//35
f 36//36 34//34 37//37
f 35//35 37//37 34//34
f 37//37 35//35 44//44
f 32//32 33//33 83//83
f 38//38 83//83 33//33
f 38//38 46//46 83//83
f 36//36 37//37 39//39
f 39//39 37//37 40//40
f 40//40 37//37 44//44
f 40//40 44//44 50//50
f 39//39 38//38 36//36
f 41//41 44//44 35//35
f 41//41 42//42 45//45
f 42//42 41//41 43//43
f 43//43 58//58 61//61
f 44//44 41//41 45//45
f 50//50 44//44 45//45
f 45//45 42//42 63//63
f 50//50 45//45 65//65
f 40//40 48//48 39//39
f 47//47 38//38 39//39
f 47//47 46//46 38//38
f 48//48 47//47 39//39
f 48//48 40//40 50//50
f 47//47 48//48 49//49
f 49//49 88//88 47//47
f 49//49 48//48 50//50
f 88//88 49//49 51//51
f 51//51 49//49 50//50
f 65//65 51//51 50//50
f 122//122 88//88 51//51
f 55//55 53//53 52//52
f 95//95 55//55 52//52
f 29//29 53//53 54//54
f 29//29 54//54 30//30
f 55//55 54//54 53//53
f 99//99 55//55 95//95
f 56//56 54//54 55//55
f 55//55 99//99 56//56
f 57//57 56//56 99//99
f 56//56 57//57 60//60
f 101//101 57//57 99//99
f 60//60 57//57 101//101
f 30//30 54//54 56//56
f 31//31 30//30 58//58
f 30//30 56//56 58//58
f 58//58 56//56 59//59
f 56//56 60//60 59//59
f 58//58 59//59 61//61
f 61//61 59//59 62//62
f 111//111 60//60 101//101
f 67//67 59//59 60//60
f 60//60 111//111 67//67
f 67//67 111//111 113//113
f 67//67 62//62 59//59
f 67//67 113//113 68//68
f 42//42 43//43 61//61
f 63//63 42//42 61//61
f 64//64 61//61 62//62
f 65//65 45//45 63//63
f 65//65 63//63 64//64
f 63//63 61//61 64//64
f 65//65 64//64 66//66
f 64//64 62//62 66//66
f 66//66 62//62 69//69
f 62//62 67//67 68//68
f 62//62 68//68 69//69
f 51//51 65//65 122//122
f 8//8 122//122 65//65
f 8//8 65//65 66//66
f 71//71 1//1 2//2
f 70//70 1//1 71//71
f 1//1 70//70 3//3
f 72//72 70//70 71//71
f 70//70 6//6 3//3
f 4//4 3//3 73//73
f 6//6 73//73 3//3
f 5//5 95//95 4//4
f 4//4 73//73 5//5
f 5//5 73//73 90//90
f 6//6 90//90 73//73
f 70//70 72//72 6//6
f 6//6 72//72 74//74
f 74//74 78//78 6//6
f 71//71 2//2 76//76
f 10//10 76//76 2//2
f 10//10 25//25 76//76
f 25//25 75//75 76//76
f 77//77 76//76 75//75
f 75//75 25//25 32//32
f 82//82 75//75 32//32
f 77//77 75//75 82//82
f 72//72 71//71 76//76
f 74//74 72//72 76//76
f 76//76 77//77 74//74
f 77//77 79//79 74//74
f 80//80 79//79 77//77
f 78//78 74//74 79//79
f 106//106 78//78 79//79
f 81//81 79//79 80//80
f 106//106 79//79 81//81
f 82//82 80//80 77//77
f 82//82 84//84 80//80
f 82//82 32//32 83//83
f 84//84 82//82 83//83
f 46//46 84//84 83//83
f 80//80 84//84 85//85
f 85//85 81//81 80//80
f 84//84 86//86 85//85
f 81//81 85//85 87//87
f 86//86 87//87 85//85
f 89//89 87//87 86//86
f 86//86 84//84 46//46
f 86//86 46//46 47//47
f 88//88 86//86 47//47
f 89//89 86//86 88//88
f 122//122 89//89 88//88
f 123//123 89//89 122//122
f 95//95 5//5 92//92
f 93//93 92//92 5//5
f 5//5 90//90 93//93
f 94//94 93//93 90//90
f 6//6 91//91 90//90
f 78//78 91//91 6//6
f 90//90 91//91 94//94
f 91//91 96//96 94//94
f 78//78 7//7 91//91
f 95//95 92//92 98//98
f 97//97 98//98 92//92
f 92//92 93//93 97//97
f 97//97 93//93 94//94
f 97//97 94//94 100//100
f 96//96 91//91 7//7
f 98//98 99//99 95//95
f 98//98 97//97 100//100
f 100//100 99//99 98//98
f 101//101 99//99 100//100
f 100//100 102//102 101//101
f 105//105 108//108 102//102
f 100//100 94//94 103//103
f 94//94 96//96 103//103
f 96//96 104//104 103//103
f 100//100 103//103 102//102
f 102//102 103//103 104//104
f 105//105 102//102 104//104
f 102//102 111//111 101//101
f 106//106 7//7 78//78
f 106//106 107//107 7//7
f 107//107 96//96 7//7
f 115//115 96//96 107//107
f 112//112 102//102 108//108
f 113//113 111//111 112//112
f 104//104 96//96 115//115
f 109//109 104//104 115//115
f 109//109 105//105 104//104
f 108//108 105//105 109//109
f 110//110 109//109 115//115
f 108//108 109//109 110//110
f 111//111 102//102 112//112
f 114//114 112//112 108//108
f 68//68 113//113 117//117
f 118//118 115//115 107//107
f 110//110 114//114 108//108
f 112//112 117//117 113//113
f 107//107 106//106 116//116
f 106//106 87//87 116//116
f 116//116 118//118 107//107
f 87//87 106//106 81//81
f 125//125 116//116 87//87
f 125//125 87//87 89//89
f 125//125 120//120 116//116
f 68//68 117//117 119//119
f 117//117 112//112 114//114
f 110//110 115//115 118//118
f 118//118 121//121 110//110
f 114//114 110//110 121//121
f 114//114 119//119 117//117
f 69//69 68//68 119//119
f 69//69 119//119 126//126
f 118//118 116//116 120//120
f 121//121 118//118 120//120
f 119//119 114//114 121//121
f 125//125 89//89 123//123
f 123//123 122//122 8//8
f 8//8 124//124 123//123
f 126//126 124//124 8//8
f 125//125 123//123 124//124
f 66//66 126//126 8//8
f 126//126 66//66 69//69
f 126//126 119//119 127//127
f 126//126 127//127 124//124
f 125//125 127//127 120//120
f 125//125 124//124 127//127
f 120//120 127//127 121//121
f 127//127 119//119 121//121
# 250 faces, 0 coords texture

# End of File
