####
#
# OBJ File Generated by Meshlab
#
####
# Object krylon_matte_finish_250_collision.obj
#
# Vertices: 127
# Faces: 250
#
####
vn -0.031584 0.681768 0.730887
v 0.002979 -0.022837 0.002973
vn 0.753248 0.003752 0.657726
v -0.026560 0.001429 0.004694
vn -0.050621 0.026464 0.998367
v 0.003926 -0.001226 -0.001784
vn 0.138622 0.028583 0.989933
v -0.010629 -0.002344 -0.000855
vn -0.982864 0.184216 0.006483
v 0.032339 -0.000953 0.076686
vn 0.066327 -0.905310 0.419541
v -0.000893 0.031146 0.007052
vn 0.999042 -0.040225 0.017227
v -0.033293 0.002324 0.106629
vn -0.138780 0.990251 0.011994
v 0.003525 -0.029415 0.105125
vn -0.894735 0.320045 -0.311481
v 0.025366 -0.007843 0.190762
vn -0.898258 -0.166430 -0.406736
v 0.025497 0.010426 0.195655
vn -0.468684 0.064746 -0.880990
v 0.023080 0.008151 0.199304
vn 0.416818 0.628142 0.657039
v -0.018423 -0.017789 0.005452
vn 0.044908 0.275209 0.960335
v -0.000889 -0.016049 -0.000173
vn 0.458660 0.235724 0.856776
v -0.021874 -0.009046 0.002599
vn 0.979332 -0.201100 0.021623
v -0.031748 0.007673 0.037234
vn 0.886285 0.370039 0.278512
v -0.029689 -0.010571 0.012768
vn 0.435035 0.885314 0.164210
v -0.017326 -0.024676 0.017453
vn 0.081287 0.925112 0.370892
v -0.000592 -0.026836 0.008629
vn 0.277227 0.958580 0.065348
v -0.012948 -0.026643 0.036662
vn 0.957766 0.286864 0.019856
v -0.031254 -0.008523 0.045124
vn 0.368712 0.929492 0.009778
v -0.013586 -0.028236 0.055431
vn 0.161419 0.986748 -0.016521
v -0.005881 -0.029192 0.075207
vn 0.685837 0.727616 0.014272
v -0.021175 -0.022358 0.043712
vn 0.983117 0.182499 -0.013221
v -0.033035 -0.003398 0.093488
vn 0.459517 0.887761 0.026923
v -0.018407 -0.025032 0.100627
vn 0.892052 0.451624 0.016688
v -0.030971 -0.009805 0.069507
vn 0.602433 0.798121 0.008815
v -0.019332 -0.022887 0.078106
vn 0.770354 0.637469 0.013723
v -0.024937 -0.019403 0.093489
vn 0.130745 0.991226 0.019435
v -0.007013 -0.030148 0.116943
vn 0.935162 0.351909 -0.040395
v -0.030830 -0.009513 0.137256
vn 0.802242 0.596371 -0.027373
v -0.024666 -0.018815 0.122729
vn 0.119210 0.991971 -0.042225
v -0.000802 -0.029740 0.142813
vn 0.501645 0.863993 -0.043215
v -0.014575 -0.026436 0.133422
vn 0.513055 0.855986 -0.063740
v -0.018893 -0.022839 0.163221
vn 0.806496 0.589212 -0.048919
v -0.025412 -0.016293 0.147772
vn 0.897633 0.428899 -0.101490
v -0.029371 -0.010416 0.172356
vn 0.633343 0.738539 -0.231166
v -0.018211 -0.019306 0.188394
vn 0.824976 0.294564 -0.482334
v -0.026292 -0.005940 0.194110
vn 0.370975 0.520366 -0.769153
v -0.011476 -0.020358 0.197722
vn 0.379911 -0.088141 0.920814
v -0.021445 0.005807 0.001583
vn 0.641192 -0.352643 0.681554
v -0.025424 0.012716 0.005715
vn 0.229697 -0.228628 0.946028
v -0.007453 0.015341 -0.000159
vn 0.230411 -0.503226 0.832871
v -0.008110 0.025901 0.003070
vn 0.939055 -0.212310 0.270370
v -0.030906 0.010711 0.014605
vn 0.493935 -0.727892 0.475607
v -0.015983 0.027700 0.008793
vn 0.801976 -0.573387 0.167515
v -0.024976 0.021613 0.015757
vn 0.993642 -0.108527 0.029958
v -0.032660 0.006037 0.066832
vn 0.582008 -0.812229 0.039388
v -0.019973 0.028464 0.042717
vn 0.819091 -0.573663 0.001123
v -0.027157 0.021124 0.052852
vn 0.553211 -0.833013 -0.006833
v -0.014489 0.032134 0.076915
vn 0.291474 -0.953841 0.072316
v -0.009589 0.032760 0.034321
vn 0.855722 -0.516342 0.033618
v -0.027744 0.019196 0.075506
vn 0.863729 -0.503957 0.000285
v -0.030087 0.018922 0.092626
vn 0.489214 -0.871892 -0.021785
v -0.011493 0.033147 0.085962
vn 0.720853 -0.693066 0.005496
v -0.023876 0.025111 0.111475
vn 0.993192 -0.115380 -0.016019
v -0.033496 0.005471 0.127621
vn 0.838061 -0.545271 0.018256
v -0.028959 0.019205 0.121542
vn 0.428582 -0.902859 0.034097
v -0.013990 0.032989 0.119345
vn 0.995502 0.066501 -0.067477
v -0.032850 0.002997 0.148609
vn 0.491801 -0.869823 -0.039243
v -0.017072 0.031088 0.143719
vn 0.843382 -0.519430 -0.137477
v -0.026856 0.018205 0.174703
vn 0.487524 -0.859230 -0.155064
v -0.014744 0.030078 0.176972
vn 0.970603 -0.136707 -0.198095
v -0.029469 0.008537 0.184829
vn 0.681306 -0.200464 -0.704015
v -0.024653 0.010725 0.196047
vn 0.453453 -0.568795 -0.686187
v -0.014367 0.022017 0.198462
vn -0.011321 -0.915359 -0.402480
v -0.002342 0.032002 0.191456
vn 0.135236 0.014593 -0.990706
v -0.010658 0.005078 0.202043
vn -0.331768 0.086622 0.939376
v 0.018167 -0.003396 0.000164
vn -0.403669 0.503859 0.763661
v 0.015958 -0.018373 0.003098
vn -0.816541 0.473495 0.330248
v 0.023975 -0.014813 0.009508
vn -0.645085 0.317359 0.695089
v 0.022669 -0.011528 0.004366
vn -0.773292 0.107270 0.624910
v 0.025535 -0.002643 0.004533
vn -0.425695 0.848630 0.314024
v 0.014395 -0.024852 0.011477
vn -0.770336 0.630751 0.093466
v 0.023487 -0.020018 0.024728
vn -0.910338 0.405739 0.081614
v 0.028780 -0.011895 0.030946
vn 0.038937 0.999182 0.010952
v -0.002175 -0.029519 0.053786
vn -0.191936 0.980927 0.030698
v 0.007278 -0.029888 0.043612
vn -0.976128 0.217003 0.009124
v 0.031208 -0.006709 0.049108
vn -0.304068 0.952626 0.006862
v 0.011062 -0.027365 0.070089
vn -0.635620 0.771934 -0.010285
v 0.018491 -0.025080 0.092897
vn -0.772036 0.635427 -0.013874
v 0.025261 -0.016441 0.069670
vn -0.708136 0.705983 0.011416
v 0.023291 -0.020161 0.110709
vn -0.294524 0.955643 -0.001151
v 0.011724 -0.027947 0.133710
vn -0.097074 0.993710 -0.055826
v 0.001994 -0.029523 0.155914
vn -0.593926 0.803247 -0.045238
v 0.019995 -0.023058 0.143134
vn -0.901969 0.429214 -0.047194
v 0.030038 -0.010360 0.146024
vn -0.967038 0.240409 -0.083910
v 0.029909 -0.006541 0.159681
vn -0.788012 0.606094 -0.108112
v 0.021618 -0.019453 0.165425
vn -0.497947 0.856946 -0.133011
v 0.014774 -0.024118 0.174930
vn -0.737078 0.532762 -0.415790
v 0.022322 -0.012572 0.192228
vn 0.075177 0.962789 -0.259588
v -0.003438 -0.027572 0.185419
vn -0.432465 0.685768 -0.585403
v 0.014171 -0.019675 0.194540
vn -0.988693 0.042101 -0.143926
v 0.030185 0.000845 0.178720
vn -0.110301 0.491585 -0.863816
v 0.002020 -0.018985 0.199135
vn 0.000910 -0.103811 0.994597
v 0.003773 0.011735 -0.001304
vn -0.641162 -0.257954 0.722753
v 0.022357 0.017747 0.003831
vn -0.257412 -0.197300 0.945945
v 0.015117 0.017291 0.000307
vn -0.092921 -0.488315 0.867706
v 0.009683 0.023817 0.001156
vn -0.433473 -0.607584 0.665540
v 0.015692 0.025852 0.004928
vn -0.970546 0.055589 0.234414
v 0.030807 0.005622 0.014178
vn -0.789270 -0.557947 0.256415
v 0.025564 0.021955 0.012345
vn -0.353305 -0.879858 0.317845
v 0.013813 0.030403 0.010296
vn -0.678643 -0.733924 0.028284
v 0.022810 0.025341 0.051810
vn -0.897039 -0.441864 0.008837
v 0.029040 0.017304 0.073619
vn -0.961037 -0.275728 0.019527
v 0.030498 0.013167 0.040847
vn -0.152620 -0.985671 0.071829
v 0.003275 0.035091 0.039745
vn 0.170734 -0.985276 0.009052
v -0.004705 0.035989 0.073078
vn -0.365772 -0.930703 0.001775
v 0.013098 0.033510 0.065568
vn -0.344389 -0.938421 -0.027610
v 0.013637 0.031874 0.087548
vn -0.226100 -0.973820 0.023508
v 0.004449 0.035218 0.112530
vn -0.724456 -0.688857 0.025289
v 0.024301 0.024498 0.109823
vn -0.619375 -0.784796 -0.021684
v 0.021377 0.027317 0.090432
vn 0.150245 -0.988636 -0.005004
v -0.005778 0.035635 0.096437
vn -0.964833 -0.262084 0.020225
v 0.032153 0.008549 0.110294
vn -0.893667 -0.448548 -0.012816
v 0.029455 0.019224 0.126686
vn -0.501738 -0.864920 -0.013143
v 0.017781 0.030234 0.133735
vn -0.994226 0.107273 0.002634
v 0.033280 -0.001074 0.112542
vn 0.027089 -0.999395 0.021818
v -0.001762 0.036029 0.119971
vn 0.104137 -0.992797 -0.059242
v -0.001934 0.034486 0.148156
vn -0.177648 -0.983894 -0.019849
v 0.005179 0.035158 0.139058
vn -0.769416 -0.636379 -0.054965
v 0.024417 0.021840 0.158080
vn -0.990709 -0.125581 -0.052210
v 0.033029 0.006318 0.139815
vn -0.924170 -0.360252 -0.126996
v 0.028185 0.015097 0.178745
vn -0.350131 -0.933708 -0.074819
v 0.010555 0.032648 0.165982
vn -0.593639 -0.785599 -0.174435
v 0.018648 0.026238 0.184762
vn -0.539958 -0.580848 -0.609148
v 0.017329 0.021981 0.197640
vn -0.056759 -0.325253 -0.943922
v 0.006345 0.018827 0.200880
# 127 vertices, 0 vertices normals

f 14//14 12//12 13//13
f 13//13 12//12 1//1
f 18//18 12//12 17//17
f 18//18 1//1 12//12
f 40//40 14//14 4//4
f 2//2 14//14 40//40
f 14//14 2//2 16//16
f 16//16 2//2 44//44
f 14//14 13//13 4//4
f 3//3 4//4 13//13
f 77//77 18//18 17//17
f 16//16 44//44 15//15
f 15//15 20//20 16//16
f 17//17 12//12 16//16
f 23//23 17//17 16//16
f 23//23 16//16 20//20
f 12//12 14//14 16//16
f 23//23 19//19 17//17
f 21//21 19//19 23//23
f 77//77 17//17 19//19
f 19//19 76//76 77//77
f 21//21 76//76 19//19
f 22//22 76//76 21//21
f 47//47 20//20 15//15
f 47//47 26//26 20//20
f 23//23 20//20 26//26
f 21//21 23//23 27//27
f 27//27 23//23 26//26
f 25//25 8//8 22//22
f 8//8 79//79 22//22
f 25//25 29//29 8//8
f 27//27 26//26 28//28
f 22//22 21//21 27//27
f 25//25 22//22 27//27
f 24//24 28//28 26//26
f 25//25 27//27 28//28
f 32//32 29//29 33//33
f 30//30 56//56 59//59
f 25//25 28//28 31//31
f 33//33 29//29 25//25
f 31//31 33//33 25//25
f 28//28 24//24 31//31
f 7//7 31//31 24//24
f 31//31 7//7 30//30
f 30//30 7//7 56//56
f 36//36 59//59 63//63
f 33//33 31//31 35//35
f 31//31 30//30 35//35
f 35//35 34//34 33//33
f 34//34 32//32 33//33
f 59//59 35//35 30//30
f 36//36 34//34 35//35
f 32//32 34//34 84//84
f 59//59 36//36 35//35
f 36//36 37//37 34//34
f 34//34 91//91 84//84
f 37//37 91//91 34//34
f 36//36 63//63 38//38
f 38//38 37//37 36//36
f 38//38 39//39 37//37
f 37//37 39//39 91//91
f 38//38 63//63 64//64
f 39//39 67//67 94//94
f 39//39 38//38 64//64
f 39//39 64//64 67//67
f 2//2 40//40 41//41
f 44//44 2//2 41//41
f 40//40 4//4 42//42
f 95//95 42//42 4//4
f 4//4 3//3 95//95
f 42//42 41//41 40//40
f 46//46 41//41 45//45
f 45//45 41//41 42//42
f 42//42 43//43 45//45
f 98//98 43//43 42//42
f 43//43 98//98 6//6
f 43//43 6//6 45//45
f 44//44 41//41 46//46
f 15//15 44//44 46//46
f 46//46 45//45 48//48
f 51//51 48//48 45//45
f 51//51 45//45 6//6
f 51//51 6//6 106//106
f 49//49 15//15 46//46
f 48//48 49//49 46//46
f 47//47 15//15 52//52
f 15//15 49//49 52//52
f 50//50 48//48 51//51
f 50//50 49//49 48//48
f 50//50 51//51 107//107
f 107//107 51//51 106//106
f 26//26 47//47 24//24
f 47//47 53//53 24//24
f 7//7 24//24 53//53
f 53//53 47//47 52//52
f 52//52 49//49 50//50
f 53//53 52//52 50//50
f 54//54 53//53 50//50
f 54//54 50//50 107//107
f 7//7 53//53 55//55
f 55//55 53//53 54//54
f 55//55 54//54 113//113
f 58//58 55//55 113//113
f 113//113 54//54 107//107
f 56//56 7//7 57//57
f 7//7 55//55 57//57
f 58//58 57//57 55//55
f 56//56 57//57 61//61
f 57//57 58//58 60//60
f 58//58 118//118 60//60
f 59//59 56//56 61//61
f 61//61 57//57 60//60
f 60//60 119//119 62//62
f 63//63 59//59 61//61
f 61//61 60//60 62//62
f 119//119 60//60 118//118
f 118//118 120//120 119//119
f 63//63 61//61 64//64
f 66//66 62//62 119//119
f 65//65 61//61 62//62
f 61//61 65//65 64//64
f 66//66 65//65 62//62
f 65//65 67//67 64//64
f 127//127 67//67 65//65
f 65//65 66//66 127//127
f 127//127 66//66 126//126
f 69//69 13//13 1//1
f 69//69 68//68 13//13
f 73//73 1//1 18//18
f 69//69 1//1 73//73
f 70//70 71//71 69//69
f 69//69 73//73 70//70
f 3//3 13//13 68//68
f 69//69 71//71 68//68
f 71//71 72//72 68//68
f 70//70 72//72 71//71
f 77//77 73//73 18//18
f 70//70 73//73 74//74
f 74//74 100//100 70//70
f 70//70 100//100 72//72
f 75//75 100//100 74//74
f 78//78 100//100 75//75
f 74//74 73//73 77//77
f 81//81 74//74 77//77
f 81//81 75//75 74//74
f 76//76 79//79 77//77
f 22//22 79//79 76//76
f 81//81 78//78 75//75
f 81//81 77//77 79//79
f 81//81 5//5 78//78
f 80//80 79//79 8//8
f 81//81 79//79 80//80
f 80//80 5//5 81//81
f 82//82 5//5 80//80
f 117//117 5//5 82//82
f 114//114 5//5 117//117
f 29//29 83//83 8//8
f 29//29 32//32 83//83
f 8//8 82//82 80//80
f 117//117 82//82 86//86
f 82//82 8//8 83//83
f 85//85 82//82 83//83
f 85//85 86//86 82//82
f 122//122 117//117 86//86
f 84//84 83//83 32//32
f 85//85 83//83 84//84
f 89//89 85//85 84//84
f 88//88 86//86 85//85
f 88//88 87//87 86//86
f 122//122 86//86 87//87
f 89//89 84//84 91//91
f 88//88 85//85 89//89
f 92//92 89//89 91//91
f 89//89 90//90 88//88
f 92//92 90//90 89//89
f 9//9 88//88 90//90
f 87//87 88//88 9//9
f 93//93 87//87 9//9
f 39//39 94//94 91//91
f 91//91 94//94 92//92
f 10//10 93//93 9//9
f 11//11 92//92 94//94
f 90//90 92//92 11//11
f 11//11 9//9 90//90
f 10//10 9//9 11//11
f 11//11 94//94 67//67
f 67//67 127//127 11//11
f 97//97 95//95 3//3
f 3//3 68//68 97//97
f 97//97 98//98 95//95
f 97//97 68//68 96//96
f 96//96 68//68 72//72
f 100//100 96//96 72//72
f 101//101 96//96 100//100
f 42//42 95//95 98//98
f 97//97 99//99 98//98
f 98//98 102//102 6//6
f 98//98 99//99 102//102
f 96//96 99//99 97//97
f 99//99 96//96 101//101
f 101//101 102//102 99//99
f 105//105 101//101 100//100
f 105//105 103//103 101//101
f 102//102 106//106 6//6
f 103//103 102//102 101//101
f 106//106 102//102 103//103
f 108//108 106//106 103//103
f 105//105 100//100 78//78
f 105//105 104//104 103//103
f 5//5 105//105 78//78
f 104//104 105//105 5//5
f 107//107 106//106 108//108
f 113//113 108//108 109//109
f 109//109 108//108 112//112
f 104//104 112//112 103//103
f 112//112 104//104 111//111
f 108//108 103//103 112//112
f 114//114 111//111 104//104
f 110//110 109//109 112//112
f 104//104 5//5 114//114
f 107//107 108//108 113//113
f 113//113 109//109 110//110
f 114//114 115//115 111//111
f 110//110 112//112 111//111
f 116//116 110//110 111//111
f 116//116 111//111 115//115
f 115//115 114//114 117//117
f 58//58 113//113 110//110
f 58//58 110//110 118//118
f 116//116 120//120 118//118
f 118//118 110//110 116//116
f 122//122 121//121 115//115
f 121//121 116//116 115//115
f 121//121 122//122 123//123
f 123//123 87//87 93//93
f 119//119 120//120 124//124
f 120//120 116//116 124//124
f 124//124 116//116 121//121
f 115//115 117//117 122//122
f 87//87 123//123 122//122
f 66//66 119//119 124//124
f 125//125 121//121 123//123
f 124//124 121//121 125//125
f 93//93 10//10 123//123
f 126//126 10//10 11//11
f 10//10 126//126 123//123
f 66//66 124//124 125//125
f 125//125 126//126 66//66
f 125//125 123//123 126//126
f 11//11 127//127 126//126
# 250 faces, 0 coords texture

# End of File
