####
#
# OBJ File Generated by Meshlab
#
####
# Object south_beach_good_to_go_peanut_butter_250_collision.obj
#
# Vertices: 127
# Faces: 250
#
####
vn -0.387140 0.192484 0.901706
v 0.012390 -0.058884 0.000650
vn -0.460432 0.743845 0.484456
v 0.008947 -0.077387 0.005285
vn -0.314078 0.949324 0.011805
v 0.006067 -0.080703 0.035485
vn -0.034814 0.063667 0.997364
v 0.002360 -0.054802 -0.001225
vn -0.015625 0.002188 0.999876
v 0.004487 -0.025533 -0.001279
vn 0.913410 -0.248222 0.322595
v -0.012997 -0.002282 0.009268
vn 0.965188 -0.261149 0.014614
v -0.027278 -0.042508 0.068942
vn -0.962001 0.273035 -0.002451
v 0.031109 -0.022553 0.083487
vn -0.005008 -0.002992 0.999983
v 0.012406 0.004175 -0.001011
vn 0.148610 -0.047033 0.987777
v 0.008264 0.029844 -0.000477
vn 0.729506 -0.683958 -0.004741
v 0.006256 0.068794 0.057783
vn 0.922244 -0.386572 -0.005344
v 0.001106 0.060555 0.068999
vn -0.961428 0.272383 -0.038257
v 0.035335 -0.006950 0.123745
vn 0.085565 0.475499 0.875545
v -0.008434 -0.071956 0.001176
vn 0.881458 0.437548 0.177716
v -0.027966 -0.069746 0.012067
vn 0.266658 0.195457 0.943764
v -0.017440 -0.062103 0.000335
vn 0.462752 0.771645 0.436377
v -0.022574 -0.074198 0.009306
vn 0.741349 0.055079 0.668855
v -0.027615 -0.060196 0.004469
vn 0.981934 -0.030130 0.186810
v -0.031546 -0.058687 0.015151
vn 0.045888 0.966439 0.252764
v 0.003547 -0.080828 0.010917
vn 0.254450 -0.054151 0.965569
v -0.013602 -0.043736 -0.000208
vn 0.522572 -0.146779 0.839865
v -0.010568 -0.014115 0.001681
vn 0.151891 -0.042166 0.987497
v 0.000823 -0.006738 -0.000646
vn 0.744571 -0.214497 0.632143
v -0.019272 -0.031713 0.004306
vn 0.944824 -0.288141 0.155829
v -0.023413 -0.035301 0.014677
vn 0.631512 0.775363 0.002166
v -0.027418 -0.070733 0.040134
vn 0.794991 0.606615 -0.002746
v -0.028593 -0.069381 0.066592
vn 0.266543 0.963821 0.002082
v -0.007999 -0.078151 0.033931
vn 0.998417 -0.053092 0.018571
v -0.031875 -0.059699 0.036723
vn 0.462112 0.886802 0.005910
v -0.023031 -0.073704 0.062579
vn 0.948980 0.315236 0.007927
v -0.031415 -0.064430 0.046720
vn 0.993985 -0.109480 0.002676
v -0.031530 -0.059862 0.065946
vn -0.025794 0.999657 -0.004482
v 0.000833 -0.080648 0.064875
vn 0.961851 -0.272616 0.022861
v -0.024908 -0.036442 0.040705
vn -0.110986 0.993498 0.025372
v 0.002851 -0.080976 0.101193
vn 0.376659 0.924824 -0.053180
v -0.022715 -0.073679 0.124714
vn 0.989930 -0.141527 -0.002839
v -0.031369 -0.056429 0.101070
vn 0.974910 0.222526 -0.005743
v -0.031343 -0.063038 0.093532
vn 0.767776 0.640665 -0.008304
v -0.028381 -0.069761 0.096753
vn 0.606854 0.725909 -0.323706
v -0.025896 -0.071229 0.135267
vn 0.964082 0.197333 -0.177783
v -0.031235 -0.062618 0.133950
vn 0.963065 -0.269242 -0.003709
v -0.022518 -0.025541 0.109729
vn 0.151115 0.797215 -0.584476
v -0.003448 -0.077450 0.137187
vn -0.104231 0.947231 -0.303131
v 0.002487 -0.081040 0.130620
vn 0.943447 -0.208512 -0.257741
v -0.030784 -0.055866 0.132471
vn 0.569006 -0.115676 -0.814157
v -0.020349 -0.037613 0.141864
vn 0.515832 0.171000 -0.839450
v -0.026781 -0.061417 0.142118
vn 0.071976 0.020645 -0.997193
v -0.003193 -0.038325 0.145349
vn 0.929535 -0.298026 -0.217128
v -0.017965 -0.009998 0.132295
vn 0.797191 -0.284251 -0.532624
v -0.019000 -0.017825 0.138983
vn 0.502368 -0.170806 -0.847615
v -0.010016 -0.012327 0.145306
vn 0.573207 -0.138520 0.807617
v -0.000860 0.026770 0.001654
vn 0.968370 -0.245418 0.045045
v -0.009404 0.015020 0.023439
vn 0.969603 -0.242519 0.032459
v -0.003192 0.040683 0.028548
vn 0.520631 -0.265534 0.811440
v 0.006117 0.058202 0.002202
vn 0.865593 -0.406415 0.292533
v 0.002433 0.062746 0.010160
vn 0.943497 -0.226776 0.241631
v -0.001871 0.044652 0.010128
vn 0.962797 -0.266708 0.043466
v -0.014069 0.002750 0.045602
vn 0.966272 -0.255848 0.029314
v -0.007191 0.028666 0.047622
vn 0.929433 -0.368787 0.012284
v 0.001381 0.061120 0.045985
vn 0.963899 -0.266056 0.010672
v -0.013991 0.004732 0.078717
vn 0.965134 -0.261743 0.002609
v -0.005171 0.036750 0.073240
vn 0.963295 -0.268423 -0.003457
v -0.012024 0.012888 0.105843
vn 0.948840 -0.291365 -0.121691
v -0.008733 0.023284 0.131213
vn 0.953249 -0.300139 -0.035099
v 0.000012 0.054823 0.106931
vn 0.740422 -0.671764 -0.022551
v 0.003715 0.065276 0.099857
vn 0.260587 -0.080528 -0.962086
v 0.001802 0.017441 0.146730
vn 0.746380 -0.214088 -0.630145
v -0.008124 0.018762 0.139195
vn 0.814124 -0.272582 -0.512739
v -0.002727 0.036565 0.138738
vn 0.716086 -0.538635 -0.443951
v 0.004081 0.064279 0.135963
vn -0.846536 0.385333 0.367282
v 0.016670 -0.070855 0.007966
vn -0.334169 0.072877 0.939691
v 0.019000 -0.023780 0.000302
vn -0.204188 0.046937 0.977806
v 0.019982 -0.001327 -0.000483
vn -0.828836 0.203298 0.521250
v 0.024899 -0.034415 0.006493
vn -0.962810 0.262847 0.062519
v 0.026324 -0.035629 0.019806
vn -0.944079 0.255651 0.208223
v 0.033310 -0.007455 0.013044
vn -0.825857 0.563469 0.021509
v 0.015559 -0.073425 0.040196
vn -0.744124 0.668008 -0.006680
v 0.014046 -0.075843 0.057554
vn -0.955280 0.295478 0.011541
v 0.022695 -0.052995 0.054985
vn -0.962631 0.268363 0.036369
v 0.035003 -0.006067 0.036101
vn -0.962531 0.270840 0.013400
v 0.031839 -0.019723 0.062304
vn -0.452377 0.891157 -0.034547
v 0.008613 -0.079986 0.120872
vn -0.667344 0.744492 0.019595
v 0.014698 -0.074972 0.101249
vn -0.946024 0.324075 0.003714
v 0.020342 -0.060715 0.087497
vn -0.918925 0.263267 -0.293713
v 0.023961 -0.047211 0.133046
vn -0.757870 0.595668 -0.266106
v 0.016312 -0.072602 0.134426
vn -0.321059 0.387459 -0.864174
v 0.010049 -0.066321 0.144664
vn -0.436808 0.138678 -0.888801
v 0.023345 -0.022497 0.143042
vn 0.025389 -0.073190 0.996995
v 0.021015 0.046815 -0.000965
vn -0.630224 0.163995 0.758896
v 0.029950 -0.004987 0.004040
vn -0.251855 0.043158 0.966802
v 0.034610 0.040522 -0.000114
vn -0.821826 0.230057 0.521225
v 0.039539 0.023221 0.005134
vn -0.963198 0.253816 0.088475
v 0.044562 0.029294 0.020721
vn -0.187865 -0.300511 0.935093
v 0.035672 0.056790 0.001158
vn 0.151503 -0.462205 0.873735
v 0.013279 0.064430 0.001956
vn 0.549146 -0.791889 0.267116
v 0.007608 0.069703 0.010439
vn -0.086410 -0.891919 0.443863
v 0.017350 0.071742 0.008475
vn -0.622848 -0.051988 0.780613
v 0.044854 0.049397 0.003108
vn -0.552942 -0.634779 0.539731
v 0.042396 0.062186 0.005979
vn -0.520639 -0.853714 0.010318
v 0.040848 0.064206 0.016202
vn -0.964170 -0.191766 0.183310
v 0.050577 0.054883 0.015904
vn -0.965802 0.258261 0.022968
v 0.043766 0.022598 0.055439
vn -0.961452 0.274972 -0.001225
v 0.040275 0.008853 0.084620
vn -0.069356 -0.997584 0.004035
v 0.014967 0.071816 0.030403
vn -0.976979 -0.213100 0.010025
v 0.050201 0.052186 0.037593
vn 0.322554 -0.946523 -0.007343
v 0.011304 0.071491 0.069487
vn -0.332061 -0.943255 0.002485
v 0.037416 0.065333 0.050663
vn -0.968216 0.250044 0.005960
v 0.047065 0.032877 0.095336
vn -0.908194 0.265604 -0.323477
v 0.044508 0.026244 0.134212
vn -0.977088 0.212296 -0.015147
v 0.050067 0.042776 0.122132
vn -0.142606 -0.989739 0.008939
v 0.017331 0.071622 0.062343
vn -0.285391 -0.958407 0.002995
v 0.023686 0.070432 0.099510
vn 0.176108 -0.984367 -0.002821
v 0.013999 0.072221 0.105156
vn -0.996149 0.086551 0.014039
v 0.050666 0.047690 0.072600
vn -0.908767 -0.416679 0.022849
v 0.049378 0.056252 0.068418
vn -0.609039 -0.792863 0.020963
v 0.044083 0.062312 0.059345
vn -0.987027 -0.160394 0.007218
v 0.051241 0.052670 0.112174
vn -0.615152 -0.788364 0.008436
v 0.045470 0.062706 0.101105
vn -0.613115 -0.751029 -0.245042
v 0.045725 0.063009 0.132135
vn 0.131619 -0.018247 -0.991132
v -0.001732 -0.006811 0.146764
vn -0.406057 0.107388 -0.907516
v 0.027696 -0.000532 0.144569
vn -0.842844 0.239682 -0.481837
v 0.032957 -0.011275 0.137112
vn -0.353809 -0.052676 -0.933833
v 0.039297 0.045023 0.143860
vn 0.066258 -0.985291 -0.157516
v 0.015489 0.072486 0.133270
vn -0.087675 -0.618035 -0.781246
v 0.019611 0.068697 0.140063
vn 0.230489 -0.275403 -0.933289
v 0.016390 0.056204 0.146401
vn -0.834763 -0.151700 -0.529299
v 0.051004 0.051982 0.137525
# 127 vertices, 0 vertices normals

f 4//4 16//16 14//14
f 4//4 14//14 1//1
f 20//20 28//28 3//3
f 17//17 18//18 15//15
f 17//17 14//14 16//16
f 15//15 18//18 19//19
f 18//18 17//17 16//16
f 17//17 15//15 26//26
f 26//26 15//15 31//31
f 29//29 31//31 15//15
f 15//15 19//19 29//29
f 20//20 14//14 17//17
f 14//14 20//20 2//2
f 14//14 2//2 1//1
f 20//20 17//17 28//28
f 21//21 18//18 16//16
f 4//4 21//21 16//16
f 21//21 4//4 5//5
f 23//23 22//22 21//21
f 5//5 23//23 21//21
f 23//23 5//5 9//9
f 24//24 18//18 21//21
f 21//21 22//22 24//24
f 25//25 19//19 18//18
f 18//18 24//24 25//25
f 24//24 6//6 25//25
f 58//58 25//25 6//6
f 6//6 53//53 58//58
f 6//6 24//24 22//22
f 28//28 17//17 26//26
f 27//27 30//30 26//26
f 30//30 28//28 26//26
f 27//27 26//26 31//31
f 32//32 29//29 34//34
f 30//30 33//33 28//28
f 33//33 3//3 28//28
f 31//31 29//29 32//32
f 32//32 34//34 7//7
f 30//30 27//27 39//39
f 27//27 31//31 38//38
f 32//32 38//38 31//31
f 7//7 37//37 32//32
f 33//33 78//78 3//3
f 29//29 19//19 25//25
f 34//34 29//29 25//25
f 34//34 25//25 58//58
f 7//7 34//34 61//61
f 61//61 34//34 58//58
f 33//33 30//30 36//36
f 36//36 30//30 39//39
f 39//39 27//27 38//38
f 38//38 32//32 37//37
f 39//39 38//38 41//41
f 33//33 83//83 78//78
f 83//83 33//33 35//35
f 35//35 33//33 36//36
f 82//82 83//83 35//35
f 35//35 44//44 82//82
f 36//36 39//39 40//40
f 41//41 38//38 37//37
f 41//41 40//40 39//39
f 41//41 37//37 45//45
f 44//44 35//35 36//36
f 37//37 7//7 42//42
f 42//42 7//7 61//61
f 63//63 42//42 61//61
f 37//37 42//42 45//45
f 49//49 45//45 42//42
f 63//63 49//49 42//42
f 40//40 43//43 36//36
f 41//41 47//47 40//40
f 44//44 36//36 43//43
f 43//43 87//87 44//44
f 44//44 87//87 86//86
f 40//40 47//47 43//43
f 87//87 43//43 47//47
f 87//87 47//47 48//48
f 41//41 45//45 47//47
f 47//47 45//45 46//46
f 45//45 49//49 50//50
f 46//46 45//45 50//50
f 46//46 48//48 47//47
f 51//51 50//50 49//49
f 48//48 46//46 51//51
f 46//46 50//50 51//51
f 120//120 48//48 51//51
f 52//52 23//23 10//10
f 23//23 9//9 10//10
f 52//52 10//10 55//55
f 6//6 22//22 52//52
f 23//23 52//52 22//22
f 6//6 52//52 57//57
f 55//55 57//57 52//52
f 56//56 57//57 55//55
f 53//53 6//6 57//57
f 53//53 57//57 54//54
f 95//95 96//96 55//55
f 55//55 96//96 56//56
f 60//60 57//57 56//56
f 60//60 54//54 57//57
f 58//58 53//53 59//59
f 53//53 54//54 59//59
f 60//60 62//62 59//59
f 58//58 59//59 61//61
f 62//62 61//61 59//59
f 60//60 59//59 54//54
f 60//60 56//56 96//96
f 60//60 96//96 11//11
f 11//11 96//96 106//106
f 12//12 62//62 60//60
f 11//11 12//12 60//60
f 12//12 11//11 66//66
f 62//62 63//63 61//61
f 64//64 49//49 63//63
f 63//63 62//62 65//65
f 63//63 65//65 64//64
f 62//62 12//12 65//65
f 65//65 12//12 66//66
f 106//106 66//66 11//11
f 66//66 106//106 113//113
f 66//66 113//113 124//124
f 70//70 65//65 66//66
f 70//70 66//66 124//124
f 49//49 68//68 51//51
f 68//68 49//49 64//64
f 68//68 120//120 51//51
f 120//120 68//68 67//67
f 67//67 121//121 120//120
f 68//68 64//64 69//69
f 69//69 64//64 65//65
f 68//68 69//69 67//67
f 67//67 69//69 126//126
f 69//69 65//65 70//70
f 70//70 126//126 69//69
f 71//71 1//1 2//2
f 3//3 77//77 2//2
f 2//2 20//20 3//3
f 71//71 2//2 77//77
f 72//72 5//5 4//4
f 4//4 1//1 72//72
f 73//73 9//9 5//5
f 5//5 72//72 73//73
f 71//71 74//74 1//1
f 1//1 74//74 72//72
f 75//75 74//74 71//71
f 90//90 72//72 74//74
f 76//76 74//74 75//75
f 76//76 90//90 74//74
f 73//73 72//72 90//90
f 90//90 76//76 92//92
f 80//80 76//76 75//75
f 75//75 71//71 77//77
f 3//3 78//78 77//77
f 77//77 78//78 79//79
f 77//77 79//79 75//75
f 75//75 79//79 80//80
f 79//79 81//81 80//80
f 81//81 79//79 8//8
f 8//8 103//103 81//81
f 83//83 84//84 78//78
f 84//84 79//79 78//78
f 83//83 86//86 84//84
f 83//83 82//82 86//86
f 85//85 84//84 86//86
f 8//8 79//79 84//84
f 8//8 84//84 85//85
f 85//85 13//13 8//8
f 103//103 8//8 13//13
f 122//122 13//13 85//85
f 86//86 82//82 44//44
f 87//87 85//85 86//86
f 88//88 85//85 87//87
f 122//122 85//85 88//88
f 88//88 87//87 48//48
f 120//120 88//88 48//48
f 120//120 121//121 88//88
f 122//122 88//88 121//121
f 91//91 9//9 73//73
f 10//10 9//9 89//89
f 91//91 89//89 9//9
f 89//89 55//55 10//10
f 90//90 91//91 73//73
f 91//91 90//90 92//92
f 93//93 76//76 80//80
f 92//92 98//98 91//91
f 93//93 101//101 92//92
f 101//101 98//98 92//92
f 76//76 93//93 92//92
f 95//95 55//55 89//89
f 89//89 91//91 94//94
f 94//94 95//95 89//89
f 94//94 91//91 98//98
f 96//96 95//95 97//97
f 97//97 95//95 94//94
f 97//97 94//94 99//99
f 96//96 97//97 104//104
f 100//100 97//97 99//99
f 104//104 97//97 100//100
f 98//98 99//99 94//94
f 99//99 98//98 101//101
f 100//100 99//99 101//101
f 105//105 100//100 101//101
f 102//102 93//93 80//80
f 105//105 101//101 93//93
f 105//105 93//93 102//102
f 81//81 102//102 80//80
f 103//103 102//102 81//81
f 102//102 103//103 108//108
f 102//102 114//114 105//105
f 114//114 102//102 108//108
f 104//104 100//100 107//107
f 96//96 104//104 106//106
f 111//111 106//106 104//104
f 111//111 104//104 107//107
f 105//105 116//116 100//100
f 107//107 100//100 116//116
f 112//112 111//111 107//107
f 115//115 105//105 114//114
f 116//116 105//105 115//115
f 116//116 112//112 107//107
f 13//13 109//109 103//103
f 114//114 108//108 117//117
f 110//110 117//117 108//108
f 109//109 108//108 103//103
f 110//110 108//108 109//109
f 111//111 113//113 106//106
f 113//113 111//111 112//112
f 115//115 114//114 117//117
f 118//118 112//112 116//116
f 118//118 116//116 115//115
f 117//117 118//118 115//115
f 112//112 124//124 113//113
f 118//118 124//124 112//112
f 119//119 124//124 118//118
f 119//119 118//118 117//117
f 117//117 110//110 127//127
f 119//119 117//117 127//127
f 123//123 121//121 67//67
f 109//109 13//13 122//122
f 121//121 109//109 122//122
f 109//109 121//121 123//123
f 123//123 67//67 126//126
f 127//127 110//110 109//109
f 127//127 109//109 123//123
f 124//124 125//125 70//70
f 123//123 126//126 125//125
f 126//126 70//70 125//125
f 124//124 119//119 125//125
f 119//119 127//127 125//125
f 125//125 127//127 123//123
# 250 faces, 0 coords texture

# End of File
