####
#
# OBJ File Generated by Meshlab
#
####
# Object vo5_tea_therapy_healthful_green_tea_smoothing_shampoo_250_collision.obj
#
# Vertices: 127
# Faces: 250
#
####
vn -0.039152 -0.115512 -0.992534
v -0.018003 -0.015656 0.007828
vn 0.789768 0.612955 -0.023500
v 0.023483 0.033268 0.048036
vn 0.697853 -0.714795 -0.045488
v 0.015656 -0.033268 0.044071
vn 0.698814 -0.236679 -0.675012
v 0.021327 -0.013699 0.011742
vn -0.234171 0.968294 -0.087005
v -0.002492 0.037501 0.022279
vn -0.061813 0.570625 -0.818881
v -0.003413 0.035351 0.009773
vn 0.994555 0.099949 0.029495
v 0.025233 0.010009 0.130781
vn -0.687890 -0.724031 -0.050862
v -0.019952 -0.029354 0.023485
vn 0.417146 0.052042 -0.907348
v 0.021267 -0.011742 0.011742
vn -0.251435 -0.967286 -0.033733
v -0.002306 -0.037322 0.043594
vn 0.594458 -0.797647 0.101882
v 0.013699 -0.029717 0.144814
vn -0.095215 -0.653962 -0.750512
v -0.006110 -0.032283 0.011725
vn 0.478791 -0.054347 0.876245
v 0.016855 0.000431 0.221684
vn 0.825112 -0.564583 -0.020887
v 0.017612 -0.031311 0.055617
vn 0.788115 -0.532835 -0.308158
v 0.015656 -0.027665 0.015656
vn 0.999494 0.027427 -0.016124
v 0.027992 0.003914 0.031311
vn -0.424118 -0.104688 -0.899536
v -0.020353 -0.011742 0.007828
vn -0.348719 0.378156 -0.857551
v -0.014095 0.026468 0.009788
vn -0.993983 -0.079387 0.075464
v -0.015443 -0.003914 0.170254
vn 0.202051 0.966920 -0.155694
v 0.005677 0.036444 0.019103
vn -0.983457 -0.017553 0.180289
v -0.013751 0.011915 0.166340
vn -0.791250 0.605541 -0.085102
v -0.019645 0.026211 0.015300
vn 0.233623 -0.971394 -0.042598
v 0.007804 -0.038153 0.045150
vn 0.736269 -0.667539 0.110902
v 0.016947 -0.023672 0.164355
vn 0.567296 -0.803094 0.182249
v 0.011822 -0.019978 0.213645
vn 0.339195 -0.347508 -0.874177
v 0.018021 -0.019569 0.011742
vn 0.870889 -0.483280 -0.089403
v 0.019569 -0.024677 0.031311
vn 0.416137 -0.867174 -0.273566
v 0.012541 -0.033232 0.021481
vn 0.980510 0.195377 0.020694
v 0.025517 0.025440 0.046967
vn 0.924611 0.373238 0.076084
v 0.021585 0.018762 0.168340
vn -0.934070 0.297503 0.197495
v -0.009338 0.009964 0.212232
vn -0.030223 0.040303 -0.998730
v -0.019280 -0.009785 0.007828
vn 0.444246 0.894907 0.042278
v 0.014391 0.037211 0.098496
vn -0.412470 0.910957 -0.005075
v -0.004047 0.038026 0.054407
vn 0.819321 0.487774 -0.301314
v 0.023427 0.025617 0.021628
vn -0.967629 0.205964 0.145851
v -0.012226 0.014885 0.174035
vn -0.973310 0.229257 -0.010490
v -0.023662 0.011922 0.017645
vn -0.717833 0.211738 -0.663237
v -0.020867 0.019550 0.009785
vn -0.999063 -0.007695 0.042584
v -0.025440 -0.011742 0.015458
vn -0.792999 0.604132 0.078597
v -0.007618 0.031751 0.124711
vn -0.881122 0.466787 0.075717
v -0.011538 0.025329 0.126031
vn 0.275299 -0.959887 0.053179
v 0.007838 -0.036207 0.110832
vn 0.490271 -0.869534 0.059544
v 0.012838 -0.033971 0.111369
vn 0.665811 -0.744495 0.049227
v 0.013942 -0.033268 0.109589
vn 0.621193 -0.773800 0.123905
v 0.014265 -0.025945 0.166340
vn -0.107939 -0.978877 -0.173636
v -0.001886 -0.035501 0.020856
vn 0.338972 -0.661279 -0.669185
v 0.013699 -0.029104 0.015656
vn -0.463243 -0.851028 -0.247299
v -0.019569 -0.029354 0.022569
vn -0.626015 -0.469960 -0.622288
v -0.019567 -0.023437 0.011739
vn 0.964787 -0.242383 -0.102159
v 0.027435 -0.005677 0.023570
vn 0.945307 -0.006404 -0.326119
v 0.026988 -0.003914 0.019569
vn 0.960311 0.249545 0.124623
v 0.020091 0.010246 0.214164
vn -0.677010 -0.733169 0.064190
v -0.009826 -0.033314 0.099804
vn -0.397149 -0.842383 0.364231
v -0.001298 -0.021288 0.217599
vn -0.804580 -0.087878 -0.587307
v -0.024869 -0.012362 0.012328
vn -0.984074 -0.150944 0.093890
v -0.014457 -0.009360 0.176561
vn -0.932498 -0.348257 0.095730
v -0.013828 -0.016151 0.164451
vn 0.298744 0.950422 -0.086317
v 0.011727 0.036676 0.038285
vn 0.520154 0.657074 -0.545613
v 0.013847 0.032019 0.013759
vn 0.971326 0.183179 -0.151566
v 0.026645 0.019569 0.025440
vn -0.980221 0.023850 0.196464
v -0.011538 -0.000596 0.211330
vn -0.987734 -0.041869 0.150429
v -0.016341 0.005855 0.149804
vn -0.991544 0.084301 -0.098659
v -0.025440 0.002047 0.015781
vn -0.554609 0.824424 0.112840
v -0.004604 0.034260 0.130999
vn 0.172144 -0.970436 -0.169177
v 0.006849 -0.036322 0.029354
vn 0.902127 -0.428421 0.051203
v 0.025442 -0.019637 0.121340
vn 0.001235 -0.920722 -0.390216
v -0.003675 -0.033427 0.013862
vn 0.905989 -0.415241 -0.082213
v 0.024470 -0.015021 0.031281
vn 0.998885 0.036869 0.029494
v 0.025771 0.004382 0.124340
vn 0.920086 0.030974 0.390491
v 0.020699 0.002674 0.219286
vn 0.994576 0.085316 0.059494
v 0.023856 0.005871 0.177103
vn 0.996001 -0.061011 0.065269
v 0.024181 -0.000792 0.177107
vn 0.575327 0.807571 0.129727
v 0.013701 0.030197 0.159233
vn -0.231219 0.959024 0.163740
v 0.001957 0.031505 0.164383
vn -0.017273 0.972625 0.231738
v 0.005868 0.023406 0.212793
vn -0.977596 -0.191455 -0.087473
v -0.025440 -0.015656 0.014149
vn -0.814954 -0.338533 0.470368
v -0.008849 -0.012540 0.218352
vn -0.843073 -0.528511 0.099522
v -0.011331 -0.025609 0.148410
vn 0.211193 0.976782 -0.035971
v 0.008171 0.038868 0.061451
vn 0.420113 0.891701 -0.168447
v 0.013963 0.033450 0.019569
vn 0.768116 0.222971 -0.600235
v 0.021332 0.023483 0.015656
vn -0.828544 0.548016 0.114864
v -0.010024 0.020566 0.169312
vn -0.677943 -0.729610 0.089794
v -0.009100 -0.030689 0.131115
vn 0.393642 -0.910042 0.129884
v 0.009512 -0.031506 0.151728
vn -0.329511 -0.931782 0.152332
v -0.002294 -0.029539 0.164872
vn -0.091330 -0.994707 0.047079
v 0.000247 -0.037563 0.105180
vn 0.685643 -0.721852 0.093929
v 0.013866 -0.029521 0.145260
vn 0.778666 -0.528205 0.338642
v 0.016217 -0.014557 0.217143
vn 0.999130 -0.024088 -0.034051
v 0.027876 -0.000978 0.031311
vn 0.958304 0.281532 0.048926
v 0.023106 0.021526 0.123287
vn 0.974642 0.216708 0.055780
v 0.023367 0.011683 0.174544
vn 0.997731 -0.062841 0.024167
v 0.025962 -0.015709 0.121376
vn 0.322377 0.937174 0.133339
v 0.010147 0.034805 0.142908
vn 0.406085 0.886418 0.222168
v 0.011198 0.021768 0.216039
vn 0.772207 0.627350 0.100638
v 0.018160 0.028271 0.147527
vn -0.786306 -0.581548 0.208626
v -0.007203 -0.016550 0.215752
vn 0.131721 -0.967059 0.217822
v 0.004249 -0.022843 0.215070
vn 0.193421 -0.486685 0.851895
v 0.007140 -0.020157 0.221794
vn 0.277514 0.957364 0.080244
v 0.009785 0.038186 0.111546
vn -0.162925 0.967643 0.192671
v 0.004024 0.023468 0.211349
vn -0.928744 -0.362364 0.078279
v -0.013705 -0.020481 0.147279
vn -0.576856 0.815591 0.045269
v -0.004791 0.036345 0.101049
vn 0.084865 0.996000 0.027958
v 0.005868 0.039751 0.096602
vn -0.995037 0.054793 0.083061
v -0.015437 0.000080 0.173937
vn -0.469845 -0.881576 0.045483
v -0.007114 -0.035408 0.100657
vn -0.408054 -0.912896 -0.010646
v -0.011740 -0.033675 0.045014
vn 0.845461 -0.259029 0.467011
v 0.019550 -0.007194 0.215872
vn 0.899363 0.424362 0.105181
v 0.018736 0.014526 0.212813
vn 0.790392 0.491028 0.366297
v 0.017476 0.016052 0.217895
vn -0.065252 -0.986361 0.151108
v 0.002935 -0.030524 0.165361
vn -0.664088 0.080003 0.743362
v -0.007806 0.000112 0.222123
vn 0.083859 0.982500 0.166318
v 0.007188 0.031684 0.165505
vn -0.319978 0.907073 0.273555
v 0.001994 0.022352 0.214700
vn -0.697788 0.587392 0.409955
v -0.004759 0.016478 0.218343
vn 0.057664 0.580471 0.812237
v 0.008317 0.020167 0.222402
vn -0.051992 0.998166 -0.030994
v 0.000183 0.038743 0.044204
vn -0.592572 0.791308 0.150633
v -0.003933 0.031004 0.151944
vn -0.048506 0.991312 0.122264
v 0.004478 0.036550 0.135259
vn -0.608878 -0.781781 0.134486
v -0.007940 -0.028005 0.156574
vn -0.338706 -0.933206 0.120018
v -0.003484 -0.033699 0.136904
vn 0.674161 0.732985 0.090780
v 0.017562 0.031460 0.129189
vn 0.520346 0.847845 0.101976
v 0.012901 0.034378 0.134646
vn 0.140890 -0.984136 0.107827
v 0.004761 -0.035349 0.131933
vn 0.656865 0.741171 0.138542
v 0.015647 0.022009 0.197162
vn 0.868082 0.489013 0.085442
v 0.020633 0.024450 0.144596
vn -0.653819 0.754118 0.061867
v -0.006826 0.034143 0.108419
vn -0.314279 0.947705 0.055529
v 0.000461 0.038841 0.107349
# 127 vertices, 0 vertices normals

f 9//9 4//4 1//1
f 9//9 1//1 6//6
f 14//14 68//68 66//66
f 19//19 104//104 76//76
f 101//101 76//76 8//8
f 6//6 22//22 5//5
f 20//20 6//6 5//5
f 10//10 8//8 46//46
f 23//23 10//10 46//46
f 23//23 28//28 3//3
f 43//43 23//23 3//3
f 24//24 66//66 88//88
f 26//26 12//12 1//1
f 26//26 1//1 4//4
f 26//26 4//4 15//15
f 49//49 8//8 76//76
f 49//49 17//17 1//1
f 27//27 14//14 3//3
f 27//27 68//68 14//14
f 27//27 3//3 15//15
f 50//50 15//15 4//4
f 50//50 68//68 15//15
f 28//28 15//15 3//3
f 32//32 6//6 1//1
f 32//32 1//1 17//17
f 32//32 18//18 6//6
f 32//32 17//17 38//38
f 32//32 38//38 18//18
f 18//18 38//38 22//22
f 18//18 22//22 6//6
f 57//57 56//56 76//76
f 126//126 102//102 22//22
f 34//34 116//116 5//5
f 59//59 20//20 80//80
f 62//62 21//21 37//37
f 62//62 63//63 104//104
f 62//62 37//37 63//63
f 37//37 22//22 38//38
f 37//37 21//21 22//22
f 38//38 63//63 37//37
f 39//39 76//76 104//104
f 41//41 40//40 22//22
f 106//106 8//8 10//10
f 65//65 28//28 23//23
f 44//44 43//43 3//3
f 44//44 3//3 14//14
f 44//44 14//14 66//66
f 87//87 66//66 24//24
f 87//87 44//44 66//66
f 87//87 11//11 44//44
f 47//47 15//15 28//28
f 47//47 67//67 12//12
f 47//47 26//26 15//15
f 47//47 12//12 26//26
f 48//48 46//46 8//8
f 48//48 8//8 49//49
f 12//12 48//48 49//49
f 49//49 1//1 12//12
f 55//55 49//49 76//76
f 55//55 17//17 49//49
f 68//68 27//27 15//15
f 51//51 50//50 4//4
f 51//51 4//4 9//9
f 51//51 9//9 81//81
f 69//69 92//92 16//16
f 71//71 70//70 72//72
f 55//55 38//38 17//17
f 56//56 19//19 76//76
f 57//57 76//76 101//101
f 102//102 34//34 22//22
f 126//126 22//22 40//40
f 116//116 20//20 5//5
f 79//79 58//58 20//20
f 79//79 20//20 116//116
f 34//34 5//5 22//22
f 20//20 59//59 6//6
f 59//59 81//81 9//9
f 59//59 9//9 6//6
f 58//58 2//2 80//80
f 58//58 80//80 20//20
f 59//59 35//35 81//81
f 60//60 35//35 2//2
f 60//60 2//2 29//29
f 60//60 16//16 51//51
f 60//60 51//51 81//81
f 62//62 36//36 21//21
f 21//21 36//36 22//22
f 55//55 63//63 38//38
f 63//63 39//39 104//104
f 36//36 41//41 22//22
f 105//105 8//8 106//106
f 43//43 44//44 11//11
f 107//107 88//88 66//66
f 66//66 72//72 107//107
f 87//87 45//45 11//11
f 67//67 28//28 46//46
f 67//67 47//47 28//28
f 46//46 48//48 67//67
f 46//46 28//28 65//65
f 67//67 48//48 12//12
f 92//92 66//66 50//50
f 89//89 16//16 92//92
f 89//89 51//51 16//16
f 68//68 50//50 66//66
f 7//7 60//60 29//29
f 71//71 69//69 7//7
f 91//91 29//29 2//2
f 91//91 30//30 52//52
f 72//72 69//69 71//71
f 72//72 66//66 92//92
f 56//56 104//104 19//19
f 104//104 56//56 61//61
f 36//36 31//31 82//82
f 76//76 63//63 55//55
f 76//76 39//39 63//63
f 77//77 57//57 96//96
f 8//8 53//53 83//83
f 79//79 116//116 103//103
f 79//79 33//33 2//2
f 58//58 79//79 2//2
f 80//80 2//2 59//59
f 35//35 59//59 2//2
f 81//81 35//35 60//60
f 82//82 40//40 41//41
f 83//83 105//105 120//120
f 83//83 53//53 105//105
f 83//83 119//119 78//78
f 86//86 10//10 23//23
f 46//46 65//65 23//23
f 86//86 42//42 123//123
f 43//43 42//42 23//23
f 43//43 84//84 123//123
f 43//43 123//123 42//42
f 88//88 98//98 25//25
f 87//87 24//24 45//45
f 89//89 92//92 50//50
f 89//89 50//50 51//51
f 7//7 69//69 16//16
f 7//7 16//16 60//60
f 52//52 70//70 71//71
f 7//7 29//29 91//91
f 90//90 91//91 2//2
f 90//90 2//2 30//30
f 90//90 30//30 91//91
f 91//91 71//71 7//7
f 91//91 52//52 71//71
f 72//72 92//92 69//69
f 72//72 70//70 107//107
f 94//94 124//124 73//73
f 98//98 111//111 77//77
f 61//61 56//56 77//77
f 111//111 61//61 77//77
f 96//96 119//119 54//54
f 77//77 54//54 98//98
f 31//31 114//114 82//82
f 111//111 31//31 61//61
f 77//77 56//56 57//57
f 101//101 8//8 78//78
f 78//78 8//8 83//83
f 64//64 126//126 40//40
f 127//127 34//34 102//102
f 116//116 127//127 103//103
f 116//116 34//34 127//127
f 33//33 79//79 103//103
f 104//104 36//36 62//62
f 104//104 61//61 31//31
f 82//82 41//41 36//36
f 113//113 100//100 74//74
f 64//64 118//118 127//127
f 105//105 53//53 8//8
f 106//106 10//10 105//105
f 105//105 86//86 120//120
f 45//45 84//84 11//11
f 45//45 25//25 84//84
f 23//23 42//42 86//86
f 43//43 11//11 84//84
f 24//24 25//25 45//45
f 24//24 88//88 25//25
f 70//70 52//52 109//109
f 108//108 52//52 30//30
f 52//52 108//108 109//109
f 112//112 94//94 93//93
f 121//121 95//95 2//2
f 119//119 96//96 78//78
f 110//110 84//84 97//97
f 110//110 123//123 84//84
f 85//85 110//110 54//54
f 85//85 120//120 110//110
f 97//97 84//84 25//25
f 97//97 25//25 98//98
f 97//97 98//98 54//54
f 97//97 54//54 110//110
f 13//13 115//115 98//98
f 96//96 54//54 77//77
f 93//93 99//99 118//118
f 93//93 122//122 99//99
f 93//93 118//118 112//112
f 100//100 75//75 74//74
f 113//113 75//75 100//100
f 112//112 74//74 75//75
f 112//112 118//118 74//74
f 75//75 94//94 112//112
f 75//75 115//115 94//94
f 115//115 114//114 111//111
f 114//114 117//117 82//82
f 31//31 111//111 114//114
f 78//78 96//96 57//57
f 104//104 31//31 36//36
f 82//82 64//64 40//40
f 114//114 115//115 113//113
f 117//117 113//113 74//74
f 117//117 74//74 64//64
f 118//118 64//64 74//74
f 119//119 83//83 120//120
f 105//105 10//10 86//86
f 85//85 54//54 119//119
f 120//120 86//86 123//123
f 109//109 115//115 13//13
f 115//115 109//109 94//94
f 73//73 93//93 94//94
f 73//73 122//122 93//93
f 125//125 109//109 108//108
f 125//125 2//2 95//95
f 125//125 30//30 2//2
f 121//121 33//33 122//122
f 121//121 73//73 95//95
f 121//121 122//122 73//73
f 121//121 2//2 33//33
f 33//33 99//99 122//122
f 124//124 95//95 73//73
f 95//95 109//109 125//125
f 123//123 110//110 120//120
f 111//111 98//98 115//115
f 103//103 127//127 118//118
f 113//113 115//115 75//75
f 101//101 78//78 57//57
f 64//64 82//82 117//117
f 126//126 127//127 102//102
f 103//103 99//99 33//33
f 114//114 113//113 117//117
f 120//120 85//85 119//119
f 107//107 98//98 88//88
f 107//107 70//70 13//13
f 107//107 13//13 98//98
f 13//13 70//70 109//109
f 109//109 124//124 94//94
f 124//124 109//109 95//95
f 125//125 108//108 30//30
f 103//103 118//118 99//99
f 127//127 126//126 64//64
# 250 faces, 0 coords texture

# End of File
