####
#
# OBJ File Generated by Meshlab
#
####
# Object nature_valley_sweet_and_salty_nut_cashew_250_collision.obj
#
# Vertices: 127
# Faces: 250
#
####
vn 0.208708 0.341232 0.916516
v 0.012075 -0.017875 0.001841
vn 0.047171 0.124709 0.991071
v 0.003809 -0.007154 0.000860
vn 0.007482 -0.009905 0.999923
v 0.026928 -0.010004 0.000406
vn 0.540641 0.841178 -0.011308
v -0.022435 -0.007199 0.088423
vn -0.687172 -0.726365 0.013695
v 0.082900 -0.019223 0.075867
vn 0.063880 0.097814 -0.993152
v 0.010294 -0.005313 0.147422
vn -0.213229 -0.417123 -0.883483
v 0.061346 -0.014496 0.143792
vn -0.526995 -0.849865 0.002160
v 0.021056 0.020284 0.094654
vn 0.096155 0.196279 0.975822
v -0.017098 0.001137 0.000548
vn 0.527146 0.849727 0.009040
v -0.015720 -0.011130 0.031814
vn 0.480234 0.798742 0.362471
v -0.006163 -0.016716 0.010223
vn 0.293573 0.553079 0.779691
v -0.011217 -0.009277 0.003858
vn 0.537886 0.842976 0.008360
v -0.014358 -0.012556 0.055292
vn 0.536216 0.844066 0.004994
v 0.004206 -0.024441 0.071131
vn 0.532705 0.845404 -0.038959
v 0.007263 -0.025615 0.107595
vn 0.486606 0.782272 -0.388927
v 0.027376 -0.035952 0.136363
vn 0.333947 -0.164470 0.928132
v -0.048254 0.026384 0.001620
vn 0.571403 0.331381 0.750789
v -0.052702 0.015693 0.004253
vn 0.292183 0.431392 0.853540
v -0.037427 0.007661 0.002294
vn 0.981251 -0.192494 -0.009662
v -0.058280 0.023105 0.034469
vn 0.897775 -0.230811 0.375136
v -0.057695 0.026203 0.011886
vn 0.082871 0.046649 0.995468
v -0.028615 0.015920 0.000177
vn -0.147716 -0.287496 0.946322
v -0.020173 0.029597 0.000875
vn -0.155489 -0.630269 0.760648
v -0.031894 0.044250 0.004046
vn -0.353944 -0.608126 0.710568
v 0.005175 0.023121 0.005784
vn -0.079470 -0.122725 0.989254
v 0.002049 0.011598 0.000025
vn 0.509193 0.809150 0.293256
v -0.039219 0.003121 0.009441
vn 0.531990 0.846704 -0.008887
v -0.033822 -0.000024 0.026523
vn -0.085454 -0.988638 0.123660
v -0.033427 0.050917 0.021717
vn 0.682136 -0.726606 0.082060
v -0.044958 0.045974 0.012216
vn 0.434049 -0.718479 0.543498
v -0.041411 0.047314 0.007172
vn -0.469906 -0.777535 0.417884
v -0.016217 0.039219 0.008480
vn -0.518835 -0.841268 0.151916
v 0.003558 0.027511 0.014292
vn 0.827839 0.543818 0.137642
v -0.056072 0.013847 0.013415
vn 0.848177 0.529533 -0.013796
v -0.056403 0.014564 0.048243
vn 0.777833 -0.628465 -0.002757
v -0.045165 0.045097 0.068277
vn 0.538946 0.842340 0.000089
v -0.040549 0.004360 0.051961
vn 0.956951 -0.290143 -0.007879
v -0.057655 0.024684 0.055852
vn -0.521256 -0.852003 0.048812
v -0.017268 0.042126 0.036120
vn 0.617733 -0.786370 0.005332
v -0.043072 0.047781 0.039375
vn 0.472998 -0.880820 0.020704
v -0.039536 0.049711 0.076446
vn -0.170643 -0.985022 0.024736
v -0.030492 0.051332 0.065005
vn 0.719836 0.693811 -0.021512
v -0.054302 0.013338 0.082497
vn 0.892359 -0.451213 -0.010078
v -0.055707 0.027403 0.086218
vn 0.785196 -0.619241 0.002882
v -0.043829 0.046781 0.108456
vn 0.692275 0.720941 -0.031614
v -0.052914 0.012910 0.109268
vn 0.996706 0.078607 -0.019971
v -0.057519 0.021937 0.095637
vn 0.906266 -0.386239 -0.171760
v -0.054466 0.029609 0.135615
vn -0.382821 -0.923701 0.014969
v -0.026052 0.049677 0.097117
vn -0.529892 -0.847986 0.011624
v 0.000998 0.032666 0.094107
vn -0.525137 -0.795639 -0.301977
v -0.001396 0.033876 0.132339
vn 0.485582 -0.868228 -0.101935
v -0.040718 0.050566 0.128124
vn 0.005644 -0.990092 -0.140308
v -0.034311 0.052599 0.129175
vn 0.062747 -0.997843 0.019310
v -0.034274 0.052146 0.098603
vn 0.848810 0.371274 -0.376400
v -0.056689 0.018797 0.136020
vn 0.526037 -0.183121 -0.830513
v -0.050648 0.026044 0.144611
vn 0.446605 0.727039 -0.521496
v -0.004418 -0.015967 0.136513
vn 0.142533 0.314794 -0.938397
v -0.020928 0.004210 0.145508
vn 0.515097 0.763386 -0.389765
v -0.039660 0.005570 0.136224
vn 0.180721 0.204174 -0.962109
v -0.009462 -0.001707 0.145239
vn -0.158293 -0.374481 -0.913623
v 0.008835 0.016775 0.145554
vn 0.315874 0.348954 -0.882301
v -0.042183 0.017674 0.145739
vn -0.066431 -0.176427 -0.982070
v -0.025272 0.030814 0.145973
vn -0.346491 -0.616049 -0.707409
v -0.021864 0.043447 0.140220
vn -0.268877 -0.421490 -0.866055
v -0.004777 0.029321 0.141907
vn 0.691519 -0.635315 -0.343768
v -0.043819 0.046353 0.136648
vn 0.121875 -0.722449 -0.680598
v -0.035921 0.047785 0.140751
vn -0.383973 -0.890665 -0.243476
v -0.025885 0.050398 0.133042
vn 0.106944 0.974487 0.197327
v 0.063181 -0.060011 0.016411
vn 0.438845 0.897637 0.040777
v 0.058236 -0.058304 0.031944
vn -0.631520 0.733032 0.252680
v 0.073712 -0.055838 0.013519
vn -0.204750 0.978811 0.002389
v 0.064867 -0.059126 0.046308
vn 0.380827 0.588645 0.713069
v 0.021705 -0.030206 0.004568
vn -0.065578 0.569983 0.819035
v 0.065062 -0.053470 0.003032
vn 0.126269 0.205468 0.970484
v 0.036263 -0.028712 0.000563
vn -0.051043 -0.056692 0.997086
v 0.055842 -0.022714 0.000091
vn -0.190546 -0.316347 0.929310
v 0.049405 -0.009102 0.001570
vn 0.508243 0.836633 0.204289
v 0.040656 -0.045455 0.011287
vn 0.428748 0.745339 0.510534
v 0.050088 -0.049443 0.005877
vn -0.528963 -0.842911 0.098486
v 0.055501 -0.004048 0.011929
vn -0.535620 -0.843713 0.035497
v 0.066142 -0.009060 0.041459
vn -0.076531 0.072999 0.994391
v 0.063913 -0.038353 0.000462
vn -0.303760 -0.187049 0.934207
v 0.077765 -0.025269 0.002511
vn -0.472306 -0.720815 0.507299
v 0.068457 -0.013666 0.005610
vn -0.517078 0.252376 0.817886
v 0.076348 -0.040742 0.002885
vn -0.812104 -0.297514 0.501968
v 0.083814 -0.023453 0.007069
vn -0.884603 0.353145 0.304575
v 0.084217 -0.037621 0.009874
vn -0.736592 -0.674493 0.049914
v 0.083273 -0.020763 0.027526
vn 0.347369 0.937723 -0.003281
v 0.056347 -0.057038 0.076522
vn -0.789958 0.613153 0.003233
v 0.076994 -0.049072 0.031693
vn -0.638623 0.768596 0.037698
v 0.071838 -0.056492 0.050951
vn 0.536632 0.843260 0.030652
v 0.017539 -0.031855 0.030222
vn 0.536131 0.844127 0.003672
v 0.030077 -0.041028 0.054991
vn -0.996659 0.073900 0.034789
v 0.087430 -0.031302 0.025397
vn -0.919503 0.393032 -0.006376
v 0.085946 -0.034214 0.054897
vn 0.301559 0.953438 -0.004254
v 0.060186 -0.058663 0.102900
vn 0.333807 0.878599 -0.341520
v 0.060249 -0.058007 0.134179
vn -0.196757 0.980364 -0.013167
v 0.066609 -0.059016 0.096169
vn 0.530368 0.847231 -0.030148
v 0.035020 -0.043571 0.097274
vn -0.763210 0.646148 -0.001768
v 0.072589 -0.055318 0.080997
vn -0.954380 0.298440 0.009591
v 0.086923 -0.031484 0.073413
vn -0.979645 -0.200343 0.012603
v 0.086724 -0.027201 0.059663
vn -0.884284 0.466589 0.018372
v 0.084943 -0.036447 0.108463
vn -0.999897 0.012843 0.006383
v 0.087550 -0.029119 0.112776
vn -0.858412 -0.512917 -0.006690
v 0.085241 -0.021422 0.110441
vn -0.558323 -0.829590 -0.007533
v 0.068220 -0.009065 0.111053
vn -0.293128 0.785009 -0.545744
v 0.066122 -0.056604 0.139281
vn -0.653457 0.748489 -0.112954
v 0.072983 -0.055364 0.132067
vn 0.169207 0.411136 -0.895732
v 0.063796 -0.051100 0.143017
vn 0.242895 0.467765 -0.849822
v 0.037754 -0.037085 0.140910
vn 0.036007 0.038648 -0.998604
v 0.047843 -0.019580 0.143824
vn 0.301457 0.497480 -0.813411
v 0.013714 -0.020671 0.143170
vn 0.013181 0.181368 -0.983327
v 0.028373 -0.025068 0.144793
vn -0.217517 -0.253638 -0.942525
v 0.047509 -0.008760 0.143663
vn -0.972381 0.069608 -0.222777
v 0.087710 -0.032504 0.133494
vn -0.772246 0.506956 -0.382924
v 0.082063 -0.041617 0.136919
vn -0.431783 0.062765 -0.899791
v 0.076702 -0.031301 0.147667
vn -0.697617 -0.608717 -0.377880
v 0.084462 -0.020728 0.135081
vn -0.148691 -0.266217 0.952376
v 0.019232 0.008412 0.001280
vn -0.446198 -0.756745 0.477750
v 0.038810 0.005206 0.006725
vn -0.519179 -0.852556 0.060018
v 0.031190 0.011315 0.021699
vn -0.523026 -0.851599 0.034987
v 0.022588 0.018778 0.058561
vn -0.531897 -0.846622 0.017790
v 0.049852 0.002384 0.072089
vn -0.487347 -0.809645 -0.327058
v 0.021808 0.019586 0.133662
vn -0.167304 -0.152180 -0.974090
v 0.028157 0.002180 0.146054
vn -0.405486 -0.570600 -0.714140
v 0.034945 0.006413 0.142017
vn -0.506942 -0.788446 -0.348372
v 0.045029 0.004967 0.134561
# 127 vertices, 0 vertices normals

f 2//2 12//12 1//1
f 9//9 12//12 2//2
f 2//2 1//1 3//3
f 92//92 78//78 11//11
f 10//10 11//11 27//27
f 28//28 10//10 27//27
f 73//73 1//1 11//11
f 11//11 1//1 12//12
f 78//78 73//73 11//11
f 92//92 11//11 10//10
f 93//93 92//92 14//14
f 10//10 28//28 37//37
f 13//13 10//10 37//37
f 14//14 92//92 10//10
f 13//13 14//14 10//10
f 4//4 14//14 13//13
f 4//4 15//15 14//14
f 15//15 4//4 46//46
f 15//15 46//46 59//59
f 59//59 57//57 15//15
f 60//60 57//57 58//58
f 16//16 57//57 112//112
f 60//60 112//112 57//57
f 112//112 60//60 6//6
f 22//22 18//18 19//19
f 18//18 22//22 17//17
f 31//31 17//17 24//24
f 27//27 12//12 19//19
f 27//27 19//19 18//18
f 27//27 18//18 34//34
f 34//34 28//28 27//27
f 17//17 21//21 18//18
f 34//34 18//18 21//21
f 21//21 17//17 31//31
f 21//21 31//31 30//30
f 20//20 34//34 21//21
f 20//20 21//21 30//30
f 19//19 12//12 9//9
f 22//22 19//19 9//9
f 26//26 23//23 22//22
f 22//22 9//9 26//26
f 9//9 2//2 26//26
f 119//119 26//26 2//2
f 2//2 3//3 119//119
f 119//119 25//25 26//26
f 17//17 22//22 23//23
f 24//24 17//17 23//23
f 32//32 24//24 23//23
f 25//25 32//32 23//23
f 23//23 26//26 25//25
f 27//27 11//11 12//12
f 39//39 32//32 33//33
f 32//32 25//25 33//33
f 24//24 29//29 31//31
f 32//32 29//29 24//24
f 29//29 32//32 39//39
f 35//35 37//37 28//28
f 35//35 28//28 34//34
f 35//35 34//34 20//20
f 40//40 20//20 30//30
f 20//20 40//40 38//38
f 36//36 38//38 40//40
f 35//35 20//20 38//38
f 37//37 35//35 43//43
f 4//4 37//37 43//43
f 47//47 43//43 35//35
f 36//36 44//44 38//38
f 38//38 47//47 35//35
f 47//47 38//38 44//44
f 37//37 4//4 13//13
f 50//50 39//39 122//122
f 50//50 122//122 8//8
f 30//30 31//31 29//29
f 40//40 30//30 29//29
f 40//40 29//29 42//42
f 41//41 40//40 42//42
f 41//41 36//36 40//40
f 54//54 41//41 42//42
f 29//29 39//39 42//42
f 39//39 50//50 42//42
f 44//44 36//36 45//45
f 45//45 48//48 44//44
f 47//47 46//46 43//43
f 47//47 55//55 46//46
f 47//47 44//44 48//48
f 48//48 55//55 47//47
f 43//43 46//46 4//4
f 49//49 42//42 50//50
f 49//49 50//50 68//68
f 51//51 50//50 124//124
f 51//51 68//68 50//50
f 41//41 45//45 36//36
f 45//45 41//41 52//52
f 54//54 52//52 41//41
f 52//52 54//54 53//53
f 54//54 42//42 49//49
f 49//49 53//53 54//54
f 53//53 49//49 68//68
f 59//59 46//46 55//55
f 59//59 55//55 62//62
f 55//55 56//56 62//62
f 62//62 58//58 59//59
f 48//48 45//45 66//66
f 56//56 55//55 48//48
f 56//56 48//48 66//66
f 63//63 62//62 56//56
f 67//67 56//56 66//66
f 63//63 56//56 67//67
f 57//57 59//59 58//58
f 63//63 58//58 62//62
f 58//58 65//65 60//60
f 6//6 60//60 61//61
f 65//65 61//61 60//60
f 68//68 51//51 64//64
f 65//65 58//58 63//63
f 63//63 67//67 64//64
f 65//65 63//63 64//64
f 51//51 124//124 65//65
f 65//65 64//64 51//51
f 65//65 124//124 61//61
f 66//66 45//45 52//52
f 66//66 52//52 67//67
f 53//53 67//67 52//52
f 64//64 67//67 68//68
f 68//68 67//67 53//53
f 79//79 69//69 74//74
f 69//69 79//79 70//70
f 71//71 74//74 69//69
f 72//72 71//71 69//69
f 72//72 90//90 71//71
f 73//73 79//79 75//75
f 75//75 79//79 74//74
f 82//82 75//75 74//74
f 75//75 82//82 76//76
f 1//1 73//73 75//75
f 1//1 75//75 3//3
f 76//76 3//3 75//75
f 77//77 3//3 76//76
f 84//84 120//120 77//77
f 79//79 73//73 78//78
f 70//70 79//79 78//78
f 82//82 74//74 85//85
f 82//82 85//85 83//83
f 86//86 83//83 85//85
f 76//76 82//82 83//83
f 76//76 83//83 77//77
f 84//84 77//77 83//83
f 85//85 74//74 71//71
f 87//87 85//85 71//71
f 86//86 85//85 87//87
f 87//87 94//94 86//86
f 90//90 87//87 71//71
f 94//94 87//87 90//90
f 84//84 83//83 86//86
f 80//80 84//84 88//88
f 86//86 88//88 84//84
f 88//88 86//86 94//94
f 81//81 80//80 88//88
f 93//93 89//89 70//70
f 72//72 70//70 89//89
f 89//89 98//98 72//72
f 96//96 98//98 89//89
f 70//70 72//72 69//69
f 90//90 72//72 91//91
f 91//91 72//72 98//98
f 100//100 91//91 98//98
f 92//92 70//70 78//78
f 93//93 70//70 92//92
f 90//90 95//95 94//94
f 102//102 94//94 95//95
f 95//95 90//90 91//91
f 102//102 88//88 94//94
f 102//102 95//95 101//101
f 91//91 100//100 95//95
f 100//100 101//101 95//95
f 5//5 88//88 102//102
f 81//81 88//88 5//5
f 123//123 81//81 5//5
f 96//96 89//89 99//99
f 98//98 108//108 100//100
f 98//98 96//96 97//97
f 93//93 14//14 15//15
f 99//99 93//93 15//15
f 89//89 93//93 99//99
f 99//99 15//15 16//16
f 99//99 97//97 96//96
f 101//101 100//100 103//103
f 103//103 104//104 101//101
f 105//105 5//5 102//102
f 105//105 102//102 104//104
f 123//123 5//5 106//106
f 102//102 101//101 104//104
f 103//103 100//100 108//108
f 116//116 103//103 108//108
f 103//103 115//115 104//104
f 116//116 115//115 103//103
f 106//106 5//5 105//105
f 118//118 106//106 105//105
f 105//105 104//104 115//115
f 97//97 107//107 98//98
f 108//108 98//98 107//107
f 107//107 116//116 108//108
f 57//57 16//16 15//15
f 110//110 16//16 112//112
f 16//16 110//110 97//97
f 111//111 110//110 113//113
f 97//97 99//99 16//16
f 107//107 97//97 109//109
f 97//97 110//110 109//109
f 111//111 109//109 110//110
f 113//113 110//110 112//112
f 113//113 112//112 6//6
f 113//113 6//6 125//125
f 114//114 113//113 125//125
f 113//113 114//114 111//111
f 7//7 111//111 114//114
f 107//107 109//109 117//117
f 107//107 117//117 116//116
f 117//117 109//109 111//111
f 115//115 116//116 117//117
f 118//118 127//127 106//106
f 117//117 7//7 118//118
f 117//117 111//111 7//7
f 115//115 117//117 118//118
f 118//118 7//7 127//127
f 115//115 118//118 105//105
f 119//119 3//3 77//77
f 119//119 77//77 120//120
f 121//121 120//120 80//80
f 120//120 25//25 119//119
f 120//120 33//33 25//25
f 33//33 120//120 121//121
f 84//84 80//80 120//120
f 121//121 80//80 81//81
f 122//122 33//33 121//121
f 81//81 123//123 121//121
f 123//123 122//122 121//121
f 39//39 33//33 122//122
f 123//123 8//8 122//122
f 123//123 106//106 127//127
f 127//127 8//8 123//123
f 124//124 8//8 127//127
f 50//50 8//8 124//124
f 125//125 6//6 61//61
f 126//126 114//114 125//125
f 124//124 126//126 61//61
f 127//127 126//126 124//124
f 61//61 126//126 125//125
f 114//114 126//126 127//127
f 7//7 114//114 127//127
# 250 faces, 0 coords texture

# End of File
