####
#
# OBJ File Generated by Meshlab
#
####
# Object nutrigrain_chotolatey_crunch_250_collision.obj
#
# Vertices: 127
# Faces: 250
#
####
vn 0.285424 0.393958 0.873688
v -0.006228 -0.011260 0.003022
vn -0.244001 -0.338982 0.908601
v 0.024048 0.013399 0.002560
vn -0.886038 0.463430 0.013002
v 0.079718 -0.033361 0.057495
vn -0.044872 -0.053248 0.997573
v 0.008399 0.009025 0.000128
vn -0.587114 -0.807789 0.052668
v 0.007414 0.032954 0.021578
vn 0.088302 0.179228 -0.979837
v 0.001010 -0.009532 0.149874
vn 0.543582 0.749657 0.377536
v -0.015951 -0.011001 0.008328
vn 0.598023 0.801237 0.019717
v -0.031853 -0.002717 0.049160
vn 0.602145 0.798279 0.013137
v 0.015237 -0.038218 0.061990
vn 0.607006 0.794447 -0.019931
v -0.016297 -0.013795 0.071546
vn 0.600278 0.798385 -0.047405
v -0.019155 -0.010660 0.102803
vn 0.616032 0.786850 -0.037026
v 0.002790 -0.026261 0.117475
vn 0.597124 0.801677 -0.027502
v -0.039455 0.004470 0.105837
vn 0.598859 0.747411 -0.287654
v 0.004759 -0.027292 0.138631
vn 0.587523 0.799525 -0.124810
v -0.034130 0.001765 0.135670
vn 0.506540 0.675935 -0.535284
v -0.013335 -0.010751 0.142693
vn 0.303335 0.219696 0.927212
v -0.060328 0.028356 0.002092
vn 0.389038 0.553860 0.736131
v -0.043950 0.010520 0.005896
vn 0.623832 0.640817 0.447423
v -0.065156 0.024473 0.007412
vn 0.958425 0.239353 0.155344
v -0.074157 0.032814 0.011337
vn 0.761913 -0.113587 0.637642
v -0.073064 0.040653 0.006598
vn 0.910654 -0.413139 0.004940
v -0.073645 0.040917 0.023373
vn 0.297043 0.401563 0.866321
v -0.022648 0.000037 0.003262
vn 0.109207 0.133708 0.984985
v -0.025066 0.014390 0.000555
vn 0.066122 0.074068 0.995059
v -0.044607 0.032766 0.000114
vn -0.169044 -0.271935 0.947352
v 0.003397 0.026130 0.001556
vn -0.134123 -0.194172 0.971755
v -0.030458 0.043669 0.000502
vn -0.070873 -0.117510 0.990539
v -0.018603 0.031136 0.000285
vn -0.359084 -0.523583 0.772605
v -0.001326 0.035239 0.004715
vn -0.534672 -0.716232 0.448483
v -0.016099 0.048282 0.006987
vn 0.207279 -0.223508 0.952407
v -0.053810 0.055023 0.001412
vn 0.449736 -0.877122 0.168509
v -0.053195 0.066763 0.012060
vn 0.549659 -0.704813 0.448456
v -0.055145 0.064624 0.008723
vn -0.081853 -0.636352 0.767043
v -0.040862 0.062599 0.002862
vn -0.315964 -0.917718 0.240751
v -0.039709 0.068205 0.012589
vn -0.089795 -0.995342 0.035090
v -0.042494 0.070309 0.048395
vn 0.587832 0.806895 0.058085
v -0.048379 0.010769 0.027900
vn 0.747460 0.664075 0.017560
v -0.071163 0.027084 0.031836
vn 0.991634 -0.128953 -0.005697
v -0.074051 0.038435 0.049881
vn 0.847626 -0.530575 0.004498
v -0.071992 0.043645 0.053739
vn 0.649371 0.760301 -0.016131
v -0.065092 0.022842 0.083744
vn 0.971345 0.237527 -0.008372
v -0.074136 0.032927 0.041447
vn -0.568752 -0.821052 0.048936
v -0.032344 0.064388 0.041164
vn 0.530512 -0.847391 0.022024
v -0.053208 0.068116 0.064812
vn -0.593106 -0.804734 0.025095
v -0.021716 0.058002 0.077709
vn -0.374097 -0.926697 0.035824
v -0.038013 0.069818 0.081925
vn 0.947311 0.319963 -0.015034
v -0.073328 0.032574 0.087239
vn 0.945909 -0.324310 0.008947
v -0.073513 0.040845 0.101869
vn 0.702281 -0.711791 0.012430
v -0.054195 0.067806 0.097944
vn 0.770913 0.628973 -0.100429
v -0.070396 0.028983 0.130726
vn 0.835810 -0.547328 -0.043061
v -0.071108 0.046255 0.121871
vn 0.993442 -0.047582 -0.103964
v -0.073883 0.039586 0.133135
vn -0.392601 -0.919538 0.017703
v -0.038138 0.071296 0.110318
vn -0.608884 -0.793063 -0.017635
v -0.015901 0.054296 0.116418
vn 0.207971 -0.977843 0.023905
v -0.047601 0.071249 0.102670
vn 0.017414 -0.953904 -0.299606
v -0.044936 0.072722 0.136050
vn 0.798592 0.431556 -0.419535
v -0.070551 0.031586 0.141072
vn 0.594153 -0.765729 -0.246254
v -0.053041 0.068759 0.136441
vn 0.697041 -0.158531 -0.699287
v -0.068771 0.043865 0.147036
vn 0.504804 0.635280 -0.584459
v -0.044276 0.012338 0.143192
vn 0.158425 0.183921 -0.970090
v -0.030703 0.016243 0.151187
vn 0.134403 -0.433402 -0.891122
v -0.047021 0.059461 0.150095
vn -0.239829 -0.299743 -0.923383
v -0.009214 0.036274 0.147730
vn -0.328150 -0.674358 -0.661482
v -0.035078 0.065711 0.145251
vn -0.526850 -0.835236 -0.157512
v -0.032641 0.067202 0.138352
vn -0.004820 0.460981 0.887397
v 0.053445 -0.055774 0.002502
vn 0.610639 0.760044 0.222380
v 0.026293 -0.043676 0.009768
vn 0.452719 0.578663 0.678377
v 0.034993 -0.048929 0.006251
vn -0.103169 0.905439 0.411747
v 0.054300 -0.059065 0.005929
vn 0.410332 0.800457 0.436917
v 0.044245 -0.058314 0.008432
vn 0.255207 0.965668 0.048523
v 0.047352 -0.061689 0.031105
vn 0.036022 0.078418 0.996270
v 0.044749 -0.032893 -0.000516
vn 0.083988 0.104150 0.991009
v 0.019053 -0.017189 0.000717
vn -0.039957 -0.085204 0.995562
v 0.027375 -0.002893 0.000261
vn -0.081226 -0.103222 0.991336
v 0.050159 -0.017519 -0.000341
vn -0.268933 -0.368881 0.889720
v 0.047996 -0.003453 0.002324
vn 0.549581 0.680108 0.485195
v 0.007764 -0.028864 0.008712
vn 0.291161 0.342476 0.893272
v 0.016061 -0.028030 0.003235
vn 0.509666 0.594766 0.621686
v 0.016378 -0.034063 0.006041
vn 0.606109 0.793318 0.057254
v 0.002410 -0.026248 0.030019
vn -0.510540 -0.709428 0.485862
v 0.041843 0.006014 0.006351
vn -0.444177 0.019840 0.895719
v 0.072742 -0.026494 0.001485
vn -0.944832 -0.130339 0.300505
v 0.080110 -0.026130 0.009861
vn -0.891830 0.314881 0.324791
v 0.078639 -0.033465 0.009075
vn -0.694949 -0.617001 0.369264
v 0.076258 -0.018063 0.007617
vn 0.208692 0.977951 0.007759
v 0.047920 -0.062156 0.056214
vn -0.618451 0.717408 0.320694
v 0.061141 -0.057409 0.009007
vn -0.791070 0.611696 0.005919
v 0.072823 -0.042841 0.055957
vn -0.454761 0.890448 0.017169
v 0.059081 -0.059643 0.053105
vn -0.999601 -0.022303 0.017313
v 0.080841 -0.026954 0.054626
vn -0.646236 0.763132 0.002845
v 0.060109 -0.059056 0.083844
vn -0.854411 -0.519352 0.015966
v 0.078915 -0.020875 0.041116
vn -0.665083 -0.746497 0.020160
v 0.074918 -0.016311 0.033744
vn -0.074444 0.997203 -0.006591
v 0.053056 -0.062069 0.087346
vn 0.451894 0.892026 -0.009025
v 0.044942 -0.060510 0.082492
vn 0.500427 0.865450 -0.023844
v 0.044105 -0.059810 0.116821
vn 0.612869 0.789756 -0.026015
v 0.006392 -0.031296 0.089659
vn 0.191053 0.937184 -0.291863
v 0.048106 -0.061318 0.139430
vn -0.927513 0.373594 0.012147
v 0.080896 -0.031804 0.104679
vn -0.642504 -0.766145 0.014507
v 0.071364 -0.012281 0.080394
vn -0.834118 -0.551553 0.006037
v 0.078543 -0.017555 0.107892
vn -0.796602 0.604470 0.006479
v 0.071527 -0.044555 0.101247
vn -0.872981 0.428955 -0.232167
v 0.079934 -0.034530 0.136344
vn -0.553531 0.810999 -0.189432
v 0.060482 -0.058889 0.138143
vn -0.190934 0.461421 -0.866392
v 0.055749 -0.052445 0.150737
vn 0.561993 0.722807 -0.402137
v 0.032638 -0.049710 0.140779
vn 0.327227 0.412764 -0.850028
v 0.018299 -0.029712 0.146913
vn -0.172440 -0.155208 -0.972715
v 0.010985 0.009559 0.150387
vn 0.024904 -0.053937 -0.998234
v 0.036328 -0.016797 0.148941
vn -0.300552 -0.401869 -0.864968
v 0.042828 0.002802 0.144635
vn -0.368045 -0.215015 -0.904606
v 0.069172 -0.026169 0.151332
vn -0.905164 -0.097563 -0.413715
v 0.080488 -0.023877 0.140460
vn -0.999253 -0.033728 -0.018874
v 0.082186 -0.026973 0.121558
vn -0.649196 -0.678763 -0.343257
v 0.077358 -0.016159 0.137275
vn -0.577572 -0.793715 0.190859
v 0.008543 0.031935 0.012225
vn -0.591427 -0.804311 0.057420
v 0.049599 0.001739 0.017472
vn -0.599737 -0.799334 0.037158
v 0.036531 0.013473 0.048116
vn -0.604641 -0.796351 0.015308
v 0.038856 0.012211 0.071925
vn -0.598620 -0.800221 0.036055
v -0.000154 0.041300 0.057594
vn -0.603087 -0.797659 0.005087
v 0.006858 0.037115 0.093710
vn -0.594425 -0.781542 -0.189341
v 0.009095 0.034693 0.134032
vn -0.600450 -0.799613 -0.008824
v 0.037255 0.013873 0.109713
vn -0.606129 -0.795164 -0.017923
v 0.016769 0.029044 0.115257
vn -0.467887 -0.599343 -0.649516
v 0.022042 0.021201 0.142920
vn -0.439411 -0.551650 -0.708943
v 0.008574 0.030205 0.144707
vn -0.578045 -0.775818 -0.252925
v 0.051050 0.002539 0.136949
vn -0.565619 -0.710011 -0.419475
v -0.007453 0.045761 0.140766
# 127 vertices, 0 vertices normals

f 24//24 23//23 1//1
f 24//24 1//1 73//73
f 80//80 77//77 7//7
f 7//7 23//23 18//18
f 7//7 18//18 37//37
f 7//7 37//37 8//8
f 23//23 7//7 1//1
f 7//7 77//77 1//1
f 8//8 80//80 7//7
f 9//9 80//80 8//8
f 97//97 9//9 10//10
f 13//13 10//10 8//8
f 9//9 8//8 10//10
f 13//13 11//11 10//10
f 11//11 97//97 10//10
f 15//15 11//11 13//13
f 97//97 11//11 12//12
f 15//15 16//16 11//11
f 12//12 11//11 14//14
f 14//14 11//11 16//16
f 61//61 6//6 16//16
f 31//31 21//21 17//17
f 31//31 17//17 25//25
f 18//18 17//17 19//19
f 20//20 38//38 19//19
f 38//38 20//20 42//42
f 37//37 19//19 38//38
f 20//20 21//21 22//22
f 42//42 20//20 39//39
f 39//39 20//20 22//22
f 21//21 20//20 19//19
f 17//17 21//21 19//19
f 21//21 31//31 33//33
f 22//22 21//21 33//33
f 25//25 18//18 24//24
f 18//18 23//23 24//24
f 25//25 17//17 18//18
f 25//25 24//24 28//28
f 4//4 24//24 73//73
f 28//28 24//24 4//4
f 28//28 4//4 26//26
f 25//25 28//28 27//27
f 27//27 31//31 25//25
f 31//31 27//27 34//34
f 30//30 34//34 27//27
f 30//30 27//27 29//29
f 27//27 28//28 29//29
f 29//29 28//28 26//26
f 37//37 18//18 19//19
f 30//30 29//29 115//115
f 30//30 115//115 5//5
f 43//43 30//30 5//5
f 22//22 33//33 32//32
f 31//31 34//34 33//33
f 32//32 33//33 34//34
f 32//32 34//34 35//35
f 35//35 34//34 30//30
f 35//35 30//30 43//43
f 35//35 36//36 32//32
f 36//36 35//35 43//43
f 8//8 37//37 41//41
f 41//41 37//37 38//38
f 40//40 39//39 22//22
f 41//41 38//38 47//47
f 42//42 47//47 38//38
f 40//40 44//44 49//49
f 119//119 43//43 5//5
f 45//45 119//119 120//120
f 22//22 32//32 40//40
f 40//40 32//32 44//44
f 44//44 32//32 36//36
f 46//46 43//43 45//45
f 46//46 36//36 43//43
f 55//55 44//44 36//36
f 43//43 119//119 45//45
f 41//41 47//47 50//50
f 47//47 42//42 39//39
f 47//47 39//39 48//48
f 48//48 39//39 40//40
f 49//49 48//48 40//40
f 51//51 48//48 49//49
f 50//50 15//15 41//41
f 52//52 50//50 47//47
f 48//48 52//52 47//47
f 51//51 52//52 48//48
f 8//8 41//41 13//13
f 54//54 45//45 120//120
f 13//13 41//41 15//15
f 54//54 120//120 123//123
f 54//54 123//123 121//121
f 44//44 55//55 49//49
f 55//55 58//58 49//49
f 51//51 49//49 58//58
f 56//56 58//58 55//55
f 55//55 36//36 46//46
f 53//53 45//45 54//54
f 55//55 46//46 53//53
f 46//46 45//45 53//53
f 55//55 53//53 56//56
f 65//65 53//53 54//54
f 56//56 53//53 65//65
f 15//15 50//50 60//60
f 57//57 60//60 50//50
f 57//57 59//59 60//60
f 50//50 52//52 57//57
f 57//57 52//52 59//59
f 52//52 51//51 59//59
f 58//58 59//59 51//51
f 62//62 59//59 58//58
f 60//60 16//16 15//15
f 16//16 60//60 61//61
f 61//61 60//60 59//59
f 108//108 6//6 61//61
f 63//63 125//125 108//108
f 108//108 61//61 63//63
f 59//59 62//62 61//61
f 63//63 61//61 62//62
f 62//62 64//64 63//63
f 127//127 65//65 54//54
f 64//64 65//65 127//127
f 127//127 54//54 121//121
f 127//127 63//63 64//64
f 56//56 62//62 58//58
f 56//56 65//65 64//64
f 64//64 62//62 56//56
f 71//71 70//70 67//67
f 70//70 66//66 68//68
f 70//70 68//68 67//67
f 66//66 70//70 69//69
f 70//70 71//71 69//69
f 87//87 69//69 71//71
f 69//69 87//87 66//66
f 89//89 87//87 71//71
f 73//73 78//78 72//72
f 66//66 72//72 78//78
f 1//1 78//78 73//73
f 73//73 74//74 4//4
f 4//4 74//74 2//2
f 74//74 73//73 72//72
f 74//74 72//72 75//75
f 2//2 74//74 76//76
f 74//74 75//75 76//76
f 75//75 82//82 76//76
f 79//79 68//68 78//78
f 67//67 68//68 79//79
f 78//78 1//1 77//77
f 78//78 77//77 79//79
f 67//67 79//79 77//77
f 71//71 67//67 80//80
f 80//80 67//67 77//77
f 68//68 66//66 78//78
f 116//116 81//81 85//85
f 72//72 66//66 82//82
f 75//75 72//72 82//82
f 76//76 82//82 85//85
f 66//66 87//87 82//82
f 84//84 82//82 87//87
f 83//83 82//82 84//84
f 85//85 82//82 83//83
f 92//92 83//83 90//90
f 76//76 85//85 81//81
f 85//85 83//83 92//92
f 93//93 85//85 92//92
f 116//116 85//85 93//93
f 94//94 86//86 95//95
f 86//86 71//71 9//9
f 9//9 95//95 86//86
f 88//88 87//87 89//89
f 88//88 3//3 87//87
f 89//89 71//71 86//86
f 89//89 86//86 94//94
f 89//89 91//91 88//88
f 91//91 89//89 94//94
f 71//71 80//80 9//9
f 87//87 3//3 84//84
f 90//90 83//83 84//84
f 3//3 90//90 84//84
f 92//92 100//100 93//93
f 117//117 93//93 100//100
f 95//95 9//9 97//97
f 96//96 95//95 97//97
f 94//94 95//95 96//96
f 98//98 94//94 96//96
f 102//102 88//88 91//91
f 104//104 91//91 94//94
f 102//102 91//91 104//104
f 98//98 104//104 94//94
f 103//103 102//102 104//104
f 96//96 97//97 12//12
f 106//106 96//96 12//12
f 106//106 12//12 14//14
f 102//102 3//3 88//88
f 102//102 99//99 3//3
f 99//99 90//90 3//3
f 90//90 99//99 113//113
f 101//101 92//92 90//90
f 101//101 90//90 113//113
f 100//100 92//92 101//101
f 99//99 102//102 103//103
f 113//113 99//99 103//103
f 113//113 112//112 101//101
f 122//122 100//100 101//101
f 122//122 101//101 114//114
f 122//122 114//114 126//126
f 114//114 101//101 112//112
f 106//106 98//98 96//96
f 106//106 105//105 98//98
f 105//105 104//104 98//98
f 14//14 107//107 106//106
f 14//14 16//16 107//107
f 107//107 109//109 105//105
f 107//107 105//105 106//106
f 105//105 109//109 111//111
f 107//107 16//16 6//6
f 109//109 107//107 6//6
f 108//108 110//110 6//6
f 110//110 109//109 6//6
f 111//111 109//109 110//110
f 103//103 104//104 105//105
f 103//103 105//105 112//112
f 105//105 111//111 112//112
f 112//112 113//113 103//103
f 126//126 114//114 110//110
f 111//111 114//114 112//112
f 110//110 114//114 111//111
f 26//26 4//4 2//2
f 26//26 2//2 29//29
f 81//81 29//29 2//2
f 81//81 115//115 29//29
f 116//116 115//115 81//81
f 5//5 115//115 116//116
f 5//5 116//116 117//117
f 2//2 76//76 81//81
f 119//119 5//5 117//117
f 118//118 119//119 117//117
f 93//93 117//117 116//116
f 118//118 117//117 100//100
f 120//120 119//119 118//118
f 120//120 118//118 122//122
f 120//120 122//122 123//123
f 122//122 118//118 100//100
f 121//121 123//123 126//126
f 123//123 122//122 126//126
f 125//125 121//121 124//124
f 108//108 124//124 110//110
f 108//108 125//125 124//124
f 124//124 126//126 110//110
f 126//126 124//124 121//121
f 125//125 127//127 121//121
f 127//127 125//125 63//63
# 250 faces, 0 coords texture

# End of File
