####
#
# OBJ File Generated by Meshlab
#
####
# Object nutrigrain_chotolatey_crunch_250_collision.obj
#
# Vertices: 127
# Faces: 250
#
####
vn 0.934085 -0.244151 -0.260528
v 0.084149 -0.031311 0.006716
vn 0.372838 0.878600 -0.298419
v -0.035225 0.074364 0.006349
vn -0.341544 -0.891019 -0.299052
v 0.046683 -0.064579 0.005871
vn 0.810665 -0.583949 0.042723
v 0.071520 -0.044851 0.135126
vn 0.547514 0.627945 -0.553094
v 0.076321 -0.013313 0.005871
vn -0.616467 -0.783920 0.073745
v -0.064579 0.026432 0.135029
vn 0.693953 -0.698417 -0.175052
v 0.064579 -0.058708 0.006139
vn 0.616328 0.787309 0.016885
v 0.073766 -0.012008 0.132582
vn -0.819360 -0.418330 -0.391983
v -0.074364 0.030888 0.005871
vn -0.347901 0.476248 -0.807560
v -0.052697 0.070603 0.005871
vn -0.297293 -0.530915 0.793565
v 0.048923 -0.053816 0.147891
vn -0.695956 -0.675061 0.244824
v -0.070406 0.031777 0.140694
vn 0.624638 0.331389 -0.707113
v 0.082191 -0.019278 0.005871
vn 0.763594 -0.562447 -0.317140
v 0.076321 -0.045010 0.006322
vn 0.307794 -0.949055 0.067507
v 0.058705 -0.060148 0.132117
vn 0.501896 0.634614 -0.587678
v 0.067076 -0.005871 0.005871
vn 0.109544 0.980661 -0.162188
v -0.042450 0.076321 0.009785
vn -0.613023 -0.789356 0.033478
v -0.062856 0.023483 0.103718
vn -0.091038 -0.989118 0.115573
v 0.051019 -0.060623 0.136205
vn -0.726879 0.486940 -0.484290
v -0.074364 0.044907 0.005871
vn 0.369416 0.461424 0.806610
v 0.066536 -0.011742 0.146542
vn -0.082067 -0.190337 0.978283
v 0.050556 -0.053401 0.148683
vn 0.956979 -0.281536 0.070209
v 0.082306 -0.027774 0.131115
vn 0.250212 -0.200504 -0.947202
v 0.074364 -0.046092 0.005871
vn 0.868060 -0.492191 0.064959
v 0.080239 -0.032426 0.137498
vn 0.359275 -0.922818 -0.139028
v 0.058708 -0.062622 0.006919
vn 0.571719 0.818550 0.055800
v -0.033268 0.068986 0.136986
vn -0.038611 0.990192 0.134273
v -0.042978 0.073352 0.139347
vn -0.511082 0.858601 0.040006
v -0.049902 0.071609 0.128180
vn 0.448754 0.891689 0.059255
v -0.037184 0.071383 0.137127
vn -0.968772 -0.247329 0.017577
v -0.074943 0.033268 0.011742
vn -0.907987 -0.417368 0.036915
v -0.071841 0.033268 0.125244
vn -0.692703 -0.720809 0.024417
v -0.068093 0.027479 0.099899
vn -0.549027 -0.834569 0.045425
v 0.045010 -0.057127 0.135029
vn 0.106567 -0.992413 0.061315
v 0.054794 -0.061246 0.129158
vn 0.174908 0.294861 -0.939396
v -0.032866 0.072407 0.005871
vn -0.949867 0.162015 -0.267400
v -0.076321 0.041096 0.006397
vn -0.447940 -0.242953 0.860421
v -0.067112 0.037100 0.147836
vn -0.390950 -0.533643 0.749922
v 0.043053 -0.051521 0.146770
vn -0.628005 -0.376261 0.681203
v -0.065896 0.029188 0.142845
vn -0.602608 -0.792260 0.095854
v 0.042074 -0.054768 0.137964
vn 0.885307 -0.349768 0.306421
v 0.080382 -0.030534 0.141501
vn 0.050730 0.101436 0.993548
v -0.036121 0.063529 0.148104
vn 0.262434 0.335233 0.904847
v 0.007828 0.031311 0.147954
vn 0.334210 -0.517364 -0.787806
v 0.062622 -0.060327 0.005871
vn 0.515243 -0.185067 -0.836824
v 0.082191 -0.034785 0.005871
vn 0.821924 -0.568569 0.034216
v 0.078707 -0.035225 0.129158
vn 0.691926 -0.721078 0.035851
v 0.061068 -0.058708 0.133072
vn 0.558596 0.755835 0.341590
v -0.029354 0.064712 0.143162
vn -0.339701 0.939263 0.048877
v -0.046967 0.072825 0.129158
vn 0.273725 0.961202 0.034144
v -0.041096 0.073330 0.129158
vn -0.009375 0.999841 -0.015154
v -0.045010 0.076675 0.011742
vn -0.312014 0.932474 -0.182046
v -0.047380 0.076321 0.009785
vn 0.224410 0.915926 0.332746
v -0.040706 0.072458 0.141784
vn -0.952568 -0.301993 0.037614
v -0.072675 0.035225 0.121330
vn -0.821628 -0.569247 0.029760
v -0.071772 0.031311 0.093933
vn -0.518961 -0.661018 -0.541974
v -0.011542 -0.019569 0.005871
vn -0.590614 -0.804812 0.058754
v 0.042524 -0.055422 0.135211
vn -0.538853 -0.831178 0.137044
v 0.046177 -0.057571 0.140432
vn -0.071055 -0.996180 0.050755
v 0.052837 -0.061101 0.131115
vn -0.956133 0.281602 0.080681
v -0.072575 0.041095 0.135375
vn -0.988573 -0.119485 -0.091902
v -0.076321 0.039140 0.006904
vn -0.535165 0.465695 -0.704788
v -0.056751 0.066165 0.005871
vn -0.797146 0.603278 0.024791
v -0.055124 0.066536 0.131115
vn -0.368591 -0.416687 0.830971
v -0.060665 0.029354 0.146851
vn -0.442780 -0.586025 0.678616
v 0.043053 -0.052837 0.145717
vn -0.480043 -0.599457 0.640476
v -0.074201 0.036724 0.144617
vn -0.585413 -0.769930 0.253967
v 0.041096 -0.052989 0.142857
vn 0.794130 0.328117 0.511563
v 0.080513 -0.020569 0.144039
vn 0.517423 0.599269 0.610860
v 0.073354 -0.014417 0.144741
vn 0.238144 0.337132 0.910840
v -0.035225 0.064579 0.147797
vn 0.042226 0.007089 0.999083
v 0.064581 -0.033044 0.148324
vn -0.090137 -0.113289 0.989465
v 0.013153 -0.023483 0.148798
vn -0.304010 -0.401656 0.863858
v 0.043053 -0.048923 0.148257
vn 0.487788 -0.122530 0.864320
v 0.076936 -0.026614 0.147489
vn 0.996705 -0.070490 0.040140
v 0.082631 -0.025442 0.132993
vn 0.967151 0.180420 -0.179073
v 0.084148 -0.023483 0.006932
vn 0.991130 0.038983 0.127054
v 0.082361 -0.023587 0.138953
vn 0.568414 -0.822588 0.015914
v 0.060665 -0.059042 0.133072
vn 0.206133 -0.120121 -0.971123
v 0.080235 -0.038537 0.005871
vn 0.753004 -0.656717 0.041329
v 0.062622 -0.056981 0.133072
vn 0.892223 0.450167 0.035884
v 0.081396 -0.019568 0.127591
vn 0.686447 0.718017 0.115077
v 0.078341 -0.015735 0.136992
vn -0.246918 0.967795 0.049036
v -0.045010 0.073184 0.133072
vn -0.459465 -0.544946 -0.701374
v -0.071095 0.027979 0.005871
vn -0.038372 -0.999008 0.022617
v 0.046967 -0.064579 0.006811
vn 0.129853 -0.932880 -0.335967
v 0.050872 -0.064582 0.006610
vn -0.874968 0.479572 0.066642
v -0.070873 0.045015 0.136281
vn -0.734574 0.677404 0.039048
v -0.053545 0.068526 0.132843
vn -0.202828 -0.257464 0.944761
v 0.011742 -0.023483 0.148604
vn -0.308125 -0.369217 0.876777
v -0.059687 0.030333 0.147696
vn -0.353365 -0.475724 0.805494
v 0.043053 -0.050880 0.147173
vn 0.246384 -0.206215 0.946979
v 0.059995 -0.051586 0.148338
vn 0.022092 0.030018 0.999305
v 0.005399 0.010734 0.149377
vn 0.367702 0.477926 0.797735
v 0.005871 0.033268 0.147693
vn 0.027700 0.005934 0.999599
v 0.035225 -0.020059 0.148944
vn 0.144655 0.124721 0.981590
v 0.077317 -0.024366 0.147716
vn 0.771592 -0.617957 0.150917
v 0.063953 -0.055062 0.138253
vn 0.590989 0.743733 0.312400
v 0.071376 -0.011742 0.142857
vn -0.343163 0.473754 0.811046
v -0.048778 0.066504 0.146551
vn 0.507694 0.806472 0.303069
v -0.035292 0.069918 0.141079
vn -0.260912 -0.296564 0.918681
v -0.060665 0.032290 0.148130
vn 0.017786 0.001076 0.999841
v 0.005271 0.009462 0.149402
vn 0.393130 0.599681 0.697016
v -0.035093 0.066033 0.146900
vn 0.514202 0.717268 0.470236
v -0.029354 0.063864 0.144814
vn 0.075066 0.482663 0.872583
v -0.040093 0.067608 0.147755
vn -0.083348 -0.075646 0.993645
v -0.058708 0.032290 0.148481
vn -0.477520 0.796528 0.370834
v -0.049769 0.070758 0.142227
vn -0.514930 0.142630 0.845283
v -0.066553 0.040518 0.148578
vn -0.887481 0.290280 0.357931
v -0.070724 0.043358 0.143291
vn -0.747659 -0.663443 0.029140
v -0.070322 0.029492 0.093933
vn -0.991362 -0.018434 0.129854
v -0.072761 0.038858 0.137630
vn -0.974876 -0.219200 0.039594
v -0.073038 0.037132 0.126744
vn -0.796651 0.595731 0.102231
v -0.066504 0.051008 0.137122
vn -0.448639 -0.740312 0.500660
v 0.047082 -0.056828 0.144834
vn 0.419318 0.413809 0.808044
v 0.068004 -0.014188 0.147098
vn 0.110291 0.141165 0.983823
v 0.014119 0.023893 0.148523
vn -0.032434 -0.038000 0.998751
v -0.011448 0.001549 0.149137
vn 0.021077 0.053805 0.998329
v -0.037671 0.017612 0.148752
vn 0.129510 -0.727968 0.673267
v 0.056401 -0.057479 0.147050
vn -0.917758 -0.312296 0.245338
v -0.070671 0.032294 0.139288
vn -0.018073 -0.012781 0.999755
v -0.057150 0.043359 0.148871
vn 0.500028 -0.853037 0.149328
v 0.060126 -0.059358 0.136562
vn 0.653527 -0.561436 0.507635
v 0.061880 -0.053953 0.145186
vn 0.659252 -0.751848 -0.010586
v 0.005442 0.010759 0.149406
vn -0.012478 -0.014256 0.999821
v -0.005578 0.007675 0.149368
vn -0.129765 -0.957953 0.255904
v 0.051903 -0.060069 0.140447
# 127 vertices, 0 vertices normals

f 8//8 2//2 27//27
f 17//17 2//2 53//53
f 18//18 58//58 6//6
f 18//18 3//3 58//58
f 18//18 57//57 3//3
f 10//10 53//53 2//2
f 89//89 53//53 10//10
f 23//23 1//1 76//76
f 77//77 1//1 13//13
f 77//77 13//13 82//82
f 8//8 5//5 16//16
f 8//8 16//16 2//2
f 30//30 27//27 2//2
f 31//31 113//113 62//62
f 31//31 62//62 9//9
f 33//33 57//57 18//18
f 33//33 18//18 6//6
f 35//35 26//26 15//15
f 36//36 10//10 2//2
f 36//36 2//2 16//16
f 37//37 20//20 9//9
f 37//37 9//9 62//62
f 37//37 88//88 20//20
f 63//63 89//89 10//10
f 63//63 20//20 89//89
f 114//114 20//20 88//88
f 40//40 12//12 115//115
f 59//59 6//6 41//41
f 41//41 6//6 58//58
f 45//45 24//24 14//14
f 45//45 14//14 7//7
f 46//46 13//13 1//1
f 47//47 14//14 25//25
f 1//1 42//42 25//25
f 1//1 23//23 42//42
f 83//83 13//13 5//5
f 83//83 27//27 101//101
f 51//51 2//2 17//17
f 51//51 30//30 2//2
f 52//52 17//17 53//53
f 52//52 51//51 17//17
f 52//52 28//28 51//51
f 30//30 101//101 27//27
f 55//55 31//31 9//9
f 55//55 113//113 31//31
f 55//55 9//9 32//32
f 56//56 32//32 9//9
f 58//58 3//3 34//34
f 59//59 34//34 3//3
f 87//87 26//26 35//35
f 64//64 20//20 114//114
f 38//38 109//109 121//121
f 66//66 39//39 67//67
f 66//66 67//67 115//115
f 67//67 40//40 115//115
f 68//68 115//115 12//12
f 12//12 59//59 68//68
f 104//104 21//21 70//70
f 125//125 22//22 96//96
f 74//74 11//11 22//22
f 74//74 91//91 65//65
f 78//78 23//23 76//76
f 42//42 23//23 78//78
f 76//76 1//1 77//77
f 78//78 76//76 77//77
f 79//79 15//15 26//26
f 79//79 26//26 45//45
f 79//79 45//45 7//7
f 79//79 7//7 48//48
f 80//80 24//24 45//45
f 80//80 14//14 24//24
f 80//80 25//25 14//14
f 80//80 13//13 46//46
f 80//80 46//46 1//1
f 80//80 1//1 25//25
f 80//80 5//5 13//13
f 80//80 45//45 3//3
f 80//80 16//16 5//5
f 80//80 3//3 57//57
f 80//80 36//36 16//16
f 80//80 57//57 85//85
f 80//80 63//63 10//10
f 80//80 10//10 36//36
f 80//80 85//85 9//9
f 80//80 9//9 20//20
f 80//80 20//20 63//63
f 4//4 47//47 25//25
f 81//81 48//48 7//7
f 81//81 7//7 14//14
f 82//82 13//13 83//83
f 83//83 5//5 8//8
f 84//84 53//53 50//50
f 84//84 52//52 53//53
f 84//84 28//28 52//52
f 53//53 29//29 50//50
f 89//89 29//29 53//53
f 101//101 30//30 54//54
f 108//108 54//54 28//28
f 101//101 54//54 106//106
f 121//121 32//32 56//56
f 85//85 57//57 33//33
f 85//85 33//33 9//9
f 19//19 59//59 3//3
f 86//86 60//60 3//3
f 86//86 35//35 60//60
f 87//87 45//45 26//26
f 87//87 3//3 45//45
f 88//88 37//37 61//61
f 112//112 61//61 37//37
f 112//112 37//37 62//62
f 112//112 62//62 113//113
f 89//89 20//20 64//64
f 90//90 74//74 22//22
f 40//40 65//65 38//38
f 38//38 65//65 102//102
f 91//91 102//102 65//65
f 91//91 90//90 102//102
f 91//91 74//74 90//90
f 67//67 39//39 65//65
f 67//67 65//65 40//40
f 92//92 65//65 39//39
f 92//92 39//39 11//11
f 92//92 74//74 65//65
f 92//92 11//11 74//74
f 115//115 11//11 39//39
f 115//115 39//39 66//66
f 12//12 33//33 6//6
f 59//59 115//115 68//68
f 12//12 6//6 59//59
f 59//59 58//58 34//34
f 59//59 41//41 58//58
f 116//116 21//21 44//44
f 94//94 43//43 122//122
f 43//43 71//71 106//106
f 117//117 71//71 43//43
f 117//117 44//44 71//71
f 104//104 106//106 71//71
f 95//95 44//44 21//21
f 95//95 21//21 104//104
f 95//95 104//104 71//71
f 95//95 71//71 44//44
f 104//104 101//101 106//106
f 96//96 72//72 103//103
f 72//72 96//96 93//93
f 103//103 97//97 94//94
f 127//127 115//115 59//59
f 120//120 93//93 22//22
f 120//120 22//22 11//11
f 77//77 82//82 78//78
f 4//4 14//14 47//47
f 98//98 81//81 14//14
f 98//98 14//14 4//4
f 123//123 48//48 81//81
f 99//99 101//101 49//49
f 70//70 116//116 69//69
f 70//70 21//21 116//116
f 8//8 27//27 83//83
f 70//70 69//69 83//83
f 83//83 99//99 70//70
f 83//83 101//101 99//99
f 108//108 29//29 89//89
f 108//108 50//50 29//29
f 110//110 121//121 109//109
f 54//54 51//51 28//28
f 54//54 30//30 51//51
f 111//111 56//56 9//9
f 19//19 3//3 60//60
f 19//19 60//60 35//35
f 87//87 35//35 86//86
f 87//87 86//86 3//3
f 102//102 90//90 107//107
f 73//73 107//107 90//90
f 38//38 102//102 107//107
f 121//121 40//40 38//38
f 122//122 109//109 38//38
f 40//40 121//121 12//12
f 75//75 93//93 124//124
f 43//43 94//94 117//117
f 117//117 94//94 97//97
f 103//103 94//94 122//122
f 105//105 104//104 70//70
f 105//105 101//101 104//104
f 22//22 93//93 96//96
f 100//100 109//109 106//106
f 22//22 118//118 73//73
f 126//126 22//22 125//125
f 118//118 126//126 122//122
f 118//118 119//119 73//73
f 120//120 115//115 127//127
f 120//120 11//11 115//115
f 15//15 19//19 35//35
f 15//15 123//123 19//19
f 123//123 15//15 79//79
f 69//69 78//78 82//82
f 25//25 98//98 4//4
f 123//123 81//81 98//98
f 70//70 99//99 105//105
f 83//83 69//69 82//82
f 108//108 28//28 84//84
f 114//114 89//89 64//64
f 108//108 84//84 50//50
f 106//106 108//108 100//100
f 106//106 54//54 108//108
f 109//109 100//100 108//108
f 114//114 110//110 108//108
f 110//110 112//112 121//121
f 49//49 101//101 105//105
f 49//49 105//105 99//99
f 121//121 55//55 32//32
f 121//121 56//56 111//111
f 111//111 9//9 33//33
f 111//111 33//33 121//121
f 113//113 121//121 112//112
f 113//113 55//55 121//121
f 114//114 88//88 110//110
f 61//61 110//110 88//88
f 22//22 73//73 90//90
f 124//124 98//98 42//42
f 123//123 79//79 48//48
f 69//69 75//75 42//42
f 75//75 97//97 103//103
f 124//124 42//42 75//75
f 126//126 125//125 103//103
f 126//126 103//103 122//122
f 103//103 125//125 96//96
f 106//106 122//122 43//43
f 97//97 44//44 117//117
f 97//97 116//116 44//44
f 118//118 22//22 126//126
f 110//110 109//109 108//108
f 61//61 112//112 110//110
f 127//127 59//59 19//19
f 119//119 38//38 107//107
f 119//119 107//107 73//73
f 119//119 118//118 122//122
f 119//119 122//122 38//38
f 109//109 122//122 106//106
f 12//12 121//121 33//33
f 75//75 116//116 97//97
f 75//75 69//69 116//116
f 124//124 93//93 120//120
f 98//98 25//25 42//42
f 124//124 120//120 123//123
f 72//72 93//93 75//75
f 75//75 103//103 72//72
f 127//127 19//19 123//123
f 42//42 78//78 69//69
f 108//108 89//89 114//114
f 127//127 123//123 120//120
f 123//123 98//98 124//124
# 250 faces, 0 coords texture

# End of File
