####
#
# OBJ File Generated by Meshlab
#
####
# Object mahatma_rice_250_collision.obj
#
# Vertices: 127
# Faces: 250
#
####
vn -0.432970 -0.894601 -0.110569
v -0.013819 -0.148780 0.015532
vn 0.966295 -0.035618 -0.254961
v 0.121330 -0.099631 0.025440
vn 0.116370 0.233699 -0.965320
v 0.034921 0.082191 0.005871
vn -0.722356 0.347368 -0.597945
v -0.097847 0.070450 0.022186
vn 0.825401 0.410192 -0.387886
v 0.039139 0.114977 0.029354
vn 0.197709 0.016045 -0.980129
v 0.089144 -0.050880 0.005871
vn -0.184357 0.003861 -0.982852
v -0.082191 0.040692 0.005871
vn -0.114886 0.376229 -0.919376
v -0.019569 0.086885 0.005871
vn 0.365490 -0.122546 0.922713
v 0.121330 -0.095890 0.030651
vn 0.176315 -0.281979 -0.943080
v 0.054573 -0.121448 0.007879
vn -0.822196 0.039075 -0.567862
v -0.095890 0.058079 0.013699
vn 0.598553 0.251373 -0.760622
v 0.052837 0.049878 0.005871
vn 0.881714 0.303381 -0.361305
v 0.119373 -0.090019 0.025702
vn -0.009426 -0.899149 0.437541
v -0.011742 -0.148727 0.017111
vn 0.452158 0.675875 -0.582018
v 0.031976 0.123499 0.025544
vn 0.342507 0.137588 0.929386
v 0.027581 0.045731 0.049263
vn 0.366440 -0.465591 -0.805572
v 0.107632 -0.105675 0.018148
vn -0.162055 -0.123125 -0.979070
v -0.020128 -0.117416 0.005871
vn -0.296435 0.521730 -0.799953
v -0.076321 0.073672 0.011742
vn -0.952512 -0.304302 0.011023
v -0.097847 0.060665 0.018268
vn -0.475209 -0.171558 0.862986
v -0.036314 -0.015361 0.041646
vn 0.264205 0.169293 0.949492
v 0.024576 0.075582 0.045394
vn -0.802321 -0.475185 -0.361220
v -0.017612 -0.142857 0.012553
vn -0.262956 -0.156610 0.952012
v -0.017747 -0.009818 0.050559
vn -0.000824 0.494140 -0.869382
v 0.006617 0.101835 0.011784
vn 0.346008 0.182213 -0.920368
v 0.046967 0.061662 0.005871
vn 0.972131 0.233028 -0.025655
v 0.121330 -0.093933 0.028832
vn 0.730447 0.144861 -0.667429
v 0.117416 -0.090691 0.021526
vn 0.218302 0.024429 0.975575
v 0.027595 0.003954 0.053695
vn 0.032376 -0.263820 0.964029
v 0.018724 -0.097554 0.034869
vn 0.048892 -0.666814 -0.743619
v -0.004118 -0.146770 0.007828
vn 0.898215 0.438675 -0.027829
v 0.039139 0.117416 0.032385
vn -0.156818 0.748952 0.643800
v 0.027397 0.125244 0.029920
vn 0.309328 -0.096378 -0.946059
v 0.094137 -0.068493 0.007828
vn 0.028530 -0.056718 -0.997983
v 0.039139 -0.125244 0.007604
vn -0.200193 0.388683 -0.899360
v -0.064579 0.072802 0.007828
vn -0.999858 0.015984 0.005351
v -0.098116 0.069205 0.022164
vn -0.806274 -0.548332 0.221935
v -0.019550 -0.141126 0.021527
vn -0.524076 0.076776 -0.848204
v -0.091976 0.054792 0.009785
vn -0.601629 -0.372889 -0.706397
v -0.017612 -0.141956 0.011742
vn -0.030669 -0.209857 0.977251
v 0.007604 -0.041369 0.048154
vn -0.178333 0.641010 -0.746528
v -0.001957 0.100406 0.011742
vn 0.292969 0.183334 -0.938380
v 0.037688 0.078278 0.005871
vn 0.672543 -0.620203 -0.403775
v 0.119373 -0.103718 0.023688
vn 0.502254 0.183216 -0.845087
v 0.065602 0.017612 0.005871
vn 0.233614 -0.001672 0.972328
v 0.033268 -0.006849 0.052354
vn 0.014974 -0.235117 0.971852
v 0.017090 -0.086807 0.037725
vn 0.106885 -0.968659 -0.224223
v -0.006539 -0.148727 0.011742
vn -0.062117 0.401578 0.913716
v 0.035225 0.119373 0.033445
vn -0.343643 0.716839 -0.606672
v -0.084813 0.076321 0.017612
vn -0.115123 0.374429 0.920081
v -0.008776 0.080196 0.046436
vn 0.161827 0.345395 0.924399
v 0.037191 0.119388 0.033531
vn 0.606534 0.608726 0.511438
v 0.037806 0.119387 0.033268
vn 0.256878 -0.283417 -0.923953
v 0.074364 -0.113503 0.010558
vn 0.602822 0.116424 -0.789336
v 0.101560 -0.070450 0.011742
vn -0.238486 0.638398 -0.731828
v -0.074577 0.074364 0.011742
vn -0.073401 0.168497 -0.982965
v -0.021526 0.086147 0.005871
vn -0.366227 0.000503 0.930526
v -0.049492 0.051785 0.044096
vn -0.508871 -0.182934 0.841181
v -0.056827 -0.007800 0.031546
vn -0.830061 -0.415633 0.371816
v -0.020076 -0.138943 0.023483
vn -0.874167 -0.476951 -0.091376
v -0.017612 -0.144814 0.016433
vn -0.432661 0.483127 -0.761179
v -0.084085 0.074364 0.015656
vn -0.512591 -0.197264 -0.835665
v -0.074364 0.019680 0.005871
vn -0.023022 -0.230723 0.972747
v 0.012150 -0.085413 0.037968
vn 0.143063 -0.098162 0.984834
v 0.033268 -0.011742 0.052203
vn -0.446043 -0.164477 0.879769
v -0.032133 -0.010323 0.044867
vn -0.035373 0.428604 -0.902800
v -0.003328 0.094193 0.007873
vn 0.447375 -0.076052 -0.891107
v 0.104190 -0.082191 0.013699
vn 0.358988 -0.829831 -0.427210
v 0.112503 -0.105675 0.021526
vn 0.320084 -0.783724 0.532281
v 0.115470 -0.105670 0.026117
vn 0.184038 -0.942495 0.278987
v -0.007828 -0.148727 0.015488
vn 0.364760 -0.917967 -0.155843
v 0.115459 -0.105675 0.024708
vn 0.579199 0.410997 -0.703995
v 0.034579 0.113527 0.019579
vn -0.301592 0.837331 -0.455982
v 0.023483 0.123287 0.027619
vn -0.221421 0.371789 0.901524
v -0.030504 0.071681 0.046021
vn 0.079317 0.940563 -0.330227
v 0.030076 0.125331 0.027491
vn 0.325329 0.092506 0.941065
v 0.033854 0.013699 0.050806
vn 0.315332 0.106680 0.942966
v 0.031343 0.026319 0.050374
vn 0.277433 -0.223108 -0.934480
v 0.099804 -0.105712 0.015656
vn 0.381830 0.130329 -0.914997
v 0.083871 -0.035225 0.005871
vn -0.255938 0.718061 -0.647212
v -0.037182 0.093576 0.017612
vn -0.468615 -0.149908 0.870590
v -0.035225 0.007828 0.046403
vn -0.926451 -0.363685 -0.097063
v -0.019569 -0.140183 0.017612
vn -0.087626 -0.039383 -0.995375
v -0.021150 -0.115459 0.005871
vn -0.305731 -0.336601 0.890634
v -0.019569 -0.138943 0.024296
vn -0.447214 0.894427 0.000000
v 0.005871 -0.043053 0.047658
vn 0.066154 -0.183835 0.980729
v 0.035841 -0.036360 0.047781
vn -0.236098 -0.188646 0.953242
v -0.015656 -0.019569 0.049173
vn -0.142355 -0.187325 0.971928
v -0.007635 -0.028505 0.049140
vn -0.372129 -0.164844 0.913426
v -0.027004 -0.011785 0.046890
vn 0.197457 -0.031250 0.979813
v 0.031311 -0.007828 0.052799
vn 0.045106 -0.222997 0.973775
v 0.033550 -0.078232 0.038986
vn 0.116082 -0.457821 0.881433
v 0.114039 -0.100507 0.029374
vn 0.167555 -0.985066 0.039620
v -0.006347 -0.148727 0.013699
vn -0.406229 0.905346 -0.123797
v -0.090110 0.076298 0.022805
vn -0.127008 0.240267 0.962362
v -0.021151 0.066301 0.049645
vn -0.271883 0.458442 0.846115
v -0.039733 0.072331 0.042805
vn -0.201070 0.471631 0.858566
v -0.012720 0.083170 0.043998
vn -0.285733 0.326759 0.900880
v -0.043053 0.067514 0.043870
vn -0.097954 -0.115105 0.988512
v -0.004474 0.002458 0.054440
vn 0.120930 0.069762 0.990207
v 0.014817 0.018378 0.055386
vn -0.926902 -0.365896 -0.083502
v -0.019569 -0.140639 0.019569
vn -0.022911 -0.140685 0.989789
v 0.007789 -0.004049 0.054223
vn -0.378394 -0.122027 0.917566
v -0.031013 0.013814 0.049494
vn 0.098198 -0.098370 0.990293
v 0.025607 -0.005366 0.053916
vn 0.024711 -0.186068 0.982226
v 0.014166 -0.039075 0.048676
vn -0.063141 0.362773 0.929736
v -0.001957 0.082191 0.046202
vn -0.287291 0.121537 0.950101
v -0.038713 0.058652 0.047739
vn -0.645516 0.209876 0.734344
v -0.097847 0.072407 0.023477
vn -0.434627 -0.146170 0.888670
v -0.032538 0.008759 0.047992
vn -0.259227 -0.017968 0.965649
v -0.024614 0.018499 0.052218
vn 0.206815 0.125336 0.970319
v 0.016239 0.047923 0.052303
vn -0.073378 -0.173011 0.982183
v 0.002140 -0.036803 0.048725
vn -0.167208 -0.164969 0.972022
v -0.011375 -0.017571 0.050584
vn 0.276055 0.086686 0.957225
v 0.027966 0.010055 0.053131
vn 0.029309 -0.033154 0.999020
v 0.015530 0.007929 0.055737
vn -0.036653 0.329090 0.943587
v 0.000978 0.080235 0.047084
vn 0.006847 0.245303 0.969422
v 0.002434 0.070733 0.050060
vn 0.144178 0.182159 0.972641
v 0.012698 0.067062 0.049736
vn -0.184045 0.124236 0.975035
v -0.031019 0.056012 0.049770
vn -0.179084 -0.121959 0.976245
v -0.012620 0.000917 0.052837
vn -0.361984 -0.058420 0.930352
v -0.032939 0.021968 0.049416
vn -0.152069 -0.057887 0.986673
v -0.015062 0.016329 0.054231
vn -0.272248 -0.104052 0.956585
v -0.023166 0.012878 0.052134
vn 0.081334 -0.160099 0.983744
v 0.033507 -0.018030 0.051320
vn -0.005101 0.127410 0.991837
v -0.004852 0.052076 0.053462
vn -0.093563 0.036705 0.994936
v -0.008901 0.029910 0.055115
# 127 vertices, 0 vertices normals

f 67//67 3//3 8//8
f 13//13 73//73 5//5
f 13//13 12//12 73//73
f 30//30 85//85 9//9
f 23//23 20//20 11//11
f 25//25 73//73 3//3
f 25//25 3//3 67//67
f 26//26 73//73 12//12
f 27//27 9//9 2//2
f 27//27 2//2 13//13
f 28//28 13//13 2//2
f 28//28 12//12 13//13
f 30//30 47//47 85//85
f 70//70 85//85 14//14
f 1//1 14//14 85//85
f 32//32 5//5 15//15
f 32//32 27//27 13//13
f 32//32 13//13 5//5
f 32//32 9//9 27//27
f 73//73 15//15 5//5
f 53//53 16//16 9//9
f 53//53 9//9 32//32
f 53//53 32//32 15//15
f 53//53 33//33 52//52
f 34//34 10//10 6//6
f 35//35 18//18 6//6
f 35//35 31//31 18//18
f 62//62 4//4 109//109
f 62//62 11//11 4//4
f 37//37 20//20 85//85
f 37//37 85//85 109//109
f 37//37 4//4 11//11
f 37//37 11//11 20//20
f 37//37 109//109 4//4
f 59//59 85//85 21//21
f 39//39 36//36 7//7
f 39//39 19//19 36//36
f 39//39 62//62 19//19
f 40//40 18//18 31//31
f 40//40 23//23 11//11
f 40//40 11//11 39//39
f 40//40 31//31 1//1
f 40//40 1//1 23//23
f 43//43 3//3 73//73
f 43//43 73//73 26//26
f 44//44 28//28 2//2
f 44//44 2//2 9//9
f 44//44 9//9 70//70
f 45//45 12//12 28//28
f 46//46 9//9 29//29
f 47//47 106//106 41//41
f 93//93 9//9 85//85
f 48//48 1//1 31//31
f 10//10 17//17 31//31
f 15//15 42//42 76//76
f 15//15 25//25 42//42
f 49//49 52//52 33//33
f 50//50 62//62 109//109
f 50//50 19//19 62//62
f 97//97 33//33 109//109
f 52//52 16//16 53//53
f 53//53 15//15 76//76
f 76//76 33//33 53//53
f 78//78 9//9 16//16
f 54//54 17//17 10//10
f 54//54 10//10 34//34
f 55//55 34//34 6//6
f 55//55 45//45 28//28
f 10//10 35//35 6//6
f 10//10 31//31 35//35
f 56//56 36//36 19//19
f 56//56 8//8 36//36
f 56//56 42//42 8//8
f 56//56 19//19 50//50
f 57//57 36//36 8//8
f 57//57 7//7 36//36
f 21//21 109//109 59//59
f 59//59 109//109 85//85
f 60//60 85//85 20//20
f 60//60 20//20 38//38
f 61//61 20//20 23//23
f 61//61 1//1 38//38
f 61//61 23//23 1//1
f 62//62 39//39 11//11
f 63//63 40//40 39//39
f 63//63 39//39 7//7
f 64//64 41//41 85//85
f 64//64 85//85 47//47
f 114//114 85//85 89//89
f 67//67 42//42 25//25
f 67//67 8//8 42//42
f 68//68 28//28 44//44
f 68//68 44//44 17//17
f 68//68 17//17 34//34
f 68//68 55//55 28//28
f 68//68 34//34 55//55
f 69//69 31//31 17//17
f 69//69 17//17 44//44
f 115//115 29//29 9//9
f 115//115 9//9 77//77
f 92//92 106//106 47//47
f 47//47 9//9 92//92
f 70//70 9//9 93//93
f 70//70 93//93 85//85
f 71//71 70//70 14//14
f 72//72 44//44 70//70
f 72//72 48//48 31//31
f 72//72 69//69 44//44
f 72//72 31//31 69//69
f 51//51 49//49 33//33
f 74//74 33//33 76//76
f 74//74 76//76 42//42
f 119//119 22//22 52//52
f 77//77 9//9 78//78
f 79//79 54//54 34//34
f 79//79 34//34 17//17
f 79//79 17//17 54//54
f 80//80 55//55 6//6
f 80//80 45//45 55//55
f 81//81 56//56 50//50
f 81//81 42//42 56//56
f 81//81 74//74 42//42
f 81//81 50//50 74//74
f 82//82 110//110 109//109
f 83//83 20//20 61//61
f 38//38 1//1 85//85
f 38//38 85//85 60//60
f 84//84 18//18 40//40
f 84//84 40//40 63//63
f 84//84 80//80 6//6
f 84//84 6//6 18//18
f 84//84 63//63 7//7
f 84//84 7//7 57//57
f 84//84 57//57 8//8
f 84//84 8//8 3//3
f 84//84 3//3 43//43
f 84//84 43//43 26//26
f 84//84 26//26 12//12
f 84//84 12//12 45//45
f 84//84 45//45 80//80
f 86//86 85//85 41//41
f 87//87 9//9 125//125
f 125//125 9//9 65//65
f 88//88 85//85 114//114
f 90//90 66//66 85//85
f 24//24 85//85 88//88
f 91//91 65//65 9//9
f 91//91 9//9 46//46
f 91//91 46//46 29//29
f 78//78 115//115 77//77
f 64//64 47//47 41//41
f 47//47 30//30 9//9
f 94//94 70//70 71//71
f 94//94 71//71 14//14
f 94//94 1//1 48//48
f 94//94 72//72 70//70
f 94//94 48//48 72//72
f 94//94 14//14 1//1
f 117//117 52//52 49//49
f 95//95 74//74 50//50
f 95//95 50//50 109//109
f 95//95 33//33 74//74
f 97//97 109//109 99//99
f 51//51 33//33 98//98
f 98//98 75//75 51//51
f 98//98 33//33 75//75
f 97//97 75//75 33//33
f 16//16 22//22 112//112
f 16//16 52//52 22//22
f 108//108 109//109 58//58
f 110//110 104//104 109//109
f 66//66 82//82 109//109
f 66//66 109//109 21//21
f 102//102 20//20 83//83
f 102//102 83//83 61//61
f 102//102 61//61 38//38
f 102//102 38//38 20//20
f 41//41 113//113 85//85
f 41//41 85//85 86//86
f 100//100 113//113 103//103
f 66//66 21//21 85//85
f 24//24 90//90 85//85
f 104//104 24//24 124//124
f 106//106 92//92 9//9
f 25//25 15//15 73//73
f 107//107 117//117 49//49
f 107//107 49//49 51//51
f 95//95 109//109 33//33
f 75//75 96//96 51//51
f 108//108 99//99 109//109
f 118//118 119//119 52//52
f 112//112 78//78 16//16
f 123//123 100//100 116//116
f 51//51 117//117 107//107
f 58//58 109//109 122//122
f 110//110 82//82 66//66
f 123//123 127//127 111//111
f 106//106 113//113 41//41
f 106//106 87//87 125//125
f 105//105 125//125 65//65
f 114//114 121//121 24//24
f 114//114 24//24 88//88
f 100//100 103//103 116//116
f 106//106 103//103 113//113
f 105//105 103//103 106//106
f 89//89 85//85 113//113
f 110//110 66//66 90//90
f 110//110 90//90 104//104
f 24//24 104//104 90//90
f 105//105 91//91 29//29
f 87//87 106//106 9//9
f 117//117 118//118 52//52
f 75//75 97//97 99//99
f 108//108 120//120 75//75
f 108//108 75//75 99//99
f 120//120 108//108 111//111
f 118//118 117//117 51//51
f 122//122 109//109 104//104
f 122//122 104//104 124//124
f 122//122 124//124 111//111
f 122//122 111//111 108//108
f 122//122 108//108 58//58
f 126//126 118//118 96//96
f 101//101 112//112 126//126
f 120//120 126//126 96//96
f 120//120 111//111 127//127
f 101//101 115//115 112//112
f 112//112 22//22 119//119
f 116//116 103//103 105//105
f 114//114 100//100 121//121
f 113//113 100//100 114//114
f 113//113 114//114 89//89
f 121//121 124//124 24//24
f 115//115 78//78 112//112
f 29//29 115//115 101//101
f 116//116 29//29 101//101
f 120//120 96//96 75//75
f 119//119 126//126 112//112
f 123//123 111//111 124//124
f 123//123 124//124 121//121
f 126//126 120//120 127//127
f 101//101 127//127 116//116
f 125//125 105//105 106//106
f 100//100 123//123 121//121
f 105//105 65//65 91//91
f 126//126 119//119 118//118
f 127//127 123//123 116//116
f 101//101 126//126 127//127
f 105//105 29//29 116//116
f 96//96 118//118 51//51
# 250 faces, 0 coords texture

# End of File
