####
#
# OBJ File Generated by Meshlab
#
####
# Object mahatma_rice_250_collision.obj
#
# Vertices: 127
# Faces: 250
#
####
vn -0.155850 0.680989 0.715517
v 0.011424 -0.126702 -0.009761
vn 0.058568 0.234329 0.970392
v 0.009996 -0.098118 -0.018322
vn -0.258586 0.747784 -0.611516
v 0.012343 -0.129361 0.022222
vn 0.126633 0.218748 0.967530
v 0.009996 -0.056168 -0.028273
vn 0.384169 0.301547 0.872630
v -0.031953 -0.014219 -0.025684
vn -0.085636 0.069590 0.993893
v 0.009996 -0.014219 -0.040047
vn -0.476535 -0.054253 0.877480
v 0.051946 -0.014219 -0.026495
vn -0.195820 -0.464847 0.863465
v 0.009996 0.069680 -0.022137
vn -0.255017 -0.190001 0.948085
v 0.010071 0.026554 -0.035715
vn -0.061640 -0.674571 0.735632
v 0.009562 0.089087 -0.008857
vn 0.233071 0.224673 -0.946150
v -0.010054 -0.023577 0.049576
vn -0.605595 -0.325817 -0.726015
v 0.096318 -0.068605 0.035042
vn 0.625013 0.608305 0.489208
v -0.011407 -0.131520 0.000737
vn 0.183017 0.550107 0.814793
v -0.000074 -0.126983 -0.009850
vn 0.523344 0.351161 0.776400
v -0.010776 -0.118597 -0.009751
vn 0.882149 0.348656 0.316625
v -0.020622 -0.112619 0.001075
vn 0.475882 0.844314 -0.246312
v -0.011871 -0.139339 0.019854
vn -0.046746 0.956256 0.288772
v -0.003711 -0.139808 0.007113
vn 0.903538 0.424392 0.059253
v -0.017614 -0.131005 0.014473
vn 0.436369 0.339145 -0.833404
v -0.020137 -0.114576 0.028757
vn 0.512940 0.246670 0.822220
v -0.031953 -0.056168 -0.015425
vn 0.918465 0.342881 0.197117
v -0.033827 -0.075179 -0.000430
vn 0.839924 0.329480 -0.431243
v -0.039645 -0.062365 0.023889
vn 0.627190 0.267648 0.731435
v -0.025556 -0.087483 -0.009790
vn 0.930918 0.357881 -0.072882
v -0.048496 -0.042042 0.013308
vn 0.677088 0.278245 0.681272
v -0.029180 -0.077135 -0.009761
vn 0.826186 0.451418 0.337103
v -0.052496 -0.016899 -0.006558
vn 0.641425 0.289124 -0.710620
v -0.047854 -0.029165 0.029196
vn 0.141013 0.226780 -0.963684
v -0.000218 -0.087707 0.036549
vn 0.844866 0.283353 -0.453776
v -0.030333 -0.086169 0.024307
vn 0.366033 0.226083 -0.902722
v -0.014049 -0.059498 0.039099
vn 0.730280 0.145594 0.667452
v -0.074066 0.036828 -0.009642
vn 0.667898 -0.059178 0.741896
v -0.075082 0.048666 -0.010352
vn 0.921884 0.332833 0.198372
v -0.082188 0.040452 0.003512
vn 0.559244 -0.418470 0.715632
v -0.073076 0.059239 -0.008965
vn 0.907200 -0.037495 0.419025
v -0.087049 0.056060 0.005156
vn 0.920205 0.378465 -0.099938
v -0.068359 0.007479 0.015591
vn 0.865182 0.281634 -0.414901
v -0.084642 0.052717 0.018144
vn 0.852536 -0.418174 -0.313548
v -0.090314 0.067829 0.021304
vn 0.758743 0.284733 0.585864
v -0.069154 0.020950 -0.009853
vn 0.296745 -0.037958 0.954202
v -0.031953 0.027731 -0.033292
vn 0.386045 0.092950 0.917785
v -0.038932 0.027731 -0.030734
vn 0.230063 -0.228103 0.946066
v -0.032249 0.048706 -0.030734
vn 0.044764 -0.334019 0.941503
v -0.011404 0.048596 -0.033605
vn 0.517598 0.172265 0.838103
v -0.052928 0.027731 -0.024931
vn 0.426500 -0.206422 0.880618
v -0.052928 0.048706 -0.024730
vn 0.212423 -0.534941 0.817749
v -0.031953 0.069680 -0.021306
vn 0.060946 -0.110644 0.991990
v -0.010979 0.027731 -0.040589
vn -0.207282 -0.301255 0.930741
v 0.006347 0.048805 -0.030677
vn 0.043186 -0.564874 0.824046
v -0.010979 0.069680 -0.024283
vn 0.500158 0.793705 0.346228
v -0.050412 -0.018007 -0.009786
vn 0.742486 0.378695 0.552544
v -0.060081 -0.000854 -0.008744
vn 0.725711 0.280777 -0.628099
v -0.058866 -0.002624 0.030276
vn 0.430019 -0.181941 -0.884297
v -0.052598 0.062191 0.042767
vn 0.348940 -0.682639 0.642063
v -0.055755 0.069680 -0.010465
vn 0.311309 -0.910995 0.270509
v -0.045754 0.079715 0.001058
vn 0.473763 -0.775079 0.418091
v -0.074635 0.070648 0.002989
vn 0.350283 -0.877009 -0.328872
v -0.063217 0.076175 0.026836
vn 0.233410 -0.801548 0.550491
v -0.023688 0.082210 -0.010001
vn 0.282248 -0.912160 0.297154
v -0.013302 0.090063 0.001486
vn 0.109287 -0.750840 0.651379
v -0.000975 0.088794 -0.008891
vn 0.201987 -0.865492 0.458394
v 0.005618 0.095734 0.000085
vn 0.359858 -0.926244 -0.112138
v -0.029096 0.088782 0.026429
vn 0.348967 0.106655 -0.931046
v -0.024593 0.011353 0.054345
vn 0.385224 0.067073 -0.920382
v -0.048872 0.033231 0.042761
vn 0.694646 0.152377 -0.703028
v -0.072190 0.037707 0.031071
vn 0.224446 -0.132443 -0.965444
v -0.025927 0.056637 0.051225
vn 0.046528 0.042321 -0.998020
v -0.000455 0.014833 0.058112
vn -0.001070 -0.070698 -0.997497
v -0.003619 0.048301 0.054912
vn 0.015377 -0.358859 -0.933265
v 0.003337 0.077457 0.051538
vn 0.297572 -0.570289 -0.765651
v -0.033624 0.075274 0.042203
vn 0.356008 -0.776091 -0.520519
v 0.002079 0.097381 0.037329
vn -0.176332 0.298780 0.937890
v 0.051946 -0.098118 -0.017372
vn -0.351166 0.931952 0.090264
v 0.031529 -0.125010 0.001764
vn -0.248541 0.682822 0.687009
v 0.035561 -0.118979 -0.009779
vn -0.404907 0.911363 0.073949
v 0.048058 -0.119193 0.005213
vn -0.102034 0.381001 -0.918927
v 0.017621 -0.111577 0.031471
vn -0.406122 0.523261 0.749175
v 0.076706 -0.099258 -0.009701
vn -0.344095 0.799932 0.491637
v 0.056824 -0.109666 -0.009693
vn -0.356996 0.932920 0.047062
v 0.087454 -0.107192 0.009543
vn -0.278532 0.779150 -0.561557
v 0.043228 -0.116930 0.020792
vn -0.108648 0.433705 -0.894481
v 0.047273 -0.101637 0.029588
vn -0.257379 0.750032 -0.609268
v 0.068691 -0.107416 0.023635
vn 0.041516 0.663232 -0.747261
v 0.084608 -0.099531 0.027719
vn -0.266192 0.071335 0.961277
v 0.051946 -0.056168 -0.022698
vn -0.411817 0.199358 0.889192
v 0.084894 -0.089101 -0.009578
vn -0.662749 0.327899 0.673236
v 0.099909 -0.092733 0.003504
vn -0.559168 0.015622 0.828907
v 0.087596 -0.075671 -0.009783
vn -0.690848 -0.185706 0.698743
v 0.084769 -0.055381 -0.009748
vn -0.766571 -0.230020 0.599550
v 0.077170 -0.029000 -0.009738
vn -0.912066 -0.375285 -0.165216
v 0.085651 -0.031900 0.019981
vn -0.825625 -0.171534 0.537512
v 0.094305 -0.073006 -0.002773
vn -0.846230 -0.186683 -0.499044
v 0.109562 -0.087569 0.033188
vn -0.941348 0.320455 0.105697
v 0.112588 -0.096519 0.021723
vn -0.914665 -0.382150 0.131717
v 0.096810 -0.061124 0.016615
vn -0.153218 0.313959 -0.936992
v 0.044465 -0.084591 0.039094
vn 0.048421 0.294735 -0.954351
v 0.066461 -0.075758 0.032865
vn 0.104455 0.199741 -0.974265
v 0.085750 -0.081826 0.038921
vn -0.117862 0.302345 -0.945884
v 0.068492 -0.058125 0.038054
vn -0.269358 -0.011029 -0.962977
v 0.081613 -0.058417 0.040289
vn 0.091435 0.225699 -0.969897
v 0.009091 -0.051582 0.045803
vn -0.128797 0.221289 -0.966666
v 0.046101 -0.047306 0.046922
vn -0.088752 0.142291 -0.985838
v 0.028237 -0.017197 0.054936
vn -0.271649 0.051792 -0.961002
v 0.052232 -0.030684 0.049434
vn -0.685194 -0.243075 -0.686603
v 0.076045 -0.019486 0.032786
vn -0.267750 0.491768 -0.828538
v 0.101674 -0.090365 0.038150
vn -0.454584 -0.216463 0.864001
v 0.030971 0.027731 -0.029350
vn -0.432841 -0.310693 0.846238
v 0.030971 0.048706 -0.023984
vn -0.834837 -0.337976 0.434533
v 0.058938 0.018170 -0.008993
vn -0.676665 -0.314257 0.665858
v 0.051960 0.027749 -0.013605
vn -0.766939 -0.374326 0.521233
v 0.049288 0.038394 -0.009511
vn -0.663592 -0.437344 0.606940
v 0.031057 0.074250 -0.009593
vn -0.920660 -0.382627 0.077340
v 0.055462 0.041865 0.017315
vn -0.927038 -0.371226 -0.052831
v 0.039125 0.085620 0.022196
vn -0.418917 -0.533847 0.734518
v 0.022806 0.085417 -0.008085
vn -0.762815 -0.443660 0.470403
v 0.031285 0.085679 0.000860
vn -0.281603 -0.690849 0.665904
v 0.022220 0.100136 0.003553
vn -0.203026 -0.945978 0.252795
v 0.026989 0.113134 0.021258
vn -0.478779 -0.136316 -0.867288
v 0.053304 0.005737 0.041506
vn -0.249428 -0.010567 -0.968336
v 0.025045 -0.001446 0.058278
vn -0.772873 -0.301015 -0.558621
v 0.060174 0.018175 0.034257
vn -0.284539 -0.180755 -0.941470
v 0.022851 0.039482 0.051210
vn -0.493746 -0.148957 -0.856753
v 0.036208 0.054624 0.042806
vn -0.844341 -0.284629 -0.453953
v 0.044115 0.059206 0.033708
vn -0.299744 -0.097189 -0.949056
v 0.016495 0.064639 0.051690
vn -0.646446 -0.325578 -0.690004
v 0.032953 0.093180 0.036676
vn -0.373326 -0.733372 -0.568148
v 0.025070 0.112369 0.029837
# 127 vertices, 0 vertices normals

f 2//2 15//15 14//14
f 14//14 1//1 2//2
f 2//2 24//24 15//15
f 16//16 13//13 15//15
f 19//19 17//17 13//13
f 16//16 19//19 13//13
f 18//18 1//1 14//14
f 14//14 15//15 13//13
f 13//13 18//18 14//14
f 17//17 18//18 13//13
f 24//24 16//16 15//15
f 20//20 17//17 19//19
f 3//3 18//18 17//17
f 20//20 3//3 17//17
f 19//19 16//16 30//30
f 20//20 19//19 30//30
f 20//20 77//77 3//3
f 4//4 26//26 24//24
f 24//24 2//2 4//4
f 26//26 4//4 21//21
f 5//5 51//51 27//27
f 27//27 26//26 21//21
f 27//27 21//21 5//5
f 5//5 21//21 4//4
f 5//5 4//4 6//6
f 24//24 26//26 22//22
f 16//16 24//24 22//22
f 30//30 16//16 22//22
f 30//30 22//22 23//23
f 29//29 20//20 30//30
f 23//23 31//31 30//30
f 22//22 26//26 27//27
f 22//22 27//27 25//25
f 22//22 25//25 23//23
f 25//25 27//27 37//37
f 25//25 37//37 53//53
f 25//25 53//53 28//28
f 28//28 23//23 25//25
f 77//77 20//20 29//29
f 30//30 31//31 29//29
f 31//31 23//23 28//28
f 28//28 64//64 11//11
f 53//53 64//64 28//28
f 11//11 31//31 28//28
f 101//101 31//31 11//11
f 101//101 11//11 103//103
f 36//36 34//34 32//32
f 32//32 33//33 36//36
f 36//36 33//33 35//35
f 57//57 36//36 35//35
f 37//37 34//34 38//38
f 37//37 38//38 66//66
f 66//66 53//53 37//37
f 38//38 34//34 36//36
f 38//38 36//36 39//39
f 39//39 36//36 57//57
f 54//54 66//66 38//38
f 39//39 54//54 38//38
f 54//54 39//39 58//58
f 45//45 40//40 52//52
f 52//52 51//51 5//5
f 42//42 52//52 5//5
f 5//5 41//41 42//42
f 52//52 42//42 45//45
f 48//48 41//41 5//5
f 48//48 5//5 6//6
f 48//48 6//6 9//9
f 43//43 42//42 41//41
f 41//41 44//44 43//43
f 32//32 40//40 45//45
f 45//45 46//46 32//32
f 46//46 33//33 32//32
f 42//42 43//43 46//46
f 46//46 45//45 42//42
f 46//46 55//55 35//35
f 35//35 33//33 46//46
f 43//43 44//44 47//47
f 47//47 55//55 46//46
f 47//47 46//46 43//43
f 41//41 48//48 44//44
f 49//49 44//44 48//48
f 49//49 48//48 9//9
f 44//44 50//50 47//47
f 44//44 49//49 8//8
f 8//8 50//50 44//44
f 27//27 51//51 52//52
f 37//37 27//27 52//52
f 34//34 52//52 40//40
f 34//34 37//37 52//52
f 40//40 32//32 34//34
f 35//35 55//55 57//57
f 39//39 57//57 58//58
f 55//55 47//47 59//59
f 59//59 47//47 50//50
f 59//59 50//50 61//61
f 61//61 50//50 8//8
f 61//61 8//8 10//10
f 56//56 57//57 55//55
f 59//59 56//56 55//55
f 60//60 56//56 59//59
f 58//58 57//57 56//56
f 58//58 71//71 54//54
f 58//58 56//56 63//63
f 56//56 60//60 63//63
f 63//63 71//71 58//58
f 60//60 59//59 61//61
f 61//61 62//62 60//60
f 10//10 62//62 61//61
f 63//63 60//60 62//62
f 63//63 62//62 118//118
f 63//63 118//118 72//72
f 72//72 118//118 127//127
f 66//66 65//65 53//53
f 68//68 103//103 11//11
f 64//64 53//53 65//65
f 64//64 68//68 11//11
f 54//54 65//65 66//66
f 54//54 67//67 65//65
f 54//54 71//71 67//67
f 68//68 64//64 69//69
f 69//69 64//64 65//65
f 69//69 65//65 67//67
f 122//122 68//68 69//69
f 70//70 69//69 67//67
f 70//70 125//125 69//69
f 72//72 71//71 63//63
f 70//70 67//67 71//71
f 72//72 70//70 71//71
f 75//75 79//79 73//73
f 75//75 73//73 2//2
f 2//2 1//1 75//75
f 73//73 79//79 78//78
f 1//1 18//18 74//74
f 74//74 75//75 1//1
f 76//76 79//79 75//75
f 75//75 74//74 76//76
f 74//74 18//18 3//3
f 81//81 74//74 3//3
f 76//76 74//74 81//81
f 3//3 77//77 81//81
f 82//82 81//81 77//77
f 79//79 80//80 78//78
f 83//83 79//79 76//76
f 83//83 80//80 79//79
f 80//80 87//87 78//78
f 83//83 76//76 81//81
f 81//81 82//82 83//83
f 83//83 84//84 80//80
f 84//84 106//106 80//80
f 94//94 87//87 80//80
f 106//106 94//94 80//80
f 85//85 4//4 2//2
f 2//2 73//73 85//85
f 73//73 78//78 86//86
f 85//85 73//73 86//86
f 85//85 86//86 88//88
f 85//85 88//88 89//89
f 7//7 6//6 4//4
f 4//4 85//85 7//7
f 90//90 7//7 85//85
f 85//85 89//89 90//90
f 87//87 86//86 78//78
f 88//88 86//86 87//87
f 87//87 92//92 88//88
f 89//89 88//88 92//92
f 96//96 83//83 82//82
f 84//84 83//83 97//97
f 98//98 106//106 84//84
f 92//92 95//95 89//89
f 95//95 90//90 89//89
f 91//91 90//90 95//95
f 12//12 100//100 91//91
f 91//91 100//100 105//105
f 94//94 92//92 87//87
f 94//94 95//95 92//92
f 93//93 94//94 106//106
f 95//95 94//94 93//93
f 12//12 95//95 93//93
f 91//91 95//95 12//12
f 82//82 77//77 29//29
f 82//82 29//29 96//96
f 99//99 96//96 102//102
f 101//101 96//96 29//29
f 31//31 101//101 29//29
f 96//96 101//101 102//102
f 83//83 96//96 97//97
f 98//98 84//84 97//97
f 98//98 12//12 106//106
f 97//97 96//96 99//99
f 98//98 97//97 100//100
f 100//100 97//97 99//99
f 12//12 98//98 100//100
f 103//103 102//102 101//101
f 103//103 104//104 102//102
f 102//102 104//104 99//99
f 104//104 100//100 99//99
f 104//104 119//119 105//105
f 105//105 100//100 104//104
f 12//12 93//93 106//106
f 6//6 107//107 9//9
f 107//107 6//6 7//7
f 107//107 7//7 110//110
f 109//109 110//110 7//7
f 7//7 90//90 109//109
f 9//9 107//107 108//108
f 108//108 49//49 9//9
f 108//108 107//107 111//111
f 107//107 110//110 111//111
f 8//8 49//49 108//108
f 8//8 108//108 112//112
f 108//108 111//111 112//112
f 109//109 90//90 91//91
f 91//91 113//113 109//109
f 121//121 91//91 105//105
f 91//91 121//121 113//113
f 113//113 111//111 109//109
f 113//113 112//112 111//111
f 116//116 112//112 113//113
f 114//114 113//113 124//124
f 109//109 111//111 110//110
f 124//124 113//113 121//121
f 115//115 10//10 8//8
f 115//115 8//8 112//112
f 115//115 112//112 116//116
f 10//10 115//115 117//117
f 117//117 62//62 10//10
f 115//115 116//116 117//117
f 116//116 118//118 117//117
f 62//62 117//117 118//118
f 114//114 116//116 113//113
f 114//114 124//124 126//126
f 114//114 118//118 116//116
f 127//127 118//118 114//114
f 127//127 114//114 126//126
f 104//104 103//103 119//119
f 119//119 103//103 120//120
f 120//120 122//122 119//119
f 68//68 120//120 103//103
f 121//121 105//105 119//119
f 123//123 121//121 119//119
f 124//124 121//121 123//123
f 119//119 122//122 123//123
f 69//69 123//123 122//122
f 125//125 123//123 69//69
f 120//120 68//68 122//122
f 126//126 125//125 70//70
f 126//126 123//123 125//125
f 123//123 126//126 124//124
f 127//127 70//70 72//72
f 126//126 70//70 127//127
# 250 faces, 0 coords texture

# End of File
