####
#
# OBJ File Generated by Meshlab
#
####
# Object v8_fusion_strawberry_banana_250_collision.obj
#
# Vertices: 127
# Faces: 250
#
####
vn -0.182885 0.332401 -0.925236
v -0.009793 0.035232 0.006911
vn 0.304047 -0.303576 -0.902993
v 0.022830 -0.024246 0.007025
vn 0.092260 0.296395 -0.950599
v 0.016465 0.038153 0.007901
vn -0.222525 0.847766 -0.481431
v 0.004477 0.041376 0.009639
vn 0.414327 0.024624 -0.909795
v 0.035245 0.003594 0.005846
vn -0.999754 0.015120 0.016253
v -0.031082 0.005871 0.099804
vn 0.438794 -0.888732 0.132724
v 0.019830 -0.025274 0.100928
vn 0.193724 -0.913433 -0.357926
v 0.010394 -0.031311 0.009785
vn 0.700497 0.690128 0.181731
v 0.029208 0.029174 0.102464
vn 0.153363 -0.078134 -0.985076
v 0.034532 0.000000 0.005871
vn 0.748322 0.171687 -0.640733
v 0.037182 0.012720 0.008445
vn -0.621397 0.783456 -0.007840
v -0.019761 0.033268 0.017612
vn -0.999847 -0.017217 0.002979
v -0.032315 0.001957 0.017612
vn -0.647812 -0.610303 -0.455928
v -0.021526 -0.021513 0.007828
vn 0.771430 -0.612986 -0.170714
v 0.027682 -0.021526 0.013699
vn -0.070236 -0.917153 -0.392297
v 0.006610 -0.031311 0.009785
vn 0.651763 -0.220130 -0.725774
v 0.035100 -0.007828 0.007828
vn 0.703498 0.665878 -0.248387
v 0.033268 0.030574 0.011742
vn 0.312641 0.923852 -0.220800
v 0.021548 0.041142 0.009961
vn 0.916448 0.387324 0.100512
v 0.035637 0.019568 0.099834
vn 0.501341 0.318144 -0.804638
v 0.033481 0.027140 0.009263
vn -0.958945 0.030847 -0.281909
v -0.031246 0.002935 0.009785
vn 0.615304 -0.788073 0.018499
v 0.026574 -0.021089 0.093933
vn 0.642733 -0.508628 -0.572881
v 0.029968 -0.017534 0.007797
vn -0.190300 -0.631746 -0.751454
v -0.012622 -0.027678 0.007833
vn 0.012517 -0.531485 -0.846975
v 0.005891 -0.029258 0.007828
vn 0.016078 0.995726 0.090950
v 0.005785 0.039848 0.100596
vn 0.552348 0.151347 0.819759
v 0.030830 0.009266 0.118537
vn -0.168576 0.727112 0.665501
v -0.002734 0.035113 0.115188
vn 0.979687 -0.173976 0.099729
v 0.038016 -0.000978 0.099804
vn 0.980336 0.151878 0.125993
v 0.038305 0.008607 0.104225
vn -0.406636 0.905062 -0.124539
v -0.009825 0.039026 0.014554
vn 0.872151 0.449634 -0.192825
v 0.034264 0.029355 0.011742
vn -0.694332 0.505102 -0.512615
v -0.026419 0.022187 0.007894
vn -0.519805 0.850559 0.079706
v -0.015507 0.034280 0.100092
vn -0.971349 0.223297 -0.081358
v -0.031207 0.015633 0.015710
vn -0.470749 -0.057369 -0.880400
v -0.030151 -0.000692 0.007835
vn -0.808812 -0.582673 -0.079471
v -0.029354 -0.012019 0.011742
vn -0.481221 -0.861235 0.163403
v -0.012881 -0.024461 0.101784
vn 0.737648 -0.671862 -0.066911
v 0.029498 -0.019644 0.013788
vn 0.044119 0.998942 0.012980
v 0.017612 0.041308 0.013699
vn -0.919032 -0.331648 0.213048
v -0.029389 -0.005854 0.102207
vn -0.988932 -0.089288 0.118495
v -0.030828 0.002127 0.104544
vn -0.402430 0.647330 0.647313
v -0.009969 0.031200 0.116579
vn -0.001981 -0.105005 0.994470
v 0.002508 -0.006923 0.121360
vn -0.386417 0.847245 -0.364496
v -0.008734 0.038372 0.011086
vn -0.141897 0.987507 -0.068522
v 0.003999 0.041767 0.011849
vn -0.744267 0.171664 -0.645444
v -0.029499 0.014671 0.007841
vn -0.545102 0.683297 -0.485767
v -0.018783 0.029738 0.008954
vn -0.999898 0.006991 0.012420
v -0.032287 0.003914 0.019569
vn -0.993828 0.077938 -0.078945
v -0.032235 0.007866 0.017638
vn -0.839928 0.536505 -0.081756
v -0.025836 0.026626 0.016890
vn -0.623465 0.772016 0.123621
v -0.017554 0.032722 0.100358
vn -0.683955 -0.728658 0.035534
v -0.021526 -0.018483 0.093933
vn 0.622704 -0.766771 -0.155890
v 0.025527 -0.023272 0.009493
vn 0.835071 -0.509865 -0.206625
v 0.035419 -0.011669 0.010134
vn 0.874578 -0.481212 0.059567
v 0.033686 -0.012487 0.098927
vn 0.694175 -0.714721 0.085413
v 0.028731 -0.019135 0.100872
vn -0.043910 0.998662 0.027314
v 0.001957 0.039837 0.097847
vn -0.207657 -0.975826 -0.068134
v -0.001670 -0.030933 0.013900
vn 0.282106 -0.959356 -0.007301
v 0.011642 -0.031434 0.014338
vn 0.939849 -0.320818 0.117303
v 0.037018 -0.005037 0.099543
vn 0.952156 0.227701 -0.203839
v 0.041184 0.011263 0.014039
vn 0.630632 0.768562 0.107772
v 0.026747 0.031545 0.101288
vn 0.346554 0.915602 0.203898
v 0.017681 0.037216 0.101761
vn -0.246979 0.967399 -0.056035
v 0.001957 0.041553 0.017612
vn 0.852340 0.510153 0.115155
v 0.033545 0.023486 0.102707
vn -0.901695 0.432298 0.008063
v -0.029578 0.020257 0.018390
vn -0.476604 0.879117 -0.001376
v -0.013926 0.037075 0.018635
vn -0.999638 0.016351 -0.021387
v -0.032288 0.005871 0.017612
vn -0.866838 0.429470 0.253273
v -0.026664 0.020936 0.106032
vn -0.975588 0.175241 0.132358
v -0.030668 0.009712 0.103507
vn -0.665910 0.717339 -0.204910
v -0.022902 0.030481 0.015221
vn -0.997123 -0.019533 -0.073237
v -0.032246 0.000042 0.015638
vn -0.606111 0.795063 0.022449
v -0.017016 0.033268 0.095890
vn -0.719935 0.689839 0.076262
v -0.021560 0.029414 0.096828
vn -0.468818 -0.882807 -0.029340
v -0.013698 -0.027397 0.008960
vn -0.600501 -0.794127 0.093603
v -0.017485 -0.021526 0.099804
vn -0.705740 -0.615297 0.351199
v -0.021968 -0.015393 0.111667
vn 0.797329 -0.603543 -0.001565
v 0.031311 -0.017353 0.017612
vn 0.961389 -0.166501 -0.219110
v 0.042622 0.001957 0.013699
vn 0.790215 -0.612655 0.014631
v 0.031981 -0.015606 0.094215
vn 0.255301 0.963543 0.080042
v 0.013696 0.038612 0.099825
vn -0.935537 -0.282846 -0.211586
v -0.031311 -0.008878 0.011748
vn 0.000000 0.000000 0.000000
v -0.027552 -0.010074 0.097847
vn -0.861550 -0.020216 0.507271
v -0.027297 0.005249 0.116288
vn 0.176861 -0.019432 0.984044
v 0.023026 0.000315 0.120406
vn 0.458579 -0.301478 0.835953
v 0.027718 -0.008131 0.118840
vn 0.200500 -0.514827 0.833519
v 0.014413 -0.019514 0.119393
vn 0.937382 0.316802 0.144747
v 0.037158 0.015664 0.100048
vn -0.901561 0.406957 -0.146879
v -0.029864 0.019565 0.015643
vn -0.550832 0.829118 -0.095644
v -0.017612 0.034858 0.017612
vn -0.466688 0.883902 0.030340
v -0.013899 0.035332 0.095890
vn -0.407124 0.911306 0.061420
v -0.009902 0.037237 0.097847
vn -0.922611 0.382125 0.052617
v -0.028129 0.019568 0.098358
vn -0.111550 0.987094 0.114899
v -0.000194 0.039584 0.101835
vn -0.065962 -0.997782 -0.008905
v 0.001956 -0.031600 0.015660
vn -0.284084 -0.952085 0.113272
v -0.004220 -0.027905 0.102675
vn 0.028069 -0.995589 0.089527
v 0.004085 -0.029066 0.102038
vn 0.050420 0.847334 0.528661
v 0.006836 0.036173 0.115424
vn -0.027966 0.061380 0.997723
v -0.003565 0.013746 0.121618
vn -0.328084 -0.073795 0.941762
v -0.021321 0.001735 0.120142
vn -0.586545 0.389305 0.710216
v -0.021378 0.020404 0.117054
vn 0.865206 -0.431403 0.255558
v 0.033726 -0.010117 0.108439
vn -0.191260 0.979021 -0.070265
v -0.003657 0.040939 0.017641
vn -0.316066 0.944760 0.086776
v -0.006826 0.038289 0.099234
vn -0.652453 -0.755253 0.062429
v -0.019546 -0.020091 0.097249
vn -0.717442 -0.694118 0.058969
v -0.022336 -0.017614 0.095362
vn 0.552566 -0.832252 0.045024
v 0.023361 -0.023374 0.097974
vn 0.147688 -0.923819 0.353194
v 0.006952 -0.027158 0.112139
vn 0.567203 -0.728850 0.383483
v 0.025212 -0.020395 0.109910
vn -0.819916 -0.564375 0.096015
v -0.025160 -0.013830 0.103753
vn -0.144423 -0.972783 0.181203
v 0.000456 -0.028616 0.104983
vn -0.280477 -0.701752 0.654887
v -0.007472 -0.022181 0.117284
vn 0.064987 -0.997249 0.035664
v 0.005863 -0.029279 0.094045
vn 0.956627 0.004001 0.291289
v 0.037733 0.005283 0.108819
vn 0.465232 0.842684 0.271002
v 0.021477 0.035090 0.102733
vn -0.816232 0.574065 0.064918
v -0.024830 0.025437 0.096078
vn 0.193143 -0.976161 0.099019
v 0.009862 -0.028483 0.101947
vn 0.475814 0.617684 0.626153
v 0.020369 0.030438 0.116855
vn 0.116015 0.240000 0.963816
v 0.016234 0.025881 0.119907
vn 0.835996 0.416898 0.356801
v 0.032655 0.021615 0.111535
vn 0.692432 -0.130074 0.709661
v 0.033448 0.000052 0.116591
vn 0.196111 0.954735 0.223654
v 0.009150 0.039341 0.103427
vn -0.147482 0.333261 0.931228
v -0.009275 0.027264 0.119022
vn -0.682238 0.666995 0.299446
v -0.020452 0.027593 0.109549
vn -0.370547 0.881799 0.291764
v -0.008706 0.036227 0.109330
# 127 vertices, 0 vertices normals

f 2//2 25//25 10//10
f 5//5 1//1 3//3
f 37//37 1//1 10//10
f 24//24 2//2 10//10
f 10//10 1//1 5//5
f 3//3 19//19 21//21
f 11//11 81//81 5//5
f 48//48 1//1 37//37
f 14//14 37//37 10//10
f 14//14 10//10 25//25
f 17//17 5//5 81//81
f 17//17 10//10 5//5
f 4//4 3//3 1//1
f 18//18 21//21 19//19
f 19//19 3//3 4//4
f 22//22 48//48 37//37
f 34//34 1//1 48//48
f 77//77 14//14 25//25
f 55//55 8//8 2//2
f 25//25 16//16 60//60
f 25//25 60//60 77//77
f 26//26 25//25 2//2
f 26//26 16//16 25//25
f 26//26 8//8 16//16
f 24//24 10//10 17//17
f 64//64 18//18 19//19
f 64//64 9//9 18//18
f 33//33 21//21 18//18
f 33//33 18//18 9//9
f 21//21 5//5 3//3
f 21//21 11//11 5//5
f 51//51 36//36 22//22
f 48//48 22//22 36//36
f 37//37 14//14 84//84
f 22//22 37//37 84//84
f 38//38 84//84 14//14
f 38//38 14//14 108//108
f 112//112 84//84 38//38
f 107//107 14//14 77//77
f 98//98 77//77 60//60
f 56//56 24//24 17//17
f 57//57 56//56 81//81
f 26//26 2//2 8//8
f 41//41 27//27 19//19
f 83//83 65//65 19//19
f 43//43 6//6 13//13
f 97//97 60//60 16//16
f 97//97 16//16 8//8
f 63//63 31//31 81//81
f 90//90 33//33 20//20
f 90//90 63//63 33//33
f 11//11 33//33 63//63
f 11//11 21//21 33//33
f 63//63 81//81 11//11
f 47//47 19//19 4//4
f 47//47 27//27 41//41
f 47//47 41//41 19//19
f 49//49 46//46 1//1
f 49//49 1//1 34//34
f 50//50 13//13 6//6
f 95//95 118//118 68//68
f 74//74 22//22 84//84
f 74//74 43//43 13//13
f 74//74 84//84 43//43
f 112//112 38//38 108//108
f 54//54 108//108 14//14
f 54//54 14//14 107//107
f 55//55 2//2 15//15
f 2//2 24//24 15//15
f 61//61 8//8 55//55
f 61//61 109//109 7//7
f 61//61 55//55 109//109
f 40//40 15//15 24//24
f 56//56 17//17 81//81
f 59//59 27//27 47//47
f 124//124 19//19 27//27
f 60//60 97//97 98//98
f 61//61 97//97 8//8
f 30//30 62//62 81//81
f 122//122 90//90 20//20
f 1//1 46//46 4//4
f 65//65 117//117 19//19
f 46//46 105//105 4//4
f 66//66 47//47 4//4
f 66//66 59//59 47//47
f 106//106 105//105 32//32
f 106//106 32//32 94//94
f 67//67 20//20 33//33
f 48//48 91//91 34//34
f 68//68 91//91 36//36
f 73//73 76//76 12//12
f 52//52 34//34 91//91
f 69//69 94//94 32//32
f 70//70 13//13 50//50
f 70//70 50//50 6//6
f 70//70 6//6 51//51
f 70//70 74//74 13//13
f 70//70 51//51 74//74
f 52//52 68//68 118//118
f 74//74 51//51 22//22
f 75//75 53//53 35//35
f 75//75 35//35 12//12
f 75//75 12//12 53//53
f 76//76 53//53 12//12
f 78//78 107//107 77//77
f 78//78 77//77 39//39
f 23//23 55//55 15//15
f 80//80 40//40 56//56
f 80//80 82//82 40//40
f 80//80 56//56 82//82
f 24//24 56//56 40//40
f 81//81 104//104 57//57
f 81//81 62//62 104//104
f 58//58 23//23 15//15
f 40//40 58//58 15//15
f 82//82 56//56 57//57
f 57//57 58//58 40//40
f 57//57 40//40 82//82
f 83//83 19//19 124//124
f 43//43 51//51 6//6
f 43//43 72//72 51//51
f 85//85 84//84 112//112
f 115//115 61//61 119//119
f 115//115 99//99 97//97
f 115//115 97//97 61//61
f 28//28 121//121 87//87
f 90//90 31//31 63//63
f 90//90 122//122 116//116
f 20//20 67//67 122//122
f 105//105 46//46 32//32
f 124//124 65//65 83//83
f 9//9 67//67 33//33
f 91//91 48//48 36//36
f 95//95 68//68 36//36
f 73//73 49//49 34//34
f 52//52 73//73 34//34
f 52//52 91//91 68//68
f 92//92 12//12 35//35
f 92//92 35//35 69//69
f 93//93 69//69 35//35
f 94//94 69//69 93//93
f 36//36 51//51 72//72
f 52//52 118//118 73//73
f 76//76 73//73 118//118
f 98//98 39//39 77//77
f 79//79 107//107 78//78
f 108//108 107//107 79//79
f 110//110 7//7 111//111
f 96//96 27//27 59//59
f 96//96 59//59 66//66
f 72//72 95//95 36//36
f 112//112 84//84 85//85
f 42//42 112//112 79//79
f 86//86 42//42 79//79
f 43//43 84//84 42//42
f 113//113 97//97 99//99
f 97//97 113//113 98//98
f 102//102 79//79 114//114
f 101//101 45//45 87//87
f 121//121 101//101 87//87
f 28//28 120//120 121//121
f 88//88 89//89 111//111
f 87//87 88//88 123//123
f 45//45 88//88 87//87
f 45//45 102//102 114//114
f 116//116 30//30 81//81
f 88//88 111//111 104//104
f 116//116 31//31 90//90
f 19//19 117//117 64//64
f 9//9 64//64 117//117
f 105//105 66//66 4//4
f 105//105 96//96 66//66
f 122//122 67//67 9//9
f 73//73 46//46 49//49
f 73//73 12//12 92//92
f 32//32 92//92 69//69
f 32//32 73//73 92//92
f 32//32 46//46 73//73
f 35//35 94//94 93//93
f 72//72 71//71 95//95
f 76//76 118//118 126//126
f 126//126 53//53 76//76
f 112//112 42//42 84//84
f 112//112 108//108 79//79
f 114//114 79//79 39//39
f 39//39 79//79 78//78
f 108//108 54//54 107//107
f 109//109 23//23 58//58
f 109//109 55//55 23//23
f 111//111 7//7 58//58
f 111//111 89//89 110//110
f 100//100 27//27 96//96
f 43//43 42//42 86//86
f 86//86 71//71 72//72
f 71//71 118//118 95//95
f 115//115 119//119 99//99
f 119//119 61//61 7//7
f 102//102 101//101 125//125
f 87//87 123//123 28//28
f 116//116 122//122 28//28
f 103//103 86//86 102//102
f 45//45 101//101 102//102
f 104//104 123//123 88//88
f 31//31 116//116 81//81
f 89//89 88//88 45//45
f 45//45 114//114 89//89
f 62//62 30//30 116//116
f 117//117 124//124 100//100
f 117//117 65//65 124//124
f 106//106 94//94 35//35
f 118//118 71//71 126//126
f 102//102 86//86 79//79
f 39//39 98//98 114//114
f 109//109 58//58 7//7
f 27//27 100//100 124//124
f 72//72 43//43 86//86
f 119//119 7//7 110//110
f 121//121 120//120 100//100
f 120//120 28//28 122//122
f 122//122 9//9 120//120
f 117//117 120//120 9//9
f 101//101 121//121 125//125
f 125//125 103//103 102//102
f 110//110 89//89 114//114
f 116//116 123//123 104//104
f 53//53 127//127 35//35
f 106//106 127//127 96//96
f 114//114 98//98 113//113
f 110//110 113//113 99//99
f 104//104 111//111 58//58
f 58//58 57//57 104//104
f 127//127 100//100 96//96
f 29//29 125//125 100//100
f 29//29 44//44 125//125
f 103//103 126//126 71//71
f 126//126 44//44 127//127
f 114//114 113//113 110//110
f 100//100 125//125 121//121
f 123//123 116//116 28//28
f 103//103 44//44 126//126
f 62//62 116//116 104//104
f 96//96 105//105 106//106
f 100//100 120//120 117//117
f 100//100 127//127 29//29
f 110//110 99//99 119//119
f 86//86 103//103 71//71
f 126//126 127//127 53//53
f 125//125 44//44 103//103
f 106//106 35//35 127//127
f 29//29 127//127 44//44
# 250 faces, 0 coords texture

# End of File
