####
#
# OBJ File Generated by Meshlab
#
####
# Object v8_fusion_strawberry_banana_250_collision.obj
#
# Vertices: 127
# Faces: 250
#
####
vn 0.201117 0.129667 0.970947
v -0.019826 0.002011 0.005748
vn 0.002983 0.000371 0.999995
v 0.002595 0.004760 0.004679
vn -0.034214 -0.003635 0.999408
v 0.013755 0.003902 0.004918
vn -0.317130 0.005078 0.948369
v 0.025577 0.003858 0.005616
vn -0.996084 -0.088205 0.006087
v 0.037135 0.007290 0.068356
vn -0.010496 -0.078309 0.996874
v 0.002595 0.014083 0.005111
vn 0.050316 -0.350438 0.935233
v -0.003269 0.025293 0.006650
vn 0.997188 -0.074063 -0.011401
v -0.032302 0.007570 0.093898
vn -0.960823 -0.130835 -0.244337
v 0.037424 0.009411 0.105165
vn -0.507508 -0.033737 -0.860987
v 0.028204 0.005002 0.119547
vn 0.094408 0.272214 0.957594
v -0.007643 -0.018315 0.007993
vn 0.046192 0.164012 0.985376
v 0.003760 -0.013887 0.006301
vn 0.684463 0.260371 0.680968
v -0.026720 -0.005211 0.009814
vn 0.035316 0.087906 0.995503
v 0.002431 -0.004780 0.005129
vn 0.702720 0.643719 0.303001
v -0.021794 -0.017084 0.013828
vn 0.805247 0.592561 0.021193
v -0.026556 -0.012940 0.032624
vn 0.548209 0.831119 0.093320
v -0.016408 -0.022885 0.022891
vn 0.335369 0.609850 0.718060
v -0.012537 -0.021486 0.009919
vn 0.244038 0.969640 0.015596
v -0.005191 -0.028771 0.038018
vn 0.909700 0.375843 0.176601
v -0.030583 -0.005859 0.018679
vn -0.059915 0.997733 0.030651
v 0.004311 -0.029560 0.023878
vn 0.984086 -0.177432 0.009632
v -0.031498 0.007236 0.039203
vn 0.953042 0.302834 -0.001411
v -0.031138 -0.003944 0.046264
vn 0.746329 0.665575 0.001698
v -0.023030 -0.018340 0.062024
vn 0.663345 0.748306 -0.003321
v -0.020485 -0.020268 0.074099
vn 0.461089 0.887337 0.005487
v -0.012719 -0.026275 0.064487
vn 0.078491 0.996879 0.008463
v 0.001939 -0.029789 0.061109
vn 0.943978 0.329992 0.003344
v -0.029109 -0.008423 0.082741
vn 0.823402 0.567456 0.001578
v -0.025851 -0.014301 0.074506
vn 0.442686 0.896667 0.004117
v -0.011775 -0.026881 0.082481
vn 0.125852 0.991356 -0.037063
v -0.001729 -0.030154 0.089504
vn 0.749957 0.654622 -0.095048
v -0.022977 -0.018789 0.103451
vn 0.443748 0.857777 -0.259436
v -0.012531 -0.025864 0.105191
vn 0.661242 0.504343 -0.555335
v -0.024164 -0.012781 0.112020
vn 0.203519 0.937358 -0.282736
v -0.004498 -0.028659 0.105503
vn 0.965425 0.188756 -0.179791
v -0.032088 -0.001515 0.103827
vn 0.318536 0.146933 -0.936454
v -0.015135 -0.004472 0.121566
vn 0.210795 0.644194 -0.735241
v -0.005059 -0.021038 0.118540
vn 0.056176 -0.051315 -0.997101
v 0.000708 0.008692 0.123292
vn 0.668235 -0.008003 0.743907
v -0.026234 0.007106 0.007715
vn 0.930874 -0.279159 0.235679
v -0.029671 0.014043 0.013865
vn 0.199301 -0.139656 0.969936
v -0.019899 0.014193 0.005410
vn 0.035592 0.010797 0.999308
v -0.011390 0.007090 0.005061
vn 0.642929 -0.392390 0.657779
v -0.025468 0.018436 0.009401
vn 0.293858 -0.648396 0.702303
v -0.011886 0.030481 0.009520
vn 0.976427 0.018230 0.215077
v -0.032434 0.003901 0.020588
vn 0.760581 -0.649243 0.000427
v -0.023422 0.025316 0.028528
vn 0.744437 -0.648535 0.158796
v -0.024070 0.025702 0.017856
vn 0.458380 -0.859050 0.227861
v -0.013836 0.034398 0.017830
vn 0.523327 -0.852128 -0.002397
v -0.012697 0.034606 0.032637
vn 0.900658 -0.434454 0.008072
v -0.027939 0.018703 0.031256
vn 0.114267 -0.993445 0.003250
v -0.002681 0.038654 0.048346
vn 0.908812 -0.416175 0.029309
v -0.027891 0.019954 0.041201
vn 0.997809 -0.065031 0.012199
v -0.032517 0.005714 0.057520
vn 0.748882 -0.662654 0.008037
v -0.024152 0.026192 0.058301
vn 0.486919 -0.873439 -0.003619
v -0.015186 0.033617 0.059533
vn 0.905177 -0.424947 0.008642
v -0.029629 0.016367 0.071879
vn 0.703454 -0.710481 0.019199
v -0.021549 0.028379 0.078335
vn 0.913743 -0.343447 -0.217068
v -0.029470 0.016915 0.104349
vn 0.707372 -0.705961 -0.035278
v -0.022755 0.029381 0.096363
vn 0.432598 -0.901398 0.018471
v -0.012421 0.035053 0.076678
vn 0.356641 -0.906328 -0.226663
v -0.006736 0.037518 0.105707
vn 0.716271 -0.011080 -0.697734
v -0.027632 0.003180 0.115516
vn 0.553828 -0.417514 -0.720386
v -0.022740 0.018334 0.115528
vn 0.650117 -0.666525 -0.364819
v -0.022621 0.027258 0.104758
vn 0.349988 -0.696399 -0.626527
v -0.006987 0.031815 0.114354
vn -0.062270 -0.906854 -0.416819
v 0.004696 0.037370 0.110674
vn 0.235208 -0.174534 -0.956146
v -0.009450 0.014514 0.121441
vn 0.009013 0.304987 0.952314
v 0.009587 -0.018548 0.007061
vn -0.050738 0.246629 0.967781
v 0.014249 -0.013887 0.006002
vn -0.051644 0.124051 0.990931
v 0.018783 -0.010931 0.005501
vn -0.300903 0.221651 0.927539
v 0.024479 -0.011326 0.006467
vn 0.129047 0.964023 0.232394
v -0.000060 -0.029376 0.017322
vn -0.255042 0.490896 0.833051
v 0.018087 -0.021302 0.008478
vn -0.053720 0.664916 0.744984
v 0.012280 -0.025552 0.010122
vn -0.407662 0.881640 0.237745
v 0.016919 -0.026591 0.015132
vn -0.660075 0.458870 0.594760
v 0.027105 -0.014871 0.008916
vn -0.702359 0.071713 0.708201
v 0.031406 -0.001320 0.009388
vn -0.954314 0.206822 0.215659
v 0.036545 -0.001323 0.017665
vn -0.634197 0.773131 0.007910
v 0.023179 -0.023012 0.042539
vn -0.778654 0.608554 0.152839
v 0.029438 -0.016489 0.016803
vn -0.883928 0.467434 0.013337
v 0.033610 -0.010927 0.044135
vn -0.290068 0.956995 0.004667
v 0.012192 -0.028703 0.051521
vn -0.992608 0.120587 0.013741
v 0.036883 -0.000247 0.051597
vn -0.523387 0.852049 0.008840
v 0.021052 -0.024664 0.072197
vn -0.790412 0.612333 0.017267
v 0.030517 -0.015503 0.071519
vn -0.968400 0.248853 0.016511
v 0.036978 -0.003372 0.074097
vn -0.210118 0.977661 0.005347
v 0.010850 -0.028938 0.072512
vn -0.313057 0.937832 -0.149889
v 0.010543 -0.029576 0.102938
vn -0.730202 0.682806 -0.024107
v 0.029012 -0.019386 0.095691
vn -0.060732 0.909351 -0.411572
v 0.006563 -0.027616 0.111578
vn -0.338288 0.596379 -0.727938
v 0.017334 -0.019671 0.116030
vn -0.634152 0.697731 -0.333200
v 0.024518 -0.021654 0.106610
vn -0.920922 0.334475 -0.200072
v 0.037720 -0.003983 0.102676
vn -0.685377 0.295470 -0.665549
v 0.030997 -0.005621 0.115783
vn -0.023289 0.237737 -0.971050
v 0.002658 -0.011636 0.123270
vn -0.220805 0.110294 -0.969062
v 0.017147 0.000639 0.123032
vn -0.123619 -0.201029 0.971754
v 0.017691 0.019754 0.006223
vn -0.453918 -0.597575 0.660955
v 0.020953 0.028812 0.009873
vn -0.214735 -0.135384 0.967243
v 0.024676 0.010828 0.005707
vn -0.672152 -0.243249 0.699315
v 0.030861 0.017197 0.009973
vn -0.109320 -0.531416 0.840027
v 0.012182 0.032088 0.008599
vn -0.950001 -0.188216 0.249145
v 0.036616 0.008613 0.017275
vn -0.756864 -0.622858 0.198002
v 0.029913 0.026458 0.019261
vn -0.178240 -0.876573 0.447047
v 0.010761 0.037001 0.014483
vn 0.121536 -0.976170 0.179783
v 0.000275 0.038770 0.019389
vn -0.520302 -0.851153 0.069454
v 0.019852 0.033540 0.025360
vn -0.990189 -0.138656 0.017325
v 0.036871 0.008614 0.041575
vn -0.267494 -0.963532 0.007238
v 0.010783 0.037306 0.038173
vn -0.939401 -0.342617 0.011763
v 0.035823 0.015068 0.061025
vn -0.835771 -0.549002 0.009094
v 0.031234 0.023678 0.037529
vn -0.289631 -0.956821 0.024644
v 0.014467 0.036832 0.063335
vn 0.097297 -0.995137 0.015325
v 0.000636 0.039001 0.062367
vn -0.570578 -0.821034 0.018540
v 0.024149 0.031346 0.051483
vn -0.199459 -0.979814 -0.013406
v 0.009556 0.038448 0.086620
vn 0.095572 -0.995142 -0.023629
v -0.000385 0.039147 0.090342
vn -0.521604 -0.853188 -0.000706
v 0.020466 0.034056 0.085958
vn -0.770819 -0.637024 0.006119
v 0.028959 0.026831 0.077392
vn -0.932710 -0.360526 0.008572
v 0.035243 0.016834 0.086507
vn -0.852282 -0.502354 -0.145793
v 0.032755 0.022326 0.100132
vn -0.672117 -0.694338 -0.257203
v 0.025889 0.029524 0.105703
vn -0.281870 -0.318062 -0.905199
v 0.013998 0.020270 0.121626
vn -0.403640 -0.598898 -0.691661
v 0.019813 0.025563 0.116621
vn -0.695850 -0.363012 -0.619689
v 0.030689 0.013962 0.115595
vn -0.398959 -0.882099 -0.250465
v 0.016262 0.036343 0.105350
vn 0.031524 -0.509086 -0.860138
v 0.002353 0.028953 0.119428
vn -0.065184 -0.171387 -0.983045
v 0.009554 0.020919 0.122175
# 127 vertices, 0 vertices normals

f 18//18 1//1 13//13
f 18//18 11//11 1//1
f 1//1 40//40 13//13
f 1//1 11//11 14//14
f 14//14 11//11 12//12
f 1//1 14//14 43//43
f 43//43 14//14 2//2
f 17//17 18//18 15//15
f 16//16 17//17 15//15
f 73//73 18//18 17//17
f 75//75 18//18 73//73
f 11//11 18//18 75//75
f 17//17 19//19 73//73
f 20//20 15//15 13//13
f 15//15 18//18 13//13
f 13//13 40//40 46//46
f 46//46 20//20 13//13
f 16//16 15//15 20//20
f 21//21 73//73 19//19
f 16//16 20//20 23//23
f 23//23 20//20 46//46
f 23//23 46//46 22//22
f 24//24 26//26 17//17
f 17//17 16//16 24//24
f 19//19 17//17 26//26
f 26//26 27//27 19//19
f 23//23 24//24 16//16
f 24//24 23//23 29//29
f 23//23 22//22 54//54
f 23//23 54//54 28//28
f 26//26 24//24 25//25
f 24//24 29//29 25//25
f 32//32 25//25 29//29
f 32//32 30//30 25//25
f 30//30 27//27 26//26
f 31//31 27//27 30//30
f 26//26 25//25 30//30
f 29//29 23//23 28//28
f 28//28 54//54 8//8
f 28//28 32//32 29//29
f 30//30 32//32 33//33
f 33//33 31//31 30//30
f 35//35 31//31 33//33
f 35//35 91//91 31//31
f 36//36 28//28 8//8
f 36//36 32//32 28//28
f 32//32 34//34 33//33
f 38//38 33//33 34//34
f 38//38 35//35 33//33
f 91//91 35//35 38//38
f 34//34 32//32 36//36
f 36//36 63//63 34//34
f 63//63 37//37 34//34
f 34//34 37//37 38//38
f 38//38 37//37 96//96
f 96//96 37//37 39//39
f 41//41 40//40 44//44
f 40//40 1//1 42//42
f 42//42 1//1 43//43
f 42//42 44//44 40//40
f 45//45 44//44 42//42
f 6//6 42//42 43//43
f 43//43 2//2 6//6
f 7//7 45//45 42//42
f 7//7 42//42 6//6
f 40//40 41//41 46//46
f 48//48 41//41 44//44
f 46//46 41//41 22//22
f 22//22 41//41 51//51
f 48//48 51//51 41//41
f 47//47 51//51 48//48
f 45//45 48//48 44//44
f 48//48 45//45 49//49
f 47//47 48//48 50//50
f 48//48 49//49 50//50
f 106//106 49//49 45//45
f 105//105 106//106 45//45
f 50//50 49//49 106//106
f 22//22 51//51 53//53
f 54//54 22//22 53//53
f 51//51 47//47 53//53
f 53//53 47//47 55//55
f 50//50 55//55 47//47
f 55//55 50//50 56//56
f 52//52 50//50 106//106
f 56//56 50//50 52//52
f 57//57 54//54 53//53
f 55//55 57//57 53//53
f 56//56 58//58 55//55
f 113//113 56//56 52//52
f 61//61 56//56 113//113
f 8//8 54//54 57//57
f 8//8 57//57 59//59
f 59//59 57//57 60//60
f 58//58 57//57 55//55
f 57//57 58//58 60//60
f 58//58 56//56 61//61
f 61//61 113//113 116//116
f 59//59 60//60 65//65
f 58//58 61//61 60//60
f 62//62 60//60 61//61
f 62//62 61//61 116//116
f 65//65 60//60 62//62
f 62//62 116//116 67//67
f 36//36 8//8 59//59
f 36//36 59//59 63//63
f 63//63 59//59 64//64
f 65//65 64//64 59//59
f 63//63 64//64 68//68
f 63//63 68//68 37//37
f 68//68 39//39 37//37
f 126//126 68//68 64//64
f 62//62 66//66 65//65
f 64//64 65//65 66//66
f 126//126 64//64 66//66
f 126//126 127//127 68//68
f 126//126 66//66 67//67
f 67//67 66//66 62//62
f 127//127 39//39 68//68
f 11//11 75//75 69//69
f 75//75 74//74 69//69
f 12//12 11//11 69//69
f 12//12 69//69 70//70
f 69//69 74//74 70//70
f 72//72 70//70 74//74
f 74//74 77//77 72//72
f 71//71 14//14 12//12
f 12//12 70//70 71//71
f 70//70 72//72 71//71
f 3//3 14//14 71//71
f 3//3 2//2 14//14
f 3//3 71//71 4//4
f 72//72 77//77 78//78
f 71//71 72//72 4//4
f 72//72 78//78 4//4
f 76//76 75//75 73//73
f 21//21 76//76 73//73
f 76//76 74//74 75//75
f 76//76 21//21 83//83
f 77//77 74//74 76//76
f 77//77 76//76 81//81
f 81//81 76//76 80//80
f 79//79 78//78 77//77
f 79//79 77//77 81//81
f 79//79 103//103 78//78
f 83//83 80//80 76//76
f 80//80 82//82 81//81
f 79//79 81//81 82//82
f 103//103 79//79 108//108
f 84//84 79//79 82//82
f 108//108 79//79 84//84
f 27//27 83//83 21//21
f 27//27 21//21 19//19
f 88//88 83//83 27//27
f 85//85 80//80 83//83
f 86//86 82//82 80//80
f 86//86 80//80 85//85
f 84//84 5//5 108//108
f 84//84 82//82 87//87
f 88//88 27//27 31//31
f 88//88 85//85 83//83
f 89//89 88//88 31//31
f 87//87 82//82 86//86
f 5//5 84//84 87//87
f 89//89 31//31 91//91
f 85//85 88//88 89//89
f 90//90 85//85 89//89
f 93//93 90//90 89//89
f 86//86 85//85 90//90
f 90//90 87//87 86//86
f 90//90 94//94 87//87
f 9//9 87//87 94//94
f 92//92 93//93 89//89
f 92//92 89//89 91//91
f 91//91 38//38 92//92
f 38//38 96//96 92//92
f 90//90 93//93 94//94
f 93//93 92//92 95//95
f 97//97 92//92 96//96
f 95//95 92//92 97//97
f 95//95 94//94 93//93
f 9//9 94//94 95//95
f 95//95 10//10 9//9
f 95//95 97//97 10//10
f 6//6 2//2 3//3
f 6//6 3//3 100//100
f 3//3 4//4 100//100
f 98//98 7//7 6//6
f 6//6 100//100 98//98
f 102//102 98//98 99//99
f 100//100 4//4 101//101
f 101//101 4//4 78//78
f 98//98 100//100 99//99
f 101//101 99//99 100//100
f 102//102 7//7 98//98
f 78//78 103//103 101//101
f 103//103 104//104 101//101
f 103//103 111//111 104//104
f 105//105 45//45 7//7
f 102//102 105//105 7//7
f 105//105 102//102 99//99
f 105//105 99//99 107//107
f 109//109 105//105 107//107
f 101//101 104//104 99//99
f 107//107 99//99 104//104
f 107//107 104//104 111//111
f 111//111 103//103 108//108
f 105//105 109//109 106//106
f 109//109 52//52 106//106
f 114//114 109//109 107//107
f 111//111 114//114 107//107
f 5//5 110//110 108//108
f 108//108 110//110 111//111
f 52//52 109//109 112//112
f 52//52 112//112 113//113
f 114//114 112//112 109//109
f 118//118 111//111 110//110
f 118//118 110//110 119//119
f 5//5 119//119 110//110
f 9//9 5//5 87//87
f 118//118 119//119 120//120
f 113//113 112//112 115//115
f 116//116 113//113 115//115
f 117//117 115//115 112//112
f 111//111 118//118 114//114
f 118//118 117//117 114//114
f 112//112 114//114 117//117
f 119//119 5//5 9//9
f 120//120 119//119 9//9
f 67//67 116//116 115//115
f 115//115 117//117 125//125
f 125//125 67//67 115//115
f 121//121 117//117 118//118
f 121//121 118//118 120//120
f 117//117 121//121 125//125
f 122//122 123//123 124//124
f 121//121 120//120 124//124
f 124//124 120//120 9//9
f 124//124 10//10 122//122
f 9//9 10//10 124//124
f 124//124 123//123 121//121
f 125//125 121//121 123//123
f 67//67 125//125 123//123
f 127//127 126//126 122//122
f 122//122 126//126 123//123
f 123//123 126//126 67//67
f 39//39 97//97 96//96
f 39//39 127//127 97//97
f 127//127 122//122 10//10
f 10//10 97//97 127//127
# 250 faces, 0 coords texture

# End of File
