####
#
# OBJ File Generated by Meshlab
#
####
# Object campbells_chicken_noodle_soup_250_collision.obj
#
# Vertices: 127
# Faces: 250
#
####
vn 0.036816 0.150174 0.987974
v -0.005462 -0.028761 0.000109
vn 0.094041 -0.022076 0.995324
v -0.020461 0.006376 -0.000430
vn -0.028648 -0.036710 0.998915
v 0.017652 0.008190 -0.000604
vn -0.142627 -0.079201 0.986603
v 0.024642 0.007669 0.000011
vn -0.994483 0.086035 0.060012
v 0.046606 -0.000661 0.028528
vn -0.252618 -0.955426 0.152791
v 0.011780 0.050433 0.052397
vn -0.042798 -0.610054 -0.791203
v 0.003515 0.051647 0.079792
vn 0.000535 0.042780 -0.999084
v -0.003789 -0.003129 0.081554
vn 0.773049 0.287261 0.565576
v -0.041685 -0.014189 0.007275
vn 0.899455 -0.001341 0.437012
v -0.046973 0.002534 0.010853
vn 0.234206 0.351312 0.906492
v -0.021308 -0.030230 0.001795
vn 0.415681 0.239320 0.877460
v -0.034452 -0.017281 0.002016
vn 0.079800 0.038003 0.996086
v -0.017179 -0.010855 -0.000839
vn 0.406882 0.778113 0.478525
v -0.022227 -0.038596 0.008562
vn 0.165894 0.985216 0.042767
v -0.009220 -0.044403 0.030916
vn 0.712931 0.699205 0.053315
v -0.034804 -0.031699 0.021423
vn 0.379793 0.923752 0.049385
v -0.018573 -0.042501 0.020410
vn -0.165713 0.986160 -0.005346
v 0.007892 -0.045952 0.021187
vn 0.498373 0.866911 0.009483
v -0.023137 -0.039382 0.030450
vn 0.648926 0.558483 0.516713
v -0.032016 -0.030476 0.007619
vn 0.919713 0.357559 0.162112
v -0.044817 -0.014992 0.015863
vn 0.748178 0.657187 0.091296
v -0.036121 -0.029272 0.033524
vn 0.942964 0.331508 0.030339
v -0.044386 -0.014623 0.031529
vn 0.434343 0.890014 0.138639
v -0.021003 -0.046300 0.064822
vn 0.101455 0.981126 0.164619
v -0.003287 -0.048770 0.053162
vn 0.526651 0.678588 -0.512012
v -0.034798 -0.038207 0.075436
vn 0.266283 0.946579 -0.181883
v -0.015052 -0.050222 0.073707
vn 0.069155 0.196393 -0.978084
v -0.023796 -0.034386 0.080626
vn 0.030247 0.499756 -0.865638
v -0.005623 -0.047122 0.080396
vn 0.965797 0.220441 0.136533
v -0.050353 -0.011158 0.058076
vn 0.864072 0.483776 -0.139069
v -0.045906 -0.026663 0.071565
vn 0.460519 0.208554 -0.862802
v -0.042848 -0.021206 0.080639
vn 0.927821 0.065294 -0.367267
v -0.052810 -0.004866 0.075191
vn 0.129723 0.163145 -0.978037
v -0.032791 -0.024576 0.082643
vn 0.450445 0.052000 0.891289
v -0.038776 -0.005154 0.002461
vn 0.414454 -0.093581 0.905246
v -0.038391 0.010037 0.002509
vn 0.781098 -0.305303 0.544680
v -0.041586 0.016049 0.006002
vn 0.455011 -0.337364 0.824106
v -0.034837 0.024692 0.004450
vn 0.090887 -0.089093 0.991868
v -0.015085 0.016685 -0.000392
vn 0.468361 -0.599070 0.649425
v -0.025025 0.037352 0.005461
vn 0.132117 -0.294416 0.946501
v -0.015186 0.035831 0.002237
vn 0.188670 -0.778888 0.598111
v -0.012788 0.043646 0.006641
vn 0.999337 0.028206 0.023001
v -0.047735 0.002108 0.018460
vn 0.944112 -0.317040 0.090212
v -0.045045 0.018915 0.019357
vn 0.776781 -0.582304 0.239860
v -0.038745 0.029317 0.016411
vn 0.990027 -0.131267 0.051141
v -0.047350 0.006614 0.031122
vn 0.856970 -0.515344 0.004829
v -0.041717 0.023366 0.030558
vn 0.689754 -0.716103 0.106939
v -0.034773 0.036475 0.044848
vn 0.547634 -0.821776 0.157419
v -0.026167 0.041676 0.014264
vn 0.188717 -0.976038 0.108334
v -0.010867 0.047939 0.020793
vn 0.370626 -0.927107 0.055761
v -0.019612 0.044584 0.031294
vn 0.875411 -0.459216 0.150914
v -0.044168 0.026062 0.057177
vn 0.975163 -0.176236 0.134157
v -0.049804 0.012385 0.060756
vn 0.390269 -0.052443 -0.919206
v -0.043991 0.003417 0.080315
vn 0.186483 -0.129289 -0.973914
v -0.038311 0.022188 0.080649
vn 0.887797 -0.329491 -0.321327
v -0.048892 0.023820 0.073292
vn 0.498606 -0.284517 -0.818806
v -0.043956 0.024670 0.078070
vn 0.697204 -0.676313 -0.237712
v -0.038206 0.038090 0.073927
vn 0.446912 -0.894571 -0.003419
v -0.024565 0.048074 0.069920
vn 0.219586 -0.966546 0.132554
v -0.012090 0.050823 0.056540
vn 0.319941 -0.605540 -0.728670
v -0.022106 0.047352 0.076929
vn 0.055516 -0.993706 -0.097296
v -0.001414 0.054918 0.073424
vn 0.118451 -0.208927 -0.970731
v -0.012089 0.042656 0.080204
vn 0.068003 -0.004026 -0.997677
v -0.024384 0.004670 0.081173
vn 0.049588 -0.029024 -0.998348
v -0.021416 0.021752 0.082512
vn 0.015480 -0.016455 -0.999745
v 0.004700 0.024944 0.082059
vn -0.025590 -0.191731 -0.981114
v 0.008244 0.044200 0.081414
vn -0.008835 0.592005 0.805886
v -0.001161 -0.039320 0.002432
vn 0.050262 0.943544 0.327412
v -0.002837 -0.043990 0.007900
vn -0.303143 0.676468 0.671190
v 0.018144 -0.037478 0.005294
vn -0.362413 0.419993 0.832023
v 0.025082 -0.029515 0.002678
vn -0.101556 0.254090 0.961834
v 0.008927 -0.031688 0.000661
vn -0.031900 0.053390 0.998064
v 0.011495 -0.014681 -0.001120
vn -0.226604 0.146726 0.962872
v 0.031727 -0.017723 0.001363
vn -0.096692 0.007789 0.995284
v 0.018469 -0.006534 -0.001001
vn -0.660241 0.622557 0.420123
v 0.031507 -0.031080 0.008825
vn -0.577689 0.307457 0.756138
v 0.036988 -0.016475 0.003519
vn -0.855200 0.200793 0.477824
v 0.044375 -0.008467 0.008366
vn -0.380554 0.889849 0.251688
v 0.016648 -0.042892 0.016251
vn -0.181836 0.981205 0.064595
v 0.009451 -0.044334 0.030598
vn -0.518486 0.854930 0.016336
v 0.021882 -0.039466 0.029865
vn -0.691970 0.720692 0.042198
v 0.032782 -0.032323 0.018487
vn -0.895184 0.434486 0.099337
v 0.044128 -0.016110 0.017815
vn -0.858182 0.513315 -0.005585
v 0.038720 -0.024254 0.030278
vn -0.936070 0.326449 0.131160
v 0.045623 -0.017806 0.051089
vn -0.425686 0.880184 -0.209923
v 0.021309 -0.047011 0.073556
vn -0.090902 0.983195 -0.158319
v 0.005957 -0.051434 0.072832
vn -0.292141 0.437883 -0.850242
v 0.025971 -0.038485 0.079455
vn -0.655051 0.731910 -0.187660
v 0.032228 -0.039597 0.071572
vn -0.713126 0.685993 0.144450
v 0.036840 -0.032534 0.056065
vn -0.588161 0.526733 -0.613693
v 0.037588 -0.031859 0.077333
vn -0.198704 0.160861 -0.966768
v 0.037702 -0.023448 0.080819
vn -0.865885 0.472250 -0.164996
v 0.048702 -0.019403 0.073582
vn -0.506988 0.217330 -0.834105
v 0.045921 -0.016550 0.078962
vn -0.931976 0.055744 -0.358208
v 0.052411 0.000671 0.076818
vn -0.086919 0.095701 -0.991608
v 0.032923 -0.015997 0.081152
vn -0.003017 0.056072 -0.998422
v 0.002791 -0.031312 0.079469
vn -0.110289 -0.122178 0.986361
v 0.017064 0.025683 0.000878
vn -0.467927 -0.370795 0.802219
v 0.034520 0.020796 0.003157
vn -0.016337 -0.104072 0.994436
v 0.005369 0.021371 -0.000445
vn -0.267814 -0.299954 0.915589
v 0.021668 0.033995 0.002897
vn -0.418469 -0.005300 0.908216
v 0.038265 0.000296 0.001904
vn -0.817541 -0.292607 0.495991
v 0.041763 0.018020 0.007359
vn -0.068328 -0.422253 0.903899
v 0.008707 0.039983 0.002339
vn -0.221205 -0.973788 0.052970
v 0.008039 0.048949 0.020289
vn -0.058806 -0.889896 0.452358
v 0.006050 0.046314 0.008306
vn -0.414932 -0.725908 0.548533
v 0.017996 0.041462 0.006018
vn -0.999820 0.014479 0.012275
v 0.047754 -0.001892 0.018893
vn -0.916040 -0.394569 0.072019
v 0.042935 0.021065 0.019126
vn -0.888232 -0.455518 0.059564
v 0.041063 0.023902 0.031563
vn -0.207277 -0.978244 0.008670
v 0.005581 0.048271 0.029643
vn -0.666725 -0.717140 0.202947
v 0.031244 0.037593 0.017666
vn 0.075272 -0.995514 0.057330
v -0.003666 0.048414 0.032575
vn -0.544641 -0.838271 0.025855
v 0.028331 0.038509 0.030535
vn -0.994304 0.002427 0.106556
v 0.050760 0.002290 0.053378
vn -0.993301 0.097836 0.061487
v 0.050355 -0.001118 0.060277
vn -0.956039 -0.288013 -0.055119
v 0.050114 0.020733 0.074288
vn -0.706135 -0.401769 -0.583056
v 0.046951 0.023809 0.078116
vn 0.016254 -0.987716 0.155414
v -0.000646 0.052386 0.056874
vn -0.630178 -0.761376 0.152256
v 0.032126 0.040880 0.059527
vn -0.456304 -0.882082 -0.117127
v 0.024479 0.049041 0.072582
vn -0.460121 -0.619160 -0.636341
v 0.028740 0.043443 0.078365
vn -0.750372 -0.659353 -0.046848
v 0.041421 0.033169 0.070528
vn -0.188592 -0.224098 -0.956145
v 0.031954 0.034873 0.082246
vn 0.006472 0.063074 -0.997988
v 0.021810 -0.008237 0.083142
vn 0.010055 -0.024251 -0.999655
v 0.029207 0.015183 0.082867
vn -0.287537 0.004024 -0.957761
v 0.044904 0.006922 0.083012
# 127 vertices, 0 vertices normals

f 14//14 11//11 20//20
f 11//11 68//68 1//1
f 1//1 68//68 72//72
f 68//68 14//14 69//69
f 68//68 11//11 14//14
f 9//9 20//20 12//12
f 21//21 20//20 9//9
f 21//21 9//9 10//10
f 9//9 12//12 35//35
f 9//9 35//35 10//10
f 10//10 35//35 36//36
f 12//12 11//11 13//13
f 11//11 12//12 20//20
f 13//13 11//11 1//1
f 13//13 1//1 73//73
f 13//13 35//35 12//12
f 2//2 36//36 35//35
f 35//35 13//13 2//2
f 13//13 73//73 3//3
f 14//14 20//20 16//16
f 17//17 14//14 16//16
f 15//15 17//17 19//19
f 14//14 17//17 69//69
f 17//17 15//15 69//69
f 15//15 18//18 69//69
f 15//15 80//80 18//18
f 19//19 17//17 16//16
f 80//80 15//15 25//25
f 20//20 21//21 16//16
f 16//16 21//21 23//23
f 23//23 22//22 16//16
f 43//43 23//23 21//21
f 21//21 10//10 43//43
f 43//43 46//46 23//23
f 22//22 23//23 30//30
f 23//23 46//46 30//30
f 22//22 19//19 16//16
f 26//26 22//22 31//31
f 22//22 24//24 19//19
f 19//19 24//24 15//15
f 25//25 15//15 24//24
f 27//27 87//87 25//25
f 87//87 27//27 29//29
f 26//26 27//27 24//24
f 24//24 22//22 26//26
f 26//26 29//29 27//27
f 28//28 26//26 34//34
f 29//29 26//26 28//28
f 27//27 25//25 24//24
f 31//31 22//22 30//30
f 26//26 31//31 32//32
f 32//32 34//34 26//26
f 33//33 31//31 30//30
f 32//32 31//31 33//33
f 33//33 54//54 32//32
f 97//97 28//28 8//8
f 32//32 54//54 64//64
f 97//97 29//29 28//28
f 8//8 28//28 34//34
f 64//64 34//34 32//32
f 64//64 8//8 34//34
f 64//64 65//65 8//8
f 37//37 10//10 36//36
f 44//44 43//43 10//10
f 44//44 10//10 37//37
f 37//37 36//36 38//38
f 37//37 38//38 45//45
f 36//36 2//2 39//39
f 36//36 39//39 38//38
f 3//3 39//39 2//2
f 2//2 13//13 3//3
f 39//39 41//41 38//38
f 38//38 41//41 40//40
f 40//40 45//45 38//38
f 49//49 45//45 40//40
f 41//41 39//39 100//100
f 41//41 100//100 104//104
f 40//40 42//42 49//49
f 41//41 42//42 40//40
f 104//104 42//42 41//41
f 106//106 42//42 104//104
f 44//44 37//37 45//45
f 46//46 43//43 44//44
f 47//47 46//46 44//44
f 44//44 45//45 47//47
f 47//47 45//45 49//49
f 46//46 47//47 52//52
f 48//48 52//52 47//47
f 47//47 49//49 48//48
f 49//49 42//42 50//50
f 50//50 42//42 106//106
f 50//50 51//51 49//49
f 51//51 50//50 113//113
f 113//113 50//50 105//105
f 113//113 105//105 111//111
f 48//48 49//49 51//51
f 51//51 113//113 60//60
f 119//119 60//60 113//113
f 53//53 30//30 46//46
f 53//53 46//46 52//52
f 53//53 33//33 30//30
f 52//52 48//48 58//58
f 53//53 56//56 33//33
f 64//64 54//54 55//55
f 56//56 54//54 33//33
f 54//54 56//56 57//57
f 57//57 55//55 54//54
f 53//53 52//52 56//56
f 52//52 58//58 56//56
f 58//58 57//57 56//56
f 61//61 55//55 57//57
f 61//61 57//57 58//58
f 63//63 65//65 55//55
f 59//59 48//48 51//51
f 60//60 59//59 51//51
f 58//58 48//48 59//59
f 60//60 119//119 62//62
f 61//61 63//63 55//55
f 59//59 61//61 58//58
f 59//59 60//60 62//62
f 61//61 59//59 62//62
f 61//61 62//62 7//7
f 63//63 61//61 7//7
f 65//65 64//64 55//55
f 8//8 65//65 66//66
f 63//63 67//67 65//65
f 65//65 67//67 66//66
f 68//68 70//70 72//72
f 71//71 72//72 70//70
f 79//79 68//68 69//69
f 68//68 79//79 70//70
f 70//70 76//76 71//71
f 76//76 70//70 79//79
f 1//1 72//72 73//73
f 72//72 71//71 74//74
f 73//73 72//72 74//74
f 71//71 77//77 74//74
f 76//76 77//77 71//71
f 75//75 3//3 73//73
f 73//73 74//74 75//75
f 3//3 75//75 4//4
f 102//102 4//4 75//75
f 75//75 74//74 102//102
f 78//78 77//77 76//76
f 77//77 102//102 74//74
f 102//102 77//77 78//78
f 83//83 108//108 78//78
f 18//18 79//79 69//69
f 81//81 18//18 80//80
f 82//82 76//76 79//79
f 79//79 18//18 81//81
f 79//79 81//81 82//82
f 84//84 82//82 81//81
f 81//81 90//90 84//84
f 82//82 83//83 76//76
f 83//83 78//78 76//76
f 83//83 82//82 84//84
f 84//84 108//108 83//83
f 84//84 5//5 108//108
f 85//85 84//84 90//90
f 85//85 5//5 84//84
f 25//25 87//87 80//80
f 87//87 86//86 80//80
f 81//81 80//80 86//86
f 86//86 90//90 81//81
f 86//86 89//89 90//90
f 87//87 29//29 86//86
f 29//29 88//88 86//86
f 86//86 88//88 89//89
f 88//88 92//92 91//91
f 88//88 91//91 89//89
f 96//96 97//97 125//125
f 90//90 93//93 85//85
f 85//85 115//115 5//5
f 116//116 115//115 85//85
f 93//93 90//90 89//89
f 93//93 89//89 91//91
f 92//92 94//94 91//91
f 94//94 93//93 91//91
f 93//93 95//95 85//85
f 94//94 95//95 93//93
f 95//95 94//94 127//127
f 95//95 116//116 85//85
f 88//88 29//29 97//97
f 97//97 92//92 88//88
f 96//96 92//92 97//97
f 8//8 125//125 97//97
f 127//127 96//96 125//125
f 96//96 94//94 92//92
f 127//127 94//94 96//96
f 100//100 39//39 3//3
f 100//100 3//3 98//98
f 4//4 102//102 99//99
f 98//98 3//3 4//4
f 98//98 104//104 100//100
f 98//98 4//4 101//101
f 4//4 99//99 101//101
f 98//98 101//101 104//104
f 101//101 99//99 107//107
f 99//99 112//112 107//107
f 103//103 112//112 99//99
f 78//78 103//103 102//102
f 103//103 78//78 108//108
f 99//99 102//102 103//103
f 106//106 104//104 107//107
f 107//107 105//105 106//106
f 107//107 104//104 101//101
f 103//103 108//108 109//109
f 109//109 112//112 103//103
f 112//112 109//109 110//110
f 110//110 5//5 115//115
f 110//110 109//109 108//108
f 108//108 5//5 110//110
f 114//114 112//112 110//110
f 120//120 114//114 110//110
f 50//50 106//106 105//105
f 105//105 107//107 112//112
f 105//105 112//112 114//114
f 6//6 113//113 111//111
f 114//114 111//111 105//105
f 6//6 119//119 113//113
f 111//111 114//114 6//6
f 115//115 116//116 117//117
f 115//115 117//117 110//110
f 110//110 117//117 123//123
f 120//120 110//110 123//123
f 117//117 95//95 118//118
f 95//95 127//127 118//118
f 117//117 116//116 95//95
f 117//117 118//118 123//123
f 114//114 120//120 6//6
f 120//120 123//123 121//121
f 120//120 121//121 6//6
f 7//7 62//62 121//121
f 122//122 7//7 121//121
f 6//6 62//62 119//119
f 62//62 6//6 121//121
f 123//123 122//122 121//121
f 122//122 123//123 118//118
f 124//124 122//122 118//118
f 66//66 125//125 8//8
f 66//66 126//126 125//125
f 125//125 126//126 127//127
f 67//67 124//124 66//66
f 126//126 66//66 124//124
f 124//124 127//127 126//126
f 118//118 127//127 124//124
f 7//7 67//67 63//63
f 122//122 67//67 7//7
f 67//67 122//122 124//124
# 250 faces, 0 coords texture

# End of File
