####
#
# OBJ File Generated by Meshlab
#
####
# Object clif_zbar_chocolate_brownie_250_collision.obj
#
# Vertices: 127
# Faces: 250
#
####
vn 0.815529 0.578633 0.009866
v 0.015079 -0.054418 0.085539
vn -0.382857 0.923698 0.014241
v 0.047631 -0.078176 0.052681
vn -0.999623 -0.026040 -0.008681
v 0.069330 -0.055538 0.052165
vn -0.809833 -0.586364 -0.018635
v 0.042152 -0.014720 0.085580
vn 0.992543 0.121656 0.007608
v -0.055812 0.046332 0.079387
vn 0.472731 -0.881193 0.004970
v -0.037582 0.068210 0.067932
vn -0.806070 -0.591817 -0.001752
v 0.003505 0.039542 0.054301
vn 0.811847 0.583761 0.011290
v -0.014062 -0.013081 0.091613
vn 0.742343 0.548988 0.384108
v 0.005416 -0.032786 0.007497
vn 0.627895 0.445826 0.637955
v -0.006352 -0.015752 0.005675
vn 0.801417 0.594125 0.068894
v -0.011220 -0.014941 0.041511
vn 0.810650 0.584992 0.025122
v -0.010958 -0.016688 0.068883
vn 0.801372 0.581737 -0.139230
v -0.021461 -0.004015 0.122217
vn 0.646171 0.471216 -0.600348
v -0.006333 -0.020069 0.132282
vn 0.223697 0.194047 -0.955147
v 0.004338 -0.016301 0.139597
vn 0.910026 0.000803 0.414550
v -0.053164 0.049448 0.007414
vn 0.686031 0.515640 0.513300
v -0.020400 0.002132 0.007339
vn 0.442460 0.353775 0.824059
v -0.027801 0.018615 0.001925
vn 0.211271 0.152496 0.965458
v 0.003092 -0.009435 0.001121
vn 0.028780 0.042730 0.998672
v -0.006672 0.011487 -0.000067
vn -0.273086 -0.207947 0.939245
v 0.011421 0.012194 0.001051
vn 0.066189 0.033165 0.997256
v -0.024299 0.032008 -0.000448
vn -0.131703 -0.099826 0.986250
v -0.012765 0.033247 -0.000220
vn -0.404019 -0.334681 0.851327
v -0.015552 0.054093 0.001922
vn -0.625336 -0.453360 0.635153
v 0.005606 0.031897 0.005114
vn 0.398195 -0.050900 0.915887
v -0.045673 0.047003 0.001341
vn 0.915578 0.396098 0.069453
v -0.054290 0.043443 0.025292
vn 0.729019 -0.594161 0.339858
v -0.051556 0.057975 0.009882
vn -0.012714 -0.232227 0.972579
v -0.029602 0.061421 0.001162
vn 0.316862 -0.920620 0.228160
v -0.033295 0.070338 0.009940
vn 0.248948 -0.611974 0.750675
v -0.035852 0.064938 0.003535
vn -0.095780 -0.943925 0.315962
v -0.026084 0.071248 0.010008
vn -0.362027 -0.677554 0.640201
v -0.022319 0.068203 0.005577
vn -0.564049 -0.820698 0.091123
v -0.018197 0.068819 0.017367
vn -0.779771 -0.577821 0.240997
v -0.007973 0.054315 0.010341
vn 0.772430 0.437873 0.460021
v -0.050353 0.040938 0.006914
vn 0.917255 0.398096 0.012778
v -0.053564 0.040604 0.060384
vn 0.782740 0.596070 0.178938
v -0.035029 0.019800 0.013821
vn 0.991816 -0.123250 0.033330
v -0.055002 0.050427 0.028038
vn 0.737192 -0.675671 0.004233
v -0.051742 0.057710 0.044477
vn 0.408131 -0.912914 -0.004187
v -0.034694 0.069880 0.044215
vn -0.127183 -0.991876 -0.002692
v -0.026743 0.071586 0.036763
vn -0.695299 -0.718684 -0.007266
v -0.015597 0.065206 0.055805
vn -0.107826 -0.994149 0.006437
v -0.024891 0.071715 0.070207
vn 0.799873 0.599657 0.024777
v -0.034901 0.015483 0.066067
vn 0.872576 0.488469 0.003088
v -0.052411 0.038338 0.095987
vn -0.804037 -0.593840 -0.029645
v 0.011021 0.028063 0.082946
vn 0.846066 -0.533056 0.004855
v -0.053935 0.055399 0.095762
vn 0.996061 0.079890 -0.038481
v -0.056094 0.048042 0.121093
vn 0.223703 -0.974610 -0.009600
v -0.032100 0.072050 0.104291
vn -0.571167 -0.820790 -0.008477
v -0.019414 0.068995 0.100661
vn -0.326052 -0.910504 -0.254308
v -0.022238 0.069955 0.126901
vn -0.750966 -0.494294 -0.437862
v -0.009122 0.053105 0.128814
vn 0.844085 0.500812 -0.191593
v -0.052422 0.037891 0.127779
vn 0.502573 0.386163 -0.773498
v -0.040626 0.030019 0.135725
vn 0.868376 0.211597 -0.448497
v -0.054166 0.042786 0.131248
vn 0.481495 -0.235168 -0.844310
v -0.046641 0.051362 0.139685
vn 0.789979 0.592056 -0.159380
v -0.031775 0.010632 0.126007
vn 0.597589 0.464582 -0.653491
v -0.023465 0.003503 0.132565
vn 0.259431 0.204357 -0.943893
v -0.021509 0.013728 0.137637
vn -0.093479 -0.091149 -0.991440
v -0.001905 0.013996 0.139378
vn 0.167295 0.131782 -0.977060
v -0.031320 0.025829 0.138093
vn -0.372963 -0.235123 -0.897561
v -0.012507 0.045617 0.136506
vn 0.810798 -0.524141 -0.260543
v -0.053677 0.056263 0.128240
vn -0.222908 -0.404873 -0.886786
v -0.026529 0.062531 0.139305
vn 0.237132 -0.872298 -0.427627
v -0.031864 0.070703 0.129313
vn -0.712977 -0.646397 -0.271727
v -0.016945 0.066054 0.127800
vn -0.446759 0.853542 0.268091
v 0.048745 -0.077367 0.010943
vn 0.664293 0.480261 0.572768
v 0.023943 -0.058643 0.007513
vn 0.121949 0.555092 0.822801
v 0.042307 -0.072875 0.001933
vn -0.428927 0.469959 0.771466
v 0.057552 -0.065966 0.002540
vn -0.104673 0.025112 0.994190
v 0.048072 -0.050076 -0.000545
vn 0.607953 0.741017 0.285109
v 0.035035 -0.075619 0.010474
vn -0.899116 0.396592 0.185216
v 0.068697 -0.060280 0.010789
vn -0.747605 -0.120734 0.653077
v 0.067185 -0.053981 0.003707
vn 0.351667 0.247412 0.902839
v 0.016318 -0.034352 0.001207
vn 0.235721 0.180154 0.954977
v 0.032328 -0.052492 0.000034
vn -0.018966 -0.037343 0.999123
v 0.029870 -0.028730 -0.000886
vn 0.811025 0.580402 0.073302
v 0.021745 -0.057556 0.028170
vn -0.366527 -0.260486 0.893199
v 0.048482 -0.032527 0.001295
vn -0.872636 -0.468867 0.136639
v 0.067070 -0.047217 0.009829
vn -0.069474 -0.055596 0.996033
v 0.018694 -0.006179 0.000243
vn -0.757060 -0.551998 0.349512
v 0.050752 -0.026100 0.007749
vn -0.808800 -0.587947 -0.012658
v 0.056897 -0.034782 0.026781
vn -0.770880 -0.584249 0.253765
v 0.037173 -0.006799 0.010232
vn 0.058110 0.977245 0.203999
v 0.042946 -0.078030 0.010252
vn 0.571208 0.819155 0.052019
v 0.035506 -0.077769 0.036814
vn 0.812317 0.580761 0.053469
v 0.006448 -0.040640 0.056150
vn 0.743334 0.666941 0.051432
v 0.029250 -0.072604 0.054341
vn -0.693511 0.720323 0.013332
v 0.063510 -0.066500 0.069162
vn -0.773344 0.633973 0.004141
v 0.066590 -0.062943 0.036129
vn -0.805943 -0.591964 0.005778
v 0.042281 -0.013459 0.029598
vn -0.874836 -0.484362 -0.007404
v 0.067831 -0.050098 0.052226
vn -0.952692 -0.303606 0.014158
v 0.068179 -0.049892 0.025583
vn -0.887029 -0.461062 -0.024533
v 0.066610 -0.048019 0.083040
vn -0.397093 0.917729 0.009487
v 0.047792 -0.078467 0.081056
vn 0.211639 0.977046 0.024288
v 0.038347 -0.079699 0.073712
vn 0.182714 0.982349 -0.040073
v 0.039133 -0.081151 0.121088
vn 0.676305 0.736559 0.009602
v 0.030563 -0.076088 0.098870
vn 0.605288 0.755688 -0.250125
v 0.031762 -0.076950 0.127911
vn 0.813958 0.580860 -0.008615
v 0.013560 -0.051494 0.104267
vn -0.187336 0.855921 -0.481980
v 0.044102 -0.080046 0.130509
vn -0.733270 0.679767 -0.015238
v 0.065511 -0.065201 0.107855
vn -0.929045 0.369751 -0.012634
v 0.067766 -0.061152 0.096585
vn 0.768841 0.546145 -0.332579
v 0.006302 -0.042201 0.127100
vn -0.817648 -0.569967 -0.081169
v 0.057419 -0.037905 0.124238
vn -0.802536 -0.584914 -0.117521
v 0.040265 -0.013460 0.121793
vn -0.971887 -0.234235 -0.023884
v 0.068396 -0.052635 0.091291
vn 0.568129 0.496767 -0.656089
v 0.025056 -0.066698 0.131651
vn -0.251606 0.107265 -0.961867
v 0.056141 -0.058462 0.140106
vn -0.799004 0.488093 -0.351223
v 0.063500 -0.066219 0.129912
vn -0.970839 0.205620 -0.123257
v 0.068020 -0.059647 0.124166
vn -0.891807 -0.224267 -0.392918
v 0.067266 -0.051931 0.129914
vn 0.318420 0.256682 -0.912537
v 0.014622 -0.043154 0.134805
vn -0.662222 -0.477770 -0.577232
v 0.053837 -0.035226 0.131553
vn -0.179071 -0.124226 -0.975962
v 0.038152 -0.034931 0.138951
vn -0.457936 -0.315832 -0.830990
v 0.030306 -0.011026 0.137033
vn -0.459279 -0.355799 0.813923
v 0.033620 -0.008973 0.002827
vn -0.731386 -0.568581 0.376551
v 0.018743 0.015999 0.007453
vn -0.804493 -0.593933 0.005986
v 0.028284 0.005563 0.048585
vn -0.801856 -0.595788 0.045439
v 0.018730 0.016399 0.024794
vn -0.803747 -0.594534 -0.022799
v 0.026289 0.006155 0.103679
vn -0.787157 -0.600174 -0.142038
v 0.017627 0.017499 0.122189
vn -0.813626 -0.580047 -0.039475
v -0.005722 0.048636 0.107944
vn -0.234718 -0.169504 -0.957171
v 0.020777 -0.004245 0.138996
vn -0.678866 -0.520515 -0.517886
v 0.027059 -0.000051 0.132961
vn -0.648246 -0.490643 -0.582277
v 0.006787 0.027522 0.131811
# 127 vertices, 0 vertices normals

f 79//79 9//9 11//11
f 19//19 17//17 10//10
f 10//10 11//11 9//9
f 17//17 11//11 10//10
f 12//12 45//45 8//8
f 12//12 88//88 11//11
f 12//12 1//1 88//88
f 1//1 12//12 8//8
f 1//1 8//8 101//101
f 13//13 101//101 8//8
f 13//13 105//105 101//101
f 59//59 13//13 58//58
f 105//105 13//13 14//14
f 114//114 105//105 14//14
f 14//14 13//13 59//59
f 59//59 15//15 14//14
f 14//14 15//15 114//114
f 59//59 60//60 15//15
f 16//16 36//36 26//26
f 36//36 16//16 27//27
f 17//17 18//18 38//38
f 18//18 19//19 20//20
f 19//19 18//18 17//17
f 20//20 19//19 82//82
f 22//22 18//18 20//20
f 22//22 20//20 23//23
f 20//20 82//82 21//21
f 21//21 23//23 20//20
f 22//22 26//26 18//18
f 26//26 36//36 18//18
f 38//38 18//18 36//36
f 23//23 21//21 25//25
f 25//25 21//21 119//119
f 25//25 24//24 23//23
f 28//28 16//16 26//26
f 26//26 31//31 28//28
f 30//30 28//28 31//31
f 39//39 27//27 16//16
f 28//28 39//39 16//16
f 39//39 28//28 40//40
f 26//26 22//22 29//29
f 26//26 29//29 31//31
f 29//29 22//22 23//23
f 29//29 23//23 24//24
f 30//30 31//31 32//32
f 33//33 29//29 24//24
f 31//31 29//29 33//33
f 32//32 31//31 33//33
f 28//28 30//30 41//41
f 41//41 30//30 42//42
f 34//34 32//32 33//33
f 34//34 42//42 32//32
f 25//25 35//35 24//24
f 35//35 33//33 24//24
f 33//33 35//35 34//34
f 35//35 43//43 34//34
f 30//30 32//32 42//42
f 37//37 27//27 39//39
f 38//38 36//36 27//27
f 45//45 27//27 37//37
f 5//5 37//37 39//39
f 17//17 38//38 11//11
f 11//11 38//38 45//45
f 38//38 27//27 45//45
f 12//12 11//11 45//45
f 41//41 40//40 28//28
f 48//48 5//5 39//39
f 39//39 40//40 48//48
f 6//6 48//48 40//40
f 43//43 42//42 34//34
f 42//42 43//43 44//44
f 7//7 43//43 35//35
f 6//6 40//40 41//41
f 42//42 44//44 41//41
f 6//6 41//41 44//44
f 5//5 46//46 37//37
f 58//58 45//45 46//46
f 46//46 5//5 49//49
f 45//45 37//37 46//46
f 58//58 46//46 54//54
f 54//54 46//46 49//49
f 54//54 49//49 56//56
f 8//8 45//45 58//58
f 124//124 7//7 47//47
f 13//13 8//8 58//58
f 50//50 48//48 6//6
f 48//48 49//49 5//5
f 50//50 64//64 48//48
f 49//49 48//48 64//64
f 6//6 44//44 50//50
f 51//51 44//44 43//43
f 51//51 50//50 44//44
f 124//124 43//43 7//7
f 124//124 51//51 43//43
f 66//66 64//64 50//50
f 52//52 51//51 67//67
f 66//66 50//50 52//52
f 52//52 50//50 51//51
f 53//53 67//67 124//124
f 67//67 51//51 124//124
f 55//55 54//54 56//56
f 55//55 56//56 57//57
f 55//55 62//62 59//59
f 55//55 59//59 58//58
f 59//59 62//62 60//60
f 15//15 60//60 61//61
f 125//125 15//15 61//61
f 127//127 125//125 61//61
f 54//54 55//55 58//58
f 62//62 55//55 65//65
f 65//65 63//63 62//62
f 61//61 63//63 127//127
f 53//53 127//127 63//63
f 53//53 124//124 127//127
f 61//61 60//60 62//62
f 62//62 63//63 61//61
f 56//56 49//49 64//64
f 64//64 57//57 56//56
f 64//64 66//66 57//57
f 53//53 63//63 65//65
f 66//66 52//52 65//65
f 67//67 65//65 52//52
f 57//57 65//65 55//55
f 66//66 65//65 57//57
f 53//53 65//65 67//67
f 73//73 70//70 69//69
f 69//69 70//70 77//77
f 73//73 69//69 79//79
f 73//73 86//86 70//70
f 86//86 68//68 70//70
f 68//68 71//71 70//70
f 77//77 70//70 72//72
f 72//72 70//70 71//71
f 68//68 74//74 71//71
f 75//75 71//71 74//74
f 91//91 74//74 68//68
f 94//94 75//75 74//74
f 3//3 74//74 91//91
f 94//94 74//74 3//3
f 76//76 69//69 77//77
f 9//9 69//69 76//76
f 76//76 10//10 9//9
f 76//76 77//77 78//78
f 69//69 9//9 79//79
f 72//72 78//78 77//77
f 72//72 71//71 75//75
f 80//80 72//72 75//75
f 78//78 72//72 80//80
f 80//80 75//75 83//83
f 10//10 76//76 19//19
f 19//19 76//76 78//78
f 19//19 78//78 82//82
f 82//82 78//78 118//118
f 78//78 80//80 118//118
f 118//118 80//80 83//83
f 83//83 85//85 118//118
f 83//83 81//81 84//84
f 84//84 92//92 83//83
f 83//83 92//92 85//85
f 81//81 83//83 75//75
f 81//81 75//75 94//94
f 94//94 84//84 81//81
f 2//2 68//68 86//86
f 86//86 73//73 87//87
f 87//87 97//97 86//86
f 2//2 86//86 97//97
f 96//96 2//2 97//97
f 87//87 73//73 79//79
f 87//87 79//79 89//89
f 88//88 89//89 79//79
f 91//91 68//68 2//2
f 2//2 90//90 91//91
f 1//1 99//99 89//89
f 89//89 88//88 1//1
f 89//89 97//97 87//87
f 3//3 93//93 94//94
f 91//91 104//104 3//3
f 104//104 91//91 90//90
f 79//79 11//11 88//88
f 92//92 84//84 93//93
f 120//120 92//92 4//4
f 93//93 4//4 92//92
f 84//84 94//94 93//93
f 95//95 93//93 3//3
f 3//3 108//108 95//95
f 4//4 93//93 95//95
f 99//99 97//97 89//89
f 99//99 1//1 101//101
f 90//90 2//2 96//96
f 98//98 97//97 99//99
f 96//96 97//97 98//98
f 102//102 96//96 98//98
f 99//99 100//100 98//98
f 100//100 101//101 109//109
f 100//100 99//99 101//101
f 109//109 101//101 105//105
f 103//103 96//96 102//102
f 102//102 111//111 103//103
f 108//108 3//3 104//104
f 104//104 90//90 103//103
f 96//96 103//103 90//90
f 104//104 112//112 108//108
f 112//112 113//113 108//108
f 111//111 112//112 104//104
f 104//104 103//103 111//111
f 106//106 4//4 95//95
f 122//122 4//4 107//107
f 106//106 107//107 4//4
f 115//115 107//107 106//106
f 106//106 95//95 108//108
f 113//113 106//106 108//108
f 102//102 98//98 100//100
f 105//105 114//114 109//109
f 100//100 109//109 102//102
f 110//110 111//111 102//102
f 109//109 110//110 102//102
f 110//110 109//109 114//114
f 111//111 113//113 112//112
f 113//113 111//111 110//110
f 110//110 114//114 116//116
f 115//115 110//110 116//116
f 115//115 116//116 117//117
f 126//126 123//123 107//107
f 125//125 114//114 15//15
f 114//114 125//125 116//116
f 115//115 117//117 126//126
f 115//115 126//126 107//107
f 125//125 117//117 116//116
f 113//113 115//115 106//106
f 115//115 113//113 110//110
f 82//82 118//118 21//21
f 118//118 119//119 21//21
f 85//85 119//119 118//118
f 119//119 85//85 92//92
f 121//121 119//119 92//92
f 119//119 121//121 25//25
f 35//35 25//25 121//121
f 121//121 92//92 120//120
f 121//121 120//120 7//7
f 121//121 7//7 35//35
f 47//47 7//7 120//120
f 4//4 47//47 120//120
f 47//47 4//4 122//122
f 107//107 123//123 122//122
f 124//124 47//47 122//122
f 124//124 122//122 123//123
f 125//125 127//127 126//126
f 123//123 126//126 127//127
f 126//126 117//117 125//125
f 124//124 123//123 127//127
# 250 faces, 0 coords texture

# End of File
