####
#
# OBJ File Generated by Meshlab
#
####
# Object honey_bunches_of_oats_honey_roasted_250_collision.obj
#
# Vertices: 127
# Faces: 250
#
####
vn -0.739224 -0.673411 0.008070
v 0.061253 0.063466 0.130428
vn -0.046361 0.881747 0.469439
v -0.023068 -0.106822 0.005938
vn 0.035960 0.999329 0.007001
v -0.026260 -0.106932 0.049134
vn 0.668940 -0.117765 0.733928
v -0.059932 -0.079785 0.003785
vn 0.498809 0.391915 0.773041
v -0.056624 -0.087990 0.002490
vn 0.887523 -0.405685 0.218455
v -0.055494 -0.057517 0.012469
vn 0.525693 -0.255654 0.811350
v -0.046796 -0.051293 0.002484
vn -0.066192 0.156901 0.985394
v -0.025474 -0.088700 0.000360
vn -0.640968 0.529073 0.556095
v -0.014636 -0.101273 0.005714
vn 0.132205 -0.020442 0.991012
v -0.042164 -0.069773 0.000136
vn -0.046231 0.037168 0.998239
v -0.021502 -0.058330 -0.000856
vn -0.498719 0.238124 0.833413
v -0.001467 -0.068621 0.002874
vn 0.106316 -0.045999 0.993268
v -0.025905 -0.042441 -0.000208
vn -0.067245 0.035694 0.997098
v 0.000111 -0.023493 -0.000990
vn 0.441701 -0.219198 0.869973
v -0.032517 -0.026908 0.002152
vn 0.069441 -0.028522 0.997178
v -0.003721 -0.000154 -0.001203
vn 0.619993 0.775586 0.118635
v -0.059373 -0.090614 0.015973
vn 0.964241 0.168046 0.204937
v -0.066196 -0.080085 0.016424
vn -0.683766 0.729699 0.001965
v -0.014913 -0.101581 0.038627
vn 0.909853 -0.414764 0.011760
v -0.045343 -0.030294 0.076654
vn -0.607528 0.794290 0.003614
v -0.016186 -0.103829 0.087637
vn -0.728633 0.684872 0.006641
v -0.014926 -0.101801 0.121292
vn 0.181725 0.983302 0.009693
v -0.027784 -0.107096 0.092273
vn -0.131401 0.991303 0.007213
v -0.025486 -0.107983 0.133690
vn 0.993639 -0.112518 0.004624
v -0.065620 -0.077977 0.052837
vn 0.728848 0.684648 0.006098
v -0.061403 -0.089134 0.062411
vn 0.831029 0.556200 0.005729
v -0.063111 -0.088440 0.121273
vn 0.998154 0.059721 0.011036
v -0.066070 -0.079247 0.094790
vn 0.986660 -0.162703 -0.005519
v -0.066260 -0.079411 0.130939
vn 0.460500 0.887650 0.004206
v -0.045567 -0.097776 0.134945
vn -0.581616 0.813351 0.013502
v -0.016320 -0.104223 0.158384
vn 0.124710 0.992133 0.010900
v -0.026526 -0.107979 0.190466
vn -0.594146 0.804262 0.012406
v -0.017030 -0.105743 0.216282
vn 0.999807 -0.019010 -0.005020
v -0.065660 -0.080409 0.190766
vn 0.915868 -0.400917 -0.021270
v -0.058105 -0.061763 0.159044
vn 0.718781 0.695235 0.001659
v -0.061999 -0.089981 0.208683
vn -0.848774 0.528668 0.009645
v -0.004605 -0.086950 0.180752
vn 0.910860 -0.411920 -0.025612
v -0.053928 -0.053835 0.194118
vn 0.904421 -0.423786 -0.049271
v -0.050567 -0.048642 0.234840
vn -0.344953 0.938393 -0.020639
v -0.023279 -0.108977 0.241777
vn 0.113708 0.872090 -0.475951
v -0.026434 -0.108430 0.266332
vn 0.227644 0.213218 -0.950114
v -0.041025 -0.089693 0.276475
vn 0.993923 -0.106793 -0.026693
v -0.065969 -0.083065 0.228658
vn 0.833924 0.176861 -0.522772
v -0.063535 -0.085725 0.267808
vn 0.505480 0.811532 -0.293096
v -0.056266 -0.093553 0.267694
vn 0.874433 -0.392891 -0.284610
v -0.057556 -0.067580 0.264470
vn 0.751631 -0.416420 -0.511512
v -0.039203 -0.031102 0.264610
vn 0.477123 -0.248121 -0.843084
v -0.045586 -0.055965 0.272279
vn -0.555766 0.572909 -0.602411
v -0.011625 -0.099305 0.275296
vn -0.405012 0.129880 -0.905039
v -0.009463 -0.079713 0.276515
vn 0.199341 -0.130523 -0.971199
v -0.040053 -0.061094 0.274671
vn 0.481763 -0.220577 0.848086
v -0.016314 0.006417 0.001489
vn 0.880631 -0.441613 0.171660
v -0.004685 0.046187 0.012099
vn 0.847555 -0.415510 0.330155
v -0.027051 0.000316 0.014780
vn 0.896175 -0.440410 0.053940
v -0.034020 -0.008180 0.041937
vn 0.906893 -0.421165 -0.012884
v -0.040303 -0.018681 0.128726
vn 0.874086 -0.485769 0.001298
v -0.015429 0.031420 0.108074
vn 0.868612 -0.495196 -0.017152
v -0.013387 0.034339 0.150054
vn 0.865851 -0.499665 -0.025239
v -0.006479 0.045138 0.177068
vn 0.901225 -0.432044 -0.033649
v -0.032633 -0.005222 0.172663
vn 0.897068 -0.440451 -0.035662
v -0.027392 0.002436 0.204203
vn 0.895094 -0.441261 -0.064001
v -0.028132 -0.000675 0.225080
vn 0.828425 -0.396335 -0.395764
v -0.018332 0.009155 0.264486
vn 0.879130 -0.473050 -0.057918
v -0.009190 0.037183 0.221609
vn 0.440013 -0.188111 -0.878068
v -0.013134 -0.002963 0.275144
vn -0.531653 0.251931 0.808626
v 0.012283 -0.033858 0.001427
vn -0.873372 0.443629 0.201034
v 0.004879 -0.069295 0.016864
vn -0.868060 0.418008 0.267845
v 0.036808 -0.001017 0.016247
vn -0.865457 0.500949 0.005827
v 0.005080 -0.069556 0.056994
vn -0.871864 0.489672 0.008670
v 0.016176 -0.050593 0.108176
vn -0.899130 0.435910 0.039351
v 0.031756 -0.018303 0.049897
vn -0.893243 0.449569 0.001882
v 0.029604 -0.026317 0.148195
vn -0.897626 0.439774 -0.029453
v 0.033632 -0.016980 0.198976
vn -0.877900 0.478819 -0.004851
v 0.017333 -0.048970 0.187632
vn -0.775813 0.629071 -0.048821
v -0.012253 -0.100861 0.234745
vn -0.862720 0.456187 -0.218191
v -0.004282 -0.084500 0.266167
vn -0.885175 0.462370 -0.051769
v 0.015854 -0.050892 0.221929
vn -0.760636 0.349300 -0.547196
v 0.014663 -0.039464 0.269970
vn -0.397516 0.180957 -0.899575
v 0.023229 -0.008639 0.273930
vn -0.495284 0.235624 0.836167
v 0.024874 -0.007767 0.001619
vn -0.218582 0.099394 0.970743
v 0.027590 0.013881 0.000243
vn -0.467680 -0.029937 0.883391
v 0.055583 0.057068 0.001810
vn -0.822216 0.284904 0.492737
v 0.056032 0.040501 0.008741
vn 0.164349 -0.090900 0.982205
v 0.005461 0.030693 -0.000357
vn -0.024181 -0.014989 0.999595
v 0.022007 0.033983 -0.001027
vn 0.645083 -0.312075 0.697479
v -0.005260 0.036880 0.003646
vn 0.176624 -0.309628 0.934310
v 0.016413 0.067462 0.000959
vn 0.627746 -0.639326 0.444068
v 0.011601 0.077302 0.009315
vn -0.185662 -0.428032 0.884487
v 0.040349 0.066294 0.000838
vn -0.778503 -0.551538 0.299565
v 0.059559 0.063613 0.009598
vn 0.542197 -0.840243 -0.003883
v 0.012150 0.077991 0.027347
vn 0.880526 -0.473274 0.026176
v -0.010832 0.038896 0.055067
vn -0.986754 0.153878 0.051359
v 0.062698 0.052831 0.038903
vn -0.209704 -0.977593 -0.018336
v 0.025640 0.080381 0.027224
vn -0.047220 -0.915515 0.399502
v 0.024464 0.081667 0.010977
vn -0.725985 -0.687563 0.014250
v 0.057991 0.064781 0.054247
vn -0.910653 0.412694 0.019877
v 0.042027 0.000741 0.090913
vn -0.917815 0.396976 0.005023
v 0.053712 0.026621 0.127825
vn -0.993983 -0.104896 0.031546
v 0.063974 0.053986 0.076292
vn -0.998149 0.060671 0.004201
v 0.064783 0.052955 0.152245
vn -0.995733 0.090897 0.015935
v 0.064706 0.053971 0.102868
vn 0.637476 -0.770450 -0.005488
v 0.013953 0.078937 0.073982
vn -0.072642 -0.997296 0.011089
v 0.025998 0.081208 0.078828
vn 0.607166 -0.794569 -0.003145
v 0.013628 0.078290 0.115971
vn -0.011350 -0.999933 -0.002421
v 0.024305 0.082177 0.120508
vn -0.912534 0.408997 -0.001520
v 0.053764 0.026847 0.178417
vn -0.990833 0.135088 -0.000568
v 0.064778 0.051114 0.202057
vn -0.127109 -0.991814 -0.012172
v 0.026510 0.080776 0.166847
vn 0.577208 -0.816419 -0.017027
v 0.015662 0.078746 0.168679
vn -0.786397 -0.617702 0.004838
v 0.062442 0.062526 0.194231
vn -0.820389 -0.571740 -0.008694
v 0.063535 0.061863 0.226573
vn -0.850350 0.419043 -0.318287
v 0.039681 0.005294 0.265246
vn 0.590644 -0.806636 -0.021835
v 0.015397 0.077709 0.213614
vn -0.142383 -0.961201 -0.236263
v 0.026645 0.080401 0.265950
vn -0.894412 0.441072 -0.074046
v 0.052746 0.025907 0.238114
vn -0.759189 -0.364991 -0.538901
v 0.062365 0.061425 0.269167
vn -0.959340 0.228796 -0.165284
v 0.063754 0.050735 0.260921
vn -0.198370 0.078489 -0.976979
v 0.007505 -0.036045 0.276309
vn 0.277228 -0.164349 -0.946644
v 0.000878 0.030399 0.276414
vn -0.641380 0.295835 -0.707894
v 0.051671 0.035650 0.270358
vn -0.116907 0.021815 -0.992903
v 0.029023 0.022671 0.275421
vn 0.224381 -0.148457 -0.963127
v 0.009732 0.044356 0.274469
vn 0.797180 -0.405854 -0.446975
v 0.000535 0.047344 0.267295
vn 0.428592 -0.595280 -0.679669
v 0.016997 0.076127 0.273779
vn -0.194380 -0.257444 -0.946541
v 0.042686 0.066678 0.275192
vn 0.649206 -0.758791 -0.052606
v 0.015278 0.075898 0.261423
vn -0.074430 -0.997179 -0.009719
v 0.026229 0.080841 0.220110
# 127 vertices, 0 vertices normals

f 5//5 17//17 2//2
f 19//19 9//9 2//2
f 3//3 19//19 2//2
f 10//10 4//4 5//5
f 18//18 5//5 4//4
f 7//7 4//4 10//10
f 4//4 6//6 18//18
f 6//6 4//4 7//7
f 8//8 5//5 2//2
f 8//8 2//2 9//9
f 8//8 9//9 12//12
f 10//10 5//5 8//8
f 10//10 8//8 11//11
f 10//10 13//13 7//7
f 11//11 13//13 10//10
f 12//12 11//11 8//8
f 11//11 12//12 66//66
f 7//7 13//13 15//15
f 13//13 11//11 14//14
f 11//11 66//66 14//14
f 7//7 15//15 54//54
f 54//54 6//6 7//7
f 52//52 54//54 15//15
f 15//15 13//13 16//16
f 16//16 13//13 14//14
f 17//17 5//5 18//18
f 17//17 18//18 26//26
f 26//26 18//18 25//25
f 18//18 6//6 25//25
f 26//26 3//3 17//17
f 25//25 28//28 26//26
f 2//2 17//17 3//3
f 67//67 9//9 19//19
f 20//20 25//25 6//6
f 20//20 6//6 55//55
f 54//54 55//55 6//6
f 23//23 3//3 26//26
f 21//21 3//3 23//23
f 19//19 3//3 21//21
f 30//30 23//23 26//26
f 23//23 24//24 21//21
f 22//22 21//21 24//24
f 31//31 22//22 24//24
f 32//32 24//24 30//30
f 28//28 27//27 26//26
f 20//20 28//28 25//25
f 21//21 69//69 19//19
f 30//30 26//26 27//27
f 24//24 23//23 30//30
f 29//29 28//28 20//20
f 27//27 28//28 29//29
f 29//29 20//20 56//56
f 60//60 35//35 56//56
f 31//31 24//24 32//32
f 33//33 31//31 32//32
f 27//27 29//29 34//34
f 29//29 56//56 35//35
f 30//30 27//27 36//36
f 36//36 27//27 34//34
f 35//35 34//34 29//29
f 32//32 30//30 36//36
f 37//37 22//22 31//31
f 38//38 34//34 35//35
f 38//38 35//35 60//60
f 34//34 43//43 36//36
f 34//34 38//38 43//43
f 43//43 38//38 39//39
f 37//37 31//31 33//33
f 33//33 75//75 37//37
f 62//62 39//39 38//38
f 38//38 61//61 62//62
f 40//40 32//32 45//45
f 41//41 40//40 45//45
f 33//33 32//32 40//40
f 75//75 33//33 40//40
f 76//76 75//75 40//40
f 45//45 42//42 41//41
f 49//49 76//76 40//40
f 49//49 40//40 41//41
f 42//42 49//49 41//41
f 45//45 32//32 36//36
f 36//36 43//43 44//44
f 44//44 45//45 36//36
f 39//39 46//46 43//43
f 44//44 43//43 46//46
f 44//44 46//46 48//48
f 47//47 46//46 39//39
f 47//47 39//39 62//62
f 48//48 46//46 47//47
f 45//45 44//44 42//42
f 48//48 42//42 44//44
f 48//48 51//51 42//42
f 50//50 49//49 42//42
f 50//50 42//42 51//51
f 50//50 76//76 49//49
f 118//118 50//50 51//51
f 48//48 47//47 51//51
f 65//65 51//51 47//47
f 65//65 118//118 51//51
f 16//16 52//52 15//15
f 84//84 86//86 52//52
f 86//86 54//54 52//52
f 54//54 86//86 53//53
f 55//55 54//54 92//92
f 20//20 55//55 92//92
f 92//92 54//54 53//53
f 92//92 53//53 91//91
f 20//20 92//92 57//57
f 56//56 20//20 57//57
f 102//102 57//57 92//92
f 57//57 102//102 104//104
f 56//56 57//57 58//58
f 58//58 57//57 104//104
f 60//60 56//56 58//58
f 60//60 58//58 59//59
f 61//61 38//38 60//60
f 61//61 60//60 59//59
f 61//61 59//59 64//64
f 64//64 62//62 61//61
f 64//64 59//59 113//113
f 62//62 63//63 47//47
f 63//63 62//62 64//64
f 47//47 63//63 65//65
f 119//119 63//63 123//123
f 123//123 63//63 64//64
f 119//119 65//65 63//63
f 12//12 9//9 67//67
f 12//12 67//67 66//66
f 14//14 66//66 80//80
f 68//68 66//66 67//67
f 80//80 66//66 68//68
f 67//67 19//19 69//69
f 68//68 67//67 71//71
f 71//71 67//67 69//69
f 21//21 70//70 69//69
f 71//71 69//69 70//70
f 71//71 70//70 97//97
f 70//70 21//21 22//22
f 70//70 22//22 37//37
f 72//72 97//97 70//70
f 98//98 97//97 72//72
f 72//72 70//70 37//37
f 74//74 72//72 37//37
f 73//73 72//72 74//74
f 77//77 37//37 75//75
f 77//77 74//74 37//37
f 73//73 74//74 77//77
f 76//76 77//77 75//75
f 78//78 76//76 50//50
f 118//118 78//78 50//50
f 112//112 73//73 77//77
f 77//77 76//76 78//78
f 112//112 77//77 78//78
f 79//79 112//112 78//78
f 78//78 118//118 79//79
f 14//14 80//80 81//81
f 16//16 14//14 81//81
f 83//83 80//80 68//68
f 80//80 83//83 81//81
f 52//52 16//16 84//84
f 85//85 84//84 16//16
f 16//16 81//81 85//85
f 82//82 81//81 83//83
f 86//86 84//84 87//87
f 85//85 87//87 84//84
f 82//82 85//85 81//81
f 87//87 85//85 89//89
f 82//82 89//89 85//85
f 86//86 87//87 88//88
f 53//53 86//86 88//88
f 90//90 82//82 83//83
f 90//90 89//89 82//82
f 95//95 89//89 90//90
f 93//93 83//83 68//68
f 71//71 93//93 68//68
f 93//93 71//71 97//97
f 53//53 88//88 91//91
f 102//102 92//92 91//91
f 90//90 83//83 93//93
f 90//90 94//94 95//95
f 93//93 96//96 90//90
f 90//90 96//96 94//94
f 94//94 96//96 103//103
f 87//87 95//95 88//88
f 89//89 95//95 87//87
f 88//88 95//95 91//91
f 94//94 91//91 95//95
f 91//91 94//94 103//103
f 103//103 102//102 91//91
f 99//99 93//93 97//97
f 96//96 93//93 99//99
f 103//103 96//96 1//1
f 101//101 99//99 97//97
f 101//101 97//97 98//98
f 1//1 96//96 99//99
f 100//100 101//101 98//98
f 99//99 101//101 1//1
f 100//100 1//1 101//101
f 103//103 104//104 102//102
f 105//105 104//104 103//103
f 105//105 103//103 1//1
f 109//109 104//104 105//105
f 73//73 106//106 72//72
f 106//106 98//98 72//72
f 104//104 109//109 58//58
f 58//58 109//109 59//59
f 1//1 108//108 105//105
f 108//108 1//1 110//110
f 110//110 1//1 100//100
f 100//100 98//98 106//106
f 106//106 107//107 100//100
f 110//110 100//100 107//107
f 115//115 106//106 73//73
f 113//113 59//59 109//109
f 107//107 106//106 115//115
f 115//115 117//117 107//107
f 111//111 110//110 107//107
f 111//111 107//107 117//117
f 108//108 109//109 105//105
f 108//108 113//113 109//109
f 127//127 108//108 110//110
f 113//113 108//108 127//127
f 127//127 110//110 111//111
f 73//73 112//112 115//115
f 123//123 64//64 126//126
f 64//64 113//113 126//126
f 123//123 126//126 124//124
f 127//127 111//111 114//114
f 114//114 111//111 116//116
f 120//120 115//115 112//112
f 117//117 115//115 120//120
f 120//120 116//116 117//117
f 116//116 111//111 117//117
f 119//119 118//118 65//65
f 119//119 79//79 118//118
f 121//121 79//79 119//119
f 122//122 121//121 119//119
f 112//112 79//79 120//120
f 120//120 79//79 121//121
f 123//123 122//122 119//119
f 121//121 122//122 125//125
f 122//122 123//123 124//124
f 125//125 122//122 124//124
f 125//125 120//120 121//121
f 120//120 125//125 116//116
f 113//113 127//127 126//126
f 126//126 127//127 114//114
f 124//124 126//126 114//114
f 125//125 114//114 116//116
f 124//124 114//114 125//125
# 250 faces, 0 coords texture

# End of File
