####
#
# OBJ File Generated by Meshlab
#
####
# Object clif_crunch_white_chocolate_macademia_nut_250_collision.obj
#
# Vertices: 127
# Faces: 250
#
####
vn -0.065470 -0.960977 -0.268770
v 0.056453 -0.076321 0.011742
vn 0.071721 0.997413 -0.004777
v -0.023483 0.073239 0.011742
vn -0.955543 -0.272667 -0.112204
v -0.060665 0.035225 0.006673
vn -0.493702 -0.860834 0.123384
v 0.046250 -0.070346 0.139240
vn -0.479727 -0.876608 -0.037693
v 0.045010 -0.074364 0.010514
vn 0.222381 0.491976 -0.841728
v -0.019092 0.068493 0.005871
vn 0.502325 0.482342 0.717646
v 0.072407 -0.033268 0.145669
vn 0.880933 -0.358885 -0.308477
v 0.084148 -0.046967 0.006719
vn -0.080691 -0.995415 0.051356
v 0.050880 -0.072330 0.131115
vn -0.992699 -0.058029 0.105746
v -0.056997 0.039139 0.136986
vn -0.737373 -0.674502 0.036456
v 0.045035 -0.070165 0.136402
vn 0.485920 0.862971 -0.138429
v -0.021529 0.072415 0.009971
vn 0.784540 0.596122 0.170694
v 0.072254 -0.029342 0.140426
vn 0.639977 -0.766522 -0.053603
v 0.060665 -0.074364 0.009832
vn 0.128023 -0.989093 0.072842
v 0.054794 -0.071933 0.133072
vn -0.408249 -0.401695 0.819740
v 0.004167 -0.021526 0.148614
vn -0.985859 -0.148541 0.077576
v -0.056181 0.033266 0.136404
vn -0.699648 -0.691945 0.178057
v -0.045483 0.021526 0.140900
vn -0.705334 -0.707950 0.036215
v -0.052320 0.027397 0.131115
vn 0.390245 0.915354 0.099174
v -0.023392 0.065546 0.136841
vn 0.754962 0.589452 0.287365
v 0.075023 -0.033268 0.142857
vn 0.763207 0.643087 0.062881
v 0.079431 -0.035225 0.131115
vn 0.206893 -0.967736 -0.143812
v 0.057058 -0.076321 0.011742
vn 0.807940 -0.573471 0.135517
v 0.080183 -0.049787 0.136756
vn 0.042996 -0.250482 -0.967166
v 0.055568 -0.072403 0.005871
vn 0.482874 0.153654 -0.862104
v 0.081896 -0.033204 0.005871
vn 0.171247 0.156508 0.972718
v 0.021526 0.009785 0.149555
vn -0.265370 -0.255141 0.929775
v -0.020548 0.004892 0.148912
vn -0.378179 -0.347631 0.857982
v -0.046967 0.029354 0.147800
vn -0.991565 -0.124451 0.036211
v -0.057186 0.037182 0.127201
vn -0.725034 -0.685306 0.068418
v -0.050880 0.026125 0.135029
vn -0.696305 -0.680393 0.228527
v 0.039139 -0.062871 0.142857
vn -0.786269 -0.617013 0.032794
v -0.054139 0.030249 0.161728
vn 0.704469 0.708276 0.045477
v 0.029354 0.014997 0.131115
vn 0.799252 0.595232 -0.083039
v 0.081411 -0.029354 0.007828
vn 0.765156 0.616784 0.184702
v 0.077602 -0.033833 0.136902
vn -0.726106 0.687400 0.015855
v -0.052301 0.046967 0.133072
vn -0.786042 0.208622 -0.581907
v -0.060690 0.037158 0.005871
vn -0.551881 0.258733 0.792770
v -0.050730 0.042027 0.148352
vn 0.367473 0.503089 0.782218
v -0.021526 0.057776 0.148727
vn -0.262163 0.962431 0.070686
v -0.031311 0.066191 0.133072
vn -0.168653 0.940072 -0.296345
v -0.025352 0.072870 0.010256
vn 0.058340 -0.996371 0.061971
v 0.052837 -0.072289 0.131115
vn 0.005759 -0.999662 0.025354
v 0.056751 -0.076321 0.012033
vn 0.482471 -0.694833 -0.533319
v 0.060665 -0.074349 0.009785
vn 0.998484 -0.022767 0.050121
v 0.082221 -0.045010 0.135029
vn 0.939268 0.339953 0.046995
v 0.081699 -0.039219 0.132244
vn 0.291313 0.161861 0.942835
v 0.072815 -0.041123 0.148247
vn -0.282847 -0.125341 0.950940
v -0.050332 0.036396 0.148846
vn -0.707538 -0.705851 0.034128
v 0.021504 -0.047290 0.127315
vn -0.719726 -0.682918 0.124970
v -0.049742 0.025440 0.138943
vn -0.672162 -0.570320 -0.472159
v -0.056751 0.029354 0.006192
vn -0.289568 -0.328206 -0.899128
v 0.041096 -0.066823 0.005871
vn -0.752829 0.656814 -0.042935
v -0.054045 0.047108 0.012234
vn -0.524310 0.724881 -0.446818
v -0.033257 0.068513 0.005871
vn 0.184462 0.924483 0.333625
v -0.024839 0.065179 0.141195
vn 0.691385 0.720720 0.050496
v -0.018589 0.062377 0.135094
vn 0.517362 0.853701 0.059419
v -0.021526 0.064954 0.131115
vn 0.680599 0.495989 0.539240
v 0.075750 -0.035545 0.144769
vn -0.702961 0.708112 0.066514
v -0.040846 0.058697 0.137152
vn -0.772490 0.634814 0.016407
v -0.054112 0.045010 0.133072
vn -0.633642 0.770133 0.073435
v -0.036016 0.063325 0.136782
vn -0.845824 0.532900 -0.024483
v -0.056750 0.043759 0.013773
vn -0.915272 0.337860 0.219380
v -0.056601 0.041119 0.139541
vn 0.336104 0.485491 0.807052
v -0.021526 0.058708 0.148207
vn 0.136346 0.258880 0.956238
v -0.024724 0.058888 0.149339
vn 0.249553 -0.955331 0.158325
v 0.056751 -0.071332 0.137190
vn -0.411943 -0.787490 -0.458434
v 0.045010 -0.074169 0.009785
vn 0.999041 0.024742 0.036118
v 0.082314 -0.043053 0.133072
vn 0.864928 0.476562 0.157446
v 0.080740 -0.037182 0.133072
vn 0.986544 0.135767 -0.091099
v 0.084482 -0.039054 0.009406
vn 0.335626 -0.362912 -0.869281
v 0.072407 -0.057986 0.005871
vn 0.301932 -0.251317 -0.919607
v 0.080301 -0.050206 0.005873
vn 0.624086 0.022238 0.781039
v 0.077285 -0.045553 0.147365
vn -0.673200 -0.723396 0.153300
v 0.043074 -0.068119 0.138903
vn 0.537718 -0.825523 0.171378
v 0.058689 -0.070362 0.138890
vn 0.001467 -0.002611 0.999996
v 0.016481 -0.006247 0.150297
vn -0.499320 -0.493385 0.712215
v 0.009785 -0.029354 0.147308
vn -0.909728 -0.020428 0.414702
v -0.055561 0.038425 0.142776
vn -0.747792 -0.625399 0.222897
v -0.052922 0.029764 0.142850
vn -0.872875 -0.381960 0.303637
v -0.055478 0.031955 0.139660
vn -0.134390 -0.115396 -0.984187
v -0.054794 0.028396 0.005871
vn -0.150235 -0.637019 -0.756067
v 0.048365 -0.072203 0.005908
vn 0.650479 0.655069 0.384398
v -0.016203 0.057665 0.144755
vn -0.122796 0.986162 0.111382
v -0.029354 0.066477 0.135029
vn 0.628153 0.611884 0.480648
v 0.074364 -0.033268 0.143754
vn 0.599892 0.633183 0.489090
v -0.017612 0.058708 0.145261
vn 0.903584 0.095726 0.417580
v 0.081593 -0.043676 0.142216
vn 0.725024 0.685736 0.064076
v 0.077517 -0.033268 0.133072
vn 0.704790 0.706387 0.065487
v 0.039140 0.005126 0.133072
vn -0.505805 0.427923 -0.749028
v -0.052731 0.047457 0.005871
vn -0.379068 0.869856 0.315686
v -0.033230 0.064257 0.144376
vn 0.424307 0.636789 0.643788
v -0.021707 0.061039 0.146778
vn 0.030579 -0.585368 0.810191
v 0.053569 -0.067503 0.148911
vn -0.167362 -0.922718 0.347248
v 0.050102 -0.070981 0.145301
vn -0.129474 -0.289632 0.948340
v 0.050736 -0.066357 0.149114
vn 0.477822 -0.332617 0.813051
v 0.074707 -0.049842 0.147654
vn 0.964356 -0.232391 0.126538
v 0.082038 -0.046961 0.136727
vn 0.807307 0.563380 0.175666
v 0.080235 -0.036440 0.133072
vn 0.070353 0.055412 0.995982
v 0.023519 0.004757 0.149814
vn -0.756577 -0.651653 0.054220
v 0.040314 -0.064579 0.140900
vn -0.390584 -0.518246 0.760832
v 0.047547 -0.064774 0.148809
vn -0.572674 -0.548446 0.609305
v -0.060399 0.038544 0.144843
vn -0.500467 -0.507249 0.701591
v 0.040633 -0.060665 0.147115
vn -0.594552 -0.645082 0.479975
v 0.042528 -0.065379 0.144810
vn 0.019892 0.989482 0.143281
v -0.027397 0.066516 0.135029
vn 0.464369 0.453153 0.760929
v 0.045010 -0.006942 0.146770
vn 0.470506 0.346301 0.811603
v 0.074657 -0.037364 0.146695
vn 0.954138 0.254501 0.157639
v 0.082109 -0.041075 0.135270
vn -0.748932 0.617058 0.241539
v -0.052976 0.046027 0.140614
vn -0.092627 0.036461 0.995033
v -0.045005 0.043831 0.149373
vn 0.026148 0.631627 0.774831
v -0.029773 0.060499 0.149054
vn 0.340449 0.303191 0.890039
v 0.055773 -0.021526 0.148155
vn 0.624636 -0.662423 0.413552
v 0.066652 -0.061236 0.144046
vn -0.127711 -0.123886 0.984044
v 0.009875 -0.023570 0.149646
vn -0.043422 -0.021490 0.998826
v -0.019080 0.012231 0.149590
vn -0.673984 -0.252180 0.694371
v -0.052628 0.032982 0.146510
vn 0.267099 0.254668 0.929410
v 0.010763 0.022994 0.149177
vn 0.338705 0.323449 0.883549
v 0.018347 0.016591 0.148657
vn 0.743930 -0.606953 0.279601
v 0.077877 -0.052138 0.140611
vn 0.394383 -0.759990 0.516601
v 0.056601 -0.068095 0.147275
vn 0.129335 -0.013293 0.991512
v 0.072521 -0.046220 0.148504
vn -0.285283 -0.955543 0.074506
v 0.048690 -0.071559 0.137890
vn 0.597453 0.774555 0.207639
v -0.020117 0.063291 0.141043
vn 0.186502 0.976632 0.106803
v -0.025368 0.066546 0.133221
vn -0.460866 0.885604 0.057517
v -0.033319 0.065448 0.133959
vn 0.668671 -0.739531 0.077281
v 0.062232 -0.067568 0.136750
# 127 vertices, 0 vertices normals

f 9//9 5//5 1//1
f 26//26 6//6 35//35
f 50//50 5//5 11//11
f 33//33 3//3 52//52
f 19//19 52//52 5//5
f 19//19 5//5 50//50
f 12//12 35//35 6//6
f 20//20 12//12 2//2
f 24//24 14//14 8//8
f 25//25 23//23 1//1
f 123//123 5//5 9//9
f 75//75 11//11 5//5
f 30//30 10//10 3//3
f 31//31 19//19 50//50
f 33//33 17//17 3//3
f 38//38 52//52 3//3
f 34//34 57//57 90//90
f 34//34 90//90 35//35
f 34//34 35//35 57//57
f 124//124 90//90 57//57
f 35//35 12//12 57//57
f 89//89 22//22 35//35
f 89//89 35//35 90//90
f 54//54 60//60 55//55
f 54//54 37//37 60//60
f 62//62 55//55 60//60
f 38//38 3//3 10//10
f 41//41 2//2 42//42
f 42//42 2//2 12//12
f 42//42 12//12 6//6
f 42//42 6//6 55//55
f 126//126 42//42 55//55
f 126//126 41//41 42//42
f 76//76 23//23 14//14
f 43//43 23//23 15//15
f 44//44 9//9 1//1
f 44//44 1//1 23//23
f 44//44 43//43 9//9
f 44//44 23//23 43//43
f 120//120 127//127 14//14
f 83//83 25//25 1//1
f 45//45 14//14 23//23
f 45//45 23//23 25//25
f 45//45 8//8 14//14
f 46//46 8//8 71//71
f 47//47 71//71 35//35
f 73//73 26//26 8//8
f 4//4 5//5 123//123
f 95//95 9//9 43//43
f 95//95 43//43 15//15
f 117//117 16//16 29//29
f 16//16 28//28 29//29
f 50//50 11//11 31//31
f 81//81 19//19 31//31
f 11//11 18//18 51//51
f 11//11 51//51 31//31
f 52//52 19//19 33//33
f 81//81 33//33 19//19
f 54//54 55//55 91//91
f 13//13 84//84 21//21
f 57//57 12//12 124//124
f 58//58 124//124 12//12
f 58//58 12//12 20//20
f 108//108 59//59 7//7
f 36//36 90//90 124//124
f 60//60 37//37 110//110
f 61//61 110//110 37//37
f 61//61 37//37 54//54
f 63//63 38//38 64//64
f 63//63 61//61 54//54
f 64//64 38//38 10//10
f 55//55 62//62 126//126
f 67//67 15//15 23//23
f 67//67 23//23 76//76
f 68//68 83//83 1//1
f 68//68 1//1 5//5
f 68//68 5//5 52//52
f 68//68 52//52 53//53
f 69//69 46//46 71//71
f 69//69 71//71 109//109
f 98//98 24//24 8//8
f 109//109 71//71 47//47
f 70//70 47//47 35//35
f 71//71 8//8 26//26
f 71//71 26//26 35//35
f 73//73 8//8 45//45
f 73//73 45//45 72//72
f 75//75 5//5 4//4
f 95//95 123//123 9//9
f 102//102 16//16 104//104
f 102//102 115//115 28//28
f 102//102 96//96 115//115
f 102//102 28//28 16//16
f 49//49 28//28 115//115
f 78//78 104//104 16//16
f 78//78 16//16 117//117
f 28//28 49//49 29//29
f 17//17 10//10 30//30
f 81//81 31//31 51//51
f 80//80 51//51 18//18
f 80//80 18//18 32//32
f 80//80 105//105 103//103
f 82//82 53//53 52//52
f 82//82 52//52 38//38
f 83//83 68//68 53//53
f 84//84 13//13 124//124
f 20//20 124//124 58//58
f 125//125 56//56 20//20
f 125//125 20//20 2//2
f 85//85 2//2 41//41
f 92//92 41//41 126//126
f 86//86 21//21 84//84
f 87//87 86//86 84//84
f 87//87 59//59 86//86
f 87//87 84//84 124//124
f 93//93 7//7 59//59
f 93//93 59//59 87//87
f 88//88 59//59 108//108
f 89//89 36//36 22//22
f 36//36 124//124 13//13
f 90//90 36//36 89//89
f 54//54 91//91 38//38
f 54//54 38//38 63//63
f 60//60 110//110 92//92
f 60//60 92//92 62//62
f 110//110 64//64 39//39
f 93//93 124//124 56//56
f 93//93 87//87 124//124
f 76//76 14//14 127//127
f 67//67 95//95 15//15
f 24//24 120//120 14//14
f 96//96 102//102 94//94
f 97//97 48//48 122//122
f 98//98 8//8 46//46
f 99//99 70//70 35//35
f 99//99 35//35 22//22
f 99//99 22//22 36//36
f 25//25 72//72 45//45
f 25//25 73//73 72//72
f 25//25 26//26 73//73
f 25//25 83//83 53//53
f 25//25 53//53 82//82
f 25//25 82//82 38//38
f 25//25 6//6 26//26
f 25//25 38//38 91//91
f 25//25 55//55 6//6
f 25//25 91//91 55//55
f 74//74 113//113 48//48
f 100//100 48//48 27//27
f 108//108 74//74 88//88
f 101//101 32//32 18//18
f 101//101 18//18 11//11
f 103//103 78//78 117//117
f 49//49 117//117 29//29
f 17//17 30//30 3//3
f 17//17 81//81 10//10
f 79//79 64//64 10//10
f 79//79 10//10 81//81
f 80//80 81//81 51//51
f 105//105 80//80 32//32
f 81//81 17//17 33//33
f 59//59 13//13 21//21
f 59//59 21//21 86//86
f 106//106 92//92 56//56
f 106//106 85//85 92//92
f 106//106 2//2 85//85
f 107//107 93//93 65//65
f 107//107 7//7 93//93
f 107//107 65//65 40//40
f 107//107 40//40 108//108
f 119//119 108//108 40//40
f 36//36 88//88 109//109
f 109//109 47//47 70//70
f 63//63 64//64 110//110
f 63//63 110//110 61//61
f 110//110 39//39 92//92
f 111//111 66//66 112//112
f 111//111 77//77 66//66
f 96//96 122//122 77//77
f 112//112 40//40 65//65
f 66//66 100//100 27//27
f 113//113 118//118 27//27
f 113//113 27//27 48//48
f 94//94 122//122 96//96
f 94//94 102//102 95//95
f 105//105 95//95 102//102
f 105//105 102//102 104//104
f 24//24 88//88 120//120
f 114//114 120//120 97//97
f 114//114 97//97 121//121
f 48//48 97//97 74//74
f 100//100 122//122 48//48
f 98//98 109//109 88//88
f 77//77 122//122 100//100
f 75//75 4//4 95//95
f 75//75 105//105 32//32
f 75//75 32//32 101//101
f 103//103 105//105 104//104
f 103//103 104//104 78//78
f 49//49 39//39 117//117
f 117//117 81//81 80//80
f 117//117 79//79 81//81
f 117//117 39//39 79//79
f 79//79 39//39 64//64
f 80//80 103//103 117//117
f 124//124 20//20 56//56
f 88//88 13//13 59//59
f 125//125 106//106 56//56
f 92//92 85//85 41//41
f 93//93 112//112 65//65
f 108//108 113//113 74//74
f 108//108 7//7 107//107
f 118//118 40//40 66//66
f 119//119 113//113 108//108
f 119//119 118//118 113//113
f 36//36 13//13 88//88
f 109//109 70//70 99//99
f 109//109 99//99 36//36
f 112//112 39//39 111//111
f 112//112 66//66 40//40
f 118//118 66//66 27//27
f 88//88 74//74 120//120
f 120//120 74//74 97//97
f 76//76 114//114 121//121
f 76//76 120//120 114//114
f 94//94 121//121 97//97
f 88//88 24//24 98//98
f 109//109 46//46 69//69
f 109//109 98//98 46//46
f 95//95 105//105 75//75
f 75//75 101//101 11//11
f 123//123 95//95 4//4
f 67//67 121//121 95//95
f 121//121 67//67 76//76
f 121//121 94//94 95//95
f 77//77 115//115 96//96
f 49//49 115//115 116//116
f 49//49 116//116 39//39
f 116//116 115//115 77//77
f 125//125 2//2 106//106
f 126//126 62//62 92//92
f 119//119 40//40 118//118
f 112//112 92//92 39//39
f 116//116 111//111 39//39
f 116//116 77//77 111//111
f 76//76 127//127 120//120
f 97//97 122//122 94//94
f 77//77 100//100 66//66
f 112//112 56//56 92//92
f 112//112 93//93 56//56
# 250 faces, 0 coords texture

# End of File
