####
#
# OBJ File Generated by Meshlab
#
####
# Object clif_crunch_white_chocolate_macademia_nut_250_collision.obj
#
# Vertices: 127
# Faces: 250
#
####
vn 0.274813 0.299583 0.913634
v -0.020282 0.006453 0.001767
vn 0.002278 0.025131 0.999682
v 0.003145 0.005241 0.000959
vn 0.579010 0.814998 0.022924
v 0.042147 -0.068269 0.067582
vn -0.741675 0.670662 0.011396
v 0.075837 -0.054130 0.091975
vn -0.113960 -0.061691 -0.991568
v 0.019918 -0.001072 0.152026
vn -0.707980 -0.706088 -0.014259
v 0.008910 0.035133 0.084670
vn -0.175712 -0.208660 -0.962074
v 0.012160 0.010093 0.152125
vn 0.264880 0.270540 0.925552
v 0.009082 -0.021293 0.002938
vn 0.612210 0.640793 0.463231
v -0.008262 -0.012433 0.007839
vn 0.716799 0.690211 0.099034
v 0.012167 -0.037257 0.032083
vn 0.596288 0.605845 0.526680
v -0.035246 0.013079 0.006410
vn 0.699344 0.712131 0.061547
v -0.023258 -0.002636 0.039390
vn 0.708715 0.705162 0.021650
v -0.016265 -0.010297 0.057172
vn 0.712345 0.699669 -0.055017
v -0.009732 -0.017442 0.126496
vn 0.712706 0.701457 0.002882
v -0.017028 -0.009977 0.100125
vn 0.649759 0.646343 -0.400066
v -0.010996 -0.013276 0.141156
vn 0.227939 0.237842 -0.944179
v -0.012361 -0.001375 0.149523
vn 0.850105 0.247945 0.464591
v -0.055741 0.034293 0.007221
vn 0.416536 0.027460 0.908704
v -0.049326 0.037075 0.002719
vn 0.811317 -0.468326 0.349909
v -0.054622 0.043095 0.010340
vn 0.779686 0.615487 0.115174
v -0.051508 0.026835 0.012670
vn 0.998361 0.048008 0.031154
v -0.057031 0.035574 0.031844
vn 0.814319 -0.579923 0.023946
v -0.053299 0.044935 0.027086
vn 0.049257 0.027449 0.998409
v -0.022240 0.023056 0.000199
vn -0.154445 -0.159656 0.975016
v 0.007292 0.019081 0.001997
vn -0.108194 -0.124072 0.986357
v -0.014165 0.033605 0.000702
vn -0.676254 -0.687233 0.265315
v 0.008381 0.032226 0.012821
vn 0.286095 -0.349823 0.892062
v -0.039248 0.051470 0.001838
vn 0.429439 -0.864047 0.262686
v -0.033863 0.064348 0.012603
vn -0.229832 -0.598429 0.767503
v -0.025187 0.059406 0.003682
vn -0.376547 -0.899481 0.221689
v -0.023368 0.065056 0.013156
vn -0.576328 -0.817070 0.015536
v -0.019643 0.062075 0.036415
vn 0.844458 0.535099 0.023650
v -0.054713 0.029220 0.042117
vn 0.899382 -0.436756 0.018865
v -0.056357 0.043068 0.053750
vn 0.794053 -0.607819 0.005998
v -0.054866 0.044692 0.087582
vn 0.999816 0.018915 0.003311
v -0.057261 0.035746 0.076717
vn 0.555834 -0.831293 -0.000750
v -0.036658 0.062514 0.064185
vn -0.014191 -0.999899 -0.001069
v -0.028086 0.065649 0.051055
vn -0.636529 -0.771166 0.011592
v -0.016502 0.060315 0.072184
vn -0.145878 -0.989288 0.005382
v -0.027519 0.066097 0.079484
vn 0.897703 0.440556 0.006273
v -0.055900 0.029683 0.108995
vn 0.941748 -0.336141 0.010902
v -0.057133 0.042166 0.115269
vn 0.717248 0.696709 0.012312
v -0.046597 0.019851 0.070083
vn 0.695788 0.713654 -0.081096
v -0.034782 0.007893 0.127675
vn -0.706222 -0.707724 -0.019421
v 0.023697 0.018401 0.116850
vn 0.164429 -0.986348 -0.008961
v -0.029654 0.065476 0.115750
vn -0.522756 -0.852232 -0.020682
v -0.020467 0.063395 0.104701
vn -0.701848 -0.687809 -0.185277
v -0.010809 0.052122 0.136335
vn -0.705014 -0.708483 -0.031738
v -0.000165 0.044019 0.107178
vn -0.691968 -0.709136 -0.135302
v 0.022652 0.019832 0.131659
vn 0.878837 0.398972 -0.261662
v -0.056368 0.029488 0.138092
vn 0.949127 -0.243008 -0.200262
v -0.057453 0.042440 0.139279
vn 0.284781 0.279082 -0.917068
v -0.036543 0.020405 0.148744
vn 0.635061 -0.132216 -0.761062
v -0.052300 0.040462 0.148691
vn 0.149871 0.101203 -0.983512
v -0.042561 0.032495 0.151316
vn 0.650636 0.525736 -0.547973
v -0.053691 0.028664 0.142100
vn -0.559674 -0.573529 -0.598189
v 0.006695 0.032166 0.142663
vn -0.154088 -0.194635 -0.968697
v -0.004514 0.031269 0.148538
vn 0.054822 -0.059041 -0.996749
v -0.006538 0.017012 0.150847
vn 0.556162 -0.773779 -0.303234
v -0.035885 0.062998 0.139630
vn 0.022400 -0.392312 -0.919559
v -0.031394 0.052937 0.148977
vn -0.401169 -0.396859 -0.825570
v -0.012321 0.046220 0.146315
vn -0.484238 -0.769770 -0.415894
v -0.021142 0.062610 0.140699
vn 0.012158 -0.872119 -0.489143
v -0.028370 0.065082 0.141518
vn 0.296899 0.728878 0.616918
v 0.048701 -0.067456 0.006077
vn -0.055355 0.015382 0.998348
v 0.052500 -0.038707 0.000023
vn 0.654634 0.754154 0.052023
v 0.042088 -0.067212 0.029956
vn -0.482491 0.819758 0.308545
v 0.060239 -0.067247 0.010932
vn 0.237720 0.959971 0.148138
v 0.048824 -0.070971 0.015824
vn -0.401717 0.915634 0.015451
v 0.057566 -0.069370 0.028858
vn -0.126828 0.449821 0.884068
v 0.053231 -0.064973 0.003486
vn -0.931335 0.286604 0.224663
v 0.080431 -0.046969 0.010578
vn 0.573957 0.545857 0.610421
v 0.026139 -0.045212 0.005934
vn 0.693147 0.687565 0.216337
v 0.030275 -0.053935 0.013605
vn 0.070165 0.049043 0.996329
v 0.016039 -0.016559 0.001451
vn 0.180811 0.213949 0.959965
v 0.046167 -0.050780 0.000962
vn -0.060200 -0.075573 0.995321
v 0.025362 -0.004806 0.001478
vn -0.625354 -0.665527 0.407440
v 0.045527 -0.005199 0.007478
vn -0.302101 -0.301843 0.904226
v 0.058183 -0.023416 0.002103
vn -0.502124 0.150862 0.851535
v 0.076082 -0.044886 0.003107
vn -0.792252 -0.506209 0.340719
v 0.076605 -0.033496 0.007435
vn -0.813919 -0.580923 0.007995
v 0.076699 -0.033119 0.048027
vn -0.693546 -0.719513 0.035992
v 0.066147 -0.023537 0.023247
vn 0.280606 0.959685 0.016280
v 0.046455 -0.070622 0.038822
vn 0.701913 0.711816 0.025227
v 0.020668 -0.047644 0.060327
vn -0.060089 0.997791 0.028339
v 0.051435 -0.072094 0.069403
vn -0.794672 0.606978 -0.008596
v 0.076803 -0.050661 0.030827
vn -0.616678 0.786578 0.031671
v 0.059932 -0.067909 0.071601
vn -0.882641 0.469285 0.026765
v 0.079212 -0.049294 0.070997
vn -0.998774 -0.049055 0.006570
v 0.080648 -0.040708 0.027933
vn -0.709113 -0.705045 0.008440
v 0.051300 -0.006924 0.071490
vn -0.986600 -0.162559 0.013994
v 0.080632 -0.041714 0.067724
vn 0.706381 0.707740 0.011353
v 0.008725 -0.036203 0.089949
vn -0.285614 0.958319 0.007065
v 0.054744 -0.071806 0.119703
vn 0.705344 0.708861 0.002493
v 0.020889 -0.048661 0.113248
vn 0.472710 0.881114 0.013524
v 0.043933 -0.071091 0.091839
vn 0.524933 0.850298 -0.037941
v 0.042908 -0.069916 0.124559
vn -0.536861 0.843485 0.017711
v 0.058491 -0.070300 0.092127
vn -0.757061 0.652793 -0.026812
v 0.077598 -0.053412 0.130291
vn -0.991185 0.131800 0.013484
v 0.081750 -0.044317 0.098545
vn -0.841106 -0.540869 0.001399
v 0.078094 -0.034515 0.093351
vn -0.975188 0.163181 -0.149600
v 0.081288 -0.047418 0.134216
vn 0.692911 0.713255 -0.105560
v 0.027547 -0.055282 0.131543
vn 0.060582 0.955325 -0.289281
v 0.050953 -0.072849 0.138943
vn 0.660019 0.648558 -0.379140
v 0.030135 -0.055369 0.139914
vn 0.473166 0.707695 -0.524673
v 0.042642 -0.068145 0.143040
vn 0.317567 0.346704 -0.882580
v 0.039027 -0.056252 0.147644
vn -0.080430 0.534814 -0.841133
v 0.053655 -0.065575 0.147190
vn -0.474632 0.825618 -0.305089
v 0.057675 -0.070511 0.140302
vn -0.707422 0.441156 -0.552210
v 0.075062 -0.052971 0.145817
vn 0.424797 0.389146 -0.817382
v 0.006064 -0.026092 0.146139
vn 0.133151 0.068889 -0.988699
v 0.022981 -0.031303 0.150093
vn 0.096699 0.080191 -0.992078
v 0.019358 -0.021195 0.148955
vn -0.152997 -0.157373 -0.975616
v 0.033273 -0.009750 0.150871
vn -0.256950 -0.277234 -0.925807
v 0.048363 -0.022341 0.151116
vn -0.666294 -0.669256 -0.328859
v 0.049338 -0.007997 0.139752
vn -0.864755 -0.499824 -0.048727
v 0.079203 -0.036259 0.129701
vn -0.781983 -0.332937 -0.526930
v 0.078035 -0.037183 0.142555
vn -0.242916 0.044977 -0.969004
v 0.070791 -0.044795 0.150518
vn -0.340236 -0.367660 0.865486
v 0.032844 0.000745 0.003165
vn -0.426601 -0.458706 0.779487
v 0.012224 0.022952 0.004477
vn -0.638748 -0.670036 0.378223
v 0.024468 0.015093 0.007667
vn -0.699570 -0.711548 0.065584
v 0.044238 -0.001941 0.022085
vn -0.703748 -0.710012 0.024927
v 0.029457 0.014648 0.054978
vn -0.701639 -0.710291 0.056480
v 0.015260 0.027154 0.033031
vn -0.704188 -0.709679 -0.021814
v 0.063856 -0.020284 0.103578
vn -0.508667 -0.508921 -0.694447
v 0.037984 0.000142 0.144264
# 127 vertices, 0 vertices normals

f 9//9 73//73 8//8
f 9//9 1//1 11//11
f 2//2 1//1 8//8
f 9//9 8//8 1//1
f 2//2 8//8 75//75
f 10//10 73//73 9//9
f 12//12 9//9 11//11
f 12//12 10//10 9//9
f 10//10 12//12 13//13
f 10//10 13//13 85//85
f 85//85 13//13 93//93
f 93//93 13//13 15//15
f 15//15 95//95 93//93
f 95//95 15//15 14//14
f 44//44 14//14 15//15
f 16//16 103//103 14//14
f 14//14 44//44 16//16
f 111//111 16//16 17//17
f 17//17 113//113 111//111
f 113//113 17//17 5//5
f 1//1 19//19 11//11
f 21//21 11//11 18//18
f 11//11 19//19 18//18
f 18//18 19//19 20//20
f 28//28 20//20 19//19
f 28//28 19//19 24//24
f 22//22 33//33 21//21
f 21//21 18//18 22//22
f 20//20 22//22 18//18
f 22//22 20//20 23//23
f 33//33 12//12 21//21
f 34//34 22//22 23//23
f 2//2 77//77 25//25
f 2//2 26//26 24//24
f 24//24 1//1 2//2
f 24//24 19//19 1//1
f 28//28 24//24 26//26
f 26//26 2//2 25//25
f 26//26 25//25 121//121
f 25//25 120//120 121//121
f 121//121 122//122 27//27
f 30//30 26//26 121//121
f 21//21 12//12 11//11
f 20//20 28//28 29//29
f 23//23 20//20 29//29
f 28//28 26//26 30//30
f 27//27 31//31 30//30
f 28//28 30//30 29//29
f 30//30 121//121 27//27
f 29//29 30//30 31//31
f 31//31 27//27 32//32
f 43//43 12//12 33//33
f 33//33 22//22 36//36
f 34//34 36//36 22//22
f 36//36 34//34 35//35
f 32//32 27//27 125//125
f 39//39 125//125 124//124
f 13//13 12//12 43//43
f 43//43 15//15 13//13
f 34//34 23//23 37//37
f 37//37 23//23 29//29
f 34//34 37//37 35//35
f 38//38 37//37 29//29
f 31//31 38//38 29//29
f 32//32 38//38 31//31
f 32//32 125//125 39//39
f 32//32 40//40 38//38
f 40//40 32//32 39//39
f 37//37 38//38 40//40
f 47//47 40//40 39//39
f 15//15 43//43 41//41
f 43//43 33//33 41//41
f 41//41 33//33 36//36
f 41//41 36//36 42//42
f 42//42 36//36 35//35
f 44//44 15//15 41//41
f 48//48 49//49 45//45
f 50//50 48//48 45//45
f 35//35 37//37 46//46
f 35//35 46//46 60//60
f 42//42 35//35 60//60
f 40//40 46//46 37//37
f 39//39 49//49 47//47
f 47//47 49//49 48//48
f 46//46 40//40 47//47
f 49//49 39//39 6//6
f 48//48 63//63 47//47
f 46//46 47//47 63//63
f 44//44 51//51 56//56
f 44//44 56//56 16//16
f 51//51 44//44 41//41
f 51//51 41//41 52//52
f 52//52 41//41 42//42
f 53//53 56//56 55//55
f 54//54 51//51 52//52
f 54//54 56//56 51//51
f 54//54 55//55 56//56
f 61//61 55//55 54//54
f 56//56 53//53 16//16
f 16//16 53//53 17//17
f 48//48 50//50 57//57
f 7//7 58//58 57//57
f 58//58 62//62 57//57
f 17//17 53//53 59//59
f 59//59 53//53 58//58
f 59//59 7//7 17//17
f 17//17 7//7 5//5
f 58//58 7//7 59//59
f 55//55 58//58 53//53
f 52//52 42//42 60//60
f 60//60 54//54 52//52
f 54//54 60//60 61//61
f 64//64 61//61 60//60
f 64//64 60//60 46//46
f 64//64 46//46 63//63
f 55//55 62//62 58//58
f 62//62 55//55 61//61
f 62//62 61//61 63//63
f 63//63 61//61 64//64
f 62//62 63//63 48//48
f 48//48 57//57 62//62
f 71//71 65//65 68//68
f 71//71 76//76 65//65
f 73//73 65//65 76//76
f 76//76 71//71 66//66
f 69//69 65//65 74//74
f 65//65 73//73 74//74
f 69//69 74//74 67//67
f 68//68 65//65 69//69
f 69//69 70//70 68//68
f 67//67 84//84 69//69
f 70//70 69//69 84//84
f 80//80 71//71 68//68
f 66//66 71//71 80//80
f 72//72 80//80 68//68
f 87//87 72//72 68//68
f 87//87 68//68 70//70
f 8//8 73//73 76//76
f 75//75 8//8 76//76
f 75//75 76//76 66//66
f 77//77 66//66 79//79
f 75//75 66//66 77//77
f 77//77 2//2 75//75
f 77//77 79//79 120//120
f 79//79 78//78 120//120
f 78//78 79//79 81//81
f 74//74 73//73 10//10
f 83//83 123//123 78//78
f 81//81 80//80 72//72
f 79//79 66//66 80//80
f 79//79 80//80 81//81
f 90//90 72//72 87//87
f 81//81 72//72 90//90
f 82//82 81//81 90//90
f 83//83 81//81 82//82
f 78//78 81//81 83//83
f 10//10 67//67 74//74
f 85//85 67//67 10//10
f 85//85 3//3 67//67
f 67//67 3//3 84//84
f 86//86 84//84 3//3
f 86//86 70//70 84//84
f 86//86 88//88 70//70
f 3//3 96//96 86//86
f 93//93 3//3 85//85
f 88//88 86//86 98//98
f 88//88 87//87 70//70
f 89//89 87//87 88//88
f 89//89 88//88 4//4
f 123//123 83//83 91//91
f 91//91 101//101 126//126
f 89//89 90//90 87//87
f 91//91 83//83 82//82
f 89//89 92//92 90//90
f 82//82 90//90 92//92
f 82//82 92//92 101//101
f 82//82 101//101 91//91
f 93//93 96//96 3//3
f 94//94 98//98 86//86
f 94//94 86//86 96//96
f 104//104 94//94 97//97
f 95//95 96//96 93//93
f 95//95 97//97 96//96
f 97//97 94//94 96//96
f 97//97 95//95 103//103
f 4//4 88//88 98//98
f 100//100 89//89 4//4
f 99//99 100//100 4//4
f 94//94 99//99 4//4
f 4//4 98//98 94//94
f 102//102 100//100 99//99
f 109//109 99//99 94//94
f 103//103 95//95 14//14
f 45//45 126//126 50//50
f 117//117 116//116 126//126
f 50//50 126//126 116//116
f 101//101 92//92 100//100
f 89//89 100//100 92//92
f 101//101 100//100 117//117
f 117//117 100//100 102//102
f 126//126 101//101 117//117
f 111//111 107//107 105//105
f 106//106 104//104 97//97
f 97//97 103//103 105//105
f 106//106 97//97 105//105
f 109//109 94//94 104//104
f 106//106 105//105 107//107
f 108//108 106//106 107//107
f 108//108 109//109 104//104
f 108//108 104//104 106//106
f 119//119 108//108 107//107
f 110//110 99//99 109//109
f 108//108 110//110 109//109
f 119//119 110//110 108//108
f 102//102 99//99 110//110
f 103//103 16//16 105//105
f 105//105 16//16 111//111
f 112//112 107//107 111//111
f 111//111 113//113 112//112
f 114//114 113//113 5//5
f 118//118 115//115 116//116
f 115//115 114//114 127//127
f 116//116 115//115 127//127
f 119//119 107//107 112//112
f 115//115 112//112 113//113
f 115//115 119//119 112//112
f 5//5 127//127 114//114
f 115//115 113//113 114//114
f 117//117 102//102 118//118
f 118//118 102//102 110//110
f 110//110 119//119 118//118
f 119//119 115//115 118//118
f 118//118 116//116 117//117
f 120//120 25//25 77//77
f 122//122 121//121 120//120
f 78//78 122//122 120//120
f 27//27 122//122 125//125
f 123//123 122//122 78//78
f 125//125 122//122 123//123
f 123//123 124//124 125//125
f 124//124 123//123 91//91
f 91//91 6//6 124//124
f 39//39 124//124 6//6
f 6//6 91//91 126//126
f 6//6 126//126 45//45
f 49//49 6//6 45//45
f 127//127 57//57 50//50
f 57//57 127//127 7//7
f 127//127 50//50 116//116
f 5//5 7//7 127//127
# 250 faces, 0 coords texture

# End of File
