####
#
# OBJ File Generated by Meshlab
#
####
# Object krylon_low_odor_clear_finish_250_collision.obj
#
# Vertices: 127
# Faces: 250
#
####
vn -0.076625 -0.829772 -0.552817
v 0.007828 -0.028107 0.009785
vn -0.997885 0.064941 0.002733
v -0.026450 0.009785 0.013699
vn -0.560776 -0.827649 -0.022961
v -0.011555 -0.020879 0.013316
vn 0.304472 -0.632693 -0.712037
v 0.022768 -0.025366 0.009103
vn -0.335958 0.435333 -0.835235
v -0.014081 0.035567 0.009371
vn 0.222292 0.970097 0.097457
v 0.015656 0.040911 0.185909
vn 0.097631 0.325305 0.940556
v 0.013285 0.037627 0.198318
vn 0.502074 0.093648 0.859739
v 0.040375 0.003210 0.198419
vn -0.029215 -0.996756 0.074999
v 0.009785 -0.026044 0.183952
vn 0.613701 0.789359 0.016845
v 0.031711 0.034750 0.113995
vn -0.772272 -0.634430 -0.033084
v -0.019389 -0.013699 0.011742
vn -0.882307 0.220509 -0.415825
v -0.025338 0.017622 0.009846
vn -0.581734 0.813186 0.017727
v -0.011073 0.035311 0.149803
vn -0.363222 -0.792491 -0.489927
v -0.006257 -0.023799 0.009280
vn -0.314837 0.935881 0.158127
v 0.000305 0.039952 0.189601
vn -0.173909 0.648372 0.741195
v 0.001929 0.037875 0.197868
vn 0.228993 0.214856 0.949421
v 0.021037 0.029843 0.198974
vn 0.156117 -0.977124 -0.144418
v 0.015656 -0.027698 0.009785
vn 0.897024 0.148243 -0.416380
v 0.045421 0.012773 0.009822
vn 0.495442 0.868200 0.027689
v 0.025545 0.037899 0.169892
vn 0.246293 0.969158 -0.008548
v 0.017612 0.043238 0.013699
vn 0.711136 -0.703046 -0.003600
v 0.035215 -0.016979 0.017806
vn 0.581370 -0.813577 0.010066
v 0.029622 -0.020448 0.130297
vn 0.245534 -0.963179 0.109542
v 0.017579 -0.025275 0.187207
vn 0.966568 -0.242074 0.084534
v 0.041784 -0.002846 0.178197
vn -0.699683 0.706682 0.105093
v -0.014749 0.031299 0.186238
vn -0.496485 0.859879 -0.118785
v -0.007828 0.040244 0.011737
vn -0.988025 0.153493 0.015677
v -0.024549 0.013699 0.123287
vn 0.148815 0.986378 0.070094
v 0.013699 0.041249 0.185909
vn -0.283544 -0.958858 0.013907
v 0.000077 -0.025441 0.119147
vn 0.895712 0.429378 0.115474
v 0.040320 0.017703 0.171588
vn 0.814899 -0.306870 -0.491702
v 0.042574 -0.007091 0.009326
vn 0.073459 -0.012999 0.997213
v 0.031078 0.001545 0.200054
vn 0.361033 0.930212 0.066034
v 0.021188 0.039447 0.183184
vn 0.721204 -0.690727 0.052541
v 0.033374 -0.016591 0.187296
vn 0.509592 -0.859692 -0.035301
v 0.026970 -0.023249 0.012720
vn 0.423936 -0.905617 0.011657
v 0.025440 -0.022784 0.131115
vn 0.614727 -0.780726 -0.112148
v 0.030583 -0.020931 0.013965
vn 0.069811 -0.992879 0.096530
v 0.015656 -0.025641 0.185909
vn 0.995377 -0.093634 0.021382
v 0.043792 0.003170 0.138201
vn -0.383314 0.851354 -0.358144
v -0.006040 0.041097 0.011684
vn -0.121107 0.992466 0.018540
v 0.005871 0.041710 0.178082
vn -0.549920 -0.192772 -0.812666
v -0.023484 -0.007828 0.009006
vn -0.898923 0.082019 -0.430361
v -0.026033 0.013715 0.009854
vn -0.973646 0.227488 0.016195
v -0.024096 0.015656 0.127201
vn -0.838625 0.540594 0.066836
v -0.017960 0.027455 0.185631
vn -0.751583 0.591964 -0.291035
v -0.018783 0.030832 0.009776
vn -0.920816 0.275256 0.276284
v -0.021011 0.019807 0.195546
vn -0.991085 -0.085740 0.101981
v -0.023170 0.008807 0.178818
vn -0.498309 0.863269 0.080348
v -0.007806 0.036704 0.184765
vn -0.451979 0.891841 0.018266
v -0.005439 0.038921 0.136986
vn -0.583971 -0.099333 0.805674
v -0.020267 0.009417 0.198281
vn 0.978621 0.199892 0.048416
v 0.042668 0.012090 0.165966
vn -0.128407 -0.224567 0.965961
v 0.003470 -0.015416 0.199986
vn 0.968386 -0.059710 -0.242207
v 0.045606 0.008495 0.010331
vn 0.642466 -0.569819 -0.512389
v 0.039549 -0.011957 0.009240
vn 0.389047 -0.921135 0.012386
v 0.023724 -0.023483 0.135029
vn 0.481546 -0.876328 0.012776
v 0.027397 -0.021754 0.133072
vn 0.066291 -0.997685 0.015168
v 0.013699 -0.025849 0.181995
vn 0.975640 -0.201825 -0.085983
v 0.044981 -0.000542 0.012489
vn -0.177760 0.980204 0.087189
v 0.004778 0.041364 0.186741
vn -0.146347 -0.988912 0.025205
v 0.007828 -0.025803 0.183952
vn -0.116577 -0.889358 0.442099
v 0.009479 -0.024767 0.196258
vn -0.987313 -0.158771 -0.002212
v -0.025926 0.002451 0.015980
vn -0.774515 0.426523 -0.467124
v -0.022214 0.025486 0.009994
vn -0.922137 0.384230 0.045072
v -0.021062 0.021617 0.186830
vn -0.946472 0.322367 0.016431
v -0.023024 0.019530 0.128942
vn -0.903082 0.429177 0.015798
v -0.021899 0.022041 0.133628
vn -0.998412 0.035790 0.043506
v -0.023491 0.013699 0.178082
vn -0.360393 0.932587 0.019960
v -0.003914 0.039588 0.136986
vn -0.218063 -0.972749 -0.078796
v 0.003916 -0.027673 0.011611
vn -0.495537 0.615495 0.612870
v -0.010241 0.032076 0.197719
vn 0.563621 0.641261 0.520687
v 0.023326 0.037096 0.194763
vn 0.966812 0.114046 0.228623
v 0.041966 0.004833 0.196212
vn 0.366640 0.930241 0.015062
v 0.023483 0.039859 0.111546
vn 0.089518 0.925721 0.367461
v 0.012638 0.039981 0.196738
vn 0.421938 0.759324 -0.495373
v 0.029191 0.038395 0.009252
vn 0.485685 0.874017 0.014305
v 0.026046 0.038760 0.106871
vn 0.763648 0.644931 0.030099
v 0.035588 0.030586 0.139192
vn 0.461735 0.350678 -0.814755
v 0.035461 0.033448 0.009088
vn 0.811459 -0.584333 0.009501
v 0.040842 -0.010108 0.013074
vn 0.351581 -0.936153 0.002738
v 0.021526 -0.025852 0.011788
vn 0.424169 -0.904223 0.049623
v 0.023492 -0.022875 0.181991
vn 0.998186 0.055508 0.023331
v 0.043980 0.008753 0.139268
vn -0.131955 0.794150 -0.593223
v 0.005407 0.044069 0.009795
vn -0.272996 0.933956 -0.230649
v -0.000008 0.043043 0.010539
vn 0.000000 0.000000 0.000000
v -0.017428 -0.013699 0.135029
vn -0.678574 -0.709289 -0.190909
v -0.015837 -0.017594 0.009729
vn -0.921531 -0.376343 0.095639
v -0.021060 -0.001868 0.168893
vn -0.941888 -0.298523 0.154047
v -0.022191 0.005373 0.183058
vn -0.985583 0.156993 0.063082
v -0.023083 0.015605 0.181925
vn -0.999804 0.006276 0.018780
v -0.024961 0.007852 0.127689
vn -0.298664 0.954203 0.017182
v -0.000978 0.040483 0.139921
vn -0.339043 -0.940044 -0.036973
v 0.000000 -0.026365 0.011742
vn -0.396925 -0.917824 0.007082
v -0.004592 -0.024364 0.051514
vn -0.075804 0.122675 0.989548
v -0.002783 0.028260 0.200104
vn 0.896497 -0.434731 0.085452
v 0.039013 -0.009006 0.186957
vn 0.824080 0.541426 0.166583
v 0.029906 0.032845 0.181212
vn 0.703301 0.706618 0.077837
v 0.028605 0.035543 0.176071
vn 0.357623 0.929943 -0.085509
v 0.023587 0.041255 0.012118
vn 0.147836 0.889923 -0.431488
v 0.012982 0.043942 0.009650
vn 0.039965 0.995126 0.090153
v 0.009719 0.041713 0.186813
vn -0.827466 -0.561147 0.020330
v -0.017579 -0.013513 0.135996
vn -0.440758 -0.889143 0.123113
v -0.001184 -0.023543 0.188967
vn -0.619408 -0.617216 0.485158
v -0.005001 -0.019135 0.194924
vn -0.979145 -0.059095 -0.194379
v -0.026450 0.007904 0.010501
vn -0.716440 0.308791 -0.625589
v -0.023495 0.022711 0.009811
vn -0.963686 -0.265475 0.028862
v -0.024158 0.000060 0.130750
vn -0.889893 -0.452564 0.057244
v -0.021658 -0.006821 0.138551
vn -0.996465 0.082191 0.017378
v -0.024791 0.010763 0.128180
vn -0.979257 -0.198236 0.041925
v -0.024495 0.001774 0.133982
vn -0.997595 -0.064846 0.024464
v -0.024782 0.003892 0.130634
vn -0.652880 -0.757020 0.025864
v -0.011412 -0.019456 0.136720
vn -0.500657 -0.865613 0.007537
v -0.009880 -0.021771 0.041684
vn 0.941074 0.292372 -0.169992
v 0.045011 0.015668 0.012039
vn 0.260595 0.965310 0.016334
v 0.017612 0.040834 0.160469
vn 0.306212 -0.711499 0.632458
v 0.023158 -0.020834 0.198651
vn -0.181223 -0.980221 0.079534
v 0.004351 -0.025122 0.188300
vn -0.712939 -0.700347 0.035089
v -0.015776 -0.015481 0.138940
vn -0.973942 -0.190754 -0.122677
v -0.024939 -0.001994 0.010264
vn 0.877910 0.460649 -0.130680
v 0.041032 0.026438 0.013196
vn 0.914387 0.401409 0.052603
v 0.041612 0.020257 0.151634
vn 0.533502 -0.839277 0.104829
v 0.029367 -0.019704 0.187996
vn 0.933165 0.355154 -0.055390
v 0.042871 0.022014 0.013699
vn -0.437630 -0.899011 0.016098
v -0.005436 -0.023206 0.127860
vn -0.774794 -0.623671 0.103581
v -0.011101 -0.016743 0.175737
vn 0.766603 -0.473184 0.434071
v 0.035637 -0.011800 0.197999
# 127 vertices, 0 vertices normals

f 4//4 43//43 80//80
f 5//5 80//80 43//43
f 56//56 4//4 80//80
f 56//56 80//80 32//32
f 77//77 80//80 5//5
f 14//14 88//88 43//43
f 14//14 43//43 4//4
f 18//18 9//9 1//1
f 18//18 1//1 4//4
f 19//19 32//32 80//80
f 26//26 5//5 47//47
f 101//101 77//77 5//5
f 29//29 101//101 102//102
f 29//29 6//6 21//21
f 76//76 16//16 7//7
f 13//13 5//5 26//26
f 14//14 4//4 1//1
f 8//8 74//74 73//73
f 31//31 98//98 74//74
f 73//73 7//7 17//17
f 55//55 32//32 19//19
f 123//123 23//23 35//35
f 37//37 4//4 36//36
f 23//23 22//22 35//35
f 74//74 40//40 84//84
f 74//74 25//25 40//40
f 41//41 27//27 51//51
f 42//42 102//102 85//85
f 101//101 29//29 21//21
f 43//43 11//11 103//103
f 88//88 11//11 43//43
f 63//63 105//105 104//104
f 44//44 28//28 12//12
f 44//44 2//2 28//28
f 107//107 5//5 43//43
f 107//107 43//43 12//12
f 107//107 12//12 67//67
f 107//107 68//68 65//65
f 107//107 67//67 68//68
f 66//66 67//67 91//91
f 66//66 68//68 67//67
f 45//45 28//28 91//91
f 45//45 12//12 28//28
f 102//102 42//42 61//61
f 50//50 13//13 26//26
f 71//71 1//1 9//9
f 33//33 7//7 96//96
f 76//76 15//15 16//16
f 98//98 73//73 74//74
f 8//8 73//73 17//17
f 96//96 7//7 16//16
f 32//32 60//60 25//25
f 33//33 8//8 17//17
f 33//33 17//17 7//7
f 54//54 33//33 96//96
f 54//54 96//96 52//52
f 99//99 20//20 34//34
f 77//77 78//78 10//10
f 31//31 122//122 99//99
f 31//31 99//99 98//98
f 81//81 97//97 127//127
f 56//56 38//38 4//4
f 82//82 24//24 18//18
f 82//82 18//18 4//4
f 82//82 4//4 37//37
f 117//117 24//24 83//83
f 57//57 37//37 83//83
f 57//57 83//83 24//24
f 57//57 82//82 37//37
f 58//58 83//83 37//37
f 58//58 23//23 123//123
f 58//58 37//37 36//36
f 38//38 22//22 23//23
f 38//38 56//56 22//22
f 59//59 39//39 9//9
f 59//59 9//9 18//18
f 59//59 18//18 39//39
f 24//24 39//39 18//18
f 40//40 25//25 60//60
f 19//19 53//53 84//84
f 84//84 53//53 74//74
f 85//85 101//101 5//5
f 85//85 5//5 41//41
f 13//13 27//27 5//5
f 119//119 43//43 103//103
f 109//109 43//43 119//119
f 63//63 117//117 54//54
f 105//105 63//63 54//54
f 62//62 71//71 9//9
f 44//44 12//12 43//43
f 65//65 47//47 5//5
f 67//67 45//45 91//91
f 67//67 12//12 45//45
f 65//65 46//46 47//47
f 68//68 46//46 65//65
f 68//68 66//66 46//46
f 48//48 46//46 66//66
f 110//110 2//2 92//92
f 69//69 112//112 49//49
f 69//69 91//91 28//28
f 72//72 50//50 26//26
f 70//70 41//41 51//51
f 93//93 15//15 61//61
f 13//13 51//51 27//27
f 71//71 14//14 1//1
f 72//72 16//16 15//15
f 16//16 72//72 96//96
f 31//31 74//74 53//53
f 97//97 32//32 25//25
f 81//81 32//32 97//97
f 32//32 55//55 60//60
f 127//127 8//8 33//33
f 117//117 127//127 33//33
f 33//33 54//54 117//117
f 55//55 40//40 60//60
f 115//115 19//19 80//80
f 34//34 73//73 99//99
f 98//98 99//99 73//73
f 75//75 100//100 21//21
f 75//75 21//21 34//34
f 75//75 78//78 100//100
f 75//75 34//34 20//20
f 75//75 20//20 78//78
f 76//76 7//7 73//73
f 20//20 10//10 78//78
f 78//78 77//77 100//100
f 101//101 21//21 100//100
f 79//79 80//80 10//10
f 79//79 99//99 122//122
f 80//80 77//77 10//10
f 22//22 56//56 81//81
f 36//36 4//4 38//38
f 36//36 38//38 23//23
f 36//36 23//23 58//58
f 123//123 117//117 83//83
f 82//82 57//57 24//24
f 83//83 58//58 123//123
f 118//118 9//9 63//63
f 53//53 19//19 115//115
f 84//84 55//55 19//19
f 27//27 41//41 5//5
f 86//86 61//61 42//42
f 86//86 93//93 61//61
f 86//86 42//42 85//85
f 61//61 15//15 76//76
f 101//101 85//85 102//102
f 87//87 103//103 11//11
f 88//88 119//119 11//11
f 3//3 88//88 14//14
f 88//88 3//3 113//113
f 104//104 126//126 113//113
f 126//126 89//89 109//109
f 105//105 54//54 52//52
f 118//118 104//104 30//30
f 30//30 71//71 62//62
f 118//118 63//63 104//104
f 44//44 43//43 106//106
f 52//52 48//48 90//90
f 110//110 28//28 2//2
f 110//110 69//69 28//28
f 92//92 69//69 110//110
f 76//76 34//34 6//6
f 76//76 6//6 102//102
f 102//102 6//6 29//29
f 50//50 51//51 13//13
f 50//50 15//15 70//70
f 50//50 70//70 51//51
f 93//93 70//70 15//15
f 93//93 41//41 70//70
f 94//94 14//14 71//71
f 94//94 95//95 14//14
f 94//94 71//71 30//30
f 94//94 30//30 95//95
f 114//114 113//113 3//3
f 125//125 95//95 30//30
f 125//125 30//30 104//104
f 50//50 72//72 15//15
f 26//26 48//48 72//72
f 96//96 72//72 52//52
f 48//48 52//52 72//72
f 122//122 124//124 121//121
f 127//127 97//97 25//25
f 25//25 74//74 127//127
f 74//74 8//8 127//127
f 32//32 81//81 56//56
f 35//35 81//81 127//127
f 35//35 22//22 81//81
f 40//40 55//55 84//84
f 121//121 115//115 80//80
f 121//121 124//124 115//115
f 116//116 34//34 21//21
f 116//116 21//21 6//6
f 76//76 73//73 34//34
f 20//20 99//99 10//10
f 101//101 100//100 77//77
f 80//80 79//79 121//121
f 79//79 10//10 99//99
f 127//127 117//117 123//123
f 24//24 117//117 63//63
f 24//24 63//63 9//9
f 24//24 9//9 39//39
f 118//118 62//62 9//9
f 85//85 41//41 86//86
f 86//86 41//41 93//93
f 126//126 109//109 119//119
f 103//103 87//87 11//11
f 103//103 11//11 119//119
f 3//3 14//14 114//114
f 126//126 88//88 113//113
f 104//104 105//105 126//126
f 30//30 62//62 118//118
f 106//106 2//2 44//44
f 120//120 64//64 106//106
f 120//120 106//106 43//43
f 120//120 108//108 64//64
f 120//120 43//43 108//108
f 107//107 65//65 5//5
f 46//46 26//26 47//47
f 46//46 48//48 26//26
f 52//52 90//90 105//105
f 108//108 43//43 109//109
f 111//111 64//64 108//108
f 89//89 108//108 109//109
f 112//112 111//111 49//49
f 49//49 91//91 69//69
f 49//49 48//48 91//91
f 112//112 69//69 92//92
f 112//112 64//64 111//111
f 102//102 61//61 76//76
f 114//114 14//14 95//95
f 114//114 95//95 125//125
f 115//115 122//122 53//53
f 123//123 35//35 127//127
f 116//116 6//6 34//34
f 113//113 114//114 125//125
f 126//126 119//119 88//88
f 126//126 105//105 90//90
f 89//89 126//126 90//90
f 106//106 64//64 112//112
f 106//106 112//112 92//92
f 106//106 92//92 2//2
f 49//49 90//90 48//48
f 111//111 108//108 89//89
f 111//111 89//89 90//90
f 111//111 90//90 49//49
f 66//66 91//91 48//48
f 122//122 31//31 53//53
f 124//124 122//122 115//115
f 79//79 122//122 121//121
f 125//125 104//104 113//113
# 250 faces, 0 coords texture

# End of File
