####
#
# OBJ File Generated by Meshlab
#
####
# Object ikea_table_leg_blue_250_collision.obj
#
# Vertices: 127
# Faces: 250
#
####
vn 0.130963 0.171841 0.976381
v -0.003748 -0.001642 0.005853
vn 0.840982 0.270887 0.468369
v -0.027223 -0.001856 0.017540
vn -0.121571 0.991783 -0.039826
v -0.002234 -0.033380 0.120136
vn -0.997833 0.004812 -0.065622
v 0.030108 0.002116 0.088972
vn -0.097867 -0.248610 0.963647
v 0.002548 0.011552 0.004353
vn -0.253011 0.963411 -0.088456
v -0.002240 -0.030384 0.182911
vn 0.087043 0.995454 -0.038673
v -0.004704 -0.031950 0.159232
vn 0.992786 -0.091093 -0.077956
v -0.036337 -0.000733 0.226339
vn -0.638093 0.754419 -0.153913
v 0.000524 -0.015890 0.265282
vn 0.874881 -0.214937 -0.434034
v -0.026158 0.002617 0.281891
vn 0.300529 -0.180855 -0.936469
v -0.018647 0.003843 0.288624
vn -0.989653 0.112277 -0.089340
v 0.022859 -0.001253 0.176067
vn -0.914300 -0.227283 -0.335257
v 0.008087 0.003373 0.278699
vn 0.331375 0.567586 0.753682
v -0.012769 -0.013271 0.011237
vn 0.539498 0.774580 0.330103
v -0.020965 -0.023150 0.034228
vn 0.125714 0.970579 0.205361
v -0.009413 -0.029267 0.043455
vn 0.940714 0.231044 0.248346
v -0.034571 -0.007718 0.042404
vn 0.790488 0.603754 0.103009
v -0.032354 -0.018639 0.059683
vn 0.479652 0.875589 0.057250
v -0.021112 -0.029124 0.073393
vn 0.974041 0.206192 0.093434
v -0.039010 -0.006135 0.066644
vn 0.645543 0.763610 0.013201
v -0.028366 -0.024367 0.118146
vn -0.062039 0.997239 0.040817
v -0.000250 -0.034268 0.082445
vn 0.427354 0.904056 0.007214
v -0.019432 -0.030224 0.104492
vn 0.807287 0.589692 0.023491
v -0.033516 -0.016751 0.091077
vn 0.899212 0.437012 -0.020960
v -0.038132 -0.013286 0.119375
vn 0.992236 0.119942 -0.032887
v -0.040520 -0.001022 0.122616
vn 0.377296 0.924830 -0.048336
v -0.019454 -0.029463 0.133739
vn 0.697744 0.715585 -0.033050
v -0.028266 -0.023559 0.146577
vn 0.814799 0.578628 -0.035964
v -0.032932 -0.017941 0.162201
vn 0.970161 0.241082 -0.025835
v -0.038533 -0.008130 0.152696
vn 0.440909 0.896343 -0.046557
v -0.021130 -0.028581 0.171858
vn 0.987431 0.149361 -0.051677
v -0.038581 -0.005432 0.172095
vn 0.863581 0.502317 -0.043651
v -0.033126 -0.012965 0.206137
vn 0.524606 0.849268 -0.059433
v -0.024480 -0.023204 0.222157
vn 0.225017 0.972068 -0.066713
v -0.014311 -0.028637 0.200297
vn -0.246588 0.959929 -0.133154
v -0.003494 -0.026270 0.230011
vn 0.930484 0.337992 -0.141286
v -0.032907 -0.009256 0.245339
vn 0.681321 -0.714065 -0.160971
v -0.024477 0.012329 0.261293
vn 0.026704 0.984807 -0.171585
v -0.012042 -0.024666 0.249015
vn 0.961207 0.152171 -0.230053
v -0.028308 -0.007111 0.268804
vn 0.592071 0.777431 -0.212254
v -0.024187 -0.018892 0.251989
vn -0.153743 0.865975 -0.475868
v -0.005523 -0.015646 0.286030
vn 0.580105 0.445291 -0.682051
v -0.021004 -0.009537 0.286573
vn -0.315326 0.126611 -0.940499
v -0.003228 -0.008752 0.289375
vn 0.620020 -0.036641 0.783730
v -0.023246 0.006143 0.010302
vn 0.216231 -0.328641 0.919369
v -0.008168 0.013986 0.006046
vn 0.579207 -0.595076 0.557140
v -0.019835 0.018672 0.013676
vn 0.912659 -0.284595 0.293359
v -0.031089 0.011869 0.032726
vn 0.033513 -0.862375 0.505160
v -0.004135 0.026828 0.016557
vn 0.936426 -0.290417 0.196888
v -0.035091 0.012200 0.050455
vn 0.620051 -0.735667 0.272635
v -0.022278 0.025142 0.033319
vn 0.710476 -0.683603 0.167065
v -0.025388 0.028698 0.051590
vn 0.964814 -0.238593 0.110490
v -0.039610 0.007601 0.069806
vn 0.994693 0.101605 0.016219
v -0.040397 0.001250 0.090470
vn 0.503677 -0.863661 0.019947
v -0.024003 0.031639 0.078525
vn 0.209687 -0.967423 0.141862
v -0.008486 0.035289 0.048116
vn 0.813888 -0.577833 0.060786
v -0.034165 0.021077 0.070091
vn 0.098171 -0.994520 -0.035938
v -0.009573 0.036549 0.093487
vn 0.560401 -0.827599 -0.032097
v -0.023724 0.030638 0.111073
vn 0.911225 -0.411793 -0.009804
v -0.037634 0.016108 0.109351
vn 0.964130 -0.259380 -0.056351
v -0.039893 0.007498 0.139375
vn 0.216703 -0.974014 -0.065857
v -0.011728 0.034951 0.120754
vn 0.942081 -0.331990 -0.047605
v -0.036043 0.014438 0.158115
vn 0.751379 -0.654726 -0.082243
v -0.030948 0.020002 0.179065
vn 0.650766 -0.758206 -0.040349
v -0.027680 0.026699 0.135082
vn 0.141018 -0.987441 -0.071230
v -0.015179 0.031824 0.152722
vn 0.296228 -0.951600 -0.081887
v -0.019070 0.029629 0.179830
vn 0.808294 -0.578506 -0.109507
v -0.029582 0.016054 0.216371
vn 0.469554 -0.869693 -0.152158
v -0.020190 0.023080 0.220030
vn 0.974075 -0.215899 -0.067565
v -0.036292 0.007039 0.195747
vn -0.059203 -0.980263 -0.188624
v -0.007650 0.022952 0.234294
vn 0.895299 -0.406098 -0.183093
v -0.031410 0.007635 0.244958
vn -0.114132 -0.982313 -0.148440
v -0.011656 0.017418 0.263799
vn 0.411098 -0.779801 -0.472132
v -0.015634 0.014740 0.284602
vn -0.408610 -0.686751 -0.601175
v -0.003002 0.013873 0.285129
vn -0.377967 0.421660 0.824223
v 0.008700 -0.011854 0.009184
vn -0.765462 0.507198 0.396004
v 0.017962 -0.010927 0.021726
vn -0.202748 0.881906 0.425599
v 0.003996 -0.022253 0.021189
vn -0.288307 0.939157 0.186715
v 0.006384 -0.028588 0.045476
vn -0.986952 0.066331 0.146718
v 0.029605 -0.001488 0.051005
vn -0.620927 0.744624 0.244918
v 0.017818 -0.020628 0.039579
vn -0.613807 0.787731 0.052167
v 0.015199 -0.028084 0.071075
vn -0.870332 0.458872 0.178770
v 0.025553 -0.014484 0.049433
vn -0.950536 0.310347 -0.012927
v 0.029010 -0.010869 0.082325
vn -0.506477 0.860793 -0.050166
v 0.011669 -0.029462 0.107392
vn -0.874077 0.482205 -0.058884
v 0.024928 -0.016711 0.095529
vn -0.997749 -0.042223 -0.052102
v 0.029211 0.001170 0.110617
vn -0.671835 0.738434 -0.057904
v 0.016015 -0.023823 0.134576
vn -0.942918 0.316928 -0.102287
v 0.026164 -0.008151 0.137793
vn -0.881910 0.460366 -0.101478
v 0.020233 -0.017112 0.153704
vn -0.504302 0.861200 -0.063353
v 0.007907 -0.028558 0.158787
vn -0.705847 0.701187 -0.100581
v 0.016743 -0.020005 0.168205
vn -0.990979 -0.066122 -0.116566
v 0.027336 0.004130 0.137902
vn -0.900459 0.423640 -0.098505
v 0.019002 -0.012681 0.183694
vn -0.484456 0.865049 -0.130358
v 0.004825 -0.024645 0.211009
vn -0.672327 0.733889 -0.096866
v 0.009635 -0.022547 0.200483
vn -0.854541 0.502627 -0.130867
v 0.015630 -0.014778 0.206473
vn -0.980543 0.090182 -0.174361
v 0.020006 -0.001979 0.205890
vn -0.963667 -0.140843 -0.226958
v 0.014737 0.000656 0.235167
vn -0.818860 0.538852 -0.197754
v 0.008685 -0.015150 0.237999
vn -0.980689 0.170583 -0.095658
v 0.007227 -0.004557 0.261919
vn -0.831213 0.440854 -0.338723
v 0.006318 -0.008391 0.280682
vn -0.583515 -0.136551 0.800540
v 0.011246 0.007675 0.006029
vn -0.552114 -0.595224 0.583848
v 0.008840 0.019606 0.011853
vn -0.902143 0.011944 0.431273
v 0.022479 0.003853 0.022415
vn -0.875725 -0.410994 0.253357
v 0.024542 0.016108 0.036112
vn -0.973079 -0.227490 0.036962
v 0.029610 0.011538 0.062859
vn -0.497400 -0.827766 0.259610
v 0.013128 0.028243 0.033737
vn -0.227216 -0.962844 0.145962
v -0.000286 0.035756 0.052810
vn -0.495938 -0.866443 -0.057636
v 0.010480 0.033045 0.092907
vn -0.212251 -0.977175 0.008902
v 0.003042 0.037117 0.077246
vn -0.668899 -0.741318 0.054972
v 0.020952 0.025995 0.060056
vn -0.882020 -0.468565 -0.049872
v 0.026133 0.018337 0.087553
vn -0.850625 -0.522189 -0.061281
v 0.022661 0.020377 0.117379
vn -0.619137 -0.780407 -0.087379
v 0.014341 0.027332 0.132203
vn -0.195147 -0.978813 -0.061997
v 0.002934 0.033872 0.122285
vn -0.914801 -0.390554 -0.102989
v 0.023194 0.013339 0.153963
vn -0.770193 -0.624037 -0.131839
v 0.017384 0.017820 0.175234
vn -0.287541 -0.953477 -0.090566
v 0.001426 0.032620 0.154186
vn -0.991868 -0.032396 -0.123075
v 0.021609 0.000830 0.196273
vn -0.581797 -0.804312 -0.120808
v 0.007330 0.026470 0.174992
vn -0.379945 -0.916203 -0.127336
v 0.001795 0.027310 0.194476
vn -0.838165 -0.518108 -0.170422
v 0.014870 0.012779 0.211489
vn -0.102441 -0.983635 -0.148218
v -0.006015 0.027661 0.206378
vn -0.509671 -0.843237 -0.170841
v 0.005603 0.019565 0.222580
vn -0.634525 -0.736299 -0.235038
v 0.003743 0.015702 0.246045
vn -0.792359 -0.597591 -0.122690
v 0.003948 0.008596 0.262174
# 127 vertices, 0 vertices normals

f 45//45 2//2 14//14
f 14//14 1//1 45//45
f 15//15 78//78 14//14
f 16//16 78//78 15//15
f 2//2 15//15 14//14
f 14//14 78//78 76//76
f 2//2 17//17 15//15
f 15//15 19//19 16//16
f 17//17 18//18 15//15
f 50//50 20//20 17//17
f 18//18 17//17 20//20
f 22//22 16//16 19//19
f 19//19 15//15 18//18
f 22//22 79//79 16//16
f 20//20 50//50 53//53
f 20//20 24//24 18//18
f 19//19 18//18 24//24
f 23//23 19//19 24//24
f 24//24 21//21 23//23
f 22//22 19//19 23//23
f 3//3 22//22 23//23
f 24//24 20//20 54//54
f 20//20 53//53 54//54
f 21//21 24//24 25//25
f 24//24 54//54 25//25
f 85//85 22//22 3//3
f 3//3 23//23 27//27
f 23//23 21//21 27//27
f 26//26 25//25 54//54
f 28//28 27//27 21//21
f 3//3 27//27 7//7
f 28//28 7//7 27//27
f 21//21 25//25 28//28
f 26//26 28//28 25//25
f 26//26 30//30 28//28
f 29//29 28//28 30//30
f 61//61 30//30 26//26
f 31//31 28//28 29//29
f 28//28 31//31 7//7
f 32//32 29//29 30//30
f 35//35 31//31 33//33
f 6//6 7//7 31//31
f 35//35 6//6 31//31
f 31//31 29//29 33//33
f 33//33 29//29 32//32
f 70//70 33//33 32//32
f 35//35 33//33 34//34
f 35//35 36//36 95//95
f 36//36 35//35 34//34
f 8//8 33//33 70//70
f 39//39 34//34 41//41
f 36//36 34//34 39//39
f 34//34 33//33 37//37
f 8//8 37//37 33//33
f 41//41 34//34 37//37
f 41//41 37//37 40//40
f 37//37 8//8 72//72
f 37//37 72//72 40//40
f 40//40 72//72 38//38
f 40//40 38//38 10//10
f 41//41 43//43 42//42
f 41//41 40//40 43//43
f 41//41 42//42 39//39
f 42//42 9//9 39//39
f 40//40 10//10 43//43
f 43//43 44//44 42//42
f 44//44 43//43 11//11
f 10//10 11//11 43//43
f 45//45 1//1 46//46
f 46//46 1//1 5//5
f 46//46 47//47 45//45
f 47//47 46//46 49//49
f 48//48 17//17 2//2
f 45//45 48//48 2//2
f 47//47 48//48 45//45
f 47//47 49//49 51//51
f 48//48 47//47 51//51
f 51//51 49//49 56//56
f 50//50 17//17 48//48
f 50//50 48//48 51//51
f 50//50 51//51 52//52
f 53//53 50//50 52//52
f 52//52 51//51 56//56
f 56//56 49//49 109//109
f 57//57 53//53 52//52
f 55//55 57//57 52//52
f 56//56 55//55 52//52
f 58//58 55//55 56//56
f 58//58 56//56 111//111
f 53//53 57//57 60//60
f 54//54 53//53 60//60
f 57//57 55//55 59//59
f 58//58 59//59 55//55
f 58//58 111//111 110//110
f 58//58 110//110 116//116
f 26//26 54//54 60//60
f 60//60 61//61 26//26
f 65//65 60//60 59//59
f 65//65 61//61 60//60
f 60//60 57//57 59//59
f 58//58 116//116 62//62
f 59//59 58//58 62//62
f 65//65 59//59 62//62
f 61//61 65//65 63//63
f 65//65 62//62 66//66
f 62//62 116//116 66//66
f 63//63 65//65 64//64
f 61//61 63//63 30//30
f 32//32 30//30 63//63
f 65//65 66//66 67//67
f 122//122 67//67 66//66
f 66//66 119//119 122//122
f 32//32 63//63 70//70
f 63//63 64//64 70//70
f 67//67 64//64 65//65
f 124//124 67//67 122//122
f 70//70 64//64 68//68
f 68//68 64//64 69//69
f 69//69 64//64 67//67
f 124//124 69//69 67//67
f 68//68 8//8 70//70
f 68//68 72//72 8//8
f 71//71 69//69 124//124
f 72//72 68//68 69//69
f 72//72 69//69 38//38
f 38//38 69//69 71//71
f 38//38 71//71 73//73
f 73//73 71//71 126//126
f 74//74 10//10 38//38
f 38//38 73//73 74//74
f 74//74 73//73 75//75
f 10//10 74//74 11//11
f 75//75 44//44 11//11
f 75//75 11//11 74//74
f 14//14 76//76 1//1
f 1//1 76//76 5//5
f 103//103 5//5 76//76
f 105//105 103//103 76//76
f 81//81 78//78 79//79
f 77//77 76//76 78//78
f 78//78 81//81 77//77
f 105//105 76//76 77//77
f 77//77 83//83 105//105
f 80//80 105//105 83//83
f 79//79 78//78 16//16
f 82//82 81//81 79//79
f 77//77 81//81 83//83
f 83//83 84//84 80//80
f 22//22 82//82 79//79
f 83//83 81//81 82//82
f 84//84 83//83 82//82
f 107//107 80//80 84//84
f 84//84 82//82 86//86
f 82//82 22//22 85//85
f 86//86 82//82 85//85
f 107//107 84//84 4//4
f 4//4 84//84 86//86
f 4//4 86//86 87//87
f 85//85 88//88 86//86
f 89//89 87//87 86//86
f 89//89 86//86 88//88
f 93//93 87//87 89//89
f 91//91 3//3 7//7
f 88//88 3//3 91//91
f 88//88 85//85 3//3
f 91//91 90//90 88//88
f 89//89 88//88 90//90
f 91//91 92//92 90//90
f 92//92 94//94 90//90
f 89//89 90//90 93//93
f 94//94 12//12 90//90
f 12//12 93//93 90//90
f 91//91 7//7 6//6
f 92//92 91//91 6//6
f 96//96 92//92 6//6
f 96//96 94//94 92//92
f 96//96 97//97 94//94
f 120//120 12//12 94//94
f 120//120 94//94 97//97
f 35//35 95//95 6//6
f 96//96 6//6 95//95
f 95//95 97//97 96//96
f 98//98 120//120 97//97
f 97//97 95//95 100//100
f 98//98 97//97 100//100
f 100//100 95//95 36//36
f 99//99 98//98 100//100
f 9//9 36//36 39//39
f 101//101 100//100 9//9
f 101//101 99//99 100//100
f 9//9 100//100 36//36
f 9//9 102//102 101//101
f 102//102 13//13 101//101
f 102//102 9//9 42//42
f 42//42 44//44 102//102
f 102//102 44//44 13//13
f 49//49 46//46 5//5
f 5//5 104//104 49//49
f 5//5 103//103 104//104
f 104//104 103//103 105//105
f 105//105 106//106 104//104
f 104//104 106//106 108//108
f 108//108 49//49 104//104
f 108//108 109//109 49//49
f 106//106 105//105 80//80
f 107//107 106//106 80//80
f 112//112 106//106 107//107
f 106//106 112//112 108//108
f 112//112 109//109 108//108
f 107//107 113//113 112//112
f 111//111 109//109 112//112
f 56//56 109//109 111//111
f 111//111 112//112 110//110
f 113//113 4//4 87//87
f 4//4 113//113 107//107
f 112//112 113//113 110//110
f 114//114 110//110 113//113
f 114//114 113//113 87//87
f 114//114 115//115 110//110
f 116//116 110//110 115//115
f 117//117 115//115 114//114
f 114//114 87//87 93//93
f 117//117 114//114 93//93
f 119//119 66//66 116//116
f 116//116 115//115 119//119
f 118//118 121//121 115//115
f 115//115 117//117 118//118
f 117//117 93//93 12//12
f 121//121 119//119 115//115
f 118//118 122//122 121//121
f 123//123 122//122 118//118
f 12//12 120//120 117//117
f 118//118 117//117 120//120
f 121//121 122//122 119//119
f 120//120 123//123 118//118
f 98//98 123//123 120//120
f 125//125 124//124 122//122
f 123//123 125//125 122//122
f 98//98 99//99 123//123
f 71//71 124//124 125//125
f 126//126 123//123 99//99
f 71//71 125//125 126//126
f 125//125 123//123 126//126
f 127//127 99//99 101//101
f 99//99 127//127 126//126
f 127//127 73//73 126//126
f 127//127 101//101 13//13
f 75//75 73//73 127//127
f 75//75 127//127 13//13
f 75//75 13//13 44//44
# 250 faces, 0 coords texture

# End of File
