####
#
# OBJ File Generated by Meshlab
#
####
# Object haagen_dasz_butter_pecan.obj
#
# Vertices: 127
# Faces: 250
#
####
vn -0.088250 0.182201 0.979293
v 0.011580 -0.026857 0.002156
vn 0.779493 -0.363585 0.510095
v -0.024755 0.009014 0.007469
vn -0.481715 0.117397 0.868429
v 0.029372 -0.012679 0.003190
vn -0.029973 -0.110366 0.993439
v 0.001903 0.010473 0.001503
vn -0.049609 0.021692 0.998533
v 0.006662 -0.006676 0.000708
vn -0.056370 0.762581 -0.644432
v 0.005401 -0.052241 0.096936
vn -0.056011 0.997850 0.034019
v 0.007088 -0.053627 0.091661
vn 0.007689 -0.983903 0.178540
v 0.002096 0.036335 0.069055
vn -0.033363 0.007269 -0.999417
v 0.010661 0.007863 0.104378
vn 0.098792 0.432406 0.896251
v -0.004913 -0.030846 0.003411
vn 0.021547 0.153400 0.987929
v -0.002433 -0.024633 0.001303
vn 0.405040 0.126821 0.905461
v -0.020346 -0.014076 0.002242
vn 0.259950 0.288991 0.921363
v -0.015339 -0.020551 0.001701
vn 0.319419 0.802361 0.504171
v -0.008700 -0.035576 0.007884
vn 0.910043 0.332131 0.248013
v -0.027950 -0.018184 0.015587
vn 0.671439 0.542888 0.504423
v -0.019160 -0.027032 0.006986
vn 0.800113 0.578849 0.157330
v -0.024810 -0.027415 0.032640
vn 0.769733 0.079964 0.633337
v -0.025863 -0.008646 0.005065
vn 0.150726 0.978059 0.143815
v -0.002802 -0.043354 0.040591
vn 0.979026 0.131166 0.155898
v -0.032868 -0.012218 0.037287
vn 0.907191 0.395954 0.142213
v -0.032657 -0.019745 0.048139
vn 0.580387 0.799710 0.153668
v -0.016166 -0.037064 0.038180
vn 0.502555 0.848461 0.165988
v -0.013168 -0.043752 0.066547
vn 0.915176 0.351295 0.197599
v -0.035207 -0.019972 0.071140
vn 0.755278 0.589592 0.286245
v -0.031940 -0.029895 0.079828
vn 0.751237 0.645558 0.137474
v -0.025553 -0.032267 0.061195
vn 0.457861 0.838300 0.296002
v -0.019299 -0.045378 0.086149
vn 0.652105 0.756797 -0.044908
v -0.027734 -0.042911 0.092198
vn 0.376054 0.874088 -0.307497
v -0.020426 -0.047067 0.096425
vn 0.106226 0.396412 -0.911907
v -0.012299 -0.045311 0.101387
vn 0.790613 0.600820 0.118098
v -0.034916 -0.035026 0.092131
vn 0.495909 0.373636 -0.783881
v -0.032829 -0.030612 0.100874
vn 0.954016 0.298706 -0.025050
v -0.043089 -0.019105 0.093764
vn 0.619368 0.072267 -0.781767
v -0.040779 -0.007827 0.101333
vn -0.121627 0.280340 -0.952164
v 0.014204 -0.040424 0.100595
vn 0.006330 0.080099 -0.996767
v -0.011664 -0.029290 0.103005
vn 0.299483 -0.198269 0.933273
v -0.017144 0.007925 0.002077
vn 0.074080 -0.001629 0.997251
v -0.011874 -0.007312 0.000655
vn 0.967530 -0.117450 0.223809
v -0.030404 -0.001641 0.018012
vn 0.502520 -0.671731 0.544290
v -0.014155 0.021142 0.008017
vn 0.161867 -0.850326 0.500743
v -0.005432 0.024901 0.006973
vn 0.935464 -0.324424 0.140203
v -0.030592 0.009374 0.036260
vn 0.401825 -0.900898 0.164073
v -0.006056 0.028729 0.025749
vn 0.782089 -0.598358 0.174084
v -0.026122 0.014833 0.027258
vn 0.323443 -0.933135 0.156981
v -0.011943 0.031064 0.054131
vn 0.985671 0.099370 0.136305
v -0.037367 -0.007087 0.065804
vn 0.957995 -0.245566 0.148132
v -0.036278 0.005017 0.064001
vn 0.718634 -0.676579 0.160644
v -0.024827 0.023893 0.061788
vn 0.953909 -0.047520 0.296311
v -0.039423 -0.006403 0.079747
vn 0.782601 -0.533742 0.320399
v -0.033757 0.018342 0.081840
vn 0.565247 -0.796158 0.215937
v -0.022594 0.028698 0.077363
vn 0.188103 -0.943157 0.273993
v -0.005928 0.037155 0.079368
vn 0.974130 -0.107301 -0.198890
v -0.045228 0.004082 0.093739
vn 0.570156 -0.163145 -0.805174
v -0.034916 0.010515 0.103479
vn 0.905573 -0.424010 0.012362
v -0.042132 0.014719 0.092515
vn 0.693504 -0.490433 -0.527758
v -0.035181 0.021520 0.098835
vn 0.236923 -0.233434 -0.943067
v -0.028535 0.021794 0.104336
vn 0.104004 0.040337 -0.993759
v -0.032414 -0.007044 0.103553
vn 0.021424 -0.006138 -0.999752
v -0.011280 -0.003658 0.104188
vn 0.352394 -0.484670 -0.800570
v -0.025715 0.028466 0.101606
vn 0.011961 -0.047454 -0.998802
v -0.008589 0.014617 0.103226
vn 0.050189 -0.164647 -0.985075
v -0.013739 0.029413 0.103879
vn -0.018490 -0.205190 -0.978547
v -0.000375 0.027296 0.102933
vn 0.637386 -0.769785 -0.034210
v -0.026686 0.033130 0.092200
vn 0.416585 -0.873825 0.250774
v -0.018537 0.037477 0.090605
vn 0.178423 -0.765065 -0.618742
v -0.009177 0.040279 0.099544
vn -0.069802 -0.997556 -0.003184
v 0.009637 0.043374 0.092188
vn 0.010851 -0.667613 -0.744430
v -0.000389 0.040567 0.098430
vn -0.163595 0.421434 0.891981
v 0.010870 -0.031541 0.003324
vn -0.473980 0.371019 0.798554
v 0.027799 -0.020837 0.004136
vn -0.144093 0.793562 0.591182
v 0.011124 -0.036704 0.006815
vn -0.470666 0.628374 0.619371
v 0.017140 -0.034009 0.007278
vn -0.494965 0.827990 0.263519
v 0.021364 -0.034857 0.013457
vn -0.817032 0.447026 0.364180
v 0.032812 -0.023735 0.014347
vn -0.077866 0.975602 0.205276
v 0.004758 -0.041112 0.019593
vn -0.364364 0.921294 0.135852
v 0.014931 -0.040498 0.029881
vn -0.793826 0.589016 0.151333
v 0.032799 -0.026977 0.025778
vn -0.690656 0.710706 0.133757
v 0.033561 -0.032562 0.048786
vn -0.984309 0.093466 0.149669
v 0.039522 -0.009468 0.027582
vn -0.967526 0.210879 0.139366
v 0.044002 -0.012336 0.053857
vn -0.511974 0.846813 0.144186
v 0.025489 -0.041262 0.070993
vn -0.287871 0.947854 0.136759
v 0.015884 -0.044273 0.058594
vn 0.083939 0.975432 0.203684
v -0.001653 -0.049576 0.081612
vn -0.553450 0.786378 0.274414
v 0.027460 -0.043288 0.083887
vn -0.279758 0.925174 0.256493
v 0.014367 -0.047511 0.081784
vn -0.759947 0.633654 0.144785
v 0.036173 -0.031083 0.066262
vn -0.858826 0.449410 0.245862
v 0.043179 -0.026900 0.082271
vn -0.956222 0.111250 0.270670
v 0.048192 -0.011661 0.084033
vn -0.277843 0.725687 -0.629429
v 0.017109 -0.048275 0.096116
vn -0.475917 0.863562 -0.166627
v 0.029175 -0.045663 0.092150
vn -0.756834 0.652846 -0.031520
v 0.041570 -0.035429 0.093149
vn -0.307138 0.501999 -0.808494
v 0.028722 -0.042471 0.097318
vn -0.132721 0.133449 -0.982129
v 0.035416 -0.020200 0.101345
vn -0.525565 0.397783 -0.752031
v 0.041965 -0.029523 0.098066
vn -0.921463 0.330505 -0.204141
v 0.048968 -0.022093 0.093066
vn -0.949021 -0.034381 -0.313333
v 0.051987 -0.006803 0.095254
vn -0.404000 0.047443 -0.913528
v 0.045021 -0.005586 0.101054
vn -0.317103 -0.170203 0.932993
v 0.026882 0.007105 0.003132
vn -0.106083 -0.017440 0.994204
v 0.021555 -0.004738 0.001756
vn -0.223474 -0.528165 0.819208
v 0.014747 0.020273 0.004332
vn 0.071720 -0.449706 0.890293
v -0.001506 0.019760 0.003022
vn -0.194419 -0.861404 0.469238
v 0.008763 0.026096 0.010032
vn -0.741278 -0.160378 0.651756
v 0.034052 -0.001616 0.006481
vn -0.594836 -0.494127 0.634041
v 0.028018 0.014688 0.007011
vn -0.481537 -0.809248 0.336510
v 0.023199 0.021614 0.011838
vn -0.805298 -0.514198 0.295120
v 0.032231 0.014346 0.013585
vn -0.946712 -0.031184 0.320567
v 0.038850 -0.002561 0.013798
vn -0.028112 -0.981164 0.191120
v 0.007324 0.029796 0.021809
vn -0.920699 -0.367743 0.130681
v 0.035117 0.011583 0.028098
vn -0.378321 -0.910789 0.165340
v 0.016865 0.028220 0.030578
vn -0.693650 -0.706836 0.138679
v 0.029345 0.021339 0.034282
vn -0.971714 -0.160695 0.173061
v 0.041967 -0.000329 0.042452
vn -0.108062 -0.983793 0.143088
v 0.004971 0.033309 0.046163
vn -0.911783 -0.387943 0.134733
v 0.040795 0.009861 0.051131
vn -0.982510 -0.019524 0.185182
v 0.045937 -0.008683 0.069629
vn -0.751995 -0.616608 0.233021
v 0.037062 0.021219 0.076241
vn -0.901994 -0.343637 0.261381
v 0.044306 0.009606 0.079087
vn -0.934206 -0.328437 0.139243
v 0.047947 0.013487 0.090147
vn -0.676935 -0.736012 0.006803
v 0.037739 0.029434 0.093328
vn -0.407018 -0.886881 0.218582
v 0.019723 0.033887 0.072436
vn -0.561814 -0.816034 0.135842
v 0.027712 0.027660 0.057485
vn -0.283022 -0.933055 0.222053
v 0.018839 0.038550 0.085621
vn -0.243335 -0.177706 -0.953524
v 0.030576 0.018484 0.102651
vn -0.078424 -0.301307 -0.950297
v 0.015585 0.031785 0.103717
vn -0.623878 -0.347755 -0.699887
v 0.042199 0.018699 0.098575
vn -0.158899 -0.824972 -0.542377
v 0.010317 0.042142 0.096714
vn -0.438705 -0.735858 -0.515801
v 0.027483 0.034831 0.096935
# 127 vertices, 0 vertices normals

f 39//39 15//15 18//18
f 16//16 14//14 13//13
f 71//71 10//10 14//14
f 13//13 14//14 10//10
f 13//13 10//10 11//11
f 1//1 11//11 10//10
f 10//10 69//69 1//1
f 16//16 13//13 12//12
f 16//16 12//12 18//18
f 12//12 38//38 37//37
f 12//12 37//37 18//18
f 12//12 13//13 38//38
f 13//13 11//11 38//38
f 5//5 38//38 11//11
f 11//11 1//1 5//5
f 22//22 14//14 16//16
f 16//16 15//15 17//17
f 19//19 14//14 22//22
f 15//15 16//16 18//18
f 75//75 14//14 19//19
f 23//23 19//19 22//22
f 17//17 15//15 20//20
f 20//20 15//15 39//39
f 20//20 47//47 46//46
f 17//17 22//22 16//16
f 20//20 21//21 17//17
f 22//22 17//17 26//26
f 17//17 21//21 26//26
f 23//23 22//22 26//26
f 23//23 83//83 19//19
f 83//83 82//82 19//19
f 83//83 23//23 27//27
f 28//28 27//27 31//31
f 26//26 21//21 24//24
f 21//21 20//20 46//46
f 24//24 21//21 46//46
f 25//25 26//26 24//24
f 27//27 25//25 31//31
f 24//24 33//33 25//25
f 33//33 31//31 25//25
f 24//24 46//46 49//49
f 33//33 24//24 49//49
f 23//23 26//26 25//25
f 27//27 23//23 25//25
f 27//27 28//28 29//29
f 7//7 83//83 27//27
f 29//29 6//6 7//7
f 7//7 27//27 29//29
f 6//6 29//29 30//30
f 28//28 31//31 32//32
f 33//33 32//32 31//31
f 29//29 28//28 32//32
f 34//34 32//32 33//33
f 58//58 32//32 34//34
f 53//53 34//34 33//33
f 54//54 58//58 34//34
f 29//29 32//32 30//30
f 36//36 30//30 32//32
f 36//36 32//32 58//58
f 35//35 30//30 36//36
f 58//58 59//59 36//36
f 37//37 2//2 18//18
f 4//4 37//37 38//38
f 38//38 5//5 4//4
f 37//37 40//40 2//2
f 101//101 37//37 4//4
f 101//101 40//40 37//37
f 41//41 40//40 101//101
f 102//102 41//41 101//101
f 2//2 39//39 18//18
f 39//39 2//2 44//44
f 2//2 40//40 44//44
f 40//40 41//41 43//43
f 108//108 43//43 41//41
f 42//42 20//20 39//39
f 44//44 42//42 39//39
f 20//20 42//42 47//47
f 44//44 40//40 43//43
f 43//43 48//48 44//44
f 48//48 43//43 45//45
f 48//48 42//42 44//44
f 47//47 42//42 48//48
f 45//45 43//43 108//108
f 113//113 45//45 108//108
f 47//47 49//49 46//46
f 50//50 49//49 47//47
f 55//55 49//49 50//50
f 53//53 49//49 55//55
f 47//47 48//48 50//50
f 51//51 50//50 48//48
f 64//64 50//50 65//65
f 51//51 48//48 45//45
f 51//51 45//45 52//52
f 8//8 45//45 113//113
f 45//45 8//8 52//52
f 65//65 50//50 51//51
f 51//51 52//52 65//65
f 52//52 8//8 122//122
f 52//52 122//122 67//67
f 33//33 49//49 53//53
f 53//53 54//54 34//34
f 57//57 58//58 54//54
f 64//64 55//55 50//50
f 56//56 55//55 64//64
f 53//53 55//55 54//54
f 56//56 54//54 55//55
f 57//57 54//54 56//56
f 60//60 57//57 56//56
f 61//61 59//59 58//58
f 9//9 93//93 36//36
f 9//9 36//36 59//59
f 9//9 59//59 61//61
f 61//61 58//58 57//57
f 61//61 57//57 60//60
f 60//60 62//62 61//61
f 62//62 63//63 61//61
f 56//56 64//64 60//60
f 64//64 65//65 66//66
f 66//66 60//60 64//64
f 62//62 60//60 66//66
f 67//67 65//65 52//52
f 66//66 65//65 67//67
f 67//67 68//68 66//66
f 62//62 66//66 63//63
f 66//66 68//68 63//63
f 10//10 71//71 69//69
f 71//71 72//72 69//69
f 70//70 1//1 69//69
f 69//69 72//72 70//70
f 1//1 70//70 3//3
f 5//5 1//1 3//3
f 3//3 99//99 5//5
f 103//103 3//3 107//107
f 14//14 75//75 71//71
f 73//73 72//72 71//71
f 75//75 76//76 73//73
f 73//73 71//71 75//75
f 72//72 74//74 70//70
f 74//74 72//72 73//73
f 77//77 74//74 73//73
f 76//76 77//77 73//73
f 74//74 3//3 70//70
f 3//3 74//74 107//107
f 79//79 74//74 77//77
f 74//74 79//79 107//107
f 76//76 75//75 19//19
f 82//82 76//76 19//19
f 78//78 76//76 82//82
f 77//77 76//76 78//78
f 77//77 80//80 79//79
f 80//80 77//77 78//78
f 112//112 79//79 80//80
f 85//85 82//82 83//83
f 85//85 81//81 82//82
f 82//82 81//81 78//78
f 81//81 85//85 84//84
f 84//84 86//86 81//81
f 84//84 85//85 90//90
f 91//91 84//84 90//90
f 86//86 78//78 81//81
f 87//87 86//86 84//84
f 87//87 84//84 91//91
f 80//80 78//78 86//86
f 80//80 86//86 87//87
f 87//87 88//88 115//115
f 115//115 80//80 87//87
f 88//88 87//87 95//95
f 85//85 83//83 7//7
f 89//89 7//7 6//6
f 90//90 85//85 7//7
f 90//90 7//7 89//89
f 6//6 35//35 89//89
f 35//35 6//6 30//30
f 92//92 90//90 89//89
f 92//92 89//89 35//35
f 93//93 35//35 36//36
f 93//93 92//92 35//35
f 93//93 94//94 92//92
f 94//94 90//90 92//92
f 91//91 90//90 94//94
f 95//95 87//87 91//91
f 91//91 94//94 95//95
f 95//95 96//96 88//88
f 97//97 94//94 93//93
f 95//95 94//94 97//97
f 96//96 95//95 97//97
f 4//4 5//5 99//99
f 4//4 99//99 98//98
f 98//98 99//99 3//3
f 98//98 3//3 103//103
f 103//103 104//104 98//98
f 100//100 101//101 4//4
f 4//4 98//98 100//100
f 104//104 100//100 98//98
f 100//100 102//102 101//101
f 106//106 104//104 103//103
f 107//107 106//106 103//103
f 107//107 109//109 106//106
f 109//109 107//107 79//79
f 105//105 100//100 104//104
f 105//105 102//102 100//100
f 105//105 104//104 106//106
f 111//111 105//105 106//106
f 102//102 108//108 41//41
f 110//110 108//108 102//102
f 105//105 110//110 102//102
f 109//109 111//111 106//106
f 110//110 105//105 111//111
f 111//111 109//109 114//114
f 114//114 121//121 111//111
f 79//79 112//112 109//109
f 112//112 114//114 109//109
f 114//114 112//112 80//80
f 113//113 108//108 110//110
f 113//113 110//110 121//121
f 110//110 111//111 121//121
f 121//121 114//114 116//116
f 114//114 80//80 115//115
f 117//117 114//114 115//115
f 117//117 116//116 114//114
f 118//118 117//117 115//115
f 118//118 115//115 88//88
f 118//118 116//116 117//117
f 118//118 119//119 116//116
f 121//121 120//120 113//113
f 120//120 8//8 113//113
f 120//120 121//121 116//116
f 8//8 120//120 122//122
f 119//119 120//120 116//116
f 122//122 120//120 119//119
f 97//97 93//93 9//9
f 123//123 97//97 9//9
f 124//124 9//9 61//61
f 123//123 9//9 124//124
f 96//96 118//118 88//88
f 97//97 125//125 96//96
f 125//125 119//119 118//118
f 125//125 118//118 96//96
f 125//125 97//97 123//123
f 126//126 68//68 67//67
f 126//126 67//67 127//127
f 68//68 124//124 63//63
f 63//63 124//124 61//61
f 124//124 68//68 126//126
f 126//126 127//127 124//124
f 127//127 122//122 119//119
f 127//127 67//67 122//122
f 124//124 127//127 123//123
f 125//125 127//127 119//119
f 123//123 127//127 125//125
# 250 faces, 0 coords texture

# End of File
