####
#
# OBJ File Generated by Meshlab
#
####
# Object blue_clover_baby_toy_250_collision.obj
#
# Vertices: 127
# Faces: 250
#
####
vn 0.032715 -0.398502 -0.916584
v 0.001418 -0.008970 0.002469
vn -0.286337 -0.117321 -0.950919
v -0.009364 -0.001958 0.001976
vn -0.066090 -0.043000 -0.996887
v -0.002665 0.000083 0.000613
vn -0.098358 -0.933766 -0.344102
v 0.001942 -0.017508 0.014542
vn -0.393721 -0.900241 0.185878
v -0.001646 -0.019551 0.031914
vn -0.966321 0.232319 -0.110685
v -0.019383 -0.000220 0.021365
vn 0.718851 -0.042485 -0.693865
v 0.011799 0.000338 0.004065
vn 0.937934 -0.256044 -0.233925
v 0.017254 -0.000911 0.015066
vn 0.951368 -0.277829 -0.133077
v 0.018434 -0.001627 0.023459
vn 0.019733 0.999684 -0.015546
v -0.003175 0.019635 0.020198
vn -0.067790 -0.249811 0.965919
v -0.003958 -0.008397 0.044387
vn 0.504855 -0.207763 0.837828
v 0.014487 -0.000937 0.043672
vn -0.802336 -0.434511 -0.409216
v -0.016473 -0.005181 0.008302
vn -0.961092 0.075932 -0.265588
v -0.017835 -0.000931 0.011211
vn -0.201326 -0.641283 -0.740421
v -0.002795 -0.010236 0.003783
vn -0.104821 -0.256060 -0.960961
v -0.002665 -0.004000 0.001067
vn -0.362642 -0.495318 -0.789399
v -0.008789 -0.007234 0.003459
vn -0.672341 -0.718347 -0.178704
v -0.015193 -0.008272 0.013656
vn -0.464247 -0.787198 -0.405949
v -0.009100 -0.010658 0.007380
vn -0.271889 -0.861323 -0.429183
v -0.003660 -0.013888 0.009854
vn -0.584456 -0.173267 -0.792710
v -0.012872 -0.004000 0.004004
vn -0.820776 0.055063 -0.568590
v -0.016024 -0.000937 0.006929
vn -0.469607 -0.858331 -0.206728
v -0.005568 -0.016337 0.018907
vn -0.604367 -0.796466 0.019561
v -0.010455 -0.013593 0.028252
vn -0.538542 -0.842388 0.018855
v -0.004521 -0.018440 0.028454
vn -0.986190 -0.108607 -0.125035
v -0.019634 -0.002979 0.021091
vn -0.591486 -0.797317 -0.120124
v -0.013089 -0.011455 0.020980
vn -0.565266 -0.783084 0.259332
v -0.009348 -0.013092 0.036397
vn -0.287316 -0.818994 0.496688
v -0.001950 -0.016792 0.038276
vn -0.708429 -0.703500 0.056706
v -0.017361 -0.008440 0.027703
vn -0.891857 -0.451333 -0.029842
v -0.019073 -0.006174 0.025381
vn -0.828693 -0.393264 0.398260
v -0.017790 -0.003675 0.040926
vn -0.663767 -0.697574 0.269823
v -0.015325 -0.007780 0.038001
vn -0.547619 -0.598561 0.584669
v -0.013250 -0.007618 0.041939
vn -0.338219 -0.640636 0.689343
v -0.007587 -0.011192 0.042615
vn -0.300272 -0.342157 0.890374
v -0.010530 -0.007278 0.043769
vn -0.474530 -0.139606 0.869098
v -0.014675 -0.002469 0.043543
vn -0.250966 -0.000816 0.967996
v -0.011724 -0.001958 0.044553
vn -0.458763 0.102558 -0.882620
v -0.010811 0.002125 0.002624
vn -0.463696 0.375784 -0.802354
v -0.008320 0.007650 0.002846
vn -0.173878 0.138393 -0.974994
v -0.004706 0.004166 0.000902
vn -0.157385 0.403528 -0.901330
v -0.004706 0.009481 0.002311
vn -0.665626 0.239412 -0.706841
v -0.012872 0.002125 0.004138
vn -0.860105 0.392596 -0.325712
v -0.015647 0.004956 0.008775
vn -0.624142 0.632217 -0.459074
v -0.009836 0.011935 0.007642
vn -0.262194 0.673801 -0.690830
v -0.004706 0.012332 0.004077
vn 0.015919 0.858604 -0.512392
v -0.001134 0.014959 0.006929
vn -0.318437 0.831515 -0.455171
v -0.005538 0.015117 0.008950
vn -0.775017 0.627048 -0.078487
v -0.012379 0.012762 0.022256
vn -0.273330 0.940825 -0.200349
v -0.005021 0.019683 0.018394
vn -0.234788 0.971863 -0.018903
v -0.005580 0.018729 0.026138
vn -0.997254 0.056220 0.048215
v -0.020066 -0.001448 0.029384
vn -0.893745 0.446969 -0.037937
v -0.018021 0.004503 0.025131
vn -0.892142 0.423415 0.157486
v -0.018107 0.004011 0.035217
vn -0.764233 0.214467 0.608236
v -0.018052 0.000722 0.040933
vn -0.662922 0.748173 -0.027775
v -0.009497 0.016038 0.026762
vn -0.812290 0.568507 0.130327
v -0.013483 0.010853 0.036788
vn -0.533487 0.676368 0.507856
v -0.007323 0.017544 0.040174
vn -0.360728 0.216626 0.907165
v -0.011733 0.005248 0.044051
vn -0.633278 0.450013 0.629641
v -0.012569 0.009385 0.041344
vn -0.639342 0.766288 0.063595
v -0.008978 0.017476 0.034998
vn 0.120266 0.978162 -0.169514
v -0.001708 0.019767 0.031298
vn -0.347954 0.890658 0.292672
v -0.004706 0.019514 0.038571
vn -0.060096 0.997454 -0.038386
v -0.002472 0.021082 0.034632
vn 0.171650 0.774821 0.608431
v -0.000481 0.019101 0.040934
vn -0.053336 0.012517 0.998498
v -0.007131 0.001040 0.045115
vn -0.147318 0.205425 0.967521
v -0.004589 0.010546 0.044346
vn -0.196499 0.403640 0.893568
v -0.003589 0.014977 0.043509
vn 0.112634 -0.134058 -0.984552
v 0.003459 -0.001958 0.000938
vn 0.200020 -0.765105 -0.612051
v 0.004163 -0.013247 0.005476
vn 0.371257 -0.398405 -0.838714
v 0.007301 -0.007468 0.002957
vn 0.674083 -0.697375 -0.243477
v 0.009003 -0.014867 0.012786
vn 0.784482 -0.372797 -0.495591
v 0.013478 -0.004654 0.007092
vn 0.438777 -0.123926 -0.890009
v 0.009288 -0.002842 0.002258
vn 0.856788 -0.488472 -0.165255
v 0.012987 -0.008397 0.013050
vn 0.320471 -0.901130 -0.292000
v 0.006648 -0.016172 0.013311
vn 0.193692 -0.964120 -0.181536
v 0.002949 -0.019336 0.020908
vn 0.467711 -0.876359 -0.115072
v 0.005856 -0.018523 0.023900
vn -0.190166 -0.973084 -0.130172
v -0.000746 -0.019860 0.024271
vn 0.339312 -0.939733 0.042059
v 0.004235 -0.019976 0.031956
vn -0.093794 -0.977971 0.186482
v 0.001418 -0.020418 0.031922
vn 0.657507 -0.753229 0.018199
v 0.008632 -0.017339 0.031127
vn 0.178035 -0.846526 0.501695
v 0.004480 -0.018285 0.038607
vn 0.841405 -0.538545 -0.044787
v 0.014643 -0.008338 0.026110
vn 0.795781 -0.577655 0.181788
v 0.010324 -0.015253 0.034399
vn 0.818727 -0.519330 0.244913
v 0.013687 -0.009141 0.034635
vn -0.147097 -0.629695 0.762789
v -0.000501 -0.014259 0.041790
vn 0.507618 -0.546082 0.666422
v 0.006420 -0.014218 0.041718
vn 0.070089 -0.518147 0.852415
v 0.003938 -0.013736 0.042978
vn 0.556331 -0.431248 0.710297
v 0.010987 -0.005952 0.043153
vn 0.618126 -0.704844 0.348015
v 0.007951 -0.016247 0.037897
vn 0.765069 -0.465403 0.445049
v 0.010707 -0.011347 0.038980
vn 0.765176 -0.489413 0.418306
v 0.016931 -0.002631 0.039412
vn 0.973766 -0.227201 0.012618
v 0.020580 0.000594 0.032583
vn 0.118265 -0.130558 0.984362
v 0.006139 -0.006424 0.044352
vn 0.029724 -0.055599 0.998011
v 0.000270 -0.004063 0.044764
vn 0.100677 0.076901 -0.991943
v 0.001418 0.004166 0.000707
vn 0.430789 0.176477 -0.885029
v 0.009033 0.004166 0.002234
vn 0.076043 0.292927 -0.953106
v 0.001418 0.008249 0.001510
vn 0.378340 0.475278 -0.794336
v 0.007589 0.008322 0.002827
vn 0.148811 0.649195 -0.745923
v 0.001928 0.011337 0.003104
vn 0.740318 0.216565 -0.636419
v 0.012897 0.004755 0.005256
vn 0.830317 0.454502 -0.322493
v 0.014759 0.007524 0.010182
vn 0.431782 0.754680 -0.493986
v 0.008756 0.011455 0.006929
vn 0.273668 0.867983 -0.414380
v 0.003713 0.014372 0.008183
vn 0.629210 0.589406 -0.506651
v 0.011803 0.008970 0.006715
vn 0.485610 0.837984 -0.248930
v 0.007616 0.013842 0.011329
vn 0.903967 0.034475 -0.426210
v 0.016062 0.003145 0.010044
vn 0.637770 0.751120 -0.170492
v 0.011568 0.012319 0.015171
vn 0.712526 0.695943 -0.089273
v 0.015071 0.010287 0.026016
vn 0.503865 0.860674 -0.073210
v 0.007375 0.015962 0.023053
vn 0.972699 0.140672 -0.184577
v 0.018118 0.003268 0.017135
vn 0.844171 0.520277 -0.129175
v 0.016557 0.007136 0.017066
vn 0.947479 0.292424 -0.129503
v 0.018455 0.004437 0.023667
vn 0.285634 0.937589 -0.198344
v 0.000864 0.018780 0.018174
vn 0.184396 0.982503 -0.026177
v -0.000113 0.019679 0.022877
vn 0.371146 0.925977 -0.069414
v 0.003956 0.017819 0.028039
vn 0.294617 0.143694 0.944750
v 0.012547 0.003628 0.044031
vn 0.516794 0.854450 0.053273
v 0.008894 0.015448 0.034531
vn 0.304195 0.447227 0.841103
v 0.007800 0.010582 0.042881
vn 0.143847 0.295865 0.944337
v 0.001962 0.012851 0.043970
vn 0.650932 0.668629 0.359476
v 0.017395 0.009034 0.038622
vn 0.878199 0.473939 -0.064406
v 0.018626 0.007269 0.031819
vn 0.853902 0.099498 0.510833
v 0.019765 0.003534 0.039032
vn 0.492973 0.412771 0.765897
v 0.014907 0.008063 0.041702
vn 0.674096 0.738450 -0.016948
v 0.016526 0.010074 0.035509
vn 0.081352 0.079244 0.993530
v 0.003475 0.005681 0.044756
# 127 vertices, 0 vertices normals

f 17//17 2//2 16//16
f 15//15 17//17 16//16
f 1//1 15//15 16//16
f 2//2 3//3 16//16
f 19//19 13//13 17//17
f 18//18 13//13 19//19
f 19//19 15//15 20//20
f 19//19 17//17 15//15
f 23//23 19//19 20//20
f 17//17 21//21 2//2
f 21//21 17//17 13//13
f 43//43 21//21 22//22
f 21//21 13//13 22//22
f 39//39 2//2 21//21
f 21//21 43//43 39//39
f 13//13 14//14 22//22
f 23//23 20//20 4//4
f 79//79 23//23 4//4
f 24//24 23//23 25//25
f 79//79 25//25 23//23
f 25//25 79//79 5//5
f 18//18 31//31 13//13
f 26//26 13//13 31//31
f 26//26 14//14 13//13
f 6//6 14//14 26//26
f 31//31 18//18 30//30
f 31//31 52//52 26//26
f 52//52 6//6 26//26
f 18//18 19//19 27//27
f 23//23 27//27 19//19
f 27//27 30//30 18//18
f 30//30 27//27 24//24
f 23//23 24//24 27//27
f 24//24 25//25 28//28
f 28//28 25//25 5//5
f 5//5 29//29 28//28
f 30//30 32//32 31//31
f 32//32 52//52 31//31
f 32//32 30//30 33//33
f 55//55 52//52 32//32
f 28//28 30//30 24//24
f 30//30 28//28 33//33
f 34//34 33//33 28//28
f 28//28 35//35 34//34
f 34//34 35//35 36//36
f 35//35 28//28 29//29
f 87//87 35//35 29//29
f 35//35 87//87 11//11
f 34//34 32//32 33//33
f 32//32 34//34 37//37
f 36//36 37//37 34//34
f 37//37 55//55 32//32
f 36//36 35//35 11//11
f 36//36 38//38 37//37
f 38//38 36//36 11//11
f 66//66 38//38 11//11
f 96//96 66//66 11//11
f 41//41 3//3 2//2
f 41//41 2//2 39//39
f 97//97 3//3 41//41
f 42//42 41//41 40//40
f 41//41 39//39 40//40
f 99//99 97//97 41//41
f 99//99 41//41 42//42
f 42//42 101//101 99//99
f 43//43 22//22 44//44
f 44//44 45//45 43//43
f 40//40 39//39 43//43
f 40//40 43//43 45//45
f 14//14 44//44 22//22
f 46//46 42//42 40//40
f 46//46 40//40 45//45
f 101//101 42//42 46//46
f 46//46 45//45 48//48
f 101//101 46//46 47//47
f 46//46 48//48 47//47
f 50//50 48//48 45//45
f 48//48 50//50 47//47
f 44//44 14//14 6//6
f 6//6 53//53 44//44
f 44//44 49//49 45//45
f 49//49 50//50 45//45
f 49//49 44//44 53//53
f 115//115 50//50 10//10
f 56//56 51//51 50//50
f 50//50 49//49 56//56
f 51//51 10//10 50//50
f 116//116 10//10 51//51
f 62//62 116//116 51//51
f 52//52 53//53 6//6
f 54//54 53//53 52//52
f 54//54 57//57 53//53
f 54//54 52//52 55//55
f 57//57 49//49 53//53
f 57//57 56//56 49//49
f 57//57 61//61 56//56
f 60//60 57//57 54//54
f 60//60 54//54 55//55
f 60//60 55//55 59//59
f 57//57 60//60 58//58
f 67//67 60//60 59//59
f 68//68 60//60 67//67
f 58//58 60//60 68//68
f 68//68 65//65 58//58
f 64//64 51//51 56//56
f 62//62 51//51 64//64
f 64//64 56//56 61//61
f 58//58 61//61 57//57
f 61//61 63//63 64//64
f 63//63 61//61 58//58
f 63//63 65//65 64//64
f 58//58 65//65 63//63
f 55//55 37//37 38//38
f 38//38 59//59 55//55
f 59//59 38//38 66//66
f 66//66 96//96 127//127
f 67//67 59//59 66//66
f 66//66 127//127 67//67
f 69//69 1//1 16//16
f 1//1 69//69 71//71
f 69//69 74//74 71//71
f 69//69 16//16 3//3
f 70//70 20//20 15//15
f 70//70 15//15 1//1
f 71//71 70//70 1//1
f 70//70 72//72 76//76
f 73//73 72//72 70//70
f 73//73 70//70 71//71
f 75//75 72//72 73//73
f 71//71 74//74 73//73
f 73//73 74//74 7//7
f 20//20 70//70 4//4
f 4//4 70//70 76//76
f 76//76 78//78 77//77
f 77//77 4//4 76//76
f 72//72 78//78 76//76
f 79//79 4//4 77//77
f 81//81 79//79 80//80
f 80//80 79//79 77//77
f 78//78 80//80 77//77
f 78//78 72//72 82//82
f 72//72 75//75 84//84
f 75//75 73//73 8//8
f 84//84 82//82 72//72
f 9//9 84//84 75//75
f 75//75 8//8 9//9
f 5//5 79//79 81//81
f 82//82 80//80 78//78
f 80//80 82//82 91//91
f 85//85 91//91 82//82
f 5//5 81//81 29//29
f 83//83 29//29 81//81
f 81//81 80//80 83//83
f 91//91 83//83 80//80
f 29//29 83//83 89//89
f 89//89 87//87 29//29
f 83//83 88//88 89//89
f 91//91 88//88 83//83
f 82//82 84//84 85//85
f 85//85 84//84 86//86
f 89//89 11//11 87//87
f 90//90 89//89 88//88
f 91//91 85//85 92//92
f 85//85 86//86 92//92
f 90//90 92//92 86//86
f 92//92 88//88 91//91
f 90//90 88//88 92//92
f 90//90 86//86 93//93
f 90//90 93//93 12//12
f 86//86 84//84 94//94
f 84//84 9//9 94//94
f 86//86 94//94 93//93
f 94//94 124//124 93//93
f 93//93 124//124 12//12
f 11//11 89//89 95//95
f 90//90 95//95 89//89
f 11//11 95//95 96//96
f 90//90 12//12 95//95
f 69//69 3//3 97//97
f 97//97 98//98 74//74
f 74//74 69//69 97//97
f 99//99 100//100 98//98
f 98//98 97//97 99//99
f 7//7 74//74 98//98
f 100//100 99//99 101//101
f 7//7 98//98 102//102
f 98//98 100//100 106//106
f 106//106 102//102 98//98
f 73//73 7//7 108//108
f 7//7 102//102 108//108
f 103//103 108//108 102//102
f 106//106 103//103 102//102
f 104//104 100//100 101//101
f 47//47 105//105 101//101
f 105//105 104//104 101//101
f 105//105 47//47 50//50
f 107//107 104//104 105//105
f 104//104 106//106 100//100
f 106//106 104//104 107//107
f 109//109 106//106 107//107
f 109//109 103//103 106//106
f 109//109 113//113 103//103
f 113//113 109//109 110//110
f 109//109 107//107 111//111
f 110//110 109//109 111//111
f 73//73 108//108 8//8
f 112//112 8//8 108//108
f 103//103 112//112 108//108
f 112//112 103//103 113//113
f 9//9 8//8 112//112
f 114//114 112//112 113//113
f 9//9 112//112 114//114
f 110//110 114//114 113//113
f 9//9 114//114 94//94
f 105//105 50//50 115//115
f 115//115 107//107 105//105
f 115//115 111//111 107//107
f 116//116 115//115 10//10
f 116//116 111//111 115//115
f 117//117 111//111 116//116
f 117//117 116//116 62//62
f 119//119 126//126 110//110
f 119//119 111//111 117//117
f 119//119 110//110 111//111
f 12//12 124//124 118//118
f 125//125 120//120 118//118
f 122//122 119//119 65//65
f 68//68 121//121 65//65
f 65//65 121//121 120//120
f 65//65 120//120 122//122
f 126//126 119//119 122//122
f 122//122 120//120 125//125
f 123//123 94//94 114//114
f 123//123 114//114 110//110
f 122//122 123//123 126//126
f 124//124 94//94 123//123
f 124//124 123//123 122//122
f 123//123 110//110 126//126
f 122//122 125//125 124//124
f 125//125 118//118 124//124
f 117//117 62//62 64//64
f 64//64 119//119 117//117
f 119//119 64//64 65//65
f 96//96 95//95 127//127
f 118//118 127//127 95//95
f 95//95 12//12 118//118
f 127//127 118//118 120//120
f 67//67 127//127 121//121
f 127//127 120//120 121//121
f 68//68 67//67 121//121
# 250 faces, 0 coords texture

# End of File
