####
#
# OBJ File Generated by Meshlab
#
####
# Object blue_clover_baby_toy_250_collision.obj
#
# Vertices: 127
# Faces: 250
#
####
vn -0.891130 -0.436653 -0.123372
v -0.025440 -0.007828 0.013616
vn 0.945794 -0.237990 -0.220985
v 0.027397 0.001879 0.007828
vn 0.207838 0.805534 -0.554904
v 0.001681 0.027397 0.005871
vn 0.802627 0.109811 0.586286
v 0.022100 0.004892 0.041283
vn -0.014987 -0.986002 -0.166056
v 0.007828 -0.025097 0.009785
vn -0.017710 -0.008974 0.999803
v -0.009785 -0.005871 0.043589
vn -0.783093 0.511466 -0.353791
v -0.021058 0.007828 0.007828
vn 0.741771 -0.615825 0.265586
v 0.013699 -0.015669 0.039139
vn 0.579680 0.736109 0.349448
v 0.017815 0.013697 0.039170
vn -0.548561 -0.823316 0.145712
v -0.017612 -0.015656 0.041149
vn 0.007601 -0.129057 -0.991608
v -0.001035 -0.015656 0.005871
vn -0.187916 0.080304 0.978897
v -0.015656 0.001957 0.043363
vn 0.107415 0.030019 0.993761
v 0.017612 0.005871 0.043411
vn -0.987057 0.142313 0.073926
v -0.023825 -0.003914 0.039139
vn -0.616624 0.780135 0.105660
v -0.007828 0.020942 0.039139
vn 0.870892 -0.424593 0.247522
v 0.021195 -0.001957 0.039139
vn 0.520960 -0.785162 -0.334847
v 0.012891 -0.023483 0.009785
vn 0.375601 0.877293 0.298799
v 0.004202 0.021526 0.039139
vn -0.979294 -0.197305 0.045311
v -0.025440 -0.007828 0.014339
vn -0.405346 -0.733860 -0.545109
v -0.005871 -0.021526 0.008411
vn -0.204689 -0.429572 0.879528
v -0.015656 -0.015656 0.042479
vn 0.114674 -0.131797 0.984621
v 0.007339 -0.013150 0.043127
vn 0.351885 0.495457 0.794166
v 0.015656 0.011742 0.042333
vn 0.476893 -0.246278 0.843753
v 0.019569 -0.000978 0.042343
vn -0.034559 0.959556 0.279390
v -0.001957 0.023177 0.039139
vn -0.434045 0.897373 -0.079537
v -0.001957 0.027397 0.008572
vn -0.832570 0.511500 0.212590
v -0.018754 0.005871 0.039139
vn -0.468794 0.415382 0.779545
v -0.007828 0.019569 0.041737
vn 0.818369 -0.463306 -0.340028
v 0.023483 -0.006441 0.007828
vn 0.966846 -0.074283 0.244316
v 0.023034 0.003914 0.039139
vn 0.456459 -0.844876 0.278979
v 0.008152 -0.019745 0.039139
vn 0.102941 -0.435310 -0.894376
v 0.006255 -0.023483 0.007828
vn 0.444538 0.828774 0.339882
v 0.005871 0.020740 0.039141
vn 0.854044 0.429624 0.293312
v 0.022304 0.007828 0.039139
vn 0.703827 0.707754 0.060929
v 0.025440 0.009785 0.012765
vn -0.574955 -0.813267 -0.089576
v -0.007828 -0.020332 0.009785
vn -0.142069 -0.895323 0.422153
v 0.001995 -0.020916 0.039164
vn 0.019343 -0.047801 0.998670
v 0.001957 -0.011742 0.043497
vn 0.039189 0.174793 0.983825
v 0.001957 0.017904 0.043117
vn 0.725669 -0.412155 0.550938
v 0.018162 -0.005871 0.041096
vn 0.189459 0.923022 0.334868
v 0.000000 0.023001 0.039139
vn -0.386296 0.888734 0.246833
v -0.005871 0.022136 0.039139
vn 0.117174 -0.044916 -0.992095
v 0.016537 -0.007828 0.005871
vn 0.927808 -0.312153 0.204286
v 0.021956 0.000000 0.039139
vn 0.995955 -0.011211 0.089149
v 0.027397 0.001957 0.007851
vn 0.524468 -0.790712 0.315764
v 0.009785 -0.018783 0.039139
vn -0.078587 -0.594350 -0.800357
v 0.004927 -0.023483 0.007828
vn 0.497703 0.862517 0.091409
v 0.003914 0.025979 0.007828
vn 0.276877 0.954142 0.113806
v 0.001353 0.027397 0.007828
vn 0.353895 0.638207 0.683704
v 0.003914 0.019569 0.041986
vn 0.945572 0.174406 0.274730
v 0.022853 0.005871 0.039139
vn -0.906386 0.421223 0.032181
v -0.022161 0.005871 0.009785
vn -0.852216 -0.216314 0.476377
v -0.023488 -0.005872 0.041106
vn -0.942470 0.235970 -0.236789
v -0.023933 0.000013 0.007814
vn -0.585476 -0.284137 -0.759265
v -0.024543 -0.005871 0.007828
vn -0.436524 0.110118 -0.892928
v -0.021526 0.003914 0.006533
vn -0.595335 -0.795875 -0.110270
v -0.023483 -0.009322 0.013699
vn -0.140768 0.001211 0.990042
v -0.015656 0.000000 0.043419
vn -0.350232 -0.160056 0.922886
v -0.017612 -0.011742 0.042541
vn 0.824962 0.390840 -0.408268
v 0.027377 0.007828 0.007828
vn 0.112664 0.084411 -0.990041
v 0.013115 0.015658 0.005871
vn 0.092752 0.017795 -0.995530
v 0.017723 0.003914 0.005871
vn 0.024415 0.043542 0.998753
v 0.011742 0.009785 0.043505
vn 0.019053 -0.391126 0.920140
v 0.003914 -0.017612 0.042319
vn 0.012561 -0.132778 0.991066
v 0.001957 -0.013699 0.043376
vn 0.601317 0.446757 0.662440
v 0.020129 0.009351 0.041389
vn 0.710030 -0.511012 0.484484
v 0.013699 -0.015656 0.039158
vn 0.552944 -0.357153 0.752791
v 0.014491 -0.011066 0.041541
vn 0.079421 0.768779 0.634564
v -0.000978 0.021993 0.041333
vn -0.868970 0.338190 0.361275
v -0.023483 -0.003131 0.041096
vn -0.522252 0.717109 0.461528
v -0.007828 0.020526 0.041096
vn -0.246552 0.929197 0.275328
v -0.003914 0.022759 0.039139
vn 0.396535 -0.173236 -0.901526
v 0.025440 -0.001957 0.007470
vn 0.941779 -0.259416 0.213907
v 0.022515 0.001957 0.039139
vn 0.835429 -0.276573 0.474937
v 0.021444 0.000000 0.040913
vn 0.473443 -0.649744 0.594713
v 0.009785 -0.017856 0.041096
vn -0.000730 -0.952004 0.306085
v 0.003914 -0.021115 0.039139
vn -0.051020 -0.229138 -0.972056
v -0.002128 -0.015656 0.005871
vn 0.575538 0.817635 -0.015114
v 0.004820 0.025440 0.007828
vn 0.314470 0.904255 0.288845
v 0.001957 0.022397 0.039139
vn 0.016743 0.997480 0.068938
v 0.000000 0.027397 0.008285
vn 0.149559 0.453339 0.878701
v 0.001957 0.019569 0.042652
vn -0.833310 0.067105 -0.548719
v -0.024551 -0.003914 0.007828
vn -0.307676 0.276263 -0.910502
v -0.013709 0.013635 0.005871
vn -0.466915 0.100671 0.878553
v -0.023483 -0.003914 0.041467
vn 0.095560 -0.055737 0.993862
v 0.013454 -0.001712 0.043355
vn -0.000306 -0.022340 0.999750
v -0.001957 -0.009785 0.043568
vn -0.015675 0.017731 0.999720
v -0.009785 0.005871 0.043522
vn -0.005414 0.024875 0.999676
v -0.000489 0.010763 0.043465
vn -0.034566 0.088018 0.995519
v -0.003914 0.015656 0.043319
vn -0.118677 -0.080569 0.989659
v -0.015631 -0.011709 0.043126
vn 0.098888 -0.601206 0.792952
v 0.005871 -0.019569 0.041257
vn 0.001949 -0.257830 0.966188
v 0.001957 -0.015586 0.043037
vn 0.282261 0.300546 0.911044
v 0.017850 0.008806 0.042895
vn 0.131444 0.176821 0.975426
v 0.014341 0.010250 0.043223
vn 0.440468 0.186715 0.878137
v 0.019559 0.006811 0.042882
vn 0.170759 -0.101808 0.980039
v 0.014301 -0.004403 0.043141
vn -0.682509 0.464954 0.563914
v -0.011140 0.015656 0.041096
vn 0.133218 -0.006586 -0.991065
v 0.017792 -0.000059 0.005871
vn 0.122825 -0.272360 -0.954324
v 0.009785 -0.017612 0.006478
vn 0.251633 -0.373162 -0.892990
v 0.009785 -0.022125 0.008161
vn 0.200842 -0.202961 -0.958368
v 0.013439 -0.013496 0.005871
vn -0.159997 -0.165885 -0.973079
v -0.013699 -0.010245 0.005871
vn 0.612027 0.788987 -0.054066
v 0.017772 0.015656 0.009785
vn -0.251328 0.026084 0.967550
v -0.017135 0.000000 0.043053
vn -0.339735 0.214689 0.915690
v -0.015661 0.003914 0.043056
vn -0.460246 0.304615 0.833896
v -0.009785 0.015656 0.042128
vn 0.001653 0.000323 0.999999
v -0.007828 -0.005871 0.043588
vn -0.039554 0.021528 0.998985
v -0.013209 0.002935 0.043463
vn -0.080598 0.322391 0.943169
v -0.002813 0.019483 0.042749
vn -0.129250 0.194889 0.972272
v -0.005328 0.017409 0.043031
vn -0.061948 0.057848 0.996402
v -0.009785 0.008806 0.043432
vn 0.121284 0.214844 0.969088
v 0.005871 0.015887 0.043125
vn -0.766426 0.582281 0.271183
v -0.011126 0.017615 0.039147
vn -0.162897 0.715023 0.679858
v -0.003900 0.021687 0.041417
vn 0.291070 -0.222729 0.930414
v 0.012965 -0.009913 0.042554
vn -0.028909 -0.059217 -0.997826
v -0.010854 -0.011742 0.005871
vn 0.292267 0.775120 0.560151
v 0.001843 0.021494 0.041017
vn 0.409630 -0.071625 0.909436
v 0.020567 0.003447 0.042592
vn 0.013429 -0.004188 0.999901
v 0.014677 0.006849 0.043457
vn 0.270611 -0.842479 0.465832
v 0.005772 -0.020655 0.039960
vn 0.270531 -0.393617 0.878566
v 0.008806 -0.016634 0.042028
vn 0.090917 -0.272920 0.957731
v 0.004892 -0.016041 0.042820
vn -0.284815 0.274960 0.918301
v -0.007828 0.017612 0.042435
vn 0.212283 0.321085 0.922952
v 0.013468 0.011742 0.043003
vn 0.478752 -0.405348 0.778775
v 0.011815 -0.015737 0.041231
vn -0.172588 0.139668 0.975042
v -0.009295 0.012465 0.043080
# 127 vertices, 0 vertices normals

f 19//19 1//1 10//10
f 20//20 5//5 10//10
f 37//37 10//10 5//5
f 21//21 10//10 37//37
f 21//21 53//53 10//10
f 26//26 84//84 7//7
f 26//26 3//3 84//84
f 29//29 16//16 8//8
f 29//29 2//2 16//16
f 29//29 8//8 17//17
f 32//32 17//17 5//5
f 35//35 34//34 60//60
f 35//35 9//9 34//34
f 53//53 19//19 10//10
f 53//53 14//14 19//19
f 36//36 20//20 10//10
f 114//114 26//26 7//7
f 114//114 15//15 26//26
f 42//42 26//26 15//15
f 44//44 16//16 2//2
f 45//45 30//30 2//2
f 45//45 60//60 30//30
f 75//75 40//40 16//16
f 46//46 31//31 17//17
f 46//46 17//17 8//8
f 121//121 5//5 17//17
f 47//47 32//32 5//5
f 47//47 5//5 20//20
f 48//48 33//33 9//9
f 49//49 18//18 33//33
f 49//49 48//48 3//3
f 49//49 33//33 48//48
f 49//49 25//25 41//41
f 51//51 30//30 60//60
f 51//51 60//60 34//34
f 51//51 34//34 4//4
f 51//51 4//4 30//30
f 52//52 27//27 114//114
f 52//52 54//54 14//14
f 52//52 114//114 7//7
f 54//54 19//19 14//14
f 54//54 1//1 19//19
f 55//55 20//20 1//1
f 57//57 20//20 36//36
f 57//57 36//36 10//10
f 57//57 10//10 1//1
f 57//57 1//1 20//20
f 58//58 91//91 6//6
f 59//59 53//53 21//21
f 59//59 21//21 91//91
f 60//60 2//2 99//99
f 60//60 45//45 2//2
f 61//61 3//3 60//60
f 62//62 61//61 60//60
f 62//62 60//60 99//99
f 64//64 93//93 21//21
f 65//65 22//22 38//38
f 65//65 91//91 21//21
f 119//119 24//24 75//75
f 67//67 8//8 16//16
f 67//67 16//16 40//40
f 69//69 41//41 25//25
f 70//70 27//27 52//52
f 70//70 114//114 27//27
f 70//70 52//52 14//14
f 70//70 14//14 53//53
f 71//71 15//15 114//114
f 71//71 42//42 15//15
f 72//72 25//25 26//26
f 72//72 26//26 42//42
f 73//73 2//2 29//29
f 73//73 99//99 2//2
f 74//74 44//44 2//2
f 74//74 2//2 30//30
f 75//75 16//16 44//44
f 75//75 44//44 74//74
f 75//75 74//74 30//30
f 24//24 40//40 75//75
f 76//76 46//46 8//8
f 76//76 8//8 67//67
f 31//31 121//121 17//17
f 77//77 37//37 5//5
f 77//77 5//5 121//121
f 77//77 121//121 37//37
f 78//78 47//47 20//20
f 78//78 11//11 32//32
f 78//78 32//32 47//47
f 79//79 48//48 9//9
f 79//79 9//9 35//35
f 79//79 60//60 3//3
f 79//79 3//3 48//48
f 80//80 49//49 41//41
f 80//80 18//18 49//49
f 81//81 26//26 25//25
f 81//81 25//25 49//49
f 81//81 49//49 3//3
f 81//81 3//3 26//26
f 9//9 50//50 23//23
f 9//9 23//23 66//66
f 118//118 33//33 18//18
f 118//118 18//18 80//80
f 118//118 80//80 41//41
f 118//118 41//41 69//69
f 82//82 23//23 50//50
f 54//54 52//52 7//7
f 54//54 7//7 56//56
f 83//83 55//55 1//1
f 83//83 1//1 54//54
f 83//83 56//56 55//55
f 83//83 54//54 56//56
f 84//84 56//56 7//7
f 109//109 12//12 58//58
f 109//109 58//58 6//6
f 85//85 70//70 53//53
f 85//85 91//91 58//58
f 85//85 28//28 70//70
f 85//85 59//59 91//91
f 85//85 53//53 59//59
f 86//86 38//38 22//22
f 86//86 13//13 38//38
f 86//86 119//119 13//13
f 87//87 38//38 13//13
f 87//87 6//6 91//91
f 88//88 6//6 63//63
f 89//89 88//88 63//63
f 89//89 112//112 88//88
f 90//90 63//63 39//39
f 92//92 64//64 21//21
f 92//92 21//21 37//37
f 91//91 65//65 38//38
f 91//91 38//38 87//87
f 93//93 65//65 21//21
f 90//90 112//112 89//89
f 94//94 66//66 23//23
f 94//94 96//96 66//66
f 4//4 66//66 96//96
f 4//4 119//119 75//75
f 4//4 75//75 30//30
f 66//66 34//34 9//9
f 96//96 119//119 4//4
f 98//98 70//70 28//28
f 98//98 114//114 70//70
f 115//115 72//72 42//42
f 115//115 69//69 25//25
f 115//115 25//25 72//72
f 99//99 73//73 43//43
f 100//100 32//32 11//11
f 100//100 11//11 102//102
f 101//101 17//17 32//32
f 101//101 100//100 102//102
f 101//101 32//32 100//100
f 102//102 29//29 17//17
f 102//102 73//73 29//29
f 102//102 43//43 73//73
f 116//116 68//68 24//24
f 121//121 31//31 46//46
f 121//121 46//46 76//76
f 103//103 20//20 55//55
f 103//103 55//55 56//56
f 103//103 56//56 84//84
f 104//104 79//79 35//35
f 104//104 35//35 60//60
f 104//104 60//60 79//79
f 33//33 50//50 9//9
f 118//118 82//82 50//50
f 118//118 50//50 33//33
f 69//69 115//115 82//82
f 69//69 82//82 118//118
f 125//125 23//23 82//82
f 125//125 94//94 23//23
f 105//105 85//85 58//58
f 105//105 58//58 12//12
f 105//105 12//12 85//85
f 106//106 85//85 12//12
f 107//107 85//85 106//106
f 107//107 28//28 85//85
f 119//119 86//86 97//97
f 120//120 13//13 63//63
f 120//120 63//63 87//87
f 108//108 87//87 63//63
f 108//108 63//63 6//6
f 108//108 6//6 87//87
f 109//109 6//6 88//88
f 109//109 88//88 112//112
f 89//89 63//63 90//90
f 121//121 92//92 37//37
f 123//123 93//93 64//64
f 123//123 65//65 93//93
f 123//123 22//22 65//65
f 111//111 127//127 90//90
f 112//112 90//90 127//127
f 112//112 127//127 12//12
f 112//112 12//12 109//109
f 113//113 39//39 63//63
f 95//95 63//63 13//13
f 95//95 13//13 94//94
f 95//95 113//113 63//63
f 66//66 4//4 34//34
f 96//96 94//94 13//13
f 96//96 13//13 119//119
f 116//116 22//22 122//122
f 97//97 86//86 22//22
f 126//126 67//67 68//68
f 114//114 98//98 28//28
f 114//114 28//28 71//71
f 115//115 71//71 28//28
f 101//101 102//102 17//17
f 117//117 78//78 20//20
f 117//117 20//20 103//103
f 117//117 11//11 78//78
f 117//117 102//102 11//11
f 117//117 43//43 102//102
f 117//117 99//99 43//43
f 117//117 62//62 99//99
f 117//117 61//61 62//62
f 117//117 3//3 61//61
f 117//117 103//103 84//84
f 117//117 84//84 3//3
f 95//95 94//94 125//125
f 127//127 106//106 12//12
f 97//97 116//116 24//24
f 97//97 24//24 119//119
f 120//120 87//87 13//13
f 121//121 122//122 92//92
f 121//121 76//76 122//122
f 123//123 64//64 92//92
f 123//123 92//92 122//122
f 123//123 122//122 22//22
f 110//110 111//111 90//90
f 110//110 90//90 39//39
f 110//110 82//82 115//115
f 110//110 115//115 28//28
f 124//124 28//28 107//107
f 124//124 110//110 28//28
f 124//124 111//111 110//110
f 124//124 107//107 106//106
f 125//125 113//113 95//95
f 125//125 82//82 113//113
f 116//116 97//97 22//22
f 68//68 67//67 40//40
f 68//68 40//40 24//24
f 126//126 76//76 67//67
f 126//126 68//68 116//116
f 126//126 116//116 122//122
f 126//126 122//122 76//76
f 115//115 42//42 71//71
f 39//39 113//113 82//82
f 39//39 82//82 110//110
f 127//127 111//111 124//124
f 127//127 124//124 106//106
# 250 faces, 0 coords texture

# End of File
