####
#
# OBJ File Generated by Meshlab
#
####
# Object blue_clover_baby_toy_250_collision.obj
#
# Vertices: 127
# Faces: 250
#
####
vn -0.996598 -0.044278 -0.069518
v -0.021651 -0.003914 0.015656
vn 0.985895 -0.104155 0.131006
v 0.023062 0.003907 0.039460
vn -0.062191 0.957103 -0.282993
v -0.001957 0.020533 0.009785
vn -0.540110 0.562438 0.626055
v -0.007828 0.020048 0.041416
vn 0.442308 0.861476 0.249443
v 0.004199 0.021529 0.039148
vn -0.779272 0.602093 -0.173836
v -0.009785 0.015656 0.010112
vn 0.753645 -0.656771 0.025892
v 0.011742 -0.016821 0.039139
vn -0.746220 -0.104703 0.657413
v -0.020236 -0.003914 0.041096
vn 0.081584 0.009348 0.996623
v 0.016145 0.006360 0.043434
vn -0.044223 0.973446 0.224607
v -0.001957 0.023177 0.039139
vn 0.577433 0.784273 -0.226907
v 0.015878 0.011843 0.011533
vn -0.833798 0.215487 -0.508278
v -0.020727 -0.001957 0.009785
vn 0.266763 -0.874008 0.406136
v 0.005871 -0.020765 0.039139
vn 0.688321 -0.422324 0.589793
v 0.017672 -0.006068 0.041433
vn 0.946607 -0.285019 -0.150663
v 0.019864 0.000000 0.013699
vn 0.805720 -0.581893 -0.110526
v 0.011860 -0.015656 0.015656
vn 0.885987 -0.449047 0.115686
v 0.021195 -0.001957 0.039139
vn -0.189170 0.354408 -0.915756
v -0.003914 0.019569 0.009140
vn -0.369647 -0.800961 -0.470981
v -0.003914 -0.014901 0.009785
vn 0.195208 0.974528 0.110400
v 0.000000 0.023001 0.039139
vn -0.250648 0.962031 -0.108040
v -0.003914 0.020867 0.013699
vn -0.625279 0.196366 0.755293
v -0.019569 0.001957 0.041378
vn -0.947872 0.067908 0.311333
v -0.021338 -0.001957 0.039139
vn -0.817635 -0.266474 -0.510358
v -0.020388 -0.004864 0.009787
vn -0.840786 0.536161 -0.074907
v -0.013961 0.009785 0.011742
vn -0.921225 0.381226 -0.077531
v -0.021312 -0.001957 0.013699
vn -0.270439 -0.311359 0.910999
v -0.014652 -0.007805 0.042785
vn -0.844608 -0.471154 0.254265
v -0.020678 -0.005871 0.039139
vn 0.717372 0.079008 0.692196
v 0.021690 0.004892 0.041794
vn 0.192108 0.785755 0.587949
v 0.000432 0.021744 0.041175
vn 0.539862 0.794732 0.277397
v 0.015627 0.014274 0.039323
vn 0.229570 0.521345 0.821886
v 0.002935 0.019569 0.042319
vn 0.125913 -0.213021 0.968900
v 0.007094 -0.014299 0.042975
vn 0.455520 -0.873458 -0.171969
v 0.007869 -0.018574 0.013180
vn 0.944840 -0.321936 0.060287
v 0.021956 0.000000 0.039139
vn 0.922215 -0.376123 -0.089729
v 0.019325 -0.001957 0.015656
vn 0.804293 -0.555142 0.211970
v 0.014251 -0.013697 0.039154
vn -0.584590 0.675629 -0.449201
v -0.007828 0.017612 0.009729
vn -0.173878 -0.294395 -0.939733
v -0.011742 -0.009785 0.009127
vn -0.207429 -0.907951 0.364140
v 0.001919 -0.020921 0.039357
vn 0.328213 0.939836 -0.094785
v 0.001957 0.020523 0.017612
vn 0.054193 0.994078 -0.094195
v -0.001957 0.021152 0.015656
vn -0.676101 0.726949 -0.120139
v -0.007828 0.018705 0.013699
vn -0.399992 0.897709 0.184727
v -0.005871 0.022136 0.039139
vn -0.428415 0.864317 -0.263472
v -0.004964 0.019930 0.010763
vn -0.954497 0.253003 0.157879
v -0.021071 0.000000 0.039139
vn -0.849697 0.178393 0.496177
v -0.019786 0.001957 0.041096
vn -0.617499 0.405098 -0.674233
v -0.013699 0.009785 0.009727
vn -0.795013 0.595628 0.114815
v -0.009916 0.018722 0.039301
vn -0.852117 0.519700 -0.061711
v -0.020269 0.000000 0.015656
vn -0.381061 -0.632773 0.674085
v -0.009785 -0.012656 0.041592
vn -0.961152 -0.179612 0.209585
v -0.021347 -0.003914 0.039139
vn -0.708079 -0.678024 0.197250
v -0.019321 -0.007580 0.039139
vn -0.412845 -0.897576 -0.154649
v -0.004143 -0.015849 0.014497
vn -0.461941 -0.474106 -0.749556
v -0.019569 -0.006651 0.009785
vn -0.929227 -0.365393 -0.055003
v -0.021526 -0.004371 0.015656
vn -0.041972 0.263821 0.963658
v -0.003212 0.018540 0.043449
vn 0.564620 0.818658 -0.104895
v 0.017351 0.011742 0.015656
vn -0.013962 -0.132659 0.991063
v -0.000502 -0.012602 0.043546
vn 0.661563 -0.544097 -0.516035
v 0.010629 -0.014344 0.009785
vn 0.956981 -0.277167 0.085824
v 0.022515 0.001957 0.039139
vn 0.394101 -0.301799 0.868102
v 0.014677 -0.008806 0.042316
vn -0.149000 0.022428 -0.988583
v -0.017787 -0.000317 0.009071
vn -0.039349 -0.973160 -0.226742
v 0.005871 -0.018830 0.013699
vn -0.255794 -0.915970 -0.309142
v 0.000734 -0.017122 0.011252
vn -0.099357 -0.373218 -0.922408
v -0.000093 -0.015756 0.009087
vn -0.423802 -0.869680 0.253078
v 0.000072 -0.020302 0.039251
vn 0.320490 0.924111 0.208098
v 0.001957 0.022397 0.039139
vn 0.230629 0.966187 -0.115298
v 0.000000 0.020874 0.015656
vn 0.974270 0.179355 0.136490
v 0.022853 0.005871 0.039139
vn 0.654492 0.748180 0.108936
v 0.019087 0.011742 0.039139
vn 0.897516 0.406794 -0.170248
v 0.020379 0.007838 0.013324
vn 0.985035 -0.119870 -0.123843
v 0.020595 0.003914 0.013699
vn -0.492341 0.864608 -0.100270
v -0.006245 0.019852 0.014677
vn -0.612336 0.786820 0.077191
v -0.007828 0.020942 0.039139
vn -0.250894 0.946110 0.204761
v -0.003914 0.022759 0.039139
vn -0.113663 0.732149 0.671594
v -0.003173 0.021606 0.041618
vn -0.797214 0.400628 0.451605
v -0.019569 0.002528 0.041096
vn -0.834202 0.533688 -0.138870
v -0.013712 0.009785 0.009785
vn -0.814895 0.574171 -0.079208
v -0.010858 0.014677 0.013699
vn -0.767328 0.504272 0.396128
v -0.011441 0.015656 0.040344
vn -0.537581 -0.446639 0.715206
v -0.018098 -0.007614 0.041236
vn -0.109659 -0.175419 0.978368
v -0.005626 -0.010274 0.043441
vn 0.460061 -0.194051 0.866422
v 0.019569 0.000000 0.042685
vn 0.184568 -0.155028 0.970516
v 0.012777 -0.007712 0.042967
vn 0.709000 0.692116 -0.135260
v 0.017612 0.011517 0.015656
vn 0.460919 0.780303 -0.422707
v 0.007828 0.016483 0.009785
vn 0.561993 0.553760 0.614421
v 0.019740 0.010134 0.041265
vn 0.147592 0.182689 0.972030
v 0.014466 0.009680 0.043501
vn 0.608570 -0.789730 -0.077254
v 0.009565 -0.017612 0.015656
vn 0.690588 -0.712905 -0.121883
v 0.011742 -0.015789 0.015656
vn 0.838841 -0.297076 0.456171
v 0.021444 0.000000 0.040913
vn 0.111218 -0.713186 -0.692096
v 0.007266 -0.017456 0.009775
vn -0.178900 -0.972692 -0.147869
v 0.003914 -0.018973 0.015656
vn 0.053695 -0.979221 0.195559
v 0.003914 -0.021115 0.039139
vn -0.557761 -0.779380 0.285428
v -0.015655 -0.010766 0.039144
vn 0.170571 0.591884 -0.787768
v -0.000774 0.020160 0.009161
vn 0.406269 0.899724 -0.159504
v 0.004148 0.018927 0.011487
vn 0.992957 0.053871 -0.105516
v 0.020930 0.005871 0.015656
vn -0.565741 0.451383 -0.690065
v -0.009730 0.015592 0.009785
vn -0.869085 0.483396 0.104974
v -0.019606 0.003744 0.039150
vn 0.223797 -0.035897 0.973974
v 0.018611 0.003447 0.043210
vn 0.353414 0.162695 0.921211
v 0.019559 0.006811 0.042882
vn 0.741022 0.661760 0.113839
v 0.019569 0.011244 0.039139
vn 0.105148 0.173919 0.979130
v 0.000000 0.017758 0.043189
vn 0.274863 0.430242 0.859850
v 0.012663 0.012778 0.042699
vn 0.043989 -0.536143 0.842980
v 0.004648 -0.018384 0.041814
vn 0.864093 -0.457688 -0.209440
v 0.017303 -0.005928 0.013370
vn 0.736779 -0.617894 -0.274526
v 0.011300 -0.015503 0.013581
vn 0.291443 -0.896400 0.333957
v 0.008152 -0.019745 0.039139
vn 0.589051 -0.725736 0.355423
v 0.009755 -0.018872 0.040490
vn -0.331413 -0.933389 -0.137663
v 0.000000 -0.017789 0.015656
vn -0.689974 -0.718798 -0.085237
v -0.019571 -0.007618 0.013687
vn 0.581209 0.588109 -0.562426
v 0.017639 0.009956 0.009834
vn 0.771622 0.567662 -0.286984
v 0.019707 0.007828 0.011742
vn 0.849742 0.115739 -0.514337
v 0.020084 0.005439 0.009317
vn -0.411277 -0.062079 0.909394
v -0.018422 -0.001345 0.042301
vn 0.861458 0.465723 0.202465
v 0.022328 0.007830 0.039495
vn -0.040405 -0.034214 0.998597
v -0.008806 -0.005871 0.043588
vn -0.195751 -0.472105 0.859534
v -0.001468 -0.016145 0.042344
vn 0.203336 -0.495226 0.844634
v 0.008711 -0.017597 0.041478
vn -0.283546 0.095475 0.954194
v -0.015440 0.003318 0.043430
vn 0.069456 -0.057724 0.995914
v 0.009295 -0.007339 0.043358
vn 0.086540 0.041650 0.995377
v -0.003180 0.012231 0.043421
vn 0.411651 0.657669 0.630884
v 0.010556 0.016145 0.041185
vn -0.223558 -0.098663 0.969684
v -0.014232 -0.006115 0.043075
vn 0.419257 -0.192995 -0.887117
v 0.017919 -0.001558 0.009204
# 127 vertices, 0 vertices normals

f 127//127 93//93 66//66
f 17//17 16//16 108//108
f 18//18 127//127 66//66
f 26//26 12//12 1//1
f 30//30 20//20 10//10
f 36//36 17//17 108//108
f 36//36 35//35 17//17
f 36//36 15//15 35//35
f 37//37 7//7 16//16
f 37//37 16//16 17//17
f 63//63 18//18 66//66
f 63//63 24//24 12//12
f 97//97 116//116 127//127
f 97//97 127//127 18//18
f 97//97 18//18 3//3
f 39//39 66//66 19//19
f 39//39 63//63 66//66
f 65//65 19//19 66//66
f 42//42 10//10 20//20
f 42//42 21//21 10//10
f 42//42 3//3 21//21
f 114//114 116//116 97//97
f 43//43 38//38 6//6
f 45//45 21//21 3//3
f 45//45 3//3 18//18
f 45//45 18//18 38//38
f 46//46 26//26 1//1
f 46//46 1//1 23//23
f 47//47 23//23 8//8
f 47//47 8//8 22//22
f 47//47 46//46 23//23
f 24//24 1//1 12//12
f 48//48 63//63 12//12
f 48//48 18//18 63//63
f 80//80 43//43 6//6
f 80//80 49//49 43//43
f 50//50 26//26 101//101
f 50//50 25//25 26//26
f 52//52 23//23 1//1
f 52//52 28//28 8//8
f 52//52 8//8 23//23
f 53//53 113//113 96//96
f 54//54 113//113 19//19
f 54//54 19//19 65//65
f 55//55 113//113 24//24
f 55//55 19//19 113//113
f 55//55 39//39 19//19
f 56//56 113//113 28//28
f 56//56 52//52 1//1
f 56//56 28//28 52//52
f 56//56 1//1 24//24
f 58//58 5//5 31//31
f 108//108 15//15 36//36
f 60//60 93//93 127//127
f 60//60 34//34 93//93
f 61//61 35//35 15//15
f 61//61 15//15 2//2
f 111//111 7//7 37//37
f 63//63 55//55 24//24
f 63//63 39//39 55//55
f 64//64 93//93 34//34
f 66//66 93//93 65//65
f 67//67 96//96 113//113
f 68//68 41//41 20//20
f 68//68 5//5 41//41
f 68//68 30//30 5//5
f 68//68 20//20 30//30
f 69//69 3//3 42//42
f 69//69 42//42 20//20
f 69//69 20//20 41//41
f 115//115 116//116 114//114
f 70//70 72//72 118//118
f 71//71 31//31 88//88
f 71//71 58//58 31//31
f 73//73 2//2 15//15
f 73//73 15//15 116//116
f 127//127 116//116 15//15
f 45//45 43//43 74//74
f 45//45 38//38 43//43
f 74//74 44//44 21//21
f 75//75 44//44 74//74
f 75//75 74//74 43//43
f 75//75 43//43 49//49
f 75//75 49//49 4//4
f 75//75 4//4 44//44
f 76//76 10//10 21//21
f 76//76 21//21 44//44
f 77//77 76//76 44//44
f 77//77 30//30 10//10
f 77//77 10//10 76//76
f 101//101 26//26 46//46
f 78//78 47//47 22//22
f 78//78 101//101 46//46
f 78//78 46//46 47//47
f 100//100 48//48 6//6
f 100//100 38//38 18//18
f 100//100 18//18 48//48
f 79//79 26//26 25//25
f 79//79 48//48 12//12
f 79//79 12//12 26//26
f 79//79 25//25 80//80
f 79//79 80//80 6//6
f 79//79 6//6 48//48
f 80//80 25//25 49//49
f 101//101 49//49 25//25
f 101//101 78//78 81//81
f 81//81 49//49 101//101
f 82//82 51//51 27//27
f 117//117 22//22 8//8
f 53//53 28//28 113//113
f 82//82 53//53 96//96
f 24//24 113//113 56//56
f 84//84 29//29 102//102
f 84//84 92//92 29//29
f 84//84 14//14 92//92
f 77//77 57//57 32//32
f 86//86 118//118 72//72
f 86//86 58//58 71//71
f 86//86 11//11 58//58
f 87//87 58//58 11//11
f 87//87 11//11 114//114
f 87//87 114//114 97//97
f 125//125 5//5 32//32
f 125//125 31//31 5//5
f 89//89 88//88 106//106
f 89//89 103//103 88//88
f 30//30 32//32 5//5
f 90//90 111//111 34//34
f 91//91 16//16 7//7
f 91//91 7//7 111//111
f 91//91 111//111 90//90
f 91//91 90//90 34//34
f 110//110 13//13 34//34
f 108//108 60//60 127//127
f 92//92 35//35 61//61
f 92//92 17//17 35//35
f 92//92 61//61 2//2
f 2//2 29//29 92//92
f 14//14 37//37 17//17
f 14//14 17//17 92//92
f 93//93 64//64 65//65
f 94//94 65//65 64//64
f 95//95 64//64 34//34
f 95//95 34//34 13//13
f 95//95 94//94 64//64
f 95//95 40//40 94//94
f 40//40 120//120 67//67
f 40//40 107//107 120//120
f 96//96 67//67 51//51
f 96//96 51//51 82//82
f 54//54 67//67 113//113
f 97//97 3//3 69//69
f 98//98 41//41 5//5
f 98//98 5//5 58//58
f 98//98 58//58 87//87
f 99//99 70//70 2//2
f 99//99 72//72 70//70
f 99//99 2//2 73//73
f 99//99 73//73 116//116
f 99//99 116//116 72//72
f 45//45 74//74 21//21
f 4//4 78//78 22//22
f 4//4 81//81 78//78
f 4//4 49//49 81//81
f 100//100 6//6 38//38
f 101//101 25//25 50//50
f 82//82 8//8 28//28
f 82//82 28//28 53//53
f 126//126 82//82 27//27
f 29//29 88//88 103//103
f 29//29 70//70 118//118
f 29//29 2//2 70//70
f 103//103 102//102 29//29
f 30//30 77//77 32//32
f 104//104 86//86 71//71
f 104//104 118//118 86//86
f 104//104 88//88 118//118
f 104//104 71//71 88//88
f 125//125 88//88 31//31
f 105//105 106//106 32//32
f 105//105 32//32 57//57
f 105//105 89//89 106//106
f 9//9 89//89 59//59
f 119//119 83//83 59//59
f 127//127 15//15 108//108
f 108//108 109//109 60//60
f 109//109 91//91 34//34
f 109//109 16//16 91//91
f 109//109 108//108 16//16
f 110//110 34//34 111//111
f 121//121 13//13 110//110
f 121//121 110//110 111//111
f 109//109 34//34 60//60
f 111//111 14//14 62//62
f 111//111 62//62 121//121
f 62//62 14//14 84//84
f 62//62 84//84 85//85
f 112//112 94//94 40//40
f 112//112 40//40 67//67
f 112//112 67//67 54//54
f 112//112 54//54 65//65
f 112//112 65//65 94//94
f 107//107 40//40 95//95
f 107//107 95//95 13//13
f 98//98 87//87 97//97
f 98//98 97//97 69//69
f 98//98 69//69 41//41
f 114//114 11//11 86//86
f 72//72 116//116 115//115
f 115//115 86//86 72//72
f 115//115 114//114 86//86
f 77//77 44//44 4//4
f 122//122 4//4 22//22
f 51//51 67//67 120//120
f 82//82 126//126 117//117
f 123//123 102//102 9//9
f 123//123 85//85 102//102
f 85//85 84//84 102//102
f 85//85 121//121 62//62
f 118//118 88//88 29//29
f 103//103 89//89 9//9
f 103//103 9//9 102//102
f 57//57 77//77 4//4
f 124//124 89//89 105//105
f 125//125 106//106 88//88
f 119//119 59//59 89//89
f 126//126 119//119 122//122
f 120//120 107//107 59//59
f 120//120 59//59 83//83
f 120//120 83//83 27//27
f 120//120 27//27 51//51
f 14//14 111//111 37//37
f 121//121 107//107 13//13
f 121//121 33//33 107//107
f 33//33 59//59 107//107
f 122//122 22//22 117//117
f 122//122 57//57 4//4
f 126//126 122//122 117//117
f 82//82 117//117 8//8
f 123//123 9//9 59//59
f 123//123 59//59 33//33
f 85//85 123//123 33//33
f 85//85 33//33 121//121
f 124//124 105//105 57//57
f 57//57 119//119 89//89
f 57//57 89//89 124//124
f 57//57 122//122 119//119
f 125//125 32//32 106//106
f 126//126 83//83 119//119
f 27//27 83//83 126//126
# 250 faces, 0 coords texture

# End of File
