####
#
# OBJ File Generated by Meshlab
#
####
# Object band_aid_clear_strips_250_collision.obj
#
# Vertices: 127
# Faces: 250
#
####
vn 0.031348 0.691070 0.722107
v 0.006938 -0.029174 0.004380
vn 0.137352 0.055013 0.988993
v 0.003794 -0.004779 -0.000395
vn 0.961028 0.276070 0.014509
v -0.011882 -0.001279 0.039497
vn -0.374658 -0.148693 0.915162
v 0.014154 -0.000959 0.000873
vn -0.305008 -0.463224 0.832102
v 0.008763 0.030528 0.004141
vn 0.955074 -0.294265 0.035227
v -0.019439 0.022787 0.066232
vn 0.180971 0.983437 0.010112
v 0.004214 -0.035323 0.052909
vn 0.055230 0.187903 -0.980634
v 0.008177 -0.027007 0.107662
vn -0.963845 -0.266189 0.012055
v 0.026678 0.001281 0.062570
vn -0.204510 -0.452861 -0.867809
v 0.007480 0.029660 0.107991
vn 0.402052 0.881157 0.248831
v 0.001068 -0.033949 0.012929
vn 0.189875 0.980917 0.041825
v 0.003419 -0.034358 0.030632
vn 0.627545 0.191483 0.754666
v -0.005155 -0.009137 0.003787
vn 0.258484 0.081118 0.962604
v -0.001558 0.001289 0.000107
vn 0.599063 0.400231 0.693497
v -0.000946 -0.026014 0.005345
vn 0.883141 0.464778 0.063590
v -0.005853 -0.028438 0.021395
vn 0.920554 0.266195 0.285869
v -0.007496 -0.013724 0.010018
vn 0.646815 0.762286 -0.023466
v -0.002609 -0.030801 0.027579
vn 0.614619 0.788163 0.032295
v -0.000831 -0.033263 0.039582
vn 0.879147 0.473912 -0.050075
v -0.004942 -0.027593 0.029035
vn 0.920178 0.391083 0.018077
v -0.005188 -0.027657 0.037916
vn 0.941425 0.290439 0.171359
v -0.012737 -0.003375 0.016631
vn 0.964923 0.262486 -0.004962
v -0.007568 -0.017469 0.026952
vn 0.955475 0.291774 0.043988
v -0.011554 -0.006064 0.049583
vn 0.732101 0.681155 0.007502
v -0.002121 -0.032433 0.054576
vn 0.763337 0.645047 -0.035086
v -0.003581 -0.031163 0.080415
vn 0.935026 0.353519 0.027393
v -0.005954 -0.025853 0.066028
vn 0.959387 0.282091 -0.000918
v -0.013371 -0.002338 0.069688
vn 0.951939 0.306129 -0.009853
v -0.009063 -0.015882 0.084240
vn 0.103598 0.988018 -0.114405
v 0.006319 -0.036734 0.095161
vn 0.584722 0.598385 -0.547754
v -0.000277 -0.030412 0.103735
vn -0.043577 0.810262 -0.584445
v 0.007191 -0.034308 0.102498
vn 0.886632 0.362612 -0.287047
v -0.006666 -0.022712 0.098533
vn 0.912490 0.311863 -0.264771
v -0.013539 -0.001365 0.099255
vn 0.537024 0.206610 -0.817874
v -0.005833 -0.009400 0.104992
vn 0.740279 0.179628 0.647858
v -0.011277 0.008574 0.004245
vn 0.353521 -0.045354 0.934327
v -0.007003 0.017954 0.000932
vn 0.783043 -0.120020 0.610278
v -0.014929 0.023302 0.005417
vn 0.477186 0.109924 0.871900
v -0.007780 0.008441 0.001907
vn -0.022236 -0.150637 0.988339
v 0.001764 0.020219 0.000235
vn 0.039640 -0.482486 0.875006
v -0.000469 0.028621 0.003313
vn 0.316235 -0.608984 0.727416
v -0.010328 0.026560 0.003845
vn 0.943540 0.169507 0.284605
v -0.018075 0.015999 0.014229
vn 0.681959 -0.685727 0.254381
v -0.016234 0.030108 0.013118
vn 0.342340 -0.927102 0.152595
v -0.005718 0.034299 0.015521
vn 0.996776 0.019916 0.077723
v -0.019700 0.022373 0.021418
vn 0.837076 -0.546619 -0.022601
v -0.018700 0.027200 0.032801
vn 0.416283 -0.909203 0.007579
v -0.010864 0.032344 0.032576
vn 0.997937 -0.059789 -0.023388
v -0.019414 0.021789 0.041317
vn 0.589282 -0.807921 0.003227
v -0.013301 0.032249 0.050216
vn 0.972226 0.231624 0.033560
v -0.018809 0.016891 0.063378
vn 0.550828 -0.834579 -0.008094
v -0.013797 0.031773 0.071958
vn 0.955655 0.294483 0.001646
v -0.014414 0.002776 0.079941
vn 0.995187 0.097772 0.006610
v -0.020175 0.019221 0.079664
vn 0.746993 -0.664781 0.008244
v -0.017548 0.029864 0.089338
vn 0.142272 -0.989470 0.026600
v 0.002895 0.037648 0.053260
vn 0.136047 -0.990702 -0.001109
v 0.004259 0.038455 0.066266
vn 0.380276 -0.268756 -0.884963
v -0.013651 0.023612 0.109020
vn 0.446318 0.207023 -0.870598
v -0.011037 0.005311 0.106392
vn 0.932661 -0.029007 -0.359585
v -0.019134 0.019129 0.102940
vn 0.599866 -0.744538 -0.292956
v -0.015584 0.031160 0.098349
vn 0.175290 -0.847912 -0.500318
v -0.002958 0.033206 0.103692
vn 0.237112 -0.969149 -0.067285
v -0.000442 0.036481 0.091632
vn -0.284716 0.557627 0.779737
v 0.018259 -0.024750 0.003209
vn -0.572794 0.480253 0.664277
v 0.022880 -0.023278 0.004732
vn 0.015764 0.244393 0.969548
v 0.009248 -0.020456 0.000484
vn 0.178569 0.102452 0.978579
v 0.002974 -0.011280 0.000094
vn -0.404960 0.133305 0.904565
v 0.021214 -0.017346 0.002201
vn -0.267075 -0.035286 0.963029
v 0.016523 -0.011574 0.000264
vn -0.483607 -0.171523 0.858314
v 0.018331 -0.004092 0.002275
vn -0.690609 -0.087450 0.717922
v 0.023952 -0.011966 0.004346
vn -0.214939 0.935310 0.281062
v 0.010635 -0.033793 0.014944
vn -0.543662 0.808608 0.224912
v 0.022652 -0.028500 0.011413
vn -0.887488 0.246106 0.389612
v 0.029008 -0.020072 0.011257
vn -0.938690 0.338849 0.063578
v 0.029194 -0.024117 0.025714
vn -0.947404 -0.210817 0.240793
v 0.028663 -0.014987 0.011126
vn -0.955576 -0.288913 0.058347
v 0.026397 -0.005168 0.028519
vn -0.244401 0.968262 0.052307
v 0.008724 -0.034032 0.029561
vn -0.149016 0.987235 0.056221
v 0.009133 -0.035412 0.041216
vn -0.951731 0.304327 0.039904
v 0.030255 -0.023512 0.042851
vn -0.983018 -0.177512 0.046539
v 0.029441 -0.012379 0.041369
vn -0.522138 0.851216 0.052946
v 0.025101 -0.029391 0.045538
vn -0.255857 0.966714 0.000788
v 0.012925 -0.034536 0.059387
vn 0.034404 0.999205 0.020137
v 0.006235 -0.036136 0.077034
vn -0.512011 0.829242 -0.224059
v 0.026372 -0.030237 0.096680
vn -0.738913 0.673332 0.025141
v 0.028841 -0.028102 0.074427
vn -0.964544 -0.263921 0.000951
v 0.028837 -0.007526 0.070359
vn -0.445649 0.894542 0.034502
v 0.025697 -0.029938 0.082001
vn -0.998797 -0.044601 0.020397
v 0.031097 -0.018212 0.068010
vn -0.835608 0.530494 -0.142603
v 0.030617 -0.026062 0.092579
vn -0.954303 -0.290677 -0.069368
v 0.027811 -0.003970 0.087430
vn -0.557972 0.423974 -0.713382
v 0.024859 -0.025667 0.105461
vn -0.237852 -0.043405 -0.970331
v 0.023573 -0.016908 0.106267
vn -0.656153 -0.092377 -0.748952
v 0.028492 -0.017556 0.104185
vn -0.200185 -0.007472 -0.979730
v 0.009604 0.009771 0.107962
vn 0.064001 0.052371 -0.996575
v 0.002061 -0.004251 0.107240
vn -0.371259 -0.140231 -0.917879
v 0.022921 -0.008897 0.105270
vn -0.983286 -0.023200 -0.180583
v 0.031767 -0.017565 0.098568
vn -0.868763 -0.290363 -0.401174
v 0.025375 -0.002234 0.100166
vn -0.145984 -0.041454 0.988418
v 0.010578 -0.000954 -0.000009
vn -0.362915 -0.124082 0.923524
v 0.012065 0.008441 0.001409
vn -0.663674 -0.225743 0.713146
v 0.017485 0.005334 0.004165
vn -0.267558 -0.214421 0.939381
v 0.007821 0.020313 0.001266
vn -0.639252 -0.211580 0.739318
v 0.013586 0.018095 0.004017
vn -0.871032 -0.262007 0.415518
v 0.017285 0.015144 0.008363
vn -0.635661 -0.566728 0.524170
v 0.011815 0.031708 0.007362
vn -0.029350 -0.801289 0.597557
v 0.005681 0.035292 0.008691
vn -0.825078 -0.524177 0.210916
v 0.014966 0.032793 0.015047
vn -0.143582 -0.961625 0.233798
v 0.005122 0.039139 0.016271
vn 0.028700 -0.999528 -0.010922
v 0.006981 0.037913 0.029615
vn -0.952705 -0.285220 0.104896
v 0.021869 0.007947 0.018241
vn -0.766779 -0.641001 0.034189
v 0.014662 0.033093 0.027727
vn -0.953369 -0.298677 0.043362
v 0.024397 0.006996 0.051302
vn -0.958707 -0.278749 0.056387
v 0.020837 0.017235 0.042162
vn -0.320504 -0.946668 0.033115
v 0.009157 0.037335 0.046384
vn -0.838798 -0.543897 0.024373
v 0.017808 0.031500 0.052374
vn -0.928147 -0.306940 -0.210547
v 0.020660 0.017135 0.092738
vn -0.954183 -0.298880 -0.014311
v 0.021558 0.016288 0.073797
vn -0.948710 -0.296069 -0.110874
v 0.025329 0.003989 0.092203
vn -0.826164 -0.562271 -0.036106
v 0.016099 0.032320 0.082952
vn -0.430927 -0.902089 -0.023172
v 0.011378 0.037840 0.071637
vn -0.025869 -0.999270 -0.028094
v 0.007899 0.038056 0.081158
vn -0.329782 -0.895635 -0.298465
v 0.011902 0.037072 0.096983
vn -0.766033 -0.273128 -0.581888
v 0.021674 0.007082 0.102111
vn -0.880286 -0.342350 -0.328470
v 0.016627 0.030146 0.097846
vn -0.686257 -0.160231 -0.709491
v 0.012997 0.018150 0.105857
vn -0.610274 -0.453615 -0.649460
v 0.011611 0.031806 0.104405
# 127 vertices, 0 vertices normals

f 11//11 16//16 18//18
f 15//15 1//1 66//66
f 15//15 13//13 17//17
f 15//15 67//67 13//13
f 67//67 15//15 66//66
f 13//13 67//67 2//2
f 14//14 13//13 2//2
f 13//13 39//39 36//36
f 39//39 13//13 14//14
f 11//11 15//15 16//16
f 16//16 15//15 17//17
f 11//11 1//1 15//15
f 23//23 16//16 17//17
f 20//20 18//18 16//16
f 23//23 20//20 16//16
f 17//17 13//13 22//22
f 23//23 17//17 22//22
f 18//18 12//12 11//11
f 12//12 18//18 19//19
f 21//21 19//19 20//20
f 19//19 18//18 20//20
f 79//79 12//12 7//7
f 19//19 7//7 12//12
f 7//7 19//19 25//25
f 25//25 19//19 21//21
f 20//20 23//23 21//21
f 21//21 23//23 3//3
f 3//3 23//23 22//22
f 25//25 21//21 24//24
f 21//21 3//3 24//24
f 25//25 24//24 27//27
f 28//28 24//24 51//51
f 25//25 84//84 7//7
f 84//84 25//25 26//26
f 26//26 30//30 84//84
f 26//26 25//25 27//27
f 26//26 27//27 29//29
f 27//27 24//24 28//28
f 28//28 29//29 27//27
f 53//53 29//29 28//28
f 30//30 26//26 31//31
f 32//32 30//30 31//31
f 33//33 26//26 29//29
f 31//31 26//26 33//33
f 33//33 29//29 34//34
f 33//33 35//35 31//31
f 8//8 31//31 35//35
f 8//8 35//35 96//96
f 97//97 8//8 96//96
f 34//34 29//29 53//53
f 35//35 33//33 34//34
f 34//34 59//59 35//35
f 36//36 22//22 13//13
f 36//36 39//39 37//37
f 36//36 37//37 38//38
f 14//14 2//2 40//40
f 37//37 39//39 14//14
f 14//14 40//40 37//37
f 42//42 38//38 37//37
f 40//40 42//42 37//37
f 42//42 40//40 41//41
f 42//42 44//44 38//38
f 41//41 40//40 103//103
f 41//41 103//103 5//5
f 41//41 107//107 42//42
f 5//5 107//107 41//41
f 36//36 43//43 22//22
f 43//43 36//36 38//38
f 22//22 43//43 46//46
f 43//43 38//38 46//46
f 44//44 46//46 38//38
f 46//46 44//44 47//47
f 45//45 48//48 44//44
f 45//45 44//44 42//42
f 45//45 42//42 109//109
f 42//42 107//107 109//109
f 22//22 46//46 3//3
f 3//3 46//46 49//49
f 49//49 46//46 47//47
f 47//47 44//44 48//48
f 48//48 45//45 110//110
f 48//48 110//110 50//50
f 51//51 24//24 3//3
f 51//51 3//3 49//49
f 6//6 51//51 49//49
f 49//49 47//47 50//50
f 47//47 48//48 50//50
f 50//50 6//6 49//49
f 110//110 45//45 109//109
f 50//50 110//110 56//56
f 56//56 110//110 115//115
f 51//51 53//53 28//28
f 51//51 6//6 54//54
f 6//6 50//50 52//52
f 55//55 6//6 52//52
f 54//54 53//53 51//51
f 60//60 34//34 54//54
f 34//34 53//53 54//54
f 54//54 6//6 55//55
f 60//60 54//54 55//55
f 61//61 55//55 63//63
f 55//55 52//52 122//122
f 55//55 122//122 63//63
f 52//52 50//50 57//57
f 57//57 50//50 56//56
f 57//57 122//122 52//52
f 34//34 60//60 59//59
f 60//60 58//58 59//59
f 96//96 35//35 59//59
f 95//95 96//96 59//59
f 61//61 60//60 55//55
f 60//60 61//61 58//58
f 62//62 61//61 63//63
f 58//58 61//61 62//62
f 62//62 10//10 58//58
f 95//95 59//59 58//58
f 58//58 10//10 95//95
f 62//62 63//63 123//123
f 62//62 123//123 10//10
f 72//72 1//1 11//11
f 12//12 72//72 11//11
f 72//72 12//12 78//78
f 64//64 66//66 1//1
f 65//65 64//64 72//72
f 69//69 67//67 66//66
f 68//68 66//66 64//64
f 64//64 65//65 68//68
f 66//66 68//68 69//69
f 71//71 68//68 65//65
f 71//71 65//65 74//74
f 74//74 76//76 71//71
f 100//100 2//2 67//67
f 69//69 4//4 100//100
f 69//69 100//100 67//67
f 4//4 69//69 70//70
f 70//70 69//69 71//71
f 69//69 68//68 71//71
f 4//4 70//70 102//102
f 102//102 70//70 71//71
f 102//102 71//71 76//76
f 72//72 64//64 1//1
f 73//73 65//65 72//72
f 73//73 72//72 78//78
f 78//78 82//82 73//73
f 74//74 65//65 73//73
f 73//73 75//75 74//74
f 75//75 73//73 82//82
f 76//76 74//74 75//75
f 81//81 77//77 76//76
f 111//111 76//76 77//77
f 79//79 78//78 12//12
f 83//83 79//79 7//7
f 82//82 79//79 83//83
f 82//82 78//78 79//79
f 80//80 75//75 82//82
f 81//81 76//76 75//75
f 81//81 75//75 80//80
f 77//77 114//114 111//111
f 9//9 81//81 89//89
f 89//89 81//81 80//80
f 113//113 77//77 81//81
f 113//113 81//81 9//9
f 84//84 83//83 7//7
f 86//86 83//83 84//84
f 86//86 84//84 88//88
f 84//84 30//30 88//88
f 30//30 85//85 88//88
f 82//82 83//83 86//86
f 82//82 86//86 80//80
f 89//89 87//87 9//9
f 89//89 80//80 86//86
f 88//88 90//90 86//86
f 86//86 98//98 89//89
f 98//98 86//86 90//90
f 87//87 89//89 98//98
f 119//119 87//87 91//91
f 98//98 91//91 87//87
f 32//32 85//85 30//30
f 8//8 32//32 31//31
f 92//92 32//32 8//8
f 8//8 93//93 92//92
f 92//92 85//85 32//32
f 93//93 8//8 97//97
f 90//90 88//88 85//85
f 90//90 85//85 92//92
f 98//98 90//90 92//92
f 92//92 94//94 98//98
f 93//93 94//94 92//92
f 95//95 97//97 96//96
f 97//97 95//95 124//124
f 99//99 98//98 94//94
f 98//98 99//99 91//91
f 99//99 119//119 91//91
f 97//97 99//99 94//94
f 94//94 93//93 97//97
f 124//124 99//99 97//97
f 40//40 2//2 100//100
f 4//4 101//101 100//100
f 100//100 101//101 40//40
f 102//102 101//101 4//4
f 76//76 105//105 102//102
f 101//101 103//103 40//40
f 103//103 101//101 104//104
f 104//104 101//101 102//102
f 105//105 104//104 102//102
f 106//106 104//104 105//105
f 5//5 103//103 104//104
f 5//5 104//104 106//106
f 107//107 5//5 106//106
f 111//111 105//105 76//76
f 108//108 105//105 111//111
f 112//112 108//108 111//111
f 108//108 106//106 105//105
f 107//107 106//106 109//109
f 109//109 106//106 108//108
f 110//110 109//109 112//112
f 109//109 108//108 112//112
f 112//112 111//111 114//114
f 113//113 114//114 77//77
f 115//115 112//112 116//116
f 116//116 112//112 114//114
f 118//118 114//114 113//113
f 116//116 114//114 118//118
f 112//112 115//115 110//110
f 56//56 115//115 57//57
f 57//57 115//115 121//121
f 121//121 115//115 116//116
f 118//118 113//113 9//9
f 118//118 9//9 87//87
f 116//116 118//118 120//120
f 120//120 121//121 116//116
f 120//120 118//118 117//117
f 117//117 118//118 119//119
f 118//118 87//87 119//119
f 123//123 120//120 125//125
f 121//121 122//122 57//57
f 120//120 122//122 121//121
f 63//63 122//122 123//123
f 123//123 122//122 120//120
f 117//117 119//119 124//124
f 126//126 124//124 95//95
f 126//126 95//95 10//10
f 99//99 124//124 119//119
f 117//117 125//125 120//120
f 125//125 127//127 123//123
f 124//124 126//126 117//117
f 126//126 125//125 117//117
f 126//126 127//127 125//125
f 126//126 10//10 127//127
f 123//123 127//127 10//10
# 250 faces, 0 coords texture

# End of File
