####
#
# OBJ File Generated by Meshlab
#
####
# Object band_aid_clear_strips_250_collision.obj
#
# Vertices: 127
# Faces: 250
#
####
vn 0.936029 -0.255018 -0.242517
v 0.035225 -0.019569 0.008560
vn -0.567211 -0.821391 -0.059910
v 0.000000 -0.037182 0.013462
vn 0.746984 0.661063 -0.070784
v 0.013699 0.041458 0.017618
vn -0.169838 -0.077233 -0.982441
v -0.005246 -0.013699 0.005871
vn 0.464790 -0.806149 0.366190
v 0.027055 -0.027760 0.102986
vn 0.321161 0.282490 -0.903911
v 0.015656 0.034293 0.005871
vn -0.955368 -0.291070 -0.050501
v -0.014451 -0.001957 0.011742
vn 0.016729 -0.479626 -0.877314
v 0.006902 -0.035670 0.005871
vn -0.113654 0.920688 -0.373386
v 0.007828 0.044115 0.011742
vn -0.658909 0.514741 -0.548526
v -0.016954 0.027579 0.008806
vn -0.614115 -0.286632 -0.735326
v -0.006249 -0.023483 0.007828
vn 0.308974 -0.171141 -0.935546
v 0.028810 -0.027616 0.005871
vn 0.281233 -0.959460 0.018553
v 0.010395 -0.035225 0.091976
vn -0.708633 0.705555 0.005632
v -0.017612 0.029646 0.095890
vn 0.192735 0.029323 0.980812
v 0.024217 -0.013659 0.107331
vn 0.774326 0.506475 -0.379346
v 0.017607 0.033285 0.006864
vn 0.900534 0.434525 0.015067
v 0.017441 0.032367 0.093846
vn -0.407871 -0.800902 -0.438403
v 0.002041 -0.037182 0.007828
vn -0.961610 -0.222822 -0.160179
v -0.019176 0.015540 0.014120
vn 0.196808 0.022368 -0.980187
v 0.029664 -0.015656 0.005871
vn 0.809980 -0.586124 -0.019769
v 0.032289 -0.027397 0.015656
vn -0.468138 -0.883633 -0.006230
v 0.001957 -0.034823 0.093933
vn -0.469959 0.838831 -0.274775
v -0.011742 0.035409 0.011742
vn -0.941868 -0.315352 0.115918
v -0.017110 0.013730 0.097895
vn -0.925898 -0.377555 -0.012825
v -0.003652 -0.031311 0.013699
vn 0.950673 0.309785 0.015926
v 0.021778 0.021526 0.056751
vn -0.082411 0.989823 0.116013
v 0.005871 0.039282 0.095890
vn 0.899143 0.158329 -0.408011
v 0.035225 -0.017612 0.008109
vn -0.851132 -0.270616 -0.449824
v -0.009785 -0.014322 0.007828
vn -0.026584 -0.999398 -0.022268
v 0.001957 -0.038141 0.013699
vn -0.860278 -0.168816 -0.481064
v -0.015656 0.008954 0.007828
vn 0.542627 -0.785040 -0.298779
v 0.029354 -0.029354 0.006993
vn 0.132717 -0.288462 0.948249
v 0.023937 -0.024637 0.107387
vn -0.663695 0.747994 0.003663
v -0.017547 0.031311 0.017612
vn -0.926404 -0.367675 -0.081190
v -0.006600 -0.023483 0.009785
vn 0.012084 0.999903 0.006952
v 0.009785 0.045010 0.017225
vn 0.818867 0.572483 0.041474
v 0.015656 0.035975 0.088062
vn 0.953548 0.292123 0.073558
v 0.032121 -0.012889 0.095403
vn 0.999125 0.020946 0.036206
v 0.033657 -0.019569 0.091976
vn 0.462343 0.766252 -0.446203
v 0.009917 0.043718 0.011822
vn -0.074921 0.598867 -0.797336
v 0.004112 0.039188 0.005870
vn -0.017778 0.924015 0.381943
v 0.007342 0.038039 0.103698
vn -0.972363 -0.132489 -0.192241
v -0.020041 0.019621 0.013892
vn -0.809708 0.565616 0.156369
v -0.017322 0.030047 0.099867
vn -0.369776 0.059207 -0.927233
v -0.016217 0.024681 0.005871
vn -0.921332 -0.228237 -0.314729
v -0.014513 0.000000 0.009785
vn 0.832687 -0.536051 -0.138862
v 0.032034 -0.027397 0.013699
vn 0.935950 -0.316817 0.153703
v 0.032968 -0.023483 0.097847
vn -0.551293 -0.832337 -0.057370
v 0.000000 -0.033516 0.095890
vn 0.070461 -0.993316 0.091428
v 0.007828 -0.035619 0.095890
vn -0.259807 -0.963368 0.066506
v 0.003415 -0.035360 0.093933
vn -0.589404 0.807663 0.016815
v -0.016383 0.031311 0.068493
vn -0.464369 0.503151 -0.728835
v -0.014020 0.027727 0.005871
vn -0.897034 -0.412569 0.158485
v -0.003925 -0.027553 0.098345
vn -0.835428 -0.453017 -0.311183
v -0.003183 -0.031311 0.009785
vn 0.551173 -0.137783 0.822936
v 0.031310 -0.023820 0.105741
vn 0.948527 0.316169 0.018283
v 0.019448 0.027978 0.068903
vn -0.238893 0.960820 0.140552
v 0.003845 0.038662 0.098746
vn 0.909189 0.416035 -0.017021
v 0.017662 0.035708 0.017694
vn 0.698653 0.711831 0.071977
v 0.013788 0.037571 0.095775
vn 0.984868 0.169221 0.037415
v 0.033550 -0.017612 0.090019
vn 0.996816 -0.064228 0.047247
v 0.033580 -0.021526 0.091976
vn -0.994453 -0.105184 -0.000127
v -0.020534 0.023483 0.017612
vn -0.997781 -0.065361 -0.012653
v -0.020700 0.025440 0.015656
vn -0.962417 0.263590 0.065365
v -0.019212 0.025440 0.093933
vn -0.478104 -0.122507 -0.869717
v -0.014169 0.009777 0.005871
vn 0.264088 -0.955445 -0.131839
v 0.011634 -0.035225 0.011123
vn 0.578011 -0.816029 -0.000642
v 0.029354 -0.028350 0.091976
vn -0.106514 -0.986768 0.122247
v 0.005871 -0.035791 0.093933
vn 0.247067 -0.968848 0.017061
v 0.009785 -0.035393 0.091976
vn -0.500051 0.855700 0.133142
v -0.013148 0.032786 0.098644
vn -0.887317 -0.204473 0.413351
v -0.018133 0.019121 0.101934
vn -0.920966 -0.280769 0.270166
v -0.004112 -0.023935 0.101761
vn -0.309376 0.948684 0.065466
v 0.000000 0.037491 0.097847
vn 0.450337 0.156856 0.878973
v 0.013699 0.029354 0.107112
vn 0.974507 0.137025 0.177652
v 0.033166 -0.018396 0.099324
vn 0.658118 0.571763 0.489866
v 0.013933 0.034683 0.105402
vn 0.865915 0.491862 0.090908
v 0.016831 0.033687 0.096246
vn -0.887238 0.460560 0.026335
v -0.017816 0.029354 0.095890
vn -0.766494 0.640626 -0.045666
v -0.019579 0.029365 0.015656
vn -0.988912 -0.146442 0.024661
v -0.019514 0.021540 0.094124
vn -0.993201 0.081031 0.083577
v -0.019601 0.023644 0.093933
vn 0.405090 -0.908951 0.098544
v 0.027717 -0.029350 0.095742
vn 0.312603 -0.942432 0.118748
v 0.016183 -0.033329 0.097163
vn 0.687024 -0.726629 0.003095
v 0.031044 -0.027183 0.090998
vn 0.972763 -0.227078 0.046566
v 0.033308 -0.023484 0.093952
vn -0.841469 -0.524741 -0.128750
v -0.001957 -0.035225 0.013457
vn 0.194740 -0.978212 0.071952
v 0.009785 -0.035316 0.095890
vn -0.076314 -0.683268 0.726169
v 0.003838 -0.033483 0.105435
vn -0.662983 0.716138 -0.218176
v -0.015895 0.032656 0.013219
vn -0.351068 -0.112970 0.929510
v -0.008292 0.002370 0.107755
vn -0.543899 -0.379819 0.748272
v 0.000908 -0.030550 0.106515
vn -0.819735 -0.316931 0.477063
v -0.002692 -0.024462 0.104886
vn -0.787589 -0.212291 0.578478
v -0.012289 0.005356 0.105730
vn -0.794301 0.168842 0.583591
v -0.016830 0.027488 0.105622
vn -0.949578 -0.303020 0.080496
v -0.003994 -0.027399 0.097852
vn 0.059268 0.990991 0.120097
v 0.007828 0.039332 0.095890
vn -0.363050 0.635440 0.681477
v -0.013168 0.029470 0.107272
vn -0.935831 0.287102 -0.204434
v -0.020757 0.027427 0.014169
vn 0.292446 -0.956029 -0.022013
v 0.013280 -0.035225 0.015656
vn 0.838795 -0.544151 0.017974
v 0.032406 -0.025440 0.090019
vn 0.918729 -0.262494 0.295016
v 0.031672 -0.021741 0.104550
vn 0.123594 -0.954431 0.271636
v 0.008574 -0.034441 0.103002
vn -0.606006 0.784576 0.131139
v -0.015477 0.031274 0.096869
vn -0.080317 -0.042232 0.995874
v -0.003648 -0.003156 0.108377
vn 0.207070 0.052273 0.976929
v 0.013944 0.019667 0.107847
vn -0.629095 -0.172774 0.757885
v -0.010763 0.003425 0.106660
vn 0.431564 -0.822053 0.371459
v 0.028729 -0.024607 0.105728
vn 0.234026 -0.673735 0.700937
v 0.015531 -0.030380 0.105685
vn 0.106757 0.257689 0.960312
v 0.009123 0.033587 0.108060
vn -0.266942 0.022927 0.963440
v -0.011981 0.023509 0.108436
vn 0.341664 0.923820 0.172691
v 0.011720 0.038665 0.096667
vn 0.939978 0.296687 0.168575
v 0.032275 -0.014677 0.097847
vn 0.855790 0.255725 0.449699
v 0.029071 -0.009471 0.102755
vn 0.909308 0.360259 0.208258
v 0.016554 0.032820 0.100004
vn -0.981658 -0.098052 0.163506
v -0.018903 0.019740 0.100039
vn 0.898073 -0.437540 0.044992
v 0.033268 -0.023583 0.093933
vn 0.269320 -0.959682 0.080482
v 0.010860 -0.034962 0.096623
vn -0.018052 -0.225281 0.974127
v 0.006503 -0.027842 0.107698
vn -0.634476 -0.109175 0.765193
v -0.015639 0.019561 0.106561
vn -0.348037 0.901081 0.258695
v -0.008461 0.034620 0.098824
vn 0.744913 0.228058 0.626972
v 0.017612 0.022012 0.105792
vn 0.870465 0.290115 0.397649
v 0.016318 0.030150 0.103979
vn -0.438578 -0.887849 0.139185
v 0.000700 -0.034334 0.096895
vn 0.063066 0.006351 0.997989
v 0.012475 0.011619 0.108143
vn 0.323427 0.081899 0.942702
v 0.024584 -0.007705 0.106832
vn 0.744713 -0.650486 0.149236
v 0.030916 -0.027359 0.096704
# 127 vertices, 0 vertices normals

f 11//11 4//4 8//8
f 66//66 4//4 11//11
f 18//18 11//11 8//8
f 23//23 9//9 41//41
f 24//24 7//7 96//96
f 28//28 16//16 59//59
f 28//28 59//59 26//26
f 28//28 20//20 6//6
f 28//28 6//6 16//16
f 28//28 1//1 12//12
f 28//28 12//12 20//20
f 40//40 16//16 6//6
f 40//40 41//41 9//9
f 29//29 66//66 11//11
f 30//30 2//2 18//18
f 30//30 22//22 2//2
f 81//81 19//19 7//7
f 31//31 66//66 29//29
f 32//32 12//12 1//1
f 86//86 21//21 1//1
f 116//116 7//7 24//24
f 116//116 81//81 7//7
f 35//35 25//25 96//96
f 35//35 96//96 7//7
f 35//35 7//7 29//29
f 35//35 29//29 11//11
f 87//87 25//25 35//35
f 87//87 18//18 2//2
f 36//36 40//40 9//9
f 36//36 9//9 23//23
f 16//16 3//3 59//59
f 37//37 59//59 3//3
f 38//38 28//28 26//26
f 39//39 1//1 28//28
f 40//40 3//3 16//16
f 40//40 36//36 3//3
f 41//41 40//40 6//6
f 43//43 19//19 81//81
f 45//45 99//99 10//10
f 46//46 31//31 29//29
f 46//46 29//29 7//7
f 47//47 32//32 1//1
f 47//47 1//1 21//21
f 47//47 21//21 32//32
f 49//49 2//2 22//22
f 49//49 87//87 2//2
f 52//52 34//34 14//14
f 10//10 23//23 53//53
f 10//10 90//90 23//23
f 24//24 96//96 72//72
f 73//73 93//93 94//94
f 73//73 94//94 72//72
f 54//54 96//96 25//25
f 54//54 25//25 87//87
f 55//55 11//11 18//18
f 55//55 18//18 87//87
f 55//55 87//87 35//35
f 55//55 35//35 11//11
f 57//57 26//26 59//59
f 57//57 38//38 26//26
f 58//58 27//27 36//36
f 59//59 37//37 17//17
f 60//60 3//3 36//36
f 17//17 38//38 57//57
f 61//61 39//39 28//28
f 61//61 28//28 38//38
f 62//62 86//86 1//1
f 62//62 1//1 39//39
f 43//43 45//45 31//31
f 43//43 99//99 45//45
f 64//64 99//99 43//43
f 64//64 43//43 63//63
f 64//64 63//63 81//81
f 82//82 99//99 64//64
f 116//116 72//72 95//95
f 19//19 46//46 7//7
f 19//19 31//31 46//46
f 67//67 30//30 18//18
f 67//67 18//18 8//8
f 67//67 8//8 32//32
f 68//68 127//127 32//32
f 68//68 32//32 21//21
f 76//76 86//86 62//62
f 102//102 48//48 76//76
f 87//87 49//49 124//124
f 69//69 50//50 103//103
f 69//69 30//30 50//50
f 69//69 51//51 30//30
f 70//70 100//100 13//13
f 70//70 30//30 100//100
f 51//51 22//22 30//30
f 71//71 23//23 52//52
f 45//45 53//53 23//23
f 45//45 23//23 41//41
f 91//91 107//107 92//92
f 124//124 49//49 22//22
f 124//124 22//22 51//51
f 72//72 107//107 120//120
f 24//24 72//72 116//116
f 74//74 58//58 36//36
f 121//121 36//36 71//71
f 71//71 36//36 23//23
f 95//95 111//111 98//98
f 17//17 57//57 59//59
f 3//3 60//60 37//37
f 60//60 17//17 37//37
f 60//60 78//78 17//17
f 38//38 17//17 78//78
f 76//76 39//39 61//61
f 76//76 62//62 39//39
f 76//76 61//61 38//38
f 77//77 115//115 78//78
f 77//77 78//78 60//60
f 81//81 63//63 43//43
f 79//79 80//80 99//99
f 79//79 14//14 80//80
f 79//79 99//99 65//65
f 79//79 65//65 44//44
f 80//80 14//14 34//34
f 81//81 82//82 64//64
f 81//81 116//116 82//82
f 82//82 44//44 65//65
f 82//82 65//65 99//99
f 95//95 72//72 120//120
f 45//45 66//66 31//31
f 45//45 4//4 66//66
f 45//45 10//10 53//53
f 45//45 8//8 4//4
f 45//45 12//12 8//8
f 45//45 20//20 12//12
f 45//45 6//6 20//20
f 45//45 41//41 6//6
f 43//43 31//31 19//19
f 67//67 32//32 100//100
f 67//67 100//100 30//30
f 83//83 100//100 32//32
f 83//83 32//32 127//127
f 84//84 13//13 100//100
f 12//12 32//32 8//8
f 86//86 76//76 48//48
f 124//124 69//69 103//103
f 124//124 51//51 69//69
f 88//88 50//50 30//30
f 88//88 30//30 70//70
f 88//88 103//103 50//50
f 90//90 52//52 23//23
f 90//90 34//34 52//52
f 90//90 10//10 99//99
f 90//90 80//80 34//34
f 104//104 71//71 52//52
f 104//104 52//52 14//14
f 105//105 91//91 92//92
f 91//91 120//120 107//107
f 94//94 107//107 72//72
f 96//96 73//73 72//72
f 124//124 54//54 87//87
f 54//54 124//124 92//92
f 54//54 92//92 93//93
f 97//97 36//36 27//27
f 121//121 74//74 36//36
f 121//121 58//58 74//74
f 112//112 60//60 36//36
f 78//78 115//115 38//38
f 76//76 115//115 123//123
f 77//77 42//42 110//110
f 77//77 112//112 42//42
f 44//44 14//14 79//79
f 99//99 80//80 90//90
f 100//100 83//83 84//84
f 85//85 68//68 21//21
f 85//85 127//127 68//68
f 101//101 85//85 21//21
f 127//127 48//48 102//102
f 102//102 108//108 5//5
f 5//5 109//109 103//103
f 5//5 108//108 109//109
f 118//118 88//88 70//70
f 118//118 70//70 13//13
f 104//104 14//14 44//44
f 33//33 15//15 125//125
f 120//120 91//91 111//111
f 119//119 105//105 92//92
f 119//119 92//92 89//89
f 93//93 92//92 107//107
f 124//124 89//89 92//92
f 120//120 111//111 95//95
f 44//44 95//95 98//98
f 54//54 73//73 96//96
f 54//54 93//93 73//73
f 102//102 56//56 108//108
f 108//108 33//33 109//109
f 56//56 33//33 108//108
f 42//42 27//27 58//58
f 42//42 97//97 27//27
f 121//121 104//104 44//44
f 126//126 56//56 75//75
f 60//60 112//112 77//77
f 112//112 36//36 97//97
f 42//42 112//112 97//97
f 113//113 115//115 76//76
f 115//115 77//77 123//123
f 110//110 75//75 77//77
f 122//122 77//77 75//75
f 106//106 75//75 110//110
f 116//116 44//44 82//82
f 116//116 95//95 44//44
f 117//117 101//101 21//21
f 117//117 21//21 86//86
f 117//117 127//127 101//101
f 117//117 86//86 48//48
f 103//103 84//84 5//5
f 33//33 89//89 109//109
f 118//118 13//13 84//84
f 89//89 103//103 109//109
f 94//94 93//93 107//107
f 15//15 56//56 126//126
f 33//33 56//56 15//15
f 121//121 44//44 98//98
f 121//121 71//71 104//104
f 111//111 110//110 98//98
f 38//38 115//115 113//113
f 113//113 76//76 38//38
f 114//114 76//76 123//123
f 114//114 102//102 76//76
f 122//122 75//75 56//56
f 102//102 122//122 56//56
f 123//123 77//77 122//122
f 83//83 5//5 84//84
f 127//127 85//85 101//101
f 127//127 117//117 48//48
f 83//83 127//127 5//5
f 103//103 118//118 84//84
f 118//118 103//103 88//88
f 127//127 102//102 5//5
f 33//33 119//119 89//89
f 103//103 89//89 124//124
f 33//33 105//105 119//119
f 33//33 125//125 105//105
f 110//110 105//105 125//125
f 106//106 110//110 125//125
f 106//106 125//125 15//15
f 121//121 42//42 58//58
f 91//91 105//105 111//111
f 105//105 110//110 111//111
f 126//126 75//75 106//106
f 98//98 110//110 42//42
f 121//121 98//98 42//42
f 114//114 123//123 122//122
f 114//114 122//122 102//102
f 106//106 15//15 126//126
# 250 faces, 0 coords texture

# End of File
