####
#
# OBJ File Generated by Meshlab
#
####
# Object pepto_bismol_250_collision.obj
#
# Vertices: 127
# Faces: 250
#
####
vn 0.041780 -0.321035 -0.946145
v 0.001041 -0.021757 0.001445
vn -0.974590 -0.223985 -0.002233
v -0.026514 -0.003209 0.064838
vn -0.431050 -0.902323 -0.002895
v -0.009754 -0.032946 0.077191
vn 0.969740 -0.239682 -0.046442
v 0.029790 -0.002057 0.033330
vn 0.938017 -0.346584 0.001808
v 0.029347 -0.005763 0.063346
vn -0.116167 0.495307 -0.860916
v -0.005354 0.019307 0.003452
vn 0.079751 0.995216 -0.056435
v 0.000600 0.024598 0.017783
vn 0.372040 -0.907509 0.194971
v 0.006020 -0.034028 0.101864
vn -0.003845 -0.934934 0.354801
v 0.003915 -0.026252 0.151310
vn -0.930104 0.193688 0.312076
v -0.016588 0.000228 0.152232
vn 0.992187 -0.116872 -0.043661
v 0.023825 -0.010191 0.133546
vn 0.956055 0.250284 0.152701
v 0.023765 -0.001471 0.147345
vn 0.744003 0.144193 0.652433
v 0.020188 -0.002661 0.155660
vn -0.475133 -0.797362 -0.372105
v -0.010783 -0.029985 0.010603
vn 0.078200 -0.750877 -0.655797
v 0.000346 -0.028892 0.006061
vn -0.374523 -0.405579 -0.833809
v -0.010617 -0.022453 0.003933
vn -0.765581 -0.496883 -0.408649
v -0.017353 -0.021689 0.008714
vn -0.796141 -0.310037 -0.519651
v -0.021108 -0.014202 0.008070
vn -0.529948 -0.083210 -0.843938
v -0.021535 0.000164 0.003519
vn -0.154516 -0.100477 -0.982868
v -0.008882 -0.011753 0.001187
vn -0.037292 -0.982094 -0.184664
v -0.002149 -0.033065 0.015132
vn -0.861642 -0.505681 -0.043127
v -0.020897 -0.020323 0.018013
vn -0.449426 -0.870569 -0.200317
v -0.009627 -0.032057 0.069140
vn 0.057828 -0.997860 -0.030513
v -0.000663 -0.033703 0.037227
vn 0.139531 -0.983723 -0.113227
v 0.000465 -0.034341 0.072526
vn -0.555593 -0.831369 -0.011934
v -0.010944 -0.030621 0.036892
vn -0.887394 -0.460983 0.005232
v -0.020920 -0.017329 0.034903
vn -0.007926 -0.898550 -0.438800
v -0.003199 -0.034534 0.070523
vn -0.925503 -0.365698 0.098535
v -0.024852 -0.008455 0.101567
vn -0.730118 -0.683291 -0.006454
v -0.014009 -0.030058 0.057577
vn -0.826909 -0.562251 -0.009781
v -0.018575 -0.022973 0.071744
vn -0.439613 -0.793984 0.419916
v -0.011796 -0.029025 0.104711
vn -0.213220 -0.947486 0.238342
v -0.002698 -0.034826 0.101814
vn -0.721446 -0.685877 0.095338
v -0.014306 -0.029098 0.096980
vn -0.772687 -0.514875 0.371292
v -0.017664 -0.020756 0.108929
vn -0.408691 -0.867682 0.283020
v -0.005022 -0.023240 0.118633
vn -0.163043 -0.986610 -0.004225
v 0.004076 -0.024684 0.121785
vn -0.899636 -0.348455 0.263122
v -0.016052 -0.012720 0.119359
vn -0.651252 -0.758586 -0.020434
v -0.011933 -0.018870 0.125418
vn -0.982804 -0.184610 0.003857
v -0.017775 -0.008601 0.136574
vn -0.266950 -0.963680 -0.007716
v -0.001658 -0.026870 0.140074
vn -0.769133 -0.593085 0.238087
v -0.014083 -0.016527 0.152808
vn -0.475441 -0.407875 0.779483
v -0.008122 -0.017466 0.160074
vn -0.940934 0.033242 -0.336953
v -0.027952 0.006882 0.012651
vn -0.805661 0.581641 -0.112270
v -0.024976 0.019015 0.017454
vn -0.101000 0.100720 -0.989775
v -0.008385 0.006162 0.000559
vn -0.538465 0.404299 -0.739323
v -0.021052 0.013797 0.004825
vn -0.029978 0.913076 -0.406687
v -0.007744 0.023150 0.007688
vn -0.954805 -0.277756 -0.105827
v -0.027185 -0.003433 0.016821
vn -0.999584 0.016688 0.023531
v -0.028285 0.004702 0.020245
vn -0.976050 -0.215360 0.030770
v -0.026267 -0.001726 0.032505
vn -0.986923 0.160570 0.014151
v -0.027600 0.008577 0.029970
vn -0.396332 0.820572 -0.411804
v -0.017256 0.022365 0.012771
vn -0.259511 0.965489 -0.022033
v -0.012669 0.024471 0.026839
vn -0.971088 -0.238647 0.005950
v -0.026963 -0.003505 0.052279
vn -0.965534 0.260259 -0.003180
v -0.028024 0.010950 0.040492
vn -0.986795 0.159444 0.028502
v -0.026837 0.009064 0.074574
vn -0.525540 0.850184 0.031534
v -0.020277 0.021353 0.048307
vn -0.748258 0.663283 0.012857
v -0.022986 0.019282 0.032078
vn -0.051336 0.998263 0.028917
v -0.008148 0.024687 0.049965
vn -0.957889 -0.112975 0.263979
v -0.026399 -0.000556 0.104280
vn -0.736917 0.674131 0.050005
v -0.022190 0.018264 0.075810
vn -0.155914 0.987300 0.030489
v -0.009510 0.023786 0.074010
vn -0.950828 0.289130 0.111042
v -0.027034 0.007644 0.092608
vn -0.898827 0.134165 0.417266
v -0.024495 0.003570 0.107571
vn -0.715984 0.532125 0.451895
v -0.021615 0.011480 0.108689
vn -0.606621 0.774293 0.180225
v -0.018736 0.019228 0.099976
vn -0.177759 0.922330 0.343088
v -0.007642 0.023101 0.103537
vn -0.904537 0.345203 0.250294
v -0.015414 0.001472 0.122727
vn -0.122294 0.938259 0.323596
v -0.001031 0.014821 0.120042
vn -0.528437 0.714708 0.458200
v -0.011497 0.010374 0.119384
vn -0.445968 0.884194 0.138971
v -0.007390 0.011624 0.124610
vn -0.589451 0.801878 0.097671
v -0.009179 0.012775 0.142887
vn 0.119787 0.992594 0.020212
v 0.005403 0.016695 0.144372
vn -0.046125 0.872506 0.486422
v 0.003359 0.014579 0.153663
vn -0.415942 0.402217 0.815607
v -0.009365 0.005652 0.159734
vn 0.502898 -0.521134 -0.689575
v 0.011797 -0.020955 0.004510
vn 0.203888 -0.062596 -0.976991
v 0.013444 -0.001591 0.000555
vn 0.801623 -0.253461 -0.541441
v 0.027791 -0.003879 0.008664
vn 0.481909 -0.845068 -0.231566
v 0.007231 -0.029927 0.012886
vn 0.777919 -0.608827 -0.155472
v 0.021420 -0.016962 0.016062
vn 0.692003 -0.720386 -0.046643
v 0.013069 -0.026558 0.038275
vn 0.475414 -0.878269 -0.051237
v 0.007348 -0.031665 0.058916
vn 0.961817 -0.270454 -0.041995
v 0.031183 -0.003596 0.048807
vn 0.491069 -0.869903 -0.046040
v 0.008604 -0.032676 0.084334
vn 0.836872 -0.546757 -0.026512
v 0.024118 -0.015538 0.062078
vn 0.745221 -0.664788 -0.051979
v 0.018466 -0.023379 0.078389
vn 0.936980 -0.347456 -0.036639
v 0.030630 -0.004661 0.075277
vn 0.697983 -0.714818 0.043073
v 0.018001 -0.026048 0.096854
vn 0.924256 -0.372083 0.085474
v 0.030073 -0.009518 0.097412
vn 0.824862 -0.554702 0.109122
v 0.018595 -0.016268 0.118132
vn 0.884774 -0.217153 0.412335
v 0.026467 -0.004825 0.110765
vn 0.730861 -0.588963 0.344914
v 0.021986 -0.018237 0.110814
vn 0.167913 -0.936424 0.308084
v 0.007767 -0.025066 0.117031
vn 0.947454 0.082305 0.309122
v 0.022209 -0.002487 0.119610
vn 0.768588 -0.639739 0.002595
v 0.018480 -0.020852 0.136605
vn 0.343026 -0.939098 -0.020672
v 0.011873 -0.025334 0.135809
vn 0.167252 -0.388616 0.906093
v 0.006650 -0.018196 0.160263
vn 0.592192 -0.691152 0.414267
v 0.016327 -0.020071 0.151564
vn 0.885590 -0.297864 0.356381
v 0.022352 -0.011198 0.151180
vn 0.536284 -0.233784 0.811014
v 0.014409 -0.011028 0.159300
vn 0.095602 0.205590 -0.973957
v 0.010774 0.008629 0.001475
vn 0.283413 0.632640 -0.720724
v 0.014435 0.016166 0.004268
vn 0.447846 0.201249 -0.871168
v 0.022502 0.008884 0.003558
vn 0.383239 0.900148 -0.207028
v 0.015573 0.021676 0.014274
vn 0.835048 0.467117 -0.290681
v 0.028157 0.010798 0.010428
vn 0.631086 0.775682 -0.006963
v 0.022635 0.016594 0.034015
vn 0.271774 0.962081 0.023214
v 0.014185 0.021117 0.054184
vn 0.938526 0.343431 -0.034984
v 0.028777 0.008856 0.039921
vn 0.720805 0.693081 -0.008900
v 0.026130 0.014439 0.058968
vn 0.402478 0.915253 0.017974
v 0.018418 0.018944 0.073365
vn 0.507990 0.856904 0.087530
v 0.023221 0.016038 0.096423
vn 0.999702 0.015915 -0.018508
v 0.031117 0.002088 0.059229
vn 0.999795 0.014008 -0.014586
v 0.031485 0.002517 0.083688
vn 0.937351 0.348378 0.002239
v 0.030467 0.007514 0.090272
vn 0.169407 0.985399 0.017027
v 0.006242 0.022318 0.079601
vn 0.795001 0.548799 0.258442
v 0.027829 0.011731 0.100716
vn 0.258638 0.942062 0.213603
v 0.007255 0.021575 0.107561
vn 0.513783 0.776741 0.364282
v 0.019379 0.016120 0.106295
vn 0.970635 0.087613 0.224034
v 0.031835 0.001797 0.099944
vn 0.282089 0.915761 0.286019
v 0.009058 0.013512 0.120235
vn 0.052279 0.996496 0.065286
v 0.004641 0.014109 0.121930
vn 0.811846 0.563646 0.152346
v 0.018556 0.006239 0.120623
vn 0.689307 0.724440 -0.006509
v 0.018955 0.009287 0.138067
vn 0.416245 0.906455 -0.071267
v 0.010070 0.013147 0.126017
vn 0.592599 0.686255 0.421759
v 0.014161 0.010926 0.153591
vn 0.244169 0.293133 0.924367
v 0.008073 0.004783 0.161977
# 127 vertices, 0 vertices normals

f 21//21 14//14 15//15
f 80//80 21//21 15//15
f 18//18 16//16 17//17
f 1//1 16//16 20//20
f 16//16 14//14 17//17
f 16//16 15//15 14//14
f 1//1 15//15 16//16
f 20//20 16//16 19//19
f 19//19 46//46 20//20
f 19//19 16//16 18//18
f 20//20 78//78 1//1
f 26//26 14//14 21//21
f 51//51 27//27 55//55
f 22//22 17//17 14//14
f 22//22 14//14 26//26
f 22//22 49//49 17//17
f 49//49 18//18 17//17
f 26//26 27//27 22//22
f 51//51 22//22 27//27
f 26//26 21//21 24//24
f 30//30 26//26 24//24
f 23//23 30//30 24//24
f 25//25 23//23 24//24
f 30//30 27//27 26//26
f 30//30 23//23 31//31
f 55//55 27//27 30//30
f 28//28 23//23 25//25
f 3//3 23//23 28//28
f 31//31 23//23 3//3
f 3//3 28//28 25//25
f 29//29 2//2 31//31
f 2//2 55//55 30//30
f 30//30 31//31 2//2
f 34//34 3//3 33//33
f 32//32 34//34 33//33
f 3//3 25//25 33//33
f 8//8 33//33 25//25
f 32//32 33//33 94//94
f 36//36 32//32 94//94
f 34//34 31//31 3//3
f 29//29 31//31 34//34
f 29//29 34//34 35//35
f 34//34 32//32 35//35
f 61//61 29//29 35//35
f 36//36 35//35 32//32
f 38//38 35//35 36//36
f 39//39 38//38 36//36
f 61//61 35//35 38//38
f 39//39 36//36 37//37
f 41//41 39//39 37//37
f 39//39 40//40 38//38
f 41//41 42//42 39//39
f 40//40 39//39 42//42
f 10//10 40//40 42//42
f 9//9 42//42 41//41
f 43//43 42//42 9//9
f 42//42 43//43 10//10
f 43//43 98//98 76//76
f 18//18 44//44 19//19
f 44//44 47//47 19//19
f 45//45 47//47 44//44
f 78//78 20//20 46//46
f 47//47 6//6 46//46
f 46//46 19//19 47//47
f 47//47 53//53 6//6
f 48//48 6//6 53//53
f 44//44 18//18 49//49
f 49//49 50//50 44//44
f 49//49 22//22 51//51
f 45//45 44//44 50//50
f 45//45 50//50 52//52
f 51//51 50//50 49//49
f 52//52 50//50 51//51
f 51//51 56//56 52//52
f 59//59 45//45 52//52
f 53//53 47//47 45//45
f 45//45 54//54 53//53
f 54//54 48//48 53//53
f 7//7 105//105 48//48
f 7//7 48//48 54//54
f 45//45 59//59 54//54
f 52//52 56//56 59//59
f 58//58 59//59 56//56
f 56//56 51//51 55//55
f 57//57 56//56 55//55
f 57//57 55//55 2//2
f 58//58 56//56 62//62
f 62//62 56//56 57//57
f 59//59 58//58 54//54
f 60//60 54//54 58//58
f 7//7 54//54 60//60
f 60//60 108//108 7//7
f 29//29 61//61 2//2
f 64//64 57//57 2//2
f 64//64 2//2 61//61
f 63//63 60//60 58//58
f 63//63 58//58 62//62
f 108//108 60//60 63//63
f 116//116 63//63 68//68
f 62//62 57//57 64//64
f 67//67 62//62 64//64
f 65//65 66//66 64//64
f 64//64 61//61 65//65
f 66//66 67//67 64//64
f 63//63 62//62 67//67
f 68//68 67//67 66//66
f 68//68 121//121 118//118
f 67//67 68//68 63//63
f 65//65 69//69 66//66
f 71//71 66//66 69//69
f 65//65 61//61 38//38
f 38//38 69//69 65//65
f 68//68 66//66 71//71
f 121//121 68//68 70//70
f 70//70 68//68 71//71
f 70//70 71//71 72//72
f 69//69 38//38 40//40
f 72//72 71//71 69//69
f 122//122 70//70 72//72
f 69//69 40//40 10//10
f 69//69 73//73 72//72
f 73//73 69//69 10//10
f 74//74 72//72 73//73
f 122//122 72//72 74//74
f 43//43 76//76 10//10
f 76//76 73//73 10//10
f 75//75 73//73 76//76
f 75//75 74//74 73//73
f 76//76 98//98 127//127
f 1//1 77//77 15//15
f 80//80 15//15 77//77
f 81//81 80//80 77//77
f 78//78 77//77 1//1
f 79//79 77//77 78//78
f 79//79 81//81 77//77
f 21//21 80//80 24//24
f 24//24 80//80 82//82
f 80//80 81//81 82//82
f 4//4 81//81 79//79
f 82//82 81//81 4//4
f 82//82 4//4 84//84
f 83//83 24//24 82//82
f 83//83 25//25 24//24
f 83//83 82//82 87//87
f 82//82 84//84 86//86
f 86//86 84//84 5//5
f 85//85 25//25 83//83
f 85//85 83//83 87//87
f 89//89 85//85 87//87
f 86//86 87//87 82//82
f 88//88 86//86 5//5
f 88//88 87//87 86//86
f 88//88 90//90 87//87
f 8//8 25//25 85//85
f 8//8 85//85 89//89
f 94//94 33//33 8//8
f 90//90 89//89 87//87
f 8//8 93//93 94//94
f 8//8 89//89 93//93
f 93//93 89//89 90//90
f 92//92 91//91 93//93
f 93//93 90//90 92//92
f 92//92 90//90 120//120
f 94//94 37//37 36//36
f 37//37 94//94 97//97
f 91//91 97//97 94//94
f 91//91 94//94 93//93
f 95//95 91//91 92//92
f 97//97 41//41 37//37
f 97//97 91//91 96//96
f 11//11 96//96 91//91
f 11//11 91//91 95//95
f 9//9 41//41 97//97
f 9//9 97//97 99//99
f 97//97 96//96 99//99
f 99//99 96//96 100//100
f 100//100 11//11 12//12
f 96//96 11//11 100//100
f 98//98 43//43 9//9
f 99//99 98//98 9//9
f 13//13 100//100 12//12
f 98//98 99//99 101//101
f 100//100 101//101 99//99
f 100//100 13//13 101//101
f 13//13 127//127 101//101
f 46//46 102//102 78//78
f 79//79 78//78 104//104
f 104//104 78//78 102//102
f 104//104 106//106 79//79
f 6//6 103//103 102//102
f 102//102 46//46 6//6
f 103//103 104//104 102//102
f 48//48 103//103 6//6
f 48//48 105//105 103//103
f 106//106 104//104 103//103
f 105//105 106//106 103//103
f 107//107 106//106 105//105
f 107//107 105//105 108//108
f 4//4 79//79 106//106
f 4//4 106//106 109//109
f 84//84 4//4 109//109
f 109//109 106//106 107//107
f 7//7 108//108 105//105
f 108//108 111//111 107//107
f 110//110 107//107 111//111
f 109//109 107//107 110//110
f 113//113 5//5 84//84
f 113//113 84//84 109//109
f 113//113 109//109 115//115
f 110//110 115//115 109//109
f 111//111 108//108 116//116
f 112//112 110//110 111//111
f 115//115 114//114 113//113
f 5//5 113//113 88//88
f 88//88 113//113 114//114
f 114//114 90//90 88//88
f 115//115 110//110 117//117
f 117//117 110//110 112//112
f 63//63 116//116 108//108
f 111//111 116//116 118//118
f 112//112 111//111 118//118
f 118//118 121//121 119//119
f 117//117 112//112 119//119
f 119//119 112//112 118//118
f 115//115 120//120 114//114
f 90//90 114//114 120//120
f 120//120 115//115 117//117
f 95//95 92//92 120//120
f 117//117 95//95 120//120
f 116//116 68//68 118//118
f 117//117 123//123 95//95
f 70//70 122//122 121//121
f 121//121 123//123 119//119
f 117//117 119//119 123//123
f 123//123 121//121 125//125
f 11//11 95//95 123//123
f 11//11 123//123 12//12
f 124//124 12//12 123//123
f 125//125 121//121 122//122
f 125//125 124//124 123//123
f 74//74 124//124 125//125
f 12//12 124//124 126//126
f 74//74 125//125 122//122
f 75//75 126//126 74//74
f 124//124 74//74 126//126
f 75//75 76//76 127//127
f 126//126 127//127 13//13
f 126//126 13//13 12//12
f 75//75 127//127 126//126
f 101//101 127//127 98//98
# 250 faces, 0 coords texture

# End of File
