####
#
# OBJ File Generated by Meshlab
#
####
# Object eating_right_for_healthy_living_blueberry_250_collision.obj
#
# Vertices: 127
# Faces: 250
#
####
vn -0.852466 0.441213 -0.280414
v -0.070450 0.074364 0.008275
vn 0.324621 0.371062 -0.870019
v -0.025440 0.088062 0.008187
vn -0.784843 -0.619239 -0.023768
v 0.035634 -0.072407 0.011742
vn -0.088598 -0.532724 -0.841639
v 0.052837 -0.086105 0.008102
vn -0.803480 -0.585462 -0.107952
v -0.054794 0.046967 0.008784
vn 0.525971 -0.840645 0.129113
v 0.060665 -0.081720 0.142857
vn 0.113270 0.084618 -0.989954
v -0.003914 0.058708 0.008016
vn -0.066232 0.231281 -0.970630
v -0.048923 0.090019 0.008260
vn 0.465629 0.874567 -0.135356
v -0.031493 0.093933 0.011742
vn -0.979421 0.193180 0.058452
v -0.064254 0.076159 0.117089
vn -0.434532 -0.357537 -0.826650
v 0.033268 -0.068493 0.008764
vn -0.810657 -0.583603 0.047358
v -0.058708 0.063458 0.140900
vn 0.770864 0.575727 -0.272594
v 0.041096 0.001957 0.009071
vn 0.722673 0.565250 0.397789
v -0.021526 0.086105 0.147133
vn 0.392438 -0.504225 -0.769252
v 0.068513 -0.076358 0.008063
vn 0.291204 0.859325 -0.420430
v -0.035270 0.095239 0.009796
vn -0.883339 0.445753 0.144971
v -0.062077 0.078278 0.142857
vn -0.764866 -0.610621 -0.205234
v 0.035225 -0.071764 0.009785
vn -0.005155 0.001355 -0.999986
v -0.066536 0.070450 0.008188
vn 0.664847 0.451674 0.594953
v 0.076286 -0.050833 0.148945
vn 0.765969 0.641697 -0.038926
v -0.024478 0.088062 0.011742
vn 0.779698 -0.403069 -0.479172
v 0.084148 -0.060665 0.008252
vn 0.235474 -0.932235 -0.274753
v 0.054813 -0.086181 0.009168
vn -0.352110 -0.935938 -0.006204
v 0.048923 -0.085516 0.013699
vn -0.781936 -0.623321 0.006917
v 0.038677 -0.076321 0.015656
vn -0.751855 0.657959 0.042472
v -0.060889 0.080235 0.136986
vn -0.542071 0.796764 -0.267070
v -0.054783 0.088072 0.008816
vn -0.806716 -0.588848 0.049677
v -0.015656 0.001432 0.107632
vn -0.779798 -0.614643 0.118866
v 0.043929 -0.076970 0.144277
vn 0.413167 0.183529 0.891970
v 0.074364 -0.054794 0.151585
vn 0.784921 0.548763 0.287678
v 0.081674 -0.054787 0.142867
vn 0.898480 0.291071 -0.328652
v 0.084148 -0.058708 0.008368
vn 0.673655 0.716168 -0.182461
v -0.025445 0.089001 0.010360
vn 0.732068 -0.678381 -0.062257
v 0.078277 -0.069144 0.011391
vn -0.018926 0.874287 -0.485041
v -0.039173 0.095769 0.009957
vn 0.059947 0.997494 0.037574
v -0.033250 0.097112 0.141381
vn -0.291827 0.876870 -0.382016
v -0.041124 0.095373 0.009919
vn -0.757130 -0.653190 -0.009847
v 0.041975 -0.080234 0.013425
vn -0.625637 -0.725894 -0.285754
v 0.043787 -0.082177 0.009864
vn -0.779351 -0.625936 0.028556
v 0.039235 -0.074497 0.088149
vn -0.805425 -0.590856 0.046693
v 0.020346 -0.046967 0.117416
vn -0.744434 -0.666962 0.031301
v 0.045075 -0.080235 0.115459
vn -0.859546 -0.482188 0.169341
v -0.061697 0.067727 0.142414
vn -0.405004 -0.285770 0.868509
v 0.009785 -0.021526 0.152319
vn -0.822459 -0.567761 0.034778
v -0.061056 0.066750 0.140459
vn -0.613718 -0.242927 -0.751223
v -0.070450 0.072407 0.008222
vn 0.702407 0.529854 0.475267
v -0.021526 0.084790 0.148727
vn 0.161828 0.082560 0.983359
v 0.072407 -0.054794 0.152100
vn 0.811416 -0.584144 -0.019503
v 0.080345 -0.066536 0.013699
vn 0.650161 -0.654119 -0.386548
v 0.077299 -0.069624 0.009483
vn 0.751087 -0.653645 0.092822
v 0.078960 -0.067192 0.140900
vn -0.600498 -0.798678 0.038936
v 0.047864 -0.082296 0.132271
vn 0.205988 -0.974134 0.092902
v 0.056775 -0.083667 0.142940
vn 0.358252 -0.933275 -0.025553
v 0.056750 -0.085732 0.011736
vn 0.548827 -0.824622 -0.137065
v 0.059617 -0.084209 0.010090
vn -0.102766 0.994701 -0.003174
v -0.037145 0.097027 0.120225
vn 0.109865 0.993282 -0.036344
v -0.037182 0.095693 0.011742
vn 0.579459 0.814995 0.003324
v -0.029409 0.095735 0.137320
vn 0.789579 0.613302 0.020646
v -0.023762 0.089705 0.141247
vn -0.525817 0.845479 0.093175
v -0.043634 0.094212 0.140594
vn -0.795704 -0.604282 0.041215
v 0.041379 -0.074960 0.125353
vn -0.823571 -0.503700 0.260800
v -0.058044 0.063551 0.144920
vn -0.365225 -0.240096 0.899425
v -0.054794 0.066536 0.151030
vn -0.314421 -0.271814 0.909536
v 0.046967 -0.072407 0.152786
vn 0.509406 0.286627 0.811388
v 0.074364 -0.050880 0.150376
vn 0.545761 0.394708 0.739155
v -0.024462 0.084148 0.152127
vn 0.732951 0.457993 0.503016
v 0.076321 -0.050596 0.148727
vn 0.772293 0.604713 0.194645
v -0.021526 0.086320 0.146770
vn 0.803332 0.593968 0.043115
v -0.021748 0.086984 0.140904
vn 0.843403 0.537279 0.001730
v 0.080144 -0.052433 0.139671
vn 0.151443 0.107814 0.982569
v -0.027397 0.086105 0.152884
vn 0.826437 -0.562557 0.023047
v 0.081260 -0.064587 0.137272
vn 0.581853 -0.776984 0.240297
v 0.065063 -0.078376 0.143679
vn -0.305552 -0.938285 -0.162045
v 0.050881 -0.085915 0.009735
vn -0.189202 -0.979266 0.072386
v 0.050987 -0.083557 0.141918
vn -0.472600 -0.876508 -0.091558
v 0.046966 -0.084586 0.011744
vn 0.458484 -0.884012 0.091187
v 0.058708 -0.082996 0.140900
vn 0.790092 0.612890 -0.010942
v -0.021526 0.086378 0.111545
vn 0.624802 0.625265 0.467617
v -0.026497 0.090292 0.149541
vn -0.074102 0.005460 0.997236
v -0.051728 0.070545 0.152192
vn -0.756992 -0.530789 0.381085
v -0.056751 0.062622 0.146418
vn -0.541379 -0.349912 0.764507
v -0.056751 0.066536 0.149843
vn -0.884903 -0.095097 0.455965
v -0.062116 0.074115 0.147164
vn -0.992361 -0.037001 0.117689
v -0.062923 0.072439 0.143302
vn 0.988323 0.150333 0.024853
v 0.082184 -0.057149 0.127115
vn 0.949445 -0.286075 0.129286
v 0.082024 -0.062651 0.142757
vn 0.396355 0.273623 0.876375
v 0.073694 -0.050880 0.150684
vn 0.370993 0.314758 0.873665
v -0.028948 0.089033 0.152769
vn 0.617488 0.485227 0.619083
v -0.025476 0.088062 0.150646
vn 0.254714 0.171726 0.951647
v 0.072407 -0.052837 0.151775
vn 0.634987 -0.756499 -0.156527
v 0.074364 -0.072458 0.010184
vn 0.181402 -0.849090 0.496125
v 0.055816 -0.082360 0.149952
vn -0.713314 -0.516917 0.473265
v 0.041096 -0.071011 0.148727
vn -0.333206 0.942265 0.033330
v -0.040312 0.096229 0.137132
vn 0.363421 0.920778 0.141749
v -0.031139 0.096503 0.143468
vn -0.568602 0.482656 0.666134
v -0.056683 0.081196 0.151274
vn 0.198497 0.552699 0.809396
v -0.034408 0.093843 0.152610
vn -0.263706 0.913897 0.308627
v -0.037374 0.095948 0.149536
vn -0.688810 0.717847 0.101177
v -0.056691 0.084249 0.142503
vn 0.690826 0.708076 0.146243
v -0.026635 0.093079 0.143903
vn -0.495843 -0.353704 0.793116
v 0.011742 -0.025440 0.151876
vn -0.310783 -0.216866 0.925410
v 0.016634 -0.030293 0.152582
vn -0.715883 -0.426586 0.552753
v -0.058660 0.067260 0.148681
vn 0.864588 0.244871 0.438777
v 0.081013 -0.054430 0.146247
vn 0.690227 -0.374792 0.618965
v 0.078578 -0.065126 0.150417
vn 0.764129 0.530275 0.367308
v 0.076318 -0.048927 0.146770
vn 0.015848 0.024807 0.999567
v -0.029353 0.086104 0.153052
vn 0.062161 0.008516 0.998030
v 0.066536 -0.060665 0.152543
vn -0.040117 -0.175223 0.983711
v 0.051647 -0.073946 0.153059
vn 0.005796 -0.002437 0.999980
v 0.022505 0.013699 0.152638
vn -0.510293 -0.822227 0.252080
v 0.049354 -0.082177 0.146528
vn 0.309181 -0.405032 0.860439
v 0.066902 -0.072349 0.152276
vn -0.605719 0.778861 0.162727
v -0.054742 0.085927 0.142557
vn -0.482076 -0.312115 0.818649
v -0.055430 0.066536 0.150684
vn -0.250203 -0.172360 0.952728
v 0.009785 -0.019875 0.152707
vn 0.156508 -0.043749 0.986707
v 0.075709 -0.064494 0.151838
vn 0.670952 -0.733821 0.106441
v 0.075429 -0.070357 0.143600
vn -0.464038 -0.571902 0.676459
v 0.048071 -0.079275 0.149878
vn -0.557287 -0.417071 0.717972
v 0.046031 -0.074297 0.151311
vn -0.105253 -0.069965 0.991981
v 0.011451 -0.019308 0.153118
vn -0.502452 -0.356176 0.787833
v -0.054794 0.064579 0.150209
vn -0.418421 -0.141861 0.897106
v -0.057493 0.073527 0.151655
vn -0.598336 -0.428889 0.676793
v -0.014677 0.007820 0.149932
vn -0.641880 -0.464207 0.610329
v 0.027397 -0.050880 0.149819
vn -0.730940 -0.521706 0.439942
v -0.055773 0.061766 0.147066
vn -0.715942 -0.517095 0.469084
v 0.028376 -0.053437 0.148720
vn -0.568497 -0.408226 0.714257
v 0.019006 -0.037860 0.150740
# 127 vertices, 0 vertices normals

f 46//46 11//11 5//5
f 46//46 4//4 11//11
f 46//46 1//1 8//8
f 13//13 7//7 2//2
f 13//13 32//32 7//7
f 15//15 4//4 7//7
f 27//27 8//8 1//1
f 18//18 3//3 5//5
f 18//18 5//5 11//11
f 45//45 46//46 5//5
f 19//19 7//7 4//4
f 19//19 4//4 46//46
f 19//19 2//2 7//7
f 19//19 46//46 8//8
f 19//19 8//8 2//2
f 84//84 10//10 1//1
f 84//84 1//1 46//46
f 22//22 15//15 7//7
f 22//22 7//7 32//32
f 22//22 50//50 15//15
f 23//23 4//4 15//15
f 25//25 40//40 5//5
f 25//25 5//5 3//3
f 16//16 2//2 8//8
f 26//26 1//1 17//17
f 10//10 17//17 1//1
f 94//94 56//56 37//37
f 99//99 27//27 1//1
f 39//39 11//11 4//4
f 28//28 29//29 12//12
f 28//28 12//12 5//5
f 61//61 5//5 40//40
f 45//45 5//5 12//12
f 69//69 70//70 13//13
f 69//69 13//13 59//59
f 32//32 13//13 70//70
f 33//33 21//21 13//13
f 33//33 13//13 2//2
f 78//78 59//59 13//13
f 78//78 13//13 21//21
f 37//37 35//35 8//8
f 37//37 8//8 27//27
f 16//16 8//8 35//35
f 35//35 37//37 56//56
f 33//33 16//16 9//9
f 33//33 2//2 16//16
f 16//16 36//36 95//95
f 16//16 95//95 9//9
f 58//58 9//9 95//95
f 100//100 33//33 58//58
f 100//100 21//21 33//33
f 84//84 17//17 10//10
f 94//94 27//27 60//60
f 38//38 3//3 18//18
f 38//38 25//25 3//3
f 40//40 25//25 38//38
f 39//39 18//18 11//11
f 39//39 38//38 18//18
f 41//41 28//28 5//5
f 41//41 29//29 28//28
f 42//42 39//39 52//52
f 42//42 61//61 40//40
f 42//42 38//38 39//39
f 62//62 29//29 118//118
f 43//43 12//12 29//29
f 46//46 43//43 84//84
f 86//86 22//22 32//32
f 86//86 72//72 22//22
f 70//70 104//104 32//32
f 33//33 9//9 58//58
f 49//49 22//22 72//72
f 49//49 72//72 34//34
f 91//91 50//50 34//34
f 91//91 15//15 50//50
f 73//73 55//55 117//117
f 39//39 76//76 52//52
f 74//74 24//24 76//76
f 74//74 75//75 24//24
f 74//74 4//4 75//75
f 52//52 76//76 24//24
f 52//52 24//24 75//75
f 54//54 53//53 23//23
f 55//55 54//54 23//23
f 57//57 16//16 35//35
f 57//57 36//36 16//16
f 57//57 56//56 36//36
f 57//57 35//35 56//56
f 59//59 78//78 21//21
f 59//59 21//21 100//100
f 99//99 26//26 17//17
f 56//56 94//94 36//36
f 99//99 1//1 26//26
f 61//61 41//41 5//5
f 40//40 38//38 42//42
f 111//111 118//118 29//29
f 62//62 43//43 29//29
f 43//43 45//45 12//12
f 85//85 32//32 104//104
f 66//66 65//65 20//20
f 106//106 14//14 47//47
f 106//106 47//47 67//67
f 79//79 47//47 14//14
f 68//68 106//106 31//31
f 68//68 14//14 106//106
f 68//68 69//69 100//100
f 68//68 79//79 14//14
f 69//69 59//59 100//100
f 70//70 68//68 31//31
f 70//70 69//69 68//68
f 71//71 88//88 107//107
f 34//34 22//22 49//49
f 34//34 50//50 22//22
f 72//72 51//51 34//34
f 51//51 117//117 34//34
f 55//55 23//23 15//15
f 91//91 55//55 15//15
f 91//91 117//117 55//55
f 73//73 6//6 55//55
f 74//74 39//39 4//4
f 74//74 76//76 39//39
f 75//75 53//53 92//92
f 75//75 4//4 23//23
f 77//77 92//92 53//53
f 77//77 53//53 54//54
f 77//77 54//54 55//55
f 77//77 55//55 6//6
f 111//111 75//75 92//92
f 98//98 95//95 36//36
f 94//94 98//98 36//36
f 79//79 100//100 97//97
f 98//98 94//94 60//60
f 113//113 60//60 27//27
f 80//80 120//120 107//107
f 97//97 107//107 88//88
f 61//61 29//29 41//41
f 29//29 42//42 52//52
f 102//102 44//44 64//64
f 115//115 64//64 120//120
f 62//62 83//83 43//43
f 62//62 81//81 103//103
f 62//62 103//103 83//83
f 45//45 43//43 46//46
f 84//84 43//43 83//83
f 85//85 86//86 32//32
f 86//86 85//85 104//104
f 87//87 30//30 65//65
f 20//20 89//89 66//66
f 66//66 88//88 65//65
f 88//88 66//66 89//89
f 89//89 67//67 47//47
f 89//89 47//47 79//79
f 89//89 20//20 67//67
f 31//31 67//67 20//20
f 104//104 70//70 31//31
f 109//109 107//107 120//120
f 110//110 107//107 116//116
f 90//90 71//71 48//48
f 90//90 48//48 30//30
f 86//86 51//51 72//72
f 91//91 34//34 117//117
f 53//53 75//75 23//23
f 92//92 77//77 6//6
f 93//93 62//62 118//118
f 94//94 37//37 27//27
f 96//96 99//99 17//17
f 95//95 97//97 100//100
f 98//98 60//60 113//113
f 113//113 27//27 99//99
f 79//79 97//97 88//88
f 79//79 88//88 89//89
f 100//100 58//58 95//95
f 97//97 80//80 107//107
f 96//96 113//113 99//99
f 29//29 61//61 42//42
f 101//101 64//64 44//44
f 118//118 109//109 64//64
f 120//120 64//64 109//109
f 102//102 63//63 44//44
f 122//122 63//63 115//115
f 102//102 64//64 115//115
f 80//80 96//96 122//122
f 96//96 80//80 97//97
f 96//96 83//83 122//122
f 62//62 93//93 81//81
f 88//88 30//30 87//87
f 88//88 87//87 65//65
f 88//88 90//90 30//30
f 88//88 71//71 90//90
f 104//104 65//65 30//30
f 105//105 104//104 30//30
f 104//104 20//20 65//65
f 106//106 67//67 31//31
f 31//31 20//20 104//104
f 100//100 79//79 68//68
f 116//116 107//107 108//108
f 108//108 109//109 112//112
f 108//108 107//107 109//109
f 110//110 71//71 107//107
f 110//110 48//48 71//71
f 116//116 48//48 110//110
f 111//111 52//52 75//75
f 52//52 111//111 29//29
f 73//73 92//92 6//6
f 125//125 103//103 81//81
f 119//119 93//93 118//118
f 83//83 96//96 17//17
f 83//83 17//17 84//84
f 95//95 98//98 97//97
f 113//113 96//96 98//98
f 96//96 97//97 98//98
f 114//114 101//101 44//44
f 114//114 44//44 63//63
f 114//114 122//122 82//82
f 114//114 63//63 122//122
f 122//122 115//115 120//120
f 115//115 63//63 102//102
f 122//122 83//83 103//103
f 122//122 103//103 82//82
f 80//80 122//122 120//120
f 116//116 105//105 30//30
f 116//116 30//30 48//48
f 112//112 105//105 116//116
f 86//86 104//104 105//105
f 116//116 108//108 112//112
f 117//117 51//51 86//86
f 112//112 92//92 73//73
f 112//112 73//73 105//105
f 117//117 105//105 73//73
f 111//111 92//92 118//118
f 126//126 125//125 81//81
f 126//126 81//81 93//93
f 119//119 118//118 64//64
f 121//121 114//114 82//82
f 121//121 82//82 101//101
f 121//121 101//101 114//114
f 112//112 109//109 92//92
f 118//118 92//92 109//109
f 123//123 82//82 103//103
f 127//127 101//101 82//82
f 124//124 123//123 103//103
f 86//86 105//105 117//117
f 119//119 64//64 101//101
f 127//127 82//82 123//123
f 127//127 119//119 101//101
f 119//119 124//124 93//93
f 126//126 93//93 124//124
f 126//126 124//124 103//103
f 126//126 103//103 125//125
f 127//127 123//123 124//124
f 127//127 124//124 119//119
# 250 faces, 0 coords texture

# End of File
