####
#
# OBJ File Generated by Meshlab
#
####
# Object eating_right_for_healthy_living_blueberry_250_collision.obj
#
# Vertices: 127
# Faces: 250
#
####
vn -0.353851 -0.262792 0.897625
v 0.008979 0.026689 0.002683
vn 0.800931 0.594480 -0.071435
v -0.029075 0.018748 0.121618
vn 0.739149 0.542207 0.399587
v 0.000163 -0.020769 0.008295
vn 0.780991 0.588792 0.208273
v -0.015278 -0.000341 0.010041
vn 0.807036 0.590439 0.008680
v -0.005584 -0.015845 0.065859
vn 0.808390 0.588458 -0.014920
v -0.031927 0.020408 0.084038
vn 0.809752 0.584620 -0.050214
v -0.000729 -0.020778 0.112611
vn 0.712081 0.510502 -0.482004
v -0.000536 -0.016875 0.145022
vn 0.702044 0.422154 0.573516
v -0.056807 0.056925 0.005096
vn 0.727627 0.545135 0.416398
v -0.037387 0.029497 0.006156
vn 0.472716 0.384158 0.793072
v -0.017429 0.008627 0.002979
vn 0.805834 0.591908 0.016609
v -0.028622 0.016704 0.034604
vn 0.122921 0.118776 0.985283
v -0.005424 0.009247 0.000034
vn -0.050674 -0.034585 0.998116
v -0.008133 0.025243 -0.000269
vn -0.246900 -0.178425 0.952473
v -0.017567 0.051228 0.000696
vn 0.252801 0.182975 0.950059
v -0.030003 0.033221 0.000406
vn -0.644505 -0.483184 0.592576
v 0.001958 0.043128 0.005166
vn -0.674931 -0.479092 0.561194
v -0.009544 0.059348 0.006836
vn 0.256878 0.042024 0.965530
v -0.055753 0.068417 0.001647
vn 0.626339 -0.089239 0.774426
v -0.062043 0.072173 0.004096
vn 0.775107 -0.596475 0.208390
v -0.064236 0.076973 0.009871
vn 0.013489 -0.019326 0.999722
v -0.036205 0.060759 -0.000321
vn -0.467265 -0.338041 0.816941
v -0.020109 0.068901 0.003523
vn -0.029749 -0.211011 0.977031
v -0.038788 0.079443 0.000761
vn 0.176037 -0.643177 0.745207
v -0.041847 0.089395 0.004480
vn -0.378690 -0.539227 0.752216
v -0.032397 0.084756 0.003810
vn -0.007005 -0.964666 0.263382
v -0.036983 0.093560 0.011992
vn 0.812232 0.583334 -0.000871
v -0.047918 0.042331 0.061542
vn 0.807930 0.586996 0.051818
v -0.048500 0.044604 0.008468
vn -0.805061 -0.587537 0.081715
v -0.002009 0.051948 0.024503
vn 0.868529 -0.495549 -0.009433
v -0.064639 0.074684 0.034889
vn 0.952728 0.286653 0.100694
v -0.065904 0.067484 0.019655
vn 0.974037 0.225743 -0.017080
v -0.064575 0.066849 0.076441
vn 0.793604 -0.608434 -0.000120
v -0.063282 0.077535 0.077763
vn 0.478091 -0.878280 0.007281
v -0.043475 0.091598 0.033419
vn -0.652253 -0.700690 0.289134
v -0.027358 0.086805 0.011095
vn -0.033336 -0.999064 0.027571
v -0.037148 0.093534 0.047760
vn 0.512187 -0.858500 0.025335
v -0.045322 0.090873 0.057278
vn -0.801679 -0.595550 0.051304
v 0.003786 0.047595 0.053865
vn -0.584622 -0.810833 0.027676
v -0.029168 0.091719 0.062081
vn 0.111068 -0.993765 0.009764
v -0.040268 0.094622 0.077746
vn 0.920971 0.388187 -0.033519
v -0.062099 0.064230 0.118598
vn -0.805241 -0.592850 0.010765
v -0.013402 0.073467 0.108039
vn 0.815140 0.577778 -0.041463
v -0.050062 0.047054 0.116201
vn 0.960021 -0.279899 -0.003958
v -0.064331 0.074996 0.104767
vn 0.921439 0.235344 -0.309134
v -0.063732 0.070090 0.143998
vn -0.547964 -0.835159 0.047382
v -0.026557 0.091573 0.116531
vn -0.635406 -0.771725 0.026446
v -0.025224 0.088417 0.086633
vn 0.230014 -0.972559 0.034958
v -0.039881 0.095282 0.104526
vn 0.245715 -0.937271 -0.247278
v -0.039441 0.096653 0.142859
vn -0.452775 -0.832591 -0.319041
v -0.032140 0.096407 0.142984
vn 0.729701 0.513378 -0.451641
v -0.048382 0.047855 0.145162
vn 0.745905 0.547216 -0.379712
v -0.022008 0.013793 0.144870
vn 0.251318 0.207546 -0.945391
v -0.034031 0.039693 0.151661
vn 0.418017 0.280792 -0.863954
v -0.010184 0.004698 0.150938
vn -0.790668 -0.569189 -0.225540
v -0.007164 0.064677 0.143657
vn 0.753038 -0.603672 -0.261752
v -0.061242 0.081437 0.142737
vn 0.444193 -0.152484 -0.882860
v -0.050614 0.077675 0.155750
vn -0.393915 -0.297251 -0.869754
v -0.026229 0.082434 0.153033
vn 0.014822 -0.646319 -0.762924
v -0.038649 0.089875 0.154047
vn -0.422636 -0.255721 -0.869474
v -0.003305 0.046957 0.151249
vn -0.272876 0.945021 0.180204
v 0.056813 -0.084134 0.011096
vn 0.504877 0.862915 0.021840
v 0.044326 -0.083354 0.040066
vn 0.779769 0.554325 0.291005
v 0.023286 -0.053928 0.009359
vn 0.409200 0.690406 0.596570
v 0.043884 -0.080531 0.005572
vn -0.247559 0.575350 0.779542
v 0.057066 -0.079813 0.003758
vn 0.027857 0.190521 0.981288
v 0.051356 -0.072321 0.000342
vn -0.586552 -0.044591 0.808683
v 0.076537 -0.058541 0.004485
vn -0.622910 0.782287 -0.003129
v 0.068876 -0.074178 0.020985
vn -0.864732 0.435387 0.250354
v 0.078062 -0.066362 0.008571
vn -0.913250 -0.372016 0.166070
v 0.078773 -0.057177 0.012151
vn 0.091225 0.053462 0.994394
v 0.029037 -0.029235 0.000066
vn -0.213741 -0.171611 0.961699
v 0.047991 -0.034170 0.000087
vn 0.415771 0.297353 0.859486
v 0.031282 -0.055649 0.002959
vn 0.615709 0.426089 0.662835
v 0.013494 -0.036820 0.004261
vn -0.017063 -0.000562 0.999854
v 0.048655 -0.050217 -0.000619
vn -0.241407 -0.107843 0.964413
v 0.062754 -0.051331 0.000424
vn -0.642601 -0.482040 0.595568
v 0.059111 -0.035336 0.004574
vn -0.801906 -0.591234 0.085960
v 0.054730 -0.025841 0.016345
vn -0.012830 -0.006349 0.999898
v 0.019081 -0.007811 -0.000140
vn 0.264804 0.203204 0.942649
v 0.004121 -0.009705 0.001639
vn -0.232105 -0.182157 0.955482
v 0.029829 -0.008003 0.000667
vn -0.696505 -0.532739 0.480697
v 0.031099 0.003837 0.005560
vn -0.671856 -0.500562 0.545938
v 0.043413 -0.011567 0.005430
vn -0.225472 0.974243 0.003478
v 0.054761 -0.084253 0.043746
vn 0.523017 0.852322 -0.000324
v 0.044811 -0.083175 0.069461
vn -0.596986 0.802232 0.005624
v 0.058972 -0.082064 0.061491
vn -0.952618 -0.303940 0.011800
v 0.078128 -0.056707 0.033357
vn -0.921827 0.387550 0.006308
v 0.078566 -0.065583 0.049027
vn 0.808305 0.588647 0.011790
v 0.019464 -0.050618 0.062849
vn -0.811776 -0.582943 0.034598
v 0.061304 -0.030579 0.058219
vn -0.799317 -0.596796 0.070192
v 0.037758 -0.001648 0.028730
vn -0.805446 -0.590635 0.049061
v 0.036224 0.004133 0.060265
vn 0.207173 0.978235 -0.011615
v 0.050507 -0.084802 0.109817
vn 0.620334 0.783727 -0.030945
v 0.044221 -0.082808 0.096343
vn -0.497702 0.862395 0.092562
v 0.056435 -0.083956 0.088753
vn 0.801988 0.597063 -0.018192
v 0.027007 -0.060359 0.087082
vn 0.722324 0.690477 -0.038591
v 0.040990 -0.077565 0.125101
vn -0.331918 0.939416 -0.085605
v 0.056582 -0.084346 0.125753
vn -0.731102 0.668511 0.136320
v 0.076312 -0.069987 0.111122
vn -0.951034 0.301321 0.068848
v 0.080411 -0.064222 0.113615
vn -0.808153 -0.588762 0.015753
v 0.035378 0.005926 0.081913
vn 0.516227 0.826868 -0.223155
v 0.046815 -0.083436 0.142082
vn -0.806655 -0.590132 -0.032440
v 0.064205 -0.033073 0.123611
vn -0.932731 -0.360116 0.018137
v 0.078204 -0.053414 0.093179
vn -0.896374 -0.430113 -0.107318
v 0.078504 -0.052624 0.139621
vn 0.790520 0.573013 -0.216183
v 0.017514 -0.043407 0.142935
vn 0.198771 0.678716 -0.706990
v 0.049479 -0.081437 0.149553
vn -0.239686 0.621753 -0.745636
v 0.057791 -0.077969 0.153185
vn -0.401335 0.089764 -0.911522
v 0.071581 -0.063247 0.153833
vn 0.132597 0.006423 -0.991149
v 0.052499 -0.057580 0.152702
vn -0.756650 0.603878 -0.250622
v 0.078217 -0.068574 0.142371
vn -0.848518 -0.170784 -0.500849
v 0.079591 -0.059813 0.146049
vn 0.414720 0.300958 -0.858738
v 0.035048 -0.059887 0.149899
vn -0.124776 -0.078668 -0.989061
v 0.050918 -0.035487 0.151858
vn -0.276388 -0.253400 -0.927037
v 0.063433 -0.052198 0.152689
vn -0.670703 -0.475005 -0.569673
v 0.060953 -0.032678 0.146558
vn 0.234118 0.150319 -0.960517
v 0.009587 -0.014056 0.153918
vn -0.042534 -0.007159 -0.999069
v 0.033212 -0.016804 0.153487
vn -0.470216 -0.331267 -0.818022
v 0.042136 -0.014424 0.152581
vn -0.800921 -0.584798 -0.128597
v 0.038198 0.003071 0.136248
vn -0.804936 -0.588600 0.075021
v 0.021634 0.019967 0.027065
vn -0.763388 -0.554229 0.331765
v 0.013410 0.029000 0.008342
vn -0.807606 -0.589534 0.014930
v 0.009320 0.042370 0.086373
vn -0.806388 -0.591364 -0.005285
v 0.022880 0.023113 0.113011
vn -0.170676 -0.166664 -0.971130
v 0.016830 0.014504 0.151256
vn -0.725559 -0.523848 -0.446259
v 0.020734 0.025426 0.142259
# 127 vertices, 0 vertices normals

f 75//75 81//81 3//3
f 4//4 3//3 11//11
f 81//81 11//11 3//3
f 13//13 11//11 81//81
f 90//90 3//3 5//5
f 4//4 5//5 3//3
f 5//5 4//4 12//12
f 90//90 5//5 7//7
f 7//7 5//5 6//6
f 7//7 6//6 2//2
f 7//7 2//2 53//53
f 53//53 8//8 7//7
f 118//118 8//8 55//55
f 19//19 9//9 16//16
f 32//32 29//29 9//9
f 10//10 4//4 11//11
f 11//11 16//16 10//10
f 16//16 11//11 13//13
f 16//16 13//13 14//14
f 15//15 14//14 1//1
f 12//12 4//4 10//10
f 10//10 16//16 9//9
f 10//10 9//9 29//29
f 22//22 16//16 14//14
f 22//22 14//14 15//15
f 16//16 22//22 19//19
f 12//12 10//10 29//29
f 17//17 15//15 1//1
f 15//15 17//17 18//18
f 23//23 15//15 18//18
f 17//17 123//123 30//30
f 19//19 20//20 9//9
f 21//21 20//20 25//25
f 32//32 9//9 20//20
f 20//20 21//21 32//32
f 31//31 32//32 21//21
f 24//24 20//20 19//19
f 22//22 24//24 19//19
f 22//22 15//15 24//24
f 24//24 15//15 23//23
f 20//20 24//24 25//25
f 25//25 24//24 26//26
f 26//26 24//24 23//23
f 25//25 26//26 27//27
f 21//21 25//25 27//27
f 27//27 35//35 21//21
f 26//26 36//36 27//27
f 27//27 36//36 37//37
f 36//36 26//26 23//23
f 18//18 36//36 23//23
f 36//36 18//18 30//30
f 29//29 32//32 28//28
f 28//28 32//32 33//33
f 44//44 28//28 33//33
f 12//12 29//29 28//28
f 18//18 17//17 30//30
f 12//12 28//28 6//6
f 12//12 6//6 5//5
f 44//44 6//6 28//28
f 35//35 31//31 21//21
f 32//32 31//31 33//33
f 38//38 31//31 35//35
f 33//33 31//31 34//34
f 34//34 31//31 38//38
f 34//34 38//38 41//41
f 30//30 40//40 36//36
f 40//40 30//30 39//39
f 37//37 36//36 40//40
f 35//35 27//27 37//37
f 39//39 48//48 40//40
f 37//37 38//38 35//35
f 38//38 37//37 41//41
f 40//40 41//41 37//37
f 44//44 42//42 46//46
f 2//2 6//6 44//44
f 2//2 44//44 52//52
f 56//56 43//43 124//124
f 56//56 124//124 125//125
f 56//56 125//125 127//127
f 33//33 34//34 45//45
f 33//33 42//42 44//44
f 45//45 42//42 33//33
f 45//45 34//34 49//49
f 45//45 49//49 57//57
f 46//46 42//42 45//45
f 45//45 57//57 46//46
f 49//49 34//34 41//41
f 48//48 39//39 124//124
f 48//48 124//124 43//43
f 47//47 48//48 43//43
f 48//48 49//49 41//41
f 41//41 40//40 48//48
f 49//49 48//48 47//47
f 50//50 49//49 47//47
f 47//47 43//43 56//56
f 51//51 47//47 56//56
f 50//50 47//47 51//51
f 57//57 49//49 50//50
f 53//53 2//2 52//52
f 54//54 53//53 52//52
f 55//55 8//8 53//53
f 54//54 55//55 53//53
f 126//126 118//118 55//55
f 126//126 55//55 54//54
f 126//126 54//54 61//61
f 46//46 52//52 44//44
f 58//58 54//54 52//52
f 59//59 61//61 54//54
f 61//61 56//56 127//127
f 46//46 57//57 58//58
f 52//52 46//46 58//58
f 50//50 58//58 57//57
f 59//59 54//54 58//58
f 60//60 58//58 50//50
f 60//60 59//59 58//58
f 60//60 51//51 59//59
f 59//59 56//56 61//61
f 56//56 59//59 51//51
f 50//50 51//51 60//60
f 65//65 63//63 62//62
f 74//74 64//64 65//65
f 65//65 64//64 63//63
f 65//65 66//66 67//67
f 74//74 65//65 67//67
f 72//72 74//74 67//67
f 76//76 67//67 77//77
f 66//66 65//65 62//62
f 66//66 62//62 70//70
f 68//68 67//67 66//66
f 66//66 70//70 68//68
f 68//68 77//77 67//67
f 69//69 70//70 62//62
f 71//71 68//68 70//70
f 75//75 64//64 74//74
f 74//74 72//72 75//75
f 81//81 75//75 72//72
f 72//72 67//67 76//76
f 76//76 73//73 72//72
f 77//77 73//73 76//76
f 73//73 77//77 78//78
f 73//73 82//82 72//72
f 84//84 82//82 73//73
f 84//84 73//73 78//78
f 68//68 71//71 78//78
f 79//79 78//78 71//71
f 79//79 71//71 88//88
f 72//72 80//80 81//81
f 80//80 72//72 82//82
f 13//13 81//81 80//80
f 82//82 84//84 83//83
f 84//84 79//79 92//92
f 84//84 78//78 79//79
f 78//78 77//77 68//68
f 63//63 85//85 62//62
f 69//69 62//62 85//85
f 85//85 87//87 69//69
f 85//85 63//63 86//86
f 86//86 94//94 85//85
f 94//94 86//86 95//95
f 94//94 96//96 85//85
f 86//86 63//63 90//90
f 86//86 90//90 97//97
f 86//86 97//97 95//95
f 87//87 85//85 96//96
f 89//89 69//69 87//87
f 89//89 70//70 69//69
f 88//88 71//71 70//70
f 88//88 70//70 89//89
f 101//101 89//89 87//87
f 96//96 101//101 87//87
f 89//89 105//105 88//88
f 90//90 64//64 75//75
f 64//64 90//90 63//63
f 90//90 75//75 3//3
f 88//88 91//91 79//79
f 91//91 92//92 79//79
f 91//91 93//93 92//92
f 93//93 91//91 102//102
f 91//91 88//88 105//105
f 94//94 99//99 96//96
f 95//95 97//97 98//98
f 107//107 98//98 97//97
f 103//103 98//98 107//107
f 94//94 95//95 98//98
f 94//94 103//103 99//99
f 94//94 98//98 103//103
f 100//100 101//101 96//96
f 105//105 89//89 101//101
f 100//100 96//96 99//99
f 106//106 105//105 101//101
f 101//101 100//100 112//112
f 99//99 112//112 100//100
f 106//106 101//101 113//113
f 113//113 101//101 112//112
f 97//97 90//90 7//7
f 121//121 91//91 104//104
f 102//102 91//91 121//121
f 121//121 125//125 102//102
f 97//97 7//7 107//107
f 8//8 107//107 7//7
f 91//91 105//105 104//104
f 104//104 105//105 106//106
f 107//107 114//114 103//103
f 99//99 103//103 108//108
f 109//109 99//99 108//108
f 112//112 99//99 109//109
f 108//108 103//103 114//114
f 108//108 114//114 111//111
f 109//109 108//108 111//111
f 111//111 114//114 115//115
f 111//111 110//110 109//109
f 116//116 110//110 111//111
f 112//112 109//109 110//110
f 113//113 112//112 110//110
f 110//110 116//116 113//113
f 8//8 114//114 107//107
f 8//8 118//118 114//114
f 118//118 119//119 114//114
f 116//116 111//111 115//115
f 119//119 115//115 114//114
f 115//115 119//119 120//120
f 120//120 117//117 115//115
f 117//117 121//121 104//104
f 115//115 117//117 116//116
f 118//118 126//126 119//119
f 120//120 126//126 127//127
f 120//120 119//119 126//126
f 120//120 121//121 117//117
f 120//120 127//127 121//121
f 117//117 106//106 113//113
f 117//117 104//104 106//106
f 113//113 116//116 117//117
f 13//13 80//80 14//14
f 14//14 80//80 1//1
f 1//1 80//80 82//82
f 1//1 82//82 83//83
f 83//83 123//123 1//1
f 123//123 17//17 1//1
f 83//83 84//84 92//92
f 83//83 92//92 122//122
f 122//122 123//123 83//83
f 30//30 123//123 122//122
f 39//39 30//30 122//122
f 122//122 92//92 93//93
f 122//122 93//93 39//39
f 39//39 93//93 102//102
f 102//102 124//124 39//39
f 125//125 124//124 102//102
f 125//125 121//121 127//127
f 126//126 61//61 127//127
# 250 faces, 0 coords texture

# End of File
