####
#
# OBJ File Generated by Meshlab
#
####
# Object krylon_short_cuts_250_collision.obj
#
# Vertices: 127
# Faces: 250
#
####
vn 0.644901 0.722259 -0.249888
v 0.019429 0.033268 0.007828
vn 0.803874 -0.565575 0.184154
v 0.027157 -0.010173 0.094300
vn -0.837922 0.538892 -0.086494
v -0.021526 0.019569 0.006972
vn 0.898519 -0.426735 -0.102767
v 0.033738 -0.007828 0.007828
vn -0.074834 0.461563 -0.883945
v -0.007784 0.033268 0.005871
vn -0.949773 -0.302461 0.080306
v -0.021996 -0.001957 0.088062
vn 0.969415 0.243806 0.028152
v 0.031776 0.011739 0.086288
vn 0.680177 0.138579 -0.719830
v 0.033268 0.007851 0.005871
vn 0.085846 0.982162 -0.167299
v 0.009785 0.038737 0.009785
vn -0.261591 -0.362785 0.894403
v -0.007544 -0.013631 0.104636
vn -0.637713 -0.762810 -0.106974
v -0.017622 -0.019664 0.010219
vn 0.295101 -0.756473 -0.583664
v 0.016837 -0.021526 0.005871
vn -0.752649 0.299966 -0.586123
v -0.023168 0.015710 0.005871
vn 0.310368 0.396746 -0.863866
v 0.019569 0.031311 0.006514
vn -0.067560 0.967387 0.244126
v 0.001555 0.030355 0.096472
vn -0.162585 -0.975056 -0.151100
v 0.000612 -0.023613 0.009785
vn 0.410502 -0.514887 -0.752582
v 0.017612 -0.020995 0.005871
vn -0.879098 0.470987 0.073194
v -0.019266 0.017612 0.091976
vn -0.268620 0.961365 -0.060164
v 0.002696 0.037182 0.009785
vn 0.342367 0.925997 0.159104
v 0.014139 0.029619 0.094832
vn -0.449201 0.889354 0.085253
v -0.007828 0.028380 0.090019
vn 0.798521 -0.295853 0.524248
v 0.029961 -0.001641 0.100310
vn 0.064297 0.293002 0.953947
v 0.010136 0.023093 0.104624
vn -0.282406 -0.233089 -0.930546
v -0.013269 -0.017612 0.005871
vn -0.860717 -0.505284 0.062085
v -0.019569 -0.007719 0.088062
vn -0.328926 -0.942899 -0.052426
v -0.015656 -0.020819 0.011742
vn 0.346588 -0.033819 -0.937408
v 0.033268 0.007740 0.005871
vn 0.837918 -0.540746 0.074078
v 0.028737 -0.008806 0.089041
vn 0.998878 0.030991 -0.035813
v 0.033860 0.003914 0.011742
vn 0.783747 0.477495 -0.397165
v 0.027438 0.021472 0.007831
vn -0.987836 0.011126 -0.155101
v -0.024857 0.006980 0.008170
vn -0.687345 0.724284 0.054497
v -0.014376 0.023801 0.089244
vn 0.074673 0.982019 0.173383
v 0.007828 0.030668 0.093933
vn -0.524419 0.781047 -0.339043
v -0.009785 0.032708 0.005871
vn -0.370344 0.922588 0.108061
v -0.005871 0.029156 0.091976
vn 0.647084 -0.762386 0.007031
v 0.023483 -0.017618 0.015656
vn 0.268057 -0.469202 0.841424
v 0.015676 -0.014406 0.104194
vn -0.722902 -0.430846 -0.540172
v -0.021515 -0.012435 0.007824
vn -0.157615 -0.797736 -0.582043
v -0.004112 -0.021526 0.005871
vn 0.219825 -0.973676 0.060263
v 0.009785 -0.022024 0.091976
vn -0.512526 -0.836856 0.192323
v -0.009724 -0.017355 0.095019
vn -0.381897 -0.899510 0.212218
v -0.003386 -0.020436 0.095724
vn 0.753471 -0.653046 0.076230
v 0.025093 -0.013291 0.091976
vn 0.989767 -0.124974 0.068861
v 0.032450 0.000000 0.086105
vn -0.902591 0.415900 0.111164
v -0.020176 0.015656 0.093933
vn 0.937439 0.347928 0.012446
v 0.032486 0.013699 0.013699
vn 0.478762 0.877892 0.009605
v 0.012730 0.037181 0.009796
vn -0.588015 0.025333 -0.808453
v -0.023647 0.013525 0.005862
vn -0.989123 -0.144154 0.029243
v -0.023893 0.001957 0.052837
vn -0.987632 -0.141050 -0.068465
v -0.023996 -0.003914 0.009785
vn -0.763721 0.644752 0.032010
v -0.018295 0.021526 0.053816
vn -0.723365 0.690104 0.022340
v -0.018104 0.023479 0.011797
vn 0.136491 0.978501 0.154614
v 0.009785 0.030417 0.093933
vn -0.303437 0.942157 0.142357
v -0.005261 0.029354 0.091976
vn 0.687837 -0.725440 0.024833
v 0.024424 -0.015656 0.048923
vn 0.435205 -0.899326 0.042532
v 0.015656 -0.020180 0.091976
vn -0.111444 -0.980897 0.159441
v 0.003151 -0.022042 0.096946
vn -0.448286 -0.890148 0.081706
v -0.007756 -0.018591 0.092955
vn -0.184262 -0.982730 -0.016996
v -0.001957 -0.023513 0.015656
vn -0.201866 -0.978538 0.041403
v -0.000007 -0.021823 0.090329
vn 0.999454 -0.012418 0.030613
v 0.032712 0.003966 0.086356
vn 0.996045 -0.069193 0.055746
v 0.032603 0.001957 0.086105
vn -0.892563 0.449522 0.035506
v -0.021526 0.016827 0.050880
vn 0.900991 0.399542 0.169062
v 0.030283 0.015617 0.091625
vn 0.826611 0.559547 -0.060178
v 0.028944 0.020706 0.013832
vn 0.580463 0.778711 0.238060
v 0.022009 0.025580 0.094006
vn -0.934017 0.355851 0.031327
v -0.022579 0.014210 0.051371
vn -0.985352 -0.165405 0.041505
v -0.022385 -0.000033 0.088987
vn -0.996202 -0.083432 -0.024912
v -0.024928 0.001957 0.011742
vn -0.710201 0.703159 0.034369
v -0.017303 0.021476 0.075342
vn 0.004331 0.991529 0.129811
v 0.004892 0.030766 0.093933
vn -0.376801 0.909328 0.176476
v -0.007100 0.028235 0.093933
vn 0.624383 -0.768904 -0.137596
v 0.023483 -0.017369 0.008806
vn 0.337283 -0.941098 -0.023959
v 0.013740 -0.023503 0.011744
vn -0.529793 0.022350 0.847832
v -0.017248 0.007719 0.104176
vn -0.999528 0.007232 0.029847
v -0.024344 0.005696 0.048233
vn 0.361835 0.272614 0.891491
v 0.021768 0.016095 0.104559
vn 0.062471 -0.997774 0.023326
v 0.007847 -0.023486 0.046967
vn 0.035093 -0.998202 0.048582
v 0.006849 -0.022213 0.091976
vn -0.664910 -0.741290 0.091562
v -0.013699 -0.014430 0.093933
vn -0.614826 -0.780389 0.113936
v -0.012015 -0.015867 0.093933
vn -0.133826 -0.990820 -0.019148
v 0.000000 -0.023871 0.015656
vn 0.792409 -0.607206 0.058221
v 0.027397 -0.010900 0.086105
vn 0.695364 -0.717851 0.034029
v 0.023483 -0.015080 0.090019
vn 0.994827 0.101585 -0.000364
v 0.033758 0.007808 0.013881
vn -0.842820 0.537088 0.034505
v -0.020332 0.018697 0.052837
vn -0.887855 0.458084 0.043276
v -0.019569 0.017030 0.091976
vn 0.805214 0.578711 0.129323
v 0.027700 0.019966 0.092345
vn 0.955736 0.263455 -0.130994
v 0.033179 0.011243 0.008652
vn 0.876910 0.477148 -0.057960
v 0.030892 0.017612 0.013699
vn -0.961980 0.263395 0.072228
v -0.021568 0.012415 0.091487
vn -0.941908 -0.217240 -0.256158
v -0.023252 -0.007983 0.007849
vn -0.798719 0.587068 0.131906
v -0.017836 0.019809 0.095139
vn -0.130385 0.796437 0.590497
v 0.003379 0.027904 0.102505
vn 0.537078 -0.842794 -0.035288
v 0.018963 -0.020958 0.011896
vn 0.659783 -0.751012 0.025853
v 0.023159 -0.016098 0.069471
vn 0.556070 -0.677431 0.481532
v 0.021437 -0.015107 0.100257
vn -0.252341 0.208222 0.944970
v -0.013075 0.015708 0.104661
vn -0.990236 0.122937 0.065718
v -0.022393 0.007461 0.091793
vn -0.899063 -0.411694 0.148976
v -0.020329 -0.005569 0.094204
vn -0.111136 -0.176140 -0.978071
v -0.011107 -0.019573 0.005871
vn 0.000358 -0.999706 0.024247
v 0.004598 -0.023583 0.043053
vn -0.971162 -0.131233 0.199053
v -0.022415 0.002568 0.096610
vn -0.826474 -0.538045 0.165677
v -0.016988 -0.010705 0.094601
vn -0.067045 -0.997656 0.013698
v 0.002719 -0.024172 0.018485
vn 0.005165 -0.984457 -0.175552
v 0.007334 -0.024158 0.007910
vn -0.978121 0.206365 0.026311
v -0.023581 0.011252 0.050391
vn -0.735075 0.462926 0.495343
v -0.018353 0.015578 0.101074
vn -0.886923 0.429633 0.169657
v -0.018526 0.018187 0.094918
vn -0.485460 0.836777 0.253246
v -0.009828 0.026862 0.095258
vn -0.312091 0.589174 0.745301
v -0.004975 0.025510 0.102899
vn 0.937874 -0.318572 0.137488
v 0.031283 -0.003466 0.093112
vn 0.448586 -0.893717 -0.006444
v 0.017755 -0.021597 0.013699
vn 0.391208 -0.903471 0.175205
v 0.013986 -0.020693 0.096345
vn 0.341852 -0.110240 0.933265
v 0.023404 -0.004062 0.104439
vn 0.982316 0.081324 0.168646
v 0.032377 0.007730 0.093259
vn 0.272630 0.830408 0.485897
v 0.011796 0.028809 0.100077
vn 0.183625 -0.881280 0.435462
v 0.007855 -0.021621 0.098714
vn -0.776351 -0.322484 0.541556
v -0.018317 -0.004163 0.101036
vn 0.736891 0.486587 0.469280
v 0.026045 0.018495 0.098536
vn -0.166178 -0.768808 0.617510
v -0.001325 -0.018351 0.102606
vn -0.691210 -0.675465 0.256858
v -0.015079 -0.012647 0.097755
vn 0.627621 -0.771763 0.102342
v 0.021381 -0.016707 0.095635
vn 0.492155 -0.869128 0.048984
v 0.017792 -0.019078 0.090998
vn -0.916264 0.133596 0.377640
v -0.021331 0.009131 0.099827
vn 0.754298 0.134774 0.642550
v 0.030043 0.006031 0.100740
vn -0.278940 0.935222 0.218066
v -0.002296 0.029927 0.094699
# 127 vertices, 0 vertices normals

f 14//14 8//8 5//5
f 14//14 9//9 1//1
f 14//14 5//5 9//9
f 34//34 13//13 3//3
f 30//30 8//8 14//14
f 47//47 66//66 1//1
f 47//47 1//1 9//9
f 19//19 9//9 5//5
f 19//19 5//5 34//34
f 24//24 38//38 48//48
f 25//25 38//38 11//11
f 106//106 12//12 74//74
f 27//27 8//8 4//4
f 27//27 4//4 17//17
f 29//29 4//4 8//8
f 67//67 3//3 13//13
f 30//30 14//14 1//1
f 52//52 34//34 3//3
f 127//127 9//9 19//19
f 35//35 19//19 34//34
f 35//35 34//34 21//21
f 100//100 38//38 25//25
f 41//41 11//11 26//26
f 44//44 112//112 4//4
f 116//116 85//85 7//7
f 89//89 29//29 8//8
f 89//89 85//85 29//29
f 61//61 4//4 29//29
f 64//64 7//7 46//46
f 65//65 30//30 1//1
f 47//47 9//9 20//20
f 47//47 20//20 66//66
f 66//66 88//88 1//1
f 50//50 92//92 49//49
f 50//50 31//31 92//92
f 51//51 52//52 3//3
f 52//52 32//32 34//34
f 70//70 51//51 93//93
f 15//15 9//9 127//127
f 53//53 20//20 9//9
f 53//53 9//9 33//33
f 110//110 21//21 34//34
f 54//54 127//127 19//19
f 54//54 19//19 35//35
f 73//73 17//17 4//4
f 55//55 36//36 4//4
f 98//98 10//10 23//23
f 23//23 10//10 77//77
f 37//37 115//115 10//10
f 106//106 16//16 39//39
f 106//106 39//39 12//12
f 16//16 26//26 39//39
f 92//92 38//38 100//100
f 122//122 104//104 11//11
f 58//58 41//41 26//26
f 59//59 60//60 26//26
f 59//59 26//26 16//16
f 22//22 2//2 112//112
f 112//112 2//2 28//28
f 4//4 112//112 28//28
f 89//89 8//8 30//30
f 62//62 44//44 4//4
f 62//62 4//4 61//61
f 63//63 3//3 67//67
f 109//109 93//93 18//18
f 109//109 18//18 45//45
f 89//89 46//46 7//7
f 89//89 7//7 85//85
f 107//107 13//13 48//48
f 107//107 48//48 31//31
f 92//92 48//48 38//38
f 67//67 13//13 107//107
f 67//67 107//107 91//91
f 67//67 91//91 45//45
f 67//67 45//45 63//63
f 125//125 45//45 91//91
f 68//68 49//49 92//92
f 68//68 92//92 6//6
f 69//69 76//76 31//31
f 69//69 31//31 50//50
f 69//69 50//50 49//49
f 86//86 93//93 51//51
f 70//70 32//32 52//52
f 71//71 9//9 15//15
f 117//117 53//53 33//33
f 72//72 35//35 21//21
f 73//73 4//4 36//36
f 73//73 36//36 95//95
f 95//95 12//12 17//17
f 95//95 17//17 73//73
f 96//96 36//36 55//55
f 123//123 95//95 36//36
f 123//123 36//36 96//96
f 76//76 49//49 68//68
f 76//76 69//69 49//49
f 10//10 115//115 77//77
f 101//101 38//38 24//24
f 11//11 104//104 25//25
f 78//78 74//74 40//40
f 79//79 78//78 40//40
f 79//79 40//40 118//118
f 80//80 122//122 11//11
f 80//80 11//11 81//81
f 81//81 11//11 41//41
f 58//58 26//26 42//42
f 82//82 59//59 16//16
f 82//82 16//16 106//106
f 82//82 105//105 60//60
f 82//82 60//60 59//59
f 60//60 42//42 26//26
f 57//57 42//42 60//60
f 83//83 43//43 4//4
f 84//84 55//55 4//4
f 84//84 4//4 43//43
f 84//84 43//43 123//123
f 84//84 96//96 55//55
f 85//85 61//61 29//29
f 116//116 61//61 85//85
f 116//116 112//112 44//44
f 116//116 44//44 62//62
f 116//116 62//62 61//61
f 86//86 63//63 18//18
f 86//86 18//18 93//93
f 86//86 3//3 63//63
f 87//87 63//63 45//45
f 87//87 45//45 18//18
f 87//87 18//18 63//63
f 89//89 64//64 46//46
f 90//90 64//64 89//89
f 90//90 30//30 65//65
f 88//88 65//65 1//1
f 20//20 117//117 66//66
f 31//31 48//48 92//92
f 31//31 76//76 107//107
f 68//68 103//103 76//76
f 103//103 68//68 6//6
f 86//86 51//51 3//3
f 93//93 32//32 70//70
f 70//70 52//52 51//51
f 71//71 33//33 9//9
f 117//117 20//20 53//53
f 110//110 72//72 21//21
f 97//97 22//22 37//37
f 22//22 115//115 37//37
f 113//113 74//74 12//12
f 113//113 12//12 95//95
f 96//96 84//84 123//123
f 123//123 97//97 114//114
f 108//108 75//75 98//98
f 99//99 76//76 103//103
f 99//99 91//91 107//107
f 120//120 77//77 126//126
f 11//11 38//38 101//101
f 11//11 101//101 39//39
f 11//11 39//39 26//26
f 101//101 24//24 48//48
f 101//101 48//48 13//13
f 101//101 13//13 34//34
f 101//101 34//34 5//5
f 101//101 5//5 8//8
f 101//101 8//8 27//27
f 101//101 27//27 17//17
f 101//101 17//17 12//12
f 101//101 12//12 39//39
f 119//119 125//125 103//103
f 103//103 6//6 92//92
f 103//103 92//92 100//100
f 100//100 25//25 104//104
f 103//103 100//100 119//119
f 106//106 74//74 78//78
f 106//106 102//102 105//105
f 106//106 78//78 102//102
f 105//105 57//57 60//60
f 121//121 57//57 118//118
f 42//42 10//10 41//41
f 122//122 80//80 81//81
f 41//41 58//58 42//42
f 122//122 81//81 41//41
f 106//106 105//105 82//82
f 112//112 116//116 22//22
f 97//97 2//2 22//22
f 28//28 83//83 4//4
f 97//97 123//123 2//2
f 30//30 90//90 89//89
f 108//108 45//45 125//125
f 7//7 64//64 116//116
f 88//88 90//90 65//65
f 88//88 64//64 90//90
f 120//120 64//64 88//88
f 107//107 76//76 99//99
f 109//109 108//108 93//93
f 72//72 54//54 35//35
f 15//15 33//33 71//71
f 32//32 110//110 34//34
f 108//108 98//98 111//111
f 113//113 56//56 74//74
f 114//114 74//74 56//56
f 124//124 123//123 114//114
f 95//95 124//124 113//113
f 97//97 118//118 114//114
f 119//119 122//122 10//10
f 75//75 10//10 98//98
f 10//10 75//75 119//119
f 125//125 91//91 99//99
f 99//99 103//103 125//125
f 117//117 23//23 77//77
f 117//117 94//94 23//23
f 121//121 37//37 10//10
f 118//118 37//37 121//121
f 79//79 57//57 102//102
f 79//79 102//102 78//78
f 104//104 119//119 100//100
f 118//118 57//57 79//79
f 121//121 42//42 57//57
f 122//122 41//41 10//10
f 2//2 43//43 83//83
f 2//2 123//123 43//43
f 2//2 83//83 28//28
f 116//116 120//120 126//126
f 116//116 64//64 120//120
f 109//109 45//45 108//108
f 120//120 88//88 66//66
f 75//75 108//108 125//125
f 127//127 54//54 72//72
f 120//120 117//117 77//77
f 120//120 66//66 117//117
f 15//15 117//117 33//33
f 117//117 15//15 94//94
f 110//110 108//108 111//111
f 110//110 93//93 108//108
f 22//22 126//126 115//115
f 118//118 74//74 114//114
f 118//118 40//40 74//74
f 124//124 56//56 113//113
f 124//124 114//114 56//56
f 118//118 97//97 37//37
f 119//119 75//75 125//125
f 111//111 23//23 94//94
f 126//126 77//77 115//115
f 102//102 57//57 105//105
f 104//104 122//122 119//119
f 121//121 10//10 42//42
f 126//126 22//22 116//116
f 93//93 110//110 32//32
f 127//127 72//72 110//110
f 110//110 111//111 94//94
f 124//124 95//95 123//123
f 23//23 111//111 98//98
f 127//127 94//94 15//15
f 127//127 110//110 94//94
# 250 faces, 0 coords texture

# End of File
