####
#
# OBJ File Generated by Meshlab
#
####
# Object krylon_short_cuts_250_collision.obj
#
# Vertices: 125
# Faces: 246
#
####
vn -0.010088 3.072708 -3.703388
v 0.009785 0.033268 0.009357
vn -1.804635 -1.341122 5.238076
v -0.011386 -0.007925 0.104666
vn 0.867383 -3.006411 -2.722961
v 0.013787 -0.023544 0.009784
vn 6.002668 0.813712 0.972914
v 0.032401 0.007813 0.091323
vn -5.618826 -0.527196 -1.645423
v -0.024571 -0.000371 0.010754
vn 3.108469 0.001650 -3.337155
v 0.033472 0.003875 0.009388
vn 2.934403 -4.895463 1.646827
v 0.019517 -0.017927 0.096417
vn -0.831634 5.092193 2.371403
v 0.000018 0.029686 0.099081
vn -2.380034 -1.989023 -2.975467
v -0.021559 -0.009912 0.009446
vn 4.846128 3.871052 -0.527847
v 0.028330 0.021512 0.013706
vn 1.772211 1.461548 5.181499
v 0.020920 0.017035 0.104576
vn -2.210344 -5.666767 0.815581
v -0.004304 -0.020495 0.093495
vn 5.207440 -3.317056 0.536384
v 0.029340 -0.008007 0.090380
vn -5.195223 1.715025 1.901149
v -0.020982 0.013730 0.096707
vn -2.724719 1.668499 -2.924556
v -0.020818 0.019653 0.009791
vn 2.059711 2.460179 -2.996020
v 0.021967 0.027403 0.009522
vn 5.923351 2.010082 -0.147846
v 0.032486 0.013699 0.013699
vn 2.270453 -1.242406 4.937969
v 0.023414 -0.006831 0.104281
vn -0.704570 2.411488 4.878232
v -0.001616 0.024295 0.104643
vn 4.614897 4.027660 0.707856
v 0.024919 0.023354 0.091652
vn 0.580763 -2.481709 4.890056
v 0.009133 -0.016264 0.104528
vn 0.840395 -6.179608 0.416849
v 0.009785 -0.022024 0.091976
vn -2.544733 -5.689713 -0.204095
v -0.007644 -0.021429 0.015656
vn -5.291621 -2.893655 0.878655
v -0.019729 -0.007198 0.092110
vn 6.160233 -0.943874 0.270896
v 0.032438 0.000084 0.088021
vn 2.174561 -2.413500 -2.814842
v 0.023355 -0.017883 0.009863
vn -3.245312 0.382100 -2.867985
v -0.024624 0.008565 0.009803
vn -3.958268 4.825764 0.429075
v -0.012390 0.025417 0.090019
vn 6.170282 0.614548 -0.408378
v 0.033771 0.007813 0.013056
vn 3.124645 1.466305 -3.270069
v 0.031303 0.015823 0.009806
vn 4.898157 -1.997477 2.224813
v 0.030177 -0.004520 0.098119
vn 1.207249 3.994374 3.917690
v 0.012801 0.026895 0.101547
vn -2.661899 0.951906 4.686406
v -0.015898 0.012338 0.104063
vn -3.051048 3.606067 3.181130
v -0.012896 0.022726 0.100361
vn 4.452490 1.927431 3.015637
v 0.028256 0.014540 0.100088
vn 4.137255 4.723305 0.021038
v 0.024865 0.024928 0.014677
vn 5.228273 3.256958 0.731051
v 0.029316 0.017548 0.090019
vn 0.994727 2.911108 -2.484061
v 0.013699 0.033268 0.009448
vn -1.566965 -3.948072 3.397607
v -0.004325 -0.018348 0.101661
vn 2.993358 -3.422019 3.336113
v 0.021564 -0.013800 0.101549
vn 2.499067 -5.713726 0.499152
v 0.015656 -0.020180 0.091976
vn 0.305457 -5.094374 2.581203
v 0.006277 -0.021331 0.099502
vn -3.801353 -4.636932 0.937905
v -0.012745 -0.015286 0.096268
vn -1.122855 -3.130912 -3.369101
v -0.005375 -0.021606 0.009881
vn -0.670672 -6.208284 -0.279496
v 0.001957 -0.024085 0.015656
vn -4.276835 -0.972388 3.342941
v -0.019779 -0.000362 0.101152
vn -3.454590 -1.398677 -2.456741
v -0.023224 -0.007827 0.009808
vn 3.117659 -1.433892 -2.839701
v 0.032124 -0.005871 0.009785
vn 4.220496 -4.413702 0.776546
v 0.022392 -0.016044 0.093570
vn 3.125568 -5.363336 -0.308478
v 0.018399 -0.021339 0.012285
vn -5.847202 -0.165455 1.386544
v -0.022524 0.004398 0.095016
vn -6.003286 1.640624 0.188038
v -0.023421 0.012190 0.051401
vn -3.027933 1.103103 -2.886951
v -0.023034 0.015121 0.009802
vn -4.486028 3.307037 1.719662
v -0.017791 0.019773 0.096672
vn -1.129309 3.259657 -2.941670
v -0.003914 0.031999 0.009785
vn 6.039070 1.625139 0.219591
v 0.031776 0.011739 0.086288
vn 6.258291 -0.347694 -0.106979
v 0.033757 0.001957 0.013699
vn 4.971769 3.475441 -0.982955
v 0.029715 0.019566 0.012758
vn 5.748633 1.321785 -1.338911
v 0.033049 0.011646 0.011491
vn 5.857577 -2.135046 0.297308
v 0.031395 -0.003844 0.088494
vn 5.968701 -0.664350 1.157278
v 0.032059 0.000196 0.094012
vn -2.719776 5.309028 1.046221
v -0.008704 0.027819 0.093632
vn 3.311714 3.782269 2.733058
v 0.022257 0.024093 0.098839
vn 4.086377 0.151758 3.732677
v 0.029471 0.004139 0.101681
vn 4.539114 4.199857 -0.557552
v 0.027447 0.022562 0.013742
vn 3.468469 4.966877 0.895567
v 0.021773 0.025988 0.093752
vn 5.653411 2.382161 0.801645
v 0.030301 0.015640 0.090240
vn 0.284805 6.002662 1.089445
v 0.007365 0.030876 0.094002
vn 1.725562 -6.001367 0.428807
v 0.011880 -0.021566 0.091976
vn -0.560609 -6.063005 0.900858
v 0.003921 -0.022138 0.094829
vn -2.996258 -5.441257 -0.401990
v -0.009740 -0.020311 0.014273
vn -3.697320 -3.349345 2.720977
v -0.013766 -0.013193 0.099904
vn 0.023230 -3.185562 -2.986893
v 0.007731 -0.024099 0.009783
vn -1.468578 -5.988875 -0.421450
v -0.001972 -0.023537 0.015729
vn 2.653700 -1.911141 -2.946496
v 0.029031 -0.011019 0.009786
vn 4.865926 -3.934596 0.130990
v 0.027219 -0.012435 0.052724
vn 2.980647 -5.525230 0.206302
v 0.017302 -0.019368 0.090998
vn -5.976916 -1.498667 0.642982
v -0.022110 -0.001108 0.090405
vn -6.261419 0.058821 0.159880
v -0.024273 0.005661 0.049263
vn -6.166072 1.041367 0.392831
v -0.022024 0.010274 0.091976
vn -5.538002 2.904303 0.172071
v -0.021360 0.017161 0.050913
vn -4.583230 4.072931 -0.569236
v -0.018102 0.023483 0.011741
vn -1.936444 2.559150 -2.865053
v -0.013818 0.027396 0.009784
vn 6.269065 -0.023749 -0.179303
v 0.033827 0.004892 0.013699
vn 6.146289 -0.765247 -0.502143
v 0.033573 0.000000 0.011742
vn 5.563343 2.821016 -0.255294
v 0.030892 0.017612 0.013699
vn 3.744429 -0.972563 -2.908226
v 0.032741 -0.003914 0.009785
vn 6.265429 -0.036585 0.198597
v 0.032715 0.003914 0.086105
vn -1.301579 6.100724 0.322283
v -0.002446 0.030412 0.082681
vn 1.679388 5.602835 1.352672
v 0.013836 0.029851 0.094581
vn 5.850898 1.643183 1.540849
v 0.030200 0.012344 0.095266
vn -0.344086 5.955281 -1.100065
v 0.005611 0.033506 0.010565
vn 2.164558 -5.849340 0.582511
v 0.013699 -0.020943 0.091976
vn 1.432947 -5.898566 1.174047
v 0.010782 -0.021623 0.094351
vn -3.174523 -5.415570 0.224986
v -0.006039 -0.019654 0.090019
vn -4.312347 -4.497562 -0.139482
v -0.016364 -0.015656 0.013699
vn 0.542210 -6.245099 0.161815
v 0.007837 -0.023506 0.045988
vn -1.218192 -6.134974 0.249392
v 0.000000 -0.021888 0.088062
vn 5.311486 -3.348758 0.105278
v 0.029067 -0.009785 0.049902
vn 4.711292 -4.119133 0.364609
v 0.023942 -0.014533 0.091242
vn -6.213921 -0.769549 0.196138
v -0.023992 0.002465 0.052788
vn -6.236349 0.700799 0.156385
v -0.024103 0.007944 0.048852
vn -4.586642 4.256614 0.233885
v -0.016700 0.022632 0.069528
vn -5.063730 3.694748 0.178860
v -0.019411 0.020163 0.051370
vn -1.443624 3.062376 -3.130719
v -0.010123 0.029354 0.009785
vn -3.660051 5.074641 0.174511
v -0.013699 0.026139 0.054794
vn 5.762887 2.485561 0.061343
v 0.031311 0.016667 0.015656
vn -2.131800 5.890020 0.202637
v -0.005831 0.029785 0.072896
vn 2.765322 5.630807 0.267279
v 0.017612 0.028330 0.090019
vn 0.112314 6.276368 0.198795
v 0.005871 0.032131 0.056751
vn -0.753203 3.604954 -2.889552
v -0.001958 0.032534 0.009785
vn -3.096978 -4.382864 -2.018446
v -0.013836 -0.017679 0.011494
vn 0.257500 -6.261559 0.331185
v 0.006849 -0.022213 0.091976
vn -0.006927 -6.275903 0.139728
v 0.005871 -0.023637 0.043053
vn -0.522775 -6.253617 0.162070
v 0.003325 -0.023529 0.043053
vn -1.626326 2.912128 -3.018227
v -0.012720 0.028044 0.009785
vn -4.249129 4.613249 0.200260
v -0.014476 0.025440 0.055773
vn -2.696610 5.640720 0.151756
v -0.008772 0.029327 0.047339
vn -0.574267 6.231263 0.210722
v 0.001776 0.032059 0.057767
vn -1.517891 6.077267 0.160276
v -0.001957 0.031566 0.052837
vn -3.874451 -4.942742 0.117851
v -0.015656 -0.016223 0.013699
vn -0.080340 -6.267738 -0.028826
v 0.003914 -0.024189 0.015656
vn -0.747943 -6.235149 0.170522
v 0.001957 -0.022731 0.066536
vn -2.647907 5.686542 0.019223
v -0.009785 0.029556 0.011742
vn -0.989508 6.200792 0.165439
v 0.000344 0.031940 0.054033
# 125 vertices, 0 vertices normals

f 9//9 6//6 3//3
f 9//9 1//1 6//6
f 15//15 1//1 9//9
f 16//16 6//6 1//1
f 19//19 2//2 11//11
f 21//21 18//18 11//11
f 21//21 11//11 2//2
f 26//26 3//3 6//6
f 30//30 6//6 16//16
f 32//32 19//19 11//11
f 32//32 8//8 19//19
f 33//33 2//2 19//19
f 34//34 19//19 8//8
f 34//34 33//33 19//19
f 37//37 10//10 20//20
f 38//38 16//16 1//1
f 39//39 21//21 2//2
f 40//40 18//18 21//21
f 40//40 31//31 18//18
f 42//42 40//40 21//21
f 42//42 7//7 40//40
f 42//42 21//21 39//39
f 43//43 24//24 9//9
f 43//43 12//12 39//39
f 46//46 33//33 14//14
f 46//46 2//2 33//33
f 47//47 9//9 24//24
f 47//47 27//27 9//9
f 47//47 5//5 27//27
f 49//49 13//13 31//31
f 49//49 40//40 7//7
f 49//49 31//31 40//40
f 50//50 3//3 26//26
f 50//50 49//49 7//7
f 50//50 26//26 49//49
f 50//50 41//41 3//3
f 51//51 46//46 14//14
f 53//53 15//15 9//9
f 53//53 9//9 27//27
f 53//53 27//27 52//52
f 54//54 14//14 33//33
f 54//54 33//33 34//34
f 56//56 4//4 29//29
f 58//58 30//30 16//16
f 58//58 10//10 37//37
f 59//59 29//29 6//6
f 59//59 6//6 30//30
f 59//59 30//30 17//17
f 59//59 56//56 29//29
f 59//59 17//17 56//56
f 60//60 31//31 13//13
f 60//60 13//13 48//48
f 61//61 60//60 25//25
f 61//61 31//31 60//60
f 62//62 34//34 8//8
f 62//62 54//54 34//34
f 62//62 28//28 54//54
f 63//63 32//32 11//11
f 63//63 11//11 35//35
f 63//63 37//37 20//20
f 63//63 35//35 37//37
f 64//64 35//35 11//11
f 64//64 11//11 18//18
f 64//64 18//18 31//31
f 64//64 31//31 61//61
f 64//64 61//61 4//4
f 64//64 4//4 35//35
f 65//65 16//16 36//36
f 65//65 36//36 20//20
f 65//65 20//20 10//10
f 65//65 58//58 16//16
f 65//65 10//10 58//58
f 66//66 36//36 16//16
f 66//66 20//20 36//36
f 66//66 16//16 38//38
f 66//66 63//63 20//20
f 67//67 37//37 35//35
f 67//67 4//4 56//56
f 67//67 56//56 17//17
f 69//69 22//22 3//3
f 70//70 42//42 39//39
f 70//70 39//39 12//12
f 70//70 22//22 42//42
f 71//71 44//44 23//23
f 72//72 43//43 39//39
f 72//72 39//39 2//2
f 72//72 2//2 46//46
f 72//72 46//46 24//24
f 72//72 24//24 43//43
f 73//73 44//44 9//9
f 73//73 9//9 3//3
f 74//74 12//12 23//23
f 74//74 73//73 45//45
f 74//74 23//23 44//44
f 74//74 44//44 73//73
f 75//75 26//26 6//6
f 75//75 6//6 48//48
f 76//76 26//26 75//75
f 77//77 50//50 7//7
f 77//77 7//7 41//41
f 77//77 41//41 50//50
f 78//78 47//47 24//24
f 78//78 24//24 46//46
f 78//78 46//46 51//51
f 79//79 27//27 5//5
f 80//80 51//51 14//14
f 80//80 14//14 52//52
f 81//81 53//53 52//52
f 81//81 15//15 53//53
f 81//81 52//52 14//14
f 81//81 14//14 54//54
f 83//83 1//1 15//15
f 83//83 15//15 82//82
f 84//84 6//6 29//29
f 85//85 57//57 25//25
f 85//85 84//84 57//57
f 85//85 6//6 84//84
f 86//86 17//17 30//30
f 86//86 30//30 58//58
f 86//86 58//58 37//37
f 86//86 37//37 67//67
f 87//87 60//60 48//48
f 87//87 25//25 60//60
f 87//87 85//85 25//25
f 87//87 48//48 6//6
f 87//87 6//6 85//85
f 88//88 61//61 25//25
f 88//88 4//4 61//61
f 88//88 84//84 29//29
f 88//88 29//29 4//4
f 88//88 25//25 57//57
f 88//88 57//57 84//84
f 89//89 62//62 8//8
f 89//89 8//8 68//68
f 90//90 32//32 63//63
f 90//90 63//63 66//66
f 90//90 68//68 8//8
f 90//90 8//8 32//32
f 90//90 38//38 68//68
f 91//91 67//67 35//35
f 91//91 35//35 4//4
f 91//91 4//4 67//67
f 92//92 38//38 1//1
f 93//93 69//69 3//3
f 93//93 3//3 41//41
f 93//93 41//41 7//7
f 94//94 42//42 22//22
f 94//94 22//22 69//69
f 94//94 7//7 42//42
f 94//94 93//93 7//7
f 94//94 69//69 93//93
f 95//95 71//71 23//23
f 95//95 23//23 12//12
f 95//95 12//12 43//43
f 95//95 43//43 71//71
f 96//96 43//43 9//9
f 97//97 73//73 3//3
f 97//97 3//3 22//22
f 98//98 70//70 12//12
f 98//98 12//12 74//74
f 98//98 74//74 45//45
f 99//99 75//75 48//48
f 99//99 48//48 13//13
f 99//99 76//76 75//75
f 99//99 13//13 76//76
f 100//100 49//49 26//26
f 100//100 26//26 76//76
f 100//100 76//76 13//13
f 100//100 13//13 49//49
f 101//101 5//5 47//47
f 101//101 47//47 78//78
f 101//101 79//79 5//5
f 101//101 78//78 51//51
f 101//101 51//51 79//79
f 102//102 52//52 27//27
f 102//102 27//27 79//79
f 102//102 80//80 52//52
f 102//102 79//79 51//51
f 102//102 51//51 80//80
f 103//103 54//54 28//28
f 104//104 82//82 15//15
f 104//104 15//15 81//81
f 104//104 103//103 82//82
f 104//104 81//81 54//54
f 104//104 54//54 103//103
f 105//105 55//55 1//1
f 106//106 28//28 62//62
f 107//107 86//86 67//67
f 107//107 67//67 17//17
f 107//107 17//17 86//86
f 108//108 62//62 89//89
f 109//109 90//90 66//66
f 109//109 66//66 38//38
f 109//109 38//38 90//90
f 110//110 68//68 38//38
f 110//110 38//38 92//92
f 111//111 92//92 1//1
f 111//111 1//1 55//55
f 112//112 71//71 43//43
f 112//112 96//96 9//9
f 112//112 44//44 71//71
f 112//112 9//9 44//44
f 113//113 97//97 22//22
f 113//113 22//22 70//70
f 114//114 113//113 70//70
f 114//114 97//97 113//113
f 115//115 114//114 70//70
f 116//116 105//105 1//1
f 116//116 1//1 83//83
f 117//117 103//103 28//28
f 117//117 28//28 106//106
f 117//117 82//82 103//103
f 117//117 106//106 83//83
f 117//117 83//83 82//82
f 118//118 62//62 108//108
f 118//118 108//108 55//55
f 118//118 106//106 62//62
f 118//118 116//116 83//83
f 118//118 83//83 106//106
f 119//119 110//110 92//92
f 119//119 92//92 111//111
f 119//119 89//89 68//68
f 119//119 68//68 110//110
f 120//120 108//108 89//89
f 120//120 111//111 55//55
f 120//120 55//55 108//108
f 121//121 112//112 43//43
f 121//121 43//43 96//96
f 121//121 96//96 112//112
f 122//122 45//45 73//73
f 122//122 115//115 45//45
f 122//122 114//114 115//115
f 122//122 73//73 97//97
f 122//122 97//97 114//114
f 123//123 98//98 45//45
f 123//123 45//45 115//115
f 123//123 115//115 70//70
f 123//123 70//70 98//98
f 124//124 118//118 55//55
f 124//124 55//55 105//105
f 124//124 105//105 116//116
f 124//124 116//116 118//118
f 125//125 119//119 111//111
f 125//125 111//111 120//120
f 125//125 120//120 89//89
f 125//125 89//89 119//119
# 246 faces, 0 coords texture

# End of File
