####
#
# OBJ File Generated by Meshlab
#
####
# Object crest_complete_minty_fresh_250_collision.obj
#
# Vertices: 125
# Faces: 246
#
####
vn -0.340633 -3.962462 -2.584937
v 0.007828 -0.020825 0.007828
vn -0.752654 2.350978 4.694259
v -0.001980 0.026096 0.115172
vn -1.181618 2.663703 -2.471637
v -0.012190 0.036304 0.005871
vn 2.993161 0.860106 -2.816799
v 0.019569 0.013699 0.006006
vn -5.951629 -1.938801 0.222947
v -0.019517 0.006021 0.013698
vn 4.207155 -1.600096 2.898960
v 0.020594 -0.005580 0.110417
vn 3.854154 4.923723 0.076857
v 0.006783 0.032360 0.083170
vn -1.503056 -2.642702 -3.164358
v -0.004314 -0.015656 0.005871
vn -5.931001 1.794512 0.586462
v -0.015977 0.026262 0.086609
vn 4.888373 -2.792282 -1.211831
v 0.019569 -0.015656 0.008879
vn 2.135505 2.266824 -2.955863
v 0.009785 0.027330 0.005871
vn 5.512954 2.636650 0.918443
v 0.018022 0.017753 0.105457
vn -2.069769 -5.576386 1.145873
v 0.002235 -0.015039 0.104078
vn 3.073938 -1.229136 -4.061323
v 0.019569 -0.014414 0.007828
vn -3.023300 -0.754136 -2.958957
v -0.019593 0.006140 0.005876
vn -1.570060 5.500206 0.942945
v -0.006228 0.035676 0.092544
vn 1.645046 5.260092 -1.352237
v -0.003914 0.037182 0.008915
vn -2.539073 1.765183 -2.863201
v -0.015783 0.032604 0.005850
vn 0.147630 0.058607 -6.279057
v 0.012720 0.021463 0.005871
vn 6.203949 0.547717 0.228975
v 0.022636 0.003702 0.098311
vn 1.064471 4.946952 2.235797
v 0.002621 0.032780 0.107462
vn 2.294404 0.748801 5.220913
v 0.016576 0.008434 0.114741
vn 5.098965 3.666918 -0.052367
v 0.013699 0.024570 0.080235
vn -2.093741 -5.841084 0.320356
v 0.003986 -0.018693 0.074800
vn -5.328630 -2.045705 1.874300
v -0.013110 0.005877 0.107430
vn 1.896865 -0.162311 -5.705688
v 0.019569 0.009785 0.006087
vn 2.025937 -2.749607 -2.739666
v 0.017629 -0.017601 0.007914
vn -2.361953 -1.994646 -2.762857
v -0.012387 -0.009392 0.005873
vn -6.129401 0.384327 -0.531336
v -0.021589 0.017454 0.014059
vn -3.554514 3.273391 2.602342
v -0.011082 0.027561 0.108798
vn -3.326118 5.033974 0.368199
v -0.011373 0.035701 0.069312
vn 2.369582 4.110494 -2.745811
v -0.001050 0.035245 0.007835
vn 2.283117 5.687892 0.330851
v 0.002058 0.035421 0.084928
vn 4.441738 0.494487 2.871518
v 0.021264 0.006022 0.111704
vn 5.934043 1.155159 0.715502
v 0.021945 0.007445 0.106538
vn 6.077739 -1.383156 0.115319
v 0.022425 -0.009667 0.083402
vn 3.693248 4.805477 0.787407
v 0.008360 0.030379 0.103116
vn 1.849295 2.643453 4.212590
v 0.007486 0.025844 0.114181
vn -1.917229 -1.880219 4.878892
v -0.002013 -0.004150 0.114820
vn 4.593399 4.264593 0.016921
v 0.009777 0.029564 0.081270
vn 4.303469 2.828392 -2.224052
v 0.017613 0.017612 0.006556
vn -2.679827 -5.534762 -0.506517
v -0.001974 -0.017489 0.009706
vn 1.243070 -3.440353 -2.988590
v 0.011742 -0.020106 0.007828
vn -5.398916 -2.674013 -0.831989
v -0.015679 -0.004161 0.007829
vn -4.997313 -3.738171 0.581968
v -0.006075 -0.007840 0.105163
vn -6.136504 -1.157838 -0.020265
v -0.020999 0.011635 0.013609
vn -6.068039 0.401625 0.953999
v -0.015703 0.017612 0.103718
vn -3.548134 0.808521 -3.186847
v -0.019570 0.023485 0.006279
vn -3.871265 0.935091 3.553402
v -0.012980 0.019848 0.111927
vn -1.621605 5.270488 2.095963
v -0.004522 0.033199 0.104594
vn -1.309755 6.011714 0.169636
v -0.008058 0.037267 0.062263
vn -5.029119 3.567679 0.190709
v -0.015966 0.031642 0.053621
vn -4.634030 3.841650 0.643209
v -0.013691 0.031889 0.083339
vn 0.406759 4.715347 -2.492743
v -0.006125 0.037182 0.007828
vn 3.099985 5.402346 -0.119558
v 0.001957 0.035204 0.056751
vn 0.606127 6.179178 0.361112
v -0.001957 0.036365 0.083170
vn 5.903831 -1.501201 0.755123
v 0.021987 -0.006515 0.101027
vn 1.393410 -1.556236 5.235010
v 0.013039 -0.005446 0.115166
vn 5.834440 2.288399 0.156799
v 0.019784 0.013828 0.102785
vn 3.852025 -0.405389 -2.857229
v 0.021526 -0.007718 0.007828
vn 4.777694 -3.927001 0.310876
v 0.019612 -0.015125 0.083050
vn 5.123722 3.312783 0.737204
v 0.015626 0.022146 0.106020
vn 3.480426 5.225093 0.248512
v 0.006611 0.031965 0.094300
vn 4.127624 3.343525 2.265320
v 0.013458 0.024283 0.109362
vn 4.153370 4.696041 -0.095314
v 0.007916 0.031363 0.079256
vn 4.912752 3.911832 -0.064207
v 0.011573 0.027372 0.079340
vn -1.539123 -6.002448 0.146523
v 0.005457 -0.020198 0.046588
vn -3.897964 -4.874912 0.042058
v -0.007392 -0.013970 0.015334
vn 0.716836 -3.760185 -2.900675
v 0.009785 -0.020639 0.007828
vn -5.798898 -2.385360 0.370164
v -0.017686 0.001957 0.017612
vn -4.597710 -2.614786 3.217293
v -0.007430 -0.001724 0.110680
vn -2.611037 -4.036536 2.880459
v -0.001017 -0.011938 0.109679
vn -5.245718 -3.413645 0.375866
v -0.013699 -0.006650 0.015656
vn -5.573160 -2.862192 0.443411
v -0.009785 -0.002192 0.101761
vn -6.180430 -0.409815 -0.208486
v -0.021591 0.015643 0.014477
vn -6.051966 -1.630078 0.430910
v -0.013699 0.007530 0.105675
vn -6.197864 0.783609 0.439644
v -0.016859 0.023483 0.082191
vn -5.855063 1.500314 1.431750
v -0.014893 0.019897 0.105518
vn -5.382364 -1.257079 2.189321
v -0.014083 0.009689 0.108108
vn -2.477387 -0.842419 4.810244
v -0.007551 0.006076 0.115151
vn -4.203255 4.120024 -1.465275
v -0.013276 0.035225 0.005914
vn -5.747642 2.428874 -0.209279
v -0.019841 0.025510 0.015415
vn -4.834185 3.402062 1.014371
v -0.013957 0.029838 0.091712
vn -5.861390 2.137868 0.333754
v -0.017761 0.027713 0.054794
vn 0.207371 6.252045 0.101830
v -0.005897 0.037375 0.060889
vn 3.352160 5.312041 -0.025130
v 0.003134 0.034749 0.082191
vn 1.723316 6.001397 0.007092
v -0.001957 0.036835 0.058708
vn 6.226983 -0.434885 0.327889
v 0.022911 -0.003425 0.093627
vn 0.397804 -3.965732 3.365674
v 0.009162 -0.014128 0.111135
vn 6.166167 -0.921275 -0.221938
v 0.021533 -0.007826 0.008299
vn 6.238953 0.400194 -0.007368
v 0.023152 -0.000902 0.082921
vn 5.587317 -2.646044 0.380693
v 0.021785 -0.011542 0.084398
vn 1.921665 -5.817514 0.328597
v 0.014642 -0.018978 0.080192
vn 3.906436 -3.496594 2.189889
v 0.019072 -0.010631 0.107309
vn 3.675356 5.086220 -0.120005
v 0.004494 0.033676 0.067514
vn -2.779544 -5.602522 0.129014
v 0.000000 -0.018141 0.035225
vn -4.575744 -4.264769 0.332066
v -0.009475 -0.011742 0.019569
vn -3.715003 -5.035715 0.295978
v 0.000000 -0.016595 0.070450
vn -5.670234 -2.599391 0.634374
v -0.012441 0.003914 0.105675
vn -5.154655 -3.111948 1.344223
v -0.007828 -0.005233 0.105675
vn -5.937516 -0.533016 1.395801
v -0.015167 0.013955 0.106299
vn -6.263416 0.278662 0.412581
v -0.016820 0.021526 0.084148
vn -5.059396 3.603766 0.030496
v -0.016729 0.031462 0.017561
vn -6.012451 1.628809 -0.203966
v -0.020565 0.023483 0.015656
vn -6.144985 1.147492 0.337425
v -0.018466 0.025440 0.052837
vn 0.863301 6.217543 0.047199
v -0.003945 0.037185 0.058708
vn 6.255970 0.547576 -0.198324
v 0.021066 0.000000 0.013699
vn 6.243854 -0.273275 -0.093100
v 0.023146 -0.003914 0.076321
vn 2.193162 -5.767878 0.060718
v 0.013541 -0.019881 0.049812
vn 2.951394 -5.138112 0.716270
v 0.016702 -0.017728 0.085570
vn -0.355837 -6.038653 0.686537
v 0.009259 -0.019298 0.084778
vn -3.535127 -5.161716 0.198783
v -0.003914 -0.016067 0.027397
vn -3.237497 -5.332171 0.424822
v 0.001957 -0.017559 0.076321
vn -3.840554 -4.849378 0.734875
v -0.002226 -0.011889 0.105921
vn -5.647661 -2.721398 0.419260
v -0.011356 0.001021 0.101575
vn -5.322676 -2.864797 1.371308
v -0.008553 -0.003914 0.105675
vn -4.424560 -3.689412 1.754049
v -0.004334 -0.009716 0.107381
vn -6.246274 0.555154 0.382266
v -0.019218 0.021526 0.046967
vn -6.178822 1.045521 0.215023
v -0.020924 0.021526 0.017612
vn 0.306022 -6.203612 0.070242
v 0.009785 -0.020639 0.045010
vn 1.142870 -5.481972 1.696945
v 0.011123 -0.015787 0.106065
vn -0.693139 -6.215553 0.242715
v 0.008704 -0.019573 0.076321
vn -4.162180 -4.687890 0.366249
v -0.001546 -0.014996 0.074364
vn 0.578312 -6.210131 0.194568
v 0.011742 -0.019743 0.073385
vn 3.304563 -5.090542 1.179795
v 0.016345 -0.015363 0.097602
# 125 vertices, 0 vertices normals

f 18//18 3//3 11//11
f 19//19 11//11 4//4
f 19//19 4//4 8//8
f 19//19 18//18 11//11
f 19//19 8//8 18//18
f 26//26 14//14 8//8
f 26//26 8//8 4//4
f 27//27 8//8 14//14
f 27//27 14//14 10//10
f 28//28 18//18 8//8
f 28//28 15//15 18//18
f 32//32 11//11 3//3
f 35//35 20//20 4//4
f 35//35 12//12 34//34
f 37//37 33//33 21//21
f 38//38 21//21 2//2
f 38//38 2//2 22//22
f 38//38 22//22 34//34
f 40//40 7//7 37//37
f 41//41 12//12 4//4
f 41//41 4//4 11//11
f 42//42 8//8 1//1
f 43//43 8//8 27//27
f 44//44 5//5 15//15
f 44//44 15//15 28//28
f 46//46 15//15 5//5
f 48//48 18//18 15//15
f 48//48 15//15 29//29
f 49//49 2//2 30//30
f 50//50 21//21 16//16
f 50//50 16//16 30//30
f 50//50 30//30 2//2
f 50//50 2//2 21//21
f 51//51 3//3 31//31
f 51//51 31//31 16//16
f 52//52 31//31 3//3
f 53//53 16//16 31//31
f 53//53 31//31 52//52
f 54//54 32//32 3//3
f 54//54 17//17 32//32
f 54//54 3//3 51//51
f 55//55 32//32 17//17
f 55//55 11//11 32//32
f 56//56 16//16 21//21
f 56//56 21//21 33//33
f 56//56 51//51 16//16
f 57//57 34//34 6//6
f 57//57 35//35 34//34
f 58//58 34//34 22//22
f 58//58 6//6 34//34
f 58//58 22//22 2//2
f 59//59 35//35 4//4
f 59//59 4//4 12//12
f 59//59 12//12 35//35
f 60//60 10//10 14//14
f 60//60 14//14 26//26
f 60//60 26//26 4//4
f 61//61 27//27 10//10
f 62//62 41//41 23//23
f 62//62 12//12 41//41
f 62//62 40//40 37//37
f 63//63 37//37 7//7
f 63//63 7//7 33//33
f 63//63 33//33 37//37
f 64//64 37//37 21//21
f 64//64 21//21 38//38
f 64//64 62//62 37//37
f 64//64 38//38 34//34
f 64//64 34//34 12//12
f 64//64 12//12 62//62
f 65//65 40//40 11//11
f 65//65 7//7 40//40
f 66//66 23//23 41//41
f 66//66 62//62 23//23
f 66//66 41//41 11//11
f 66//66 11//11 40//40
f 66//66 40//40 62//62
f 67//67 42//42 1//1
f 68//68 28//28 8//8
f 68//68 8//8 42//42
f 69//69 1//1 8//8
f 69//69 8//8 43//43
f 70//70 25//25 5//5
f 70//70 5//5 44//44
f 72//72 39//39 71//71
f 73//73 44//44 28//28
f 73//73 28//28 45//45
f 75//75 29//29 15//15
f 75//75 15//15 46//46
f 75//75 47//47 29//29
f 76//76 46//46 5//5
f 76//76 5//5 25//25
f 77//77 47//47 9//9
f 78//78 9//9 47//47
f 78//78 49//49 30//30
f 78//78 47//47 49//49
f 79//79 76//76 25//25
f 79//79 46//46 76//76
f 80//80 2//2 49//49
f 80//80 49//49 79//79
f 80//80 58//58 2//2
f 80//80 39//39 58//58
f 80//80 71//71 39//39
f 80//80 79//79 25//25
f 80//80 25//25 71//71
f 81//81 52//52 3//3
f 81//81 3//3 18//18
f 82//82 18//18 48//48
f 83//83 30//30 16//16
f 83//83 16//16 53//53
f 83//83 53//53 9//9
f 83//83 78//78 30//30
f 83//83 9//9 78//78
f 84//84 53//53 52//52
f 84//84 9//9 53//53
f 84//84 52//52 82//82
f 85//85 54//54 51//51
f 85//85 17//17 54//54
f 85//85 51//51 56//56
f 86//86 55//55 33//33
f 86//86 33//33 7//7
f 87//87 55//55 17//17
f 87//87 33//33 55//55
f 87//87 56//56 33//33
f 88//88 57//57 36//36
f 88//88 20//20 35//35
f 88//88 35//35 57//57
f 89//89 6//6 58//58
f 89//89 72//72 13//13
f 89//89 58//58 39//39
f 89//89 39//39 72//72
f 90//90 36//36 10//10
f 90//90 10//10 60//60
f 91//91 4//4 20//20
f 91//91 20//20 88//88
f 92//92 61//61 10//10
f 92//92 10//10 36//36
f 92//92 36//36 57//57
f 94//94 57//57 6//6
f 94//94 92//92 57//57
f 94//94 61//61 92//92
f 94//94 6//6 89//89
f 95//95 7//7 65//65
f 95//95 65//65 11//11
f 95//95 11//11 55//55
f 95//95 86//86 7//7
f 95//95 55//55 86//86
f 96//96 67//67 24//24
f 96//96 42//42 67//67
f 97//97 45//45 28//28
f 97//97 28//28 68//68
f 99//99 70//70 44//44
f 99//99 25//25 70//70
f 100//100 73//73 45//45
f 100//100 44//44 73//73
f 101//101 75//75 46//46
f 101//101 47//47 75//75
f 101//101 46//46 79//79
f 101//101 79//79 49//49
f 101//101 49//49 47//47
f 102//102 77//77 29//29
f 102//102 29//29 47//47
f 102//102 47//47 77//77
f 103//103 81//81 18//18
f 103//103 52//52 81//81
f 103//103 82//82 52//52
f 103//103 18//18 82//82
f 104//104 82//82 48//48
f 104//104 48//48 29//29
f 104//104 84//84 82//82
f 105//105 77//77 9//9
f 105//105 9//9 84//84
f 105//105 84//84 104//104
f 106//106 85//85 56//56
f 106//106 56//56 87//87
f 106//106 87//87 17//17
f 106//106 17//17 85//85
f 107//107 91//91 60//60
f 107//107 60//60 4//4
f 107//107 4//4 91//91
f 108//108 90//90 60//60
f 108//108 60//60 91//91
f 108//108 36//36 90//90
f 108//108 91//91 88//88
f 108//108 88//88 36//36
f 109//109 43//43 27//27
f 109//109 69//69 43//43
f 110//110 27//27 61//61
f 110//110 109//109 27//27
f 110//110 93//93 109//109
f 110//110 61//61 94//94
f 111//111 13//13 24//24
f 112//112 68//68 42//42
f 112//112 42//42 96//96
f 112//112 98//98 68//68
f 113//113 24//24 13//13
f 113//113 96//96 24//24
f 113//113 112//112 96//96
f 113//113 98//98 112//112
f 114//114 98//98 113//113
f 114//114 113//113 13//13
f 114//114 13//13 72//72
f 115//115 99//99 44//44
f 115//115 44//44 74//74
f 115//115 74//74 99//99
f 116//116 100//100 71//71
f 116//116 71//71 25//25
f 116//116 25//25 99//99
f 116//116 99//99 74//74
f 116//116 74//74 44//44
f 116//116 44//44 100//100
f 117//117 72//72 71//71
f 117//117 71//71 100//100
f 117//117 100//100 45//45
f 117//117 114//114 72//72
f 117//117 45//45 97//97
f 117//117 97//97 114//114
f 118//118 105//105 29//29
f 118//118 29//29 77//77
f 118//118 77//77 105//105
f 119//119 105//105 104//104
f 119//119 104//104 29//29
f 119//119 29//29 105//105
f 120//120 1//1 69//69
f 120//120 69//69 109//109
f 120//120 67//67 1//1
f 121//121 94//94 89//89
f 121//121 111//111 93//93
f 121//121 93//93 110//110
f 121//121 89//89 13//13
f 121//121 13//13 111//111
f 122//122 111//111 24//24
f 122//122 24//24 67//67
f 122//122 67//67 120//120
f 123//123 114//114 97//97
f 123//123 97//97 68//68
f 123//123 68//68 98//98
f 123//123 98//98 114//114
f 124//124 120//120 109//109
f 124//124 109//109 93//93
f 124//124 93//93 111//111
f 124//124 122//122 120//120
f 124//124 111//111 122//122
f 125//125 121//121 110//110
f 125//125 110//110 94//94
f 125//125 94//94 121//121
# 246 faces, 0 coords texture

# End of File
