####
#
# OBJ File Generated by Meshlab
#
####
# Object red_bull_250_collision.obj
#
# Vertices: 127
# Faces: 250
#
####
vn 0.773567 0.628155 -0.083761
v 0.027397 0.015656 0.011222
vn 0.295026 -0.955485 0.002890
v 0.010172 -0.029354 0.011742
vn 0.480148 0.702246 -0.525650
v 0.011742 0.027397 0.007193
vn 0.986421 -0.162975 -0.020325
v 0.031828 -0.001957 0.011742
vn -0.345370 -0.865887 0.361884
v -0.009597 -0.023556 0.130462
vn 0.528438 0.164942 -0.832795
v 0.028860 0.007828 0.007828
vn -0.219741 0.091896 -0.971220
v -0.027424 0.007828 0.005871
vn 0.422967 -0.274429 -0.863590
v 0.021526 -0.010703 0.005871
vn -0.320405 -0.940022 -0.117046
v -0.015656 -0.027397 0.009543
vn 0.965074 0.238483 0.108435
v 0.025172 0.005871 0.120352
vn 0.241771 0.211319 -0.947043
v 0.013699 0.022029 0.005871
vn 0.371193 0.920760 0.120066
v 0.009785 0.024987 0.121330
vn -0.565214 -0.148344 -0.811497
v -0.029487 -0.009750 0.006408
vn 0.040272 0.542470 -0.839109
v -0.003862 0.031548 0.006291
vn 0.904223 -0.393587 0.165742
v 0.023560 -0.009938 0.123467
vn 0.683788 -0.497863 -0.533448
v 0.030204 -0.003914 0.009785
vn 0.171154 0.040958 -0.984393
v 0.023671 0.006849 0.005871
vn -0.994105 -0.107021 -0.017397
v -0.031895 -0.009785 0.017612
vn 0.015662 -0.994515 0.103414
v 0.000000 -0.026321 0.123287
vn -0.534977 -0.673781 -0.509724
v -0.021526 -0.023483 0.007881
vn 0.863762 0.477849 0.159921
v 0.022265 0.013699 0.121330
vn 0.451518 0.890458 0.056703
v 0.011742 0.024103 0.121330
vn -0.670150 0.703889 -0.235457
v -0.023483 0.023483 0.007502
vn -0.010695 0.027021 -0.999578
v -0.009295 0.021562 0.005871
vn 0.989386 -0.080440 0.121017
v 0.025630 -0.001957 0.119373
vn 0.163034 -0.209129 -0.964202
v 0.016253 -0.015656 0.005871
vn -0.097921 -0.759838 -0.642696
v -0.010700 -0.027397 0.007828
vn 0.806051 -0.499631 -0.317256
v 0.030031 -0.005871 0.011742
vn 0.803115 -0.218283 -0.554399
v 0.031311 -0.002195 0.009785
vn -0.974928 -0.181040 0.129385
v -0.027703 -0.003914 0.123287
vn -0.464463 -0.875762 0.131586
v -0.013340 -0.023437 0.123008
vn -0.899733 0.413654 0.139180
v -0.025532 0.011782 0.124193
vn -0.711095 0.684531 0.160505
v -0.021648 0.017750 0.123287
vn -0.074647 -0.994528 0.073088
v -0.001957 -0.026356 0.121330
vn -0.846748 -0.354332 -0.396820
v -0.028951 -0.014905 0.007844
vn -0.686099 -0.725160 0.058402
v -0.019569 -0.018895 0.123287
vn 0.614018 0.039701 0.788293
v 0.021193 -0.001038 0.134186
vn 0.896190 0.367244 -0.248950
v 0.029402 0.011753 0.009971
vn 0.501526 0.436238 -0.747107
v 0.019771 0.020548 0.008455
vn 0.958233 0.165319 -0.233367
v 0.030365 0.007865 0.009767
vn 0.984162 0.068454 0.163519
v 0.025351 0.003984 0.123010
vn -0.257322 0.961507 -0.096383
v -0.009791 0.031325 0.006549
vn -0.028059 0.995680 0.088507
v -0.000116 0.027098 0.123761
vn -0.511405 0.853636 0.098844
v -0.015656 0.022653 0.123287
vn 0.966616 -0.194525 0.166773
v 0.024166 -0.007928 0.123879
vn 0.037437 -0.404854 -0.913615
v -0.000244 -0.025434 0.005874
vn 0.679304 -0.696480 -0.231217
v 0.011740 -0.028353 0.011698
vn 0.572463 -0.817456 0.063649
v 0.014335 -0.021526 0.121330
vn -0.088998 -0.988992 -0.118211
v -0.003914 -0.028604 0.009785
vn -0.038456 -0.113491 -0.992795
v -0.004917 -0.024679 0.005871
vn 0.000000 0.000000 0.000000
v -0.026034 -0.009785 0.123287
vn -0.981435 0.135281 0.135957
v -0.028077 0.001957 0.123287
vn -0.981519 -0.087453 -0.170211
v -0.032100 0.001922 0.009438
vn -0.994963 -0.006017 0.100062
v -0.028100 -0.000045 0.124715
vn -0.566147 -0.812277 0.140300
v -0.016297 -0.021526 0.123287
vn -0.915166 0.147223 -0.375229
v -0.031940 0.007852 0.008054
vn 0.181158 -0.960936 0.209247
v 0.003742 -0.025775 0.124406
vn 0.471703 -0.859395 0.197326
v 0.011233 -0.023212 0.125512
vn -0.019832 -0.999650 0.017538
v 0.009785 -0.029354 0.012057
vn -0.179010 -0.977289 0.113406
v -0.007854 -0.025447 0.123287
vn -0.124309 -0.132070 -0.983415
v -0.022546 -0.014890 0.005869
vn 0.688920 -0.569938 0.447839
v 0.017385 -0.015841 0.132550
vn 0.828381 0.557092 0.058594
v 0.021526 0.015092 0.119373
vn 0.899137 0.408565 0.156930
v 0.023375 0.011491 0.121330
vn 0.996411 -0.004986 0.084504
v 0.025607 0.000978 0.120352
vn 0.486423 0.863332 0.134348
v 0.013718 0.022904 0.123255
vn 0.275922 0.958320 0.074097
v 0.005652 0.026617 0.119791
vn -0.283183 0.943013 0.174740
v -0.009785 0.025625 0.123287
vn -0.213065 0.011359 -0.976972
v -0.028291 0.002935 0.005871
vn -0.364241 0.579193 -0.729290
v -0.017614 0.027397 0.006325
vn -0.462345 0.881126 0.099272
v -0.013964 0.023623 0.123287
vn -0.794797 0.448448 -0.408892
v -0.027535 0.018573 0.007929
vn -0.767806 0.608803 0.199581
v -0.023112 0.015972 0.124060
vn 0.072454 0.142497 -0.987140
v 0.010146 0.024540 0.005871
vn 0.254372 0.961453 -0.104417
v 0.004579 0.031325 0.007816
vn 0.982783 -0.164379 0.084367
v 0.025395 -0.003679 0.119373
vn 0.756527 -0.638557 0.141112
v 0.019558 -0.016421 0.126152
vn 0.643268 -0.760608 0.087650
v 0.016206 -0.020062 0.121330
vn -0.111162 -0.990959 0.075117
v -0.003914 -0.026182 0.121330
vn -0.187155 -0.734843 -0.651903
v -0.014492 -0.026742 0.008168
vn -0.869572 -0.493685 -0.010957
v -0.031311 -0.013431 0.017613
vn -0.826379 -0.547963 0.129748
v -0.024001 -0.013699 0.123287
vn -0.637307 -0.764883 0.093772
v -0.018813 -0.019569 0.123287
vn 0.288003 -0.954975 0.071252
v 0.005946 -0.025467 0.121330
vn 0.241997 -0.827914 -0.505960
v 0.009360 -0.029354 0.009785
vn 0.680406 0.732116 0.032464
v 0.016721 0.020726 0.119373
vn 0.937730 0.312487 0.151705
v 0.024038 0.009785 0.121330
vn 0.526269 0.766707 0.367697
v 0.012457 0.022041 0.130728
vn -0.219182 0.972894 0.073728
v -0.006849 0.026414 0.122309
vn -0.403286 0.906589 0.124326
v -0.010244 0.025440 0.123287
vn 0.175314 0.963289 0.203319
v 0.001971 0.026948 0.125657
vn 0.889111 -0.455645 0.043241
v 0.023483 -0.010317 0.121330
vn -0.957119 -0.257268 0.133182
v -0.027397 -0.005266 0.123287
vn -0.895475 -0.405472 0.183623
v -0.025001 -0.011421 0.126591
vn -0.181407 0.931798 0.314394
v -0.005252 0.025554 0.129768
vn -0.322812 -0.398985 0.858256
v -0.014049 -0.018662 0.134219
vn -0.432590 0.625017 0.649784
v -0.015754 0.018845 0.134057
vn -0.393804 0.884262 0.250996
v -0.012600 0.023785 0.125953
vn -0.671888 0.730651 0.121308
v -0.019696 0.019690 0.123287
vn -0.600167 0.773109 0.205186
v -0.017301 0.021491 0.124754
vn -0.454075 -0.885190 0.101263
v -0.023483 -0.014481 0.123287
vn 0.812978 0.579982 0.051841
v 0.021127 0.015656 0.119373
vn 0.712816 0.695879 0.087438
v 0.017967 0.019569 0.119373
vn 0.920652 0.246098 0.303045
v 0.023725 0.006640 0.126313
vn 0.959968 0.245609 0.134673
v 0.024586 0.007828 0.121330
vn -0.170792 0.971988 0.161460
v -0.003820 0.026969 0.123278
vn 0.860452 -0.507698 -0.043191
v 0.029377 -0.007828 0.013699
vn -0.648379 0.264833 0.713771
v -0.023701 0.009005 0.133846
vn -0.875752 -0.055154 0.479600
v -0.026342 -0.000743 0.132338
vn 0.113088 -0.619354 0.776925
v 0.002521 -0.022003 0.134169
vn -0.953310 0.244230 0.177630
v -0.026917 0.007820 0.124673
vn 0.480046 -0.266408 0.835813
v 0.018051 -0.013087 0.133938
vn 0.874800 -0.462706 0.143627
v 0.021560 -0.013698 0.123008
vn -0.032213 -0.963530 0.265656
v -0.001896 -0.025647 0.126098
vn 0.269154 -0.865827 0.421782
v 0.007951 -0.022921 0.129076
vn 0.775930 0.626532 0.073425
v 0.019653 0.017707 0.119373
vn 0.772007 0.620226 0.139017
v 0.020560 0.016260 0.121330
vn 0.668863 0.736742 0.099165
v 0.015706 0.021607 0.120820
vn -0.679812 -0.702941 0.209118
v -0.021374 -0.016822 0.126478
vn 0.045212 0.639885 0.767139
v -0.000879 0.023673 0.134098
vn 0.296346 0.336172 0.893962
v 0.012205 0.018678 0.134211
vn -0.924743 -0.259597 0.278317
v -0.026178 -0.004854 0.129306
vn -0.276967 -0.949663 0.146387
v -0.009603 -0.024853 0.124698
vn 0.915344 -0.187639 0.356282
v 0.023573 -0.005259 0.128011
vn -0.715217 -0.577219 0.394060
v -0.021935 -0.013527 0.131919
vn -0.008225 0.003217 0.999961
v -0.006456 0.001158 0.135328
vn 0.770929 0.454466 0.446240
v 0.019278 0.014830 0.131142
# 127 vertices, 0 vertices normals

f 118//118 1//1 3//3
f 11//11 6//6 17//17
f 24//24 7//7 70//70
f 14//14 3//3 74//74
f 15//15 107//107 4//4
f 17//17 6//6 8//8
f 39//39 38//38 6//6
f 39//39 11//11 3//3
f 39//39 6//6 11//11
f 39//39 3//3 1//1
f 74//74 3//3 11//11
f 23//23 7//7 72//72
f 75//75 3//3 14//14
f 75//75 22//22 3//3
f 75//75 12//12 22//22
f 26//26 8//8 85//85
f 47//47 2//2 85//85
f 27//27 46//46 85//85
f 28//28 4//4 107//107
f 29//29 16//16 8//8
f 29//29 8//8 6//6
f 29//29 40//40 4//4
f 29//29 6//6 40//40
f 29//29 28//28 16//16
f 29//29 4//4 28//28
f 30//30 18//18 81//81
f 53//53 81//81 18//18
f 32//32 56//56 111//111
f 32//32 72//72 56//56
f 61//61 20//20 13//13
f 35//35 20//20 81//81
f 35//35 13//13 20//20
f 36//36 81//81 20//20
f 39//39 1//1 38//38
f 40//40 6//6 38//38
f 41//41 4//4 40//40
f 66//66 118//118 3//3
f 66//66 3//3 22//22
f 67//67 12//12 75//75
f 43//43 14//14 42//42
f 71//71 42//42 70//70
f 72//72 7//7 56//56
f 69//69 56//56 7//7
f 69//69 13//13 56//56
f 44//44 23//23 100//100
f 44//44 70//70 23//23
f 74//74 24//24 14//14
f 14//14 24//24 70//70
f 14//14 70//70 42//42
f 46//46 26//26 85//85
f 77//77 47//47 107//107
f 47//47 85//85 8//8
f 47//47 8//8 16//16
f 47//47 16//16 28//28
f 47//47 28//28 107//107
f 48//48 58//58 2//2
f 48//48 2//2 47//47
f 49//49 27//27 85//85
f 50//50 46//46 27//27
f 50//50 20//20 61//61
f 80//80 50//50 27//27
f 52//52 56//56 54//54
f 53//53 54//54 56//56
f 53//53 18//18 54//54
f 54//54 18//18 30//30
f 35//35 81//81 53//53
f 55//55 20//20 9//9
f 99//99 100//100 23//23
f 57//57 19//19 2//2
f 57//57 2//2 84//84
f 59//59 34//34 49//49
f 59//59 2//2 19//19
f 59//59 19//19 34//34
f 119//119 81//81 36//36
f 63//63 21//21 1//1
f 64//64 38//38 1//1
f 64//64 1//1 21//21
f 10//10 40//40 38//38
f 10//10 41//41 40//40
f 67//67 75//75 91//91
f 106//106 43//43 42//42
f 69//69 61//61 13//13
f 70//70 7//7 23//23
f 71//71 70//70 44//44
f 73//73 33//33 23//23
f 73//73 23//23 72//72
f 75//75 14//14 43//43
f 75//75 43//43 91//91
f 76//76 4//4 25//25
f 76//76 25//25 45//45
f 45//45 15//15 4//4
f 80//80 49//49 9//9
f 80//80 27//27 49//49
f 80//80 9//9 20//20
f 79//79 49//49 34//34
f 79//79 9//9 49//49
f 79//79 60//60 9//9
f 50//50 26//26 46//46
f 50//50 61//61 69//69
f 50//50 8//8 26//26
f 50//50 17//17 8//8
f 50//50 69//69 7//7
f 50//50 7//7 24//24
f 50//50 11//11 17//17
f 50//50 74//74 11//11
f 50//50 24//24 74//74
f 80//80 20//20 50//50
f 109//109 52//52 54//54
f 13//13 53//53 56//56
f 13//13 35//35 53//53
f 83//83 36//36 20//20
f 83//83 20//20 55//55
f 84//84 2//2 58//58
f 85//85 59//59 49//49
f 85//85 2//2 59//59
f 123//123 31//31 9//9
f 81//81 119//119 125//125
f 117//117 21//21 63//63
f 86//86 1//1 118//118
f 65//65 25//25 4//4
f 41//41 65//65 4//4
f 66//66 22//22 12//12
f 89//89 106//106 42//42
f 90//90 68//68 42//42
f 90//90 42//42 71//71
f 32//32 73//73 72//72
f 91//91 43//43 95//95
f 92//92 113//113 107//107
f 92//92 107//107 15//15
f 92//92 15//15 113//113
f 78//78 48//48 47//47
f 77//77 78//78 47//47
f 114//114 79//79 34//34
f 114//114 34//34 19//19
f 93//93 30//30 81//81
f 94//94 51//51 81//81
f 94//94 81//81 82//82
f 109//109 54//54 30//30
f 31//31 55//55 9//9
f 119//119 36//36 83//83
f 94//94 81//81 51//51
f 94//94 93//93 81//81
f 111//111 56//56 52//52
f 98//98 44//44 100//100
f 98//98 71//71 44//44
f 99//99 23//23 33//33
f 100//100 99//99 33//33
f 100//100 33//33 73//73
f 106//106 95//95 43//43
f 60//60 123//123 9//9
f 123//123 5//5 31//31
f 101//101 82//82 81//81
f 101//101 81//81 125//125
f 124//124 15//15 45//45
f 124//124 62//62 15//15
f 62//62 124//124 112//112
f 127//127 121//121 37//37
f 124//124 104//104 37//37
f 112//112 124//124 37//37
f 57//57 114//114 19//19
f 115//115 114//114 57//57
f 115//115 58//58 62//62
f 102//102 63//63 1//1
f 102//102 1//1 116//116
f 102//102 116//116 117//117
f 102//102 117//117 63//63
f 103//103 1//1 86//86
f 104//104 64//64 21//21
f 127//127 21//21 117//117
f 105//105 10//10 38//38
f 105//105 38//38 87//87
f 64//64 87//87 38//38
f 64//64 104//104 87//87
f 41//41 25//25 65//65
f 88//88 121//121 127//127
f 88//88 127//127 117//117
f 91//91 95//95 120//120
f 89//89 42//42 68//68
f 89//89 68//68 106//106
f 4//4 76//76 45//45
f 107//107 113//113 77//77
f 58//58 78//78 77//77
f 125//125 94//94 82//82
f 125//125 82//82 101//101
f 5//5 55//55 31//31
f 122//122 30//30 93//93
f 112//112 110//110 62//62
f 110//110 96//96 5//5
f 110//110 114//114 115//115
f 111//111 52//52 109//109
f 125//125 96//96 109//109
f 73//73 97//97 100//100
f 108//108 97//97 73//73
f 123//123 114//114 5//5
f 104//104 41//41 10//10
f 126//126 121//121 120//120
f 126//126 112//112 37//37
f 88//88 120//120 121//121
f 113//113 15//15 62//62
f 57//57 58//58 115//115
f 62//62 58//58 77//77
f 58//58 48//48 78//78
f 116//116 1//1 103//103
f 117//117 116//116 103//103
f 118//118 103//103 86//86
f 118//118 117//117 103//103
f 127//127 104//104 21//21
f 41//41 45//45 25//25
f 88//88 66//66 91//91
f 118//118 66//66 88//88
f 91//91 66//66 12//12
f 88//88 91//91 120//120
f 108//108 73//73 32//32
f 124//124 45//45 41//41
f 113//113 62//62 77//77
f 114//114 60//60 79//79
f 109//109 108//108 111//111
f 119//119 83//83 55//55
f 96//96 119//119 5//5
f 126//126 120//120 97//97
f 97//97 108//108 126//126
f 126//126 108//108 96//96
f 110//110 126//126 96//96
f 125//125 122//122 94//94
f 122//122 109//109 30//30
f 122//122 93//93 94//94
f 115//115 62//62 110//110
f 114//114 110//110 5//5
f 109//109 122//122 125//125
f 32//32 111//111 108//108
f 98//98 100//100 97//97
f 98//98 95//95 106//106
f 95//95 98//98 97//97
f 123//123 60//60 114//114
f 104//104 10//10 105//105
f 104//104 105//105 87//87
f 104//104 127//127 37//37
f 126//126 37//37 121//121
f 57//57 84//84 58//58
f 118//118 88//88 117//117
f 91//91 12//12 67//67
f 98//98 90//90 71//71
f 98//98 68//68 90//90
f 98//98 106//106 68//68
f 41//41 104//104 124//124
f 5//5 119//119 55//55
f 119//119 96//96 125//125
f 108//108 109//109 96//96
f 126//126 110//110 112//112
f 120//120 95//95 97//97
# 250 faces, 0 coords texture

# End of File
