####
#
# OBJ File Generated by Meshlab
#
####
# Object red_bull_250_collision.obj
#
# Vertices: 127
# Faces: 250
#
####
vn -0.135859 0.094032 0.986256
v 0.002323 -0.008023 0.002449
vn 0.800916 -0.296658 0.520122
v -0.023312 0.008065 0.007249
vn 0.010985 0.987315 0.158391
v -0.003676 -0.024223 0.019665
vn 0.650516 0.759418 0.010647
v -0.020647 -0.020029 0.086583
vn -0.600497 0.797449 0.058981
v 0.013161 -0.021658 0.069779
vn -0.820138 0.571924 0.016645
v 0.019978 -0.015323 0.081432
vn 0.121591 -0.960822 0.249070
v -0.005064 0.023250 0.010463
vn 0.196653 -0.980471 -0.001905
v -0.004276 0.026241 0.069565
vn 0.121468 0.992566 -0.007589
v -0.005125 -0.026890 0.107736
vn 0.998077 0.061709 -0.005814
v -0.028419 -0.002260 0.109281
vn -0.042154 0.902284 -0.429076
v -0.004028 -0.026124 0.127854
vn -0.215774 0.447834 -0.867690
v 0.006699 -0.019543 0.132634
vn -0.022080 0.149559 -0.988506
v -0.003108 -0.008844 0.135097
vn -0.956570 -0.288370 -0.042624
v 0.023710 0.006198 0.082007
vn -0.183584 -0.965535 -0.184498
v 0.004058 0.025223 0.122167
vn 0.272965 0.150675 0.950151
v -0.014685 -0.004894 0.002715
vn 0.716257 0.331677 0.613975
v -0.022647 -0.007907 0.007349
vn 0.243194 0.799623 0.549054
v -0.006115 -0.020614 0.007297
vn -0.137837 0.471075 0.871257
v 0.002181 -0.018149 0.004543
vn 0.413844 0.895860 0.161766
v -0.010148 -0.022203 0.018510
vn 0.739790 0.634576 0.223660
v -0.022338 -0.011989 0.012472
vn 0.984324 0.120934 0.128380
v -0.027619 -0.001360 0.020301
vn 0.835335 0.547918 0.044742
v -0.022845 -0.013732 0.035554
vn 0.249692 0.966711 0.055895
v -0.006709 -0.024720 0.039750
vn 0.608844 0.792164 0.042261
v -0.016664 -0.022055 0.055816
vn 0.945205 0.325473 0.025575
v -0.026942 -0.008041 0.048918
vn 0.593306 0.801283 0.077030
v -0.017825 -0.019760 0.034714
vn 0.077323 0.996426 0.034019
v -0.003212 -0.026399 0.058953
vn 0.489365 0.871984 0.012864
v -0.015562 -0.023578 0.073570
vn 0.057769 0.998329 -0.001459
v -0.004126 -0.026588 0.081966
vn 0.224676 0.973919 0.031677
v -0.008769 -0.025706 0.093832
vn 0.879124 0.475409 0.033565
v -0.025824 -0.011472 0.064250
vn 0.539662 0.841837 -0.008715
v -0.016869 -0.022855 0.101009
vn 0.989840 0.142141 0.003449
v -0.028668 -0.004989 0.085280
vn 0.880689 0.473685 -0.003009
v -0.025369 -0.012546 0.111438
vn 0.703997 0.623157 -0.340681
v -0.022774 -0.016695 0.126524
vn 0.864274 0.208904 -0.457590
v -0.027997 -0.006819 0.128485
vn 0.746494 -0.142365 -0.649984
v -0.026664 0.001824 0.129602
vn 0.391389 0.847326 -0.358962
v -0.012349 -0.023701 0.128433
vn 0.284770 0.071937 -0.955893
v -0.017611 -0.002169 0.134086
vn 0.105452 -0.044836 0.993413
v -0.011101 0.007023 0.001925
vn 0.328638 -0.319803 0.888664
v -0.015559 0.012856 0.003642
vn 0.907152 -0.411105 0.089820
v -0.025203 0.010995 0.021517
vn 0.513677 -0.745388 0.424891
v -0.016366 0.019000 0.009678
vn 0.627736 -0.771541 0.103305
v -0.017448 0.020419 0.021662
vn -0.029601 -0.997167 0.069153
v -0.001801 0.025754 0.027277
vn 0.299246 -0.952328 0.059363
v -0.010171 0.024426 0.031011
vn 0.855026 -0.518264 0.018234
v -0.023704 0.013495 0.039944
vn 0.985568 -0.168525 0.015960
v -0.027227 0.004144 0.035228
vn 0.578726 -0.815421 0.012872
v -0.017350 0.020741 0.034263
vn 0.065645 -0.996811 0.045365
v -0.004952 0.025616 0.035992
vn 0.555754 -0.831306 -0.008182
v -0.019099 0.020586 0.061417
vn 0.145649 -0.989297 0.008827
v -0.004850 0.026472 0.046998
vn 0.995755 -0.090559 0.016485
v -0.028389 0.003609 0.059132
vn 0.889794 -0.456342 -0.004220
v -0.025847 0.011070 0.076440
vn 0.556985 -0.830503 -0.005606
v -0.018264 0.020018 0.076661
vn 0.123120 -0.992231 -0.017888
v -0.007222 0.025384 0.086659
vn 0.956891 -0.290327 0.008357
v -0.027396 0.007749 0.098991
vn 0.703080 -0.711039 -0.010067
v -0.021095 0.017729 0.101444
vn 0.360770 -0.932630 -0.006807
v -0.012276 0.023595 0.094419
vn 0.936939 -0.339421 -0.083301
v -0.027337 0.008365 0.119985
vn 0.776800 -0.458840 -0.431332
v -0.024187 0.011287 0.128570
vn 0.614324 -0.750564 -0.243432
v -0.018881 0.019099 0.125107
vn -0.099085 -0.327026 -0.939806
v -0.003015 0.018042 0.134484
vn 0.139410 -0.823058 -0.550582
v -0.007659 0.021897 0.131720
vn 0.266555 -0.961122 -0.072059
v -0.007874 0.025317 0.116700
vn 0.389608 -0.335813 -0.857576
v -0.016726 0.014074 0.133610
vn -0.602417 -0.024777 0.797797
v 0.014441 0.004073 0.004908
vn -0.623683 0.374268 0.686253
v 0.015577 -0.011329 0.007624
vn -0.921277 0.153397 0.357377
v 0.019846 -0.004882 0.011475
vn -0.503299 0.855291 0.123159
v 0.009146 -0.022228 0.024289
vn -0.418381 0.832243 0.363771
v 0.008591 -0.018823 0.008430
vn -0.862267 0.494053 0.111390
v 0.019654 -0.012413 0.033446
vn -0.842830 0.519741 0.139670
v 0.018141 -0.012258 0.021198
vn -0.994089 0.034394 0.102973
v 0.022738 0.001829 0.029518
vn -0.157400 0.986299 0.049397
v 0.000578 -0.025281 0.041248
vn -0.639101 0.768753 0.023865
v 0.014270 -0.020675 0.044966
vn -0.963820 0.264013 0.036725
v 0.023246 -0.007556 0.046165
vn -0.400225 0.916149 0.022164
v 0.008426 -0.023723 0.056999
vn -0.869926 0.491176 0.044445
v 0.020567 -0.012263 0.064468
vn -0.998678 -0.033510 0.038974
v 0.024015 0.002342 0.064881
vn -0.999519 -0.004454 0.030701
v 0.025297 -0.000928 0.074375
vn -0.301876 0.952683 0.035571
v 0.005824 -0.024714 0.077877
vn -0.191235 0.981318 0.021057
v 0.005675 -0.025666 0.090970
vn -0.578833 0.815436 0.003939
v 0.012868 -0.022350 0.090925
vn -0.971804 0.234923 -0.020228
v 0.023097 -0.007751 0.086860
vn -0.722516 0.691314 -0.007479
v 0.016172 -0.018587 0.113496
vn -0.831112 0.555498 -0.025959
v 0.019991 -0.013931 0.108161
vn -0.351362 0.935955 -0.023102
v 0.006816 -0.025246 0.116452
vn -0.585752 0.775621 -0.235172
v 0.013429 -0.022030 0.124476
vn 0.242252 0.399065 -0.884342
v -0.011253 -0.018548 0.132807
vn -0.617910 0.333465 -0.712031
v 0.017727 -0.013778 0.129620
vn -0.218931 0.137944 -0.965940
v 0.007156 -0.012356 0.133425
vn -0.927949 0.365843 -0.071203
v 0.023382 -0.007511 0.119048
vn -0.996193 0.002323 -0.087145
v 0.024483 -0.000969 0.119558
vn 0.010440 -0.000532 -0.999945
v -0.001110 0.001384 0.136623
vn -0.004621 -0.208825 0.977942
v -0.001804 0.011415 0.002049
vn -0.246343 -0.317809 0.915594
v 0.009722 0.013077 0.003390
vn 0.082148 -0.659982 0.746776
v -0.006487 0.020766 0.006302
vn -0.654117 -0.557604 0.511086
v 0.013240 0.014734 0.006264
vn -0.245649 -0.815177 0.524540
v 0.004138 0.021485 0.008706
vn -0.715207 -0.688792 0.118507
v 0.015671 0.018827 0.026593
vn -0.913065 -0.254542 0.318624
v 0.019678 0.006355 0.012372
vn -0.359117 -0.918912 0.163207
v 0.007295 0.023241 0.020439
vn -0.380879 -0.923090 0.053251
v 0.006108 0.024574 0.035504
vn -0.748496 -0.662506 0.028975
v 0.017114 0.018068 0.044915
vn -0.915344 -0.393261 0.086548
v 0.020396 0.011096 0.029292
vn -0.963602 -0.265528 0.031072
v 0.022790 0.008254 0.051672
vn -0.110790 -0.993384 0.030229
v 0.001959 0.025451 0.038680
vn -0.287046 -0.957910 0.003691
v 0.007734 0.025025 0.053540
vn -0.617388 -0.786143 0.028477
v 0.011888 0.022556 0.050243
vn 0.058962 -0.998257 -0.002571
v -0.001568 0.026128 0.059323
vn -0.882814 -0.469712 -0.002986
v 0.021084 0.012360 0.070732
vn -0.294207 -0.955735 -0.003570
v 0.007344 0.023611 0.089149
vn -0.639037 -0.769027 -0.015130
v 0.016201 0.018963 0.075257
vn -0.824265 -0.566182 0.004961
v 0.018889 0.015965 0.094807
vn -0.465741 -0.884908 0.004792
v 0.011025 0.022152 0.094662
vn -0.216973 -0.975401 -0.038921
v 0.003577 0.025599 0.070597
vn -0.613369 -0.785716 -0.080187
v 0.014985 0.020676 0.118334
vn -0.993632 -0.111173 0.018331
v 0.023389 0.004008 0.100969
vn -0.125308 -0.992097 0.006475
v 0.000991 0.025389 0.105880
vn -0.392105 -0.683648 -0.615532
v 0.011868 0.019646 0.129055
vn -0.228430 0.053700 -0.972078
v 0.011243 0.000040 0.134508
vn -0.503647 -0.130791 -0.853952
v 0.018753 0.005560 0.132087
vn -0.938097 -0.325985 -0.117078
v 0.022986 0.008252 0.119174
vn -0.924510 0.038243 -0.379235
v 0.022727 -0.003926 0.126868
vn -0.810516 -0.402370 -0.425632
v 0.019225 0.011507 0.129247
# 127 vertices, 0 vertices normals

f 19//19 1//1 16//16
f 18//18 19//19 16//16
f 16//16 17//17 18//18
f 2//2 17//17 16//16
f 41//41 16//16 1//1
f 18//18 20//20 3//3
f 3//3 20//20 24//24
f 22//22 21//21 17//17
f 17//17 2//2 22//22
f 22//22 23//23 21//21
f 17//17 21//21 18//18
f 20//20 21//21 27//27
f 21//21 20//20 18//18
f 23//23 27//27 21//21
f 24//24 20//20 27//27
f 28//28 24//24 25//25
f 28//28 76//76 24//24
f 27//27 25//25 24//24
f 26//26 23//23 22//22
f 49//49 26//26 22//22
f 26//26 49//49 54//54
f 27//27 23//23 25//25
f 28//28 25//25 29//29
f 26//26 25//25 23//23
f 25//25 26//26 32//32
f 26//26 54//54 32//32
f 29//29 25//25 32//32
f 30//30 28//28 29//29
f 30//30 29//29 4//4
f 31//31 30//30 4//4
f 29//29 32//32 4//4
f 34//34 4//4 32//32
f 34//34 32//32 54//54
f 31//31 4//4 33//33
f 9//9 84//84 31//31
f 9//9 31//31 33//33
f 39//39 33//33 36//36
f 9//9 33//33 39//39
f 35//35 4//4 34//34
f 10//10 35//35 34//34
f 37//37 35//35 10//10
f 4//4 35//35 33//33
f 36//36 33//33 35//35
f 11//11 9//9 39//39
f 39//39 91//91 11//11
f 11//11 91//91 12//12
f 37//37 36//36 35//35
f 37//37 10//10 61//61
f 36//36 91//91 39//39
f 91//91 36//36 37//37
f 37//37 40//40 91//91
f 37//37 38//38 40//40
f 40//40 13//13 91//91
f 91//91 13//13 12//12
f 13//13 40//40 96//96
f 2//2 16//16 42//42
f 41//41 42//42 16//16
f 41//41 1//1 97//97
f 44//44 2//2 42//42
f 44//44 42//42 99//99
f 42//42 41//41 97//97
f 99//99 42//42 97//97
f 7//7 44//44 99//99
f 22//22 2//2 43//43
f 22//22 43//43 49//49
f 45//45 43//43 2//2
f 2//2 44//44 45//45
f 45//45 48//48 43//43
f 48//48 45//45 50//50
f 7//7 45//45 44//44
f 45//45 7//7 47//47
f 50//50 45//45 47//47
f 47//47 7//7 46//46
f 47//47 46//46 51//51
f 49//49 43//43 48//48
f 49//49 48//48 54//54
f 48//48 50//50 52//52
f 53//53 50//50 47//47
f 47//47 51//51 53//53
f 50//50 53//53 52//52
f 55//55 54//54 48//48
f 55//55 48//48 52//52
f 52//52 53//53 112//112
f 112//112 8//8 52//52
f 52//52 8//8 56//56
f 56//56 8//8 57//57
f 34//34 54//54 55//55
f 34//34 55//55 58//58
f 59//59 58//58 55//55
f 55//55 52//52 56//56
f 56//56 57//57 60//60
f 59//59 55//55 56//56
f 10//10 34//34 58//58
f 10//10 58//58 61//61
f 61//61 58//58 59//59
f 56//56 60//60 59//59
f 66//66 59//59 60//60
f 60//60 57//57 121//121
f 60//60 121//121 66//66
f 37//37 61//61 38//38
f 62//62 38//38 61//61
f 63//63 61//61 59//59
f 63//63 59//59 66//66
f 67//67 40//40 38//38
f 67//67 38//38 62//62
f 67//67 96//96 40//40
f 63//63 62//62 61//61
f 62//62 63//63 67//67
f 67//67 63//63 65//65
f 65//65 64//64 67//67
f 63//63 66//66 65//65
f 65//65 66//66 15//15
f 64//64 96//96 67//67
f 18//18 72//72 19//19
f 69//69 1//1 19//19
f 69//69 68//68 1//1
f 69//69 19//19 72//72
f 72//72 18//18 3//3
f 71//71 72//72 3//3
f 71//71 3//3 76//76
f 76//76 3//3 24//24
f 70//70 69//69 74//74
f 74//74 72//72 71//71
f 74//74 69//69 72//72
f 71//71 73//73 74//74
f 74//74 75//75 70//70
f 75//75 74//74 73//73
f 28//28 79//79 76//76
f 76//76 77//77 71//71
f 79//79 77//77 76//76
f 73//73 71//71 77//77
f 75//75 73//73 78//78
f 108//108 75//75 78//78
f 78//78 73//73 77//77
f 30//30 83//83 79//79
f 79//79 28//28 30//30
f 5//5 79//79 83//83
f 80//80 77//77 79//79
f 80//80 79//79 5//5
f 78//78 77//77 80//80
f 81//81 78//78 80//80
f 108//108 78//78 81//81
f 81//81 80//80 82//82
f 30//30 84//84 83//83
f 83//83 85//85 5//5
f 6//6 5//5 85//85
f 31//31 84//84 30//30
f 85//85 83//83 84//84
f 6//6 80//80 5//5
f 6//6 86//86 80//80
f 86//86 82//82 80//80
f 14//14 82//82 86//86
f 120//120 14//14 86//86
f 89//89 84//84 9//9
f 85//85 84//84 89//89
f 89//89 87//87 85//85
f 85//85 88//88 6//6
f 87//87 88//88 85//85
f 86//86 6//6 88//88
f 120//120 86//86 94//94
f 94//94 86//86 88//88
f 94//94 95//95 120//120
f 89//89 9//9 11//11
f 90//90 89//89 11//11
f 87//87 89//89 90//90
f 11//11 12//12 90//90
f 93//93 12//12 13//13
f 93//93 92//92 12//12
f 90//90 12//12 92//92
f 93//93 123//123 92//92
f 123//123 124//124 92//92
f 94//94 88//88 87//87
f 94//94 87//87 90//90
f 126//126 95//95 94//94
f 92//92 94//94 90//90
f 126//126 94//94 92//92
f 126//126 92//92 124//124
f 123//123 93//93 13//13
f 96//96 123//123 13//13
f 98//98 97//97 1//1
f 98//98 1//1 68//68
f 68//68 69//69 70//70
f 70//70 103//103 68//68
f 98//98 68//68 100//100
f 103//103 100//100 68//68
f 98//98 99//99 97//97
f 100//100 101//101 98//98
f 101//101 99//99 98//98
f 99//99 101//101 7//7
f 103//103 102//102 100//100
f 104//104 100//100 102//102
f 101//101 100//100 104//104
f 103//103 70//70 75//75
f 102//102 103//103 107//107
f 75//75 107//107 103//103
f 7//7 101//101 104//104
f 104//104 46//46 7//7
f 46//46 104//104 105//105
f 105//105 104//104 102//102
f 107//107 75//75 108//108
f 102//102 107//107 106//106
f 106//106 107//107 108//108
f 51//51 46//46 109//109
f 109//109 46//46 105//105
f 105//105 102//102 106//106
f 105//105 106//106 111//111
f 51//51 109//109 53//53
f 110//110 53//53 109//109
f 109//109 105//105 110//110
f 110//110 105//105 111//111
f 118//118 110//110 115//115
f 111//111 106//106 113//113
f 115//115 110//110 111//111
f 115//115 111//111 113//113
f 81//81 113//113 108//108
f 106//106 108//108 113//113
f 112//112 53//53 110//110
f 112//112 110//110 118//118
f 8//8 112//112 118//118
f 114//114 115//115 117//117
f 117//117 115//115 116//116
f 113//113 81//81 82//82
f 113//113 82//82 14//14
f 115//115 113//113 14//14
f 115//115 14//14 116//116
f 118//118 57//57 8//8
f 114//114 118//118 115//115
f 57//57 118//118 114//114
f 116//116 119//119 117//117
f 116//116 14//14 120//120
f 125//125 116//116 120//120
f 125//125 119//119 116//116
f 114//114 121//121 57//57
f 121//121 114//114 117//117
f 119//119 121//121 117//117
f 123//123 64//64 124//124
f 64//64 122//122 124//124
f 65//65 122//122 64//64
f 127//127 124//124 122//122
f 125//125 120//120 95//95
f 119//119 125//125 127//127
f 122//122 119//119 127//127
f 125//125 95//95 126//126
f 126//126 127//127 125//125
f 127//127 126//126 124//124
f 66//66 121//121 15//15
f 15//15 121//121 119//119
f 65//65 15//15 122//122
f 15//15 119//119 122//122
f 64//64 123//123 96//96
# 250 faces, 0 coords texture

# End of File
