####
#
# OBJ File Generated by Meshlab
#
####
# Object clif_crunch_chocolate_chip_250_collision.obj
#
# Vertices: 127
# Faces: 250
#
####
vn 0.145961 0.106675 0.983522
v 0.004899 -0.008614 0.000924
vn -0.130516 -0.093412 0.987036
v 0.007849 0.013579 0.000993
vn -0.815895 -0.577056 0.036358
v 0.040298 -0.005733 0.040171
vn 0.821930 0.569413 0.014114
v -0.002998 -0.026170 0.077558
vn 0.437102 0.294235 -0.849922
v -0.007857 -0.008588 0.147978
vn -0.389283 -0.312870 -0.866355
v 0.007358 0.031266 0.148427
vn 0.567316 0.400563 0.719515
v -0.003343 -0.018157 0.006014
vn 0.796898 0.578293 0.174730
v -0.004237 -0.021582 0.013280
vn 0.819833 0.572490 0.011381
v 0.001172 -0.032566 0.101720
vn 0.684101 0.504838 -0.526446
v 0.017203 -0.049144 0.147270
vn 0.718787 0.504829 -0.478009
v 0.007086 -0.038816 0.144236
vn 0.259500 0.155471 -0.953147
v 0.012586 -0.032472 0.152327
vn 0.780488 0.523623 -0.341553
v -0.008669 -0.017676 0.140042
vn 0.807460 0.589796 0.012185
v -0.034680 0.019877 0.037333
vn 0.389807 0.310024 0.867143
v -0.018461 0.006261 0.003276
vn 0.086122 0.076724 0.993326
v -0.014450 0.015218 0.000738
vn 0.336121 0.155366 0.928915
v -0.037649 0.036841 0.001422
vn -0.777783 -0.562773 0.279895
v 0.009092 0.034864 0.008934
vn 0.746609 0.547981 0.377215
v -0.030263 0.014582 0.008551
vn 0.756100 -0.592994 0.276895
v -0.046452 0.053217 0.010325
vn 0.706254 -0.211574 0.675605
v -0.047112 0.047177 0.005088
vn 0.985185 -0.122503 0.120010
v -0.050440 0.044681 0.014567
vn 0.926108 -0.377199 0.006659
v -0.049691 0.047909 0.044066
vn 0.708670 -0.705505 0.007088
v -0.046083 0.053548 0.034023
vn -0.087519 -0.084481 0.992574
v -0.015243 0.044810 0.000451
vn 0.040680 -0.480683 0.875950
v -0.022074 0.063531 0.002246
vn -0.547649 -0.420212 0.723535
v -0.000494 0.043537 0.004316
vn 0.295815 -0.927286 0.229419
v -0.024963 0.069040 0.009668
vn -0.501819 -0.813586 0.293692
v -0.015098 0.068429 0.011661
vn -0.788783 -0.592456 0.163760
v -0.006724 0.059616 0.018282
vn -0.691736 -0.721348 0.034036
v -0.010413 0.066453 0.044731
vn 0.857601 0.376287 0.350612
v -0.048839 0.039572 0.008372
vn 0.962979 0.269574 -0.000735
v -0.049963 0.039962 0.055066
vn 0.816513 0.577294 -0.006215
v -0.045917 0.034338 0.070351
vn 0.816809 0.576545 0.020474
v -0.017042 -0.005435 0.039911
vn 0.694684 -0.719052 0.019459
v -0.047105 0.053327 0.075928
vn 0.410018 -0.912049 0.007244
v -0.025464 0.069230 0.056205
vn -0.817057 -0.576146 0.021755
v 0.004916 0.046794 0.079717
vn -0.165305 -0.986019 0.021021
v -0.018608 0.070412 0.053896
vn 0.981710 0.190349 -0.003628
v -0.049910 0.041679 0.112337
vn 0.819008 0.573757 0.005372
v -0.030294 0.013002 0.096594
vn 0.824111 0.566428 0.001123
v -0.042446 0.030756 0.120293
vn 0.484667 -0.874676 0.006300
v -0.025777 0.069062 0.092443
vn 0.885234 -0.465136 -0.003171
v -0.048451 0.053284 0.103061
vn 0.772188 -0.635263 0.012909
v -0.047826 0.053093 0.119467
vn -0.815406 -0.578842 -0.007458
v -0.000516 0.054755 0.116767
vn 0.012125 -0.999703 0.021119
v -0.018126 0.071160 0.091662
vn 0.453738 -0.891021 0.014257
v -0.025874 0.069594 0.116998
vn -0.628066 -0.777894 0.020346
v -0.009543 0.067489 0.092172
vn 0.872365 0.412914 -0.261688
v -0.048632 0.038914 0.142253
vn 0.824232 0.559875 -0.084745
v -0.017852 -0.005904 0.133113
vn 0.801915 0.582367 -0.133345
v -0.035908 0.021035 0.135760
vn 0.618897 0.463665 -0.634020
v -0.029627 0.017284 0.145306
vn -0.007718 0.004464 -0.999960
v -0.026382 0.030192 0.150417
vn 0.018594 0.043219 -0.998893
v -0.000373 0.004617 0.148802
vn 0.110469 0.128879 -0.985488
v -0.013965 0.012423 0.151357
vn -0.658721 -0.453166 -0.600605
v 0.005517 0.040746 0.144223
vn -0.040792 -0.040450 -0.998349
v -0.003247 0.019354 0.150283
vn -0.243486 -0.168458 -0.955163
v -0.000958 0.040281 0.148219
vn 0.869529 -0.414573 -0.268419
v -0.049529 0.052179 0.141261
vn 0.553917 -0.817844 -0.155909
v -0.034968 0.063682 0.136104
vn 0.444209 0.004694 -0.895911
v -0.041767 0.046705 0.153489
vn 0.233211 -0.504837 -0.831115
v -0.039388 0.055619 0.149059
vn 0.334837 -0.765190 -0.549880
v -0.022655 0.069304 0.142378
vn -0.127025 -0.499833 -0.856757
v -0.015117 0.061911 0.150214
vn -0.613698 -0.582140 -0.533374
v -0.009166 0.062902 0.145951
vn -0.598380 -0.797888 -0.072916
v -0.012650 0.070866 0.130423
vn 0.069195 -0.949251 -0.306815
v -0.020262 0.071783 0.140001
vn -0.058298 0.260598 0.963686
v 0.045502 -0.066380 0.001376
vn 0.648902 0.456395 0.608793
v 0.015138 -0.046015 0.005528
vn 0.497476 0.682343 0.535654
v 0.032009 -0.072021 0.005769
vn -0.058208 -0.019643 0.998111
v 0.043955 -0.041465 -0.000173
vn -0.290894 0.879174 0.377404
v 0.047484 -0.076322 0.008792
vn 0.360958 0.927741 0.094901
v 0.036527 -0.078147 0.018506
vn 0.474739 0.879965 0.016894
v 0.032940 -0.076874 0.045499
vn -0.670362 0.741979 0.009030
v 0.066441 -0.062463 0.032886
vn -0.699351 0.504554 0.506294
v 0.067610 -0.060605 0.007698
vn 0.215570 0.142364 0.966055
v 0.016751 -0.034969 0.001159
vn -0.324702 -0.132718 0.936459
v 0.056497 -0.041444 0.001426
vn -0.414243 -0.315316 0.853802
v 0.037658 -0.012969 0.002041
vn -0.072726 -0.079740 0.994159
v 0.030785 -0.017021 0.000543
vn -0.677687 -0.506491 0.533111
v 0.048710 -0.022692 0.004949
vn -0.801898 -0.590297 0.092242
v 0.044930 -0.014423 0.017325
vn -0.777019 -0.251168 0.577197
v 0.069471 -0.048198 0.006394
vn -0.978055 0.188652 0.088421
v 0.071765 -0.054232 0.013757
vn -0.930197 -0.366343 0.022949
v 0.069175 -0.046403 0.028435
vn 0.816425 0.575541 0.046933
v 0.015575 -0.051226 0.037409
vn -0.272231 0.962221 -0.004509
v 0.046592 -0.076567 0.041658
vn 0.739274 0.673389 0.004562
v 0.028991 -0.072962 0.068109
vn 0.825079 0.564892 0.011891
v 0.014745 -0.051820 0.069542
vn 0.153546 0.988111 0.007703
v 0.037570 -0.078300 0.075189
vn -0.476304 0.879255 0.006706
v 0.046102 -0.076490 0.073013
vn -0.880896 0.473278 0.005467
v 0.069401 -0.060170 0.049411
vn -0.997593 -0.065583 0.022524
v 0.072192 -0.050964 0.060637
vn 0.542525 0.840024 -0.005065
v 0.032436 -0.076292 0.108755
vn 0.814964 0.579463 0.007486
v 0.022857 -0.063099 0.111762
vn -0.783539 0.621249 0.010838
v 0.067668 -0.061498 0.079163
vn 0.638733 0.765527 -0.077393
v 0.030635 -0.074997 0.133694
vn 0.803273 0.587739 -0.096519
v 0.004910 -0.038955 0.133387
vn -0.098103 0.995123 0.010315
v 0.043363 -0.078725 0.110016
vn -0.654224 0.755767 0.028410
v 0.068376 -0.061641 0.111751
vn -0.903797 0.401882 -0.147111
v 0.070908 -0.060791 0.134681
vn -0.893197 -0.449665 -0.000474
v 0.070245 -0.046173 0.094497
vn -0.946274 -0.300878 -0.118481
v 0.069755 -0.046026 0.136090
vn -0.975064 0.221693 0.010076
v 0.071816 -0.056224 0.101451
vn 0.460052 0.651518 -0.603222
v 0.031951 -0.073879 0.145146
vn -0.067754 0.531388 -0.844414
v 0.043407 -0.074196 0.147280
vn -0.215129 0.947215 -0.237706
v 0.043281 -0.079798 0.139396
vn -0.527242 0.276226 -0.803564
v 0.066098 -0.058970 0.147133
vn 0.105474 0.161877 -0.981158
v 0.023107 -0.046920 0.151341
vn -0.428501 -0.258330 -0.865825
v 0.049031 -0.034292 0.148937
vn -0.394768 -0.199380 -0.896887
v 0.043029 -0.023956 0.149494
vn -0.779267 -0.533118 -0.329435
v 0.058994 -0.031140 0.135519
vn -0.809100 -0.573261 -0.129342
v 0.037987 -0.000353 0.134165
vn -0.684521 -0.452251 -0.571752
v 0.041313 -0.011223 0.144428
vn -0.816089 -0.294666 -0.497163
v 0.069095 -0.049103 0.142046
vn -0.526166 -0.384300 0.758593
v 0.023687 0.010431 0.004538
vn -0.790596 -0.560519 0.246529
v 0.023153 0.015323 0.010206
vn -0.818031 -0.574471 0.028429
v 0.029690 0.010241 0.057589
vn -0.817622 -0.573836 0.046971
v 0.015773 0.028955 0.042133
vn -0.817905 -0.575351 -0.001615
v 0.022540 0.022178 0.101614
vn -0.817981 -0.573404 -0.045983
v 0.020087 0.024580 0.123394
vn -0.820434 -0.571665 0.009335
v 0.047994 -0.014572 0.087081
vn -0.813899 -0.563963 -0.139697
v 0.005177 0.046563 0.135026
vn -0.253427 -0.183596 -0.949772
v 0.023076 0.000947 0.150842
vn -0.735239 -0.497654 -0.460178
v 0.022078 0.018822 0.142014
vn -0.366158 -0.265444 -0.891890
v 0.014082 0.019032 0.149649
# 127 vertices, 0 vertices normals

f 7//7 78//78 1//1
f 8//8 87//87 70//70
f 19//19 8//8 7//7
f 35//35 8//8 19//19
f 70//70 7//7 8//8
f 87//87 8//8 35//35
f 90//90 87//87 4//4
f 9//9 90//90 4//4
f 35//35 4//4 87//87
f 9//9 99//99 96//96
f 99//99 9//9 51//51
f 99//99 13//13 11//11
f 10//10 11//11 12//12
f 13//13 99//99 51//51
f 5//5 11//11 13//13
f 5//5 12//12 11//11
f 55//55 12//12 5//5
f 32//32 17//17 21//21
f 14//14 19//19 32//32
f 22//22 32//32 21//21
f 7//7 15//15 19//19
f 15//15 17//17 19//19
f 16//16 17//17 15//15
f 15//15 7//7 1//1
f 15//15 1//1 16//16
f 16//16 1//1 2//2
f 19//19 17//17 32//32
f 17//17 16//16 25//25
f 25//25 16//16 2//2
f 27//27 25//25 2//2
f 14//14 35//35 19//19
f 30//30 18//18 120//120
f 21//21 17//17 26//26
f 20//20 22//22 21//21
f 20//20 23//23 22//22
f 23//23 20//20 24//24
f 26//26 17//17 25//25
f 26//26 20//20 21//21
f 28//28 20//20 26//26
f 28//28 26//26 29//29
f 27//27 26//26 25//25
f 29//29 26//26 27//27
f 24//24 20//20 28//28
f 24//24 28//28 37//37
f 18//18 30//30 27//27
f 29//29 27//27 30//30
f 29//29 30//30 31//31
f 29//29 39//39 28//28
f 39//39 37//37 28//28
f 33//33 32//32 22//22
f 34//34 14//14 33//33
f 33//33 40//40 34//34
f 14//14 32//32 33//33
f 35//35 14//14 41//41
f 41//41 14//14 34//34
f 41//41 4//4 35//35
f 119//119 38//38 120//120
f 23//23 24//24 36//36
f 23//23 33//33 22//22
f 31//31 39//39 29//29
f 36//36 24//24 37//37
f 31//31 30//30 120//120
f 31//31 120//120 38//38
f 43//43 36//36 37//37
f 39//39 31//31 49//49
f 31//31 38//38 49//49
f 37//37 39//39 47//47
f 47//47 39//39 49//49
f 34//34 40//40 42//42
f 41//41 34//34 42//42
f 40//40 50//50 42//42
f 41//41 9//9 4//4
f 38//38 121//121 46//46
f 9//9 41//41 51//51
f 51//51 41//41 42//42
f 51//51 42//42 52//52
f 124//124 46//46 122//122
f 33//33 23//23 44//44
f 36//36 44//44 23//23
f 44//44 40//40 33//33
f 36//36 43//43 44//44
f 40//40 44//44 45//45
f 45//45 44//44 43//43
f 49//49 38//38 46//46
f 47//47 43//43 37//37
f 45//45 43//43 48//48
f 48//48 61//61 45//45
f 67//67 49//49 46//46
f 48//48 43//43 47//47
f 49//49 67//67 47//47
f 50//50 52//52 42//42
f 50//50 40//40 60//60
f 50//50 60//60 62//62
f 53//53 13//13 51//51
f 53//53 51//51 52//52
f 5//5 13//13 53//53
f 53//53 56//56 5//5
f 56//56 55//55 5//5
f 125//125 12//12 55//55
f 55//55 58//58 125//125
f 58//58 55//55 56//56
f 53//53 52//52 50//50
f 53//53 50//50 62//62
f 54//54 56//56 53//53
f 53//53 62//62 54//54
f 58//58 56//56 54//54
f 58//58 54//54 59//59
f 58//58 6//6 127//127
f 6//6 58//58 59//59
f 59//59 57//57 6//6
f 40//40 45//45 60//60
f 61//61 60//60 45//45
f 60//60 63//63 62//62
f 61//61 48//48 68//68
f 60//60 61//61 63//63
f 63//63 61//61 64//64
f 61//61 68//68 64//64
f 54//54 62//62 63//63
f 59//59 54//54 63//63
f 65//65 63//63 64//64
f 65//65 64//64 68//68
f 63//63 65//65 59//59
f 66//66 124//124 57//57
f 67//67 46//46 124//124
f 66//66 67//67 124//124
f 59//59 65//65 66//66
f 57//57 59//59 66//66
f 66//66 65//65 68//68
f 68//68 48//48 47//47
f 68//68 47//47 67//67
f 66//66 68//68 67//67
f 71//71 69//69 70//70
f 71//71 73//73 69//69
f 73//73 77//77 69//69
f 87//87 71//71 70//70
f 87//87 74//74 71//71
f 74//74 73//73 71//71
f 74//74 88//88 73//73
f 88//88 74//74 75//75
f 76//76 73//73 88//88
f 69//69 77//77 84//84
f 73//73 76//76 77//77
f 85//85 77//77 76//76
f 93//93 85//85 76//76
f 78//78 69//69 72//72
f 78//78 70//70 69//69
f 7//7 70//70 78//78
f 72//72 69//69 79//79
f 78//78 72//72 81//81
f 81//81 1//1 78//78
f 1//1 81//81 2//2
f 81//81 80//80 117//117
f 81//81 72//72 80//80
f 80//80 72//72 79//79
f 79//79 82//82 80//80
f 118//118 117//117 80//80
f 82//82 118//118 80//80
f 84//84 83//83 82//82
f 118//118 82//82 83//83
f 79//79 69//69 84//84
f 84//84 77//77 85//85
f 82//82 79//79 84//84
f 86//86 84//84 85//85
f 83//83 84//84 86//86
f 93//93 86//86 85//85
f 86//86 93//93 94//94
f 75//75 74//74 87//87
f 89//89 75//75 87//87
f 88//88 75//75 91//91
f 92//92 88//88 91//91
f 76//76 88//88 92//92
f 93//93 76//76 92//92
f 89//89 91//91 75//75
f 89//89 87//87 90//90
f 92//92 97//97 93//93
f 94//94 93//93 97//97
f 94//94 97//97 105//105
f 83//83 86//86 3//3
f 123//123 119//119 3//3
f 3//3 86//86 94//94
f 3//3 94//94 103//103
f 123//123 3//3 103//103
f 91//91 100//100 92//92
f 100//100 91//91 95//95
f 91//91 89//89 95//95
f 95//95 89//89 96//96
f 9//9 96//96 90//90
f 96//96 89//89 90//90
f 95//95 96//96 98//98
f 98//98 96//96 99//99
f 100//100 95//95 98//98
f 101//101 100//100 108//108
f 101//101 108//108 102//102
f 101//101 97//97 92//92
f 105//105 97//97 101//101
f 101//101 92//92 100//100
f 101//101 102//102 105//105
f 113//113 123//123 103//103
f 114//114 123//123 113//113
f 94//94 105//105 103//103
f 105//105 104//104 103//103
f 113//113 103//103 104//104
f 104//104 105//105 102//102
f 100//100 98//98 108//108
f 108//108 98//98 106//106
f 10//10 106//106 98//98
f 10//10 98//98 99//99
f 10//10 99//99 11//11
f 110//110 106//106 10//10
f 106//106 107//107 108//108
f 110//110 107//107 106//106
f 107//107 109//109 108//108
f 109//109 107//107 110//110
f 109//109 110//110 111//111
f 109//109 102//102 108//108
f 116//116 102//102 109//109
f 110//110 10//10 12//12
f 111//111 110//110 112//112
f 110//110 12//12 112//112
f 12//12 125//125 112//112
f 125//125 115//115 112//112
f 115//115 114//114 113//113
f 113//113 111//111 112//112
f 116//116 111//111 113//113
f 113//113 112//112 115//115
f 104//104 102//102 116//116
f 113//113 104//104 116//116
f 109//109 111//111 116//116
f 2//2 81//81 117//117
f 27//27 2//2 117//117
f 117//117 18//18 27//27
f 83//83 3//3 118//118
f 18//18 117//117 118//118
f 118//118 120//120 18//18
f 120//120 118//118 3//3
f 119//119 120//120 3//3
f 121//121 38//38 119//119
f 123//123 121//121 119//119
f 46//46 121//121 122//122
f 122//122 121//121 114//114
f 114//114 121//121 123//123
f 126//126 114//114 115//115
f 114//114 126//126 122//122
f 58//58 127//127 125//125
f 115//115 125//125 126//126
f 126//126 125//125 127//127
f 124//124 122//122 126//126
f 126//126 57//57 124//124
f 127//127 6//6 126//126
f 126//126 6//6 57//57
# 250 faces, 0 coords texture

# End of File
