####
#
# OBJ File Generated by Meshlab
#
####
# Object softsoap_gold_250_collision.obj
#
# Vertices: 127
# Faces: 250
#
####
vn 0.844679 0.131270 -0.518927
v 0.025440 0.010488 0.007828
vn -0.929565 -0.202441 -0.308101
v -0.020328 -0.015656 0.007828
vn 0.959244 -0.219381 0.178112
v 0.019565 -0.005988 0.135224
vn -0.415416 0.529826 -0.739401
v -0.012130 0.019569 0.007828
vn 0.877338 -0.474988 -0.068296
v 0.021526 -0.017773 0.009785
vn 0.097978 0.492837 -0.864588
v 0.005873 0.023983 0.007827
vn 0.247865 -0.050095 -0.967499
v 0.023483 -0.009785 0.006849
vn -0.485792 -0.403352 0.775444
v -0.007928 -0.011473 0.139224
vn 0.422738 0.346217 -0.837512
v 0.024763 0.011742 0.007828
vn 0.048861 0.926624 -0.372802
v 0.002543 0.025440 0.009785
vn -0.819527 0.561955 0.112168
v -0.002027 0.027397 0.082191
vn 0.999830 -0.002949 0.018225
v 0.025562 -0.001951 0.009721
vn 0.918285 -0.250904 -0.306266
v 0.025451 -0.008251 0.007827
vn -0.218525 0.928632 0.299815
v 0.007103 0.023483 0.140900
vn -0.446281 -0.512541 -0.733577
v -0.012004 -0.029220 0.007803
vn 0.374205 -0.761940 0.528600
v 0.011742 -0.015656 0.135860
vn 0.106239 -0.981404 -0.159873
v 0.001957 -0.036541 0.011742
vn 0.422197 0.810258 -0.406486
v 0.017611 0.022245 0.011734
vn -0.922737 0.328936 0.200894
v -0.007828 -0.000977 0.136986
vn 0.657945 -0.413682 -0.629266
v 0.017612 -0.023483 0.006985
vn 0.002159 0.620329 0.784338
v 0.011742 0.017612 0.143159
vn -0.705613 0.682718 0.189754
v 0.003914 0.022378 0.138943
vn 0.545597 0.832887 0.092856
v 0.015483 0.031551 0.075743
vn 0.393327 0.866443 0.307524
v 0.010476 0.023483 0.140900
vn -0.042759 -0.094913 -0.994567
v 0.005098 -0.027397 0.005871
vn -0.895174 0.445680 -0.005691
v -0.015656 0.015656 0.008900
vn -0.678171 -0.733778 0.040668
v -0.007769 -0.039418 0.071743
vn 0.519029 -0.459367 0.720827
v 0.014690 -0.009785 0.138943
vn 0.122353 0.990609 0.061021
v 0.009824 0.034197 0.075969
vn 0.103798 0.988792 -0.107310
v 0.008763 0.033649 0.061478
vn -0.431951 0.901590 -0.023543
v 0.001957 0.032380 0.058708
vn -0.655871 0.753477 -0.045888
v -0.008596 0.023485 0.011748
vn -0.998309 0.004609 -0.057949
v -0.020933 -0.005871 0.011742
vn 0.922366 0.045947 0.383575
v 0.018933 -0.001958 0.136990
vn 0.903918 -0.419354 0.084113
v 0.014695 -0.026106 0.093385
vn 0.829220 -0.410108 -0.379744
v 0.021526 -0.017053 0.007828
vn 0.526733 0.608613 0.593416
v 0.011723 0.022417 0.141041
vn -0.634932 0.204478 -0.745017
v -0.016104 0.012988 0.007827
vn -0.941962 -0.332186 0.048580
v -0.011219 -0.033268 0.074364
vn -0.009790 -0.826274 0.563183
v 0.007828 -0.015599 0.136986
vn 0.886885 -0.459083 0.051755
v 0.013711 -0.031633 0.073387
vn 0.036605 -0.997095 -0.066792
v 0.000000 -0.041364 0.062622
vn -0.390955 -0.889062 -0.238165
v -0.007714 -0.035182 0.011382
vn -0.208420 0.975894 0.064752
v 0.006400 0.033885 0.076002
vn 0.020852 0.662399 0.748861
v 0.008806 0.023483 0.141246
vn -0.796760 0.602290 0.049193
v -0.003956 0.027397 0.064579
vn -0.669964 0.735247 0.102766
v 0.000000 0.030135 0.078278
vn -0.335842 0.900175 -0.277298
v -0.005793 0.025441 0.011745
vn -0.592730 0.805359 0.008236
v 0.000483 0.031311 0.060665
vn -0.745021 0.667033 0.003164
v -0.013699 0.017864 0.009785
vn -0.865877 0.160837 0.473697
v -0.007490 -0.001957 0.138588
vn -0.965981 0.254481 0.046051
v -0.020300 -0.001957 0.011742
vn -0.969939 -0.182884 0.160534
v -0.009372 -0.011742 0.135029
vn 0.623643 0.258769 0.737637
v 0.012760 0.018193 0.143314
vn 0.023468 0.017462 -0.999572
v 0.010153 -0.023309 0.005862
vn -0.392323 0.765540 0.509933
v 0.005871 0.022952 0.140900
vn 0.917029 0.315319 0.244196
v 0.015263 0.017574 0.137381
vn -0.271655 0.951669 0.143283
v 0.005274 0.033268 0.078278
vn 0.525496 0.839891 0.135784
v 0.013699 0.031754 0.082191
vn -0.739536 0.039856 -0.671936
v -0.020263 -0.012673 0.007829
vn -0.937304 0.333612 0.100815
v -0.006836 0.013699 0.097847
vn -0.808466 -0.588507 -0.006529
v -0.009594 -0.037182 0.067514
vn -0.718748 -0.676933 -0.158625
v -0.009768 -0.033263 0.011278
vn -0.949935 -0.305136 0.067198
v -0.011788 -0.031311 0.076321
vn -0.941158 -0.336303 0.033490
v -0.018211 -0.021526 0.011742
vn 0.260055 -0.899309 0.351588
v 0.003914 -0.037182 0.092265
vn -0.666948 -0.633991 0.391455
v -0.007917 -0.012960 0.137321
vn 0.144995 -0.562147 0.814228
v 0.008317 -0.013571 0.138847
vn 0.803203 -0.402360 0.439285
v 0.018817 -0.006858 0.135940
vn 0.658701 -0.680339 0.321327
v 0.012279 -0.015634 0.135082
vn -0.162304 -0.983647 -0.078072
v -0.001958 -0.041096 0.060665
vn 0.027643 -0.703405 -0.710251
v -0.000119 -0.036007 0.009780
vn -0.103373 0.991045 -0.084526
v 0.005875 0.033392 0.058743
vn -0.817462 0.567163 0.100412
v -0.002802 0.028009 0.070694
vn -0.551115 0.828204 0.101738
v 0.002200 0.031311 0.082191
vn -0.683065 0.728303 0.054750
v -0.001895 0.029384 0.069895
vn -0.753269 0.656966 0.031330
v -0.003914 0.027449 0.064579
vn -0.958136 0.140980 0.249200
v -0.008476 -0.003914 0.136986
vn -0.952495 0.240101 0.187364
v -0.008141 -0.001957 0.136986
vn -0.992442 -0.101272 0.069308
v -0.020546 -0.011742 0.011742
vn -0.108633 -0.433193 0.894731
v -0.002367 -0.011637 0.140026
vn 0.198280 -0.324694 -0.924802
v 0.011834 -0.027110 0.006068
vn 0.405618 0.909185 0.094111
v 0.011907 0.033346 0.078278
vn -0.858375 -0.489417 -0.153830
v -0.017495 -0.023509 0.009841
vn -0.318210 -0.879561 0.353715
v -0.002935 -0.037182 0.090595
vn 0.644354 -0.140940 0.751628
v 0.017560 -0.003188 0.139220
vn 0.805298 -0.592120 0.029827
v 0.011564 -0.035274 0.069734
vn 0.784458 0.619938 -0.017387
v 0.023483 0.029354 0.050805
vn -0.884471 0.456037 0.098704
v -0.005747 0.021935 0.076031
vn -0.720637 0.684670 0.109126
v -0.001379 0.028418 0.080235
vn -0.437422 0.894011 0.096989
v 0.003688 0.032980 0.076762
vn -0.609672 0.782983 0.123441
v 0.001957 0.031133 0.082191
vn -0.826066 0.558240 0.077352
v -0.003914 0.027397 0.065160
vn -0.895809 0.412790 0.164712
v -0.005485 0.005798 0.135307
vn -0.375624 0.517520 0.768817
v 0.003957 0.019570 0.143381
vn -0.988518 0.145053 -0.042321
v -0.020800 -0.003914 0.011742
vn -0.938920 -0.036982 0.342144
v -0.009043 -0.009785 0.136986
vn -0.623943 0.089406 -0.776339
v -0.019565 -0.003096 0.007830
vn -0.985847 -0.142264 0.088690
v -0.012252 -0.027397 0.080235
vn -0.888385 -0.449851 0.091681
v -0.010395 -0.035400 0.075441
vn 0.445756 -0.828560 0.338808
v 0.011742 -0.016008 0.135029
vn -0.818820 -0.535214 0.207555
v -0.010102 -0.031831 0.088062
vn 0.785257 -0.601200 0.148089
v 0.011681 -0.031786 0.091260
vn 0.560533 -0.785429 -0.262497
v 0.011966 -0.033268 0.011742
vn 0.321865 -0.944158 -0.070493
v 0.004496 -0.040121 0.060703
vn -0.872179 0.480181 0.093435
v -0.006832 0.023483 0.058708
vn -0.839538 -0.010537 0.543199
v -0.007958 -0.009785 0.139089
vn -0.954790 0.098617 0.280446
v -0.008716 -0.005871 0.136986
vn -0.966495 -0.238180 0.095696
v -0.011765 -0.029465 0.082191
vn 0.069538 -0.189610 0.979394
v 0.006327 -0.006248 0.142528
vn -0.660415 0.200466 0.723647
v -0.000938 0.012056 0.142183
vn -0.288731 -0.950812 0.112207
v -0.003437 -0.041699 0.077309
vn 0.229870 -0.970261 -0.075844
v 0.001957 -0.040986 0.062622
vn 0.417695 -0.862643 0.285268
v 0.005043 -0.036756 0.091976
vn 0.444934 -0.893869 0.055064
v 0.004374 -0.041210 0.077123
vn 0.657201 -0.750319 0.071474
v 0.007733 -0.039142 0.075608
vn -0.851363 0.519849 0.070280
v -0.005871 0.025082 0.058708
vn -0.907297 0.404716 0.114093
v -0.006132 0.015685 0.097794
vn -0.931169 -0.340537 0.130225
v -0.010995 -0.031311 0.084148
vn -0.170231 -0.893156 0.416287
v -0.000029 -0.037266 0.092304
vn -0.049184 -0.934116 0.353565
v 0.001322 -0.038524 0.089869
vn 0.678550 -0.704701 0.207284
v 0.009977 -0.033268 0.092554
vn 0.227540 -0.966083 0.122100
v 0.001837 -0.042053 0.077681
vn 0.539477 -0.795363 0.276338
v 0.007876 -0.035260 0.091976
vn 0.552791 -0.807438 0.206074
v 0.007241 -0.037064 0.087264
vn -0.719492 -0.642227 0.264339
v -0.007898 -0.033757 0.089864
vn -0.634438 -0.730164 0.253671
v -0.005727 -0.038146 0.084686
# 127 vertices, 0 vertices normals

f 9//9 18//18 88//88
f 9//9 88//88 1//1
f 9//9 6//6 18//18
f 9//9 1//1 7//7
f 10//10 88//88 18//18
f 10//10 4//4 48//48
f 3//3 12//12 88//88
f 12//12 1//1 88//88
f 13//13 7//7 1//1
f 13//13 1//1 12//12
f 55//55 9//9 7//7
f 55//55 6//6 9//9
f 18//18 6//6 10//10
f 73//73 10//10 48//48
f 6//6 4//4 10//10
f 6//6 55//55 4//4
f 13//13 12//12 3//3
f 41//41 5//5 13//13
f 20//20 7//7 13//13
f 25//25 4//4 55//55
f 25//25 98//98 38//38
f 71//71 43//43 17//17
f 72//72 17//17 43//43
f 72//72 15//15 25//25
f 29//29 24//24 83//83
f 30//30 88//88 10//10
f 30//30 10//10 73//73
f 32//32 48//48 4//4
f 32//32 31//31 48//48
f 34//34 3//3 88//88
f 34//34 88//88 57//57
f 35//35 41//41 13//13
f 35//35 13//13 3//3
f 36//36 20//20 13//13
f 36//36 13//13 5//5
f 36//36 5//5 20//20
f 37//37 54//54 57//57
f 37//37 88//88 23//23
f 37//37 23//23 24//24
f 37//37 57//57 88//88
f 38//38 4//4 25//25
f 38//38 26//26 4//4
f 60//60 25//25 2//2
f 60//60 98//98 25//25
f 60//60 2//2 33//33
f 15//15 2//2 25//25
f 15//15 84//84 2//2
f 42//42 71//71 17//17
f 44//44 14//14 29//29
f 45//45 29//29 14//14
f 48//48 31//31 73//73
f 49//49 31//31 32//32
f 50//50 32//32 4//4
f 50//50 4//4 26//26
f 104//104 20//20 5//5
f 104//104 5//5 87//87
f 55//55 82//82 25//25
f 82//82 7//7 20//20
f 82//82 55//55 7//7
f 72//72 25//25 82//82
f 72//72 104//104 17//17
f 56//56 45//45 14//14
f 56//56 95//95 45//45
f 56//56 91//91 22//22
f 56//56 14//14 91//91
f 56//56 22//22 95//95
f 58//58 91//91 14//14
f 58//58 14//14 44//44
f 59//59 24//24 23//23
f 61//61 118//118 26//26
f 61//61 26//26 19//19
f 61//61 19//19 118//118
f 94//94 118//118 19//19
f 94//94 22//22 118//118
f 118//118 22//22 11//11
f 62//62 63//63 27//27
f 63//63 43//43 27//27
f 63//63 15//15 43//43
f 63//63 84//84 15//15
f 64//64 109//109 2//2
f 65//65 2//2 84//84
f 65//65 64//64 2//2
f 65//65 39//39 64//64
f 100//100 84//84 62//62
f 100//100 65//65 84//84
f 100//100 39//39 65//65
f 66//66 16//16 40//40
f 67//67 40//40 8//8
f 68//68 40//40 16//16
f 68//68 16//16 28//28
f 69//69 70//70 103//103
f 70//70 28//28 16//16
f 70//70 69//69 28//28
f 69//69 3//3 34//34
f 105//105 17//17 104//104
f 72//72 43//43 15//15
f 23//23 88//88 29//29
f 45//45 24//24 29//29
f 45//45 37//37 24//24
f 45//45 21//21 37//37
f 29//29 30//30 73//73
f 29//29 73//73 44//44
f 29//29 88//88 30//30
f 89//89 26//26 118//118
f 90//90 11//11 22//22
f 90//90 22//22 47//47
f 74//74 11//11 90//90
f 75//75 22//22 91//91
f 75//75 76//76 47//47
f 76//76 91//91 49//49
f 91//91 31//31 49//49
f 77//77 32//32 50//50
f 77//77 50//50 26//26
f 77//77 26//26 46//46
f 77//77 76//76 32//32
f 111//111 19//19 51//51
f 111//111 22//22 94//94
f 107//107 8//8 111//111
f 79//79 19//19 26//26
f 79//79 26//26 52//52
f 79//79 78//78 51//51
f 79//79 51//51 19//19
f 80//80 53//53 33//33
f 80//80 33//33 2//2
f 21//21 95//95 54//54
f 111//111 81//81 110//110
f 87//87 5//5 41//41
f 82//82 20//20 104//104
f 82//82 104//104 72//72
f 34//34 57//57 54//54
f 83//83 59//59 23//23
f 83//83 24//24 59//59
f 83//83 23//23 29//29
f 37//37 21//21 54//54
f 84//84 63//63 62//62
f 112//112 71//71 42//42
f 100//100 64//64 39//39
f 121//121 66//66 40//40
f 121//121 40//40 120//120
f 67//67 120//120 40//40
f 81//81 8//8 40//40
f 103//103 3//3 69//69
f 86//86 69//69 34//34
f 86//86 34//34 54//54
f 110//110 28//28 86//86
f 110//110 68//68 28//28
f 86//86 28//28 69//69
f 113//113 42//42 17//17
f 113//113 17//17 105//105
f 112//112 27//27 43//43
f 112//112 43//43 71//71
f 44//44 73//73 31//31
f 44//44 31//31 91//91
f 44//44 91//91 58//58
f 74//74 47//47 76//76
f 90//90 47//47 74//74
f 74//74 89//89 11//11
f 76//76 75//75 91//91
f 92//92 75//75 47//47
f 92//92 47//47 22//22
f 92//92 22//22 75//75
f 93//93 46//46 26//26
f 93//93 77//77 46//46
f 93//93 74//74 76//76
f 93//93 76//76 77//77
f 94//94 19//19 111//111
f 95//95 22//22 111//111
f 51//51 107//107 111//111
f 96//96 52//52 26//26
f 96//96 79//79 52//52
f 96//96 78//78 79//79
f 96//96 33//33 53//53
f 96//96 60//60 33//33
f 96//96 26//26 38//38
f 97//97 53//53 67//67
f 97//97 96//96 53//53
f 98//98 96//96 38//38
f 98//98 60//60 96//96
f 99//99 80//80 2//2
f 99//99 53//53 80//80
f 110//110 95//95 111//111
f 100//100 109//109 64//64
f 27//27 100//100 62//62
f 101//101 124//124 70//70
f 101//101 70//70 16//16
f 101//101 16//16 66//66
f 68//68 81//81 40//40
f 85//85 67//67 127//127
f 112//112 85//85 127//127
f 127//127 27//27 112//112
f 103//103 35//35 3//3
f 103//103 41//41 35//35
f 104//104 87//87 116//116
f 115//115 105//105 104//104
f 115//115 104//104 116//116
f 105//105 115//115 123//123
f 103//103 87//87 41//41
f 95//95 21//21 45//45
f 106//106 26//26 89//89
f 89//89 118//118 11//11
f 32//32 76//76 49//49
f 74//74 93//93 106//106
f 107//107 51//51 97//97
f 107//107 97//97 67//67
f 107//107 67//67 8//8
f 108//108 97//97 51//51
f 108//108 51//51 78//78
f 108//108 78//78 96//96
f 108//108 96//96 97//97
f 109//109 99//99 2//2
f 109//109 53//53 99//99
f 110//110 54//54 95//95
f 110//110 86//86 54//54
f 8//8 81//81 111//111
f 112//112 42//42 123//123
f 113//113 123//123 42//42
f 113//113 105//105 123//123
f 102//102 67//67 53//53
f 120//120 67//67 85//85
f 122//122 103//103 70//70
f 122//122 125//125 103//103
f 114//114 101//101 66//66
f 115//115 116//116 125//125
f 126//126 127//127 67//67
f 68//68 110//110 81//81
f 121//121 112//112 123//123
f 103//103 116//116 87//87
f 116//116 103//103 125//125
f 117//117 106//106 93//93
f 117//117 93//93 26//26
f 117//117 26//26 106//106
f 74//74 106//106 89//89
f 119//119 53//53 109//109
f 119//119 109//109 100//100
f 27//27 127//127 100//100
f 121//121 120//120 85//85
f 121//121 85//85 112//112
f 114//114 124//124 101//101
f 123//123 114//114 66//66
f 123//123 66//66 121//121
f 125//125 114//114 123//123
f 125//125 123//123 115//115
f 119//119 102//102 53//53
f 124//124 122//122 70//70
f 124//124 125//125 122//122
f 125//125 124//124 114//114
f 127//127 102//102 100//100
f 126//126 67//67 102//102
f 126//126 102//102 127//127
f 100//100 102//102 119//119
# 250 faces, 0 coords texture

# End of File
