####
#
# OBJ File Generated by Meshlab
#
####
# Object quaker_chewy_chocolate_chip_250_collision.obj
#
# Vertices: 127
# Faces: 250
#
####
vn -0.829116 0.518139 0.209998
v 0.010413 -0.077104 0.011155
vn 0.146203 -0.030548 0.988783
v 0.001348 -0.003271 -0.000170
vn 0.794623 -0.605681 -0.041525
v 0.005818 0.059684 0.100045
vn 0.530350 0.582608 0.615871
v -0.023278 -0.071972 0.004646
vn 0.058154 0.862062 0.503456
v -0.000616 -0.081585 0.008198
vn -0.410074 0.490012 0.769238
v 0.007237 -0.074267 0.003391
vn 0.077931 0.317913 0.944912
v -0.010560 -0.073108 0.001832
vn 0.549910 0.827779 0.111268
v -0.023197 -0.076091 0.015142
vn 0.966834 0.255333 0.006104
v -0.029881 -0.066711 0.033517
vn -0.233321 0.955384 0.181116
v 0.002366 -0.083181 0.015356
vn 0.019975 0.999592 0.020421
v 0.001266 -0.083582 0.042719
vn 0.482752 0.062402 0.873531
v -0.023720 -0.064091 0.002867
vn 0.541897 -0.138460 0.828961
v -0.017896 -0.037175 0.002313
vn 0.960770 0.062591 0.270192
v -0.029812 -0.065557 0.011770
vn 0.116601 0.011896 0.993108
v -0.010278 -0.052307 0.000032
vn -0.077076 0.040296 0.996211
v -0.000125 -0.045073 -0.000440
vn -0.088892 0.030436 0.995576
v 0.008424 -0.015410 -0.000152
vn 0.952210 -0.249821 0.175744
v -0.022277 -0.034332 0.015827
vn 0.153026 -0.030368 0.987755
v -0.006006 -0.022480 0.000565
vn 0.965390 -0.260812 -0.000037
v -0.013773 -0.002228 0.043949
vn 0.647530 0.762007 0.007125
v -0.023885 -0.075812 0.049781
vn 0.024667 0.999244 0.030034
v 0.000823 -0.084629 0.068400
vn 0.954844 0.297106 -0.000403
v -0.029612 -0.067303 0.081666
vn 0.970662 -0.239959 0.015321
v -0.023355 -0.037323 0.034579
vn 0.994422 0.105196 0.007604
v -0.030034 -0.065327 0.053279
vn 0.980586 -0.196091 -0.000293
v -0.028454 -0.053597 0.073987
vn 0.962505 -0.271197 -0.006088
v -0.015612 -0.008167 0.070364
vn 0.492091 0.870501 0.008689
v -0.021631 -0.077463 0.099422
vn -0.101836 0.994725 0.012316
v 0.002188 -0.085279 0.095364
vn 0.722236 0.691501 -0.014201
v -0.024114 -0.076240 0.127709
vn 0.996559 0.075338 -0.034558
v -0.029302 -0.064900 0.131979
vn 0.500841 0.776784 -0.381792
v -0.020667 -0.077517 0.164201
vn 0.153302 0.988171 -0.004067
v -0.000906 -0.084772 0.126776
vn 0.985275 -0.169806 -0.019982
v -0.029242 -0.060830 0.108825
vn 0.963347 -0.266606 -0.029730
v -0.021952 -0.032065 0.108325
vn 0.962953 -0.267504 -0.034107
v -0.014850 -0.010314 0.125073
vn 0.967860 -0.246037 -0.052089
v -0.025324 -0.049608 0.139863
vn 0.960035 -0.268356 -0.079480
v -0.014295 -0.012123 0.150231
vn 0.950640 0.098705 -0.294178
v -0.027575 -0.067117 0.160880
vn 0.450268 0.060140 -0.890866
v -0.019185 -0.053390 0.169615
vn -0.207417 0.978248 0.003100
v 0.004517 -0.085217 0.141142
vn -0.772768 0.550601 -0.315703
v 0.013854 -0.079170 0.159184
vn -0.076375 0.727584 -0.681754
v 0.000792 -0.085055 0.163932
vn 0.891598 -0.245145 -0.380731
v -0.022046 -0.042416 0.162570
vn 0.857078 -0.263703 -0.442581
v -0.012169 -0.010010 0.161711
vn -0.264969 0.197289 -0.943858
v 0.007035 -0.067754 0.171155
vn 0.437972 -0.135233 -0.888759
v -0.009174 -0.032115 0.171984
vn 0.024442 -0.048023 -0.998547
v 0.000655 -0.018752 0.172254
vn 0.678846 -0.158262 0.717023
v -0.008132 0.002668 0.002980
vn 0.447236 -0.130483 0.884847
v 0.000667 0.034625 0.002180
vn 0.964689 -0.242692 0.102353
v -0.010235 0.012912 0.016171
vn 0.912400 -0.221874 0.343944
v -0.004494 0.030575 0.006470
vn 0.300187 -0.440265 0.846200
v 0.007826 0.058565 0.003183
vn 0.869475 -0.387802 0.305978
v 0.000369 0.055590 0.010343
vn 0.954518 -0.297052 -0.025604
v -0.000713 0.047548 0.033841
vn 0.956455 -0.291450 -0.015820
v -0.003551 0.034805 0.073036
vn 0.849900 -0.525575 -0.037955
v 0.004279 0.060138 0.032603
vn 0.798960 -0.600952 -0.022777
v 0.004021 0.058213 0.076621
vn 0.953147 -0.301448 -0.025309
v -0.004876 0.028785 0.109758
vn 0.956669 -0.287317 -0.047265
v -0.003828 0.030089 0.136009
vn 0.885443 -0.463571 -0.033046
v 0.005713 0.056258 0.133414
vn 0.928499 -0.256303 -0.268696
v -0.006661 0.012674 0.157699
vn 0.593319 -0.176523 -0.785374
v -0.002823 0.005522 0.167302
vn 0.887482 -0.306910 -0.343776
v 0.001392 0.042230 0.160650
vn -0.755174 0.190117 0.627350
v 0.016734 -0.043598 0.004842
vn -0.462117 0.110607 0.879894
v 0.017569 -0.027264 0.002671
vn -0.963985 0.243036 0.108008
v 0.017434 -0.050406 0.016216
vn -0.965421 0.252030 0.066656
v 0.028527 -0.011673 0.038793
vn -0.598100 0.801005 0.025825
v 0.008592 -0.080797 0.061061
vn -0.898001 0.439143 0.027330
v 0.014156 -0.074226 0.076582
vn -0.929535 0.366571 0.039876
v 0.011810 -0.075426 0.038225
vn -0.963170 0.267408 0.028211
v 0.026428 -0.033858 0.099308
vn -0.577299 0.816258 0.021190
v 0.008187 -0.082955 0.115178
vn -0.926503 0.375622 0.022363
v 0.015631 -0.071760 0.113380
vn -0.963452 0.261679 0.057313
v 0.026583 -0.028851 0.073626
vn -0.959570 0.268715 -0.083775
v 0.021377 -0.054299 0.155794
vn -0.963355 0.267904 0.013193
v 0.028248 -0.029015 0.127372
vn -0.819841 0.572176 0.021793
v 0.014346 -0.078205 0.149062
vn -0.823426 0.226076 -0.520441
v 0.024297 -0.034170 0.164245
vn -0.718438 0.224432 -0.658390
v 0.034625 0.010550 0.166984
vn -0.368751 0.094317 -0.924731
v 0.019859 -0.030344 0.168477
vn -0.036107 0.028604 -0.998938
v 0.014626 0.003596 0.171705
vn -0.444900 0.112520 0.888483
v 0.021076 -0.004518 0.001838
vn -0.064537 0.010492 0.997860
v 0.016707 0.021796 -0.000498
vn -0.555734 0.135756 0.820201
v 0.030121 0.020780 0.002927
vn 0.093820 -0.075075 0.992754
v 0.012288 0.039880 -0.000042
vn -0.903350 0.236942 0.357516
v 0.035049 0.023578 0.007750
vn -0.280587 -0.308087 0.909040
v 0.032096 0.053674 0.001814
vn -0.888867 0.223314 0.400058
v 0.028144 -0.005507 0.010010
vn -0.960835 0.265759 0.078536
v 0.036551 0.023183 0.023573
vn 0.554262 -0.789726 0.262920
v 0.007351 0.064458 0.009350
vn -0.688327 -0.674191 0.267717
v 0.037275 0.059201 0.011093
vn -0.091773 -0.940891 0.326041
v 0.016900 0.066776 0.011286
vn 0.455687 -0.889944 -0.018681
v 0.009572 0.065059 0.040271
vn -0.134275 -0.990812 0.016197
v 0.017662 0.066720 0.043833
vn -0.820955 -0.089302 0.563967
v 0.040729 0.049381 0.007278
vn -0.992909 0.014358 0.118009
v 0.043884 0.048244 0.020540
vn -0.958900 -0.282139 0.030146
v 0.045105 0.049914 0.053218
vn -0.544003 -0.838619 0.027918
v 0.036525 0.059717 0.031084
vn -0.970061 0.236997 0.053054
v 0.039646 0.023206 0.063277
vn -0.972250 0.230333 0.040951
v 0.043684 0.043001 0.042595
vn -0.967469 0.247269 0.053500
v 0.036894 0.007472 0.081111
vn -0.575497 -0.816332 0.049035
v 0.039447 0.059570 0.056453
vn 0.248482 -0.968566 -0.011689
v 0.015244 0.066852 0.072549
vn -0.274119 -0.961607 0.013059
v 0.028148 0.064637 0.075027
vn -0.995307 -0.079456 0.055230
v 0.046158 0.047888 0.083679
vn -0.965775 0.258643 0.019545
v 0.037923 0.008238 0.112479
vn -0.948522 0.295874 -0.112983
v 0.042791 0.023240 0.156364
vn -0.955231 0.259789 -0.141575
v 0.032416 -0.014555 0.152885
vn -0.940757 -0.339079 -0.001641
v 0.048400 0.050798 0.136608
vn -0.994090 0.099076 0.044380
v 0.047620 0.044665 0.108807
vn 0.544958 -0.838228 -0.019861
v 0.011467 0.064173 0.100965
vn 0.730602 -0.681821 -0.036613
v 0.008040 0.060474 0.115190
vn -0.000019 -0.999816 -0.019190
v 0.018045 0.066807 0.096600
vn 0.222705 -0.974885 0.001415
v 0.017199 0.066142 0.127561
vn -0.871231 -0.488928 0.043654
v 0.045670 0.054272 0.105215
vn -0.701490 -0.712178 0.026747
v 0.038995 0.060642 0.074979
vn -0.404730 -0.914403 0.007767
v 0.038246 0.060986 0.101451
vn 0.690822 -0.722941 -0.011017
v 0.009214 0.061525 0.136247
vn -0.643983 -0.765037 0.002022
v 0.043149 0.058493 0.135056
vn -0.968879 0.052955 -0.241805
v 0.049173 0.042042 0.158747
vn -0.229528 -0.973083 -0.020652
v 0.024518 0.066279 0.141219
vn 0.753136 -0.647752 -0.114908
v 0.009752 0.062158 0.158971
vn 0.405527 -0.163081 -0.899418
v 0.009346 0.039966 0.171957
vn 0.298638 -0.801450 -0.518164
v 0.015331 0.065355 0.165364
vn -0.667757 -0.695298 -0.265820
v 0.042978 0.057982 0.163669
vn -0.401110 -0.155390 -0.902754
v 0.040764 0.050369 0.171804
# 127 vertices, 0 vertices normals

f 12//12 14//14 4//4
f 5//5 7//7 4//4
f 5//5 4//4 8//8
f 7//7 5//5 6//6
f 6//6 5//5 10//10
f 1//1 6//6 10//10
f 12//12 4//4 7//7
f 16//16 15//15 7//7
f 7//7 6//6 16//16
f 14//14 8//8 4//4
f 8//8 14//14 9//9
f 8//8 9//9 21//21
f 8//8 10//10 5//5
f 69//69 10//10 11//11
f 10//10 8//8 11//11
f 12//12 13//13 14//14
f 18//18 14//14 13//13
f 12//12 7//7 15//15
f 65//65 16//16 6//6
f 15//15 13//13 12//12
f 16//16 13//13 15//15
f 13//13 16//16 19//19
f 17//17 19//19 16//16
f 13//13 49//49 18//18
f 49//49 13//13 19//19
f 2//2 49//49 19//19
f 51//51 18//18 49//49
f 19//19 17//17 2//2
f 14//14 18//18 24//24
f 14//14 24//24 9//9
f 20//20 24//24 18//18
f 51//51 20//20 18//18
f 21//21 9//9 25//25
f 22//22 21//21 28//28
f 11//11 8//8 21//21
f 22//22 11//11 21//21
f 22//22 69//69 11//11
f 21//21 25//25 23//23
f 23//23 25//25 26//26
f 28//28 21//21 23//23
f 29//29 22//22 28//28
f 29//29 69//69 22//22
f 9//9 24//24 25//25
f 25//25 24//24 26//26
f 24//24 20//20 27//27
f 26//26 24//24 27//27
f 23//23 26//26 34//34
f 35//35 26//26 27//27
f 23//23 30//30 28//28
f 30//30 23//23 31//31
f 34//34 31//31 23//23
f 33//33 29//29 28//28
f 33//33 28//28 30//30
f 30//30 31//31 39//39
f 33//33 30//30 32//32
f 33//33 73//73 29//29
f 41//41 73//73 33//33
f 35//35 34//34 26//26
f 35//35 27//27 36//36
f 31//31 34//34 37//37
f 34//34 35//35 37//37
f 36//36 37//37 35//35
f 37//37 36//36 38//38
f 32//32 30//30 39//39
f 40//40 32//32 39//39
f 41//41 33//33 32//32
f 43//43 41//41 32//32
f 42//42 41//41 43//43
f 43//43 46//46 42//42
f 32//32 40//40 43//43
f 46//46 43//43 40//40
f 39//39 31//31 37//37
f 39//39 37//37 44//44
f 40//40 39//39 44//44
f 47//47 40//40 44//44
f 44//44 37//37 38//38
f 45//45 44//44 38//38
f 44//44 45//45 47//47
f 46//46 40//40 47//47
f 47//47 48//48 46//46
f 48//48 47//47 63//63
f 52//52 51//51 49//49
f 49//49 2//2 50//50
f 84//84 50//50 2//2
f 2//2 17//17 84//84
f 50//50 84//84 86//86
f 50//50 52//52 49//49
f 50//50 86//86 53//53
f 51//51 52//52 55//55
f 54//54 55//55 52//52
f 52//52 50//50 54//54
f 50//50 53//53 54//54
f 54//54 53//53 91//91
f 57//57 55//55 54//54
f 57//57 54//54 91//91
f 94//94 57//57 91//91
f 20//20 51//51 56//56
f 55//55 56//56 51//51
f 56//56 27//27 20//20
f 59//59 56//56 58//58
f 56//56 55//55 57//57
f 56//56 57//57 58//58
f 58//58 57//57 94//94
f 36//36 27//27 59//59
f 27//27 56//56 59//59
f 36//36 59//59 60//60
f 38//38 36//36 60//60
f 62//62 38//38 60//60
f 59//59 58//58 3//3
f 3//3 58//58 112//112
f 61//61 59//59 3//3
f 61//61 3//3 113//113
f 61//61 113//113 119//119
f 61//61 60//60 59//59
f 64//64 60//60 61//61
f 45//45 38//38 62//62
f 63//63 47//47 45//45
f 45//45 62//62 63//63
f 62//62 60//60 64//64
f 62//62 64//64 63//63
f 124//124 63//63 64//64
f 82//82 48//48 63//63
f 63//63 124//124 82//82
f 64//64 61//61 123//123
f 61//61 119//119 123//123
f 64//64 123//123 125//125
f 124//124 64//64 125//125
f 1//1 67//67 65//65
f 65//65 6//6 1//1
f 69//69 1//1 10//10
f 71//71 1//1 69//69
f 67//67 1//1 71//71
f 66//66 17//17 16//16
f 16//16 65//65 66//66
f 17//17 66//66 83//83
f 89//89 66//66 65//65
f 66//66 89//89 83//83
f 67//67 89//89 65//65
f 68//68 89//89 67//67
f 69//69 70//70 71//71
f 68//68 67//67 71//71
f 71//71 75//75 68//68
f 75//75 71//71 70//70
f 70//70 72//72 75//75
f 68//68 75//75 102//102
f 29//29 73//73 69//69
f 70//70 69//69 73//73
f 72//72 70//70 74//74
f 74//74 70//70 73//73
f 74//74 73//73 78//78
f 78//78 73//73 41//41
f 76//76 74//74 78//78
f 77//77 72//72 74//74
f 76//76 77//77 74//74
f 77//77 109//109 107//107
f 42//42 78//78 41//41
f 42//42 76//76 78//78
f 42//42 46//46 79//79
f 109//109 77//77 76//76
f 76//76 42//42 79//79
f 76//76 79//79 109//109
f 80//80 79//79 81//81
f 81//81 79//79 46//46
f 81//81 46//46 48//48
f 81//81 48//48 82//82
f 83//83 84//84 17//17
f 83//83 89//89 85//85
f 87//87 85//85 89//89
f 84//84 83//83 85//85
f 84//84 85//85 88//88
f 86//86 84//84 88//88
f 88//88 85//85 96//96
f 87//87 96//96 85//85
f 87//87 89//89 90//90
f 68//68 90//90 89//89
f 97//97 96//96 87//87
f 97//97 87//87 90//90
f 97//97 90//90 101//101
f 88//88 53//53 86//86
f 88//88 93//93 53//53
f 93//93 91//91 53//53
f 93//93 88//88 92//92
f 92//92 88//88 96//96
f 94//94 91//91 93//93
f 93//93 92//92 99//99
f 94//94 93//93 95//95
f 95//95 93//93 99//99
f 95//95 99//99 103//103
f 97//97 92//92 96//96
f 98//98 92//92 97//97
f 99//99 92//92 98//98
f 98//98 97//97 101//101
f 100//100 68//68 102//102
f 90//90 68//68 100//100
f 100//100 101//101 90//90
f 98//98 101//101 100//100
f 72//72 102//102 75//75
f 106//106 98//98 100//100
f 106//106 100//100 102//102
f 111//111 106//106 102//102
f 105//105 95//95 103//103
f 99//99 98//98 103//103
f 94//94 95//95 104//104
f 105//105 104//104 95//95
f 117//117 105//105 103//103
f 58//58 94//94 104//104
f 58//58 104//104 112//112
f 114//114 112//112 104//104
f 118//118 105//105 117//117
f 105//105 114//114 104//104
f 117//117 103//103 98//98
f 117//117 98//98 106//106
f 107//107 72//72 77//77
f 72//72 107//107 102//102
f 107//107 111//111 102//102
f 109//109 108//108 107//107
f 111//111 107//107 108//108
f 110//110 111//111 121//121
f 121//121 111//111 108//108
f 112//112 114//114 115//115
f 118//118 114//114 105//105
f 113//113 3//3 112//112
f 113//113 112//112 119//119
f 115//115 119//119 112//112
f 114//114 118//118 115//115
f 115//115 118//118 122//122
f 116//116 106//106 111//111
f 116//116 117//117 106//106
f 116//116 111//111 110//110
f 116//116 118//118 117//117
f 120//120 116//116 110//110
f 120//120 118//118 116//116
f 122//122 118//118 120//120
f 126//126 120//120 110//110
f 126//126 122//122 120//120
f 80//80 109//109 79//79
f 127//127 80//80 82//82
f 80//80 108//108 109//109
f 108//108 80//80 121//121
f 82//82 124//124 127//127
f 127//127 121//121 80//80
f 80//80 81//81 82//82
f 123//123 119//119 115//115
f 125//125 123//123 115//115
f 122//122 125//125 115//115
f 125//125 122//122 126//126
f 127//127 125//125 126//126
f 126//126 121//121 127//127
f 126//126 110//110 121//121
f 127//127 124//124 125//125
# 250 faces, 0 coords texture

# End of File
