####
#
# OBJ File Generated by Meshlab
#
####
# Object quaker_chewy_chocolate_chip_250_collision.obj
#
# Vertices: 127
# Faces: 250
#
####
vn -0.064347 -0.997661 0.023052
v 0.006193 -0.084245 0.165766
vn -0.039775 0.897219 -0.439790
v 0.013529 0.069677 0.005873
vn 0.971625 -0.042955 -0.232593
v 0.050880 0.057989 0.013699
vn -0.990154 0.062497 0.125253
v -0.025864 -0.064547 0.162597
vn -0.047772 -0.555431 -0.830189
v -0.000983 -0.084148 0.005871
vn 0.942395 -0.274383 -0.191324
v 0.025440 -0.052834 0.011742
vn 0.396498 0.901218 -0.174917
v 0.045010 0.062252 0.011742
vn 0.971253 -0.226043 -0.074645
v 0.037182 -0.007828 0.014169
vn 0.684294 -0.717816 -0.128383
v 0.013699 -0.082191 0.009057
vn 0.232592 0.972538 0.008396
v 0.025440 0.066362 0.105675
vn 0.536233 -0.094146 -0.838803
v 0.044630 0.043053 0.005871
vn -0.434141 0.037451 -0.900066
v -0.031440 -0.062206 0.005871
vn -0.750356 0.363766 -0.551942
v 0.000803 0.060665 0.005871
vn 0.168711 -0.851853 -0.495865
v 0.003889 -0.084149 0.006315
vn 0.199188 0.979954 0.003648
v 0.015656 0.069395 0.013699
vn 0.215997 -0.138676 -0.966496
v 0.015656 -0.072182 0.005871
vn 0.814451 -0.048158 -0.578230
v 0.048923 0.051872 0.009785
vn -0.485996 0.864869 -0.125738
v 0.005871 0.068625 0.007828
vn 0.875474 0.481261 0.043965
v 0.048009 0.054794 0.156555
vn 0.889911 0.442504 -0.110670
v 0.050880 0.058708 0.014024
vn -0.959128 0.261179 0.108898
v -0.017612 -0.029460 0.158512
vn 0.282204 -0.947314 0.151518
v 0.007778 -0.084199 0.158686
vn -0.971957 0.023444 -0.233987
v -0.033268 -0.071110 0.009785
vn -0.414256 -0.870002 -0.267373
v -0.025440 -0.080235 0.008109
vn 0.240057 0.970729 0.007639
v 0.031311 0.065118 0.080235
vn 0.195088 0.742427 -0.640892
v 0.019569 0.068453 0.005871
vn 0.157980 0.987298 0.016859
v 0.022215 0.066806 0.135451
vn 0.354089 0.935078 0.015842
v 0.037315 0.062701 0.143835
vn 0.682567 -0.246771 -0.687900
v 0.015656 -0.074364 0.006444
vn 0.946608 -0.214028 -0.241092
v 0.037107 -0.007828 0.013699
vn 0.608919 0.364572 -0.704489
v 0.048068 0.057380 0.010007
vn 0.440205 0.897417 0.029372
v 0.041096 0.060959 0.144814
vn 0.946240 0.317733 0.060618
v 0.048923 0.052454 0.160469
vn 0.524176 0.848467 0.073096
v 0.044479 0.058702 0.159386
vn 0.994517 -0.026604 0.101136
v 0.049419 0.048722 0.161597
vn 0.345622 0.936164 0.064355
v 0.035716 0.063140 0.154961
vn -0.473635 -0.097685 -0.875287
v -0.029656 -0.071995 0.005871
vn -0.970185 0.238443 0.043425
v -0.024048 -0.046967 0.125244
vn -0.949880 0.280797 0.137410
v 0.004070 0.047644 0.161931
vn -0.820451 0.567300 0.070929
v 0.009236 0.060665 0.158512
vn 0.974688 -0.209650 0.077651
v 0.049189 0.046295 0.161845
vn -0.986547 0.078587 -0.143347
v -0.033268 -0.070450 0.010943
vn -0.324272 -0.938248 0.120577
v -0.016116 -0.078278 0.160469
vn 0.409720 0.807254 0.424818
v 0.042842 0.058428 0.165791
vn 0.671500 -0.650695 0.354518
v 0.012564 -0.081119 0.159068
vn 0.236305 0.971657 0.006565
v 0.017612 0.068907 0.015656
vn 0.196446 0.459398 -0.866235
v 0.033268 0.063612 0.005871
vn -0.005576 0.999725 0.022788
v 0.019569 0.066740 0.148727
vn 0.256132 0.966574 0.011466
v 0.031052 0.064702 0.135517
vn -0.155465 0.987113 0.037930
v 0.017612 0.066560 0.150684
vn 0.466854 0.883761 0.031842
v 0.043053 0.059846 0.146770
vn -0.957240 0.287961 0.027741
v 0.000009 0.058581 0.011589
vn -0.961557 0.270991 0.044403
v -0.004377 0.025440 0.127201
vn -0.910113 0.252850 0.328269
v -0.023660 -0.056751 0.164825
vn -0.964548 0.256749 0.061051
v -0.018290 -0.029233 0.149172
vn -0.873001 0.439163 0.212143
v 0.007564 0.056926 0.164703
vn -0.480297 0.871834 0.096025
v 0.013269 0.064579 0.158512
vn 0.965121 -0.260109 0.029760
v 0.046056 0.034353 0.159762
vn -0.990778 -0.100081 0.091343
v -0.026146 -0.068493 0.156555
vn -0.832325 -0.439678 -0.337517
v -0.032406 -0.074366 0.009779
vn -0.249910 -0.961440 0.114792
v -0.000087 -0.082922 0.159703
vn -0.093753 -0.211074 -0.972964
v -0.019482 -0.078019 0.005871
vn -0.748824 -0.660956 -0.048986
v -0.031388 -0.076320 0.011775
vn 0.243109 -0.086300 0.966152
v 0.027349 -0.011776 0.169938
vn 0.913120 -0.129542 0.386562
v 0.048578 0.045996 0.164590
vn -0.508606 0.137299 0.849982
v -0.010763 -0.023483 0.169469
vn 0.861559 -0.403966 0.307453
v 0.015382 -0.076751 0.159314
vn 0.355382 0.487657 -0.797430
v 0.037182 0.061593 0.005871
vn -0.165643 0.984967 -0.049017
v 0.007828 0.069030 0.007828
vn 0.581079 -0.452195 -0.676658
v 0.013662 -0.081478 0.007835
vn 0.449239 0.119689 -0.885358
v 0.043753 0.052865 0.005871
vn 0.777856 0.605687 0.167579
v 0.046621 0.056730 0.160448
vn 0.893580 0.423256 0.149564
v 0.048780 0.052837 0.160481
vn -0.960028 0.268519 0.079021
v -0.000790 0.031549 0.158696
vn -0.932845 0.354547 0.064002
v 0.006135 0.054234 0.159491
vn -0.466984 0.205446 0.860069
v 0.011636 0.056854 0.169484
vn -0.693102 0.707326 0.138923
v 0.011284 0.062851 0.161723
vn -0.357915 0.796976 0.486544
v 0.016092 0.064297 0.168223
vn -0.942389 0.328136 0.065037
v 0.005560 0.052837 0.158512
vn -0.156282 -0.893551 0.420884
v 0.000266 -0.082320 0.164922
vn 0.537941 -0.565427 0.625229
v 0.009811 -0.080811 0.167211
vn -0.723321 0.198072 0.661494
v -0.007787 -0.007371 0.168406
vn 0.015906 0.254209 0.967019
v 0.020549 0.060292 0.170456
vn -0.885881 -0.412884 0.211520
v -0.025350 -0.070447 0.164509
vn -0.986956 -0.095223 0.129813
v -0.025898 -0.066536 0.162426
vn -0.988219 0.144802 0.049563
v -0.025721 -0.062622 0.160469
vn -0.380442 -0.923242 0.053737
v -0.017612 -0.077819 0.158512
vn 0.136318 -0.041746 0.989785
v 0.029354 -0.001957 0.170080
vn 0.505041 -0.157425 0.848617
v 0.044031 0.041096 0.169177
vn 0.853358 -0.302027 0.424922
v 0.015573 -0.072407 0.164168
vn 0.707874 0.355352 0.610441
v 0.045439 0.052778 0.169365
vn -0.088187 0.995917 0.019296
v 0.011844 0.069452 0.014317
vn 0.077176 0.065234 -0.994881
v 0.040498 0.058708 0.005871
vn -0.427614 0.902371 0.053597
v 0.013699 0.064923 0.156555
vn 0.059929 0.989694 0.130052
v 0.021208 0.066454 0.160041
vn -0.301338 0.082070 0.949979
v -0.002935 -0.000138 0.170199
vn 0.957282 0.204786 0.204140
v 0.049325 0.050798 0.161980
vn -0.966145 0.255005 0.039186
v -0.022300 -0.039623 0.121966
vn -0.729286 0.358557 0.582734
v 0.008427 0.057037 0.166329
vn -0.903169 0.428633 0.023669
v 0.001451 0.062622 0.011746
vn -0.800869 0.598586 -0.017394
v 0.004029 0.066505 0.009809
vn 0.962493 -0.264769 0.059198
v 0.029755 -0.025877 0.158270
vn -0.422831 -0.234125 0.875443
v -0.021954 -0.070518 0.169979
vn 0.434497 -0.154801 0.887271
v 0.043053 0.043053 0.169841
vn -0.977493 0.206424 0.043542
v -0.027207 -0.056915 0.105230
vn -0.441526 -0.896081 0.045753
v -0.021041 -0.076321 0.158512
vn -0.393240 -0.785132 0.478466
v -0.017236 -0.076322 0.166792
vn -0.530369 -0.838105 0.127627
v -0.021374 -0.076018 0.160759
vn 0.739753 -0.228221 0.632993
v 0.017041 -0.061978 0.166451
vn 0.476685 -0.157954 0.864767
v 0.016363 -0.058859 0.168164
vn 0.827366 -0.233348 0.510895
v 0.035128 0.000978 0.166340
vn 0.415285 -0.066112 0.907286
v 0.044836 0.046615 0.169807
vn -0.049857 0.006702 0.998734
v -0.005925 -0.023074 0.170591
vn -0.308184 0.947425 0.086073
v 0.015656 0.065654 0.158516
vn -0.150971 0.051501 0.987196
v 0.008562 0.037182 0.170447
vn -0.958995 0.278561 0.052272
v -0.002333 0.030953 0.136710
vn -0.962862 0.265218 0.050562
v -0.011235 -0.001957 0.142857
vn -0.705176 0.201396 0.679828
v 0.004547 0.039142 0.167861
vn -0.960991 0.177897 0.211774
v -0.025372 -0.061406 0.163501
vn -0.011395 0.008281 0.999901
v 0.012456 0.030444 0.170904
vn 0.053669 -0.028280 0.998158
v 0.022973 -0.015850 0.170184
vn -0.011247 -0.278621 0.960335
v -0.013162 -0.073872 0.169731
vn -0.983784 0.122949 -0.130583
v -0.033269 -0.066435 0.007828
vn 0.736576 -0.192441 0.648400
v 0.045048 0.041096 0.168340
vn -0.961176 0.244202 0.128473
v -0.024172 -0.055095 0.161325
vn 0.898941 -0.328949 0.289305
v 0.016543 -0.072858 0.159698
vn -0.883583 -0.001107 0.468272
v -0.024369 -0.067867 0.168221
# 127 vertices, 0 vertices normals

f 41//41 8//8 3//3
f 67//67 9//9 6//6
f 17//17 6//6 11//11
f 18//18 2//2 13//13
f 12//12 123//123 13//13
f 41//41 6//6 8//8
f 22//22 14//14 9//9
f 22//22 1//1 14//14
f 14//14 1//1 5//5
f 14//14 5//5 16//16
f 25//25 49//49 7//7
f 25//25 10//10 49//49
f 26//26 15//15 7//7
f 26//26 2//2 15//15
f 27//27 15//15 2//2
f 28//28 7//7 49//49
f 29//29 16//16 11//11
f 29//29 11//11 6//6
f 30//30 8//8 6//6
f 30//30 6//6 17//17
f 30//30 17//17 3//3
f 30//30 3//3 8//8
f 31//31 3//3 17//17
f 31//31 20//20 3//3
f 32//32 7//7 28//28
f 72//72 19//19 20//20
f 33//33 97//97 20//20
f 34//34 20//20 7//7
f 34//34 72//72 20//20
f 35//35 20//20 97//97
f 35//35 3//3 20//20
f 37//37 123//123 12//12
f 41//41 3//3 35//35
f 42//42 37//37 23//23
f 42//42 123//123 37//37
f 60//60 23//23 37//37
f 1//1 24//24 5//5
f 108//108 63//63 24//24
f 45//45 67//67 126//126
f 45//45 9//9 67//67
f 46//46 15//15 10//10
f 46//46 10//10 25//25
f 46//46 25//25 7//7
f 46//46 7//7 15//15
f 47//47 26//26 7//7
f 27//27 10//10 15//15
f 27//27 49//49 10//10
f 48//48 27//27 2//2
f 49//49 36//36 28//28
f 70//70 29//29 6//6
f 70//70 6//6 9//9
f 70//70 9//9 14//14
f 70//70 16//16 29//29
f 71//71 31//31 17//17
f 71//71 17//17 11//11
f 50//50 95//95 48//48
f 36//36 32//32 28//28
f 73//73 33//33 20//20
f 73//73 20//20 19//19
f 73//73 19//19 72//72
f 51//51 32//32 36//36
f 51//51 36//36 34//34
f 51//51 34//34 7//7
f 51//51 7//7 32//32
f 52//52 13//13 123//123
f 98//98 52//52 123//123
f 55//55 125//125 21//21
f 55//55 38//38 125//125
f 105//105 125//125 38//38
f 105//105 38//38 123//123
f 100//100 13//13 52//52
f 126//126 6//6 102//102
f 58//58 6//6 41//41
f 59//59 42//42 23//23
f 4//4 123//123 42//42
f 60//60 24//24 63//63
f 37//37 24//24 60//60
f 62//62 24//24 37//37
f 62//62 5//5 24//24
f 68//68 47//47 7//7
f 68//68 7//7 31//31
f 69//69 92//92 2//2
f 69//69 2//2 18//18
f 69//69 50//50 92//92
f 69//69 18//18 50//50
f 49//49 27//27 36//36
f 92//92 48//48 2//2
f 95//95 27//27 48//48
f 70//70 14//14 16//16
f 31//31 7//7 20//20
f 95//95 36//36 27//27
f 114//114 50//50 18//18
f 44//44 91//91 72//72
f 73//73 72//72 91//91
f 116//116 52//52 53//53
f 98//98 123//123 38//38
f 98//98 38//38 55//55
f 74//74 21//21 39//39
f 39//39 116//116 74//74
f 39//39 52//52 116//116
f 55//55 21//21 74//74
f 125//125 39//39 21//21
f 125//125 54//54 39//39
f 56//56 39//39 54//54
f 76//76 78//78 99//99
f 101//101 77//77 18//18
f 101//101 13//13 100//100
f 79//79 100//100 52//52
f 79//79 52//52 39//39
f 102//102 6//6 58//58
f 45//45 22//22 9//9
f 84//84 59//59 23//23
f 84//84 23//23 60//60
f 84//84 60//60 63//63
f 85//85 4//4 42//42
f 85//85 42//42 59//59
f 85//85 59//59 127//127
f 86//86 123//123 4//4
f 1//1 61//61 24//24
f 87//87 24//24 43//43
f 107//107 43//43 80//80
f 110//110 64//64 122//122
f 65//65 97//97 91//91
f 65//65 35//35 97//97
f 110//110 89//89 64//64
f 91//91 83//83 112//112
f 36//36 95//95 44//44
f 127//127 103//103 66//66
f 96//96 66//66 103//103
f 92//92 50//50 48//48
f 93//93 31//31 71//71
f 93//93 68//68 31//31
f 93//93 47//47 68//68
f 93//93 26//26 47//47
f 93//93 2//2 26//26
f 93//93 13//13 2//2
f 93//93 12//12 13//13
f 93//93 37//37 12//12
f 93//93 62//62 37//37
f 93//93 5//5 62//62
f 93//93 16//16 5//5
f 93//93 11//11 16//16
f 93//93 71//71 11//11
f 95//95 50//50 114//114
f 95//95 114//114 78//78
f 94//94 114//114 18//18
f 94//94 18//18 57//57
f 76//76 83//83 78//78
f 44//44 78//78 83//83
f 97//97 33//33 73//73
f 117//117 53//53 52//52
f 117//117 98//98 55//55
f 117//117 55//55 74//74
f 98//98 117//117 52//52
f 99//99 56//56 54//54
f 125//125 119//119 54//54
f 39//39 56//56 79//79
f 56//56 77//77 40//40
f 56//56 40//40 100//100
f 56//56 99//99 78//78
f 100//100 75//75 56//56
f 78//78 77//77 56//56
f 77//77 57//57 18//18
f 101//101 100//100 40//40
f 77//77 101//101 40//40
f 101//101 18//18 13//13
f 75//75 100//100 79//79
f 75//75 79//79 56//56
f 67//67 6//6 126//126
f 41//41 35//35 65//65
f 61//61 80//80 43//43
f 61//61 43//43 24//24
f 80//80 22//22 81//81
f 81//81 122//122 80//80
f 122//122 107//107 80//80
f 103//103 84//84 107//107
f 103//103 107//107 122//122
f 127//127 82//82 119//119
f 104//104 89//89 112//112
f 104//104 112//112 88//88
f 104//104 88//88 64//64
f 104//104 64//64 89//89
f 84//84 127//127 59//59
f 119//119 125//125 105//105
f 22//22 80//80 61//61
f 22//22 61//61 1//1
f 106//106 87//87 108//108
f 106//106 108//108 24//24
f 106//106 24//24 87//87
f 108//108 87//87 43//43
f 108//108 43//43 107//107
f 121//121 64//64 88//88
f 81//81 110//110 122//122
f 109//109 110//110 81//81
f 111//111 65//65 124//124
f 111//111 90//90 65//65
f 112//112 124//124 65//65
f 126//126 90//90 81//81
f 112//112 65//65 91//91
f 78//78 44//44 95//95
f 34//34 36//36 44//44
f 96//96 76//76 66//66
f 82//82 76//76 118//118
f 82//82 66//66 76//76
f 114//114 94//94 57//57
f 114//114 57//57 78//78
f 115//115 76//76 96//96
f 44//44 83//83 91//91
f 44//44 72//72 34//34
f 91//91 97//97 73//73
f 116//116 53//53 117//117
f 99//99 54//54 119//119
f 118//118 76//76 99//99
f 78//78 57//57 77//77
f 41//41 102//102 58//58
f 41//41 65//65 126//126
f 41//41 126//126 102//102
f 45//45 81//81 22//22
f 84//84 108//108 107//107
f 127//127 84//84 103//103
f 113//113 103//103 122//122
f 127//127 4//4 85//85
f 123//123 119//119 105//105
f 123//123 86//86 119//119
f 81//81 90//90 109//109
f 124//124 110//110 109//109
f 124//124 89//89 110//110
f 124//124 112//112 89//89
f 111//111 124//124 109//109
f 111//111 109//109 90//90
f 122//122 64//64 121//121
f 121//121 88//88 112//112
f 65//65 90//90 126//126
f 113//113 115//115 96//96
f 66//66 82//82 127//127
f 116//116 117//117 74//74
f 99//99 119//119 82//82
f 99//99 82//82 118//118
f 4//4 119//119 86//86
f 81//81 45//45 126//126
f 113//113 122//122 121//121
f 113//113 121//121 120//120
f 4//4 127//127 119//119
f 120//120 112//112 83//83
f 120//120 121//121 112//112
f 83//83 76//76 115//115
f 84//84 63//63 108//108
f 120//120 83//83 115//115
f 120//120 115//115 113//113
f 113//113 96//96 103//103
# 250 faces, 0 coords texture

# End of File
