####
#
# OBJ File Generated by Meshlab
#
####
# Object chewy_dipps_peanut_butter_250_collision.obj
#
# Vertices: 127
# Faces: 250
#
####
vn -0.497349 -0.866140 -0.049456
v 0.047923 -0.068493 0.009785
vn 0.615486 0.632523 -0.470204
v -0.002098 0.068493 0.005871
vn -0.782922 -0.044996 0.620491
v -0.041619 0.047590 0.138877
vn -0.176643 -0.436340 -0.882272
v 0.042200 -0.062622 0.005871
vn -0.376195 0.917357 -0.130127
v -0.013879 0.078278 0.011742
vn 0.586285 -0.810043 0.010019
v 0.058820 -0.058940 0.134839
vn -0.302422 0.739043 0.601960
v -0.019938 0.071632 0.142736
vn -0.677459 -0.716724 0.165397
v 0.040469 -0.053943 0.139868
vn 0.389664 -0.257768 -0.884148
v 0.077913 -0.043156 0.005870
vn -0.799581 -0.599341 -0.038219
v -0.044076 0.037182 0.009785
vn -0.256762 0.486534 -0.835080
v -0.023483 0.071480 0.005871
vn 0.685312 -0.664360 -0.298284
v 0.080235 -0.045148 0.009785
vn -0.730512 -0.681364 0.045778
v 0.039121 -0.052926 0.135282
vn 0.082530 -0.314160 -0.945776
v 0.053044 -0.062622 0.005871
vn -0.736949 -0.626667 -0.253367
v -0.004234 -0.009785 0.005871
vn -0.717843 -0.037834 -0.695176
v -0.046847 0.045174 0.005871
vn -0.585879 0.810389 0.003908
v -0.025440 0.070586 0.078278
vn 0.750362 0.660818 0.016645
v 0.001957 0.061801 0.129158
vn 0.558838 -0.807916 -0.187007
v 0.056751 -0.064579 0.007849
vn 0.898449 -0.424090 0.113744
v 0.078278 -0.040377 0.135029
vn -0.370480 0.923810 0.096542
v -0.019698 0.073300 0.135921
vn -0.560109 -0.624771 0.544003
v 0.042261 -0.054658 0.143137
vn -0.698091 -0.419112 0.580529
v -0.037832 0.042511 0.142833
vn -0.731005 -0.669498 -0.131921
v 0.031311 -0.051085 0.005871
vn -0.647168 -0.757085 0.089426
v 0.043255 -0.056751 0.136986
vn 0.387782 -0.921590 0.017214
v 0.056751 -0.060108 0.133072
vn 0.924908 -0.122653 -0.359864
v 0.082191 -0.042349 0.009785
vn 0.847956 0.492877 -0.195049
v 0.080235 -0.029355 0.007842
vn -0.485481 -0.379298 -0.787681
v -0.035223 0.027397 0.005871
vn -0.943645 -0.329499 0.031063
v -0.045895 0.041096 0.013699
vn -0.578209 0.815855 -0.007385
v -0.027397 0.068899 0.011742
vn 0.060247 0.432963 -0.899396
v -0.009705 0.071426 0.005871
vn 0.642538 -0.765752 0.027738
v 0.059179 -0.058708 0.133072
vn 0.387034 -0.618496 -0.683862
v 0.056729 -0.064579 0.007828
vn 0.762573 -0.610471 0.214026
v 0.076231 -0.043097 0.138823
vn -0.642140 0.766505 0.011228
v -0.025607 0.070450 0.078278
vn 0.656947 0.749191 0.084460
v -0.005898 0.070109 0.134508
vn 0.451237 0.889344 0.073847
v -0.011742 0.074052 0.133072
vn -0.435704 -0.364933 0.822791
v 0.022181 -0.025576 0.146300
vn -0.484614 -0.841445 0.238997
v 0.046935 -0.059343 0.139533
vn -0.851126 -0.493293 0.179571
v -0.039566 0.041145 0.137640
vn 0.269258 -0.963017 0.009946
v 0.050993 -0.068493 0.011742
vn 0.920212 -0.391012 -0.017855
v 0.082191 -0.043053 0.011268
vn 0.409351 0.084909 -0.908418
v 0.078278 -0.030584 0.005871
vn 0.987639 0.145289 0.058830
v 0.078587 -0.031601 0.151278
vn -0.760348 -0.648729 0.031964
v 0.019569 -0.033296 0.097847
vn -0.767563 -0.638570 0.055463
v -0.013611 0.006886 0.113138
vn -0.890906 -0.454152 0.005804
v -0.045077 0.038876 0.010763
vn 0.760541 0.649175 0.012211
v 0.039396 0.019630 0.109554
vn 0.768492 0.639828 0.006334
v 0.046319 0.011364 0.112524
vn 0.760865 0.645176 0.069512
v 0.034875 0.023483 0.133072
vn 0.758638 0.650639 0.033728
v 0.045919 0.011742 0.117416
vn 0.153516 -0.860562 -0.485660
v 0.050247 -0.068493 0.009785
vn -0.261193 -0.798650 0.542160
v 0.047571 -0.056599 0.144212
vn -0.860868 0.498354 -0.102714
v -0.046967 0.052837 0.005908
vn -0.603835 0.796789 -0.022604
v -0.027874 0.068541 0.010286
vn -0.190116 0.980962 0.039614
v -0.017612 0.073968 0.131115
vn -0.598481 0.799667 0.048518
v -0.021554 0.072416 0.129952
vn 0.361550 0.909553 -0.204929
v -0.013287 0.078278 0.011746
vn 0.037983 0.989095 0.142296
v -0.013536 0.074442 0.135250
vn 0.711679 0.654634 0.254888
v -0.004341 0.067449 0.139001
vn -0.070636 -0.036045 0.996851
v -0.009369 0.020394 0.146869
vn -0.747454 -0.624090 0.227647
v -0.007841 0.003435 0.138980
vn -0.605225 -0.792143 0.078822
v 0.045330 -0.058463 0.136986
vn -0.139415 -0.956606 0.255868
v 0.048948 -0.060221 0.138309
vn 0.180424 -0.980435 0.078701
v 0.054794 -0.060656 0.133072
vn -0.058563 -0.997536 0.038637
v 0.048780 -0.068493 0.011862
vn 0.770981 0.636291 0.026879
v 0.048855 0.008203 0.119216
vn 0.999336 -0.019179 0.030994
v 0.079218 -0.035225 0.131115
vn -0.753999 -0.656047 0.032970
v 0.021220 -0.035225 0.097847
vn -0.758746 -0.650095 0.041008
v 0.017898 -0.030805 0.108259
vn -0.905769 -0.412320 0.097851
v -0.041783 0.045109 0.133172
vn -0.983016 -0.180409 0.033634
v -0.046453 0.043053 0.013699
vn -0.995393 -0.020977 0.093558
v -0.041769 0.047717 0.146250
vn -0.837823 -0.319977 -0.442343
v -0.046638 0.043053 0.005871
vn -0.903742 -0.424644 0.054111
v -0.041154 0.042946 0.129158
vn 0.755105 0.650179 0.084163
v 0.019557 0.041096 0.135029
vn 0.395594 0.317377 0.861845
v 0.062622 -0.017612 0.144548
vn 0.727336 0.586260 0.356765
v 0.071415 -0.022054 0.139763
vn 0.753942 0.634309 0.170945
v 0.037411 0.019825 0.137056
vn 0.718849 0.613902 0.326160
v 0.034906 0.021910 0.139133
vn 0.410285 -0.906207 0.102246
v 0.058088 -0.059569 0.137027
vn 0.166355 -0.496370 0.852023
v 0.055405 -0.054235 0.147079
vn 0.088550 0.073434 0.993361
v 0.037556 0.003411 0.146387
vn -0.535194 0.844687 0.008371
v -0.023483 0.071844 0.082191
vn 0.731923 0.661921 0.161706
v -0.000985 0.064579 0.136986
vn 0.200831 0.116673 0.972653
v 0.068813 -0.032695 0.146041
vn 0.038769 0.161570 0.986100
v -0.010962 0.065362 0.145802
vn -0.554551 -0.129747 0.821973
v -0.038717 0.048775 0.145002
vn -0.207011 -0.147085 0.967219
v -0.007828 0.014677 0.146458
vn 0.769207 0.636528 0.056158
v 0.048923 0.008110 0.119373
vn 0.680304 0.276938 0.678596
v 0.076749 -0.030554 0.141906
vn -0.135754 -0.117835 -0.983710
v 0.031132 -0.050880 0.005871
vn -0.747529 -0.662791 0.043681
v 0.027099 -0.041096 0.111546
vn -0.758113 -0.649498 0.058459
v 0.018419 -0.030063 0.125261
vn 0.300784 0.151610 0.941564
v 0.065526 -0.023157 0.145111
vn 0.241023 0.198675 0.949966
v 0.027397 0.022627 0.145386
vn 0.652157 -0.757895 0.016926
v 0.070460 -0.048932 0.133072
vn 0.016939 0.021801 0.999619
v 0.023130 -0.009875 0.147156
vn -0.882098 0.410603 0.230886
v -0.041521 0.052837 0.135029
vn -0.547552 0.836767 0.002640
v -0.023483 0.071906 0.072407
vn 0.743462 0.667459 0.041986
v -0.001970 0.066143 0.133198
vn -0.580287 -0.477884 0.659465
v 0.018244 -0.024059 0.144425
vn -0.721028 -0.581909 0.376165
v -0.034599 0.036411 0.140883
vn -0.752152 -0.655695 0.065821
v 0.032128 -0.045010 0.135029
vn 0.264810 -0.837513 0.477961
v 0.056633 -0.058739 0.142579
vn 0.772256 0.631565 0.068898
v 0.070450 -0.019479 0.133072
vn 0.972886 -0.220423 0.070044
v 0.078824 -0.039125 0.134574
vn 0.940166 -0.194570 0.279697
v 0.078772 -0.036760 0.139651
vn -0.742711 -0.668349 0.041108
v 0.039028 -0.052837 0.135029
vn -0.754949 0.422018 0.501949
v -0.038904 0.054149 0.143966
vn -0.774419 0.618601 0.132694
v -0.038963 0.056870 0.137263
vn 0.521941 0.367685 0.769666
v 0.074150 -0.028152 0.142797
vn 0.654228 0.562499 0.505550
v 0.001774 0.058353 0.142858
vn 0.352243 0.450730 0.820224
v -0.008045 0.067139 0.144844
vn 0.601631 -0.245885 0.759987
v 0.074557 -0.039837 0.145459
vn 0.525368 0.785502 0.327072
v -0.008781 0.071156 0.141484
vn 0.034242 -0.989993 0.136899
v 0.050880 -0.060582 0.136936
vn -0.113021 -0.245820 0.962704
v 0.048835 -0.055043 0.147546
vn -0.797295 0.553915 0.239791
v -0.041096 0.054167 0.133072
vn -0.945950 0.314064 0.080887
v -0.042434 0.050880 0.125244
vn -0.656194 0.743020 0.131648
v -0.034154 0.061550 0.136739
vn -0.759620 -0.640489 0.112922
v 0.018236 -0.028783 0.135255
vn -0.207033 0.104416 0.972746
v -0.036102 0.052272 0.145673
vn -0.769410 -0.623110 0.140507
v -0.038098 0.039132 0.137118
vn 0.767569 0.635920 0.080267
v 0.048243 0.007887 0.129158
vn 0.788601 0.603268 0.119062
v 0.076213 -0.026717 0.134642
# 127 vertices, 0 vertices normals

f 16//16 55//55 11//11
f 59//59 37//37 2//2
f 24//24 4//4 1//1
f 24//24 1//1 13//13
f 27//27 12//12 9//9
f 27//27 9//9 44//44
f 29//29 15//15 10//10
f 31//31 17//17 5//5
f 59//59 5//5 60//60
f 32//32 11//11 5//5
f 32//32 5//5 59//59
f 49//49 28//28 2//2
f 102//102 18//18 2//2
f 102//102 49//49 18//18
f 102//102 2//2 37//37
f 33//33 19//19 12//12
f 34//34 14//14 9//9
f 34//34 9//9 12//12
f 34//34 12//12 19//19
f 87//87 119//119 83//83
f 57//57 60//60 5//5
f 8//8 13//13 1//1
f 8//8 1//1 25//25
f 43//43 12//12 27//27
f 44//44 2//2 28//28
f 44//44 28//28 27//27
f 75//75 29//29 10//10
f 46//46 71//71 10//10
f 46//46 10//10 15//15
f 47//47 10//10 71//71
f 48//48 75//75 10//10
f 48//48 10//10 41//41
f 56//56 31//31 5//5
f 56//56 5//5 11//11
f 56//56 11//11 55//55
f 32//32 59//59 2//2
f 49//49 2//2 18//18
f 50//50 49//49 68//68
f 50//50 28//28 49//49
f 52//52 68//68 49//49
f 52//52 49//49 102//102
f 52//52 51//51 68//68
f 53//53 14//14 34//34
f 53//53 1//1 4//4
f 53//53 4//4 14//14
f 53//53 34//34 19//19
f 53//53 19//19 42//42
f 98//98 6//6 33//33
f 98//98 33//33 12//12
f 122//122 36//36 55//55
f 56//56 55//55 36//36
f 56//56 36//36 17//17
f 56//56 17//17 31//31
f 57//57 5//5 21//21
f 58//58 21//21 5//5
f 59//59 38//38 117//117
f 59//59 117//117 37//37
f 60//60 38//38 59//59
f 61//61 37//37 117//117
f 64//64 1//1 40//40
f 65//65 40//40 1//1
f 66//66 42//42 26//26
f 6//6 26//26 42//42
f 6//6 42//42 19//19
f 6//6 19//19 33//33
f 22//22 103//103 104//104
f 35//35 12//12 43//43
f 28//28 45//45 27//27
f 69//69 43//43 27//27
f 69//69 27//27 45//45
f 70//70 46//46 15//15
f 70//70 71//71 46//46
f 47//47 123//123 125//125
f 72//72 30//30 76//76
f 73//73 75//75 30//30
f 73//73 72//72 74//74
f 73//73 30//30 72//72
f 74//74 55//55 16//16
f 75//75 48//48 30//30
f 48//48 76//76 30//30
f 76//76 48//48 41//41
f 77//77 51//51 52//52
f 78//78 113//113 115//115
f 80//80 61//61 81//81
f 82//82 6//6 98//98
f 82//82 12//12 35//35
f 84//84 119//119 87//87
f 99//99 119//119 84//84
f 122//122 55//55 112//112
f 7//7 21//21 58//58
f 85//85 58//58 5//5
f 85//85 17//17 58//58
f 58//58 17//17 36//36
f 58//58 36//36 122//122
f 58//58 122//122 7//7
f 117//117 38//38 60//60
f 21//21 60//60 57//57
f 86//86 61//61 80//80
f 88//88 124//124 62//62
f 23//23 104//104 103//103
f 123//123 63//63 125//125
f 89//89 23//23 39//39
f 90//90 124//124 89//89
f 39//39 90//90 89//89
f 64//64 25//25 1//1
f 125//125 41//41 10//10
f 47//47 125//125 10//10
f 118//118 42//42 66//66
f 82//82 118//118 66//66
f 67//67 65//65 1//1
f 67//67 118//118 65//65
f 67//67 1//1 53//53
f 67//67 53//53 42//42
f 67//67 42//42 118//118
f 35//35 43//43 20//20
f 127//127 28//28 68//68
f 91//91 68//68 51//51
f 108//108 20//20 43//43
f 109//109 69//69 45//45
f 93//93 70//70 15//15
f 93//93 24//24 70//70
f 93//93 4//4 24//24
f 93//93 15//15 29//29
f 93//93 14//14 4//4
f 93//93 29//29 75//75
f 93//93 9//9 14//14
f 93//93 75//75 16//16
f 93//93 16//16 11//11
f 93//93 11//11 32//32
f 93//93 44//44 9//9
f 93//93 2//2 44//44
f 93//93 32//32 2//2
f 94//94 70//70 24//24
f 95//95 123//123 47//47
f 95//95 47//47 71//71
f 16//16 73//73 74//74
f 16//16 75//75 73//73
f 72//72 76//76 41//41
f 102//102 77//77 52//52
f 80//80 51//51 77//77
f 80//80 77//77 86//86
f 96//96 113//113 78//78
f 97//97 78//78 115//115
f 97//97 96//96 78//78
f 116//116 83//83 106//106
f 117//117 114//114 81//81
f 82//82 26//26 6//6
f 82//82 66//66 26//26
f 98//98 12//12 82//82
f 116//116 87//87 83//83
f 62//62 90//90 119//119
f 99//99 62//62 119//119
f 101//101 85//85 5//5
f 101//101 5//5 17//17
f 101//101 17//17 85//85
f 7//7 115//115 117//117
f 111//111 122//122 112//112
f 37//37 61//61 86//86
f 37//37 86//86 102//102
f 102//102 86//86 77//77
f 124//124 90//90 62//62
f 88//88 84//84 97//97
f 88//88 97//97 115//115
f 88//88 115//115 7//7
f 97//97 84//84 87//87
f 97//97 87//87 96//96
f 3//3 41//41 23//23
f 103//103 39//39 23//23
f 8//8 63//63 123//123
f 119//119 90//90 39//39
f 105//105 95//95 94//94
f 106//106 118//118 82//82
f 22//22 54//54 39//39
f 22//22 39//39 103//103
f 40//40 8//8 25//25
f 40//40 25//25 64//64
f 40//40 54//54 8//8
f 68//68 28//28 50//50
f 107//107 68//68 91//91
f 108//108 43//43 69//69
f 110//110 94//94 24//24
f 110//110 24//24 13//13
f 110//110 105//105 94//94
f 110//110 13//13 105//105
f 71//71 70//70 94//94
f 71//71 94//94 95//95
f 72//72 3//3 74//74
f 92//92 87//87 116//116
f 113//113 114//114 115//115
f 92//92 113//113 96//96
f 96//96 87//87 92//92
f 92//92 116//116 109//109
f 61//61 117//117 81//81
f 113//113 92//92 79//79
f 79//79 81//81 114//114
f 79//79 114//114 113//113
f 118//118 106//106 65//65
f 106//106 83//83 54//54
f 119//119 39//39 54//54
f 120//120 100//100 3//3
f 120//120 3//3 111//111
f 120//120 111//111 112//112
f 120//120 55//55 100//100
f 121//121 100//100 55//55
f 121//121 55//55 74//74
f 60//60 7//7 117//117
f 115//115 114//114 117//117
f 104//104 125//125 63//63
f 104//104 41//41 125//125
f 104//104 23//23 41//41
f 123//123 105//105 8//8
f 123//123 95//95 105//105
f 8//8 104//104 63//63
f 124//124 111//111 89//89
f 3//3 89//89 111//111
f 23//23 89//89 3//3
f 8//8 105//105 13//13
f 54//54 22//22 8//8
f 127//127 68//68 107//107
f 126//126 91//91 51//51
f 127//127 45//45 28//28
f 127//127 92//92 109//109
f 109//109 108//108 69//69
f 3//3 121//121 74//74
f 72//72 41//41 3//3
f 111//111 124//124 7//7
f 82//82 35//35 106//106
f 109//109 20//20 108//108
f 109//109 35//35 20//20
f 81//81 79//79 80//80
f 80//80 79//79 127//127
f 127//127 109//109 45//45
f 54//54 65//65 106//106
f 84//84 88//88 99//99
f 120//120 112//112 55//55
f 3//3 100//100 121//121
f 21//21 7//7 60//60
f 7//7 122//122 111//111
f 7//7 124//124 88//88
f 62//62 99//99 88//88
f 8//8 22//22 104//104
f 54//54 40//40 65//65
f 126//126 107//107 91//91
f 106//106 35//35 116//116
f 127//127 79//79 92//92
f 80//80 127//127 107//107
f 126//126 51//51 80//80
f 126//126 80//80 107//107
f 54//54 83//83 119//119
f 35//35 109//109 116//116
# 250 faces, 0 coords texture

# End of File
