####
#
# OBJ File Generated by Meshlab
#
####
# Object chewy_dipps_peanut_butter_250_collision.obj
#
# Vertices: 125
# Faces: 239
#
####
vn -1.485720 -4.177915 -1.780097
v 0.047923 -0.068493 0.009785
vn 2.121578 2.272877 -2.956351
v -0.002098 0.068493 0.005871
vn -4.978934 -0.430201 1.554118
v -0.041619 0.047590 0.138877
vn -1.959458 -2.342716 -2.976324
v 0.042200 -0.062622 0.005871
vn -1.116175 4.797261 -1.778316
v -0.013879 0.078278 0.011742
vn 3.723473 -5.040304 -0.034048
v 0.058820 -0.058940 0.134839
vn -1.398186 3.595260 3.015879
v -0.019938 0.071632 0.142736
vn -4.219795 -4.379748 1.097965
v 0.040469 -0.053943 0.139868
vn 2.230708 -1.271312 -4.768329
v 0.077913 -0.043156 0.005870
vn -4.969056 -3.488303 -0.784197
v -0.044076 0.037182 0.009785
vn -1.560770 2.666275 -3.145741
v -0.023483 0.071480 0.005871
vn 3.954240 -3.793608 -1.847903
v 0.080235 -0.045148 0.009785
vn -4.534268 -4.325705 0.321406
v 0.039121 -0.052926 0.135282
vn 0.484887 -1.864692 -5.586181
v 0.053044 -0.062622 0.005871
vn -2.386848 -2.040171 -3.040594
v -0.004234 -0.009785 0.005871
vn -1.300216 -0.124211 -3.028389
v -0.046847 0.045174 0.005871
vn -3.720986 5.050641 0.047989
v -0.025440 0.070586 0.078278
vn 4.717011 4.148609 0.116207
v 0.001957 0.061801 0.129158
vn 3.334661 -4.540826 -1.707340
v 0.056751 -0.064579 0.007849
vn 5.505093 -2.800663 0.628608
v 0.078278 -0.040377 0.135029
vn -2.684250 5.138495 0.834443
v -0.019698 0.073300 0.135921
vn -2.391047 -3.639655 2.584930
v 0.042261 -0.054658 0.143137
vn -4.052532 -2.363934 3.613694
v -0.037832 0.042511 0.142833
vn -2.321271 -2.111811 -3.000402
v 0.031311 -0.051085 0.005871
vn -4.099291 -4.718404 0.502412
v 0.043255 -0.056751 0.136986
vn 2.298422 -5.809042 0.208821
v 0.056751 -0.060108 0.133072
vn 3.137114 -1.128123 -2.024043
v 0.082191 -0.042349 0.009785
vn 2.897466 1.587448 -2.063175
v 0.080235 -0.029355 0.007842
vn -2.402846 -1.978278 -3.566050
v -0.035223 0.027397 0.005871
vn -5.904421 -2.092610 0.206275
v -0.045895 0.041096 0.013699
vn -3.650000 5.112898 -0.044219
v -0.027397 0.068899 0.011742
vn 0.603834 2.333257 -5.130919
v -0.009705 0.071426 0.005871
vn 4.023001 -4.821409 0.176301
v 0.059179 -0.058708 0.133072
vn 2.010545 -3.698831 -4.021212
v 0.056729 -0.064579 0.007828
vn 4.514370 -3.512041 1.518893
v 0.076231 -0.043097 0.138823
vn -4.064845 4.787370 0.075277
v -0.025607 0.070450 0.078278
vn 3.632716 4.927135 0.446725
v -0.005898 0.070109 0.134508
vn 2.875168 5.350920 0.308092
v -0.011742 0.074052 0.133072
vn -2.490124 -2.024788 5.257071
v 0.022181 -0.025576 0.146300
vn -2.217261 -4.963572 1.926016
v 0.046935 -0.059343 0.139533
vn -5.139717 -2.930872 1.367384
v -0.039566 0.041145 0.137640
vn 1.800557 -5.647738 -0.091666
v 0.050993 -0.068493 0.011742
vn 5.277369 -2.093699 -0.249210
v 0.082191 -0.043053 0.011268
vn 2.250905 0.675742 -5.122161
v 0.078278 -0.030584 0.005871
vn -4.776601 -4.076949 0.201790
v 0.019569 -0.033296 0.097847
vn -4.831116 -4.000288 0.340819
v -0.013611 0.006886 0.113138
vn -5.576427 -2.782379 -0.074529
v -0.045077 0.038876 0.010763
vn 4.766878 4.090424 0.082691
v 0.039396 0.019630 0.109554
vn 4.827748 4.020424 0.045167
v 0.046319 0.011364 0.112524
vn 4.764729 4.060692 0.487768
v 0.034875 0.023483 0.133072
vn 4.787453 4.063779 0.154651
v 0.045919 0.011742 0.117416
vn 0.774544 -4.678854 -2.376905
v 0.050247 -0.068493 0.009785
vn -1.923108 -4.595279 3.346833
v 0.047571 -0.056599 0.144212
vn -1.024203 1.188836 -2.236855
v -0.046967 0.052837 0.005908
vn -3.814812 4.969059 -0.253001
v -0.027874 0.068541 0.010286
vn -1.233207 6.147801 0.219986
v -0.017612 0.073968 0.131115
vn -3.523113 5.136475 0.270747
v -0.021554 0.072416 0.129952
vn 1.388194 4.595745 -1.679924
v -0.013287 0.078278 0.011746
vn 0.589639 5.765750 1.088355
v -0.013536 0.074442 0.135250
vn 4.405385 4.117913 1.641603
v -0.004341 0.067449 0.139001
vn -0.548054 -0.296957 6.202616
v -0.009369 0.020394 0.146869
vn -4.670815 -3.902868 1.498438
v -0.007841 0.003435 0.138980
vn -3.758424 -4.986173 0.503943
v 0.045330 -0.058463 0.136986
vn -1.059271 -5.708711 1.527692
v 0.048948 -0.060221 0.138309
vn 0.967088 -6.139697 0.498832
v 0.054794 -0.060656 0.133072
vn -0.427176 -6.234908 0.280066
v 0.048780 -0.068493 0.011862
vn 4.838986 3.998853 0.181114
v 0.048855 0.008203 0.119216
vn 2.894832 -0.209042 0.093101
v 0.079218 -0.035225 0.131115
vn -4.725120 -4.135303 0.210991
v 0.021220 -0.035225 0.097847
vn -4.763318 -4.087359 0.271827
v 0.017898 -0.030805 0.108259
vn -3.220454 -1.323254 0.368721
v -0.041783 0.045109 0.133172
vn -3.295504 -0.890343 0.108728
v -0.046453 0.043053 0.013699
vn -2.955987 -0.846679 -2.793501
v -0.046638 0.043053 0.005871
vn -5.596541 -2.769775 0.311752
v -0.041154 0.042946 0.129158
vn 4.733085 4.074494 0.603431
v 0.019557 0.041096 0.135029
vn 2.529221 2.068782 5.304173
v 0.062622 -0.017612 0.144548
vn 4.512600 3.651685 2.050116
v 0.071415 -0.022054 0.139763
vn 4.717751 3.947298 1.145644
v 0.037411 0.019825 0.137056
vn 4.445588 3.776781 2.224412
v 0.034906 0.021910 0.139133
vn 2.625006 -5.213305 0.793691
v 0.058088 -0.059569 0.137027
vn 1.047911 -2.329829 4.929819
v 0.055405 -0.054235 0.147079
vn 0.643653 0.536149 6.197068
v 0.037556 0.003411 0.146387
vn -3.340339 5.317506 0.066615
v -0.023483 0.071844 0.082191
vn 4.566986 4.058474 1.214948
v -0.000985 0.064579 0.136986
vn 1.379507 0.747707 5.931919
v 0.068813 -0.032695 0.146041
vn 0.162701 1.445479 5.886271
v -0.010962 0.065362 0.145802
vn -3.269416 -0.509933 4.161702
v -0.038717 0.048775 0.145002
vn -1.357567 -1.001433 6.032928
v -0.007828 0.014677 0.146458
vn 4.845539 3.985021 0.313017
v 0.048923 0.008110 0.119373
vn 4.171768 1.720328 2.892484
v 0.076749 -0.030554 0.141906
vn -2.371667 -2.057776 -3.039742
v 0.031132 -0.050880 0.005871
vn -4.677969 -4.185102 0.262238
v 0.027099 -0.041096 0.111546
vn -4.769045 -4.072617 0.374157
v 0.018419 -0.030063 0.125261
vn 1.953064 1.416966 5.739627
v 0.065526 -0.023157 0.145111
vn 1.666878 1.382255 5.832620
v 0.027397 0.022627 0.145386
vn -0.004731 -0.004244 -0.003405
v 0.070460 -0.048932 0.133072
vn 0.086530 0.114493 6.280432
v 0.023130 -0.009875 0.147156
vn -0.300181 1.121959 1.199225
v -0.041521 0.052837 0.135029
vn -3.436745 5.258171 0.009825
v -0.023483 0.071906 0.072407
vn 4.597923 4.256493 0.303576
v -0.001970 0.066143 0.133198
vn -3.620383 -2.965718 4.120919
v 0.018244 -0.024059 0.144425
vn -4.368016 -3.527631 2.573136
v -0.034599 0.036411 0.140883
vn -4.728566 -4.104862 0.486046
v 0.032128 -0.045010 0.135029
vn 1.547948 -4.480976 2.681975
v 0.056633 -0.058739 0.142579
vn 4.847018 3.964785 0.474019
v 0.070450 -0.019479 0.133072
vn 5.978366 -1.476404 0.449498
v 0.078824 -0.039125 0.134574
vn 4.429784 -0.566871 1.642235
v 0.078772 -0.036760 0.139651
vn -4.672273 -4.193135 0.250949
v 0.039028 -0.052837 0.135029
vn -3.663688 2.002226 3.054530
v -0.038904 0.054149 0.143966
vn -4.723642 3.724045 0.986944
v -0.038963 0.056870 0.137263
vn 2.517033 1.104212 4.596763
v 0.074150 -0.028152 0.142797
vn 4.005657 3.431101 3.089415
v 0.001774 0.058353 0.142858
vn 1.906780 2.735186 4.615902
v -0.008045 0.067139 0.144844
vn 2.801411 -1.077849 3.999869
v 0.074557 -0.039837 0.145459
vn 2.238273 4.338629 2.497842
v -0.008781 0.071156 0.141484
vn -0.013461 -6.112258 0.944182
v 0.050880 -0.060582 0.136936
vn -0.708917 -2.621815 3.713535
v 0.048835 -0.055043 0.147546
vn -5.450095 2.887612 0.549929
v -0.041096 0.054167 0.133072
vn -3.259989 0.755830 0.153010
v -0.042434 0.050880 0.125244
vn -4.080286 4.567233 0.973543
v -0.034154 0.061550 0.136739
vn -4.757657 -4.008247 0.791672
v 0.018236 -0.028783 0.135255
vn -1.370238 0.852683 5.786984
v -0.036102 0.052272 0.145673
vn -4.831892 -3.848008 0.906654
v -0.038098 0.039132 0.137118
vn 4.821596 3.997512 0.493900
v 0.048243 0.007887 0.129158
vn 3.424336 2.337584 0.497261
v 0.076213 -0.026717 0.134642
# 125 vertices, 0 vertices normals

f 16//16 54//54 11//11
f 58//58 37//37 2//2
f 24//24 4//4 1//1
f 24//24 1//1 13//13
f 27//27 12//12 9//9
f 27//27 9//9 44//44
f 29//29 15//15 10//10
f 31//31 17//17 5//5
f 58//58 5//5 59//59
f 32//32 11//11 5//5
f 32//32 5//5 58//58
f 48//48 28//28 2//2
f 100//100 18//18 2//2
f 100//100 48//48 18//18
f 100//100 2//2 37//37
f 33//33 19//19 12//12
f 34//34 14//14 9//9
f 34//34 9//9 12//12
f 34//34 12//12 19//19
f 85//85 117//117 81//81
f 56//56 59//59 5//5
f 8//8 13//13 1//1
f 8//8 1//1 25//25
f 43//43 12//12 27//27
f 44//44 2//2 28//28
f 44//44 28//28 27//27
f 73//73 29//29 10//10
f 45//45 70//70 10//10
f 45//45 10//10 15//15
f 46//46 10//10 70//70
f 47//47 73//73 10//10
f 47//47 10//10 41//41
f 55//55 31//31 5//5
f 55//55 5//5 11//11
f 55//55 11//11 54//54
f 32//32 58//58 2//2
f 48//48 2//2 18//18
f 49//49 48//48 67//67
f 49//49 28//28 48//48
f 51//51 67//67 48//48
f 51//51 48//48 100//100
f 51//51 50//50 67//67
f 52//52 14//14 34//34
f 52//52 1//1 4//4
f 52//52 4//4 14//14
f 52//52 34//34 19//19
f 52//52 19//19 42//42
f 96//96 6//6 33//33
f 96//96 33//33 12//12
f 120//120 36//36 54//54
f 55//55 54//54 36//36
f 55//55 36//36 17//17
f 55//55 17//17 31//31
f 56//56 5//5 21//21
f 57//57 21//21 5//5
f 58//58 38//38 115//115
f 58//58 115//115 37//37
f 59//59 38//38 58//58
f 60//60 37//37 115//115
f 63//63 1//1 40//40
f 64//64 40//40 1//1
f 65//65 42//42 26//26
f 6//6 26//26 42//42
f 6//6 42//42 19//19
f 6//6 19//19 33//33
f 22//22 101//101 102//102
f 35//35 12//12 43//43
f 68//68 43//43 27//27
f 69//69 45//45 15//15
f 69//69 70//70 45//45
f 46//46 121//121 123//123
f 71//71 30//30 74//74
f 72//72 73//73 30//30
f 72//72 30//30 71//71
f 73//73 47//47 30//30
f 47//47 74//74 30//30
f 74//74 47//47 41//41
f 75//75 50//50 51//51
f 76//76 111//111 113//113
f 78//78 60//60 79//79
f 80//80 6//6 96//96
f 80//80 12//12 35//35
f 82//82 117//117 85//85
f 97//97 117//117 82//82
f 120//120 54//54 110//110
f 7//7 21//21 57//57
f 83//83 57//57 5//5
f 83//83 17//17 57//57
f 57//57 17//17 36//36
f 57//57 36//36 120//120
f 57//57 120//120 7//7
f 115//115 38//38 59//59
f 21//21 59//59 56//56
f 84//84 60//60 78//78
f 86//86 122//122 61//61
f 23//23 102//102 101//101
f 121//121 62//62 123//123
f 87//87 23//23 39//39
f 88//88 122//122 87//87
f 39//39 88//88 87//87
f 63//63 25//25 1//1
f 123//123 41//41 10//10
f 46//46 123//123 10//10
f 116//116 42//42 65//65
f 80//80 116//116 65//65
f 66//66 64//64 1//1
f 66//66 116//116 64//64
f 66//66 1//1 52//52
f 66//66 52//52 42//42
f 66//66 42//42 116//116
f 35//35 43//43 20//20
f 125//125 28//28 67//67
f 89//89 67//67 50//50
f 106//106 20//20 43//43
f 91//91 69//69 15//15
f 91//91 24//24 69//69
f 91//91 4//4 24//24
f 91//91 15//15 29//29
f 91//91 14//14 4//4
f 91//91 29//29 73//73
f 91//91 9//9 14//14
f 91//91 73//73 16//16
f 91//91 16//16 11//11
f 91//91 11//11 32//32
f 91//91 44//44 9//9
f 91//91 2//2 44//44
f 91//91 32//32 2//2
f 92//92 69//69 24//24
f 93//93 121//121 46//46
f 93//93 46//46 70//70
f 16//16 73//73 72//72
f 71//71 74//74 41//41
f 100//100 75//75 51//51
f 78//78 50//50 75//75
f 78//78 75//75 84//84
f 94//94 111//111 76//76
f 95//95 76//76 113//113
f 95//95 94//94 76//76
f 114//114 81//81 104//104
f 115//115 112//112 79//79
f 80//80 26//26 6//6
f 80//80 65//65 26//26
f 96//96 12//12 80//80
f 114//114 85//85 81//81
f 61//61 88//88 117//117
f 97//97 61//61 117//117
f 99//99 83//83 5//5
f 99//99 5//5 17//17
f 99//99 17//17 83//83
f 7//7 113//113 115//115
f 109//109 120//120 110//110
f 37//37 60//60 84//84
f 37//37 84//84 100//100
f 100//100 84//84 75//75
f 122//122 88//88 61//61
f 86//86 82//82 95//95
f 86//86 95//95 113//113
f 86//86 113//113 7//7
f 95//95 82//82 85//85
f 95//95 85//85 94//94
f 3//3 41//41 23//23
f 101//101 39//39 23//23
f 8//8 62//62 121//121
f 117//117 88//88 39//39
f 103//103 93//93 92//92
f 104//104 116//116 80//80
f 22//22 53//53 39//39
f 22//22 39//39 101//101
f 40//40 8//8 25//25
f 40//40 25//25 63//63
f 40//40 53//53 8//8
f 67//67 28//28 49//49
f 105//105 67//67 89//89
f 106//106 43//43 68//68
f 108//108 92//92 24//24
f 108//108 24//24 13//13
f 108//108 103//103 92//92
f 108//108 13//13 103//103
f 70//70 69//69 92//92
f 70//70 92//92 93//93
f 90//90 85//85 114//114
f 111//111 112//112 113//113
f 90//90 111//111 94//94
f 94//94 85//85 90//90
f 90//90 114//114 107//107
f 60//60 115//115 79//79
f 111//111 90//90 77//77
f 77//77 79//79 112//112
f 77//77 112//112 111//111
f 116//116 104//104 64//64
f 104//104 81//81 53//53
f 117//117 39//39 53//53
f 118//118 98//98 3//3
f 118//118 3//3 109//109
f 118//118 109//109 110//110
f 118//118 54//54 98//98
f 119//119 98//98 54//54
f 59//59 7//7 115//115
f 113//113 112//112 115//115
f 102//102 123//123 62//62
f 102//102 41//41 123//123
f 102//102 23//23 41//41
f 121//121 103//103 8//8
f 121//121 93//93 103//103
f 8//8 102//102 62//62
f 122//122 109//109 87//87
f 3//3 87//87 109//109
f 23//23 87//87 3//3
f 8//8 103//103 13//13
f 53//53 22//22 8//8
f 125//125 67//67 105//105
f 124//124 89//89 50//50
f 125//125 90//90 107//107
f 107//107 106//106 68//68
f 71//71 41//41 3//3
f 109//109 122//122 7//7
f 80//80 35//35 104//104
f 107//107 20//20 106//106
f 107//107 35//35 20//20
f 79//79 77//77 78//78
f 78//78 77//77 125//125
f 53//53 64//64 104//104
f 82//82 86//86 97//97
f 118//118 110//110 54//54
f 3//3 98//98 119//119
f 21//21 7//7 59//59
f 7//7 120//120 109//109
f 7//7 122//122 86//86
f 61//61 97//97 86//86
f 8//8 22//22 102//102
f 53//53 40//40 64//64
f 124//124 105//105 89//89
f 104//104 35//35 114//114
f 125//125 77//77 90//90
f 78//78 125//125 105//105
f 124//124 50//50 78//78
f 124//124 78//78 105//105
f 53//53 81//81 117//117
f 35//35 107//107 114//114
# 239 faces, 0 coords texture

# End of File
