####
#
# OBJ File Generated by Meshlab
#
####
# Object coffee_mate_french_vanilla_250_collision.obj
#
# Vertices: 127
# Faces: 250
#
####
vn 0.919821 0.388063 -0.057766
v 0.039139 0.006109 0.011742
vn 0.632243 -0.750120 0.193876
v 0.027457 -0.043311 0.163561
vn -0.658277 0.726857 -0.195835
v -0.025440 0.015170 0.009785
vn -0.921799 -0.290902 -0.256248
v -0.035741 -0.023516 0.012293
vn 0.103313 0.490944 -0.865044
v 0.005405 0.021544 0.005872
vn -0.414708 -0.867515 -0.274656
v -0.012373 -0.050880 0.011742
vn 0.976206 0.069072 0.205549
v 0.041272 -0.010767 0.165011
vn 0.521529 0.853077 -0.016371
v 0.025440 0.019537 0.015656
vn 0.307776 -0.951216 -0.021480
v 0.015656 -0.048973 0.050880
vn -0.902911 0.429332 -0.020649
v -0.035225 0.002483 0.011742
vn 0.998695 -0.049429 -0.012867
v 0.040910 -0.016075 0.065429
vn 0.546247 0.683999 -0.483487
v 0.029354 0.015259 0.007828
vn -0.690010 0.722120 0.049288
v -0.021210 0.013699 0.152641
vn -0.661766 0.158260 0.732816
v -0.026296 -0.002280 0.174018
vn 0.286898 0.916744 -0.277976
v 0.010750 0.025440 0.011742
vn -0.639929 -0.722229 -0.262443
v -0.017612 -0.048088 0.013699
vn -0.304923 -0.341159 -0.889175
v -0.015953 -0.039208 0.005871
vn -0.482479 -0.241702 -0.841899
v -0.029711 -0.024087 0.005860
vn -0.953565 -0.299212 0.034449
v -0.031689 -0.023483 0.152641
vn 0.991733 -0.128026 0.008682
v 0.041306 -0.018426 0.149876
vn 0.999129 0.039709 -0.012857
v 0.040754 -0.010835 0.062957
vn 0.741946 -0.670343 -0.012509
v 0.031311 -0.038882 0.072407
vn 0.707328 0.706631 -0.018957
v 0.033268 0.012269 0.015656
vn 0.116089 0.145825 -0.982476
v 0.029778 0.008573 0.005872
vn -0.515696 0.854823 0.057750
v -0.015668 0.017785 0.154839
vn 0.603847 -0.206696 -0.769835
v 0.036838 -0.022479 0.005871
vn 0.089891 0.978668 -0.184741
v 0.000000 0.026850 0.011742
vn 0.477223 0.850782 -0.220064
v 0.025440 0.019063 0.011742
vn 0.375417 -0.926821 0.008106
v 0.017612 -0.049005 0.152641
vn -0.917791 -0.355704 -0.176450
v -0.035225 -0.025344 0.015656
vn -0.855509 -0.515901 0.044155
v -0.027374 -0.033027 0.160356
vn -0.123703 -0.778141 -0.615788
v -0.009785 -0.050507 0.009785
vn 0.339218 -0.935218 -0.101486
v 0.017661 -0.047062 0.019549
vn 0.631001 -0.732903 -0.254343
v 0.027403 -0.041111 0.006271
vn -0.816384 0.312831 -0.485442
v -0.035090 0.001965 0.009776
vn -0.836976 0.033786 -0.546195
v -0.036174 -0.007516 0.008885
vn -0.973158 -0.222136 0.060166
v -0.032109 -0.021447 0.157538
vn 0.939964 0.340451 0.023676
v 0.039082 -0.000785 0.144285
vn 0.978576 -0.191657 -0.075209
v 0.039614 -0.019796 0.016446
vn 0.999645 0.012260 -0.023637
v 0.040304 -0.013209 0.038160
vn 0.875680 -0.475542 -0.083928
v 0.035761 -0.030293 0.017693
vn 0.669563 0.742088 -0.031470
v 0.027397 0.017867 0.015656
vn 0.294223 0.955447 0.023544
v 0.013699 0.021753 0.150684
vn 0.582952 0.810004 0.063721
v 0.025440 0.015881 0.162426
vn -0.623362 0.778893 0.068886
v -0.019569 0.015231 0.152641
vn -0.704231 0.704945 0.084329
v -0.023057 0.011742 0.154598
vn -0.170908 0.984419 0.041338
v -0.003914 0.022308 0.154598
vn 0.256150 -0.966604 0.007941
v 0.013751 -0.050317 0.152915
vn 0.454475 -0.890759 -0.000646
v 0.022173 -0.046967 0.146770
vn 0.151570 -0.574915 -0.804052
v 0.017621 -0.044162 0.005871
vn -0.841250 -0.478678 -0.251329
v -0.032074 -0.031311 0.015656
vn -0.795439 -0.557083 -0.238610
v -0.031318 -0.032544 0.015620
vn -0.810390 -0.468573 0.351721
v -0.025401 -0.035787 0.164108
vn -0.483898 -0.874879 -0.020706
v -0.016168 -0.048923 0.013699
vn -0.579132 -0.813500 0.053151
v -0.016157 -0.044969 0.157753
vn -0.642537 -0.764133 0.056979
v -0.019569 -0.042075 0.160469
vn 0.016413 -0.473501 -0.880641
v 0.001827 -0.046638 0.005872
vn 0.231689 -0.969304 -0.082276
v 0.013699 -0.048377 0.021526
vn 0.647135 -0.762216 -0.015568
v 0.026785 -0.042663 0.046652
vn 0.160164 0.962119 0.220622
v 0.010800 0.022174 0.163247
vn -0.999841 -0.004025 -0.017358
v -0.036769 -0.009785 0.015656
vn -0.986840 0.157366 -0.037181
v -0.035937 -0.000001 0.013712
vn -0.091556 0.933231 -0.347416
v -0.001977 0.026735 0.010405
vn 0.876948 0.238236 0.417380
v 0.040378 -0.006423 0.164292
vn 0.716500 0.121610 -0.686905
v 0.039267 -0.001531 0.005866
vn 0.968097 -0.250197 -0.013747
v 0.039409 -0.024852 0.063721
vn 0.899512 -0.436430 -0.020184
v 0.037187 -0.029549 0.043100
vn 0.818382 0.573873 0.030332
v 0.034629 0.006849 0.154598
vn 0.341916 0.922969 0.176694
v 0.017850 0.019947 0.164802
vn 0.670118 0.741901 0.022896
v 0.029319 0.013015 0.153559
vn 0.459544 0.841373 0.284447
v 0.021471 0.018234 0.164622
vn -0.550883 0.834267 0.022942
v -0.016024 0.017612 0.152641
vn -0.704087 0.709139 0.037190
v -0.021526 0.013389 0.152641
vn 0.184633 -0.982614 -0.019495
v 0.007817 -0.050856 0.052121
vn 0.067865 -0.988209 0.137253
v 0.006765 -0.051260 0.161732
vn 0.398801 -0.916906 -0.015545
v 0.015775 -0.048923 0.050880
vn -0.285913 -0.956648 0.055476
v -0.005531 -0.050207 0.156859
vn 0.004776 -0.995252 -0.097218
v -0.007827 -0.052072 0.013703
vn -0.914990 -0.393544 0.088975
v -0.029415 -0.029574 0.158986
vn 0.169259 -0.930809 -0.323953
v -0.003609 -0.050892 0.011692
vn 0.569539 -0.821964 0.001243
v 0.025524 -0.044886 0.150901
vn 0.765144 -0.643720 0.013397
v 0.032716 -0.038327 0.152572
vn 0.847916 -0.513139 0.133138
v 0.035199 -0.034702 0.162279
vn -0.033576 0.943737 0.328988
v 0.006137 0.022045 0.168337
vn 0.368157 0.704107 0.607201
v 0.018617 0.016187 0.172787
vn -0.916780 0.362893 0.166804
v -0.029427 0.000614 0.162990
vn -0.869815 0.489442 0.062200
v -0.028095 0.004730 0.151645
vn -0.959165 0.234267 0.158499
v -0.031072 -0.004174 0.163153
vn -0.239886 0.518719 -0.820600
v -0.014149 0.017593 0.005867
vn -0.995137 -0.084355 0.050852
v -0.032700 -0.017958 0.154654
vn -0.997102 0.045964 0.060629
v -0.032935 -0.013744 0.154266
vn 0.785456 -0.618500 -0.022719
v 0.032991 -0.036223 0.045710
vn 0.518189 0.854981 0.022077
v 0.022593 0.017612 0.162426
vn 0.707891 0.683285 0.178920
v 0.031647 0.010224 0.166463
vn 0.405856 -0.913936 0.001417
v 0.021526 -0.047250 0.146770
vn -0.438609 -0.895080 0.080330
v -0.011713 -0.047737 0.158594
vn -0.726524 -0.630213 0.273851
v -0.023175 -0.038498 0.164960
vn 0.496810 -0.867634 -0.019773
v 0.021643 -0.046295 0.052948
vn 0.264247 -0.940914 0.211789
v 0.015297 -0.049528 0.164322
vn 0.676428 -0.736507 0.001502
v 0.029437 -0.041731 0.153321
vn -0.134579 0.089395 -0.986862
v -0.022666 0.010825 0.005871
vn -0.937996 -0.137203 0.318338
v -0.031351 -0.017818 0.169939
vn 0.896775 -0.197824 0.395804
v 0.040371 -0.021411 0.165674
vn 0.829957 -0.557671 -0.013198
v 0.034795 -0.034458 0.080027
vn 0.205785 0.978529 0.011538
v 0.009785 0.025692 0.015656
vn -0.780175 0.619449 0.087234
v -0.024857 0.009490 0.156568
vn -0.564110 -0.405851 0.719072
v -0.020606 -0.035348 0.173566
vn -0.243931 -0.372914 0.895228
v -0.010582 -0.042610 0.174191
vn -0.353332 0.912748 -0.205056
v -0.008328 0.025440 0.011742
vn 0.145877 -0.989152 0.017268
v 0.009845 -0.051083 0.154986
vn 0.456606 -0.889103 0.031732
v 0.022169 -0.046849 0.156066
vn 0.882505 0.449731 0.137578
v 0.037231 0.002310 0.164160
vn 0.064804 0.996899 0.044642
v 0.005872 0.023099 0.154621
vn -0.092429 0.992807 0.076104
v 0.002012 0.022797 0.160955
vn -0.804400 0.526325 0.275539
v -0.026034 0.005158 0.169505
vn -0.298889 0.943934 0.140193
v -0.007904 0.021370 0.157712
vn -0.075209 -0.709829 0.700348
v 0.002473 -0.046777 0.174734
vn 0.310406 -0.540300 0.782128
v 0.019390 -0.042972 0.174944
vn 0.625460 0.343685 0.700485
v 0.032945 0.004206 0.172472
vn 0.594107 -0.187557 0.782214
v 0.035534 -0.023909 0.174753
vn 0.943151 -0.332042 0.014631
v 0.039726 -0.026130 0.149685
vn 0.339623 0.940410 0.016884
v 0.010714 0.025328 0.019227
vn -0.552440 0.798955 0.237656
v -0.016424 0.015848 0.164556
vn -0.277914 0.351877 0.893838
v -0.018699 0.008901 0.175507
vn 0.031150 0.428250 0.903123
v 0.002862 0.017300 0.175298
vn -0.502194 -0.770301 0.392986
v -0.016000 -0.044131 0.167099
vn -0.153016 -0.960770 0.231315
v 0.000117 -0.051195 0.162352
# 127 vertices, 0 vertices normals

f 15//15 12//12 5//5
f 16//16 17//17 6//6
f 16//16 4//4 18//18
f 16//16 52//52 4//4
f 16//16 18//18 17//17
f 89//89 3//3 109//109
f 64//64 7//7 1//1
f 23//23 1//1 12//12
f 25//25 109//109 3//3
f 106//106 3//3 10//10
f 28//28 15//15 8//8
f 28//28 8//8 12//12
f 28//28 12//12 15//15
f 30//30 79//79 19//19
f 97//97 52//52 16//16
f 32//32 78//78 6//6
f 35//35 10//10 3//3
f 63//63 5//5 89//89
f 101//101 35//35 3//3
f 101//101 3//3 89//89
f 37//37 30//30 19//19
f 37//37 4//4 30//30
f 38//38 64//64 1//1
f 7//7 21//21 1//1
f 65//65 24//24 12//12
f 41//41 34//34 26//26
f 94//94 23//23 70//70
f 94//94 1//1 23//23
f 68//68 112//112 1//1
f 42//42 8//8 70//70
f 42//42 70//70 23//23
f 42//42 23//23 12//12
f 42//42 12//12 8//8
f 24//24 5//5 12//12
f 45//45 3//3 13//13
f 46//46 45//45 13//13
f 46//46 3//3 106//106
f 65//65 39//39 26//26
f 5//5 27//27 15//15
f 5//5 63//63 27//27
f 77//77 6//6 78//78
f 51//51 52//52 31//31
f 52//52 30//30 4//4
f 52//52 51//51 30//30
f 53//53 52//52 97//97
f 54//54 16//16 6//6
f 54//54 6//6 96//96
f 96//96 6//6 77//77
f 56//56 16//16 55//55
f 57//57 32//32 17//17
f 17//17 32//32 6//6
f 59//59 98//98 34//34
f 4//4 36//36 18//18
f 61//61 36//36 4//4
f 62//62 88//88 10//10
f 62//62 36//36 61//61
f 62//62 35//35 36//36
f 62//62 10//10 35//35
f 63//63 89//89 109//109
f 63//63 109//109 47//47
f 101//101 36//36 35//35
f 90//90 61//61 4//4
f 79//79 102//102 37//37
f 102//102 90//90 37//37
f 112//112 38//38 1//1
f 112//112 64//64 38//38
f 103//103 121//121 20//20
f 20//20 11//11 7//7
f 21//21 40//40 1//1
f 40//40 11//11 39//39
f 66//66 20//20 121//121
f 65//65 12//12 1//1
f 65//65 1//1 40//40
f 40//40 39//39 65//65
f 66//66 121//121 67//67
f 39//39 41//41 26//26
f 67//67 41//41 39//39
f 67//67 39//39 66//66
f 68//68 1//1 94//94
f 70//70 8//8 44//44
f 72//72 45//45 25//25
f 72//72 25//25 3//3
f 72//72 3//3 45//45
f 73//73 46//46 13//13
f 73//73 13//13 3//3
f 73//73 3//3 46//46
f 74//74 9//9 48//48
f 75//75 127//127 78//78
f 76//76 29//29 9//9
f 98//98 81//81 49//49
f 98//98 59//59 81//81
f 77//77 78//78 127//127
f 50//50 26//26 34//34
f 33//33 50//50 34//34
f 33//33 80//80 50//50
f 33//33 9//9 58//58
f 33//33 76//76 9//9
f 79//79 30//30 51//51
f 79//79 51//51 31//31
f 31//31 52//52 53//53
f 126//126 53//53 97//97
f 96//96 16//16 54//54
f 96//96 55//55 16//16
f 97//97 16//16 56//56
f 80//80 32//32 57//57
f 80//80 78//78 32//32
f 57//57 50//50 80//80
f 80//80 33//33 58//58
f 81//81 59//59 100//100
f 111//111 49//49 81//81
f 100//100 59//59 22//22
f 82//82 100//100 22//22
f 86//86 10//10 88//88
f 87//87 10//10 86//86
f 91//91 62//62 61//61
f 88//88 62//62 91//91
f 90//90 4//4 37//37
f 91//91 102//102 88//88
f 37//37 19//19 79//79
f 53//53 79//79 31//31
f 21//21 7//7 11//11
f 21//21 11//11 40//40
f 66//66 11//11 20//20
f 66//66 39//39 11//11
f 104//104 92//92 41//41
f 104//104 22//22 92//92
f 104//104 82//82 22//22
f 104//104 67//67 83//83
f 92//92 59//59 34//34
f 92//92 22//22 59//59
f 92//92 34//34 41//41
f 41//41 67//67 104//104
f 122//122 69//69 8//8
f 122//122 8//8 15//15
f 114//114 113//113 27//27
f 114//114 27//27 63//63
f 93//93 44//44 8//8
f 93//93 8//8 71//71
f 93//93 71//71 44//44
f 69//69 71//71 8//8
f 69//69 60//60 71//71
f 94//94 70//70 44//44
f 94//94 44//44 71//71
f 106//106 10//10 87//87
f 116//116 47//47 109//109
f 48//48 9//9 29//29
f 74//74 58//58 9//9
f 74//74 78//78 58//58
f 110//110 75//75 78//78
f 110//110 78//78 74//74
f 95//95 76//76 49//49
f 95//95 29//29 76//76
f 98//98 49//49 76//76
f 98//98 76//76 33//33
f 126//126 97//97 56//56
f 126//126 55//55 96//96
f 96//96 77//77 127//127
f 98//98 33//33 34//34
f 78//78 80//80 58//58
f 2//2 111//111 81//81
f 99//99 48//48 29//29
f 111//111 99//99 29//29
f 100//100 2//2 81//81
f 100//100 82//82 2//2
f 2//2 82//82 83//83
f 83//83 67//67 121//121
f 90//90 91//91 61//61
f 101//101 89//89 5//5
f 101//101 5//5 24//24
f 101//101 24//24 65//65
f 101//101 65//65 26//26
f 101//101 26//26 50//50
f 101//101 50//50 57//57
f 101//101 57//57 17//17
f 101//101 17//17 18//18
f 101//101 18//18 36//36
f 79//79 53//53 102//102
f 53//53 126//126 107//107
f 120//120 118//118 2//2
f 103//103 20//20 7//7
f 83//83 82//82 104//104
f 119//119 112//112 94//94
f 94//94 112//112 68//68
f 105//105 122//122 15//15
f 105//105 15//15 27//27
f 105//105 27//27 113//113
f 105//105 43//43 122//122
f 84//84 113//113 114//114
f 25//25 45//45 123//123
f 106//106 87//87 115//115
f 108//108 124//124 14//14
f 108//108 14//14 107//107
f 123//123 45//45 46//46
f 123//123 46//46 106//106
f 14//14 124//124 115//115
f 120//120 124//124 118//118
f 110//110 74//74 48//48
f 110//110 48//48 99//99
f 111//111 95//95 49//49
f 111//111 29//29 95//95
f 126//126 56//56 55//55
f 126//126 108//108 107//107
f 126//126 96//96 127//127
f 120//120 125//125 124//124
f 123//123 124//124 84//84
f 125//125 84//84 124//124
f 86//86 115//115 87//87
f 90//90 102//102 91//91
f 107//107 102//102 53//53
f 120//120 64//64 119//119
f 83//83 120//120 2//2
f 83//83 103//103 120//120
f 103//103 64//64 120//120
f 69//69 43//43 60//60
f 84//84 60//60 113//113
f 60//60 105//105 113//113
f 114//114 63//63 47//47
f 114//114 47//47 116//116
f 14//14 102//102 107//107
f 123//123 115//115 124//124
f 106//106 115//115 123//123
f 88//88 102//102 14//14
f 116//116 109//109 25//25
f 116//116 25//25 123//123
f 118//118 124//124 117//117
f 117//117 99//99 118//118
f 75//75 110//110 99//99
f 127//127 75//75 99//99
f 118//118 99//99 2//2
f 2//2 99//99 111//111
f 84//84 71//71 60//60
f 71//71 85//85 94//94
f 119//119 94//94 85//85
f 103//103 7//7 64//64
f 64//64 112//112 119//119
f 121//121 103//103 83//83
f 122//122 43//43 69//69
f 60//60 43//43 105//105
f 116//116 84//84 114//114
f 86//86 14//14 115//115
f 86//86 88//88 14//14
f 124//124 108//108 117//117
f 126//126 117//117 108//108
f 84//84 85//85 71//71
f 84//84 116//116 123//123
f 125//125 119//119 85//85
f 84//84 125//125 85//85
f 117//117 127//127 99//99
f 117//117 126//126 127//127
f 120//120 119//119 125//125
# 250 faces, 0 coords texture

# End of File
