####
#
# OBJ File Generated by Meshlab
#
####
# Object crystal_hot_sauce_250_collision.obj
#
# Vertices: 127
# Faces: 250
#
####
vn 0.026703 -0.340824 -0.939748
v 0.008493 -0.008015 0.005887
vn -0.169657 0.014158 -0.985402
v -0.009739 0.010138 0.005463
vn -0.028655 -0.012474 -0.999512
v 0.002996 0.007434 0.004798
vn -0.226832 -0.945381 -0.234100
v -0.002030 -0.020420 0.016914
vn -0.963745 0.140322 0.226949
v -0.024152 0.009003 0.077944
vn -0.693042 -0.629420 0.351460
v -0.012777 -0.002612 0.098895
vn -0.393562 -0.840737 0.371847
v -0.007794 -0.012987 0.088890
vn 0.163678 0.007500 -0.986485
v 0.015514 0.007316 0.004845
vn 0.560072 -0.083393 -0.824236
v 0.027021 0.004159 0.008593
vn 0.995199 0.001993 0.097853
v 0.032352 0.006382 0.061890
vn 0.064577 0.647190 -0.759589
v 0.007337 0.031320 0.010759
vn -0.855393 0.392615 0.337871
v -0.017604 0.016517 0.089609
vn -0.989136 0.121133 0.083282
v -0.008774 0.008245 0.134150
vn -0.308257 -0.950121 0.047406
v -0.001091 -0.002583 0.137776
vn -0.885539 -0.086305 0.456479
v -0.007588 0.007877 0.155548
vn -0.242479 -0.406274 0.880991
v -0.000576 0.004057 0.161700
vn 0.897596 -0.426330 0.112084
v 0.014178 0.003569 0.131332
vn -0.294454 0.937337 0.186266
v -0.000846 0.017641 0.150815
vn -0.425961 -0.763221 -0.485851
v -0.007886 -0.016908 0.013472
vn -0.857691 -0.104974 -0.503335
v -0.023126 0.005517 0.012370
vn -0.192742 -0.159210 -0.968247
v -0.007947 -0.002721 0.006282
vn -0.529116 -0.348448 -0.773705
v -0.017323 -0.003767 0.009410
vn -0.189642 -0.490610 -0.850493
v -0.005895 -0.012277 0.008878
vn -0.678760 -0.733372 -0.038089
v -0.016504 -0.015243 0.037815
vn -0.929483 -0.365084 -0.052682
v -0.024371 -0.003183 0.031898
vn -0.989842 0.034701 -0.137873
v -0.025787 0.006845 0.021193
vn -0.792699 -0.549931 -0.263067
v -0.020924 -0.007068 0.017510
vn -0.350323 -0.934832 -0.057992
v -0.006161 -0.020278 0.031152
vn -0.464215 -0.883730 0.059367
v -0.011016 -0.017509 0.062511
vn -0.811384 -0.583578 0.033072
v -0.021414 -0.008611 0.056138
vn -0.998922 0.027717 -0.037240
v -0.026751 0.006971 0.044110
vn -0.969670 -0.244202 0.010272
v -0.026585 0.002413 0.051183
vn -0.104469 -0.980212 0.168140
v 0.000772 -0.021386 0.070101
vn -0.936160 -0.327868 0.126915
v -0.023710 -0.003667 0.067791
vn -0.685779 -0.693079 0.222147
v -0.017688 -0.011033 0.075863
vn -0.227395 -0.904565 0.360630
v -0.001534 -0.008123 0.102189
vn -0.914757 -0.234553 0.328945
v -0.021709 0.001661 0.084417
vn -0.531494 -0.822632 0.201966
v -0.007280 -0.003362 0.112054
vn -0.243122 -0.963680 0.110509
v 0.000006 -0.004088 0.126602
vn -0.942555 -0.218687 0.252520
v -0.012131 0.004439 0.110062
vn -0.767852 -0.635542 0.080563
v -0.006557 0.001014 0.135881
vn -0.944112 -0.318824 0.083685
v -0.008318 0.004393 0.147013
vn -0.637006 -0.716522 0.284289
v -0.003646 -0.000750 0.154684
vn -0.465489 0.115570 -0.877476
v -0.019405 0.013966 0.008453
vn -0.113309 0.241302 -0.963812
v -0.006090 0.019056 0.006029
vn -0.805760 0.397756 -0.438794
v -0.021768 0.017279 0.012529
vn -0.348062 0.600131 -0.720205
v -0.008422 0.026769 0.009457
vn -0.845701 0.524278 -0.099611
v -0.020977 0.021343 0.018986
vn -0.896375 0.441264 -0.042409
v -0.023401 0.019225 0.039736
vn -0.599963 0.744161 -0.293715
v -0.015476 0.027333 0.017445
vn -0.594772 0.803677 -0.018700
v -0.012918 0.030715 0.035073
vn -0.104174 0.953911 -0.281429
v 0.000154 0.035111 0.017509
vn -0.405353 0.909413 -0.093047
v -0.008252 0.033559 0.023261
vn -0.996759 0.062107 0.051122
v -0.026834 0.008174 0.058429
vn -0.690339 0.721073 0.059033
v -0.017868 0.027004 0.060046
vn -0.127076 0.991778 -0.015082
v 0.000234 0.035385 0.037142
vn -0.368856 0.927375 0.062621
v -0.006253 0.034715 0.054687
vn -0.898172 0.432556 0.078624
v -0.024113 0.019336 0.058303
vn -0.595246 0.768794 0.233750
v -0.013497 0.027738 0.074820
vn -0.812091 0.546516 0.204520
v -0.020468 0.021616 0.069795
vn -0.283446 0.922915 0.260550
v -0.006225 0.030161 0.079611
vn -0.530435 0.763658 0.368056
v -0.008683 0.023523 0.092666
vn -0.185987 0.914256 0.359922
v -0.000223 0.027893 0.090955
vn -0.873635 0.423615 0.239399
v -0.011692 0.009886 0.111348
vn -0.493589 0.836578 0.237714
v -0.005553 0.018004 0.107395
vn -0.172411 0.978281 0.115067
v 0.001295 0.020044 0.119983
vn -0.740848 0.660368 0.122710
v -0.007078 0.014425 0.128482
vn -0.603985 0.794422 0.063993
v -0.004534 0.014843 0.139054
vn -0.900309 0.412974 0.137460
v -0.008651 0.009876 0.149958
vn -0.413986 0.542664 0.730843
v -0.002642 0.012245 0.159774
vn 0.432060 -0.529494 -0.730042
v 0.020384 -0.009885 0.009274
vn 0.165852 -0.159379 -0.973186
v 0.013804 -0.003748 0.005458
vn 0.879152 -0.386801 -0.278347
v 0.029292 -0.002699 0.014523
vn 0.078496 -0.902601 -0.423260
v 0.005323 -0.020597 0.014915
vn 0.555908 -0.804616 -0.208706
v 0.016365 -0.017852 0.018563
vn 0.766717 -0.639826 -0.052613
v 0.025265 -0.011159 0.030644
vn 0.930576 -0.365502 -0.020890
v 0.029859 -0.003925 0.035990
vn 0.027425 -0.999610 0.005201
v 0.004681 -0.021852 0.053967
vn 0.484357 -0.874630 0.020496
v 0.018063 -0.017961 0.051364
vn 0.887856 -0.455889 0.062263
v 0.029571 -0.005729 0.060803
vn 0.266224 -0.961682 0.065512
v 0.009138 -0.020528 0.058495
vn 0.379128 -0.904360 0.195947
v 0.015310 -0.016965 0.076779
vn 0.715775 -0.668710 0.201228
v 0.022462 -0.012103 0.074358
vn 0.421216 -0.829762 0.366159
v 0.013597 -0.009866 0.097387
vn 0.914103 -0.340417 0.220298
v 0.027394 -0.001657 0.078427
vn 0.034657 -0.928683 0.369250
v 0.005434 -0.016191 0.087293
vn 0.811183 -0.464755 0.354945
v 0.022109 -0.005019 0.091558
vn 0.717350 -0.607766 0.340631
v 0.014284 -0.004957 0.104647
vn 0.948827 -0.012650 0.315544
v 0.020167 0.006839 0.103310
vn 0.190073 -0.954246 0.230839
v 0.007559 -0.005843 0.114145
vn 0.787979 -0.588830 0.179912
v 0.014651 -0.001076 0.116003
vn 0.337116 -0.935427 0.106441
v 0.007123 -0.002829 0.136127
vn -0.053786 -0.948453 0.312321
v 0.002565 -0.003004 0.154424
vn 0.926187 -0.075826 0.369361
v 0.013409 0.005574 0.153538
vn 0.530824 -0.722529 0.442920
v 0.007777 -0.001223 0.155719
vn 0.478256 0.128677 0.868742
v 0.008017 0.007515 0.160595
vn 0.419213 0.405008 -0.812545
v 0.020304 0.021681 0.007176
vn 0.867846 0.216734 -0.447067
v 0.029227 0.013713 0.012612
vn 0.042917 0.217666 -0.975079
v 0.012669 0.019686 0.005453
vn 0.677922 0.670832 -0.300675
v 0.023430 0.026520 0.015471
vn 0.892395 0.420129 -0.164688
v 0.028317 0.020081 0.017158
vn 0.993152 0.096425 -0.065960
v 0.032923 0.007179 0.027933
vn 0.998261 -0.057273 0.013960
v 0.032557 0.007001 0.040664
vn 0.784536 0.619527 -0.026268
v 0.025928 0.025166 0.040950
vn 0.353122 0.868994 -0.346631
v 0.015280 0.031958 0.016345
vn 0.449799 0.890529 0.068109
v 0.014809 0.034197 0.061411
vn 0.720664 0.685725 0.102100
v 0.025591 0.025941 0.063502
vn 0.936686 0.350169 -0.001044
v 0.029898 0.018259 0.047765
vn 0.355817 0.933696 -0.040073
v 0.015232 0.033436 0.034291
vn 0.006251 0.995803 0.091306
v 0.004417 0.036244 0.061657
vn 0.227958 0.934009 0.275070
v 0.011693 0.031012 0.082124
vn 0.953493 0.028264 0.300089
v 0.028416 0.008449 0.084512
vn 0.893314 0.412442 0.178555
v 0.028274 0.020998 0.067948
vn 0.840513 0.390467 0.375597
v 0.022230 0.013606 0.094773
vn 0.640197 0.687340 0.343092
v 0.019076 0.025400 0.086104
vn 0.737395 0.584749 0.338108
v 0.016646 0.017429 0.101696
vn 0.828961 0.531996 0.172636
v 0.016431 0.012029 0.114400
vn 0.256107 0.889942 0.377376
v 0.007024 0.026255 0.095249
vn -0.048126 0.959005 0.279272
v 0.004646 0.021190 0.108050
vn 0.459324 0.858566 0.227786
v 0.011394 0.018571 0.112436
vn 0.264724 0.962252 0.063189
v 0.006380 0.017791 0.134993
vn 0.987512 0.065464 0.143299
v 0.016293 0.007755 0.124264
vn 0.952560 0.273541 0.133438
v 0.013069 0.011696 0.149691
vn 0.752535 0.656979 0.045493
v 0.012270 0.013631 0.134409
vn 0.720653 0.597956 0.350869
v 0.011071 0.014143 0.152418
vn 0.382214 0.913518 0.139273
v 0.008131 0.017139 0.147414
vn 0.217817 0.790071 0.573013
v 0.004364 0.014584 0.157645
# 127 vertices, 0 vertices normals

f 4//4 19//19 74//74
f 20//20 22//22 27//27
f 22//22 19//19 27//27
f 22//22 23//23 19//19
f 23//23 22//22 21//21
f 1//1 23//23 21//21
f 23//23 1//1 74//74
f 74//74 19//19 23//23
f 22//22 44//44 21//21
f 44//44 2//2 21//21
f 22//22 20//20 44//44
f 3//3 1//1 21//21
f 3//3 21//21 2//2
f 28//28 19//19 4//4
f 74//74 28//28 4//4
f 28//28 74//74 78//78
f 27//27 26//26 20//20
f 25//25 26//26 27//27
f 25//25 31//31 26//26
f 28//28 27//27 19//19
f 27//27 28//28 24//24
f 25//25 27//27 24//24
f 28//28 29//29 24//24
f 78//78 29//29 28//28
f 78//78 33//33 29//29
f 30//30 32//32 25//25
f 31//31 25//25 32//32
f 25//25 24//24 30//30
f 30//30 24//24 29//29
f 33//33 35//35 29//29
f 7//7 35//35 33//33
f 7//7 33//33 86//86
f 34//34 32//32 30//30
f 54//54 32//32 34//34
f 37//37 5//5 34//34
f 5//5 54//54 34//34
f 35//35 34//34 30//30
f 35//35 30//30 29//29
f 35//35 37//37 34//34
f 7//7 6//6 35//35
f 37//37 35//35 6//6
f 36//36 7//7 86//86
f 36//36 6//6 7//7
f 38//38 6//6 36//36
f 90//90 36//36 84//84
f 40//40 37//37 6//6
f 40//40 6//6 38//38
f 90//90 38//38 36//36
f 90//90 39//39 38//38
f 40//40 38//38 41//41
f 13//13 64//64 40//40
f 13//13 40//40 41//41
f 39//39 41//41 38//38
f 41//41 39//39 14//14
f 92//92 14//14 39//39
f 41//41 14//14 43//43
f 42//42 69//69 13//13
f 13//13 41//41 42//42
f 42//42 41//41 43//43
f 93//93 43//43 14//14
f 15//15 69//69 42//42
f 43//43 15//15 42//42
f 93//93 16//16 43//43
f 95//95 16//16 93//93
f 43//43 16//16 15//15
f 46//46 44//44 20//20
f 44//44 45//45 2//2
f 45//45 99//99 3//3
f 3//3 2//2 45//45
f 45//45 44//44 47//47
f 44//44 46//46 47//47
f 46//46 50//50 47//47
f 52//52 47//47 50//50
f 47//47 11//11 45//45
f 11//11 99//99 45//45
f 47//47 52//52 11//11
f 46//46 20//20 26//26
f 48//48 46//46 26//26
f 48//48 26//26 49//49
f 49//49 26//26 31//31
f 46//46 48//48 50//50
f 50//50 53//53 52//52
f 51//51 50//50 48//48
f 51//51 48//48 49//49
f 53//53 50//50 51//51
f 56//56 52//52 53//53
f 54//54 31//31 32//32
f 49//49 31//31 54//54
f 58//58 49//49 54//54
f 58//58 54//54 5//5
f 55//55 58//58 60//60
f 49//49 55//55 51//51
f 55//55 49//49 58//58
f 57//57 51//51 55//55
f 55//55 59//59 57//57
f 56//56 53//53 51//51
f 110//110 56//56 57//57
f 56//56 51//51 57//57
f 5//5 60//60 58//58
f 60//60 59//59 55//55
f 5//5 12//12 60//60
f 12//12 59//59 60//60
f 62//62 59//59 12//12
f 61//61 59//59 62//62
f 111//111 61//61 63//63
f 61//61 57//57 59//59
f 61//61 110//110 57//57
f 111//111 110//110 61//61
f 37//37 12//12 5//5
f 12//12 37//37 40//40
f 63//63 61//61 62//62
f 40//40 64//64 12//12
f 64//64 62//62 12//12
f 64//64 65//65 62//62
f 63//63 62//62 65//65
f 119//119 63//63 65//65
f 119//119 65//65 66//66
f 64//64 67//67 65//65
f 13//13 67//67 64//64
f 66//66 65//65 67//67
f 68//68 67//67 13//13
f 66//66 67//67 68//68
f 121//121 66//66 68//68
f 68//68 13//13 69//69
f 121//121 68//68 18//18
f 70//70 69//69 15//15
f 18//18 68//68 69//69
f 18//18 69//69 70//70
f 70//70 15//15 16//16
f 127//127 18//18 70//70
f 96//96 70//70 16//16
f 70//70 96//96 127//127
f 71//71 1//1 72//72
f 74//74 1//1 71//71
f 71//71 75//75 74//74
f 3//3 8//8 72//72
f 72//72 1//1 3//3
f 9//9 71//71 72//72
f 9//9 72//72 8//8
f 9//9 8//8 97//97
f 9//9 73//73 71//71
f 73//73 9//9 98//98
f 75//75 71//71 73//73
f 76//76 75//75 73//73
f 76//76 73//73 77//77
f 73//73 98//98 102//102
f 102//102 77//77 73//73
f 80//80 76//76 77//77
f 77//77 102//102 103//103
f 79//79 78//78 74//74
f 79//79 74//74 75//75
f 79//79 81//81 78//78
f 78//78 81//81 33//33
f 81//81 79//79 82//82
f 79//79 75//75 76//76
f 80//80 79//79 76//76
f 83//83 79//79 80//80
f 80//80 77//77 103//103
f 80//80 103//103 10//10
f 82//82 33//33 81//81
f 82//82 86//86 33//33
f 83//83 82//82 79//79
f 85//85 83//83 80//80
f 86//86 82//82 84//84
f 83//83 85//85 87//87
f 82//82 83//83 84//84
f 84//84 83//83 87//87
f 112//112 87//87 85//85
f 10//10 85//85 80//80
f 85//85 10//10 112//112
f 36//36 86//86 84//84
f 84//84 87//87 88//88
f 88//88 87//87 89//89
f 112//112 89//89 87//87
f 88//88 90//90 84//84
f 90//90 88//88 91//91
f 91//91 88//88 89//89
f 89//89 122//122 91//91
f 91//91 92//92 90//90
f 122//122 17//17 91//91
f 39//39 90//90 92//92
f 92//92 91//91 17//17
f 14//14 92//92 93//93
f 93//93 92//92 95//95
f 17//17 95//95 92//92
f 95//95 17//17 94//94
f 95//95 94//94 96//96
f 95//95 96//96 16//16
f 99//99 8//8 3//3
f 97//97 8//8 99//99
f 97//97 98//98 9//9
f 97//97 99//99 11//11
f 97//97 100//100 98//98
f 100//100 101//101 98//98
f 100//100 97//97 105//105
f 97//97 11//11 105//105
f 101//101 100//100 104//104
f 100//100 105//105 109//109
f 104//104 100//100 109//109
f 101//101 102//102 98//98
f 102//102 101//101 104//104
f 103//103 102//102 108//108
f 104//104 108//108 102//102
f 52//52 105//105 11//11
f 109//109 105//105 52//52
f 109//109 52//52 56//56
f 109//109 106//106 104//104
f 104//104 106//106 107//107
f 10//10 103//103 108//108
f 10//10 108//108 113//113
f 112//112 10//10 113//113
f 108//108 104//104 107//107
f 107//107 113//113 108//108
f 109//109 56//56 110//110
f 110//110 106//106 109//109
f 107//107 106//106 111//111
f 115//115 107//107 111//111
f 113//113 107//107 115//115
f 112//112 113//113 114//114
f 118//118 111//111 63//63
f 115//115 114//114 113//113
f 110//110 111//111 106//106
f 112//112 114//114 89//89
f 89//89 114//114 116//116
f 114//114 115//115 116//116
f 116//116 115//115 118//118
f 115//115 111//111 118//118
f 116//116 117//117 89//89
f 117//117 122//122 89//89
f 120//120 118//118 119//119
f 63//63 119//119 118//118
f 120//120 116//116 118//118
f 120//120 119//119 66//66
f 117//117 116//116 120//120
f 120//120 66//66 121//121
f 122//122 117//117 124//124
f 121//121 124//124 117//117
f 117//117 120//120 121//121
f 17//17 122//122 123//123
f 124//124 123//123 122//122
f 124//124 121//121 126//126
f 94//94 17//17 123//123
f 123//123 124//124 125//125
f 126//126 125//125 124//124
f 126//126 121//121 18//18
f 125//125 94//94 123//123
f 125//125 126//126 127//127
f 18//18 127//127 126//126
f 96//96 125//125 127//127
f 94//94 125//125 96//96
# 250 faces, 0 coords texture

# End of File
