####
#
# OBJ File Generated by Meshlab
#
####
# Object crystal_hot_sauce_250_collision.obj
#
# Vertices: 127
# Faces: 250
#
####
vn -0.103570 -0.428605 0.897536
v 0.001935 0.001907 0.162723
vn 0.913244 -0.405981 -0.034129
v 0.033839 -0.001877 0.009877
vn -0.978044 0.208389 -0.001983
v -0.027380 0.015626 0.009816
vn 0.371593 -0.194816 -0.907725
v 0.031444 -0.006594 0.007827
vn 0.396091 0.911882 0.107626
v 0.014741 0.035188 0.061763
vn -0.603276 0.761419 -0.237273
v -0.011742 0.033268 0.012163
vn -0.964486 0.084379 0.250294
v -0.007654 0.009785 0.154598
vn 0.290952 -0.883819 -0.366348
v 0.009254 -0.021678 0.007905
vn -0.158618 0.649568 -0.743574
v 0.000492 0.039139 0.011742
vn 0.992414 0.072924 0.098983
v 0.033107 0.010707 0.060675
vn -0.818391 0.551107 -0.162844
v -0.026488 0.017615 0.009786
vn -0.584598 -0.797315 0.150111
v -0.011979 -0.013873 0.074364
vn -0.102823 -0.993786 -0.042619
v 0.001959 -0.022814 0.011784
vn 0.574126 -0.783697 -0.237062
v 0.027800 -0.011493 0.009643
vn 0.366226 0.520573 -0.771286
v 0.023159 0.033497 0.009801
vn -0.369045 -0.697782 -0.613927
v -0.009252 -0.019293 0.007828
vn 0.973278 0.187864 0.132050
v 0.032023 0.015118 0.065315
vn 0.853093 0.075451 -0.516275
v 0.036030 0.013703 0.009779
vn 0.763827 0.644180 -0.040000
v 0.033268 0.025440 0.013574
vn -0.901611 0.392470 0.181840
v -0.021939 0.015656 0.076321
vn -0.712612 0.701554 0.002392
v -0.017864 0.027397 0.027397
vn 0.704882 0.667138 0.240974
v 0.011658 0.015656 0.152641
vn -0.482719 -0.869058 0.108257
v -0.009753 -0.015639 0.072407
vn -0.700464 -0.591564 0.399252
v -0.004408 0.002255 0.158851
vn -0.218426 -0.974101 0.058462
v -0.000827 -0.019300 0.066536
vn -0.072146 -0.589148 -0.804798
v 0.000000 -0.021312 0.007828
vn 0.334575 -0.929433 0.155608
v 0.011743 -0.018011 0.074339
vn 0.827928 -0.556266 0.071444
v 0.029316 -0.006177 0.058611
vn 0.984591 -0.029332 0.172397
v 0.030916 0.007828 0.076321
vn 0.209719 0.967890 -0.138591
v 0.012311 0.039170 0.011748
vn -0.234911 0.972001 -0.005514
v -0.000001 0.039138 0.012389
vn -0.289273 0.938865 0.186690
v -0.003914 0.032605 0.076321
vn -0.740015 -0.642574 -0.198688
v -0.019913 -0.011747 0.011498
vn -0.984305 0.044876 0.170673
v -0.023662 0.007828 0.074364
vn 0.947333 -0.208761 -0.242857
v 0.035660 0.003637 0.009778
vn 0.892349 0.370017 -0.258459
v 0.035235 0.021591 0.011732
vn -0.729993 0.681675 -0.049294
v -0.023483 0.021341 0.011742
vn -0.395001 -0.918359 0.024333
v -0.007687 -0.019988 0.012052
vn -0.641754 -0.744689 0.183275
v -0.014141 -0.011742 0.076321
vn -0.207189 -0.856922 0.471971
v 0.001936 -0.000683 0.159444
vn -0.490375 -0.841968 0.224995
v -0.003863 0.001207 0.156803
vn 0.918013 -0.382557 0.104416
v 0.031068 -0.002390 0.061671
vn -0.088963 0.978240 0.187434
v 0.001957 0.033809 0.076321
vn -0.564457 0.115367 -0.817361
v -0.027397 0.014210 0.007828
vn -0.866990 -0.331903 -0.371711
v -0.025261 -0.002044 0.011781
vn -0.894160 -0.447295 -0.020140
v -0.023677 -0.006171 0.014078
vn -0.986509 -0.151157 0.062862
v -0.025520 0.003714 0.060486
vn -0.922988 -0.370909 0.102563
v -0.023735 -0.002354 0.059464
vn -0.966394 -0.033290 0.254900
v -0.007770 0.007828 0.154598
vn 0.356459 0.228053 -0.906051
v 0.031732 0.023162 0.009784
vn 0.975713 -0.062492 0.209948
v 0.022173 0.005382 0.116438
vn 0.560952 0.822994 0.089520
v 0.021479 0.031468 0.061818
vn -0.991895 0.089635 0.090051
v -0.025541 0.009150 0.058712
vn -0.776141 0.612717 0.148940
v -0.017672 0.023814 0.075987
vn -0.524506 0.830489 0.187568
v -0.009807 0.029269 0.079506
vn -0.197265 0.957331 0.211195
v 0.001957 0.017994 0.154598
vn -0.711275 0.702463 -0.025152
v -0.015656 0.029354 0.012975
vn 0.825724 0.515458 0.229089
v 0.013237 0.013698 0.152649
vn 0.841828 0.502806 0.196245
v 0.027397 0.021526 0.076516
vn -0.798681 -0.599126 0.056181
v -0.019851 -0.008388 0.058965
vn -0.851564 -0.466859 0.238497
v -0.005991 0.003719 0.156555
vn 0.297742 -0.953460 0.047576
v 0.010951 -0.019927 0.049452
vn 0.019835 -0.981417 0.190860
v 0.005871 -0.018499 0.076321
vn 0.441207 -0.896986 0.027419
v 0.017830 -0.017718 0.043809
vn 0.490507 -0.845099 0.212630
v 0.017508 -0.014387 0.079358
vn 0.985208 -0.122880 0.119441
v 0.033203 0.005013 0.060816
vn -0.244842 0.961477 0.124954
v -0.002921 0.035535 0.061631
vn -0.710548 0.703543 -0.012167
v -0.017612 0.027597 0.023483
vn -0.630795 -0.773105 0.066373
v -0.015411 -0.012583 0.064659
vn -0.600405 -0.510848 -0.615263
v -0.017402 -0.012910 0.009843
vn -0.552043 -0.832739 -0.042360
v -0.012671 -0.017243 0.012452
vn -0.975572 0.177423 0.129539
v -0.023638 0.012748 0.071883
vn 0.966798 0.164678 0.195403
v 0.030690 0.011362 0.077118
vn 0.928915 -0.024508 0.369480
v 0.013697 0.007828 0.156549
vn 0.944330 -0.272631 0.184156
v 0.029313 0.000725 0.079321
vn 0.135822 0.974579 0.178178
v 0.009272 0.034864 0.072091
vn -0.832888 0.461412 0.305607
v -0.005472 0.010989 0.162126
vn -0.370306 0.715065 0.592921
v -0.004377 0.013816 0.157550
vn -0.842805 0.531310 0.085964
v -0.021439 0.021832 0.060328
vn -0.443495 0.886479 0.132161
v -0.008072 0.033485 0.064557
vn 0.922587 0.330974 0.198215
v 0.028498 0.019572 0.076285
vn 0.399627 0.898874 0.179789
v 0.017654 0.031904 0.074010
vn 0.575264 0.691422 0.437043
v 0.009554 0.016281 0.156533
vn 0.583325 0.797348 0.154816
v 0.019652 0.030406 0.075633
vn -0.834123 -0.532076 0.145377
v -0.019822 -0.006424 0.072999
vn -0.313286 -0.942102 0.119566
v -0.005194 -0.018009 0.070318
vn -0.721947 -0.679642 0.129920
v -0.018206 -0.009306 0.070814
vn 0.062413 -0.974423 0.215880
v 0.004006 0.003172 0.179580
vn 0.481060 -0.868807 0.117283
v 0.019726 -0.014901 0.072207
vn -0.128333 -0.982164 0.137424
v 0.001125 -0.019452 0.070575
vn 0.505768 -0.787799 0.351527
v 0.007651 -0.000716 0.157463
vn 0.871568 -0.455258 0.181959
v 0.026502 -0.005614 0.078278
vn 0.818312 -0.550585 0.164989
v 0.025868 -0.008249 0.074181
vn -0.494879 0.868256 0.035009
v -0.010030 0.032955 0.052858
vn -0.643771 0.762843 0.060248
v -0.015558 0.029193 0.055460
vn -0.693372 0.720580 -0.000030
v -0.015753 0.029448 0.023483
vn -0.985785 -0.077964 0.148825
v -0.023969 0.005836 0.072442
vn 0.907472 -0.354612 0.225268
v 0.013624 0.004151 0.154598
vn -0.362503 0.813906 0.454036
v 0.000366 0.016731 0.157980
vn -0.558111 0.795067 0.237447
v -0.003270 0.015656 0.154598
vn -0.901230 0.416231 0.120566
v -0.023201 0.018036 0.063481
vn -0.465656 0.857192 0.219970
v -0.001957 0.016480 0.154598
vn -0.196682 0.963518 0.181519
v -0.001327 0.033208 0.076613
vn 0.773023 0.606030 0.187518
v 0.025432 0.024565 0.076321
vn 0.093836 0.938896 0.331164
v 0.005597 0.017216 0.159878
vn 0.640148 0.751360 0.160217
v 0.022327 0.028380 0.074412
vn -0.634160 -0.042526 0.772032
v -0.005360 0.009448 0.160498
vn 0.463247 -0.884800 -0.050307
v 0.014170 -0.019570 0.011742
vn 0.677948 -0.719327 0.151508
v 0.022503 -0.012498 0.073006
vn 0.749831 -0.658594 0.063313
v 0.024180 -0.012576 0.056751
vn 0.624962 -0.526744 0.576162
v 0.011307 0.002349 0.158949
vn 0.032746 0.993368 0.110216
v 0.006194 0.036309 0.063973
vn -0.118886 0.984743 0.127075
v 0.001957 0.036413 0.061644
vn -0.659053 0.732264 0.171575
v -0.015544 0.025667 0.077605
vn -0.943137 -0.289205 0.163867
v -0.022100 -0.000085 0.076438
vn -0.889299 -0.424436 0.170297
v -0.020885 -0.004071 0.074365
vn -0.968934 -0.184057 0.165194
v -0.023320 0.003913 0.074336
vn 0.963264 0.153725 0.220206
v 0.013810 0.010345 0.154598
vn 0.736496 0.664404 0.127047
v 0.025916 0.027474 0.062721
vn -0.756356 0.651985 0.053302
v -0.018734 0.025999 0.057587
vn 0.896143 0.419061 0.145997
v 0.029433 0.021175 0.068176
vn 0.871967 0.315696 0.374179
v 0.012858 0.011601 0.157726
vn 0.648607 -0.759315 0.052437
v 0.022679 -0.014172 0.056921
vn 0.141634 -0.982317 0.122444
v 0.008791 -0.019526 0.069956
vn -0.920946 -0.253540 0.295932
v -0.007184 0.005987 0.156099
vn 0.786480 -0.615864 -0.046484
v 0.029841 -0.009436 0.009509
vn 0.268309 0.333662 0.903704
v 0.007837 0.012503 0.162791
# 127 vertices, 0 vertices normals

f 44//44 15//15 4//4
f 9//9 44//44 6//6
f 11//11 6//6 44//44
f 11//11 44//44 3//3
f 126//126 4//4 2//2
f 15//15 44//44 9//9
f 15//15 9//9 30//30
f 47//47 3//3 44//44
f 35//35 4//4 18//18
f 18//18 36//36 10//10
f 19//19 15//15 52//52
f 26//26 13//13 16//16
f 26//26 8//8 13//13
f 4//4 14//14 8//8
f 4//4 8//8 26//26
f 4//4 16//16 44//44
f 4//4 26//26 16//16
f 108//108 8//8 14//14
f 28//28 126//126 2//2
f 31//31 9//9 6//6
f 70//70 44//44 16//16
f 60//60 46//46 33//33
f 47//47 44//44 45//45
f 35//35 2//2 4//4
f 66//66 35//35 18//18
f 18//18 4//4 50//50
f 15//15 50//50 4//4
f 36//36 50//50 15//15
f 36//36 15//15 19//19
f 17//17 10//10 36//36
f 119//119 19//19 52//52
f 77//77 20//20 7//7
f 37//37 6//6 11//11
f 37//37 120//120 21//21
f 38//38 16//16 13//13
f 39//39 12//12 41//41
f 39//39 41//41 24//24
f 62//62 124//124 13//13
f 62//62 13//13 8//8
f 25//25 86//86 13//13
f 126//126 14//14 4//4
f 42//42 28//28 2//2
f 112//112 30//30 31//31
f 94//94 31//31 6//6
f 44//44 70//70 45//45
f 33//33 46//46 45//45
f 33//33 45//45 70//70
f 70//70 16//16 71//71
f 46//46 60//60 48//48
f 60//60 85//85 48//48
f 47//47 45//45 46//46
f 117//117 115//115 125//125
f 49//49 7//7 34//34
f 49//49 117//117 125//125
f 10//10 66//66 18//18
f 50//50 36//36 18//18
f 52//52 15//15 30//30
f 101//101 11//11 3//3
f 57//57 6//6 37//37
f 120//120 37//37 11//11
f 58//58 104//104 22//22
f 84//84 83//83 22//22
f 84//84 82//82 83//83
f 60//60 33//33 69//69
f 86//86 23//23 38//38
f 38//38 13//13 86//86
f 87//87 12//12 39//39
f 87//87 69//69 12//12
f 64//64 62//62 8//8
f 90//90 25//25 13//13
f 90//90 86//86 25//25
f 27//27 124//124 62//62
f 27//27 62//62 89//89
f 64//64 89//89 62//62
f 24//24 41//41 40//40
f 23//23 41//41 12//12
f 23//23 12//12 69//69
f 23//23 71//71 38//38
f 86//86 41//41 23//23
f 86//86 40//40 41//41
f 65//65 27//27 89//89
f 64//64 8//8 108//108
f 42//42 35//35 66//66
f 75//75 98//98 92//92
f 111//111 93//93 98//98
f 30//30 9//9 31//31
f 80//80 31//31 94//94
f 94//94 6//6 95//95
f 95//95 6//6 96//96
f 95//95 96//96 21//21
f 68//68 6//6 57//57
f 68//68 57//57 37//37
f 68//68 37//37 21//21
f 69//69 33//33 71//71
f 70//70 71//71 33//33
f 71//71 16//16 38//38
f 48//48 47//47 46//46
f 72//72 34//34 7//7
f 72//72 7//7 20//20
f 72//72 20//20 101//101
f 116//116 61//61 125//125
f 48//48 116//116 115//115
f 107//107 7//7 49//49
f 107//107 49//49 125//125
f 97//97 49//49 34//34
f 73//73 29//29 17//17
f 10//10 17//17 29//29
f 74//74 51//51 29//29
f 74//74 29//29 73//73
f 76//76 43//43 105//105
f 5//5 52//52 30//30
f 121//121 36//36 19//19
f 53//53 3//3 47//47
f 101//101 20//20 77//77
f 80//80 99//99 32//32
f 105//105 43//43 56//56
f 101//101 79//79 11//11
f 104//104 58//58 59//59
f 81//81 59//59 58//58
f 81//81 58//58 122//122
f 87//87 60//60 69//69
f 85//85 87//87 24//24
f 85//85 60//60 87//87
f 87//87 39//39 24//24
f 88//88 27//27 91//91
f 90//90 63//63 88//88
f 65//65 89//89 109//109
f 90//90 13//13 124//124
f 1//1 24//24 40//40
f 61//61 85//85 24//24
f 69//69 71//71 23//23
f 123//123 126//126 110//110
f 123//123 14//14 126//126
f 75//75 42//42 66//66
f 42//42 75//75 92//92
f 92//92 98//98 93//93
f 93//93 42//42 92//92
f 113//113 112//112 31//31
f 94//94 95//95 80//80
f 95//95 114//114 80//80
f 120//120 95//95 21//21
f 96//96 6//6 68//68
f 96//96 68//68 21//21
f 48//48 85//85 116//116
f 47//47 48//48 97//97
f 97//97 34//34 72//72
f 115//115 116//116 125//125
f 117//117 97//97 48//48
f 117//117 48//48 115//115
f 53//53 47//47 97//97
f 97//97 117//117 49//49
f 98//98 75//75 51//51
f 112//112 5//5 30//30
f 112//112 43//43 76//76
f 82//82 84//84 5//5
f 121//121 59//59 81//81
f 121//121 104//104 59//59
f 100//100 55//55 114//114
f 114//114 54//54 77//77
f 78//78 114//114 77//77
f 101//101 77//77 54//54
f 102//102 100//100 99//99
f 102//102 80//80 55//55
f 102//102 99//99 80//80
f 99//99 56//56 32//32
f 67//67 80//80 32//32
f 103//103 56//56 43//43
f 103//103 32//32 56//56
f 122//122 58//58 22//22
f 105//105 82//82 76//76
f 83//83 82//82 105//105
f 106//106 84//84 22//22
f 106//106 22//22 104//104
f 119//119 106//106 104//104
f 106//106 119//119 52//52
f 106//106 52//52 5//5
f 106//106 5//5 84//84
f 85//85 61//61 116//116
f 123//123 89//89 64//64
f 124//124 63//63 90//90
f 88//88 63//63 124//124
f 88//88 91//91 40//40
f 91//91 65//65 109//109
f 86//86 90//90 40//40
f 40//40 90//90 88//88
f 40//40 111//111 1//1
f 40//40 91//91 111//111
f 91//91 27//27 65//65
f 109//109 89//89 123//123
f 108//108 14//14 64//64
f 126//126 28//28 110//110
f 109//109 110//110 28//28
f 64//64 14//14 123//123
f 2//2 35//35 42//42
f 66//66 10//10 29//29
f 93//93 109//109 28//28
f 67//67 113//113 31//31
f 113//113 103//103 43//43
f 113//113 43//43 112//112
f 67//67 31//31 80//80
f 53//53 97//97 72//72
f 107//107 78//78 77//77
f 122//122 121//121 81//81
f 121//121 17//17 36//36
f 111//111 51//51 74//74
f 111//111 98//98 51//51
f 127//127 111//111 74//74
f 127//127 74//74 122//122
f 17//17 121//121 73//73
f 122//122 73//73 121//121
f 118//118 73//73 122//122
f 118//118 122//122 74//74
f 118//118 74//74 73//73
f 66//66 29//29 51//51
f 76//76 5//5 112//112
f 119//119 121//121 19//19
f 72//72 3//3 53//53
f 72//72 101//101 3//3
f 55//55 100//100 102//102
f 95//95 120//120 54//54
f 120//120 79//79 54//54
f 79//79 101//101 54//54
f 67//67 32//32 103//103
f 120//120 11//11 79//79
f 127//127 122//122 83//83
f 122//122 22//22 83//83
f 121//121 119//119 104//104
f 82//82 5//5 76//76
f 124//124 27//27 88//88
f 125//125 61//61 24//24
f 24//24 1//1 107//107
f 66//66 51//51 75//75
f 42//42 93//93 28//28
f 111//111 91//91 109//109
f 114//114 95//95 54//54
f 114//114 55//55 80//80
f 114//114 78//78 100//100
f 107//107 77//77 7//7
f 107//107 125//125 24//24
f 127//127 1//1 111//111
f 99//99 105//105 56//56
f 99//99 100//100 78//78
f 67//67 103//103 113//113
f 83//83 99//99 127//127
f 109//109 123//123 110//110
f 1//1 127//127 107//107
f 109//109 93//93 111//111
f 127//127 99//99 78//78
f 99//99 83//83 105//105
f 127//127 78//78 107//107
# 250 faces, 0 coords texture

# End of File
