####
#
# OBJ File Generated by Meshlab
#
####
# Object eating_right_for_healthy_living_mixed_berry_250_collision.obj
#
# Vertices: 127
# Faces: 250
#
####
vn -0.450136 -0.892744 -0.019624
v -0.024742 -0.004598 0.028149
vn -0.021481 -0.018536 -0.999597
v 0.013291 -0.000368 0.000291
vn -0.188759 -0.315993 0.929795
v -0.007418 -0.000801 0.153322
vn -0.060285 -0.058761 0.996450
v 0.012912 -0.005038 0.155890
vn -0.358568 -0.745626 -0.561668
v -0.018633 -0.006427 0.006276
vn -0.222545 -0.432269 -0.873852
v 0.004727 -0.012618 0.002400
vn -0.466160 -0.884639 0.010406
v -0.027128 -0.004093 0.074374
vn -0.464822 -0.885337 -0.010906
v 0.009904 -0.023360 0.049332
vn -0.463374 -0.885861 0.023126
v 0.013980 -0.025380 0.086202
vn -0.405666 -0.791726 0.456734
v -0.011097 -0.008428 0.145761
vn -0.945514 -0.042491 -0.322797
v -0.082196 0.031067 0.010283
vn -0.706756 -0.706835 0.029669
v -0.077075 0.022939 0.034453
vn -0.314893 -0.647899 -0.693591
v -0.047911 0.009619 0.003926
vn -0.384164 -0.543328 -0.746467
v -0.070724 0.022427 0.003046
vn -0.424891 -0.097401 -0.899989
v -0.074742 0.030926 0.001638
vn -0.128090 -0.236195 -0.963226
v -0.050376 0.016691 0.000807
vn -0.016580 0.012134 -0.999789
v -0.048921 0.029514 -0.000464
vn -0.419675 -0.876743 -0.234936
v -0.036325 0.001082 0.008958
vn -0.446537 -0.868203 -0.216400
v -0.066323 0.015939 0.008638
vn -0.663014 -0.647026 -0.376523
v -0.075745 0.020393 0.009393
vn -0.447081 0.382641 -0.808520
v -0.069813 0.048958 0.004222
vn -0.082361 0.181729 -0.979893
v -0.063642 0.042061 0.000639
vn -0.606243 0.734618 -0.304642
v -0.069243 0.055540 0.008492
vn 0.101898 0.601998 -0.791970
v -0.054317 0.051199 0.002868
vn 0.061687 0.971618 -0.228371
v -0.061771 0.059300 0.015555
vn -0.153284 -0.332654 -0.930508
v -0.033359 0.009437 0.000594
vn -0.095280 -0.224620 -0.969777
v -0.018336 0.001275 0.000853
vn 0.021897 -0.002930 -0.999756
v -0.027519 0.019134 -0.000150
vn 0.087903 0.163756 -0.982577
v -0.007103 0.017872 0.001338
vn 0.248499 0.505497 -0.826270
v -0.005078 0.024753 0.003630
vn 0.416629 0.838956 -0.350105
v 0.010032 0.022709 0.009308
vn 0.302455 0.559506 -0.771670
v -0.035633 0.041898 0.003437
vn 0.136769 0.236618 -0.961928
v -0.034010 0.035169 0.001132
vn 0.296701 0.535691 -0.790572
v -0.023383 0.037213 0.004837
vn 0.392413 0.850732 -0.349666
v -0.045158 0.051952 0.009868
vn 0.442781 0.817111 -0.369155
v -0.009480 0.033219 0.009019
vn -0.480193 -0.877081 0.011966
v -0.058957 0.012515 0.049669
vn -0.999855 -0.011278 0.012798
v -0.081359 0.031412 0.038170
vn 0.276972 0.959555 -0.050401
v -0.054620 0.059479 0.044944
vn -0.304719 0.952050 -0.027318
v -0.062750 0.059874 0.048348
vn -0.704960 -0.709044 0.016974
v -0.075300 0.022475 0.078967
vn -0.995641 -0.093264 0.001292
v -0.081494 0.032665 0.063240
vn 0.054258 0.997906 -0.035209
v -0.058184 0.061210 0.067520
vn -0.804143 0.594292 -0.013048
v -0.069936 0.055003 0.054550
vn -0.805946 -0.591329 0.027950
v -0.077024 0.024349 0.109704
vn -0.984592 0.174575 0.010088
v -0.080798 0.034901 0.096307
vn -0.613355 0.789657 -0.015377
v -0.067419 0.059087 0.109485
vn 0.129430 0.991108 -0.030875
v -0.058053 0.062647 0.097514
vn -0.666018 -0.728821 0.158870
v -0.073633 0.023243 0.141981
vn -0.993969 0.001208 0.109656
v -0.080417 0.035308 0.139505
vn -0.690369 0.660319 0.295582
v -0.069291 0.058186 0.142058
vn -0.476962 -0.878350 0.031746
v -0.052809 0.010689 0.105169
vn 0.458416 0.888731 -0.003388
v 0.014736 0.024974 0.096808
vn 0.458784 0.887607 -0.040884
v -0.020488 0.042176 0.057013
vn -0.463322 -0.884678 0.051748
v -0.009017 -0.012168 0.115903
vn -0.426775 -0.812484 0.397156
v -0.036896 0.004539 0.147387
vn 0.022500 0.986869 0.159949
v -0.057062 0.063252 0.140198
vn 0.471598 0.881810 0.002681
v -0.019894 0.043409 0.109909
vn -0.681384 -0.206697 0.702134
v -0.076755 0.030844 0.150234
vn -0.129004 0.538356 0.832785
v -0.061742 0.057741 0.150774
vn -0.134095 -0.230073 0.963891
v -0.041027 0.017542 0.155550
vn 0.138474 0.273718 0.951790
v 0.001189 0.021301 0.153071
vn 0.202562 0.395899 0.895674
v -0.035941 0.041941 0.152814
vn 0.428304 0.784293 0.448821
v -0.003298 0.033214 0.144726
vn 0.391638 0.787893 0.475232
v -0.042763 0.054879 0.146740
vn -0.304927 -0.594571 -0.743979
v 0.033499 -0.030840 0.003542
vn -0.297302 -0.577329 -0.760462
v 0.055129 -0.041656 0.003545
vn -0.088788 -0.167782 -0.981818
v 0.049410 -0.029137 0.000532
vn -0.067379 -0.216609 -0.973931
v 0.072833 -0.043423 0.000850
vn -0.187468 -0.921469 -0.340220
v 0.084946 -0.061802 0.011017
vn -0.278677 -0.642185 -0.714099
v 0.075161 -0.052283 0.003825
vn -0.084684 -0.149445 -0.985137
v 0.029555 -0.019622 0.000596
vn -0.444744 -0.856218 -0.262855
v 0.015975 -0.025515 0.009941
vn 0.046029 0.030235 -0.998482
v 0.075591 -0.030092 -0.000070
vn 0.054258 0.126964 -0.990422
v 0.048736 -0.010052 0.000228
vn 0.302266 0.520246 -0.798736
v 0.088398 -0.020223 0.002350
vn 0.214169 0.435145 -0.874517
v 0.071134 -0.013361 0.001594
vn 0.093199 -0.505443 -0.857812
v 0.089210 -0.053930 0.002943
vn 0.367864 -0.205903 -0.906797
v 0.096457 -0.045190 0.001911
vn 0.645815 -0.692721 -0.321032
v 0.095562 -0.058141 0.009504
vn 0.925579 0.028113 -0.377509
v 0.107949 -0.031512 0.010025
vn 0.413873 0.211294 -0.885474
v 0.098200 -0.029381 0.001803
vn 0.592773 0.728085 -0.344256
v 0.103513 -0.023816 0.010064
vn 0.426206 0.841240 -0.332662
v 0.071023 -0.008378 0.008113
vn 0.789360 0.613465 -0.023918
v 0.105208 -0.024132 0.041038
vn -0.448635 -0.893685 -0.007395
v 0.066335 -0.052332 0.034986
vn -0.449127 -0.867053 -0.215649
v 0.051730 -0.044709 0.015610
vn -0.137747 -0.990419 0.009800
v 0.085263 -0.062036 0.057073
vn -0.455275 -0.890351 -0.000023
v 0.048913 -0.044007 0.065535
vn 0.048962 -0.998796 0.003168
v 0.086944 -0.062597 0.041216
vn 0.890128 -0.455367 -0.017687
v 0.104580 -0.042308 0.069996
vn 0.978855 -0.203437 -0.021347
v 0.106924 -0.035890 0.036682
vn 0.458888 0.886482 -0.059757
v 0.064809 -0.004135 0.023702
vn -0.049062 -0.998763 0.008037
v 0.086104 -0.062030 0.086442
vn 0.988625 -0.147788 -0.027919
v 0.108328 -0.034266 0.067267
vn 0.687623 0.725995 -0.010275
v 0.104120 -0.022793 0.073242
vn 0.469692 0.881495 -0.048532
v 0.072672 -0.005881 0.051049
vn 0.954029 0.298972 -0.021067
v 0.107184 -0.027641 0.062476
vn -0.456110 -0.888770 0.045301
v 0.064009 -0.050550 0.110716
vn -0.459450 -0.885187 0.073134
v 0.024160 -0.029043 0.124420
vn 0.469051 0.883032 0.015655
v 0.086113 -0.011981 0.115953
vn 0.631521 -0.775358 -0.000654
v 0.095706 -0.057993 0.062236
vn 0.711829 -0.702352 -0.001259
v 0.096646 -0.058267 0.111359
vn 0.999890 -0.000031 -0.014804
v 0.109189 -0.033803 0.109431
vn 0.682771 0.681473 0.263472
v 0.105954 -0.022367 0.140711
vn -0.364265 -0.745364 0.558340
v 0.051760 -0.040809 0.146633
vn -0.368763 -0.683336 0.630132
v 0.024405 -0.026365 0.149639
vn -0.077813 -0.242979 0.966905
v 0.037007 -0.026123 0.154113
vn 0.403276 0.780558 0.477595
v 0.065038 -0.002817 0.146426
vn -0.055813 -0.954117 0.294186
v 0.087986 -0.061048 0.144254
vn -0.031048 -0.406936 0.912929
v 0.082820 -0.051854 0.152540
vn 0.587276 -0.607703 0.534606
v 0.098449 -0.055340 0.145859
vn 0.411384 0.103655 0.905549
v 0.102202 -0.030889 0.154805
vn -0.059205 -0.097374 0.993485
v 0.075131 -0.026907 0.153860
vn 0.964899 -0.107002 0.239835
v 0.110234 -0.033359 0.144329
vn 0.191244 0.388501 0.901384
v 0.075579 -0.016766 0.153002
vn 0.262652 0.561769 -0.784493
v 0.032114 0.008264 0.003509
vn 0.090031 0.223323 -0.970578
v 0.017401 0.008185 0.000868
vn 0.292303 0.593326 -0.750016
v 0.056832 -0.004777 0.002685
vn 0.419624 0.835870 -0.353889
v 0.039473 0.008393 0.008703
vn 0.456378 0.887485 -0.063954
v 0.009442 0.024277 0.026960
vn 0.454507 0.888694 -0.060389
v 0.043634 0.007047 0.021240
vn 0.451552 0.891037 -0.046419
v 0.025761 0.018224 0.055288
vn 0.464060 0.885707 -0.013126
v 0.057356 0.003326 0.083606
vn 0.432230 0.843932 0.317736
v 0.037722 0.012662 0.142301
vn 0.257362 0.492490 0.831396
v 0.027465 0.009011 0.151805
vn 0.193261 0.390447 0.900112
v 0.045751 -0.001835 0.153242
# 127 vertices, 0 vertices normals

f 6//6 5//5 27//27
f 1//1 18//18 5//5
f 5//5 73//73 1//1
f 73//73 5//5 6//6
f 7//7 1//1 8//8
f 1//1 73//73 8//8
f 7//7 8//8 9//9
f 55//55 7//7 9//9
f 100//100 55//55 9//9
f 55//55 10//10 56//56
f 100//100 10//10 55//55
f 10//10 100//100 107//107
f 107//107 3//3 10//10
f 3//3 107//107 4//4
f 16//16 14//14 15//15
f 13//13 14//14 16//16
f 17//17 16//16 15//15
f 19//19 13//13 18//18
f 19//19 20//20 14//14
f 19//19 14//14 13//13
f 20//20 11//11 15//15
f 14//14 20//20 15//15
f 20//20 12//12 11//11
f 22//22 15//15 21//21
f 22//22 17//17 15//15
f 24//24 22//22 21//21
f 21//21 15//15 11//11
f 23//23 21//21 11//11
f 24//24 21//21 23//23
f 25//25 24//24 23//23
f 25//25 35//35 24//24
f 13//13 16//16 26//26
f 13//13 26//26 5//5
f 26//26 27//27 5//5
f 27//27 26//26 28//28
f 28//28 16//16 17//17
f 26//26 16//16 28//28
f 17//17 33//33 28//28
f 28//28 33//33 29//29
f 13//13 5//5 18//18
f 6//6 27//27 2//2
f 28//28 29//29 27//27
f 2//2 27//27 29//29
f 29//29 118//118 2//2
f 30//30 118//118 29//29
f 36//36 31//31 30//30
f 36//36 121//121 31//31
f 22//22 33//33 17//17
f 24//24 32//32 33//33
f 33//33 22//22 24//24
f 33//33 32//32 34//34
f 33//33 34//34 29//29
f 35//35 34//34 32//32
f 35//35 36//36 34//34
f 36//36 35//35 54//54
f 35//35 32//32 24//24
f 30//30 29//29 34//34
f 34//34 36//36 30//30
f 38//38 11//11 12//12
f 12//12 20//20 19//19
f 19//19 37//37 12//12
f 38//38 23//23 11//11
f 23//23 38//38 44//44
f 40//40 25//25 23//23
f 39//39 25//25 40//40
f 35//35 25//25 39//39
f 54//54 35//35 39//39
f 44//44 40//40 23//23
f 43//43 39//39 40//40
f 38//38 12//12 41//41
f 12//12 37//37 41//41
f 41//41 37//37 52//52
f 41//41 42//42 38//38
f 44//44 38//38 42//42
f 43//43 54//54 39//39
f 47//47 40//40 44//44
f 43//43 40//40 47//47
f 19//19 18//18 1//1
f 37//37 19//19 1//1
f 37//37 1//1 7//7
f 54//54 121//121 36//36
f 7//7 52//52 37//37
f 123//123 121//121 54//54
f 54//54 53//53 123//123
f 46//46 42//42 45//45
f 50//50 46//46 45//45
f 52//52 45//45 41//41
f 41//41 45//45 42//42
f 44//44 42//42 46//46
f 47//47 44//44 46//46
f 48//48 54//54 43//43
f 52//52 49//49 45//45
f 50//50 45//45 49//49
f 50//50 47//47 46//46
f 51//51 47//47 50//50
f 57//57 47//47 51//51
f 55//55 52//52 7//7
f 54//54 58//58 53//53
f 48//48 58//58 54//54
f 58//58 48//48 57//57
f 56//56 52//52 55//55
f 49//49 52//52 56//56
f 125//125 53//53 64//64
f 58//58 57//57 65//65
f 65//65 64//64 58//58
f 53//53 58//58 64//64
f 48//48 43//43 47//47
f 47//47 57//57 48//48
f 49//49 56//56 59//59
f 50//50 49//49 59//59
f 56//56 61//61 59//59
f 60//60 61//61 63//63
f 59//59 61//61 60//60
f 59//59 51//51 50//50
f 59//59 60//60 51//51
f 57//57 51//51 60//60
f 65//65 60//60 63//63
f 60//60 65//65 57//57
f 10//10 61//61 56//56
f 3//3 61//61 10//10
f 61//61 3//3 62//62
f 63//63 61//61 62//62
f 62//62 3//3 4//4
f 62//62 4//4 126//126
f 64//64 65//65 63//63
f 62//62 64//64 63//63
f 73//73 66//66 87//87
f 66//66 68//68 67//67
f 69//69 71//71 67//67
f 68//68 74//74 69//69
f 69//69 67//67 68//68
f 67//67 71//71 87//87
f 71//71 70//70 87//87
f 67//67 87//87 66//66
f 6//6 72//72 66//66
f 72//72 68//68 66//66
f 72//72 75//75 68//68
f 72//72 6//6 2//2
f 2//2 75//75 72//72
f 66//66 73//73 6//6
f 75//75 77//77 74//74
f 74//74 68//68 75//75
f 76//76 82//82 74//74
f 74//74 77//77 76//76
f 119//119 77//77 75//75
f 84//84 76//76 77//77
f 77//77 119//119 84//84
f 84//84 122//122 93//93
f 78//78 71//71 69//69
f 78//78 69//69 79//79
f 74//74 79//79 69//69
f 79//79 74//74 82//82
f 70//70 71//71 78//78
f 78//78 80//80 70//70
f 78//78 79//79 80//80
f 81//81 80//80 79//79
f 82//82 81//81 79//79
f 81//81 82//82 83//83
f 82//82 76//76 83//83
f 76//76 84//84 83//83
f 85//85 81//81 83//83
f 87//87 89//89 73//73
f 8//8 73//73 89//89
f 86//86 70//70 90//90
f 87//87 70//70 86//86
f 87//87 86//86 89//89
f 9//9 8//8 89//89
f 89//89 86//86 88//88
f 96//96 97//97 124//124
f 70//70 80//80 90//90
f 90//90 80//80 102//102
f 92//92 102//102 80//80
f 88//88 86//86 90//90
f 102//102 88//88 90//90
f 102//102 92//92 91//91
f 80//80 81//81 92//92
f 85//85 92//92 81//81
f 92//92 85//85 98//98
f 98//98 95//95 92//92
f 91//91 92//92 95//95
f 83//83 84//84 93//93
f 83//83 93//93 85//85
f 85//85 93//93 97//97
f 94//94 88//88 102//102
f 89//89 88//88 94//94
f 99//99 89//89 94//94
f 94//94 102//102 103//103
f 96//96 85//85 97//97
f 85//85 96//96 98//98
f 9//9 89//89 99//99
f 100//100 9//9 99//99
f 124//124 101//101 96//96
f 106//106 100//100 99//99
f 107//107 100//100 106//106
f 99//99 110//110 106//106
f 109//109 101//101 125//125
f 94//94 103//103 110//110
f 102//102 91//91 103//103
f 103//103 91//91 104//104
f 99//99 94//94 110//110
f 104//104 91//91 95//95
f 96//96 101//101 105//105
f 104//104 95//95 98//98
f 104//104 98//98 96//96
f 104//104 96//96 105//105
f 115//115 103//103 104//104
f 115//115 112//112 103//103
f 112//112 110//110 103//103
f 109//109 105//105 101//101
f 115//115 104//104 105//105
f 106//106 108//108 107//107
f 108//108 106//106 114//114
f 111//111 114//114 106//106
f 111//111 113//113 114//114
f 4//4 107//107 108//108
f 4//4 108//108 127//127
f 116//116 108//108 114//114
f 127//127 108//108 116//116
f 127//127 116//116 109//109
f 106//106 110//110 111//111
f 112//112 111//111 110//110
f 111//111 112//112 113//113
f 115//115 113//113 112//112
f 113//113 116//116 114//114
f 105//105 109//109 116//116
f 113//113 105//105 116//116
f 105//105 113//113 115//115
f 118//118 117//117 75//75
f 118//118 75//75 2//2
f 117//117 118//118 30//30
f 31//31 120//120 117//117
f 119//119 117//117 120//120
f 122//122 120//120 31//31
f 117//117 30//30 31//31
f 119//119 75//75 117//117
f 119//119 120//120 84//84
f 84//84 120//120 122//122
f 122//122 31//31 121//121
f 123//123 122//122 121//121
f 93//93 122//122 97//97
f 123//123 97//97 122//122
f 124//124 97//97 123//123
f 124//124 123//123 53//53
f 124//124 53//53 125//125
f 101//101 124//124 125//125
f 127//127 125//125 126//126
f 126//126 4//4 127//127
f 64//64 62//62 126//126
f 126//126 125//125 64//64
f 127//127 109//109 125//125
# 250 faces, 0 coords texture

# End of File
