####
#
# OBJ File Generated by Meshlab
#
####
# Object nature_valley_crunchy_oats_n_honey_250_collision.obj
#
# Vertices: 123
# Faces: 242
#
####
vn -0.318736 -4.200843 -2.571410
v -0.007828 -0.091976 0.006940
vn -0.390150 5.682214 -1.335853
v 0.013699 0.077608 0.009786
vn -2.152147 -0.411165 5.214468
v -0.040411 -0.069894 0.146847
vn 4.775769 0.590887 2.675367
v 0.050812 0.055166 0.142539
vn -5.449975 1.205898 -1.352075
v -0.052837 -0.065326 0.011742
vn 4.644225 -3.224435 1.518802
v 0.001679 -0.083523 0.138628
vn -3.882785 4.175431 1.363290
v 0.007782 0.072948 0.137809
vn 4.945266 -0.731220 -1.962032
v 0.058708 0.051951 0.011742
vn -3.664431 -4.066335 -0.635700
v -0.050880 -0.078278 0.014585
vn -2.702307 0.992079 -4.397515
v -0.043050 -0.046727 0.005871
vn 2.375325 -0.911792 5.497809
v 0.025119 -0.003562 0.147699
vn 2.558019 5.669722 0.567064
v 0.043139 0.066504 0.134059
vn -5.932787 1.392222 1.018247
v -0.044723 -0.064979 0.138530
vn -2.724093 1.471929 -2.899598
v -0.000156 0.066536 0.005871
vn 5.640082 -2.636988 -0.455448
v 0.004098 -0.080331 0.009785
vn 5.978128 -1.628958 0.653215
v 0.050698 0.046902 0.136744
vn -1.296183 -2.658545 -4.129100
v -0.037182 -0.081434 0.005871
vn -1.557332 -6.037515 0.330049
v -0.012236 -0.089321 0.134915
vn 4.526222 -1.666001 3.768519
v 0.029166 -0.002160 0.144969
vn 1.784842 -1.701124 5.380421
v -0.003304 -0.080566 0.145433
vn -1.186980 1.009513 5.794188
v 0.013461 0.069883 0.145888
vn 1.185466 6.112582 0.082301
v 0.017613 0.076296 0.125244
vn 3.674234 2.605194 -1.631704
v 0.056775 0.062619 0.011946
vn -5.134737 3.272845 0.475808
v 0.005473 0.070825 0.133011
vn -4.269233 2.560746 3.323988
v 0.006750 0.068929 0.141609
vn -4.717206 -3.665199 1.035463
v -0.042756 -0.076074 0.137391
vn -6.165294 -0.878007 0.403796
v -0.045628 -0.070450 0.133072
vn -2.472964 3.440118 -2.397355
v 0.004896 0.074386 0.007882
vn 2.149601 -0.542017 -5.343231
v 0.050880 0.046928 0.005871
vn 5.790566 -2.396830 0.266380
v 0.004004 -0.078546 0.135283
vn 2.687214 -3.625104 -2.219244
v -0.001957 -0.090434 0.007828
vn 6.017741 0.320474 0.932163
v 0.051959 0.054794 0.136986
vn -2.830827 -2.185634 -4.121870
v -0.048923 -0.075761 0.007828
vn -1.519332 -4.487216 -2.918263
v -0.031311 -0.084148 0.006317
vn 4.271356 -0.847450 4.052029
v 0.048990 0.051421 0.144158
vn 5.634542 -1.621637 1.802946
v 0.050366 0.046967 0.138943
vn -0.205226 -2.579342 4.957210
v -0.014093 -0.083355 0.146209
vn 3.325138 -1.501184 4.997164
v 0.000000 -0.077320 0.144570
vn -1.117731 0.508248 6.058568
v -0.002824 0.024335 0.147237
vn 2.698710 2.605329 3.398421
v 0.046779 0.061812 0.144253
vn -0.955027 5.774119 0.715346
v 0.013731 0.076433 0.135063
vn 1.948710 3.440062 -2.791054
v 0.048965 0.066524 0.008118
vn -5.869062 2.172915 0.526747
v -0.041964 -0.056713 0.135886
vn -4.681509 0.146053 3.319962
v -0.043538 -0.067555 0.144157
vn -0.796160 3.077331 3.219850
v 0.014017 0.073925 0.145105
vn -5.738185 2.266071 1.070819
v 0.003486 0.064579 0.136986
vn -5.342000 2.594788 1.846339
v 0.005921 0.068429 0.140309
vn -2.568420 -5.214686 1.549531
v -0.036395 -0.080448 0.139513
vn -6.214946 0.326767 0.598665
v -0.045559 -0.068493 0.135029
vn -5.266334 -1.771655 -1.082410
v -0.052837 -0.074364 0.012733
vn -4.026673 4.713626 0.130418
v 0.005553 0.074064 0.040286
vn -4.880774 3.506666 -1.066755
v 0.003373 0.072407 0.007828
vn 1.946153 0.734873 -5.458253
v 0.050569 0.057601 0.005950
vn 2.858694 -1.247346 -3.456011
v 0.006117 -0.074364 0.005871
vn 0.533331 3.025324 -3.049812
v 0.018752 0.076399 0.005870
vn 5.808797 -2.219861 0.821667
v 0.003943 -0.078278 0.137132
vn 3.208851 -2.340669 -2.794907
v 0.000000 -0.088062 0.007501
vn 1.331761 -6.074321 0.426569
v -0.005871 -0.089704 0.133072
vn 6.196745 -0.825334 0.452768
v 0.051988 0.052837 0.134051
vn 4.993215 0.710812 -2.078915
v 0.058708 0.054794 0.011989
vn -2.908253 -4.839641 -2.311155
v -0.048035 -0.078508 0.010763
vn -2.182581 0.319940 -5.344497
v -0.046967 -0.062978 0.005871
vn -0.391528 -2.263354 -5.179272
v -0.010788 -0.090082 0.005871
vn 5.339934 -2.016590 2.491895
v 0.006100 -0.069833 0.140903
vn 0.539296 -0.137361 6.211720
v 0.022896 -0.001583 0.148220
vn 4.082567 -2.503946 3.593806
v 0.000860 -0.081310 0.142267
vn -3.194486 1.394793 5.154315
v 0.007339 0.062171 0.144631
vn 2.016236 0.621738 5.518955
v 0.046712 0.056364 0.145505
vn 5.711500 2.274916 0.640502
v 0.051518 0.058792 0.132942
vn -2.029281 5.828921 -0.344441
v 0.009785 0.077106 0.013694
vn 1.370751 5.679403 1.510551
v 0.019014 0.075350 0.139085
vn 2.048719 5.911008 0.338305
v 0.022469 0.074610 0.133849
vn -5.859628 2.213189 0.469700
v 0.002528 0.063016 0.133446
vn -5.890152 2.107346 0.538374
v -0.044031 -0.062637 0.137098
vn -3.050821 -2.488614 3.104216
v -0.041437 -0.074948 0.144924
vn -5.624397 2.102711 1.767398
v -0.041461 -0.057668 0.140950
vn -3.732290 -4.913948 0.579366
v -0.040909 -0.078151 0.135029
vn -2.177448 -5.881050 0.293204
v -0.031311 -0.082632 0.135029
vn -0.500179 -5.519721 1.667040
v -0.009618 -0.089661 0.139014
vn -6.160296 1.065917 0.484023
v -0.045311 -0.066536 0.135029
vn -5.529462 0.828041 2.167759
v -0.044035 -0.066661 0.142911
vn -6.275515 0.057630 0.196914
v -0.052839 -0.066538 0.012265
vn -4.598787 -0.313080 -2.686673
v -0.052812 -0.070450 0.009785
vn -5.684953 -2.460114 0.746959
v -0.044895 -0.072392 0.135319
vn -2.846008 5.548750 0.236364
v 0.011819 0.075753 0.132264
vn 4.064505 -0.559067 -4.536320
v 0.056609 0.050880 0.009785
vn 1.556880 6.069000 -0.127897
v 0.017613 0.076834 0.009785
vn 4.446486 -4.209031 0.559317
v 0.000046 -0.086109 0.134117
vn 1.007573 -3.628953 -2.621147
v -0.005871 -0.091976 0.007141
vn 6.274815 -0.061119 0.211026
v 0.058708 0.052837 0.012319
vn -0.004604 -0.283937 6.273626
v -0.026580 -0.072651 0.146827
vn -1.251106 0.457094 6.016128
v -0.020560 -0.020411 0.147258
vn -0.077749 0.218777 6.277710
v 0.006833 0.035237 0.147089
vn -2.700819 1.106359 5.512462
v -0.003914 0.026419 0.146529
vn -4.143653 1.769909 4.304450
v 0.005871 0.064309 0.142731
vn 2.290467 -0.418279 5.607104
v 0.046967 0.050880 0.145407
vn 0.605553 1.297850 5.994344
v 0.033555 0.064175 0.145660
vn 5.337549 2.902155 1.348884
v 0.050158 0.059798 0.137396
vn 6.084928 1.538851 0.266068
v 0.057209 0.060665 0.013699
vn 6.150089 1.072664 0.472393
v 0.051986 0.056751 0.133072
vn -0.749052 6.184738 -0.001388
v 0.011742 0.077568 0.015656
vn 2.863563 4.973022 1.869702
v 0.045013 0.064393 0.141213
vn -1.108649 -3.232328 4.348494
v -0.025257 -0.081220 0.145892
vn -5.655457 2.179922 1.645024
v 0.003914 0.064579 0.138595
vn -2.012497 -5.923593 0.434964
v -0.015179 -0.088360 0.134701
vn 1.468510 -4.035195 2.858925
v -0.005535 -0.088328 0.141998
vn -5.868197 -1.044932 1.121730
v -0.045360 -0.070450 0.136986
vn -5.343989 2.046616 2.498167
v 0.005402 0.066536 0.140900
vn -3.049652 5.485550 0.016954
v 0.008272 0.076321 0.013699
vn 1.214357 6.162916 0.012935
v 0.015656 0.077252 0.012720
vn 1.896262 5.989394 0.013786
v 0.019569 0.076219 0.015656
vn 3.619998 -5.018993 0.569271
v -0.002057 -0.087991 0.133072
vn 2.534670 -5.623258 0.524839
v -0.003914 -0.089105 0.133072
vn 0.118373 -6.230263 0.226120
v -0.007828 -0.089938 0.133072
vn -0.157404 0.089113 6.279865
v 0.003241 0.006207 0.147746
vn -2.950836 1.152419 5.356802
v -0.019569 -0.012818 0.146475
vn -4.138782 1.543496 4.377689
v -0.040388 -0.060715 0.144822
vn 4.366667 4.280788 0.743115
v 0.048923 0.063124 0.133072
vn -5.961175 -1.921530 0.457437
v -0.045010 -0.072126 0.135029
vn -3.743593 1.466799 4.799616
v -0.007828 0.023205 0.144814
vn -3.161924 1.137842 5.270723
v -0.039139 -0.061644 0.145972
vn 5.136795 3.453070 0.779636
v 0.049298 0.062622 0.133072
vn 3.325796 5.238169 0.534508
v 0.047003 0.064579 0.133072
# 123 vertices, 0 vertices normals

f 14//14 10//10 5//5
f 18//18 9//9 1//1
f 24//24 14//14 5//5
f 30//30 15//15 8//8
f 30//30 6//6 15//15
f 30//30 8//8 16//16
f 34//34 1//1 9//9
f 35//35 11//11 19//19
f 36//36 35//35 19//19
f 36//36 4//4 35//35
f 36//36 32//32 4//4
f 36//36 16//16 32//32
f 38//38 19//19 11//11
f 38//38 11//11 20//20
f 41//41 22//22 2//2
f 42//42 12//12 23//23
f 45//45 7//7 25//25
f 45//45 41//41 7//7
f 47//47 25//25 7//7
f 47//47 7//7 24//24
f 47//47 24//24 46//46
f 50//50 27//27 49//49
f 50//50 33//33 9//9
f 51//51 28//28 24//24
f 51//51 24//24 7//7
f 52//52 28//28 14//14
f 52//52 14//14 24//24
f 52//52 24//24 28//28
f 53//53 42//42 23//23
f 54//54 8//8 15//15
f 55//55 10//10 14//14
f 55//55 29//29 54//54
f 55//55 53//53 29//29
f 55//55 14//14 28//28
f 55//55 42//42 53//53
f 55//55 28//28 2//2
f 56//56 30//30 16//16
f 56//56 6//6 30//30
f 56//56 36//36 6//6
f 56//56 16//16 36//36
f 57//57 15//15 6//6
f 57//57 54//54 15//15
f 59//59 32//32 16//16
f 59//59 16//16 8//8
f 59//59 8//8 32//32
f 60//60 53//53 23//23
f 61//61 33//33 17//17
f 61//61 9//9 33//33
f 61//61 34//34 9//9
f 61//61 17//17 34//34
f 62//62 17//17 33//33
f 62//62 55//55 17//17
f 62//62 10//10 55//55
f 63//63 34//34 17//17
f 63//63 1//1 34//34
f 63//63 55//55 54//54
f 63//63 17//17 55//55
f 64//64 36//36 19//19
f 64//64 6//6 36//36
f 65//65 37//37 20//20
f 65//65 20//20 11//11
f 66//66 38//38 20//20
f 66//66 6//6 64//64
f 66//66 64//64 19//19
f 66//66 19//19 38//38
f 67//67 21//21 45//45
f 68//68 35//35 4//4
f 68//68 4//4 40//40
f 69//69 4//4 32//32
f 70//70 2//2 28//28
f 71//71 22//22 41//41
f 71//71 41//41 45//45
f 72//72 42//42 22//22
f 72//72 12//12 42//42
f 72//72 71//71 12//12
f 72//72 22//22 71//71
f 73//73 24//24 5//5
f 73//73 5//5 43//43
f 73//73 46//46 24//24
f 73//73 43//43 46//46
f 74//74 43//43 5//5
f 74//74 5//5 13//13
f 74//74 46//46 43//43
f 74//74 13//13 46//46
f 75//75 3//3 44//44
f 75//75 26//26 48//48
f 76//76 46//46 13//13
f 77//77 48//48 26//26
f 77//77 26//26 9//9
f 77//77 9//9 48//48
f 78//78 48//48 9//9
f 79//79 18//18 1//1
f 80//80 49//49 13//13
f 80//80 13//13 5//5
f 80//80 5//5 49//49
f 81//81 76//76 13//13
f 81//81 44//44 25//25
f 82//82 50//50 49//49
f 82//82 49//49 5//5
f 82//82 5//5 50//50
f 83//83 50//50 5//5
f 83//83 33//33 50//50
f 83//83 62//62 33//33
f 83//83 5//5 10//10
f 83//83 10//10 62//62
f 84//84 50//50 9//9
f 84//84 9//9 26//26
f 85//85 51//51 7//7
f 85//85 7//7 41//41
f 85//85 41//41 70//70
f 86//86 29//29 53//53
f 86//86 60//60 8//8
f 86//86 53//53 60//60
f 86//86 54//54 29//29
f 86//86 8//8 54//54
f 87//87 55//55 2//2
f 87//87 42//42 55//55
f 88//88 57//57 6//6
f 88//88 31//31 57//57
f 89//89 57//57 31//31
f 89//89 1//1 63//63
f 89//89 63//63 54//54
f 89//89 54//54 57//57
f 90//90 60//60 32//32
f 90//90 32//32 8//8
f 90//90 8//8 60//60
f 91//91 65//65 3//3
f 91//91 3//3 37//37
f 91//91 37//37 65//65
f 92//92 3//3 65//65
f 93//93 65//65 21//21
f 93//93 21//21 39//39
f 93//93 39//39 65//65
f 94//94 39//39 21//21
f 94//94 21//21 67//67
f 94//94 92//92 39//39
f 95//95 67//67 45//45
f 95//95 45//45 25//25
f 96//96 68//68 65//65
f 96//96 65//65 11//11
f 96//96 11//11 35//35
f 96//96 35//35 68//68
f 97//97 21//21 65//65
f 97//97 65//65 68//68
f 97//97 45//45 21//21
f 97//97 68//68 40//40
f 97//97 40//40 45//45
f 98//98 40//40 4//4
f 98//98 4//4 69//69
f 99//99 69//69 60//60
f 99//99 60//60 23//23
f 99//99 23//23 69//69
f 100//100 69//69 32//32
f 100//100 32//32 60//60
f 100//100 60//60 69//69
f 101//101 70//70 41//41
f 101//101 41//41 2//2
f 101//101 2//2 70//70
f 102//102 71//71 45//45
f 102//102 45//45 40//40
f 102//102 12//12 71//71
f 103//103 75//75 48//48
f 103//103 48//48 79//79
f 103//103 37//37 3//3
f 103//103 3//3 75//75
f 104//104 76//76 47//47
f 104//104 47//47 46//46
f 104//104 46//46 76//76
f 105//105 48//48 78//78
f 105//105 78//78 9//9
f 105//105 9//9 18//18
f 105//105 79//79 48//48
f 105//105 18//18 79//79
f 106//106 20//20 37//37
f 106//106 66//66 20//20
f 106//106 103//103 79//79
f 106//106 37//37 103//103
f 106//106 6//6 66//66
f 106//106 88//88 6//6
f 106//106 79//79 58//58
f 107//107 81//81 13//13
f 107//107 13//13 49//49
f 107//107 44//44 81//81
f 107//107 27//27 50//50
f 107//107 49//49 27//27
f 107//107 75//75 44//44
f 107//107 84//84 26//26
f 107//107 26//26 75//75
f 108//108 81//81 25//25
f 108//108 25//25 47//47
f 108//108 47//47 76//76
f 108//108 76//76 81//81
f 109//109 85//85 70//70
f 109//109 70//70 28//28
f 109//109 28//28 51//51
f 109//109 51//51 85//85
f 110//110 87//87 2//2
f 110//110 2//2 22//22
f 110//110 22//22 87//87
f 111//111 87//87 22//22
f 111//111 22//22 42//42
f 111//111 42//42 87//87
f 112//112 31//31 88//88
f 112//112 88//88 106//106
f 113//113 89//89 31//31
f 113//113 58//58 89//89
f 113//113 31//31 112//112
f 113//113 112//112 106//106
f 113//113 106//106 58//58
f 114//114 79//79 1//1
f 114//114 1//1 89//89
f 114//114 89//89 58//58
f 114//114 58//58 79//79
f 115//115 92//92 65//65
f 115//115 65//65 39//39
f 115//115 39//39 92//92
f 116//116 3//3 92//92
f 116//116 92//92 94//94
f 116//116 94//94 67//67
f 117//117 95//95 25//25
f 117//117 25//25 44//44
f 118//118 102//102 40//40
f 119//119 107//107 50//50
f 119//119 50//50 84//84
f 119//119 84//84 107//107
f 120//120 117//117 116//116
f 120//120 116//116 67//67
f 120//120 67//67 95//95
f 120//120 95//95 117//117
f 121//121 117//117 44//44
f 121//121 44//44 3//3
f 121//121 3//3 116//116
f 121//121 116//116 117//117
f 122//122 98//98 69//69
f 122//122 118//118 40//40
f 122//122 40//40 98//98
f 122//122 69//69 23//23
f 122//122 23//23 118//118
f 123//123 118//118 23//23
f 123//123 23//23 12//12
f 123//123 12//12 102//102
f 123//123 102//102 118//118
# 242 faces, 0 coords texture

# End of File
