####
#
# OBJ File Generated by Meshlab
#
####
# Object nature_valley_crunchy_oats_n_honey_250_collision.obj
#
# Vertices: 127
# Faces: 250
#
####
vn -0.994181 -0.094763 -0.051221
v -0.048173 -0.070450 0.011742
vn 0.998756 -0.039534 0.030403
v 0.052297 0.054526 0.136176
vn -0.273148 -0.961287 -0.036294
v -0.011834 -0.089759 0.013780
vn 0.877749 -0.158388 -0.452184
v 0.050677 0.048923 0.007828
vn 0.465749 -0.880262 0.090646
v -0.003934 -0.089101 0.135584
vn -0.202574 -0.960082 0.192889
v -0.011895 -0.089411 0.137065
vn -0.069686 -0.629184 -0.774127
v -0.009785 -0.088610 0.007828
vn -0.864850 0.253099 -0.433560
v -0.047432 -0.060665 0.007828
vn 0.394982 0.907487 0.143030
v 0.043365 0.066424 0.133955
vn -0.935633 0.346375 0.067941
v -0.043421 -0.060611 0.135873
vn -0.192606 0.579522 0.791869
v 0.014169 0.072351 0.145717
vn -0.248577 -0.018843 0.968429
v -0.040965 -0.070947 0.146831
vn -0.007380 -0.999860 0.014983
v -0.007828 -0.089955 0.131115
vn 0.996036 0.087086 -0.018121
v 0.052036 0.056751 0.017612
vn 0.771896 -0.271913 0.574665
v 0.005960 -0.070211 0.140901
vn 0.920173 -0.277563 0.276116
v 0.050366 0.046967 0.138943
vn 0.831818 0.547810 0.089353
v 0.049298 0.062622 0.133072
vn -0.938520 0.344113 0.027679
v -0.039445 -0.044445 0.082554
vn -0.924722 0.351750 0.145469
v 0.003486 0.064579 0.136986
vn -0.994351 0.106002 0.005467
v -0.047711 -0.062622 0.013699
vn -0.939123 0.308424 0.151403
v -0.044916 -0.064883 0.136784
vn 0.001733 0.019645 0.999806
v 0.019189 0.001453 0.148213
vn 0.590735 -0.806219 0.032283
v -0.002057 -0.087991 0.133072
vn 0.396270 -0.727582 -0.559995
v -0.000517 -0.087990 0.007828
vn 0.939161 -0.343407 0.006978
v 0.043053 0.024725 0.111546
vn 0.828999 -0.315328 -0.461875
v 0.005871 -0.074374 0.007828
vn 0.162445 -0.982026 0.096105
v -0.005900 -0.089697 0.136587
vn -0.494637 -0.869074 -0.006632
v -0.042381 -0.078278 0.013699
vn 0.000000 0.000000 0.000000
v -0.003914 -0.078278 0.145768
vn 0.803272 -0.414544 0.427677
v 0.002451 -0.078729 0.141936
vn -0.098009 -0.959980 -0.262358
v -0.009371 -0.089914 0.009785
vn -0.803411 0.022956 -0.594983
v -0.047794 -0.064579 0.007828
vn -0.961937 -0.228059 0.150554
v -0.045564 -0.070448 0.136132
vn -0.936587 0.349556 0.024811
v -0.023826 -0.001967 0.076329
vn -0.656298 0.304018 -0.690541
v 0.000437 0.066832 0.007829
vn -0.936536 0.348810 0.035096
v -0.019814 0.005875 0.115460
vn 0.242665 0.969269 0.040392
v 0.018197 0.076140 0.133217
vn 0.478227 0.877169 0.043290
v 0.046747 0.064782 0.134682
vn -0.737633 0.575633 0.352908
v 0.006687 0.071993 0.138519
vn -0.500978 -0.841294 0.203091
v -0.040817 -0.078184 0.139928
vn -0.883173 -0.467934 0.032306
v -0.044233 -0.074364 0.129158
vn -0.612120 0.440243 0.656883
v 0.006623 0.068578 0.141620
vn -0.801919 -0.358085 0.478227
v -0.042818 -0.074213 0.145311
vn 0.000000 0.000000 0.000000
v 0.003914 -0.080678 0.009785
vn 0.687168 -0.388232 -0.614065
v 0.000822 -0.086095 0.007826
vn 0.131441 -0.991318 -0.003316
v -0.005871 -0.090082 0.017612
vn -0.120143 -0.992556 -0.019942
v -0.009785 -0.090113 0.013699
vn -0.325000 -0.941036 -0.093951
v -0.023305 -0.085658 0.012129
vn -0.677654 -0.383558 -0.627429
v -0.047362 -0.070955 0.007832
vn -0.638268 -0.748998 -0.177810
v -0.045009 -0.076647 0.011742
vn 0.068177 -0.031217 0.997185
v 0.023804 -0.001214 0.148197
vn 0.800128 -0.210198 0.561793
v 0.049261 0.048001 0.142525
vn 0.999913 0.009760 -0.008886
v 0.052133 0.054794 0.019569
vn 0.784499 -0.607594 0.124061
v 0.000106 -0.086028 0.136887
vn 0.907174 -0.344164 0.242048
v 0.005871 -0.072073 0.138943
vn 0.970468 0.129331 0.203630
v 0.052074 0.056593 0.139476
vn -0.891182 -0.446732 -0.078895
v -0.047078 -0.074363 0.011742
vn -0.928449 0.371246 0.012597
v -0.000471 0.064809 0.011721
vn 0.277613 0.960073 -0.034507
v 0.018771 0.076522 0.011291
vn 0.397207 0.915325 -0.066380
v 0.042637 0.068052 0.013539
vn 0.476654 0.877048 -0.059903
v 0.045785 0.066536 0.015656
vn -0.461795 0.886646 0.024581
v 0.011584 0.075772 0.125717
vn -0.018471 0.991342 -0.129999
v 0.013698 0.077608 0.009781
vn -0.138614 0.990295 -0.010110
v 0.011742 0.077568 0.015656
vn 0.750348 0.647797 0.131673
v 0.048923 0.063124 0.133072
vn -0.972256 0.169327 0.161389
v 0.005181 0.070348 0.132148
vn -0.941585 0.334816 0.036288
v -0.043403 -0.059199 0.125807
vn -0.499613 0.850047 0.166755
v 0.008030 0.073367 0.136961
vn -0.707828 0.462743 -0.533712
v 0.003380 0.072419 0.007828
vn -0.884858 0.465860 -0.000493
v 0.005161 0.069780 0.137056
vn -0.903719 0.206313 0.375135
v -0.043974 -0.066270 0.142753
vn -0.908660 -0.413451 0.058278
v -0.045023 -0.072437 0.133072
vn -0.468991 0.347214 0.812090
v 0.008024 0.065266 0.144277
vn -0.679274 0.195229 0.707440
v -0.042081 -0.065308 0.144903
vn 0.334796 -0.057749 0.940519
v 0.047424 0.054061 0.145548
vn 0.900632 0.431270 0.053556
v 0.051505 0.058801 0.133108
vn 0.000000 0.000000 -1.000000
v -0.043053 -0.062622 0.141386
vn -0.341636 0.130498 0.930728
v -0.021466 -0.020728 0.147234
vn 0.924787 -0.378648 0.037336
v 0.003991 -0.078603 0.135213
vn 0.938387 -0.345584 -0.001205
v 0.034541 0.001563 0.083399
vn 0.936162 -0.351562 -0.002259
v 0.004884 -0.078278 0.011742
vn 0.046405 -0.996133 -0.074607
v -0.007828 -0.090205 0.011742
vn -0.130798 -0.339632 -0.931419
v -0.031326 -0.082219 0.007661
vn -0.440889 -0.863653 -0.244376
v -0.039407 -0.079785 0.009392
vn -0.432340 -0.901503 0.019332
v -0.037182 -0.080315 0.133072
vn 0.401827 -0.146850 0.903864
v 0.023305 -0.007284 0.147935
vn 0.991258 -0.045426 -0.123870
v 0.052036 0.052812 0.013408
vn 0.952309 -0.305093 0.005087
v 0.050801 0.046616 0.126670
vn 0.909531 -0.379715 0.169028
v 0.003943 -0.078278 0.137132
vn -0.991907 0.100322 0.077822
v -0.045668 -0.068254 0.138904
vn 0.100050 0.512930 -0.852580
v 0.017527 0.076601 0.007519
vn 0.634754 0.772187 -0.028560
v 0.048923 0.064606 0.013699
vn 0.854185 0.519805 -0.013102
v 0.050553 0.062623 0.011260
vn -0.320456 0.946510 -0.037776
v 0.009784 0.077106 0.013684
vn -0.179752 0.976462 0.119207
v 0.013731 0.076433 0.135062
vn 0.796012 0.572343 0.196947
v 0.049947 0.060389 0.137062
vn 0.060337 -0.123389 0.990522
v 0.046985 0.064589 0.133072
vn 0.199670 0.928188 0.314006
v 0.019159 0.075016 0.141233
vn -0.817153 -0.574305 0.049349
v -0.042987 -0.076305 0.132551
vn -0.909063 0.334092 0.248973
v -0.041464 -0.057676 0.140950
vn 0.115816 0.247913 0.961834
v 0.034267 0.063905 0.145646
vn -0.248508 0.110843 0.962267
v -0.003935 0.022682 0.147355
vn 0.911879 -0.400012 -0.092013
v 0.004057 -0.080430 0.009731
vn 0.936221 -0.351347 0.006727
v 0.020807 -0.035220 0.101758
vn 0.957082 -0.283587 -0.059777
v 0.051438 0.048910 0.011704
vn 0.005602 -0.999982 0.002330
v -0.007828 -0.090064 0.093933
vn 0.137799 -0.048847 -0.989255
v 0.039139 0.017612 0.007382
vn -0.322735 -0.946375 0.014739
v -0.015682 -0.088215 0.134216
vn -0.348574 -0.933417 0.085028
v -0.031646 -0.082508 0.137682
vn 0.592708 -0.201342 0.779845
v 0.038160 0.024830 0.145382
vn 0.704092 -0.261543 0.660189
v 0.028752 -0.003281 0.144961
vn 0.975529 0.196837 -0.097969
v 0.051327 0.060524 0.010787
vn 0.942522 -0.333042 0.027120
v 0.050806 0.046967 0.135029
vn 0.964667 -0.248316 0.088072
v 0.051302 0.048680 0.137190
vn 0.943935 -0.330130 -0.001195
v 0.049495 0.042860 0.084093
vn 0.852206 -0.258444 0.454920
v 0.002161 -0.076826 0.142857
vn -0.023430 0.008236 -0.999692
v -0.017612 0.011742 0.007633
vn -0.508387 0.811197 -0.288967
v 0.004894 0.074385 0.007838
vn 0.366473 -0.789133 0.492916
v -0.005151 -0.087596 0.143964
vn 0.657742 0.311832 0.685665
v 0.048557 0.058823 0.145090
vn 0.706002 0.520234 -0.480539
v 0.050075 0.063055 0.007800
vn 0.000000 0.000000 0.000000
v -0.035225 -0.081047 0.135029
vn 0.243580 -0.965732 -0.089616
v -0.003911 -0.089648 0.012383
vn -0.013999 0.003271 -0.999897
v -0.023483 -0.003914 0.007660
vn -0.118174 -0.533355 0.837596
v -0.014891 -0.084225 0.146203
vn 0.494475 0.736809 0.461094
v 0.046007 0.062907 0.143141
vn 0.389111 -0.247409 0.887345
v -0.002919 -0.083305 0.144996
# 127 vertices, 0 vertices normals

f 24//24 5//5 123//123
f 57//57 1//1 49//49
f 20//20 1//1 90//90
f 21//21 19//19 10//10
f 24//24 45//45 54//54
f 105//105 26//26 4//4
f 105//105 103//103 26//26
f 27//27 123//123 5//5
f 48//48 31//31 3//3
f 28//28 50//50 84//84
f 88//88 105//105 114//114
f 89//89 114//114 16//16
f 30//30 16//16 15//15
f 31//31 7//7 24//24
f 32//32 49//49 1//1
f 32//32 20//20 8//8
f 32//32 1//1 20//20
f 33//33 1//1 57//57
f 33//33 90//90 1//1
f 9//9 60//60 37//37
f 66//66 36//36 10//10
f 67//67 10//10 36//36
f 90//90 8//8 20//20
f 99//99 57//57 50//50
f 100//100 21//21 71//71
f 54//54 23//23 24//24
f 23//23 5//5 24//24
f 54//54 45//45 103//103
f 44//44 103//103 45//45
f 44//44 45//45 103//103
f 79//79 89//89 54//54
f 45//45 26//26 103//103
f 46//46 27//27 13//13
f 46//46 123//123 27//27
f 48//48 109//109 84//84
f 108//108 3//3 6//6
f 49//49 50//50 57//57
f 50//50 28//28 40//40
f 52//52 111//111 15//15
f 116//116 15//15 111//111
f 87//87 114//114 105//105
f 2//2 114//114 87//87
f 53//53 14//14 2//2
f 53//53 2//2 87//87
f 87//87 105//105 4//4
f 121//121 87//87 4//4
f 115//115 25//25 105//105
f 55//55 16//16 30//30
f 30//30 15//15 116//116
f 57//57 72//72 33//33
f 58//58 34//34 36//36
f 58//58 8//8 34//34
f 58//58 35//35 8//8
f 91//91 118//118 63//63
f 59//59 60//60 91//91
f 60//60 59//59 37//37
f 61//61 121//121 60//60
f 61//61 60//60 38//38
f 93//93 112//112 121//121
f 63//63 118//118 94//94
f 56//56 2//2 14//14
f 56//56 112//112 76//76
f 56//56 76//76 96//96
f 98//98 9//9 37//37
f 66//66 10//10 19//19
f 67//67 18//18 8//8
f 67//67 8//8 21//21
f 68//68 118//118 39//39
f 68//68 62//62 118//118
f 70//70 39//39 69//69
f 69//69 39//39 118//118
f 66//66 39//39 70//70
f 70//70 36//36 66//66
f 70//70 58//58 36//36
f 21//21 8//8 90//90
f 125//125 43//43 40//40
f 6//6 40//40 109//109
f 72//72 57//57 41//41
f 99//99 41//41 57//57
f 40//40 99//99 50//50
f 71//71 39//39 100//100
f 75//75 120//120 101//101
f 76//76 17//17 96//96
f 39//39 19//19 100//100
f 100//100 19//19 21//21
f 77//77 100//100 71//71
f 43//43 74//74 71//71
f 43//43 12//12 74//74
f 11//11 73//73 102//102
f 102//102 73//73 78//78
f 79//79 114//114 89//89
f 79//79 113//113 114//114
f 79//79 25//25 113//113
f 79//79 104//104 25//25
f 81//81 103//103 105//105
f 81//81 79//79 103//103
f 81//81 104//104 79//79
f 80//80 105//105 25//25
f 82//82 47//47 31//31
f 3//3 47//47 6//6
f 3//3 31//31 47//47
f 6//6 47//47 13//13
f 3//3 108//108 109//109
f 3//3 109//109 48//48
f 83//83 7//7 31//31
f 83//83 31//31 48//48
f 83//83 48//48 84//84
f 83//83 49//49 32//32
f 83//83 32//32 8//8
f 83//83 24//24 7//7
f 84//84 50//50 49//49
f 84//84 49//49 83//83
f 85//85 28//28 84//84
f 86//86 110//110 75//75
f 52//52 110//110 111//111
f 52//52 15//15 16//16
f 30//30 116//116 111//111
f 51//51 29//29 127//127
f 87//87 14//14 53//53
f 87//87 121//121 112//112
f 93//93 65//65 17//17
f 93//93 17//17 76//76
f 113//113 88//88 114//114
f 88//88 113//113 25//25
f 56//56 16//16 114//114
f 56//56 52//52 16//16
f 30//30 127//127 119//119
f 89//89 16//16 55//55
f 30//30 89//89 55//55
f 30//30 54//54 89//89
f 120//120 56//56 96//96
f 123//123 31//31 24//24
f 123//123 82//82 31//31
f 43//43 33//33 72//72
f 43//43 72//72 99//99
f 90//90 33//33 21//21
f 18//18 34//34 8//8
f 18//18 36//36 34//34
f 91//91 63//63 59//59
f 91//91 69//69 118//118
f 91//91 35//35 69//69
f 63//63 37//37 59//59
f 60//60 9//9 38//38
f 92//92 61//61 38//38
f 92//92 121//121 61//61
f 94//94 118//118 62//62
f 95//95 63//63 64//64
f 95//95 64//64 94//94
f 95//95 94//94 62//62
f 94//94 64//64 63//63
f 112//112 56//56 14//14
f 96//96 17//17 65//65
f 38//38 97//97 65//65
f 38//38 65//65 92//92
f 97//97 38//38 9//9
f 35//35 70//70 69//69
f 39//39 66//66 19//19
f 67//67 21//21 10//10
f 33//33 71//71 21//21
f 6//6 125//125 40//40
f 99//99 72//72 41//41
f 43//43 125//125 12//12
f 74//74 78//78 73//73
f 74//74 42//42 71//71
f 100//100 77//77 71//71
f 42//42 39//39 71//71
f 22//22 75//75 101//101
f 126//126 97//97 9//9
f 126//126 65//65 97//97
f 126//126 96//96 65//65
f 12//12 78//78 74//74
f 104//104 80//80 25//25
f 105//105 80//80 81//81
f 5//5 23//23 54//54
f 125//125 119//119 127//127
f 106//106 82//82 46//46
f 106//106 46//46 13//13
f 106//106 13//13 47//47
f 106//106 47//47 82//82
f 107//107 45//45 24//24
f 107//107 24//24 83//83
f 107//107 26//26 45//45
f 107//107 4//4 26//26
f 107//107 121//121 4//4
f 108//108 6//6 109//109
f 109//109 85//85 84//84
f 40//40 28//28 85//85
f 51//51 86//86 75//75
f 51//51 75//75 22//22
f 127//127 86//86 51//51
f 111//111 127//127 30//30
f 111//111 110//110 86//86
f 111//111 86//86 127//127
f 56//56 114//114 2//2
f 112//112 14//14 87//87
f 112//112 93//93 76//76
f 115//115 88//88 25//25
f 115//115 105//105 88//88
f 30//30 119//119 54//54
f 119//119 5//5 54//54
f 54//54 103//103 79//79
f 67//67 36//36 18//18
f 37//37 63//63 95//95
f 121//121 91//91 60//60
f 117//117 35//35 91//91
f 117//117 8//8 35//35
f 117//117 107//107 83//83
f 117//117 91//91 107//107
f 95//95 68//68 11//11
f 95//95 11//11 98//98
f 93//93 121//121 92//92
f 93//93 92//92 65//65
f 35//35 58//58 70//70
f 33//33 43//43 71//71
f 51//51 125//125 127//127
f 51//51 127//127 29//29
f 6//6 27//27 119//119
f 40//40 43//43 99//99
f 22//22 101//101 11//11
f 73//73 42//42 74//74
f 11//11 126//126 98//98
f 126//126 9//9 98//98
f 120//120 96//96 126//126
f 22//22 78//78 12//12
f 80//80 104//104 81//81
f 121//121 107//107 91//91
f 122//122 109//109 85//85
f 122//122 85//85 109//109
f 40//40 85//85 109//109
f 52//52 120//120 75//75
f 52//52 75//75 110//110
f 123//123 46//46 82//82
f 124//124 117//117 83//83
f 124//124 83//83 8//8
f 124//124 8//8 117//117
f 95//95 62//62 68//68
f 68//68 39//39 11//11
f 6//6 119//119 125//125
f 73//73 39//39 42//42
f 126//126 11//11 101//101
f 126//126 101//101 120//120
f 102//102 22//22 11//11
f 22//22 102//102 78//78
f 27//27 6//6 13//13
f 52//52 56//56 120//120
f 37//37 95//95 98//98
f 5//5 119//119 27//27
f 11//11 39//39 73//73
f 12//12 125//125 51//51
f 12//12 51//51 22//22
# 250 faces, 0 coords texture

# End of File
