####
#
# OBJ File Generated by Meshlab
#
####
# Object nutrigrain_fruit_crunch_strawberry_parfait_250_collision.obj
#
# Vertices: 127
# Faces: 250
#
####
vn -0.013980 -0.017979 0.999741
v 0.014114 -0.000061 -0.000271
vn -0.364539 -0.246491 0.897972
v 0.025028 0.009957 0.002175
vn 0.113870 0.094321 -0.989008
v 0.013392 -0.017644 0.150479
vn -0.855623 -0.517585 0.003929
v 0.039861 0.004734 0.099498
vn 0.780732 0.456946 0.426213
v -0.000089 -0.030770 0.008704
vn 0.743570 0.503787 0.439662
v -0.014791 -0.005825 0.007757
vn 0.285501 0.184457 0.940460
v 0.005041 -0.015350 0.000973
vn 0.850954 0.522527 0.053312
v -0.009234 -0.016207 0.017632
vn 0.846178 0.532408 0.022923
v -0.020814 0.000106 0.044089
vn 0.856008 0.516680 0.017085
v 0.007009 -0.045654 0.055354
vn 0.855377 0.517976 0.005622
v -0.002937 -0.029569 0.071185
vn 0.854068 0.519809 -0.019141
v 0.009523 -0.049913 0.089578
vn 0.851643 0.523025 -0.033898
v -0.013311 -0.011843 0.102938
vn 0.633528 0.379257 -0.674394
v 0.012292 -0.047582 0.143770
vn 0.331536 0.213632 -0.918937
v -0.008265 0.002156 0.148170
vn 0.836043 0.546198 0.051963
v -0.032526 0.020940 0.015185
vn 0.762212 0.414512 0.497204
v -0.041377 0.034741 0.006134
vn 0.965046 0.053625 0.256536
v -0.047250 0.044749 0.010471
vn 0.903524 0.427975 0.021955
v -0.044924 0.037755 0.031070
vn 0.072774 0.078384 0.994264
v -0.005220 0.002252 0.000327
vn -0.088846 -0.046880 0.994941
v 0.003901 0.020877 -0.000452
vn 0.351307 0.263298 0.898475
v -0.019497 0.009852 0.001561
vn 0.053261 0.042638 0.997670
v -0.016026 0.023909 -0.000910
vn 0.209854 0.040372 0.976899
v -0.029860 0.035613 -0.000288
vn -0.476184 -0.300256 0.826495
v 0.009346 0.034397 0.002190
vn 0.563331 -0.285723 0.775255
v -0.040982 0.048708 0.002674
vn 0.784005 -0.596981 0.170148
v -0.044986 0.051901 0.010983
vn -0.136956 -0.132014 0.981741
v -0.009995 0.049777 0.000543
vn -0.011988 -0.567455 0.823317
v -0.011772 0.066443 0.002954
vn 0.347381 -0.901509 0.258084
v -0.020394 0.068349 0.011272
vn -0.809555 -0.475937 0.343665
v 0.012891 0.040068 0.009997
vn -0.664677 -0.570196 0.482784
v -0.001426 0.063208 0.006660
vn -0.268672 -0.945682 0.183033
v -0.011269 0.070437 0.012492
vn 0.997431 -0.068802 -0.019951
v -0.046257 0.044881 0.035304
vn 0.715429 -0.698682 0.002174
v -0.042489 0.053774 0.087926
vn -0.757158 -0.650788 0.056455
v 0.001072 0.063347 0.049492
vn -0.196126 -0.979646 0.042756
v -0.008306 0.070695 0.044717
vn 0.822465 -0.568759 -0.008050
v -0.042858 0.053365 0.057918
vn -0.614641 -0.787679 0.042172
v -0.001630 0.068000 0.066657
vn 0.927733 0.373107 -0.010125
v -0.045150 0.038716 0.066896
vn 0.995719 -0.091613 -0.012256
v -0.046110 0.044737 0.086008
vn 0.917710 0.396247 -0.028222
v -0.043466 0.037246 0.109559
vn 0.851204 0.524796 -0.006410
v -0.024281 0.005915 0.081566
vn 0.850983 0.520632 -0.069067
v -0.002007 -0.028110 0.121095
vn 0.977839 -0.208892 -0.013950
v -0.045382 0.048254 0.109500
vn 0.427776 -0.903796 0.012664
v -0.018101 0.069471 0.055408
vn -0.822583 -0.568431 0.015632
v 0.004267 0.062910 0.114191
vn -0.579742 -0.814491 0.022460
v -0.000932 0.069061 0.107992
vn 0.129482 -0.991350 0.021453
v -0.013057 0.072377 0.083239
vn 0.695940 -0.717860 -0.018542
v -0.039391 0.056317 0.113463
vn 0.386470 -0.921670 -0.034138
v -0.015764 0.071653 0.129971
vn -0.716683 -0.618302 -0.322596
v 0.000794 0.068280 0.139068
vn -0.175716 -0.984241 0.019851
v -0.008963 0.072595 0.107299
vn -0.072844 -0.900028 -0.429702
v -0.007709 0.072730 0.140221
vn 0.899072 -0.363908 -0.243393
v -0.044933 0.048197 0.139140
vn 0.928545 0.276122 -0.248113
v -0.044723 0.041364 0.138363
vn 0.706331 0.432295 -0.560551
v -0.005609 -0.019426 0.139549
vn 0.775353 0.503137 -0.381681
v -0.027190 0.014854 0.138268
vn 0.518081 -0.090514 -0.850529
v -0.036920 0.047198 0.151720
vn 0.253063 0.212827 -0.943750
v -0.021816 0.022797 0.148286
vn 0.002179 -0.008098 -0.999965
v -0.013727 0.021070 0.148496
vn 0.559786 -0.754900 -0.341710
v -0.033661 0.060022 0.143292
vn -0.212784 -0.250622 -0.944411
v -0.003028 0.059109 0.149017
vn -0.222267 0.487905 0.844125
v 0.050058 -0.077807 0.001550
vn -0.131126 -0.002936 0.991361
v 0.052587 -0.058360 -0.000709
vn 0.815650 0.509482 0.274123
v 0.018669 -0.062282 0.010845
vn 0.313238 0.586979 0.746550
v 0.037490 -0.082334 0.002836
vn 0.521703 0.839353 0.152688
v 0.032187 -0.085977 0.016305
vn 0.226477 0.974008 0.004123
v 0.037614 -0.087250 0.035176
vn -0.554588 0.367661 0.746497
v 0.066784 -0.066920 0.002208
vn -0.628812 0.719128 0.295720
v 0.067966 -0.071796 0.009316
vn -0.269270 0.941962 0.200501
v 0.046545 -0.086761 0.012972
vn -0.649006 0.054805 0.758807
v 0.070598 -0.062039 0.003657
vn -0.588773 0.808202 0.012528
v 0.067803 -0.071775 0.025933
vn -0.840177 0.505309 0.196890
v 0.073653 -0.066657 0.015752
vn -0.823513 0.567211 0.009892
v 0.071242 -0.070210 0.038828
vn 0.079832 0.074347 0.994032
v 0.034321 -0.051671 -0.000896
vn 0.084343 0.032158 0.995918
v 0.019323 -0.030934 -0.000131
vn -0.109949 -0.106204 0.988247
v 0.040521 -0.030889 -0.000592
vn -0.137206 -0.103097 0.985163
v 0.028196 -0.007143 -0.000093
vn 0.450095 0.259201 0.854535
v 0.015619 -0.047196 0.002226
vn -0.321488 -0.207806 0.923830
v 0.051498 -0.033116 0.001124
vn -0.527750 -0.371482 0.763859
v 0.050647 -0.025831 0.003568
vn -0.824746 -0.522616 0.216025
v 0.055972 -0.028996 0.009067
vn -0.780286 -0.401530 0.479508
v 0.069113 -0.050853 0.005511
vn 0.775989 0.630722 0.005534
v 0.028893 -0.080707 0.040133
vn -0.382982 0.923667 0.012802
v 0.046286 -0.086148 0.037788
vn 0.054213 0.998394 0.016445
v 0.041290 -0.088204 0.072418
vn 0.598015 0.801353 0.014509
v 0.032268 -0.085466 0.062438
vn 0.842307 0.538975 0.005029
v 0.023760 -0.073605 0.066014
vn 0.770436 0.637355 -0.014383
v 0.029774 -0.082451 0.097085
vn -0.751267 0.659623 0.022255
v 0.072137 -0.069964 0.065052
vn -0.986671 -0.070369 0.146726
v 0.074332 -0.060583 0.011252
vn 0.854785 0.517959 0.032581
v 0.004624 -0.040176 0.031496
vn -0.861062 -0.507691 0.028692
v 0.057969 -0.025992 0.073531
vn -0.869033 -0.492923 0.042529
v 0.066944 -0.043562 0.044571
vn 0.394987 0.918639 -0.009389
v 0.036114 -0.087657 0.102359
vn 0.131211 0.990974 -0.027446
v 0.039861 -0.088774 0.126336
vn -0.305190 0.952233 0.010590
v 0.044723 -0.088075 0.087069
vn -0.780044 0.625423 0.019430
v 0.073637 -0.069694 0.104923
vn 0.735318 0.676661 -0.037904
v 0.030023 -0.082083 0.117280
vn -0.424792 0.905270 0.006221
v 0.047706 -0.086461 0.099670
vn -0.347037 0.893094 -0.286267
v 0.046851 -0.087522 0.138923
vn 0.857639 0.512110 -0.046884
v 0.016403 -0.059930 0.114956
vn -0.998537 -0.044775 0.030323
v 0.075701 -0.058188 0.064379
vn -0.966369 -0.256745 0.014618
v 0.076748 -0.057319 0.104590
vn -0.890125 -0.416285 -0.185431
v 0.075388 -0.053371 0.133739
vn 0.443958 0.807364 -0.388672
v 0.035261 -0.086113 0.143030
vn 0.750952 0.435557 -0.496347
v 0.022577 -0.067057 0.141123
vn 0.113811 0.393952 -0.912057
v 0.041223 -0.078530 0.150215
vn -0.387209 0.505386 -0.771138
v 0.067997 -0.068175 0.146053
vn -0.638257 0.737707 -0.220038
v 0.070808 -0.072511 0.135155
vn -0.919393 0.147794 -0.364519
v 0.076578 -0.063887 0.141286
vn 0.205460 0.139995 -0.968601
v 0.031191 -0.059739 0.148144
vn -0.002118 -0.040967 -0.999158
v 0.040664 -0.025803 0.149017
vn -0.784653 -0.461076 -0.414402
v 0.060015 -0.031443 0.139303
vn -0.413148 -0.042835 -0.909656
v 0.067373 -0.059200 0.150726
vn -0.784412 -0.499287 0.367981
v 0.029405 0.012593 0.008980
vn -0.848194 -0.526140 0.061185
v 0.015620 0.037609 0.028684
vn -0.849038 -0.525034 0.058931
v 0.044783 -0.006662 0.041934
vn -0.848479 -0.527496 0.042798
v 0.037143 0.007125 0.060130
vn -0.845431 -0.533755 0.018750
v 0.019081 0.038892 0.096420
vn -0.840148 -0.506638 -0.193571
v 0.018872 0.038148 0.135008
vn -0.549472 -0.346011 -0.760497
v 0.035251 0.005889 0.143437
vn -0.079506 -0.060126 -0.995019
v 0.011232 0.011162 0.149935
vn -0.843399 -0.519822 -0.135878
v 0.055736 -0.022349 0.134744
vn -0.477516 -0.281716 -0.832235
v 0.013330 0.035670 0.146031
# 127 vertices, 0 vertices normals

f 7//7 81//81 78//78
f 7//7 78//78 1//1
f 66//66 5//5 94//94
f 5//5 6//6 8//8
f 81//81 7//7 5//5
f 5//5 7//7 6//6
f 22//22 6//6 7//7
f 5//5 8//8 94//94
f 90//90 94//94 10//10
f 94//94 8//8 9//9
f 10//10 94//94 11//11
f 11//11 94//94 9//9
f 11//11 12//12 10//10
f 11//11 9//9 43//43
f 12//12 11//11 13//13
f 13//13 11//11 43//43
f 104//104 12//12 44//44
f 13//13 44//44 12//12
f 14//14 104//104 44//44
f 57//57 44//44 58//58
f 14//14 44//44 57//57
f 14//14 57//57 3//3
f 3//3 57//57 15//15
f 16//16 17//17 19//19
f 17//17 24//24 26//26
f 18//18 17//17 26//26
f 18//18 19//19 17//17
f 34//34 19//19 18//18
f 20//20 7//7 1//1
f 20//20 1//1 21//21
f 20//20 23//23 22//22
f 23//23 20//20 21//21
f 24//24 23//23 28//28
f 23//23 21//21 28//28
f 21//21 25//25 28//28
f 16//16 8//8 6//6
f 8//8 16//16 9//9
f 22//22 7//7 20//20
f 17//17 6//6 22//22
f 24//24 17//17 22//22
f 24//24 22//22 23//23
f 6//6 17//17 16//16
f 18//18 26//26 27//27
f 34//34 18//18 27//27
f 29//29 26//26 24//24
f 28//28 29//29 24//24
f 30//30 27//27 26//26
f 26//26 29//29 30//30
f 30//30 29//29 33//33
f 28//28 25//25 32//32
f 32//32 25//25 31//31
f 29//29 28//28 32//32
f 32//32 31//31 119//119
f 33//33 29//29 32//32
f 33//33 32//32 36//36
f 9//9 19//19 40//40
f 40//40 19//19 34//34
f 40//40 34//34 41//41
f 9//9 16//16 19//19
f 9//9 40//40 43//43
f 34//34 27//27 38//38
f 38//38 41//41 34//34
f 41//41 38//38 35//35
f 27//27 30//30 46//46
f 27//27 46//46 38//38
f 36//36 32//32 119//119
f 36//36 37//37 33//33
f 37//37 36//36 39//39
f 30//30 33//33 37//37
f 39//39 36//36 122//122
f 46//46 30//30 37//37
f 46//46 37//37 49//49
f 39//39 49//49 37//37
f 49//49 39//39 53//53
f 43//43 40//40 42//42
f 42//42 40//40 41//41
f 42//42 41//41 45//45
f 42//42 45//45 56//56
f 13//13 43//43 42//42
f 13//13 42//42 58//58
f 44//44 13//13 58//58
f 58//58 42//42 56//56
f 41//41 35//35 45//45
f 45//45 35//35 50//50
f 55//55 56//56 45//45
f 55//55 45//45 50//50
f 38//38 46//46 35//35
f 35//35 46//46 49//49
f 122//122 47//47 39//39
f 48//48 39//39 47//47
f 53//53 39//39 48//48
f 50//50 35//35 51//51
f 51//51 35//35 49//49
f 62//62 50//50 51//51
f 52//52 47//47 123//123
f 48//48 47//47 52//52
f 53//53 51//51 49//49
f 48//48 54//54 53//53
f 54//54 48//48 52//52
f 51//51 53//53 54//54
f 57//57 58//58 15//15
f 58//58 60//60 15//15
f 15//15 60//60 61//61
f 125//125 3//3 15//15
f 15//15 61//61 125//125
f 59//59 58//58 56//56
f 59//59 60//60 58//58
f 63//63 60//60 59//59
f 61//61 127//127 125//125
f 61//61 60//60 63//63
f 127//127 61//61 63//63
f 62//62 55//55 50//50
f 55//55 59//59 56//56
f 59//59 55//55 62//62
f 63//63 59//59 54//54
f 62//62 54//54 59//59
f 127//127 52//52 123//123
f 52//52 127//127 63//63
f 54//54 52//52 63//63
f 54//54 62//62 51//51
f 67//67 64//64 77//77
f 77//77 64//64 65//65
f 64//64 70//70 65//65
f 72//72 67//67 68//68
f 69//69 72//72 68//68
f 87//87 72//72 69//69
f 81//81 66//66 67//67
f 68//68 67//67 66//66
f 69//69 68//68 86//86
f 86//86 68//68 66//66
f 86//86 66//66 94//94
f 67//67 72//72 64//64
f 70//70 64//64 71//71
f 71//71 64//64 72//72
f 74//74 71//71 72//72
f 75//75 73//73 70//70
f 75//75 70//70 71//71
f 93//93 73//73 75//75
f 74//74 75//75 71//71
f 93//93 75//75 76//76
f 67//67 77//77 81//81
f 81//81 77//77 78//78
f 79//79 78//78 77//77
f 73//73 65//65 70//70
f 79//79 65//65 82//82
f 65//65 73//73 82//82
f 79//79 77//77 65//65
f 79//79 80//80 78//78
f 80//80 1//1 78//78
f 82//82 83//83 79//79
f 66//66 81//81 5//5
f 73//73 85//85 82//82
f 85//85 83//83 82//82
f 83//83 80//80 79//79
f 120//120 84//84 96//96
f 93//93 85//85 73//73
f 84//84 83//83 85//85
f 93//93 96//96 85//85
f 84//84 85//85 96//96
f 90//90 86//86 94//94
f 69//69 86//86 89//89
f 87//87 74//74 72//72
f 76//76 74//74 87//87
f 76//76 87//87 92//92
f 89//89 88//88 69//69
f 87//87 69//69 88//88
f 99//99 87//87 88//88
f 99//99 92//92 87//87
f 90//90 89//89 86//86
f 90//90 91//91 89//89
f 100//100 92//92 99//99
f 100//100 99//99 102//102
f 76//76 75//75 74//74
f 76//76 105//105 93//93
f 105//105 76//76 92//92
f 105//105 92//92 100//100
f 120//120 96//96 95//95
f 12//12 90//90 10//10
f 95//95 121//121 120//120
f 105//105 96//96 93//93
f 105//105 95//95 96//96
f 88//88 89//89 97//97
f 99//99 88//88 97//97
f 104//104 91//91 90//90
f 104//104 90//90 12//12
f 89//89 91//91 97//97
f 97//97 91//91 101//101
f 99//99 97//97 98//98
f 102//102 99//99 98//98
f 103//103 102//102 98//98
f 98//98 97//97 101//101
f 98//98 101//101 108//108
f 101//101 91//91 104//104
f 101//101 104//104 109//109
f 103//103 100//100 102//102
f 112//112 100//100 103//103
f 106//106 105//105 100//100
f 106//106 95//95 105//105
f 4//4 95//95 106//106
f 4//4 106//106 126//126
f 107//107 126//126 106//106
f 103//103 98//98 108//108
f 108//108 101//101 109//109
f 110//110 108//108 109//109
f 114//114 110//110 109//109
f 111//111 112//112 103//103
f 110//110 103//103 108//108
f 111//111 103//103 110//110
f 114//114 111//111 110//110
f 111//111 114//114 117//117
f 113//113 100//100 112//112
f 113//113 106//106 100//100
f 112//112 111//111 113//113
f 111//111 117//117 113//113
f 14//14 109//109 104//104
f 109//109 14//14 114//114
f 115//115 114//114 14//14
f 117//117 114//114 115//115
f 14//14 3//3 115//115
f 3//3 124//124 115//115
f 115//115 124//124 117//117
f 124//124 116//116 117//117
f 107//107 106//106 113//113
f 116//116 126//126 107//107
f 116//116 107//107 113//113
f 113//113 117//117 116//116
f 1//1 80//80 2//2
f 2//2 21//21 1//1
f 2//2 25//25 21//21
f 83//83 2//2 80//80
f 83//83 118//118 2//2
f 118//118 83//83 84//84
f 84//84 120//120 118//118
f 118//118 25//25 2//2
f 31//31 25//25 118//118
f 31//31 118//118 119//119
f 119//119 118//118 120//120
f 119//119 120//120 121//121
f 95//95 4//4 121//121
f 36//36 119//119 121//121
f 122//122 36//36 121//121
f 122//122 121//121 4//4
f 123//123 4//4 126//126
f 47//47 122//122 123//123
f 123//123 122//122 4//4
f 124//124 123//123 126//126
f 127//127 124//124 125//125
f 124//124 3//3 125//125
f 116//116 124//124 126//126
f 127//127 123//123 124//124
# 250 faces, 0 coords texture

# End of File
