####
#
# OBJ File Generated by Meshlab
#
####
# Object nutrigrain_fruit_crunch_strawberry_parfait_250_collision.obj
#
# Vertices: 127
# Faces: 250
#
####
vn -0.342450 0.905285 -0.251370
v -0.015788 0.074364 0.005871
vn -0.908022 -0.399406 -0.126375
v -0.046967 0.037182 0.006464
vn 0.840577 0.136816 -0.524130
v 0.080235 -0.063416 0.007828
vn -0.832993 0.549590 -0.063824
v -0.047003 0.052837 0.011742
vn -0.861461 -0.500298 0.087102
v -0.041150 0.039139 0.138943
vn 0.865558 0.498611 -0.046869
v 0.072407 -0.045010 0.009112
vn -0.543099 0.495494 -0.677886
v -0.045010 0.052976 0.005871
vn -0.849834 -0.506199 -0.146783
v -0.025440 0.000000 0.008522
vn -0.992844 0.084865 0.084019
v -0.044045 0.047089 0.136507
vn 0.068138 0.995751 0.061941
v -0.005871 0.073922 0.133072
vn -0.575738 0.817202 0.026579
v -0.038723 0.056751 0.136986
vn 0.756476 0.295188 -0.583617
v 0.076321 -0.052973 0.005871
vn 0.978086 -0.198822 0.061783
v 0.077759 -0.062622 0.133072
vn 0.545125 -0.830440 -0.114930
v 0.066536 -0.078278 0.008730
vn -0.647547 -0.316032 0.693402
v -0.039139 0.041096 0.145281
vn -0.571456 -0.559466 -0.600363
v 0.029354 -0.091155 0.009785
vn -0.928929 -0.365606 0.058514
v -0.043398 0.043053 0.135029
vn -0.167785 0.980519 0.102127
v -0.011525 0.073417 0.137398
vn -0.587747 0.807599 -0.048345
v -0.041369 0.057302 0.011793
vn -0.883360 0.460306 0.088277
v -0.043117 0.052876 0.132938
vn 0.755591 0.523053 0.394332
v 0.005900 0.060712 0.142857
vn 0.179679 0.148379 -0.972471
v 0.000630 0.068493 0.005871
vn -0.626430 -0.243816 -0.740364
v -0.046967 0.037872 0.005871
vn -0.591952 -0.502829 0.629886
v 0.035116 -0.080477 0.146484
vn -0.425049 -0.251259 0.869599
v -0.035225 0.039139 0.147250
vn -0.434665 -0.869878 -0.233192
v 0.029354 -0.091976 0.010809
vn -0.878426 -0.428432 0.211695
v -0.042227 0.041096 0.138943
vn -0.983396 -0.144960 -0.109172
v -0.048923 0.045010 0.006999
vn -0.090337 0.995666 0.022085
v -0.009785 0.073905 0.129158
vn -0.628557 0.777459 -0.021779
v -0.044745 0.054794 0.013699
vn -0.957014 0.247829 0.150681
v -0.043556 0.050880 0.135029
vn -0.963909 0.265665 0.017356
v -0.048571 0.048923 0.011742
vn 0.548565 0.324358 -0.770629
v 0.075183 -0.050880 0.005871
vn 0.562618 -0.696671 -0.445097
v 0.076321 -0.070450 0.006407
vn 0.638284 -0.377407 -0.670938
v 0.078293 -0.068483 0.006448
vn 0.997972 0.018440 0.060923
v 0.077862 -0.058660 0.134402
vn 0.305763 -0.861835 -0.404659
v 0.045010 -0.090019 0.006045
vn -0.031436 -0.957368 -0.287157
v 0.032107 -0.091976 0.009785
vn 0.851917 0.521599 0.046611
v 0.037459 0.010828 0.136251
vn 0.622588 0.394027 0.676112
v 0.001957 0.062622 0.146616
vn -0.679080 0.730013 -0.077016
v -0.046967 0.052875 0.011742
vn -0.378534 -0.289096 -0.879281
v 0.026473 -0.080317 0.005871
vn -0.770614 -0.474984 0.424904
v 0.031311 -0.078278 0.143012
vn -0.392403 -0.091305 0.915250
v -0.037566 0.046183 0.147962
vn 0.215665 0.098937 0.971442
v 0.054794 -0.030088 0.146814
vn -0.127253 -0.987685 0.091024
v 0.041096 -0.087624 0.135029
vn -0.813371 -0.576486 0.078043
v 0.031581 -0.080235 0.136986
vn -0.887939 -0.239930 0.392425
v -0.041096 0.041096 0.142789
vn -0.859212 0.163588 -0.484762
v -0.048952 0.047554 0.005871
vn -0.633712 0.773170 0.024863
v -0.039139 0.056426 0.136986
vn -0.670010 0.712685 0.207766
v -0.040891 0.054795 0.140903
vn -0.928460 0.371086 0.016018
v -0.047814 0.050880 0.013699
vn 0.848829 0.528657 0.003254
v 0.017054 0.044651 0.112596
vn 0.459094 0.882442 0.102611
v -0.003914 0.073318 0.135029
vn 0.978158 0.207827 -0.003833
v 0.080254 -0.063326 0.009050
vn 0.594665 -0.774326 0.216314
v 0.072277 -0.070203 0.136412
vn 0.116758 -0.131959 -0.984355
v 0.071601 -0.072428 0.005871
vn 0.974418 -0.185646 -0.126666
v 0.080273 -0.065588 0.007666
vn -0.046442 -0.160917 -0.985875
v 0.036091 -0.090019 0.005871
vn 0.640583 0.377135 0.668897
v 0.051427 -0.017612 0.144814
vn -0.714886 0.698832 0.023896
v -0.043053 0.053011 0.131115
vn -0.837025 -0.509854 0.198589
v 0.022976 -0.065557 0.140900
vn -0.319710 -0.190038 0.928263
v 0.005871 -0.027397 0.147996
vn -0.510800 -0.795179 0.326762
v 0.036937 -0.085993 0.141035
vn 0.042947 -0.997092 0.062948
v 0.043053 -0.087929 0.135029
vn -0.523266 0.851006 0.044506
v -0.017000 0.070741 0.135189
vn 0.262124 0.774921 -0.575142
v -0.007836 0.074367 0.005871
vn 0.580589 0.813570 0.031936
v -0.002095 0.072407 0.131115
vn 0.747136 0.661281 0.067043
v 0.001781 0.068150 0.135254
vn 0.964498 0.064628 0.256059
v 0.077467 -0.056545 0.136840
vn 0.877898 -0.454785 0.149886
v 0.076317 -0.066545 0.135236
vn 0.021312 0.005584 0.999757
v 0.017575 -0.000983 0.149091
vn 0.524928 0.236636 0.817591
v 0.072399 -0.053992 0.144956
vn 0.927053 -0.044516 0.372277
v 0.076700 -0.062242 0.142997
vn 0.853758 0.520611 0.007852
v 0.041096 0.005715 0.099804
vn 0.814039 0.553952 0.174579
v 0.005105 0.062760 0.140887
vn 0.505316 0.293521 0.811481
v 0.033268 0.009785 0.146577
vn -0.527029 0.657647 -0.538276
v -0.040936 0.056790 0.005871
vn -0.844341 -0.460705 0.273570
v -0.041096 0.039139 0.139232
vn -0.482544 -0.310667 0.818924
v 0.035229 -0.078292 0.147564
vn -0.953984 -0.205422 0.218440
v -0.043811 0.045060 0.139060
vn 0.582578 -0.250162 0.773318
v 0.074577 -0.063423 0.145410
vn -0.232947 -0.959123 0.160681
v 0.039446 -0.086860 0.141562
vn 0.034338 -0.999323 0.013212
v 0.031719 -0.091976 0.011742
vn 0.326287 -0.915067 0.237043
v 0.045013 -0.087353 0.137856
vn -0.782107 -0.564835 0.263193
v 0.033445 -0.081987 0.142728
vn -0.853281 -0.462736 0.240387
v -0.040679 0.039139 0.140900
vn -0.844542 0.056943 0.532452
v -0.042969 0.047398 0.142868
vn 0.738674 0.612560 -0.281302
v -0.000000 0.070450 0.006262
vn 0.909476 0.365422 0.198292
v 0.076790 -0.054723 0.138845
vn 0.944145 -0.328147 0.030180
v 0.077406 -0.064579 0.125244
vn 0.066427 -0.302809 0.950734
v 0.041774 -0.081945 0.148045
vn 0.696946 0.453010 0.555921
v 0.008116 0.055538 0.144663
vn 0.768813 0.277565 0.576094
v 0.074032 -0.052777 0.142756
vn 0.805967 0.480774 0.345361
v 0.071407 -0.046967 0.140900
vn 0.829658 0.556786 0.040708
v 0.004393 0.064574 0.133229
vn -0.254446 -0.305716 0.917494
v 0.038225 -0.081050 0.148042
vn -0.860219 -0.141293 0.489958
v -0.041062 0.041096 0.142857
vn -0.838262 -0.530736 0.125045
v 0.029228 -0.076502 0.138946
vn -0.025908 -0.028007 0.999272
v 0.037518 -0.077102 0.148163
vn 0.205821 -0.238342 0.949121
v 0.053318 -0.076499 0.147771
vn -0.575682 0.784732 0.229751
v -0.039312 0.056166 0.139975
vn -0.433758 0.881799 0.185159
v -0.013669 0.072482 0.139029
vn -0.013813 -0.008929 0.999865
v 0.010082 -0.004376 0.149062
vn -0.561063 -0.826149 0.051839
v 0.029314 -0.091976 0.013699
vn 0.454330 -0.854750 0.250970
v 0.048430 -0.085775 0.138553
vn 0.348583 0.313624 0.883249
v -0.002660 0.067523 0.147641
vn 0.408771 -0.743455 0.529321
v 0.048997 -0.083882 0.144525
vn -0.115981 -0.878032 0.464337
v 0.041718 -0.086403 0.144770
vn 0.703361 0.626033 0.336699
v 0.000342 0.068515 0.143918
vn 0.896958 0.442053 0.007390
v 0.076146 -0.053203 0.133113
vn 0.607030 0.352691 0.712126
v 0.057039 -0.027885 0.145126
vn -0.645802 -0.388267 0.657410
v 0.022505 -0.060665 0.145814
vn -0.791069 -0.082766 0.606102
v -0.040355 0.041128 0.143835
vn 0.000000 0.000000 0.000000
v -0.039139 0.039139 0.143911
vn -0.153613 -0.092627 0.983780
v 0.007339 -0.027397 0.148366
vn -0.065893 -0.037677 0.997115
v -0.001588 -0.007170 0.148727
vn 0.025552 0.847482 0.530208
v -0.006847 0.071881 0.146389
vn 0.135789 0.084764 0.987105
v 0.008320 0.046026 0.148182
vn 0.678890 -0.721038 0.138608
v 0.074320 -0.068441 0.139313
vn 0.864186 0.499717 0.058878
v 0.074868 -0.050867 0.136643
vn 0.139020 0.065507 0.988121
v 0.031191 0.002262 0.148361
vn 0.328179 0.183441 0.926633
v 0.027275 0.017612 0.147208
vn -0.711342 -0.432837 0.553755
v 0.025620 -0.067306 0.144924
vn -0.609517 0.491922 0.621693
v -0.040336 0.053779 0.145934
vn -0.092205 0.107170 0.989956
v -0.033011 0.053439 0.148424
vn 0.672284 -0.542344 0.503882
v 0.073031 -0.068124 0.142843
# 127 vertices, 0 vertices normals

f 8//8 5//5 2//2
f 49//49 4//4 7//7
f 105//105 5//5 8//8
f 105//105 99//99 5//5
f 16//16 8//8 2//2
f 111//111 12//12 6//6
f 23//23 16//16 2//2
f 26//26 105//105 8//8
f 26//26 8//8 16//16
f 27//27 17//17 2//2
f 27//27 2//2 5//5
f 28//28 23//23 2//2
f 28//28 49//49 23//23
f 1//1 11//11 66//66
f 1//1 19//19 11//11
f 1//1 103//103 18//18
f 1//1 29//29 10//10
f 32//32 4//4 49//49
f 32//32 31//31 20//20
f 32//32 49//49 9//9
f 33//33 89//89 6//6
f 33//33 6//6 12//12
f 33//33 22//22 89//89
f 53//53 6//6 89//89
f 67//67 89//89 22//22
f 34//34 14//14 37//37
f 35//35 12//12 3//3
f 35//35 34//34 57//57
f 35//35 57//57 12//12
f 106//106 37//37 14//14
f 38//38 26//26 16//16
f 41//41 78//78 7//7
f 41//41 7//7 4//4
f 41//41 51//51 30//30
f 19//19 30//30 11//11
f 42//42 16//16 23//23
f 81//81 28//28 2//2
f 81//81 9//9 28//28
f 49//49 28//28 9//9
f 78//78 19//19 1//1
f 18//18 29//29 1//1
f 18//18 10//10 29//29
f 50//50 11//11 30//30
f 50//50 30//30 51//51
f 52//52 32//32 20//20
f 52//52 20//20 4//4
f 52//52 4//4 32//32
f 9//9 31//31 32//32
f 53//53 89//89 96//96
f 67//67 1//1 10//10
f 54//54 67//67 10//10
f 69//69 96//96 89//89
f 55//55 3//3 12//12
f 55//55 12//12 90//90
f 111//111 90//90 12//12
f 56//56 14//14 34//34
f 120//120 34//34 35//35
f 57//57 34//34 37//37
f 58//58 35//35 3//3
f 58//58 71//71 35//35
f 70//70 74//74 36//36
f 59//59 57//57 37//37
f 59//59 37//37 38//38
f 59//59 38//38 16//16
f 59//59 16//16 42//42
f 59//59 42//42 23//23
f 59//59 23//23 49//49
f 59//59 49//49 7//7
f 59//59 7//7 78//78
f 59//59 78//78 1//1
f 59//59 1//1 67//67
f 59//59 67//67 22//22
f 59//59 22//22 33//33
f 59//59 33//33 12//12
f 59//59 12//12 57//57
f 76//76 21//21 90//90
f 61//61 41//41 4//4
f 61//61 4//4 20//20
f 61//61 51//51 41//41
f 78//78 30//30 19//19
f 63//63 44//44 25//25
f 63//63 25//25 80//80
f 81//81 2//2 17//17
f 65//65 46//46 105//105
f 65//65 38//38 37//37
f 99//99 105//105 47//47
f 86//86 47//47 105//105
f 86//86 105//105 64//64
f 102//102 11//11 50//50
f 102//102 50//50 51//51
f 66//66 11//11 102//102
f 103//103 1//1 66//66
f 118//118 10//10 18//18
f 88//88 20//20 31//31
f 81//81 31//31 9//9
f 68//68 89//89 67//67
f 68//68 67//67 54//54
f 96//96 69//69 110//110
f 70//70 55//55 90//90
f 70//70 36//36 55//55
f 120//120 35//35 71//71
f 120//120 56//56 34//34
f 74//74 13//13 36//36
f 74//74 71//71 13//13
f 58//58 36//36 13//13
f 55//55 36//36 58//58
f 55//55 58//58 3//3
f 100//100 97//97 92//92
f 101//101 72//72 92//92
f 93//93 40//40 60//60
f 121//121 39//39 76//76
f 121//121 76//76 90//90
f 75//75 6//6 53//53
f 75//75 53//53 39//39
f 76//76 96//96 110//110
f 110//110 118//118 107//107
f 110//110 107//107 40//40
f 77//77 40//40 107//107
f 77//77 60//60 40//40
f 20//20 88//88 51//51
f 78//78 41//41 30//30
f 80//80 24//24 97//97
f 79//79 5//5 99//99
f 79//79 81//81 27//27
f 79//79 27//27 5//5
f 44//44 126//126 125//125
f 80//80 44//44 15//15
f 80//80 15//15 24//24
f 97//97 63//63 80//80
f 81//81 17//17 27//27
f 82//82 73//73 45//45
f 118//118 54//54 10//10
f 104//104 72//72 126//126
f 83//83 64//64 105//105
f 83//83 105//105 46//46
f 84//84 65//65 105//105
f 84//84 38//38 65//65
f 84//84 105//105 26//26
f 84//84 26//26 38//38
f 85//85 65//65 37//37
f 87//87 48//48 81//81
f 87//87 79//79 62//62
f 87//87 81//81 79//79
f 88//88 15//15 44//44
f 102//102 103//103 66//66
f 102//102 125//125 103//103
f 88//88 31//31 81//81
f 69//69 68//68 54//54
f 89//89 68//68 69//69
f 39//39 96//96 76//76
f 91//91 58//58 13//13
f 91//91 13//13 71//71
f 91//91 71//71 58//58
f 106//106 14//14 56//56
f 71//71 74//74 82//82
f 100//100 92//92 72//72
f 101//101 45//45 122//122
f 101//101 82//82 45//45
f 94//94 93//93 60//60
f 110//110 93//93 76//76
f 95//95 93//93 94//94
f 95//95 21//21 93//93
f 121//121 111//111 6//6
f 112//112 94//94 60//60
f 112//112 73//73 94//94
f 112//112 60//60 77//77
f 96//96 39//39 53//53
f 21//21 76//76 93//93
f 20//20 51//51 61//61
f 24//24 109//109 97//97
f 64//64 109//109 24//24
f 113//113 24//24 15//15
f 124//124 113//113 15//15
f 98//98 48//48 43//43
f 98//98 43//43 124//124
f 99//99 62//62 79//79
f 86//86 62//62 99//99
f 86//86 87//87 62//62
f 86//86 43//43 48//48
f 86//86 48//48 87//87
f 44//44 80//80 25//25
f 126//126 44//44 117//117
f 116//116 44//44 63//63
f 116//116 63//63 97//97
f 100//100 116//116 97//97
f 73//73 82//82 74//74
f 104//104 100//100 72//72
f 117//117 44//44 116//116
f 109//109 83//83 46//46
f 109//109 46//46 65//65
f 106//106 85//85 37//37
f 86//86 99//99 47//47
f 125//125 88//88 44//44
f 88//88 102//102 51//51
f 88//88 125//125 102//102
f 110//110 69//69 54//54
f 110//110 54//54 118//118
f 90//90 21//21 95//95
f 71//71 82//82 127//127
f 70//70 94//94 74//74
f 90//90 94//94 70//70
f 92//92 108//108 101//101
f 127//127 101//101 108//108
f 109//109 108//108 92//92
f 110//110 40//40 93//93
f 121//121 6//6 75//75
f 121//121 75//75 39//39
f 123//123 77//77 107//107
f 123//123 73//73 77//77
f 112//112 77//77 73//73
f 24//24 124//124 43//43
f 24//24 43//43 86//86
f 113//113 124//124 24//24
f 114//114 124//124 15//15
f 114//114 15//15 88//88
f 114//114 98//98 124//124
f 115//115 98//98 124//124
f 115//115 124//124 98//98
f 117//117 116//116 100//100
f 73//73 123//123 45//45
f 101//101 127//127 82//82
f 126//126 107//107 118//118
f 126//126 118//118 125//125
f 118//118 103//103 125//125
f 88//88 81//81 48//48
f 120//120 71//71 127//127
f 122//122 72//72 101//101
f 119//119 107//107 126//126
f 126//126 72//72 119//119
f 109//109 92//92 97//97
f 121//121 90//90 111//111
f 94//94 90//90 95//95
f 94//94 73//73 74//74
f 122//122 45//45 123//123
f 123//123 107//107 119//119
f 64//64 24//24 86//86
f 114//114 88//88 48//48
f 114//114 48//48 98//98
f 104//104 117//117 100//100
f 18//18 103//103 118//118
f 104//104 126//126 117//117
f 109//109 65//65 85//85
f 72//72 122//122 119//119
f 119//119 122//122 123//123
f 64//64 83//83 109//109
f 108//108 120//120 127//127
f 120//120 85//85 56//56
f 120//120 108//108 85//85
f 85//85 106//106 56//56
f 109//109 85//85 108//108
# 250 faces, 0 coords texture

# End of File
