####
#
# OBJ File Generated by Meshlab
#
####
# Object honey_bunches_of_oats_with_almonds_250_collision.obj
#
# Vertices: 127
# Faces: 250
#
####
vn -0.816439 -0.343678 -0.464018
v -0.074383 0.025475 0.006316
vn 0.684615 -0.226460 -0.692834
v 0.113503 -0.037182 0.006277
vn 0.332929 0.883294 -0.330077
v -0.035225 0.069834 0.005871
vn -0.438831 -0.839894 -0.319382
v 0.068257 -0.068493 0.005871
vn -0.203690 -0.244831 -0.947928
v -0.066536 0.017273 0.005871
vn -0.681276 0.711085 -0.173842
v -0.054794 0.069077 0.007827
vn 0.321169 0.169519 0.931726
v 0.108853 -0.026355 0.274484
vn -0.025933 0.999658 0.003436
v -0.042916 0.072505 0.212781
vn 0.491411 0.870002 -0.040146
v -0.003914 0.056751 0.017116
vn 0.073116 -0.026346 -0.996975
v 0.109589 -0.040421 0.005871
vn 0.414136 -0.900890 -0.129953
v 0.088062 -0.074364 0.008260
vn 0.834283 -0.550237 0.034812
v 0.095890 -0.060600 0.260273
vn 0.727324 0.684584 -0.048420
v 0.113503 -0.021218 0.007828
vn -0.661004 -0.745748 -0.083266
v -0.070450 0.019569 0.006588
vn -0.509238 -0.846887 0.153167
v 0.076237 -0.064120 0.264734
vn -0.013374 0.994838 -0.100587
v -0.045010 0.072521 0.011742
vn 0.471662 0.825086 -0.311075
v -0.005871 0.056751 0.012189
vn 0.344372 0.518206 0.782861
v 0.103718 -0.019569 0.272750
vn 0.159744 0.049167 -0.985933
v 0.109617 -0.019569 0.005871
vn 0.455172 -0.464816 -0.759450
v 0.093952 -0.068469 0.005871
vn 0.700686 -0.710243 -0.067784
v 0.091976 -0.070806 0.007828
vn -0.162563 -0.782701 -0.600793
v 0.080264 -0.072417 0.006367
vn 0.581528 0.768131 -0.267955
v 0.109589 -0.017612 0.006394
vn 0.670003 0.741519 0.035295
v 0.111087 -0.021526 0.262230
vn 0.992884 0.019090 -0.117544
v 0.115753 -0.027397 0.007828
vn -0.263301 0.964711 0.002161
v -0.046279 0.071983 0.210094
vn 0.401901 0.915657 0.006941
v -0.037182 0.070860 0.219177
vn 0.233204 0.972428 -0.000501
v -0.041096 0.072342 0.189823
vn -0.084945 0.510835 -0.855472
v -0.044903 0.070640 0.005871
vn 0.508756 0.860507 0.026362
v -0.005771 0.052644 0.232756
vn 0.875380 -0.482990 0.020730
v 0.111590 -0.035302 0.260273
vn 0.469649 0.808392 0.354868
v -0.033268 0.066577 0.270058
vn 0.830876 -0.536026 -0.149402
v 0.099804 -0.060665 0.006412
vn 0.797455 0.348770 -0.492367
v 0.115459 -0.023483 0.007091
vn 0.556006 0.831137 0.008257
v 0.072392 0.006148 0.178065
vn 0.546028 0.837693 0.011105
v 0.066536 0.010057 0.176125
vn 0.956490 0.291430 0.013964
v 0.113607 -0.025371 0.265914
vn -0.191673 0.121527 -0.973906
v -0.061331 0.055216 0.005871
vn 0.133159 -0.989113 0.062641
v 0.088062 -0.068346 0.262230
vn -0.477678 -0.860665 0.176293
v 0.080271 -0.066530 0.264215
vn -0.709903 0.693038 0.125447
v -0.048384 0.070416 0.265018
vn -0.830270 0.555280 0.048112
v -0.050805 0.067361 0.262439
vn 0.416756 0.908321 -0.035589
v -0.005871 0.057725 0.017612
vn 0.236254 0.971286 -0.028066
v -0.044507 0.072407 0.011742
vn 0.516254 0.856101 0.023933
v 0.025810 0.034810 0.198737
vn 0.527174 0.849005 0.035755
v 0.063261 0.010901 0.234617
vn 0.990347 -0.135162 0.030714
v 0.113610 -0.029354 0.260273
vn 0.448901 0.646143 0.617242
v 0.105106 -0.019569 0.272015
vn 0.446033 0.732893 0.513734
v -0.029354 0.063062 0.272015
vn 0.501064 0.755410 0.422245
v 0.103718 -0.017309 0.270058
vn 0.853486 -0.518882 0.048208
v 0.109590 -0.038557 0.262262
vn 0.731547 -0.681045 0.031887
v 0.091591 -0.066040 0.276855
vn 0.113680 0.112900 -0.987082
v 0.108547 -0.017612 0.005871
vn 0.944337 -0.069077 -0.321646
v 0.115697 -0.029354 0.007828
vn -0.860348 0.509347 0.019181
v -0.066337 0.042764 0.249022
vn -0.938453 0.274715 -0.209377
v -0.074364 0.033268 0.006442
vn -0.832605 -0.553486 0.020562
v -0.072407 0.022641 0.011742
vn -0.536001 -0.844178 0.008174
v -0.007990 -0.019569 0.076321
vn -0.012820 -0.930530 -0.365992
v 0.087147 -0.074364 0.007828
vn -0.721615 -0.689259 0.064754
v -0.066617 0.025340 0.262351
vn -0.304906 -0.951964 0.028210
v 0.082546 -0.068436 0.232216
vn 0.460820 0.876346 0.140223
v -0.035834 0.069198 0.266614
vn 0.247435 0.967474 0.052628
v -0.041232 0.072103 0.259299
vn 0.569406 0.820969 0.042277
v 0.105902 -0.017366 0.264548
vn 0.529594 0.848065 0.017764
v 0.052716 0.018728 0.186658
vn 0.037090 0.071944 0.996719
v 0.019103 0.025114 0.275281
vn 0.007812 0.011177 0.999907
v 0.023970 0.001668 0.276330
vn 0.803796 -0.521282 0.286666
v 0.094310 -0.061953 0.270373
vn 0.999511 -0.024946 0.018862
v 0.113757 -0.027397 0.260273
vn 0.574034 0.800469 0.172439
v 0.106011 -0.017748 0.267069
vn 0.920148 -0.390572 0.027957
v 0.112458 -0.033212 0.266121
vn 0.446670 0.726547 0.522126
v 0.103718 -0.017612 0.270480
vn 0.762429 0.645973 0.037699
v 0.111516 -0.022044 0.264131
vn 0.838399 0.544520 0.024196
v 0.112593 -0.023483 0.262230
vn 0.966033 -0.223536 -0.129658
v 0.115459 -0.031311 0.007798
vn -0.995373 0.094385 0.018029
v -0.071010 0.033268 0.203522
vn -0.881840 0.471382 0.012567
v -0.068493 0.040373 0.201565
vn -0.851431 0.524089 0.019906
v -0.060665 0.052747 0.232876
vn -0.913041 -0.404744 0.050392
v -0.069580 0.029354 0.259295
vn -0.543360 -0.839253 0.020339
v -0.009785 -0.018015 0.115459
vn -0.265752 -0.963809 0.021175
v 0.082214 -0.069480 0.184376
vn -0.828483 -0.558332 0.043360
v -0.068461 0.027485 0.261828
vn -0.261998 0.963490 0.055166
v -0.045973 0.071886 0.265136
vn -0.837660 0.524801 0.151359
v -0.057689 0.056083 0.265528
vn 0.516543 0.855420 0.037934
v 0.023574 0.034957 0.235554
vn 0.003930 -0.361273 0.932452
v 0.088322 -0.064803 0.274597
vn 0.454823 -0.256026 0.852987
v 0.098283 -0.047975 0.274769
vn 0.521257 0.849609 0.080345
v 0.066540 0.006981 0.263208
vn 0.901040 0.319571 0.293260
v 0.113490 -0.024975 0.270386
vn 0.397921 -0.913434 0.085425
v 0.090019 -0.067556 0.264188
vn 0.973689 -0.225272 0.034378
v 0.113113 -0.031311 0.262230
vn -0.909897 0.411362 0.053564
v -0.068682 0.038073 0.264585
vn -0.533701 -0.844862 0.037036
v -0.005196 -0.018486 0.187669
vn -0.553484 -0.832535 0.023235
v -0.023997 -0.008426 0.122606
vn -0.516770 -0.855445 0.034090
v 0.021663 -0.035355 0.178766
vn -0.245815 -0.921970 0.299243
v 0.084016 -0.067462 0.271078
vn -0.518599 -0.783493 0.342335
v -0.073869 0.030510 0.269530
vn 0.519775 0.852605 0.053838
v 0.044830 0.021420 0.246679
vn -0.298377 0.818990 0.490128
v -0.045335 0.070791 0.272790
vn -0.224474 -0.059684 0.972651
v -0.065605 0.031630 0.274872
vn -0.210795 -0.344460 0.914829
v 0.043463 -0.037561 0.275211
vn 0.818073 -0.574519 0.026150
v 0.093933 -0.063417 0.260273
vn 0.118572 0.183611 0.975822
v 0.079539 -0.009748 0.275045
vn 0.861348 -0.347090 0.370955
v 0.112592 -0.032495 0.269801
vn 0.426612 -0.782955 0.452751
v 0.089348 -0.067000 0.272621
vn -0.997360 -0.040020 0.060587
v -0.070009 0.031377 0.265209
vn -0.529825 -0.847863 0.020355
v -0.001959 -0.022959 0.117429
vn -0.527663 -0.847964 0.050284
v 0.022898 -0.033586 0.230927
vn -0.593472 -0.744958 0.304678
v -0.063880 0.023753 0.268028
vn -0.777009 -0.628957 0.025888
v -0.068466 0.026565 0.239725
vn -0.549986 -0.834464 0.034416
v -0.042011 0.005871 0.199658
vn -0.598292 -0.795909 0.092606
v -0.063622 0.023137 0.266163
vn -0.029966 -0.055966 0.997983
v 0.030503 -0.023973 0.275770
vn 0.469560 0.882683 0.019608
v -0.034373 0.069126 0.240569
vn 0.161171 0.265267 0.950609
v 0.011918 0.033387 0.274842
vn 0.071636 0.293885 0.953153
v -0.043510 0.068632 0.274098
vn -0.896948 0.295358 0.329012
v -0.068776 0.035257 0.270611
vn -0.977696 0.208945 0.021246
v -0.070848 0.035311 0.198017
vn 0.014326 -0.015173 0.999782
v 0.070131 -0.033237 0.275900
vn -0.117092 -0.992665 0.030104
v 0.086105 -0.068678 0.252500
vn -0.439622 -0.713166 0.546009
v 0.082740 -0.065613 0.272549
vn -0.455360 0.213594 0.864306
v -0.062401 0.039854 0.274998
vn 0.364301 0.694994 0.619894
v -0.039548 0.068460 0.272978
vn 0.264400 0.427574 0.864450
v 0.028715 0.025196 0.273775
vn -0.507442 -0.861042 0.033301
v 0.045501 -0.049125 0.189989
vn -0.813876 -0.399727 0.421692
v -0.068278 0.028968 0.272377
vn -0.002275 0.024807 0.999690
v -0.021887 0.031526 0.275725
# 127 vertices, 0 vertices normals

f 14//14 5//5 4//4
f 29//29 6//6 16//16
f 17//17 3//3 9//9
f 19//19 2//2 10//10
f 20//20 10//10 2//2
f 23//23 3//3 17//17
f 23//23 17//17 9//9
f 23//23 53//53 3//3
f 24//24 13//13 23//23
f 1//1 5//5 14//14
f 26//26 16//16 6//6
f 26//26 8//8 16//16
f 28//28 27//27 3//3
f 28//28 63//63 27//27
f 28//28 8//8 63//63
f 28//28 16//16 8//8
f 33//33 20//20 2//2
f 20//20 21//21 11//11
f 52//52 90//90 11//11
f 52//52 11//11 21//21
f 20//20 22//22 4//4
f 34//34 53//53 23//23
f 34//34 23//23 13//13
f 34//34 2//2 19//19
f 34//34 37//37 25//25
f 35//35 64//64 23//23
f 36//36 23//23 9//9
f 36//36 35//35 23//23
f 36//36 9//9 65//65
f 36//36 64//64 35//35
f 64//64 24//24 23//23
f 106//106 56//56 1//1
f 38//38 56//56 6//6
f 38//38 1//1 56//56
f 38//38 5//5 1//1
f 39//39 120//120 11//11
f 39//39 11//11 90//90
f 81//81 4//4 22//22
f 41//41 83//83 6//6
f 83//83 99//99 63//63
f 83//83 8//8 26//26
f 42//42 84//84 41//41
f 26//26 6//6 83//83
f 43//43 27//27 9//9
f 43//43 9//9 3//3
f 43//43 3//3 27//27
f 114//114 30//30 9//9
f 63//63 8//8 83//83
f 44//44 28//28 3//3
f 44//44 3//3 16//16
f 44//44 16//16 28//28
f 3//3 29//29 16//16
f 85//85 45//45 30//30
f 65//65 45//45 46//46
f 46//46 36//36 65//65
f 46//46 64//64 36//36
f 48//48 7//7 89//89
f 48//48 18//18 7//7
f 49//49 32//32 123//123
f 50//50 89//89 70//70
f 50//50 70//70 32//32
f 50//50 32//32 49//49
f 50//50 48//48 89//89
f 62//62 32//32 70//70
f 51//51 12//12 33//33
f 31//31 33//33 2//2
f 31//31 51//51 33//33
f 102//102 20//20 33//33
f 102//102 33//33 12//12
f 52//52 21//21 20//20
f 52//52 20//20 102//102
f 53//53 34//34 19//19
f 53//53 19//19 10//10
f 53//53 10//10 20//20
f 53//53 29//29 3//3
f 53//53 38//38 29//29
f 53//53 5//5 38//38
f 53//53 4//4 5//5
f 53//53 20//20 4//4
f 73//73 34//34 13//13
f 73//73 13//13 24//24
f 54//54 34//34 25//25
f 54//54 2//2 34//34
f 29//29 38//38 6//6
f 57//57 82//82 1//1
f 57//57 1//1 14//14
f 57//57 14//14 82//82
f 79//79 106//106 1//1
f 58//58 14//14 4//4
f 58//58 4//4 107//107
f 59//59 81//81 22//22
f 59//59 22//22 20//20
f 59//59 11//11 120//120
f 59//59 20//20 11//11
f 61//61 40//40 4//4
f 61//61 4//4 81//81
f 42//42 41//41 6//6
f 114//114 9//9 27//27
f 62//62 114//114 63//63
f 62//62 30//30 114//114
f 30//30 45//45 9//9
f 85//85 46//46 45//45
f 65//65 9//9 45//45
f 103//103 66//66 67//67
f 69//69 25//25 37//37
f 69//69 54//54 25//25
f 69//69 47//47 54//54
f 89//89 69//69 37//37
f 71//71 31//31 2//2
f 123//123 18//18 48//48
f 123//123 48//48 49//49
f 72//72 50//50 49//49
f 72//72 49//49 48//48
f 72//72 48//48 50//50
f 73//73 70//70 89//89
f 74//74 73//73 37//37
f 74//74 34//34 73//73
f 75//75 54//54 47//47
f 75//75 2//2 54//54
f 75//75 71//71 2//2
f 70//70 24//24 64//64
f 70//70 73//73 24//24
f 76//76 118//118 56//56
f 76//76 56//56 106//106
f 78//78 42//42 6//6
f 79//79 1//1 82//82
f 80//80 58//58 107//107
f 80//80 14//14 58//58
f 40//40 15//15 125//125
f 105//105 39//39 90//90
f 81//81 59//59 120//120
f 61//61 81//81 120//120
f 83//83 41//41 99//99
f 84//84 42//42 78//78
f 55//55 92//92 84//84
f 99//99 41//41 84//84
f 85//85 30//30 62//62
f 98//98 46//46 85//85
f 98//98 85//85 62//62
f 98//98 88//88 46//46
f 63//63 114//114 27//27
f 62//62 63//63 99//99
f 88//88 64//64 46//46
f 67//67 7//7 103//103
f 68//68 102//102 12//12
f 68//68 12//12 51//51
f 124//124 7//7 18//18
f 124//124 18//18 123//123
f 115//115 66//66 103//103
f 88//88 70//70 64//64
f 88//88 62//62 70//70
f 89//89 47//47 69//69
f 89//89 37//37 73//73
f 37//37 34//34 74//74
f 116//116 124//124 123//123
f 71//71 51//51 31//31
f 68//68 52//52 102//102
f 90//90 68//68 105//105
f 52//52 68//68 90//90
f 91//91 75//75 47//47
f 91//91 71//71 75//75
f 91//91 47//47 89//89
f 56//56 77//77 6//6
f 92//92 55//55 77//77
f 55//55 6//6 77//77
f 92//92 56//56 118//118
f 92//92 77//77 56//56
f 55//55 78//78 6//6
f 55//55 84//84 78//78
f 93//93 111//111 80//80
f 94//94 80//80 111//111
f 94//94 14//14 80//80
f 107//107 4//4 95//95
f 95//95 4//4 125//125
f 95//95 125//125 15//15
f 95//95 15//15 108//108
f 96//96 120//120 39//39
f 105//105 96//96 39//39
f 112//112 60//60 14//14
f 96//96 121//121 40//40
f 40//40 109//109 15//15
f 60//60 126//126 82//82
f 126//126 79//79 82//82
f 110//110 82//82 14//14
f 110//110 14//14 60//60
f 108//108 111//111 93//93
f 112//112 111//111 108//108
f 112//112 14//14 111//111
f 96//96 40//40 61//61
f 96//96 86//86 121//121
f 92//92 117//117 84//84
f 98//98 62//62 88//88
f 99//99 123//123 62//62
f 87//87 104//104 7//7
f 115//115 116//116 66//66
f 51//51 104//104 68//68
f 51//51 71//71 104//104
f 104//104 91//91 89//89
f 123//123 99//99 116//116
f 117//117 106//106 126//126
f 118//118 106//106 117//117
f 107//107 93//93 80//80
f 94//94 111//111 14//14
f 125//125 4//4 40//40
f 112//112 15//15 109//109
f 105//105 86//86 96//96
f 121//121 97//97 109//109
f 121//121 109//109 40//40
f 110//110 60//60 82//82
f 96//96 61//61 120//120
f 101//101 86//86 113//113
f 123//123 32//32 62//62
f 100//100 122//122 126//126
f 7//7 124//124 103//103
f 7//7 119//119 87//87
f 113//113 100//100 101//101
f 124//124 115//115 103//103
f 104//104 89//89 7//7
f 104//104 71//71 91//91
f 66//66 116//116 127//127
f 118//118 76//76 106//106
f 126//126 122//122 117//117
f 117//117 92//92 118//118
f 95//95 93//93 107//107
f 112//112 108//108 15//15
f 126//126 112//112 109//109
f 86//86 101//101 121//121
f 126//126 60//60 112//112
f 126//126 106//106 79//79
f 119//119 113//113 86//86
f 117//117 99//99 84//84
f 122//122 99//99 117//117
f 122//122 127//127 116//116
f 86//86 87//87 119//119
f 67//67 119//119 7//7
f 100//100 67//67 127//127
f 115//115 124//124 116//116
f 116//116 99//99 122//122
f 67//67 66//66 127//127
f 87//87 86//86 105//105
f 87//87 105//105 68//68
f 87//87 68//68 104//104
f 108//108 93//93 95//95
f 126//126 109//109 97//97
f 101//101 126//126 121//121
f 100//100 127//127 122//122
f 100//100 113//113 67//67
f 126//126 101//101 100//100
f 119//119 67//67 113//113
f 126//126 97//97 121//121
# 250 faces, 0 coords texture

# End of File
