####
#
# OBJ File Generated by Meshlab
#
####
# Object pop_secret_butter_250_collision.obj
#
# Vertices: 127
# Faces: 250
#
####
vn -0.011432 -0.085220 -0.996297
v -0.000621 -0.044438 0.000467
vn -0.533020 -0.846098 -0.002912
v -0.032053 -0.055436 0.063117
vn -0.008703 0.119055 -0.992850
v 0.006278 0.029281 0.000379
vn -0.009572 0.012840 -0.999872
v -0.000539 0.003455 -0.000641
vn 0.105191 0.489566 -0.865598
v 0.010768 0.040338 0.003117
vn 0.104717 -0.975004 0.195964
v 0.008537 -0.068294 0.152660
vn -0.589369 -0.713345 -0.379188
v -0.029334 -0.055896 0.010614
vn -0.582843 -0.163263 -0.796015
v -0.032054 -0.043466 0.004393
vn -0.155046 -0.146046 -0.977052
v -0.022518 -0.045230 0.001922
vn -0.305444 -0.519883 -0.797763
v -0.024343 -0.053627 0.004510
vn -0.247240 0.011812 -0.968882
v -0.020226 -0.023885 0.001018
vn -0.847512 0.206867 -0.488805
v -0.030800 -0.023626 0.006224
vn -0.046999 -0.022468 -0.998642
v -0.007996 -0.020478 -0.000702
vn -0.128449 0.038756 -0.990959
v -0.009567 0.006710 -0.000328
vn -0.972693 -0.157994 -0.170016
v -0.038432 -0.045273 0.016089
vn -0.961908 0.270423 -0.040067
v -0.033219 -0.028515 0.025307
vn -0.303768 -0.952740 -0.003332
v -0.012506 -0.060915 0.062988
vn -0.989372 0.143654 -0.022513
v -0.038033 -0.042133 0.053333
vn -0.569927 -0.821398 -0.022111
v -0.031400 -0.055464 0.031133
vn -0.924519 -0.380828 -0.015324
v -0.037497 -0.047953 0.055307
vn -0.968432 0.248427 -0.020576
v -0.036040 -0.030943 0.081990
vn -0.314733 -0.949148 -0.007776
v -0.005772 -0.063305 0.120218
vn -0.300749 -0.953686 0.005699
v -0.024361 -0.057718 0.105785
vn -0.999243 0.033092 -0.020469
v -0.039254 -0.043253 0.090034
vn -0.916138 -0.400372 -0.019848
v -0.038191 -0.048211 0.097907
vn -0.963674 0.266742 -0.013457
v -0.031243 -0.011351 0.106924
vn -0.994546 0.104071 0.006879
v -0.039803 -0.040863 0.125777
vn -0.544624 -0.838671 -0.003967
v -0.033884 -0.054355 0.119185
vn -0.704480 -0.682981 0.192988
v -0.035875 -0.052691 0.152030
vn -0.319487 -0.931174 0.175622
v -0.013241 -0.061969 0.153025
vn -0.969904 -0.241822 0.028444
v -0.039819 -0.047416 0.133540
vn -0.458744 -0.487657 0.742795
v -0.031443 -0.051115 0.161393
vn -0.849010 -0.043245 0.526604
v -0.038140 -0.043521 0.156986
vn -0.897334 0.191154 0.397810
v -0.036935 -0.034254 0.154471
vn -0.323533 0.036311 0.945520
v -0.025515 -0.035265 0.162347
vn -0.266671 0.063709 0.961680
v -0.018966 -0.007601 0.164838
vn -0.045137 -0.007171 0.998955
v -0.007082 -0.018539 0.165881
vn -0.507903 0.119455 -0.853092
v -0.019380 -0.002468 0.001842
vn -0.907212 0.228552 -0.353172
v -0.022376 0.010739 0.009775
vn -0.407443 0.175840 -0.896142
v -0.011957 0.027210 0.001338
vn -0.200324 0.701977 -0.683446
v -0.009200 0.045417 0.004521
vn -0.967258 0.248976 -0.049230
v -0.028460 -0.008215 0.030570
vn -0.855264 0.455125 -0.247760
v -0.015561 0.043276 0.010033
vn -0.972666 0.229751 -0.033696
v -0.020042 0.022887 0.029602
vn -0.944529 0.326886 0.031780
v -0.016504 0.039728 0.033411
vn -0.277761 0.946320 -0.165307
v -0.006387 0.050631 0.015475
vn -0.966930 0.253651 -0.026605
v -0.031369 -0.015577 0.057266
vn -0.957541 0.288211 0.006979
v -0.021217 0.022618 0.050205
vn -0.822859 0.567781 0.022980
v -0.013461 0.045068 0.037641
vn -0.959169 0.282766 -0.006226
v -0.022755 0.016377 0.075076
vn -0.878162 0.477232 -0.032869
v -0.016051 0.040019 0.080002
vn -0.133336 0.990957 -0.015028
v -0.005073 0.051065 0.039961
vn -0.013033 0.999774 -0.016807
v -0.002838 0.051340 0.065038
vn -0.649453 0.760401 0.000843
v -0.012444 0.046696 0.063593
vn -0.957583 0.288063 0.007319
v -0.022765 0.018815 0.127126
vn -0.810877 0.584874 -0.020038
v -0.014566 0.045406 0.095327
vn -0.464765 0.885147 -0.022570
v -0.008002 0.050460 0.091464
vn -0.202361 0.979297 0.005195
v -0.003281 0.051578 0.113477
vn -0.761256 0.648277 -0.015048
v -0.013553 0.046384 0.120452
vn 0.050781 0.957304 0.284588
v -0.003133 0.051144 0.153411
vn -0.865942 0.233009 0.442551
v -0.030342 -0.008175 0.155917
vn -0.859620 0.263917 0.437494
v -0.021049 0.020094 0.155597
vn -0.460933 0.159603 0.872965
v -0.015935 0.011769 0.162375
vn -0.365652 0.442511 0.818830
v -0.007595 0.045546 0.162219
vn -0.740858 0.653987 0.153069
v -0.014661 0.046695 0.150130
vn -0.193277 -0.924881 -0.327472
v 0.004123 -0.065991 0.009042
vn 0.379848 -0.887622 -0.260467
v 0.012658 -0.067453 0.012618
vn 0.812505 -0.445284 -0.376241
v 0.021080 -0.059340 0.010472
vn 0.813278 -0.581872 0.001946
v 0.020068 -0.061073 0.024902
vn 0.441597 -0.186081 -0.877705
v 0.016357 -0.049327 0.002122
vn 0.131052 -0.482727 -0.865910
v 0.009405 -0.061148 0.002869
vn 0.596752 -0.162035 -0.785895
v 0.022817 -0.030330 0.002745
vn 0.907850 -0.239068 -0.344462
v 0.027442 -0.030840 0.009134
vn 0.116745 -0.046357 -0.992079
v 0.015539 -0.018810 -0.000120
vn 0.969296 -0.244593 -0.025281
v 0.025563 -0.040791 0.016301
vn 0.965744 -0.256954 -0.036234
v 0.032017 -0.016656 0.024660
vn 0.013528 -0.999908 -0.000961
v 0.009794 -0.067990 0.034105
vn -0.007139 -0.999963 -0.004860
v 0.007635 -0.068015 0.058193
vn 0.528144 -0.849153 -0.001747
v 0.015631 -0.065267 0.064653
vn 0.959974 -0.279965 -0.008349
v 0.025983 -0.042447 0.054838
vn 0.860205 -0.509944 -0.002036
v 0.020362 -0.060384 0.065715
vn 0.811501 -0.584351 -0.000942
v 0.019516 -0.062222 0.096947
vn 0.039637 -0.999200 -0.005407
v 0.008794 -0.068267 0.094092
vn -0.093533 -0.995580 -0.008538
v 0.007811 -0.068240 0.124956
vn 0.541074 -0.840975 0.000937
v 0.015632 -0.066229 0.127208
vn 0.959962 -0.280129 -0.001043
v 0.029636 -0.029495 0.104506
vn 0.912577 -0.408829 0.007877
v 0.020877 -0.058368 0.132375
vn 0.714080 -0.640161 0.283345
v 0.018182 -0.063497 0.154712
vn 0.173161 -0.550214 0.816872
v 0.008033 -0.062966 0.163221
vn 0.371598 -0.133494 0.918746
v 0.020923 -0.028707 0.166126
vn 0.881860 -0.297559 0.365763
v 0.029115 -0.031596 0.155446
vn 0.068210 0.009226 -0.997628
v 0.015807 0.004541 -0.000830
vn 0.463688 -0.072775 -0.883005
v 0.031334 0.010516 0.001545
vn 0.906692 -0.240149 -0.346753
v 0.035632 -0.001661 0.009802
vn 0.582823 0.524680 -0.620506
v 0.038448 0.033713 0.005973
vn 0.180469 0.130160 -0.974930
v 0.029411 0.024957 0.001211
vn 0.966319 -0.256168 -0.024587
v 0.038207 0.007160 0.017945
vn 0.936957 -0.083131 -0.339412
v 0.043050 0.025298 0.010209
vn 0.930764 0.352251 -0.097966
v 0.042910 0.030043 0.013122
vn 0.989232 -0.145677 -0.014094
v 0.043141 0.024579 0.037285
vn 0.274903 0.932540 -0.234088
v 0.008537 0.046038 0.012630
vn 0.300761 0.952750 -0.042552
v 0.016773 0.044492 0.043257
vn 0.971617 -0.235459 -0.022784
v 0.040171 0.010154 0.051449
vn 0.998723 0.048826 -0.012993
v 0.043945 0.028643 0.062847
vn 0.443316 0.896094 -0.022041
v 0.036683 0.039267 0.060969
vn 0.537476 0.840997 -0.062002
v 0.037860 0.036680 0.028780
vn 0.964610 -0.263433 -0.011441
v 0.031560 -0.023424 0.066262
vn 0.823178 0.567728 -0.007928
v 0.041650 0.034469 0.062667
vn 0.964677 -0.263426 -0.002060
v 0.040049 0.009039 0.093899
vn 0.989982 -0.140067 -0.017795
v 0.043673 0.022203 0.078935
vn 0.942475 0.334227 -0.005797
v 0.043750 0.029315 0.088137
vn 0.577082 0.816684 -0.001952
v 0.037751 0.038114 0.103865
vn 0.966593 -0.256215 -0.007222
v 0.038596 0.003374 0.122489
vn 0.727547 0.686058 0.000041
v 0.039638 0.037226 0.122007
vn 0.999899 0.013258 -0.005149
v 0.044892 0.025943 0.115913
vn 0.184552 0.982813 -0.004406
v -0.000652 0.050995 0.094363
vn 0.321594 0.946875 0.002316
v 0.025564 0.042567 0.115000
vn 0.934591 -0.212467 0.285302
v 0.039756 0.005780 0.151797
vn 0.891795 -0.221147 0.394710
v 0.033746 -0.016725 0.154672
vn 0.197488 0.382894 0.902436
v 0.024141 0.034466 0.164392
vn 0.603088 -0.119143 0.788727
v 0.036340 0.015362 0.161646
vn 0.981500 0.156350 0.110508
v 0.044716 0.027301 0.151159
vn 0.513592 0.821032 0.249258
v 0.037099 0.038373 0.154189
vn 0.735750 0.222424 0.639687
v 0.040560 0.031858 0.160549
vn -0.017163 0.005974 0.999835
v 0.005438 -0.000003 0.164839
vn 0.233996 -0.024037 0.971940
v 0.022541 -0.009353 0.165513
vn -0.045774 0.036039 0.998302
v 0.011493 0.017817 0.165921
# 127 vertices, 0 vertices normals

f 7//7 10//10 66//66
f 66//66 19//19 7//7
f 19//19 66//66 77//77
f 8//8 9//9 10//10
f 10//10 7//7 8//8
f 7//7 15//15 8//8
f 12//12 8//8 15//15
f 71//71 10//10 9//9
f 71//71 9//9 1//1
f 66//66 10//10 71//71
f 8//8 12//12 11//11
f 8//8 11//11 9//9
f 38//38 11//11 12//12
f 38//38 12//12 39//39
f 1//1 9//9 11//11
f 1//1 11//11 13//13
f 14//14 13//13 11//11
f 14//14 11//11 38//38
f 14//14 4//4 13//13
f 15//15 7//7 19//19
f 15//15 16//16 12//12
f 15//15 19//19 20//20
f 20//20 18//18 15//15
f 16//16 42//42 12//12
f 39//39 12//12 42//42
f 47//47 42//42 16//16
f 19//19 77//77 2//2
f 17//17 2//2 77//77
f 17//17 77//77 78//78
f 17//17 78//78 83//83
f 16//16 15//15 18//18
f 47//47 16//16 18//18
f 2//2 20//20 19//19
f 20//20 24//24 18//18
f 21//21 18//18 24//24
f 2//2 25//25 20//20
f 25//25 24//24 20//20
f 2//2 17//17 23//23
f 17//17 83//83 23//23
f 47//47 18//18 21//21
f 21//21 26//26 47//47
f 23//23 83//83 22//22
f 22//22 83//83 84//84
f 25//25 2//2 28//28
f 28//28 2//2 23//23
f 26//26 24//24 27//27
f 21//21 24//24 26//26
f 28//28 31//31 25//25
f 27//27 24//24 25//25
f 31//31 28//28 29//29
f 27//27 25//25 31//31
f 28//28 23//23 22//22
f 61//61 26//26 27//27
f 34//34 61//61 27//27
f 84//84 30//30 22//22
f 30//30 6//6 89//89
f 31//31 29//29 33//33
f 29//29 28//28 30//30
f 30//30 28//28 22//22
f 31//31 34//34 27//27
f 34//34 31//31 33//33
f 32//32 29//29 30//30
f 33//33 29//29 32//32
f 35//35 33//33 32//32
f 89//89 32//32 30//30
f 33//33 35//35 34//34
f 35//35 61//61 34//34
f 61//61 35//35 36//36
f 36//36 35//35 37//37
f 37//37 35//35 90//90
f 14//14 38//38 40//40
f 38//38 39//39 40//40
f 14//14 3//3 4//4
f 39//39 43//43 40//40
f 3//3 14//14 40//40
f 40//40 43//43 41//41
f 40//40 5//5 3//3
f 5//5 40//40 41//41
f 42//42 44//44 39//39
f 43//43 39//39 44//44
f 44//44 45//45 43//43
f 101//101 5//5 41//41
f 46//46 41//41 43//43
f 46//46 43//43 49//49
f 101//101 41//41 46//46
f 49//49 43//43 45//45
f 47//47 48//48 42//42
f 47//47 50//50 48//48
f 44//44 42//42 48//48
f 49//49 45//45 48//48
f 48//48 45//45 44//44
f 26//26 50//50 47//47
f 49//49 48//48 50//50
f 51//51 49//49 50//50
f 52//52 49//49 54//54
f 52//52 46//46 49//49
f 102//102 52//52 53//53
f 54//54 49//49 51//51
f 53//53 52//52 54//54
f 51//51 57//57 54//54
f 57//57 51//51 56//56
f 53//53 54//54 57//57
f 116//116 53//53 57//57
f 50//50 26//26 55//55
f 50//50 56//56 51//51
f 55//55 56//56 50//50
f 59//59 56//56 55//55
f 61//61 55//55 26//26
f 59//59 55//55 65//65
f 58//58 57//57 56//56
f 58//58 56//56 59//59
f 116//116 57//57 58//58
f 117//117 58//58 60//60
f 58//58 59//59 65//65
f 55//55 61//61 62//62
f 61//61 36//36 63//63
f 63//63 62//62 61//61
f 65//65 55//55 62//62
f 62//62 63//63 64//64
f 125//125 36//36 37//37
f 36//36 125//125 127//127
f 63//63 36//36 127//127
f 64//64 63//63 127//127
f 65//65 60//60 58//58
f 62//62 64//64 65//65
f 64//64 60//60 65//65
f 120//120 60//60 64//64
f 67//67 66//66 71//71
f 68//68 67//67 71//71
f 67//67 77//77 66//66
f 67//67 68//68 69//69
f 69//69 77//77 67//67
f 70//70 71//71 1//1
f 71//71 70//70 68//68
f 73//73 68//68 70//70
f 74//74 70//70 1//1
f 72//72 73//73 70//70
f 74//74 1//1 13//13
f 72//72 70//70 74//74
f 72//72 94//94 73//73
f 4//4 92//92 74//74
f 74//74 13//13 4//4
f 93//93 72//72 74//74
f 75//75 69//69 68//68
f 75//75 68//68 73//73
f 80//80 69//69 75//75
f 75//75 73//73 76//76
f 76//76 73//73 94//94
f 80//80 75//75 76//76
f 79//79 77//77 69//69
f 78//78 77//77 79//79
f 79//79 69//69 81//81
f 79//79 81//81 82//82
f 80//80 81//81 69//69
f 80//80 76//76 107//107
f 76//76 97//97 103//103
f 76//76 103//103 107//107
f 81//81 80//80 82//82
f 80//80 107//107 86//86
f 83//83 78//78 79//79
f 83//83 79//79 82//82
f 85//85 83//83 82//82
f 85//85 84//84 83//83
f 87//87 85//85 82//82
f 86//86 82//82 80//80
f 86//86 87//87 82//82
f 86//86 107//107 109//109
f 87//87 86//86 91//91
f 113//113 86//86 109//109
f 86//86 113//113 119//119
f 119//119 113//113 118//118
f 6//6 30//30 84//84
f 6//6 84//84 85//85
f 88//88 6//6 85//85
f 87//87 88//88 85//85
f 88//88 89//89 6//6
f 87//87 91//91 88//88
f 88//88 91//91 89//89
f 89//89 91//91 90//90
f 91//91 86//86 119//119
f 91//91 119//119 90//90
f 35//35 32//32 89//89
f 90//90 35//35 89//89
f 37//37 90//90 126//126
f 126//126 125//125 37//37
f 93//93 74//74 92//92
f 92//92 4//4 3//3
f 92//92 96//96 93//93
f 93//93 94//94 72//72
f 98//98 94//94 93//93
f 94//94 98//98 97//97
f 92//92 3//3 96//96
f 5//5 96//96 3//3
f 5//5 95//95 96//96
f 101//101 95//95 5//5
f 95//95 93//93 96//96
f 95//95 98//98 93//93
f 98//98 95//95 99//99
f 97//97 76//76 94//94
f 97//97 98//98 100//100
f 101//101 106//106 95//95
f 99//99 95//95 106//106
f 106//106 101//101 102//102
f 99//99 100//100 98//98
f 102//102 105//105 106//106
f 52//52 102//102 101//101
f 101//101 46//46 52//52
f 103//103 97//97 100//100
f 100//100 99//99 104//104
f 106//106 108//108 99//99
f 108//108 106//106 105//105
f 108//108 104//104 99//99
f 103//103 104//104 110//110
f 104//104 103//103 100//100
f 107//107 103//103 109//109
f 110//110 109//109 103//103
f 110//110 104//104 111//111
f 104//104 108//108 111//111
f 105//105 112//112 108//108
f 111//111 108//108 112//112
f 105//105 102//102 53//53
f 105//105 53//53 116//116
f 112//112 105//105 116//116
f 109//109 110//110 115//115
f 111//111 115//115 110//110
f 117//117 114//114 112//112
f 114//114 111//111 112//112
f 118//118 113//113 122//122
f 109//109 115//115 113//113
f 117//117 123//123 114//114
f 115//115 122//122 113//113
f 115//115 111//111 114//114
f 122//122 115//115 114//114
f 58//58 117//117 116//116
f 112//112 116//116 117//117
f 126//126 90//90 119//119
f 119//119 121//121 126//126
f 118//118 121//121 119//119
f 124//124 123//123 120//120
f 121//121 118//118 124//124
f 120//120 121//121 124//124
f 118//118 122//122 124//124
f 123//123 122//122 114//114
f 122//122 123//123 124//124
f 125//125 126//126 127//127
f 64//64 127//127 120//120
f 127//127 126//126 120//120
f 121//121 120//120 126//126
f 60//60 123//123 117//117
f 120//120 123//123 60//60
# 250 faces, 0 coords texture

# End of File
