####
#
# OBJ File Generated by Meshlab
#
####
# Object hunts_sauce_250_collision.obj
#
# Vertices: 125
# Faces: 246
#
####
vn 2.497273 0.467094 -4.962896
v 0.043053 0.013699 0.010010
vn -2.624275 -1.410511 3.985409
v -0.020845 -0.010502 0.111718
vn -3.085076 0.445636 -3.535711
v -0.027397 0.011742 0.010417
vn -0.702876 4.014162 3.091117
v 0.002178 0.039579 0.110611
vn -0.221000 -4.481212 -2.650203
v 0.005898 -0.030673 0.011742
vn 3.658542 -2.199272 3.014729
v 0.039848 -0.012120 0.109537
vn -3.029812 0.969708 2.994240
v -0.026010 0.014273 0.111196
vn -0.315618 5.921470 -1.174938
v 0.007658 0.042433 0.012495
vn -4.823268 -3.713064 -0.561862
v -0.022344 -0.015663 0.015607
vn 0.000708 -1.509933 -5.882188
v 0.005869 -0.027403 0.010036
vn 2.928715 -0.344147 4.127603
v 0.042255 0.000765 0.111555
vn 4.652040 -3.549316 -1.233460
v 0.038753 -0.017455 0.014704
vn 0.048163 -3.381041 3.273825
v 0.009140 -0.029036 0.111110
vn -4.129543 4.423186 -0.954881
v -0.018518 0.029603 0.013780
vn 3.417598 4.736224 1.251712
v 0.030909 0.034633 0.103326
vn -1.197682 1.861947 -5.339870
v -0.003919 0.037185 0.010117
vn -6.054573 -1.524583 0.108664
v -0.027373 -0.003846 0.095024
vn -1.752884 -2.704674 -3.105766
v -0.009782 -0.025444 0.010513
vn -0.382082 1.416675 5.894353
v 0.001422 0.037231 0.111539
vn 2.364808 -2.345989 -3.486342
v 0.035293 -0.019548 0.010522
vn 5.757731 -1.741330 -0.796736
v 0.045017 -0.005818 0.016590
vn 1.459914 -2.684139 3.478962
v 0.025617 -0.024499 0.111711
vn -4.051173 4.760538 0.294269
v -0.014670 0.032136 0.098741
vn -4.209085 2.039428 -2.563609
v -0.025503 0.019576 0.011487
vn 1.070233 5.854582 1.093137
v 0.015451 0.040956 0.104588
vn 3.455139 3.643245 -2.223988
v 0.033321 0.033610 0.012082
vn 5.819885 2.320227 0.200612
v 0.043053 0.019105 0.091976
vn 2.263833 1.974552 3.982529
v 0.035456 0.025963 0.111459
vn -6.255670 0.425334 0.121573
v -0.028143 0.006849 0.095890
vn -6.137836 -1.152885 -0.216834
v -0.027978 -0.002226 0.017651
vn -4.880471 -3.599927 1.025642
v -0.021438 -0.015518 0.102172
vn -5.760021 -0.650893 1.399045
v -0.028121 0.001786 0.104144
vn -2.922167 -2.204845 -3.228042
v -0.021666 -0.015468 0.011687
vn -1.296035 -3.213883 -3.112848
v -0.005871 -0.027397 0.010539
vn -2.791185 -0.469612 4.544111
v -0.024357 0.003385 0.111561
vn -1.972573 3.311330 3.314486
v -0.007144 0.035793 0.110375
vn 1.163795 -1.952928 -5.345518
v 0.031329 -0.021534 0.010258
vn 5.890831 -1.173517 1.116875
v 0.045530 0.000160 0.103268
vn 5.010454 -3.574059 0.456486
v 0.039049 -0.015919 0.099081
vn 3.567511 -0.556535 -3.090761
v 0.045670 0.001189 0.011073
vn -1.063939 -1.677694 5.605129
v -0.010817 -0.021803 0.111510
vn 3.597153 -4.853406 0.945380
v 0.031329 -0.023499 0.102142
vn -2.968894 4.684976 -1.736288
v -0.008626 0.037542 0.013542
vn -2.906863 2.222155 -2.886666
v -0.021989 0.025529 0.011249
vn -0.973347 6.134661 0.370683
v 0.003385 0.041178 0.099804
vn 1.571137 2.946380 -2.928652
v 0.027469 0.037590 0.010893
vn 4.867665 3.548037 0.869585
v 0.039069 0.026516 0.102015
vn 5.557078 2.816262 -0.395081
v 0.043053 0.021204 0.015656
vn 1.293865 3.458517 3.381166
v 0.020251 0.038179 0.110153
vn -6.096766 1.276275 -0.395225
v -0.028254 0.011742 0.015656
vn -5.600415 -2.202880 -0.983769
v -0.026446 -0.007822 0.015220
vn -4.186759 -4.405084 0.805891
v -0.017006 -0.020601 0.102686
vn -5.407706 -2.283431 1.327137
v -0.025561 -0.008550 0.103329
vn -6.034869 1.404082 0.326725
v -0.027457 0.011994 0.100427
vn -1.511523 -6.054811 0.338434
v -0.000119 -0.029353 0.099835
vn -3.221274 3.248338 2.758110
v -0.015723 0.030249 0.109182
vn 1.554597 -3.333618 -3.855863
v 0.022658 -0.027352 0.010977
vn 5.190928 -2.727430 -1.334362
v 0.041918 -0.012764 0.015918
vn 5.803837 -2.147656 0.466756
v 0.044180 -0.005641 0.099908
vn 6.120964 0.110095 -0.706530
v 0.046315 0.006708 0.014362
vn 3.205836 -5.212934 -0.759628
v 0.029154 -0.025340 0.016222
vn 4.304090 -4.444306 0.615663
v 0.033447 -0.021795 0.100627
vn 1.679633 -5.889571 0.874303
v 0.019382 -0.029159 0.101685
vn -3.920070 4.880173 -0.258586
v -0.013699 0.033762 0.015656
vn -2.865098 5.467126 0.473261
v -0.007138 0.037518 0.100211
vn -0.702568 3.580195 -2.948688
v 0.001419 0.041419 0.011008
vn -4.795230 3.972105 0.293846
v -0.019492 0.027458 0.097739
vn -2.092161 4.649409 -2.266961
v -0.002258 0.040355 0.011732
vn -0.036221 6.189307 0.639432
v 0.009492 0.041414 0.102563
vn 2.619299 1.495612 -3.992280
v 0.041097 0.021530 0.010072
vn 1.430090 5.823562 -1.040307
v 0.017642 0.041533 0.013718
vn 2.679858 5.661281 0.106770
v 0.024462 0.038416 0.091976
vn 4.555262 4.292491 0.055728
v 0.036594 0.029845 0.080500
vn 4.479647 1.597905 2.621819
v 0.042449 0.018296 0.108469
vn 5.529324 2.950438 0.114451
v 0.041090 0.023473 0.090019
vn -5.888001 1.834691 -0.622654
v -0.027153 0.015664 0.013678
vn -6.140012 -0.104769 -0.679863
v -0.028851 0.005871 0.015656
vn -3.798008 -0.839344 -3.208616
v -0.027549 -0.001557 0.011742
vn -4.896092 -3.876109 0.031426
v -0.022117 -0.015745 0.047507
vn -3.458108 -5.203315 -0.091785
v -0.013699 -0.023718 0.023483
vn -2.596931 -3.742296 2.869195
v -0.011724 -0.023246 0.110412
vn -5.880022 -2.209700 0.068010
v -0.025837 -0.007903 0.100691
vn -5.449764 -3.112648 0.041128
v -0.023483 -0.013533 0.050880
vn -6.194578 0.564258 0.852015
v -0.027184 0.008092 0.106957
vn -6.167591 0.691164 -0.540705
v -0.028578 0.009785 0.015656
vn -1.840907 -5.953331 -0.426971
v -0.001640 -0.029234 0.014958
vn 5.475388 1.062037 -1.785465
v 0.045542 0.014080 0.013343
vn 3.907737 -4.826592 -0.527400
v 0.034741 -0.021151 0.015656
vn 2.541923 -5.654547 0.492551
v 0.024320 -0.027455 0.100133
vn 2.462993 -5.598277 -0.729232
v 0.023668 -0.028060 0.014921
vn 0.387572 -6.230273 0.332880
v 0.013813 -0.030161 0.099094
vn -3.674666 5.083919 0.157073
v -0.011256 0.034855 0.095890
vn -1.879604 5.953532 0.394053
v 0.000978 0.040549 0.099804
vn 0.419703 4.157540 -2.849056
v 0.011777 0.042260 0.011791
vn -5.353043 3.142234 0.497176
v -0.023447 0.021519 0.100226
vn 4.977460 3.438261 -0.911439
v 0.040953 0.024927 0.015123
vn 2.196030 5.847363 0.295267
v 0.022769 0.039044 0.094912
vn 2.440171 5.785183 -0.056062
v 0.023763 0.039255 0.015656
vn 6.173123 0.856798 0.242677
v 0.045803 0.008489 0.095666
vn 5.849456 0.043976 1.343180
v 0.045871 0.003757 0.103898
vn 5.721246 2.595625 0.071348
v 0.043053 0.019765 0.070450
vn -6.007358 -0.011772 -1.792740
v -0.027964 0.007828 0.012231
vn -4.074552 -4.718539 -0.349921
v -0.017110 -0.020959 0.019839
vn -2.652698 -5.687469 -0.081203
v -0.006669 -0.027397 0.021526
vn -1.456065 -4.610760 2.605978
v -0.002774 -0.027873 0.109384
vn -3.128673 -5.390697 0.319518
v -0.011072 -0.024892 0.099622
vn -5.697020 -2.635900 0.027671
v -0.025415 -0.009785 0.048923
vn -5.327416 -3.309950 0.123903
v -0.023313 -0.012982 0.095645
vn -1.265158 -6.108212 -0.296838
v 0.001849 -0.030179 0.015428
vn 5.477984 2.020266 -1.390845
v 0.044598 0.017634 0.013751
vn 1.073141 -4.523099 -2.640538
v 0.019331 -0.029294 0.011849
vn -0.576489 -6.195012 0.349306
v 0.004069 -0.030152 0.099111
vn 1.124516 -6.111249 0.424095
v 0.017691 -0.029655 0.100294
vn -5.752867 2.485478 0.116603
v -0.025557 0.017571 0.093502
vn 2.103583 5.907114 -0.100563
v 0.019569 0.040931 0.015656
vn 6.032797 1.691962 0.213150
v 0.044355 0.015166 0.092710
vn -2.934920 -5.550284 -0.145230
v -0.009785 -0.025778 0.019569
vn -2.386958 -5.778145 0.133364
v -0.005871 -0.027656 0.093933
vn -2.291291 -5.845495 -0.057329
v -0.005871 -0.027735 0.021526
vn -5.569913 -2.899804 0.067706
v -0.024575 -0.010763 0.093933
vn -1.749740 -6.032444 0.035073
v -0.001957 -0.028898 0.091976
vn 5.798215 2.415118 0.072545
v 0.043139 0.019569 0.070450
vn 0.379339 -6.258423 -0.118026
v 0.011742 -0.030584 0.015656
vn -2.936621 -5.548347 0.016868
v -0.009785 -0.025857 0.054794
vn 0.802937 -6.117937 -0.701747
v 0.014623 -0.030272 0.013678
# 125 vertices, 0 vertices normals

f 16//16 10//10 3//3
f 16//16 1//1 10//10
f 18//18 3//3 10//10
f 22//22 6//6 11//11
f 22//22 19//19 2//2
f 22//22 11//11 19//19
f 28//28 19//19 11//11
f 32//32 30//30 17//17
f 33//33 18//18 9//9
f 33//33 3//3 18//18
f 34//34 18//18 10//10
f 34//34 10//10 5//5
f 35//35 19//19 7//7
f 35//35 2//2 19//19
f 35//35 32//32 2//2
f 35//35 7//7 32//32
f 36//36 19//19 4//4
f 36//36 7//7 19//19
f 37//37 10//10 1//1
f 37//37 1//1 20//20
f 38//38 11//11 6//6
f 40//40 20//20 1//1
f 41//41 22//22 2//2
f 41//41 13//13 22//22
f 42//42 6//6 22//22
f 44//44 16//16 3//3
f 44//44 3//3 24//24
f 44//44 14//14 43//43
f 46//46 15//15 26//26
f 47//47 15//15 28//28
f 49//49 25//25 4//4
f 49//49 28//28 15//15
f 49//49 15//15 25//25
f 49//49 4//4 19//19
f 49//49 19//19 28//28
f 51//51 17//17 30//30
f 51//51 33//33 9//9
f 53//53 31//31 2//2
f 53//53 2//2 32//32
f 53//53 32//32 17//17
f 54//54 29//29 32//32
f 56//56 7//7 36//36
f 57//57 5//5 10//10
f 57//57 10//10 37//37
f 57//57 37//37 20//20
f 58//58 39//39 12//12
f 58//58 40//40 21//21
f 58//58 12//12 20//20
f 58//58 20//20 40//40
f 59//59 38//38 6//6
f 59//59 6//6 39//39
f 59//59 21//21 38//38
f 59//59 58//58 21//21
f 59//59 39//39 58//58
f 60//60 38//38 21//21
f 60//60 21//21 40//40
f 61//61 57//57 20//20
f 62//62 12//12 39//39
f 62//62 39//39 6//6
f 62//62 6//6 42//42
f 63//63 22//22 13//13
f 64//64 43//43 14//14
f 64//64 14//14 23//23
f 65//65 56//56 36//36
f 65//65 23//23 56//56
f 65//65 36//36 4//4
f 66//66 45//45 8//8
f 66//66 46//46 16//16
f 67//67 23//23 14//14
f 67//67 14//14 44//44
f 67//67 56//56 23//23
f 68//68 44//44 43//43
f 68//68 16//16 44//44
f 68//68 66//66 16//16
f 68//68 43//43 65//65
f 69//69 8//8 45//45
f 69//69 45//45 4//4
f 69//69 4//4 25//25
f 70//70 46//46 26//26
f 70//70 1//1 16//16
f 70//70 16//16 46//46
f 72//72 15//15 46//46
f 73//73 26//26 15//15
f 73//73 15//15 47//47
f 74//74 27//27 47//47
f 74//74 47//47 28//28
f 74//74 28//28 11//11
f 75//75 47//47 27//27
f 76//76 24//24 3//3
f 76//76 3//3 50//50
f 76//76 50//50 54//54
f 77//77 32//32 29//29
f 77//77 30//30 32//32
f 78//78 3//3 33//33
f 78//78 33//33 51//51
f 78//78 51//51 30//30
f 78//78 30//30 77//77
f 79//79 52//52 31//31
f 81//81 41//41 2//2
f 81//81 2//2 31//31
f 81//81 31//31 52//52
f 82//82 53//53 17//17
f 82//82 17//17 51//51
f 82//82 51//51 53//53
f 83//83 51//51 9//9
f 83//83 9//9 79//79
f 84//84 54//54 32//32
f 84//84 32//32 7//7
f 84//84 7//7 54//54
f 85//85 54//54 50//50
f 85//85 29//29 54//54
f 85//85 77//77 29//29
f 85//85 50//50 3//3
f 85//85 3//3 77//77
f 86//86 34//34 5//5
f 87//87 1//1 70//70
f 87//87 60//60 40//40
f 87//87 40//40 1//1
f 88//88 61//61 20//20
f 88//88 20//20 12//12
f 88//88 12//12 62//62
f 88//88 62//62 42//42
f 88//88 42//42 61//61
f 89//89 42//42 22//22
f 89//89 22//22 63//63
f 89//89 61//61 42//42
f 90//90 57//57 61//61
f 90//90 89//89 63//63
f 90//90 61//61 89//89
f 92//92 64//64 23//23
f 92//92 43//43 64//64
f 92//92 65//65 43//43
f 92//92 23//23 65//65
f 93//93 65//65 4//4
f 93//93 4//4 45//45
f 93//93 68//68 65//65
f 93//93 45//45 66//66
f 93//93 66//66 68//68
f 94//94 66//66 8//8
f 94//94 46//46 66//66
f 94//94 71//71 46//46
f 94//94 25//25 71//71
f 94//94 69//69 25//25
f 94//94 8//8 69//69
f 95//95 7//7 56//56
f 95//95 56//56 67//67
f 95//95 67//67 44//44
f 95//95 44//44 24//24
f 96//96 70//70 26//26
f 96//96 26//26 73//73
f 96//96 73//73 47//47
f 96//96 75//75 48//48
f 96//96 47//47 75//75
f 97//97 25//25 15//15
f 97//97 15//15 72//72
f 97//97 71//71 25//25
f 98//98 72//72 46//46
f 99//99 60//60 87//87
f 100//100 74//74 11//11
f 100//100 11//11 38//38
f 100//100 99//99 74//74
f 100//100 38//38 60//60
f 100//100 60//60 99//99
f 101//101 75//75 27//27
f 101//101 48//48 75//75
f 102//102 78//78 77//77
f 102//102 77//77 3//3
f 102//102 3//3 78//78
f 103//103 79//79 9//9
f 103//103 52//52 79//79
f 103//103 80//80 52//52
f 103//103 9//9 18//18
f 103//103 18//18 80//80
f 105//105 13//13 41//41
f 105//105 41//41 81//81
f 106//106 81//81 52//52
f 106//106 52//52 80//80
f 106//106 105//105 81//81
f 107//107 53//53 51//51
f 107//107 51//51 83//83
f 108//108 83//83 79//79
f 108//108 79//79 31//31
f 108//108 31//31 53//53
f 109//109 86//86 5//5
f 110//110 87//87 70//70
f 110//110 96//96 48//48
f 110//110 70//70 96//96
f 111//111 5//5 57//57
f 111//111 57//57 90//90
f 112//112 5//5 91//91
f 112//112 91//91 13//13
f 112//112 109//109 5//5
f 112//112 55//55 109//109
f 112//112 105//105 55//55
f 112//112 13//13 105//105
f 113//113 63//63 13//13
f 113//113 13//13 91//91
f 113//113 111//111 90//90
f 113//113 90//90 63//63
f 114//114 54//54 7//7
f 114//114 7//7 95//95
f 114//114 76//76 54//54
f 114//114 95//95 24//24
f 114//114 24//24 76//76
f 115//115 72//72 98//98
f 115//115 98//98 46//46
f 115//115 46//46 71//71
f 115//115 71//71 97//97
f 115//115 97//97 72//72
f 116//116 27//27 74//74
f 116//116 74//74 99//99
f 116//116 110//110 27//27
f 116//116 99//99 87//87
f 116//116 87//87 110//110
f 117//117 80//80 18//18
f 117//117 18//18 34//34
f 117//117 34//34 104//104
f 118//118 55//55 105//105
f 118//118 105//105 106//106
f 119//119 104//104 34//34
f 119//119 34//34 86//86
f 119//119 118//118 104//104
f 119//119 86//86 118//118
f 120//120 107//107 83//83
f 120//120 53//53 107//107
f 120//120 108//108 53//53
f 120//120 83//83 108//108
f 121//121 109//109 55//55
f 121//121 86//86 109//109
f 121//121 118//118 86//86
f 121//121 55//55 118//118
f 122//122 110//110 48//48
f 122//122 48//48 101//101
f 122//122 101//101 27//27
f 122//122 27//27 110//110
f 123//123 91//91 5//5
f 124//124 117//117 104//104
f 124//124 104//104 118//118
f 124//124 80//80 117//117
f 124//124 118//118 106//106
f 124//124 106//106 80//80
f 125//125 91//91 123//123
f 125//125 123//123 5//5
f 125//125 5//5 111//111
f 125//125 111//111 113//113
f 125//125 113//113 91//91
# 246 faces, 0 coords texture

# End of File
