####
#
# OBJ File Generated by Meshlab
#
####
# Object hunts_sauce_250_collision.obj
#
# Vertices: 127
# Faces: 250
#
####
vn 0.999997 -0.002339 -0.000475
v 0.051054 0.005871 0.011742
vn -0.156242 -0.937404 -0.311226
v 0.001993 -0.037149 0.011741
vn 0.575043 -0.815530 -0.065081
v 0.029643 -0.031311 0.011751
vn -0.798970 -0.325381 -0.505741
v -0.029354 -0.011742 0.006021
vn -0.376656 0.905427 -0.195786
v -0.008611 0.045010 0.011742
vn 0.948263 0.258514 0.184303
v 0.044343 0.013699 0.103718
vn 0.453539 0.771659 -0.445921
v 0.031311 0.042534 0.011741
vn -0.968970 0.176486 0.173058
v -0.027678 0.009785 0.101761
vn -0.949101 -0.221402 0.224028
v -0.027000 -0.003975 0.102739
vn -0.112974 0.989983 0.084674
v 0.003914 0.041261 0.099804
vn -0.857663 0.513817 -0.020131
v -0.029354 0.025440 0.013026
vn 0.973429 -0.207924 0.095939
v 0.045142 -0.001957 0.101761
vn -0.618003 0.732918 0.284435
v -0.013764 0.031907 0.110018
vn 0.170925 0.970276 0.171316
v 0.015848 0.040551 0.105608
vn 0.255181 0.082086 -0.963403
v 0.045010 0.018034 0.005871
vn -0.980643 0.092729 0.172456
v -0.028052 0.005871 0.101761
vn -0.896334 -0.439480 0.058680
v -0.025440 -0.008783 0.099804
vn -0.661493 -0.144611 0.735876
v -0.023271 -0.003163 0.111631
vn -0.352466 -0.412879 -0.839821
v -0.023354 -0.019795 0.006977
vn -0.127455 0.990750 -0.046579
v 0.003218 0.046967 0.011742
vn -0.918552 0.372568 0.132119
v -0.025392 0.016757 0.104559
vn -0.222023 0.661995 -0.715869
v -0.005871 0.044222 0.009785
vn -0.660884 0.577289 -0.479552
v -0.023483 0.033268 0.010261
vn 0.242249 -0.018518 0.970037
v 0.041133 0.001190 0.111557
vn 0.981650 -0.157177 -0.107972
v 0.050880 -0.003914 0.010650
vn 0.306013 0.950800 -0.048330
v 0.025465 0.044701 0.011760
vn 0.970832 0.239444 0.012333
v 0.050881 0.017620 0.011326
vn -0.338670 -0.916991 -0.210784
v -0.011742 -0.033268 0.012942
vn -0.267553 -0.659773 -0.702222
v -0.009678 -0.032290 0.010763
vn 0.314467 -0.780771 -0.539914
v 0.023483 -0.033268 0.009971
vn -0.101346 -0.359212 -0.927737
v -0.002436 -0.027404 0.005871
vn 0.031146 -0.279648 -0.959597
v 0.012083 -0.028861 0.005871
vn -0.057373 -0.086972 -0.994557
v -0.021984 -0.015677 0.005871
vn -0.981072 -0.115750 0.155237
v -0.027770 0.000000 0.101761
vn -0.163997 0.983956 0.070248
v 0.002856 0.041096 0.099804
vn -0.849803 0.312932 -0.424157
v -0.033268 0.015656 0.011332
vn -0.246397 0.116803 -0.962105
v -0.021526 0.023788 0.005871
vn 0.574504 -0.815420 0.070963
v 0.031212 -0.023980 0.094619
vn 0.291903 -0.956082 -0.026453
v 0.013699 -0.036679 0.011742
vn 0.804770 0.217933 -0.552132
v 0.050880 0.015997 0.009785
vn 0.559083 -0.043854 -0.827951
v 0.046967 0.005871 0.006195
vn 0.972548 -0.142275 0.184142
v 0.045405 0.000054 0.103048
vn 0.869765 -0.422320 0.255254
v 0.042953 -0.008306 0.105230
vn -0.059465 0.996714 0.054997
v 0.003914 0.046967 0.012982
vn 0.571416 0.465147 -0.676108
v 0.044052 0.027397 0.009785
vn -0.589700 -0.773662 0.231737
v -0.011715 -0.023486 0.107901
vn 0.167061 -0.450786 -0.876860
v 0.023269 -0.030359 0.007829
vn 0.452756 -0.546961 -0.704163
v 0.042970 -0.018214 0.007835
vn -0.662865 -0.733295 -0.151288
v -0.020762 -0.029354 0.013699
vn -0.330326 -0.570620 -0.751849
v -0.018786 -0.026128 0.008790
vn 0.091647 -0.159387 -0.982953
v 0.021526 -0.024608 0.005871
vn -0.981727 -0.168610 0.088216
v -0.027459 -0.001957 0.101761
vn -0.400106 0.611010 -0.683068
v -0.015394 0.037820 0.008806
vn 0.366678 0.287418 -0.884838
v 0.042951 0.022733 0.006056
vn -0.597407 0.069305 -0.798938
v -0.031692 -0.001208 0.007097
vn -0.246337 0.426232 -0.870428
v -0.011639 0.036634 0.005870
vn -0.565534 0.237117 -0.789903
v -0.029354 0.020714 0.009785
vn -0.143707 -0.503499 0.851961
v -0.000109 -0.026938 0.111463
vn -0.447031 -0.248314 0.859362
v -0.019691 -0.011065 0.111719
vn -0.124559 0.833610 0.538125
v 0.002356 0.039417 0.110783
vn -0.179269 0.976163 0.122348
v 0.001957 0.040790 0.101761
vn 0.326186 -0.939885 0.101086
v 0.019623 -0.028939 0.100598
vn 0.910473 -0.225638 0.346591
v 0.044247 -0.004372 0.105010
vn 0.900163 -0.009845 -0.435442
v 0.050880 0.015041 0.009785
vn 0.857193 -0.308108 -0.412661
v 0.048923 -0.008844 0.009785
vn 0.998349 -0.026079 0.051179
v 0.050880 -0.000978 0.012504
vn 0.780978 -0.476235 -0.404072
v 0.045010 -0.016092 0.007828
vn 0.047938 0.944538 -0.324884
v 0.013632 0.047487 0.009372
vn 0.828765 0.504222 -0.242713
v 0.045122 0.029178 0.012470
vn -0.678628 -0.717170 0.158529
v -0.017305 -0.019569 0.103718
vn -0.036049 -0.989345 0.141058
v 0.008222 -0.029990 0.102912
vn 0.144741 -0.984478 0.099267
v 0.016538 -0.029512 0.101761
vn -0.994661 0.089480 0.051406
v -0.035225 0.009785 0.013484
vn -0.979717 -0.033155 0.197625
v -0.028083 0.001957 0.100782
vn -0.605680 -0.606543 0.515032
v -0.016959 -0.018108 0.109830
vn 0.176279 -0.098563 -0.979393
v 0.043145 -0.009943 0.005871
vn -0.984816 -0.082671 -0.152655
v -0.035225 0.008894 0.011742
vn 0.058510 0.538043 -0.840884
v 0.014065 0.045417 0.007411
vn 0.297662 0.477764 0.826522
v 0.025619 0.034558 0.111458
vn -0.523632 0.846498 0.096183
v -0.009603 0.035793 0.100293
vn 0.979738 0.110730 0.166892
v 0.045202 0.007933 0.105389
vn 0.872019 0.051174 0.486790
v 0.043743 0.009110 0.109995
vn 0.822405 0.560570 0.097012
v 0.039240 0.025589 0.101761
vn 0.996495 0.041931 0.072379
v 0.045707 0.005929 0.101287
vn 0.988968 -0.029730 0.145116
v 0.045556 0.003918 0.103766
vn 0.976983 0.179827 0.114742
v 0.044896 0.011029 0.103718
vn 0.966948 -0.234533 0.100031
v 0.045010 -0.002524 0.101761
vn -0.744112 0.662117 0.088878
v -0.017505 0.029703 0.099532
vn 0.015318 0.945538 0.325152
v 0.007094 0.040029 0.109344
vn 0.721625 0.677790 -0.140917
v 0.041096 0.035225 0.013149
vn 0.088178 0.085281 -0.992447
v 0.042738 0.021526 0.005871
vn -0.319565 -0.888778 0.328559
v -0.004160 -0.027166 0.109638
vn -0.738655 -0.652536 0.169070
v -0.018570 -0.018453 0.102739
vn -0.183582 -0.970591 0.155729
v -0.000002 -0.029297 0.100649
vn 0.113307 -0.904541 -0.411055
v 0.011742 -0.037182 0.011128
vn 0.720234 -0.690457 0.067318
v 0.035137 -0.020025 0.101388
vn -0.952140 -0.015319 0.305279
v -0.027791 0.003753 0.105039
vn -0.897156 -0.366599 0.246408
v -0.025744 -0.007679 0.103268
vn -0.838414 -0.497371 0.222898
v -0.023542 -0.011798 0.104022
vn -0.804277 0.541125 0.245607
v -0.020026 0.025440 0.107162
vn 0.614962 0.485063 0.621720
v 0.036117 0.025485 0.110842
vn 0.096166 -0.937109 0.335529
v 0.015447 -0.028661 0.109929
vn 0.331509 -0.487253 0.807890
v 0.025170 -0.024651 0.111713
vn -0.008712 0.177362 0.984107
v 0.002106 0.037894 0.111535
vn -0.411959 0.902118 0.128346
v -0.004364 0.038387 0.103759
vn 0.744754 -0.326613 0.581949
v 0.040466 -0.009908 0.110206
vn 0.767927 0.614064 0.182246
v 0.037563 0.027737 0.102558
vn 0.949066 0.304257 0.081864
v 0.043892 0.015656 0.101761
vn -0.111210 -0.988868 0.098857
v 0.003916 -0.030130 0.097929
vn 0.557072 0.798154 0.229395
v 0.029695 0.034872 0.104900
vn 0.390058 0.916602 0.087724
v 0.026660 0.038087 0.091219
vn -0.847636 0.507330 0.155337
v -0.023377 0.021480 0.100846
vn 0.307514 0.403392 -0.861806
v 0.031266 0.036715 0.007830
vn 0.461935 -0.876583 0.134978
v 0.027354 -0.025705 0.103197
vn -0.021368 0.992249 0.122412
v 0.009912 0.041321 0.103263
vn -0.303037 0.599466 0.740817
v -0.005426 0.036603 0.111030
vn 0.936941 0.321517 0.136997
v 0.043071 0.017664 0.103718
vn 0.259843 0.847780 0.462333
v 0.021320 0.038049 0.109594
vn 0.674456 0.700062 0.234569
v 0.033070 0.032232 0.104646
vn -0.685248 -0.694399 0.219650
v -0.015332 -0.020118 0.108177
vn -0.547098 0.204825 0.811622
v -0.022459 0.016783 0.111291
vn 0.870206 0.437942 0.225718
v 0.041251 0.021858 0.105149
vn 0.708784 -0.622557 0.331735
v 0.038857 -0.015635 0.103530
vn 0.020915 0.090329 -0.995692
v 0.009481 0.041513 0.005871
vn -0.628396 -0.769652 0.112934
v -0.015489 -0.021532 0.100821
vn -0.898955 0.293034 0.325594
v -0.024966 0.015636 0.107995
vn 0.646192 -0.746813 0.157182
v 0.033612 -0.021489 0.102074
# 127 vertices, 0 vertices normals

f 9//9 77//77 4//4
f 17//17 4//4 49//49
f 31//31 50//50 19//19
f 20//20 68//68 5//5
f 22//22 5//5 68//68
f 23//23 13//13 5//5
f 24//24 79//79 104//104
f 103//103 104//104 59//59
f 103//103 24//24 104//104
f 94//94 28//28 2//2
f 94//94 92//92 28//28
f 29//29 2//2 28//28
f 29//29 28//28 49//49
f 71//71 109//109 2//2
f 30//30 47//47 48//48
f 73//73 16//16 8//8
f 99//99 17//17 49//49
f 98//98 9//9 4//4
f 98//98 4//4 17//17
f 19//19 49//49 4//4
f 31//31 95//95 2//2
f 32//32 95//95 31//31
f 33//33 19//19 4//4
f 34//34 73//73 77//77
f 35//35 20//20 5//5
f 35//35 10//10 20//20
f 112//112 11//11 21//21
f 53//53 22//22 56//56
f 78//78 56//56 22//22
f 36//36 11//11 23//23
f 36//36 77//77 73//73
f 36//36 73//73 21//21
f 36//36 21//21 11//11
f 58//58 103//103 59//59
f 18//18 59//59 104//104
f 18//18 104//104 121//121
f 39//39 62//62 95//95
f 39//39 3//3 62//62
f 39//39 30//30 3//3
f 39//39 95//95 30//30
f 41//41 15//15 40//40
f 42//42 12//12 25//25
f 85//85 1//1 84//84
f 85//85 42//42 25//25
f 88//88 23//23 11//11
f 68//68 14//14 26//26
f 44//44 20//20 10//10
f 44//44 115//115 68//68
f 44//44 68//68 20//20
f 90//90 45//45 7//7
f 94//94 2//2 109//109
f 29//29 31//31 2//2
f 96//96 3//3 48//48
f 96//96 48//48 67//67
f 47//47 30//30 95//95
f 47//47 95//95 32//32
f 48//48 3//3 30//30
f 126//126 8//8 16//16
f 50//50 29//29 49//49
f 50//50 49//49 19//19
f 51//51 48//48 47//47
f 31//31 19//19 33//33
f 52//52 9//9 34//34
f 52//52 34//34 77//77
f 53//53 5//5 22//22
f 53//53 23//23 5//5
f 68//68 78//78 22//22
f 124//124 56//56 78//78
f 55//55 4//4 77//77
f 55//55 37//37 4//4
f 56//56 37//37 23//23
f 33//33 4//4 37//37
f 57//57 36//36 23//23
f 57//57 23//23 37//37
f 101//101 79//79 24//24
f 61//61 10//10 35//35
f 61//61 35//35 5//5
f 115//115 61//61 89//89
f 116//116 121//121 104//104
f 106//106 24//24 103//103
f 27//27 1//1 40//40
f 58//58 92//92 102//102
f 94//94 102//102 92//92
f 38//38 114//114 3//3
f 64//64 40//40 1//1
f 64//64 1//1 25//25
f 64//64 41//41 40//40
f 64//64 25//25 41//41
f 65//65 41//41 25//25
f 65//65 67//67 41//41
f 65//65 25//25 43//43
f 66//66 1//1 85//85
f 81//81 84//84 27//27
f 67//67 65//65 43//43
f 13//13 121//121 116//116
f 100//100 11//11 112//112
f 115//115 44//44 10//10
f 54//54 45//45 40//40
f 54//54 40//40 15//15
f 69//69 45//45 90//90
f 69//69 27//27 40//40
f 69//69 40//40 45//45
f 50//50 31//31 29//29
f 95//95 71//71 2//2
f 72//72 95//95 62//62
f 127//127 38//38 3//3
f 97//97 126//126 16//16
f 74//74 34//34 9//9
f 74//74 9//9 97//97
f 32//32 51//51 47//47
f 76//76 67//67 48//48
f 76//76 48//48 51//51
f 76//76 41//41 67//67
f 77//77 9//9 52//52
f 112//112 21//21 126//126
f 7//7 68//68 26//26
f 55//55 77//77 36//36
f 55//55 36//36 57//57
f 55//55 57//57 37//37
f 53//53 56//56 23//23
f 102//102 71//71 72//72
f 118//118 89//89 60//60
f 118//118 14//14 89//89
f 118//118 60//60 104//104
f 115//115 10//10 61//61
f 80//80 105//105 5//5
f 80//80 5//5 13//13
f 122//122 117//117 27//27
f 84//84 1//1 27//27
f 94//94 109//109 71//71
f 102//102 3//3 114//114
f 102//102 62//62 3//3
f 82//82 106//106 63//63
f 42//42 82//82 63//63
f 66//66 85//85 25//25
f 66//66 25//25 1//1
f 85//85 84//84 81//81
f 85//85 81//81 82//82
f 86//86 27//27 6//6
f 63//63 43//43 25//25
f 87//87 63//63 25//25
f 87//87 25//25 12//12
f 87//87 42//42 63//63
f 87//87 12//12 42//42
f 88//88 100//100 13//13
f 88//88 13//13 23//23
f 100//100 88//88 11//11
f 14//14 68//68 115//115
f 14//14 115//115 89//89
f 110//110 90//90 7//7
f 91//91 54//54 15//15
f 113//113 7//7 45//45
f 113//113 45//45 54//54
f 46//46 49//49 92//92
f 92//92 49//49 28//28
f 93//93 49//49 70//70
f 125//125 49//49 46//46
f 95//95 72//72 71//71
f 102//102 72//72 62//62
f 127//127 3//3 96//96
f 96//96 67//67 123//123
f 21//21 73//73 8//8
f 74//74 73//73 34//34
f 97//97 16//16 73//73
f 97//97 73//73 74//74
f 98//98 17//17 99//99
f 99//99 49//49 93//93
f 97//97 9//9 18//18
f 58//58 59//59 75//75
f 75//75 46//46 92//92
f 99//99 75//75 59//59
f 76//76 15//15 41//41
f 100//100 112//112 126//126
f 78//78 68//68 7//7
f 101//101 110//110 79//79
f 24//24 82//82 101//101
f 103//103 58//58 102//102
f 60//60 89//89 61//61
f 60//60 105//105 116//116
f 104//104 79//79 118//118
f 5//5 105//105 61//61
f 60//60 61//61 105//105
f 104//104 60//60 116//116
f 13//13 105//105 80//80
f 106//106 82//82 24//24
f 82//82 42//42 85//85
f 107//107 83//83 90//90
f 83//83 69//69 90//90
f 108//108 6//6 27//27
f 69//69 122//122 27//27
f 71//71 102//102 94//94
f 103//103 102//102 114//114
f 86//86 81//81 27//27
f 81//81 86//86 6//6
f 123//123 67//67 43//43
f 106//106 123//123 63//63
f 100//100 121//121 13//13
f 118//118 26//26 14//14
f 111//111 7//7 26//26
f 111//111 26//26 118//118
f 120//120 93//93 70//70
f 75//75 99//99 93//93
f 125//125 70//70 49//49
f 58//58 75//75 92//92
f 21//21 8//8 126//126
f 121//121 126//126 97//97
f 121//121 97//97 18//18
f 120//120 46//46 75//75
f 98//98 99//99 59//59
f 113//113 78//78 7//7
f 116//116 105//105 13//13
f 103//103 114//114 127//127
f 103//103 123//123 106//106
f 101//101 122//122 107//107
f 117//117 6//6 108//108
f 117//117 108//108 27//27
f 82//82 81//81 6//6
f 121//121 100//100 126//126
f 118//118 79//79 110//110
f 119//119 107//107 90//90
f 119//119 101//101 107//107
f 119//119 90//90 110//110
f 120//120 70//70 46//46
f 120//120 75//75 93//93
f 125//125 46//46 70//70
f 127//127 123//123 103//103
f 9//9 98//98 18//18
f 101//101 82//82 122//122
f 110//110 101//101 119//119
f 127//127 114//114 38//38
f 122//122 82//82 6//6
f 122//122 6//6 117//117
f 122//122 69//69 83//83
f 122//122 83//83 107//107
f 123//123 43//43 63//63
f 110//110 7//7 111//111
f 110//110 111//111 118//118
f 124//124 78//78 113//113
f 124//124 37//37 56//56
f 124//124 33//33 37//37
f 124//124 31//31 33//33
f 124//124 32//32 31//31
f 124//124 51//51 32//32
f 124//124 76//76 51//51
f 124//124 15//15 76//76
f 124//124 91//91 15//15
f 124//124 54//54 91//91
f 124//124 113//113 54//54
f 123//123 127//127 96//96
f 98//98 59//59 18//18
# 250 faces, 0 coords texture

# End of File
