####
#
# OBJ File Generated by Meshlab
#
####
# Object hunts_sauce_250_collision.obj
#
# Vertices: 127
# Faces: 250
#
####
vn 0.026925 -0.080108 -0.996423
v 0.010887 -0.006768 -0.000683
vn -0.033110 0.014636 -0.999345
v 0.004118 0.004511 -0.000937
vn -0.707700 -0.706282 -0.018068
v -0.016552 -0.021748 0.070578
vn 0.132304 0.073707 -0.988465
v 0.021094 0.005683 -0.000279
vn -0.299325 0.828697 -0.472932
v -0.002333 0.035723 0.010236
vn -0.044080 -0.244721 0.968591
v -0.002668 -0.023640 0.110580
vn -0.042306 -0.046606 0.998017
v 0.017980 0.001670 0.108856
vn 0.191668 0.981389 0.011804
v 0.014876 0.040561 0.093075
vn -0.093102 -0.992986 -0.072875
v 0.002515 -0.030377 0.021625
vn -0.338972 -0.335224 -0.879047
v -0.014857 -0.011621 0.002361
vn -0.075643 -0.277467 -0.957753
v 0.001221 -0.016072 0.001060
vn -0.293111 -0.581812 -0.758670
v -0.008279 -0.018914 0.004003
vn -0.524359 -0.214744 -0.823973
v -0.020290 -0.006268 0.003616
vn -0.129964 -0.089476 -0.987473
v -0.005051 -0.004977 -0.000107
vn -0.604854 0.079586 -0.792350
v -0.022264 0.004456 0.004428
vn -0.235507 -0.001312 -0.971872
v -0.014800 0.001466 0.000937
vn -0.605909 -0.625393 -0.491689
v -0.016452 -0.017775 0.008544
vn -0.657599 -0.739431 -0.144240
v -0.015647 -0.021673 0.016900
vn -0.264882 -0.869928 -0.416008
v -0.000686 -0.027228 0.010210
vn -0.907989 -0.239536 -0.343769
v -0.026251 -0.002825 0.009424
vn -0.993965 0.109678 0.002177
v -0.028806 0.007463 0.052857
vn -0.976511 -0.215384 -0.005941
v -0.027785 -0.001604 0.049564
vn -0.781033 -0.624068 -0.022947
v -0.021360 -0.017187 0.037050
vn -0.076244 -0.996931 -0.017764
v 0.003906 -0.029812 0.040411
vn -0.918484 -0.391874 -0.053129
v -0.025616 -0.008360 0.029068
vn -0.427595 -0.903885 -0.012440
v -0.010603 -0.026234 0.045632
vn -0.110987 -0.993602 -0.020899
v 0.004671 -0.030883 0.059577
vn -0.908446 -0.417970 0.005215
v -0.025050 -0.009965 0.064535
vn -0.309655 -0.950735 -0.014746
v -0.002668 -0.029450 0.079590
vn -0.904931 -0.422395 -0.051802
v -0.024735 -0.011001 0.086374
vn -0.182213 -0.978482 0.096803
v 0.000382 -0.031198 0.099981
vn -0.579073 -0.808769 0.102797
v -0.016232 -0.023384 0.103546
vn -0.445927 -0.697497 0.560935
v -0.014324 -0.022455 0.109683
vn -0.884998 -0.438334 0.156977
v -0.025401 -0.012692 0.099910
vn -0.838973 -0.252050 0.482281
v -0.026047 -0.005057 0.106769
vn -0.388094 -0.262660 0.883399
v -0.015454 -0.017219 0.112172
vn -0.491970 -0.057954 0.868681
v -0.023556 0.001789 0.111285
vn 0.095449 -0.008160 0.995401
v -0.011299 0.002655 0.109326
vn -0.843461 0.265140 -0.467199
v -0.022334 0.014910 0.007434
vn -0.343968 0.201204 -0.917171
v -0.012304 0.017451 0.001744
vn -0.093342 0.082836 -0.992182
v -0.004270 0.009817 -0.000192
vn -0.130918 0.242875 -0.961183
v -0.004758 0.023921 0.001739
vn -0.617936 0.455705 -0.640694
v -0.017988 0.021998 0.006115
vn -0.387453 0.583859 -0.713434
v -0.008133 0.028930 0.004599
vn 0.002446 0.139122 -0.990272
v 0.010339 0.016837 -0.000084
vn -0.097786 0.454644 -0.885289
v 0.003109 0.030834 0.003160
vn -0.702486 0.669062 -0.242630
v -0.020072 0.024836 0.015260
vn -0.905737 0.418582 -0.066547
v -0.026230 0.018395 0.032411
vn -0.514558 0.857283 -0.017230
v -0.010301 0.034777 0.034258
vn -0.365407 0.922062 -0.127594
v -0.004830 0.036956 0.017129
vn -0.995628 -0.018259 -0.091609
v -0.027874 0.000889 0.019283
vn -0.074029 0.996812 -0.029775
v 0.004940 0.039434 0.043480
vn -0.999850 -0.011963 -0.012495
v -0.028882 0.003226 0.082628
vn -0.858557 0.511762 -0.031301
v -0.022784 0.023088 0.073203
vn -0.828140 0.560432 0.009988
v -0.024615 0.020308 0.052760
vn -0.513119 0.857735 -0.031602
v -0.007749 0.037263 0.077231
vn -0.756584 0.653868 -0.006163
v -0.022086 0.025447 0.089469
vn -0.386587 0.921945 -0.023835
v -0.007818 0.036450 0.061580
vn -0.024671 0.999201 -0.031427
v 0.007724 0.040558 0.077121
vn -0.963519 -0.044218 0.263963
v -0.029342 0.002971 0.101090
vn -0.875381 0.405600 0.263053
v -0.025865 0.018449 0.104976
vn -0.509886 0.058071 0.858280
v -0.024080 0.009066 0.111545
vn -0.237300 0.197353 0.951179
v -0.014284 0.022430 0.112507
vn -0.565105 0.749381 0.345087
v -0.012943 0.033846 0.102871
vn -0.198874 0.532024 0.823043
v -0.003202 0.031654 0.111699
vn -0.191949 0.949157 0.249512
v 0.002483 0.040212 0.104524
vn -0.073232 -0.654101 -0.752854
v 0.007175 -0.023899 0.003759
vn 0.200844 -0.890183 -0.408946
v 0.017822 -0.027265 0.009286
vn 0.154877 -0.525348 -0.836673
v 0.016006 -0.022767 0.003327
vn 0.597217 -0.601239 -0.530890
v 0.033264 -0.015328 0.005857
vn 0.157501 -0.234305 -0.959320
v 0.018027 -0.015457 0.000744
vn 0.623656 -0.157789 -0.765608
v 0.036670 -0.003684 0.003438
vn 0.193158 -0.039119 -0.980388
v 0.027735 -0.000484 0.000837
vn 0.786817 -0.616164 -0.035494
v 0.035986 -0.016427 0.026946
vn 0.919561 -0.357256 -0.163635
v 0.040947 -0.009019 0.017931
vn 0.137903 -0.990238 -0.020284
v 0.010427 -0.030578 0.056454
vn 0.462922 -0.880411 -0.102860
v 0.023847 -0.026005 0.015726
vn 0.242830 -0.969679 -0.027517
v 0.017788 -0.029219 0.037438
vn 0.568130 -0.822466 -0.027906
v 0.028048 -0.023879 0.045183
vn 0.977260 -0.211771 -0.010779
v 0.042258 -0.003334 0.027306
vn 0.404984 -0.914287 -0.008231
v 0.021261 -0.028134 0.053265
vn 0.806100 -0.590920 -0.031886
v 0.035983 -0.017322 0.045771
vn 0.648539 -0.761032 -0.015121
v 0.034240 -0.020235 0.074398
vn 0.940113 -0.338815 -0.037300
v 0.041756 -0.006006 0.050128
vn 0.078194 -0.996719 -0.020926
v 0.012043 -0.030752 0.084198
vn 0.396161 -0.918041 -0.016068
v 0.022880 -0.027528 0.078707
vn 0.871639 -0.490147 -0.001221
v 0.038739 -0.014294 0.078391
vn 0.952678 -0.303913 -0.006368
v 0.044050 -0.003646 0.071826
vn 0.282855 -0.921616 0.265737
v 0.018214 -0.030328 0.104198
vn -0.072336 -0.833656 0.547526
v 0.006827 -0.030745 0.106144
vn 0.050819 -0.377587 0.924579
v 0.014128 -0.023771 0.112824
vn 0.311672 -0.424897 0.849896
v 0.027689 -0.019031 0.111454
vn -0.036899 0.109010 0.993356
v 0.008133 -0.007384 0.108909
vn 0.657565 -0.734789 0.166412
v 0.034248 -0.020570 0.101109
vn 0.920769 -0.368090 0.129203
v 0.042669 -0.008935 0.099035
vn 0.663452 -0.493299 0.562572
v 0.033500 -0.016910 0.109434
vn 0.234122 -0.063404 0.970138
v 0.036580 -0.005816 0.111317
vn 0.986106 0.055153 0.156695
v 0.044805 0.005055 0.099658
vn 0.477428 0.135344 -0.868184
v 0.035301 0.009816 0.003219
vn 0.499219 0.338358 -0.797680
v 0.032308 0.018468 0.004132
vn 0.111859 0.222913 -0.968399
v 0.015093 0.026920 0.001885
vn 0.149621 0.651905 -0.743393
v 0.014768 0.033226 0.003883
vn 0.935638 0.094425 -0.340095
v 0.042441 0.008649 0.012214
vn 0.858384 0.448199 -0.249590
v 0.039129 0.020077 0.013746
vn 0.972448 0.230802 -0.032798
v 0.043110 0.009088 0.033481
vn 0.050251 0.970941 -0.233984
v 0.009777 0.039560 0.014593
vn 0.553129 0.786238 -0.275458
v 0.029702 0.031305 0.011764
vn 0.043211 0.999064 -0.002130
v 0.008979 0.039363 0.025231
vn 0.804960 0.593006 -0.019572
v 0.034811 0.026795 0.029924
vn 0.133787 0.990715 -0.024186
v 0.012395 0.040340 0.060960
vn 0.840708 0.540232 -0.036887
v 0.039403 0.022125 0.055094
vn 0.465526 0.884592 -0.027980
v 0.025876 0.035425 0.038860
vn 0.571143 0.819936 -0.038729
v 0.028007 0.033984 0.058841
vn 0.997230 0.071598 -0.020133
v 0.044340 0.007358 0.053241
vn 0.998683 -0.014733 -0.049142
v 0.044650 0.002894 0.083939
vn 0.838606 0.543533 -0.036208
v 0.037441 0.026539 0.072106
vn 0.447912 0.893869 -0.019288
v 0.026257 0.035904 0.075912
vn 0.878353 0.473981 -0.061954
v 0.041104 0.020042 0.080519
vn 0.671266 0.740354 0.035748
v 0.029698 0.033256 0.084430
vn 0.636027 0.712053 0.297404
v 0.031537 0.031128 0.106468
vn 0.709954 0.311697 0.631514
v 0.037561 0.022083 0.108839
vn 0.460822 0.851667 0.249612
v 0.023722 0.036961 0.102634
vn 0.924132 0.379943 0.040284
v 0.042782 0.018433 0.091895
vn 0.231214 0.029755 0.972448
v 0.035601 0.008424 0.111238
vn 0.799684 -0.108889 0.590464
v 0.042612 -0.001379 0.107287
vn 0.176539 0.289257 0.940832
v 0.020969 0.029430 0.111867
vn 0.174495 0.817619 0.548681
v 0.014948 0.039359 0.107895
# 127 vertices, 0 vertices normals

f 17//17 12//12 19//19
f 12//12 17//17 10//10
f 19//19 12//12 67//67
f 67//67 11//11 69//69
f 12//12 11//11 67//67
f 11//11 12//12 10//10
f 11//11 71//71 69//69
f 11//11 1//1 71//71
f 17//17 20//20 13//13
f 17//17 13//13 10//10
f 13//13 14//14 10//10
f 14//14 13//13 16//16
f 13//13 15//15 16//16
f 15//15 13//13 20//20
f 20//20 39//39 15//15
f 1//1 14//14 2//2
f 14//14 11//11 10//10
f 14//14 1//1 11//11
f 2//2 14//14 16//16
f 16//16 41//41 2//2
f 9//9 18//18 19//19
f 19//19 18//18 17//17
f 20//20 17//17 18//18
f 18//18 25//25 20//20
f 18//18 23//23 25//25
f 9//9 19//19 68//68
f 18//18 9//9 26//26
f 25//25 51//51 20//20
f 76//76 27//27 24//24
f 22//22 51//51 25//25
f 21//21 48//48 51//51
f 21//21 51//51 22//22
f 22//22 25//25 28//28
f 26//26 23//23 18//18
f 26//26 9//9 24//24
f 26//26 3//3 23//23
f 28//28 23//23 3//3
f 26//26 24//24 27//27
f 26//26 27//27 29//29
f 29//29 3//3 26//26
f 23//23 28//28 25//25
f 21//21 22//22 53//53
f 53//53 22//22 28//28
f 53//53 28//28 30//30
f 3//3 30//30 28//28
f 34//34 30//30 3//3
f 3//3 29//29 32//32
f 34//34 3//3 32//32
f 32//32 29//29 31//31
f 31//31 29//29 85//85
f 53//53 30//30 34//34
f 60//60 53//53 34//34
f 35//35 60//60 34//34
f 35//35 37//37 60//60
f 33//33 34//34 32//32
f 33//33 36//36 34//34
f 33//33 32//32 31//31
f 90//90 33//33 31//31
f 90//90 6//6 33//33
f 36//36 33//33 6//6
f 90//90 91//91 6//6
f 38//38 36//36 6//6
f 6//6 91//91 93//93
f 35//35 34//34 36//36
f 37//37 35//35 36//36
f 37//37 36//36 38//38
f 38//38 6//6 93//93
f 7//7 38//38 93//93
f 15//15 40//40 16//16
f 40//40 41//41 16//16
f 39//39 40//40 15//15
f 39//39 43//43 40//40
f 41//41 45//45 2//2
f 41//41 40//40 42//42
f 41//41 42//42 45//45
f 44//44 40//40 43//43
f 42//42 40//40 44//44
f 44//44 46//46 42//42
f 46//46 45//45 42//42
f 101//101 45//45 46//46
f 5//5 46//46 44//44
f 46//46 5//5 102//102
f 39//39 20//20 51//51
f 51//51 48//48 39//39
f 47//47 43//43 39//39
f 47//47 39//39 48//48
f 44//44 43//43 47//47
f 5//5 44//44 47//47
f 49//49 47//47 48//48
f 50//50 5//5 47//47
f 5//5 50//50 106//106
f 50//50 47//47 49//49
f 108//108 106//106 50//50
f 50//50 49//49 108//108
f 21//21 55//55 48//48
f 48//48 55//55 49//49
f 108//108 49//49 52//52
f 49//49 55//55 58//58
f 49//49 58//58 52//52
f 110//110 52//52 58//58
f 55//55 21//21 53//53
f 54//54 55//55 53//53
f 60//60 61//61 53//53
f 61//61 54//54 53//53
f 54//54 56//56 55//55
f 58//58 55//55 56//56
f 59//59 58//58 56//56
f 61//61 57//57 54//54
f 57//57 56//56 54//54
f 64//64 56//56 57//57
f 58//58 59//59 110//110
f 59//59 56//56 66//66
f 8//8 59//59 66//66
f 66//66 56//56 64//64
f 60//60 37//37 62//62
f 61//61 60//60 62//62
f 37//37 38//38 62//62
f 63//63 62//62 38//38
f 38//38 7//7 63//63
f 126//126 63//63 7//7
f 64//64 57//57 61//61
f 61//61 63//63 64//64
f 62//62 63//63 61//61
f 65//65 64//64 63//63
f 126//126 65//65 63//63
f 64//64 65//65 66//66
f 65//65 126//126 127//127
f 66//66 65//65 127//127
f 68//68 19//19 67//67
f 69//69 68//68 67//67
f 69//69 71//71 70//70
f 68//68 69//69 70//70
f 4//4 1//1 2//2
f 1//1 73//73 71//71
f 1//1 4//4 73//73
f 72//72 70//70 71//71
f 73//73 72//72 71//71
f 72//72 73//73 99//99
f 77//77 9//9 68//68
f 77//77 68//68 70//70
f 74//74 77//77 70//70
f 75//75 74//74 70//70
f 72//72 75//75 70//70
f 75//75 72//72 103//103
f 80//80 75//75 103//103
f 80//80 103//103 105//105
f 24//24 78//78 76//76
f 9//9 77//77 78//78
f 24//24 9//9 78//78
f 79//79 78//78 77//77
f 79//79 77//77 74//74
f 79//79 74//74 82//82
f 74//74 75//75 80//80
f 80//80 84//84 74//74
f 84//84 82//82 74//74
f 114//114 84//84 80//80
f 114//114 80//80 105//105
f 76//76 78//78 81//81
f 79//79 81//81 78//78
f 79//79 82//82 83//83
f 83//83 82//82 87//87
f 29//29 27//27 85//85
f 85//85 27//27 76//76
f 86//86 85//85 76//76
f 76//76 81//81 86//86
f 81//81 79//79 83//83
f 81//81 83//83 86//86
f 82//82 84//84 88//88
f 87//87 82//82 88//88
f 115//115 87//87 88//88
f 85//85 86//86 89//89
f 94//94 86//86 83//83
f 83//83 87//87 94//94
f 87//87 115//115 95//95
f 95//95 94//94 87//87
f 84//84 114//114 88//88
f 31//31 85//85 89//89
f 89//89 90//90 31//31
f 90//90 89//89 91//91
f 91//91 89//89 92//92
f 91//91 92//92 93//93
f 97//97 93//93 92//92
f 89//89 86//86 94//94
f 96//96 94//94 95//95
f 89//89 94//94 92//92
f 96//96 92//92 94//94
f 96//96 97//97 92//92
f 7//7 93//93 97//97
f 125//125 96//96 95//95
f 7//7 97//97 124//124
f 97//97 96//96 125//125
f 124//124 97//97 125//125
f 95//95 115//115 98//98
f 98//98 125//125 95//95
f 45//45 4//4 2//2
f 101//101 4//4 45//45
f 99//99 73//73 4//4
f 4//4 100//100 99//99
f 72//72 99//99 103//103
f 103//103 99//99 100//100
f 100//100 4//4 101//101
f 100//100 101//101 102//102
f 100//100 102//102 107//107
f 102//102 101//101 46//46
f 107//107 102//102 106//106
f 104//104 103//103 100//100
f 105//105 103//103 104//104
f 105//105 104//104 109//109
f 102//102 5//5 106//106
f 107//107 106//106 108//108
f 112//112 107//107 108//108
f 104//104 100//100 107//107
f 107//107 109//109 104//104
f 109//109 107//107 112//112
f 114//114 105//105 111//111
f 111//111 105//105 109//109
f 111//111 116//116 114//114
f 113//113 112//112 110//110
f 112//112 111//111 109//109
f 111//111 112//112 113//113
f 113//113 116//116 111//111
f 52//52 112//112 108//108
f 110//110 112//112 52//52
f 115//115 114//114 116//116
f 115//115 116//116 118//118
f 113//113 110//110 117//117
f 116//116 113//113 117//117
f 118//118 116//116 119//119
f 119//119 116//116 117//117
f 119//119 117//117 122//122
f 122//122 117//117 8//8
f 120//120 118//118 119//119
f 123//123 118//118 120//120
f 123//123 120//120 121//121
f 122//122 120//120 119//119
f 88//88 114//114 115//115
f 115//115 118//118 123//123
f 115//115 123//123 98//98
f 59//59 117//117 110//110
f 117//117 59//59 8//8
f 122//122 8//8 127//127
f 126//126 7//7 124//124
f 125//125 98//98 121//121
f 121//121 126//126 124//124
f 121//121 124//124 125//125
f 127//127 126//126 122//122
f 126//126 120//120 122//122
f 121//121 120//120 126//126
f 98//98 123//123 121//121
f 127//127 8//8 66//66
# 250 faces, 0 coords texture

# End of File
