####
#
# OBJ File Generated by Meshlab
#
####
# Object advil_liqui_gels_250_collision.obj
#
# Vertices: 73
# Faces: 142
#
####
vn -0.108734 -6.135041 -0.068274
v 0.009512 -0.050307 0.021242
vn -0.331254 5.913595 0.272710
v -0.004946 0.060352 0.039487
vn -4.741415 -1.377979 -2.065023
v -0.043115 0.027014 0.007632
vn 3.136354 0.098094 -4.723151
v 0.043311 -0.020527 0.003631
vn -2.534534 -0.641336 5.080196
v -0.034997 0.027661 0.055235
vn 1.855062 3.456236 -3.362594
v 0.000055 0.055960 0.004123
vn -1.087853 -1.742888 -5.329838
v 0.004647 -0.040951 0.001096
vn -3.973076 4.391075 0.683197
v -0.038446 0.043242 0.044173
vn 2.619386 -1.052375 4.287235
v 0.044059 -0.027678 0.054511
vn -4.766830 -2.968180 2.191956
v -0.003291 -0.038355 0.048556
vn 2.440963 -4.277208 -2.667506
v 0.029214 -0.040723 0.005790
vn 1.999892 1.118660 -5.281481
v 0.018205 0.023268 0.001293
vn -0.060312 2.544454 5.047102
v -0.008818 0.053156 0.054497
vn -5.540820 -0.915510 0.894972
v -0.043433 0.029677 0.042303
vn -3.538449 2.924966 -2.286575
v -0.039528 0.040965 0.006362
vn 5.330697 3.099103 0.834073
v 0.012864 0.044457 0.045205
vn -4.661124 -3.313788 -1.306349
v -0.005582 -0.041247 0.010260
vn -0.622574 -0.645722 6.152188
v 0.008606 -0.033225 0.056007
vn 1.670588 -1.544184 -5.229081
v 0.036325 -0.030793 0.001788
vn 1.373592 -4.637444 -2.347434
v 0.014287 -0.048751 0.006237
vn 3.335363 -5.256288 0.181526
v 0.038896 -0.036709 0.040881
vn -2.222903 3.691233 3.656091
v -0.026105 0.047428 0.053706
vn -3.757166 1.778697 2.446573
v -0.040901 0.039049 0.050258
vn -4.691241 -1.509693 3.155562
v -0.039299 0.027753 0.051279
vn -0.292830 5.094048 -1.426080
v -0.006970 0.059889 0.008530
vn -2.518732 0.317530 -4.587479
v -0.038211 0.032214 0.001425
vn -5.432609 0.896505 -1.172298
v -0.044047 0.032682 0.010240
vn 3.439597 4.574414 -0.054381
v 0.005370 0.057674 0.030978
vn 5.757646 1.184616 0.363701
v 0.047753 -0.017185 0.038824
vn 2.489175 1.563314 5.195714
v 0.010435 0.040686 0.052871
vn 3.004108 2.984103 2.863797
v 0.005707 0.054520 0.050016
vn -3.175124 -4.747468 0.839585
v 0.002635 -0.048163 0.043263
vn -3.461565 -2.123726 -4.448644
v -0.004989 -0.034080 0.003512
vn -4.967093 -3.727091 0.451084
v -0.002322 -0.044079 0.029512
vn -1.620636 -3.124191 3.586783
v 0.005589 -0.046299 0.053244
vn -1.121601 1.147817 5.697663
v -0.026072 0.040829 0.056650
vn -1.644389 -4.632335 -2.227215
v 0.004749 -0.048803 0.006714
vn -0.080409 -3.626971 -4.295377
v 0.009301 -0.047488 0.003844
vn 3.765384 -2.598865 -2.224261
v 0.043228 -0.031425 0.006422
vn 2.030662 -5.825725 -0.197245
v 0.015200 -0.049287 0.019497
vn -1.414517 5.063877 2.437658
v -0.009834 0.057642 0.049551
vn -4.549470 3.989050 -0.097345
v -0.039521 0.042004 0.029618
vn -2.755290 5.475832 0.720554
v -0.018445 0.055090 0.043272
vn -0.558512 2.742922 -4.466300
v -0.009321 0.054997 0.002080
vn 3.988172 4.072050 -1.141915
v 0.006869 0.054198 0.011894
vn 5.560558 2.899284 -0.137139
v 0.045162 -0.012276 0.028726
vn 1.112604 0.546619 6.050060
v 0.032015 -0.013087 0.055943
vn 1.236973 4.388611 2.387302
v -0.000253 0.058901 0.049045
vn 4.924025 2.094766 2.492495
v 0.044420 -0.014039 0.048847
vn -4.479777 -2.556555 -3.562913
v -0.016689 -0.015941 0.005152
vn -2.942390 -5.152165 -0.080686
v 0.001299 -0.048550 0.018885
vn -3.934619 -3.624928 2.705538
v 0.003789 -0.045695 0.051738
vn 0.794404 -3.123626 3.931329
v 0.014543 -0.045236 0.054612
vn -3.428348 -3.713387 -2.684706
v -0.000835 -0.045003 0.006971
vn 3.486967 -5.197032 -0.291218
v 0.037806 -0.036504 0.021534
vn 4.735929 0.852216 -1.970882
v 0.046780 -0.017435 0.007666
vn 5.885396 -1.855074 -0.069033
v 0.046184 -0.029616 0.038909
vn -2.469616 3.919883 -2.750198
v -0.027507 0.048967 0.005325
vn 1.819977 1.193035 -5.455077
v 0.010674 0.037077 0.001652
vn 3.226095 1.739958 4.824273
v 0.036644 -0.006555 0.053026
vn 0.346761 -0.476054 6.218219
v 0.025209 -0.028995 0.056252
vn 4.463513 -0.517366 2.440303
v 0.046356 -0.026754 0.052354
vn -4.621655 -2.638717 -3.315819
v -0.033658 0.011041 0.007159
vn 0.113973 -5.517704 1.425064
v 0.009943 -0.049707 0.047230
vn 2.283549 -3.745832 3.565002
v 0.037669 -0.034741 0.053208
vn 5.706263 -2.083063 -0.295967
v 0.046133 -0.028717 0.024208
vn 4.234155 -3.406945 1.082752
v 0.045120 -0.032204 0.047866
vn -2.903803 5.568601 -0.188541
v -0.014009 0.056761 0.024027
vn 3.448136 2.548080 -3.788948
v 0.007302 0.048173 0.004061
vn 2.146131 -5.695950 0.595122
v 0.017377 -0.048539 0.040692
vn 4.406381 2.441560 -3.609985
v 0.027721 0.013591 0.005172
vn 2.718764 -5.405342 1.545506
v 0.026823 -0.042223 0.047632
vn 4.460831 2.456219 -3.332414
v 0.036823 -0.001199 0.006299
# 73 vertices, 0 vertices normals

f 17//17 14//14 3//3
f 19//19 12//12 4//4
f 19//19 7//7 12//12
f 23//23 22//22 8//8
f 24//24 14//14 10//10
f 24//24 23//23 14//14
f 24//24 5//5 23//23
f 26//26 12//12 7//7
f 27//27 3//3 14//14
f 27//27 26//26 3//3
f 27//27 15//15 26//26
f 27//27 14//14 23//23
f 28//28 25//25 2//2
f 31//31 16//16 28//28
f 31//31 13//13 30//30
f 33//33 26//26 7//7
f 33//33 3//3 26//26
f 34//34 10//10 14//14
f 34//34 14//14 17//17
f 34//34 32//32 10//10
f 35//35 18//18 5//5
f 35//35 5//5 24//24
f 36//36 5//5 18//18
f 36//36 13//13 22//22
f 36//36 23//23 5//5
f 36//36 22//22 23//23
f 37//37 20//20 1//1
f 38//38 19//19 11//11
f 38//38 11//11 20//20
f 38//38 7//7 19//19
f 38//38 37//37 7//7
f 38//38 20//20 37//37
f 39//39 11//11 19//19
f 39//39 19//19 4//4
f 40//40 20//20 11//11
f 40//40 1//1 20//20
f 41//41 22//22 13//13
f 42//42 23//23 8//8
f 42//42 27//27 23//23
f 42//42 15//15 27//27
f 43//43 2//2 25//25
f 43//43 41//41 2//2
f 43//43 8//8 22//22
f 43//43 22//22 41//41
f 44//44 25//25 6//6
f 44//44 12//12 26//26
f 45//45 6//6 25//25
f 45//45 25//25 28//28
f 46//46 28//28 16//16
f 46//46 16//16 29//29
f 46//46 45//45 28//28
f 47//47 30//30 13//13
f 47//47 13//13 36//36
f 48//48 31//31 28//28
f 48//48 28//28 2//2
f 48//48 2//2 41//41
f 48//48 41//41 13//13
f 48//48 13//13 31//31
f 49//49 29//29 16//16
f 49//49 16//16 31//31
f 50//50 33//33 17//17
f 50//50 3//3 33//33
f 51//51 34//34 17//17
f 51//51 32//32 34//34
f 51//51 37//37 1//1
f 52//52 35//35 24//24
f 52//52 24//24 10//10
f 52//52 10//10 32//32
f 52//52 32//32 35//35
f 53//53 18//18 35//35
f 54//54 33//33 7//7
f 54//54 7//7 37//37
f 54//54 17//17 33//33
f 54//54 51//51 17//17
f 54//54 37//37 51//51
f 55//55 39//39 21//21
f 55//55 11//11 39//39
f 55//55 40//40 11//11
f 55//55 21//21 40//40
f 56//56 39//39 4//4
f 56//56 46//46 29//29
f 56//56 45//45 46//46
f 56//56 4//4 12//12
f 58//58 42//42 8//8
f 58//58 8//8 43//43
f 58//58 15//15 42//42
f 58//58 25//25 44//44
f 58//58 44//44 26//26
f 58//58 26//26 15//15
f 59//59 44//44 6//6
f 59//59 12//12 44//44
f 60//60 47//47 9//9
f 60//60 30//30 47//47
f 60//60 49//49 31//31
f 60//60 31//31 30//30
f 61//61 47//47 36//36
f 61//61 36//36 18//18
f 61//61 9//9 47//47
f 61//61 53//53 9//9
f 61//61 18//18 53//53
f 62//62 29//29 49//49
f 62//62 60//60 9//9
f 62//62 49//49 60//60
f 62//62 57//57 29//29
f 63//63 50//50 17//17
f 63//63 17//17 3//3
f 63//63 3//3 50//50
f 64//64 51//51 1//1
f 64//64 32//32 51//51
f 64//64 53//53 35//35
f 64//64 35//35 32//32
f 65//65 9//9 53//53
f 66//66 56//56 29//29
f 66//66 29//29 57//57
f 66//66 39//39 56//56
f 67//67 21//21 39//39
f 67//67 57//57 62//62
f 67//67 66//66 57//57
f 67//67 39//39 66//66
f 67//67 62//62 9//9
f 67//67 9//9 65//65
f 68//68 58//58 43//43
f 68//68 43//43 25//25
f 68//68 25//25 58//58
f 69//69 59//59 6//6
f 69//69 6//6 45//45
f 69//69 45//45 56//56
f 69//69 12//12 59//59
f 70//70 64//64 1//1
f 70//70 1//1 40//40
f 70//70 40//40 21//21
f 70//70 21//21 67//67
f 71//71 12//12 69//69
f 72//72 70//70 67//67
f 72//72 67//67 65//65
f 72//72 65//65 53//53
f 72//72 53//53 64//64
f 72//72 64//64 70//70
f 73//73 12//12 71//71
f 73//73 71//71 69//69
f 73//73 69//69 56//56
f 73//73 56//56 12//12
# 142 faces, 0 coords texture

# End of File
