####
#
# OBJ File Generated by Meshlab
#
####
# Object advil_liqui_gels_250_collision.obj
#
# Vertices: 127
# Faces: 250
#
####
vn 0.027973 0.000959 0.999608
v 0.002272 0.004656 -0.005339
vn 0.273791 0.871480 0.406892
v 0.004749 -0.048803 0.006714
vn 0.604121 0.631972 0.485437
v -0.000835 -0.045003 0.006971
vn -0.144350 -0.071159 0.986965
v 0.020170 0.000887 -0.004355
vn -0.989784 -0.139669 -0.028642
v 0.047753 -0.017185 0.038824
vn -0.835263 -0.490714 -0.248063
v 0.026740 0.017897 0.043404
vn 0.449718 0.166074 -0.877595
v 0.001251 -0.033031 0.053665
vn 0.165023 0.026924 -0.985922
v 0.008606 -0.033225 0.056007
vn -0.115817 -0.039456 -0.992487
v -0.002152 0.043695 0.054035
vn -0.555658 -0.506999 -0.658936
v 0.005707 0.054520 0.050016
vn 0.650739 0.414458 0.636211
v -0.004989 -0.034080 0.003512
vn 0.803694 0.558102 0.206393
v -0.005582 -0.041247 0.010260
vn 0.535341 0.844085 0.030500
v 0.001299 -0.048550 0.018885
vn 0.455830 0.286813 0.842590
v -0.009056 -0.019552 -0.000499
vn 0.313679 0.273553 0.909271
v -0.001084 -0.029000 -0.000956
vn 0.111486 0.122546 0.986181
v 0.001136 -0.014464 -0.004334
vn 0.888903 0.445597 0.106277
v -0.013875 -0.024027 0.011070
vn 0.799125 0.444885 0.404322
v -0.016689 -0.015941 0.005152
vn 0.522722 0.283006 0.804158
v -0.019688 -0.002940 0.000472
vn 0.229469 0.112296 0.966816
v -0.005966 -0.007251 -0.004093
vn 0.872152 0.488716 -0.022545
v -0.021258 -0.008813 0.020949
vn 0.831940 0.549626 -0.076076
v -0.002322 -0.044079 0.029512
vn 0.648177 0.456708 -0.609331
v 0.003789 -0.045695 0.051738
vn 0.796867 0.457071 -0.395082
v -0.003291 -0.038355 0.048556
vn 0.876250 0.462217 -0.136164
v -0.012777 -0.022614 0.034800
vn 0.595005 0.281048 -0.752982
v -0.012189 -0.016323 0.050872
vn 0.715338 0.428871 -0.551690
v -0.019044 -0.004883 0.048468
vn 0.360660 0.103879 -0.926895
v -0.004433 -0.026082 0.052248
vn 0.070083 0.013452 -0.997451
v -0.002132 -0.006885 0.052687
vn 0.813906 0.474543 0.335212
v -0.033658 0.011041 0.007159
vn 0.583180 -0.077408 0.808646
v -0.038211 0.032214 0.001425
vn 0.955083 -0.226447 0.191147
v -0.044047 0.032682 0.010240
vn 0.884460 0.314787 0.344442
v -0.043115 0.027014 0.007632
vn 0.850467 0.521178 -0.071277
v -0.037482 0.018557 0.029202
vn 0.731149 -0.682071 0.014135
v -0.039521 0.042004 0.029618
vn 0.495522 0.243793 0.833681
v -0.027540 0.012263 0.000254
vn 0.271014 0.112387 0.955992
v -0.019416 0.009901 -0.002073
vn 0.113016 0.000127 0.993593
v -0.010876 0.016442 -0.003979
vn 0.218918 0.000309 0.975743
v -0.027822 0.029767 -0.001763
vn 0.037115 -0.127058 0.991201
v -0.013358 0.031873 -0.003419
vn 0.284921 -0.325981 0.901419
v -0.026326 0.041763 -0.000413
vn -0.182454 -0.323416 0.928500
v -0.001716 0.050395 0.000413
vn -0.253111 -0.239363 0.937358
v 0.003406 0.033761 -0.002358
vn 0.692732 -0.536478 0.481990
v -0.039528 0.040965 0.006362
vn 0.140503 -0.362960 0.921151
v -0.015504 0.046908 -0.000872
vn 0.453963 -0.774154 0.441139
v -0.027507 0.048967 0.005325
vn 0.101704 -0.627510 0.771938
v -0.009321 0.054997 0.002080
vn -0.362223 -0.697632 0.618146
v 0.000055 0.055960 0.004123
vn 0.081429 -0.976197 0.201019
v -0.006970 0.059889 0.008530
vn 0.498160 -0.866728 0.024878
v -0.027536 0.049117 0.017284
vn 0.426894 -0.904155 0.016299
v -0.014009 0.056761 0.024027
vn 0.945703 0.287702 -0.151237
v -0.043433 0.029677 0.042303
vn 0.812865 -0.345607 -0.468834
v -0.040901 0.039049 0.050258
vn 0.785244 0.321597 -0.529120
v -0.039299 0.027753 0.051279
vn 0.480684 0.241571 -0.842963
v -0.034997 0.027661 0.055235
vn 0.845423 0.511019 -0.155308
v -0.029617 0.007854 0.040338
vn 0.746800 0.539687 -0.388623
v -0.034489 0.018060 0.046678
vn 0.143532 0.122750 -0.982004
v -0.017270 0.009947 0.053838
vn 0.132028 -0.131473 -0.982488
v -0.026072 0.040829 0.056650
vn 0.230336 0.271032 -0.934605
v -0.027352 0.019374 0.054267
vn 0.597793 -0.793406 -0.114680
v -0.038446 0.043242 0.044173
vn 0.409876 -0.699328 -0.585613
v -0.026105 0.047428 0.053706
vn 0.444026 -0.890792 -0.096594
v -0.018445 0.055090 0.043272
vn 0.259226 -0.876567 -0.405502
v -0.009834 0.057642 0.049551
vn 0.124157 -0.991007 -0.049907
v -0.004946 0.060352 0.039487
vn -0.615827 -0.787868 -0.004627
v 0.005370 0.057674 0.030978
vn -0.019046 -0.441075 -0.897268
v -0.008818 0.053156 0.054497
vn 0.329261 0.435087 0.838025
v 0.004647 -0.040951 0.001096
vn 0.054159 0.289635 0.955604
v 0.011619 -0.036482 -0.001521
vn -0.215724 0.431499 0.875940
v 0.021316 -0.037314 -0.000406
vn 0.024944 0.610715 0.791458
v 0.009301 -0.047488 0.003844
vn -0.475951 0.799355 0.366745
v 0.029214 -0.040723 0.005790
vn -0.409865 0.365084 0.835897
v 0.036325 -0.030793 0.001788
vn -0.207237 0.896495 0.391598
v 0.014287 -0.048751 0.006237
vn 0.049515 0.998577 0.019799
v 0.009512 -0.050307 0.021242
vn -0.302445 0.952936 0.020993
v 0.015200 -0.049287 0.019497
vn -0.582833 0.811650 0.039118
v 0.037806 -0.036504 0.021534
vn -0.068365 0.132416 0.988834
v 0.020049 -0.021537 -0.004334
vn -0.301392 0.180387 0.936282
v 0.031865 -0.024829 -0.001371
vn -0.312912 -0.027866 0.949373
v 0.027143 -0.013653 -0.004332
vn -0.578000 -0.237339 0.780760
v 0.035156 -0.009617 -0.000219
vn -0.803686 -0.479062 0.352971
v 0.036823 -0.001199 0.006299
vn -0.741627 0.514225 0.430769
v 0.043228 -0.031425 0.006422
vn -0.913910 -0.140320 0.380893
v 0.046780 -0.017435 0.007666
vn -0.563737 0.055618 0.824080
v 0.043311 -0.020527 0.003631
vn -0.927847 0.368872 0.055069
v 0.046133 -0.028717 0.024208
vn -0.904668 -0.425797 0.016524
v 0.045162 -0.012276 0.028726
vn -0.847019 -0.530994 0.024563
v 0.036870 -0.000808 0.022890
vn -0.423318 0.904051 -0.059106
v 0.017377 -0.048539 0.040692
vn 0.536788 0.827986 -0.162165
v 0.002635 -0.048163 0.043263
vn -0.088242 0.973226 -0.212238
v 0.009943 -0.049707 0.047230
vn 0.371452 0.597251 -0.710855
v 0.005589 -0.046299 0.053244
vn -0.432385 0.868821 -0.241232
v 0.026823 -0.042223 0.047632
vn -0.162954 0.591898 -0.789368
v 0.014543 -0.045236 0.054612
vn -0.436448 0.630677 -0.641684
v 0.037669 -0.034741 0.053208
vn -0.588783 0.808284 -0.003439
v 0.038896 -0.036709 0.040881
vn -0.827350 -0.512731 -0.229345
v 0.033961 0.005684 0.043480
vn -0.498093 -0.396164 -0.771335
v 0.036644 -0.006555 0.053026
vn 0.098888 -0.103665 -0.989684
v 0.008333 -0.022258 0.054227
vn 0.055579 -0.069308 -0.996046
v 0.017182 -0.011076 0.053447
vn -0.012013 0.033429 -0.999369
v 0.025209 -0.028995 0.056252
vn -0.452238 0.036253 -0.891160
v 0.044059 -0.027678 0.054511
vn -0.029944 -0.030603 -0.999083
v 0.009354 0.011527 0.053064
vn -0.062663 -0.173550 -0.982829
v 0.032015 -0.013087 0.055943
vn -0.386196 -0.272337 -0.881297
v 0.031268 -0.001265 0.052190
vn -0.910588 0.412369 0.027958
v 0.046184 -0.029616 0.038909
vn -0.682557 0.708070 -0.180978
v 0.045120 -0.032204 0.047866
vn -0.810746 -0.418943 -0.408874
v 0.044420 -0.014039 0.048847
vn -0.899609 0.211355 -0.382143
v 0.046356 -0.026754 0.052354
vn -0.194470 -0.170496 0.965978
v 0.004074 0.025507 -0.004088
vn -0.513992 -0.298179 0.804302
v 0.024486 0.009961 -0.000480
vn -0.607082 -0.390528 0.692054
v 0.018205 0.023268 0.001293
vn -0.792366 -0.478281 0.378686
v 0.027721 0.013591 0.005172
vn -0.556951 -0.320547 0.766195
v 0.010674 0.037077 0.001652
vn -0.841104 -0.472441 0.263331
v 0.020625 0.027129 0.009248
vn -0.875903 -0.481820 0.025358
v 0.025178 0.018510 0.021269
vn -0.606364 -0.420542 0.674883
v 0.007302 0.048173 0.004061
vn -0.748363 -0.641861 0.167233
v 0.006869 0.054198 0.011894
vn -0.748955 -0.396155 -0.531157
v 0.029794 0.009271 0.049328
vn -0.888420 -0.453605 -0.070368
v 0.016978 0.037060 0.039283
vn -0.686555 -0.328798 -0.648486
v 0.017599 0.028195 0.050732
vn -0.103055 -0.059541 -0.992892
v 0.020658 0.005842 0.054375
vn -0.430618 -0.324145 -0.842317
v 0.022516 0.015500 0.052601
vn -0.466213 -0.222765 -0.856167
v 0.027389 0.007470 0.052401
vn -0.479018 -0.224287 -0.848668
v 0.010435 0.040686 0.052871
vn -0.866989 -0.437005 -0.239494
v 0.012864 0.044457 0.045205
vn -0.196437 -0.886538 -0.418883
v -0.000253 0.058901 0.049045
# 127 vertices, 0 vertices normals

f 1//1 20//20 16//16
f 1//1 38//38 20//20
f 12//12 3//3 11//11
f 68//68 11//11 3//3
f 68//68 15//15 11//11
f 2//2 3//3 13//13
f 12//12 11//11 17//17
f 13//13 3//3 12//12
f 22//22 13//13 12//12
f 17//17 22//22 12//12
f 22//22 17//17 25//25
f 18//18 11//11 14//14
f 15//15 14//14 11//11
f 14//14 15//15 16//16
f 11//11 18//18 17//17
f 18//18 14//14 19//19
f 30//30 19//19 36//36
f 19//19 20//20 37//37
f 19//19 37//37 36//36
f 21//21 17//17 18//18
f 18//18 19//19 30//30
f 14//14 20//20 19//19
f 20//20 14//14 16//16
f 20//20 38//38 37//37
f 17//17 21//21 25//25
f 21//21 18//18 30//30
f 21//21 30//30 34//34
f 13//13 22//22 90//90
f 90//90 22//22 24//24
f 23//23 90//90 24//24
f 24//24 22//22 25//25
f 24//24 25//25 26//26
f 23//23 24//24 28//28
f 23//23 28//28 7//7
f 92//92 23//23 7//7
f 27//27 26//26 25//25
f 56//56 25//25 21//21
f 25//25 56//56 27//27
f 56//56 21//21 34//34
f 56//56 57//57 27//27
f 60//60 27//27 57//57
f 7//7 28//28 8//8
f 8//8 28//28 99//99
f 28//28 24//24 26//26
f 28//28 26//26 29//29
f 99//99 28//28 29//29
f 58//58 26//26 27//27
f 29//29 26//26 58//58
f 58//58 103//103 29//29
f 38//38 1//1 110//110
f 33//33 30//30 36//36
f 33//33 36//36 31//31
f 31//31 36//36 39//39
f 33//33 31//31 32//32
f 44//44 32//32 31//31
f 30//30 33//33 34//34
f 35//35 32//32 44//44
f 33//33 32//32 52//52
f 34//34 33//33 52//52
f 52//52 32//32 53//53
f 53//53 32//32 35//35
f 38//38 110//110 40//40
f 39//39 36//36 37//37
f 39//39 37//37 38//38
f 39//39 38//38 40//40
f 31//31 39//39 41//41
f 41//41 44//44 31//31
f 40//40 45//45 41//41
f 41//41 39//39 40//40
f 40//40 110//110 43//43
f 42//42 40//40 43//43
f 44//44 46//46 35//35
f 46//46 44//44 41//41
f 46//46 41//41 45//45
f 45//45 47//47 46//46
f 49//49 50//50 46//46
f 50//50 49//49 51//51
f 45//45 40//40 42//42
f 45//45 42//42 47//47
f 46//46 47//47 49//49
f 42//42 48//48 47//47
f 65//65 51//51 49//49
f 49//49 47//47 48//48
f 49//49 48//48 118//118
f 49//49 118//118 66//66
f 35//35 46//46 50//50
f 65//65 63//63 51//51
f 65//65 49//49 66//66
f 56//56 34//34 57//57
f 57//57 34//34 52//52
f 53//53 35//35 61//61
f 57//57 52//52 54//54
f 53//53 54//54 52//52
f 55//55 57//57 54//54
f 53//53 55//55 54//54
f 58//58 27//27 60//60
f 60//60 57//57 55//55
f 55//55 59//59 60//60
f 55//55 53//53 59//59
f 62//62 59//59 53//53
f 60//60 9//9 58//58
f 9//9 60//60 59//59
f 35//35 50//50 61//61
f 53//53 61//61 62//62
f 50//50 51//51 63//63
f 63//63 61//61 50//50
f 62//62 61//61 63//63
f 63//63 65//65 64//64
f 127//127 65//65 66//66
f 127//127 64//64 65//65
f 64//64 62//62 63//63
f 67//67 9//9 59//59
f 67//67 59//59 62//62
f 10//10 9//9 67//67
f 62//62 64//64 67//67
f 67//67 64//64 127//127
f 67//67 127//127 10//10
f 4//4 1//1 16//16
f 4//4 16//16 78//78
f 80//80 4//4 78//78
f 2//2 75//75 74//74
f 76//76 74//74 75//75
f 68//68 2//2 71//71
f 2//2 68//68 3//3
f 68//68 71//71 69//69
f 74//74 70//70 71//71
f 69//69 15//15 68//68
f 69//69 71//71 70//70
f 2//2 74//74 71//71
f 74//74 72//72 70//70
f 72//72 73//73 70//70
f 72//72 83//83 73//73
f 75//75 2//2 13//13
f 72//72 74//74 76//76
f 76//76 89//89 72//72
f 89//89 77//77 72//72
f 83//83 72//72 77//77
f 86//86 83//83 77//77
f 96//96 106//106 86//86
f 86//86 77//77 96//96
f 15//15 69//69 16//16
f 16//16 69//69 78//78
f 69//69 70//70 78//78
f 79//79 78//78 70//70
f 70//70 73//73 79//79
f 78//78 79//79 80//80
f 73//73 85//85 79//79
f 80//80 79//79 85//85
f 80//80 85//85 81//81
f 80//80 81//81 111//111
f 4//4 80//80 111//111
f 82//82 111//111 81//81
f 87//87 97//97 88//88
f 97//97 116//116 88//88
f 73//73 83//83 85//85
f 85//85 84//84 81//81
f 84//84 83//83 86//86
f 83//83 84//84 85//85
f 81//81 84//84 82//82
f 86//86 87//87 84//84
f 5//5 86//86 106//106
f 5//5 87//87 86//86
f 82//82 84//84 87//87
f 88//88 82//82 87//87
f 90//90 91//91 75//75
f 75//75 13//13 90//90
f 76//76 75//75 91//91
f 91//91 89//89 76//76
f 91//91 90//90 92//92
f 23//23 92//92 90//90
f 93//93 89//89 91//91
f 89//89 96//96 77//77
f 96//96 89//89 93//93
f 107//107 96//96 93//93
f 92//92 94//94 91//91
f 94//94 93//93 91//91
f 8//8 94//94 92//92
f 92//92 7//7 8//8
f 94//94 8//8 101//101
f 95//95 93//93 94//94
f 95//95 94//94 101//101
f 101//101 102//102 95//95
f 107//107 106//106 96//96
f 93//93 95//95 107//107
f 119//119 97//97 105//105
f 105//105 97//97 98//98
f 101//101 8//8 99//99
f 100//100 101//101 99//99
f 100//100 99//99 29//29
f 100//100 104//104 101//101
f 100//100 29//29 103//103
f 122//122 100//100 103//103
f 105//105 104//104 100//100
f 98//98 104//104 105//105
f 100//100 122//122 105//105
f 5//5 106//106 109//109
f 109//109 106//106 107//107
f 109//109 108//108 5//5
f 108//108 97//97 87//87
f 108//108 87//87 5//5
f 98//98 97//97 108//108
f 109//109 95//95 102//102
f 107//107 95//95 109//109
f 102//102 101//101 104//104
f 102//102 108//108 109//109
f 102//102 98//98 108//108
f 98//98 102//102 104//104
f 4//4 110//110 1//1
f 110//110 4//4 111//111
f 110//110 111//111 112//112
f 82//82 113//113 111//111
f 111//111 113//113 112//112
f 113//113 82//82 88//88
f 115//115 113//113 88//88
f 113//113 115//115 112//112
f 116//116 115//115 88//88
f 43//43 110//110 114//114
f 114//114 110//110 112//112
f 114//114 112//112 115//115
f 43//43 114//114 117//117
f 42//42 43//43 117//117
f 114//114 115//115 117//117
f 42//42 117//117 48//48
f 117//117 115//115 118//118
f 118//118 48//48 117//117
f 118//118 115//115 116//116
f 116//116 120//120 118//118
f 6//6 116//116 97//97
f 6//6 97//97 119//119
f 123//123 6//6 119//119
f 121//121 6//6 123//123
f 126//126 120//120 121//121
f 121//121 125//125 126//126
f 120//120 116//116 6//6
f 6//6 121//121 120//120
f 123//123 122//122 103//103
f 103//103 58//58 9//9
f 124//124 122//122 123//123
f 124//124 105//105 122//122
f 123//123 119//119 124//124
f 105//105 124//124 119//119
f 9//9 125//125 103//103
f 103//103 125//125 121//121
f 121//121 123//123 103//103
f 120//120 66//66 118//118
f 126//126 66//66 120//120
f 126//126 125//125 10//10
f 66//66 126//126 10//10
f 127//127 66//66 10//10
f 125//125 9//9 10//10
# 250 faces, 0 coords texture

# End of File
