####
#
# OBJ File Generated by Meshlab
#
####
# Object colgate_cool_mint_250_collision.obj
#
# Vertices: 127
# Faces: 250
#
####
vn 0.065970 0.048256 0.996654
v 0.000237 0.000616 0.004176
vn 0.015237 0.376957 0.926106
v 0.012206 -0.018549 0.005133
vn 0.854905 0.509358 0.098448
v -0.014202 0.000527 0.014500
vn -0.452315 -0.289067 0.843713
v 0.012982 0.006044 0.006138
vn -0.312178 -0.301206 0.901011
v 0.003897 0.016689 0.005457
vn 0.642187 0.761459 -0.088181
v 0.004749 -0.017087 0.073861
vn 0.631351 0.773544 -0.055000
v 0.004925 -0.015009 0.095988
vn 0.966536 0.201880 -0.158279
v -0.009845 0.006704 0.100549
vn 0.727473 0.395619 -0.560597
v -0.001690 -0.000288 0.117097
vn -0.108132 -0.986231 -0.125123
v 0.002651 0.027307 0.086242
vn 0.174723 -0.935278 -0.307778
v 0.002978 0.022896 0.113100
vn 0.518938 0.485181 0.703777
v -0.002041 -0.010124 0.006581
vn 0.729829 0.526175 0.436451
v -0.010332 -0.003568 0.010893
vn 0.361158 0.233241 0.902864
v -0.006134 -0.000544 0.005086
vn 0.535957 0.754006 0.379769
v 0.004104 -0.019781 0.011167
vn 0.741682 0.669298 0.044128
v -0.002874 -0.014054 0.018588
vn 0.654430 0.753390 -0.064218
v 0.001972 -0.016859 0.034399
vn 0.777308 0.626366 -0.058807
v -0.004598 -0.008161 0.050960
vn 0.843136 0.532831 -0.072201
v -0.010616 0.000441 0.047812
vn 0.796320 0.602181 -0.057025
v -0.002299 -0.009204 0.074029
vn 0.882114 0.467222 -0.059826
v -0.009654 0.002708 0.075782
vn 0.756115 0.652779 -0.046583
v -0.002296 -0.008175 0.085687
vn 0.811042 0.568912 -0.136195
v -0.003099 -0.006688 0.103847
vn 0.304979 -0.170916 0.936897
v -0.012851 0.017786 0.006000
vn 0.619705 0.210564 0.756061
v -0.015647 0.010680 0.006639
vn 0.079443 -0.059137 0.995084
v -0.005232 0.015083 0.004130
vn 0.141924 -0.537039 0.831533
v -0.009471 0.023296 0.006147
vn -0.142169 -0.378235 0.914728
v -0.001728 0.021627 0.005427
vn -0.141614 -0.805242 0.575788
v -0.003357 0.029084 0.010613
vn 0.926894 0.262367 0.268387
v -0.018621 0.009858 0.012094
vn 0.768594 -0.118692 0.628630
v -0.017735 0.018719 0.008808
vn 0.661098 -0.592462 0.460368
v -0.015543 0.026294 0.010076
vn 0.589113 -0.807522 -0.029231
v -0.013360 0.029065 0.034752
vn 0.291696 -0.917730 0.269600
v -0.012765 0.029449 0.014808
vn -0.300265 -0.949425 0.091829
v -0.002216 0.031030 0.018763
vn 0.236950 -0.971463 -0.010678
v -0.010503 0.030626 0.027553
vn -0.035127 -0.998558 -0.040590
v -0.006099 0.030804 0.037791
vn 0.973782 0.212075 -0.082295
v -0.019370 0.013433 0.027211
vn 0.980928 -0.127678 0.146557
v -0.020603 0.018671 0.015923
vn 0.909471 -0.413195 -0.046171
v -0.018988 0.023547 0.025163
vn 0.329734 -0.938787 -0.099769
v -0.009315 0.029242 0.055533
vn -0.556942 -0.830513 0.007975
v 0.000665 0.029161 0.032834
vn 0.989228 -0.042715 -0.140013
v -0.016743 0.018114 0.057768
vn 0.917994 0.384964 -0.095338
v -0.014858 0.008831 0.051000
vn 0.191741 -0.975053 -0.111832
v -0.005232 0.029269 0.064199
vn -0.397737 -0.917372 -0.015309
v 0.001722 0.029091 0.061604
vn 0.973714 0.192692 -0.121454
v -0.013409 0.011830 0.074206
vn 0.950556 -0.246455 -0.188950
v -0.012680 0.018164 0.077395
vn 0.711274 -0.684682 -0.159059
v -0.013795 0.026945 0.054389
vn 0.947115 -0.274482 -0.166232
v -0.009633 0.017249 0.093749
vn 0.745020 -0.633823 -0.207879
v -0.007569 0.022661 0.090086
vn 0.351169 -0.918928 -0.179588
v -0.004943 0.026832 0.081781
vn 0.367775 -0.905867 -0.210113
v -0.002544 0.024601 0.095298
vn 0.959199 0.047977 -0.278633
v -0.008744 0.008850 0.108714
vn 0.780921 -0.567972 -0.259944
v -0.007056 0.018173 0.106130
vn 0.711534 -0.003579 -0.702642
v -0.003656 0.007732 0.118138
vn 0.847591 -0.255199 -0.465256
v -0.007153 0.012689 0.112520
vn 0.423345 -0.560843 -0.711502
v 0.000242 0.019650 0.116378
vn -0.136799 -0.039666 0.989804
v 0.010904 -0.004485 0.003817
vn -0.462672 -0.121818 0.878120
v 0.017748 -0.004476 0.005521
vn -0.006788 0.862288 0.506373
v 0.011788 -0.021658 0.008366
vn -0.087187 0.981222 0.172053
v 0.014156 -0.023326 0.014930
vn 0.395585 0.918301 0.015327
v 0.006988 -0.022521 0.021947
vn -0.473427 0.759662 0.445849
v 0.018893 -0.020388 0.010302
vn -0.067614 0.997705 -0.003563
v 0.015917 -0.023623 0.022636
vn -0.589738 0.800026 0.110306
v 0.021487 -0.021951 0.019018
vn -0.597801 0.801572 -0.010797
v 0.021507 -0.021027 0.034318
vn -0.918745 0.299050 0.257829
v 0.024597 -0.015093 0.011741
vn -0.877222 -0.281967 0.388556
v 0.023333 -0.002829 0.010676
vn -0.705947 -0.442226 0.553241
v 0.018515 0.003790 0.009676
vn -0.595772 0.325184 0.734378
v 0.022647 -0.015238 0.008617
vn -0.904581 -0.418020 0.083620
v 0.023424 -0.000295 0.025208
vn 0.358000 0.933156 -0.032501
v 0.010384 -0.022528 0.035793
vn -0.041338 0.999008 -0.016542
v 0.014156 -0.023458 0.036139
vn 0.142921 0.988735 -0.044459
v 0.011898 -0.022446 0.052611
vn -0.963660 0.266867 0.011863
v 0.025349 -0.015174 0.032325
vn -0.992388 -0.113447 0.047910
v 0.025703 -0.007894 0.027374
vn -0.959952 -0.270185 0.074106
v 0.024762 -0.000044 0.035369
vn 0.594256 0.803039 -0.044592
v 0.005541 -0.019795 0.053493
vn -0.421885 0.906426 -0.020139
v 0.020557 -0.022159 0.050279
vn -0.928326 0.370275 0.033273
v 0.027502 -0.013410 0.056241
vn -0.992371 -0.092942 0.081000
v 0.027651 -0.007503 0.055999
vn -0.938897 -0.339600 0.056079
v 0.026652 -0.001708 0.060462
vn -0.877113 -0.476319 0.061584
v 0.024382 0.006112 0.075533
vn -0.403179 0.913382 -0.056396
v 0.020598 -0.021420 0.066503
vn 0.227886 0.969297 -0.092369
v 0.012825 -0.021616 0.075489
vn 0.500347 0.864096 -0.054687
v 0.007009 -0.017116 0.085713
vn 0.467941 0.882669 -0.043902
v 0.008366 -0.017403 0.094815
vn 0.283978 0.958748 -0.012615
v 0.011514 -0.018676 0.094777
vn 0.142964 0.987170 -0.071108
v 0.014413 -0.019241 0.095262
vn -0.275860 0.954377 -0.114308
v 0.018983 -0.019021 0.093517
vn -0.747303 0.660709 -0.070722
v 0.025093 -0.015737 0.092654
vn -0.999449 -0.019423 0.026913
v 0.029010 -0.006797 0.081027
vn -0.997439 -0.054882 -0.045865
v 0.029428 -0.004115 0.095447
vn 0.400218 0.912032 -0.089572
v 0.009664 -0.017681 0.102703
vn 0.578131 0.715762 -0.391725
v 0.005025 -0.013285 0.111802
vn 0.067458 0.948411 -0.309784
v 0.013930 -0.017707 0.112712
vn 0.023319 0.628908 -0.777130
v 0.014450 -0.013460 0.117996
vn -0.587115 0.664488 -0.462332
v 0.023355 -0.013915 0.113731
vn -0.915706 0.355774 -0.186834
v 0.026634 -0.011041 0.110449
vn -0.878422 -0.081140 -0.470947
v 0.026717 -0.000215 0.114988
vn -0.460773 0.144017 -0.875755
v 0.021419 -0.004237 0.120416
vn -0.610625 -0.260467 -0.747860
v 0.020684 0.003996 0.118894
vn 0.222525 0.343504 -0.912408
v 0.009666 -0.006141 0.121471
vn -0.170305 -0.143394 0.974902
v 0.006473 0.007684 0.004440
vn -0.457625 -0.345131 0.819429
v 0.008285 0.013089 0.006253
vn -0.665251 -0.516233 0.539393
v 0.011131 0.015190 0.010177
vn -0.620417 -0.665272 0.415326
v 0.003240 0.025056 0.011004
vn -0.808289 -0.572546 0.137331
v 0.015744 0.012336 0.018979
vn -0.729828 -0.682447 0.040218
v 0.010534 0.019228 0.025131
vn -0.792285 -0.608106 0.049915
v 0.014998 0.013958 0.031856
vn -0.700987 -0.711546 0.048160
v 0.007942 0.024411 0.053478
vn -0.829776 -0.553206 0.073728
v 0.020512 0.008929 0.053472
vn -0.736142 -0.675063 0.048841
v 0.017398 0.016012 0.073247
vn -0.144693 -0.985649 -0.086948
v 0.000666 0.028547 0.077110
vn -0.581904 -0.813172 0.011804
v 0.011204 0.022315 0.082711
vn -0.722343 -0.690393 0.039729
v 0.017512 0.017356 0.095497
vn -0.888199 -0.459051 -0.019373
v 0.025635 0.008030 0.106123
vn 0.013795 -0.986550 -0.162877
v 0.003015 0.024871 0.099347
vn -0.389053 -0.914686 -0.109482
v 0.011884 0.022336 0.107193
vn -0.727766 -0.458556 -0.509983
v 0.022212 0.011586 0.114071
vn 0.073752 -0.486094 -0.870789
v 0.009459 0.012140 0.122001
vn -0.277467 -0.295897 -0.914033
v 0.012093 0.010104 0.123182
vn -0.208354 -0.753167 -0.623962
v 0.009432 0.020655 0.116360
vn 0.305218 -0.104046 -0.946581
v 0.004559 0.009224 0.122562
vn -0.521271 -0.575678 -0.629977
v 0.015434 0.015108 0.117924
vn -0.637607 -0.738606 -0.218905
v 0.016682 0.018841 0.111551
# 127 vertices, 0 vertices normals

f 2//2 12//12 15//15
f 12//12 2//2 1//1
f 13//13 12//12 14//14
f 14//14 25//25 13//13
f 14//14 12//12 1//1
f 16//16 63//63 15//15
f 63//63 16//16 17//17
f 15//15 12//12 16//16
f 13//13 16//16 12//12
f 3//3 16//16 13//13
f 3//3 13//13 25//25
f 3//3 25//25 30//30
f 3//3 19//19 16//16
f 18//18 17//17 16//16
f 19//19 3//3 44//44
f 18//18 16//16 19//19
f 18//18 79//79 17//17
f 20//20 6//6 79//79
f 20//20 79//79 18//18
f 20//20 19//19 21//21
f 21//21 19//19 44//44
f 20//20 18//18 19//19
f 6//6 20//20 22//22
f 21//21 22//22 20//20
f 22//22 21//21 23//23
f 8//8 23//23 21//21
f 22//22 7//7 87//87
f 7//7 22//22 23//23
f 23//23 9//9 96//96
f 54//54 9//9 8//8
f 9//9 23//23 8//8
f 9//9 104//104 96//96
f 25//25 31//31 30//30
f 31//31 24//24 32//32
f 25//25 14//14 26//26
f 1//1 26//26 14//14
f 1//1 59//59 105//105
f 5//5 26//26 1//1
f 105//105 5//5 1//1
f 24//24 31//31 25//25
f 25//25 26//26 24//24
f 26//26 28//28 24//24
f 27//27 32//32 24//24
f 24//24 28//28 27//27
f 5//5 28//28 26//26
f 28//28 5//5 108//108
f 29//29 27//27 28//28
f 108//108 29//29 28//28
f 38//38 3//3 30//30
f 39//39 38//38 30//30
f 30//30 31//31 39//39
f 39//39 31//31 32//32
f 39//39 32//32 40//40
f 40//40 32//32 33//33
f 34//34 32//32 27//27
f 27//27 29//29 34//34
f 34//34 29//29 35//35
f 36//36 34//34 35//35
f 36//36 35//35 37//37
f 34//34 33//33 32//32
f 36//36 33//33 34//34
f 37//37 35//35 42//42
f 38//38 44//44 3//3
f 38//38 39//39 40//40
f 43//43 44//44 38//38
f 43//43 38//38 40//40
f 33//33 49//49 40//40
f 43//43 40//40 49//49
f 33//33 36//36 41//41
f 37//37 41//41 36//36
f 37//37 42//42 46//46
f 112//112 46//46 42//42
f 47//47 44//44 43//43
f 49//49 33//33 41//41
f 41//41 37//37 45//45
f 45//45 37//37 46//46
f 46//46 115//115 45//45
f 21//21 44//44 47//47
f 47//47 43//43 48//48
f 47//47 8//8 21//21
f 47//47 48//48 8//8
f 49//49 48//48 43//43
f 45//45 49//49 41//41
f 45//45 52//52 49//49
f 48//48 49//49 51//51
f 52//52 51//51 49//49
f 45//45 115//115 52//52
f 52//52 115//115 10//10
f 8//8 48//48 50//50
f 51//51 50//50 48//48
f 8//8 50//50 54//54
f 54//54 50//50 55//55
f 55//55 50//50 51//51
f 51//51 52//52 53//53
f 52//52 10//10 53//53
f 119//119 53//53 10//10
f 119//119 11//11 53//53
f 57//57 54//54 55//55
f 51//51 53//53 55//55
f 55//55 53//53 11//11
f 57//57 55//55 58//58
f 58//58 55//55 11//11
f 56//56 54//54 57//57
f 9//9 54//54 56//56
f 57//57 58//58 56//56
f 125//125 104//104 9//9
f 9//9 56//56 125//125
f 56//56 58//58 125//125
f 71//71 2//2 61//61
f 61//61 64//64 71//71
f 68//68 71//71 64//64
f 1//1 2//2 59//59
f 60//60 59//59 2//2
f 60//60 2//2 71//71
f 60//60 71//71 69//69
f 59//59 4//4 105//105
f 69//69 70//70 60//60
f 4//4 59//59 60//60
f 4//4 60//60 70//70
f 2//2 15//15 61//61
f 15//15 63//63 61//61
f 62//62 61//61 63//63
f 63//63 65//65 62//62
f 64//64 61//61 62//62
f 66//66 68//68 64//64
f 66//66 64//64 62//62
f 66//66 62//62 65//65
f 63//63 73//73 65//65
f 74//74 65//65 73//73
f 65//65 67//67 66//66
f 76//76 68//68 66//66
f 67//67 76//76 66//66
f 68//68 69//69 71//71
f 77//77 69//69 68//68
f 77//77 68//68 76//76
f 72//72 69//69 77//77
f 73//73 63//63 17//17
f 74//74 67//67 65//65
f 73//73 17//17 79//79
f 75//75 74//74 73//73
f 67//67 74//74 80//80
f 80//80 74//74 75//75
f 81//81 76//76 67//67
f 81//81 67//67 80//80
f 78//78 72//72 77//77
f 76//76 78//78 77//77
f 78//78 76//76 81//81
f 82//82 78//78 81//81
f 79//79 75//75 73//73
f 85//85 80//80 75//75
f 86//86 75//75 79//79
f 86//86 85//85 75//75
f 85//85 81//81 80//80
f 82//82 83//83 78//78
f 113//113 78//78 83//83
f 83//83 84//84 113//113
f 6//6 86//86 79//79
f 87//87 6//6 22//22
f 86//86 6//6 87//87
f 86//86 91//91 85//85
f 81//81 85//85 92//92
f 81//81 93//93 82//82
f 83//83 82//82 93//93
f 93//93 84//84 83//83
f 93//93 81//81 92//92
f 90//90 86//86 87//87
f 90//90 87//87 89//89
f 88//88 87//87 7//7
f 89//89 87//87 88//88
f 91//91 86//86 90//90
f 91//91 92//92 85//85
f 88//88 95//95 89//89
f 7//7 95//95 88//88
f 90//90 89//89 95//95
f 99//99 92//92 91//91
f 93//93 118//118 84//84
f 94//94 118//118 93//93
f 92//92 100//100 93//93
f 94//94 93//93 100//100
f 95//95 7//7 96//96
f 97//97 90//90 95//95
f 96//96 97//97 95//95
f 91//91 90//90 97//97
f 99//99 91//91 97//97
f 97//97 96//96 98//98
f 23//23 96//96 7//7
f 96//96 104//104 98//98
f 98//98 99//99 97//97
f 102//102 98//98 104//104
f 102//102 99//99 98//98
f 100//100 92//92 99//99
f 101//101 94//94 100//100
f 118//118 94//94 101//101
f 100//100 99//99 101//101
f 103//103 101//101 102//102
f 101//101 99//99 102//102
f 125//125 123//123 104//104
f 102//102 104//104 123//123
f 106//106 5//5 105//105
f 106//106 105//105 4//4
f 106//106 4//4 107//107
f 70//70 107//107 4//4
f 5//5 106//106 107//107
f 107//107 108//108 5//5
f 109//109 70//70 69//69
f 107//107 70//70 109//109
f 108//108 107//107 109//109
f 72//72 111//111 109//109
f 109//109 69//69 72//72
f 108//108 109//109 110//110
f 111//111 110//110 109//109
f 35//35 29//29 108//108
f 35//35 108//108 110//110
f 78//78 111//111 72//72
f 111//111 78//78 113//113
f 113//113 112//112 111//111
f 111//111 42//42 110//110
f 35//35 110//110 42//42
f 42//42 111//111 112//112
f 114//114 113//113 84//84
f 113//113 114//114 112//112
f 114//114 46//46 112//112
f 116//116 115//115 46//46
f 46//46 114//114 116//116
f 116//116 10//10 115//115
f 118//118 117//117 84//84
f 117//117 120//120 116//116
f 114//114 84//84 117//117
f 116//116 114//114 117//117
f 120//120 117//117 127//127
f 120//120 10//10 116//116
f 120//120 119//119 10//10
f 127//127 117//117 118//118
f 121//121 127//127 118//118
f 121//121 101//101 103//103
f 123//123 121//121 103//103
f 126//126 121//121 123//123
f 124//124 120//120 127//127
f 124//124 127//127 126//126
f 122//122 125//125 58//58
f 123//123 122//122 124//124
f 124//124 122//122 58//58
f 124//124 58//58 11//11
f 127//127 121//121 126//126
f 126//126 123//123 124//124
f 118//118 101//101 121//121
f 11//11 119//119 120//120
f 124//124 11//11 120//120
f 122//122 123//123 125//125
f 123//123 103//103 102//102
# 250 faces, 0 coords texture

# End of File
