####
#
# OBJ File Generated by Meshlab
#
####
# Object colgate_cool_mint_250_collision.obj
#
# Vertices: 127
# Faces: 250
#
####
vn -0.255006 0.965191 -0.058131
v -0.007828 0.035225 0.010515
vn 0.145606 -0.909346 -0.389729
v 0.017592 -0.024516 0.009783
vn -0.885163 -0.400220 -0.237299
v -0.021526 0.011628 0.009785
vn 0.880576 0.467931 -0.075010
v 0.025311 0.001715 0.015656
vn -0.910754 0.395004 0.120413
v -0.016279 0.026959 0.043427
vn -0.666826 -0.728758 -0.155743
v -0.000523 -0.017707 0.012359
vn -0.589066 0.465075 -0.660837
v -0.017454 0.028674 0.009660
vn -0.093367 0.985071 0.144630
v -0.001908 0.029962 0.078537
vn -0.988893 0.059376 0.136252
v -0.017936 0.021550 0.040974
vn 0.250789 0.901319 -0.353170
v -0.005032 0.035225 0.009785
vn 0.972359 0.232967 0.015606
v 0.028733 0.001961 0.105718
vn 0.713713 0.362629 -0.599261
v 0.024761 0.000511 0.009785
vn 0.193184 0.142392 -0.970775
v 0.015733 0.015561 0.009469
vn 0.683736 -0.616865 -0.389850
v 0.025633 -0.019867 0.009778
vn -0.411536 0.906210 0.097066
v -0.009784 0.031197 0.050894
vn -0.898731 -0.423001 0.115551
v -0.006028 0.001952 0.099842
vn -0.960225 0.216721 0.176068
v -0.013908 0.022086 0.064923
vn -0.940382 0.339223 0.024697
v -0.019749 0.023483 0.017612
vn 0.061030 0.995206 0.076426
v -0.001957 0.031429 0.062622
vn -0.848531 -0.528172 0.032087
v -0.014106 0.000000 0.015656
vn 0.954997 0.251316 -0.157548
v 0.028620 -0.005873 0.011701
vn 0.850834 -0.273530 -0.448624
v 0.026641 -0.017612 0.009785
vn 0.798907 0.600005 -0.041735
v 0.022432 0.013699 0.099804
vn -0.736615 -0.633426 -0.237000
v -0.005831 -0.012075 0.011759
vn -0.751728 -0.653548 0.088209
v -0.000096 -0.007870 0.098369
vn 0.335177 0.092679 0.937586
v 0.022498 0.001442 0.121576
vn -0.986936 -0.076311 0.141896
v -0.015664 0.017612 0.054794
vn -0.948907 -0.208980 0.236437
v -0.006083 0.005871 0.111546
vn -0.698846 -0.485821 -0.524969
v -0.011561 -0.003530 0.009788
vn -0.973695 0.134206 -0.184137
v -0.021750 0.015656 0.009785
vn -0.836531 0.544254 0.063273
v -0.017152 0.028376 0.023483
vn 0.554957 0.830866 -0.041043
v 0.001529 0.031311 0.015656
vn 0.024798 0.998591 0.046914
v -0.005871 0.035225 0.010926
vn -0.540649 -0.836073 -0.093172
v 0.004506 -0.021526 0.015656
vn -0.812804 -0.582296 0.016738
v -0.009785 -0.006674 0.013699
vn -0.844593 -0.518852 0.132120
v -0.003208 -0.002007 0.106374
vn 0.857799 0.510805 -0.057083
v 0.022943 0.005871 0.015656
vn 0.945980 0.306482 0.105788
v 0.027327 0.006238 0.111629
vn 0.979423 -0.201816 -0.000389
v 0.028583 -0.011639 0.055167
vn 0.883758 -0.048172 -0.465457
v 0.028084 -0.011325 0.009756
vn 0.804690 0.591153 -0.054877
v 0.019083 0.011742 0.015656
vn -0.571195 0.802992 0.170121
v -0.008868 0.029005 0.070347
vn -0.479040 0.875317 0.065880
v -0.011742 0.032274 0.027397
vn -0.766545 -0.426216 0.480363
v -0.002035 -0.000026 0.117391
vn -0.960357 -0.119709 -0.251763
v -0.021554 0.011742 0.009785
vn -0.983878 0.075053 0.162331
v -0.007764 0.013699 0.105675
vn 0.692379 0.653167 -0.306570
v 0.009069 0.023483 0.009785
vn 0.769304 0.638859 0.005524
v 0.021726 0.015134 0.107900
vn 0.609276 0.792021 -0.038540
v 0.001957 0.031016 0.015656
vn 0.344045 0.936912 0.061882
v 0.002195 0.029354 0.078278
vn -0.178605 -0.982000 0.061459
v 0.011742 -0.023954 0.016634
vn -0.607164 -0.794315 0.020385
v 0.003914 -0.021091 0.015656
vn -0.326169 -0.327259 -0.886857
v 0.003764 -0.019603 0.009785
vn -0.836777 -0.547533 0.003515
v -0.011681 -0.003914 0.013699
vn -0.801066 -0.587116 0.116566
v -0.001866 -0.005473 0.098563
vn 0.995821 0.090711 -0.010591
v 0.029450 -0.003914 0.084148
vn 0.858507 0.512368 -0.021089
v 0.025440 0.009215 0.101761
vn 0.837720 0.527188 -0.142473
v 0.020583 0.009213 0.011405
vn 0.887947 -0.459562 0.018773
v 0.027333 -0.015656 0.046967
vn 0.678725 -0.734077 0.021527
v 0.024013 -0.021526 0.019569
vn -0.584120 0.744581 0.323115
v -0.002151 0.021740 0.113566
vn -0.287378 0.947650 0.139188
v -0.006157 0.030185 0.071357
vn -0.492617 -0.857658 0.147487
v 0.009785 -0.015326 0.109589
vn -0.961845 0.209146 0.176385
v -0.007089 0.015656 0.107632
vn -0.986046 -0.074030 0.149107
v -0.009374 0.011743 0.095118
vn -0.911443 0.146340 0.384522
v -0.006285 0.013365 0.115104
vn -0.315603 0.090503 -0.944565
v -0.019894 0.021544 0.009633
vn 0.677134 0.732281 -0.072492
v 0.006115 0.027612 0.017612
vn -0.098634 0.991064 0.089795
v -0.003914 0.031144 0.064680
vn 0.336147 0.932723 0.130511
v 0.010155 0.023489 0.112537
vn -0.132796 -0.991139 0.003083
v 0.013699 -0.024430 0.013699
vn -0.135108 -0.985949 0.098233
v 0.014578 -0.019838 0.080991
vn 0.573806 -0.817447 0.050273
v 0.023826 -0.019607 0.056262
vn -0.626812 -0.769404 0.122979
v 0.006069 -0.012357 0.111568
vn 0.998659 -0.050945 0.009208
v 0.029575 -0.003513 0.106427
vn 0.987017 0.160613 0.000524
v 0.029115 0.000000 0.103718
vn 0.997029 -0.076923 -0.004116
v 0.029505 -0.005871 0.082191
vn 0.874822 0.484175 -0.016166
v 0.026274 0.007828 0.103722
vn 0.950078 -0.311895 0.008499
v 0.028022 -0.013699 0.052837
vn 0.808774 -0.587331 0.030460
v 0.025759 -0.017858 0.049902
vn 0.833669 0.551747 -0.023898
v 0.023655 0.011991 0.099860
vn 0.705253 -0.698706 0.120117
v 0.024984 -0.014051 0.108121
vn 0.739617 -0.670833 0.054310
v 0.025440 -0.016261 0.086105
vn 0.560293 -0.824549 0.078676
v 0.023497 -0.017939 0.084148
vn -0.662468 0.741008 0.109743
v -0.013708 0.029303 0.047187
vn -0.598199 -0.720883 0.349979
v 0.004051 -0.010135 0.114407
vn -0.466125 -0.868592 -0.168153
v 0.005871 -0.022344 0.015656
vn 0.781657 -0.069114 0.619868
v 0.027316 -0.005756 0.117864
vn -0.975511 0.200560 0.090301
v -0.019710 0.021526 0.022994
vn -0.835904 -0.186675 0.516156
v -0.005366 0.010252 0.115254
vn -0.826731 0.528332 0.193343
v -0.011164 0.025881 0.073018
vn -0.714825 0.698495 0.033610
v -0.016402 0.029973 0.018875
vn 0.550960 0.677830 -0.486816
v 0.002340 0.029910 0.009785
vn -0.234036 0.499157 0.834308
v 0.003597 0.020017 0.121162
vn 0.475729 0.578291 0.662768
v 0.017629 0.017330 0.118517
vn 0.730932 0.680023 -0.057512
v 0.007845 0.025921 0.017780
vn 0.777800 0.625548 -0.060961
v 0.013018 0.019514 0.014598
vn 0.682494 0.730727 -0.015492
v 0.017526 0.019493 0.105675
vn 0.468354 0.882873 0.034342
v 0.006434 0.027501 0.079936
vn 0.237741 -0.968248 0.077291
v 0.020191 -0.020130 0.076407
vn 0.458002 -0.888858 0.012826
v 0.022716 -0.022383 0.018696
vn -0.586548 -0.804573 0.092862
v 0.007828 -0.014217 0.107632
vn 0.982620 0.129182 0.133307
v 0.029491 -0.003343 0.109964
vn 0.887180 -0.459193 0.045322
v 0.027800 -0.011913 0.096068
vn 0.516347 -0.850172 0.102925
v 0.023003 -0.015722 0.106653
vn 0.012568 -0.995725 0.091505
v 0.017001 -0.020158 0.080599
vn -0.316808 -0.938764 -0.135476
v 0.007811 -0.023244 0.015517
vn -0.306555 -0.947912 0.086525
v 0.011768 -0.019735 0.074761
vn -0.126635 -0.440006 0.889021
v 0.011524 -0.008669 0.121681
vn -0.229942 -0.782549 0.578570
v 0.015258 -0.013846 0.117109
vn -0.262176 -0.923205 0.280990
v 0.012610 -0.015905 0.112305
vn 0.303569 -0.883790 0.356034
v 0.021634 -0.015327 0.115933
vn -0.905647 0.364329 0.216952
v -0.006957 0.019015 0.103718
vn 0.217772 0.971660 0.091940
v 0.001584 0.029512 0.078802
vn 0.416454 -0.905824 0.077775
v 0.021666 -0.019418 0.079062
vn -0.553134 -0.828648 0.085940
v 0.007828 -0.016480 0.086105
vn -0.407384 -0.790813 -0.456785
v 0.006819 -0.022626 0.009788
vn 0.935253 -0.306468 0.177139
v 0.028894 -0.006822 0.114109
vn -0.914019 -0.334371 0.229709
v -0.005663 0.004792 0.111969
vn 0.581491 0.797967 0.158481
v 0.016028 0.020576 0.113976
vn 0.654979 0.755471 0.016310
v 0.017474 0.019569 0.109589
vn 0.094365 0.923206 0.372539
v 0.006092 0.023606 0.117160
vn 0.973857 -0.226832 0.012217
v 0.028927 -0.009295 0.081213
vn 0.841345 0.472895 0.261744
v 0.025418 0.009527 0.115671
vn 0.838802 -0.543326 0.034755
v 0.026680 -0.014464 0.085371
vn -0.472858 -0.005110 0.881124
v -0.000575 0.013354 0.121471
vn 0.570552 0.821239 0.006047
v 0.009673 0.025361 0.080235
# 127 vertices, 0 vertices normals

f 67//67 7//7 13//13
f 67//67 13//13 53//53
f 10//10 7//7 1//1
f 10//10 13//13 7//7
f 21//21 4//4 78//78
f 22//22 14//14 13//13
f 14//14 2//2 13//13
f 24//24 6//6 25//25
f 27//27 65//65 9//9
f 28//28 3//3 119//119
f 91//91 5//5 17//17
f 29//29 3//3 67//67
f 29//29 20//20 3//3
f 33//33 19//19 10//10
f 33//33 10//10 1//1
f 33//33 1//1 19//19
f 62//62 1//1 15//15
f 92//92 1//1 7//7
f 117//117 13//13 2//2
f 53//53 24//24 29//29
f 53//53 29//29 67//67
f 36//36 16//16 3//3
f 36//36 3//3 20//20
f 21//21 40//40 13//13
f 58//58 21//21 12//12
f 40//40 22//22 13//13
f 40//40 39//39 22//22
f 101//101 2//2 14//14
f 81//81 37//37 58//58
f 58//58 12//12 13//13
f 43//43 85//85 15//15
f 43//43 15//15 1//1
f 74//74 25//25 6//6
f 119//119 3//3 16//16
f 36//36 119//119 16//16
f 36//36 44//44 119//119
f 86//86 55//55 25//25
f 45//45 65//65 27//27
f 45//45 27//27 9//9
f 45//45 9//9 30//30
f 45//45 30//30 67//67
f 45//45 67//67 3//3
f 45//45 28//28 65//65
f 45//45 3//3 28//28
f 46//46 17//17 9//9
f 5//5 31//31 18//18
f 47//47 93//93 68//68
f 47//47 13//13 93//93
f 93//93 13//13 10//10
f 93//93 10//10 32//32
f 49//49 93//93 32//32
f 69//69 19//19 1//1
f 69//69 1//1 62//62
f 99//99 32//32 10//10
f 117//117 6//6 53//53
f 53//53 13//13 117//117
f 54//54 20//20 29//29
f 24//24 25//25 35//35
f 55//55 36//36 20//20
f 55//55 20//20 54//54
f 55//55 54//54 35//35
f 55//55 35//35 25//25
f 57//57 78//78 4//4
f 57//57 37//37 81//81
f 12//12 21//21 13//13
f 58//58 4//4 21//21
f 4//4 58//58 37//37
f 4//4 37//37 57//57
f 38//38 21//21 78//78
f 59//59 14//14 22//22
f 60//60 101//101 14//14
f 97//97 23//23 41//41
f 92//92 85//85 43//43
f 74//74 86//86 25//25
f 64//64 113//113 17//17
f 65//65 46//46 9//9
f 66//66 65//65 28//28
f 29//29 24//24 35//35
f 29//29 35//35 54//54
f 67//67 30//30 18//18
f 67//67 18//18 7//7
f 9//9 17//17 5//5
f 96//96 68//68 98//98
f 96//96 48//48 97//97
f 96//96 47//47 68//68
f 48//48 23//23 97//97
f 69//69 8//8 19//19
f 69//69 62//62 8//8
f 99//99 10//10 50//50
f 114//114 50//50 10//10
f 114//114 10//10 19//19
f 70//70 50//50 114//114
f 127//127 49//49 32//32
f 127//127 32//32 99//99
f 107//107 51//51 108//108
f 72//72 51//51 71//71
f 73//73 84//84 115//115
f 74//74 6//6 52//52
f 117//117 34//34 52//52
f 24//24 53//53 6//6
f 76//76 56//56 21//21
f 76//76 21//21 11//11
f 77//77 21//21 56//56
f 77//77 40//40 21//21
f 124//124 81//81 48//48
f 38//38 11//11 21//21
f 79//79 59//59 22//22
f 79//79 22//22 39//39
f 80//80 59//59 125//125
f 80//80 14//14 59//59
f 80//80 60//60 14//14
f 97//97 58//58 13//13
f 97//97 41//41 58//58
f 81//81 58//58 41//41
f 81//81 41//41 23//23
f 81//81 23//23 48//48
f 82//82 118//118 112//112
f 112//112 115//115 105//105
f 84//84 105//105 115//115
f 91//91 61//61 42//42
f 85//85 92//92 31//31
f 85//85 31//31 5//5
f 85//85 91//91 42//42
f 85//85 5//5 91//91
f 1//1 92//92 43//43
f 87//87 63//63 34//34
f 87//87 108//108 63//63
f 87//87 107//107 108//108
f 108//108 72//72 111//111
f 44//44 55//55 86//86
f 44//44 36//36 55//55
f 111//111 86//86 63//63
f 112//112 109//109 110//110
f 113//113 91//91 17//17
f 64//64 46//46 66//66
f 64//64 17//17 46//46
f 66//66 113//113 64//64
f 89//89 30//30 9//9
f 89//89 9//9 5//5
f 89//89 5//5 18//18
f 89//89 18//18 30//30
f 119//119 44//44 90//90
f 61//61 113//113 66//66
f 92//92 7//7 18//18
f 92//92 18//18 31//31
f 93//93 49//49 68//68
f 97//97 13//13 47//47
f 97//97 47//47 96//96
f 98//98 68//68 49//49
f 99//99 50//50 70//70
f 8//8 114//114 19//19
f 120//120 127//127 99//99
f 120//120 99//99 70//70
f 117//117 2//2 71//71
f 117//117 71//71 107//107
f 51//51 107//107 71//71
f 106//106 71//71 2//2
f 72//72 108//108 51//51
f 101//101 73//73 115//115
f 101//101 115//115 100//100
f 102//102 74//74 52//52
f 102//102 52//52 34//34
f 102//102 63//63 74//74
f 75//75 118//118 123//123
f 39//39 40//40 77//77
f 39//39 77//77 75//75
f 39//39 75//75 123//123
f 124//124 38//38 78//78
f 81//81 78//78 57//57
f 81//81 124//124 78//78
f 123//123 79//79 39//39
f 80//80 83//83 60//60
f 80//80 125//125 83//83
f 104//104 118//118 82//82
f 103//103 38//38 88//88
f 73//73 83//83 84//84
f 73//73 101//101 60//60
f 82//82 84//84 83//83
f 82//82 105//105 84//84
f 104//104 83//83 125//125
f 104//104 82//82 83//83
f 126//126 26//26 94//94
f 109//109 26//26 126//126
f 61//61 91//91 113//113
f 42//42 15//15 85//85
f 107//107 87//87 34//34
f 107//107 34//34 117//117
f 108//108 111//111 63//63
f 74//74 63//63 86//86
f 124//124 26//26 88//88
f 110//110 86//86 111//111
f 109//109 88//88 26//26
f 109//109 112//112 88//88
f 44//44 126//126 90//90
f 66//66 46//46 65//65
f 90//90 66//66 28//28
f 90//90 28//28 119//119
f 48//48 96//96 98//98
f 120//120 124//124 48//48
f 114//114 8//8 122//122
f 114//114 122//122 70//70
f 120//120 122//122 95//95
f 70//70 122//122 120//120
f 106//106 72//72 71//71
f 112//112 100//100 115//115
f 112//112 106//106 100//100
f 2//2 100//100 106//106
f 100//100 2//2 101//101
f 116//116 102//102 34//34
f 116//116 34//34 63//63
f 116//116 63//63 102//102
f 117//117 52//52 6//6
f 11//11 103//103 76//76
f 75//75 77//77 56//56
f 75//75 56//56 76//76
f 75//75 76//76 103//103
f 123//123 118//118 104//104
f 118//118 75//75 103//103
f 38//38 103//103 11//11
f 103//103 88//88 118//118
f 104//104 59//59 79//79
f 104//104 79//79 123//123
f 88//88 38//38 124//124
f 73//73 60//60 83//83
f 8//8 62//62 61//61
f 8//8 61//61 122//122
f 61//61 94//94 122//122
f 42//42 61//61 62//62
f 42//42 62//62 15//15
f 95//95 94//94 26//26
f 44//44 86//86 109//109
f 111//111 72//72 112//112
f 109//109 126//126 44//44
f 82//82 112//112 105//105
f 121//121 48//48 98//98
f 121//121 98//98 49//49
f 121//121 120//120 48//48
f 124//124 120//120 95//95
f 94//94 61//61 66//66
f 124//124 95//95 26//26
f 88//88 112//112 118//118
f 125//125 59//59 104//104
f 94//94 66//66 126//126
f 112//112 72//72 106//106
f 111//111 112//112 110//110
f 109//109 86//86 110//110
f 66//66 90//90 126//126
f 122//122 94//94 95//95
f 127//127 121//121 49//49
f 127//127 120//120 121//121
# 250 faces, 0 coords texture

# End of File
