####
#
# OBJ File Generated by Meshlab
#
####
# Object gushers_tropical_flavors_250_collision.obj
#
# Vertices: 127
# Faces: 250
#
####
vn 0.340186 0.430358 0.836101
v 0.005175 -0.015589 0.003335
vn -0.475897 -0.631405 0.612250
v 0.036076 0.003647 0.005035
vn -0.795335 0.605811 0.020852
v 0.069401 -0.039046 0.082327
vn 0.633090 0.774052 0.006384
v -0.036830 0.009447 0.088303
vn 0.623555 0.762234 -0.173722
v 0.015862 -0.033142 0.177018
vn -0.807604 -0.576632 -0.123580
v 0.071494 -0.022091 0.176446
vn -0.116553 -0.229607 -0.966279
v -0.003503 0.024720 0.188771
vn 0.373048 0.477900 0.795265
v -0.010055 -0.005710 0.004364
vn 0.573111 0.715336 0.399798
v 0.001025 -0.017227 0.008089
vn 0.105580 0.144977 0.983786
v -0.004188 0.001230 0.001071
vn 0.550798 0.713679 0.432763
v -0.023023 0.002564 0.006424
vn 0.635934 0.768686 0.068625
v -0.008752 -0.010843 0.031732
vn 0.627677 0.777470 0.039518
v 0.008185 -0.026704 0.050793
vn 0.630093 0.776515 0.002778
v -0.009488 -0.013028 0.075025
vn 0.621334 0.783234 -0.022090
v -0.018390 -0.005359 0.100393
vn 0.607919 0.793715 -0.021232
v -0.024898 0.000657 0.121522
vn 0.609336 0.792208 0.033394
v -0.010366 -0.009734 0.150173
vn 0.605023 0.788262 -0.112202
v -0.018021 -0.006659 0.174333
vn 0.376251 0.494339 -0.783622
v 0.002089 -0.017370 0.185700
vn 0.516058 0.588436 -0.622437
v -0.028702 0.003980 0.182301
vn 0.830161 0.463631 0.309643
v -0.055970 0.026184 0.009010
vn 0.886828 -0.218963 0.406929
v -0.057610 0.037049 0.009673
vn 0.211672 0.251370 0.944462
v -0.027088 0.015200 0.001314
vn 0.452026 0.544821 0.706287
v -0.039508 0.014764 0.005250
vn 0.125437 0.078599 0.988983
v -0.032343 0.027957 0.000642
vn -0.034365 -0.045196 0.998387
v -0.012061 0.020170 0.000332
vn -0.278198 -0.344998 0.896427
v 0.011728 0.017080 0.002690
vn -0.356835 -0.462721 0.811516
v -0.009413 0.036696 0.002982
vn 0.024951 -0.156015 0.987439
v -0.034748 0.044311 0.001460
vn 0.208878 -0.709746 0.672778
v -0.037881 0.055518 0.004819
vn 0.434551 -0.053177 0.899076
v -0.051745 0.034034 0.002904
vn -0.313440 -0.617890 0.721087
v -0.030994 0.052895 0.003702
vn 0.665347 -0.651623 0.364280
v -0.045171 0.053470 0.008336
vn 0.970767 -0.238493 0.027047
v -0.058857 0.036033 0.024565
vn 0.523235 -0.851144 0.042178
v -0.042222 0.057193 0.026802
vn -0.283657 -0.944868 0.163593
v -0.030216 0.058373 0.013575
vn -0.608369 -0.770682 0.189567
v -0.007448 0.040148 0.012598
vn 0.905627 0.423447 0.023050
v -0.058094 0.027545 0.069248
vn 0.752845 0.658193 0.002505
v -0.056561 0.024422 0.108416
vn 0.955969 -0.292900 0.018226
v -0.058417 0.038225 0.061832
vn 0.615262 0.787192 0.042212
v -0.038779 0.011463 0.044579
vn 0.868715 0.495180 0.011435
v -0.056869 0.025860 0.048586
vn -0.388182 -0.921557 -0.006837
v -0.029734 0.057631 0.053971
vn -0.611497 -0.791237 0.003924
v -0.008088 0.041585 0.059890
vn 0.666566 -0.745427 -0.005251
v -0.044630 0.054629 0.072728
vn -0.438113 -0.898890 -0.007386
v -0.027999 0.056843 0.092717
vn 0.988211 -0.152836 0.008965
v -0.060226 0.035157 0.101275
vn 0.800124 0.599538 0.018849
v -0.057655 0.025771 0.135872
vn 0.960065 -0.279776 -0.000724
v -0.059965 0.036720 0.137266
vn 0.642579 -0.766180 0.007799
v -0.044861 0.054671 0.111997
vn 0.161091 -0.986929 -0.004519
v -0.037343 0.058641 0.068190
vn -0.623638 -0.781603 -0.013140
v 0.004677 0.031194 0.130532
vn 0.595379 0.802340 0.042121
v -0.042055 0.013884 0.152960
vn 0.112012 -0.993670 -0.008587
v -0.038456 0.058431 0.137785
vn -0.495026 -0.868876 -0.001851
v -0.028222 0.056095 0.139752
vn 0.805763 0.461918 -0.370646
v -0.059002 0.025096 0.179774
vn 0.603684 0.758737 -0.244712
v -0.040474 0.010766 0.176492
vn 0.302857 0.330040 -0.894064
v -0.027429 0.009960 0.186287
vn 0.313293 0.119728 -0.942079
v -0.050374 0.031646 0.190070
vn 0.544429 -0.837263 -0.050873
v -0.044401 0.055303 0.150107
vn -0.547065 -0.759287 -0.352426
v -0.018073 0.047817 0.178605
vn 0.777350 -0.432538 -0.456769
v -0.058360 0.037918 0.183446
vn 0.180865 -0.355347 -0.917069
v -0.041189 0.044671 0.189957
vn 0.039429 -0.855522 -0.516262
v -0.035055 0.056154 0.183407
vn -0.253545 -0.965929 -0.051925
v -0.030797 0.058142 0.162615
vn -0.619179 -0.783259 -0.055882
v -0.001727 0.035470 0.170136
vn -0.235682 -0.297831 -0.925068
v -0.020336 0.039022 0.188169
vn 0.462439 0.726491 0.508292
v 0.040733 -0.049078 0.006946
vn -0.005208 0.524626 0.851317
v 0.047664 -0.047484 0.003091
vn -0.017080 0.067056 0.997603
v 0.043278 -0.027919 0.000811
vn 0.283077 0.361145 0.888505
v 0.024730 -0.030211 0.002518
vn -0.431558 0.212867 0.876610
v 0.064131 -0.035234 0.003279
vn 0.068917 0.087088 0.993814
v 0.017231 -0.012384 0.000883
vn -0.077449 -0.100972 0.991870
v 0.015120 0.002435 0.000790
vn -0.052511 -0.045870 0.997566
v 0.039431 -0.018251 0.000698
vn -0.295500 -0.111357 0.948830
v 0.063343 -0.023760 0.002577
vn -0.325422 -0.412635 0.850784
v 0.050311 -0.011089 0.002647
vn -0.600634 -0.765792 0.229784
v 0.059406 -0.012339 0.009738
vn 0.612337 0.785619 0.088575
v 0.031016 -0.043453 0.015489
vn -0.453182 0.781491 0.428833
v 0.056292 -0.052687 0.011921
vn 0.185355 0.950740 0.248468
v 0.046282 -0.054836 0.013538
vn 0.599767 0.724191 0.340333
v 0.016768 -0.031275 0.009379
vn -0.866574 0.334867 0.370018
v 0.071961 -0.033268 0.008707
vn -0.978392 -0.182424 0.097318
v 0.073051 -0.027210 0.013552
vn -0.727865 -0.434682 0.530344
v 0.068402 -0.020219 0.007345
vn 0.391706 0.919885 0.019429
v 0.043267 -0.054141 0.052031
vn -0.490545 0.871235 0.017766
v 0.056182 -0.053576 0.052967
vn -0.628378 -0.777905 -0.002168
v 0.053503 -0.008534 0.070908
vn -0.632863 -0.774242 -0.005747
v 0.043230 -0.000462 0.091533
vn -0.926175 0.376956 0.010213
v 0.072146 -0.034987 0.052348
vn -0.988779 -0.149370 0.002335
v 0.072788 -0.028063 0.069055
vn -0.763841 -0.645397 -0.003158
v 0.070506 -0.022054 0.041448
vn -0.949869 0.312196 0.016806
v 0.072539 -0.033990 0.087440
vn -0.998890 -0.046779 0.005557
v 0.073713 -0.030713 0.111376
vn -0.837645 -0.546213 0.001449
v 0.070048 -0.021697 0.078108
vn 0.620423 0.783451 -0.035781
v 0.009412 -0.025929 0.125202
vn 0.067269 0.997650 0.012984
v 0.047974 -0.056395 0.092636
vn -0.584642 0.811117 0.016802
v 0.057470 -0.053154 0.106001
vn -0.847404 0.530651 0.017749
v 0.071197 -0.038855 0.116538
vn -0.764641 -0.644453 0.002148
v 0.071225 -0.022882 0.108210
vn 0.599179 0.800531 -0.011614
v 0.036288 -0.049821 0.090717
vn 0.639142 0.768921 0.016103
v 0.020003 -0.033444 0.148300
vn 0.418420 0.908182 0.011440
v 0.043449 -0.054447 0.153307
vn -0.238787 0.971069 0.002444
v 0.052977 -0.056073 0.137944
vn -0.894032 -0.448002 -0.001231
v 0.071613 -0.023595 0.141655
vn -0.635820 0.771816 0.005682
v 0.058673 -0.052588 0.144081
vn -0.927794 0.373072 -0.004055
v 0.072640 -0.036506 0.140416
vn -0.316352 0.931884 -0.177521
v 0.054042 -0.055762 0.178262
vn 0.352194 0.899034 -0.260188
v 0.042593 -0.054659 0.179980
vn 0.001895 0.637916 -0.770103
v 0.048398 -0.052698 0.186259
vn -0.623136 -0.782113 -0.001161
v 0.036440 0.005015 0.154976
vn -0.668272 -0.417516 -0.615706
v 0.067857 -0.021492 0.184424
vn -0.562572 -0.745693 -0.357008
v 0.026813 0.012704 0.177200
vn 0.040301 0.114886 -0.992561
v 0.049502 -0.040843 0.188542
vn 0.182636 0.191114 -0.964427
v -0.009125 0.003056 0.190222
vn -0.174974 -0.217759 -0.960190
v 0.032916 -0.005141 0.189340
vn -0.226574 -0.287911 -0.930468
v 0.048637 -0.015668 0.190225
vn -0.690150 0.722215 -0.045799
v 0.058639 -0.053107 0.170854
vn -0.899624 0.282546 -0.332934
v 0.073212 -0.035286 0.179072
vn -0.417505 0.122661 -0.900358
v 0.066148 -0.033744 0.188316
vn -0.584758 -0.745153 0.320631
v 0.018001 0.018742 0.008419
vn -0.614001 -0.789181 0.014049
v 0.045413 -0.001591 0.031731
vn -0.630410 -0.775963 0.021575
v 0.030880 0.009639 0.044077
vn -0.633756 -0.773476 0.009427
v 0.018245 0.020813 0.055084
vn -0.625630 -0.780095 -0.006208
v 0.008630 0.028250 0.092811
vn -0.631296 -0.775538 -0.002549
v 0.038645 0.003322 0.127571
vn -0.515556 -0.652104 -0.555844
v -0.000167 0.031537 0.183022
# 127 vertices, 0 vertices normals

f 82//82 1//1 9//9
f 11//11 9//9 8//8
f 8//8 9//9 1//1
f 10//10 23//23 8//8
f 10//10 8//8 1//1
f 10//10 1//1 73//73
f 10//10 73//73 74//74
f 11//11 24//24 41//41
f 12//12 82//82 9//9
f 12//12 9//9 11//11
f 12//12 11//11 41//41
f 4//4 14//14 41//41
f 13//13 12//12 41//41
f 13//13 41//41 14//14
f 101//101 14//14 15//15
f 4//4 15//15 14//14
f 16//16 96//96 15//15
f 96//96 16//16 17//17
f 17//17 16//16 53//53
f 96//96 17//17 102//102
f 18//18 57//57 20//20
f 20//20 19//19 18//18
f 5//5 17//17 18//18
f 19//19 5//5 18//18
f 20//20 115//115 19//19
f 31//31 22//22 21//21
f 21//21 22//22 34//34
f 34//34 42//42 21//21
f 34//34 22//22 33//33
f 42//42 34//34 40//40
f 38//38 42//42 40//40
f 34//34 35//35 40//40
f 11//11 23//23 24//24
f 25//25 31//31 24//24
f 25//25 24//24 23//23
f 24//24 31//31 21//21
f 26//26 25//25 23//23
f 11//11 8//8 23//23
f 23//23 10//10 26//26
f 74//74 26//26 10//10
f 29//29 25//25 26//26
f 29//29 26//26 28//28
f 28//28 26//26 27//27
f 31//31 25//25 29//29
f 31//31 33//33 22//22
f 31//31 29//29 30//30
f 30//30 33//33 31//31
f 30//30 29//29 32//32
f 37//37 36//36 32//32
f 36//36 30//30 32//32
f 32//32 29//29 28//28
f 37//37 32//32 28//28
f 21//21 41//41 24//24
f 41//41 21//21 42//42
f 124//124 37//37 123//123
f 33//33 30//30 35//35
f 35//35 30//30 36//36
f 35//35 34//34 33//33
f 44//44 36//36 37//37
f 43//43 36//36 44//44
f 44//44 37//37 124//124
f 39//39 38//38 47//47
f 47//47 38//38 40//40
f 47//47 40//40 45//45
f 45//45 40//40 35//35
f 51//51 45//45 35//35
f 51//51 35//35 36//36
f 36//36 43//43 51//51
f 38//38 4//4 42//42
f 41//41 42//42 4//4
f 4//4 38//38 39//39
f 51//51 43//43 46//46
f 43//43 44//44 46//46
f 50//50 45//45 51//51
f 44//44 124//124 125//125
f 125//125 46//46 44//44
f 52//52 46//46 125//125
f 47//47 48//48 39//39
f 47//47 45//45 50//50
f 49//49 47//47 50//50
f 48//48 47//47 49//49
f 56//56 48//48 49//49
f 39//39 15//15 4//4
f 15//15 39//39 16//16
f 48//48 16//16 39//39
f 52//52 55//55 46//46
f 46//46 54//54 51//51
f 50//50 51//51 54//54
f 54//54 46//46 55//55
f 16//16 48//48 53//53
f 55//55 52//52 111//111
f 66//66 55//55 111//111
f 60//60 49//49 50//50
f 54//54 60//60 50//50
f 54//54 55//55 65//65
f 65//65 55//55 66//66
f 48//48 56//56 57//57
f 56//56 62//62 59//59
f 62//62 49//49 60//60
f 62//62 56//56 49//49
f 59//59 62//62 63//63
f 18//18 53//53 57//57
f 17//17 53//53 18//18
f 53//53 48//48 57//57
f 58//58 57//57 56//56
f 57//57 58//58 20//20
f 56//56 59//59 58//58
f 64//64 60//60 65//65
f 60//60 54//54 65//65
f 64//64 62//62 60//60
f 64//64 63//63 62//62
f 61//61 64//64 65//65
f 64//64 61//61 67//67
f 65//65 66//66 61//61
f 61//61 127//127 67//67
f 127//127 61//61 66//66
f 59//59 67//67 58//58
f 67//67 59//59 63//63
f 20//20 58//58 115//115
f 7//7 115//115 58//58
f 116//116 115//115 7//7
f 67//67 7//7 58//58
f 7//7 67//67 127//127
f 67//67 63//63 64//64
f 82//82 71//71 1//1
f 71//71 69//69 70//70
f 69//69 71//71 68//68
f 79//79 68//68 82//82
f 82//82 68//68 71//71
f 69//69 68//68 81//81
f 80//80 69//69 81//81
f 72//72 69//69 80//80
f 70//70 69//69 72//72
f 70//70 72//72 76//76
f 72//72 80//80 83//83
f 1//1 71//71 73//73
f 70//70 73//73 71//71
f 73//73 70//70 75//75
f 74//74 73//73 75//75
f 77//77 74//74 75//75
f 2//2 74//74 77//77
f 75//75 70//70 76//76
f 75//75 76//76 77//77
f 77//77 76//76 85//85
f 78//78 77//77 85//85
f 2//2 77//77 78//78
f 79//79 82//82 13//13
f 68//68 79//79 81//81
f 81//81 87//87 80//80
f 83//83 80//80 87//87
f 90//90 83//83 87//87
f 12//12 13//13 82//82
f 78//78 122//122 2//2
f 76//76 72//72 85//85
f 83//83 85//85 72//72
f 85//85 83//83 84//84
f 84//84 83//83 90//90
f 91//91 84//84 90//90
f 85//85 84//84 92//92
f 78//78 85//85 92//92
f 92//92 122//122 78//78
f 86//86 79//79 13//13
f 86//86 13//13 101//101
f 81//81 79//79 86//86
f 87//87 81//81 86//86
f 87//87 86//86 97//97
f 97//97 86//86 101//101
f 88//88 123//123 122//122
f 15//15 96//96 101//101
f 3//3 87//87 98//98
f 97//97 98//98 87//87
f 14//14 101//101 13//13
f 89//89 124//124 88//88
f 88//88 95//95 100//100
f 100//100 89//89 88//88
f 92//92 84//84 91//91
f 91//91 90//90 93//93
f 3//3 90//90 87//87
f 93//93 90//90 3//3
f 92//92 88//88 122//122
f 95//95 92//92 91//91
f 95//95 91//91 94//94
f 93//93 94//94 91//91
f 95//95 88//88 92//92
f 103//103 104//104 97//97
f 98//98 97//97 104//104
f 103//103 97//97 101//101
f 104//104 106//106 98//98
f 106//106 99//99 98//98
f 100//100 126//126 89//89
f 105//105 126//126 100//100
f 101//101 96//96 102//102
f 103//103 101//101 102//102
f 126//126 105//105 111//111
f 3//3 98//98 99//99
f 99//99 93//93 3//3
f 99//99 94//94 93//93
f 94//94 99//99 107//107
f 94//94 105//105 100//100
f 100//100 95//95 94//94
f 106//106 107//107 99//99
f 105//105 94//94 107//107
f 105//105 107//107 119//119
f 103//103 108//108 104//104
f 108//108 103//103 109//109
f 109//109 103//103 5//5
f 102//102 5//5 103//103
f 5//5 110//110 109//109
f 19//19 110//110 5//5
f 106//106 104//104 108//108
f 108//108 118//118 106//106
f 118//118 107//107 106//106
f 110//110 108//108 109//109
f 5//5 102//102 17//17
f 111//111 105//105 6//6
f 117//117 113//113 112//112
f 117//117 116//116 113//113
f 112//112 113//113 6//6
f 114//114 110//110 19//19
f 114//114 120//120 110//110
f 117//117 120//120 114//114
f 19//19 116//116 114//114
f 116//116 19//19 115//115
f 117//117 114//114 116//116
f 112//112 120//120 117//117
f 118//118 119//119 107//107
f 108//108 119//119 118//118
f 110//110 119//119 108//108
f 6//6 105//105 119//119
f 120//120 119//119 110//110
f 6//6 119//119 112//112
f 119//119 120//120 112//112
f 27//27 74//74 2//2
f 26//26 74//74 27//27
f 121//121 27//27 2//2
f 28//28 27//27 121//121
f 28//28 121//121 37//37
f 122//122 121//121 2//2
f 123//123 37//37 121//121
f 121//121 122//122 123//123
f 124//124 123//123 88//88
f 89//89 125//125 124//124
f 126//126 52//52 89//89
f 125//125 89//89 52//52
f 111//111 52//52 126//126
f 113//113 66//66 111//111
f 127//127 116//116 7//7
f 127//127 113//113 116//116
f 66//66 113//113 127//127
f 6//6 113//113 111//111
# 250 faces, 0 coords texture

# End of File
