####
#
# OBJ File Generated by Meshlab
#
####
# Object band_aid_sheer_strips_250_collision.obj
#
# Vertices: 127
# Faces: 250
#
####
vn -0.305849 -0.942095 0.137526
v -0.006584 -0.043698 0.094130
vn 0.187253 -0.188481 -0.964060
v 0.024173 -0.030675 0.003144
vn 0.983954 0.173233 0.042711
v 0.027057 0.015188 0.089638
vn -0.983359 -0.177758 0.037520
v -0.016996 -0.026530 0.092542
vn 0.804937 -0.593297 -0.008654
v 0.030575 -0.035088 0.029704
vn 0.213611 0.123236 -0.969115
v 0.020004 0.019357 0.003165
vn -0.979172 -0.163061 -0.120965
v -0.012354 -0.026790 0.016418
vn 0.995796 0.088302 0.024347
v 0.030974 -0.005659 0.056283
vn 0.646165 0.023131 -0.762847
v 0.028780 -0.021958 0.003926
vn -0.398706 -0.915580 -0.052416
v -0.006195 -0.042678 0.052839
vn 0.487272 -0.873248 -0.001766
v 0.024355 -0.041200 0.091723
vn 0.581943 -0.812306 -0.038740
v 0.028343 -0.037441 0.027098
vn -0.136834 0.990449 -0.016936
v -0.005012 0.028644 0.054199
vn 0.821189 0.334195 -0.462561
v 0.024858 0.021094 0.008753
vn 0.889207 0.350403 0.294159
v 0.024845 0.021293 0.099578
vn 0.722357 0.691121 0.023513
v 0.024711 0.025680 0.045912
vn -0.420288 -0.547563 0.723555
v -0.010096 -0.037945 0.102347
vn 0.338926 0.055179 -0.939193
v 0.024173 -0.001489 0.003260
vn -0.201627 0.340258 -0.918461
v -0.006339 0.021976 0.004178
vn -0.515536 -0.395018 -0.760384
v -0.004551 -0.032985 0.003401
vn -0.742601 -0.141961 -0.654516
v -0.008905 -0.020395 0.004866
vn 0.107388 -0.994042 -0.018655
v 0.018489 -0.043019 0.093137
vn 0.987203 -0.027531 -0.157075
v 0.033113 -0.025163 0.012555
vn 0.362554 -0.920744 0.144171
v 0.021853 -0.042414 0.095912
vn 0.698979 -0.683289 0.211054
v 0.027222 -0.039061 0.096233
vn 0.582322 -0.812559 0.025451
v 0.026258 -0.039946 0.093807
vn 0.683867 -0.720694 -0.113695
v 0.029747 -0.035715 0.020661
vn 0.887271 -0.459197 0.043447
v 0.028580 -0.037309 0.093807
vn -0.171373 0.985145 0.011002
v -0.009186 0.028500 0.083424
vn -0.539020 0.842231 -0.010215
v -0.013351 0.026633 0.062537
vn 0.607199 -0.245184 0.755774
v 0.025713 -0.033334 0.105477
vn 0.990967 0.133040 0.016890
v 0.030738 -0.003574 0.056283
vn 0.392788 0.919525 0.013848
v 0.020111 0.028677 0.048784
vn 0.962650 0.270349 0.014748
v 0.027149 0.021442 0.045860
vn 0.548901 0.166637 0.819109
v 0.022272 0.013774 0.104524
vn 0.429160 0.028963 0.902764
v 0.023628 -0.016880 0.106554
vn -0.245628 0.703182 0.667234
v -0.010111 0.025133 0.102098
vn -0.866249 -0.079971 -0.493171
v -0.011993 0.003201 0.005892
vn -0.996203 0.060548 -0.062554
v -0.017849 0.017273 0.041691
vn -0.915461 -0.149273 0.373695
v -0.017121 -0.020198 0.098300
vn -0.674655 -0.735067 -0.067212
v -0.008903 -0.040771 0.047464
vn -0.933762 -0.351155 -0.069119
v -0.013309 -0.036048 0.061089
vn -0.278208 -0.042758 0.959569
v -0.008713 -0.007299 0.107344
vn -0.649144 0.307612 0.695692
v -0.016905 0.019261 0.103247
vn -0.994003 -0.048236 -0.098142
v -0.015819 0.015386 0.013494
vn 0.990584 0.125826 -0.053958
v 0.032916 -0.022903 0.013648
vn 0.999141 -0.033654 0.024197
v 0.032630 -0.027056 0.038184
vn 0.121823 -0.988005 0.094897
v 0.019856 -0.042863 0.094236
vn 0.695601 -0.718052 -0.023273
v 0.028983 -0.036929 0.027098
vn 0.946409 -0.322131 0.023260
v 0.030519 -0.033802 0.072961
vn -0.022800 -0.971298 -0.236771
v 0.001734 -0.041279 0.010852
vn 0.887010 -0.444881 -0.123667
v 0.032013 -0.032586 0.017326
vn -0.824331 0.560614 -0.078678
v -0.015923 0.023741 0.043689
vn -0.260940 0.965206 -0.016964
v -0.010301 0.027450 0.043775
vn -0.095449 0.991817 -0.084784
v 0.010024 0.029447 0.016777
vn 0.988803 0.146577 0.028005
v 0.027431 0.013103 0.087553
vn 0.990380 0.118245 0.071878
v 0.027358 0.013139 0.089660
vn 0.724720 0.157154 -0.670883
v 0.024544 0.007631 0.004646
vn 0.978555 0.179398 -0.101224
v 0.027425 0.017766 0.016795
vn 0.248747 0.955303 -0.159751
v 0.019133 0.028979 0.016788
vn 0.176512 0.984298 0.001314
v 0.016863 0.029532 0.060745
vn 0.515025 0.855138 0.059058
v 0.019358 0.027748 0.091723
vn 0.988171 0.152824 0.012762
v 0.027488 0.019357 0.045860
vn 0.576675 0.816582 0.025292
v 0.023131 0.026781 0.051072
vn -0.677410 0.142566 -0.721659
v -0.011808 0.014179 0.004174
vn -0.998266 -0.048652 0.033125
v -0.021129 0.004604 0.091579
vn -0.956877 0.135030 -0.257203
v -0.015633 0.017756 0.011128
vn -0.935912 0.128758 0.327856
v -0.019922 0.016695 0.098855
vn -0.145809 -0.988266 -0.045502
v -0.004304 -0.043412 0.055114
vn -0.823763 -0.552877 0.125466
v -0.013925 -0.039039 0.094656
vn -0.644563 -0.096783 0.758401
v -0.014316 -0.011455 0.104165
vn -0.675758 -0.509355 -0.532831
v -0.008009 -0.035560 0.008500
vn 0.992070 0.125685 -0.000987
v 0.030744 -0.003574 0.054199
vn 0.183337 -0.805363 0.563718
v 0.018782 -0.039464 0.104500
vn -0.470627 -0.842801 -0.261146
v -0.004775 -0.039901 0.011820
vn -0.019231 -0.999417 -0.028222
v -0.001259 -0.043858 0.061099
vn -0.149226 -0.287548 -0.946070
v -0.000880 -0.035094 0.003112
vn -0.178797 -0.728438 -0.661370
v 0.002033 -0.037197 0.003702
vn -0.942012 0.331132 -0.054454
v -0.017397 0.020991 0.042206
vn -0.758469 0.651653 0.008561
v -0.017567 0.023859 0.088280
vn -0.666854 0.743416 -0.051356
v -0.014473 0.025074 0.039393
vn -0.338973 0.939814 -0.042978
v -0.010826 0.027226 0.034210
vn -0.422241 0.906476 0.003825
v -0.011831 0.027890 0.083384
vn -0.036106 0.998393 0.043682
v 0.008897 0.030252 0.094450
vn 0.940782 0.037869 0.336891
v 0.030055 -0.026868 0.099312
vn 0.784146 0.072593 0.616316
v 0.026163 -0.013997 0.104109
vn 0.433632 0.649604 -0.624482
v 0.019696 0.023477 0.004605
vn 0.904494 0.105852 -0.413142
v 0.029622 -0.012251 0.007639
vn 0.984123 0.177073 -0.012146
v 0.027499 0.018718 0.028046
vn 0.622772 0.776743 0.093947
v 0.022108 0.025630 0.093807
vn 0.862574 0.505762 0.013034
v 0.026310 0.023619 0.045857
vn 0.596722 0.786134 -0.160985
v 0.022513 0.027785 0.014982
vn -0.101281 0.213742 0.971626
v -0.002291 0.015577 0.108312
vn 0.286697 0.535744 0.794219
v 0.015423 0.025818 0.103972
vn 0.223186 0.134908 0.965395
v 0.015321 0.012990 0.108115
vn 0.045937 -0.030401 0.998482
v 0.012229 -0.019016 0.108275
vn -0.232119 -0.154679 0.960310
v -0.004971 -0.030752 0.105642
vn 0.062327 0.971138 -0.230231
v 0.015956 0.029468 0.014797
vn -0.917450 -0.206744 -0.339916
v -0.009854 -0.030961 0.008641
vn -0.329946 -0.028269 -0.943577
v -0.009185 -0.005662 0.003060
vn 0.168080 -0.984405 -0.051922
v 0.024173 -0.038990 0.025013
vn 0.484874 -0.738285 -0.468863
v 0.025736 -0.034751 0.006916
vn 0.947337 -0.262293 0.183722
v 0.029860 -0.033472 0.098024
vn -0.925954 0.377388 0.013659
v -0.019276 0.020487 0.088596
vn -0.396305 0.898074 0.190804
v -0.012021 0.027258 0.097152
vn 0.986292 -0.163268 0.023903
v 0.031845 -0.030588 0.055176
vn 0.998110 0.014843 0.059627
v 0.030780 -0.023948 0.090960
vn 0.060861 -0.321720 0.944877
v 0.018402 -0.035598 0.107398
vn 0.967101 0.171520 0.187874
v 0.025752 0.018817 0.097756
vn 0.957522 0.162871 -0.237961
v 0.026547 0.017208 0.011519
vn 0.803109 -0.235113 -0.547484
v 0.029186 -0.027104 0.005002
vn 0.667312 0.671935 0.321244
v 0.023866 0.023255 0.098369
vn 0.922556 0.362534 -0.132137
v 0.025932 0.023166 0.014188
vn -0.789760 0.540616 0.289850
v -0.017984 0.021785 0.099400
vn -0.073000 0.744864 -0.663211
v 0.005467 0.024035 0.003946
vn -0.964799 -0.262840 -0.008798
v -0.015149 -0.035367 0.090181
vn -0.968849 0.242132 0.051994
v -0.020480 0.016425 0.092505
vn -0.028046 -0.967627 0.250822
v -0.001317 -0.044334 0.094806
vn 0.099154 -0.992503 -0.071461
v 0.004551 -0.041331 0.014267
vn 0.355108 -0.928872 -0.105328
v 0.026484 -0.038278 0.020503
vn 0.683603 0.301630 0.664609
v 0.024006 0.019032 0.101821
vn 0.250950 0.936165 0.246209
v 0.014437 0.029771 0.098164
vn -0.844405 -0.518240 -0.135678
v -0.009648 -0.036087 0.016205
vn -0.644789 0.756908 -0.106478
v -0.012357 0.025188 0.023252
vn -0.256175 0.936418 -0.239783
v -0.007005 0.026981 0.015508
vn 0.899228 0.096246 0.426762
v 0.028501 -0.019535 0.100689
vn -0.602261 0.704204 -0.376004
v -0.012282 0.022971 0.009751
# 127 vertices, 0 vertices normals

f 77//77 100//100 2//2
f 6//6 2//2 100//100
f 28//28 52//52 50//50
f 13//13 84//84 55//55
f 57//57 107//107 8//8
f 18//18 6//6 58//58
f 18//18 9//9 2//2
f 18//18 2//2 6//6
f 111//111 2//2 9//9
f 20//20 100//100 77//77
f 106//106 50//50 52//52
f 47//47 8//8 107//107
f 47//47 23//23 8//8
f 11//11 120//120 12//12
f 11//11 24//24 120//120
f 26//26 11//11 12//12
f 28//28 25//25 5//5
f 5//5 52//52 28//28
f 78//78 77//77 2//2
f 29//29 84//84 13//13
f 29//29 54//54 83//83
f 29//29 13//13 54//54
f 32//32 57//57 8//8
f 34//34 91//91 15//15
f 34//34 113//113 91//91
f 93//93 43//43 96//96
f 19//19 6//6 100//100
f 42//42 116//116 4//4
f 7//7 66//66 45//45
f 21//21 20//20 72//72
f 21//21 100//100 20//20
f 41//41 70//70 42//42
f 42//42 7//7 99//99
f 4//4 7//7 42//42
f 5//5 27//27 52//52
f 46//46 8//8 23//23
f 48//48 120//120 24//24
f 49//49 26//26 12//12
f 49//49 25//25 26//26
f 49//49 27//27 5//5
f 49//49 5//5 25//25
f 25//25 28//28 103//103
f 50//50 103//103 28//28
f 75//75 51//51 10//10
f 81//81 53//53 80//80
f 82//82 54//54 13//13
f 55//55 84//84 98//98
f 98//98 61//61 60//60
f 56//56 3//3 57//57
f 56//56 57//57 32//32
f 57//57 85//85 107//107
f 58//58 14//14 88//88
f 87//87 14//14 58//58
f 87//87 58//58 6//6
f 60//60 61//61 33//33
f 62//62 33//33 122//122
f 122//122 33//33 61//61
f 112//112 15//15 91//91
f 16//16 90//90 112//112
f 16//16 64//64 90//90
f 109//109 34//34 15//15
f 109//109 3//3 34//34
f 63//63 32//32 89//89
f 63//63 89//89 34//34
f 63//63 56//56 32//32
f 63//63 34//34 3//3
f 63//63 3//3 56//56
f 92//92 64//64 16//16
f 64//64 33//33 62//62
f 91//91 16//16 112//112
f 105//105 29//29 83//83
f 17//17 74//74 108//108
f 17//17 108//108 97//97
f 58//58 9//9 18//18
f 102//102 2//2 111//111
f 115//115 6//6 19//19
f 99//99 38//38 21//21
f 19//19 100//100 65//65
f 66//66 7//7 4//4
f 4//4 40//40 66//66
f 10//10 69//69 1//1
f 69//69 76//76 1//1
f 116//116 42//42 70//70
f 40//40 71//71 68//68
f 7//7 45//45 67//67
f 7//7 67//67 99//99
f 99//99 123//123 42//42
f 118//118 1//1 76//76
f 23//23 106//106 52//52
f 27//27 102//102 52//52
f 46//46 23//23 110//110
f 73//73 32//32 8//8
f 73//73 8//8 46//46
f 73//73 46//46 89//89
f 73//73 89//89 32//32
f 24//24 11//11 26//26
f 27//27 12//12 120//120
f 27//27 49//49 12//12
f 24//24 26//26 25//25
f 103//103 50//50 106//106
f 22//22 118//118 76//76
f 102//102 27//27 120//120
f 76//76 119//119 22//22
f 69//69 10//10 51//51
f 78//78 72//72 20//20
f 111//111 52//52 102//102
f 80//80 53//53 79//79
f 82//82 30//30 54//54
f 82//82 81//81 30//30
f 83//83 54//54 30//30
f 55//55 82//82 13//13
f 55//55 125//125 82//82
f 106//106 107//107 103//103
f 88//88 14//14 110//110
f 23//23 88//88 110//110
f 92//92 60//60 33//33
f 98//98 84//84 61//61
f 109//109 57//57 3//3
f 109//109 85//85 57//57
f 92//92 33//33 64//64
f 90//90 64//64 62//62
f 90//90 62//62 122//122
f 92//92 91//91 113//113
f 92//92 16//16 91//91
f 93//93 37//37 44//44
f 95//95 36//36 35//35
f 95//95 96//96 36//36
f 31//31 36//36 96//96
f 105//105 83//83 30//30
f 105//105 30//30 80//80
f 29//29 105//105 84//84
f 43//43 71//71 97//97
f 102//102 78//78 2//2
f 87//87 6//6 115//115
f 99//99 67//67 38//38
f 65//65 100//100 38//38
f 68//68 66//66 40//40
f 79//79 67//67 39//39
f 45//45 66//66 39//39
f 45//45 39//39 67//67
f 41//41 75//75 10//10
f 70//70 4//4 116//116
f 70//70 40//40 4//4
f 70//70 41//41 10//10
f 44//44 68//68 71//71
f 72//72 123//123 99//99
f 67//67 65//65 38//38
f 111//111 88//88 23//23
f 59//59 46//46 110//110
f 23//23 47//47 106//106
f 101//101 120//120 48//48
f 101//101 48//48 22//22
f 25//25 74//74 24//24
f 17//17 118//118 74//74
f 1//1 118//118 17//17
f 25//25 31//31 74//74
f 69//69 51//51 119//119
f 69//69 119//119 76//76
f 75//75 72//72 78//78
f 78//78 20//20 77//77
f 102//102 51//51 78//78
f 80//80 79//79 104//104
f 114//114 80//80 104//104
f 104//104 79//79 117//117
f 67//67 79//79 53//53
f 81//81 80//80 30//30
f 19//19 65//65 127//127
f 127//127 115//115 19//19
f 125//125 124//124 82//82
f 124//124 81//81 82//82
f 125//125 55//55 98//98
f 103//103 107//107 85//85
f 103//103 85//85 31//31
f 106//106 47//47 107//107
f 86//86 35//35 36//36
f 86//86 121//121 35//35
f 86//86 36//36 31//31
f 31//31 25//25 103//103
f 109//109 126//126 85//85
f 9//9 58//58 88//88
f 113//113 14//14 92//92
f 113//113 59//59 110//110
f 110//110 14//14 113//113
f 87//87 92//92 14//14
f 60//60 92//92 87//87
f 122//122 61//61 84//84
f 59//59 89//89 46//46
f 113//113 34//34 89//89
f 113//113 89//89 59//59
f 108//108 31//31 96//96
f 93//93 96//96 95//95
f 93//93 94//94 37//37
f 114//114 44//44 37//37
f 93//93 44//44 43//43
f 17//17 97//97 71//71
f 97//97 96//96 43//43
f 97//97 108//108 96//96
f 60//60 87//87 98//98
f 115//115 98//98 87//87
f 117//117 66//66 68//68
f 117//117 39//39 66//66
f 117//117 79//79 39//39
f 123//123 72//72 75//75
f 123//123 75//75 41//41
f 123//123 41//41 42//42
f 70//70 10//10 1//1
f 70//70 1//1 17//17
f 44//44 114//114 117//117
f 44//44 117//117 68//68
f 71//71 43//43 44//44
f 48//48 118//118 22//22
f 48//48 74//74 118//118
f 23//23 52//52 111//111
f 111//111 9//9 88//88
f 119//119 101//101 22//22
f 120//120 101//101 119//119
f 120//120 119//119 51//51
f 120//120 51//51 102//102
f 78//78 51//51 75//75
f 114//114 104//104 117//117
f 125//125 127//127 124//124
f 127//127 67//67 53//53
f 124//124 127//127 53//53
f 122//122 105//105 37//37
f 31//31 85//85 86//86
f 126//126 15//15 121//121
f 121//121 94//94 35//35
f 121//121 112//112 94//94
f 122//122 112//112 90//90
f 112//112 122//122 94//94
f 93//93 95//95 94//94
f 114//114 105//105 80//80
f 105//105 114//114 37//37
f 122//122 37//37 94//94
f 127//127 65//65 67//67
f 21//21 38//38 100//100
f 17//17 71//71 40//40
f 70//70 17//17 40//40
f 108//108 74//74 31//31
f 74//74 48//48 24//24
f 125//125 115//115 127//127
f 124//124 53//53 81//81
f 84//84 105//105 122//122
f 126//126 121//121 86//86
f 85//85 126//126 86//86
f 126//126 109//109 15//15
f 112//112 121//121 15//15
f 95//95 35//35 94//94
f 125//125 98//98 115//115
f 72//72 99//99 21//21
# 250 faces, 0 coords texture

# End of File
