####
#
# OBJ File Generated by Meshlab
#
####
# Object band_aid_sheer_strips_250_collision.obj
#
# Vertices: 127
# Faces: 250
#
####
vn -0.011468 -0.352537 -0.935728
v 0.008056 -0.030338 0.000358
vn 0.014572 0.015903 -0.999767
v 0.007529 -0.007645 -0.001412
vn 0.489338 0.090560 -0.867380
v 0.024319 -0.007873 0.002428
vn 0.013151 0.112157 -0.993603
v 0.007496 0.012617 -0.000216
vn -0.087133 0.995931 -0.023025
v 0.004162 0.028506 0.077329
vn -0.247125 -0.939716 -0.236354
v -0.002348 -0.040696 0.010295
vn -0.324803 -0.534645 -0.780166
v -0.003080 -0.037055 0.004242
vn 0.043431 -0.795121 -0.604893
v 0.001214 -0.038190 0.004409
vn -0.356995 -0.139055 -0.923698
v -0.002606 -0.021752 0.000413
vn -0.219789 -0.005853 -0.975530
v -0.002804 -0.003777 -0.000648
vn -0.773212 -0.396784 -0.494678
v -0.007704 -0.035597 0.006936
vn -0.850961 -0.514273 -0.106719
v -0.010686 -0.036320 0.029820
vn -0.699075 -0.069302 -0.711682
v -0.010009 -0.004549 0.003485
vn -0.971027 -0.125155 -0.203576
v -0.012748 -0.010485 0.010829
vn -0.257290 -0.962842 -0.082078
v -0.003975 -0.041491 0.028337
vn -0.450450 -0.889971 -0.071037
v -0.006934 -0.041516 0.039501
vn 0.035402 -0.997998 -0.052406
v 0.003716 -0.042501 0.048952
vn -0.934320 -0.350495 -0.064809
v -0.012960 -0.035361 0.057466
vn -0.992060 -0.110185 -0.060626
v -0.012811 -0.022341 0.030869
vn -0.992595 -0.106882 -0.057718
v -0.013599 -0.014811 0.036650
vn -0.990399 -0.111831 -0.081265
v -0.014096 -0.022816 0.052725
vn -0.993033 -0.079729 -0.086763
v -0.017048 -0.010238 0.064870
vn 0.006643 -0.999480 -0.031550
v 0.000603 -0.043770 0.066928
vn -0.577838 -0.814763 -0.047589
v -0.009342 -0.041700 0.069644
vn -0.919139 -0.393403 -0.020441
v -0.013884 -0.037130 0.084391
vn -0.994422 -0.071395 -0.077634
v -0.018916 -0.005507 0.082360
vn -0.986309 -0.153435 -0.060427
v -0.016457 -0.022970 0.081876
vn -0.645511 -0.727163 0.233557
v -0.011269 -0.041037 0.094781
vn -0.172479 -0.951568 0.254499
v -0.005697 -0.044075 0.095756
vn -0.775087 -0.385033 0.500989
v -0.013518 -0.036603 0.098912
vn -0.298078 -0.518797 0.801248
v -0.006546 -0.037485 0.103081
vn -0.060112 -0.088230 0.994285
v 0.009657 -0.026122 0.106870
vn -0.300497 -0.190748 0.934514
v -0.008424 -0.029465 0.105540
vn -0.060374 -0.034218 0.997589
v 0.000508 -0.010892 0.107268
vn -0.236070 0.160810 -0.958338
v -0.003766 0.011942 0.000200
vn -0.651396 0.221408 -0.725714
v -0.011264 0.014184 0.003569
vn -0.483165 0.517748 -0.706037
v -0.008468 0.019424 0.003473
vn -0.179058 0.641840 -0.745640
v -0.004005 0.021909 0.003667
vn -0.950284 0.092302 -0.297390
v -0.015412 0.016098 0.010252
vn -0.776294 0.547707 -0.312066
v -0.014073 0.020946 0.013408
vn -0.993896 -0.093437 -0.058653
v -0.015268 0.004310 0.024527
vn -0.010857 0.955888 -0.293532
v 0.011637 0.029561 0.012323
vn -0.340513 0.897086 -0.281581
v -0.006644 0.026627 0.013347
vn -0.993817 -0.090335 -0.064560
v -0.016081 0.003796 0.035670
vn -0.984112 0.155537 -0.085624
v -0.016449 0.017427 0.030816
vn -0.588823 0.803515 -0.087469
v -0.012600 0.026748 0.031877
vn -0.915535 0.400336 -0.039084
v -0.017795 0.021485 0.045661
vn -0.993579 -0.090312 -0.068157
v -0.016442 0.001401 0.048652
vn -0.325476 0.945550 -0.000624
v -0.011072 0.027397 0.041627
vn -0.089553 0.995384 -0.034514
v -0.001744 0.027584 0.038224
vn -0.996230 0.080850 -0.031456
v -0.018673 0.017764 0.060422
vn -0.825628 0.562975 -0.037380
v -0.016494 0.022979 0.069484
vn -0.985382 0.162685 -0.050554
v -0.019279 0.015520 0.071973
vn -0.994660 -0.058245 -0.085194
v -0.017704 0.001905 0.073508
vn -0.758322 0.651875 0.002470
v -0.016205 0.025885 0.083503
vn -0.083042 0.996546 -0.001065
v -0.001684 0.028732 0.055909
vn -0.275937 0.937792 0.210723
v -0.009869 0.028024 0.097094
vn -0.356913 0.933976 -0.017406
v -0.009873 0.026993 0.065274
vn -0.969126 -0.147894 0.197289
v -0.017750 -0.019318 0.097674
vn -0.988310 0.074677 0.132915
v -0.021065 0.014943 0.095614
vn -0.582004 -0.070705 0.810106
v -0.013056 -0.010674 0.105309
vn -0.640521 0.434177 0.633421
v -0.017927 0.019010 0.101751
vn -0.181015 0.697529 0.693316
v -0.001967 0.026273 0.102444
vn 0.423199 -0.891807 -0.159945
v 0.028456 -0.037486 0.018245
vn -0.019557 -0.086602 -0.996051
v 0.008782 -0.022379 -0.000872
vn 0.193143 -0.250210 -0.948731
v 0.019176 -0.028434 0.000694
vn 0.426032 -0.003527 -0.904701
v 0.024173 -0.020251 0.001310
vn 0.689585 -0.244481 -0.681690
v 0.028550 -0.029419 0.004289
vn 0.204453 -0.007188 -0.978850
v 0.017158 -0.013383 -0.000755
vn 0.771016 0.120835 -0.625247
v 0.027722 -0.010248 0.004547
vn 0.417948 -0.661095 -0.623116
v 0.025579 -0.034252 0.005823
vn 0.745795 -0.665641 0.026700
v 0.030012 -0.035727 0.039314
vn 0.995147 -0.091279 0.036751
v 0.032448 -0.028149 0.047744
vn 0.937720 -0.325905 -0.120282
v 0.032845 -0.031546 0.019522
vn 0.994365 0.105979 -0.002563
v 0.031038 -0.012024 0.030623
vn 0.099723 -0.992974 -0.063710
v 0.011841 -0.040568 0.026910
vn 0.271092 -0.962423 -0.015844
v 0.021721 -0.040567 0.050847
vn 0.405640 -0.913641 -0.026772
v 0.021917 -0.040225 0.065156
vn 0.845341 -0.534163 0.008233
v 0.029337 -0.035371 0.062173
vn 0.997953 -0.062325 0.014328
v 0.031616 -0.026849 0.067652
vn 0.993144 0.109119 0.041928
v 0.030616 -0.005051 0.048086
vn 0.096938 -0.994887 -0.028342
v 0.007456 -0.043299 0.084656
vn 0.991589 0.123040 0.040150
v 0.029001 -0.006861 0.071860
vn 0.901726 -0.432248 0.007242
v 0.030694 -0.034527 0.076442
vn 0.697754 -0.716296 -0.007670
v 0.026957 -0.038990 0.087257
vn 0.254214 -0.955511 0.149581
v 0.021526 -0.042621 0.096805
vn 0.209919 -0.506662 0.836199
v 0.017484 -0.036827 0.107100
vn 0.668328 -0.108059 0.735976
v 0.026184 -0.029397 0.105234
vn 0.180711 -0.021838 0.983294
v 0.019613 -0.023639 0.107420
vn 0.624144 -0.703155 0.340612
v 0.025125 -0.040757 0.097518
vn 0.900449 -0.279788 0.333033
v 0.029461 -0.031467 0.099846
vn 0.995246 0.067700 0.070011
v 0.030764 -0.020797 0.089155
vn 0.739819 0.068535 0.669306
v 0.026303 -0.015174 0.104851
vn 0.964148 0.096618 0.247151
v 0.029146 -0.016580 0.096972
vn 0.305906 0.072528 -0.949295
v 0.017960 0.000295 -0.000157
vn 0.785243 0.128836 -0.605636
v 0.024796 0.003308 0.004708
vn 0.215527 0.300114 -0.929236
v 0.015835 0.019357 0.001858
vn 0.184319 0.157400 -0.970181
v 0.014912 0.013103 0.000396
vn 0.590853 0.203753 -0.780626
v 0.022465 0.017716 0.003936
vn 0.008149 0.349363 -0.936952
v 0.008953 0.019500 0.001349
vn 0.007808 0.724094 -0.689657
v 0.009611 0.024150 0.003959
vn 0.168522 0.588590 -0.790672
v 0.016097 0.023652 0.004119
vn 0.563221 0.473124 -0.677448
v 0.020614 0.020734 0.003887
vn 0.971758 0.045038 -0.231640
v 0.032857 -0.022356 0.011342
vn 0.987025 0.160354 -0.008227
v 0.028330 0.013788 0.040423
vn 0.281541 0.778795 -0.560547
v 0.018962 0.025118 0.006945
vn 0.571903 0.780649 -0.252022
v 0.023127 0.027516 0.014326
vn 0.974674 0.139989 -0.174394
v 0.028025 0.005179 0.015244
vn 0.937341 0.266717 -0.224172
v 0.027347 0.019739 0.016526
vn 0.758721 0.651321 0.011103
v 0.025129 0.025344 0.038665
vn 0.934233 0.353607 0.046591
v 0.026315 0.022184 0.061108
vn 0.992792 0.110313 0.046863
v 0.027567 0.005697 0.068427
vn 0.987449 0.155724 0.026337
v 0.026674 0.013649 0.078450
vn 0.989020 0.140249 0.046579
v 0.028308 -0.003823 0.081919
vn 0.981971 0.102856 0.158600
v 0.027217 0.000333 0.097062
vn 0.775671 0.629862 0.040110
v 0.023069 0.025511 0.077298
vn 0.107489 0.994203 -0.002457
v 0.014048 0.029452 0.039433
vn 0.314968 0.949078 0.006779
v 0.019243 0.028655 0.064345
vn -0.142420 0.160425 0.976719
v -0.002200 0.014357 0.108330
vn 0.277303 0.052150 0.959366
v 0.017442 0.006011 0.107438
vn 0.255499 0.037490 0.966082
v 0.020145 -0.008413 0.107706
vn 0.649325 0.697196 0.303802
v 0.021498 0.025932 0.098515
vn 0.144292 0.570308 0.808659
v 0.011651 0.025061 0.105987
vn 0.804187 0.104766 0.585070
v 0.024392 0.008299 0.101661
vn 0.716215 0.253660 0.650148
v 0.022323 0.019437 0.104203
vn 0.965349 0.214471 0.148671
v 0.026847 0.014559 0.092053
vn 0.118373 0.975595 0.184939
v 0.010771 0.030494 0.095270
# 127 vertices, 0 vertices normals

f 6//6 11//11 7//7
f 6//6 7//7 8//8
f 64//64 6//6 8//8
f 15//15 6//6 76//76
f 76//76 6//6 64//64
f 12//12 6//6 15//15
f 9//9 65//65 1//1
f 8//8 1//1 71//71
f 7//7 1//1 8//8
f 7//7 11//11 9//9
f 1//1 7//7 9//9
f 10//10 2//2 65//65
f 10//10 65//65 9//9
f 13//13 9//9 11//11
f 9//9 13//13 10//10
f 14//14 13//13 11//11
f 14//14 11//11 12//12
f 12//12 19//19 14//14
f 12//12 11//11 6//6
f 19//19 41//41 14//14
f 41//41 19//19 20//20
f 12//12 15//15 16//16
f 16//16 15//15 17//17
f 15//15 76//76 17//17
f 23//23 24//24 16//16
f 23//23 16//16 17//17
f 18//18 12//12 16//16
f 18//18 19//19 12//12
f 20//20 44//44 41//41
f 20//20 19//19 21//21
f 21//21 19//19 18//18
f 18//18 16//16 24//24
f 21//21 48//48 20//20
f 48//48 21//21 22//22
f 24//24 23//23 29//29
f 29//29 23//23 82//82
f 25//25 24//24 28//28
f 28//28 24//24 29//29
f 27//27 21//21 18//18
f 22//22 21//21 27//27
f 26//26 22//22 27//27
f 18//18 24//24 25//25
f 27//27 18//18 25//25
f 25//25 59//59 27//27
f 26//26 27//27 59//59
f 29//29 31//31 28//28
f 31//31 30//30 28//28
f 87//87 31//31 29//29
f 28//28 30//30 25//25
f 59//59 25//25 30//30
f 30//30 31//31 33//33
f 33//33 61//61 30//30
f 33//33 31//31 32//32
f 59//59 30//30 61//61
f 61//61 33//33 34//34
f 14//14 39//39 13//13
f 13//13 39//39 36//36
f 4//4 2//2 10//10
f 4//4 10//10 35//35
f 13//13 35//35 10//10
f 35//35 13//13 36//36
f 37//37 35//35 36//36
f 38//38 35//35 37//37
f 35//35 38//38 100//100
f 4//4 35//35 100//100
f 37//37 43//43 38//38
f 100//100 38//38 101//101
f 101//101 38//38 42//42
f 40//40 36//36 39//39
f 40//40 37//37 36//36
f 39//39 14//14 41//41
f 43//43 37//37 40//40
f 46//46 43//43 40//40
f 41//41 45//45 39//39
f 45//45 46//46 40//40
f 40//40 39//39 45//45
f 43//43 42//42 38//38
f 46//46 50//50 43//43
f 45//45 41//41 44//44
f 47//47 44//44 48//48
f 44//44 47//47 45//45
f 46//46 45//45 47//47
f 49//49 46//46 47//47
f 50//50 46//46 49//49
f 48//48 44//44 20//20
f 51//51 48//48 54//54
f 54//54 48//48 22//22
f 47//47 48//48 51//51
f 58//58 49//49 47//47
f 49//49 58//58 56//56
f 56//56 50//50 49//49
f 42//42 43//43 50//50
f 117//117 42//42 50//50
f 56//56 117//117 50//50
f 51//51 54//54 53//53
f 52//52 51//51 53//53
f 47//47 51//51 52//52
f 58//58 47//47 52//52
f 26//26 54//54 22//22
f 60//60 26//26 59//59
f 60//60 54//54 26//26
f 60//60 53//53 54//54
f 55//55 52//52 53//53
f 58//58 52//52 55//55
f 53//53 60//60 55//55
f 58//58 5//5 56//56
f 55//55 57//57 58//58
f 57//57 5//5 58//58
f 5//5 57//57 127//127
f 61//61 60//60 59//59
f 62//62 61//61 119//119
f 61//61 34//34 119//119
f 119//119 34//34 120//120
f 55//55 60//60 62//62
f 62//62 57//57 55//55
f 60//60 61//61 62//62
f 57//57 62//62 63//63
f 62//62 119//119 63//63
f 127//127 57//57 63//63
f 1//1 65//65 66//66
f 71//71 1//1 66//66
f 68//68 71//71 66//66
f 67//67 68//68 66//66
f 69//69 65//65 2//2
f 66//66 65//65 69//69
f 2//2 95//95 69//69
f 69//69 3//3 67//67
f 66//66 69//69 67//67
f 69//69 95//95 3//3
f 67//67 70//70 68//68
f 70//70 67//67 3//3
f 68//68 70//70 104//104
f 71//71 64//64 8//8
f 74//74 71//71 68//68
f 74//74 68//68 104//104
f 64//64 71//71 74//74
f 64//64 74//74 72//72
f 72//72 74//74 73//73
f 74//74 104//104 75//75
f 77//77 17//17 76//76
f 72//72 78//78 77//77
f 76//76 64//64 77//77
f 75//75 73//73 74//74
f 77//77 64//64 72//72
f 73//73 79//79 72//72
f 78//78 72//72 79//79
f 80//80 79//79 73//73
f 81//81 73//73 75//75
f 73//73 81//81 83//83
f 23//23 17//17 77//77
f 78//78 23//23 77//77
f 78//78 82//82 23//23
f 85//85 86//86 78//78
f 78//78 86//86 82//82
f 84//84 85//85 78//78
f 79//79 80//80 84//84
f 84//84 78//78 79//79
f 80//80 73//73 83//83
f 92//92 91//91 84//84
f 80//80 83//83 92//92
f 84//84 80//80 92//92
f 114//114 92//92 83//83
f 94//94 92//92 114//114
f 29//29 82//82 86//86
f 90//90 86//86 85//85
f 86//86 87//87 29//29
f 31//31 87//87 32//32
f 89//89 32//32 87//87
f 87//87 86//86 90//90
f 88//88 89//89 87//87
f 85//85 84//84 91//91
f 90//90 85//85 91//91
f 91//91 92//92 94//94
f 91//91 87//87 90//90
f 88//88 87//87 91//91
f 91//91 94//94 88//88
f 34//34 33//33 32//32
f 34//34 32//32 121//121
f 88//88 93//93 89//89
f 89//89 121//121 32//32
f 121//121 89//89 93//93
f 93//93 124//124 121//121
f 94//94 114//114 115//115
f 115//115 93//93 94//94
f 94//94 93//93 88//88
f 95//95 2//2 4//4
f 95//95 4//4 98//98
f 95//95 96//96 3//3
f 70//70 3//3 96//96
f 98//98 4//4 100//100
f 100//100 97//97 98//98
f 98//98 99//99 95//95
f 99//99 96//96 95//95
f 97//97 103//103 99//99
f 99//99 98//98 97//97
f 100//100 102//102 97//97
f 102//102 100//100 101//101
f 102//102 103//103 97//97
f 102//102 106//106 103//103
f 102//102 101//101 106//106
f 107//107 103//103 106//106
f 70//70 108//108 104//104
f 70//70 96//96 108//108
f 75//75 104//104 108//108
f 105//105 75//75 108//108
f 106//106 101//101 42//42
f 107//107 106//106 42//42
f 96//96 99//99 109//109
f 109//109 108//108 96//96
f 99//99 103//103 109//109
f 103//103 107//107 109//109
f 110//110 109//109 107//107
f 107//107 42//42 117//117
f 105//105 81//81 75//75
f 105//105 108//108 109//109
f 110//110 105//105 109//109
f 83//83 81//81 112//112
f 112//112 81//81 111//111
f 111//111 110//110 118//118
f 105//105 110//110 111//111
f 111//111 81//81 105//105
f 117//117 110//110 107//107
f 110//110 117//117 118//118
f 113//113 112//112 111//111
f 112//112 114//114 83//83
f 118//118 116//116 111//111
f 113//113 111//111 116//116
f 114//114 112//112 115//115
f 115//115 112//112 113//113
f 115//115 113//113 126//126
f 116//116 126//126 113//113
f 118//118 117//117 56//56
f 118//118 56//56 5//5
f 127//127 118//118 5//5
f 116//116 118//118 127//127
f 121//121 120//120 34//34
f 120//120 121//121 124//124
f 115//115 126//126 124//124
f 93//93 115//115 124//124
f 123//123 119//119 120//120
f 123//123 120//120 125//125
f 124//124 125//125 120//120
f 122//122 123//123 125//125
f 123//123 63//63 119//119
f 124//124 126//126 125//125
f 126//126 116//116 122//122
f 122//122 125//125 126//126
f 122//122 127//127 123//123
f 127//127 122//122 116//116
f 123//123 127//127 63//63
# 250 faces, 0 coords texture

# End of File
