####
#
# OBJ File Generated by Meshlab
#
####
# Object band_aid_sheer_strips_250_collision.obj
#
# Vertices: 127
# Faces: 250
#
####
vn -0.087822 -0.336140 -0.937709
v -0.001957 -0.042450 0.005871
vn 0.050605 0.260338 0.964191
v 0.016047 0.026064 0.107278
vn 0.700315 0.695550 -0.160526
v 0.023483 0.031097 0.005871
vn 0.816363 -0.323130 -0.478685
v 0.035225 -0.034774 0.005871
vn -0.845676 0.186949 -0.499882
v -0.015000 0.019569 0.005871
vn -0.654685 -0.720690 -0.228021
v -0.007828 -0.045833 0.009785
vn 0.901550 0.072036 -0.426635
v 0.035225 -0.028033 0.005871
vn 0.624046 0.651934 0.430754
v 0.021526 0.027662 0.103718
vn 0.322069 -0.783734 -0.531067
v 0.030749 -0.042940 0.009899
vn -0.390858 -0.090237 -0.916017
v -0.009785 -0.022111 0.005871
vn -0.754919 -0.090663 -0.649521
v -0.013699 0.003726 0.005871
vn -0.956311 -0.288133 0.049490
v -0.013699 -0.035498 0.095890
vn -0.436242 0.894888 0.094173
v -0.017109 0.025440 0.093933
vn -0.216181 -0.072540 0.973655
v -0.009785 -0.033268 0.105427
vn 0.995538 0.077500 0.053838
v 0.031582 -0.029354 0.093933
vn 0.080037 -0.770535 -0.632352
v 0.005871 -0.044540 0.007828
vn 0.660492 -0.750688 0.014758
v 0.031311 -0.043053 0.012874
vn -0.465897 0.783694 -0.410808
v -0.011428 0.025440 0.005871
vn -0.270598 0.959677 0.076133
v -0.012172 0.027694 0.096862
vn 0.978193 0.192953 0.076857
v 0.025813 0.021681 0.096171
vn 0.289402 0.954817 0.067613
v 0.017612 0.031352 0.093933
vn 0.924973 -0.057670 0.375631
v 0.029354 -0.029354 0.103354
vn 0.128955 -0.984592 -0.118104
v 0.025440 -0.044330 0.011742
vn -0.021219 -0.781196 -0.623925
v -0.001271 -0.045010 0.007828
vn 0.076089 -0.320368 -0.944232
v 0.028236 -0.037182 0.005871
vn -0.984725 0.167435 0.047767
v -0.019979 0.019550 0.093100
vn -0.684085 -0.051675 -0.727570
v -0.014756 0.015656 0.005871
vn -0.867616 -0.066437 0.492776
v -0.018022 0.013699 0.103718
vn -0.698394 -0.680803 0.220801
v -0.011391 -0.039139 0.099804
vn -0.122823 0.970265 -0.208568
v 0.016269 0.031311 0.005871
vn -0.577236 0.372003 -0.726920
v -0.011742 0.024985 0.005871
vn -0.086959 0.369004 0.925351
v 0.002628 0.025581 0.106315
vn -0.105165 -0.526497 0.843648
v -0.002935 -0.039139 0.104886
vn 0.293851 -0.043203 0.954875
v 0.025440 -0.029354 0.106380
vn 0.456231 0.880393 0.129464
v 0.021526 0.029627 0.095890
vn -0.006543 0.999852 0.015886
v 0.013699 0.031755 0.093933
vn 0.708578 0.329430 0.624013
v 0.021846 0.024934 0.105262
vn 0.020074 -0.987786 -0.154519
v -0.003914 -0.045978 0.009785
vn -0.961541 -0.145526 0.232940
v -0.013957 -0.031311 0.101761
vn -0.833153 -0.529039 0.161167
v -0.011742 -0.038683 0.099804
vn -0.926669 0.276132 0.255020
v -0.018772 0.020059 0.101761
vn -0.172210 0.975323 0.138164
v -0.008389 0.028335 0.096452
vn -0.060450 0.862504 0.502427
v 0.011385 0.030104 0.103840
vn -0.440226 0.820322 0.365066
v -0.013877 0.025584 0.103234
vn 0.112117 -0.867782 0.484132
v 0.019569 -0.039204 0.103812
vn 0.941118 0.106402 0.320899
v 0.025615 0.011742 0.103718
vn 0.661323 0.742229 0.108390
v 0.021902 0.029354 0.095890
vn 0.043085 0.337743 -0.940252
v 0.022784 0.031311 0.005871
vn 0.310714 0.904982 0.290628
v 0.018600 0.029522 0.102748
vn 0.327019 0.068367 0.942541
v 0.021526 0.017612 0.106889
vn 0.384470 0.314086 0.868062
v 0.020103 0.024584 0.106522
vn 0.979891 0.110844 0.165913
v 0.027408 0.005871 0.097847
vn 0.076760 -0.995984 0.046095
v 0.000000 -0.043368 0.091976
vn -0.630260 -0.182990 0.754511
v -0.011742 -0.033268 0.104607
vn -0.216978 -0.015397 0.976055
v -0.014614 0.016665 0.106140
vn -0.995322 0.002256 0.096582
v -0.019361 0.015656 0.099804
vn -0.891837 -0.329035 0.310424
v -0.012846 -0.035683 0.101761
vn -0.478142 -0.677613 0.558767
v -0.009394 -0.039645 0.102302
vn -0.204143 -0.976633 0.067181
v -0.005871 -0.043286 0.091976
vn 0.654821 -0.743421 0.136145
v 0.027649 -0.039139 0.095890
vn -0.789970 0.611733 0.041593
v -0.017651 0.025106 0.095000
vn -0.909590 0.037038 0.413852
v -0.019193 0.017057 0.101772
vn 0.114858 0.988424 0.099122
v 0.015656 0.031618 0.095890
vn -0.492702 0.254715 0.832085
v -0.015250 0.020750 0.105898
vn 0.022409 -0.033507 0.999187
v 0.021526 -0.033268 0.106511
vn 0.857359 0.499723 0.123340
v 0.023694 0.027394 0.095947
vn 0.816208 0.008149 0.577701
v 0.029195 -0.029354 0.103718
vn 0.985574 -0.010942 0.168894
v 0.031478 -0.031279 0.096997
vn 0.925051 0.243756 0.291313
v 0.024835 0.022125 0.100970
vn 0.275888 0.945928 0.170606
v 0.017353 0.030803 0.098076
vn -0.049357 0.035388 0.998154
v 0.009357 0.022918 0.107069
vn 0.682284 0.120846 0.721031
v 0.023428 0.018175 0.105983
vn 0.152385 0.045372 0.987279
v 0.019569 0.020548 0.107196
vn 0.344192 -0.541639 0.766915
v 0.025825 -0.037030 0.105528
vn 0.989964 0.100075 0.099780
v 0.031268 -0.027397 0.095890
vn 0.052759 -0.996765 0.060623
v -0.001957 -0.043404 0.093933
vn -0.795694 -0.145654 0.587926
v -0.012921 -0.031311 0.103718
vn -0.696459 -0.012757 0.717484
v -0.017612 0.013699 0.104281
vn -0.453573 -0.086729 0.886989
v -0.011742 -0.031311 0.104809
vn -0.996861 -0.079022 -0.004807
v -0.019948 0.015667 0.094009
vn -0.309637 -0.307021 0.899924
v -0.008806 -0.036693 0.105226
vn 0.760365 -0.644417 0.081066
v 0.029354 -0.037901 0.093933
vn -0.480478 0.872329 0.090464
v -0.015658 0.026315 0.093990
vn -0.627045 0.719176 0.299332
v -0.017593 0.024094 0.098825
vn -0.075073 0.992375 0.097756
v 0.011735 0.031593 0.096005
vn -0.023526 -0.052233 0.998358
v 0.013796 -0.035216 0.106363
vn -0.025869 -0.012994 0.999581
v 0.011742 0.015411 0.107096
vn 0.031375 -0.698164 0.715250
v 0.007828 -0.039139 0.104765
vn 0.902016 0.161788 0.400240
v 0.024802 0.016743 0.103718
vn 0.675245 0.043274 0.736323
v 0.027397 -0.021526 0.105081
vn 0.949425 0.028419 0.312705
v 0.029893 -0.029354 0.101761
vn 0.227062 0.756454 0.613368
v 0.017106 0.028924 0.104831
vn 0.568401 -0.016162 0.822593
v 0.027152 -0.028376 0.105582
vn 0.928461 -0.338781 0.152274
v 0.030435 -0.035224 0.097976
vn 0.760431 -0.162317 0.628807
v 0.028283 -0.031800 0.104410
vn -0.863996 -0.182769 0.469155
v -0.013699 -0.031311 0.102346
vn -0.638115 -0.074037 0.766373
v -0.015656 -0.001957 0.104420
vn -0.068803 -0.017549 0.997476
v -0.011008 -0.005626 0.105950
vn -0.068284 -0.046816 0.996567
v -0.007828 -0.033268 0.105601
vn -0.540257 -0.823474 0.173240
v -0.009300 -0.041094 0.098320
vn -0.742990 -0.429263 0.513517
v -0.011851 -0.036731 0.102713
vn -0.358929 -0.924879 0.125573
v -0.007826 -0.042436 0.095197
vn 0.852533 -0.510698 0.111242
v 0.029632 -0.037182 0.095890
vn 0.746281 -0.646990 0.156428
v 0.029354 -0.037592 0.095890
vn -0.208941 0.747368 0.630702
v -0.010130 0.026361 0.104302
vn 0.049874 -0.130245 0.990227
v 0.021526 -0.035225 0.106363
vn -0.008461 -0.042364 0.999066
v 0.018591 -0.033268 0.106491
vn 0.051422 -0.937704 0.343608
v -0.000489 -0.041547 0.101761
vn 0.075228 -0.964595 0.252779
v 0.001957 -0.042272 0.098825
vn 0.183177 -0.971209 0.152317
v 0.023392 -0.040599 0.097564
vn 0.868970 0.109078 0.482695
v 0.025440 0.011742 0.104076
vn 0.959065 -0.232639 0.161473
v 0.031343 -0.033245 0.095204
vn 0.783282 -0.539746 0.308454
v 0.029237 -0.036116 0.100810
vn -0.485657 -0.017408 0.873976
v -0.015668 0.016245 0.105682
vn -0.041872 -0.142812 0.988864
v 0.001509 -0.037021 0.105907
vn 0.011016 -0.379585 0.925091
v 0.013699 -0.037182 0.106092
vn 0.109334 0.961233 0.253135
v 0.014677 0.030697 0.101383
vn -0.039875 -0.009763 0.999157
v -0.002783 0.014341 0.106645
vn -0.033343 -0.016818 0.999303
v 0.000000 -0.007828 0.106399
vn -0.162486 -0.860210 0.483360
v -0.006019 -0.041308 0.102696
vn -0.034605 -0.988750 0.145523
v -0.003195 -0.043297 0.096138
vn 0.142347 -0.937333 0.318031
v 0.020548 -0.039856 0.101761
vn 0.926572 -0.150729 0.344594
v 0.030170 -0.031311 0.100782
vn 0.374737 -0.870632 0.318704
v 0.025553 -0.038107 0.102904
vn -0.487516 -0.051062 0.871620
v -0.015656 0.011949 0.105495
vn 0.528311 -0.829961 0.179028
v 0.027419 -0.039301 0.096123
vn -0.047026 -0.015995 0.998766
v -0.006849 -0.001468 0.106257
# 127 vertices, 0 vertices normals

f 7//7 3//3 20//20
f 10//10 1//1 6//6
f 11//11 10//10 6//6
f 15//15 7//7 20//20
f 80//80 11//11 6//6
f 80//80 6//6 12//12
f 61//61 5//5 26//26
f 18//18 61//61 13//13
f 68//68 4//4 7//7
f 68//68 7//7 15//15
f 68//68 112//112 4//4
f 23//23 16//16 9//9
f 24//24 6//6 1//1
f 24//24 1//1 16//16
f 25//25 16//16 1//1
f 25//25 4//4 9//9
f 25//25 9//9 16//16
f 26//26 5//5 80//80
f 27//27 80//80 5//5
f 27//27 11//11 80//80
f 29//29 6//6 100//100
f 30//30 18//18 19//19
f 31//31 5//5 61//61
f 31//31 61//61 18//18
f 83//83 18//18 13//13
f 66//66 20//20 3//3
f 35//35 3//3 21//21
f 36//36 30//30 85//85
f 94//94 17//17 4//4
f 94//94 4//4 112//112
f 9//9 17//17 23//23
f 9//9 4//4 17//17
f 38//38 6//6 24//24
f 38//38 24//24 16//16
f 38//38 16//16 23//23
f 38//38 121//121 6//6
f 39//39 80//80 12//12
f 62//62 39//39 28//28
f 40//40 12//12 6//6
f 40//40 6//6 29//29
f 102//102 100//100 6//6
f 110//110 23//23 17//17
f 84//84 13//13 61//61
f 42//42 30//30 19//19
f 42//42 85//85 30//30
f 19//19 18//18 83//83
f 69//69 20//20 66//66
f 47//47 66//66 3//3
f 47//47 3//3 35//35
f 47//47 35//35 8//8
f 48//48 21//21 3//3
f 48//48 30//30 36//36
f 48//48 31//31 18//18
f 48//48 18//18 30//30
f 48//48 3//3 7//7
f 48//48 7//7 4//4
f 48//48 4//4 25//25
f 48//48 25//25 1//1
f 48//48 1//1 10//10
f 48//48 10//10 11//11
f 48//48 11//11 27//27
f 48//48 27//27 5//5
f 48//48 5//5 31//31
f 49//49 8//8 35//35
f 53//53 38//38 23//23
f 53//53 23//23 110//110
f 56//56 39//39 62//62
f 57//57 12//12 40//40
f 58//58 29//29 100//100
f 59//59 102//102 6//6
f 59//59 6//6 121//121
f 63//63 48//48 36//36
f 63//63 21//21 48//48
f 66//66 8//8 69//69
f 66//66 47//47 8//8
f 37//37 69//69 8//8
f 67//67 22//22 46//46
f 68//68 52//52 46//46
f 69//69 52//52 20//20
f 69//69 46//46 52//52
f 72//72 50//50 34//34
f 73//73 51//51 2//2
f 73//73 34//34 50//50
f 69//69 37//37 72//72
f 95//95 67//67 93//93
f 75//75 15//15 20//20
f 75//75 20//20 52//52
f 75//75 52//52 68//68
f 76//76 121//121 38//38
f 76//76 38//38 53//53
f 78//78 28//28 77//77
f 55//55 79//79 14//14
f 55//55 125//125 79//79
f 80//80 39//39 56//56
f 101//101 57//57 40//40
f 101//101 40//40 29//29
f 58//58 101//101 29//29
f 120//120 58//58 100//100
f 102//102 59//59 121//121
f 126//126 110//110 17//17
f 126//126 17//17 60//60
f 126//126 124//124 110//110
f 82//82 60//60 17//17
f 83//83 13//13 84//84
f 83//83 84//84 44//44
f 84//84 61//61 41//41
f 26//26 41//41 61//61
f 62//62 28//28 78//78
f 117//117 43//43 92//92
f 85//85 42//42 43//43
f 105//105 42//42 44//44
f 85//85 63//63 36//36
f 43//43 105//105 32//32
f 87//87 65//65 2//2
f 34//34 65//65 106//106
f 34//34 106//106 74//74
f 110//110 76//76 53//53
f 51//51 37//37 8//8
f 51//51 8//8 92//92
f 89//89 69//69 72//72
f 90//90 67//67 72//72
f 90//90 72//72 93//93
f 90//90 93//93 67//67
f 95//95 22//22 67//67
f 91//91 68//68 46//46
f 91//91 46//46 22//22
f 92//92 49//49 117//117
f 49//49 35//35 70//70
f 70//70 35//35 21//21
f 70//70 21//21 63//63
f 2//2 43//43 32//32
f 93//93 72//72 34//34
f 51//51 50//50 72//72
f 51//51 73//73 50//50
f 51//51 72//72 37//37
f 73//73 2//2 65//65
f 73//73 65//65 34//34
f 92//92 43//43 2//2
f 92//92 2//2 51//51
f 113//113 74//74 124//124
f 113//113 95//95 74//74
f 95//95 93//93 34//34
f 95//95 34//34 74//74
f 68//68 15//15 75//75
f 96//96 77//77 28//28
f 96//96 28//28 39//39
f 64//64 62//62 78//78
f 97//97 78//78 77//77
f 97//97 77//77 54//54
f 97//97 54//54 79//79
f 81//81 79//79 54//54
f 81//81 14//14 79//79
f 98//98 55//55 14//14
f 26//26 80//80 56//56
f 41//41 56//56 62//62
f 41//41 26//26 56//56
f 57//57 39//39 12//12
f 57//57 96//96 39//39
f 100//100 102//102 120//120
f 101//101 54//54 77//77
f 101//101 77//77 96//96
f 101//101 96//96 57//57
f 58//58 33//33 81//81
f 58//58 120//120 33//33
f 102//102 121//121 120//120
f 103//103 82//82 17//17
f 103//103 17//17 94//94
f 104//104 113//113 60//60
f 104//104 60//60 82//82
f 104//104 82//82 103//103
f 44//44 19//19 83//83
f 105//105 44//44 64//64
f 64//64 41//41 62//62
f 64//64 84//84 41//41
f 64//64 44//44 84//84
f 70//70 117//117 49//49
f 105//105 43//43 42//42
f 117//117 63//63 85//85
f 105//105 64//64 32//32
f 106//106 107//107 86//86
f 107//107 65//65 87//87
f 107//107 106//106 65//65
f 33//33 88//88 116//116
f 33//33 120//120 88//88
f 122//122 45//45 108//108
f 69//69 89//89 46//46
f 111//111 67//67 46//46
f 111//111 72//72 67//67
f 111//111 89//89 72//72
f 111//111 46//46 89//89
f 123//123 68//68 91//91
f 123//123 91//91 22//22
f 123//123 22//22 95//95
f 49//49 92//92 8//8
f 32//32 71//71 2//2
f 32//32 64//64 71//71
f 113//113 103//103 94//94
f 113//113 104//104 103//103
f 74//74 106//106 116//116
f 45//45 124//124 74//74
f 45//45 74//74 88//88
f 45//45 88//88 120//120
f 113//113 123//123 95//95
f 113//113 94//94 123//123
f 99//99 14//14 81//81
f 99//99 98//98 14//14
f 101//101 81//81 54//54
f 114//114 125//125 55//55
f 114//114 78//78 125//125
f 114//114 64//64 78//78
f 115//115 81//81 33//33
f 115//115 99//99 81//81
f 116//116 86//86 115//115
f 116//116 106//106 86//86
f 126//126 60//60 113//113
f 126//126 113//113 124//124
f 19//19 44//44 42//42
f 71//71 87//87 2//2
f 87//87 86//86 107//107
f 71//71 118//118 86//86
f 71//71 86//86 87//87
f 119//119 115//115 86//86
f 119//119 86//86 118//118
f 127//127 98//98 99//99
f 74//74 116//116 88//88
f 120//120 108//108 45//45
f 109//109 122//122 108//108
f 109//109 108//108 121//121
f 121//121 76//76 110//110
f 121//121 110//110 109//109
f 122//122 109//109 110//110
f 122//122 110//110 124//124
f 121//121 108//108 120//120
f 123//123 94//94 112//112
f 123//123 112//112 68//68
f 125//125 97//97 79//79
f 125//125 78//78 97//97
f 58//58 81//81 101//101
f 114//114 55//55 64//64
f 55//55 71//71 64//64
f 115//115 33//33 116//116
f 117//117 85//85 43//43
f 117//117 70//70 63//63
f 127//127 115//115 119//119
f 127//127 119//119 118//118
f 127//127 99//99 115//115
f 124//124 45//45 122//122
f 118//118 55//55 98//98
f 118//118 98//98 127//127
f 71//71 55//55 118//118
# 250 faces, 0 coords texture

# End of File
