####
#
# OBJ File Generated by Meshlab
#
####
# Object paper_plate_250_collision.obj
#
# Vertices: 152
# Faces: 249
#
####
vn -0.236854 0.028521 0.971126
v 0.118273 -0.004724 0.016309
vn 0.377808 0.415271 0.827533
v -0.092108 -0.148223 0.052773
vn 0.435477 0.474695 0.764869
v -0.136597 -0.109468 0.053102
vn 0.701479 0.606648 0.374038
v -0.128562 -0.148223 0.089890
vn 0.672912 0.704198 0.226484
v -0.139927 -0.137222 0.089886
vn 0.597075 0.438865 0.671490
v -0.102811 -0.148223 0.059866
vn 0.146329 0.392436 0.908065
v -0.058166 -0.148233 0.041252
vn 0.058509 0.368947 0.927607
v -0.013785 -0.148182 0.037889
vn 0.327840 0.175199 0.928346
v -0.139861 -0.055518 0.029681
vn 0.324318 0.031193 0.945434
v -0.139928 -0.036871 0.028152
vn 0.382353 0.033851 0.923396
v -0.139928 -0.018313 0.028590
vn 0.463881 0.032840 0.885289
v -0.139928 0.000246 0.028811
vn 0.703533 0.698739 -0.129637
v -0.115321 -0.148223 0.164125
vn 0.716523 0.684156 -0.136104
v -0.139928 -0.122453 0.164125
vn -0.017476 0.427461 0.903865
v 0.045659 -0.148223 0.032775
vn -0.172997 0.370556 0.912557
v 0.066962 -0.148222 0.033691
vn -0.319839 0.342258 0.883495
v 0.082776 -0.148223 0.037910
vn -0.395638 0.342637 0.852098
v 0.156971 -0.091474 0.043410
vn -0.510254 0.350434 0.785390
v 0.118072 -0.148222 0.054237
vn -0.729120 0.636686 0.251028
v 0.148131 -0.148223 0.089890
vn -0.661197 0.666845 0.343709
v 0.157011 -0.139352 0.089890
vn -0.502773 0.520412 0.690211
v 0.154787 -0.108384 0.052885
vn -0.293157 0.127866 0.947475
v 0.157021 -0.044690 0.031113
vn -0.332798 0.095726 0.938127
v 0.156987 -0.005172 0.031242
vn -0.703921 0.702394 -0.105539
v 0.137001 -0.148223 0.164125
vn -0.703363 0.702921 -0.105748
v 0.157011 -0.128170 0.164125
vn 0.327014 -0.307370 0.893636
v -0.139882 0.071922 0.043059
vn 0.377609 -0.451445 0.808461
v -0.139928 0.094373 0.052773
vn 0.370907 -0.433506 0.821280
v -0.076480 0.148710 0.052411
vn 0.518071 -0.593567 0.615858
v -0.139928 0.111598 0.069466
vn 0.675833 -0.689621 0.260141
v -0.119224 0.148715 0.089890
vn 0.679375 -0.688830 0.252909
v -0.139928 0.128426 0.089890
vn 0.531115 -0.564509 0.631860
v -0.102811 0.148715 0.071471
vn 0.121842 -0.453724 0.882774
v 0.008655 0.148676 0.034166
vn 0.707528 -0.705762 -0.036112
v -0.115900 0.148715 0.164125
vn 0.715362 -0.697557 -0.040891
v -0.139928 0.124074 0.164125
vn -0.361647 -0.266687 0.893359
v 0.157004 0.074351 0.038585
vn -0.373153 -0.097405 0.922643
v 0.157008 0.023641 0.031324
vn -0.015301 -0.401353 0.915796
v 0.027201 0.148663 0.032392
vn -0.153875 -0.340595 0.927533
v 0.059047 0.148672 0.034755
vn -0.295826 -0.304014 0.905573
v 0.082776 0.148715 0.040268
vn -0.451350 -0.355121 0.818641
v 0.112067 0.148715 0.052773
vn -0.367050 -0.512537 0.776260
v 0.157005 0.106838 0.053734
vn -0.647842 -0.430444 0.628505
v 0.119893 0.148715 0.059618
vn -0.721139 -0.642068 0.260208
v 0.144919 0.148715 0.089890
vn -0.603184 -0.679147 0.418243
v 0.157011 0.136619 0.089890
vn -0.699044 -0.710144 -0.083865
v 0.136013 0.148715 0.164125
vn -0.701984 -0.707384 -0.082618
v 0.157011 0.128046 0.164125
vn 0.175958 0.017329 0.984245
v -0.062404 -0.023163 0.005964
vn 0.460477 0.505019 0.730011
v -0.102811 -0.137371 0.052773
vn 0.320371 0.260338 0.910816
v -0.118640 -0.071756 0.025941
vn 0.348296 0.455552 0.819245
v -0.100161 -0.111142 0.035220
vn 0.259314 0.447537 0.855842
v -0.081532 -0.109988 0.028275
vn 0.319893 0.357835 0.877281
v -0.101952 -0.093051 0.027132
vn 0.217318 0.429444 0.876556
v -0.063833 -0.129318 0.034050
vn 0.012147 0.269711 0.962865
v -0.055202 -0.101329 0.017896
vn 0.032256 0.390424 0.920070
v -0.037941 -0.134321 0.033990
vn -0.000367 0.290053 0.957011
v -0.024445 -0.113170 0.020448
vn 0.027317 0.341619 0.939441
v -0.004340 -0.116489 0.025058
vn -0.013454 0.432521 0.901523
v -0.012422 -0.128971 0.030088
vn 0.006710 0.294628 0.955588
v -0.010064 -0.109439 0.022150
vn -0.004760 0.146936 0.989135
v -0.044853 -0.095478 0.022137
vn 0.369574 0.362018 0.855779
v -0.139763 -0.072067 0.035195
vn 0.195906 0.072802 0.977916
v -0.090742 -0.041594 0.014710
vn 0.108532 0.099474 0.989104
v -0.091041 -0.070479 0.016888
vn 0.194019 0.019690 0.980800
v -0.104157 -0.037342 0.016203
vn 0.136907 0.014682 0.990475
v -0.111385 -0.025503 0.018159
vn 0.139191 0.049222 0.989042
v -0.113234 -0.004613 0.015855
vn 0.324703 -0.038753 0.945022
v -0.116802 0.005282 0.015892
vn 0.207402 -0.052475 0.976847
v -0.090926 -0.021343 0.018679
vn 0.271854 0.006029 0.962320
v -0.069848 0.009122 0.006035
vn 0.262291 -0.187779 0.946542
v -0.079069 0.055521 0.015600
vn 0.193940 -0.157762 0.968245
v -0.059729 0.040167 0.006341
vn 0.221665 -0.223615 0.949137
v -0.053468 0.085219 0.017955
vn 0.083935 -0.221382 0.971568
v -0.017811 0.072919 0.007012
vn 0.024299 -0.024538 0.999404
v -0.042632 0.032229 0.005053
vn -0.030955 -0.275569 0.960783
v 0.017374 0.077542 0.005537
vn 0.436398 -0.125541 0.890953
v -0.139928 0.018909 0.029927
vn 0.142598 -0.127154 0.981579
v -0.109540 0.027723 0.017830
vn 0.340888 -0.243350 0.908062
v -0.139913 0.038912 0.032405
vn 0.064233 0.022704 0.997677
v -0.098016 0.003855 0.018332
vn 0.358869 -0.283784 0.889201
v -0.113726 0.074736 0.034188
vn 0.291157 -0.182784 0.939051
v -0.094329 0.044110 0.018420
vn 0.415853 -0.503377 0.757415
v -0.116647 0.111457 0.052621
vn 0.342883 -0.417062 0.841719
v -0.082437 0.108844 0.036031
vn 0.351563 -0.389130 0.851458
v -0.102812 0.092887 0.036704
vn 0.286629 -0.401213 0.869984
v -0.057255 0.110539 0.027337
vn 0.269065 -0.279720 0.921608
v -0.076456 0.070048 0.016811
vn 0.407687 -0.458749 0.789519
v -0.102811 0.123499 0.052773
vn 0.191617 -0.375793 0.906677
v -0.044731 0.101315 0.017846
vn 0.149708 -0.384179 0.911040
v -0.014238 0.116278 0.026182
vn 0.092170 -0.302232 0.948768
v -0.000689 0.103584 0.018955
vn 0.278182 -0.421755 0.862982
v -0.065705 0.130145 0.040496
vn 0.152734 -0.467432 0.870735
v -0.044042 0.128828 0.034980
vn 0.179532 -0.388103 0.903960
v -0.047501 0.148697 0.044207
vn 0.223085 -0.403979 0.887150
v 0.001495 0.148421 0.035332
vn 0.113029 -0.296481 0.948327
v 0.006362 0.117696 0.018560
vn -0.011659 0.294359 0.955624
v 0.010736 -0.077659 0.006902
vn 0.067950 -0.026518 0.997336
v 0.093245 -0.076970 0.014929
vn 0.106326 0.202663 0.973459
v -0.029611 -0.068722 0.006282
vn -0.094703 0.280498 0.955171
v 0.049841 -0.075811 0.007888
vn -0.241632 0.122524 0.962602
v 0.081951 -0.045050 0.006695
vn -0.064954 0.010602 0.997832
v 0.060292 -0.027619 0.005586
vn -0.295044 -0.055889 0.953848
v 0.093128 0.010572 0.007618
vn 0.112136 0.403156 0.908235
v 0.022344 -0.148163 0.033788
vn 0.063102 0.311111 0.948276
v 0.031718 -0.119524 0.018778
vn -0.312072 0.357862 0.880083
v 0.082576 -0.138591 0.034106
vn -0.136793 0.363901 0.921338
v 0.058916 -0.124333 0.022576
vn 0.028184 0.152734 0.987865
v 0.019160 -0.103599 0.018834
vn 0.028677 0.036484 0.998923
v 0.050816 -0.110510 0.016682
vn 0.117773 0.132832 0.984117
v 0.046765 -0.103388 0.021186
vn 0.093590 0.124656 0.987776
v 0.053706 -0.095004 0.016690
vn -0.040716 0.062189 0.997234
v 0.068160 -0.094406 0.016750
vn -0.026822 0.059230 0.997884
v 0.086213 -0.075002 0.018507
vn -0.487690 0.471552 0.734708
v 0.119893 -0.142315 0.052773
vn -0.258423 0.339482 0.904416
v 0.098409 -0.109009 0.026259
vn -0.371918 0.395590 0.839753
v 0.119336 -0.110698 0.034784
vn -0.319287 0.262025 0.910713
v 0.114105 -0.087573 0.023316
vn -0.387818 0.325645 0.862295
v 0.136559 -0.090314 0.034697
vn -0.417900 0.428797 0.800933
v 0.138452 -0.111106 0.044789
vn -0.215210 0.131895 0.967620
v 0.100191 -0.044673 0.013684
vn -0.178338 0.031655 0.983460
v 0.110455 -0.053340 0.014912
vn -0.351644 0.208974 0.912511
v 0.144469 -0.070986 0.032224
vn -0.277000 0.027242 0.960484
v 0.112410 -0.025136 0.016271
vn -0.327177 0.083066 0.941305
v 0.136965 -0.045045 0.026341
vn -0.361741 0.088437 0.928075
v 0.129172 -0.010124 0.022165
vn -0.005745 -0.009067 0.999942
v 0.011998 0.027511 0.005343
vn -0.172877 -0.081380 0.981576
v 0.075459 0.032923 0.006543
vn -0.204826 -0.193425 0.959496
v 0.061165 0.063528 0.007739
vn -0.207689 -0.220756 0.952959
v 0.090555 0.055814 0.014124
vn -0.133243 -0.328871 0.934928
v 0.026406 0.090407 0.012983
vn -0.056910 -0.358468 0.931806
v 0.058594 0.084770 0.013428
vn 0.185467 -0.113143 0.976115
v 0.120426 0.016630 0.022255
vn 0.063196 -0.061352 0.996114
v 0.123837 0.006432 0.016544
vn 0.068602 -0.004135 0.997636
v 0.122456 0.032011 0.019300
vn 0.051671 -0.172708 0.983617
v 0.091764 0.072804 0.023608
vn -0.071380 -0.101313 0.992291
v 0.107400 0.069008 0.017593
vn -0.150319 0.002970 0.988633
v 0.109665 0.045346 0.020908
vn -0.366896 -0.121651 0.922273
v 0.134717 0.050210 0.025820
vn -0.353601 -0.242812 0.903332
v 0.135681 0.072535 0.029575
vn -0.367104 -0.275351 0.888491
v 0.146538 0.074395 0.034362
vn 0.062381 0.018332 0.997884
v 0.047340 0.103375 0.024119
vn 0.025300 -0.085210 0.996042
v 0.056889 0.102630 0.018976
vn -0.063592 -0.352730 0.933562
v 0.037067 0.127257 0.024450
vn -0.043579 -0.142510 0.988834
v 0.036913 0.114989 0.016362
vn -0.200630 -0.348721 0.915501
v 0.057068 0.123881 0.025325
vn -0.156943 -0.215969 0.963705
v 0.083061 0.096162 0.022880
vn -0.267717 -0.332025 0.904482
v 0.083546 0.130857 0.034524
vn -0.051617 -0.181523 0.982031
v 0.102364 0.077032 0.018592
vn -0.349145 -0.369803 0.861013
v 0.119094 0.101609 0.033299
vn -0.436818 -0.514618 0.737807
v 0.147933 0.111598 0.052773
vn -0.521776 -0.466779 0.714050
v 0.119893 0.138721 0.052773
# 152 vertices, 0 vertices normals

f 100//100 61//61 98//98
f 66//66 64//64 70//70
f 70//70 64//64 49//49
f 81//81 70//70 71//71
f 71//71 70//70 49//49
f 49//49 64//64 100//100
f 127//127 49//49 100//100
f 76//76 49//49 127//127
f 50//50 52//52 3//3
f 2//2 7//7 55//55
f 50//50 2//2 55//55
f 55//55 56//56 53//53
f 55//55 53//53 50//50
f 53//53 52//52 50//50
f 3//3 52//52 54//54
f 51//51 3//3 54//54
f 3//3 51//51 63//63
f 52//52 53//53 54//54
f 53//53 56//56 54//54
f 65//65 51//51 54//54
f 56//56 65//65 54//54
f 62//62 65//65 56//56
f 4//4 6//6 50//50
f 5//5 4//4 50//50
f 50//50 3//3 5//5
f 50//50 6//6 2//2
f 56//56 55//55 57//57
f 57//57 62//62 56//56
f 62//62 57//57 58//58
f 57//57 55//55 7//7
f 7//7 8//8 57//57
f 57//57 8//8 60//60
f 8//8 105//105 59//59
f 59//59 60//60 8//8
f 59//59 58//58 60//60
f 58//58 59//59 61//61
f 58//58 57//57 60//60
f 61//61 62//62 58//58
f 61//61 59//59 109//109
f 109//109 98//98 61//61
f 100//100 62//62 61//61
f 63//63 51//51 9//9
f 66//66 10//10 9//9
f 9//9 51//51 66//66
f 66//66 51//51 64//64
f 51//51 65//65 64//64
f 64//64 65//65 62//62
f 67//67 11//11 10//10
f 10//10 66//66 67//67
f 11//11 67//67 68//68
f 68//68 12//12 11//11
f 12//12 68//68 69//69
f 67//67 81//81 68//68
f 67//67 66//66 70//70
f 67//67 70//70 81//81
f 64//64 62//62 100//100
f 13//13 4//4 5//5
f 13//13 5//5 14//14
f 69//69 68//68 79//79
f 81//81 71//71 83//83
f 71//71 73//73 83//83
f 71//71 76//76 73//73
f 71//71 49//49 76//76
f 74//74 72//72 73//73
f 75//75 74//74 73//73
f 75//75 73//73 76//76
f 76//76 127//127 75//75
f 77//77 75//75 127//127
f 90//90 74//74 75//75
f 90//90 75//75 91//91
f 91//91 75//75 92//92
f 75//75 77//77 92//92
f 69//69 78//78 12//12
f 79//79 78//78 69//69
f 68//68 81//81 79//79
f 79//79 80//80 78//78
f 79//79 81//81 83//83
f 27//27 80//80 83//83
f 83//83 80//80 79//79
f 82//82 27//27 83//83
f 83//83 73//73 72//72
f 82//82 83//83 72//72
f 82//82 72//72 88//88
f 72//72 74//74 88//88
f 28//28 27//27 82//82
f 86//86 28//28 82//82
f 84//84 28//28 86//86
f 88//88 86//86 82//82
f 86//86 88//88 85//85
f 85//85 88//88 87//87
f 84//84 86//86 85//85
f 89//89 84//84 85//85
f 93//93 89//89 85//85
f 93//93 85//85 87//87
f 29//29 89//89 93//93
f 84//84 30//30 28//28
f 33//33 32//32 30//30
f 30//30 84//84 33//33
f 84//84 89//89 33//33
f 32//32 33//33 31//31
f 29//29 33//33 89//89
f 74//74 87//87 88//88
f 74//74 90//90 87//87
f 94//94 90//90 91//91
f 94//94 87//87 90//90
f 95//95 94//94 91//91
f 87//87 94//94 93//93
f 95//95 29//29 93//93
f 93//93 94//94 95//95
f 91//91 97//97 96//96
f 91//91 92//92 97//97
f 97//97 34//34 96//96
f 96//96 95//95 91//91
f 35//35 36//36 32//32
f 32//32 31//31 35//35
f 98//98 111//111 101//101
f 112//112 110//110 113//113
f 112//112 114//114 101//101
f 102//102 101//101 114//114
f 99//99 114//114 113//113
f 98//98 101//101 103//103
f 100//100 98//98 103//103
f 103//103 101//101 102//102
f 100//100 103//103 127//127
f 103//103 128//128 127//127
f 128//128 103//103 104//104
f 102//102 121//121 124//124
f 121//121 122//122 124//124
f 103//103 102//102 124//124
f 103//103 124//124 104//104
f 124//124 1//1 104//104
f 105//105 15//15 106//106
f 15//15 108//108 106//106
f 105//105 106//106 59//59
f 109//109 59//59 106//106
f 110//110 109//109 106//106
f 106//106 108//108 110//110
f 108//108 15//15 16//16
f 16//16 107//107 108//108
f 116//116 108//108 107//107
f 16//16 17//17 107//107
f 111//111 109//109 110//110
f 111//111 98//98 109//109
f 101//101 111//111 112//112
f 110//110 108//108 116//116
f 112//112 111//111 110//110
f 113//113 110//110 116//116
f 114//114 112//112 113//113
f 116//116 118//118 113//113
f 115//115 117//117 116//116
f 107//107 115//115 116//116
f 19//19 115//115 107//107
f 107//107 17//17 19//19
f 115//115 22//22 120//120
f 120//120 117//117 115//115
f 118//118 116//116 117//117
f 118//118 99//99 113//113
f 119//119 118//118 117//117
f 119//119 117//117 120//120
f 18//18 119//119 120//120
f 18//18 120//120 22//22
f 123//123 119//119 18//18
f 21//21 22//22 115//115
f 20//20 21//21 115//115
f 115//115 19//19 20//20
f 114//114 99//99 122//122
f 114//114 122//122 121//121
f 121//121 102//102 114//114
f 99//99 118//118 122//122
f 122//122 118//118 125//125
f 126//126 122//122 125//125
f 123//123 125//125 118//118
f 118//118 119//119 123//123
f 23//23 125//125 123//123
f 123//123 18//18 23//23
f 126//126 124//124 122//122
f 125//125 23//23 24//24
f 124//124 126//126 1//1
f 24//24 1//1 126//126
f 126//126 125//125 24//24
f 26//26 21//21 20//20
f 26//26 20//20 25//25
f 129//129 127//127 128//128
f 129//129 77//77 127//127
f 130//130 129//129 128//128
f 77//77 129//129 132//132
f 138//138 130//130 128//128
f 131//131 77//77 132//132
f 92//92 77//77 131//131
f 131//131 132//132 142//142
f 131//131 142//142 145//145
f 132//132 143//143 142//142
f 130//130 136//136 129//129
f 104//104 1//1 133//133
f 104//104 133//133 138//138
f 128//128 104//104 138//138
f 133//133 135//135 138//138
f 133//133 1//1 134//134
f 135//135 134//134 38//38
f 134//134 1//1 24//24
f 134//134 24//24 38//38
f 135//135 133//133 134//134
f 130//130 137//137 136//136
f 137//137 149//149 136//136
f 137//137 130//130 138//138
f 137//137 138//138 135//135
f 139//139 137//137 135//135
f 141//141 140//140 139//139
f 38//38 141//141 139//139
f 139//139 135//135 38//38
f 137//137 139//139 140//140
f 38//38 37//37 141//141
f 145//145 92//92 131//131
f 92//92 145//145 144//144
f 132//132 129//129 147//147
f 129//129 136//136 147//147
f 132//132 147//147 143//143
f 147//147 146//146 143//143
f 144//144 97//97 92//92
f 97//97 39//39 34//34
f 97//97 144//144 39//39
f 40//40 39//39 144//144
f 145//145 142//142 143//143
f 145//145 143//143 146//146
f 146//146 144//144 145//145
f 146//146 40//40 144//144
f 148//148 146//146 147//147
f 40//40 146//146 148//148
f 40//40 148//148 41//41
f 136//136 149//149 147//147
f 140//140 149//149 137//137
f 149//149 140//140 150//150
f 147//147 149//149 148//148
f 148//148 149//149 150//150
f 141//141 151//151 150//150
f 150//150 140//140 141//141
f 43//43 151//151 141//141
f 141//141 37//37 43//43
f 42//42 41//41 148//148
f 152//152 42//42 148//148
f 148//148 150//150 152//152
f 152//152 150//150 151//151
f 152//152 44//44 42//42
f 45//45 44//44 152//152
f 46//46 45//45 152//152
f 152//152 151//151 46//46
f 151//151 43//43 46//46
f 48//48 47//47 45//45
f 45//45 46//46 48//48
# 249 faces, 0 coords texture

# End of File
