####
#
# OBJ File Generated by Meshlab
#
####
# Object nutrigrain_apple_cinnamon_250_collision.obj
#
# Vertices: 127
# Faces: 250
#
####
vn 0.737373 0.609950 -0.290244
v 0.086105 -0.052837 0.007654
vn -0.634478 0.772549 0.024629
v -0.044031 0.073618 0.130136
vn -0.980146 -0.197618 0.016154
v -0.062421 0.048923 0.133072
vn 0.747777 0.663946 0.002428
v -0.015783 0.068346 0.013699
vn -0.535561 0.697232 -0.476489
v -0.040992 0.078328 0.007296
vn 0.006718 0.996029 0.088779
v -0.035225 0.076823 0.133072
vn -0.966446 -0.253595 -0.040886
v -0.061523 0.052837 0.013699
vn 0.273200 0.203349 -0.940219
v 0.084148 -0.050880 0.007267
vn 0.746786 -0.661605 -0.067741
v 0.091538 -0.074346 0.011730
vn 0.949134 -0.250069 -0.191338
v 0.094602 -0.068404 0.008247
vn 0.815166 0.489048 -0.310381
v 0.092265 -0.060623 0.007824
vn -0.775141 -0.630922 -0.033068
v -0.051569 0.037182 0.011742
vn -0.827986 -0.499954 -0.253940
v -0.058674 0.046622 0.007892
vn -0.956189 -0.288083 0.052070
v -0.061910 0.046967 0.133072
vn -0.725944 -0.623091 0.291141
v 0.039621 -0.073064 0.140795
vn -0.722218 -0.690029 -0.047548
v 0.054794 -0.086674 0.011742
vn 0.442466 0.383116 -0.810830
v 0.011742 0.035225 0.007001
vn 0.761492 0.606284 -0.229239
v 0.089342 -0.056751 0.007828
vn -0.137025 -0.116840 -0.983653
v 0.011742 -0.035225 0.007241
vn -0.994395 -0.061594 -0.085932
v -0.061806 0.054794 0.011726
vn 0.676184 0.639298 0.366160
v -0.019569 0.064594 0.135029
vn 0.768083 0.639772 0.027212
v 0.045879 -0.006879 0.069468
vn -0.190879 0.897196 0.398251
v -0.039088 0.074981 0.142876
vn -0.155591 0.985409 0.069003
v -0.038433 0.076537 0.130784
vn -0.883246 0.385652 -0.266736
v -0.060664 0.059482 0.007828
vn -0.790239 -0.611021 -0.046646
v -0.056181 0.043053 0.009785
vn 0.163970 0.366439 0.915880
v -0.033219 0.071880 0.147094
vn -0.825255 -0.354258 0.439836
v -0.060092 0.045524 0.142839
vn -0.497137 -0.863391 -0.086087
v 0.062574 -0.091886 0.015940
vn -0.160974 -0.685222 -0.710323
v 0.066696 -0.092235 0.007688
vn 0.949511 0.302015 0.084949
v 0.089755 -0.064583 0.133189
vn 0.657679 -0.753295 -0.002180
v 0.078539 -0.085862 0.013531
vn -0.442575 -0.479735 -0.757616
v 0.054794 -0.086105 0.007406
vn -0.940226 -0.325121 -0.101351
v -0.060296 0.049735 0.010309
vn -0.441500 -0.097539 -0.891944
v -0.060708 0.052838 0.007496
vn -0.977475 0.210419 -0.016346
v -0.061522 0.056751 0.013699
vn 0.725410 0.678343 -0.116756
v -0.019612 0.072194 0.010778
vn 0.317929 0.940132 0.122769
v -0.032132 0.075933 0.136801
vn 0.536844 0.809698 -0.237039
v -0.028138 0.080151 0.007608
vn -0.169642 0.921208 -0.350140
v -0.035114 0.081498 0.007249
vn -0.703402 0.701703 0.113308
v -0.057529 0.061698 0.138734
vn -0.482242 0.870152 0.101385
v -0.041272 0.075558 0.136737
vn -0.764866 -0.644144 -0.007628
v -0.014301 -0.011591 0.111583
vn -0.192263 -0.174754 0.965658
v 0.007828 -0.025440 0.147507
vn 0.600302 0.511401 0.614903
v 0.012916 0.022296 0.144346
vn 0.680058 0.572482 0.458024
v 0.051651 -0.020228 0.140903
vn -0.847856 -0.519570 0.105768
v -0.060757 0.044637 0.139928
vn -0.576720 -0.531353 0.620531
v 0.049721 -0.082013 0.143845
vn -0.295315 -0.955389 0.004508
v 0.060665 -0.094311 0.131115
vn -0.498293 -0.847460 -0.183069
v 0.058723 -0.089789 0.009409
vn -0.757595 -0.650793 -0.050191
v 0.015363 -0.041096 0.015656
vn -0.766218 -0.630162 -0.125723
v -0.052852 0.039122 0.007828
vn 0.782779 0.136722 -0.607095
v 0.094442 -0.066536 0.007658
vn 0.752613 0.635112 -0.173797
v 0.035225 0.007919 0.007828
vn 0.766306 0.642350 -0.012680
v 0.041096 0.001083 0.009785
vn 0.891983 -0.383609 0.239187
v 0.089549 -0.074250 0.138531
vn 0.687432 -0.722735 0.071356
v 0.088044 -0.076457 0.131045
vn 0.982878 0.169167 0.073033
v 0.090461 -0.066533 0.131709
vn 0.278912 -0.960266 0.009889
v 0.066609 -0.094038 0.121484
vn 0.241447 -0.850516 -0.467254
v 0.070513 -0.091975 0.007828
vn 0.598789 -0.739624 -0.307260
v 0.073808 -0.089912 0.007639
vn 0.754680 0.642865 0.131085
v 0.046537 -0.011383 0.133606
vn 0.188007 0.981788 -0.027307
v -0.031294 0.081540 0.010608
vn -0.047790 0.998624 0.021610
v -0.033268 0.081596 0.011744
vn -0.476017 0.879406 0.007223
v -0.038385 0.079796 0.010763
vn -0.773416 -0.633724 -0.014897
v -0.039139 0.018220 0.119373
vn -0.756313 -0.654208 -0.001513
v 0.023155 -0.055386 0.120456
vn 0.538948 0.425127 0.727187
v 0.059385 -0.032805 0.144143
vn 0.712671 0.627901 0.312794
v -0.001416 0.043658 0.136824
vn 0.414418 0.343206 0.842892
v 0.007464 0.025519 0.146590
vn 0.337178 0.156480 0.928345
v 0.083560 -0.067184 0.145110
vn -0.744432 -0.667423 -0.019181
v 0.030601 -0.063428 0.102768
vn -0.640566 -0.553231 0.532551
v 0.032770 -0.063573 0.142840
vn -0.481406 -0.397092 0.781387
v -0.046854 0.032501 0.145199
vn -0.475748 -0.876172 0.077370
v 0.056673 -0.092274 0.138750
vn -0.750012 -0.659305 0.052898
v 0.037585 -0.071883 0.135783
vn -0.652286 -0.697569 0.296514
v 0.054513 -0.090367 0.140310
vn 0.072134 -0.852177 0.518257
v 0.063608 -0.093181 0.144841
vn -0.762758 -0.644963 -0.047147
v -0.051044 0.036560 0.011607
vn -0.174021 -0.143210 -0.974273
v -0.037182 0.021526 0.007463
vn -0.480339 -0.390596 -0.785308
v -0.052837 0.039139 0.007738
vn 0.973244 0.040342 0.226207
v 0.090570 -0.070564 0.135308
vn 0.712581 0.649535 0.265201
v -0.013355 0.057615 0.135756
vn 0.274189 -0.215480 -0.937224
v 0.089986 -0.074492 0.007496
vn -0.943444 0.330728 0.023056
v -0.062516 0.054472 0.133072
vn 0.614232 0.788193 0.038341
v -0.026069 0.077730 0.033291
vn 0.719810 0.674272 0.165017
v -0.024130 0.069387 0.137542
vn 0.754968 0.653708 0.051862
v 0.017695 0.024304 0.108558
vn 0.760063 0.647979 -0.049279
v 0.005246 0.043744 0.011852
vn 0.771148 0.635901 0.031002
v 0.062470 -0.028668 0.105705
vn 0.783251 0.617742 0.070093
v 0.086092 -0.058877 0.135772
vn 0.715986 0.697590 0.027050
v -0.017671 0.070310 0.016169
vn -0.653456 0.102225 0.750030
v -0.058530 0.052216 0.146889
vn -0.715814 0.694731 -0.070423
v -0.056933 0.063939 0.009722
vn 0.575143 0.807343 0.131940
v -0.029408 0.074305 0.138810
vn -0.987550 0.062573 0.144323
v -0.062933 0.052519 0.137029
vn -0.769180 -0.638566 -0.024391
v -0.031311 0.009614 0.090019
vn -0.777338 -0.628754 -0.020368
v -0.040182 0.019569 0.117416
vn -0.775790 -0.630989 -0.001291
v -0.054854 0.037190 0.135283
vn 0.359804 -0.234689 0.903030
v 0.082325 -0.075754 0.145478
vn 0.699970 -0.548018 0.457950
v 0.086186 -0.076228 0.141220
vn 0.722628 0.618378 0.308897
v 0.039098 -0.004456 0.139317
vn 0.745341 0.634641 0.204199
v 0.031148 0.005693 0.136986
vn 0.201691 0.147201 0.968325
v 0.023850 0.000367 0.147591
vn -0.761207 -0.644493 0.072068
v -0.028930 0.006298 0.136476
vn -0.764288 -0.644236 -0.028722
v -0.019569 -0.003910 0.078278
vn -0.228947 -0.970926 -0.069894
v 0.064643 -0.092211 0.009833
vn 0.763992 0.644139 0.037419
v 0.041433 -0.003373 0.108802
vn -0.291119 0.348447 0.890974
v -0.048433 0.062841 0.147325
vn -0.672960 0.589752 0.446449
v -0.055994 0.061642 0.142585
vn -0.029908 -0.040465 0.998733
v 0.012473 -0.017634 0.148209
vn 0.021751 0.007625 0.999734
v 0.020955 -0.010888 0.148426
vn -0.133362 -0.102295 0.985774
v -0.035622 0.028219 0.148011
vn 0.847384 0.046098 0.528976
v 0.090149 -0.070308 0.141213
vn -0.731643 -0.681614 -0.010024
v 0.050984 -0.086645 0.134871
vn -0.194369 -0.288935 0.937410
v 0.061189 -0.090909 0.145902
vn -0.333265 -0.285242 0.898650
v 0.006115 -0.026256 0.146796
vn 0.543194 -0.835832 0.079525
v 0.070287 -0.092246 0.136491
vn -0.849664 0.497497 0.174838
v -0.060597 0.058444 0.135436
vn -0.758916 -0.650042 -0.038620
v 0.008467 -0.035892 0.054004
vn -0.755955 -0.654111 -0.025890
v 0.017751 -0.048275 0.085303
vn 0.160894 0.134264 0.977797
v -0.002400 0.032558 0.147906
vn 0.066912 0.019343 0.997571
v 0.040852 -0.031445 0.147550
vn 0.787538 0.549968 0.278062
v 0.088313 -0.062372 0.138036
vn -0.458584 -0.402166 0.792441
v 0.037269 -0.065738 0.145399
vn -0.003083 -0.999142 0.041308
v 0.062553 -0.094643 0.134122
vn 0.518519 0.749552 0.411473
v -0.030544 0.073792 0.143565
# 127 vertices, 0 vertices normals

f 14//14 3//3 7//7
f 14//14 13//13 47//47
f 17//17 1//1 8//8
f 17//17 5//5 40//40
f 17//17 35//35 5//5
f 82//82 10//10 58//58
f 53//53 58//58 10//10
f 18//18 8//8 1//1
f 19//19 35//35 17//17
f 19//19 17//17 8//8
f 20//20 7//7 3//3
f 39//39 17//17 40//40
f 63//63 64//64 6//6
f 5//5 35//35 25//25
f 41//41 2//2 5//5
f 34//34 35//35 13//13
f 26//26 47//47 13//13
f 34//34 13//13 14//14
f 30//30 126//126 107//107
f 53//53 84//84 8//8
f 53//53 8//8 11//11
f 10//10 9//9 84//84
f 31//31 53//53 11//11
f 33//33 19//19 8//8
f 33//33 8//8 84//84
f 33//33 50//50 16//16
f 33//33 16//16 52//52
f 35//35 20//20 25//25
f 35//35 34//34 20//20
f 36//36 20//20 96//96
f 36//36 25//25 20//20
f 96//96 20//20 3//3
f 22//22 18//18 1//1
f 39//39 37//37 17//17
f 24//24 64//64 40//40
f 42//42 24//24 40//40
f 63//63 40//40 64//64
f 63//63 39//39 40//40
f 94//94 41//41 5//5
f 96//96 3//3 14//14
f 99//99 47//47 26//26
f 99//99 26//26 12//12
f 34//34 14//14 7//7
f 75//75 16//16 50//50
f 30//30 107//107 29//29
f 49//49 29//29 107//107
f 49//49 107//107 126//126
f 75//75 50//50 29//29
f 77//77 16//16 75//75
f 51//51 16//16 120//120
f 79//79 52//52 16//16
f 52//52 26//26 13//13
f 52//52 12//12 26//26
f 30//30 60//60 126//126
f 10//10 84//84 53//53
f 54//54 1//1 17//17
f 54//54 17//17 89//89
f 55//55 89//89 22//22
f 55//55 22//22 1//1
f 55//55 54//54 89//89
f 55//55 1//1 54//54
f 10//10 56//56 9//9
f 82//82 101//101 56//56
f 57//57 9//9 56//56
f 57//57 56//56 101//101
f 124//124 31//31 11//11
f 58//58 53//53 31//31
f 69//69 21//21 87//87
f 11//11 8//8 18//18
f 11//11 18//18 91//91
f 118//118 9//9 57//57
f 59//59 126//126 60//60
f 61//61 32//32 118//118
f 118//118 60//60 61//61
f 32//32 9//9 118//118
f 30//30 33//33 84//84
f 85//85 25//25 36//36
f 85//85 36//36 96//96
f 4//4 83//83 88//88
f 88//88 108//108 4//4
f 89//89 4//4 108//108
f 90//90 18//18 22//22
f 37//37 89//89 17//17
f 37//37 4//4 89//89
f 39//39 38//38 86//86
f 39//39 63//63 38//38
f 5//5 2//2 42//42
f 23//23 6//6 24//24
f 64//64 24//24 6//6
f 65//65 42//42 40//40
f 65//65 40//40 5//5
f 25//25 119//119 94//94
f 41//41 94//94 119//119
f 92//92 87//87 21//21
f 92//92 21//21 83//83
f 92//92 83//83 4//4
f 76//76 67//67 72//72
f 43//43 99//99 66//66
f 73//73 28//28 15//15
f 73//73 77//77 48//48
f 73//73 125//125 74//74
f 73//73 15//15 77//77
f 28//28 73//73 74//74
f 30//30 29//29 50//50
f 75//75 49//49 126//126
f 77//77 15//15 76//76
f 77//77 78//78 116//116
f 77//77 75//75 78//78
f 79//79 16//16 51//51
f 79//79 51//51 120//120
f 79//79 12//12 52//52
f 80//80 35//35 19//19
f 81//81 33//33 52//52
f 81//81 35//35 80//80
f 81//81 80//80 19//19
f 81//81 19//19 33//33
f 81//81 52//52 13//13
f 81//81 13//13 35//35
f 124//124 11//11 91//91
f 82//82 58//58 31//31
f 82//82 31//31 114//114
f 83//83 21//21 69//69
f 118//118 59//59 60//60
f 84//84 9//9 61//61
f 61//61 9//9 32//32
f 30//30 84//84 60//60
f 50//50 33//33 30//30
f 20//20 34//34 7//7
f 95//95 86//86 38//38
f 89//89 108//108 22//22
f 90//90 22//22 108//108
f 91//91 90//90 108//108
f 91//91 18//18 90//90
f 37//37 92//92 4//4
f 92//92 39//39 86//86
f 92//92 37//37 39//39
f 92//92 86//86 87//87
f 38//38 63//63 6//6
f 119//119 93//93 110//110
f 119//119 96//96 93//93
f 113//113 109//109 93//93
f 65//65 5//5 42//42
f 42//42 2//2 41//41
f 94//94 5//5 25//25
f 41//41 119//119 110//110
f 27//27 127//127 23//23
f 119//119 25//25 85//85
f 97//97 66//66 12//12
f 97//97 12//12 79//79
f 98//98 99//99 12//12
f 98//98 12//12 66//66
f 98//98 66//66 99//99
f 121//121 120//120 16//16
f 99//99 105//105 47//47
f 123//123 116//116 100//100
f 116//116 111//111 44//44
f 102//102 69//69 87//87
f 103//103 62//62 69//69
f 68//68 45//45 70//70
f 104//104 68//68 70//70
f 27//27 70//70 45//45
f 123//123 71//71 104//104
f 23//23 109//109 27//27
f 115//115 72//72 16//16
f 115//115 77//77 76//76
f 115//115 76//76 72//72
f 67//67 105//105 43//43
f 67//67 76//76 105//105
f 15//15 28//28 47//47
f 105//105 15//15 47//47
f 105//105 76//76 15//15
f 116//116 48//48 77//77
f 125//125 48//48 116//116
f 125//125 73//73 48//48
f 126//126 78//78 75//75
f 75//75 29//29 49//49
f 78//78 100//100 116//116
f 106//106 121//121 43//43
f 106//106 97//97 79//79
f 106//106 43//43 97//97
f 10//10 82//82 56//56
f 82//82 114//114 101//101
f 124//124 114//114 31//31
f 88//88 83//83 69//69
f 101//101 118//118 57//57
f 118//118 101//101 78//78
f 60//60 84//84 61//61
f 87//87 86//86 95//95
f 62//62 108//108 88//88
f 108//108 62//62 91//91
f 110//110 23//23 42//42
f 23//23 38//38 6//6
f 42//42 23//23 24//24
f 93//93 109//109 110//110
f 110//110 42//42 41//41
f 127//127 87//87 95//95
f 127//127 45//45 46//46
f 127//127 27//27 45//45
f 28//28 93//93 96//96
f 119//119 85//85 96//96
f 28//28 96//96 14//14
f 28//28 14//14 47//47
f 43//43 66//66 97//97
f 120//120 121//121 106//106
f 120//120 106//106 79//79
f 121//121 72//72 67//67
f 112//112 116//116 123//123
f 71//71 123//123 100//100
f 100//100 114//114 71//71
f 122//122 112//112 104//104
f 123//123 104//104 112//112
f 100//100 101//101 114//114
f 68//68 46//46 45//45
f 102//102 103//103 69//69
f 124//124 103//103 102//102
f 62//62 124//124 91//91
f 62//62 103//103 124//124
f 71//71 68//68 104//104
f 70//70 122//122 104//104
f 23//23 110//110 109//109
f 115//115 16//16 77//77
f 113//113 117//117 44//44
f 93//93 28//28 74//74
f 117//117 74//74 125//125
f 62//62 88//88 69//69
f 126//126 59//59 118//118
f 126//126 118//118 78//78
f 38//38 23//23 127//127
f 38//38 127//127 95//95
f 16//16 72//72 121//121
f 121//121 67//67 43//43
f 105//105 99//99 43//43
f 111//111 116//116 112//112
f 27//27 112//112 122//122
f 113//113 44//44 111//111
f 78//78 101//101 100//100
f 68//68 114//114 124//124
f 124//124 102//102 46//46
f 70//70 27//27 122//122
f 125//125 116//116 44//44
f 117//117 125//125 44//44
f 113//113 74//74 117//117
f 93//93 74//74 113//113
f 71//71 114//114 68//68
f 127//127 102//102 87//87
f 113//113 111//111 112//112
f 113//113 27//27 109//109
f 68//68 124//124 46//46
f 127//127 46//46 102//102
f 112//112 27//27 113//113
# 250 faces, 0 coords texture

# End of File
