####
#
# OBJ File Generated by Meshlab
#
####
# Object nutrigrain_apple_cinnamon_250_collision.obj
#
# Vertices: 127
# Faces: 250
#
####
vn -0.766218 -0.641994 0.027445
v 0.031192 0.006922 0.030091
vn -0.454706 -0.890414 -0.020142
v -0.029094 0.075935 0.068031
vn 0.408522 -0.912711 -0.008321
v -0.041273 0.075578 0.083153
vn 0.458873 0.391286 0.797704
v 0.006387 -0.021209 0.003553
vn 0.724987 0.607828 0.323942
v 0.007270 -0.029741 0.010666
vn 0.759849 0.645611 0.076255
v -0.023259 0.001800 0.040518
vn 0.755601 0.650143 0.079882
v 0.008540 -0.035835 0.039980
vn 0.758909 0.649314 0.049490
v 0.004408 -0.033488 0.067605
vn 0.751215 0.659569 0.025386
v 0.020406 -0.054435 0.106627
vn 0.763651 0.645592 0.006996
v -0.007814 -0.021034 0.099413
vn 0.763991 0.643765 -0.043417
v 0.013835 -0.046525 0.129607
vn 0.683978 0.582770 -0.438808
v -0.012636 -0.013533 0.139461
vn 0.454769 0.367172 0.811400
v -0.040867 0.030652 0.002567
vn 0.965086 0.036894 0.259320
v -0.060566 0.052212 0.009703
vn 0.756664 0.506809 0.413043
v -0.054308 0.041717 0.007041
vn 0.685949 0.609473 0.397512
v -0.008521 -0.010837 0.010556
vn 0.444158 0.427935 0.787144
v -0.024845 0.012351 0.002898
vn 0.741231 0.645409 0.184455
v -0.035982 0.019262 0.013703
vn 0.324791 0.316224 0.891355
v -0.009448 -0.000471 0.002147
vn 0.090053 0.089154 0.991939
v 0.006823 -0.006446 0.000986
vn -0.164845 -0.134261 0.977139
v 0.015430 0.008013 0.001071
vn 0.019873 0.044219 0.998824
v -0.005860 0.017382 -0.000312
vn 0.108370 0.100347 0.989033
v -0.028690 0.030499 -0.000069
vn -0.069053 -0.067700 0.995313
v -0.026041 0.047926 -0.000249
vn 0.077757 -0.005974 0.996954
v -0.035280 0.049271 -0.000409
vn -0.277276 -0.215964 0.936204
v 0.002041 0.029314 0.001240
vn -0.592830 -0.493809 0.636164
v 0.000798 0.040720 0.005645
vn -0.759419 -0.635314 0.140209
v 0.013172 0.028721 0.012861
vn 0.516552 -0.010927 0.856186
v -0.054011 0.053555 0.002113
vn 0.216948 -0.876258 0.430239
v -0.038919 0.075173 0.005303
vn 0.307389 -0.339130 0.889102
v -0.044839 0.065623 0.001511
vn 0.726599 -0.611190 0.313849
v -0.056083 0.062338 0.008969
vn -0.318911 -0.276904 0.906433
v -0.019684 0.054817 0.001589
vn -0.587016 -0.537757 0.605169
v -0.017498 0.061734 0.005793
vn -0.185873 -0.387566 0.902909
v -0.032072 0.070588 0.001818
vn -0.473651 -0.812618 0.339568
v -0.027838 0.075933 0.010731
vn -0.748329 -0.644139 0.158393
v -0.008889 0.055912 0.013540
vn 0.855402 0.516547 0.038298
v -0.058068 0.044179 0.040324
vn 0.892771 0.448540 0.042090
v -0.058863 0.043698 0.070009
vn -0.750773 -0.660437 -0.012753
v -0.011275 0.056740 0.044658
vn 0.774253 0.631419 0.042928
v -0.036664 0.014925 0.074503
vn -0.753334 -0.657625 0.004232
v 0.011716 0.031037 0.050295
vn -0.748751 -0.662514 -0.021150
v -0.000012 0.043284 0.077480
vn 0.877337 -0.479446 0.020264
v -0.059141 0.059403 0.037633
vn 0.343589 -0.937966 0.046555
v -0.039659 0.076543 0.024965
vn 0.991738 0.126515 0.021186
v -0.060744 0.051788 0.036339
vn 0.995807 0.084159 0.035858
v -0.062111 0.051395 0.083723
vn -0.326562 -0.945165 0.004567
v -0.029421 0.077058 0.031339
vn 0.364665 -0.931123 -0.005418
v -0.040295 0.076556 0.040947
vn 0.866983 0.496606 0.041507
v -0.060353 0.043221 0.096115
vn 0.956946 0.265952 -0.116290
v -0.062936 0.045496 0.135842
vn 0.767300 0.638951 -0.054698
v -0.038878 0.015290 0.131510
vn 0.913328 -0.407179 0.005997
v -0.061738 0.058463 0.100197
vn -0.457958 -0.886387 -0.067771
v -0.031408 0.076193 0.115761
vn -0.741650 -0.669758 -0.037125
v -0.011640 0.055626 0.100739
vn -0.725728 -0.605472 -0.326684
v -0.005260 0.045387 0.138842
vn 0.640104 0.528030 -0.558079
v -0.048159 0.029182 0.141317
vn 0.242535 0.198041 -0.949714
v -0.029072 0.022625 0.149276
vn -0.134483 -0.130357 -0.982304
v 0.001294 0.014031 0.150169
vn -0.244106 -0.176693 -0.953516
v 0.023141 -0.011481 0.149838
vn -0.338964 -0.270910 -0.900950
v -0.015323 0.044494 0.146645
vn -0.682203 -0.580683 -0.444304
v 0.011790 0.025276 0.138008
vn -0.470983 -0.400398 -0.786038
v 0.008954 0.020204 0.144981
vn 0.826465 -0.509837 -0.238792
v -0.060850 0.058606 0.138449
vn 0.709946 -0.008045 -0.704210
v -0.060804 0.048773 0.143840
vn 0.226634 -0.018277 -0.973808
v -0.049418 0.048869 0.150048
vn 0.255845 -0.785350 -0.563710
v -0.039329 0.074990 0.142034
vn -0.426821 -0.546285 -0.720692
v -0.027019 0.067272 0.146237
vn 0.735045 0.643908 0.212346
v 0.037064 -0.065712 0.013582
vn 0.103828 0.196872 0.974916
v 0.060930 -0.073956 0.000746
vn 0.552638 0.569239 0.608734
v 0.049902 -0.079119 0.007563
vn -0.058329 0.766935 0.639068
v 0.068906 -0.090158 0.005545
vn -0.227281 -0.119020 0.966529
v 0.076013 -0.060608 0.001222
vn -0.327008 0.259999 0.908552
v 0.078486 -0.077191 0.002350
vn -0.590550 -0.087306 0.802264
v 0.085468 -0.064934 0.003444
vn -0.933283 -0.236190 0.270551
v 0.089231 -0.062675 0.008997
vn -0.786441 0.517592 0.337061
v 0.087828 -0.075662 0.009845
vn 0.582846 0.510704 0.632038
v 0.029718 -0.051649 0.005105
vn 0.222695 0.194977 0.955192
v 0.038779 -0.051518 0.001585
vn 0.024769 0.009308 0.999650
v 0.027807 -0.020615 -0.000009
vn -0.206603 -0.194653 0.958867
v 0.041530 -0.022331 0.000599
vn -0.028536 -0.011092 0.999531
v 0.060052 -0.056375 0.000138
vn -0.347023 -0.287084 0.892837
v 0.062792 -0.038140 0.002084
vn -0.455621 -0.401843 0.794312
v 0.037178 -0.005771 0.003566
vn -0.663230 -0.571476 0.483260
v 0.063562 -0.033917 0.005036
vn -0.675168 -0.555144 0.485761
v 0.080007 -0.052558 0.006868
vn 0.468695 0.877365 0.102741
v 0.058337 -0.089841 0.019678
vn -0.294144 0.949845 0.106178
v 0.070798 -0.090730 0.010820
vn 0.520930 0.852183 0.049160
v 0.054834 -0.089685 0.057340
vn 0.077734 0.996175 0.039907
v 0.062990 -0.093880 0.082392
vn -0.953001 0.302781 0.010640
v 0.090376 -0.071411 0.040065
vn -0.283584 0.958812 0.016085
v 0.068949 -0.091659 0.040432
vn -0.524219 0.851339 0.020383
v 0.069524 -0.092087 0.079122
vn 0.726806 0.637752 0.254999
v 0.029722 -0.056021 0.010337
vn 0.751482 0.656886 0.061444
v 0.032722 -0.064446 0.051271
vn -0.762393 -0.647086 0.006051
v 0.040995 -0.002968 0.057229
vn -0.764758 -0.643199 0.037951
v 0.064777 -0.033126 0.029131
vn -0.864155 -0.503216 0.003150
v 0.088217 -0.060100 0.051059
vn 0.608958 0.792506 0.033234
v 0.053662 -0.090736 0.097103
vn 0.370475 0.919334 -0.132562
v 0.056615 -0.094401 0.134941
vn 0.735810 0.661982 -0.142701
v 0.040978 -0.077854 0.133093
vn -0.966484 -0.256351 -0.013876
v 0.089842 -0.064708 0.068921
vn -0.402765 0.915045 0.021724
v 0.068092 -0.093750 0.116014
vn -0.939988 0.341135 -0.007054
v 0.089305 -0.074268 0.094814
vn -0.780161 0.573079 -0.250858
v 0.087581 -0.076922 0.133817
vn -0.900833 -0.433583 -0.022482
v 0.088334 -0.062784 0.108126
vn -0.774818 -0.632067 -0.012217
v 0.064705 -0.031869 0.074361
vn -0.772799 -0.633537 -0.037577
v 0.068249 -0.037996 0.110784
vn -0.761911 -0.646618 -0.037095
v 0.042950 -0.006156 0.096125
vn -0.817745 -0.575013 -0.025568
v 0.086837 -0.060103 0.083327
vn -0.752987 -0.636301 -0.167728
v 0.081047 -0.054495 0.130782
vn -0.346638 0.935767 -0.064675
v 0.067851 -0.094262 0.128945
vn -0.123316 0.794271 -0.594918
v 0.062760 -0.093744 0.142948
vn 0.466997 0.433564 -0.770672
v 0.041081 -0.071259 0.143822
vn -0.374588 0.082652 -0.923500
v 0.077394 -0.072832 0.149115
vn 0.703091 0.608154 -0.368526
v 0.020391 -0.053112 0.137881
vn 0.387252 0.359561 -0.848971
v 0.028586 -0.054352 0.145073
vn -0.118292 -0.078213 -0.989894
v 0.053667 -0.045091 0.147842
vn -0.580100 -0.499158 -0.643681
v 0.070269 -0.050081 0.143689
vn -0.752380 -0.626257 -0.204271
v 0.038896 -0.005721 0.134716
vn 0.191285 0.192957 -0.962381
v 0.011782 -0.024758 0.148983
vn -0.560923 -0.463698 -0.685820
v 0.039335 -0.010178 0.141262
vn -0.905739 -0.262135 -0.333050
v 0.088371 -0.064904 0.137843
vn -0.611880 -0.500992 0.612054
v 0.016222 0.020518 0.005324
vn -0.730866 -0.618444 0.288726
v 0.034832 0.002284 0.009608
vn -0.751138 -0.659788 -0.021725
v 0.024418 0.014793 0.085727
vn -0.754599 -0.653443 -0.059948
v 0.020232 0.018767 0.119213
# 127 vertices, 0 vertices normals

f 78//78 4//4 5//5
f 16//16 5//5 4//4
f 4//4 19//19 16//16
f 5//5 16//16 6//6
f 6//6 7//7 5//5
f 7//7 6//6 8//8
f 8//8 10//10 9//9
f 9//9 10//10 11//11
f 11//11 10//10 12//12
f 116//116 11//11 12//12
f 12//12 117//117 116//116
f 117//117 12//12 121//121
f 14//14 15//15 29//29
f 29//29 15//15 13//13
f 15//15 18//18 13//13
f 15//15 14//14 38//38
f 17//17 16//16 19//19
f 22//22 17//17 19//19
f 17//17 22//22 23//23
f 16//16 17//17 18//18
f 6//6 16//16 18//18
f 18//18 17//17 13//13
f 19//19 20//20 22//22
f 20//20 19//19 4//4
f 21//21 22//22 20//20
f 22//22 21//21 26//26
f 26//26 21//21 124//124
f 13//13 17//17 23//23
f 13//13 23//23 25//25
f 25//25 29//29 13//13
f 25//25 23//23 24//24
f 24//24 23//23 22//22
f 26//26 33//33 24//24
f 24//24 22//22 26//26
f 124//124 27//27 26//26
f 33//33 26//26 27//27
f 124//124 37//37 27//27
f 37//37 124//124 28//28
f 32//32 14//14 29//29
f 25//25 31//31 29//29
f 31//31 30//30 32//32
f 32//32 29//29 31//31
f 31//31 35//35 30//30
f 44//44 46//46 14//14
f 44//44 14//14 32//32
f 25//25 24//24 35//35
f 31//31 25//25 35//35
f 33//33 35//35 24//24
f 35//35 36//36 30//30
f 35//35 33//33 34//34
f 36//36 35//35 34//34
f 34//34 27//27 37//37
f 45//45 30//30 48//48
f 30//30 36//36 48//48
f 37//37 36//36 34//34
f 48//48 36//36 37//37
f 27//27 34//34 33//33
f 38//38 14//14 46//46
f 18//18 15//15 38//38
f 18//18 38//38 41//41
f 6//6 18//18 41//41
f 39//39 38//38 46//46
f 41//41 38//38 39//39
f 39//39 46//46 47//47
f 40//40 1//1 42//42
f 37//37 28//28 40//40
f 8//8 6//6 41//41
f 8//8 41//41 10//10
f 42//42 43//43 40//40
f 126//126 43//43 42//42
f 44//44 32//32 49//49
f 32//32 45//45 49//49
f 32//32 30//30 45//45
f 47//47 46//46 44//44
f 44//44 49//49 3//3
f 47//47 44//44 53//53
f 3//3 53//53 44//44
f 48//48 37//37 40//40
f 49//49 45//45 48//48
f 49//49 48//48 2//2
f 2//2 48//48 40//40
f 2//2 40//40 43//43
f 3//3 49//49 2//2
f 50//50 41//41 39//39
f 50//50 39//39 47//47
f 52//52 41//41 50//50
f 50//50 47//47 51//51
f 52//52 50//50 51//51
f 41//41 52//52 10//10
f 43//43 126//126 127//127
f 55//55 43//43 127//127
f 10//10 52//52 12//12
f 55//55 127//127 56//56
f 56//56 127//127 62//62
f 53//53 51//51 47//47
f 51//51 53//53 64//64
f 64//64 53//53 3//3
f 64//64 3//3 67//67
f 55//55 2//2 43//43
f 54//54 2//2 55//55
f 3//3 2//2 54//54
f 54//54 55//55 56//56
f 67//67 3//3 54//54
f 56//56 68//68 54//54
f 65//65 66//66 57//57
f 57//57 52//52 51//51
f 65//65 57//57 51//51
f 57//57 12//12 52//52
f 57//57 58//58 12//12
f 12//12 58//58 121//121
f 60//60 121//121 59//59
f 59//59 63//63 60//60
f 58//58 59//59 121//121
f 66//66 58//58 57//57
f 61//61 58//58 66//66
f 61//61 66//66 68//68
f 61//61 59//59 58//58
f 61//61 63//63 59//59
f 61//61 62//62 63//63
f 61//61 56//56 62//62
f 51//51 64//64 65//65
f 66//66 65//65 67//67
f 65//65 64//64 67//67
f 67//67 68//68 66//66
f 61//61 68//68 56//56
f 68//68 67//67 54//54
f 71//71 79//79 78//78
f 72//72 70//70 71//71
f 70//70 72//72 74//74
f 70//70 82//82 79//79
f 79//79 71//71 70//70
f 74//74 73//73 70//70
f 72//72 71//71 87//87
f 88//88 72//72 87//87
f 74//74 72//72 77//77
f 75//75 73//73 74//74
f 77//77 76//76 75//75
f 77//77 75//75 74//74
f 77//77 72//72 88//88
f 77//77 91//91 76//76
f 69//69 78//78 94//94
f 78//78 69//69 71//71
f 94//94 78//78 5//5
f 80//80 79//79 82//82
f 82//82 70//70 73//73
f 73//73 83//83 82//82
f 81//81 80//80 82//82
f 81//81 82//82 83//83
f 86//86 85//85 83//83
f 20//20 79//79 80//80
f 79//79 4//4 78//78
f 4//4 79//79 20//20
f 81//81 83//83 85//85
f 84//84 81//81 85//85
f 84//84 85//85 125//125
f 1//1 85//85 97//97
f 125//125 85//85 1//1
f 75//75 86//86 73//73
f 75//75 76//76 86//86
f 83//83 73//73 86//86
f 97//97 85//85 86//86
f 93//93 92//92 90//90
f 87//87 92//92 88//88
f 92//92 87//87 89//89
f 69//69 87//87 71//71
f 69//69 95//95 87//87
f 89//89 87//87 95//95
f 89//89 90//90 92//92
f 89//89 95//95 9//9
f 92//92 77//77 88//88
f 91//91 77//77 92//92
f 91//91 98//98 76//76
f 98//98 91//91 102//102
f 91//91 92//92 93//93
f 104//104 102//102 91//91
f 95//95 69//69 94//94
f 94//94 7//7 95//95
f 94//94 5//5 7//7
f 8//8 95//95 7//7
f 97//97 96//96 1//1
f 107//107 96//96 97//97
f 107//107 109//109 96//96
f 98//98 86//86 76//76
f 97//97 86//86 98//98
f 98//98 107//107 97//97
f 107//107 98//98 110//110
f 102//102 110//110 98//98
f 90//90 89//89 99//99
f 93//93 90//90 103//103
f 103//103 90//90 100//100
f 101//101 99//99 9//9
f 99//99 89//89 9//9
f 93//93 103//103 104//104
f 90//90 99//99 100//100
f 112//112 103//103 100//100
f 100//100 113//113 112//112
f 101//101 100//100 99//99
f 93//93 104//104 91//91
f 105//105 104//104 103//103
f 106//106 102//102 104//104
f 102//102 106//106 110//110
f 112//112 105//105 103//103
f 105//105 112//112 113//113
f 105//105 123//123 104//104
f 106//106 104//104 123//123
f 9//9 95//95 8//8
f 108//108 107//107 110//110
f 109//109 107//107 108//108
f 11//11 101//101 9//9
f 109//109 108//108 120//120
f 120//120 108//108 111//111
f 108//108 110//110 106//106
f 108//108 106//106 111//111
f 111//111 106//106 123//123
f 114//114 101//101 116//116
f 116//116 101//101 11//11
f 113//113 100//100 114//114
f 100//100 101//101 114//114
f 114//114 115//115 113//113
f 118//118 115//115 114//114
f 113//113 115//115 105//105
f 123//123 105//105 115//115
f 114//114 116//116 117//117
f 121//121 118//118 117//117
f 118//118 121//121 60//60
f 118//118 114//114 117//117
f 115//115 118//118 119//119
f 120//120 111//111 119//119
f 60//60 122//122 118//118
f 119//119 118//118 122//122
f 119//119 122//122 120//120
f 119//119 111//111 123//123
f 119//119 123//123 115//115
f 21//21 20//20 80//80
f 81//81 21//21 80//80
f 81//81 84//84 21//21
f 124//124 21//21 84//84
f 125//125 124//124 84//84
f 124//124 125//125 28//28
f 28//28 125//125 1//1
f 1//1 40//40 28//28
f 96//96 42//42 1//1
f 126//126 42//42 96//96
f 109//109 126//126 96//96
f 109//109 127//127 126//126
f 120//120 127//127 109//109
f 62//62 127//127 120//120
f 63//63 122//122 60//60
f 122//122 62//62 120//120
f 122//122 63//63 62//62
# 250 faces, 0 coords texture

# End of File
