####
#
# OBJ File Generated by Meshlab
#
####
# Object mom_to_mom_sweet_potato_corn_apple_250_collision.obj
#
# Vertices: 127
# Faces: 250
#
####
vn 0.370436 -0.001296 0.928857
v -0.003695 -0.003565 0.001700
vn 0.033937 -0.068384 0.997082
v 0.007382 -0.002324 -0.000245
vn 0.983694 0.114109 0.139012
v -0.013916 -0.005263 0.015628
vn 0.262533 0.962509 0.068216
v 0.013007 -0.031161 0.029246
vn 0.347817 0.937536 -0.006971
v 0.010554 -0.030964 0.048497
vn 0.625137 0.755724 -0.195155
v 0.018515 -0.031876 0.094426
vn -0.822476 -0.561247 -0.092384
v 0.014623 -0.003410 0.093921
vn 0.228041 -0.365659 0.902381
v 0.004511 0.014037 0.002354
vn -0.357204 -0.932417 -0.054807
v 0.011427 0.020531 0.037396
vn -0.538513 -0.841244 -0.048081
v 0.017559 0.017690 0.025632
vn 0.907544 0.374735 -0.189569
v 0.001721 -0.002069 0.082478
vn 0.820893 0.538922 -0.188939
v 0.010378 -0.011446 0.119160
vn 0.952869 0.243101 -0.181502
v 0.010968 -0.003252 0.133285
vn 0.986263 -0.016539 -0.164355
v 0.003638 -0.002577 0.153106
vn -0.881265 0.290762 0.372597
v 0.036142 -0.005594 0.145407
vn -0.793828 -0.369142 0.483293
v 0.034530 0.001510 0.143463
vn 0.631471 -0.735617 -0.245178
v 0.007960 0.007480 0.153334
vn 0.719878 0.371937 0.586037
v -0.007916 -0.012421 0.006157
vn 0.384087 0.603296 0.698935
v 0.002096 -0.021816 0.004294
vn 0.124503 0.212461 0.969206
v 0.004739 -0.014026 0.000348
vn 0.449581 0.862468 0.232435
v 0.000965 -0.024860 0.011148
vn 0.799028 0.601293 -0.000513
v -0.007970 -0.017703 0.021117
vn 0.785504 0.603505 -0.136986
v -0.003798 -0.019374 0.035051
vn 0.954530 0.268224 -0.130108
v -0.011778 -0.007627 0.028702
vn 0.593800 0.803955 -0.032521
v 0.001984 -0.025365 0.030415
vn 0.880427 0.411616 -0.235415
v -0.006705 -0.009451 0.053927
vn 0.705982 0.698429 -0.117417
v 0.005846 -0.026521 0.058654
vn 0.867801 0.377052 -0.323655
v 0.002471 -0.009700 0.072144
vn 0.853127 0.480466 -0.203289
v 0.006745 -0.023379 0.074207
vn 0.934273 0.301305 -0.190654
v 0.005264 -0.004784 0.107515
vn 0.977737 0.130574 0.164261
v 0.010659 -0.001602 0.136054
vn 0.794879 0.583082 0.167877
v 0.007213 -0.013882 0.151687
vn 0.557567 0.524706 -0.643276
v 0.010152 -0.014730 0.156418
vn 0.763064 -0.263614 0.590120
v -0.008271 0.002962 0.004969
vn 0.323951 -0.805056 0.496932
v 0.002458 0.020617 0.009166
vn 0.819639 -0.495868 0.286892
v -0.007446 0.011388 0.011795
vn 0.561831 -0.818222 0.121894
v -0.004333 0.020429 0.027759
vn 0.959108 -0.271915 0.078578
v -0.011751 0.005177 0.023547
vn 0.891284 -0.449341 0.060868
v -0.009729 0.014160 0.036966
vn -0.202968 -0.967123 0.153221
v 0.012252 0.021144 0.014314
vn -0.088391 -0.995900 0.019256
v 0.004220 0.021959 0.031917
vn 0.475389 -0.879739 0.007991
v -0.004502 0.021966 0.045957
vn 0.996002 -0.040208 -0.079772
v -0.011760 0.007343 0.050613
vn 0.833271 -0.552056 -0.029884
v -0.008426 0.017640 0.059470
vn -0.318178 -0.947708 -0.024734
v 0.004395 0.020565 0.061038
vn 0.087323 -0.995771 -0.028559
v -0.002139 0.021920 0.053624
vn 0.942995 0.247810 -0.222150
v -0.008144 0.008294 0.073769
vn 0.900705 -0.431717 -0.048496
v -0.007662 0.019559 0.084874
vn 0.240175 -0.969944 0.039042
v -0.002809 0.022958 0.078900
vn 0.925147 0.307180 -0.223030
v -0.005784 0.018812 0.097197
vn -0.864488 -0.487713 -0.121641
v 0.002991 0.019099 0.097878
vn 0.947898 0.146461 -0.282911
v 0.001678 0.003806 0.095909
vn 0.971776 0.171333 -0.162162
v -0.006237 0.021488 0.104603
vn -0.763830 -0.462040 -0.450647
v 0.004342 0.010502 0.103002
vn 0.646813 -0.760801 0.053065
v -0.004453 0.022866 0.092313
vn -0.418169 -0.908081 0.022893
v -0.000274 0.022745 0.094666
vn 0.305763 -0.916696 -0.257251
v -0.004788 0.025265 0.107182
vn 0.937401 -0.262342 -0.229035
v 0.008037 0.000540 0.120104
vn 0.507305 -0.787548 -0.349872
v 0.008720 0.004644 0.117423
vn 0.276506 0.843426 -0.460627
v 0.006612 0.010078 0.116047
vn -0.779710 -0.611696 -0.133720
v 0.002194 0.021966 0.109285
vn 0.324919 -0.320792 -0.889674
v 0.002226 0.015649 0.117697
vn 0.908920 -0.409096 -0.080653
v 0.009443 0.002531 0.128047
vn 0.824192 -0.490865 0.282417
v 0.010280 0.004283 0.139467
vn -0.478056 0.285281 0.830709
v 0.023444 -0.015791 0.002587
vn -0.034480 0.743666 0.667662
v 0.011309 -0.024109 0.004334
vn -0.516679 0.704557 0.486458
v 0.023939 -0.023178 0.009199
vn -0.364138 -0.039391 0.930512
v 0.021924 -0.000170 0.001045
vn -0.123963 0.974931 0.184777
v 0.019305 -0.030827 0.023798
vn -0.860625 0.332077 0.386069
v 0.029174 -0.015172 0.009140
vn -0.723420 0.663537 0.190743
v 0.027139 -0.026451 0.022506
vn -0.970688 0.216229 0.104929
v 0.032179 -0.018096 0.031612
vn -0.988896 -0.147966 0.013781
v 0.033022 -0.006494 0.027904
vn -0.459324 0.883173 0.095014
v 0.025218 -0.031442 0.055551
vn -0.994006 -0.097926 -0.048615
v 0.033726 -0.012419 0.054423
vn 0.060321 0.996987 0.048765
v 0.018849 -0.032834 0.059061
vn 0.462583 0.883676 -0.071647
v 0.012504 -0.031279 0.062507
vn -0.101815 0.993633 0.048246
v 0.023958 -0.034086 0.073058
vn -0.001749 0.999782 -0.020811
v 0.024318 -0.034304 0.098257
vn -0.905499 0.420211 0.059115
v 0.032017 -0.026446 0.062456
vn -0.849086 -0.453494 -0.270918
v 0.031414 -0.009788 0.061593
vn -0.839534 0.540398 0.056143
v 0.031471 -0.029089 0.078517
vn -0.986593 -0.132347 -0.095489
v 0.032842 -0.021910 0.075013
vn -0.458733 0.887711 0.039141
v 0.028801 -0.033287 0.093577
vn -0.787188 -0.589466 -0.181285
v 0.026830 -0.012608 0.079271
vn 0.899624 0.389574 -0.197253
v 0.004632 -0.009022 0.096032
vn 0.774118 0.585574 -0.240509
v 0.015401 -0.019668 0.105237
vn -0.973181 -0.203844 -0.106615
v 0.032195 -0.024520 0.100016
vn 0.417336 0.891593 -0.175761
v 0.026014 -0.034155 0.104813
vn -0.709805 0.704382 -0.004831
v 0.031362 -0.032006 0.104936
vn -0.721378 0.570044 -0.393274
v 0.028962 -0.032996 0.121904
vn -0.888577 -0.458407 0.017161
v 0.024219 -0.014898 0.110974
vn -0.610698 0.326756 -0.721303
v 0.030046 -0.027668 0.125803
vn 0.560870 0.693722 -0.451857
v 0.022263 -0.021652 0.124678
vn -0.986769 0.149836 -0.061936
v 0.024754 -0.012378 0.131598
vn 0.019299 0.985320 0.169626
v 0.020980 -0.014445 0.138071
vn 0.759532 0.645541 0.079918
v 0.014646 -0.009225 0.137564
vn -0.629056 0.624213 0.463300
v 0.025901 -0.014209 0.138892
vn 0.334265 0.942250 0.020778
v 0.016201 -0.020153 0.152142
vn -0.423828 0.904276 0.051523
v 0.026160 -0.019518 0.151808
vn -0.735484 -0.059347 -0.674938
v 0.035130 -0.003065 0.154646
vn -0.762220 0.508525 -0.400530
v 0.032713 -0.012604 0.153052
vn -0.163289 0.538663 -0.826547
v 0.021510 -0.017356 0.157684
vn 0.282264 -0.041739 -0.958428
v 0.010999 -0.002311 0.160681
vn -0.245247 -0.560520 0.790994
v 0.015664 0.013871 0.002587
vn -0.737995 -0.341827 0.581823
v 0.027956 0.006498 0.006314
vn -0.665928 -0.727136 0.166771
v 0.023004 0.015348 0.010195
vn -0.906298 0.017142 0.422291
v 0.031436 -0.002143 0.009958
vn -0.930037 -0.360578 0.070817
v 0.031364 0.002648 0.012951
vn -0.842012 -0.535478 -0.065415
v 0.028171 0.005456 0.028033
vn -0.683971 -0.724781 -0.082925
v 0.021662 0.013476 0.039611
vn -0.818106 -0.534408 -0.212393
v 0.025704 0.006488 0.051113
vn -0.915982 -0.390454 -0.092315
v 0.031330 -0.002127 0.045194
vn -0.861589 -0.415545 -0.291524
v 0.013782 0.009153 0.078582
vn -0.647897 -0.746793 -0.150098
v 0.012378 0.015854 0.067512
vn -0.827949 -0.422248 -0.369063
v 0.020703 0.000989 0.069914
vn -0.821304 -0.485699 -0.299259
v 0.016984 -0.001948 0.080879
vn 0.087891 -0.996055 0.012198
v 0.011912 0.003528 0.124272
vn -0.740572 -0.660199 0.125256
v 0.016684 -0.000353 0.117982
vn -0.451747 -0.723286 0.522285
v 0.019589 0.001472 0.136024
vn 0.487209 -0.852506 0.189368
v 0.011760 0.004040 0.133719
vn 0.191377 -0.886813 0.420640
v 0.016225 0.008841 0.142373
vn -0.792415 -0.216821 0.570146
v 0.023956 -0.003845 0.136201
vn -0.338915 -0.854449 0.393769
v 0.027622 0.011505 0.146594
vn -0.065940 -0.573927 -0.816247
v 0.019474 0.008033 0.158715
vn 0.061668 -0.982996 -0.172961
v 0.018979 0.012219 0.151351
vn -0.621538 -0.699835 -0.352025
v 0.031370 0.008352 0.151897
# 127 vertices, 0 vertices normals

f 19//19 18//18 21//21
f 19//19 66//66 20//20
f 66//66 19//19 21//21
f 20//20 1//1 18//18
f 18//18 1//1 34//34
f 19//19 20//20 18//18
f 2//2 1//1 20//20
f 22//22 21//21 18//18
f 22//22 25//25 21//21
f 21//21 69//69 66//66
f 4//4 21//21 25//25
f 69//69 21//21 4//4
f 22//22 18//18 3//3
f 25//25 22//22 23//23
f 22//22 3//3 24//24
f 24//24 23//23 22//22
f 5//5 25//25 27//27
f 4//4 25//25 5//5
f 27//27 25//25 23//23
f 23//23 24//24 26//26
f 27//27 23//23 26//26
f 27//27 77//77 5//5
f 27//27 26//26 29//29
f 29//29 26//26 28//28
f 77//77 27//27 29//29
f 11//11 29//29 28//28
f 11//11 86//86 29//29
f 86//86 6//6 29//29
f 30//30 87//87 86//86
f 12//12 87//87 30//30
f 12//12 30//30 13//13
f 32//32 97//97 31//31
f 14//14 33//33 32//32
f 33//33 14//14 104//104
f 8//8 34//34 1//1
f 18//18 34//34 3//3
f 8//8 1//1 2//2
f 8//8 2//2 105//105
f 34//34 8//8 35//35
f 34//34 35//35 36//36
f 105//105 40//40 35//35
f 105//105 35//35 8//8
f 3//3 34//34 38//38
f 38//38 34//34 36//36
f 38//38 24//24 3//3
f 35//35 37//37 36//36
f 38//38 36//36 37//37
f 38//38 37//37 39//39
f 40//40 37//37 35//35
f 37//37 40//40 41//41
f 41//41 40//40 10//10
f 41//41 10//10 9//9
f 24//24 38//38 43//43
f 43//43 26//26 24//24
f 39//39 37//37 42//42
f 43//43 38//38 39//39
f 44//44 39//39 42//42
f 43//43 39//39 44//44
f 26//26 43//43 47//47
f 46//46 44//44 42//42
f 42//42 37//37 41//41
f 42//42 41//41 46//46
f 46//46 41//41 9//9
f 46//46 9//9 45//45
f 46//46 49//49 44//44
f 47//47 28//28 26//26
f 47//47 43//43 44//44
f 47//47 44//44 48//48
f 47//47 11//11 28//28
f 114//114 51//51 115//115
f 48//48 44//44 49//49
f 45//45 49//49 46//46
f 48//48 49//49 55//55
f 45//45 115//115 56//56
f 49//49 45//45 56//56
f 52//52 86//86 11//11
f 86//86 52//52 30//30
f 52//52 11//11 50//50
f 7//7 54//54 114//114
f 114//114 117//117 7//7
f 11//11 47//47 50//50
f 50//50 47//47 48//48
f 114//114 54//54 51//51
f 119//119 54//54 7//7
f 52//52 50//50 54//54
f 54//54 61//61 51//51
f 54//54 59//59 52//52
f 54//54 50//50 60//60
f 60//60 50//50 53//53
f 61//61 54//54 60//60
f 50//50 48//48 55//55
f 55//55 49//49 56//56
f 56//56 115//115 51//51
f 50//50 55//55 53//53
f 53//53 55//55 57//57
f 56//56 57//57 55//55
f 61//61 57//57 56//56
f 61//61 56//56 51//51
f 30//30 52//52 58//58
f 58//58 52//52 59//59
f 54//54 119//119 59//59
f 58//58 13//13 30//30
f 59//59 119//119 118//118
f 57//57 62//62 53//53
f 62//62 60//60 53//53
f 60//60 62//62 61//61
f 13//13 58//58 63//63
f 118//118 58//58 59//59
f 118//118 63//63 58//58
f 13//13 63//63 31//31
f 31//31 63//63 121//121
f 118//118 121//121 63//63
f 61//61 62//62 57//57
f 31//31 121//121 64//64
f 32//32 31//31 14//14
f 14//14 31//31 64//64
f 14//14 64//64 17//17
f 14//14 17//17 104//104
f 65//65 20//20 66//66
f 65//65 66//66 67//67
f 65//65 67//67 70//70
f 20//20 65//65 68//68
f 68//68 2//2 20//20
f 67//67 66//66 69//69
f 69//69 71//71 67//67
f 70//70 67//67 71//71
f 71//71 72//72 70//70
f 72//72 73//73 108//108
f 108//108 70//70 72//72
f 73//73 109//109 108//108
f 69//69 4//4 5//5
f 69//69 5//5 76//76
f 76//76 5//5 77//77
f 74//74 69//69 76//76
f 71//71 69//69 74//74
f 80//80 71//71 74//74
f 73//73 72//72 75//75
f 113//113 73//73 75//75
f 72//72 71//71 80//80
f 74//74 82//82 80//80
f 80//80 83//83 75//75
f 75//75 72//72 80//80
f 83//83 81//81 75//75
f 77//77 78//78 76//76
f 74//74 76//76 78//78
f 82//82 74//74 78//78
f 78//78 77//77 6//6
f 6//6 79//79 78//78
f 84//84 78//78 79//79
f 82//82 78//78 84//84
f 83//83 80//80 82//82
f 83//83 85//85 81//81
f 81//81 85//85 117//117
f 6//6 77//77 29//29
f 85//85 7//7 117//117
f 79//79 6//6 89//89
f 79//79 90//90 84//84
f 90//90 79//79 89//89
f 87//87 6//6 86//86
f 88//88 83//83 82//82
f 82//82 84//84 90//90
f 85//85 83//83 88//88
f 92//92 7//7 85//85
f 6//6 87//87 89//89
f 89//89 87//87 94//94
f 90//90 88//88 82//82
f 85//85 88//88 92//92
f 91//91 92//92 88//88
f 88//88 90//90 91//91
f 91//91 90//90 89//89
f 91//91 89//89 94//94
f 12//12 94//94 87//87
f 93//93 92//92 91//91
f 95//95 92//92 93//93
f 94//94 93//93 91//91
f 93//93 94//94 95//95
f 94//94 12//12 97//97
f 96//96 94//94 97//97
f 95//95 94//94 96//96
f 97//97 12//12 13//13
f 100//100 96//96 99//99
f 97//97 13//13 31//31
f 97//97 99//99 96//96
f 96//96 98//98 95//95
f 98//98 123//123 95//95
f 98//98 96//96 100//100
f 98//98 15//15 123//123
f 103//103 99//99 33//33
f 100//100 99//99 103//103
f 97//97 32//32 99//99
f 99//99 32//32 33//33
f 33//33 104//104 103//103
f 100//100 15//15 98//98
f 102//102 15//15 100//100
f 102//102 101//101 15//15
f 102//102 100//100 103//103
f 103//103 101//101 102//102
f 101//101 103//103 104//104
f 2//2 68//68 105//105
f 108//108 106//106 68//68
f 68//68 65//65 108//108
f 65//65 70//70 108//108
f 106//106 105//105 68//68
f 106//106 107//107 105//105
f 107//107 40//40 105//105
f 109//109 107//107 106//106
f 109//109 106//106 108//108
f 73//73 110//110 109//109
f 10//10 40//40 107//107
f 109//109 110//110 107//107
f 10//10 107//107 110//110
f 9//9 10//10 111//111
f 111//111 10//10 110//110
f 110//110 73//73 113//113
f 112//112 111//111 110//110
f 113//113 112//112 110//110
f 9//9 111//111 115//115
f 81//81 113//113 75//75
f 112//112 113//113 81//81
f 115//115 111//111 112//112
f 115//115 45//45 9//9
f 116//116 114//114 112//112
f 81//81 116//116 112//112
f 115//115 112//112 114//114
f 81//81 117//117 116//116
f 114//114 116//116 117//117
f 92//92 119//119 7//7
f 95//95 123//123 119//119
f 119//119 92//92 95//95
f 120//120 121//121 118//118
f 118//118 119//119 120//120
f 120//120 119//119 123//123
f 64//64 121//121 122//122
f 122//122 121//121 120//120
f 16//16 120//120 123//123
f 123//123 15//15 16//16
f 16//16 124//124 120//120
f 124//124 122//122 120//120
f 125//125 104//104 17//17
f 127//127 16//16 101//101
f 124//124 16//16 127//127
f 101//101 125//125 127//127
f 64//64 122//122 17//17
f 17//17 122//122 126//126
f 126//126 122//122 124//124
f 126//126 124//124 127//127
f 126//126 125//125 17//17
f 127//127 125//125 126//126
f 101//101 16//16 15//15
f 104//104 125//125 101//101
# 250 faces, 0 coords texture

# End of File
