####
#
# OBJ File Generated by Meshlab
#
####
# Object mom_to_mom_sweet_potato_corn_apple_250_collision.obj
#
# Vertices: 127
# Faces: 250
#
####
vn -0.308813 0.168543 0.936070
v 0.009631 0.001688 0.160621
vn 0.434561 0.896743 -0.083720
v 0.025440 0.024363 0.007828
vn -0.802141 0.529546 0.275956
v -0.007828 0.027397 0.122773
vn -0.542671 0.616225 -0.570767
v -0.001957 0.023483 0.006428
vn 0.731318 0.647353 0.214728
v 0.035235 0.007699 0.150950
vn -0.833981 -0.332724 0.440193
v 0.005871 -0.011005 0.154598
vn 0.715221 -0.535919 -0.448609
v 0.025440 -0.032877 0.009785
vn -0.113531 0.935180 -0.335484
v 0.003251 0.025440 0.007828
vn 0.581733 0.436446 -0.686369
v 0.029354 0.019569 0.005959
vn -0.917667 0.234705 -0.320626
v -0.017612 0.003914 0.011017
vn -0.282751 -0.843326 0.457004
v 0.015656 -0.018800 0.156555
vn -0.166331 -0.890213 -0.424093
v 0.014985 -0.033268 0.007828
vn -0.533782 0.845008 -0.032219
v -0.007828 0.028212 0.111546
vn -0.033263 0.449073 -0.892876
v 0.000000 0.023483 0.006142
vn 0.825121 -0.088594 -0.557967
v 0.035225 -0.007828 0.006110
vn -0.438077 -0.067406 -0.896407
v -0.009785 -0.010209 0.005871
vn -0.935876 -0.349854 0.041692
v -0.017612 -0.001957 0.013119
vn 0.525182 0.842338 0.121043
v 0.030547 0.011742 0.150684
vn 0.041805 0.834264 0.549779
v 0.021526 0.014175 0.154598
vn -0.343579 -0.469714 -0.813217
v -0.001957 -0.024799 0.005871
vn 0.140043 -0.989459 -0.036849
v 0.033268 -0.036481 0.109589
vn 0.029112 0.853932 -0.519569
v 0.008419 0.025440 0.007828
vn -0.574828 0.816532 0.053369
v -0.007828 0.027955 0.117416
vn -0.778394 0.624053 -0.068263
v -0.007828 0.027593 0.105675
vn 0.068244 0.497044 -0.865038
v 0.023483 0.023483 0.006943
vn 0.215036 -0.228744 -0.949440
v 0.027083 -0.023483 0.005871
vn -0.491431 0.175706 -0.853008
v -0.009785 0.009785 0.007232
vn -0.974247 0.020298 0.224570
v -0.007828 0.025200 0.125244
vn -0.798994 -0.567049 -0.200159
v -0.005871 -0.021526 0.006432
vn -0.874512 -0.208363 -0.437965
v -0.017612 -0.000533 0.011742
vn 0.510279 0.807109 0.296970
v 0.027397 0.013219 0.152641
vn 0.142077 0.914825 0.378034
v 0.021526 0.015051 0.152641
vn -0.261055 0.786036 0.560355
v 0.000000 0.021208 0.136986
vn 0.995275 -0.055357 0.079767
v 0.038456 -0.005874 0.148800
vn 0.974656 0.111962 -0.193673
v 0.035225 -0.001957 0.006873
vn 0.319365 0.449727 0.834117
v 0.027524 0.008978 0.157213
vn -0.596608 -0.771100 0.222404
v 0.011180 -0.017612 0.154598
vn -0.777642 -0.295057 0.555171
v 0.006849 -0.008806 0.157560
vn 0.351852 -0.875093 -0.332284
v 0.024944 -0.033268 0.009785
vn -0.478805 -0.875961 0.058641
v 0.015656 -0.030707 0.070450
vn 0.082727 0.996455 0.015303
v -0.005871 0.028248 0.107632
vn 0.254373 0.960988 0.108607
v -0.005871 0.027416 0.121330
vn 0.015635 0.134650 -0.990770
v 0.017687 0.021526 0.005871
vn 0.007827 -0.157271 -0.987524
v 0.012784 -0.027397 0.005871
vn 0.032209 -0.008105 -0.999448
v 0.029354 -0.017652 0.005871
vn -0.507723 0.086226 -0.857194
v -0.015656 0.004105 0.009785
vn -0.919343 -0.247778 0.305638
v 0.005391 -0.009785 0.154598
vn -0.309196 -0.168551 -0.935942
v -0.005871 -0.019569 0.005878
vn -0.822550 -0.559131 0.103848
v -0.007828 -0.015456 0.025440
vn 0.685024 0.725497 0.066307
v 0.034199 0.008727 0.150684
vn 0.458494 0.886163 0.067068
v 0.029354 0.012366 0.150684
vn -0.246987 0.842522 0.478700
v -0.005871 0.025440 0.127994
vn -0.555106 0.426873 0.713888
v 0.009205 0.005871 0.158512
vn 0.873766 0.103957 0.475107
v 0.037453 -0.002035 0.154889
vn 0.998777 -0.043251 -0.023959
v 0.037182 -0.035225 0.120401
vn 0.962689 -0.162645 0.216280
v 0.037450 -0.007828 0.152641
vn 0.892381 0.290048 -0.345729
v 0.031311 0.015656 0.006373
vn 0.998580 0.022484 0.048287
v 0.038468 -0.003914 0.148727
vn 0.138502 0.250473 0.958165
v 0.022138 0.005504 0.159531
vn -0.821589 -0.553975 0.134551
v 0.007789 -0.013710 0.156875
vn -0.049515 -0.825208 0.562654
v 0.019569 -0.019569 0.156868
vn -0.361239 -0.858408 0.364200
v 0.013699 -0.018834 0.154598
vn 0.400619 -0.582113 0.707565
v 0.029354 -0.017057 0.156555
vn -0.496101 -0.863078 0.094762
v 0.030101 -0.035225 0.115459
vn -0.241978 -0.961915 0.127143
v 0.033268 -0.036663 0.117416
vn -0.235935 -0.326629 0.915231
v 0.014651 -0.013735 0.160664
vn 0.318615 -0.946257 -0.055517
v 0.033268 -0.036269 0.105675
vn -0.323532 -0.710496 -0.624919
v -0.000731 -0.025440 0.005871
vn -0.605929 -0.790251 0.091398
v 0.013477 -0.029354 0.070450
vn 0.214740 0.926137 0.310093
v 0.023483 0.014592 0.152641
vn 0.003136 0.984043 0.177906
v -0.007542 0.027639 0.122707
vn -0.173689 0.091607 -0.980531
v -0.003914 0.017832 0.005871
vn 0.000000 0.263755 -0.964590
v 0.004688 0.000000 0.154598
vn -0.846664 -0.521716 0.104748
v -0.008919 -0.013699 0.025440
vn -0.836049 -0.540173 0.096095
v -0.008180 -0.015656 0.021526
vn -0.857281 0.071902 0.509803
v 0.009910 -0.001651 0.160479
vn 0.613558 0.721785 0.320270
v 0.032755 0.010012 0.151165
vn -0.114799 0.848627 0.516385
v 0.018591 0.013839 0.154667
vn -0.702106 0.440863 0.559184
v -0.005870 0.023482 0.130623
vn -0.226956 0.750275 0.620950
v 0.014022 0.011621 0.156555
vn 0.817514 -0.347709 0.459097
v 0.036131 -0.009785 0.154598
vn 0.705348 -0.503627 0.498843
v 0.033268 -0.014576 0.154598
vn 0.943011 0.300165 0.143632
v 0.037465 0.003914 0.150684
vn 0.860188 -0.226367 0.456985
v 0.037048 -0.007828 0.154192
vn -0.261895 -0.925367 0.274056
v 0.035173 -0.035225 0.125244
vn 0.236921 -0.971060 0.030174
v 0.035225 -0.036371 0.119373
vn -0.495303 -0.830180 0.255883
v 0.011742 -0.018019 0.154598
vn -0.430384 -0.900963 0.055097
v 0.031311 -0.036022 0.113503
vn -0.564101 -0.821148 0.086634
v 0.013699 -0.029521 0.070450
vn 0.346319 0.908060 0.235562
v 0.025999 0.013787 0.153355
vn 0.233051 0.970979 0.053735
v -0.003914 0.027736 0.109589
vn -0.896618 -0.066051 0.437850
v 0.004820 -0.005959 0.154711
vn -0.689279 -0.125940 0.713466
v 0.008223 -0.006115 0.160459
vn -0.557497 -0.414791 0.719128
v 0.009872 -0.011124 0.159365
vn 0.318042 0.705862 0.632936
v 0.025071 0.012724 0.155178
vn 0.846007 -0.506244 0.167301
v 0.037182 -0.035651 0.121330
vn 0.992829 0.098443 0.067813
v 0.038239 0.000000 0.148727
vn 0.983607 0.173117 0.050478
v 0.037965 0.001957 0.148727
vn 0.894736 0.444455 0.043676
v 0.037182 0.004539 0.150684
vn 0.576248 0.501777 0.645103
v 0.032019 0.007070 0.155409
vn 0.138352 -0.203908 0.969165
v 0.021597 -0.014714 0.160782
vn -0.624510 -0.571198 0.532654
v 0.009272 -0.015607 0.155691
vn -0.805988 -0.582855 0.103263
v -0.006272 -0.017612 0.025440
vn -0.205020 -0.898810 0.387437
v 0.018244 -0.019419 0.156555
vn -0.147068 -0.645252 0.749680
v 0.017123 -0.017222 0.159014
vn 0.337931 0.938751 0.067447
v -0.003314 0.027397 0.111546
vn -0.055667 0.727195 0.684170
v 0.017368 0.012622 0.156187
vn 0.102876 0.495122 0.862711
v 0.020548 0.010082 0.158112
vn -0.712207 0.142049 0.687447
v 0.007342 0.002286 0.158732
vn -0.277754 0.556928 0.782741
v 0.012792 0.008988 0.158928
vn 0.598505 -0.488056 0.635290
v 0.031198 -0.015533 0.156555
vn 0.831413 0.461621 0.309287
v 0.036477 0.005733 0.151525
vn 0.197843 -0.804055 0.560673
v 0.024462 -0.018990 0.156555
vn 0.315049 -0.735492 0.599829
v 0.027889 -0.017845 0.156555
vn 0.686513 -0.415013 0.597045
v 0.033316 -0.012760 0.156774
vn 0.515860 -0.157113 0.842143
v 0.033726 -0.008434 0.158159
vn -0.536212 -0.839428 0.088526
v 0.018591 -0.031222 0.084148
vn 0.281175 0.957387 0.065965
v -0.003914 0.027612 0.111546
vn -0.861492 0.061623 0.504018
v 0.005909 0.001957 0.156555
vn -0.544615 0.524733 0.654255
v 0.009785 0.007188 0.157982
vn 0.444005 -0.398356 0.802603
v 0.031024 -0.014612 0.157068
vn 0.189797 -0.892745 0.408636
v 0.035225 -0.035225 0.125284
vn 0.046316 0.193556 0.979995
v 0.016634 0.006849 0.159755
vn 0.212791 -0.616476 0.758075
v 0.024308 -0.017680 0.158238
vn -0.432004 -0.655923 0.618980
v 0.012326 -0.015985 0.157838
vn 0.299008 0.156726 0.941292
v 0.029650 0.000993 0.159270
vn 0.352154 0.046597 0.934782
v 0.030617 -0.004892 0.159123
# 127 vertices, 0 vertices normals

f 9//9 2//2 5//5
f 13//13 8//8 4//4
f 14//14 4//4 8//8
f 15//15 96//96 7//7
f 22//22 14//14 8//8
f 23//23 13//13 10//10
f 23//23 10//10 3//3
f 24//24 13//13 4//4
f 24//24 4//4 10//10
f 24//24 10//10 13//13
f 25//25 2//2 9//9
f 25//25 22//22 2//2
f 25//25 14//14 22//22
f 26//26 15//15 7//7
f 27//27 10//10 4//4
f 72//72 4//4 14//14
f 72//72 27//27 4//4
f 72//72 16//16 27//27
f 28//28 3//3 10//10
f 28//28 10//10 17//17
f 30//30 17//17 10//10
f 30//30 10//10 16//16
f 30//30 29//29 17//17
f 30//30 16//16 29//29
f 77//77 2//2 18//18
f 31//31 2//2 90//90
f 37//37 29//29 20//20
f 39//39 21//21 12//12
f 39//39 26//26 7//7
f 39//39 12//12 26//26
f 39//39 7//7 96//96
f 41//41 2//2 22//22
f 41//41 22//22 8//8
f 41//41 8//8 13//13
f 41//41 13//13 23//23
f 43//43 25//25 9//9
f 43//43 14//14 25//25
f 44//44 26//26 12//12
f 45//45 9//9 15//15
f 45//45 15//15 26//26
f 45//45 43//43 9//9
f 46//46 27//27 16//16
f 46//46 16//16 10//10
f 46//46 10//10 27//27
f 47//47 28//28 17//17
f 47//47 17//17 6//6
f 48//48 29//29 16//16
f 48//48 20//20 29//29
f 50//50 2//2 77//77
f 51//51 31//31 18//18
f 51//51 18//18 2//2
f 51//51 2//2 31//31
f 95//95 31//31 90//90
f 52//52 19//19 32//32
f 55//55 34//34 96//96
f 55//55 96//96 15//15
f 55//55 15//15 34//34
f 57//57 35//35 15//15
f 57//57 15//15 9//9
f 58//58 34//34 15//15
f 58//58 15//15 35//35
f 58//58 54//54 34//34
f 65//65 12//12 21//21
f 67//67 21//21 39//39
f 68//68 40//40 20//20
f 68//68 12//12 40//40
f 68//68 44//44 12//12
f 69//69 37//37 20//20
f 71//71 23//23 3//3
f 71//71 52//52 32//32
f 71//71 3//3 52//52
f 70//70 71//71 32//32
f 70//70 42//42 71//71
f 71//71 41//41 23//23
f 72//72 14//14 43//43
f 38//38 47//47 6//6
f 20//20 48//48 16//16
f 20//20 16//16 72//72
f 20//20 44//44 68//68
f 20//20 26//26 44//44
f 20//20 45//45 26//26
f 20//20 72//72 43//43
f 20//20 43//43 45//45
f 75//75 17//17 29//29
f 75//75 29//29 49//49
f 75//75 74//74 17//17
f 75//75 49//49 74//74
f 50//50 5//5 2//2
f 77//77 18//18 31//31
f 5//5 50//50 77//77
f 95//95 77//77 31//31
f 95//95 32//32 19//19
f 95//95 70//70 32//32
f 78//78 52//52 33//33
f 78//78 33//33 107//107
f 79//79 52//52 3//3
f 79//79 3//3 28//28
f 79//79 33//33 52//52
f 81//81 96//96 84//84
f 82//82 122//122 96//96
f 84//84 96//96 56//56
f 34//34 56//56 96//96
f 102//102 60//60 29//29
f 102//102 29//29 37//37
f 60//60 74//74 49//49
f 60//60 6//6 17//17
f 60//60 17//17 74//74
f 113//113 61//61 122//122
f 104//104 122//122 61//61
f 85//85 122//122 11//11
f 85//85 11//11 62//62
f 85//85 65//65 122//122
f 85//85 62//62 65//65
f 125//125 62//62 11//11
f 86//86 65//65 21//21
f 86//86 21//21 67//67
f 86//86 67//67 39//39
f 86//86 96//96 122//122
f 86//86 122//122 65//65
f 86//86 39//39 96//96
f 87//87 64//64 65//65
f 87//87 65//65 62//62
f 87//87 125//125 37//37
f 87//87 62//62 125//125
f 88//88 65//65 64//64
f 88//88 64//64 40//40
f 88//88 40//40 12//12
f 88//88 12//12 65//65
f 89//89 37//37 69//69
f 89//89 69//69 20//20
f 89//89 20//20 40//40
f 89//89 87//87 37//37
f 90//90 42//42 70//70
f 90//90 70//70 95//95
f 91//91 2//2 41//41
f 91//91 41//41 71//71
f 92//92 47//47 38//38
f 92//92 73//73 79//79
f 92//92 79//79 28//28
f 92//92 28//28 47//47
f 94//94 93//93 38//38
f 100//100 5//5 77//77
f 100//100 77//77 95//95
f 78//78 19//19 52//52
f 110//110 80//80 33//33
f 110//110 33//33 79//79
f 80//80 107//107 33//33
f 115//115 81//81 84//84
f 96//96 81//81 115//115
f 115//115 82//82 96//96
f 111//111 63//63 122//122
f 97//97 54//54 58//58
f 97//97 58//58 35//35
f 98//98 35//35 57//57
f 98//98 57//57 83//83
f 98//98 97//97 35//35
f 99//99 83//83 57//57
f 99//99 57//57 9//9
f 54//54 84//84 56//56
f 54//54 56//56 34//34
f 94//94 38//38 102//102
f 102//102 37//37 125//125
f 103//103 60//60 49//49
f 103//103 49//49 29//29
f 103//103 29//29 60//60
f 102//102 38//38 6//6
f 102//102 6//6 60//60
f 124//124 61//61 113//113
f 104//104 61//61 11//11
f 104//104 11//11 122//122
f 105//105 11//11 61//61
f 121//121 63//63 111//111
f 125//125 94//94 102//102
f 66//66 101//101 1//1
f 76//76 93//93 1//1
f 66//66 125//125 105//105
f 117//117 89//89 40//40
f 117//117 40//40 64//64
f 117//117 87//87 89//89
f 106//106 90//90 2//2
f 109//109 53//53 79//79
f 93//93 92//92 38//38
f 108//108 95//95 107//107
f 107//107 95//95 19//19
f 107//107 19//19 78//78
f 120//120 110//110 79//79
f 110//110 107//107 80//80
f 110//110 53//53 1//1
f 109//109 76//76 1//1
f 111//111 122//122 82//82
f 54//54 116//116 84//84
f 115//115 84//84 116//116
f 54//54 97//97 98//98
f 112//112 99//99 9//9
f 112//112 9//9 5//5
f 54//54 112//112 100//100
f 112//112 83//83 99//99
f 100//100 126//126 54//54
f 126//126 36//36 59//59
f 108//108 59//59 36//36
f 123//123 59//59 108//108
f 123//123 1//1 101//101
f 126//126 123//123 101//101
f 126//126 59//59 123//123
f 113//113 122//122 114//114
f 113//113 114//114 124//124
f 114//114 122//122 63//63
f 101//101 121//121 116//116
f 93//93 66//66 1//1
f 105//105 101//101 66//66
f 66//66 94//94 125//125
f 105//105 61//61 124//124
f 124//124 101//101 105//105
f 117//117 64//64 87//87
f 118//118 90//90 106//106
f 118//118 106//106 2//2
f 118//118 2//2 91//91
f 118//118 91//91 71//71
f 118//118 71//71 42//42
f 79//79 73//73 92//92
f 109//109 93//93 76//76
f 119//119 109//109 79//79
f 93//93 109//109 92//92
f 94//94 66//66 93//93
f 110//110 108//108 107//107
f 110//110 123//123 108//108
f 95//95 36//36 100//100
f 95//95 108//108 36//36
f 120//120 79//79 53//53
f 120//120 53//53 110//110
f 121//121 82//82 115//115
f 121//121 111//111 82//82
f 121//121 115//115 116//116
f 54//54 127//127 116//116
f 126//126 127//127 54//54
f 54//54 83//83 112//112
f 54//54 98//98 83//83
f 36//36 126//126 100//100
f 123//123 110//110 1//1
f 124//124 63//63 121//121
f 124//124 114//114 63//63
f 125//125 11//11 105//105
f 90//90 118//118 42//42
f 109//109 119//119 92//92
f 79//79 92//92 119//119
f 100//100 112//112 5//5
f 1//1 53//53 109//109
f 124//124 121//121 101//101
f 101//101 116//116 127//127
f 101//101 127//127 126//126
# 250 faces, 0 coords texture

# End of File
