####
#
# OBJ File Generated by Meshlab
#
####
# Object white_rain_sensations_ocean_mist_hydrating_body_wash_250_collision.obj
#
# Vertices: 127
# Faces: 250
#
####
vn 0.315896 -0.499796 -0.806482
v 0.007828 -0.032443 0.005871
vn 0.001600 0.999472 -0.032443
v 0.000000 0.033984 0.033268
vn 0.970458 -0.205411 -0.126563
v 0.030995 -0.015656 0.017612
vn 0.925287 -0.371849 0.074648
v 0.021088 -0.021526 0.170254
vn 0.583397 -0.797438 -0.154082
v 0.025440 -0.022978 0.017612
vn 0.689343 0.133804 -0.711971
v 0.027397 0.005033 0.009785
vn -0.529016 0.208750 -0.822536
v -0.014868 0.017612 0.009785
vn 0.806676 -0.587436 0.064757
v 0.016063 -0.029354 0.178082
vn 0.484302 -0.873796 -0.043960
v 0.011685 -0.033606 0.037269
vn -0.146794 -0.956472 0.252217
v 0.005801 -0.031354 0.211586
vn 0.481938 0.810750 -0.332297
v 0.011170 0.029354 0.013699
vn 0.868348 0.495955 0.000100
v 0.019569 0.023154 0.162426
vn -0.275890 0.599341 -0.751449
v -0.001147 0.029354 0.009785
vn -0.750327 -0.015480 -0.660885
v -0.017658 -0.005281 0.009904
vn 0.879969 -0.470815 0.063147
v 0.020206 -0.023483 0.170254
vn 0.605114 -0.766229 0.216171
v 0.011991 -0.029354 0.211349
vn 0.746638 -0.654213 -0.120569
v 0.027311 -0.021526 0.017612
vn 0.464784 -0.875777 -0.130344
v 0.007828 -0.033172 0.009785
vn 0.593498 -0.142600 -0.792102
v 0.025297 -0.007828 0.009785
vn -0.762917 -0.632557 -0.133526
v -0.015656 -0.022579 0.011742
vn -0.077742 -0.996572 -0.028302
v 0.003914 -0.035523 0.017612
vn 0.388651 0.915374 -0.105078
v 0.009785 0.030059 0.013699
vn -0.280571 0.918797 0.277654
v 0.006154 0.027593 0.213442
vn 0.880542 0.469589 -0.064283
v 0.025440 0.011742 0.012885
vn 0.972621 0.228759 0.040962
v 0.023525 0.013705 0.164538
vn -0.144865 -0.287284 -0.946827
v 0.005871 -0.032742 0.005871
vn -0.637549 0.769973 -0.025950
v -0.002061 0.033268 0.033268
vn -0.975449 0.095536 -0.198426
v -0.017617 0.007032 0.011751
vn 0.724717 -0.686934 0.053918
v 0.013073 -0.032639 0.177103
vn 0.199800 -0.326061 0.923994
v 0.009785 -0.029354 0.214468
vn 0.566989 -0.395489 -0.722573
v 0.016420 -0.025529 0.007618
vn 0.847159 -0.529777 0.040706
v 0.019569 -0.024537 0.170254
vn 0.952351 -0.298370 0.063262
v 0.021949 -0.019569 0.168297
vn 0.991832 -0.115796 0.053483
v 0.024757 -0.007828 0.166340
vn 0.518703 -0.850392 -0.088212
v 0.011742 -0.031640 0.017612
vn -0.613343 -0.789816 -0.000914
v -0.007125 -0.029354 0.031311
vn 0.323136 -0.944446 -0.060047
v 0.005645 -0.035225 0.017612
vn 0.176141 -0.983691 0.036431
v 0.007442 -0.035225 0.174168
vn -0.396090 -0.918156 0.010068
v -0.000023 -0.033971 0.170491
vn 0.518338 0.854422 0.035897
v 0.013659 0.029321 0.176304
vn -0.192348 0.932526 -0.305611
v 0.001914 0.031311 0.011742
vn -0.951981 -0.297098 0.073933
v -0.011019 -0.019622 0.170278
vn 0.643312 0.759907 -0.093222
v 0.011742 0.028967 0.013699
vn 0.825577 0.564188 -0.010703
v 0.019569 0.021334 0.058708
vn 0.971003 0.237783 -0.024758
v 0.027397 0.005871 0.011856
vn -0.894272 0.429460 -0.125860
v -0.015656 0.017612 0.010785
vn 0.845151 -0.490763 0.211827
v 0.016184 -0.023462 0.211606
vn 0.396414 -0.264996 0.878996
v 0.011749 -0.027360 0.214479
vn 0.985834 0.163536 0.037253
v 0.024682 0.008007 0.164046
vn 0.780983 -0.288520 0.553915
v 0.017612 -0.019569 0.213318
vn -0.510920 -0.859386 -0.020418
v -0.001958 -0.033272 0.021490
vn -0.495875 -0.860060 -0.120021
v -0.002813 -0.032387 0.016634
vn -0.523681 -0.380755 -0.762092
v -0.013297 -0.022867 0.009711
vn -0.144613 -0.949149 -0.279650
v 0.003914 -0.034732 0.009785
vn -0.206453 -0.975852 0.071349
v 0.003826 -0.035259 0.173948
vn 0.491573 -0.869951 0.039267
v 0.011737 -0.034120 0.175890
vn -0.375003 -0.926965 -0.010445
v 0.000000 -0.034096 0.021526
vn -0.338314 -0.940625 0.027706
v 0.001957 -0.034708 0.172211
vn -0.442185 0.894617 -0.064287
v -0.001957 0.033332 0.033268
vn 0.237584 0.822073 -0.517445
v 0.005373 0.031202 0.011709
vn 0.726979 0.685655 0.037134
v 0.016123 0.027445 0.176307
vn 0.922563 0.204937 0.326923
v 0.021135 0.009318 0.211937
vn -0.867561 -0.491431 0.076381
v -0.008026 -0.027067 0.168170
vn -0.957303 0.114410 0.265482
v -0.006846 0.000000 0.209393
vn 0.518095 0.528225 -0.672723
v 0.018232 0.021533 0.009785
vn 0.821571 0.570095 -0.003540
v 0.019370 0.023483 0.162426
vn 0.776272 0.630050 -0.020944
v 0.017678 0.023576 0.033268
vn 0.698061 0.715859 -0.016013
v 0.015898 0.025440 0.037182
vn 0.948961 0.315276 0.008576
v 0.023312 0.015656 0.138943
vn 0.889658 0.456625 0.001383
v 0.021495 0.019569 0.138943
vn 0.157389 -0.979951 0.122170
v 0.007905 -0.032308 0.203847
vn 0.985410 0.138772 0.098535
v 0.022201 0.004892 0.209393
vn 0.977164 -0.203829 0.060032
v 0.024100 -0.011768 0.166273
vn 0.955841 -0.276681 0.099069
v 0.021610 -0.010431 0.206465
vn -0.366513 -0.929282 -0.045858
v 0.003018 -0.035225 0.017612
vn -0.564337 0.822744 0.067944
v 0.000000 0.029508 0.176125
vn 0.660415 0.363907 0.656828
v 0.017056 0.020049 0.213070
vn 0.367040 0.928339 0.058883
v 0.011852 0.030142 0.177659
vn 0.923845 0.341328 0.173223
v 0.019570 0.015089 0.211311
vn -0.613273 -0.394369 0.684375
v -0.000378 -0.027318 0.213849
vn -0.576462 -0.806809 0.129427
v -0.000424 -0.030914 0.192514
vn -0.920142 -0.380872 0.090965
v -0.009785 -0.023000 0.170254
vn -0.955137 0.176216 0.238036
v -0.005306 0.008708 0.209862
vn 0.775132 0.631798 0.001661
v 0.017815 0.025440 0.164383
vn 0.622917 0.779260 0.068756
v 0.015700 0.027801 0.176488
vn 0.747903 0.663681 -0.012962
v 0.017612 0.023703 0.035225
vn 0.996337 0.070253 0.048759
v 0.024864 0.005845 0.166239
vn -0.721249 0.689447 0.066798
v -0.002837 0.027395 0.174214
vn -0.153464 0.986097 0.063735
v 0.003914 0.031186 0.176125
vn 0.019562 -0.998465 0.051808
v 0.005871 -0.035419 0.174178
vn 0.942301 -0.058741 0.329572
v 0.022490 -0.003801 0.212008
vn -0.892848 -0.321055 0.315826
v -0.003981 -0.023590 0.209391
vn -0.684329 0.721273 0.107049
v -0.002591 0.027482 0.175575
vn -0.372721 0.925723 0.064165
v 0.001956 0.030642 0.176360
vn 0.677658 0.718743 0.155530
v 0.014255 0.023483 0.211349
vn 0.456976 0.658204 0.598282
v 0.011706 0.025109 0.213671
vn -0.740042 -0.666314 0.091453
v -0.006013 -0.029496 0.172707
vn -0.620783 -0.782812 0.042831
v -0.003908 -0.031500 0.170504
vn -0.878315 -0.194148 0.436887
v -0.005972 -0.016295 0.212000
vn -0.963360 0.264153 0.046473
v -0.013099 0.011742 0.148727
vn 0.998593 -0.022631 0.047957
v 0.025488 -0.003862 0.157027
vn -0.837743 0.542949 0.058253
v -0.006616 0.023467 0.168466
vn -0.612510 0.789472 0.039565
v -0.001957 0.028299 0.170254
vn 0.111016 0.992108 0.058287
v 0.007748 0.031347 0.176375
vn 0.862405 0.504764 0.038364
v 0.019767 0.022690 0.173745
vn 0.935324 0.351978 0.035794
v 0.022252 0.017849 0.167625
vn -0.185577 0.369762 0.910405
v 0.001150 -0.027456 0.213365
vn -0.629896 0.235649 0.740068
v -0.002028 0.019959 0.213688
vn -0.468625 -0.880357 0.073228
v -0.000973 -0.033402 0.174051
vn -0.971817 -0.218237 0.089129
v -0.011571 -0.017686 0.170049
vn -0.978919 0.201834 0.031315
v -0.013699 0.009186 0.146770
vn -0.907784 0.417469 0.040582
v -0.011739 0.014942 0.148557
vn -0.939229 0.003849 0.343269
v -0.007254 -0.007858 0.209917
vn -0.711210 0.683605 0.163906
v -0.000534 0.022091 0.211434
vn -0.941798 -0.306702 0.137658
v -0.006483 -0.020548 0.200097
vn -0.959907 -0.181819 -0.213357
v -0.017614 -0.015649 0.011729
vn -0.993619 -0.103298 0.045281
v -0.013824 -0.010662 0.148001
vn -0.990283 -0.078173 0.115015
v -0.012329 -0.011611 0.172063
vn -0.990215 0.090116 0.106557
v -0.012711 0.006906 0.168884
vn -0.946195 0.302527 0.114854
v -0.011241 0.013457 0.171102
vn -0.999601 -0.010045 0.026393
v -0.015797 -0.001951 0.110254
vn -0.998731 0.019698 0.046360
v -0.014775 0.000654 0.141062
vn -0.996646 0.077082 0.027482
v -0.015589 0.002956 0.109589
vn -0.987894 0.150100 0.039193
v -0.013969 0.007835 0.146874
vn -0.825594 0.550821 0.122435
v -0.005730 0.021520 0.184425
vn -0.990321 0.016883 0.137763
v -0.011174 -0.004067 0.183548
vn -0.996040 -0.019480 0.086749
v -0.013236 -0.003425 0.166340
# 127 vertices, 0 vertices normals

f 6//6 1//1 65//65
f 9//9 5//5 56//56
f 13//13 65//65 1//1
f 15//15 3//3 4//4
f 17//17 56//56 5//5
f 18//18 1//1 5//5
f 19//19 6//6 3//3
f 31//31 1//1 6//6
f 31//31 6//6 19//19
f 31//31 19//19 3//3
f 24//24 6//6 65//65
f 67//67 24//24 65//65
f 26//26 13//13 1//1
f 26//26 7//7 13//13
f 29//29 8//8 16//16
f 47//47 16//16 8//8
f 47//47 8//8 15//15
f 47//47 15//15 4//4
f 31//31 3//3 17//17
f 32//32 15//15 8//8
f 32//32 8//8 17//17
f 32//32 17//17 3//3
f 32//32 3//3 15//15
f 31//31 17//17 5//5
f 31//31 5//5 1//1
f 74//74 73//73 91//91
f 33//33 4//4 3//3
f 34//34 73//73 3//3
f 34//34 91//91 73//73
f 35//35 18//18 5//5
f 35//35 5//5 9//9
f 36//36 98//98 20//20
f 53//53 20//20 116//116
f 53//53 14//14 26//26
f 37//37 35//35 9//9
f 37//37 18//18 35//35
f 54//54 26//26 1//1
f 54//54 37//37 21//21
f 38//38 21//21 37//37
f 78//78 22//22 2//2
f 40//40 11//11 22//22
f 40//40 22//22 78//78
f 60//60 22//22 11//11
f 60//60 11//11 65//65
f 60//60 2//2 22//22
f 60//60 65//65 13//13
f 60//60 13//13 41//41
f 42//42 116//116 20//20
f 43//43 65//65 11//11
f 43//43 11//11 40//40
f 45//45 3//3 6//6
f 45//45 6//6 24//24
f 14//14 7//7 26//26
f 14//14 28//28 7//7
f 46//46 27//27 13//13
f 46//46 13//13 7//7
f 46//46 7//7 28//28
f 14//14 53//53 116//116
f 56//56 29//29 16//16
f 56//56 16//16 71//71
f 29//29 17//17 8//8
f 48//48 30//30 16//16
f 48//48 16//16 47//47
f 48//48 108//108 30//30
f 10//10 71//71 16//16
f 10//10 16//16 30//30
f 50//50 47//47 4//4
f 50//50 48//48 47//47
f 73//73 33//33 3//3
f 51//51 98//98 36//36
f 51//51 36//36 20//20
f 9//9 56//56 37//37
f 53//53 26//26 54//54
f 53//53 54//54 20//20
f 54//54 1//1 18//18
f 54//54 18//18 37//37
f 56//56 38//38 37//37
f 57//57 39//39 51//51
f 109//109 98//98 51//51
f 59//59 2//2 41//41
f 59//59 41//41 13//13
f 59//59 13//13 27//27
f 59//59 94//94 2//2
f 60//60 41//41 2//2
f 65//65 43//43 67//67
f 66//66 24//24 44//44
f 66//66 12//12 24//24
f 67//67 44//44 24//24
f 67//67 66//66 44//44
f 85//85 61//61 43//43
f 85//85 43//43 40//40
f 68//68 67//67 43//43
f 68//68 43//43 61//61
f 69//69 45//45 24//24
f 69//69 25//25 45//45
f 70//70 24//24 12//12
f 49//49 45//45 25//25
f 49//49 3//3 45//45
f 102//102 27//27 46//46
f 56//56 17//17 29//29
f 71//71 38//38 56//56
f 90//90 55//55 21//21
f 90//90 21//21 38//38
f 90//90 38//38 71//71
f 96//96 23//23 108//108
f 96//96 108//108 48//48
f 72//72 62//62 91//91
f 101//101 91//91 34//34
f 101//101 34//34 3//3
f 77//77 48//48 50//50
f 77//77 50//50 91//91
f 77//77 91//91 62//62
f 74//74 33//33 73//73
f 74//74 4//4 33//33
f 74//74 50//50 4//4
f 75//75 52//52 54//54
f 75//75 54//54 21//21
f 75//75 39//39 57//57
f 75//75 21//21 58//58
f 75//75 58//58 39//39
f 52//52 20//20 54//54
f 52//52 51//51 20//20
f 71//71 10//10 55//55
f 71//71 55//55 90//90
f 55//55 58//58 21//21
f 39//39 109//109 51//51
f 76//76 59//59 27//27
f 76//76 94//94 59//59
f 78//78 23//23 96//96
f 78//78 96//96 40//40
f 78//78 104//104 23//23
f 79//79 77//77 62//62
f 80//80 10//10 30//30
f 82//82 20//20 63//63
f 124//124 46//46 28//28
f 85//85 40//40 96//96
f 86//86 68//68 61//61
f 86//86 67//67 68//68
f 86//86 61//61 84//84
f 86//86 84//84 66//66
f 86//86 66//66 67//67
f 105//105 12//12 66//66
f 106//106 25//25 69//69
f 106//106 69//69 24//24
f 106//106 24//24 70//70
f 105//105 70//70 12//12
f 105//105 106//106 70//70
f 87//87 3//3 49//49
f 88//88 27//27 102//102
f 78//78 2//2 104//104
f 89//89 104//104 2//2
f 89//89 2//2 94//94
f 89//89 94//94 23//23
f 48//48 77//77 96//96
f 91//91 50//50 74//74
f 87//87 72//72 91//91
f 87//87 49//49 72//72
f 51//51 75//75 57//57
f 51//51 52//52 75//75
f 109//109 39//39 58//58
f 109//109 58//58 55//55
f 109//109 55//55 10//10
f 92//92 99//99 115//115
f 92//92 115//115 82//82
f 93//93 23//23 76//76
f 94//94 76//76 23//23
f 95//95 77//77 61//61
f 95//95 85//85 96//96
f 95//95 61//61 85//85
f 95//95 96//96 77//77
f 105//105 61//61 77//77
f 106//106 105//105 79//79
f 79//79 105//105 77//77
f 62//62 106//106 79//79
f 107//107 80//80 30//30
f 42//42 20//20 82//82
f 42//42 82//82 115//115
f 97//97 63//63 20//20
f 98//98 97//97 20//20
f 83//83 64//64 108//108
f 120//120 83//83 108//108
f 102//102 46//46 112//112
f 103//103 76//76 27//27
f 103//103 27//27 88//88
f 103//103 93//93 76//76
f 103//103 88//88 93//93
f 104//104 89//89 23//23
f 101//101 87//87 91//91
f 105//105 66//66 84//84
f 105//105 84//84 61//61
f 62//62 25//25 106//106
f 80//80 81//81 10//10
f 107//107 30//30 108//108
f 108//108 113//113 99//99
f 109//109 10//10 81//81
f 109//109 81//81 98//98
f 81//81 80//80 97//97
f 81//81 97//97 98//98
f 92//92 80//80 107//107
f 115//115 99//99 110//110
f 115//115 110//110 42//42
f 110//110 117//117 116//116
f 110//110 116//116 42//42
f 118//118 99//99 113//113
f 28//28 14//14 121//121
f 111//111 100//100 46//46
f 111//111 46//46 124//124
f 111//111 124//124 100//100
f 112//112 46//46 100//100
f 123//123 28//28 121//121
f 28//28 123//123 124//124
f 113//113 108//108 64//64
f 125//125 120//120 108//108
f 114//114 108//108 23//23
f 114//114 125//125 108//108
f 114//114 23//23 93//93
f 87//87 101//101 3//3
f 88//88 125//125 93//93
f 88//88 102//102 125//125
f 99//99 92//92 107//107
f 25//25 62//62 72//72
f 25//25 72//72 49//49
f 63//63 92//92 82//82
f 97//97 80//80 92//92
f 118//118 110//110 99//99
f 110//110 118//118 117//117
f 127//127 122//122 117//117
f 126//126 113//113 64//64
f 126//126 64//64 119//119
f 120//120 64//64 83//83
f 14//14 116//116 121//121
f 120//120 112//112 100//100
f 122//122 123//123 121//121
f 124//124 123//123 122//122
f 124//124 122//122 119//119
f 120//120 125//125 102//102
f 120//120 102//102 112//112
f 114//114 93//93 125//125
f 107//107 108//108 99//99
f 92//92 63//63 97//97
f 121//121 116//116 117//117
f 113//113 126//126 118//118
f 117//117 118//118 127//127
f 120//120 100//100 119//119
f 119//119 64//64 120//120
f 121//121 117//117 122//122
f 127//127 119//119 122//122
f 124//124 119//119 100//100
f 118//118 126//126 119//119
f 118//118 119//119 127//127
# 250 faces, 0 coords texture

# End of File
