####
#
# OBJ File Generated by Meshlab
#
####
# Object nice_honey_roasted_almonds_250_collision.obj
#
# Vertices: 127
# Faces: 250
#
####
vn 0.838708 -0.433721 -0.329326
v 0.058535 -0.022617 0.011685
vn -0.121550 -0.885630 0.448203
v 0.002371 -0.045018 0.081433
vn 0.090915 0.814267 -0.573327
v 0.020674 0.058708 0.009785
vn 0.028437 -0.995817 -0.086835
v 0.009785 -0.051890 0.011742
vn 0.881639 0.359714 -0.305481
v 0.058708 0.029354 0.011169
vn -0.585152 -0.097410 0.805052
v -0.039256 -0.006497 0.082774
vn -0.750619 0.630303 -0.198214
v -0.035225 0.042942 0.011742
vn 0.516524 0.855290 0.041008
v 0.039139 0.054794 0.014505
vn 0.999014 -0.011679 0.042833
v 0.062622 -0.009785 0.012867
vn -0.209021 0.200943 0.957043
v -0.031651 0.032169 0.082797
vn -0.965556 -0.255942 0.046856
v -0.048923 -0.013699 0.016028
vn -0.201834 -0.979400 0.006160
v -0.005871 -0.050880 0.012096
vn 0.290592 -0.060183 -0.954953
v 0.055379 -0.007391 0.005870
vn 0.537526 0.327221 -0.777169
v 0.051255 0.039251 0.007248
vn 0.982497 0.132558 0.130872
v 0.058744 0.010024 0.078278
vn -0.688934 -0.368885 -0.623934
v -0.034387 -0.035225 0.007828
vn -0.276145 0.937616 -0.211234
v -0.011743 0.058707 0.012355
vn 0.371416 -0.396676 -0.839463
v 0.044175 -0.037182 0.009785
vn 0.318063 -0.867321 -0.382872
v 0.028288 -0.048923 0.011742
vn 0.898615 -0.389099 0.202713
v 0.054746 -0.014699 0.079747
vn 0.181952 0.311507 -0.932661
v 0.038042 0.046967 0.005871
vn 0.136805 0.983810 -0.115767
v 0.021526 0.059222 0.011742
vn 0.058188 0.543760 0.837221
v 0.014079 0.052532 0.082387
vn 0.936799 -0.347705 0.038838
v 0.060665 -0.017612 0.013327
vn 0.975299 -0.144310 0.167233
v 0.057950 -0.003712 0.079626
vn 0.931594 0.243924 -0.269507
v 0.060670 0.023505 0.010812
vn 0.983485 -0.069956 0.166922
v 0.058843 0.002935 0.078278
vn -0.458873 0.429198 -0.777962
v -0.033268 0.040850 0.007828
vn -0.889926 -0.206899 -0.406478
v -0.048959 -0.011431 0.013561
vn -0.069575 0.301112 -0.951047
v -0.006456 0.050880 0.005871
vn 0.561366 -0.542516 -0.624936
v 0.046971 -0.038409 0.012251
vn 0.119587 -0.985696 0.118752
v 0.015656 -0.045290 0.078278
vn 0.341116 -0.526667 -0.778628
v 0.043053 -0.038026 0.009785
vn 0.680926 -0.731512 -0.035076
v 0.050880 -0.036683 0.015656
vn 0.756807 -0.413940 0.505863
v 0.051486 -0.020982 0.080854
vn -0.357987 -0.881995 -0.306482
v -0.012461 -0.048492 0.011234
vn 0.972204 -0.160308 -0.170649
v 0.062622 -0.011822 0.011805
vn 0.211397 -0.176045 -0.961415
v 0.044872 -0.025764 0.005871
vn 0.557231 0.090133 -0.825451
v 0.059653 0.015656 0.007828
vn 0.980248 0.005181 0.197703
v 0.058962 0.005871 0.078278
vn 0.799194 0.586425 -0.131890
v 0.052750 0.041257 0.009820
vn 0.914669 0.386028 0.119842
v 0.054885 0.024730 0.078333
vn 0.452166 0.677814 -0.579754
v 0.041946 0.051548 0.010681
vn -0.065352 0.987071 -0.146356
v 0.000000 0.060665 0.013078
vn 0.584302 0.774307 0.242982
v 0.038040 0.045602 0.078538
vn -0.487890 0.852453 -0.187849
v -0.017076 0.056453 0.012350
vn -0.894209 0.405846 -0.188888
v -0.046971 0.025434 0.014180
vn -0.269639 0.610934 -0.744349
v -0.014369 0.056217 0.010390
vn -0.986833 0.134798 -0.089392
v -0.048926 0.019561 0.014217
vn -0.991454 0.003307 0.130417
v -0.042912 0.005099 0.075891
vn -0.654889 0.139301 -0.742775
v -0.045674 0.019569 0.009785
vn -0.065510 0.669171 -0.740215
v 0.001508 0.058708 0.009785
vn 0.527193 -0.282568 -0.801388
v 0.056938 -0.021913 0.009857
vn 0.005165 -0.977536 0.210706
v 0.007939 -0.045614 0.080416
vn 0.164532 -0.985430 -0.043098
v 0.018582 -0.050880 0.011742
vn 0.411890 -0.895782 0.167095
v 0.026936 -0.042131 0.079319
vn -0.084023 -0.700355 -0.708832
v -0.002185 -0.050855 0.009771
vn 0.162018 -0.307635 -0.937609
v 0.029374 -0.038753 0.005869
vn 0.597738 0.632309 0.492844
v 0.045522 0.038876 0.078874
vn -0.875346 -0.309131 0.371762
v -0.038789 -0.015133 0.079065
vn -0.552799 -0.820660 0.144670
v -0.025507 -0.036010 0.005878
vn 0.833473 -0.543573 -0.099254
v 0.052018 -0.035225 0.015656
vn -0.407902 -0.857254 0.314215
v -0.012240 -0.041271 0.081395
vn 0.648195 -0.073283 -0.757940
v 0.062261 -0.000620 0.009480
vn 0.232098 0.637012 -0.735082
v 0.031311 0.055883 0.009785
vn 0.039725 0.992733 -0.113591
v 0.001957 0.060665 0.013084
vn 0.351190 0.857654 0.375626
v 0.026924 0.051442 0.079800
vn 0.285244 0.930445 -0.230016
v 0.033276 0.056754 0.012068
vn 0.638609 0.716052 0.281867
v 0.042096 0.042077 0.079141
vn -0.083469 0.896586 0.434933
v 0.003982 0.054755 0.080833
vn 0.919143 -0.271601 0.285323
v 0.057065 -0.007725 0.080186
vn -0.538875 0.747681 -0.388055
v -0.027397 0.048923 0.011128
vn -0.886153 0.074033 -0.457440
v -0.048923 0.013699 0.012619
vn -0.292128 0.113711 -0.949595
v -0.037976 0.021526 0.005871
vn -0.322555 0.021911 -0.946297
v -0.040459 0.010537 0.005870
vn -0.628569 -0.087987 -0.772761
v -0.046580 -0.009377 0.009824
vn 0.041779 0.338319 -0.940103
v 0.019279 0.052282 0.005871
vn 0.504219 -0.821112 -0.267465
v 0.045145 -0.040431 0.012931
vn 0.010244 -0.298223 -0.954441
v 0.011864 -0.042451 0.005871
vn 0.108021 -0.746461 -0.656603
v 0.015821 -0.050822 0.009787
vn 0.601074 0.155404 0.783939
v 0.056151 0.020467 0.082731
vn -0.948362 -0.262107 0.178634
v -0.040534 -0.009785 0.078278
vn 0.474262 -0.856408 0.204060
v 0.033884 -0.038539 0.079450
vn 0.750394 -0.591212 0.295597
v 0.048924 -0.024846 0.080235
vn -0.205427 -0.969546 0.133339
v -0.002921 -0.044429 0.078697
vn -0.725856 -0.638522 0.255779
v -0.031311 -0.027367 0.078278
vn 0.968911 0.041144 -0.243965
v 0.062732 0.006624 0.009918
vn 0.213473 0.090967 -0.972705
v 0.050528 0.034672 0.005871
vn 0.127075 0.979900 0.153781
v 0.015522 0.054735 0.081230
vn 0.463689 0.824548 0.324211
v 0.033199 0.048309 0.080643
vn 0.948331 0.308772 0.072990
v 0.056627 0.018846 0.080609
vn 0.228568 0.857963 0.460062
v 0.021248 0.053328 0.080554
vn -0.827310 0.540413 0.153334
v -0.034131 0.032290 0.078278
vn -0.639909 0.309506 -0.703366
v -0.042240 0.027954 0.009718
vn -0.164621 0.236740 -0.957525
v -0.025521 0.042641 0.005871
vn -0.851746 0.089042 0.516333
v -0.041743 0.009240 0.082547
vn -0.927191 -0.000974 -0.374587
v -0.048923 0.001336 0.011742
vn -0.315212 -0.076934 -0.945898
v -0.039753 -0.008654 0.005870
vn -0.215080 -0.428701 0.877471
v -0.010561 -0.040600 0.082812
vn -0.951849 -0.070578 0.298331
v -0.042307 0.000309 0.078516
vn -0.275082 -0.670676 -0.688857
v -0.014656 -0.044947 0.007807
vn -0.644284 -0.698151 -0.312223
v -0.033196 -0.037013 0.007785
vn -0.619029 -0.704506 0.347095
v -0.027002 -0.031799 0.080021
vn 0.441543 -0.501744 0.743836
v 0.038349 -0.035090 0.082786
vn -0.517248 -0.855700 0.015221
v -0.027372 -0.041113 0.010946
vn 0.165185 0.411518 0.896307
v 0.048827 0.034503 0.080356
vn 0.831684 0.466823 0.300628
v 0.051488 0.030424 0.081628
vn 0.021837 0.995602 0.091107
v 0.009785 0.055307 0.078278
vn 0.268546 0.925574 0.266825
v 0.019359 0.054041 0.079279
vn 0.724196 -0.111690 0.680489
v 0.057282 -0.002634 0.082786
vn -0.899985 -0.205149 0.384630
v -0.041251 -0.005662 0.080057
vn -0.944744 0.275950 0.176946
v -0.040694 0.016629 0.079259
vn -0.807790 0.383299 0.447836
v -0.037240 0.025596 0.081795
vn 0.205755 -0.863205 0.461022
v 0.020580 -0.043865 0.082777
vn 0.705425 -0.662315 0.252418
v 0.044441 -0.030375 0.079857
vn -0.248343 -0.906561 0.341280
v -0.007844 -0.042933 0.080865
vn -0.013280 -0.050960 -0.998612
v -0.025480 -0.037933 0.005871
vn -0.532860 -0.742884 0.405196
v -0.019134 -0.037798 0.079094
vn 0.024251 0.899407 0.436439
v 0.008052 0.055145 0.080047
vn -0.200351 0.968339 0.148924
v -0.000438 0.054296 0.079161
vn -0.431797 0.794930 0.426190
v -0.015237 0.049249 0.079667
vn -0.506710 -0.319835 0.800594
v -0.033081 -0.022579 0.082815
vn 0.252179 0.377577 0.890978
v 0.035593 0.045435 0.082824
vn -0.533759 0.714865 0.451740
v -0.025133 0.042371 0.080865
vn -0.246597 0.692545 0.677917
v -0.010072 0.051045 0.082647
vn -0.689897 0.557813 0.461397
v -0.029534 0.037835 0.081338
vn -0.794472 -0.526396 0.302857
v -0.034821 -0.022279 0.080994
# 127 vertices, 0 vertices normals

f 110//110 123//123 104//104
f 99//99 104//104 123//123
f 54//54 12//12 4//4
f 114//114 104//104 99//99
f 20//20 62//62 1//1
f 21//21 43//43 14//14
f 24//24 20//20 1//1
f 26//26 5//5 42//42
f 125//125 10//10 123//123
f 96//96 6//6 10//10
f 122//122 99//99 123//123
f 122//122 123//123 10//10
f 50//50 96//96 49//49
f 33//33 19//19 58//58
f 81//81 123//123 110//110
f 102//102 11//11 16//16
f 34//34 62//62 84//84
f 37//37 24//24 1//1
f 37//37 71//71 24//24
f 64//64 13//13 39//39
f 14//14 41//41 5//5
f 41//41 8//8 59//59
f 42//42 5//5 41//41
f 68//68 3//3 22//22
f 43//43 41//41 14//14
f 88//88 14//14 39//39
f 120//120 44//44 17//17
f 87//87 26//26 15//15
f 87//87 15//15 40//40
f 25//25 71//71 37//37
f 123//123 23//23 125//125
f 122//122 10//10 6//6
f 48//48 95//95 28//28
f 112//112 49//49 96//96
f 49//49 11//11 50//50
f 50//50 11//11 100//100
f 51//51 49//49 47//47
f 52//52 44//44 3//3
f 52//52 17//17 44//44
f 77//77 52//52 3//3
f 77//77 30//30 52//52
f 53//53 31//31 18//18
f 53//53 18//18 38//38
f 1//1 31//31 53//53
f 54//54 4//4 32//32
f 55//55 32//32 4//4
f 55//55 80//80 19//19
f 55//55 4//4 80//80
f 55//55 114//114 32//32
f 55//55 19//19 114//114
f 56//56 19//19 78//78
f 31//31 33//33 18//18
f 57//57 4//4 12//12
f 57//57 12//12 36//36
f 58//58 18//18 33//33
f 99//99 2//2 114//114
f 127//127 11//11 102//102
f 61//61 102//102 16//16
f 61//61 16//16 117//117
f 83//83 78//78 34//34
f 115//115 34//34 84//84
f 31//31 62//62 34//34
f 31//31 1//1 62//62
f 104//104 34//34 115//115
f 62//62 35//35 84//84
f 20//20 35//35 62//62
f 56//56 114//114 19//19
f 36//36 101//101 57//57
f 63//63 36//36 12//12
f 53//53 37//37 1//1
f 53//53 64//64 37//37
f 26//26 14//14 5//5
f 37//37 9//9 40//40
f 64//64 39//39 87//87
f 13//13 64//64 53//53
f 107//107 42//42 41//41
f 65//65 3//3 68//68
f 65//65 43//43 21//21
f 65//65 68//68 43//43
f 66//66 22//22 3//3
f 66//66 3//3 44//44
f 68//68 109//109 8//8
f 68//68 8//8 43//43
f 20//20 24//24 71//71
f 91//91 26//26 42//42
f 87//87 9//9 37//37
f 87//87 40//40 9//9
f 87//87 37//37 64//64
f 71//71 25//25 110//110
f 25//25 37//37 27//27
f 94//94 51//51 47//47
f 72//72 48//48 28//28
f 72//72 28//28 7//7
f 72//72 124//124 46//46
f 72//72 7//7 124//124
f 48//48 52//52 30//30
f 48//48 17//17 52//52
f 73//73 49//49 51//51
f 74//74 51//51 94//94
f 74//74 28//28 95//95
f 29//29 76//76 16//16
f 29//29 16//16 11//11
f 98//98 16//16 76//76
f 77//77 65//65 21//21
f 77//77 3//3 65//65
f 78//78 19//19 33//33
f 78//78 33//33 31//31
f 58//58 19//19 80//80
f 58//58 80//80 79//79
f 80//80 4//4 57//57
f 80//80 57//57 79//79
f 115//115 84//84 104//104
f 107//107 41//41 106//106
f 54//54 114//114 2//2
f 82//82 111//111 11//11
f 82//82 11//11 60//60
f 127//127 60//60 11//11
f 102//102 61//61 101//101
f 102//102 101//101 36//36
f 102//102 105//105 103//103
f 56//56 78//78 83//83
f 78//78 31//31 34//34
f 104//104 84//84 35//35
f 114//114 56//56 83//83
f 116//116 63//63 12//12
f 116//116 12//12 85//85
f 85//85 12//12 2//2
f 54//54 2//2 12//12
f 87//87 39//39 26//26
f 14//14 26//26 39//39
f 27//27 37//37 40//40
f 13//13 53//53 38//38
f 107//107 91//91 42//42
f 41//41 43//43 8//8
f 88//88 21//21 14//14
f 88//88 39//39 13//13
f 89//89 22//22 66//66
f 92//92 67//67 8//8
f 92//92 8//8 109//109
f 89//89 68//68 22//22
f 89//89 109//109 68//68
f 69//69 59//59 8//8
f 45//45 69//69 8//8
f 90//90 45//45 8//8
f 90//90 8//8 67//67
f 70//70 44//44 120//120
f 91//91 15//15 26//26
f 81//81 15//15 91//91
f 81//81 110//110 40//40
f 81//81 40//40 15//15
f 92//92 23//23 123//123
f 10//10 113//113 96//96
f 126//126 124//124 7//7
f 94//94 47//47 7//7
f 94//94 7//7 28//28
f 46//46 48//48 72//72
f 46//46 17//17 48//48
f 112//112 47//47 49//49
f 97//97 49//49 73//73
f 97//97 73//73 51//51
f 97//97 76//76 29//29
f 97//97 29//29 11//11
f 97//97 11//11 49//49
f 75//75 51//51 74//74
f 94//94 28//28 74//74
f 98//98 117//117 16//16
f 98//98 76//76 75//75
f 76//76 51//51 75//75
f 76//76 97//97 51//51
f 54//54 32//32 114//114
f 38//38 18//18 58//58
f 35//35 110//110 104//104
f 35//35 71//71 110//110
f 106//106 81//81 107//107
f 106//106 59//59 81//81
f 59//59 106//106 41//41
f 100//100 11//11 111//111
f 104//104 83//83 34//34
f 104//104 114//114 83//83
f 105//105 36//36 63//63
f 105//105 102//102 36//36
f 127//127 102//102 86//86
f 110//110 27//27 40//40
f 110//110 25//25 27//27
f 108//108 66//66 44//44
f 119//119 109//109 89//89
f 125//125 70//70 120//120
f 123//123 67//67 92//92
f 124//124 126//126 10//10
f 113//113 10//10 126//126
f 6//6 96//96 100//100
f 111//111 82//82 60//60
f 93//93 126//126 7//7
f 93//93 7//7 47//47
f 113//113 126//126 93//93
f 46//46 121//121 17//17
f 95//95 48//48 30//30
f 113//113 47//47 112//112
f 113//113 112//112 96//96
f 59//59 123//123 81//81
f 59//59 69//69 123//123
f 111//111 6//6 100//100
f 117//117 57//57 101//101
f 117//117 79//79 57//57
f 117//117 101//101 61//61
f 117//117 98//98 75//75
f 117//117 75//75 74//74
f 117//117 74//74 95//95
f 117//117 95//95 30//30
f 117//117 30//30 77//77
f 117//117 77//77 21//21
f 117//117 21//21 88//88
f 117//117 88//88 13//13
f 117//117 13//13 38//38
f 117//117 38//38 58//58
f 117//117 58//58 79//79
f 103//103 86//86 102//102
f 71//71 35//35 20//20
f 103//103 105//105 118//118
f 118//118 105//105 63//63
f 118//118 63//63 99//99
f 122//122 60//60 127//127
f 127//127 86//86 122//122
f 107//107 81//81 91//91
f 89//89 66//66 108//108
f 119//119 108//108 44//44
f 119//119 44//44 70//70
f 119//119 89//89 108//108
f 119//119 70//70 23//23
f 119//119 23//23 92//92
f 119//119 92//92 109//109
f 123//123 45//45 90//90
f 100//100 96//96 50//50
f 121//121 46//46 124//124
f 125//125 17//17 121//121
f 113//113 93//93 47//47
f 116//116 2//2 99//99
f 99//99 122//122 103//103
f 99//99 63//63 116//116
f 118//118 99//99 103//103
f 122//122 86//86 103//103
f 125//125 121//121 10//10
f 125//125 120//120 17//17
f 123//123 90//90 67//67
f 69//69 45//45 123//123
f 60//60 122//122 111//111
f 2//2 116//116 85//85
f 6//6 111//111 122//122
f 70//70 125//125 23//23
f 124//124 10//10 121//121
# 250 faces, 0 coords texture

# End of File
