####
#
# OBJ File Generated by Meshlab
#
####
# Object canon_ack_e10_box_250_collision.obj
#
# Vertices: 127
# Faces: 250
#
####
vn -0.393027 0.916042 -0.079974
v -0.005871 0.050880 0.012345
vn 0.648503 -0.737941 -0.186782
v 0.015655 -0.050882 0.013823
vn 0.387420 0.059793 -0.919962
v 0.043682 0.019569 0.005871
vn 0.533398 0.845181 -0.033985
v 0.048923 0.027397 0.014692
vn -0.920942 0.372135 -0.115675
v -0.035225 0.001957 0.016295
vn -0.502126 0.293311 -0.813534
v -0.010950 0.039139 0.005871
vn -0.199782 -0.586421 -0.784982
v -0.000850 -0.046967 0.005871
vn 0.815059 -0.232288 -0.530774
v 0.048923 0.017122 0.009785
vn 0.312407 0.936682 -0.158208
v 0.003914 0.048923 0.007855
vn -0.993146 0.094476 0.068820
v -0.032341 -0.021526 0.170254
vn 0.852026 -0.522059 0.038805
v 0.017531 -0.043053 0.170254
vn -0.753374 0.649482 -0.102962
v -0.007828 0.048923 0.010096
vn 0.497999 -0.328997 -0.802345
v 0.017504 -0.040445 0.005870
vn -0.317787 -0.936358 -0.149145
v 0.005871 -0.053376 0.013699
vn 0.206985 0.972949 0.102598
v 0.007828 0.041363 0.172211
vn 0.995647 0.013772 0.092179
v 0.046392 0.017612 0.170254
vn -0.989142 0.144844 0.024869
v -0.041096 -0.024824 0.011742
vn -0.941282 0.293223 0.167360
v -0.031294 -0.018108 0.174520
vn 0.410828 -0.906985 0.092724
v 0.013713 -0.047290 0.170037
vn -0.424198 0.675789 -0.602798
v -0.007828 0.048766 0.009785
vn -0.740696 0.655957 0.145225
v -0.003914 0.038624 0.172211
vn -0.832882 0.549804 0.063430
v -0.005849 0.036488 0.168536
vn -0.190575 -0.125984 -0.973555
v -0.036214 -0.025450 0.005871
vn 0.299402 -0.114826 -0.947192
v 0.041096 0.010980 0.005871
vn -0.505368 -0.813078 -0.288977
v -0.038342 -0.029354 0.011742
vn 0.964023 -0.265508 -0.012836
v 0.050880 0.021010 0.015656
vn 0.871518 -0.489191 0.033875
v 0.017612 -0.042919 0.170254
vn 0.885826 0.449964 -0.113331
v 0.050880 0.025440 0.014102
vn 0.428329 0.903294 0.024380
v 0.039139 0.028151 0.160469
vn 0.698002 0.712648 0.070187
v 0.043537 0.025440 0.168297
vn 0.379335 0.922526 0.071061
v 0.014371 0.039139 0.170254
vn -0.999486 0.016770 0.027326
v -0.041096 -0.025440 0.012873
vn -0.790932 0.142620 -0.595051
v -0.039139 -0.019863 0.007828
vn -0.573029 0.285305 0.768270
v -0.003914 0.029354 0.181335
vn -0.832251 0.509167 0.219335
v -0.006280 0.035285 0.172457
vn -0.903235 0.416685 0.102661
v -0.029692 -0.013945 0.172186
vn 0.702968 -0.710524 0.031502
v 0.015656 -0.045856 0.166340
vn 0.280602 -0.958493 -0.050539
v 0.011742 -0.052837 0.015009
vn -0.616486 0.779224 0.112940
v -0.003338 0.039139 0.172211
vn 0.114631 -0.521060 -0.845788
v 0.007313 -0.046749 0.005871
vn -0.587603 -0.808646 -0.028542
v -0.039139 -0.029354 0.014043
vn 0.910978 -0.411294 0.030919
v 0.044976 0.011742 0.170254
vn 0.927005 0.372102 0.046919
v 0.045149 0.023483 0.168297
vn 0.428977 0.902950 0.025697
v 0.039710 0.027694 0.167318
vn 0.588051 0.807210 0.051070
v 0.043053 0.025827 0.168297
vn 0.298851 0.951936 0.067129
v 0.008783 0.041096 0.172211
vn 0.446999 0.486615 -0.750598
v 0.039139 0.031390 0.005871
vn 0.328136 0.044242 0.943594
v 0.041090 0.016278 0.181529
vn -0.949546 -0.024310 -0.312685
v -0.041096 -0.025080 0.009785
vn -0.621013 0.203387 -0.756952
v -0.035237 -0.010483 0.005871
vn -0.928592 -0.363159 0.076374
v -0.031927 -0.025440 0.168335
vn 0.084684 -0.991802 0.095694
v 0.007828 -0.048646 0.170254
vn -0.334168 -0.798173 0.501251
v -0.009781 -0.039855 0.176803
vn -0.709885 0.274140 0.648777
v -0.027522 -0.015656 0.180038
vn -0.262273 0.947789 0.181406
v 0.002095 0.041419 0.172976
vn -0.486821 0.682034 0.545743
v -0.000530 0.038682 0.179328
vn 0.631853 -0.774011 0.040866
v 0.014446 -0.046967 0.166340
vn 0.713503 -0.690722 0.117548
v 0.016347 -0.044902 0.171173
vn 0.448518 -0.893739 0.007867
v 0.013699 -0.051900 0.015656
vn -0.198366 0.273673 -0.941145
v -0.007796 0.043030 0.005871
vn 0.008115 0.426085 -0.904647
v 0.004972 0.046882 0.005871
vn 0.141967 -0.921719 -0.360943
v 0.007961 -0.053288 0.013546
vn -0.456969 -0.716639 -0.526885
v -0.031095 -0.031820 0.007728
vn 0.000000 0.962651 -0.270746
v 0.024543 -0.029509 0.170254
vn 0.815455 0.576820 0.048082
v 0.045010 0.023726 0.168297
vn 0.899744 0.101985 -0.424335
v 0.050938 0.023304 0.013233
vn 0.551785 0.825193 0.120789
v 0.040960 0.026920 0.173179
vn 0.344931 0.936492 0.063282
v 0.009785 0.040864 0.170254
vn 0.409719 0.901732 0.137873
v 0.027261 0.033362 0.172739
vn 0.103266 0.345492 0.932722
v 0.007082 0.035133 0.183011
vn 0.986204 -0.159954 0.042616
v 0.046299 0.015656 0.168297
vn 0.799695 -0.561338 0.213045
v 0.017355 -0.042787 0.174942
vn -0.974523 0.216347 0.059148
v -0.031941 -0.019570 0.170260
vn -0.931926 0.007774 0.362565
v -0.031823 -0.023408 0.177301
vn -0.438835 -0.897860 0.035668
v -0.001957 -0.045115 0.168297
vn -0.237258 -0.935041 0.263453
v 0.005868 -0.048327 0.171373
vn 0.208603 -0.976636 0.051648
v 0.009785 -0.048510 0.166340
vn -0.444364 -0.734895 0.512318
v -0.022945 -0.031687 0.179997
vn -0.503486 0.203843 0.839613
v -0.025440 -0.015656 0.181731
vn -0.702092 0.381945 0.600987
v -0.005206 0.031311 0.179338
vn -0.020217 0.980784 0.194047
v 0.004091 0.041738 0.173653
vn 0.612698 -0.312656 0.725843
v 0.027552 -0.015981 0.180165
vn -0.878992 0.399312 0.260622
v -0.029299 -0.014371 0.176249
vn -0.684566 -0.727019 0.053035
v -0.028043 -0.031311 0.170254
vn 0.822247 0.552571 0.136294
v 0.045024 0.023507 0.170254
vn 0.237200 0.275691 0.931521
v 0.035431 0.023521 0.181825
vn 0.356098 0.932174 0.065162
v 0.013699 0.039401 0.170254
vn -0.272218 0.123752 0.954245
v -0.021526 -0.010763 0.182419
vn 0.060957 -0.019210 0.997956
v 0.025142 -0.006260 0.182323
vn 0.888050 -0.447883 0.103772
v 0.023729 -0.031069 0.172516
vn -0.428106 -0.903267 0.028892
v 0.001957 -0.047140 0.164383
vn -0.610980 -0.770188 0.183066
v -0.026962 -0.031975 0.173847
vn 0.259376 -0.964846 0.042384
v 0.011742 -0.048027 0.166340
vn -0.604948 0.327034 0.726007
v -0.003914 0.031311 0.180585
vn -0.821173 0.329736 0.465778
v -0.029189 -0.015656 0.177747
vn -0.566051 0.790349 0.234382
v -0.001911 0.039841 0.174293
vn 0.075319 0.981548 -0.175757
v -0.003466 0.050888 0.011753
vn 0.823142 -0.391485 0.411312
v 0.042283 0.009289 0.178044
vn 0.206708 -0.220782 0.953167
v 0.012831 -0.039094 0.181899
vn -0.785202 0.438845 0.436890
v -0.006079 0.032131 0.177592
vn -0.725678 -0.686514 0.045714
v -0.029354 -0.030179 0.167318
vn 0.890804 -0.442089 -0.104999
v 0.033741 -0.017612 0.015656
vn 0.263428 0.910082 0.319931
v 0.010012 0.040167 0.176413
vn -0.012717 -0.006929 0.999895
v -0.008179 -0.017523 0.183281
vn 0.946657 0.271203 0.174040
v 0.045546 0.020952 0.172810
vn 0.928779 -0.369990 0.021840
v 0.045010 0.011823 0.170254
vn 0.945666 -0.298380 0.129173
v 0.045594 0.013567 0.173609
vn -0.861776 -0.479895 -0.164446
v -0.041096 -0.027397 0.011824
vn -0.438926 -0.898151 0.025846
v 0.000000 -0.046184 0.164383
vn -0.388658 -0.913377 0.121192
v 0.003880 -0.047800 0.170757
vn -0.455724 -0.879814 0.135070
v -0.022399 -0.034818 0.172001
vn -0.612247 0.279169 0.739742
v -0.027397 -0.015656 0.180144
vn -0.090209 0.040475 0.995100
v -0.009662 0.008011 0.182894
vn -0.202044 0.417263 0.886042
v 0.001493 0.036279 0.182431
vn 0.490503 -0.250528 0.834651
v 0.027153 -0.013699 0.181246
vn 0.803830 -0.053501 0.592448
v 0.044288 0.016575 0.179849
vn 0.627760 -0.431385 0.647939
v 0.017020 -0.040996 0.178180
vn -0.237118 0.078278 0.968322
v -0.023850 -0.016920 0.182425
vn -0.790140 -0.527134 0.312744
v -0.030498 -0.026543 0.177619
vn -0.627565 0.220349 0.746732
v -0.027397 -0.017612 0.180830
vn -0.515230 0.285170 0.808218
v -0.001975 0.031345 0.182019
vn -0.620381 0.159680 0.767873
v -0.028317 -0.020536 0.180745
vn -0.391382 -0.240936 0.888127
v -0.027547 -0.025704 0.182539
vn 0.561733 0.635457 0.529764
v 0.041765 0.024984 0.177403
vn -0.797529 -0.596546 0.089891
v -0.029811 -0.029392 0.171318
vn 0.300305 -0.815907 0.494078
v 0.010332 -0.046289 0.178840
vn -0.193660 -0.647528 0.737023
v 0.005535 -0.043470 0.180806
# 127 vertices, 0 vertices normals

f 66//66 8//8 3//3
f 20//20 6//6 5//5
f 20//20 5//5 12//12
f 20//20 12//12 1//1
f 21//21 1//1 12//12
f 22//22 12//12 5//5
f 22//22 5//5 35//35
f 50//50 5//5 6//6
f 24//24 3//3 8//8
f 26//26 102//102 8//8
f 26//26 8//8 66//66
f 27//27 11//11 2//2
f 27//27 2//2 102//102
f 13//13 8//8 102//102
f 13//13 24//24 8//8
f 29//29 44//44 4//4
f 29//29 4//4 9//9
f 30//30 28//28 4//4
f 97//97 20//20 1//1
f 97//97 9//9 20//20
f 47//47 66//66 3//3
f 47//47 28//28 66//66
f 47//47 9//9 4//4
f 73//73 17//17 10//10
f 73//73 5//5 17//17
f 73//73 18//18 5//5
f 32//32 108//108 10//10
f 32//32 10//10 17//17
f 33//33 5//5 50//50
f 35//35 5//5 36//36
f 35//35 36//36 83//83
f 39//39 96//96 1//1
f 39//39 1//1 21//21
f 22//22 21//21 12//12
f 40//40 14//14 7//7
f 62//62 2//2 38//38
f 63//63 7//7 14//14
f 63//63 14//14 25//25
f 63//63 25//25 108//108
f 63//63 108//108 23//23
f 41//41 108//108 25//25
f 41//41 25//25 14//14
f 42//42 102//102 26//26
f 2//2 13//13 102//102
f 2//2 40//40 13//13
f 2//2 62//62 40//40
f 66//66 16//16 26//26
f 44//44 29//29 9//9
f 45//45 30//30 4//4
f 46//46 97//97 15//15
f 46//46 9//9 97//97
f 47//47 4//4 28//28
f 61//61 9//9 47//47
f 49//49 17//17 5//5
f 49//49 5//5 33//33
f 49//49 33//33 23//23
f 49//49 23//23 108//108
f 49//49 32//32 17//17
f 49//49 108//108 32//32
f 50//50 23//23 33//33
f 55//55 1//1 96//96
f 81//81 1//1 55//55
f 57//57 19//19 2//2
f 57//57 2//2 37//37
f 58//58 37//37 2//2
f 58//58 2//2 11//11
f 59//59 38//38 2//2
f 59//59 2//2 19//19
f 59//59 19//19 38//38
f 60//60 6//6 20//20
f 61//61 60//60 20//20
f 62//62 52//52 14//14
f 62//62 38//38 52//52
f 62//62 14//14 40//40
f 101//101 125//125 108//108
f 101//101 108//108 41//41
f 72//72 11//11 27//27
f 105//105 43//43 85//85
f 105//105 16//16 28//28
f 105//105 28//28 43//43
f 65//65 85//85 43//43
f 65//65 43//43 28//28
f 65//65 28//28 30//30
f 66//66 28//28 16//16
f 67//67 45//45 4//4
f 67//67 4//4 44//44
f 68//68 9//9 46//46
f 69//69 44//44 9//9
f 69//69 9//9 31//31
f 67//67 30//30 45//45
f 116//116 107//107 16//16
f 71//71 26//26 16//16
f 71//71 16//16 107//107
f 73//73 10//10 18//18
f 74//74 10//10 108//108
f 74//74 108//108 51//51
f 75//75 111//111 14//14
f 111//111 41//41 14//14
f 76//76 110//110 14//14
f 76//76 14//14 52//52
f 76//76 52//52 126//126
f 77//77 52//52 38//38
f 18//18 83//83 36//36
f 18//18 36//36 5//5
f 97//97 1//1 81//81
f 115//115 48//48 99//99
f 61//61 20//20 9//9
f 100//100 35//35 83//83
f 35//35 21//21 22//22
f 96//96 39//39 21//21
f 96//96 21//21 35//35
f 84//84 101//101 41//41
f 90//90 72//72 27//27
f 90//90 102//102 42//42
f 72//72 58//58 11//11
f 85//85 65//65 30//30
f 85//85 30//30 67//67
f 85//85 67//67 124//124
f 103//103 68//68 46//46
f 87//87 31//31 9//9
f 87//87 9//9 68//68
f 87//87 68//68 103//103
f 69//69 67//67 44//44
f 103//103 69//69 31//31
f 119//119 74//74 51//51
f 107//107 90//90 42//42
f 107//107 26//26 71//71
f 90//90 98//98 72//72
f 74//74 18//18 10//10
f 91//91 14//14 110//110
f 92//92 41//41 111//111
f 93//93 77//77 38//38
f 93//93 38//38 19//19
f 111//111 75//75 110//110
f 94//94 79//79 34//34
f 94//94 80//80 54//54
f 80//80 95//95 54//54
f 80//80 100//100 95//95
f 83//83 95//95 100//100
f 113//113 88//88 118//118
f 97//97 81//81 15//15
f 58//58 57//57 37//37
f 58//58 19//19 57//57
f 82//82 116//116 115//115
f 82//82 98//98 116//116
f 117//117 115//115 99//99
f 117//117 82//82 115//115
f 100//100 80//80 56//56
f 35//35 56//56 96//96
f 23//23 7//7 63//63
f 23//23 40//40 7//7
f 23//23 13//13 40//40
f 23//23 50//50 6//6
f 23//23 6//6 60//60
f 23//23 24//24 13//13
f 23//23 60//60 61//61
f 23//23 3//3 24//24
f 23//23 47//47 3//3
f 23//23 61//61 47//47
f 92//92 84//84 41//41
f 102//102 90//90 27//27
f 102//102 64//64 90//90
f 64//64 102//102 90//90
f 105//105 116//116 16//16
f 105//105 85//85 124//124
f 103//103 46//46 15//15
f 70//70 86//86 124//124
f 67//67 69//69 124//124
f 103//103 31//31 87//87
f 88//88 114//114 121//121
f 88//88 121//121 79//79
f 105//105 124//124 116//116
f 103//103 70//70 124//124
f 107//107 116//116 98//98
f 106//106 107//107 42//42
f 106//106 42//42 26//26
f 106//106 26//26 107//107
f 107//107 98//98 90//90
f 108//108 125//125 51//51
f 119//119 51//51 125//125
f 109//109 91//91 75//75
f 109//109 75//75 14//14
f 109//109 14//14 91//91
f 110//110 53//53 111//111
f 76//76 53//53 110//110
f 112//112 94//94 54//54
f 112//112 79//79 94//94
f 56//56 80//80 94//94
f 121//121 34//34 79//79
f 121//121 94//94 34//34
f 121//121 56//56 94//94
f 74//74 54//54 95//95
f 74//74 122//122 54//54
f 18//18 74//74 95//95
f 18//18 95//95 83//83
f 118//118 79//79 122//122
f 118//118 88//88 79//79
f 122//122 123//123 118//118
f 118//118 104//104 113//113
f 114//114 88//88 113//113
f 56//56 55//55 96//96
f 126//126 19//19 58//58
f 82//82 117//117 98//98
f 116//116 48//48 115//115
f 86//86 89//89 48//48
f 116//116 124//124 48//48
f 19//19 77//77 93//93
f 19//19 126//126 52//52
f 19//19 52//52 77//77
f 72//72 126//126 58//58
f 117//117 126//126 72//72
f 35//35 100//100 56//56
f 72//72 98//98 117//117
f 103//103 15//15 81//81
f 69//69 103//103 124//124
f 104//104 70//70 113//113
f 125//125 101//101 84//84
f 125//125 84//84 92//92
f 123//123 74//74 119//119
f 103//103 56//56 114//114
f 70//70 104//104 89//89
f 70//70 89//89 86//86
f 110//110 75//75 91//91
f 78//78 111//111 53//53
f 78//78 92//92 111//111
f 120//120 122//122 79//79
f 120//120 79//79 112//112
f 120//120 112//112 54//54
f 120//120 54//54 122//122
f 121//121 114//114 56//56
f 122//122 74//74 123//123
f 78//78 123//123 119//119
f 126//126 99//99 127//127
f 126//126 117//117 99//99
f 81//81 56//56 103//103
f 99//99 89//89 104//104
f 125//125 92//92 119//119
f 70//70 103//103 114//114
f 124//124 86//86 48//48
f 127//127 53//53 76//76
f 78//78 119//119 92//92
f 53//53 127//127 123//123
f 70//70 114//114 113//113
f 123//123 104//104 118//118
f 123//123 99//99 104//104
f 99//99 48//48 89//89
f 56//56 81//81 55//55
f 78//78 53//53 123//123
f 123//123 127//127 99//99
f 127//127 76//76 126//126
# 250 faces, 0 coords texture

# End of File
