####
#
# OBJ File Generated by Meshlab
#
####
# Object canon_ack_e10_box_250_collision.obj
#
# Vertices: 124
# Faces: 244
#
####
vn -5.668602 0.022819 -1.109206
v -0.037059 -0.019569 0.009785
vn 5.446668 -0.258023 1.282927
v 0.046541 0.016320 0.174394
vn 3.094548 1.645213 -2.705037
v 0.043046 0.027494 0.008029
vn 2.440921 -5.420131 -1.008456
v 0.011742 -0.047039 0.013699
vn -3.124352 4.016366 2.216858
v -0.002503 0.039265 0.177079
vn 5.766653 -2.429433 -0.327372
v 0.042538 0.011742 0.013699
vn -0.364897 -3.058534 -3.040004
v 0.003395 -0.047316 0.007820
vn 3.260952 4.715563 1.534410
v 0.041081 0.026909 0.173812
vn -2.050830 2.274933 -2.662465
v -0.007884 0.043146 0.007849
vn 2.714486 -1.765931 -3.395451
v 0.017243 -0.040194 0.007831
vn 6.027286 -0.782717 -0.445636
v 0.045307 0.019571 0.011670
vn -3.307830 -4.143638 2.264318
v -0.026549 -0.031705 0.176419
vn 2.518539 1.347926 4.141293
v 0.041266 0.020678 0.181577
vn 4.760168 2.778609 1.258372
v 0.045091 0.023532 0.172751
vn -5.517265 0.431943 1.176019
v -0.032814 -0.020661 0.173075
vn -2.073919 -2.251779 -3.651347
v -0.031311 -0.029354 0.007430
vn 1.280514 5.987616 -0.283473
v 0.003927 0.046971 0.011742
vn 5.527061 -2.722225 -0.830388
v 0.021699 -0.033268 0.011742
vn 1.979115 -2.436354 -3.385895
v 0.014662 -0.043429 0.007856
vn 4.188684 -4.371143 0.225835
v 0.014446 -0.046967 0.166340
vn 3.219152 -0.662737 -3.326020
v 0.044248 0.017612 0.007828
vn 6.022766 -1.710653 -0.080014
v 0.046116 0.015656 0.148727
vn 0.016864 2.730472 4.170588
v 0.004779 0.037918 0.182780
vn 4.131494 4.621231 0.114074
v 0.043413 0.025719 0.163267
vn 5.740901 0.864425 -1.319202
v 0.045135 0.021532 0.010305
vn -5.537615 2.921078 -0.052662
v -0.011742 0.037201 0.011742
vn -5.385916 -3.204388 0.159369
v -0.031311 -0.027990 0.158512
vn -3.116267 0.760104 -3.287529
v -0.036258 -0.017856 0.007827
vn 0.950183 -0.456640 -6.094344
v 0.029354 -0.011742 0.007338
vn -2.843061 -5.559968 -0.428759
v -0.024168 -0.035222 0.013699
vn 2.908617 5.503597 -0.341085
v 0.036579 0.032690 0.012925
vn -0.025777 3.054751 -2.846427
v 0.001926 0.046963 0.007790
vn 5.476218 -3.056126 0.075795
v 0.021734 -0.035236 0.167272
vn 5.273708 -3.329742 -0.372555
v 0.017566 -0.041014 0.013699
vn -0.040931 -5.984138 0.540912
v 0.007874 -0.048850 0.167404
vn 5.744907 -2.305003 -0.797927
v 0.043840 0.015656 0.009785
vn 5.723740 -2.467703 0.324507
v 0.044995 0.011778 0.170379
vn 2.712200 4.375294 3.250762
v 0.038763 0.026249 0.177614
vn 1.586261 5.564049 1.489698
v 0.007976 0.041272 0.175084
vn -1.049451 -1.668555 5.472592
v -0.021580 -0.027152 0.182961
vn -2.798349 0.643505 4.939013
v -0.027273 -0.020208 0.182030
vn 5.506494 2.666383 0.053275
v 0.045227 0.023483 0.162426
vn 6.190721 0.947051 0.008260
v 0.046251 0.019569 0.150684
vn -5.775917 2.329326 -0.320732
v -0.035279 -0.013691 0.013014
vn -5.401580 3.057639 0.549565
v -0.006192 0.035741 0.171505
vn -5.967961 -1.603098 -0.043652
v -0.036681 -0.023356 0.017301
vn -4.703258 -3.736644 0.699899
v -0.029672 -0.030020 0.170246
vn -3.217586 -1.313791 -3.304585
v -0.035225 -0.024696 0.007828
vn -5.391540 2.553072 -1.432178
v -0.012608 0.035225 0.009785
vn -1.514969 -2.699253 -3.547591
v -0.025617 -0.033402 0.007394
vn 1.892340 -0.827202 -5.501085
v 0.041096 0.011742 0.007502
vn 2.430894 5.756348 -0.277496
v 0.013266 0.043468 0.013588
vn 2.041980 2.426648 -2.853267
v 0.041167 0.029601 0.007841
vn 3.099256 5.437064 0.111028
v 0.041244 0.027370 0.153649
vn -2.557212 5.666612 -0.135142
v -0.003914 0.045678 0.013699
vn 1.297179 2.842076 -3.518997
v 0.021395 0.038941 0.007600
vn 4.196649 -2.939117 2.571650
v 0.016323 -0.042646 0.178080
vn 4.191996 -4.394598 -0.599148
v 0.014705 -0.045009 0.013702
vn 1.086135 -5.951567 -0.877269
v 0.007828 -0.048161 0.013699
vn -2.300075 -5.793428 -0.410072
v 0.000429 -0.046967 0.013699
vn -2.556867 -5.703577 0.377449
v 0.000033 -0.046175 0.168423
vn -0.605928 5.263469 1.776842
v 0.003071 0.041644 0.176867
vn -0.107690 0.070158 6.272289
v -0.002141 0.009012 0.183189
vn -2.240726 2.011318 4.918501
v 0.000649 0.035821 0.182292
vn -5.142592 1.704836 2.616594
v -0.030114 -0.017161 0.177560
vn -3.191937 -1.447458 3.465636
v -0.028708 -0.025647 0.181368
vn 6.266703 0.019091 -0.044473
v 0.046398 0.017486 0.149479
vn 6.050526 1.663353 -0.016853
v 0.045807 0.021526 0.148727
vn -6.056969 1.604239 0.119859
v -0.036535 -0.017647 0.015564
vn -5.705956 2.624826 0.055977
v -0.033487 -0.009785 0.013699
vn -5.680211 2.676783 0.215236
v -0.019579 0.012094 0.119452
vn -4.425686 3.614773 1.344800
v -0.004291 0.038163 0.175160
vn -5.237597 3.256297 -0.530686
v -0.009763 0.040614 0.009807
vn -5.737287 -2.044881 0.778816
v -0.032054 -0.025376 0.170238
vn -6.255998 -0.428248 0.060871
v -0.036890 -0.021526 0.015656
vn -5.019847 -3.221070 -0.842663
v -0.034781 -0.027342 0.011650
vn -3.246796 -5.253188 0.560003
v -0.025290 -0.033410 0.171480
vn -3.357473 -5.167095 -0.605366
v -0.028427 -0.032919 0.012694
vn 2.026131 5.940783 0.159848
v 0.009828 0.041168 0.158640
vn 3.531434 5.190936 0.025440
v 0.038730 0.031311 0.013699
vn -1.175162 5.980061 -0.409186
v -0.000004 0.047024 0.011600
vn 1.183984 2.900804 -3.466986
v 0.011707 0.043358 0.007677
vn 4.462750 -0.842435 3.040937
v 0.044864 0.014764 0.178228
vn 5.407745 -2.917429 0.897453
v 0.021770 -0.034810 0.173448
vn 1.284744 -2.315856 4.602950
v 0.011923 -0.042950 0.181583
vn 3.105734 -4.369082 1.564869
v 0.014414 -0.045811 0.176228
vn 1.752944 -6.030029 0.060207
v 0.011742 -0.048017 0.164383
vn -2.631071 -5.657157 -0.487991
v 0.000000 -0.046774 0.013699
vn -1.192769 -6.146193 -0.274110
v 0.003914 -0.047930 0.013699
vn -2.115792 -5.903749 0.014534
v 0.003914 -0.048017 0.152641
vn -2.487551 5.739904 0.247814
v -0.001957 0.041552 0.140900
vn -0.107398 6.183130 0.222975
v 0.003914 0.042927 0.146770
vn 1.856566 -0.806323 5.590335
v 0.035578 0.006762 0.182080
vn -4.366992 2.269593 3.730807
v -0.004824 0.032552 0.179107
vn -0.204919 -4.328156 2.884887
v 0.007796 -0.046948 0.178725
vn -5.674513 2.685775 0.252896
v -0.018857 0.009788 0.163914
vn -5.699430 2.636905 0.204093
v -0.030360 -0.013699 0.151663
vn -4.894664 3.925993 0.223370
v -0.005250 0.039139 0.136986
vn -5.727848 -2.539335 0.179227
v -0.031619 -0.027397 0.158512
vn -2.019428 -5.613346 1.378332
v 0.003100 -0.046916 0.174151
vn -4.205112 -4.496198 -0.569295
v -0.033173 -0.029207 0.012498
vn -3.989267 -4.752802 0.066196
v -0.029379 -0.031423 0.118060
vn 1.331012 6.118668 0.177781
v 0.005871 0.042897 0.138943
vn 2.371394 5.793486 0.375145
v 0.014371 0.039139 0.170254
vn -2.032563 5.887276 -0.329348
v -0.000203 0.046967 0.011742
vn 2.400107 -5.688885 0.381831
v 0.013699 -0.047408 0.166340
vn 1.334393 -6.120803 0.103548
v 0.009785 -0.048555 0.164383
vn -2.733572 -5.609741 -0.481897
v -0.023483 -0.035563 0.013699
vn -0.287462 -6.190110 -0.447364
v 0.005871 -0.048236 0.013699
vn -1.717740 -6.014995 -0.291319
v 0.001957 -0.047471 0.013699
vn -1.439119 -6.067183 0.113667
v 0.006003 -0.048623 0.162584
vn -2.367301 -5.799597 0.175895
v 0.001958 -0.047140 0.164445
vn -2.835189 5.552498 0.295853
v -0.001957 0.040728 0.157534
vn -3.300255 5.324582 0.250619
v -0.002809 0.041096 0.140900
vn -1.496843 6.089337 0.237634
v 0.001957 0.042477 0.148727
vn 0.077262 6.279667 0.166577
v 0.001957 0.046967 0.013648
vn 0.535530 -0.335153 6.230394
v 0.016758 -0.026219 0.182255
vn -4.278168 1.908090 4.102347
v -0.027460 -0.015656 0.180091
vn -5.606160 -2.816126 0.062065
v -0.035739 -0.025440 0.017612
vn 0.333653 6.248071 0.194653
v 0.003914 0.043049 0.142857
vn 2.540576 5.672270 0.699876
v 0.027347 0.033334 0.172312
vn -1.868663 5.991951 0.236129
v 0.000000 0.042214 0.140900
vn -3.415826 5.252859 0.081742
v -0.005058 0.045010 0.013699
vn -4.045325 4.769596 0.239617
v -0.003914 0.040310 0.140900
# 124 vertices, 0 vertices normals

f 14//14 13//13 2//2
f 14//14 8//8 13//13
f 19//19 4//4 7//7
f 21//21 18//18 10//10
f 22//22 11//11 2//2
f 22//22 6//6 11//11
f 24//24 8//8 14//14
f 25//25 21//21 3//3
f 25//25 11//11 21//21
f 28//28 9//9 16//16
f 29//29 19//19 7//7
f 29//29 10//10 19//19
f 32//32 16//16 9//9
f 34//34 10//10 18//18
f 34//34 33//33 20//20
f 34//34 18//18 33//33
f 36//36 21//21 11//11
f 36//36 11//11 6//6
f 36//36 6//6 18//18
f 36//36 18//18 21//21
f 37//37 18//18 6//6
f 37//37 6//6 22//22
f 37//37 33//33 18//18
f 37//37 22//22 2//2
f 38//38 23//23 13//13
f 38//38 13//13 8//8
f 39//39 38//38 8//8
f 39//39 23//23 38//38
f 41//41 40//40 23//23
f 42//42 24//24 14//14
f 42//42 3//3 24//24
f 42//42 25//25 3//3
f 43//43 11//11 25//25
f 43//43 42//42 14//14
f 43//43 14//14 2//2
f 44//44 28//28 1//1
f 48//48 28//28 16//16
f 48//48 1//1 28//28
f 48//48 46//46 1//1
f 49//49 9//9 28//28
f 49//49 44//44 26//26
f 49//49 28//28 44//44
f 50//50 29//29 7//7
f 51//51 21//21 10//10
f 51//51 10//10 29//29
f 53//53 24//24 3//3
f 53//53 3//3 21//21
f 53//53 21//21 51//51
f 54//54 8//8 24//24
f 54//54 31//31 52//52
f 56//56 51//51 29//29
f 56//56 50//50 16//16
f 56//56 29//29 50//50
f 56//56 53//53 51//51
f 56//56 52//52 31//31
f 56//56 31//31 53//53
f 58//58 19//19 10//10
f 58//58 10//10 34//34
f 58//58 4//4 19//19
f 58//58 34//34 20//20
f 58//58 20//20 4//4
f 59//59 7//7 4//4
f 62//62 5//5 23//23
f 62//62 23//23 39//39
f 63//63 23//23 40//40
f 64//64 41//41 23//23
f 64//64 23//23 5//5
f 66//66 65//65 15//15
f 66//66 41//41 65//65
f 66//66 47//47 12//12
f 66//66 40//40 41//41
f 67//67 43//43 2//2
f 67//67 2//2 11//11
f 67//67 11//11 43//43
f 68//68 43//43 25//25
f 68//68 25//25 42//42
f 68//68 42//42 43//43
f 69//69 44//44 1//1
f 69//69 1//1 15//15
f 69//69 15//15 44//44
f 70//70 44//44 15//15
f 70//70 26//26 44//44
f 71//71 45//45 26//26
f 71//71 26//26 70//70
f 72//72 45//45 15//15
f 72//72 15//15 65//65
f 73//73 26//26 45//45
f 73//73 45//45 72//72
f 73//73 49//49 26//26
f 73//73 9//9 49//49
f 74//74 15//15 46//46
f 74//74 66//66 15//15
f 74//74 47//47 66//66
f 75//75 46//46 15//15
f 75//75 15//15 1//1
f 75//75 1//1 46//46
f 76//76 47//47 27//27
f 76//76 48//48 16//16
f 76//76 46//46 48//48
f 77//77 12//12 47//47
f 77//77 30//30 61//61
f 78//78 50//50 30//30
f 78//78 16//16 50//50
f 78//78 30//30 77//77
f 79//79 52//52 17//17
f 80//80 53//53 31//31
f 80//80 31//31 54//54
f 80//80 54//54 24//24
f 80//80 24//24 53//53
f 81//81 32//32 9//9
f 81//81 17//17 32//32
f 82//82 56//56 16//16
f 82//82 16//16 32//32
f 82//82 32//32 17//17
f 82//82 17//17 52//52
f 82//82 52//52 56//56
f 83//83 2//2 13//13
f 84//84 37//37 2//2
f 84//84 33//33 37//37
f 84//84 83//83 57//57
f 84//84 2//2 83//83
f 84//84 57//57 20//20
f 84//84 20//20 33//33
f 85//85 57//57 83//83
f 86//86 20//20 57//57
f 86//86 57//57 85//85
f 87//87 59//59 4//4
f 88//88 50//50 7//7
f 88//88 7//7 60//60
f 92//92 62//62 39//39
f 93//93 13//13 23//23
f 93//93 23//23 63//63
f 93//93 85//85 83//83
f 93//93 83//83 13//13
f 94//94 64//64 5//5
f 94//94 72//72 65//65
f 94//94 5//5 72//72
f 95//95 66//66 12//12
f 95//95 40//40 66//66
f 95//95 85//85 40//40
f 95//95 86//86 85//85
f 95//95 35//35 86//86
f 96//96 71//71 15//15
f 96//96 15//15 45//45
f 96//96 45//45 71//71
f 97//97 71//71 70//70
f 97//97 70//70 15//15
f 97//97 15//15 71//71
f 98//98 73//73 72//72
f 98//98 72//72 9//9
f 98//98 9//9 73//73
f 99//99 27//27 47//47
f 99//99 47//47 74//74
f 99//99 74//74 46//46
f 100//100 77//77 61//61
f 100//100 12//12 77//77
f 100//100 95//95 12//12
f 100//100 35//35 95//95
f 101//101 76//76 16//16
f 101//101 16//16 78//78
f 101//101 47//47 76//76
f 102//102 78//78 77//77
f 102//102 77//77 47//47
f 102//102 101//101 78//78
f 102//102 47//47 101//101
f 103//103 79//79 17//17
f 103//103 39//39 79//79
f 103//103 92//92 39//39
f 104//104 79//79 39//39
f 104//104 52//52 79//79
f 105//105 81//81 9//9
f 105//105 9//9 55//55
f 106//106 86//86 35//35
f 106//106 20//20 86//86
f 106//106 87//87 4//4
f 106//106 4//4 20//20
f 107//107 35//35 59//59
f 107//107 59//59 87//87
f 107//107 106//106 35//35
f 107//107 87//87 106//106
f 108//108 30//30 50//50
f 108//108 50//50 88//88
f 108//108 61//61 30//30
f 109//109 59//59 35//35
f 109//109 89//89 7//7
f 109//109 7//7 59//59
f 110//110 60//60 7//7
f 110//110 7//7 89//89
f 110//110 90//90 60//60
f 111//111 35//35 100//100
f 111//111 110//110 89//89
f 111//111 90//90 110//110
f 111//111 109//109 35//35
f 111//111 89//89 109//109
f 112//112 88//88 60//60
f 112//112 60//60 90//90
f 112//112 90//90 111//111
f 112//112 108//108 88//88
f 112//112 61//61 108//108
f 112//112 111//111 100//100
f 112//112 100//100 61//61
f 113//113 5//5 62//62
f 113//113 62//62 91//91
f 114//114 91//91 55//55
f 114//114 113//113 91//91
f 114//114 72//72 5//5
f 114//114 5//5 113//113
f 115//115 92//92 81//81
f 115//115 62//62 92//92
f 115//115 81//81 105//105
f 116//116 17//17 81//81
f 117//117 93//93 63//63
f 117//117 63//63 40//40
f 117//117 40//40 85//85
f 117//117 85//85 93//93
f 118//118 94//94 65//65
f 118//118 65//65 41//41
f 118//118 41//41 64//64
f 118//118 64//64 94//94
f 119//119 76//76 27//27
f 119//119 27//27 99//99
f 119//119 99//99 46//46
f 119//119 46//46 76//76
f 120//120 103//103 17//17
f 120//120 92//92 103//103
f 120//120 17//17 116//116
f 120//120 116//116 81//81
f 120//120 81//81 92//92
f 121//121 104//104 39//39
f 121//121 39//39 8//8
f 121//121 8//8 54//54
f 121//121 54//54 52//52
f 121//121 52//52 104//104
f 122//122 105//105 55//55
f 122//122 55//55 91//91
f 122//122 115//115 105//105
f 122//122 91//91 62//62
f 122//122 62//62 115//115
f 123//123 114//114 55//55
f 123//123 55//55 9//9
f 124//124 9//9 72//72
f 124//124 72//72 114//114
f 124//124 123//123 9//9
f 124//124 114//114 123//123
# 244 faces, 0 coords texture

# End of File
