####
#
# OBJ File Generated by Meshlab
#
####
# Object canon_ack_e10_box_250_collision.obj
#
# Vertices: 127
# Faces: 250
#
####
vn -0.194538 0.856111 0.478779
v 0.006551 -0.043665 0.008279
vn 0.110873 0.670059 0.733981
v -0.000089 -0.042390 0.006302
vn 0.168948 -0.081741 0.982230
v -0.010407 0.001919 0.000585
vn -0.119566 0.091724 0.988580
v 0.009883 -0.009302 0.001141
vn 0.888401 -0.419076 0.187399
v -0.027339 -0.002666 0.011792
vn 0.899793 -0.436284 -0.005269
v -0.025250 0.000776 0.033439
vn 0.909574 -0.415521 -0.004108
v -0.020752 0.012097 0.048748
vn 0.752750 0.657823 0.025223
v -0.031682 -0.030506 0.106102
vn -0.896777 0.441241 0.033118
v 0.026997 -0.019423 0.097838
vn 0.904190 -0.427106 -0.004550
v -0.018099 0.015774 0.094420
vn 0.933258 -0.359170 -0.005044
v -0.031887 -0.012441 0.103319
vn -0.889677 0.455914 0.024834
v 0.035155 -0.004266 0.124053
vn 0.467232 0.455780 0.757600
v -0.027473 -0.028201 0.005301
vn 0.369860 0.761957 0.531625
v -0.015278 -0.035731 0.006816
vn 0.188440 0.397539 0.898027
v -0.010206 -0.033975 0.003200
vn -0.021603 0.210765 0.977298
v -0.002440 -0.031267 0.001877
vn 0.591894 -0.111335 0.798289
v -0.030295 -0.017375 0.004133
vn 0.082869 0.073523 0.993845
v -0.012321 -0.013254 0.000438
vn 0.607595 0.758907 0.234285
v -0.029596 -0.032306 0.014837
vn 0.308814 0.940869 0.139281
v -0.006024 -0.042965 0.013703
vn 0.975181 0.031176 0.219201
v -0.036723 -0.020201 0.012618
vn 0.742037 0.670039 -0.020694
v -0.031304 -0.029749 0.033641
vn 0.997974 -0.059605 -0.022233
v -0.035076 -0.017967 0.027301
vn 0.402947 0.914385 0.039164
v -0.004123 -0.044256 0.047371
vn 0.928755 0.370492 0.012267
v -0.034639 -0.024993 0.054783
vn 0.634917 0.772465 0.013336
v -0.028232 -0.032356 0.066847
vn 0.970228 0.242144 0.004895
v -0.034667 -0.025218 0.088279
vn 0.970349 -0.241511 -0.009707
v -0.035113 -0.018332 0.057101
vn 0.902118 -0.431483 -0.002182
v -0.027763 -0.004293 0.065627
vn 0.535529 0.843319 0.044968
v -0.028391 -0.033646 0.109372
vn 0.478544 0.877346 0.035500
v -0.014676 -0.040067 0.095166
vn 0.441304 0.897267 0.012772
v -0.012318 -0.041128 0.124472
vn 0.999939 0.011071 0.000620
v -0.035259 -0.022896 0.113656
vn 0.937503 -0.347656 -0.014955
v -0.033413 -0.017449 0.131945
vn 0.301786 0.953188 0.018890
v 0.000374 -0.048404 0.138354
vn 0.532155 0.846646 0.001271
v -0.027651 -0.033949 0.136513
vn 0.980487 0.195030 -0.024674
v -0.034826 -0.024337 0.140119
vn 0.750306 0.659546 -0.045167
v -0.029579 -0.032297 0.157985
vn 0.433481 0.875485 -0.213587
v -0.008230 -0.043761 0.169590
vn 0.760207 0.492399 -0.423826
v -0.031809 -0.027760 0.177018
vn 0.264607 0.513727 -0.816130
v -0.020822 -0.030676 0.181308
vn -0.003958 0.828429 -0.560081
v 0.006945 -0.045743 0.177139
vn 0.998862 -0.018371 -0.044007
v -0.034461 -0.021476 0.156400
vn 0.906890 -0.420057 -0.033198
v -0.028928 -0.008278 0.151178
vn 0.879453 -0.309559 -0.361574
v -0.032492 -0.019239 0.176298
vn 0.028845 0.196299 -0.980120
v -0.013195 -0.026954 0.183779
vn 0.442466 0.040246 -0.895882
v -0.025514 -0.022871 0.183188
vn 0.093102 0.032676 -0.995120
v -0.013924 -0.016501 0.185507
vn 0.360481 -0.217898 0.906958
v -0.010254 0.019598 0.002284
vn 0.676142 -0.298421 0.673630
v -0.025559 -0.003669 0.005570
vn 0.840974 -0.376338 0.388757
v -0.015512 0.020777 0.008044
vn 0.547951 -0.454741 0.702111
v -0.007862 0.035346 0.006516
vn 0.390503 -0.817681 0.422973
v -0.001718 0.041590 0.008288
vn 0.916888 -0.398752 0.017693
v -0.018157 0.016676 0.019268
vn 0.807495 -0.557791 0.191885
v -0.010480 0.036119 0.012087
vn 0.688031 -0.725640 -0.007753
v -0.008556 0.038326 0.028003
vn -0.070594 -0.980016 0.185968
v 0.001979 0.044466 0.013873
vn 0.575321 -0.817829 -0.012710
v -0.007416 0.039406 0.051865
vn 0.649232 -0.760537 -0.008972
v -0.007326 0.038527 0.079460
vn 0.676173 -0.736730 -0.004342
v -0.007668 0.038475 0.098733
vn 0.901938 -0.431318 -0.021751
v -0.017352 0.016998 0.128148
vn 0.102348 -0.994637 -0.014875
v 0.002165 0.042346 0.121376
vn 0.893987 -0.444515 -0.056512
v -0.016434 0.016960 0.153113
vn 0.854256 -0.428568 -0.294238
v -0.018217 0.009359 0.171424
vn 0.739054 -0.671534 -0.053303
v -0.007386 0.036121 0.145113
vn 0.661589 -0.644160 -0.383872
v -0.005686 0.036232 0.174132
vn 0.491530 -0.259199 -0.831393
v -0.009592 0.011368 0.180943
vn -0.102737 0.057689 -0.993034
v 0.006307 -0.007155 0.183788
vn -0.605283 0.489756 0.627512
v 0.014025 -0.037628 0.007291
vn -0.291928 0.298364 0.908712
v 0.011569 -0.034543 0.004207
vn -0.702745 0.323575 0.633600
v 0.026118 -0.008921 0.006934
vn -0.316023 0.166677 0.933996
v 0.016942 -0.015422 0.003215
vn -0.362920 0.115773 0.924600
v 0.028010 0.007531 0.002281
vn -0.726753 0.645145 0.235836
v 0.014055 -0.041704 0.012477
vn -0.835284 0.549678 0.012445
v 0.015073 -0.040125 0.041085
vn -0.204984 0.977053 0.057875
v 0.007163 -0.046533 0.036571
vn -0.896577 0.412376 0.161539
v 0.025828 -0.016392 0.013677
vn -0.899154 0.436387 0.032989
v 0.028711 -0.009281 0.027960
vn -0.896628 0.441391 0.035109
v 0.026674 -0.017050 0.065237
vn -0.640783 0.767044 0.032243
v 0.013668 -0.043921 0.080036
vn 0.116096 0.992887 0.026399
v 0.002282 -0.048540 0.065119
vn 0.159447 0.987133 0.012021
v 0.001216 -0.048102 0.087827
vn -0.774430 0.632262 0.022420
v 0.016369 -0.042907 0.114718
vn -0.089732 0.995451 0.032026
v 0.005284 -0.049759 0.114263
vn -0.507202 0.861727 0.013130
v 0.012041 -0.047831 0.134304
vn -0.887798 0.460101 0.011059
v 0.023037 -0.028774 0.129142
vn -0.890827 0.453950 -0.018876
v 0.034503 -0.007835 0.160548
vn 0.000110 0.994242 -0.107155
v 0.004527 -0.050544 0.161461
vn -0.723118 0.628414 -0.286699
v 0.016252 -0.044543 0.170363
vn -0.217071 0.346776 -0.912484
v 0.007501 -0.040315 0.181102
vn -0.587053 0.326086 -0.740970
v 0.022227 -0.023632 0.178653
vn -0.087258 0.040651 0.995356
v 0.015756 0.003249 0.000625
vn -0.080316 -0.181339 0.980135
v 0.014018 0.025696 0.001159
vn -0.846678 0.248264 0.470639
v 0.039624 0.014916 0.008807
vn -0.867718 -0.389095 0.309307
v 0.039885 0.024587 0.010200
vn -0.029837 -0.522795 0.851936
v 0.005790 0.036590 0.003508
vn -0.441048 -0.201758 0.874511
v 0.032878 0.023346 0.003976
vn -0.441609 -0.698867 0.562643
v 0.033858 0.029741 0.008045
vn -0.979795 0.191320 0.058302
v 0.041178 0.014346 0.023960
vn -0.534383 -0.845200 0.008419
v 0.034387 0.029603 0.022643
vn -0.895945 0.442516 0.038236
v 0.035761 0.000314 0.073321
vn -0.897834 -0.439498 0.027138
v 0.040738 0.023792 0.041661
vn -0.998096 0.044842 0.042360
v 0.042759 0.017340 0.059824
vn -0.411857 -0.910991 0.021647
v 0.017933 0.037142 0.051735
vn -0.054804 -0.998373 -0.015769
v 0.004671 0.042854 0.034396
vn -0.578896 -0.815338 0.010135
v 0.036871 0.029129 0.068254
vn -0.906241 -0.422209 0.021631
v 0.042436 0.022564 0.087304
vn -0.988749 0.145776 0.033539
v 0.044535 0.014852 0.095541
vn -0.078959 -0.996877 -0.000855
v 0.007019 0.042916 0.070612
vn -0.110252 -0.993829 -0.012154
v 0.006123 0.042605 0.098742
vn -0.644825 -0.764313 0.005102
v 0.039942 0.026651 0.113678
vn -0.395753 -0.918356 -0.001252
v 0.021518 0.035149 0.128109
vn -0.979657 0.200095 0.015317
v 0.044724 0.013390 0.131996
vn -0.938210 -0.346008 0.006419
v 0.044126 0.020631 0.134659
vn -0.384620 -0.881600 -0.273587
v 0.026406 0.032452 0.173632
vn -0.608126 -0.793834 0.003050
v 0.040359 0.026780 0.136418
vn 0.013490 -0.999721 -0.019414
v 0.006069 0.042559 0.143877
vn -0.962589 0.152553 -0.223943
v 0.045538 0.013668 0.174388
vn -0.735343 -0.599672 -0.315696
v 0.040689 0.026353 0.173395
vn -0.424671 -0.077110 -0.902058
v 0.036647 0.018460 0.183346
vn -0.273046 0.151299 -0.950029
v 0.027154 0.000892 0.181956
vn 0.017456 -0.042838 -0.998930
v 0.007727 0.017271 0.183466
vn -0.202848 -0.472354 -0.857750
v 0.026994 0.024999 0.182251
vn -0.738358 0.390470 -0.549874
v 0.033609 -0.006710 0.175522
vn -0.377416 -0.589223 -0.714404
v 0.035703 0.022617 0.181985
vn -0.057327 -0.892493 -0.447403
v 0.005236 0.040980 0.177457
vn 0.184637 -0.370691 -0.910218
v 0.005040 0.035416 0.183233
# 127 vertices, 0 vertices normals

f 20//20 14//14 19//19
f 19//19 14//14 13//13
f 15//15 13//13 14//14
f 2//2 15//15 14//14
f 14//14 20//20 2//2
f 2//2 16//16 15//15
f 19//19 13//13 21//21
f 21//21 13//13 17//17
f 50//50 5//5 17//17
f 18//18 13//13 15//15
f 16//16 18//18 15//15
f 17//17 13//13 18//18
f 4//4 18//18 16//16
f 17//17 18//18 3//3
f 1//1 2//2 20//20
f 76//76 1//1 20//20
f 76//76 20//20 24//24
f 19//19 22//22 20//20
f 24//24 20//20 22//22
f 19//19 21//21 22//22
f 23//23 22//22 21//21
f 21//21 17//17 5//5
f 6//6 21//21 5//5
f 23//23 21//21 6//6
f 23//23 25//25 22//22
f 25//25 23//23 28//28
f 6//6 28//28 23//23
f 24//24 22//22 26//26
f 76//76 24//24 81//81
f 26//26 22//22 25//25
f 7//7 29//29 6//6
f 28//28 6//6 29//29
f 31//31 26//26 8//8
f 24//24 31//31 81//81
f 81//81 31//31 82//82
f 24//24 26//26 31//31
f 26//26 25//25 27//27
f 27//27 25//25 28//28
f 27//27 8//8 26//26
f 27//27 28//28 11//11
f 28//28 29//29 11//11
f 30//30 31//31 8//8
f 32//32 84//84 82//82
f 82//82 31//31 32//32
f 32//32 31//31 30//30
f 35//35 84//84 32//32
f 8//8 27//27 33//33
f 11//11 33//33 27//27
f 8//8 36//36 30//30
f 32//32 30//30 36//36
f 32//32 36//36 35//35
f 35//35 36//36 39//39
f 88//88 35//35 39//39
f 8//8 33//33 37//37
f 34//34 37//37 33//33
f 34//34 33//33 11//11
f 8//8 38//38 36//36
f 38//38 8//8 37//37
f 37//37 34//34 43//43
f 44//44 43//43 34//34
f 38//38 37//37 43//43
f 38//38 39//39 36//36
f 42//42 39//39 41//41
f 40//40 39//39 38//38
f 39//39 40//40 41//41
f 40//40 47//47 41//41
f 90//90 42//42 41//41
f 40//40 38//38 43//43
f 43//43 44//44 45//45
f 40//40 43//43 45//45
f 45//45 44//44 63//63
f 67//67 47//47 45//45
f 41//41 46//46 90//90
f 46//46 41//41 48//48
f 48//48 41//41 47//47
f 40//40 45//45 47//47
f 68//68 90//90 46//46
f 68//68 46//46 48//48
f 50//50 17//17 3//3
f 49//49 50//50 3//3
f 50//50 49//49 51//51
f 5//5 50//50 51//51
f 93//93 49//49 3//3
f 51//51 49//49 52//52
f 52//52 55//55 51//51
f 96//96 52//52 49//49
f 96//96 49//49 93//93
f 55//55 52//52 53//53
f 53//53 52//52 96//96
f 5//5 51//51 54//54
f 6//6 5//5 54//54
f 54//54 51//51 55//55
f 7//7 6//6 54//54
f 56//56 7//7 54//54
f 54//54 55//55 56//56
f 56//56 55//55 53//53
f 56//56 53//53 57//57
f 56//56 57//57 105//105
f 58//58 7//7 56//56
f 58//58 56//56 105//105
f 58//58 59//59 7//7
f 109//109 58//58 105//105
f 11//11 29//29 10//10
f 29//29 7//7 10//10
f 7//7 59//59 10//10
f 10//10 59//59 60//60
f 109//109 59//59 58//58
f 59//59 109//109 110//110
f 61//61 34//34 11//11
f 11//11 10//10 61//61
f 110//110 60//60 59//59
f 110//110 62//62 60//60
f 10//10 60//60 61//61
f 61//61 60//60 65//65
f 65//65 60//60 62//62
f 63//63 34//34 61//61
f 44//44 34//34 63//63
f 63//63 61//61 65//65
f 65//65 62//62 117//117
f 65//65 117//117 66//66
f 126//126 66//66 117//117
f 63//63 65//65 64//64
f 64//64 45//45 63//63
f 64//64 67//67 45//45
f 64//64 66//66 67//67
f 65//65 66//66 64//64
f 66//66 127//127 67//67
f 66//66 126//126 127//127
f 47//47 67//67 48//48
f 122//122 68//68 48//48
f 122//122 48//48 67//67
f 67//67 127//127 122//122
f 70//70 16//16 2//2
f 2//2 1//1 70//70
f 70//70 1//1 69//69
f 69//69 71//71 70//70
f 69//69 74//74 71//71
f 16//16 70//70 4//4
f 70//70 72//72 4//4
f 71//71 72//72 70//70
f 4//4 72//72 92//92
f 92//92 72//72 73//73
f 71//71 73//73 72//72
f 77//77 71//71 74//74
f 77//77 94//94 71//71
f 1//1 76//76 74//74
f 76//76 75//75 74//74
f 74//74 69//69 1//1
f 77//77 74//74 75//75
f 77//77 75//75 78//78
f 76//76 80//80 75//75
f 80//80 79//79 75//75
f 75//75 79//79 78//78
f 79//79 101//101 78//78
f 80//80 76//76 81//81
f 82//82 80//80 81//81
f 80//80 82//82 84//84
f 9//9 79//79 80//80
f 79//79 9//9 101//101
f 83//83 80//80 84//84
f 9//9 80//80 83//83
f 86//86 9//9 83//83
f 83//83 84//84 85//85
f 85//85 86//86 83//83
f 9//9 12//12 101//101
f 85//85 84//84 35//35
f 85//85 35//35 88//88
f 85//85 89//89 86//86
f 89//89 87//87 86//86
f 12//12 86//86 87//87
f 12//12 9//9 86//86
f 85//85 88//88 89//89
f 89//89 88//88 42//42
f 88//88 39//39 42//42
f 42//42 90//90 89//89
f 90//90 91//91 89//89
f 124//124 89//89 91//91
f 87//87 89//89 124//124
f 124//124 91//91 121//121
f 124//124 118//118 87//87
f 90//90 121//121 91//91
f 121//121 90//90 68//68
f 92//92 3//3 18//18
f 18//18 4//4 92//92
f 73//73 93//93 92//92
f 73//73 71//71 94//94
f 3//3 92//92 93//93
f 73//73 97//97 93//93
f 73//73 94//94 97//97
f 95//95 97//97 94//94
f 96//96 57//57 53//53
f 57//57 96//96 98//98
f 97//97 98//98 93//93
f 98//98 96//96 93//93
f 97//97 95//95 98//98
f 94//94 77//77 78//78
f 99//99 94//94 78//78
f 95//95 94//94 99//99
f 101//101 99//99 78//78
f 103//103 99//99 101//101
f 102//102 95//95 99//99
f 100//100 57//57 98//98
f 57//57 100//100 105//105
f 100//100 98//98 95//95
f 100//100 95//95 102//102
f 102//102 99//99 103//103
f 103//103 101//101 108//108
f 102//102 103//103 107//107
f 106//106 102//102 107//107
f 105//105 100//100 104//104
f 104//104 100//100 106//106
f 109//109 105//105 104//104
f 106//106 100//100 102//102
f 107//107 103//103 108//108
f 109//109 104//104 106//106
f 110//110 109//109 106//106
f 111//111 106//106 107//107
f 111//111 110//110 106//106
f 108//108 101//101 12//12
f 107//107 108//108 114//114
f 12//12 113//113 108//108
f 114//114 108//108 113//113
f 111//111 107//107 114//114
f 62//62 110//110 112//112
f 112//112 110//110 111//111
f 116//116 112//112 111//111
f 12//12 118//118 113//113
f 118//118 12//12 87//87
f 111//111 114//114 116//116
f 114//114 113//113 118//118
f 62//62 112//112 117//117
f 115//115 112//112 116//116
f 117//117 112//112 115//115
f 119//119 116//116 114//114
f 118//118 124//124 120//120
f 119//119 114//114 118//118
f 118//118 120//120 119//119
f 115//115 125//125 123//123
f 120//120 125//125 119//119
f 115//115 116//116 119//119
f 126//126 117//117 115//115
f 126//126 115//115 123//123
f 115//115 119//119 125//125
f 122//122 121//121 68//68
f 120//120 121//121 122//122
f 120//120 122//122 123//123
f 123//123 122//122 127//127
f 124//124 121//121 120//120
f 125//125 120//120 123//123
f 126//126 123//123 127//127
# 250 faces, 0 coords texture

# End of File
