####
#
# OBJ File Generated by Meshlab
#
####
# Object suave_sweet_guava_nectar_body_wash_250_collision.obj
#
# Vertices: 127
# Faces: 250
#
####
vn 0.005516 0.997579 -0.069327
v 0.003914 0.030147 0.009785
vn -0.834418 -0.204285 -0.511873
v -0.017612 -0.011742 0.006927
vn 0.988977 0.144744 0.031213
v 0.035225 -0.009785 0.015811
vn 0.687937 0.228142 -0.688980
v 0.027397 0.011742 0.006059
vn 0.879541 -0.467668 0.087713
v 0.024727 -0.031311 0.180038
vn -0.685322 0.536908 -0.491999
v -0.013699 0.025440 0.005981
vn -0.453461 -0.685208 -0.569967
v -0.001955 -0.039149 0.007870
vn -0.984259 -0.173232 0.035008
v -0.014313 -0.008109 0.184319
vn -0.113849 -0.086561 -0.989720
v -0.005723 -0.029228 0.005871
vn 0.598136 -0.064217 -0.798817
v 0.031325 -0.023335 0.006909
vn 0.518504 0.746762 -0.416534
v 0.017612 0.025440 0.006883
vn -0.074967 0.680452 -0.728948
v -0.003912 0.028971 0.005860
vn 0.962388 0.039396 -0.268808
v 0.035225 -0.009894 0.013699
vn 0.892657 -0.393997 -0.218927
v 0.031311 -0.025848 0.007828
vn -0.382974 -0.922983 0.037852
v 0.005871 -0.038921 0.178082
vn -0.944564 0.296959 -0.140050
v -0.017612 0.017908 0.007828
vn -0.996405 -0.076470 -0.036461
v -0.019569 0.002022 0.007828
vn -0.809124 -0.586932 0.028804
v -0.003914 -0.031575 0.178082
vn -0.923317 -0.382813 0.030670
v -0.011742 -0.017085 0.176125
vn -0.310885 -0.948782 -0.056246
v 0.000873 -0.041096 0.009785
vn 0.665025 0.636338 -0.390916
v 0.019569 0.023483 0.006468
vn 0.708216 0.086060 -0.700731
v 0.029354 0.003914 0.006818
vn 0.435610 -0.870861 -0.227694
v 0.019569 -0.039139 0.007861
vn 0.987172 -0.157612 0.025494
v 0.035225 -0.009855 0.015656
vn 0.208090 -0.237408 -0.948860
v 0.023529 -0.033268 0.006412
vn 0.266012 0.940927 -0.209509
v 0.011742 0.029354 0.008435
vn -0.094900 0.995459 0.007382
v 0.000000 0.029648 0.176125
vn 0.562112 0.826610 0.027307
v 0.009785 0.026969 0.182221
vn -0.722142 0.180344 -0.667822
v -0.017612 0.015656 0.006949
vn -0.984229 0.164671 0.064627
v -0.014755 0.013611 0.184055
vn -0.998305 0.020159 0.054590
v -0.015472 0.005871 0.183952
vn -0.797206 -0.451103 -0.401208
v -0.013699 -0.021526 0.007004
vn -0.951008 -0.306915 0.037246
v -0.013408 -0.011715 0.186268
vn -0.921254 -0.380005 -0.082994
v -0.015656 -0.017612 0.007351
vn 0.030234 -0.922283 -0.385332
v 0.002591 -0.041102 0.009791
vn -0.002062 -0.998686 0.051198
v 0.011780 -0.039954 0.182662
vn -0.519268 -0.854196 0.026628
v 0.002420 -0.036896 0.180038
vn 0.813324 0.506043 -0.287097
v 0.025440 0.015656 0.006118
vn 0.748725 0.045795 -0.661297
v 0.031311 -0.013699 0.007290
vn 0.806181 -0.588581 0.060370
v 0.023629 -0.033268 0.180038
vn -0.360559 0.371780 -0.855440
v 0.025554 -0.029354 0.181995
vn 0.986641 -0.161624 -0.020403
v 0.027141 -0.021526 0.183952
vn 0.441777 -0.895386 0.055834
v 0.017612 -0.038314 0.181995
vn -0.199646 0.977511 0.067923
v -0.001826 0.029356 0.185260
vn 0.021526 0.992898 0.117003
v 0.003914 0.029565 0.176125
vn -0.815707 0.578074 0.021286
v -0.011187 0.023483 0.180038
vn -0.986384 0.163341 -0.019150
v -0.018331 0.013699 0.007828
vn -0.913398 0.077863 -0.399551
v -0.019580 0.005796 0.006833
vn -0.993608 0.094502 0.061740
v -0.015232 0.009785 0.183952
vn -0.851711 -0.521716 0.048996
v -0.006202 -0.027807 0.182506
vn 0.986970 0.137817 0.083048
v 0.026299 -0.005849 0.201418
vn 0.974689 0.218511 0.047268
v 0.025866 -0.002550 0.196183
vn -0.933542 -0.357024 0.032149
v -0.012242 -0.015656 0.178082
vn -0.912665 -0.407574 0.030419
v -0.010599 -0.019569 0.178082
vn -0.228236 -0.972829 0.038883
v 0.007828 -0.039473 0.180038
vn -0.377054 -0.880937 0.285972
v 0.005938 -0.036016 0.205400
vn -0.454368 -0.888376 0.065863
v 0.003840 -0.037490 0.188315
vn 0.771870 0.634851 0.034367
v 0.015656 0.021040 0.183952
vn 0.865748 0.498728 0.041836
v 0.019569 0.014610 0.197651
vn 0.702886 -0.701715 0.116393
v 0.021678 -0.035385 0.181995
vn 0.932889 -0.334608 -0.133248
v 0.025896 -0.028592 0.182034
vn 0.981829 -0.186378 0.035708
v 0.026920 -0.023483 0.180038
vn 0.346723 -0.936661 0.049497
v 0.015656 -0.039196 0.180038
vn -0.380022 0.924793 0.018496
v -0.004605 0.028468 0.202965
vn -0.064742 0.994415 0.083344
v 0.001957 0.029769 0.174168
vn 0.592894 0.801969 0.072952
v 0.010663 0.025876 0.192996
vn -0.123709 -0.127946 0.984035
v 0.003952 -0.027308 0.213331
vn -0.946858 0.310729 0.083105
v -0.013887 0.017908 0.183474
vn -0.967397 -0.230779 0.104326
v -0.013569 -0.010575 0.189637
vn -0.997914 -0.006961 0.064179
v -0.015460 0.003914 0.183952
vn -0.990388 -0.129983 0.047286
v -0.014890 -0.003914 0.183952
vn -0.996432 0.061140 0.058176
v -0.015364 0.007828 0.183952
vn 0.996417 0.065321 0.053722
v 0.026671 -0.009295 0.199119
vn 0.936193 0.345639 0.063845
v 0.023094 0.006265 0.203538
vn -0.318142 -0.947006 0.044325
v 0.006720 -0.039139 0.180038
vn -0.147053 -0.988236 0.042005
v 0.009785 -0.039730 0.181995
vn 0.737483 0.674627 0.031579
v 0.015321 0.021526 0.181995
vn 0.877356 0.478643 0.033862
v 0.020073 0.013699 0.197651
vn 0.961929 -0.165084 -0.217807
v 0.026078 -0.027424 0.182258
vn 0.156441 -0.985246 0.069400
v 0.013590 -0.039741 0.183237
vn 0.335546 -0.196103 0.921386
v 0.018754 -0.024918 0.213334
vn 0.320294 0.942374 0.096662
v 0.005654 0.029261 0.177369
vn -0.903639 0.427729 0.021999
v -0.012317 0.021526 0.180038
vn -0.988368 0.090328 0.122352
v -0.014728 0.007723 0.190802
vn -0.953891 0.044665 0.296811
v -0.013012 0.004049 0.205973
vn -0.920868 -0.385436 0.058662
v -0.011082 -0.017754 0.185194
vn 0.993145 0.011470 0.116322
v 0.026992 -0.015741 0.200251
vn -0.363155 -0.929839 0.059316
v 0.005871 -0.038811 0.180038
vn 0.986591 -0.140097 0.083732
v 0.026847 -0.019570 0.199617
vn -0.009241 -0.968949 0.247088
v 0.013119 -0.037144 0.204333
vn -0.741786 0.669555 0.038076
v -0.009772 0.025458 0.179483
vn 0.026571 0.995205 0.094134
v 0.002827 0.029552 0.189736
vn -0.860934 0.442661 0.250688
v -0.010905 0.020032 0.202325
vn -0.546883 0.827310 0.128359
v -0.007764 0.026557 0.189527
vn -0.851880 0.521244 0.051039
v -0.011700 0.022608 0.183660
vn -0.994973 -0.063917 0.077088
v -0.015307 -0.000000 0.185935
vn -0.933324 -0.179924 0.310698
v -0.010034 -0.009889 0.210230
vn -0.604306 -0.792932 0.077925
v 0.000024 -0.035244 0.185637
vn -0.897036 -0.440128 0.040171
v -0.009523 -0.021543 0.183129
vn -0.761313 -0.644159 0.073911
v -0.002438 -0.032910 0.185499
vn -0.233381 -0.967954 0.092726
v 0.007828 -0.038992 0.187866
vn 0.696884 0.716735 0.025371
v 0.011740 0.025174 0.183981
vn 0.602888 -0.789327 0.116141
v 0.019474 -0.037178 0.182319
vn 0.402419 -0.882927 0.241866
v 0.014462 -0.037366 0.203295
vn 0.792005 -0.590486 0.155094
v 0.022729 -0.033762 0.183495
vn 0.867025 -0.161520 0.471359
v 0.024758 -0.019731 0.211258
vn -0.370854 -0.586551 0.720018
v 0.001751 -0.030285 0.211826
vn -0.546396 0.361125 0.755672
v -0.005635 0.017732 0.212496
vn 0.199974 0.923969 0.326025
v 0.004531 0.026670 0.207106
vn 0.011419 -0.254625 0.966972
v 0.011387 -0.029847 0.213433
vn 0.576532 0.741962 0.342203
v 0.011105 0.023066 0.208194
vn -0.538649 0.030849 0.841965
v -0.009217 0.003504 0.212876
vn -0.733981 -0.633023 0.246076
v -0.002896 -0.028238 0.207085
vn -0.890323 -0.437585 0.125874
v -0.006958 -0.024004 0.200575
vn 0.960072 0.250951 0.123631
v 0.024474 0.002209 0.201483
vn 0.803469 0.588235 0.091747
v 0.017557 0.017666 0.200844
vn 0.888846 0.445487 0.107210
v 0.021027 0.011740 0.200277
vn 0.732018 -0.661368 0.163529
v 0.022584 -0.031389 0.202389
vn 0.777228 -0.515410 0.360929
v 0.024100 -0.028634 0.204878
vn 0.205318 -0.746094 0.633394
v 0.013519 -0.033938 0.210335
vn 0.360851 0.049114 0.931329
v 0.022209 -0.003598 0.212675
vn -0.371463 0.843395 0.388201
v -0.002279 0.026605 0.205082
vn 0.625149 0.384450 0.679254
v 0.018679 0.012469 0.211845
vn -0.073585 0.038252 0.996555
v -0.002723 0.015096 0.213190
vn -0.714018 -0.289393 0.637518
v -0.008251 -0.014345 0.212460
vn 0.862005 0.150577 0.484019
v 0.024622 -0.003772 0.211111
vn 0.047812 0.423710 0.904535
v 0.005316 0.022239 0.213311
# 127 vertices, 0 vertices normals

f 12//12 4//4 9//9
f 13//13 4//4 3//3
f 14//14 10//10 13//13
f 25//25 9//9 4//4
f 25//25 14//14 23//23
f 25//25 10//10 14//14
f 25//25 7//7 9//9
f 9//9 2//2 48//48
f 9//9 48//48 6//6
f 9//9 32//32 2//2
f 9//9 6//6 12//12
f 17//17 48//48 2//2
f 18//18 32//32 7//7
f 7//7 32//32 9//9
f 21//21 12//12 11//11
f 22//22 4//4 13//13
f 24//24 14//14 13//13
f 24//24 13//13 3//3
f 24//24 79//79 14//14
f 24//24 3//3 89//89
f 25//25 23//23 7//7
f 64//64 12//12 6//6
f 26//26 12//12 1//1
f 26//26 11//11 12//12
f 27//27 1//1 12//12
f 28//28 26//26 82//82
f 28//28 11//11 26//26
f 29//29 16//16 6//6
f 29//29 6//6 48//48
f 29//29 48//48 16//16
f 95//95 6//6 16//16
f 8//8 17//17 2//2
f 100//100 18//18 7//7
f 74//74 3//3 4//4
f 117//117 74//74 4//4
f 99//99 32//32 50//50
f 33//33 8//8 2//2
f 34//34 2//2 32//32
f 34//34 33//33 2//2
f 34//34 32//32 99//99
f 35//35 20//20 7//7
f 35//35 7//7 23//23
f 36//36 35//35 23//23
f 98//98 7//7 20//20
f 38//38 4//4 12//12
f 38//38 12//12 21//21
f 38//38 117//117 4//4
f 39//39 22//22 13//13
f 39//39 13//13 10//10
f 40//40 23//23 14//14
f 40//40 14//14 5//5
f 60//60 103//103 23//23
f 41//41 14//14 79//79
f 42//42 24//24 89//89
f 10//10 25//25 4//4
f 10//10 4//4 22//22
f 10//10 22//22 39//39
f 80//80 36//36 23//23
f 43//43 23//23 103//103
f 45//45 26//26 1//1
f 102//102 21//21 11//11
f 46//46 91//91 6//6
f 46//46 6//6 95//95
f 47//47 30//30 16//16
f 47//47 16//16 48//48
f 47//47 48//48 30//30
f 68//68 16//16 30//30
f 48//48 17//17 31//31
f 98//98 100//100 7//7
f 50//50 32//32 18//18
f 87//87 89//89 3//3
f 87//87 3//3 73//73
f 74//74 115//115 3//3
f 53//53 34//34 19//19
f 53//53 33//33 34//34
f 54//54 34//34 99//99
f 54//54 19//19 34//34
f 35//35 36//36 20//20
f 57//57 37//37 20//20
f 57//57 20//20 15//15
f 57//57 98//98 37//37
f 37//37 98//98 20//20
f 58//58 38//38 21//21
f 58//58 116//116 38//38
f 60//60 23//23 40//40
f 61//61 5//5 14//14
f 61//61 14//14 41//41
f 61//61 42//42 89//89
f 62//62 79//79 24//24
f 62//62 24//24 42//42
f 63//63 80//80 23//23
f 63//63 104//104 80//80
f 63//63 43//43 104//104
f 63//63 23//23 43//43
f 44//44 64//64 91//91
f 64//64 6//6 91//91
f 64//64 44//44 12//12
f 44//44 27//27 12//12
f 82//82 26//26 45//45
f 65//65 45//45 1//1
f 65//65 1//1 27//27
f 28//28 102//102 11//11
f 66//66 28//28 82//82
f 70//70 84//84 31//31
f 70//70 31//31 17//17
f 70//70 17//17 96//96
f 71//71 96//96 17//17
f 71//71 17//17 8//8
f 30//30 48//48 49//49
f 72//72 49//49 48//48
f 72//72 48//48 31//31
f 72//72 31//31 84//84
f 72//72 84//84 49//49
f 100//100 50//50 18//18
f 73//73 3//3 51//51
f 52//52 51//51 3//3
f 52//52 115//115 51//51
f 3//3 115//115 52//52
f 75//75 15//15 20//20
f 75//75 20//20 55//55
f 76//76 55//55 20//20
f 76//76 20//20 36//36
f 77//77 58//58 21//21
f 77//77 21//21 102//102
f 116//116 59//59 38//38
f 78//78 59//59 117//117
f 78//78 117//117 38//38
f 78//78 38//38 59//59
f 79//79 62//62 42//42
f 79//79 42//42 61//61
f 82//82 45//45 65//65
f 92//92 65//65 27//27
f 92//92 27//27 44//44
f 83//83 95//95 16//16
f 83//83 16//16 68//68
f 84//84 30//30 49//49
f 97//97 85//85 69//69
f 86//86 54//54 99//99
f 86//86 33//33 53//53
f 50//50 114//114 99//99
f 114//114 100//100 113//113
f 88//88 57//57 15//15
f 88//88 15//15 75//75
f 101//101 75//75 55//55
f 101//101 55//55 76//76
f 101//101 88//88 75//75
f 101//101 57//57 88//88
f 66//66 77//77 102//102
f 66//66 58//58 77//77
f 66//66 111//111 116//116
f 66//66 116//116 58//58
f 61//61 41//41 79//79
f 89//89 119//119 61//61
f 106//106 119//119 89//89
f 92//92 94//94 122//122
f 92//92 82//82 65//65
f 91//91 46//46 95//95
f 91//91 95//95 94//94
f 108//108 93//93 85//85
f 94//94 44//44 91//91
f 109//109 92//92 122//122
f 111//111 66//66 109//109
f 123//123 127//127 81//81
f 110//110 67//67 107//107
f 67//67 125//125 107//107
f 95//95 83//83 68//68
f 69//69 8//8 33//33
f 69//69 71//71 8//8
f 96//96 71//71 69//69
f 96//96 69//69 85//85
f 96//96 84//84 70//70
f 85//85 84//84 96//96
f 97//97 112//112 85//85
f 84//84 68//68 30//30
f 84//84 93//93 68//68
f 114//114 50//50 100//100
f 114//114 97//97 69//69
f 86//86 53//53 19//19
f 99//99 114//114 86//86
f 113//113 98//98 56//56
f 113//113 100//100 98//98
f 125//125 97//97 114//114
f 51//51 87//87 73//73
f 115//115 74//74 117//117
f 123//123 126//126 117//117
f 115//115 117//117 126//126
f 102//102 28//28 66//66
f 116//116 111//111 123//123
f 105//105 60//60 40//40
f 105//105 40//40 5//5
f 105//105 118//118 103//103
f 104//104 43//43 103//103
f 104//104 103//103 118//118
f 105//105 5//5 61//61
f 105//105 61//61 118//118
f 87//87 106//106 89//89
f 104//104 90//90 80//80
f 36//36 80//80 90//90
f 36//36 101//101 76//76
f 107//107 113//113 56//56
f 104//104 119//119 120//120
f 81//81 120//120 119//119
f 44//44 94//94 92//92
f 92//92 109//109 66//66
f 122//122 94//94 93//93
f 122//122 93//93 108//108
f 109//109 122//122 127//127
f 81//81 127//127 110//110
f 125//125 67//67 112//112
f 112//112 97//97 125//125
f 112//112 124//124 108//108
f 85//85 93//93 84//84
f 95//95 93//93 94//94
f 86//86 19//19 54//54
f 86//86 114//114 69//69
f 57//57 56//56 98//98
f 113//113 125//125 114//114
f 87//87 51//51 126//126
f 51//51 115//115 126//126
f 56//56 57//57 101//101
f 90//90 56//56 101//101
f 90//90 101//101 36//36
f 116//116 123//123 117//117
f 117//117 59//59 116//116
f 126//126 106//106 87//87
f 104//104 120//120 90//90
f 120//120 107//107 56//56
f 104//104 118//118 119//119
f 81//81 106//106 126//126
f 121//121 81//81 126//126
f 110//110 120//120 81//81
f 107//107 120//120 110//110
f 82//82 92//92 66//66
f 112//112 108//108 85//85
f 108//108 127//127 122//122
f 111//111 109//109 127//127
f 81//81 121//121 123//123
f 124//124 112//112 67//67
f 107//107 125//125 113//113
f 86//86 69//69 33//33
f 121//121 126//126 123//123
f 123//123 111//111 127//127
f 90//90 120//120 56//56
f 118//118 61//61 119//119
f 106//106 81//81 119//119
f 124//124 110//110 127//127
f 68//68 93//93 95//95
f 105//105 103//103 60//60
f 127//127 108//108 124//124
f 124//124 67//67 110//110
# 250 faces, 0 coords texture

# End of File
