####
#
# OBJ File Generated by Meshlab
#
####
# Object suave_sweet_guava_nectar_body_wash_250_collision.obj
#
# Vertices: 127
# Faces: 250
#
####
vn 0.063837 0.442438 0.894524
v 0.006768 -0.031522 0.006412
vn 0.622060 0.724379 0.297181
v -0.001079 -0.031017 0.009507
vn -0.160727 -0.176249 0.971135
v 0.009943 0.009841 0.004625
vn -0.993008 -0.117773 0.008069
v 0.025738 -0.009449 0.123203
vn -0.065365 -0.997858 0.002614
v 0.003946 0.025213 0.041443
vn 0.869136 -0.494521 0.007203
v -0.014931 0.013611 0.103499
vn 0.316281 0.948081 -0.033305
v 0.002648 -0.038410 0.164500
vn 0.995464 -0.003924 0.095062
v -0.016602 0.003166 0.166377
vn 0.356775 0.912919 -0.198215
v 0.005045 -0.039658 0.193899
vn -0.474394 -0.879709 0.032588
v 0.006546 0.026619 0.157743
vn 0.137810 0.067904 0.988128
v 0.002291 -0.017748 0.004686
vn 0.617312 0.256560 0.743709
v -0.005277 -0.019677 0.006890
vn 0.947536 0.309070 0.081555
v -0.011527 -0.011472 0.022189
vn 0.976564 0.205854 0.062826
v -0.013936 -0.002103 0.042173
vn 0.814854 0.573926 0.081378
v -0.005075 -0.027433 0.037014
vn 0.585360 0.810773 -0.000494
v -0.004173 -0.031803 0.077868
vn 0.812235 0.582227 0.035859
v -0.007406 -0.028455 0.063308
vn 0.937096 0.348139 -0.025516
v -0.014198 -0.013188 0.087599
vn 0.783219 0.621230 0.025311
v -0.005194 -0.030926 0.109977
vn 0.899702 0.436091 0.019006
v -0.010118 -0.024100 0.118266
vn 0.963169 0.267731 0.025018
v -0.014169 -0.010751 0.104711
vn 0.669860 0.742480 0.003411
v -0.002392 -0.034121 0.138178
vn 0.900873 0.433912 -0.012143
v -0.011332 -0.019835 0.140659
vn 0.843253 0.537517 -0.000001
v -0.005327 -0.029344 0.159058
vn 0.984543 0.174030 0.019706
v -0.015180 -0.007123 0.160550
vn 0.742669 0.665409 -0.075324
v -0.003590 -0.033931 0.187521
vn 0.993363 0.044473 -0.106076
v -0.017359 0.002506 0.192848
vn 0.910685 0.413019 0.008223
v -0.010408 -0.024159 0.178561
vn 0.885035 0.368836 -0.284030
v -0.010873 -0.019679 0.199369
vn 0.645459 0.543103 -0.537050
v -0.001859 -0.028748 0.207747
vn 0.600489 0.156945 -0.784080
v -0.007793 -0.004703 0.210646
vn 0.158499 -0.108954 0.981329
v -0.002847 0.010313 0.004882
vn 0.529844 -0.107139 0.841301
v -0.009672 0.009480 0.006950
vn 0.202778 -0.501183 0.841247
v -0.003529 0.018891 0.007124
vn 0.931871 0.070536 0.355867
v -0.012783 -0.000985 0.010362
vn 0.996426 -0.036281 0.076284
v -0.014823 0.006347 0.023228
vn 0.803127 -0.496833 0.328853
v -0.011018 0.017717 0.013147
vn 0.548599 -0.831231 0.089969
v -0.005999 0.023274 0.019453
vn 0.122971 -0.942579 0.310519
v -0.000769 0.024233 0.012772
vn 0.404206 -0.914634 0.007871
v -0.006647 0.023123 0.035789
vn 0.974615 -0.222438 0.025431
v -0.016452 0.009096 0.060687
vn 0.828152 -0.560146 0.020016
v -0.012048 0.018152 0.042848
vn 0.973458 0.218594 0.067789
v -0.015850 -0.007803 0.061297
vn 0.519200 -0.854210 -0.027512
v -0.007406 0.023051 0.067431
vn 0.375678 -0.926651 0.013570
v -0.004268 0.023536 0.077970
vn 0.842322 -0.538807 0.013439
v -0.013966 0.014026 0.085772
vn 0.138065 -0.990238 0.019136
v -0.001113 0.024138 0.082978
vn 0.998682 -0.051264 0.002589
v -0.017003 0.004890 0.092754
vn 0.587010 -0.809502 0.011169
v -0.008443 0.022185 0.092625
vn 0.407116 -0.913161 0.019822
v -0.004778 0.023916 0.099980
vn -0.263304 -0.964474 0.021459
v 0.006424 0.024286 0.094227
vn 0.115369 -0.991635 0.057877
v -0.000012 0.025932 0.127320
vn 0.982195 0.187842 -0.003020
v -0.016679 -0.002608 0.126938
vn 0.962436 0.268842 -0.037957
v -0.014329 -0.012962 0.149647
vn 0.792303 -0.607436 0.057247
v -0.012627 0.018868 0.119636
vn 0.993380 -0.114294 0.011573
v -0.017323 0.006720 0.117920
vn 0.607793 -0.792497 0.050361
v -0.009710 0.024274 0.141553
vn 0.430306 -0.899729 0.072972
v -0.006618 0.024094 0.128739
vn 0.982226 -0.187207 -0.013647
v -0.015950 0.013425 0.145322
vn 0.899140 -0.436654 0.029667
v -0.014162 0.018693 0.155634
vn 0.909437 -0.415724 -0.009893
v -0.016288 0.014893 0.175018
vn 0.178432 -0.983634 0.025005
v -0.001649 0.028177 0.157987
vn 0.526885 -0.849332 -0.032045
v -0.006832 0.026494 0.181924
vn 0.889851 0.133786 -0.436196
v -0.014328 -0.003219 0.202589
vn 0.810411 -0.549525 -0.203116
v -0.014157 0.019134 0.190813
vn 0.133115 -0.744601 -0.654103
v 0.000206 0.023741 0.207764
vn 0.267022 -0.947124 -0.177918
v -0.001790 0.028134 0.197149
vn 0.116538 -0.205747 -0.971641
v -0.000590 0.015634 0.212922
vn 0.751797 -0.257802 -0.606910
v -0.010553 0.012263 0.209577
vn -0.475461 0.517516 0.711417
v 0.017198 -0.027282 0.007138
vn -0.214234 0.075040 0.973896
v 0.014772 -0.018224 0.004625
vn -0.211222 0.933661 0.289245
v 0.012960 -0.035690 0.012764
vn -0.867542 0.192514 0.458594
v 0.023529 -0.022897 0.008769
vn -0.972620 -0.221281 0.071025
v 0.023716 -0.005060 0.035503
vn 0.276493 0.960248 0.038404
v 0.007308 -0.036305 0.040228
vn -0.769994 0.627630 0.114844
v 0.021312 -0.031263 0.024359
vn -0.991318 0.128782 0.026538
v 0.024682 -0.019582 0.040669
vn -0.305073 0.952194 -0.016017
v 0.014432 -0.035808 0.044383
vn -0.803087 0.595451 -0.022118
v 0.021736 -0.030329 0.054039
vn 0.345121 0.938164 0.027199
v 0.003181 -0.035817 0.050861
vn -0.271371 0.962458 -0.005697
v 0.012380 -0.035507 0.079111
vn -0.770793 0.636919 -0.014570
v 0.021684 -0.028369 0.076452
vn -0.971790 0.235846 0.000298
v 0.025035 -0.021697 0.069310
vn -0.994395 -0.105291 0.009632
v 0.025134 -0.008438 0.058061
vn 0.276067 0.960366 0.038511
v 0.003694 -0.036264 0.104573
vn -0.850072 0.526567 0.010253
v 0.023080 -0.027261 0.088837
vn -0.999901 0.014007 0.001021
v 0.024941 -0.016332 0.085968
vn -0.401795 0.914643 0.044601
v 0.013025 -0.036164 0.104431
vn 0.048316 0.997084 0.059068
v 0.007546 -0.038173 0.140919
vn -0.823849 0.565649 0.036267
v 0.022045 -0.028757 0.107586
vn -0.978259 0.206622 0.017782
v 0.025231 -0.019745 0.111966
vn -0.699483 0.711758 0.064216
v 0.021163 -0.033080 0.130838
vn -0.205198 0.976506 -0.065801
v 0.012470 -0.039634 0.157819
vn -0.649786 0.759395 -0.033123
v 0.020092 -0.036241 0.159320
vn -0.993148 0.113063 0.029563
v 0.026248 -0.020530 0.151977
vn -0.981016 0.193923 -0.001587
v 0.027111 -0.023076 0.181044
vn -0.985622 -0.162426 0.046547
v 0.027111 -0.010598 0.175196
vn -0.255638 0.955154 -0.149436
v 0.013621 -0.040213 0.189619
vn -0.763455 0.633001 -0.128241
v 0.022272 -0.035101 0.187858
vn 0.126367 0.766051 -0.630236
v 0.007800 -0.034127 0.208758
vn -0.900298 0.225909 -0.372060
v 0.025718 -0.022548 0.204768
vn 0.167805 0.152552 -0.973945
v 0.001704 -0.024359 0.211658
vn -0.426676 0.541495 -0.724384
v 0.016907 -0.029416 0.212256
vn -0.494554 -0.036631 -0.868375
v 0.020707 -0.016944 0.210916
vn -0.731740 -0.190536 0.654410
v 0.020139 -0.000311 0.007575
vn -0.614435 -0.605786 0.505463
v 0.013614 0.016885 0.008909
vn -0.483432 -0.866009 0.127758
v 0.007932 0.023286 0.016896
vn -0.827642 -0.556850 0.070190
v 0.015281 0.016394 0.033710
vn -0.594269 -0.804254 0.004562
v 0.011170 0.022326 0.051396
vn -0.892309 -0.450398 0.030444
v 0.020254 0.012521 0.055084
vn -0.934914 -0.354347 -0.019342
v 0.022644 0.004839 0.073603
vn -0.705848 -0.708108 -0.019012
v 0.015488 0.017801 0.071906
vn -0.167987 -0.985789 -0.000147
v 0.005258 0.024131 0.073402
vn -0.959607 -0.281263 -0.006713
v 0.022412 0.002467 0.101908
vn -0.789478 -0.613672 -0.011455
v 0.016710 0.016607 0.091967
vn -0.828346 -0.560173 0.007010
v 0.016071 0.015952 0.115243
vn -0.454151 -0.890336 0.032397
v 0.007351 0.024616 0.116882
vn -0.937508 -0.347691 0.013771
v 0.020825 0.008669 0.145370
vn -0.770982 -0.636312 0.026334
v 0.014475 0.019564 0.139108
vn -0.899635 -0.435243 0.034924
v 0.018362 0.013899 0.161769
vn -0.747662 -0.664003 0.010082
v 0.014719 0.019643 0.157373
vn -0.369956 -0.928933 -0.014714
v 0.005779 0.028105 0.183471
vn -0.934445 -0.353766 0.040774
v 0.024374 0.001875 0.177010
vn -0.815948 -0.577984 0.012813
v 0.016436 0.017478 0.183344
vn -0.703968 -0.661618 -0.258245
v 0.016779 0.018165 0.203095
vn -0.944435 -0.170542 -0.280994
v 0.026075 -0.004101 0.202561
vn -0.435031 -0.280169 -0.855718
v 0.015742 0.009455 0.210934
# 127 vertices, 0 vertices normals

f 12//12 2//2 1//1
f 12//12 1//1 11//11
f 33//33 35//35 12//12
f 33//33 12//12 11//11
f 33//33 11//11 32//32
f 32//32 11//11 3//3
f 15//15 2//2 13//13
f 15//15 75//75 2//2
f 35//35 13//13 12//12
f 2//2 12//12 13//13
f 75//75 15//15 80//80
f 15//15 13//13 14//14
f 80//80 15//15 17//17
f 43//43 14//14 41//41
f 43//43 15//15 14//14
f 17//17 15//15 43//43
f 17//17 16//16 80//80
f 16//16 17//17 18//18
f 43//43 18//18 17//17
f 19//19 85//85 16//16
f 16//16 18//18 19//19
f 20//20 19//19 21//21
f 19//19 18//18 21//21
f 22//22 89//89 85//85
f 22//22 85//85 19//19
f 20//20 22//22 19//19
f 20//20 21//21 53//53
f 23//23 20//20 53//53
f 22//22 20//20 23//23
f 24//24 22//22 23//23
f 23//23 53//53 54//54
f 24//24 23//23 54//54
f 7//7 22//22 24//24
f 26//26 7//7 24//24
f 24//24 54//54 25//25
f 9//9 7//7 26//26
f 26//26 24//24 28//28
f 27//27 28//28 25//25
f 25//25 8//8 27//27
f 28//28 24//24 25//25
f 27//27 29//29 28//28
f 9//9 26//26 30//30
f 26//26 28//28 29//29
f 100//100 9//9 30//30
f 30//30 26//26 29//29
f 64//64 29//29 27//27
f 30//30 31//31 102//102
f 30//30 29//29 31//31
f 29//29 64//64 31//31
f 35//35 33//33 37//37
f 33//33 32//32 34//34
f 34//34 37//37 33//33
f 34//34 32//32 3//3
f 34//34 3//3 106//106
f 37//37 34//34 39//39
f 106//106 39//39 34//34
f 36//36 13//13 35//35
f 36//36 35//35 37//37
f 13//13 36//36 14//14
f 42//42 36//36 37//37
f 37//37 39//39 38//38
f 42//42 37//37 38//38
f 39//39 107//107 5//5
f 5//5 107//107 109//109
f 41//41 14//14 36//36
f 41//41 36//36 42//42
f 42//42 38//38 40//40
f 39//39 40//40 38//38
f 40//40 39//39 5//5
f 42//42 40//40 44//44
f 44//44 40//40 5//5
f 113//113 45//45 44//44
f 113//113 44//44 5//5
f 44//44 46//46 41//41
f 41//41 42//42 44//44
f 113//113 47//47 45//45
f 46//46 44//44 45//45
f 18//18 43//43 48//48
f 48//48 43//43 41//41
f 48//48 41//41 46//46
f 48//48 46//46 6//6
f 49//49 46//46 45//45
f 48//48 21//21 18//18
f 56//56 21//21 48//48
f 6//6 56//56 48//48
f 6//6 46//46 49//49
f 45//45 47//47 49//49
f 49//49 47//47 50//50
f 50//50 47//47 51//51
f 55//55 6//6 50//50
f 6//6 49//49 50//50
f 58//58 50//50 52//52
f 21//21 56//56 53//53
f 56//56 6//6 55//55
f 55//55 50//50 58//58
f 52//52 50//50 51//51
f 117//117 52//52 51//51
f 59//59 53//53 56//56
f 59//59 54//54 53//53
f 59//59 56//56 55//55
f 59//59 55//55 57//57
f 57//57 55//55 58//58
f 52//52 57//57 58//58
f 25//25 54//54 59//59
f 60//60 25//25 59//59
f 59//59 57//57 60//60
f 57//57 52//52 62//62
f 60//60 57//57 62//62
f 25//25 60//60 8//8
f 8//8 60//60 61//61
f 60//60 62//62 63//63
f 61//61 60//60 63//63
f 62//62 52//52 117//117
f 122//122 63//63 62//62
f 62//62 10//10 122//122
f 27//27 8//8 61//61
f 61//61 65//65 27//27
f 61//61 63//63 67//67
f 65//65 61//61 67//67
f 64//64 27//27 69//69
f 69//69 27//27 65//65
f 66//66 65//65 67//67
f 69//69 66//66 68//68
f 66//66 69//69 65//65
f 67//67 63//63 122//122
f 68//68 102//102 31//31
f 69//69 31//31 64//64
f 68//68 31//31 69//69
f 11//11 1//1 71//71
f 1//1 70//70 71//71
f 1//1 72//72 70//70
f 72//72 76//76 70//70
f 73//73 71//71 70//70
f 11//11 71//71 3//3
f 105//105 71//71 73//73
f 3//3 71//71 105//105
f 72//72 1//1 2//2
f 72//72 2//2 75//75
f 78//78 72//72 75//75
f 78//78 76//76 72//72
f 73//73 70//70 76//76
f 74//74 105//105 73//73
f 74//74 73//73 77//77
f 77//77 76//76 79//79
f 77//77 73//73 76//76
f 84//84 74//74 77//77
f 78//78 79//79 76//76
f 80//80 78//78 75//75
f 79//79 83//83 77//77
f 84//84 77//77 83//83
f 16//16 81//81 80//80
f 80//80 81//81 78//78
f 81//81 79//79 78//78
f 83//83 79//79 82//82
f 87//87 84//84 83//83
f 114//114 111//111 84//84
f 114//114 84//84 87//87
f 16//16 85//85 81//81
f 82//82 79//79 81//81
f 88//88 81//81 85//85
f 86//86 82//82 81//81
f 88//88 86//86 81//81
f 82//82 86//86 83//83
f 86//86 87//87 83//83
f 87//87 4//4 114//114
f 91//91 4//4 87//87
f 90//90 86//86 88//88
f 91//91 86//86 90//90
f 91//91 87//87 86//86
f 85//85 89//89 88//88
f 88//88 92//92 90//90
f 92//92 88//88 89//89
f 89//89 93//93 92//92
f 91//91 90//90 92//92
f 91//91 95//95 4//4
f 95//95 91//91 92//92
f 95//95 92//92 94//94
f 118//118 4//4 95//95
f 89//89 7//7 93//93
f 94//94 93//93 7//7
f 89//89 22//22 7//7
f 93//93 94//94 92//92
f 97//97 118//118 95//95
f 98//98 99//99 94//94
f 96//96 95//95 94//94
f 97//97 95//95 96//96
f 9//9 98//98 7//7
f 98//98 94//94 7//7
f 96//96 94//94 99//99
f 101//101 126//126 96//96
f 126//126 97//97 96//96
f 100//100 98//98 9//9
f 103//103 98//98 100//100
f 99//99 98//98 103//103
f 99//99 101//101 96//96
f 101//101 99//99 103//103
f 104//104 101//101 103//103
f 104//104 126//126 101//101
f 127//127 126//126 104//104
f 100//100 30//30 102//102
f 103//103 100//100 102//102
f 104//104 103//103 102//102
f 127//127 104//104 102//102
f 3//3 105//105 106//106
f 106//106 105//105 74//74
f 108//108 106//106 74//74
f 106//106 107//107 39//39
f 108//108 107//107 106//106
f 108//108 109//109 107//107
f 110//110 108//108 74//74
f 74//74 84//84 110//110
f 84//84 111//111 110//110
f 110//110 109//109 108//108
f 109//109 113//113 5//5
f 112//112 110//110 111//111
f 113//113 109//109 112//112
f 109//109 110//110 112//112
f 51//51 113//113 112//112
f 51//51 112//112 115//115
f 115//115 111//111 114//114
f 115//115 112//112 111//111
f 51//51 47//47 113//113
f 115//115 114//114 116//116
f 115//115 117//117 51//51
f 117//117 115//115 116//116
f 114//114 118//118 116//116
f 118//118 114//114 4//4
f 118//118 119//119 116//116
f 117//117 116//116 119//119
f 10//10 62//62 117//117
f 10//10 117//117 119//119
f 10//10 119//119 121//121
f 120//120 121//121 119//119
f 119//119 118//118 120//120
f 97//97 120//120 118//118
f 97//97 123//123 120//120
f 123//123 124//124 120//120
f 121//121 120//120 124//124
f 10//10 121//121 122//122
f 122//122 121//121 124//124
f 126//126 123//123 97//97
f 126//126 125//125 123//123
f 125//125 124//124 123//123
f 126//126 127//127 125//125
f 67//67 122//122 125//125
f 122//122 124//124 125//125
f 66//66 67//67 125//125
f 66//66 125//125 127//127
f 127//127 102//102 68//68
f 127//127 68//68 66//66
# 250 faces, 0 coords texture

# End of File
