####
#
# OBJ File Generated by Meshlab
#
####
# Object detergent_250_collision.obj
#
# Vertices: 175
# Faces: 350
#
####
vn -0.425427 -0.177391 -0.887437
v -0.011342 0.023754 0.001894
vn -0.587809 -0.609307 -0.532189
v 0.030320 -0.022855 0.178275
vn 0.835443 -0.228138 0.499989
v 0.060565 0.025514 0.210586
vn 0.146402 0.961817 0.231245
v 0.029194 0.069593 0.242450
vn -0.285214 -0.271367 -0.919246
v 0.017441 -0.027725 0.002939
vn -0.365621 -0.303888 -0.879757
v 0.014306 -0.022224 0.002281
vn -0.539445 -0.222948 -0.811969
v -0.005914 0.008376 0.002741
vn -0.435830 -0.262350 -0.860944
v 0.001493 -0.008587 0.002940
vn -0.424690 -0.199830 -0.883010
v -0.009110 0.015890 0.002992
vn -0.658209 -0.751117 -0.050833
v 0.021533 -0.040452 0.022503
vn -0.760955 -0.576590 -0.297475
v 0.004732 -0.019894 0.011347
vn -0.894933 -0.405998 -0.185099
v -0.008517 0.004493 0.009332
vn -0.863204 -0.504251 0.024686
v -0.002921 -0.004966 0.052448
vn -0.364862 -0.930765 0.023494
v 0.031837 -0.049482 0.062660
vn -0.786821 -0.609694 0.095845
v 0.008610 -0.022639 0.070107
vn -0.370380 -0.776114 0.510358
v 0.017795 -0.026694 0.087439
vn -0.933795 -0.357549 0.013656
v -0.012802 0.015958 0.063301
vn -0.906162 -0.421136 0.038920
v -0.010376 0.011268 0.087074
vn -0.746462 -0.655073 0.116936
v -0.001223 -0.003190 0.112683
vn -0.180055 -0.963441 0.198397
v 0.007203 -0.005765 0.126011
vn -0.690955 -0.716964 0.092434
v 0.000496 0.000209 0.154015
vn 0.321024 -0.928377 0.187243
v 0.037813 -0.003150 0.132602
vn -0.925458 -0.366829 0.094677
v -0.009880 0.018155 0.143508
vn -0.332494 -0.926428 -0.176576
v 0.010314 -0.005708 0.162908
vn -0.296927 -0.788426 -0.538720
v 0.019556 -0.012514 0.175923
vn -0.835085 -0.550052 -0.008698
v 0.002164 0.001994 0.174333
vn -0.954042 -0.296595 -0.042839
v -0.009011 0.029219 0.170246
vn -0.633082 -0.756333 -0.164826
v 0.012732 -0.013990 0.185519
vn -0.554804 -0.676014 0.484973
v 0.009501 -0.009037 0.198399
vn -0.865764 -0.472366 0.165299
v -0.007571 0.011727 0.195856
vn -0.151995 -0.756059 0.636610
v 0.022220 0.000816 0.212717
vn -0.731852 -0.621437 0.279657
v 0.002527 0.013391 0.209072
vn -0.702809 -0.640601 0.309339
v -0.000302 0.015966 0.230428
vn -0.210656 -0.939938 0.268588
v 0.018811 0.003888 0.229947
vn -0.486625 -0.824144 0.289798
v 0.013052 0.013305 0.241994
vn -0.441599 -0.369838 0.817441
v 0.002924 0.024494 0.263007
vn -0.136964 -0.927589 0.347593
v 0.020341 0.011083 0.259157
vn -0.518763 -0.126694 -0.845478
v -0.016101 0.034130 0.002944
vn -0.874448 -0.288873 -0.389734
v -0.018597 0.029454 0.008666
vn -0.186614 -0.040554 -0.981596
v -0.016224 0.039408 0.002345
vn -0.141439 -0.003279 -0.989942
v -0.018086 0.044334 0.002910
vn -0.360122 -0.115016 -0.925788
v -0.020097 0.051546 0.002951
vn -0.721928 0.207107 -0.660247
v -0.023178 0.064179 0.002866
vn -0.194442 0.393293 -0.898617
v 0.007231 0.084904 0.002394
vn -0.049361 0.300272 -0.952576
v 0.014960 0.088500 0.002940
vn -0.313136 0.854685 -0.414077
v 0.010978 0.092751 0.008960
vn -0.970489 -0.132971 -0.201172
v -0.023136 0.050076 0.011807
vn -0.952499 0.278550 -0.123107
v -0.023249 0.071493 0.010509
vn -0.987998 -0.152278 0.025909
v -0.022781 0.047376 0.047925
vn -0.563221 0.726224 -0.394184
v -0.014803 0.080256 0.009676
vn 0.025953 0.912174 -0.408981
v 0.025267 0.096074 0.008565
vn -0.472311 0.880563 -0.039132
v -0.003635 0.093409 0.052333
vn -0.154553 0.983915 -0.089582
v 0.018508 0.098596 0.034261
vn -0.858283 0.512176 0.032034
v -0.021211 0.078296 0.060534
vn -0.547840 0.818213 0.174351
v -0.005618 0.086416 0.106655
vn -0.190217 0.980574 0.047878
v 0.011625 0.099181 0.070962
vn -0.975546 -0.213985 0.050212
v -0.019332 0.038200 0.086132
vn -0.976637 -0.192393 0.095736
v -0.015603 0.034937 0.131918
vn -0.968016 0.223044 0.114876
v -0.018931 0.061586 0.127905
vn -0.955201 0.274733 0.110055
v -0.020825 0.067273 0.101236
vn 0.098044 0.986693 0.129709
v 0.026089 0.098005 0.095758
vn -0.381050 0.900766 0.208379
v 0.007291 0.084026 0.135379
vn -0.985110 -0.051980 0.163879
v -0.017611 0.040528 0.191215
vn -0.996513 0.077781 -0.030214
v -0.014768 0.056271 0.171026
vn -0.677138 0.714827 0.174658
v -0.010215 0.071582 0.141355
vn 0.089138 0.994847 0.048304
v 0.029105 0.086170 0.161003
vn -0.746582 0.665186 -0.011985
v -0.007546 0.070703 0.162025
vn -0.396982 0.917404 -0.027851
v 0.010306 0.080884 0.157649
vn -0.885189 0.431772 0.173245
v -0.014983 0.065112 0.188172
vn -0.971666 -0.108576 0.209947
v -0.008183 0.035598 0.210498
vn -0.789027 0.473757 0.391140
v -0.002703 0.062649 0.205775
vn -0.469014 0.847461 0.248669
v 0.006327 0.085778 0.186971
vn -0.008264 0.996777 0.079797
v 0.022038 0.089476 0.182712
vn -0.524575 0.819540 0.230598
v 0.007737 0.069726 0.208835
vn 0.070146 0.930407 0.359754
v 0.030275 0.077205 0.208555
vn -0.954705 -0.273047 0.118253
v -0.008722 0.030589 0.229085
vn -0.953402 -0.108300 0.281594
v -0.004293 0.037958 0.242822
vn -0.897159 0.390789 0.205885
v -0.008083 0.050902 0.230144
vn -0.607628 0.772644 0.183872
v 0.002050 0.065577 0.228154
vn -0.582317 0.765818 0.272817
v 0.007345 0.064388 0.238285
vn -0.858837 0.045094 0.510260
v -0.002845 0.038004 0.260720
vn -0.791093 0.530908 0.303824
v 0.002358 0.057811 0.258008
vn -0.258043 0.882433 0.393352
v 0.018857 0.068302 0.259587
vn -0.353719 0.293014 0.888271
v 0.008539 0.055662 0.265282
vn -0.423788 -0.779496 -0.461292
v 0.030206 -0.043215 0.005937
vn 0.134270 -0.631702 -0.763495
v 0.047835 -0.042054 0.002830
vn -0.041004 0.141233 -0.989127
v 0.061213 -0.035248 0.002939
vn 0.133901 -0.195365 -0.971547
v 0.066359 -0.032933 0.002945
vn -0.037110 0.101990 -0.994093
v 0.051780 -0.038107 0.002152
vn 0.572018 -0.766482 -0.292064
v 0.074707 -0.034484 0.012773
vn 0.566397 -0.076217 -0.820601
v 0.078945 -0.012712 0.002005
vn 0.795343 -0.381459 -0.471082
v 0.080647 -0.023345 0.006064
vn 0.968654 0.035808 -0.245820
v 0.085535 -0.007046 0.012845
vn 0.557963 0.113433 -0.822076
v 0.077188 0.010148 0.001970
vn 0.009558 -0.983547 -0.180401
v 0.044124 -0.049645 0.020312
vn 0.935601 -0.353051 -0.002176
v 0.083573 -0.029085 0.057318
vn 0.989211 0.139558 0.044554
v 0.083525 -0.005267 0.038814
vn 0.943340 0.331139 0.021367
v 0.074711 0.033959 0.034232
vn 0.982364 0.074958 0.171296
v 0.080005 0.011964 0.076883
vn 0.435656 -0.899284 -0.038626
v 0.066917 -0.047257 0.059375
vn -0.639786 -0.619307 0.455119
v 0.032423 -0.046310 0.084208
vn 0.322282 0.648783 0.689358
v 0.056379 -0.020025 0.098360
vn 0.717758 -0.005857 0.696268
v 0.076371 -0.003998 0.085224
vn 0.954789 0.012035 0.297040
v 0.083009 -0.019645 0.079519
vn -0.946513 -0.178597 0.268731
v 0.044623 -0.040479 0.105119
vn 0.004795 -0.989097 0.147185
v 0.053227 -0.051177 0.093133
vn 0.914712 -0.254232 0.314114
v 0.074523 -0.039111 0.094283
vn 0.159790 -0.460688 0.873060
v 0.048090 -0.014268 0.100527
vn 0.166554 -0.878974 0.446839
v 0.022456 -0.017013 0.100572
vn 0.813731 0.580561 0.028107
v 0.068790 -0.029161 0.106974
vn -0.388747 0.911118 -0.136895
v 0.050983 -0.024341 0.110062
vn 0.782640 -0.610748 0.120256
v 0.067051 -0.040564 0.119275
vn 0.717981 -0.669252 0.191326
v 0.064954 -0.035464 0.156034
vn 0.579791 0.808717 -0.099094
v 0.062846 -0.021519 0.128245
vn 0.999632 -0.020804 0.017385
v 0.069881 -0.033321 0.121669
vn 0.984095 0.156514 -0.084025
v 0.068007 -0.026644 0.163061
vn 0.809618 -0.499304 0.308569
v 0.072387 0.012675 0.107051
vn 0.442333 -0.835629 0.325677
v 0.048371 -0.000520 0.123908
vn 0.990456 -0.081692 0.111008
v 0.075453 0.025739 0.114553
vn -0.924283 -0.342938 -0.167612
v 0.042607 -0.033241 0.160954
vn -0.160254 -0.973701 0.161941
v 0.051074 -0.044668 0.138860
vn -0.872138 0.464533 -0.153573
v 0.043531 -0.025489 0.140311
vn 0.524763 -0.761626 0.380197
v 0.058437 -0.034510 0.172336
vn -0.750313 -0.614676 -0.243318
v 0.040147 -0.031154 0.171414
vn 0.226591 -0.939117 -0.258296
v 0.037631 -0.003348 0.154770
vn 0.779382 -0.626120 -0.023174
v 0.069728 0.021264 0.151649
vn -0.481457 0.502122 -0.718381
v 0.045982 -0.014954 0.161956
vn -0.413178 -0.505991 -0.757138
v 0.038726 -0.008275 0.165832
vn -0.039058 0.955697 -0.291750
v 0.052178 -0.013917 0.156235
vn 0.394838 0.476470 -0.785544
v 0.053819 -0.009152 0.165818
vn 0.385184 -0.354126 -0.852190
v 0.045383 -0.006765 0.163959
vn 0.532372 -0.196697 -0.823341
v 0.064983 0.003346 0.174675
vn -0.510713 -0.850216 0.127689
v 0.030381 -0.026066 0.187503
vn -0.214155 -0.906188 0.364638
v 0.044438 -0.033167 0.182846
vn 0.903136 -0.344021 0.256896
v 0.069899 -0.011720 0.187084
vn 0.416453 -0.519853 0.745869
v 0.059530 -0.015959 0.194919
vn -0.125033 -0.712247 0.690703
v 0.030222 -0.018825 0.198493
vn 0.441143 -0.806890 0.392837
v 0.045830 0.004845 0.210690
vn 0.854676 -0.048947 -0.516850
v 0.068781 -0.003446 0.180093
vn 0.887167 -0.331783 -0.320708
v 0.069801 0.016030 0.169681
vn 0.950528 -0.132669 0.280885
v 0.073396 0.012951 0.194455
vn 0.867363 -0.416527 0.272371
v 0.059013 0.021506 0.228081
vn 0.346037 -0.888910 0.300161
v 0.038379 0.004200 0.228709
vn 0.318744 -0.886431 0.335621
v 0.038439 0.012140 0.242248
vn 0.816461 -0.502855 0.283773
v 0.052128 0.023628 0.240080
vn 0.407188 -0.672253 0.618283
v 0.040782 0.016813 0.262693
vn 0.508004 0.184073 -0.841457
v 0.071590 0.029273 0.002282
vn 0.477647 0.237846 -0.845744
v 0.061222 0.051695 0.001782
vn 0.830183 0.472449 -0.295953
v 0.065522 0.056283 0.009539
vn 0.479848 0.161336 -0.862390
v 0.074183 0.024160 0.002939
vn 0.907101 0.289180 -0.305848
v 0.078104 0.027120 0.011077
vn 0.096942 0.066537 -0.993064
v 0.056236 0.060142 0.002281
vn 0.502115 0.651828 -0.568331
v 0.039764 0.087507 0.003114
vn 0.851551 0.524221 0.007344
v 0.057650 0.068578 0.039496
vn 0.737194 0.673031 -0.059780
v 0.046925 0.084130 0.021647
vn 0.341532 0.938655 -0.047772
v 0.030539 0.098423 0.038676
vn 0.817933 0.574431 0.031853
v 0.056895 0.070388 0.091258
vn 0.670923 0.741234 0.020841
v 0.038631 0.092969 0.059591
vn 0.928489 0.370546 0.024554
v 0.071607 0.043411 0.090800
vn 0.995371 0.094333 0.018359
v 0.072199 0.031482 0.154690
vn 0.858684 0.511208 -0.036429
v 0.059839 0.055984 0.171336
vn 0.610494 0.787390 0.085524
v 0.040231 0.088261 0.113009
vn 0.614732 0.787168 -0.049707
v 0.039905 0.082334 0.166812
vn 0.967325 0.181526 0.177004
v 0.072420 0.036335 0.193525
vn 0.824631 0.555815 0.105138
v 0.059940 0.065290 0.190181
vn 0.948781 0.210132 0.235920
v 0.061691 0.043143 0.210159
vn 0.469079 0.865465 0.175883
v 0.043767 0.081759 0.189531
vn 0.646797 0.737226 0.195323
v 0.046944 0.068941 0.208456
vn 0.605860 0.757221 0.244030
v 0.047810 0.067132 0.229581
vn 0.943504 0.107707 0.313366
v 0.055938 0.043193 0.241953
vn 0.928493 0.329004 0.172212
v 0.061255 0.051435 0.228453
vn 0.684775 -0.086958 0.723547
v 0.053172 0.033927 0.263081
vn 0.713945 0.595707 0.367989
v 0.048950 0.057060 0.259124
vn -0.028669 0.978109 0.206107
v 0.026814 0.075961 0.227713
vn 0.214892 0.501671 0.837943
v 0.034657 0.063584 0.264625
# 175 vertices, 0 vertices normals

f 8//8 6//6 11//11
f 85//85 11//11 5//5
f 6//6 5//5 11//11
f 11//11 85//85 10//10
f 12//12 7//7 8//8
f 7//7 12//12 39//39
f 39//39 1//1 9//9
f 9//9 7//7 39//39
f 13//13 10//10 15//15
f 15//15 10//10 14//14
f 49//49 39//39 12//12
f 17//17 49//49 12//12
f 11//11 12//12 8//8
f 13//13 11//11 10//10
f 12//12 11//11 13//13
f 17//17 12//12 13//13
f 14//14 101//101 15//15
f 101//101 16//16 15//15
f 57//57 17//17 18//18
f 15//15 18//18 13//13
f 18//18 15//15 19//19
f 19//19 15//15 16//16
f 13//13 18//18 17//17
f 57//57 18//18 23//23
f 58//58 57//57 23//23
f 19//19 16//16 20//20
f 16//16 109//109 20//20
f 23//23 18//18 19//19
f 21//21 19//19 20//20
f 23//23 19//19 21//21
f 22//22 20//20 109//109
f 24//24 21//21 20//20
f 20//20 22//22 125//125
f 125//125 24//24 20//20
f 24//24 26//26 21//21
f 26//26 24//24 28//28
f 24//24 125//125 128//128
f 25//25 24//24 128//128
f 28//28 24//24 25//25
f 23//23 21//21 26//26
f 27//27 23//23 26//26
f 2//2 28//28 25//25
f 133//133 28//28 2//2
f 29//29 133//133 137//137
f 30//30 28//28 29//29
f 30//30 26//26 28//28
f 28//28 133//133 29//29
f 26//26 30//30 27//27
f 29//29 32//32 30//30
f 29//29 31//31 32//32
f 29//29 137//137 31//31
f 138//138 34//34 31//31
f 70//70 30//30 32//32
f 34//34 138//138 143//143
f 76//76 32//32 33//33
f 34//34 35//35 33//33
f 34//34 32//32 31//31
f 33//33 32//32 34//34
f 144//144 35//35 34//34
f 36//36 77//77 35//35
f 35//35 144//144 37//37
f 36//36 35//35 37//37
f 36//36 37//37 146//146
f 172//172 36//36 146//146
f 1//1 39//39 38//38
f 47//47 38//38 39//39
f 40//40 38//38 41//41
f 42//42 41//41 38//38
f 47//47 42//42 38//38
f 47//47 43//43 42//42
f 50//50 43//43 48//48
f 44//44 50//50 46//46
f 45//45 46//46 51//51
f 153//153 45//45 51//51
f 47//47 39//39 49//49
f 48//48 43//43 47//47
f 48//48 47//47 49//49
f 52//52 50//50 54//54
f 54//54 50//50 48//48
f 49//49 54//54 48//48
f 52//52 46//46 50//50
f 52//52 53//53 46//46
f 51//51 46//46 53//53
f 156//156 51//51 53//53
f 52//52 56//56 53//53
f 156//156 53//53 56//56
f 49//49 17//17 57//57
f 54//54 49//49 60//60
f 57//57 60//60 49//49
f 55//55 54//54 60//60
f 56//56 61//61 156//156
f 61//61 158//158 156//156
f 56//56 52//52 55//55
f 52//52 54//54 55//55
f 61//61 56//56 55//55
f 59//59 60//60 57//57
f 59//59 57//57 58//58
f 60//60 65//65 55//55
f 65//65 60//60 59//59
f 65//65 62//62 55//55
f 61//61 55//55 62//62
f 66//66 61//61 62//62
f 64//64 59//59 58//58
f 67//67 59//59 64//64
f 27//27 58//58 23//23
f 27//27 64//64 58//58
f 69//69 67//67 64//64
f 68//68 62//62 65//65
f 59//59 67//67 65//65
f 68//68 65//65 67//67
f 66//66 62//62 68//68
f 72//72 67//67 69//69
f 68//68 67//67 72//72
f 66//66 68//68 73//73
f 73//73 68//68 72//72
f 63//63 27//27 30//30
f 27//27 63//63 64//64
f 70//70 63//63 30//30
f 69//69 64//64 63//63
f 69//69 63//63 71//71
f 70//70 71//71 63//63
f 76//76 70//70 32//32
f 70//70 78//78 71//71
f 78//78 79//79 74//74
f 74//74 71//71 78//78
f 69//69 71//71 72//72
f 74//74 72//72 71//71
f 75//75 73//73 72//72
f 72//72 74//74 75//75
f 75//75 74//74 174//174
f 168//168 75//75 174//174
f 78//78 70//70 76//76
f 35//35 77//77 33//33
f 76//76 33//33 77//77
f 76//76 77//77 78//78
f 77//77 80//80 78//78
f 78//78 80//80 79//79
f 36//36 81//81 77//77
f 81//81 82//82 77//77
f 80//80 77//77 82//82
f 174//174 74//74 79//79
f 80//80 4//4 174//174
f 174//174 79//79 80//80
f 83//83 80//80 82//82
f 83//83 4//4 80//80
f 83//83 175//175 4//4
f 36//36 84//84 81//81
f 84//84 82//82 81//81
f 36//36 172//172 175//175
f 175//175 84//84 36//36
f 83//83 82//82 84//84
f 84//84 175//175 83//83
f 85//85 86//86 95//95
f 88//88 86//86 89//89
f 95//95 86//86 90//90
f 87//87 88//88 89//89
f 90//90 86//86 88//88
f 92//92 90//90 88//88
f 92//92 91//91 93//93
f 94//94 93//93 91//91
f 151//151 93//93 94//94
f 150//150 151//151 94//94
f 10//10 85//85 95//95
f 10//10 95//95 14//14
f 90//90 100//100 95//95
f 100//100 14//14 95//95
f 90//90 92//92 96//96
f 96//96 92//92 93//93
f 100//100 90//90 96//96
f 96//96 93//93 97//97
f 97//97 93//93 151//151
f 98//98 99//99 97//97
f 14//14 100//100 106//106
f 101//101 14//14 106//106
f 101//101 106//106 105//105
f 106//106 100//100 107//107
f 101//101 108//108 16//16
f 104//104 96//96 97//97
f 107//107 100//100 96//96
f 104//104 107//107 96//96
f 107//107 104//104 103//103
f 103//103 102//102 107//107
f 103//103 108//108 102//102
f 104//104 97//97 99//99
f 99//99 98//98 159//159
f 99//99 103//103 104//104
f 117//117 103//103 99//99
f 105//105 108//108 101//101
f 105//105 106//106 121//121
f 112//112 106//106 107//107
f 16//16 108//108 109//109
f 105//105 102//102 108//108
f 111//111 102//102 105//105
f 110//110 112//112 107//107
f 112//112 110//110 115//115
f 102//102 110//110 107//107
f 110//110 102//102 111//111
f 115//115 110//110 114//114
f 114//114 110//110 111//111
f 121//121 106//106 112//112
f 121//121 112//112 113//113
f 122//122 111//111 105//105
f 115//115 113//113 112//112
f 116//116 113//113 115//115
f 115//115 114//114 116//116
f 114//114 111//111 129//129
f 109//109 118//118 22//22
f 118//118 109//109 108//108
f 117//117 118//118 108//108
f 103//103 117//117 108//108
f 126//126 118//118 117//117
f 117//117 99//99 119//119
f 117//117 119//119 126//126
f 120//120 105//105 121//121
f 121//121 134//134 120//120
f 121//121 113//113 123//123
f 120//120 122//122 105//105
f 129//129 111//111 122//122
f 122//122 127//127 129//129
f 127//127 122//122 120//120
f 116//116 114//114 129//129
f 134//134 124//124 120//120
f 120//120 124//124 128//128
f 133//133 2//2 124//124
f 134//134 121//121 123//123
f 134//134 133//133 124//124
f 124//124 2//2 128//128
f 123//123 113//113 116//116
f 126//126 22//22 118//118
f 127//127 120//120 128//128
f 127//127 128//128 131//131
f 125//125 131//131 128//128
f 125//125 22//22 126//126
f 131//131 125//125 126//126
f 128//128 2//2 25//25
f 130//130 129//129 127//127
f 130//130 116//116 129//129
f 130//130 127//127 131//131
f 140//140 131//131 126//126
f 116//116 130//130 139//139
f 139//139 135//135 116//116
f 131//131 132//132 130//130
f 132//132 139//139 130//130
f 131//131 140//140 132//132
f 140//140 126//126 160//160
f 160//160 164//164 140//140
f 134//134 137//137 133//133
f 137//137 134//134 136//136
f 134//134 123//123 136//136
f 135//135 136//136 123//123
f 116//116 135//135 123//123
f 135//135 139//139 141//141
f 139//139 132//132 140//140
f 141//141 136//136 135//135
f 136//136 31//31 137//137
f 136//136 138//138 31//31
f 136//136 3//3 138//138
f 3//3 136//136 141//141
f 3//3 141//141 164//164
f 139//139 140//140 141//141
f 141//141 140//140 164//164
f 143//143 138//138 142//142
f 144//144 34//34 143//143
f 142//142 144//144 143//143
f 144//144 142//142 145//145
f 142//142 138//138 3//3
f 146//146 144//144 145//145
f 146//146 145//145 172//172
f 146//146 37//37 144//144
f 152//152 149//149 148//148
f 151//151 148//148 149//149
f 147//147 151//151 150//150
f 152//152 153//153 149//149
f 154//154 149//149 155//155
f 159//159 98//98 154//154
f 151//151 149//149 98//98
f 98//98 149//149 154//154
f 97//97 151//151 98//98
f 155//155 149//149 153//153
f 153//153 51//51 156//156
f 156//156 155//155 153//153
f 158//158 155//155 156//156
f 158//158 154//154 155//155
f 157//157 159//159 154//154
f 99//99 159//159 119//119
f 157//157 154//154 158//158
f 157//157 158//158 162//162
f 61//61 162//162 158//158
f 161//161 160//160 159//159
f 159//159 157//157 161//161
f 159//159 160//160 119//119
f 126//126 119//119 160//160
f 161//161 157//157 162//162
f 160//160 161//161 164//164
f 163//163 161//161 162//162
f 162//162 61//61 66//66
f 163//163 162//162 66//66
f 161//161 163//163 165//165
f 167//167 163//163 66//66
f 167//167 66//66 73//73
f 167//167 165//165 163//163
f 164//164 161//161 165//165
f 164//164 165//165 166//166
f 3//3 164//164 166//166
f 168//168 166//166 165//165
f 167//167 73//73 75//75
f 75//75 168//168 167//167
f 165//165 167//167 168//168
f 174//174 169//169 168//168
f 142//142 3//3 166//166
f 142//142 166//166 171//171
f 145//145 142//142 170//170
f 170//170 142//142 171//171
f 166//166 168//168 171//171
f 169//169 171//171 168//168
f 169//169 170//170 171//171
f 145//145 170//170 172//172
f 172//172 170//170 173//173
f 173//173 4//4 175//175
f 173//173 170//170 169//169
f 174//174 4//4 169//169
f 173//173 169//169 4//4
f 175//175 172//172 173//173
f 43//43 50//50 44//44
f 91//91 92//92 88//88
f 38//38 40//40 152//152
f 1//1 38//38 152//152
f 9//9 1//1 152//152
f 44//44 46//46 45//45
f 152//152 40//40 41//41
f 148//148 151//151 147//147
f 86//86 85//85 5//5
f 89//89 86//86 5//5
f 87//87 89//89 5//5
f 42//42 43//43 44//44
f 42//42 44//44 45//45
f 94//94 91//91 88//88
f 41//41 42//42 45//45
f 7//7 9//9 152//152
f 87//87 5//5 6//6
f 87//87 6//6 8//8
f 45//45 153//153 152//152
f 150//150 94//94 88//88
f 147//147 150//150 88//88
f 148//148 147//147 88//88
f 152//152 148//148 88//88
f 41//41 45//45 152//152
f 152//152 88//88 87//87
f 152//152 87//87 8//8
f 8//8 7//7 152//152
# 350 faces, 0 coords texture

# End of File
