####
#
# OBJ File Generated by Meshlab
#
####
# Object detergent_250_collision.obj
#
# Vertices: 127
# Faces: 250
#
####
vn 0.923608 0.330414 0.194356
v 0.060932 0.052472 0.231045
vn 0.728516 0.424993 -0.537257
v 0.067991 0.055618 0.005871
vn 0.993136 0.116200 -0.013397
v 0.086575 -0.000168 0.013685
vn 0.836460 0.545183 -0.055775
v 0.061614 0.068516 0.014847
vn 0.925275 0.371415 0.076919
v 0.068239 0.050705 0.193836
vn -0.825476 -0.563684 0.029145
v 0.005871 -0.032433 0.019569
vn -0.981662 0.180894 0.060145
v -0.021780 0.071164 0.061551
vn -0.854949 -0.226302 -0.466743
v -0.019185 0.032518 0.005871
vn -0.981125 -0.160970 0.107154
v -0.015262 0.039318 0.191734
vn -0.627450 -0.640854 0.442282
v 0.009796 0.020034 0.265581
vn 0.875426 0.143054 -0.461697
v 0.083777 0.016690 0.005873
vn 0.665990 0.640915 -0.381688
v 0.046256 0.090019 0.005871
vn 0.689339 0.696778 0.198275
v 0.051754 0.066793 0.228131
vn -0.833427 -0.532819 0.146639
v -0.001998 0.005748 0.195742
vn -0.958663 -0.284511 0.004459
v -0.019219 0.031311 0.013699
vn 0.825427 0.561232 0.060743
v 0.058270 0.068490 0.186321
vn 0.954412 0.298062 0.016041
v 0.079632 0.031052 0.015016
vn -0.906980 -0.408597 0.102149
v -0.008303 0.017034 0.195091
vn 0.787281 0.608938 0.096865
v 0.056738 0.070429 0.190203
vn -0.763668 0.623924 0.165920
v -0.007233 0.074448 0.187757
vn -0.969351 -0.245609 -0.005978
v -0.019650 0.032948 0.013699
vn 0.011534 -0.223121 -0.974723
v 0.044600 -0.047569 0.005871
vn 0.930674 -0.351219 0.102430
v 0.082248 -0.031150 0.079980
vn 0.997436 0.021117 0.068373
v 0.083985 -0.015501 0.075332
vn 0.871388 0.486052 0.066601
v 0.064601 0.058815 0.191946
vn 0.972981 0.213758 0.087267
v 0.072782 0.036709 0.188037
vn -0.595177 -0.772718 0.220616
v 0.015659 -0.013794 0.194307
vn -0.680554 -0.723261 -0.117212
v 0.006476 -0.033094 0.018882
vn -0.751480 -0.630853 0.193137
v 0.002632 -0.000632 0.195392
vn -0.696102 -0.691402 0.193405
v 0.007828 -0.005980 0.195694
vn -0.937238 -0.332427 0.105247
v -0.011652 0.025440 0.193737
vn 0.372280 -0.916625 0.145625
v 0.062255 -0.043868 0.127156
vn 0.506331 0.799305 0.323635
v 0.043431 0.061227 0.271112
vn -0.268240 0.945446 0.184877
v 0.015392 0.088022 0.188082
vn -0.985216 -0.155948 -0.070921
v -0.024025 0.050952 0.012514
vn -0.977638 -0.068498 0.198828
v -0.008302 0.038592 0.229445
vn 0.218192 -0.975904 -0.001927
v 0.056019 -0.051144 0.067618
vn -0.625217 -0.144215 0.767011
v 0.000156 0.035125 0.265928
vn 0.871295 -0.370819 0.321464
v 0.070478 -0.016410 0.182988
vn -0.504796 -0.831930 0.230378
v 0.026235 -0.021600 0.192049
vn -0.198191 -0.573108 0.795153
v 0.020733 0.014450 0.266263
vn -0.383863 -0.871083 0.306370
v 0.033365 -0.026466 0.188675
vn -0.288770 -0.952350 0.098186
v 0.041108 -0.051831 0.072792
vn -0.002502 -0.936635 0.350299
v 0.048287 -0.036434 0.175518
vn 0.964747 -0.263144 -0.004338
v 0.085429 -0.023972 0.037211
vn 0.974990 0.170586 0.142463
v 0.073276 0.031887 0.195034
vn 0.979397 -0.061655 0.192301
v 0.074298 0.014169 0.193859
vn 0.546064 0.836549 0.044717
v 0.036061 0.096697 0.073992
vn 0.863551 0.500833 -0.058700
v 0.065310 0.062512 0.014482
vn -0.553502 -0.828284 0.087069
v 0.031942 -0.045692 0.075390
vn -0.424169 -0.303928 -0.853058
v 0.008622 -0.024624 0.005871
vn -0.854037 -0.469083 0.224903
v -0.001329 0.022293 0.239041
vn -0.955376 -0.277822 0.100363
v -0.011742 0.025731 0.193737
vn -0.201344 0.875714 0.438845
v 0.020508 0.067881 0.262497
vn 0.684532 0.724019 0.084924
v 0.049529 0.078560 0.189526
vn 0.549531 0.821186 0.153849
v 0.045097 0.082223 0.188377
vn 0.227009 0.222033 0.948245
v 0.051021 0.054491 0.265865
vn -0.431820 0.729717 0.530136
v 0.013328 0.065269 0.262265
vn -0.495895 0.852018 0.167790
v 0.002286 0.082662 0.188405
vn -0.646543 0.740036 0.185283
v -0.003089 0.078266 0.188697
vn -0.961876 0.236336 0.137621
v -0.015292 0.057747 0.188240
vn -0.980799 0.193647 0.023099
v -0.024596 0.069596 0.012580
vn -0.999275 -0.015591 -0.034735
v -0.024901 0.061012 0.013485
vn -0.988387 0.085992 0.125287
v -0.015881 0.053137 0.189822
vn -0.993302 -0.050149 0.104099
v -0.015863 0.044882 0.191805
vn -0.968657 -0.230744 0.091986
v -0.013418 0.031888 0.193720
vn -0.932368 0.180066 0.313476
v 0.000097 0.045850 0.264091
vn 0.308825 -0.818274 0.484825
v 0.051737 -0.029147 0.187155
vn 0.998155 -0.000022 -0.060717
v 0.087122 -0.007407 0.014612
vn 0.958055 -0.191961 0.212796
v 0.073005 0.001731 0.191839
vn 0.991320 -0.108536 0.074197
v 0.084146 -0.025488 0.073943
vn 0.990312 0.057972 0.126178
v 0.074230 0.023607 0.194108
vn 0.410602 0.899475 -0.149504
v 0.036406 0.097788 0.010652
vn 0.959136 0.258920 0.114102
v 0.070518 0.044087 0.194517
vn -0.440839 -0.731810 -0.519727
v 0.021522 -0.040219 0.005902
vn -0.666641 -0.722647 0.182675
v 0.013729 -0.012164 0.194035
vn -0.944226 -0.271401 0.186492
v -0.006723 0.031311 0.230919
vn -0.729306 -0.344479 -0.591141
v -0.009227 0.004411 0.005870
vn 0.765841 -0.632845 0.113997
v 0.078481 -0.035018 0.090548
vn -0.848519 0.522316 0.084859
v -0.017354 0.080112 0.077053
vn -0.937324 0.342306 0.065198
v -0.019945 0.075204 0.074223
vn -0.124640 0.991529 0.036543
v 0.019581 0.100960 0.069736
vn -0.046103 0.981690 0.184820
v 0.021683 0.088854 0.187982
vn 0.037290 0.756443 0.652996
v 0.029301 0.068232 0.264399
vn 0.240079 0.955055 0.173872
v 0.033268 0.087668 0.187866
vn 0.640345 0.767826 0.020053
v 0.040405 0.094755 0.030412
vn -0.026588 0.754092 -0.656231
v 0.022327 0.098266 0.005871
vn 0.060837 0.996230 -0.061841
v 0.031189 0.099710 0.016320
vn -0.378163 0.924385 0.050057
v 0.004920 0.096859 0.069042
vn -0.849382 0.272453 -0.452017
v -0.023884 0.072278 0.005871
vn -0.913078 0.372321 0.166332
v -0.013408 0.063576 0.188087
vn -0.850718 0.489947 0.190345
v -0.011086 0.068477 0.187522
vn 0.791641 -0.262939 -0.551513
v 0.084371 -0.022945 0.005878
vn 0.739241 -0.587555 0.329093
v 0.069067 -0.023577 0.176706
vn 0.081533 -0.544532 0.834768
v 0.027045 0.013735 0.266201
vn -0.359095 -0.685174 0.633709
v 0.015311 0.015688 0.264282
vn 0.886342 -0.248260 0.390851
v 0.054023 0.033398 0.265619
vn 0.816630 0.551967 0.168663
v 0.056818 0.060598 0.229034
vn 0.303996 0.951597 0.045275
v 0.028812 0.100667 0.069930
vn 0.853264 0.354338 -0.382603
v 0.076855 0.039338 0.005872
vn 0.889547 0.454946 -0.041592
v 0.072070 0.050120 0.015660
vn -0.937059 -0.349106 -0.006697
v -0.014493 0.017251 0.014461
vn -0.817671 0.575163 0.024527
v -0.018682 0.080910 0.048644
vn 0.194822 0.824281 0.531606
v 0.035463 0.067011 0.263066
vn -0.589525 0.359001 0.723587
v 0.002648 0.052079 0.265695
vn 0.122925 0.976136 0.179022
v 0.029191 0.088456 0.188074
vn -0.407026 0.670720 -0.620051
v -0.013487 0.082503 0.005871
vn -0.704787 0.622114 0.340955
v 0.006135 0.059698 0.261548
vn 0.829147 -0.527242 0.185827
v 0.068984 -0.029472 0.164185
vn 0.561779 -0.763404 0.318777
v 0.064265 -0.034339 0.165645
vn 0.904795 0.024274 0.425156
v 0.053143 0.043131 0.271966
vn 0.788208 -0.615065 -0.020577
v 0.080878 -0.035221 0.053123
vn -0.723010 0.685979 0.081786
v -0.013871 0.084369 0.076266
vn 0.404132 0.900746 0.159167
v 0.038380 0.085942 0.187998
vn -0.272450 0.959028 -0.077699
v 0.016744 0.098845 0.022106
vn 0.078427 0.994933 0.062906
v 0.026366 0.100806 0.073034
vn -0.563426 0.825609 -0.030325
v -0.007897 0.091088 0.054814
vn 0.405476 -0.679941 0.610958
v 0.041589 0.016360 0.264787
vn 0.154532 -0.315646 0.936209
v 0.046051 0.020306 0.265330
vn -0.244590 -0.968193 -0.052711
v 0.035078 -0.048394 0.026842
vn 0.594418 -0.801682 0.063027
v 0.072627 -0.042981 0.080497
vn 0.255500 -0.960516 -0.110130
v 0.053464 -0.046815 0.016465
vn 0.519247 -0.770159 -0.370457
v 0.073833 -0.035824 0.005882
vn 0.676602 -0.579524 0.454270
v 0.061790 -0.014866 0.199867
vn 0.496195 -0.419843 0.759949
v 0.051685 0.027883 0.265645
vn -0.618740 0.782131 0.073701
v -0.011060 0.087937 0.068332
vn 0.491233 -0.869495 -0.051658
v 0.068308 -0.046092 0.063347
# 127 vertices, 0 vertices normals

f 1//1 5//5 25//25
f 98//98 1//1 25//25
f 88//88 87//87 115//115
f 88//88 99//99 73//73
f 62//62 63//63 64//64
f 62//62 64//64 7//7
f 21//21 35//35 8//8
f 22//22 123//123 122//122
f 69//69 45//45 93//93
f 24//24 47//47 71//71
f 24//24 72//72 47//47
f 19//19 16//16 12//12
f 87//87 73//73 12//12
f 86//86 12//12 73//73
f 3//3 26//26 46//46
f 101//101 100//100 2//2
f 4//4 2//2 12//12
f 4//4 49//49 2//2
f 49//49 4//4 25//25
f 74//74 5//5 1//1
f 17//17 26//26 11//11
f 74//74 26//26 17//17
f 28//28 76//76 6//6
f 27//27 28//28 50//50
f 27//27 76//76 28//28
f 28//28 51//51 75//75
f 28//28 6//6 78//78
f 29//29 14//14 6//6
f 30//30 29//29 6//6
f 30//30 6//6 76//76
f 30//30 10//10 29//29
f 102//102 6//6 18//18
f 102//102 78//78 6//6
f 61//61 7//7 64//64
f 65//65 35//35 9//9
f 65//65 63//63 35//35
f 65//65 9//9 36//36
f 8//8 35//35 90//90
f 35//35 63//63 90//90
f 21//21 15//15 66//66
f 21//21 8//8 15//15
f 66//66 9//9 35//35
f 66//66 35//35 21//21
f 97//97 47//47 111//111
f 45//45 69//69 71//71
f 69//69 3//3 72//72
f 46//46 72//72 3//3
f 69//69 11//11 3//3
f 70//70 47//47 97//97
f 11//11 26//26 3//3
f 2//2 49//49 101//101
f 25//25 100//100 101//101
f 25//25 5//5 100//100
f 17//17 11//11 100//100
f 76//76 10//10 30//30
f 51//51 28//28 78//78
f 14//14 18//18 6//6
f 18//18 31//31 102//102
f 53//53 66//66 15//15
f 53//53 15//15 31//31
f 56//56 33//33 13//13
f 57//57 13//13 33//33
f 54//54 83//83 34//34
f 126//126 113//113 60//60
f 20//20 60//60 113//113
f 7//7 61//61 81//81
f 63//63 62//62 90//90
f 64//64 63//63 65//65
f 65//65 36//36 64//64
f 66//66 36//36 9//9
f 38//38 67//67 36//36
f 41//41 95//95 57//57
f 95//95 44//44 68//68
f 26//26 74//74 1//1
f 125//125 97//97 111//111
f 41//41 44//44 95//95
f 42//42 43//43 44//44
f 69//69 24//24 71//71
f 93//93 11//11 69//69
f 94//94 109//109 23//23
f 94//94 23//23 39//39
f 71//71 70//70 23//23
f 23//23 45//45 71//71
f 39//39 97//97 125//125
f 72//72 46//46 111//111
f 46//46 1//1 111//111
f 16//16 25//25 4//4
f 4//4 12//12 16//16
f 5//5 17//17 100//100
f 74//74 17//17 5//5
f 120//120 28//28 75//75
f 50//50 120//120 43//43
f 50//50 43//43 40//40
f 18//18 14//14 52//52
f 77//77 36//36 66//66
f 77//77 66//66 53//53
f 77//77 53//53 31//31
f 102//102 31//31 15//15
f 102//102 15//15 8//8
f 32//32 44//44 43//43
f 103//103 90//90 62//62
f 81//81 62//62 7//7
f 106//106 83//83 84//84
f 82//82 34//34 83//83
f 83//83 54//54 84//84
f 57//57 38//38 41//41
f 56//56 55//55 48//48
f 86//86 48//48 55//55
f 86//86 55//55 12//12
f 55//55 56//56 13//13
f 104//104 33//33 114//114
f 85//85 84//84 104//104
f 88//88 73//73 87//87
f 106//106 116//116 83//83
f 59//59 58//58 34//34
f 59//59 34//34 89//89
f 54//54 34//34 58//58
f 59//59 126//126 60//60
f 20//20 108//108 60//60
f 61//61 64//64 67//67
f 81//81 61//61 91//91
f 84//84 54//54 58//58
f 58//58 60//60 108//108
f 58//58 59//59 60//60
f 91//91 80//80 81//81
f 91//91 92//92 80//80
f 92//92 20//20 80//80
f 38//38 36//36 77//77
f 127//127 37//37 122//122
f 38//38 52//52 10//10
f 52//52 14//14 29//29
f 52//52 29//29 10//10
f 94//94 39//39 124//124
f 94//94 124//124 119//119
f 94//94 119//119 118//118
f 94//94 118//118 110//110
f 79//79 23//23 109//109
f 46//46 26//26 1//1
f 125//125 111//111 57//57
f 40//40 43//43 42//42
f 40//40 27//27 50//50
f 95//95 68//68 118//118
f 40//40 42//42 96//96
f 27//27 40//40 96//96
f 27//27 96//96 10//10
f 24//24 69//69 72//72
f 39//39 23//23 70//70
f 70//70 71//71 47//47
f 47//47 72//72 111//111
f 12//12 55//55 19//19
f 98//98 19//19 13//13
f 13//13 57//57 98//98
f 101//101 49//49 25//25
f 28//28 120//120 50//50
f 27//27 10//10 76//76
f 52//52 38//38 77//77
f 102//102 8//8 78//78
f 103//103 81//81 80//80
f 81//81 103//103 62//62
f 117//117 90//90 103//103
f 105//105 38//38 57//57
f 55//55 13//13 19//19
f 33//33 104//104 57//57
f 106//106 84//84 85//85
f 104//104 114//114 85//85
f 114//114 56//56 48//48
f 114//114 33//33 56//56
f 73//73 48//48 86//86
f 87//87 107//107 115//115
f 115//115 82//82 88//88
f 107//107 117//117 115//115
f 91//91 67//67 105//105
f 91//91 61//61 67//67
f 105//105 84//84 58//58
f 105//105 58//58 108//108
f 91//91 105//105 92//92
f 20//20 92//92 108//108
f 64//64 36//36 67//67
f 38//38 105//105 67//67
f 57//57 95//95 119//119
f 57//57 119//119 125//125
f 94//94 110//110 109//109
f 125//125 124//124 39//39
f 110//110 32//32 79//79
f 110//110 118//118 68//68
f 111//111 1//1 57//57
f 38//38 10//10 96//96
f 38//38 96//96 41//41
f 42//42 44//44 41//41
f 70//70 97//97 39//39
f 98//98 25//25 16//16
f 98//98 16//16 19//19
f 1//1 98//98 57//57
f 22//22 122//122 120//120
f 22//22 120//120 75//75
f 22//22 75//75 51//51
f 22//22 93//93 123//123
f 22//22 51//51 78//78
f 22//22 11//11 93//93
f 22//22 78//78 8//8
f 22//22 100//100 11//11
f 22//22 8//8 90//90
f 22//22 90//90 107//107
f 22//22 107//107 87//87
f 22//22 87//87 12//12
f 22//22 12//12 2//2
f 22//22 2//2 100//100
f 52//52 77//77 31//31
f 120//120 37//37 43//43
f 121//121 32//32 37//37
f 37//37 32//32 43//43
f 103//103 126//126 117//117
f 103//103 113//113 126//126
f 90//90 117//117 107//107
f 114//114 48//48 99//99
f 114//114 99//99 85//85
f 116//116 106//106 85//85
f 116//116 85//85 99//99
f 99//99 48//48 73//73
f 89//89 115//115 117//117
f 82//82 115//115 89//89
f 116//116 88//88 82//82
f 116//116 99//99 88//88
f 89//89 126//126 59//59
f 108//108 92//92 105//105
f 93//93 112//112 123//123
f 105//105 57//57 84//84
f 119//119 95//95 118//118
f 110//110 79//79 109//109
f 41//41 96//96 42//42
f 112//112 23//23 79//79
f 127//127 123//123 112//112
f 52//52 31//31 18//18
f 32//32 121//121 79//79
f 80//80 113//113 103//103
f 89//89 34//34 82//82
f 116//116 82//82 83//83
f 84//84 57//57 104//104
f 117//117 126//126 89//89
f 20//20 113//113 80//80
f 37//37 120//120 122//122
f 122//122 123//123 127//127
f 124//124 125//125 119//119
f 32//32 110//110 44//44
f 68//68 44//44 110//110
f 112//112 79//79 121//121
f 112//112 93//93 45//45
f 112//112 45//45 23//23
f 127//127 112//112 121//121
f 37//37 127//127 121//121
# 250 faces, 0 coords texture

# End of File
