####
#
# OBJ File Generated by Meshlab
#
####
# Object spam_250_collision.obj
#
# Vertices: 127
# Faces: 250
#
####
vn 0.083561 0.105558 0.990896
v 0.015656 0.046967 0.083534
vn -0.908740 -0.257349 0.328578
v -0.015679 -0.031325 0.080282
vn 0.947302 0.226438 -0.226595
v 0.024351 0.037182 0.009785
vn 0.305546 -0.330647 -0.892925
v 0.028162 -0.034723 0.007214
vn -0.006672 -0.998116 0.060997
v 0.002044 -0.044960 0.076683
vn 0.968715 0.202856 0.142969
v 0.023538 0.037169 0.080475
vn 0.001938 0.217865 -0.975977
v 0.003914 0.048923 0.007373
vn -0.813648 0.024187 0.580854
v -0.026392 0.031316 0.080863
vn 0.387343 -0.638240 0.665293
v 0.025405 -0.038365 0.082738
vn -0.947839 -0.311355 -0.068255
v -0.015252 -0.031311 0.015655
vn -0.550555 0.036981 -0.833979
v -0.024791 0.033679 0.007838
vn -0.125037 -0.984458 0.123322
v 0.000000 -0.045287 0.019569
vn 0.491701 0.045856 0.869556
v 0.031330 -0.018041 0.082102
vn -0.329576 0.931083 -0.156413
v -0.009785 0.049867 0.015656
vn 0.352643 0.126420 -0.927179
v 0.023483 0.035011 0.007828
vn 0.254661 0.966211 0.039809
v 0.012031 0.050983 0.078278
vn 0.879803 0.439625 -0.180768
v 0.023483 0.041096 0.010859
vn 0.585653 0.464238 0.664450
v 0.019014 0.046755 0.083388
vn -0.450940 -0.801070 -0.393624
v -0.006880 -0.041398 0.008911
vn 0.827170 -0.561546 -0.021358
v 0.031026 -0.034826 0.017612
vn 0.984668 0.167449 0.048884
v 0.033268 -0.013349 0.078278
vn -0.779187 -0.162396 0.605388
v -0.015656 -0.027397 0.081808
vn 0.064768 -0.397911 0.915135
v 0.020312 -0.039947 0.082808
vn -0.799750 -0.577725 0.163196
v -0.012733 -0.037469 0.080022
vn -0.966241 0.122894 -0.226440
v -0.025997 0.034868 0.011418
vn -0.140839 -0.934292 -0.327511
v -0.002526 -0.043797 0.012645
vn 0.562126 0.110438 0.819645
v 0.021526 0.039139 0.083160
vn 0.394256 -0.062691 0.916860
v 0.031311 -0.029354 0.082321
vn 0.859450 0.100235 -0.501297
v 0.032317 -0.011742 0.007828
vn 0.381295 0.917032 -0.116909
v 0.013699 0.051130 0.017612
vn 0.767176 0.641095 -0.020912
v 0.019569 0.046733 0.019569
vn -0.062576 -0.383858 -0.921270
v -0.001957 -0.041096 0.007283
vn 0.465858 -0.816844 -0.340209
v 0.025700 -0.038780 0.012016
vn 0.963788 -0.259152 -0.062873
v 0.033450 -0.029354 0.015656
vn 0.981749 0.189525 0.015802
v 0.025093 0.029354 0.078278
vn -0.984996 -0.157047 0.071543
v -0.025619 0.023514 0.078290
vn 0.400080 -0.913877 0.069026
v 0.023822 -0.040161 0.074364
vn 0.774181 -0.610148 0.168414
v 0.030687 -0.035397 0.080201
vn 0.484006 -0.873368 -0.054471
v 0.023817 -0.041099 0.017073
vn 0.179839 -0.939846 0.290427
v 0.011779 -0.043428 0.080843
vn -0.983439 -0.175023 -0.047051
v -0.026020 0.025440 0.015656
vn -0.982619 -0.169226 0.076305
v -0.019601 -0.011742 0.078278
vn -0.647697 -0.734007 0.204261
v -0.009718 -0.041014 0.080262
vn -0.982280 0.177998 0.058671
v -0.026001 0.035225 0.078278
vn -0.975661 -0.131379 0.175569
v -0.026099 0.027444 0.079924
vn -0.049085 -0.994771 -0.089564
v 0.003914 -0.045516 0.017612
vn -0.231226 -0.972662 0.021522
v -0.003914 -0.043832 0.078278
vn -0.007468 -0.924811 -0.380353
v 0.004892 -0.043473 0.010763
vn -0.248164 0.968632 -0.012906
v -0.007828 0.050895 0.023483
vn 0.627710 0.754414 -0.191937
v 0.019506 0.046187 0.011252
vn 0.409119 0.817482 0.405395
v 0.016267 0.049085 0.082619
vn 0.093942 0.251966 0.963166
v 0.014281 0.049101 0.083517
vn 0.811310 0.584463 -0.013402
v 0.021526 0.044071 0.017612
vn 0.182958 0.980320 -0.074161
v 0.010763 0.051832 0.017612
vn -0.095879 0.994240 -0.047903
v 0.001951 0.052552 0.018919
vn -0.276638 -0.018000 0.960806
v -0.023483 0.027397 0.081876
vn -0.284468 0.456122 0.843226
v -0.017633 0.044604 0.082467
vn 0.230937 -0.947737 -0.220140
v 0.015706 -0.043617 0.013673
vn 0.869688 -0.331819 -0.365430
v 0.031985 -0.029631 0.007833
vn 0.981565 0.157720 -0.107953
v 0.031696 -0.005871 0.009785
vn 0.992174 0.115934 -0.046373
v 0.034161 -0.019592 0.015365
vn 0.981176 0.184438 0.057232
v 0.032972 -0.011742 0.078278
vn -0.949931 -0.172458 0.260557
v -0.017277 -0.023483 0.080235
vn -0.989265 -0.138721 -0.045943
v -0.026439 0.027399 0.017610
vn -0.680391 -0.372504 -0.631117
v -0.013342 -0.032709 0.007845
vn -0.703988 -0.126217 -0.698906
v -0.021048 0.005925 0.007828
vn -0.979863 -0.192406 0.053375
v -0.017555 -0.023511 0.078305
vn -0.822793 -0.425082 0.377248
v -0.014095 -0.035249 0.080584
vn -0.529295 -0.847350 -0.042946
v -0.006282 -0.043279 0.021369
vn -0.971792 -0.119155 -0.203526
v -0.025794 0.025482 0.011741
vn -0.126290 -0.904766 0.406755
v -0.001036 -0.044395 0.080654
vn 0.051340 -0.987546 -0.148719
v 0.005866 -0.045545 0.017387
vn 0.648775 0.095566 0.754956
v 0.031311 -0.011742 0.081546
vn 0.886053 0.360571 0.291373
v 0.021441 0.043216 0.081790
vn 0.856439 -0.290383 0.426837
v 0.032426 -0.031524 0.080727
vn 0.844412 0.023831 0.535164
v 0.033804 -0.020865 0.080421
vn 0.973200 0.120785 0.195686
v 0.033543 -0.015629 0.079726
vn -0.275732 0.586793 -0.761345
v -0.019569 0.042475 0.007828
vn -0.218887 0.975224 0.032046
v -0.008806 0.049745 0.078278
vn -0.376249 0.926517 0.001987
v -0.013286 0.048923 0.046967
vn 0.637405 0.769800 -0.033524
v 0.017574 0.048890 0.019576
vn 0.092458 0.947308 -0.306692
v 0.005387 0.051577 0.010820
vn -0.240935 0.819063 -0.520659
v -0.005048 0.048386 0.007856
vn -0.190787 0.965490 -0.177286
v -0.004158 0.051246 0.016389
vn -0.457077 0.334682 0.824056
v -0.021820 0.041945 0.082209
vn 0.749081 -0.647485 -0.140144
v 0.030053 -0.035942 0.015163
vn 0.986931 0.152523 -0.051999
v 0.033511 -0.015794 0.013712
vn 0.932878 -0.356819 -0.049179
v 0.033047 -0.030653 0.016634
vn 0.556001 -0.829713 0.049391
v 0.028305 -0.037759 0.074494
vn -0.760979 -0.638052 -0.117478
v -0.010372 -0.039173 0.011634
vn -0.333646 -0.099100 0.937475
v -0.013526 -0.032055 0.082437
vn -0.944721 0.321695 -0.063357
v -0.026003 0.037162 0.016164
vn -0.657407 0.573690 -0.488565
v -0.021869 0.041225 0.007828
vn -0.998899 0.011233 -0.045553
v -0.026825 0.031315 0.016959
vn -0.141333 -0.989745 -0.020737
v -0.001776 -0.045228 0.019133
vn 0.114744 -0.993002 0.027940
v 0.007211 -0.045072 0.067442
vn -0.067666 -0.988652 0.134124
v -0.001447 -0.045010 0.019569
vn 0.805167 0.153254 0.572904
v 0.023483 0.033628 0.082191
vn 0.975683 -0.143412 0.165757
v 0.033539 -0.027359 0.080174
vn -0.399091 0.916506 -0.027268
v -0.011742 0.049277 0.019569
vn 0.049759 0.940164 0.337069
v 0.005866 0.052056 0.082306
vn -0.158130 0.521182 0.838668
v -0.007724 0.048743 0.082869
vn -0.183207 0.967966 0.171690
v 0.000284 0.051568 0.081029
vn 0.090738 0.995337 -0.032727
v 0.005995 0.052708 0.022782
vn 0.462220 0.553240 -0.693022
v 0.016854 0.046553 0.007875
vn 0.172678 -0.740944 -0.648987
v 0.013699 -0.040869 0.007828
vn 0.278967 -0.958540 0.058130
v 0.015680 -0.043274 0.071061
vn 0.881801 -0.463780 -0.085644
v 0.031978 -0.033268 0.017612
vn -0.341330 -0.380895 0.859309
v -0.010203 -0.038849 0.082476
vn 0.696544 -0.717506 -0.003476
v 0.029263 -0.037080 0.039139
vn -0.240935 -0.939581 0.243183
v -0.005841 -0.043285 0.080351
vn -0.674540 0.695904 0.246402
v -0.022965 0.042716 0.080426
vn -0.965855 0.255448 0.043257
v -0.025500 0.037427 0.078278
vn -0.911639 0.333282 0.240494
v -0.024883 0.039206 0.080050
vn 0.676456 0.108348 0.728470
v 0.023483 0.033268 0.082247
vn 0.938462 0.258423 0.229144
v 0.023392 0.037629 0.080596
vn 0.995976 -0.035435 -0.082319
v 0.034393 -0.023639 0.013214
vn 0.998397 -0.045548 0.033590
v 0.033828 -0.024462 0.078278
vn 0.901542 -0.432425 0.015185
v 0.031546 -0.033835 0.078278
vn 0.966033 -0.258023 0.014279
v 0.033268 -0.028702 0.078278
vn -0.493359 0.854433 -0.162916
v -0.017522 0.046508 0.017267
vn -0.347117 0.937592 -0.020758
v -0.007869 0.050880 0.023483
vn -0.357550 0.900727 0.246677
v -0.012200 0.048873 0.080201
vn -0.507795 0.860249 0.046006
v -0.018547 0.046227 0.076415
vn -0.614018 0.788758 -0.029023
v -0.019841 0.045083 0.031311
vn -0.777124 0.626697 -0.057697
v -0.023917 0.041225 0.017726
vn -0.490355 0.871500 -0.006393
v -0.017285 0.047020 0.047181
# 127 vertices, 0 vertices normals

f 15//15 4//4 7//7
f 17//17 6//6 3//3
f 67//67 64//64 10//10
f 24//24 10//10 90//90
f 65//65 90//90 10//10
f 29//29 4//4 15//15
f 29//29 15//15 3//3
f 105//105 17//17 3//3
f 105//105 3//3 15//15
f 105//105 15//15 7//7
f 31//31 81//81 18//18
f 32//32 66//66 11//11
f 32//32 11//11 7//7
f 87//87 21//21 61//61
f 87//87 3//3 21//21
f 35//35 3//3 6//6
f 91//91 8//8 22//22
f 23//23 9//9 1//1
f 109//109 23//23 1//1
f 41//41 70//70 10//10
f 41//41 10//10 64//64
f 42//42 36//36 64//64
f 42//42 64//64 67//67
f 92//92 93//93 25//25
f 94//94 8//8 44//44
f 45//45 8//8 94//94
f 11//11 93//93 7//7
f 11//11 25//25 93//93
f 95//95 111//111 69//69
f 95//95 69//69 19//19
f 95//95 19//19 26//26
f 46//46 5//5 12//12
f 48//48 72//72 46//46
f 18//18 1//1 9//9
f 18//18 28//28 27//27
f 104//104 82//82 55//55
f 50//50 82//82 30//30
f 50//50 17//17 105//105
f 51//51 18//18 81//81
f 116//116 6//6 17//17
f 53//53 74//74 17//17
f 54//54 82//82 104//104
f 84//84 14//14 49//49
f 52//52 102//102 91//91
f 52//52 109//109 1//1
f 52//52 91//91 109//109
f 57//57 91//91 102//102
f 96//96 58//58 107//107
f 65//65 19//19 90//90
f 65//65 32//32 19//19
f 4//4 106//106 32//32
f 4//4 32//32 7//7
f 26//26 19//19 32//32
f 60//60 87//87 29//29
f 60//60 29//29 3//3
f 60//60 3//3 87//87
f 62//62 21//21 3//3
f 62//62 3//3 35//35
f 62//62 35//35 6//6
f 45//45 22//22 8//8
f 63//63 67//67 2//2
f 63//63 42//42 67//67
f 63//63 36//36 42//42
f 64//64 70//70 41//41
f 66//66 10//10 70//70
f 66//66 65//65 10//10
f 67//67 10//10 2//2
f 68//68 91//91 2//2
f 68//68 10//10 24//24
f 43//43 111//111 109//109
f 2//2 22//22 63//63
f 65//65 66//66 32//32
f 126//126 93//93 92//92
f 114//114 126//126 92//92
f 114//114 112//112 126//126
f 92//92 94//94 44//44
f 36//36 45//45 64//64
f 45//45 94//94 64//64
f 70//70 25//25 11//11
f 70//70 11//11 66//66
f 96//96 46//46 72//72
f 96//96 5//5 46//46
f 72//72 48//48 58//58
f 95//95 48//48 46//46
f 95//95 26//26 48//48
f 95//95 46//46 12//12
f 6//6 21//21 62//62
f 73//73 27//27 13//13
f 51//51 1//1 18//18
f 74//74 18//18 27//27
f 18//18 9//9 28//28
f 78//78 7//7 93//93
f 103//103 55//55 49//49
f 101//101 104//104 55//55
f 50//50 81//81 31//31
f 52//52 1//1 51//51
f 51//51 30//30 16//16
f 81//81 30//30 51//51
f 81//81 50//50 30//30
f 74//74 116//116 17//17
f 18//18 53//53 31//31
f 105//105 82//82 50//50
f 82//82 105//105 7//7
f 82//82 7//7 83//83
f 54//54 16//16 30//30
f 54//54 30//30 82//82
f 83//83 14//14 84//84
f 83//83 84//84 82//82
f 84//84 55//55 82//82
f 85//85 56//56 91//91
f 85//85 91//91 57//57
f 8//8 91//91 56//56
f 58//58 96//96 72//72
f 5//5 96//96 40//40
f 39//39 107//107 58//58
f 86//86 4//4 59//59
f 86//86 33//33 4//4
f 87//87 61//61 29//29
f 45//45 63//63 22//22
f 45//45 36//36 63//63
f 71//71 109//109 111//111
f 119//119 75//75 38//38
f 88//88 59//59 34//34
f 33//33 86//86 39//39
f 2//2 10//10 68//68
f 24//24 90//90 43//43
f 90//90 69//69 43//43
f 90//90 19//19 69//69
f 43//43 69//69 111//111
f 91//91 22//22 2//2
f 113//113 114//114 92//92
f 8//8 114//114 44//44
f 114//114 8//8 85//85
f 94//94 92//92 25//25
f 25//25 70//70 64//64
f 64//64 94//94 25//25
f 5//5 71//71 12//12
f 97//97 95//95 12//12
f 97//97 12//12 71//71
f 97//97 71//71 47//47
f 97//97 111//111 95//95
f 97//97 47//47 111//111
f 106//106 48//48 32//32
f 58//58 48//48 106//106
f 98//98 77//77 6//6
f 98//98 74//74 27//27
f 76//76 73//73 13//13
f 76//76 98//98 73//73
f 76//76 77//77 98//98
f 13//13 27//27 28//28
f 77//77 61//61 21//21
f 77//77 117//117 61//61
f 83//83 7//7 78//78
f 121//121 78//78 93//93
f 123//123 102//102 103//103
f 79//79 103//103 49//49
f 100//100 14//14 121//121
f 123//123 79//79 49//49
f 50//50 53//53 17//17
f 102//102 52//52 101//101
f 101//101 51//51 16//16
f 101//101 52//52 51//51
f 103//103 101//101 55//55
f 74//74 53//53 18//18
f 83//83 121//121 14//14
f 83//83 78//78 121//121
f 84//84 49//49 55//55
f 106//106 4//4 33//33
f 107//107 40//40 96//96
f 107//107 39//39 37//37
f 39//39 89//89 37//37
f 26//26 32//32 48//48
f 108//108 88//88 119//119
f 108//108 86//86 59//59
f 108//108 59//59 88//88
f 59//59 4//4 29//29
f 109//109 91//91 68//68
f 109//109 68//68 24//24
f 109//109 24//24 43//43
f 9//9 107//107 37//37
f 9//9 37//37 89//89
f 9//9 89//89 38//38
f 110//110 38//38 89//89
f 111//111 47//47 71//71
f 113//113 92//92 44//44
f 114//114 85//85 112//112
f 114//114 113//113 44//44
f 77//77 21//21 6//6
f 115//115 98//98 27//27
f 115//115 27//27 73//73
f 115//115 73//73 98//98
f 116//116 98//98 6//6
f 99//99 76//76 75//75
f 75//75 28//28 9//9
f 9//9 38//38 75//75
f 118//118 99//99 117//117
f 119//119 88//88 75//75
f 120//120 99//99 75//75
f 120//120 34//34 99//99
f 120//120 75//75 88//88
f 120//120 88//88 34//34
f 76//76 117//117 77//77
f 125//125 121//121 93//93
f 103//103 79//79 123//123
f 123//123 57//57 102//102
f 122//122 100//100 80//80
f 122//122 80//80 49//49
f 122//122 49//49 14//14
f 122//122 14//14 100//100
f 123//123 49//49 80//80
f 123//123 80//80 124//124
f 50//50 31//31 53//53
f 101//101 103//103 102//102
f 104//104 101//101 16//16
f 104//104 16//16 54//54
f 33//33 39//39 58//58
f 33//33 58//58 106//106
f 20//20 86//86 108//108
f 20//20 108//108 119//119
f 20//20 119//119 38//38
f 117//117 34//34 59//59
f 117//117 29//29 61//61
f 9//9 40//40 107//107
f 89//89 39//39 110//110
f 86//86 20//20 110//110
f 110//110 20//20 38//38
f 71//71 5//5 40//40
f 71//71 23//23 109//109
f 71//71 40//40 23//23
f 85//85 57//57 123//123
f 116//116 74//74 98//98
f 118//118 76//76 99//99
f 118//118 117//117 76//76
f 76//76 13//13 28//28
f 76//76 28//28 75//75
f 117//117 99//99 34//34
f 126//126 125//125 93//93
f 123//123 124//124 112//112
f 127//127 80//80 100//100
f 127//127 100//100 121//121
f 127//127 121//121 125//125
f 85//85 8//8 56//56
f 117//117 59//59 29//29
f 86//86 110//110 39//39
f 112//112 85//85 123//123
f 125//125 112//112 124//124
f 126//126 112//112 125//125
f 127//127 124//124 80//80
f 23//23 40//40 9//9
f 127//127 125//125 124//124
# 250 faces, 0 coords texture

# End of File
