####
#
# OBJ File Generated by Meshlab
#
####
# Object softsoap_white_250_collision.obj
#
# Vertices: 127
# Faces: 250
#
####
vn 0.336877 0.356744 0.871348
v -0.003173 -0.021027 0.004912
vn -0.394713 0.885844 0.243891
v 0.006214 -0.031500 0.031365
vn -0.118233 0.980378 0.157736
v 0.000681 -0.040666 0.057583
vn -0.930987 0.117733 0.345546
v 0.016530 -0.010460 0.009065
vn -0.988508 -0.136705 0.064535
v 0.021603 0.007509 0.041082
vn -0.980446 0.180713 -0.077896
v 0.019356 -0.008675 0.049177
vn -0.999239 0.026975 -0.028169
v 0.019367 0.003742 0.061208
vn 0.963814 -0.265127 -0.027746
v -0.013521 0.008491 0.070933
vn -0.997664 -0.022742 -0.064417
v 0.019432 0.009334 0.072666
vn 0.993012 -0.070689 -0.094499
v -0.015636 -0.010854 0.084398
vn 0.071214 0.899480 -0.431120
v 0.000045 -0.019413 0.117260
vn -0.383122 0.802085 -0.458123
v 0.004821 -0.024409 0.106730
vn -0.003491 -0.944441 -0.328663
v 0.001239 0.004696 0.125840
vn 0.185126 0.807621 0.559890
v -0.000880 -0.025774 0.007197
vn 0.845637 0.408736 0.343267
v -0.010734 -0.018270 0.011038
vn 0.720647 0.038034 0.692258
v -0.010133 -0.011945 0.006626
vn 0.489654 0.826184 0.278672
v -0.004142 -0.028616 0.019391
vn -0.033238 0.960760 0.275384
v 0.001346 -0.028757 0.016060
vn 0.195311 0.943366 0.268168
v -0.002870 -0.034984 0.040884
vn 0.980612 0.129950 0.146675
v -0.012953 -0.017563 0.023452
vn 0.861629 0.472133 0.186241
v -0.010942 -0.026202 0.031786
vn 0.680695 0.701030 0.212632
v -0.008252 -0.032964 0.042785
vn 0.962034 0.260321 0.082001
v -0.015583 -0.021069 0.045451
vn 0.991326 0.086203 0.099208
v -0.016036 -0.014557 0.040255
vn 0.466232 0.871645 0.151201
v -0.007182 -0.039638 0.062689
vn 0.857422 0.506476 0.091153
v -0.011724 -0.034030 0.060235
vn -0.018847 0.989963 -0.140066
v -0.002539 -0.041991 0.080875
vn 0.990268 0.134675 0.035100
v -0.015694 -0.020940 0.054055
vn 0.999500 -0.029848 -0.010468
v -0.016402 -0.012953 0.069140
vn 0.961205 0.269321 -0.059593
v -0.014932 -0.029818 0.077714
vn 0.858478 0.428303 -0.282087
v -0.012074 -0.029716 0.092416
vn 0.658415 0.742577 -0.122755
v -0.007568 -0.040289 0.079800
vn 0.339594 0.783855 -0.519852
v -0.004803 -0.035185 0.096719
vn 0.136173 0.783042 -0.606879
v -0.003343 -0.026320 0.105357
vn 0.706247 0.545605 -0.451143
v -0.009926 -0.024416 0.102219
vn 0.957215 0.224449 -0.182656
v -0.012797 -0.014967 0.105618
vn 0.823337 0.476313 -0.308613
v -0.011284 -0.018019 0.107744
vn 0.525691 0.726307 -0.442861
v -0.006254 -0.017791 0.116040
vn 0.875197 0.368233 -0.313744
v -0.012001 -0.009850 0.119415
vn 0.446090 0.796163 -0.408812
v -0.002709 -0.014234 0.128475
vn 0.815209 -0.079001 -0.573753
v -0.005978 -0.005541 0.135373
vn 0.289928 0.551121 -0.782437
v -0.000819 -0.010003 0.137361
vn 0.098482 0.061094 0.993262
v 0.001118 -0.010753 0.002855
vn 0.310778 -0.242824 0.918942
v -0.001401 0.011432 0.004813
vn 0.561739 -0.632011 0.533865
v -0.003948 0.014088 0.008175
vn 0.868304 -0.312255 0.385416
v -0.009849 0.006590 0.010212
vn 0.986898 -0.070075 0.145337
v -0.013336 -0.001305 0.024258
vn 0.988156 -0.128425 0.083987
v -0.014790 -0.000660 0.039508
vn 0.945263 -0.306329 0.112434
v -0.012276 0.007558 0.031686
vn 0.948296 -0.310585 0.065359
v -0.012568 0.010502 0.043177
vn 0.811310 -0.559584 0.169241
v -0.006759 0.019390 0.034207
vn 0.570951 -0.795685 0.202240
v -0.004761 0.024207 0.042848
vn 0.995376 -0.096048 0.000721
v -0.015253 -0.002343 0.053416
vn 0.877718 -0.473240 0.075197
v -0.008999 0.019983 0.050630
vn 0.985713 -0.155810 -0.063982
v -0.014178 0.001400 0.078764
vn 0.692891 -0.717100 0.075299
v -0.004943 0.026796 0.055454
vn 0.993885 0.014726 -0.109431
v -0.014471 -0.012980 0.094547
vn 0.873686 -0.485095 -0.036824
v -0.008570 0.021771 0.068723
vn 0.648121 -0.742928 -0.167324
v -0.002521 0.028487 0.080854
vn 0.173454 -0.957177 -0.231788
v 0.001887 0.030014 0.083518
vn 0.881327 -0.418656 -0.219067
v -0.009597 0.013758 0.095853
vn 0.980786 -0.151040 -0.123471
v -0.013325 -0.003762 0.105796
vn 0.674089 -0.640660 -0.367639
v -0.007776 0.010688 0.103809
vn 0.683975 -0.654824 -0.321534
v -0.008153 0.001079 0.124191
vn 0.074010 -0.816245 -0.572946
v 0.002459 0.012202 0.110115
vn 0.535910 -0.660022 -0.526471
v -0.001704 0.017299 0.101674
vn 0.936443 -0.263376 -0.231750
v -0.011607 -0.002881 0.119502
vn -0.001234 -0.051445 -0.998675
v -0.001421 -0.004455 0.138718
vn 0.226166 -0.759280 -0.610199
v 0.000470 0.003237 0.136016
vn -0.167747 -0.005213 0.985816
v 0.007226 -0.008094 0.003124
vn -0.284576 0.412434 0.865399
v 0.006881 -0.021176 0.005281
vn -0.520609 0.147213 0.841008
v 0.011617 -0.012938 0.004883
vn -0.788361 0.596343 0.151203
v 0.013035 -0.024230 0.027091
vn -0.477676 0.803111 0.356145
v 0.007507 -0.026169 0.012068
vn -0.797786 0.443636 0.408319
v 0.014842 -0.016588 0.009203
vn -0.941692 0.335214 0.029107
v 0.017275 -0.017505 0.039956
vn -0.826364 0.552383 0.109521
v 0.011190 -0.030980 0.043252
vn -0.947846 0.317952 -0.022258
v 0.014452 -0.023510 0.052963
vn -0.991365 0.130903 0.007776
v 0.020381 -0.006233 0.041611
vn -0.909163 0.416266 -0.012033
v 0.012071 -0.032071 0.064978
vn -0.651314 0.753964 -0.085603
v 0.007915 -0.037556 0.075488
vn -0.614426 0.781142 0.110895
v 0.007580 -0.037764 0.056439
vn -0.976786 0.207875 -0.051745
v 0.016877 -0.012792 0.065802
vn -0.498529 0.757245 -0.421958
v 0.004527 -0.036036 0.092234
vn -0.916978 0.382544 -0.113187
v 0.011610 -0.028845 0.082812
vn -0.980925 0.184597 -0.060917
v 0.016823 -0.011088 0.079990
vn -0.819468 0.513263 -0.255017
v 0.011750 -0.023197 0.097735
vn -0.967749 0.235392 -0.089738
v 0.014769 -0.016155 0.092335
vn -0.481797 0.776064 -0.406935
v 0.007428 -0.015964 0.122932
vn -0.838776 0.455255 -0.298659
v 0.012166 -0.014097 0.116396
vn -0.978043 0.064037 -0.198321
v 0.015343 -0.007568 0.113038
vn -0.698615 0.254594 -0.668669
v 0.007100 -0.007723 0.134417
vn -0.159991 0.807182 -0.568207
v 0.002046 -0.012350 0.135223
vn -0.645725 -0.222681 0.730379
v 0.013433 0.006875 0.006290
vn -0.066132 -0.531367 0.844556
v 0.005368 0.015336 0.005768
vn -0.949737 -0.168391 0.263901
v 0.018659 0.007465 0.015838
vn -0.869630 -0.449787 0.203555
v 0.016727 0.013912 0.017662
vn -0.985723 -0.142196 0.090165
v 0.019297 0.005437 0.029516
vn 0.250162 -0.899618 0.357919
v 0.001801 0.021088 0.013648
vn -0.515224 -0.765186 0.386051
v 0.010754 0.018931 0.012053
vn -0.175458 -0.954595 0.240755
v 0.006408 0.023117 0.028834
vn -0.771524 -0.612425 0.172300
v 0.013811 0.018597 0.029410
vn -0.993224 -0.012085 -0.115589
v 0.020022 0.006540 0.049949
vn 0.121116 -0.963869 0.237248
v 0.001478 0.029178 0.048110
vn -0.503739 -0.845444 0.177401
v 0.011215 0.027407 0.048945
vn -0.491680 -0.831543 0.258433
v 0.011088 0.025017 0.039483
vn -0.908435 -0.415042 0.049868
v 0.018994 0.019209 0.050127
vn -0.979668 -0.200288 -0.011603
v 0.018161 0.017706 0.060029
vn -0.971460 -0.237146 -0.005273
v 0.018988 0.019112 0.069865
vn 0.305424 -0.952098 0.014993
v 0.001565 0.032087 0.065519
vn -0.241934 -0.969720 0.033340
v 0.007277 0.031890 0.064194
vn -0.425075 -0.863246 -0.272245
v 0.010106 0.029228 0.082785
vn -0.992436 0.112233 -0.049744
v 0.018456 0.000397 0.075958
vn -0.981981 -0.055422 -0.180669
v 0.017990 0.008209 0.091179
vn -0.788460 -0.614512 -0.026557
v 0.014298 0.027707 0.071188
vn -0.943846 -0.294680 -0.149396
v 0.016797 0.018622 0.085014
vn -0.063093 -0.892768 -0.446078
v 0.003982 0.027454 0.091723
vn -0.776717 -0.497842 -0.385829
v 0.014437 0.018483 0.095654
vn -0.777930 -0.588539 -0.220105
v 0.013774 0.025882 0.083694
vn -0.991250 0.000914 -0.131995
v 0.016558 0.001240 0.098184
vn -0.562929 -0.593461 -0.575252
v 0.011309 0.014291 0.103679
vn -0.891545 -0.315377 -0.325093
v 0.013638 0.003759 0.109991
vn -0.520667 -0.728460 -0.445255
v 0.006668 0.006870 0.116773
vn -0.359869 -0.738328 -0.570409
v 0.008678 0.022265 0.097163
vn 0.284035 -0.779530 -0.558263
v 0.001381 0.024201 0.096315
vn -0.909752 -0.192409 -0.367872
v 0.013083 -0.003555 0.119978
vn -0.618748 -0.527883 -0.581799
v 0.005168 0.000192 0.135316
# 127 vertices, 0 vertices normals

f 15//15 14//14 1//1
f 1//1 16//16 15//15
f 16//16 1//1 43//43
f 18//18 14//14 17//17
f 19//19 2//2 18//18
f 18//18 17//17 19//19
f 22//22 17//17 21//21
f 21//21 15//15 20//20
f 15//15 17//17 14//14
f 15//15 21//21 17//17
f 15//15 47//47 20//20
f 47//47 15//15 16//16
f 21//21 20//20 24//24
f 19//19 17//17 22//22
f 2//2 19//19 3//3
f 25//25 22//22 26//26
f 23//23 26//26 22//22
f 23//23 22//22 21//21
f 23//23 21//21 24//24
f 48//48 20//20 47//47
f 48//48 24//24 20//20
f 23//23 24//24 53//53
f 48//48 53//53 24//24
f 53//53 28//28 23//23
f 22//22 25//25 19//19
f 3//3 19//19 25//25
f 3//3 25//25 27//27
f 26//26 23//23 28//28
f 27//27 25//25 32//32
f 26//26 28//28 30//30
f 30//30 32//32 26//26
f 32//32 25//25 26//26
f 29//29 28//28 53//53
f 30//30 28//28 29//29
f 32//32 30//30 31//31
f 33//33 27//27 32//32
f 84//84 27//27 33//33
f 31//31 33//33 32//32
f 30//30 29//29 10//10
f 57//57 30//30 10//10
f 10//10 29//29 55//55
f 57//57 31//31 30//30
f 57//57 10//10 61//61
f 35//35 33//33 31//31
f 34//34 33//33 35//35
f 34//34 84//84 33//33
f 12//12 84//84 34//34
f 36//36 35//35 31//31
f 31//31 57//57 36//36
f 36//36 37//37 35//35
f 62//62 36//36 57//57
f 35//35 37//37 38//38
f 39//39 38//38 37//37
f 34//34 35//35 38//38
f 38//38 11//11 34//34
f 12//12 34//34 11//11
f 36//36 62//62 39//39
f 39//39 37//37 36//36
f 11//11 38//38 40//40
f 93//93 11//11 40//40
f 41//41 39//39 67//67
f 39//39 42//42 40//40
f 40//40 38//38 39//39
f 42//42 93//93 40//40
f 42//42 39//39 41//41
f 68//68 42//42 41//41
f 16//16 43//43 44//44
f 16//16 44//44 46//46
f 46//46 44//44 45//45
f 45//45 44//44 95//95
f 46//46 47//47 16//16
f 47//47 46//46 49//49
f 49//49 46//46 51//51
f 46//46 45//45 51//51
f 99//99 45//45 95//95
f 51//51 45//45 99//99
f 51//51 99//99 52//52
f 101//101 52//52 99//99
f 47//47 49//49 48//48
f 50//50 49//49 51//51
f 50//50 48//48 49//49
f 50//50 51//51 54//54
f 48//48 50//50 53//53
f 104//104 52//52 101//101
f 54//54 51//51 52//52
f 54//54 52//52 56//56
f 52//52 104//104 56//56
f 53//53 50//50 8//8
f 54//54 8//8 50//50
f 8//8 54//54 58//58
f 29//29 53//53 55//55
f 55//55 53//53 8//8
f 58//58 54//54 56//56
f 59//59 58//58 56//56
f 56//56 104//104 110//110
f 59//59 56//56 110//110
f 10//10 55//55 61//61
f 55//55 8//8 61//61
f 61//61 8//8 58//58
f 59//59 61//61 58//58
f 60//60 59//59 110//110
f 125//125 59//59 60//60
f 60//60 117//117 125//125
f 61//61 59//59 125//125
f 57//57 61//61 62//62
f 63//63 62//62 61//61
f 62//62 63//63 67//67
f 66//66 63//63 61//61
f 39//39 62//62 67//67
f 67//67 63//63 64//64
f 63//63 65//65 13//13
f 65//65 63//63 66//66
f 64//64 63//63 13//13
f 125//125 66//66 61//61
f 13//13 69//69 64//64
f 64//64 41//41 67//67
f 41//41 64//64 69//69
f 69//69 68//68 41//41
f 71//71 70//70 43//43
f 43//43 1//1 71//71
f 71//71 72//72 70//70
f 1//1 14//14 71//71
f 74//74 71//71 14//14
f 75//75 71//71 74//74
f 72//72 71//71 75//75
f 72//72 75//75 4//4
f 74//74 14//14 18//18
f 74//74 18//18 2//2
f 2//2 73//73 74//74
f 73//73 2//2 77//77
f 73//73 75//75 74//74
f 4//4 75//75 76//76
f 76//76 75//75 73//73
f 76//76 79//79 4//4
f 4//4 79//79 98//98
f 82//82 2//2 3//3
f 77//77 2//2 82//82
f 77//77 76//76 73//73
f 79//79 76//76 6//6
f 76//76 77//77 78//78
f 77//77 82//82 80//80
f 77//77 80//80 78//78
f 81//81 82//82 3//3
f 81//81 3//3 27//27
f 82//82 81//81 80//80
f 81//81 85//85 80//80
f 6//6 76//76 78//78
f 80//80 83//83 78//78
f 78//78 83//83 6//6
f 7//7 6//6 83//83
f 85//85 83//83 80//80
f 86//86 83//83 85//85
f 86//86 113//113 83//83
f 84//84 81//81 27//27
f 85//85 81//81 84//84
f 84//84 87//87 85//85
f 85//85 88//88 86//86
f 87//87 88//88 85//85
f 87//87 84//84 12//12
f 12//12 90//90 87//87
f 120//120 88//88 91//91
f 11//11 89//89 12//12
f 89//89 90//90 12//12
f 90//90 91//91 88//88
f 88//88 87//87 90//90
f 90//90 126//126 91//91
f 89//89 11//11 93//93
f 90//90 89//89 92//92
f 90//90 92//92 126//126
f 92//92 89//89 93//93
f 92//92 93//93 42//42
f 92//92 42//42 68//68
f 68//68 127//127 92//92
f 94//94 70//70 72//72
f 44//44 43//43 70//70
f 44//44 70//70 95//95
f 95//95 70//70 94//94
f 72//72 4//4 94//94
f 4//4 96//96 94//94
f 95//95 94//94 100//100
f 4//4 98//98 96//96
f 97//97 100//100 94//94
f 97//97 94//94 96//96
f 97//97 102//102 100//100
f 98//98 97//97 96//96
f 102//102 97//97 98//98
f 95//95 100//100 99//99
f 99//99 100//100 101//101
f 101//101 100//100 102//102
f 5//5 98//98 79//79
f 98//98 5//5 102//102
f 5//5 107//107 102//102
f 103//103 5//5 79//79
f 6//6 103//103 79//79
f 103//103 6//6 7//7
f 107//107 5//5 103//103
f 103//103 108//108 107//107
f 101//101 102//102 106//106
f 106//106 104//104 101//101
f 106//106 102//102 107//107
f 106//106 105//105 104//104
f 107//107 105//105 106//106
f 110//110 104//104 111//111
f 105//105 111//111 104//104
f 108//108 103//103 7//7
f 113//113 7//7 83//83
f 9//9 7//7 113//113
f 109//109 108//108 7//7
f 109//109 7//7 9//9
f 108//108 115//115 107//107
f 105//105 107//107 115//115
f 111//111 105//105 115//115
f 115//115 108//108 109//109
f 116//116 109//109 9//9
f 116//116 115//115 109//109
f 111//111 115//115 112//112
f 114//114 113//113 86//86
f 114//114 86//86 88//88
f 9//9 113//113 114//114
f 116//116 9//9 114//114
f 114//114 118//118 116//116
f 116//116 119//119 115//115
f 119//119 112//112 115//115
f 60//60 110//110 111//111
f 60//60 111//111 112//112
f 124//124 125//125 117//117
f 124//124 117//117 112//112
f 118//118 124//124 112//112
f 112//112 119//119 118//118
f 119//119 116//116 118//118
f 112//112 117//117 60//60
f 120//120 114//114 88//88
f 114//114 120//120 122//122
f 122//122 120//120 91//91
f 122//122 121//121 114//114
f 118//118 114//114 121//121
f 91//91 126//126 122//122
f 65//65 121//121 123//123
f 123//123 121//121 122//122
f 65//65 123//123 13//13
f 124//124 121//121 125//125
f 118//118 121//121 124//124
f 66//66 125//125 65//65
f 121//121 65//65 125//125
f 123//123 122//122 126//126
f 123//123 126//126 127//127
f 13//13 123//123 127//127
f 127//127 126//126 92//92
f 127//127 69//69 13//13
f 68//68 69//69 127//127
# 250 faces, 0 coords texture

# End of File
