####
#
# OBJ File Generated by Meshlab
#
####
# Object nutrigrain_blueberry_250_collision.obj
#
# Vertices: 127
# Faces: 250
#
####
vn -0.512301 -0.855336 -0.077119
v 0.060665 -0.091976 0.010896
vn 0.558248 0.728719 -0.396646
v -0.033268 0.078278 0.006009
vn 0.710729 0.524205 -0.469119
v 0.090019 -0.049305 0.005871
vn 0.166298 0.133924 0.976939
v 0.047945 -0.022994 0.147790
vn -0.722554 -0.689555 0.049284
v 0.052837 -0.082393 0.140900
vn 0.590340 -0.755143 -0.285059
v 0.078278 -0.082191 0.006267
vn 0.712086 0.695309 -0.097357
v 0.011682 0.033331 0.008357
vn 0.738357 0.669252 0.083251
v 0.046449 -0.009785 0.136986
vn 0.181780 0.925683 -0.331764
v -0.039148 0.082197 0.006889
vn 0.492389 0.441055 0.750349
v -0.013749 0.050833 0.147093
vn -0.618685 -0.560516 0.550501
v 0.031311 -0.057117 0.144814
vn -0.854392 -0.516367 -0.058126
v -0.074364 0.048924 0.008179
vn 0.125120 -0.954765 -0.269756
v 0.062078 -0.091976 0.009785
vn 0.420672 -0.176419 -0.889894
v 0.091976 -0.067030 0.005871
vn 0.427447 0.447665 -0.785420
v -0.032199 0.077245 0.005871
vn 0.683590 0.030332 -0.729235
v 0.094474 -0.061878 0.007671
vn -0.145280 0.984038 0.102779
v -0.044888 0.080144 0.136712
vn -0.194510 0.302036 -0.933242
v -0.056030 0.074502 0.005871
vn -0.854191 0.515043 -0.071336
v -0.074364 0.056751 0.008334
vn 0.519292 0.293494 0.802619
v 0.080677 -0.053748 0.145306
vn -0.976756 -0.133529 0.167684
v -0.066921 0.052864 0.134654
vn -0.640424 -0.615013 -0.460017
v -0.001957 -0.027181 0.005871
vn -0.387750 -0.916043 0.102548
v 0.058708 -0.087733 0.136986
vn 0.485026 -0.874269 0.020080
v 0.068493 -0.087781 0.131115
vn -0.076477 -0.993472 0.084648
v 0.062622 -0.088734 0.136986
vn 0.987831 -0.124243 0.093561
v 0.089232 -0.064579 0.133072
vn 0.932995 -0.327211 -0.149842
v 0.095889 -0.062623 0.009364
vn 0.660917 0.638212 -0.394811
v 0.035225 0.007828 0.006455
vn 0.460839 0.886627 0.038992
v -0.037114 0.079311 0.138966
vn -0.671981 0.739740 0.035028
v -0.050347 0.076649 0.129158
vn -0.714790 0.698714 0.029576
v -0.060665 0.066313 0.131115
vn 0.658224 0.544814 0.519538
v 0.080235 -0.050161 0.142857
vn -0.704123 -0.645951 0.294886
v 0.047524 -0.076321 0.142857
vn -0.737549 -0.589055 0.330205
v -0.061335 0.042996 0.141211
vn -0.739420 -0.670891 0.056238
v -0.037520 0.015213 0.134735
vn -0.857712 -0.334517 0.390421
v -0.065305 0.048907 0.141027
vn -0.714008 -0.700042 -0.011564
v 0.058708 -0.090019 0.011635
vn -0.349540 -0.545653 -0.761633
v 0.052064 -0.082191 0.005871
vn -0.230663 -0.122667 -0.965271
v -0.070450 0.046065 0.005871
vn -0.242280 -0.964439 0.105627
v 0.060659 -0.088659 0.135097
vn 0.947783 0.300422 0.107023
v 0.088643 -0.058709 0.135229
vn 0.750596 -0.658837 0.050385
v 0.085672 -0.070438 0.133071
vn 0.885295 -0.447621 0.126047
v 0.088386 -0.066698 0.136849
vn 0.996884 0.000455 0.078875
v 0.089306 -0.062622 0.133072
vn 0.045681 0.997731 0.049459
v -0.041096 0.080340 0.133072
vn 0.719393 0.689043 0.087713
v -0.029654 0.072416 0.140910
vn 0.761128 0.645184 0.066495
v 0.085197 -0.053060 0.135726
vn -0.562677 0.799035 0.211987
v -0.046847 0.079209 0.138725
vn -0.454049 0.240788 -0.857823
v -0.070091 0.060993 0.005871
vn -0.690182 0.708750 -0.146024
v -0.051652 0.080235 0.007828
vn 0.235967 0.204529 0.949993
v 0.007828 0.023483 0.147994
vn -0.899863 0.006769 -0.436119
v -0.074645 0.052804 0.008102
vn 0.448570 0.390658 0.803848
v 0.050880 -0.021526 0.146459
vn 0.562243 0.495805 0.661861
v 0.046364 -0.013718 0.144813
vn 0.680331 0.607964 0.409303
v 0.046967 -0.012550 0.142857
vn -0.595962 -0.566407 0.569222
v 0.052682 -0.080235 0.144953
vn -0.612083 -0.264804 -0.745140
v -0.072407 0.046967 0.006651
vn -0.596567 -0.743992 0.300972
v 0.056645 -0.086081 0.142824
vn 0.958541 0.229476 -0.168936
v 0.095908 -0.058238 0.009725
vn 0.988794 0.120387 0.088275
v 0.089056 -0.060665 0.135029
vn 0.674620 0.736998 0.041491
v -0.033307 0.076285 0.137070
vn 0.191256 0.980531 0.044494
v -0.039139 0.080144 0.131115
vn -0.117405 0.889970 -0.440647
v -0.045010 0.082191 0.007291
vn 0.730886 0.671537 0.121839
v -0.011598 0.052837 0.140900
vn -0.497681 0.829289 -0.254152
v -0.050891 0.080916 0.007821
vn 0.650393 0.588947 0.479720
v -0.021657 0.062407 0.144817
vn 0.365958 0.320530 0.873690
v 0.007828 0.025440 0.147421
vn -0.729820 0.682066 0.046354
v -0.062265 0.064579 0.133072
vn 0.475555 0.417665 0.774211
v 0.004892 0.030261 0.146722
vn 0.707266 0.640649 0.298903
v -0.005871 0.046013 0.142857
vn 0.627940 0.557527 0.543006
v 0.046967 -0.013699 0.144160
vn 0.726240 0.655992 0.205547
v 0.046115 -0.009785 0.138943
vn 0.708138 0.619854 0.338114
v 0.080290 -0.048923 0.141018
vn -0.557020 -0.505368 0.659039
v 0.031311 -0.056751 0.145118
vn -0.735645 -0.668766 0.107602
v -0.041096 0.019470 0.137531
vn -0.712416 -0.643667 0.279565
v -0.043891 0.023659 0.140913
vn -0.662034 -0.595238 0.455415
v -0.041033 0.021526 0.142755
vn -0.135309 -0.108414 0.984854
v -0.033268 0.023483 0.148006
vn -0.858418 0.187875 0.477306
v -0.064447 0.057628 0.143925
vn 0.127393 -0.290720 -0.948290
v 0.074047 -0.083575 0.005871
vn 0.299987 -0.950905 0.076075
v 0.066795 -0.088395 0.135733
vn 0.138950 0.989191 0.046833
v -0.040108 0.080235 0.133072
vn 0.715257 0.659807 0.230352
v -0.019384 0.060867 0.142857
vn 0.312625 0.263186 0.912688
v 0.052593 -0.025196 0.147095
vn -0.705362 0.702759 0.092703
v -0.054594 0.072216 0.136093
vn -0.840912 0.524698 0.132512
v -0.065468 0.060665 0.133072
vn 0.232051 0.122670 0.964937
v 0.076901 -0.054698 0.146936
vn -0.505096 -0.453908 0.734061
v 0.029354 -0.052837 0.146367
vn -0.582370 -0.489883 0.648737
v -0.054707 0.039160 0.144813
vn -0.745294 -0.655389 0.122483
v -0.056566 0.036756 0.137877
vn -0.390377 -0.350528 0.851314
v 0.020548 -0.041585 0.147109
vn -0.303047 0.013769 0.952876
v -0.060878 0.053292 0.147224
vn 0.083256 -0.609346 -0.788521
v 0.064919 -0.089561 0.007420
vn -0.010022 -0.087432 -0.996120
v 0.062774 -0.086105 0.005871
vn 0.558344 -0.278109 0.781606
v 0.080704 -0.070955 0.145899
vn -0.052647 -0.053778 0.997164
v 0.023096 -0.037869 0.148255
vn 0.417223 0.850586 0.320044
v -0.037193 0.078785 0.145406
vn 0.073350 0.048843 0.996109
v 0.044552 -0.025784 0.148443
vn -0.785282 0.604114 0.135566
v -0.063725 0.062692 0.135924
vn -0.905858 0.415971 0.079937
v -0.066536 0.058898 0.132319
vn -0.968858 0.186100 0.163343
v -0.066796 0.056789 0.137922
vn 0.709840 0.637531 0.299468
v 0.046967 -0.011637 0.141111
vn 0.796576 0.554854 0.240007
v 0.086565 -0.055094 0.138859
vn -0.459918 -0.482649 0.745336
v 0.056740 -0.082202 0.146785
vn -0.470190 -0.413818 0.779536
v -0.039139 0.023483 0.146004
vn -0.727499 -0.656635 0.198939
v -0.041002 0.019674 0.138943
vn -0.275708 -0.229542 0.933432
v -0.039139 0.027397 0.147468
vn -0.055830 -0.041021 0.997597
v -0.021935 0.019737 0.148622
vn 0.170450 -0.013614 0.985272
v 0.076850 -0.066382 0.147402
vn 0.638300 -0.758470 0.131516
v 0.070530 -0.086302 0.136996
vn -0.214014 -0.191230 0.957930
v 0.026922 -0.046407 0.147905
vn 0.024914 0.026854 0.999329
v -0.004994 0.024667 0.148727
vn 0.184991 0.208818 0.960299
v -0.035946 0.073666 0.147792
vn 0.105599 0.092522 0.990095
v -0.002947 0.034305 0.148226
vn 0.927260 0.044845 0.371724
v 0.088356 -0.061286 0.141343
vn -0.372194 -0.321718 0.870614
v -0.043053 0.029354 0.146655
vn -0.371027 -0.819907 0.435994
v 0.061022 -0.086686 0.145822
vn 0.667864 -0.647806 0.366476
v 0.077310 -0.077618 0.141878
vn 0.005345 -0.007777 0.999955
v 0.038142 -0.031216 0.148777
vn -0.130901 0.751553 0.646555
v -0.041329 0.078197 0.147238
vn -0.337532 0.336356 0.879168
v -0.048890 0.071893 0.147464
vn 0.184937 -0.760829 0.622043
v 0.063635 -0.087632 0.146991
vn 0.788283 -0.507372 0.348114
v 0.087050 -0.067729 0.140341
vn -0.192199 -0.227707 0.954573
v 0.058675 -0.082172 0.147456
vn -0.020319 0.002390 0.999791
v -0.023799 0.029808 0.148725
vn -0.558441 -0.310036 0.769429
v -0.061709 0.048655 0.145571
vn -0.662230 0.570098 0.486250
v -0.061231 0.063283 0.143020
# 127 vertices, 0 vertices normals

f 103//103 59//59 3//3
f 16//16 3//3 59//59
f 18//18 9//9 2//2
f 21//21 52//52 12//12
f 22//22 5//5 12//12
f 24//24 13//13 6//6
f 24//24 6//6 110//110
f 25//25 1//1 13//13
f 27//27 6//6 14//14
f 28//28 15//15 7//7
f 28//28 7//7 3//3
f 28//28 3//3 15//15
f 7//7 2//2 61//61
f 29//29 2//2 9//9
f 46//46 3//3 7//7
f 46//46 8//8 3//3
f 47//47 3//3 8//8
f 63//63 65//65 17//17
f 15//15 18//18 2//2
f 35//35 12//12 5//5
f 101//101 19//19 52//52
f 101//101 52//52 21//21
f 37//37 22//22 1//1
f 37//37 1//1 5//5
f 37//37 5//5 22//22
f 38//38 13//13 1//1
f 38//38 1//1 22//22
f 58//58 5//5 1//1
f 40//40 1//1 25//25
f 42//42 110//110 6//6
f 42//42 6//6 27//27
f 43//43 27//27 26//26
f 44//44 26//26 27//27
f 46//46 7//7 61//61
f 47//47 103//103 3//3
f 47//47 8//8 103//103
f 16//16 27//27 14//14
f 16//16 14//14 3//3
f 18//18 65//65 63//63
f 18//18 63//63 9//9
f 48//48 17//17 65//65
f 50//50 49//49 19//19
f 50//50 19//19 31//31
f 50//50 18//18 49//49
f 50//50 65//65 18//18
f 15//15 2//2 7//7
f 85//85 50//50 31//31
f 52//52 19//19 49//49
f 56//56 11//11 33//33
f 75//75 5//5 33//33
f 77//77 33//33 11//11
f 90//90 12//12 35//35
f 90//90 35//35 75//75
f 57//57 39//39 22//22
f 57//57 22//22 12//12
f 57//57 12//12 52//52
f 57//57 52//52 49//49
f 57//57 49//49 39//39
f 58//58 1//1 23//23
f 81//81 25//25 13//13
f 40//40 23//23 1//1
f 117//117 40//40 25//25
f 59//59 44//44 27//27
f 59//59 27//27 16//16
f 60//60 44//44 59//59
f 60//60 59//59 41//41
f 61//61 2//2 29//29
f 62//62 29//29 9//9
f 9//9 63//63 45//45
f 64//64 8//8 46//46
f 68//68 31//31 19//19
f 68//68 19//19 99//99
f 68//68 85//85 31//31
f 30//30 65//65 50//50
f 84//84 20//20 53//53
f 115//115 26//26 44//44
f 115//115 44//44 60//60
f 69//69 54//54 10//10
f 69//69 53//53 54//54
f 20//20 54//54 53//53
f 70//70 83//83 66//66
f 70//70 66//66 55//55
f 71//71 54//54 32//32
f 71//71 32//32 55//55
f 71//71 55//55 66//66
f 71//71 66//66 54//54
f 72//72 103//103 8//8
f 72//72 83//83 70//70
f 72//72 64//64 83//83
f 72//72 8//8 64//64
f 73//73 55//55 32//32
f 74//74 11//11 56//56
f 75//75 33//33 106//106
f 35//35 5//5 75//75
f 76//76 106//106 33//33
f 76//76 33//33 77//77
f 36//36 12//12 34//34
f 34//34 12//12 90//90
f 93//93 6//6 13//13
f 93//93 13//13 38//38
f 80//80 14//14 6//6
f 117//117 124//124 104//104
f 81//81 24//24 110//110
f 81//81 13//13 24//24
f 122//122 25//25 81//81
f 117//117 23//23 40//40
f 42//42 27//27 43//43
f 61//61 97//97 46//46
f 61//61 29//29 97//97
f 82//82 62//62 9//9
f 82//82 9//9 45//45
f 97//97 29//29 62//62
f 97//97 62//62 82//82
f 97//97 82//82 45//45
f 83//83 64//64 46//46
f 83//83 46//46 97//97
f 103//103 41//41 59//59
f 48//48 65//65 30//30
f 97//97 120//120 113//113
f 10//10 66//66 97//97
f 10//10 54//54 66//66
f 97//97 66//66 83//83
f 84//84 67//67 51//51
f 84//84 51//51 4//4
f 53//53 67//67 84//84
f 87//87 84//84 4//4
f 85//85 68//68 99//99
f 50//50 85//85 30//30
f 115//115 60//60 41//41
f 20//20 32//32 54//54
f 102//102 72//72 70//70
f 103//103 73//73 32//32
f 103//103 32//32 20//20
f 89//89 74//74 88//88
f 89//89 11//11 74//74
f 89//89 77//77 11//11
f 89//89 34//34 77//77
f 104//104 58//58 117//117
f 58//58 56//56 33//33
f 58//58 33//33 5//5
f 91//91 124//124 111//111
f 91//91 88//88 104//104
f 91//91 104//104 124//124
f 93//93 80//80 6//6
f 94//94 93//93 38//38
f 94//94 80//80 93//93
f 94//94 38//38 22//22
f 94//94 22//22 39//39
f 94//94 39//39 49//49
f 94//94 49//49 18//18
f 94//94 18//18 15//15
f 94//94 15//15 3//3
f 94//94 3//3 14//14
f 94//94 14//14 80//80
f 122//122 124//124 117//117
f 122//122 117//117 25//25
f 117//117 58//58 23//23
f 110//110 122//122 81//81
f 17//17 97//97 45//45
f 17//17 45//45 63//63
f 120//120 17//17 48//48
f 73//73 103//103 72//72
f 73//73 72//72 102//102
f 10//10 97//97 113//113
f 114//114 51//51 113//113
f 69//69 10//10 67//67
f 69//69 67//67 53//53
f 113//113 51//51 67//67
f 113//113 67//67 10//10
f 99//99 19//19 86//86
f 101//101 100//100 19//19
f 100//100 86//86 19//19
f 101//101 86//86 100//100
f 115//115 43//43 26//26
f 102//102 70//70 55//55
f 102//102 55//55 73//73
f 103//103 20//20 115//115
f 104//104 88//88 74//74
f 104//104 74//74 56//56
f 104//104 56//56 58//58
f 105//105 89//89 88//88
f 105//105 88//88 91//91
f 106//106 90//90 75//75
f 76//76 77//77 34//34
f 90//90 106//106 76//76
f 107//107 111//111 78//78
f 108//108 78//78 111//111
f 116//116 91//91 111//111
f 116//116 111//111 107//107
f 36//36 21//21 12//12
f 127//127 79//79 92//92
f 101//101 21//21 79//79
f 109//109 122//122 95//95
f 109//109 119//119 124//124
f 110//110 42//42 43//43
f 111//111 124//124 96//96
f 97//97 17//17 120//120
f 112//112 114//114 113//113
f 112//112 98//98 114//114
f 114//114 4//4 51//51
f 114//114 98//98 4//4
f 79//79 99//99 86//86
f 79//79 86//86 101//101
f 79//79 127//127 99//99
f 87//87 98//98 109//109
f 87//87 20//20 84//84
f 115//115 123//123 43//43
f 126//126 89//89 105//105
f 36//36 89//89 126//126
f 34//34 89//89 36//36
f 34//34 90//90 76//76
f 92//92 107//107 78//78
f 96//96 108//108 111//111
f 126//126 107//107 92//92
f 116//116 105//105 91//91
f 116//116 126//126 105//105
f 36//36 79//79 21//21
f 95//95 123//123 115//115
f 95//95 118//118 123//123
f 109//109 95//95 20//20
f 115//115 20//20 95//95
f 122//122 109//109 124//124
f 110//110 118//118 122//122
f 123//123 110//110 43//43
f 123//123 118//118 110//110
f 121//121 113//113 120//120
f 87//87 4//4 98//98
f 48//48 30//30 85//85
f 99//99 127//127 85//85
f 20//20 87//87 109//109
f 41//41 103//103 115//115
f 108//108 92//92 78//78
f 126//126 116//116 107//107
f 92//92 79//79 126//126
f 92//92 121//121 127//127
f 96//96 124//124 119//119
f 119//119 112//112 125//125
f 96//96 119//119 108//108
f 119//119 109//109 98//98
f 48//48 85//85 127//127
f 121//121 92//92 125//125
f 36//36 126//126 79//79
f 121//121 125//125 113//113
f 120//120 48//48 121//121
f 112//112 119//119 98//98
f 92//92 108//108 125//125
f 48//48 127//127 121//121
f 122//122 118//118 95//95
f 112//112 113//113 125//125
f 125//125 108//108 119//119
# 250 faces, 0 coords texture

# End of File
