####
#
# OBJ File Generated by Meshlab
#
####
# Object nutrigrain_blueberry_250_collision.obj
#
# Vertices: 127
# Faces: 250
#
####
vn -0.725371 -0.687579 0.032733
v 0.011218 -0.039184 0.097319
vn -0.728144 -0.685376 -0.008134
v -0.012415 -0.014955 0.070316
vn -0.722478 -0.691005 -0.023175
v 0.013214 -0.041939 0.056688
vn -0.715671 -0.686424 -0.128985
v 0.026263 -0.052417 0.015310
vn -0.323139 -0.345627 -0.880978
v -0.025714 0.009627 0.001883
vn -0.100183 -0.124893 -0.987099
v -0.002487 -0.006217 0.001168
vn -0.664297 -0.674615 -0.321877
v -0.031825 0.008281 0.008887
vn -0.670523 -0.650338 -0.357015
v -0.003420 -0.020521 0.010113
vn -0.720361 -0.693227 0.022713
v -0.003260 -0.022042 0.119714
vn -0.666931 -0.616068 0.419122
v -0.000222 -0.025274 0.140378
vn -0.235475 -0.218640 0.946968
v 0.013537 -0.025116 0.148791
vn -0.365883 -0.361876 -0.857424
v -0.044160 0.026231 0.002074
vn -0.757197 -0.410024 -0.508462
v -0.065958 0.043915 0.005604
vn -0.232602 -0.001902 -0.972570
v -0.059376 0.051703 0.000875
vn -0.051045 -0.052378 -0.997322
v -0.029763 0.028077 0.000120
vn 0.006258 -0.002995 -0.999976
v -0.000568 0.005302 0.000127
vn 0.121961 0.103758 -0.987097
v -0.009299 0.025471 0.000524
vn 0.431666 0.416262 -0.800244
v 0.010691 0.018662 0.002524
vn 0.702690 0.657982 -0.270714
v -0.006695 0.043918 0.010841
vn 0.707178 0.691294 -0.148368
v 0.011613 0.024398 0.011586
vn -0.534482 0.293200 -0.792693
v -0.063658 0.057950 0.003864
vn -0.926416 0.256081 -0.276001
v -0.070121 0.056144 0.009842
vn 0.108765 0.121880 -0.986567
v -0.031344 0.052302 0.000228
vn 0.039041 0.511139 -0.858611
v -0.043485 0.070691 0.002167
vn -0.549540 0.759478 -0.348135
v -0.053041 0.073533 0.008835
vn 0.030914 0.961207 -0.274091
v -0.044421 0.076916 0.009838
vn 0.453645 0.448559 -0.770066
v -0.015501 0.048475 0.004000
vn 0.567777 0.768716 -0.294456
v -0.036009 0.074880 0.012076
vn -0.732728 -0.680255 -0.019042
v -0.049203 0.025006 0.025288
vn -0.960949 -0.276431 0.012791
v -0.068668 0.047356 0.032603
vn -0.866921 -0.498403 0.006473
v -0.066784 0.044687 0.055545
vn -0.717466 -0.695736 -0.034553
v -0.026700 0.002135 0.030419
vn 0.725184 0.688487 -0.009645
v -0.009087 0.046567 0.033749
vn 0.722321 0.691534 0.005779
v 0.008377 0.028871 0.051626
vn -0.725979 -0.687717 0.000146
v -0.035287 0.009260 0.083652
vn 0.731194 0.682127 0.007611
v -0.016992 0.055487 0.070252
vn -0.870362 0.492161 0.015756
v -0.067537 0.058367 0.034133
vn -0.327909 0.944499 -0.019904
v -0.048632 0.077128 0.059426
vn -0.951104 0.308849 -0.003686
v -0.068307 0.058389 0.062098
vn 0.459070 0.888123 -0.022200
v -0.036351 0.076445 0.077310
vn 0.469306 0.882949 -0.012394
v -0.036372 0.075521 0.033960
vn -0.747362 -0.664186 0.017520
v -0.042782 0.017122 0.104732
vn -0.968213 -0.249621 0.015876
v -0.067816 0.047246 0.104652
vn -0.846498 -0.471673 0.246913
v -0.066897 0.046975 0.136183
vn 0.733360 0.679797 0.007729
v 0.000831 0.035280 0.092530
vn -0.898828 0.438098 0.013352
v -0.068095 0.058627 0.104080
vn -0.571810 0.820352 -0.007536
v -0.053882 0.073439 0.091032
vn -0.102861 0.994401 -0.024222
v -0.043603 0.078322 0.080739
vn -0.066418 0.997712 -0.012650
v -0.043632 0.078752 0.107094
vn -0.576649 0.815950 0.041246
v -0.051040 0.076177 0.121309
vn -0.894276 0.313252 0.319598
v -0.066796 0.059265 0.138791
vn -0.051349 0.983047 0.176014
v -0.044033 0.078623 0.136786
vn 0.742202 0.670148 -0.006120
v -0.021767 0.059866 0.090391
vn 0.549791 0.834501 0.036561
v -0.034921 0.076196 0.126566
vn 0.734336 0.677877 0.035126
v -0.017307 0.056947 0.129679
vn -0.723120 -0.684250 0.094337
v -0.030039 0.004965 0.132647
vn -0.608267 -0.560557 0.561950
v -0.032977 0.011999 0.142741
vn -0.421100 -0.056886 0.905228
v -0.059261 0.046723 0.147024
vn -0.220432 -0.198379 0.955016
v -0.021291 0.019059 0.151070
vn 0.156003 0.186824 0.969928
v -0.021973 0.048594 0.149259
vn -0.429196 0.681626 0.592602
v -0.047643 0.075197 0.142396
vn 0.348975 0.672316 0.652846
v -0.035062 0.073104 0.145996
vn -0.556493 -0.597806 -0.577013
v 0.044145 -0.069437 0.006257
vn -0.030863 -0.069204 -0.997125
v 0.058339 -0.054725 -0.000249
vn -0.451484 -0.891468 -0.038043
v 0.056865 -0.085312 0.043614
vn 0.203539 -0.578609 -0.789800
v 0.068307 -0.081641 0.003215
vn 0.295114 -0.039154 -0.954659
v 0.080309 -0.062805 0.001797
vn 0.173910 0.107929 -0.978829
v 0.068917 -0.051506 0.000382
vn -0.054970 -0.966699 -0.249942
v 0.063142 -0.085463 0.009208
vn 0.882315 -0.470488 -0.012713
v 0.088462 -0.066388 0.035697
vn -0.544448 -0.505503 -0.669361
v 0.023937 -0.045651 0.005235
vn -0.313395 -0.307723 -0.898382
v 0.012894 -0.028721 0.003087
vn -0.169538 -0.166044 -0.971435
v 0.032818 -0.041181 0.000941
vn -0.074298 -0.081834 -0.993873
v 0.017890 -0.016947 0.000806
vn 0.023011 0.028336 -0.999334
v 0.034772 -0.020670 0.000609
vn 0.239516 0.237353 -0.941433
v 0.026829 -0.001679 0.001601
vn 0.616702 0.608854 -0.498974
v 0.031302 0.003950 0.007389
vn 0.607917 0.443024 -0.658913
v 0.080870 -0.049177 0.004553
vn 0.815116 -0.290460 -0.501217
v 0.088804 -0.063924 0.007065
vn 0.941319 0.314411 -0.122735
v 0.089894 -0.057099 0.011923
vn 0.287031 0.288888 -0.913322
v 0.053061 -0.027574 0.001455
vn 0.685200 0.656372 -0.315717
v 0.060025 -0.025549 0.007924
vn 0.725033 0.688125 -0.028473
v 0.070977 -0.036918 0.026486
vn -0.245594 -0.969058 -0.024713
v 0.060384 -0.086915 0.064566
vn -0.711781 -0.702370 0.006578
v 0.030190 -0.060021 0.077542
vn 0.381205 -0.923983 -0.030617
v 0.068520 -0.085814 0.043585
vn 0.591256 -0.798738 -0.111509
v 0.071794 -0.082285 0.014847
vn 0.833103 -0.553044 -0.009004
v 0.087647 -0.067740 0.063990
vn 0.999735 0.022604 0.004280
v 0.089636 -0.060778 0.042162
vn 0.941774 0.335484 0.022648
v 0.088688 -0.056828 0.057180
vn -0.696130 -0.717360 -0.028257
v 0.037244 -0.065916 0.050469
vn -0.728665 -0.683487 -0.043519
v -0.007018 -0.019591 0.042139
vn 0.827420 0.561560 0.005053
v 0.086303 -0.052376 0.048703
vn -0.397535 -0.917105 -0.029749
v 0.059729 -0.088504 0.096763
vn 0.437290 -0.898951 -0.025796
v 0.069498 -0.085988 0.074172
vn 0.312345 -0.949856 -0.014647
v 0.066644 -0.088521 0.117392
vn 0.742701 -0.669492 -0.013237
v 0.085473 -0.070885 0.100077
vn 0.976177 0.216043 0.020097
v 0.088239 -0.060998 0.113155
vn 0.991056 -0.132895 0.012150
v 0.088516 -0.066296 0.096544
vn 0.877372 -0.343484 0.335018
v 0.087087 -0.069037 0.139534
vn 0.710745 0.703369 0.010621
v 0.039818 -0.004547 0.100118
vn -0.734286 -0.678804 0.006955
v 0.038311 -0.066241 0.115313
vn -0.727612 -0.685753 0.017964
v 0.021075 -0.047784 0.121742
vn 0.865005 0.501120 0.025417
v 0.085624 -0.053224 0.082316
vn 0.737049 0.675423 0.023727
v 0.063895 -0.029959 0.092254
vn 0.816700 0.576686 0.020852
v 0.085295 -0.054381 0.113323
vn -0.526605 -0.531081 0.663807
v 0.035741 -0.063638 0.144000
vn -0.397092 -0.910304 0.116898
v 0.055726 -0.088097 0.137920
vn 0.073566 -0.658604 0.748885
v 0.060258 -0.085622 0.147919
vn 0.434373 -0.885023 0.167494
v 0.069072 -0.087932 0.136743
vn 0.360652 0.083179 0.928984
v 0.077383 -0.060673 0.150404
vn -0.108335 -0.209194 0.971855
v 0.041577 -0.055071 0.148590
vn 0.565077 0.549878 0.615079
v 0.062233 -0.032285 0.141126
vn 0.134457 0.039990 0.990112
v 0.064059 -0.051117 0.150696
vn 0.726863 0.668775 0.156238
v 0.061015 -0.028873 0.135641
vn 0.215590 0.203335 0.955079
v 0.049645 -0.033367 0.149718
vn 0.840263 0.452203 0.299117
v 0.085401 -0.054851 0.139421
vn 0.722093 0.691604 -0.016272
v 0.047174 -0.011397 0.031282
vn 0.716724 0.697342 0.004494
v 0.031953 0.004607 0.047152
vn 0.723327 0.690419 0.010929
v 0.052661 -0.017005 0.063528
vn 0.713216 0.700594 0.022172
v 0.028822 0.006660 0.071780
vn 0.721412 0.692473 0.006865
v 0.020830 0.013642 0.114087
vn 0.714316 0.693661 0.092666
v 0.043392 -0.008407 0.134246
vn 0.658449 0.602011 0.451694
v 0.030049 0.002500 0.141839
vn 0.743248 0.661121 0.102479
v 0.010718 0.026484 0.137578
vn 0.218686 0.179664 0.959113
v 0.022470 -0.007484 0.150480
vn 0.620255 0.550687 0.558594
v -0.005980 0.042228 0.143985
# 127 vertices, 0 vertices normals

f 8//8 32//32 7//7
f 6//6 74//74 72//72
f 8//8 7//7 5//5
f 72//72 5//5 6//6
f 72//72 8//8 5//5
f 8//8 4//4 92//92
f 32//32 8//8 92//92
f 3//3 1//1 2//2
f 2//2 92//92 3//3
f 2//2 1//1 35//35
f 9//9 35//35 1//1
f 9//9 1//1 103//103
f 103//103 10//10 9//9
f 56//56 9//9 10//10
f 57//57 56//56 10//10
f 57//57 10//10 59//59
f 11//11 59//59 10//10
f 13//13 12//12 7//7
f 29//29 13//13 7//7
f 14//14 12//12 13//13
f 15//15 12//12 14//14
f 14//14 23//23 15//15
f 30//30 13//13 29//29
f 30//30 22//22 13//13
f 7//7 12//12 5//5
f 5//5 16//16 6//6
f 74//74 6//6 16//16
f 15//15 17//17 16//16
f 16//16 5//5 15//15
f 17//17 18//18 16//16
f 12//12 15//15 5//5
f 23//23 17//17 15//15
f 17//17 23//23 27//27
f 27//27 18//18 17//17
f 19//19 18//18 27//27
f 20//20 18//18 19//19
f 33//33 19//19 28//28
f 21//21 13//13 22//22
f 14//14 13//13 21//21
f 21//21 24//24 14//14
f 14//14 24//24 23//23
f 25//25 24//24 21//21
f 25//25 21//21 22//22
f 26//26 24//24 25//25
f 25//25 22//22 37//37
f 24//24 27//27 23//23
f 28//28 19//19 27//27
f 28//28 24//24 26//26
f 28//28 27//27 24//24
f 28//28 26//26 41//41
f 29//29 31//31 30//30
f 29//29 35//35 31//31
f 29//29 7//7 32//32
f 29//29 32//32 35//35
f 33//33 34//34 20//20
f 20//20 19//19 33//33
f 35//35 32//32 92//92
f 2//2 35//35 92//92
f 45//45 34//34 36//36
f 37//37 22//22 30//30
f 38//38 26//26 25//25
f 38//38 25//25 37//37
f 38//38 37//37 39//39
f 39//39 37//37 30//30
f 39//39 30//30 31//31
f 39//39 31//31 43//43
f 48//48 38//38 47//47
f 33//33 41//41 36//36
f 33//33 28//28 41//41
f 34//34 33//33 36//36
f 41//41 26//26 38//38
f 40//40 41//41 38//38
f 40//40 38//38 48//48
f 40//40 36//36 41//41
f 35//35 42//42 31//31
f 43//43 31//31 42//42
f 44//44 42//42 56//56
f 43//43 42//42 44//44
f 36//36 53//53 45//45
f 9//9 56//56 35//35
f 42//42 35//35 56//56
f 122//122 45//45 55//55
f 55//55 125//125 122//122
f 46//46 39//39 43//43
f 47//47 39//39 46//46
f 38//38 39//39 47//47
f 47//47 49//49 48//48
f 43//43 51//51 46//46
f 51//51 43//43 44//44
f 50//50 47//47 46//46
f 51//51 50//50 46//46
f 49//49 47//47 50//50
f 52//52 49//49 50//50
f 40//40 53//53 36//36
f 53//53 40//40 54//54
f 55//55 45//45 53//53
f 49//49 40//40 48//48
f 54//54 40//40 49//49
f 54//54 55//55 53//53
f 54//54 49//49 52//52
f 44//44 56//56 57//57
f 58//58 44//44 57//57
f 44//44 58//58 51//51
f 58//58 57//57 59//59
f 124//124 125//125 127//127
f 59//59 11//11 126//126
f 59//59 126//126 60//60
f 59//59 60//60 58//58
f 55//55 127//127 125//125
f 60//60 126//126 127//127
f 61//61 51//51 58//58
f 61//61 50//50 51//51
f 61//61 58//58 62//62
f 50//50 61//61 52//52
f 55//55 62//62 127//127
f 52//52 61//61 62//62
f 62//62 54//54 52//52
f 55//55 54//54 62//62
f 58//58 60//60 62//62
f 127//127 62//62 60//60
f 63//63 64//64 66//66
f 63//63 66//66 69//69
f 71//71 73//73 63//63
f 63//63 73//73 64//64
f 63//63 4//4 71//71
f 65//65 69//69 86//86
f 63//63 69//69 65//65
f 79//79 66//66 67//67
f 64//64 67//67 66//66
f 68//68 67//67 64//64
f 79//79 87//87 66//66
f 69//69 66//66 87//87
f 87//87 79//79 70//70
f 79//79 80//80 70//70
f 70//70 80//80 89//89
f 72//72 73//73 71//71
f 8//8 72//72 71//71
f 4//4 8//8 71//71
f 75//75 81//81 64//64
f 75//75 64//64 73//73
f 81//81 68//68 64//64
f 74//74 73//73 72//72
f 73//73 74//74 75//75
f 16//16 76//76 75//75
f 75//75 74//74 16//16
f 81//81 75//75 76//76
f 82//82 81//81 77//77
f 81//81 76//76 77//77
f 67//67 68//68 78//78
f 78//78 79//79 67//67
f 80//80 79//79 78//78
f 80//80 78//78 83//83
f 78//78 68//68 81//81
f 78//78 81//81 82//82
f 78//78 82//82 83//83
f 93//93 89//89 80//80
f 65//65 86//86 84//84
f 91//91 4//4 63//63
f 91//91 63//63 65//65
f 84//84 91//91 65//65
f 91//91 84//84 94//94
f 94//94 85//85 91//91
f 87//87 70//70 86//86
f 87//87 86//86 69//69
f 86//86 70//70 88//88
f 89//89 88//88 70//70
f 84//84 86//86 95//95
f 95//95 94//94 84//84
f 88//88 95//95 86//86
f 95//95 88//88 97//97
f 99//99 97//97 88//88
f 99//99 88//88 89//89
f 99//99 89//89 90//90
f 92//92 4//4 3//3
f 91//91 3//3 4//4
f 83//83 82//82 118//118
f 118//118 120//120 83//83
f 3//3 91//91 85//85
f 120//120 118//118 119//119
f 93//93 80//80 83//83
f 89//89 93//93 90//90
f 90//90 93//93 104//104
f 93//93 83//83 120//120
f 104//104 93//93 120//120
f 104//104 120//120 105//105
f 94//94 102//102 85//85
f 108//108 94//94 96//96
f 108//108 96//96 110//110
f 102//102 94//94 108//108
f 94//94 95//95 96//96
f 96//96 95//95 97//97
f 96//96 97//97 110//110
f 99//99 100//100 97//97
f 100//100 110//110 97//97
f 98//98 100//100 99//99
f 1//1 3//3 85//85
f 1//1 85//85 102//102
f 120//120 101//101 105//105
f 103//103 1//1 102//102
f 105//105 101//101 123//123
f 123//123 101//101 122//122
f 123//123 115//115 105//105
f 104//104 99//99 90//90
f 104//104 98//98 99//99
f 106//106 98//98 104//104
f 106//106 104//104 105//105
f 117//117 98//98 106//106
f 106//106 105//105 115//115
f 115//115 117//117 106//106
f 109//109 108//108 110//110
f 107//107 103//103 102//102
f 107//107 108//108 109//109
f 107//107 102//102 108//108
f 112//112 107//107 114//114
f 107//107 109//109 111//111
f 114//114 107//107 111//111
f 109//109 110//110 100//100
f 109//109 100//100 111//111
f 100//100 98//98 117//117
f 117//117 111//111 100//100
f 103//103 107//107 10//10
f 107//107 11//11 10//10
f 11//11 107//107 112//112
f 116//116 11//11 112//112
f 116//116 114//114 113//113
f 112//112 114//114 116//116
f 11//11 116//116 126//126
f 124//124 115//115 123//123
f 115//115 124//124 113//113
f 113//113 124//124 116//116
f 111//111 117//117 113//113
f 115//115 113//113 117//117
f 113//113 114//114 111//111
f 18//18 76//76 16//16
f 76//76 18//18 77//77
f 20//20 77//77 18//18
f 118//118 77//77 20//20
f 82//82 77//77 118//118
f 119//119 118//118 20//20
f 119//119 20//20 34//34
f 121//121 119//119 34//34
f 45//45 121//121 34//34
f 120//120 119//119 121//121
f 120//120 121//121 101//101
f 122//122 101//101 121//121
f 122//122 121//121 45//45
f 123//123 122//122 124//124
f 116//116 124//124 126//126
f 125//125 124//124 122//122
f 127//127 126//126 124//124
# 250 faces, 0 coords texture

# End of File
