####
#
# OBJ File Generated by Meshlab
#
####
# Object quaker_big_chewy_peanut_butter_chocolate_chip_250_collision.obj
#
# Vertices: 127
# Faces: 250
#
####
vn 0.076645 -0.082380 0.993649
v 0.055508 -0.060704 0.156992
vn 0.476523 -0.756652 -0.447664
v 0.056751 -0.072407 0.006532
vn -0.874361 -0.471208 0.115997
v -0.050880 0.032055 0.144814
vn 0.880223 0.194172 -0.433017
v 0.080235 -0.043806 0.007828
vn 0.496321 0.839159 0.222437
v -0.021657 0.063817 0.148809
vn -0.347255 0.147201 0.926146
v -0.045826 0.045261 0.155871
vn -0.747231 -0.661992 -0.058421
v -0.035225 0.009785 0.006843
vn 0.705940 0.151216 0.691941
v 0.071238 -0.044037 0.153814
vn 0.624959 0.739066 -0.251413
v -0.019569 0.068023 0.005871
vn -0.400805 -0.398488 0.824962
v 0.041096 -0.064579 0.156290
vn -0.747004 -0.664563 0.018456
v 0.009261 -0.037182 0.135029
vn 0.981395 -0.128262 0.142870
v 0.074423 -0.048923 0.144814
vn 0.127779 0.229898 0.964790
v -0.025451 0.059376 0.155760
vn -0.271537 -0.909321 -0.315283
v 0.048923 -0.074364 0.007072
vn 0.676369 -0.735592 0.037804
v 0.058386 -0.069421 0.140973
vn 0.378974 -0.157001 -0.911992
v 0.077167 -0.051455 0.005871
vn 0.736484 0.671047 0.085367
v -0.013692 0.056140 0.146758
vn -0.564459 -0.479724 0.671752
v -0.012720 -0.005871 0.154097
vn -0.811031 -0.573557 0.115160
v -0.050405 0.031311 0.144814
vn -0.753321 -0.656995 0.029404
v -0.042302 0.021577 0.141451
vn 0.893177 -0.443613 0.073770
v 0.074364 -0.051219 0.140900
vn 0.875774 0.420234 0.237535
v 0.073164 -0.042818 0.150799
vn 0.547289 0.559327 0.622598
v -0.017612 0.057007 0.152641
vn -0.123228 -0.991546 0.040648
v 0.046967 -0.074315 0.142857
vn 0.188366 -0.973580 -0.129076
v 0.052837 -0.074887 0.007828
vn 0.003305 -0.578886 -0.815401
v 0.050880 -0.074364 0.006432
vn 0.742193 0.669526 0.029751
v -0.005871 0.047844 0.138943
vn -0.318665 0.873194 -0.368760
v -0.031312 0.068508 0.005872
vn 0.117061 -0.673930 0.729462
v 0.049797 -0.071731 0.155541
vn -0.410367 -0.180640 0.893850
v -0.045010 0.035225 0.155264
vn -0.635780 -0.556277 0.535107
v 0.022489 -0.048923 0.152641
vn -0.986271 0.165109 -0.002767
v -0.055483 0.041096 0.013699
vn -0.643495 -0.598337 -0.477396
v -0.009785 -0.017612 0.006112
vn -0.750662 -0.660408 0.019169
v -0.020115 -0.003914 0.133072
vn 0.649592 -0.707798 -0.277583
v 0.066536 -0.064579 0.006276
vn 0.959820 -0.259661 0.106402
v 0.074509 -0.050880 0.140900
vn 0.835580 0.546670 0.054396
v 0.072532 -0.040888 0.144814
vn 0.105143 0.090915 0.990293
v 0.017587 0.008847 0.156338
vn 0.639058 0.644358 0.420009
v -0.017539 0.059092 0.150685
vn 0.007945 -0.986138 0.165736
v 0.048830 -0.074188 0.145138
vn -0.214677 -0.380831 -0.899378
v 0.039234 -0.068493 0.005871
vn 0.565730 -0.824496 0.012465
v 0.054794 -0.072716 0.131115
vn 0.715615 0.697613 0.035090
v -0.015855 0.058506 0.144814
vn 0.745860 0.664326 0.048617
v 0.048860 -0.013699 0.144814
vn -0.267246 0.957443 0.109007
v -0.031311 0.065818 0.142857
vn 0.212427 0.809872 -0.546793
v -0.020573 0.068499 0.005871
vn -0.701114 0.713047 -0.001781
v -0.038124 0.062622 0.013699
vn -0.495171 -0.271348 0.825334
v -0.045010 0.033268 0.154691
vn -0.982748 0.114824 0.144988
v -0.053391 0.041295 0.148123
vn -0.997251 0.031132 -0.067242
v -0.055655 0.039143 0.009933
vn -0.907062 0.416765 -0.059541
v -0.054750 0.043715 0.011754
vn -0.904314 -0.400355 -0.148096
v -0.054794 0.033268 0.006253
vn -0.746444 0.664850 -0.028222
v -0.051716 0.048846 0.013675
vn -0.749574 -0.660903 0.036692
v 0.000991 -0.027612 0.142314
vn -0.732430 -0.669043 0.126208
v 0.032427 -0.062548 0.148394
vn -0.143518 -0.132709 -0.980709
v -0.007828 -0.018872 0.005871
vn -0.543890 -0.027827 -0.838695
v -0.054794 0.036544 0.005871
vn -0.670654 0.716640 -0.191442
v -0.034001 0.066536 0.005871
vn -0.768271 -0.634870 0.081846
v -0.048912 0.029425 0.144953
vn 0.186979 -0.245102 -0.951296
v 0.063793 -0.066536 0.005871
vn 0.947720 -0.227672 -0.223588
v 0.081296 -0.048923 0.009785
vn 0.979535 0.024358 0.199793
v 0.074122 -0.045000 0.146134
vn 0.759163 0.641511 0.110163
v 0.069607 -0.037271 0.146993
vn -0.022455 -0.009043 0.999707
v -0.017368 0.015900 0.156342
vn -0.547549 -0.582291 -0.600939
v 0.036837 -0.066536 0.005871
vn -0.522494 -0.726943 0.445593
v 0.041921 -0.071002 0.152319
vn -0.362216 -0.927868 0.088658
v 0.045010 -0.073738 0.144814
vn 0.823257 -0.511678 -0.245832
v 0.080290 -0.050845 0.008585
vn 0.706726 0.693319 0.140880
v -0.018088 0.060563 0.148419
vn 0.725960 0.644658 0.239580
v 0.064579 -0.032177 0.148727
vn 0.744909 0.666194 0.036006
v 0.014115 0.025440 0.140900
vn 0.749211 0.661197 0.038755
v 0.064770 -0.031568 0.143727
vn -0.447960 0.890995 0.073887
v -0.033268 0.065157 0.142857
vn 0.040792 0.988439 0.146026
v -0.027362 0.066537 0.144114
vn 0.389500 0.919752 0.048428
v -0.025440 0.065932 0.142784
vn -0.522455 -0.413840 0.745505
v -0.045010 0.033046 0.154598
vn -0.971199 0.237604 0.017801
v -0.053261 0.043053 0.138943
vn -0.995766 -0.057096 0.072036
v -0.053585 0.039139 0.140900
vn -0.836956 0.530379 -0.134915
v -0.053567 0.046111 0.010582
vn -0.974047 -0.213627 0.074809
v -0.053325 0.037182 0.143808
vn -0.745842 -0.663945 0.053813
v 0.023875 -0.053245 0.145540
vn -0.715739 -0.698346 0.005598
v 0.037585 -0.068062 0.145996
vn -0.749463 -0.632750 0.194764
v -0.046967 0.027499 0.146770
vn -0.468866 -0.382582 -0.796113
v -0.050882 0.028343 0.005871
vn 0.631450 -0.774458 0.038555
v 0.056045 -0.071549 0.139921
vn 0.834909 -0.530792 0.145557
v 0.072023 -0.054947 0.144673
vn 0.548830 -0.810094 0.206236
v 0.054353 -0.072568 0.148600
vn 0.721082 -0.690966 0.051043
v 0.068502 -0.058829 0.141259
vn 0.996400 0.054402 0.065023
v 0.074513 -0.046967 0.142857
vn 0.010857 0.017878 0.999781
v 0.018106 -0.003534 0.156786
vn -0.110415 -0.149099 0.982638
v 0.044412 -0.066234 0.156730
vn 0.252803 0.203397 0.945897
v 0.061565 -0.037585 0.155789
vn 0.554813 0.561721 0.613720
v -0.017612 0.058708 0.151108
vn 0.586524 0.523060 0.618383
v 0.066583 -0.037182 0.152678
vn 0.745676 0.665497 0.032877
v 0.021526 0.017237 0.138943
vn -0.607043 0.793758 0.038034
v -0.034104 0.064579 0.142857
vn 0.350548 -0.078066 0.933286
v 0.070035 -0.050652 0.155510
vn -0.502890 -0.434981 0.746922
v 0.025856 -0.051580 0.153702
vn -0.959175 0.278278 -0.050436
v -0.054991 0.043053 0.011742
vn -0.907092 0.414320 0.074309
v -0.052761 0.044291 0.145771
vn -0.886529 0.269400 -0.376151
v -0.054687 0.041096 0.005871
vn -0.793797 0.600166 0.098422
v -0.049772 0.048659 0.143088
vn -0.695216 0.714405 0.079372
v -0.037447 0.061587 0.145761
vn -0.451344 0.543997 0.707358
v -0.037972 0.055840 0.154061
vn -0.702744 -0.622148 0.345083
v 0.029354 -0.058260 0.150684
vn -0.550078 -0.805359 -0.220931
v 0.041096 -0.070450 0.006855
vn 0.841638 -0.317396 0.436927
v 0.072054 -0.050575 0.153418
vn 0.994662 0.093764 -0.043076
v 0.081435 -0.046966 0.009794
vn -0.441431 -0.090242 0.892746
v -0.045778 0.041897 0.155794
vn -0.528903 0.806287 0.264883
v -0.034403 0.063824 0.147963
vn 0.749759 0.590750 -0.298121
v 0.076321 -0.037746 0.005871
vn -0.651439 0.757798 0.037012
v -0.035225 0.063716 0.140900
vn 0.112491 0.049824 0.992403
v 0.062919 -0.047602 0.156726
vn -0.471100 -0.364168 0.803396
v -0.046967 0.030439 0.151413
vn -0.124312 0.087138 -0.988410
v -0.051730 0.046580 0.005871
vn -0.914930 -0.402150 0.034320
v -0.052870 0.035154 0.136996
vn -0.749648 -0.553205 0.363307
v -0.049831 0.032537 0.150240
vn 0.453408 0.457103 0.765165
v -0.021248 0.058227 0.154687
vn -0.659568 -0.747591 0.077966
v 0.039070 -0.069475 0.149393
vn -0.505770 -0.287165 0.813470
v -0.046967 0.035225 0.154342
vn -0.727004 -0.617689 0.299877
v -0.046967 0.028342 0.148727
vn -0.760890 0.472324 0.444922
v -0.050100 0.046608 0.151489
vn -0.762530 -0.228382 0.605301
v -0.052145 0.037698 0.151079
vn -0.144147 0.210490 0.966910
v -0.036280 0.053297 0.155998
vn 0.436150 -0.897939 0.058984
v 0.052840 -0.073563 0.145235
vn 0.169625 0.699108 0.694605
v -0.026636 0.063313 0.154091
vn -0.484966 -0.343857 0.804096
v -0.045168 0.033268 0.154598
# 127 vertices, 0 vertices normals

f 16//16 111//111 4//4
f 19//19 3//3 52//52
f 19//19 52//52 59//59
f 84//84 59//59 52//52
f 84//84 7//7 59//59
f 20//20 59//59 7//7
f 25//25 24//24 14//14
f 26//26 60//60 2//2
f 26//26 25//25 14//14
f 26//26 2//2 25//25
f 27//27 111//111 9//9
f 116//116 80//80 52//52
f 81//81 11//11 7//7
f 81//81 7//7 55//55
f 33//33 7//7 84//84
f 33//33 65//65 82//82
f 33//33 82//82 55//55
f 33//33 55//55 7//7
f 34//34 20//20 7//7
f 35//35 2//2 60//60
f 68//68 16//16 4//4
f 68//68 35//35 16//16
f 36//36 108//108 12//12
f 22//22 108//108 4//4
f 37//37 4//4 111//111
f 40//40 24//24 25//25
f 41//41 60//60 26//26
f 41//41 26//26 14//14
f 41//41 14//14 106//106
f 88//88 68//68 86//86
f 86//86 68//68 21//21
f 42//42 25//25 2//2
f 42//42 35//35 85//85
f 42//42 2//2 35//35
f 17//17 27//27 9//9
f 45//45 74//74 28//28
f 46//46 28//28 74//74
f 75//75 5//5 9//9
f 75//75 9//9 46//46
f 48//48 10//10 30//30
f 91//91 30//30 10//10
f 50//50 52//52 80//80
f 50//50 49//49 32//32
f 54//54 7//7 11//11
f 54//54 20//20 34//34
f 54//54 34//34 7//7
f 119//119 65//65 106//106
f 117//117 3//3 19//19
f 56//56 33//33 84//84
f 56//56 65//65 33//33
f 58//58 53//53 47//47
f 60//60 16//16 35//35
f 15//15 35//35 68//68
f 61//61 68//68 4//4
f 61//61 4//4 108//108
f 61//61 108//108 36//36
f 61//61 36//36 21//21
f 61//61 21//21 68//68
f 62//62 108//108 22//22
f 37//37 22//22 4//4
f 63//63 37//37 111//111
f 90//90 13//13 124//124
f 94//94 23//23 118//118
f 125//125 40//40 25//25
f 125//125 25//25 42//42
f 65//65 41//41 106//106
f 67//67 106//106 14//14
f 67//67 14//14 24//24
f 68//68 88//88 15//15
f 43//43 17//17 9//9
f 69//69 43//43 9//9
f 69//69 9//9 5//5
f 71//71 27//27 17//17
f 71//71 17//17 44//44
f 71//71 111//111 27//27
f 63//63 44//44 17//17
f 63//63 17//17 70//70
f 72//72 111//111 44//44
f 72//72 44//44 63//63
f 73//73 45//45 28//28
f 110//110 126//126 74//74
f 5//5 39//39 69//69
f 75//75 46//46 74//74
f 76//76 18//18 10//10
f 76//76 10//10 48//48
f 98//98 10//10 18//18
f 114//114 31//31 98//98
f 77//77 32//32 49//49
f 78//78 50//50 80//80
f 78//78 49//49 50//50
f 50//50 57//57 52//52
f 103//103 47//47 53//53
f 103//103 58//58 47//47
f 123//123 78//78 80//80
f 123//123 49//49 78//78
f 81//81 54//54 11//11
f 81//81 59//59 54//54
f 82//82 65//65 119//119
f 83//83 81//81 55//55
f 84//84 52//52 57//57
f 117//117 19//19 59//59
f 85//85 35//35 15//15
f 86//86 21//21 36//36
f 86//86 36//36 12//12
f 107//107 86//86 12//12
f 97//97 92//92 38//38
f 88//88 87//87 15//15
f 88//88 86//86 87//87
f 89//89 12//12 108//108
f 72//72 63//63 111//111
f 13//13 90//90 38//38
f 1//1 90//90 64//64
f 1//1 64//64 91//91
f 118//118 23//23 126//126
f 92//92 8//8 118//118
f 93//93 94//94 39//39
f 93//93 23//23 94//94
f 93//93 126//126 23//23
f 93//93 39//39 126//126
f 94//94 118//118 8//8
f 5//5 126//126 39//39
f 125//125 42//42 85//85
f 17//17 43//43 69//69
f 69//69 70//70 17//17
f 69//69 39//39 70//70
f 95//95 71//71 44//44
f 95//95 44//44 111//111
f 96//96 110//110 73//73
f 96//96 73//73 28//28
f 96//96 28//28 58//58
f 74//74 5//5 75//75
f 110//110 45//45 73//73
f 110//110 74//74 45//45
f 29//29 1//1 91//91
f 109//109 30//30 91//91
f 91//91 10//10 29//29
f 66//66 98//98 31//31
f 66//66 29//29 10//10
f 66//66 10//10 98//98
f 99//99 32//32 77//77
f 100//100 99//99 77//77
f 100//100 51//51 99//99
f 51//51 102//102 79//79
f 51//51 100//100 102//102
f 101//101 57//57 50//50
f 101//101 50//50 99//99
f 101//101 99//99 51//51
f 101//101 51//51 79//79
f 116//116 3//3 80//80
f 123//123 80//80 3//3
f 53//53 79//79 102//102
f 6//6 122//122 123//123
f 20//20 54//54 59//59
f 105//105 66//66 31//31
f 55//55 82//82 119//119
f 119//119 106//106 67//67
f 59//59 83//83 117//117
f 59//59 81//81 83//83
f 122//122 49//49 123//123
f 107//107 97//97 29//29
f 108//108 62//62 89//89
f 22//22 8//8 62//62
f 22//22 37//37 63//63
f 118//118 13//13 92//92
f 22//22 70//70 39//39
f 22//22 63//63 70//70
f 22//22 39//39 8//8
f 122//122 6//6 104//104
f 40//40 67//67 24//24
f 111//111 71//71 95//95
f 112//112 110//110 96//96
f 112//112 96//96 58//58
f 112//112 58//58 103//103
f 1//1 29//29 97//97
f 113//113 97//97 38//38
f 109//109 48//48 30//30
f 123//123 18//18 76//76
f 50//50 32//32 99//99
f 49//49 100//100 77//77
f 79//79 53//53 58//58
f 116//116 52//52 3//3
f 123//123 3//3 117//117
f 102//102 103//103 53//53
f 110//110 112//112 103//103
f 103//103 102//102 110//110
f 122//122 110//110 102//102
f 126//126 110//110 104//104
f 104//104 110//110 122//122
f 122//122 102//102 100//100
f 49//49 122//122 100//100
f 117//117 105//105 31//31
f 117//117 31//31 114//114
f 55//55 105//105 83//83
f 55//55 66//66 105//105
f 38//38 92//92 13//13
f 29//29 87//87 107//107
f 87//87 125//125 15//15
f 86//86 107//107 87//87
f 125//125 85//85 15//15
f 8//8 39//39 94//94
f 62//62 107//107 12//12
f 62//62 12//12 89//89
f 107//107 62//62 8//8
f 124//124 64//64 90//90
f 126//126 5//5 74//74
f 40//40 29//29 66//66
f 40//40 87//87 29//29
f 40//40 125//125 87//87
f 66//66 119//119 67//67
f 66//66 67//67 40//40
f 113//113 38//38 90//90
f 91//91 6//6 109//109
f 120//120 48//48 109//109
f 120//120 123//123 76//76
f 120//120 109//109 123//123
f 123//123 117//117 114//114
f 123//123 114//114 98//98
f 123//123 98//98 18//18
f 121//121 117//117 83//83
f 121//121 83//83 105//105
f 121//121 105//105 117//117
f 123//123 109//109 6//6
f 6//6 124//124 104//104
f 126//126 104//104 124//124
f 66//66 55//55 119//119
f 97//97 8//8 92//92
f 6//6 64//64 124//124
f 118//118 126//126 13//13
f 126//126 124//124 13//13
f 113//113 90//90 1//1
f 6//6 91//91 64//64
f 127//127 120//120 76//76
f 127//127 76//76 48//48
f 127//127 48//48 120//120
f 115//115 79//79 58//58
f 115//115 58//58 28//28
f 115//115 28//28 46//46
f 115//115 46//46 9//9
f 115//115 9//9 111//111
f 115//115 111//111 16//16
f 115//115 16//16 60//60
f 115//115 60//60 41//41
f 115//115 41//41 65//65
f 115//115 65//65 56//56
f 115//115 56//56 84//84
f 115//115 84//84 57//57
f 115//115 57//57 101//101
f 115//115 101//101 79//79
f 107//107 8//8 97//97
f 113//113 1//1 97//97
# 250 faces, 0 coords texture

# End of File
