####
#
# OBJ File Generated by Meshlab
#
####
# Object progresso_new_england_clam_chowder_250_collision.obj
#
# Vertices: 127
# Faces: 250
#
####
vn -0.093134 0.922514 -0.374557
v 0.015305 0.062625 0.005870
vn 0.215142 -0.919204 -0.329816
v 0.025441 -0.029354 0.005871
vn -0.954418 -0.134777 -0.266311
v -0.037182 0.000098 0.015656
vn -0.453456 -0.890061 -0.046573
v -0.005871 -0.025697 0.007828
vn -0.636503 0.582083 -0.506007
v -0.021113 0.046967 0.005871
vn 0.482466 -0.005348 -0.875899
v 0.058327 0.019569 0.005871
vn 0.937526 -0.294883 0.184633
v 0.053620 0.003565 0.100420
vn -0.876198 -0.049478 0.479405
v -0.030060 0.016632 0.106877
vn -0.689223 0.723858 0.031662
v -0.016860 0.048923 0.095890
vn -0.130821 0.371745 -0.919071
v -0.002691 0.058708 0.005871
vn -0.561175 -0.466482 -0.683723
v -0.023483 -0.013583 0.005871
vn 0.484835 0.874593 -0.004604
v 0.033268 0.055100 0.009785
vn 0.982826 -0.150197 -0.107207
v 0.058735 0.007841 0.007980
vn 0.656050 -0.296523 -0.694026
v 0.052837 -0.005871 0.006678
vn -0.975652 0.198709 0.092833
v -0.031325 0.023483 0.097847
vn 0.441235 0.334144 0.832862
v 0.044571 0.039147 0.108095
vn -0.004960 0.996389 0.084760
v 0.011742 0.059342 0.097847
vn -0.782953 0.609226 0.125810
v -0.023486 0.041188 0.099426
vn -0.429007 -0.148748 -0.890970
v -0.029025 -0.001839 0.005871
vn 0.467443 0.855175 -0.223992
v 0.029183 0.057281 0.006052
vn -0.494366 -0.758772 -0.424108
v -0.016654 -0.019569 0.005871
vn -0.521165 -0.573553 0.632000
v -0.012941 -0.016427 0.107740
vn -0.675453 -0.736694 0.032343
v -0.018586 -0.015656 0.095890
vn -0.453912 -0.885784 0.096695
v -0.007648 -0.023401 0.098935
vn 0.643241 0.676842 0.357947
v 0.039922 0.047334 0.104488
vn 0.965891 0.236826 -0.104726
v 0.058721 0.025430 0.008096
vn 0.704069 0.453891 -0.546140
v 0.049177 0.041096 0.005871
vn 0.680391 -0.729482 -0.070174
v 0.043053 -0.020335 0.007828
vn 0.761896 -0.641229 0.091324
v 0.045313 -0.012100 0.099804
vn -0.985105 -0.009029 0.171714
v -0.031772 0.015579 0.100879
vn -0.420718 -0.012181 -0.907110
v -0.033268 0.017017 0.005871
vn -0.724263 0.689367 0.014729
v -0.017612 0.050545 0.013699
vn -0.751664 0.658199 0.042131
v -0.019569 0.046116 0.095890
vn 0.609718 0.695911 -0.379411
v 0.044987 0.046639 0.005862
vn 0.065674 0.161719 -0.984649
v 0.021394 0.060724 0.005871
vn 0.000263 -0.999515 0.031124
v 0.011338 -0.028185 0.108529
vn 0.297046 -0.953553 0.049996
v 0.023483 -0.026755 0.095890
vn -0.719831 -0.693941 0.016995
v -0.035341 -0.001957 0.017612
vn -0.665776 -0.734638 -0.130572
v -0.021523 -0.015657 0.006233
vn 0.385775 -0.126042 0.913943
v 0.049978 0.003664 0.108472
vn 0.992428 0.066038 0.103569
v 0.055395 0.018938 0.098199
vn 0.630055 0.331948 -0.702027
v 0.054021 0.033175 0.005871
vn 0.871701 0.488200 0.042393
v 0.050069 0.037180 0.097865
vn 0.531640 -0.700088 -0.476693
v 0.039139 -0.023483 0.006150
vn 0.693571 -0.714165 0.094484
v 0.042156 -0.015979 0.095215
vn 0.782203 -0.593171 -0.190542
v 0.048923 -0.013974 0.007828
vn 0.760361 -0.551197 0.343559
v 0.046621 -0.009493 0.105374
vn 0.112795 -0.044197 -0.992635
v 0.054703 0.007149 0.005871
vn -0.915740 -0.400137 0.036202
v -0.037182 0.000000 0.016052
vn -0.946590 0.299027 0.120621
v -0.030209 0.027397 0.097847
vn -0.051839 0.311851 0.948716
v 0.011588 0.055518 0.108235
vn -0.642443 0.757864 -0.113622
v -0.011742 0.056751 0.008873
vn -0.303049 0.413692 -0.858499
v -0.016145 0.050973 0.005871
vn -0.733538 0.679425 0.017439
v -0.019569 0.048470 0.013699
vn -0.789098 0.614085 0.014977
v -0.022533 0.045010 0.013699
vn -0.130683 0.988941 0.070129
v 0.005871 0.059098 0.095890
vn -0.279035 -0.898824 -0.338016
v -0.001975 -0.027400 0.005871
vn -0.135097 -0.976691 0.166806
v 0.006331 -0.027833 0.099130
vn -0.108315 -0.994115 0.001811
v 0.007828 -0.028803 0.015656
vn 0.092769 -0.995375 0.024934
v 0.017612 -0.028004 0.093933
vn 0.338761 -0.931817 0.130220
v 0.027048 -0.025440 0.097847
vn 0.105232 -0.905374 0.411368
v 0.017267 -0.026089 0.105856
vn -0.273768 -0.036753 0.961093
v -0.027108 0.009608 0.108594
vn -0.593624 -0.254111 0.763569
v -0.025701 -0.000149 0.108427
vn -0.515953 -0.856417 0.018499
v -0.011050 -0.021526 0.093933
vn -0.562211 -0.806469 0.183103
v -0.013760 -0.019658 0.101561
vn 0.889826 -0.438363 0.126682
v 0.051115 -0.003797 0.098355
vn 0.975594 0.203987 0.081274
v 0.054443 0.025440 0.095890
vn 0.712888 0.549180 -0.436111
v 0.046967 0.044420 0.005871
vn 0.785493 0.617495 0.041247
v 0.045963 0.043053 0.095890
vn 0.977279 -0.146365 0.153310
v 0.054843 0.008016 0.099194
vn -0.903598 -0.383251 0.191389
v -0.027113 -0.003914 0.097847
vn -0.765190 -0.583686 0.271653
v -0.022334 -0.011118 0.100695
vn -0.912697 0.379501 -0.151535
v -0.031311 0.033268 0.005926
vn -0.723616 0.688472 0.048855
v -0.018206 0.047589 0.095890
vn -0.074448 0.992585 0.096085
v 0.008806 0.059345 0.095890
vn -0.161035 0.986688 0.022684
v 0.005871 0.059144 0.093933
vn 0.127913 0.990371 0.052955
v 0.017612 0.058858 0.097847
vn 0.462118 0.886759 0.010261
v 0.030168 0.056751 0.007828
vn -0.054186 -0.829905 -0.555268
v 0.013930 -0.029342 0.005871
vn 0.020436 -0.194360 0.980717
v 0.013826 -0.023956 0.109050
vn 0.312064 -0.783577 0.537237
v 0.027558 -0.022394 0.108579
vn -0.308272 -0.929956 0.200375
v -0.002112 -0.025657 0.100964
vn -0.102861 -0.523116 0.846031
v 0.006973 -0.024316 0.108864
vn 0.884693 -0.302977 0.354293
v 0.052792 0.006481 0.105288
vn 0.909900 -0.049303 0.411888
v 0.054009 0.011896 0.106576
vn 0.408639 -0.399355 0.820689
v 0.042217 -0.011203 0.108526
vn 0.541504 0.839840 -0.037986
v 0.037293 0.052762 0.010189
vn 0.756963 0.651647 0.048601
v 0.045010 0.044220 0.095890
vn 0.888731 0.286393 0.357960
v 0.052245 0.030988 0.104933
vn 0.465272 0.113299 0.877887
v 0.049967 0.027292 0.108137
vn -0.910171 -0.326127 0.255400
v -0.029741 0.002921 0.101726
vn -0.841624 -0.500845 0.202046
v -0.024451 -0.008266 0.099826
vn -0.879070 -0.443505 0.174756
v -0.025930 -0.005871 0.099804
vn -0.777679 -0.509721 0.367967
v -0.024269 -0.006331 0.104605
vn -0.875852 0.436876 0.204994
v -0.027177 0.034653 0.101787
vn -0.758937 0.198516 0.620167
v -0.028059 0.026650 0.108523
vn -0.513181 0.483229 0.709320
v -0.019629 0.041655 0.108391
vn -0.416859 0.888868 0.190110
v -0.008178 0.054776 0.100092
vn 0.072080 0.993082 0.092698
v 0.013699 0.059244 0.097847
vn 0.222442 0.972660 0.066728
v 0.021526 0.058249 0.093933
vn 0.159762 0.981189 -0.108370
v 0.015873 0.062622 0.005873
vn 0.345430 0.932939 0.101504
v 0.026430 0.056724 0.100355
vn 0.164373 0.980714 0.105741
v 0.018864 0.058527 0.100320
vn 0.289026 -0.937278 0.194871
v 0.020935 -0.027336 0.098638
vn -0.353467 -0.819388 0.451292
v -0.003140 -0.023358 0.105712
vn 0.185467 -0.967659 0.170992
v 0.019339 -0.027695 0.099190
vn 0.810692 0.565436 0.151860
v 0.048942 0.038833 0.100020
vn 0.702836 0.699260 0.130604
v 0.042203 0.047072 0.099196
vn 0.932782 0.350647 0.083455
v 0.052789 0.030873 0.100214
vn 0.578564 -0.790193 0.202136
v 0.037006 -0.019888 0.101797
vn -0.977227 0.121873 0.173709
v -0.031632 0.020049 0.099878
vn -0.360343 0.742290 0.564942
v -0.007728 0.052327 0.106801
vn -0.967529 -0.133344 0.214726
v -0.031191 0.010210 0.101511
vn -0.677900 0.717633 0.159544
v -0.015895 0.049586 0.100692
vn -0.262445 0.907674 0.327493
v -0.000857 0.057525 0.101774
vn -0.527097 0.818643 0.228020
v -0.011862 0.052804 0.100430
vn 0.296735 0.907085 0.298571
v 0.024304 0.056492 0.104931
vn 0.406013 -0.899951 0.158879
v 0.030814 -0.023834 0.098405
vn -0.133096 -0.911954 0.388105
v 0.007206 -0.026087 0.105996
vn -0.716943 -0.659753 0.225207
v -0.019821 -0.014103 0.101169
vn 0.548424 0.821223 0.157557
v 0.037542 0.051055 0.098653
vn 0.350501 0.637796 0.685832
v 0.032958 0.050632 0.107983
vn 0.514848 -0.854051 0.074357
v 0.034999 -0.021438 0.098991
vn 0.455624 0.889514 0.034224
v 0.031359 0.054802 0.096126
vn -0.339960 0.919026 -0.199547
v -0.008167 0.058708 0.007828
vn 0.002964 0.919314 0.393515
v 0.012491 0.058005 0.106374
# 127 vertices, 0 vertices normals

f 44//44 119//119 2//2
f 13//13 6//6 26//26
f 14//14 6//6 13//13
f 14//14 46//46 44//44
f 15//15 74//74 3//3
f 31//31 3//3 74//74
f 98//98 97//97 81//81
f 98//98 81//81 51//51
f 1//1 10//10 126//126
f 53//53 126//126 10//10
f 19//19 11//11 3//3
f 42//42 26//26 6//6
f 21//21 4//4 24//24
f 21//21 57//57 4//4
f 63//63 81//81 97//97
f 24//24 4//4 57//57
f 26//26 41//41 13//13
f 28//28 44//44 46//46
f 67//67 46//46 14//14
f 67//67 14//14 13//13
f 48//48 6//6 14//14
f 112//112 97//97 15//15
f 31//31 19//19 3//3
f 31//31 74//74 5//5
f 40//40 81//81 87//87
f 40//40 16//16 51//51
f 40//40 51//51 81//81
f 117//117 126//126 52//52
f 53//53 5//5 52//52
f 32//32 52//52 5//5
f 76//76 17//17 1//1
f 58//58 57//57 59//59
f 84//84 63//63 64//64
f 84//84 81//81 63//63
f 38//38 23//23 121//121
f 39//39 11//11 21//21
f 39//39 23//23 38//38
f 66//66 39//39 21//21
f 82//82 87//87 81//81
f 43//43 42//42 27//27
f 43//43 26//26 42//42
f 124//124 119//119 44//44
f 45//45 28//28 46//46
f 111//111 44//44 28//28
f 46//46 67//67 29//29
f 7//7 13//13 71//71
f 48//48 14//14 44//44
f 49//49 114//114 30//30
f 49//49 112//112 15//15
f 49//49 15//15 3//3
f 49//49 92//92 114//114
f 49//49 38//38 121//121
f 49//49 39//39 38//38
f 49//49 3//3 11//11
f 49//49 11//11 39//39
f 50//50 74//74 15//15
f 50//50 15//15 97//97
f 53//53 52//52 126//126
f 75//75 9//9 52//52
f 75//75 52//52 32//32
f 54//54 32//32 5//5
f 54//54 5//5 33//33
f 55//55 5//5 74//74
f 55//55 74//74 18//18
f 55//55 18//18 33//33
f 55//55 33//33 5//5
f 48//48 44//44 2//2
f 80//80 59//59 57//57
f 80//80 36//36 59//59
f 102//102 1//1 17//17
f 20//20 35//35 125//125
f 59//59 36//36 58//58
f 60//60 2//2 107//107
f 105//105 107//107 2//2
f 105//105 2//2 37//37
f 61//61 37//37 2//2
f 61//61 2//2 119//119
f 64//64 22//22 84//84
f 65//65 21//21 24//24
f 91//91 16//16 40//40
f 85//85 40//40 47//47
f 123//123 51//51 16//16
f 68//68 26//26 110//110
f 68//68 110//110 90//90
f 46//46 29//29 45//45
f 45//45 111//111 28//28
f 124//124 44//44 111//111
f 85//85 7//7 71//71
f 30//30 112//112 49//49
f 95//95 64//64 92//92
f 114//114 8//8 30//30
f 8//8 92//92 64//64
f 115//115 52//52 9//9
f 75//75 54//54 33//33
f 75//75 18//18 115//115
f 75//75 33//33 18//18
f 75//75 32//32 54//54
f 76//76 1//1 56//56
f 77//77 56//56 1//1
f 77//77 1//1 126//126
f 77//77 126//126 56//56
f 20//20 88//88 34//34
f 88//88 20//20 12//12
f 79//79 12//12 20//20
f 36//36 2//2 60//60
f 36//36 60//60 107//107
f 36//36 107//107 58//58
f 80//80 2//2 36//36
f 83//83 24//24 57//57
f 107//107 105//105 62//62
f 66//66 21//21 65//65
f 121//121 39//39 66//66
f 121//121 23//23 39//39
f 47//47 29//29 67//67
f 85//85 86//86 40//40
f 85//85 47//47 67//67
f 85//85 67//67 7//7
f 67//67 13//13 7//7
f 47//47 87//87 111//111
f 87//87 47//47 40//40
f 88//88 122//122 34//34
f 43//43 110//110 26//26
f 26//26 68//68 41//41
f 90//90 41//41 68//68
f 41//41 90//90 86//86
f 108//108 43//43 27//27
f 108//108 27//27 69//69
f 108//108 69//69 70//70
f 89//89 70//70 69//69
f 89//89 69//69 34//34
f 89//89 34//34 109//109
f 47//47 45//45 29//29
f 90//90 91//91 86//86
f 86//86 85//85 71//71
f 86//86 71//71 13//13
f 86//86 13//13 41//41
f 92//92 49//49 72//72
f 121//121 73//73 49//49
f 93//93 73//73 95//95
f 93//93 49//49 73//73
f 94//94 72//72 49//49
f 95//95 22//22 64//64
f 96//96 74//74 50//50
f 96//96 50//50 97//97
f 92//92 8//8 114//114
f 97//97 8//8 63//63
f 117//117 52//52 115//115
f 115//115 9//9 75//75
f 117//117 113//113 99//99
f 18//18 74//74 96//96
f 127//127 17//17 76//76
f 100//100 78//78 102//102
f 100//100 102//102 17//17
f 101//101 103//103 102//102
f 125//125 79//79 20//20
f 125//125 12//12 79//79
f 125//125 88//88 12//12
f 103//103 125//125 35//35
f 35//35 102//102 103//103
f 35//35 1//1 102//102
f 35//35 10//10 1//1
f 35//35 53//53 10//10
f 35//35 5//5 53//53
f 35//35 31//31 5//5
f 35//35 19//19 31//31
f 35//35 11//11 19//19
f 35//35 21//21 11//11
f 35//35 57//57 21//21
f 35//35 80//80 57//57
f 35//35 2//2 80//80
f 35//35 48//48 2//2
f 35//35 6//6 48//48
f 35//35 42//42 6//6
f 35//35 27//27 42//42
f 35//35 69//69 27//27
f 35//35 34//34 69//69
f 35//35 20//20 34//34
f 58//58 120//120 83//83
f 105//105 61//61 119//119
f 105//105 37//37 61//61
f 62//62 81//81 84//84
f 81//81 62//62 82//82
f 58//58 62//62 120//120
f 111//111 87//87 82//82
f 109//109 34//34 122//122
f 108//108 16//16 90//90
f 108//108 110//110 43//43
f 90//90 110//110 108//108
f 47//47 111//111 45//45
f 93//93 94//94 49//49
f 93//93 72//72 94//94
f 93//93 92//92 72//72
f 64//64 63//63 8//8
f 95//95 92//92 93//93
f 113//113 117//117 98//98
f 98//98 115//115 18//18
f 98//98 18//18 96//96
f 98//98 96//96 97//97
f 127//127 76//76 56//56
f 116//116 56//56 126//126
f 117//117 99//99 126//126
f 127//127 100//100 17//17
f 104//104 101//101 102//102
f 104//104 102//102 78//78
f 104//104 78//78 100//100
f 104//104 100//100 127//127
f 105//105 82//82 62//62
f 119//119 124//124 111//111
f 106//106 24//24 83//83
f 66//66 106//106 22//22
f 66//66 24//24 106//106
f 58//58 83//83 57//57
f 120//120 62//62 84//84
f 58//58 107//107 62//62
f 120//120 84//84 106//106
f 22//22 95//95 73//73
f 24//24 66//66 65//65
f 108//108 109//109 25//25
f 122//122 25//25 109//109
f 51//51 123//123 127//127
f 123//123 118//118 127//127
f 108//108 89//89 109//109
f 108//108 70//70 89//89
f 40//40 86//86 91//91
f 16//16 91//91 90//90
f 51//51 113//113 98//98
f 51//51 116//116 113//113
f 51//51 127//127 116//116
f 8//8 97//97 112//112
f 117//117 115//115 98//98
f 118//118 103//103 101//101
f 118//118 101//101 104//104
f 119//119 82//82 105//105
f 111//111 82//82 119//119
f 22//22 106//106 84//84
f 120//120 106//106 83//83
f 73//73 121//121 22//22
f 66//66 22//22 121//121
f 16//16 108//108 25//25
f 122//122 118//118 123//123
f 122//122 103//103 118//118
f 122//122 123//123 25//25
f 125//125 122//122 88//88
f 112//112 30//30 8//8
f 116//116 99//99 113//113
f 104//104 127//127 118//118
f 116//116 127//127 56//56
f 116//116 126//126 99//99
f 125//125 103//103 122//122
f 25//25 123//123 16//16
# 250 faces, 0 coords texture

# End of File
