####
#
# OBJ File Generated by Meshlab
#
####
# Object expo_marker_red_250_collision.obj
#
# Vertices: 102
# Faces: 200
#
####
vn -0.011944 0.264347 -0.964354
v 0.001957 0.019569 0.009323
vn 0.255910 -0.936632 -0.239231
v 0.007827 -0.006459 0.011712
vn -0.868675 -0.275444 -0.411745
v -0.009729 0.003985 0.009853
vn 0.786262 0.106297 -0.608681
v 0.014673 0.010575 0.009773
vn -0.815027 0.560332 0.147511
v -0.005232 0.007828 0.109589
vn -0.612768 -0.770465 0.175781
v -0.003307 -0.003898 0.109833
vn -0.315059 -0.393530 -0.863639
v -0.003914 -0.003914 0.009421
vn 0.594196 0.787343 0.164386
v 0.007828 0.010414 0.109589
vn -0.708042 0.592461 -0.384274
v -0.006703 0.015656 0.009785
vn -0.919841 -0.389667 0.045300
v -0.006626 0.000000 0.101761
vn 0.563147 0.787796 -0.249483
v 0.011742 0.016995 0.009785
vn -0.974822 0.221741 0.023534
v -0.009726 0.009543 0.011742
vn -0.654999 -0.754918 0.032779
v -0.003895 -0.003920 0.102793
vn 0.129837 -0.990850 0.036869
v 0.003914 -0.005993 0.103718
vn 0.334350 0.939382 0.075972
v 0.005871 0.011899 0.107632
vn -0.543427 0.831496 0.115336
v -0.001957 0.011242 0.105675
vn 0.480678 -0.571697 -0.664914
v 0.011827 -0.003955 0.009785
vn 0.880413 -0.473882 -0.017595
v 0.012276 -0.003914 0.013699
vn -0.995765 -0.068427 0.061401
v -0.007041 0.001902 0.103030
vn -0.780329 -0.585252 -0.220380
v -0.007791 0.000000 0.009785
vn -0.569730 -0.817422 -0.085025
v -0.003914 -0.004563 0.011742
vn -0.964875 0.247291 0.088672
v -0.006395 0.005670 0.107684
vn 0.016305 -0.772306 -0.635042
v 0.001468 -0.006428 0.009785
vn 0.080278 -0.988475 -0.128342
v 0.005871 -0.006704 0.011742
vn 0.239784 0.969402 0.052569
v 0.005871 0.018993 0.011742
vn 0.426109 0.889816 0.163277
v 0.005871 0.011742 0.109413
vn -0.076875 0.989078 0.125758
v 0.001957 0.012406 0.107632
vn 0.962290 0.196824 0.187770
v 0.011155 0.005747 0.108418
vn -0.388655 0.921029 0.025552
v -0.001957 0.019165 0.011742
vn 0.500856 -0.860339 -0.094657
v 0.010040 -0.005871 0.013699
vn -0.650351 0.379336 -0.658140
v -0.008082 0.013712 0.009785
vn -0.843996 -0.535911 0.021669
v -0.005871 -0.001361 0.101761
vn -0.813869 -0.422376 -0.399018
v -0.007828 0.000065 0.009785
vn -0.440943 -0.896609 0.040762
v -0.001912 -0.005123 0.101286
vn -0.694334 -0.711177 -0.110125
v -0.004700 -0.003914 0.011742
vn -0.883266 0.465301 0.057755
v -0.005871 0.007160 0.105675
vn -0.991846 0.115620 0.053602
v -0.006868 0.003914 0.103718
vn -0.048731 -0.998438 0.027322
v 0.001957 -0.006118 0.101761
vn 0.999021 0.041633 0.014940
v 0.014964 0.007828 0.015656
vn 0.223337 0.932840 -0.282720
v 0.005871 0.019043 0.009785
vn 0.143027 0.977876 0.152652
v 0.003914 0.012217 0.109589
vn 0.350665 0.035611 0.935824
v 0.004599 0.003425 0.119556
vn 0.950428 0.308238 0.040944
v 0.014204 0.011742 0.013699
vn -0.725293 0.682411 0.090913
v -0.003911 0.009782 0.105675
vn -0.556818 0.767688 -0.317189
v -0.004704 0.017801 0.009788
vn -0.063799 0.989998 -0.125832
v 0.000000 0.019785 0.009785
vn -0.282796 0.945246 0.162899
v 0.000000 0.011909 0.109589
vn -0.510751 0.857744 0.058382
v -0.003914 0.018246 0.011742
vn 0.322953 -0.946132 -0.023141
v 0.009785 -0.005987 0.013699
vn -0.727427 0.472598 -0.497495
v -0.007860 0.014063 0.009785
vn -0.795172 -0.606107 0.018320
v -0.005417 -0.001957 0.101761
vn -0.842220 -0.530567 0.095724
v -0.005415 -0.001760 0.105919
vn -0.899587 -0.436595 0.011298
v -0.008698 0.001957 0.013699
vn -0.849782 0.322811 -0.416731
v -0.009078 0.011851 0.009790
vn -0.816091 0.074429 -0.573111
v -0.010094 0.007811 0.009785
vn -0.263919 -0.951065 -0.160695
v 0.000000 -0.006949 0.011200
vn -0.185129 -0.974056 0.130161
v 0.000978 -0.005586 0.110322
vn -0.261485 -0.964513 0.036601
v 0.000000 -0.005725 0.103718
vn 0.710009 -0.568392 0.415714
v 0.007494 -0.002521 0.114459
vn 0.113973 0.992222 -0.050048
v 0.001957 0.019669 0.009785
vn 0.313042 0.637928 0.703600
v 0.004613 0.008028 0.117547
vn 0.828586 -0.069046 0.555588
v 0.009187 0.002446 0.115002
vn 0.937661 -0.340422 0.070039
v 0.010468 0.000000 0.105675
vn 0.906817 0.403022 -0.123513
v 0.013777 0.013395 0.009290
vn 0.708874 0.675407 0.203280
v 0.008561 0.009785 0.109589
vn -0.733440 0.677155 0.059390
v -0.005871 0.016250 0.013699
vn -0.276258 0.883223 -0.378944
v -0.001050 0.019569 0.009785
vn -0.478143 0.832796 0.278981
v -0.000972 0.010846 0.111244
vn -0.620396 0.775239 0.118805
v -0.003445 0.009785 0.109589
vn -0.490068 0.857225 0.158107
v -0.000348 0.011742 0.109589
vn 0.904413 -0.153880 -0.397943
v 0.014744 0.003202 0.009789
vn 0.698214 -0.715887 -0.001632
v 0.011742 -0.004559 0.013699
vn -0.152576 -0.673336 0.723422
v 0.001957 -0.002489 0.117770
vn -0.926443 -0.104896 0.361525
v -0.006090 0.002303 0.113656
vn -0.688548 -0.593465 0.416774
v -0.003737 -0.001923 0.113007
vn -0.289503 -0.869158 0.400940
v 0.000489 -0.004641 0.114149
vn 0.279936 -0.958911 0.046113
v 0.004414 -0.005871 0.103718
vn 0.697709 -0.706925 0.116013
v 0.007828 -0.003434 0.111546
vn 0.998993 -0.039986 0.020346
v 0.014906 0.005871 0.017612
vn -0.331401 0.168425 0.928335
v -0.000660 0.005083 0.119228
vn 0.772478 0.489809 0.404184
v 0.008746 0.007970 0.112954
vn 0.807765 -0.587559 0.047865
v 0.009417 -0.001957 0.105675
vn 0.779976 0.587786 0.214813
v 0.009785 0.008203 0.109589
vn 0.924827 -0.379833 0.020558
v 0.013924 0.000000 0.023483
vn 0.463846 -0.864426 0.193944
v 0.006511 -0.004361 0.111056
vn 0.655349 -0.754377 0.037845
v 0.007828 -0.003753 0.105675
vn 0.756456 0.294200 0.584141
v 0.007426 0.006349 0.116258
vn -0.366981 -0.357159 0.858931
v -0.000725 0.000087 0.118403
vn 0.503914 0.784540 0.361341
v 0.006570 0.010441 0.112408
vn 0.976007 -0.202576 0.079828
v 0.010842 0.001957 0.107632
vn 0.994941 -0.070323 0.071743
v 0.011313 0.003914 0.105675
vn 0.942985 -0.265695 0.200463
v 0.010138 0.001223 0.112258
vn 0.884163 -0.462312 0.067264
v 0.009785 -0.001341 0.105675
vn 0.863471 -0.484808 0.139207
v 0.009118 -0.001957 0.109589
vn 0.870573 0.464988 0.160900
v 0.010023 0.007827 0.109609
vn 0.976770 -0.213568 0.017562
v 0.014526 0.001920 0.022334
vn 0.224825 -0.963632 0.144452
v 0.003914 -0.005486 0.110567
vn 0.484599 -0.873351 0.049205
v 0.005871 -0.005375 0.103718
vn 0.273978 -0.859908 0.430690
v 0.005082 -0.004053 0.114743
vn 0.387967 -0.412105 0.824410
v 0.004969 -0.000386 0.118319
vn -0.472195 0.685683 0.553959
v -0.002048 0.008638 0.117091
vn -0.017962 0.935899 0.351809
v 0.002993 0.011777 0.111634
# 102 vertices, 0 vertices normals

f 17//17 7//7 1//1
f 17//17 1//1 71//71
f 19//19 3//3 10//10
f 22//22 54//54 12//12
f 23//23 7//7 17//17
f 24//24 2//2 14//14
f 24//24 56//56 23//23
f 71//71 1//1 4//4
f 4//4 1//1 11//11
f 25//25 15//15 11//11
f 26//26 8//8 11//11
f 26//26 11//11 15//15
f 23//23 2//2 24//24
f 31//31 1//1 54//54
f 55//55 3//3 19//19
f 33//33 32//32 10//10
f 33//33 20//20 32//32
f 33//33 3//3 7//7
f 33//33 7//7 20//20
f 55//55 7//7 3//3
f 55//55 1//1 7//7
f 34//34 21//21 56//56
f 34//34 13//13 21//21
f 35//35 20//20 7//7
f 35//35 7//7 21//21
f 35//35 21//21 13//13
f 35//35 13//13 20//20
f 36//36 54//54 22//22
f 36//36 22//22 5//5
f 56//56 7//7 23//23
f 38//38 24//24 14//14
f 38//38 56//56 24//24
f 39//39 71//71 4//4
f 40//40 25//25 11//11
f 40//40 11//11 1//1
f 41//41 15//15 25//25
f 41//41 26//26 15//15
f 44//44 9//9 5//5
f 46//46 27//27 41//41
f 47//47 27//27 46//46
f 48//48 47//47 29//29
f 48//48 29//29 45//45
f 68//68 44//44 5//5
f 2//2 23//23 17//17
f 49//49 14//14 2//2
f 49//49 2//2 30//30
f 17//17 30//30 2//2
f 50//50 9//9 1//1
f 50//50 1//1 31//31
f 51//51 32//32 20//20
f 51//51 20//20 13//13
f 52//52 6//6 75//75
f 52//52 75//75 74//74
f 53//53 33//33 10//10
f 53//53 10//10 3//3
f 53//53 3//3 33//33
f 54//54 55//55 12//12
f 54//54 1//1 55//55
f 31//31 54//54 36//36
f 55//55 19//19 37//37
f 19//19 22//22 37//37
f 74//74 22//22 19//19
f 74//74 19//19 10//10
f 74//74 10//10 52//52
f 56//56 21//21 7//7
f 57//57 38//38 14//14
f 58//58 34//34 56//56
f 58//58 56//56 38//38
f 98//98 49//49 30//30
f 28//28 39//39 4//4
f 28//28 4//4 43//43
f 60//60 40//40 1//1
f 60//60 25//25 40//40
f 60//60 1//1 46//46
f 60//60 46//46 41//41
f 60//60 41//41 25//25
f 64//64 43//43 4//4
f 64//64 95//95 28//28
f 64//64 28//28 43//43
f 64//64 4//4 11//11
f 64//64 11//11 95//95
f 65//65 11//11 8//8
f 74//74 88//88 80//80
f 74//74 101//101 5//5
f 74//74 80//80 101//101
f 66//66 9//9 44//44
f 67//67 45//45 29//29
f 67//67 46//46 1//1
f 67//67 1//1 45//45
f 67//67 47//47 46//46
f 67//67 29//29 47//47
f 102//102 41//41 27//27
f 102//102 27//27 47//47
f 69//69 48//48 44//44
f 69//69 16//16 48//48
f 69//69 68//68 16//16
f 69//69 44//44 68//68
f 70//70 48//48 16//16
f 70//70 47//47 48//48
f 70//70 16//16 68//68
f 101//101 68//68 5//5
f 71//71 18//18 17//17
f 72//72 17//17 18//18
f 72//72 30//30 17//17
f 72//72 98//98 30//30
f 52//52 13//13 6//6
f 52//52 10//10 32//32
f 75//75 88//88 74//74
f 50//50 31//31 36//36
f 50//50 36//36 5//5
f 50//50 5//5 9//9
f 12//12 55//55 37//37
f 12//12 37//37 22//22
f 57//57 13//13 34//34
f 57//57 34//34 58//58
f 57//57 76//76 6//6
f 57//57 6//6 13//13
f 57//57 58//58 38//38
f 77//77 14//14 49//49
f 77//77 49//49 98//98
f 78//78 94//94 59//59
f 59//59 94//94 92//92
f 79//79 96//96 71//71
f 71//71 39//39 79//79
f 80//80 42//42 61//61
f 62//62 87//87 42//42
f 62//62 59//59 92//92
f 89//89 8//8 26//26
f 89//89 26//26 41//41
f 102//102 68//68 101//101
f 89//89 65//65 8//8
f 61//61 87//87 81//81
f 61//61 89//89 102//102
f 82//82 78//78 72//72
f 82//82 72//72 18//18
f 83//83 95//95 11//11
f 83//83 11//11 65//65
f 83//83 65//65 89//89
f 83//83 89//89 81//81
f 22//22 74//74 5//5
f 45//45 9//9 66//66
f 45//45 66//66 44//44
f 45//45 44//44 48//48
f 45//45 1//1 9//9
f 102//102 89//89 41//41
f 84//84 96//96 63//63
f 52//52 32//32 51//51
f 52//52 51//51 13//13
f 76//76 99//99 73//73
f 6//6 76//76 75//75
f 97//97 99//99 57//57
f 97//97 85//85 99//99
f 75//75 76//76 73//73
f 85//85 78//78 59//59
f 85//85 98//98 78//78
f 86//86 98//98 72//72
f 86//86 72//72 78//78
f 99//99 85//85 59//59
f 87//87 61//61 42//42
f 101//101 80//80 61//61
f 62//62 28//28 87//87
f 62//62 92//92 28//28
f 62//62 100//100 59//59
f 88//88 42//42 80//80
f 88//88 100//100 42//42
f 100//100 62//62 42//42
f 95//95 81//81 28//28
f 87//87 28//28 81//81
f 89//89 61//61 81//81
f 61//61 102//102 101//101
f 90//90 63//63 96//96
f 91//91 96//96 79//79
f 91//91 90//90 96//96
f 91//91 92//92 90//90
f 91//91 79//79 39//39
f 91//91 39//39 28//28
f 91//91 28//28 92//92
f 93//93 82//82 18//18
f 93//93 84//84 63//63
f 93//93 18//18 84//84
f 93//93 63//63 92//92
f 94//94 78//78 82//82
f 94//94 82//82 93//93
f 94//94 93//93 92//92
f 95//95 83//83 81//81
f 68//68 47//47 70//70
f 68//68 102//102 47//47
f 96//96 84//84 18//18
f 96//96 18//18 71//71
f 100//100 88//88 73//73
f 76//76 57//57 99//99
f 97//97 57//57 14//14
f 97//97 14//14 77//77
f 97//97 77//77 98//98
f 85//85 97//97 98//98
f 75//75 73//73 88//88
f 98//98 86//86 78//78
f 100//100 99//99 59//59
f 92//92 63//63 90//90
f 99//99 100//100 73//73
# 200 faces, 0 coords texture

# End of File
