####
#
# OBJ File Generated by Meshlab
#
####
# Object softsoap_clear_250_collision.obj
#
# Vertices: 116
# Faces: 228
#
####
vn -0.078180 -0.376115 -0.923269
v -0.012412 -0.015656 0.029354
vn -0.257816 0.188351 0.947657
v -0.003914 0.021526 0.146443
vn 0.583504 0.730046 -0.355746
v 0.019569 0.016583 0.048923
vn 0.531384 -0.668003 0.520963
v 0.015656 -0.013699 0.142390
vn -0.626359 0.725695 -0.284676
v -0.008597 0.025440 0.052837
vn -0.824059 -0.313223 0.472036
v -0.009785 -0.011742 0.141959
vn 0.844913 0.483712 0.228352
v 0.009785 0.017612 0.143297
vn 0.862782 -0.497012 -0.092662
v 0.021526 -0.015656 0.043308
vn -0.036687 0.467647 -0.883154
v -0.008838 0.009785 0.033268
vn 0.091687 -0.553280 0.827934
v 0.001957 -0.017612 0.143679
vn -0.925812 0.122720 -0.357509
v -0.021526 -0.006900 0.037182
vn 0.967822 0.209719 0.139063
v 0.017612 0.000000 0.137961
vn 0.587439 0.268799 0.763323
v 0.007828 0.019569 0.145655
vn 0.129026 0.785383 -0.605414
v 0.000000 0.019460 0.041096
vn 0.726777 0.124050 -0.675579
v 0.021251 0.003914 0.039139
vn -0.479682 -0.632550 0.608100
v -0.005871 -0.015656 0.142954
vn 0.558235 -0.824193 0.095290
v 0.012931 -0.027397 0.076321
vn -0.976067 0.178749 0.123866
v -0.013645 0.001957 0.136986
vn -0.376980 0.277479 -0.883681
v -0.013699 0.007857 0.033268
vn 0.891772 0.451238 0.033573
v 0.019920 0.021526 0.070450
vn 0.914278 -0.169807 0.367780
v 0.018909 -0.009785 0.140900
vn 0.085890 -0.054808 0.994796
v 0.009785 -0.005871 0.144878
vn -0.237290 0.751199 -0.615949
v -0.009283 0.017612 0.041096
vn 0.150558 0.960512 -0.233984
v -0.001099 0.027397 0.054794
vn 0.472180 -0.194029 -0.859883
v 0.021690 -0.009785 0.041096
vn -0.235906 0.097860 -0.966836
v -0.012353 -0.013699 0.029354
vn 0.433045 0.571368 -0.697145
v 0.019479 0.009785 0.041096
vn -0.136290 -0.601082 0.787481
v 0.000000 -0.017612 0.143620
vn -0.700008 -0.705851 0.108458
v -0.010994 -0.033268 0.060665
vn 0.143186 -0.953872 0.263867
v 0.005871 -0.019569 0.137407
vn -0.943102 -0.310506 -0.118928
v -0.021526 -0.009785 0.038573
vn -0.867053 -0.095799 0.488919
v -0.011742 -0.003914 0.141757
vn -0.428482 0.903247 -0.023401
v -0.007445 0.027397 0.056751
vn -0.940055 0.341021 0.000984
v -0.015847 0.009785 0.039139
vn 0.936387 0.290068 0.197584
v 0.015656 0.007180 0.138943
vn 0.984908 0.160715 -0.064234
v 0.021554 0.007828 0.046967
vn 0.470678 0.015164 0.882175
v 0.015656 -0.007828 0.143348
vn 0.870103 -0.489933 0.053731
v 0.014268 -0.025440 0.076321
vn 0.754338 -0.469961 0.458379
v 0.017612 -0.011742 0.141759
vn 0.957022 0.151073 0.247560
v 0.018737 -0.007828 0.140900
vn 0.162563 -0.164686 0.972858
v 0.013699 -0.011742 0.143852
vn 0.059759 0.632599 -0.772170
v -0.000799 0.017612 0.039139
vn -0.551543 0.590946 -0.588713
v -0.015652 0.009785 0.035225
vn 0.206864 0.916230 0.343118
v 0.003914 0.023483 0.145728
vn 0.406446 -0.298906 -0.863398
v 0.020674 -0.011742 0.041096
vn 0.977158 -0.016567 -0.211865
v 0.023013 -0.005871 0.041096
vn 0.473883 0.346509 -0.809547
v 0.020505 0.005871 0.039139
vn -0.614564 0.105181 -0.781823
v -0.017344 0.003914 0.035225
vn 0.718129 0.523138 -0.458931
v 0.019653 0.013699 0.045010
vn -0.025783 -0.075489 0.996813
v 0.003914 -0.003914 0.145070
vn -0.101864 -0.985185 0.137965
v -0.008974 -0.033268 0.066536
vn -0.148587 -0.796546 -0.586035
v -0.011577 -0.023483 0.037182
vn 0.444011 -0.827863 -0.342778
v 0.018477 -0.019569 0.045010
vn 0.361061 -0.884746 0.294719
v 0.011742 -0.017244 0.138943
vn -0.998269 0.031085 0.049936
v -0.021526 -0.007828 0.038191
vn -0.965785 -0.226861 0.125669
v -0.011742 -0.004486 0.140900
vn -0.919703 0.392612 -0.001038
v -0.015656 0.010282 0.039139
vn 0.883937 0.265712 0.384777
v 0.015656 0.005871 0.140215
vn 0.872035 0.375910 0.313443
v 0.010856 0.015656 0.142857
vn 0.967315 0.228845 0.109233
v 0.017612 0.000480 0.136986
vn 0.924398 0.335977 -0.180575
v 0.020085 0.015656 0.048923
vn 0.705370 -0.707670 0.040688
v 0.013391 -0.027397 0.072407
vn 0.445891 -0.176301 0.877553
v 0.015656 -0.011742 0.143303
vn 0.743437 0.122591 0.657475
v 0.017612 -0.003914 0.141900
vn 0.062635 -0.121677 0.990592
v 0.009785 -0.009785 0.144506
vn 0.230752 -0.402378 0.885915
v 0.013699 -0.013699 0.143204
vn 0.270264 -0.030656 0.962298
v 0.013699 -0.007828 0.144119
vn -0.183032 0.690104 -0.700183
v -0.009330 0.013699 0.037182
vn -0.917038 0.389038 -0.087700
v -0.015656 0.009785 0.035248
vn -0.230031 0.967027 0.109289
v 0.000000 0.023483 0.143879
vn 0.005445 0.999534 0.030050
v -0.005452 0.027397 0.060665
vn 0.313511 0.949110 -0.030025
v 0.014840 0.023483 0.070450
vn 0.710829 -0.370720 -0.597736
v 0.021526 -0.015511 0.043053
vn 0.992760 0.119694 -0.010078
v 0.021599 0.007828 0.048923
vn -0.764175 0.211844 -0.609228
v -0.016990 0.005871 0.035225
vn 0.012440 -0.057768 0.998253
v 0.005871 -0.003914 0.145095
vn -0.068142 -0.081211 0.994365
v 0.001957 -0.003914 0.144996
vn -0.036746 -0.095511 0.994750
v 0.001957 -0.011742 0.144302
vn -0.279847 -0.895342 0.346479
v -0.001401 -0.017612 0.142857
vn 0.358724 -0.925688 0.120078
v 0.012488 -0.027397 0.078278
vn -0.613581 -0.605339 -0.507034
v -0.012015 -0.021526 0.035225
vn -0.699403 -0.632170 -0.333461
v -0.013460 -0.025440 0.043053
vn -0.166287 -0.909951 -0.379918
v -0.011016 -0.031311 0.052837
vn 0.451350 -0.606416 -0.654632
v 0.019466 -0.017612 0.043053
vn 0.299321 -0.733327 0.610441
v 0.011742 -0.015656 0.142519
vn 0.511813 -0.854501 -0.088747
v 0.013283 -0.027397 0.068493
vn 0.211242 -0.977429 0.003018
v -0.008433 -0.033268 0.064579
vn 0.579329 0.000912 0.815093
v 0.016406 -0.007828 0.142857
vn 0.477922 -0.372182 0.795658
v 0.015656 -0.012769 0.142857
vn 0.386614 0.028773 0.921793
v 0.013699 -0.001957 0.144116
vn 0.946578 0.220543 0.235267
v 0.017904 -0.003914 0.140900
vn 0.114882 -0.096415 0.988689
v 0.011742 -0.009785 0.144309
vn 0.084997 -0.174738 0.980939
v 0.011742 -0.011742 0.144046
vn 0.111206 -0.254114 0.960760
v 0.005871 -0.015656 0.143770
vn 0.192708 -0.023106 0.980984
v 0.011742 -0.003914 0.144637
vn -0.092726 0.926224 0.365392
v 0.001957 0.023483 0.145697
vn 0.110943 0.993826 0.000819
v -0.000159 0.027397 0.058708
vn -0.138738 0.989462 0.041427
v -0.007006 0.027397 0.058708
vn 0.992928 0.116469 -0.022990
v 0.021789 0.005871 0.046967
vn 0.035881 -0.039524 0.998574
v 0.007828 -0.003914 0.145026
vn 0.000717 -0.087837 0.996135
v 0.005871 -0.005871 0.144947
vn 0.519585 -0.817038 0.249962
v 0.013699 -0.015656 0.140801
vn -0.245769 -0.957850 -0.148731
v -0.010988 -0.033268 0.058708
vn -0.671761 -0.605236 -0.427113
v -0.011742 -0.023483 0.037429
vn 0.333930 -0.469195 0.817525
v 0.014627 -0.013699 0.142857
vn 0.240683 -0.883461 0.401955
v 0.007828 -0.017612 0.141384
vn 0.052117 -0.092899 0.994311
v 0.009785 -0.006570 0.144814
vn 0.157978 -0.059961 0.985620
v 0.011742 -0.007828 0.144473
vn 0.048523 -0.159291 0.986038
v 0.003914 -0.015656 0.143928
vn -0.019191 0.999513 0.024604
v -0.006002 0.027397 0.060665
vn 0.379252 -0.825601 0.417792
v 0.013593 -0.015656 0.140900
vn 0.188760 -0.849836 0.492087
v 0.003914 -0.017612 0.142968
vn 0.017390 -0.094788 0.995346
v 0.007828 -0.007828 0.144732
vn 0.160408 -0.041365 0.986184
v 0.010183 -0.005871 0.144814
vn 0.001199 -0.105685 0.994399
v 0.005871 -0.011742 0.144386
vn 0.151075 -0.917959 0.366781
v 0.005871 -0.018986 0.138943
# 116 vertices, 0 vertices normals

f 16//16 2//2 6//6
f 20//20 13//13 7//7
f 22//22 13//13 2//2
f 23//23 5//5 14//14
f 24//24 14//14 5//5
f 24//24 3//3 14//14
f 24//24 20//20 3//3
f 25//25 1//1 15//15
f 26//26 15//15 1//1
f 26//26 19//19 9//9
f 26//26 1//1 11//11
f 28//28 2//2 16//16
f 29//29 16//16 6//6
f 30//30 10//10 28//28
f 31//31 29//29 6//6
f 31//31 11//11 1//1
f 32//32 6//6 2//2
f 32//32 2//2 18//18
f 33//33 18//18 2//2
f 33//33 5//5 18//18
f 33//33 24//24 5//5
f 34//34 11//11 18//18
f 38//38 8//8 21//21
f 39//39 4//4 17//17
f 40//40 21//21 20//20
f 40//40 20//20 12//12
f 42//42 23//23 14//14
f 42//42 14//14 27//27
f 43//43 9//9 19//19
f 43//43 5//5 23//23
f 44//44 2//2 13//13
f 44//44 13//13 20//20
f 45//45 1//1 25//25
f 46//46 21//21 8//8
f 46//46 20//20 21//21
f 46//46 25//25 15//15
f 46//46 15//15 36//36
f 47//47 26//26 9//9
f 47//47 15//15 26//26
f 47//47 42//42 27//27
f 47//47 9//9 42//42
f 48//48 26//26 11//11
f 49//49 27//27 14//14
f 49//49 14//14 3//3
f 49//49 47//47 27//27
f 49//49 15//15 47//47
f 51//51 16//16 29//29
f 51//51 30//30 28//28
f 55//55 31//31 18//18
f 55//55 18//18 11//11
f 55//55 11//11 31//31
f 56//56 31//31 6//6
f 56//56 6//6 32//32
f 56//56 32//32 18//18
f 56//56 18//18 31//31
f 57//57 34//34 18//18
f 57//57 18//18 5//5
f 59//59 35//35 20//20
f 59//59 7//7 13//13
f 59//59 20//20 7//7
f 59//59 58//58 35//35
f 59//59 13//13 58//58
f 60//60 35//35 12//12
f 60//60 12//12 20//20
f 60//60 20//20 35//35
f 61//61 36//36 15//15
f 61//61 49//49 3//3
f 61//61 15//15 49//49
f 61//61 3//3 20//20
f 61//61 20//20 36//36
f 62//62 8//8 38//38
f 62//62 38//38 21//21
f 62//62 39//39 17//17
f 62//62 21//21 39//39
f 63//63 39//39 21//21
f 64//64 21//21 40//40
f 64//64 58//58 13//13
f 66//66 63//63 41//41
f 67//67 63//63 37//37
f 67//67 41//41 63//63
f 68//68 42//42 9//9
f 68//68 23//23 42//42
f 68//68 43//43 23//23
f 68//68 9//9 43//43
f 69//69 11//11 34//34
f 69//69 34//34 57//57
f 69//69 57//57 5//5
f 69//69 5//5 43//43
f 70//70 33//33 2//2
f 72//72 44//44 20//20
f 72//72 20//20 24//24
f 73//73 45//45 25//25
f 73//73 46//46 8//8
f 73//73 25//25 46//46
f 74//74 36//36 20//20
f 74//74 20//20 46//46
f 75//75 19//19 26//26
f 75//75 26//26 48//48
f 75//75 48//48 11//11
f 75//75 43//43 19//19
f 75//75 69//69 43//43
f 75//75 11//11 69//69
f 76//76 2//2 50//50
f 77//77 50//50 2//2
f 77//77 2//2 28//28
f 78//78 28//28 10//10
f 78//78 77//77 28//28
f 78//78 50//50 77//77
f 79//79 51//51 28//28
f 79//79 28//28 16//16
f 79//79 16//16 51//51
f 80//80 30//30 51//51
f 80//80 54//54 30//30
f 81//81 31//31 1//1
f 81//81 1//1 52//52
f 82//82 31//31 81//81
f 83//83 52//52 53//53
f 83//83 82//82 52//52
f 84//84 53//53 52//52
f 84//84 52//52 1//1
f 84//84 73//73 8//8
f 84//84 8//8 53//53
f 84//84 1//1 45//45
f 84//84 45//45 73//73
f 85//85 66//66 10//10
f 86//86 53//53 8//8
f 86//86 8//8 62//62
f 87//87 62//62 17//17
f 87//87 80//80 51//51
f 87//87 17//17 80//80
f 87//87 86//86 62//62
f 88//88 63//63 21//21
f 88//88 37//37 63//63
f 88//88 64//64 37//37
f 88//88 21//21 64//64
f 89//89 4//4 39//39
f 89//89 39//39 63//63
f 90//90 64//64 13//13
f 90//90 37//37 64//64
f 90//90 67//67 37//37
f 91//91 64//64 40//40
f 91//91 40//40 12//12
f 91//91 12//12 35//35
f 91//91 35//35 58//58
f 91//91 58//58 64//64
f 92//92 65//65 41//41
f 93//93 41//41 65//65
f 94//94 66//66 41//41
f 94//94 10//10 66//66
f 94//94 41//41 93//93
f 95//95 13//13 22//22
f 95//95 90//90 13//13
f 95//95 67//67 90//90
f 96//96 70//70 2//2
f 96//96 2//2 44//44
f 97//97 71//71 44//44
f 97//97 72//72 24//24
f 97//97 44//44 72//72
f 98//98 33//33 70//70
f 99//99 74//74 46//46
f 99//99 46//46 36//36
f 99//99 36//36 74//74
f 100//100 76//76 22//22
f 100//100 22//22 2//2
f 100//100 2//2 76//76
f 101//101 22//22 76//76
f 101//101 76//76 50//50
f 101//101 50//50 78//78
f 102//102 80//80 17//17
f 102//102 17//17 4//4
f 102//102 54//54 80//80
f 103//103 29//29 31//31
f 103//103 31//31 82//82
f 103//103 82//82 83//83
f 103//103 86//86 87//87
f 103//103 83//83 53//53
f 103//103 53//53 86//86
f 103//103 87//87 51//51
f 103//103 51//51 29//29
f 104//104 82//82 81//81
f 104//104 81//81 52//52
f 104//104 52//52 82//82
f 105//105 85//85 4//4
f 105//105 66//66 85//85
f 105//105 4//4 89//89
f 105//105 89//89 63//63
f 105//105 63//63 66//66
f 106//106 30//30 54//54
f 106//106 54//54 85//85
f 107//107 92//92 22//22
f 107//107 65//65 92//92
f 107//107 22//22 101//101
f 108//108 22//22 92//92
f 108//108 92//92 41//41
f 108//108 41//41 67//67
f 108//108 67//67 95//95
f 109//109 94//94 93//93
f 109//109 93//93 65//65
f 109//109 10//10 94//94
f 110//110 70//70 96//96
f 110//110 96//96 44//44
f 110//110 71//71 97//97
f 110//110 44//44 71//71
f 110//110 33//33 98//98
f 110//110 98//98 70//70
f 110//110 97//97 24//24
f 110//110 24//24 33//33
f 111//111 85//85 54//54
f 111//111 54//54 102//102
f 111//111 102//102 4//4
f 111//111 4//4 85//85
f 112//112 106//106 85//85
f 112//112 85//85 10//10
f 113//113 107//107 101//101
f 113//113 65//65 107//107
f 114//114 108//108 95//95
f 114//114 95//95 22//22
f 114//114 22//22 108//108
f 115//115 101//101 78//78
f 115//115 113//113 101//101
f 115//115 78//78 10//10
f 115//115 10//10 109//109
f 115//115 109//109 65//65
f 115//115 65//65 113//113
f 116//116 112//112 10//10
f 116//116 10//10 30//30
f 116//116 30//30 106//106
f 116//116 106//106 112//112
# 228 faces, 0 coords texture

# End of File
