####
#
# OBJ File Generated by Meshlab
#
####
# Object cholula_chipotle_hot_sauce_250_collision.obj
#
# Vertices: 127
# Faces: 250
#
####
vn -5.791775 -0.338678 0.080332
v -0.024899 -0.001073 0.048082
vn 0.690883 -5.962010 0.677856
v 0.002582 -0.021984 0.090301
vn 3.616375 0.573075 -4.702456
v 0.011869 -0.000098 0.017945
vn 5.147617 1.146950 -2.746087
v 0.016194 0.003029 0.023714
vn 5.946126 -1.497481 -0.265967
v 0.019612 -0.006784 0.063272
vn 6.052615 -0.055011 -0.285253
v 0.022425 -0.000194 0.081647
vn -1.481119 5.731796 0.038227
v -0.006022 0.023365 0.054595
vn 4.996876 2.670756 1.300197
v 0.019543 0.010980 0.105251
vn -5.559017 -1.331702 2.235124
v -0.012732 -0.000639 0.122135
vn -5.895972 -2.033737 0.604809
v -0.009583 -0.004225 0.131074
vn -3.924824 -2.950243 1.392962
v -0.007399 -0.006337 0.180169
vn -1.119068 0.573612 5.038691
v 0.000472 0.003657 0.187978
vn -0.756994 5.320409 1.773411
v -0.002385 0.021553 0.106456
vn -1.276721 5.752366 -0.323458
v -0.000334 0.009786 0.154090
vn -2.280941 5.117436 -1.491616
v -0.002233 0.012667 0.167444
vn -0.318857 -2.983602 -3.163457
v -0.004326 -0.018481 0.016151
vn -2.854153 -4.741101 -1.605693
v -0.012222 -0.017010 0.020207
vn -2.527632 -1.706673 -3.166838
v -0.018547 -0.009562 0.016151
vn 1.091335 -5.006150 -1.813737
v 0.000082 -0.019574 0.019367
vn -5.100213 -0.585597 -1.878608
v -0.022803 -0.002094 0.019943
vn -3.862320 -4.773211 -0.655841
v -0.015861 -0.016531 0.041132
vn -0.780508 -5.958305 -1.017314
v -0.003987 -0.020563 0.029263
vn -5.467060 -2.470020 -0.530512
v -0.021946 -0.007774 0.031635
vn 1.630962 -5.973099 0.241856
v 0.001588 -0.023421 0.050434
vn -0.654040 -5.510905 -0.554393
v -0.002948 -0.024424 0.043302
vn -0.341452 -6.068048 -0.051027
v -0.000903 -0.022824 0.063155
vn -4.394504 -3.850213 0.270675
v -0.017865 -0.016141 0.052615
vn -3.768872 -4.787336 -0.112938
v -0.015105 -0.017439 0.064389
vn -5.333112 -2.579280 0.143061
v -0.022783 -0.009137 0.071853
vn -2.935678 -5.068573 0.254418
v -0.012649 -0.020180 0.079144
vn -5.500454 -2.746775 0.581196
v -0.021013 -0.009355 0.082252
vn -1.026656 -5.473333 1.589515
v -0.002779 -0.020152 0.105327
vn -4.244839 -3.423660 1.540455
v -0.018089 -0.011991 0.103529
vn -3.206851 -4.678166 2.011028
v -0.007313 -0.011302 0.119374
vn -4.319095 -2.666523 1.331362
v -0.008883 -0.005664 0.143839
vn -5.331648 -2.478816 1.499694
v -0.005051 -0.003388 0.151735
vn -2.946908 -5.391758 0.541746
v -0.002004 -0.005860 0.154377
vn -4.833748 -2.930045 -0.912478
v -0.007534 -0.003938 0.165964
vn -2.519857 1.531427 -3.669169
v -0.019045 0.008403 0.016151
vn -5.516850 1.613994 -1.114143
v -0.022557 0.006661 0.022952
vn -4.050601 4.113971 -0.994335
v -0.018052 0.015639 0.027808
vn -1.526673 3.239054 -4.093944
v -0.011813 0.014657 0.017170
vn -1.554029 5.274765 -1.994645
v -0.008295 0.019768 0.022992
vn -5.412143 2.981151 0.032654
v -0.020561 0.012033 0.044933
vn -5.071939 3.229393 0.123659
v -0.020317 0.012332 0.060036
vn -3.235688 5.028719 -0.106775
v -0.014320 0.019600 0.041826
vn -6.183805 0.904609 0.133672
v -0.023073 0.000570 0.060819
vn -5.845784 0.101086 -0.134145
v -0.024629 -0.001045 0.070364
vn -5.986062 0.168545 0.318201
v -0.023534 -0.000308 0.082607
vn -4.732560 3.836769 0.035662
v -0.016939 0.016207 0.080139
vn -2.129668 5.496644 -0.057042
v -0.008285 0.023282 0.073093
vn -4.594055 3.111378 0.741113
v -0.020188 0.013216 0.098040
vn -2.117190 5.413473 0.915961
v -0.007995 0.022122 0.096918
vn -5.531663 -0.890474 1.208299
v -0.022565 -0.002315 0.101982
vn -4.560315 2.681017 1.989749
v -0.019739 0.010346 0.105361
vn -2.122576 5.527695 1.555411
v -0.003428 0.013034 0.122776
vn -5.196658 0.497518 2.662968
v -0.019058 0.002830 0.111229
vn -5.490816 1.436951 0.959786
v -0.009968 0.003373 0.141362
vn -3.622928 4.521988 0.825545
v -0.006275 0.010392 0.134106
vn -5.390693 2.020754 0.600058
v -0.006734 0.004465 0.151698
vn -5.595566 2.043836 -1.021967
v -0.007211 0.005296 0.162993
vn -5.222270 0.917681 -0.995427
v -0.010657 0.004607 0.171650
vn -3.338231 4.161047 0.494628
v -0.006684 0.012075 0.176584
vn -4.588237 0.289545 1.640554
v -0.010971 0.003907 0.179036
vn -3.426917 2.868191 2.739735
v -0.007802 0.009458 0.180352
vn 2.792818 -3.963470 -2.672570
v 0.008473 -0.016358 0.020623
vn 2.037450 -1.134550 -5.117208
v 0.008500 -0.009179 0.016151
vn 4.339020 -1.760901 -3.737828
v 0.012261 -0.008993 0.019266
vn 4.632626 -3.504801 -1.473969
v 0.013477 -0.014260 0.027122
vn 5.224059 -1.018896 -2.421763
v 0.016393 -0.005449 0.023597
vn 3.358858 -4.791429 -0.527262
v 0.010687 -0.019789 0.040574
vn 5.738052 -1.603508 -0.622695
v 0.019686 -0.006236 0.040051
vn 5.194824 -3.456022 -0.126061
v 0.016513 -0.012564 0.049821
vn 3.420893 -5.107404 -0.085638
v 0.010701 -0.019171 0.058160
vn 4.616364 -4.111224 -0.155048
v 0.015382 -0.015368 0.070200
vn 5.415363 -2.587339 -0.144998
v 0.020471 -0.009123 0.077524
vn 1.318297 -5.466048 0.119048
v 0.004875 -0.023779 0.075334
vn 4.465566 -3.870162 0.303561
v 0.017725 -0.013313 0.098630
vn 3.415994 -5.182051 0.302655
v 0.011785 -0.017781 0.090754
vn 5.024762 -2.243908 1.093552
v 0.020746 -0.008321 0.104896
vn 2.204379 -5.099633 1.741035
v 0.009038 -0.017417 0.109677
vn 0.249340 -5.861944 1.970744
v 0.002747 -0.012927 0.120375
vn 0.105331 -5.340312 1.142285
v 0.002188 -0.011317 0.143649
vn 4.387671 -3.842063 0.775285
v 0.010099 -0.008093 0.127534
vn 5.812921 -0.889977 -1.051634
v 0.013527 -0.001039 0.130462
vn 3.879620 -2.479522 0.951321
v 0.013624 -0.006197 0.143812
vn 5.264587 -1.794702 0.826019
v 0.010575 -0.001818 0.154209
vn 1.726322 -5.549426 -0.310349
v 0.004222 -0.007386 0.157918
vn 5.385241 -2.257981 -0.922507
v 0.010948 -0.001485 0.160273
vn -1.429204 -5.156186 0.775737
v 0.000155 -0.011247 0.178412
vn 1.372191 -4.352880 1.337539
v 0.005961 -0.011380 0.179271
vn 3.199773 -2.348528 1.664000
v 0.013952 -0.005570 0.180883
vn -1.426689 -2.199864 3.900423
v -0.002673 -0.005871 0.185832
vn 1.712104 0.910763 -5.599522
v 0.006960 0.003629 0.016151
vn 1.241382 2.104282 -4.933211
v 0.000831 0.013126 0.016152
vn 4.065695 2.508232 -3.633403
v 0.012722 0.007145 0.021371
vn 5.319839 1.878995 -1.201578
v 0.019053 0.008301 0.035095
vn 2.991702 4.296500 -2.490122
v 0.006031 0.017868 0.024078
vn 0.743673 4.765633 -2.827321
v -0.001506 0.019756 0.021365
vn 4.078896 4.148941 -0.662845
v 0.014223 0.016860 0.039501
vn 0.769144 5.682094 -0.277323
v 0.001488 0.024238 0.045252
vn 6.197787 0.181351 -0.086376
v 0.020508 0.000560 0.048454
vn 5.691833 2.344166 0.021954
v 0.019094 0.008034 0.048676
vn 3.133913 5.167073 -0.104067
v 0.009089 0.020623 0.056853
vn 5.759345 2.049509 -0.301963
v 0.019192 0.009398 0.067763
vn 1.642937 5.790468 -0.172770
v 0.004079 0.023398 0.068486
vn 4.493785 4.197906 -0.226543
v 0.015058 0.016041 0.068424
vn 5.954034 0.432952 -0.015594
v 0.022604 0.002426 0.089269
vn 5.605057 2.653215 -0.204460
v 0.019742 0.009057 0.079416
vn 5.733469 0.373439 1.560970
v 0.021553 0.002048 0.106130
vn 0.809788 6.057696 0.243088
v 0.001540 0.023697 0.082434
vn 3.748457 4.781609 -0.177713
v 0.012691 0.019150 0.087346
vn 3.025503 4.604791 0.923907
v 0.013542 0.019267 0.101529
vn 1.316971 5.714552 1.724352
v 0.003469 0.013892 0.121556
vn 5.022234 2.680853 1.349818
v 0.012441 0.007732 0.122442
vn 2.325676 4.997358 0.744772
v 0.008999 0.012061 0.137154
vn 4.385504 2.678720 1.052505
v 0.012967 0.007643 0.142368
vn 0.102317 5.928311 1.036680
v 0.002316 0.011808 0.142373
vn 1.360567 5.872162 -1.582561
v 0.004835 0.010528 0.160289
vn 3.797720 4.449049 0.029001
v 0.007353 0.007793 0.153860
vn 5.721360 1.675560 -1.562996
v 0.011155 0.005140 0.162254
vn 3.923809 3.940774 -0.350177
v 0.010796 0.011998 0.173467
vn 1.834246 4.717305 0.814754
v 0.006633 0.014973 0.177187
vn -0.925575 5.362767 0.515135
v 0.000574 0.015256 0.175805
vn 0.986802 3.501795 3.259480
v 0.005875 0.011440 0.184779
vn 2.261421 1.008905 3.977302
v 0.009486 0.005771 0.186991
vn 4.395090 0.775633 1.053070
v 0.016351 0.003252 0.179585
# 127 vertices, 0 vertices normals

f 17//17 18//18 16//16
f 17//17 16//16 19//19
f 22//22 17//17 19//19
f 17//17 23//23 18//18
f 18//18 23//23 20//20
f 23//23 40//40 20//20
f 23//23 17//17 21//21
f 25//25 21//21 22//22
f 17//17 22//22 21//21
f 21//21 25//25 27//27
f 40//40 23//23 1//1
f 26//26 25//25 24//24
f 28//28 25//25 26//26
f 28//28 27//27 25//25
f 23//23 21//21 27//27
f 23//23 27//27 1//1
f 28//28 1//1 27//27
f 28//28 30//30 29//29
f 28//28 26//26 30//30
f 28//28 29//29 1//1
f 47//47 1//1 29//29
f 31//31 48//48 29//29
f 29//29 48//48 47//47
f 26//26 77//77 30//30
f 30//30 77//77 2//2
f 48//48 31//31 49//49
f 30//30 31//31 29//29
f 2//2 32//32 30//30
f 31//31 30//30 33//33
f 31//31 33//33 49//49
f 33//33 54//54 49//49
f 30//30 32//32 33//33
f 33//33 32//32 34//34
f 54//54 33//33 57//57
f 33//33 9//9 57//57
f 33//33 34//34 9//9
f 34//34 10//10 9//9
f 32//32 82//82 34//34
f 34//34 35//35 10//10
f 34//34 83//83 35//35
f 35//35 37//37 36//36
f 35//35 83//83 37//37
f 35//35 58//58 10//10
f 36//36 37//37 38//38
f 60//60 36//36 38//38
f 37//37 90//90 38//38
f 38//38 90//90 11//11
f 38//38 11//11 62//62
f 62//62 11//11 64//64
f 93//93 64//64 11//11
f 39//39 20//20 40//40
f 39//39 40//40 41//41
f 41//41 42//42 39//39
f 41//41 43//43 42//42
f 43//43 99//99 42//42
f 1//1 44//44 40//40
f 40//40 44//44 41//41
f 44//44 46//46 41//41
f 41//41 46//46 43//43
f 46//46 101//101 43//43
f 44//44 1//1 45//45
f 45//45 46//46 44//44
f 101//101 46//46 7//7
f 7//7 46//46 45//45
f 1//1 47//47 45//45
f 45//45 47//47 48//48
f 7//7 45//45 51//51
f 50//50 51//51 45//45
f 48//48 49//49 45//45
f 45//45 49//49 50//50
f 49//49 52//52 50//50
f 49//49 54//54 52//52
f 50//50 53//53 51//51
f 52//52 53//53 50//50
f 111//111 51//51 53//53
f 54//54 57//57 55//55
f 52//52 54//54 55//55
f 56//56 55//55 57//57
f 55//55 53//53 52//52
f 53//53 55//55 13//13
f 55//55 56//56 13//13
f 57//57 9//9 59//59
f 59//59 56//56 57//57
f 9//9 10//10 58//58
f 9//9 58//58 59//59
f 60//60 59//59 58//58
f 60//60 58//58 35//35
f 36//36 60//60 35//35
f 60//60 14//14 59//59
f 60//60 38//38 61//61
f 61//61 15//15 60//60
f 14//14 60//60 15//15
f 61//61 38//38 62//62
f 61//61 62//62 15//15
f 15//15 62//62 63//63
f 64//64 63//63 62//62
f 63//63 64//64 65//65
f 63//63 124//124 15//15
f 65//65 64//64 12//12
f 12//12 64//64 93//93
f 124//124 63//63 65//65
f 66//66 19//19 16//16
f 66//66 16//16 67//67
f 68//68 66//66 67//67
f 68//68 69//69 66//66
f 68//68 67//67 3//3
f 3//3 67//67 94//94
f 68//68 70//70 69//69
f 4//4 70//70 3//3
f 68//68 3//3 70//70
f 19//19 66//66 22//22
f 22//22 66//66 25//25
f 66//66 71//71 25//25
f 66//66 69//69 71//71
f 73//73 71//71 69//69
f 69//69 70//70 72//72
f 69//69 72//72 73//73
f 71//71 24//24 25//25
f 71//71 74//74 24//24
f 73//73 74//74 71//71
f 73//73 75//75 74//74
f 73//73 72//72 5//5
f 102//102 5//5 72//72
f 24//24 74//74 26//26
f 73//73 5//5 75//75
f 76//76 75//75 5//5
f 6//6 76//76 5//5
f 77//77 26//26 74//74
f 79//79 2//2 77//77
f 79//79 77//77 75//75
f 74//74 75//75 77//77
f 76//76 79//79 75//75
f 32//32 2//2 81//81
f 2//2 79//79 81//81
f 79//79 78//78 81//81
f 78//78 79//79 76//76
f 76//76 108//108 78//78
f 76//76 6//6 108//108
f 80//80 78//78 108//108
f 82//82 32//32 81//81
f 80//80 81//81 78//78
f 84//84 82//82 81//81
f 34//34 82//82 83//83
f 82//82 84//84 83//83
f 84//84 81//81 80//80
f 110//110 84//84 80//80
f 110//110 115//115 84//84
f 84//84 115//115 85//85
f 86//86 83//83 84//84
f 85//85 86//86 84//84
f 83//83 88//88 37//37
f 86//86 87//87 83//83
f 87//87 88//88 83//83
f 37//37 88//88 90//90
f 87//87 89//89 88//88
f 88//88 91//91 90//90
f 92//92 91//91 88//88
f 89//89 92//92 88//88
f 90//90 93//93 11//11
f 91//91 93//93 90//90
f 93//93 91//91 92//92
f 92//92 89//89 127//127
f 126//126 93//93 92//92
f 3//3 94//94 96//96
f 98//98 96//96 95//95
f 94//94 95//95 96//96
f 96//96 4//4 3//3
f 4//4 97//97 70//70
f 97//97 4//4 96//96
f 96//96 98//98 97//97
f 98//98 95//95 99//99
f 70//70 97//97 72//72
f 97//97 98//98 100//100
f 72//72 97//97 102//102
f 103//103 102//102 97//97
f 100//100 103//103 97//97
f 99//99 43//43 101//101
f 101//101 98//98 99//99
f 98//98 101//101 100//100
f 103//103 107//107 105//105
f 7//7 104//104 101//101
f 101//101 104//104 100//100
f 100//100 104//104 103//103
f 104//104 107//107 103//103
f 102//102 105//105 5//5
f 102//102 103//103 105//105
f 5//5 105//105 6//6
f 105//105 107//107 109//109
f 106//106 107//107 104//104
f 7//7 51//51 106//106
f 106//106 104//104 7//7
f 106//106 51//51 111//111
f 105//105 109//109 6//6
f 109//109 108//108 6//6
f 112//112 109//109 107//107
f 111//111 112//112 106//106
f 106//106 112//112 107//107
f 109//109 112//112 113//113
f 8//8 108//108 109//109
f 113//113 8//8 109//109
f 108//108 110//110 80//80
f 108//108 8//8 110//110
f 111//111 113//113 112//112
f 111//111 53//53 13//13
f 13//13 113//113 111//111
f 8//8 113//113 115//115
f 13//13 114//114 113//113
f 115//115 113//113 114//114
f 56//56 114//114 13//13
f 114//114 116//116 115//115
f 110//110 8//8 115//115
f 115//115 117//117 85//85
f 56//56 59//59 118//118
f 114//114 56//56 116//116
f 118//118 116//116 56//56
f 117//117 116//116 118//118
f 116//116 117//117 115//115
f 85//85 117//117 86//86
f 117//117 87//87 86//86
f 117//117 120//120 87//87
f 14//14 118//118 59//59
f 117//117 118//118 120//120
f 121//121 89//89 87//87
f 87//87 120//120 121//121
f 14//14 120//120 118//118
f 120//120 14//14 119//119
f 15//15 119//119 14//14
f 120//120 119//119 122//122
f 122//122 121//121 120//120
f 123//123 119//119 124//124
f 15//15 124//124 119//119
f 122//122 119//119 123//123
f 127//127 89//89 121//121
f 122//122 127//127 121//121
f 127//127 126//126 92//92
f 65//65 125//125 124//124
f 125//125 123//123 124//124
f 65//65 12//12 125//125
f 122//122 123//123 125//125
f 125//125 126//126 122//122
f 126//126 127//127 122//122
f 93//93 126//126 12//12
f 125//125 12//12 126//126
f 99//99 95//95 42//42
f 20//20 39//39 18//18
f 42//42 95//95 39//39
f 94//94 67//67 95//95
f 67//67 16//16 95//95
f 39//39 95//95 18//18
f 95//95 16//16 18//18
# 250 faces, 0 coords texture

# End of File
