####
#
# OBJ File Generated by Meshlab
#
####
# Object cholula_chipotle_hot_sauce_250_collision.obj
#
# Vertices: 127
# Faces: 250
#
####
vn 0.997139 0.072059 -0.022848
v -0.024899 -0.001073 0.048082
vn -0.130724 0.984237 -0.119116
v 0.002582 -0.021984 0.090301
vn -0.649852 -0.079036 0.755941
v 0.011869 -0.000098 0.017945
vn -0.846224 -0.187216 0.498854
v 0.016194 0.003029 0.023714
vn -0.968778 0.242282 0.052621
v 0.019612 -0.006784 0.063272
vn -0.996676 -0.037639 0.072252
v 0.022425 -0.000194 0.081647
vn 0.200507 -0.979691 -0.001535
v -0.006022 0.023365 0.054595
vn -0.887143 -0.429448 -0.168976
v 0.019543 0.010980 0.105251
vn 0.926966 0.198960 -0.318039
v -0.012732 -0.000639 0.122135
vn 0.945907 0.310322 -0.094663
v -0.009583 -0.004225 0.131074
vn 0.813113 0.552973 -0.181847
v -0.007399 -0.006337 0.180169
vn 0.303347 -0.185012 -0.934747
v 0.000472 0.003657 0.187978
vn 0.123305 -0.942679 -0.310083
v -0.002385 0.021553 0.106456
vn 0.170247 -0.984680 0.037710
v -0.000334 0.009786 0.154090
vn 0.486755 -0.841534 0.234287
v -0.002233 0.012667 0.167444
vn -0.013773 0.560962 0.827727
v -0.004326 -0.018481 0.016151
vn 0.475360 0.859679 0.187044
v -0.012222 -0.017010 0.020207
vn 0.566779 0.374214 0.733979
v -0.018547 -0.009562 0.016151
vn -0.076699 0.967613 0.240504
v 0.000082 -0.019574 0.019367
vn 0.940543 0.076328 0.330989
v -0.022803 -0.002094 0.019943
vn 0.585497 0.803539 0.107322
v -0.015861 -0.016531 0.041132
vn 0.121628 0.983141 0.136531
v -0.003987 -0.020563 0.029263
vn 0.896452 0.436821 0.074569
v -0.021946 -0.007774 0.031635
vn -0.293198 0.955330 -0.037146
v 0.001588 -0.023421 0.050434
vn 0.132597 0.987964 0.079652
v -0.002948 -0.024424 0.043302
vn 0.039433 0.999219 -0.002354
v -0.000903 -0.022824 0.063155
vn 0.746986 0.664818 -0.005403
v -0.017865 -0.016141 0.052615
vn 0.635474 0.772076 -0.008399
v -0.015105 -0.017439 0.064389
vn 0.918140 0.396065 -0.012293
v -0.022783 -0.009137 0.071853
vn 0.482772 0.874287 -0.050525
v -0.012649 -0.020180 0.079144
vn 0.908448 0.404738 -0.104448
v -0.021013 -0.009355 0.082252
vn 0.188346 0.938054 -0.290827
v -0.002779 -0.020152 0.105327
vn 0.797559 0.536864 -0.275095
v -0.018089 -0.011991 0.103529
vn 0.596060 0.756698 -0.268553
v -0.007313 -0.011302 0.119374
vn 0.852283 0.442896 -0.278309
v -0.008883 -0.005664 0.143839
vn 0.873003 0.452203 -0.182694
v -0.005051 -0.003388 0.151735
vn 0.506532 0.855755 -0.105401
v -0.002004 -0.005860 0.154377
vn 0.863634 0.477451 0.161791
v -0.007534 -0.003938 0.165964
vn 0.586417 -0.320558 0.743880
v -0.019045 0.008403 0.016151
vn 0.961431 -0.240286 0.133838
v -0.022557 0.006661 0.022952
vn 0.686425 -0.697741 0.204885
v -0.018052 0.015639 0.027808
vn 0.274369 -0.678723 0.681217
v -0.011813 0.014657 0.017170
vn 0.291723 -0.913513 0.283536
v -0.008295 0.019768 0.022992
vn 0.876572 -0.481268 -0.001642
v -0.020561 0.012033 0.044933
vn 0.854178 -0.519630 -0.019096
v -0.020317 0.012332 0.060036
vn 0.531662 -0.846451 0.029266
v -0.014320 0.019600 0.041826
vn 0.996481 -0.081045 0.021385
v -0.023073 0.000570 0.060819
vn 0.999533 0.030525 -0.001563
v -0.024629 -0.001045 0.070364
vn 0.997975 -0.044008 -0.045925
v -0.023534 -0.000308 0.082607
vn 0.767036 -0.641601 -0.001989
v -0.016939 0.016207 0.080139
vn 0.352265 -0.935879 0.006328
v -0.008285 0.023282 0.073093
vn 0.864407 -0.493195 -0.097766
v -0.020188 0.013216 0.098040
vn 0.415524 -0.896047 -0.156328
v -0.007995 0.022122 0.096918
vn 0.977806 0.050062 -0.203444
v -0.022565 -0.002315 0.101982
vn 0.752637 -0.544339 -0.370450
v -0.019739 0.010346 0.105361
vn 0.340316 -0.896963 -0.282211
v -0.003428 0.013034 0.122776
vn 0.890904 -0.139939 -0.432097
v -0.019058 0.002830 0.111229
vn 0.977529 -0.135285 -0.161662
v -0.009968 0.003373 0.141362
vn 0.680831 -0.706709 -0.192436
v -0.006275 0.010392 0.134106
vn 0.941170 -0.325834 -0.089613
v -0.006734 0.004465 0.151698
vn 0.929252 -0.312075 0.197738
v -0.007211 0.005296 0.162993
vn 0.964113 -0.180343 0.194841
v -0.010657 0.004607 0.171650
vn 0.700345 -0.713466 -0.021995
v -0.006684 0.012075 0.176584
vn 0.897093 -0.117051 -0.426056
v -0.010971 0.003907 0.179036
vn 0.529278 -0.621909 -0.577144
v -0.007802 0.009458 0.180352
vn -0.464988 0.769092 0.438501
v 0.008473 -0.016358 0.020623
vn -0.348980 0.171835 0.921241
v 0.008500 -0.009179 0.016151
vn -0.730509 0.306098 0.610459
v 0.012261 -0.008993 0.019266
vn -0.806028 0.542365 0.236981
v 0.013477 -0.014260 0.027122
vn -0.902238 0.146964 0.405423
v 0.016393 -0.005449 0.023597
vn -0.547559 0.832812 0.081258
v 0.010687 -0.019789 0.040574
vn -0.960825 0.258668 0.099531
v 0.019686 -0.006236 0.040051
vn -0.825320 0.563728 0.032537
v 0.016513 -0.012564 0.049821
vn -0.528366 0.848931 0.012053
v 0.010701 -0.019171 0.058160
vn -0.751942 0.658854 0.022244
v 0.015382 -0.015368 0.070200
vn -0.891641 0.452393 0.017788
v 0.020471 -0.009123 0.077524
vn -0.269390 0.962802 -0.020999
v 0.004875 -0.023779 0.075334
vn -0.782632 0.620955 -0.043615
v 0.017725 -0.013313 0.098630
vn -0.567984 0.820974 -0.058277
v 0.011785 -0.017781 0.090754
vn -0.885143 0.422820 -0.194281
v 0.020746 -0.008321 0.104896
vn -0.388219 0.882493 -0.265502
v 0.009038 -0.017417 0.109677
vn -0.072425 0.947179 -0.312419
v 0.002747 -0.012927 0.120375
vn -0.074357 0.976244 -0.203514
v 0.002188 -0.011317 0.143649
vn -0.778460 0.601850 -0.178262
v 0.010099 -0.008093 0.127534
vn -0.980789 0.127271 0.147832
v 0.013527 -0.001039 0.130462
vn -0.869348 0.474545 -0.137992
v 0.013624 -0.006197 0.143812
vn -0.947192 0.285180 -0.146631
v 0.010575 -0.001818 0.154209
vn -0.347001 0.935324 0.068985
v 0.004222 -0.007386 0.157918
vn -0.916531 0.363628 0.166572
v 0.010948 -0.001485 0.160273
vn 0.320006 0.945616 -0.058357
v 0.000155 -0.011247 0.178412
vn -0.222994 0.931174 -0.288424
v 0.005961 -0.011380 0.179271
vn -0.726142 0.581110 -0.367462
v 0.013952 -0.005570 0.180883
vn 0.201268 0.500090 -0.842260
v -0.002673 -0.005871 0.185832
vn -0.367507 -0.179141 0.912604
v 0.006960 0.003629 0.016151
vn -0.170388 -0.280041 0.944746
v 0.000831 0.013126 0.016152
vn -0.657514 -0.407837 0.633517
v 0.012722 0.007145 0.021371
vn -0.928078 -0.298961 0.222023
v 0.019053 0.008301 0.035095
vn -0.550180 -0.718931 0.424782
v 0.006031 0.017868 0.024078
vn -0.113879 -0.847343 0.518692
v -0.001506 0.019756 0.021365
vn -0.696357 -0.711702 0.092555
v 0.014223 0.016860 0.039501
vn -0.122098 -0.988436 0.089928
v 0.001488 0.024238 0.045252
vn -0.998476 -0.053990 0.011453
v 0.020508 0.000560 0.048454
vn -0.893841 -0.448289 0.009260
v 0.019094 0.008034 0.048676
vn -0.515911 -0.856587 -0.009710
v 0.009089 0.020623 0.056853
vn -0.960985 -0.273655 0.040252
v 0.019192 0.009398 0.067763
vn -0.283222 -0.958719 0.025347
v 0.004079 0.023398 0.068486
vn -0.741150 -0.670479 0.033990
v 0.015058 0.016041 0.068424
vn -0.999883 0.015142 0.002347
v 0.022604 0.002426 0.089269
vn -0.888135 -0.457900 0.039276
v 0.019742 0.009057 0.079416
vn -0.953153 -0.058544 -0.296768
v 0.021553 0.002048 0.106130
vn -0.132417 -0.990368 -0.040467
v 0.001540 0.023697 0.082434
vn -0.605116 -0.795893 0.019713
v 0.012691 0.019150 0.087346
vn -0.541740 -0.820572 -0.182155
v 0.013542 0.019267 0.101529
vn -0.248436 -0.927361 -0.279789
v 0.003469 0.013892 0.121556
vn -0.884707 -0.433770 -0.170696
v 0.012441 0.007732 0.122442
vn -0.340046 -0.932980 -0.117969
v 0.008999 0.012061 0.137154
vn -0.855089 -0.476512 -0.204353
v 0.012967 0.007643 0.142368
vn -0.067643 -0.977233 -0.201099
v 0.002316 0.011808 0.142373
vn -0.193261 -0.944181 0.266782
v 0.004835 0.010528 0.160289
vn -0.624693 -0.779066 0.053057
v 0.007353 0.007793 0.153860
vn -0.942101 -0.243388 0.230668
v 0.011155 0.005140 0.162254
vn -0.712487 -0.701607 -0.010462
v 0.010796 0.011998 0.173467
vn -0.329853 -0.941847 -0.064197
v 0.006633 0.014973 0.177187
vn 0.174526 -0.976115 -0.129386
v 0.000574 0.015256 0.175805
vn -0.157125 -0.745352 -0.647890
v 0.005875 0.011440 0.184779
vn -0.510699 -0.181994 -0.840277
v 0.009486 0.005771 0.186991
vn -0.980068 -0.178540 -0.087125
v 0.016351 0.003252 0.179585
# 127 vertices, 0 vertices normals

f 18//18 17//17 16//16
f 16//16 17//17 19//19
f 17//17 22//22 19//19
f 23//23 17//17 18//18
f 23//23 18//18 20//20
f 40//40 23//23 20//20
f 17//17 23//23 21//21
f 21//21 25//25 22//22
f 22//22 17//17 21//21
f 25//25 21//21 27//27
f 23//23 40//40 1//1
f 25//25 26//26 24//24
f 25//25 28//28 26//26
f 27//27 28//28 25//25
f 21//21 23//23 27//27
f 27//27 23//23 1//1
f 1//1 28//28 27//27
f 30//30 28//28 29//29
f 26//26 28//28 30//30
f 29//29 28//28 1//1
f 1//1 47//47 29//29
f 48//48 31//31 29//29
f 48//48 29//29 47//47
f 77//77 26//26 30//30
f 77//77 30//30 2//2
f 31//31 48//48 49//49
f 31//31 30//30 29//29
f 32//32 2//2 30//30
f 30//30 31//31 33//33
f 33//33 31//31 49//49
f 54//54 33//33 49//49
f 32//32 30//30 33//33
f 32//32 33//33 34//34
f 33//33 54//54 57//57
f 9//9 33//33 57//57
f 34//34 33//33 9//9
f 10//10 34//34 9//9
f 82//82 32//32 34//34
f 35//35 34//34 10//10
f 83//83 34//34 35//35
f 37//37 35//35 36//36
f 83//83 35//35 37//37
f 58//58 35//35 10//10
f 37//37 36//36 38//38
f 36//36 60//60 38//38
f 90//90 37//37 38//38
f 90//90 38//38 11//11
f 11//11 38//38 62//62
f 11//11 62//62 64//64
f 64//64 93//93 11//11
f 20//20 39//39 40//40
f 40//40 39//39 41//41
f 42//42 41//41 39//39
f 43//43 41//41 42//42
f 99//99 43//43 42//42
f 44//44 1//1 40//40
f 44//44 40//40 41//41
f 46//46 44//44 41//41
f 46//46 41//41 43//43
f 101//101 46//46 43//43
f 1//1 44//44 45//45
f 46//46 45//45 44//44
f 46//46 101//101 7//7
f 46//46 7//7 45//45
f 47//47 1//1 45//45
f 47//47 45//45 48//48
f 45//45 7//7 51//51
f 51//51 50//50 45//45
f 49//49 48//48 45//45
f 49//49 45//45 50//50
f 52//52 49//49 50//50
f 54//54 49//49 52//52
f 53//53 50//50 51//51
f 53//53 52//52 50//50
f 51//51 111//111 53//53
f 57//57 54//54 55//55
f 54//54 52//52 55//55
f 55//55 56//56 57//57
f 53//53 55//55 52//52
f 55//55 53//53 13//13
f 56//56 55//55 13//13
f 9//9 57//57 59//59
f 56//56 59//59 57//57
f 10//10 9//9 58//58
f 58//58 9//9 59//59
f 59//59 60//60 58//58
f 58//58 60//60 35//35
f 60//60 36//36 35//35
f 14//14 60//60 59//59
f 38//38 60//60 61//61
f 15//15 61//61 60//60
f 60//60 14//14 15//15
f 38//38 61//61 62//62
f 62//62 61//61 15//15
f 62//62 15//15 63//63
f 63//63 64//64 62//62
f 64//64 63//63 65//65
f 124//124 63//63 15//15
f 64//64 65//65 12//12
f 64//64 12//12 93//93
f 63//63 124//124 65//65
f 19//19 66//66 16//16
f 16//16 66//66 67//67
f 66//66 68//68 67//67
f 69//69 68//68 66//66
f 67//67 68//68 3//3
f 67//67 3//3 94//94
f 70//70 68//68 69//69
f 70//70 4//4 3//3
f 3//3 68//68 70//70
f 66//66 19//19 22//22
f 66//66 22//22 25//25
f 71//71 66//66 25//25
f 69//69 66//66 71//71
f 71//71 73//73 69//69
f 70//70 69//69 72//72
f 72//72 69//69 73//73
f 24//24 71//71 25//25
f 74//74 71//71 24//24
f 74//74 73//73 71//71
f 75//75 73//73 74//74
f 72//72 73//73 5//5
f 5//5 102//102 72//72
f 74//74 24//24 26//26
f 5//5 73//73 75//75
f 75//75 76//76 5//5
f 76//76 6//6 5//5
f 26//26 77//77 74//74
f 2//2 79//79 77//77
f 77//77 79//79 75//75
f 75//75 74//74 77//77
f 79//79 76//76 75//75
f 2//2 32//32 81//81
f 79//79 2//2 81//81
f 78//78 79//79 81//81
f 79//79 78//78 76//76
f 108//108 76//76 78//78
f 6//6 76//76 108//108
f 78//78 80//80 108//108
f 32//32 82//82 81//81
f 81//81 80//80 78//78
f 82//82 84//84 81//81
f 82//82 34//34 83//83
f 84//84 82//82 83//83
f 81//81 84//84 80//80
f 84//84 110//110 80//80
f 115//115 110//110 84//84
f 115//115 84//84 85//85
f 83//83 86//86 84//84
f 86//86 85//85 84//84
f 88//88 83//83 37//37
f 87//87 86//86 83//83
f 88//88 87//87 83//83
f 88//88 37//37 90//90
f 89//89 87//87 88//88
f 91//91 88//88 90//90
f 91//91 92//92 88//88
f 92//92 89//89 88//88
f 93//93 90//90 11//11
f 93//93 91//91 90//90
f 91//91 93//93 92//92
f 89//89 92//92 127//127
f 93//93 126//126 92//92
f 94//94 3//3 96//96
f 96//96 98//98 95//95
f 95//95 94//94 96//96
f 4//4 96//96 3//3
f 97//97 4//4 70//70
f 4//4 97//97 96//96
f 98//98 96//96 97//97
f 95//95 98//98 99//99
f 97//97 70//70 72//72
f 98//98 97//97 100//100
f 97//97 72//72 102//102
f 102//102 103//103 97//97
f 103//103 100//100 97//97
f 43//43 99//99 101//101
f 98//98 101//101 99//99
f 101//101 98//98 100//100
f 107//107 103//103 105//105
f 104//104 7//7 101//101
f 104//104 101//101 100//100
f 104//104 100//100 103//103
f 107//107 104//104 103//103
f 105//105 102//102 5//5
f 103//103 102//102 105//105
f 105//105 5//5 6//6
f 107//107 105//105 109//109
f 107//107 106//106 104//104
f 51//51 7//7 106//106
f 104//104 106//106 7//7
f 51//51 106//106 111//111
f 109//109 105//105 6//6
f 108//108 109//109 6//6
f 109//109 112//112 107//107
f 112//112 111//111 106//106
f 112//112 106//106 107//107
f 112//112 109//109 113//113
f 108//108 8//8 109//109
f 8//8 113//113 109//109
f 110//110 108//108 80//80
f 8//8 108//108 110//110
f 113//113 111//111 112//112
f 53//53 111//111 13//13
f 113//113 13//13 111//111
f 113//113 8//8 115//115
f 114//114 13//13 113//113
f 113//113 115//115 114//114
f 114//114 56//56 13//13
f 116//116 114//114 115//115
f 8//8 110//110 115//115
f 117//117 115//115 85//85
f 59//59 56//56 118//118
f 56//56 114//114 116//116
f 116//116 118//118 56//56
f 116//116 117//117 118//118
f 117//117 116//116 115//115
f 117//117 85//85 86//86
f 87//87 117//117 86//86
f 120//120 117//117 87//87
f 118//118 14//14 59//59
f 118//118 117//117 120//120
f 89//89 121//121 87//87
f 120//120 87//87 121//121
f 120//120 14//14 118//118
f 14//14 120//120 119//119
f 119//119 15//15 14//14
f 119//119 120//120 122//122
f 121//121 122//122 120//120
f 119//119 123//123 124//124
f 124//124 15//15 119//119
f 119//119 122//122 123//123
f 89//89 127//127 121//121
f 127//127 122//122 121//121
f 126//126 127//127 92//92
f 125//125 65//65 124//124
f 123//123 125//125 124//124
f 12//12 65//65 125//125
f 123//123 122//122 125//125
f 126//126 125//125 122//122
f 127//127 126//126 122//122
f 126//126 93//93 12//12
f 12//12 125//125 126//126
f 95//95 99//99 42//42
f 39//39 20//20 18//18
f 95//95 42//42 39//39
f 67//67 94//94 95//95
f 16//16 67//67 95//95
f 95//95 39//39 18//18
f 16//16 95//95 18//18
# 250 faces, 0 coords texture

# End of File
