####
#
# OBJ File Generated by Meshlab
#
####
# Object cholula_chipotle_hot_sauce_250_collision.obj
#
# Vertices: 127
# Faces: 250
#
####
vn 0.316126 -0.394577 -0.862771
v 0.007828 -0.023967 0.007828
vn -0.464485 0.882466 -0.074205
v -0.015656 0.026066 0.019569
vn 0.946860 0.319564 -0.036529
v 0.027397 0.003914 0.015746
vn 0.602168 0.796820 0.049707
v 0.013214 0.020476 0.098549
vn -0.007158 0.560240 -0.828299
v 0.002704 0.025670 0.009782
vn -0.193419 -0.964399 0.180340
v 0.001957 -0.010990 0.178082
vn -0.916747 0.255516 0.307061
v -0.009899 0.005983 0.180431
vn 0.866735 -0.490271 -0.091677
v 0.022147 -0.011742 0.017612
vn -0.312948 0.048056 -0.948554
v -0.021526 -0.001726 0.009785
vn -0.163056 -0.982467 0.090400
v -0.003453 -0.021300 0.090793
vn -0.991970 0.052393 -0.115112
v -0.030546 0.003931 0.017928
vn 0.957225 -0.284200 0.054326
v 0.022434 -0.003914 0.099804
vn -0.390220 0.477868 0.787001
v -0.003559 0.011280 0.186719
vn 0.535726 -0.836040 -0.118468
v 0.011742 -0.023483 0.012017
vn 0.612788 -0.112239 -0.782236
v 0.025440 0.001078 0.013699
vn -0.131831 -0.291906 -0.947318
v 0.005871 -0.023804 0.007828
vn -0.634222 -0.753763 0.172057
v -0.005107 -0.007492 0.180196
vn -0.951239 -0.278216 0.133192
v -0.020972 -0.003914 0.099804
vn -0.737960 -0.219790 -0.638049
v -0.025440 -0.010297 0.015656
vn 0.994829 0.077402 0.065754
v 0.023036 0.001957 0.100782
vn 0.908704 -0.325938 -0.260808
v 0.025607 -0.001957 0.015656
vn 0.739418 0.673201 0.007761
v 0.019001 0.017613 0.023490
vn 0.286315 -0.955586 0.069850
v 0.007594 -0.021361 0.081191
vn 0.765515 -0.364511 -0.530206
v 0.023483 -0.007051 0.015656
vn 0.742739 0.460297 -0.486276
v 0.021985 0.011742 0.013699
vn -0.952395 0.281367 0.117372
v -0.020682 0.007828 0.099804
vn -0.960023 -0.234020 -0.153593
v -0.029354 -0.003914 0.018866
vn 0.996262 -0.057346 0.064597
v 0.023210 0.000000 0.099804
vn 0.965396 0.252637 0.064694
v 0.022197 0.007828 0.099804
vn 0.934936 0.019776 -0.354264
v 0.027397 0.003801 0.015656
vn 0.881181 -0.468079 0.066496
v 0.020928 -0.007635 0.100929
vn 0.771734 -0.566167 0.289625
v 0.013617 -0.005677 0.182736
vn 0.836818 0.544967 0.052404
v 0.019544 0.013747 0.101893
vn -0.125359 -0.978396 -0.164397
v -0.005871 -0.025630 0.013699
vn 0.458140 0.881361 0.115371
v 0.009785 0.014898 0.178082
vn 0.507512 0.204442 -0.837040
v 0.023483 0.008702 0.013699
vn 0.400792 0.578907 -0.710093
v 0.007814 0.023770 0.009781
vn -0.735757 0.660106 -0.151398
v -0.023483 0.019569 0.019947
vn -0.744331 0.085403 -0.662328
v -0.029354 0.006536 0.015656
vn -0.798518 -0.535261 -0.275435
v -0.025162 -0.017675 0.018553
vn -0.474292 -0.231644 -0.849346
v -0.021232 -0.003914 0.009785
vn -0.448191 0.584688 -0.676213
v -0.013630 0.024071 0.013706
vn 0.123870 0.989483 -0.074691
v -0.001969 0.027401 0.014895
vn -0.424624 -0.891660 -0.156961
v -0.017245 -0.023483 0.017613
vn -0.576431 0.810910 0.100759
v -0.012799 0.019812 0.097798
vn -0.980184 -0.158888 0.118293
v -0.021654 -0.001957 0.097847
vn -0.947590 -0.313505 0.061541
v -0.026261 -0.014307 0.019722
vn 0.987375 0.143461 0.067147
v 0.022808 0.004892 0.099804
vn 0.786574 -0.614396 0.061796
v 0.018231 -0.011895 0.098775
vn 0.668031 -0.739934 0.078945
v 0.015656 -0.014633 0.099804
vn 0.592297 0.776356 0.215536
v 0.011630 0.013427 0.179868
vn 0.002388 -0.934859 -0.355011
v 0.003805 -0.025109 0.009513
vn 0.685521 0.724968 -0.066941
v 0.018238 0.018310 0.019509
vn 0.449317 0.893197 0.017703
v 0.009785 0.023375 0.078278
vn -0.918580 0.381229 -0.104286
v -0.028179 0.011742 0.017599
vn -0.388783 0.226836 -0.892969
v -0.022988 0.008042 0.011952
vn -0.322593 -0.568077 -0.757114
v -0.003914 -0.024852 0.011742
vn -0.182548 0.963887 -0.193904
v -0.009783 0.027400 0.015558
vn -0.271442 -0.942196 0.196432
v 0.000000 -0.010479 0.178082
vn -0.968614 0.217699 0.119979
v -0.021457 0.005871 0.097847
vn -0.883454 0.455552 0.109463
v -0.019338 0.011292 0.099804
vn -0.410803 0.906842 0.094220
v -0.009785 0.021450 0.097847
vn -0.707572 0.698963 0.103888
v -0.014677 0.018037 0.097847
vn -0.099612 0.956776 0.273235
v 0.002020 0.016096 0.181048
vn -0.955033 -0.276568 0.106879
v -0.021444 -0.003914 0.095890
vn -0.918234 -0.358782 0.167698
v -0.009484 -0.001957 0.178082
vn -0.047150 -0.965070 0.257715
v 0.003950 -0.011110 0.179000
vn 0.968886 -0.147447 0.198795
v 0.016569 0.000327 0.179434
vn 0.930421 0.361975 0.057369
v 0.021526 0.009627 0.101761
vn 0.914780 0.386316 0.118055
v 0.015990 0.007828 0.178082
vn 0.740078 0.592887 0.317443
v 0.013489 0.011439 0.180644
vn 0.711402 0.700477 0.056912
v 0.016123 0.017612 0.100782
vn 0.706530 0.098087 0.700852
v 0.014571 0.004480 0.185918
vn 0.139143 -0.987379 0.075640
v 0.003953 -0.022089 0.083261
vn 0.260254 0.963005 0.069919
v 0.007331 0.023185 0.099195
vn 0.277689 -0.955156 0.102785
v 0.007828 -0.019569 0.098873
vn 0.583288 0.812086 0.017099
v 0.012246 0.021866 0.076321
vn -0.951673 0.289796 0.101671
v -0.021314 0.007828 0.093933
vn -0.855537 0.507362 -0.103149
v -0.027397 0.013190 0.017612
vn -0.667959 0.446142 -0.595640
v -0.026104 0.013623 0.015668
vn -0.631689 -0.764845 0.126419
v -0.014000 -0.015770 0.095237
vn -0.314646 -0.867400 0.385507
v -0.001645 -0.009269 0.182479
vn -0.919444 0.369269 0.135139
v -0.009802 0.007866 0.178082
vn -0.928535 0.353829 0.112375
v -0.020058 0.009785 0.099804
vn -0.991291 0.007498 0.131473
v -0.021732 0.001937 0.100288
vn -0.333077 0.938814 0.087683
v -0.007828 0.022773 0.091976
vn -0.750684 0.651373 0.110393
v -0.016625 0.015656 0.099804
vn -0.639854 0.752246 0.157202
v -0.005676 0.013638 0.177961
vn 0.144059 -0.974170 0.173895
v 0.005871 -0.010989 0.178082
vn 0.269907 -0.764071 0.585958
v 0.008009 -0.008250 0.185671
vn 0.733058 -0.678821 0.042765
v 0.016093 -0.015702 0.080951
vn 0.926950 -0.302614 0.221786
v 0.015817 -0.002322 0.180117
vn -0.296237 -0.948261 0.114216
v -0.006363 -0.019833 0.096825
vn -0.010471 -0.994161 0.107396
v 0.000114 -0.020745 0.099102
vn -0.034102 -0.997082 0.068299
v 0.000000 -0.022310 0.080235
vn 0.456264 0.887614 0.062960
v 0.011473 0.021526 0.099804
vn 0.287012 0.957748 0.018528
v 0.006961 0.024410 0.077649
vn 0.584737 0.656024 -0.477195
v 0.013106 0.021030 0.011604
vn -0.435873 -0.891423 0.124010
v -0.008040 -0.019014 0.098319
vn -0.962814 -0.203499 0.177702
v -0.010131 -0.000004 0.177947
vn -0.918641 0.010656 0.394950
v -0.009683 0.002817 0.182327
vn -0.381260 0.920656 0.083863
v -0.009785 0.021992 0.091976
vn -0.248066 0.962117 0.113109
v -0.001957 0.015848 0.178082
vn 0.034913 0.996082 0.081247
v 0.001967 0.023811 0.099832
vn -0.433235 0.870708 0.232756
v -0.002311 0.015614 0.178799
vn -0.753291 -0.424259 0.502551
v -0.007114 -0.004062 0.185099
vn 0.395329 -0.895734 0.203412
v 0.008685 -0.009718 0.182096
vn 0.473750 -0.877055 0.079602
v 0.010224 -0.020212 0.083848
vn 0.609709 -0.766272 0.202689
v 0.011797 -0.007846 0.180395
vn -0.066684 -0.322955 0.944062
v 0.002858 -0.004935 0.188061
vn 0.625768 -0.777908 0.057210
v 0.013092 -0.018889 0.076868
vn 0.292580 0.847850 0.442207
v 0.006763 0.015642 0.181277
vn -0.123970 0.989597 0.073004
v -0.002476 0.024384 0.088764
vn -0.817590 0.565296 0.109484
v -0.017840 0.014013 0.099971
vn -0.900839 -0.415209 0.126846
v -0.019567 -0.007832 0.099766
vn -0.801798 -0.578685 0.149144
v -0.008387 -0.003985 0.178733
vn -0.237563 0.968264 0.077645
v -0.005932 0.023624 0.089041
vn -0.666381 0.745599 0.004366
v -0.021534 0.021516 0.020797
vn -0.096255 0.991380 0.088888
v 0.000000 0.023723 0.099804
vn 0.566647 -0.818803 0.092047
v 0.012665 -0.016908 0.099534
vn 0.198850 -0.973970 0.108821
v 0.006617 -0.019834 0.098825
vn 0.058804 0.997047 0.049384
v 0.002043 0.025199 0.079485
vn -0.804497 -0.578714 0.133695
v -0.017522 -0.011123 0.098825
vn -0.740291 -0.658937 0.133310
v -0.016365 -0.013699 0.093933
vn -0.735616 0.623921 0.263800
v -0.007439 0.011401 0.180498
vn 0.984429 0.058379 0.165805
v 0.016590 0.003927 0.180356
vn 0.943186 0.268392 0.195872
v 0.016434 0.005867 0.179562
# 127 vertices, 0 vertices normals

f 15//15 1//1 37//37
f 5//5 37//37 1//1
f 16//16 9//9 5//5
f 16//16 5//5 1//1
f 21//21 12//12 8//8
f 22//22 33//33 3//3
f 91//91 14//14 8//8
f 24//24 14//14 1//1
f 24//24 1//1 15//15
f 24//24 15//15 21//21
f 24//24 21//21 8//8
f 24//24 8//8 14//14
f 97//97 5//5 43//43
f 56//56 42//42 5//5
f 56//56 5//5 9//9
f 28//28 3//3 20//20
f 30//30 12//12 21//21
f 30//30 21//21 15//15
f 30//30 28//28 12//12
f 30//30 3//3 28//28
f 30//30 25//25 3//3
f 49//49 8//8 31//31
f 49//49 91//91 8//8
f 31//31 8//8 12//12
f 34//34 10//10 44//44
f 36//36 15//15 37//37
f 36//36 30//30 15//15
f 36//36 25//25 30//30
f 53//53 22//22 3//3
f 53//53 3//3 25//25
f 37//37 5//5 97//97
f 38//38 2//2 42//42
f 38//38 42//42 80//80
f 81//81 40//40 44//44
f 41//41 9//9 16//16
f 41//41 39//39 9//9
f 41//41 19//19 39//39
f 58//58 122//122 43//43
f 42//42 2//2 58//58
f 42//42 58//58 5//5
f 46//46 11//11 27//27
f 20//20 126//126 28//28
f 68//68 12//12 28//28
f 48//48 3//3 29//29
f 71//71 72//72 51//51
f 10//10 94//94 6//6
f 52//52 1//1 14//14
f 52//52 16//16 1//1
f 51//51 4//4 35//35
f 108//108 14//14 111//111
f 98//98 36//36 37//37
f 98//98 25//25 36//36
f 98//98 53//53 25//25
f 53//53 77//77 22//22
f 54//54 37//37 97//97
f 122//122 97//97 43//43
f 56//56 80//80 42//42
f 56//56 9//9 39//39
f 11//11 39//39 19//19
f 11//11 19//19 27//27
f 11//11 55//55 39//39
f 40//40 27//27 19//19
f 40//40 47//47 27//27
f 40//40 19//19 41//41
f 57//57 44//44 40//40
f 57//57 40//40 41//41
f 57//57 34//34 44//44
f 57//57 41//41 16//16
f 58//58 2//2 117//117
f 58//58 43//43 5//5
f 99//99 44//44 93//93
f 10//10 93//93 44//44
f 59//59 82//82 99//99
f 118//118 45//45 2//2
f 118//118 2//2 38//38
f 65//65 46//46 27//27
f 65//65 18//18 46//46
f 65//65 27//27 47//47
f 100//100 46//46 18//18
f 66//66 100//100 18//18
f 115//115 116//116 66//66
f 67//67 6//6 94//94
f 90//90 32//32 73//73
f 68//68 28//28 126//126
f 48//48 20//20 3//3
f 48//48 126//126 20//20
f 127//127 48//48 29//29
f 127//127 126//126 48//48
f 69//69 29//29 3//3
f 69//69 3//3 33//33
f 70//70 69//69 33//33
f 70//70 127//127 29//29
f 70//70 29//29 69//69
f 31//31 32//32 49//49
f 32//32 109//109 50//50
f 49//49 32//32 50//50
f 92//92 31//31 12//12
f 92//92 12//12 68//68
f 33//33 72//72 71//71
f 72//72 33//33 22//22
f 93//93 10//10 6//6
f 93//93 6//6 59//59
f 74//74 52//52 14//14
f 75//75 54//54 97//97
f 23//23 14//14 108//108
f 77//77 54//54 4//4
f 77//77 53//53 54//54
f 98//98 54//54 53//53
f 98//98 37//37 54//54
f 122//122 75//75 97//97
f 78//78 55//55 11//11
f 78//78 60//60 26//26
f 78//78 11//11 60//60
f 79//79 38//38 80//80
f 79//79 80//80 55//55
f 79//79 114//114 38//38
f 80//80 56//56 39//39
f 80//80 39//39 55//55
f 52//52 34//34 57//57
f 99//99 17//17 81//81
f 99//99 81//81 44//44
f 82//82 17//17 99//99
f 83//83 26//26 60//60
f 83//83 60//60 7//7
f 85//85 7//7 60//60
f 84//84 61//61 55//55
f 84//84 78//78 26//26
f 84//84 55//55 78//78
f 84//84 26//26 83//83
f 84//84 83//83 61//61
f 85//85 100//100 101//101
f 85//85 11//11 46//46
f 101//101 7//7 85//85
f 86//86 117//117 2//2
f 45//45 62//62 2//2
f 45//45 105//105 62//62
f 87//87 63//63 38//38
f 87//87 38//38 114//114
f 87//87 88//88 63//63
f 118//118 38//38 63//63
f 106//106 101//101 100//100
f 106//106 100//100 66//66
f 106//106 66//66 116//116
f 115//115 66//66 18//18
f 82//82 106//106 17//17
f 106//106 13//13 101//101
f 89//89 76//76 107//107
f 89//89 90//90 67//67
f 89//89 107//107 90//90
f 94//94 89//89 67//67
f 94//94 74//74 89//89
f 109//109 107//107 120//120
f 109//109 120//120 50//50
f 90//90 107//107 109//109
f 91//91 49//49 50//50
f 32//32 31//31 92//92
f 4//4 22//22 77//77
f 4//4 51//51 72//72
f 4//4 72//72 22//22
f 112//112 35//35 75//75
f 51//51 35//35 112//112
f 93//93 59//59 99//99
f 95//95 34//34 74//74
f 95//95 74//74 94//94
f 95//95 94//94 10//10
f 95//95 10//10 34//34
f 52//52 74//74 34//34
f 74//74 14//14 23//23
f 96//96 75//75 35//35
f 96//96 35//35 4//4
f 96//96 4//4 54//54
f 96//96 54//54 75//75
f 23//23 76//76 74//74
f 61//61 79//79 55//55
f 61//61 114//114 79//79
f 125//125 87//87 114//114
f 125//125 88//88 87//87
f 52//52 57//57 16//16
f 67//67 82//82 59//59
f 67//67 59//59 6//6
f 7//7 101//101 13//13
f 11//11 85//85 60//60
f 100//100 85//85 46//46
f 102//102 86//86 2//2
f 102//102 2//2 62//62
f 102//102 62//62 86//86
f 103//103 86//86 62//62
f 103//103 62//62 105//105
f 103//103 105//105 64//64
f 88//88 105//105 45//45
f 63//63 45//45 118//118
f 63//63 88//88 45//45
f 104//104 64//64 112//112
f 75//75 122//122 104//104
f 75//75 104//104 112//112
f 125//125 105//105 88//88
f 115//115 47//47 40//40
f 115//115 18//18 65//65
f 115//115 65//65 47//47
f 82//82 110//110 106//106
f 67//67 90//90 82//82
f 108//108 76//76 23//23
f 108//108 107//107 76//76
f 108//108 111//111 50//50
f 108//108 50//50 120//120
f 121//121 89//89 74//74
f 121//121 74//74 76//76
f 73//73 68//68 126//126
f 73//73 92//92 68//68
f 91//91 111//111 14//14
f 111//111 91//91 50//50
f 13//13 110//110 73//73
f 51//51 112//112 71//71
f 113//113 58//58 117//117
f 114//114 61//61 83//83
f 116//116 81//81 17//17
f 116//116 17//17 106//106
f 117//117 86//86 103//103
f 119//119 64//64 104//104
f 119//119 104//104 113//113
f 119//119 113//113 103//103
f 119//119 103//103 64//64
f 105//105 125//125 13//13
f 105//105 13//13 64//64
f 110//110 82//82 90//90
f 13//13 106//106 110//110
f 120//120 107//107 108//108
f 121//121 76//76 89//89
f 73//73 32//32 92//92
f 73//73 110//110 90//90
f 71//71 112//112 73//73
f 71//71 70//70 33//33
f 71//71 127//127 70//70
f 122//122 113//113 104//104
f 122//122 58//58 113//113
f 123//123 115//115 40//40
f 123//123 116//116 115//115
f 124//124 116//116 123//123
f 124//124 123//123 40//40
f 124//124 40//40 81//81
f 124//124 81//81 116//116
f 7//7 13//13 125//125
f 7//7 125//125 114//114
f 7//7 114//114 83//83
f 113//113 117//117 103//103
f 64//64 13//13 112//112
f 90//90 109//109 32//32
f 73//73 112//112 13//13
f 127//127 73//73 126//126
f 127//127 71//71 73//73
# 250 faces, 0 coords texture

# End of File
