####
#
# OBJ File Generated by Meshlab
#
####
# Object listerine_green_250_collision.obj
#
# Vertices: 145
# Faces: 249
#
####
vn 0.632192 0.030153 0.774225
v -0.031769 -0.008383 0.044276
vn -0.420949 0.424234 0.801765
v -0.007695 -0.023937 0.046355
vn 0.222527 0.241501 0.944542
v -0.007695 -0.007635 0.039243
vn 0.925784 0.369651 0.079261
v -0.001558 -0.070802 0.157819
vn 0.972871 0.213183 0.089857
v 0.021222 -0.106929 0.029806
vn 0.953192 0.275240 0.125172
v 0.025859 -0.120750 0.029800
vn 0.963242 0.268523 -0.007714
v 0.015512 -0.073831 0.029806
vn 0.959026 0.282908 0.015205
v 0.024559 -0.140027 0.096002
vn 0.968641 0.233390 0.085231
v 0.025399 -0.140027 0.064001
vn 0.969313 0.137222 -0.203965
v 0.008902 -0.056961 0.029694
vn 0.572708 0.795610 0.197512
v 0.007167 -0.007635 0.029806
vn 0.927514 0.080897 -0.364931
v 0.009558 -0.018281 0.029697
vn 0.621521 0.455505 -0.637359
v 0.009336 -0.008196 0.036765
vn 0.940351 -0.097876 -0.325822
v 0.022896 -0.018444 0.054634
vn 0.963506 -0.265623 0.033174
v 0.023319 -0.016862 0.082785
vn 0.949514 0.309706 -0.050050
v 0.025403 -0.140027 0.105392
vn 0.911417 0.396227 -0.111008
v 0.019108 -0.106919 0.162309
vn 0.905006 0.385822 -0.179182
v 0.025403 -0.131938 0.162199
vn 0.447009 -0.327309 0.832497
v -0.007695 0.008914 0.040963
vn 0.580266 -0.438179 0.686507
v -0.024502 0.012284 0.047862
vn 0.983776 -0.144184 -0.106749
v -0.029771 -0.006049 0.158365
vn 0.667811 -0.207521 0.714817
v 0.006690 0.008914 0.029806
vn 0.931396 -0.328690 0.156412
v 0.017497 0.058561 0.029806
vn 0.911104 -0.299906 0.282745
v 0.008892 0.023643 0.030129
vn 0.913690 -0.375017 0.156628
v 0.048516 0.124758 0.029806
vn 0.795152 -0.230858 0.560748
v 0.034258 0.124758 0.096002
vn 0.921854 0.108155 0.372139
v 0.011180 0.124758 0.129100
vn 0.850871 0.006625 0.525332
v 0.025403 0.124758 0.101625
vn 0.886308 -0.143733 0.440226
v 0.001602 0.091660 0.162199
vn 0.924471 -0.105013 0.366505
v 0.004791 0.124758 0.162199
vn 0.813989 0.345259 -0.467137
v -0.031784 -0.022745 0.194297
vn -0.887875 0.081264 -0.452852
v -0.002206 -0.021827 0.251662
vn 0.782451 0.622472 0.017292
v -0.023837 -0.023660 0.294591
vn 0.916042 0.392416 0.082927
v -0.040293 0.003505 0.294658
vn 0.790854 0.453028 -0.411479
v 0.041878 -0.140027 0.195297
vn 0.592983 0.175734 -0.785805
v 0.063159 -0.140018 0.227643
vn 0.655991 0.753547 0.042921
v 0.034198 -0.073831 0.294591
vn 0.544585 0.766681 -0.340041
v 0.058501 -0.091008 0.294591
vn 0.081385 0.746118 -0.660821
v 0.124698 -0.098229 0.294591
vn 0.271757 0.626630 -0.730399
v 0.124698 -0.140027 0.247397
vn 0.660925 0.496351 -0.562862
v 0.013805 -0.001982 0.212141
vn 0.649092 0.757328 0.071648
v 0.020921 -0.060719 0.294552
vn 0.628400 0.770179 0.109261
v -0.006937 -0.040093 0.294591
vn 0.953958 -0.299640 -0.013389
v -0.014716 0.124758 0.228395
vn 0.875338 -0.228099 0.426327
v -0.007695 0.091660 0.178729
vn 0.941592 -0.128408 0.311313
v -0.011013 0.124753 0.196769
vn 0.986294 0.119138 0.114148
v -0.045225 0.025463 0.294591
vn 0.981756 -0.184090 -0.047604
v -0.044595 0.058561 0.294591
vn 0.731787 -0.635433 -0.246399
v -0.007695 0.092440 0.294591
vn 0.778429 -0.489561 -0.392911
v -0.007695 0.124758 0.239170
vn 0.659015 -0.649728 -0.378883
v 0.024168 0.124758 0.294591
vn -0.256785 0.853909 0.452660
v -0.017836 -0.042761 0.057897
vn -0.008761 0.562753 0.826579
v -0.020283 -0.030825 0.045897
vn -0.799138 0.508011 0.321408
v -0.006387 -0.030738 0.056596
vn -0.765781 0.637809 0.082342
v -0.006975 -0.041896 0.096081
vn 0.812878 0.476676 0.334678
v -0.033864 -0.039054 0.062253
vn 0.167118 0.981717 0.091117
v -0.023960 -0.050551 0.083204
vn 0.143163 0.987477 -0.066290
v -0.020574 -0.047785 0.138853
vn 0.911499 0.377540 -0.163197
v -0.034997 -0.037028 0.137675
vn 0.625277 0.770274 0.125325
v -0.011327 -0.053270 0.161002
vn 0.551412 0.664946 -0.503778
v -0.013280 -0.045458 0.181723
vn 0.889265 0.420859 -0.179126
v -0.024199 -0.034715 0.159832
vn 0.000000 0.000000 0.000000
v -0.024372 -0.043782 0.210674
vn 0.404199 0.859198 -0.313690
v -0.017000 -0.017274 0.205084
vn 0.000000 0.000000 0.000000
v -0.011994 -0.039900 0.218606
vn 0.408117 0.897328 0.168059
v -0.012023 -0.028720 0.214453
vn 0.909530 0.165211 -0.381391
v -0.023793 -0.018050 0.255766
vn 0.724428 0.580802 0.371312
v -0.023546 -0.023431 0.273191
vn 0.602287 -0.719627 0.345526
v -0.017582 0.027130 0.057784
vn 0.929645 -0.368192 -0.013928
v -0.026486 0.011346 0.126366
vn 0.911440 -0.279079 0.302312
v -0.010378 0.034495 0.154150
vn 0.998462 -0.001693 0.055418
v -0.027772 0.026870 0.195725
vn 0.896361 -0.111882 0.428974
v -0.022211 0.041152 0.170283
vn 0.810675 -0.269881 0.519587
v -0.007389 0.068199 0.162494
vn 0.942319 0.175751 -0.284863
v -0.022824 -0.004158 0.205842
vn 0.760528 0.260029 -0.594964
v -0.017964 0.007565 0.218623
vn -0.726713 -0.172403 -0.664955
v -0.006731 -0.005462 0.214419
vn 0.906177 -0.142807 0.398057
v -0.041115 0.059239 0.228395
vn 0.949609 -0.186445 0.251954
v -0.023015 0.053804 0.183649
vn 0.896578 -0.120778 0.426098
v -0.030635 0.058562 0.211846
vn 0.923080 0.144086 0.356598
v -0.040481 0.049048 0.228105
vn 0.914361 -0.242261 0.324428
v -0.014931 0.091660 0.195297
vn 0.903410 -0.421842 0.076809
v -0.028890 0.091660 0.228395
vn 0.977373 0.171231 0.124185
v -0.028255 0.028518 0.209231
vn 0.912462 0.366212 0.182486
v -0.040796 0.025544 0.262166
vn 0.974596 -0.220625 0.038552
v -0.049932 0.058561 0.261493
vn 0.877052 0.342844 0.336508
v -0.040588 0.010022 0.278649
vn 0.979291 0.183593 0.085341
v 0.017521 -0.106929 0.062904
vn 0.974893 0.219701 0.036254
v 0.013842 -0.106929 0.096002
vn 0.989100 -0.136345 0.055597
v 0.012901 -0.047777 0.067451
vn 0.989920 0.137359 -0.034517
v 0.013497 -0.066233 0.042770
vn 0.973838 -0.146075 -0.174072
v 0.013610 -0.041528 0.047909
vn 0.989452 0.055062 0.133987
v 0.012959 -0.066704 0.078379
vn 0.953733 0.298904 -0.032404
v 0.015377 -0.106929 0.129100
vn 0.889525 0.448482 -0.087228
v 0.025740 -0.139142 0.133577
vn 0.961033 0.241503 0.134507
v 0.002461 -0.074838 0.145887
vn 0.986975 0.108498 0.118783
v 0.007505 -0.073077 0.112581
vn -0.971968 0.233722 -0.025526
v 0.005601 -0.012488 0.116077
vn -0.698979 0.662857 0.268420
v -0.006050 -0.039956 0.136026
vn 0.765473 0.096937 0.636124
v 0.003449 -0.046398 0.145017
vn -0.897491 0.149491 0.414925
v -0.002017 -0.013854 0.141953
vn 0.613645 -0.260391 0.745410
v 0.010440 -0.033075 0.148595
vn 0.878717 0.360311 -0.313103
v 0.025403 -0.106929 0.192016
vn 0.857284 0.339283 -0.387235
v 0.026542 -0.106929 0.195297
vn 0.838260 0.310892 -0.447959
v 0.025575 -0.094003 0.202636
vn 0.797756 0.455087 -0.395577
v 0.045274 -0.106929 0.228395
vn 0.600935 0.521561 -0.605683
v 0.058501 -0.120941 0.228395
vn 0.903187 0.329856 -0.274677
v 0.027026 -0.062685 0.228677
vn 0.876692 0.398038 -0.270142
v 0.004494 -0.073831 0.178748
vn 0.831457 0.290919 -0.473334
v 0.009128 -0.069467 0.193310
vn 0.786243 0.432874 -0.440956
v -0.000578 -0.056618 0.182455
vn 0.603806 0.448386 -0.659067
v 0.002024 -0.031335 0.195222
vn 0.846803 0.233322 -0.478001
v 0.014668 -0.050317 0.209979
vn 0.000000 0.000000 0.000000
v -0.005634 -0.050414 0.208621
vn 0.159418 0.565395 -0.809268
v 0.001682 -0.019854 0.207845
vn 0.930561 0.273172 -0.243790
v 0.013547 -0.024095 0.219532
vn 0.891313 0.452826 0.022572
v 0.025403 -0.054620 0.244944
vn 0.806719 0.590932 -0.002023
v 0.036791 -0.073831 0.261493
vn -0.755108 0.582452 0.300935
v 0.000156 -0.024955 0.213039
vn 0.814866 0.229370 0.532337
v 0.007534 -0.024428 0.259174
vn 0.591969 0.664885 0.455523
v -0.000937 -0.041321 0.277979
vn 0.792950 0.535987 0.289738
v 0.022821 -0.054520 0.260400
vn 0.673578 0.445607 0.589684
v 0.010814 -0.000233 0.260502
vn 0.696108 0.701261 0.153838
v 0.021094 -0.060074 0.275017
vn -0.790131 0.612489 0.023439
v -0.000202 -0.007026 0.046371
vn -0.196075 0.580812 -0.790071
v 0.008813 0.012872 0.043602
vn 0.468357 0.814076 -0.343397
v 0.019024 0.022947 0.056441
vn 0.926251 -0.341521 0.159445
v 0.014717 0.058561 0.046355
vn 0.523132 -0.542832 0.657014
v 0.000593 0.022294 0.046555
vn 0.956264 -0.291122 0.028404
v 0.011488 0.058561 0.062904
vn -0.962443 0.256935 0.087685
v 0.002035 0.002186 0.084520
vn -0.690608 0.720607 -0.061533
v 0.009732 0.026198 0.072075
vn 0.934423 0.165581 -0.315336
v 0.027425 0.009214 0.058644
vn 0.423383 0.885578 0.191044
v 0.019405 0.021668 0.133698
vn 0.833759 -0.480905 0.271252
v 0.007679 0.040493 0.060648
vn -0.870611 0.489794 0.046239
v 0.010484 0.018826 0.111396
vn 0.932893 -0.350426 0.083145
v 0.009948 0.059270 0.086709
vn 0.849653 -0.513842 0.118562
v 0.000841 0.045915 0.123277
vn 0.930276 0.076656 0.358763
v 0.023622 0.007522 0.138693
vn -0.146694 0.593936 0.791025
v 0.012105 0.017784 0.145972
vn 0.873501 -0.302948 0.381076
v 0.000478 0.056708 0.144158
vn 0.960097 -0.278294 0.027670
v 0.025312 0.091660 0.096002
vn 0.944007 -0.101566 0.313902
v 0.019049 0.091660 0.129100
vn 0.952032 -0.224911 0.207484
v 0.025403 0.094260 0.096002
vn 0.478097 0.644368 0.596836
v -0.021572 0.006343 0.260952
# 145 vertices, 0 vertices normals

f 2//2 3//3 1//1
f 2//2 1//1 53//53
f 53//53 56//56 52//52
f 56//56 53//53 1//1
f 54//54 53//53 52//52
f 53//53 54//54 2//2
f 56//56 57//57 52//52
f 52//52 57//57 55//55
f 55//55 57//57 58//58
f 55//55 54//54 52//52
f 56//56 1//1 70//70
f 70//70 59//59 56//56
f 59//59 57//57 56//56
f 57//57 59//59 58//58
f 99//99 55//55 58//58
f 58//58 59//59 62//62
f 62//62 60//60 58//58
f 58//58 60//60 99//99
f 100//100 99//99 60//60
f 59//59 70//70 21//21
f 21//21 62//62 59//59
f 60//60 62//62 61//61
f 111//111 60//60 61//61
f 61//61 62//62 31//31
f 62//62 21//21 72//72
f 72//72 31//31 62//62
f 63//63 65//65 114//114
f 31//31 64//64 61//61
f 63//63 114//114 65//65
f 64//64 66//66 119//119
f 64//64 31//31 75//75
f 66//66 64//64 75//75
f 66//66 75//75 67//67
f 32//32 66//66 67//67
f 145//145 121//121 120//120
f 68//68 121//121 145//145
f 68//68 145//145 87//87
f 43//43 121//121 68//68
f 33//33 43//43 68//68
f 34//34 33//33 68//68
f 20//20 1//1 3//3
f 20//20 3//3 19//19
f 70//70 1//1 20//20
f 70//70 20//20 69//69
f 70//70 69//69 138//138
f 71//71 70//70 138//138
f 21//21 70//70 71//71
f 74//74 73//73 71//71
f 72//72 21//21 71//71
f 31//31 72//72 75//75
f 72//72 71//71 73//73
f 72//72 73//73 79//79
f 72//72 84//84 75//75
f 84//84 76//76 75//75
f 81//81 80//80 78//78
f 72//72 79//79 84//84
f 80//80 84//84 79//79
f 84//84 80//80 81//81
f 45//45 79//79 73//73
f 73//73 74//74 45//45
f 79//79 45//45 82//82
f 82//82 45//45 46//46
f 83//83 78//78 80//80
f 80//80 79//79 82//82
f 80//80 82//82 83//83
f 44//44 83//83 82//82
f 82//82 46//46 44//44
f 67//67 75//75 76//76
f 76//76 77//77 32//32
f 85//85 76//76 84//84
f 145//145 76//76 85//85
f 67//67 76//76 32//32
f 145//145 85//85 87//87
f 86//86 85//85 81//81
f 81//81 78//78 86//86
f 85//85 84//84 81//81
f 47//47 34//34 87//87
f 87//87 85//85 47//47
f 34//34 68//68 87//87
f 48//48 47//47 85//85
f 85//85 86//86 48//48
f 49//49 48//48 86//86
f 86//86 78//78 83//83
f 86//86 83//83 49//49
f 83//83 44//44 50//50
f 83//83 50//50 49//49
f 88//88 9//9 6//6
f 6//6 5//5 88//88
f 91//91 88//88 5//5
f 5//5 7//7 91//91
f 88//88 91//91 90//90
f 88//88 8//8 9//9
f 8//8 88//88 89//89
f 93//93 89//89 88//88
f 88//88 90//90 93//93
f 91//91 7//7 10//10
f 91//91 10//10 92//92
f 90//90 91//91 92//92
f 92//92 10//10 12//12
f 92//92 12//12 14//14
f 11//11 125//125 13//13
f 13//13 12//12 11//11
f 125//125 11//11 3//3
f 125//125 3//3 2//2
f 14//14 12//12 13//13
f 125//125 2//2 54//54
f 15//15 90//90 92//92
f 55//55 131//131 54//54
f 14//14 15//15 92//92
f 54//54 131//131 125//125
f 94//94 95//95 16//16
f 16//16 8//8 89//89
f 16//16 89//89 94//94
f 97//97 94//94 89//89
f 89//89 93//93 97//97
f 94//94 97//97 96//96
f 18//18 95//95 94//94
f 18//18 94//94 17//17
f 96//96 17//17 94//94
f 17//17 96//96 4//4
f 100//100 96//96 97//97
f 97//97 93//93 100//100
f 90//90 100//100 93//93
f 100//100 90//90 102//102
f 90//90 15//15 102//102
f 55//55 98//98 131//131
f 15//15 133//133 139//139
f 139//139 102//102 15//15
f 98//98 55//55 99//99
f 99//99 101//101 98//98
f 96//96 100//100 4//4
f 100//100 60//60 4//4
f 101//101 99//99 100//100
f 100//100 102//102 101//101
f 102//102 140//140 101//101
f 139//139 140//140 102//102
f 17//17 103//103 18//18
f 35//35 95//95 18//18
f 35//35 18//18 103//103
f 35//35 103//103 104//104
f 110//110 105//105 103//103
f 109//109 103//103 17//17
f 103//103 109//109 110//110
f 104//104 103//103 105//105
f 107//107 36//36 35//35
f 106//106 107//107 35//35
f 35//35 104//104 106//106
f 106//106 104//104 105//105
f 106//106 105//105 108//108
f 109//109 17//17 4//4
f 109//109 4//4 111//111
f 4//4 60//60 111//111
f 110//110 109//109 111//111
f 110//110 111//111 112//112
f 61//61 112//112 111//111
f 112//112 113//113 110//110
f 113//113 108//108 105//105
f 105//105 110//110 113//113
f 116//116 108//108 113//113
f 112//112 61//61 64//64
f 116//116 112//112 115//115
f 112//112 116//116 113//113
f 64//64 115//115 112//112
f 115//115 64//64 119//119
f 119//119 77//77 115//115
f 115//115 41//41 116//116
f 38//38 107//107 106//106
f 118//118 38//38 106//106
f 106//106 108//108 118//118
f 38//38 118//118 37//37
f 38//38 39//39 40//40
f 40//40 36//36 107//107
f 40//40 107//107 38//38
f 116//116 117//117 108//108
f 117//117 116//116 122//122
f 117//117 118//118 108//108
f 118//118 117//117 122//122
f 66//66 32//32 119//119
f 32//32 77//77 119//119
f 116//116 41//41 120//120
f 120//120 122//122 116//116
f 123//123 120//120 41//41
f 124//124 122//122 121//121
f 42//42 121//121 43//43
f 124//124 121//121 42//42
f 124//124 37//37 118//118
f 118//118 122//122 124//124
f 37//37 124//124 42//42
f 122//122 120//120 121//121
f 123//123 145//145 120//120
f 3//3 11//11 22//22
f 22//22 19//19 3//3
f 125//125 126//126 13//13
f 129//129 20//20 19//19
f 129//129 19//19 22//22
f 129//129 22//22 24//24
f 129//129 24//24 135//135
f 133//133 14//14 13//13
f 133//133 13//13 126//126
f 129//129 69//69 20//20
f 132//132 126//126 125//125
f 132//132 125//125 131//131
f 127//127 133//133 126//126
f 127//127 126//126 132//132
f 128//128 135//135 24//24
f 24//24 23//23 128//128
f 69//69 129//129 135//135
f 135//135 128//128 130//130
f 131//131 136//136 132//132
f 133//133 127//127 134//134
f 132//132 134//134 127//127
f 134//134 132//132 136//136
f 133//133 15//15 14//14
f 135//135 130//130 137//137
f 69//69 135//135 138//138
f 138//138 135//135 137//137
f 130//130 144//144 142//142
f 142//142 137//137 130//130
f 144//144 130//130 128//128
f 25//25 144//144 128//128
f 128//128 23//23 25//25
f 144//144 25//25 26//26
f 131//131 98//98 136//136
f 136//136 98//98 101//101
f 133//133 134//134 139//139
f 140//140 136//136 101//101
f 134//134 136//136 140//140
f 140//140 139//139 134//134
f 71//71 138//138 141//141
f 71//71 141//141 74//74
f 142//142 138//138 137//137
f 138//138 142//142 143//143
f 143//143 142//142 144//144
f 143//143 144//144 28//28
f 143//143 28//28 27//27
f 26//26 28//28 144//144
f 29//29 74//74 141//141
f 141//141 138//138 143//143
f 141//141 143//143 29//29
f 29//29 143//143 27//27
f 29//29 27//27 30//30
f 77//77 41//41 115//115
f 41//41 77//77 76//76
f 29//29 45//45 74//74
f 30//30 46//46 45//45
f 30//30 45//45 29//29
f 145//145 41//41 76//76
f 145//145 123//123 41//41
f 49//49 50//50 51//51
# 249 faces, 0 coords texture

# End of File
