####
#
# OBJ File Generated by Meshlab
#
####
# Object krylon_crystal_clear_250_collision.obj
#
# Vertices: 127
# Faces: 250
#
####
vn 0.502305 -0.004182 0.864680
v -0.028179 0.008655 0.002988
vn 0.002804 -0.003580 0.999990
v 0.001043 0.007166 0.000903
vn -0.087044 0.021465 0.995973
v 0.013363 0.003445 0.000445
vn -0.651435 -0.758584 0.013522
v 0.023167 0.030088 0.110585
vn 0.990546 -0.134392 -0.027506
v -0.034063 0.010565 0.132553
vn -0.955287 -0.287267 -0.070031
v 0.032980 0.013027 0.153660
vn 0.446697 0.601181 0.662604
v -0.015552 -0.024645 0.005426
vn 0.709216 0.692816 0.130452
v -0.021958 -0.022790 0.012781
vn 0.337246 0.277071 0.899720
v -0.018796 -0.016746 0.002757
vn 0.067417 0.068943 0.995340
v -0.011571 -0.007062 0.000403
vn 0.283156 0.959073 -0.000951
v -0.008639 -0.031532 0.033610
vn 0.246905 0.915151 0.318648
v -0.010250 -0.031060 0.010210
vn 0.951619 0.307131 0.009524
v -0.032422 -0.004091 0.030037
vn 0.803644 0.404304 0.436686
v -0.028182 -0.013211 0.009273
vn 0.693340 0.720610 0.000950
v -0.023504 -0.023127 0.050839
vn 0.261991 0.965026 0.009198
v -0.006843 -0.032193 0.068679
vn 0.926194 0.376869 -0.011602
v -0.030506 -0.011120 0.066106
vn 0.976075 0.216715 0.017656
v -0.033303 -0.004162 0.096640
vn 0.598485 0.801083 -0.009055
v -0.018551 -0.026171 0.066067
vn 0.801994 0.596568 -0.030190
v -0.023574 -0.021898 0.130505
vn 0.172892 0.984852 0.013246
v -0.006429 -0.032264 0.104191
vn 0.494658 0.867922 -0.044995
v -0.014978 -0.029432 0.127501
vn 0.104920 0.992188 -0.067488
v -0.002668 -0.032037 0.146477
vn 0.942646 0.332823 -0.025430
v -0.032078 -0.008997 0.126107
vn 0.477812 0.876514 -0.058470
v -0.013694 -0.028459 0.148494
vn 0.952354 0.299871 -0.055670
v -0.032469 -0.003341 0.147015
vn 0.910655 0.395495 -0.119547
v -0.028020 -0.010974 0.172830
vn 0.781406 0.621858 -0.051933
v -0.025796 -0.016679 0.151006
vn 0.699590 0.709149 -0.087649
v -0.019728 -0.022752 0.170651
vn 0.464037 0.873636 -0.146392
v -0.013196 -0.026744 0.174585
vn 0.757418 0.590745 -0.278098
v -0.021215 -0.017620 0.186950
vn 0.454179 0.809483 -0.372101
v -0.012051 -0.023539 0.191091
vn 0.633892 0.351333 -0.689018
v -0.020056 -0.010726 0.196687
vn 0.949116 0.141504 -0.281346
v -0.029255 0.003438 0.186514
vn 0.844727 -0.355997 0.399627
v -0.031172 0.016172 0.007882
vn 0.963288 0.058690 0.261976
v -0.033873 0.005953 0.011287
vn 0.069068 -0.069302 0.995202
v -0.012291 0.011834 0.000527
vn 0.250845 -0.328908 0.910438
v -0.020709 0.021504 0.003406
vn 0.499517 -0.794461 0.345418
v -0.020145 0.032567 0.009616
vn -0.037239 -0.804191 0.593203
v -0.000952 0.036182 0.007245
vn 0.989413 -0.144959 0.007042
v -0.033796 0.007796 0.026667
vn 0.996561 -0.082714 0.004912
v -0.034207 0.009785 0.052803
vn 0.840672 -0.541236 0.018267
v -0.027769 0.024340 0.028869
vn -0.042255 -0.996992 0.064976
v 0.001113 0.038721 0.024209
vn 0.436297 -0.899649 0.016607
v -0.015678 0.035165 0.026450
vn 0.578723 -0.815509 0.004992
v -0.019425 0.033316 0.064837
vn 0.999614 -0.026481 0.008449
v -0.033421 0.010527 0.076006
vn 0.907123 -0.420747 0.010008
v -0.031654 0.018920 0.059545
vn 0.154487 -0.987994 0.000950
v -0.006680 0.038251 0.066830
vn 0.978052 -0.208360 0.001142
v -0.033663 0.012874 0.097271
vn 0.758974 -0.651096 -0.005681
v -0.025101 0.029041 0.111605
vn 0.269604 -0.962896 0.012060
v -0.009450 0.037813 0.104000
vn 0.995056 -0.040657 -0.090616
v -0.032437 0.005962 0.163069
vn 0.865297 -0.498626 -0.051326
v -0.027631 0.023376 0.152731
vn 0.496456 -0.866973 -0.043453
v -0.018049 0.034710 0.137472
vn 0.132241 -0.986497 -0.096625
v -0.005201 0.036917 0.159934
vn 0.923509 -0.335663 -0.185637
v -0.028865 0.016802 0.180722
vn 0.654316 -0.748416 -0.108369
v -0.023222 0.027391 0.168882
vn 0.365864 -0.880571 -0.301227
v -0.012245 0.032128 0.184791
vn 0.696336 -0.606461 -0.383824
v -0.022920 0.022880 0.189464
vn 0.053680 -0.964299 -0.259320
v -0.004116 0.035120 0.182784
vn 0.212789 -0.560431 -0.800398
v -0.010225 0.026114 0.197449
vn 0.775084 -0.112382 -0.621784
v -0.025945 0.007738 0.194530
vn 0.502283 -0.351298 -0.790127
v -0.018271 0.020801 0.197008
vn -0.055353 0.418926 0.906332
v 0.004767 -0.025064 0.003270
vn -0.024331 0.072237 0.997091
v 0.003140 -0.008991 0.000474
vn -0.144117 0.155536 0.977261
v 0.015572 -0.010362 0.001650
vn -0.488314 0.481724 0.727662
v 0.023261 -0.014428 0.004325
vn -0.485849 0.182775 0.854719
v 0.026294 -0.005792 0.002955
vn -0.309120 0.866965 0.390918
v 0.009060 -0.031996 0.012036
vn -0.191300 0.981472 -0.010833
v 0.004462 -0.032332 0.035975
vn -0.822575 0.464872 0.327512
v 0.029576 -0.015072 0.013859
vn -0.629832 0.759661 0.161947
v 0.022584 -0.023946 0.015729
vn -0.882937 0.469477 -0.003582
v 0.029966 -0.015346 0.051813
vn -0.930768 0.093133 0.353550
v 0.034315 0.001694 0.009343
vn -0.194687 0.980843 0.006579
v 0.007519 -0.031232 0.067733
vn -0.564895 0.824681 -0.028183
v 0.020069 -0.025987 0.066865
vn -0.375493 0.925976 0.039666
v 0.011481 -0.031801 0.108227
vn -0.561572 0.826963 -0.027745
v 0.015525 -0.027661 0.078053
vn -0.758080 0.650849 -0.041357
v 0.024760 -0.021037 0.069372
vn -0.967987 0.250962 0.004372
v 0.033794 -0.005173 0.080001
vn -0.817828 0.574967 0.023881
v 0.029317 -0.016484 0.100587
vn -0.139959 0.989461 -0.037116
v 0.002035 -0.033850 0.123749
vn -0.594366 0.803812 -0.024815
v 0.021664 -0.026290 0.123044
vn -0.943471 0.328616 -0.043279
v 0.034136 -0.006817 0.136519
vn -0.320787 0.943771 -0.079949
v 0.008103 -0.030324 0.146734
vn 0.173120 0.971341 -0.162866
v -0.003583 -0.029441 0.175116
vn -0.682372 0.726686 -0.079351
v 0.022895 -0.024337 0.136874
vn -0.825259 0.558805 -0.081765
v 0.026748 -0.014563 0.160909
vn -0.979784 0.170567 -0.104543
v 0.032850 0.001056 0.165990
vn -0.161595 0.965839 -0.202589
v 0.005356 -0.028411 0.180916
vn -0.826876 0.545477 -0.136860
v 0.025052 -0.016167 0.178815
vn -0.549604 0.813889 -0.188468
v 0.015221 -0.023739 0.185010
vn -0.917233 0.192552 -0.348722
v 0.028885 -0.002627 0.190388
vn -0.236662 0.637322 -0.733356
v 0.009046 -0.021395 0.197544
vn 0.156995 0.714769 -0.681511
v -0.004975 -0.023171 0.197237
vn 0.126549 -0.000148 -0.991960
v -0.015968 0.005975 0.199765
vn -0.588716 0.400484 -0.702158
v 0.022334 -0.011213 0.197405
vn -0.522716 -0.089305 -0.847816
v 0.024004 0.007119 0.198114
vn -0.009557 -0.102959 0.994640
v 0.008789 0.017115 0.000615
vn -0.145640 -0.055558 0.987776
v 0.016359 0.010420 0.000712
vn -0.474698 -0.138387 0.869202
v 0.026676 0.011440 0.002969
vn -0.072864 -0.462287 0.883731
v 0.004860 0.030222 0.003072
vn -0.231375 -0.299622 0.925577
v 0.016731 0.025100 0.002681
vn -0.481981 -0.613989 0.625069
v 0.022214 0.027034 0.006580
vn -0.734759 -0.678159 0.015170
v 0.022045 0.030201 0.034630
vn -0.876369 -0.423850 0.228755
v 0.032390 0.016451 0.011743
vn -0.520942 -0.837575 0.164584
v 0.018510 0.032995 0.013036
vn -0.999802 -0.018704 0.006771
v 0.034420 0.006492 0.045141
vn -0.519688 -0.854304 0.009413
v 0.018498 0.033244 0.066335
vn -0.804051 -0.594548 0.003793
v 0.027304 0.025100 0.084065
vn -0.910934 -0.412549 -0.001411
v 0.032302 0.017445 0.055554
vn -0.972866 -0.231339 0.003876
v 0.033679 0.011022 0.085165
vn -0.204710 -0.978789 0.008187
v 0.007472 0.038032 0.071243
vn -0.873807 -0.486193 -0.008840
v 0.029983 0.021993 0.126664
vn -0.999580 -0.028811 0.003239
v 0.035364 0.006081 0.112186
vn -0.255388 -0.966818 0.006338
v 0.009084 0.037840 0.113426
vn -0.081708 -0.995490 -0.048200
v 0.001070 0.039687 0.139327
vn -0.614730 -0.787743 -0.039599
v 0.022222 0.031793 0.136779
vn -0.748145 -0.650805 -0.129353
v 0.024484 0.024958 0.175143
vn -0.379695 -0.920170 -0.095498
v 0.016026 0.033892 0.148223
vn -0.909078 -0.264620 -0.321797
v 0.028901 0.010193 0.190813
vn -0.113491 -0.767354 -0.631100
v 0.007663 0.029801 0.194304
vn -0.402072 -0.892619 -0.203886
v 0.012834 0.032892 0.181326
vn -0.729736 -0.624539 -0.278274
v 0.023362 0.022890 0.186210
vn -0.564134 -0.551500 -0.614493
v 0.018837 0.022563 0.195382
vn -0.156549 -0.243499 -0.957184
v 0.016909 0.016897 0.198404
# 127 vertices, 0 vertices normals

f 36//36 14//14 1//1
f 8//8 7//7 14//14
f 8//8 12//12 7//7
f 7//7 9//9 14//14
f 7//7 65//65 9//9
f 10//10 9//9 65//65
f 66//66 10//10 65//65
f 7//7 12//12 65//65
f 9//9 10//10 1//1
f 14//14 9//9 1//1
f 10//10 66//66 2//2
f 71//71 12//12 11//11
f 70//70 12//12 71//71
f 14//14 36//36 13//13
f 41//41 13//13 36//36
f 8//8 11//11 12//12
f 11//11 8//8 15//15
f 13//13 8//8 14//14
f 8//8 13//13 15//15
f 15//15 16//16 11//11
f 76//76 71//71 11//11
f 76//76 11//11 16//16
f 15//15 19//19 16//16
f 15//15 13//13 17//17
f 42//42 13//13 41//41
f 42//42 17//17 13//13
f 17//17 42//42 47//47
f 18//18 17//17 47//47
f 19//19 15//15 17//17
f 76//76 16//16 21//21
f 21//21 78//78 76//76
f 50//50 5//5 18//18
f 20//20 19//19 17//17
f 21//21 16//16 19//19
f 21//21 19//19 22//22
f 21//21 22//22 23//23
f 83//83 21//21 23//23
f 24//24 18//18 5//5
f 19//19 20//20 22//22
f 20//20 17//17 18//18
f 20//20 18//18 24//24
f 20//20 24//24 26//26
f 23//23 22//22 25//25
f 87//87 23//23 25//25
f 87//87 25//25 30//30
f 5//5 26//26 24//24
f 26//26 53//53 27//27
f 28//28 22//22 20//20
f 28//28 25//25 22//22
f 26//26 28//28 20//20
f 29//29 25//25 28//28
f 29//29 30//30 25//25
f 27//27 28//28 26//26
f 27//27 53//53 34//34
f 29//29 28//28 27//27
f 30//30 29//29 31//31
f 29//29 27//27 31//31
f 32//32 30//30 31//31
f 31//31 33//33 32//32
f 87//87 30//30 32//32
f 96//96 87//87 32//32
f 96//96 91//91 87//87
f 96//96 32//32 33//33
f 31//31 27//27 34//34
f 33//33 31//31 34//34
f 33//33 34//34 63//63
f 33//33 97//97 96//96
f 36//36 1//1 35//35
f 1//1 10//10 37//37
f 37//37 38//38 1//1
f 38//38 35//35 1//1
f 2//2 37//37 10//10
f 37//37 2//2 100//100
f 35//35 38//38 39//39
f 38//38 37//37 100//100
f 38//38 100//100 103//103
f 38//38 103//103 40//40
f 38//38 40//40 39//39
f 41//41 36//36 35//35
f 43//43 41//41 35//35
f 39//39 43//43 35//35
f 42//42 41//41 43//43
f 48//48 42//42 43//43
f 39//39 45//45 43//43
f 39//39 40//40 44//44
f 45//45 39//39 44//44
f 49//49 45//45 44//44
f 49//49 44//44 114//114
f 47//47 42//42 48//48
f 46//46 43//43 45//45
f 46//46 48//48 43//43
f 51//51 48//48 46//46
f 46//46 45//45 49//49
f 47//47 48//48 50//50
f 50//50 18//18 47//47
f 50//50 48//48 51//51
f 46//46 49//49 52//52
f 51//51 46//46 52//52
f 49//49 117//117 52//52
f 5//5 50//50 51//51
f 51//51 52//52 55//55
f 118//118 55//55 52//52
f 53//53 5//5 54//54
f 54//54 5//5 51//51
f 26//26 5//5 53//53
f 53//53 54//54 57//57
f 55//55 54//54 51//51
f 54//54 55//55 58//58
f 58//58 55//55 56//56
f 55//55 118//118 56//56
f 57//57 34//34 53//53
f 57//57 54//54 58//58
f 59//59 60//60 58//58
f 59//59 58//58 56//56
f 63//63 34//34 57//57
f 60//60 63//63 57//57
f 60//60 64//64 63//63
f 57//57 58//58 60//60
f 64//64 60//60 62//62
f 60//60 59//59 62//62
f 59//59 61//61 123//123
f 123//123 62//62 59//59
f 56//56 61//61 59//59
f 97//97 33//33 63//63
f 64//64 97//97 63//63
f 62//62 97//97 64//64
f 12//12 70//70 65//65
f 66//66 65//65 67//67
f 68//68 65//65 70//70
f 68//68 70//70 73//73
f 65//65 68//68 67//67
f 68//68 73//73 72//72
f 72//72 69//69 68//68
f 3//3 2//2 66//66
f 66//66 67//67 3//3
f 69//69 3//3 67//67
f 67//67 68//68 69//69
f 72//72 75//75 69//69
f 69//69 75//75 102//102
f 73//73 70//70 71//71
f 77//77 73//73 71//71
f 74//74 73//73 77//77
f 74//74 72//72 73//73
f 75//75 72//72 74//74
f 109//109 75//75 74//74
f 76//76 77//77 71//71
f 77//77 76//76 79//79
f 77//77 80//80 74//74
f 80//80 81//81 74//74
f 80//80 77//77 79//79
f 109//109 74//74 81//81
f 78//78 79//79 76//76
f 82//82 81//81 80//80
f 79//79 82//82 80//80
f 78//78 82//82 79//79
f 82//82 116//116 81//81
f 83//83 78//78 21//21
f 84//84 78//78 83//83
f 78//78 84//84 82//82
f 85//85 82//82 84//84
f 85//85 84//84 88//88
f 85//85 116//116 82//82
f 86//86 83//83 23//23
f 84//84 83//83 86//86
f 88//88 84//84 86//86
f 87//87 91//91 23//23
f 91//91 86//86 23//23
f 93//93 86//86 91//91
f 85//85 88//88 89//89
f 89//89 90//90 85//85
f 86//86 93//93 88//88
f 89//89 88//88 93//93
f 89//89 93//93 92//92
f 89//89 92//92 90//90
f 6//6 116//116 85//85
f 6//6 85//85 90//90
f 94//94 90//90 92//92
f 95//95 91//91 96//96
f 95//95 93//93 91//91
f 98//98 92//92 93//93
f 98//98 93//93 95//95
f 92//92 98//98 94//94
f 98//98 99//99 94//94
f 95//95 96//96 97//97
f 98//98 95//95 97//97
f 2//2 3//3 100//100
f 101//101 100//100 3//3
f 100//100 101//101 104//104
f 102//102 101//101 3//3
f 3//3 69//69 102//102
f 102//102 104//104 101//101
f 75//75 107//107 102//102
f 102//102 107//107 105//105
f 104//104 103//103 100//100
f 104//104 105//105 103//103
f 104//104 102//102 105//105
f 105//105 40//40 103//103
f 40//40 105//105 108//108
f 107//107 108//108 105//105
f 108//108 107//107 106//106
f 110//110 108//108 106//106
f 107//107 75//75 109//109
f 112//112 107//107 109//109
f 44//44 40//40 108//108
f 44//44 108//108 110//110
f 44//44 110//110 114//114
f 106//106 107//107 112//112
f 112//112 111//111 106//106
f 110//110 106//106 111//111
f 113//113 112//112 109//109
f 113//113 109//109 81//81
f 110//110 111//111 4//4
f 4//4 111//111 115//115
f 113//113 111//111 112//112
f 111//111 113//113 115//115
f 116//116 113//113 81//81
f 115//115 113//113 116//116
f 117//117 114//114 110//110
f 117//117 110//110 4//4
f 117//117 49//49 114//114
f 119//119 117//117 4//4
f 115//115 116//116 6//6
f 52//52 117//117 118//118
f 115//115 119//119 4//4
f 6//6 119//119 115//115
f 120//120 119//119 6//6
f 120//120 121//121 119//119
f 118//118 117//117 119//119
f 121//121 118//118 119//119
f 56//56 118//118 121//121
f 56//56 121//121 124//124
f 124//124 121//121 120//120
f 122//122 90//90 94//94
f 6//6 90//90 122//122
f 125//125 120//120 122//122
f 122//122 120//120 6//6
f 122//122 94//94 99//99
f 122//122 99//99 126//126
f 122//122 126//126 125//125
f 124//124 123//123 61//61
f 126//126 123//123 124//124
f 125//125 124//124 120//120
f 125//125 126//126 124//124
f 61//61 56//56 124//124
f 97//97 99//99 98//98
f 127//127 99//99 97//97
f 127//127 126//126 99//99
f 127//127 97//97 62//62
f 62//62 123//123 127//127
f 123//123 126//126 127//127
# 250 faces, 0 coords texture

# End of File
