####
#
# OBJ File Generated by Meshlab
#
####
# Object aunt_jemima_original_syrup_250_collision.obj
#
# Vertices: 129
# Faces: 250
#
####
vn 0.006803 -0.500090 -0.865947
v 0.000436 -0.039207 0.014731
vn -0.083635 -0.882393 -0.463021
v -0.000895 -0.055251 0.028464
vn -0.383597 -0.879053 0.283053
v 0.000239 -0.048629 0.109114
vn -0.136871 -0.949046 0.283863
v 0.003494 -0.037260 0.138023
vn 0.404265 -0.095767 -0.909614
v 0.024067 -0.015899 0.010909
vn 0.802179 -0.566372 0.189031
v 0.019446 -0.030701 0.130765
vn 0.003019 -0.019516 -0.999805
v 0.002300 -0.014399 0.007539
vn 0.005416 0.946901 0.321480
v 0.000578 0.031322 0.101573
vn -0.378934 0.848299 0.369862
v -0.010653 0.015248 0.130705
vn 0.983269 -0.144512 0.110900
v 0.026654 -0.013049 0.133417
vn 0.554098 0.801572 0.224627
v 0.013259 0.014187 0.132368
vn -0.115669 -0.993254 -0.008138
v 0.000705 -0.031594 0.167470
vn -0.998572 0.050012 -0.018803
v -0.024198 -0.010290 0.178543
vn 0.218918 -0.961385 0.166776
v 0.003297 -0.037361 0.198307
vn 0.093057 -0.376364 0.921787
v 0.009590 -0.018125 0.208921
vn 0.995015 0.042853 0.090050
v 0.023714 -0.010446 0.176818
vn 0.074445 0.923421 0.376499
v 0.002597 0.019353 0.127815
vn -0.035611 0.999000 -0.027028
v 0.000417 0.010261 0.185956
vn -0.131939 -0.645083 -0.752635
v -0.002605 -0.047807 0.020868
vn -0.511693 -0.743646 -0.430302
v -0.012483 -0.049451 0.025857
vn -0.628235 -0.492039 -0.602675
v -0.018913 -0.036965 0.018408
vn -0.210115 -0.450007 -0.867955
v -0.008565 -0.039201 0.015789
vn -0.319204 -0.187604 -0.928932
v -0.018579 -0.020562 0.011933
vn -0.966591 -0.226625 -0.119760
v -0.030860 -0.021052 0.032509
vn -0.780586 0.011003 -0.624951
v -0.029353 -0.007628 0.016212
vn -0.026881 -0.266604 -0.963431
v 0.000043 -0.026497 0.009631
vn -0.828131 -0.557556 -0.057716
v -0.024999 -0.038794 0.044603
vn -0.441507 -0.893467 -0.082391
v -0.005921 -0.057397 0.041274
vn -0.147678 -0.979007 0.140485
v 0.000790 -0.058824 0.063821
vn -0.561354 -0.820378 0.108915
v -0.008420 -0.054047 0.070386
vn -0.826865 -0.553911 0.097348
v -0.021926 -0.042363 0.064316
vn -0.977864 -0.190738 0.086029
v -0.028789 -0.019780 0.072708
vn -0.765896 -0.610617 0.201369
v -0.015629 -0.040216 0.102450
vn -0.952300 -0.277934 0.126006
v -0.027288 -0.013863 0.109956
vn -0.641282 -0.741104 0.198803
v -0.012143 -0.032319 0.131503
vn -0.842855 -0.529938 0.093603
v -0.019370 -0.023492 0.133332
vn -0.503211 -0.861524 0.067488
v -0.010194 -0.028950 0.159397
vn -0.841287 -0.540588 -0.000670
v -0.019316 -0.021324 0.158334
vn -0.478975 -0.867948 -0.131334
v -0.010965 -0.029923 0.185753
vn -0.864620 -0.495707 -0.081893
v -0.020843 -0.020488 0.178024
vn -0.158343 -0.929755 0.332389
v -0.003540 -0.037838 0.201901
vn -0.893423 -0.313301 0.321928
v -0.022152 -0.024334 0.205493
vn 0.228931 -0.349769 0.908434
v -0.001512 -0.029000 0.207027
vn 0.226565 -0.688709 -0.688730
v -0.001153 -0.031143 0.218458
vn 0.010376 -0.296273 0.955047
v -0.012316 -0.029745 0.209833
vn -0.445252 -0.301979 -0.842947
v -0.014215 -0.026143 0.216960
vn -0.985300 -0.042050 -0.165577
v -0.020715 -0.015204 0.221554
vn 0.057268 -0.062306 0.996413
v -0.003817 -0.015190 0.205845
vn 0.716466 0.562844 -0.412168
v -0.008178 -0.021577 0.216293
vn -0.252740 0.611958 -0.749420
v -0.016236 -0.008622 0.220983
vn -0.524634 -0.849557 0.054877
v -0.013787 -0.030413 0.228084
vn -0.015740 0.876908 0.480401
v -0.017678 -0.010478 0.233563
vn -0.408391 -0.053574 0.911233
v -0.014888 -0.023235 0.239821
vn -0.226634 0.163487 -0.960161
v -0.015006 0.003988 0.010456
vn -0.392997 0.531278 -0.750531
v -0.019754 0.021221 0.017986
vn -0.751655 0.531728 -0.390232
v -0.025247 0.022058 0.023615
vn -0.046552 0.462286 -0.885508
v -0.004898 0.018011 0.014161
vn -0.087781 0.788135 -0.609210
v -0.007213 0.033380 0.026432
vn -0.979670 0.196686 -0.039508
v -0.031690 0.014196 0.036623
vn -0.917360 0.380592 0.116618
v -0.027295 0.018623 0.067240
vn -0.335516 0.903791 -0.265689
v -0.014439 0.037150 0.038091
vn -0.673441 0.722695 0.155532
v -0.018536 0.031313 0.069027
vn -0.044850 0.997431 -0.055853
v -0.003375 0.040249 0.047764
vn -0.716445 0.697621 0.005609
v -0.019109 0.034855 0.045654
vn -0.994606 0.046770 0.092581
v -0.029703 -0.001839 0.075326
vn -0.793672 0.562608 0.231424
v -0.019177 0.023751 0.096821
vn -0.283733 0.950220 0.128750
v -0.008647 0.038612 0.064684
vn -0.411217 0.865153 0.287073
v -0.009268 0.029763 0.101799
vn -0.980615 0.146523 0.130100
v -0.027617 0.002173 0.092438
vn -0.990186 0.059132 0.126628
v -0.024134 -0.008375 0.128729
vn -0.999028 0.025235 -0.036152
v -0.022658 -0.009809 0.159422
vn -0.136158 0.971767 0.192690
v -0.001712 0.011209 0.151766
vn -0.770057 0.622900 0.137868
v -0.016489 0.005641 0.142912
vn -0.904580 0.424792 -0.035888
v -0.019889 -0.000190 0.161153
vn -0.564731 0.825273 0.001957
v -0.015599 0.005398 0.174387
vn -0.903770 0.421716 0.073181
v -0.021400 -0.001843 0.182034
vn -0.669397 0.642322 0.373270
v -0.015714 0.004356 0.202883
vn -0.350060 0.936223 -0.030736
v -0.010292 0.008151 0.187454
vn -0.082338 0.921587 0.379339
v -0.002307 0.011201 0.202180
vn -0.296542 0.052075 0.953599
v -0.009275 -0.003039 0.209182
vn 0.152201 -0.694885 -0.702830
v 0.010822 -0.049360 0.023362
vn 0.552944 -0.719119 -0.420857
v 0.024800 -0.046726 0.025967
vn 0.157411 -0.401720 -0.902132
v 0.018849 -0.034612 0.013927
vn 0.527837 -0.428797 -0.733159
v 0.025255 -0.038157 0.017408
vn 0.299054 -0.899907 -0.317387
v 0.013667 -0.057942 0.037932
vn 0.690227 -0.723231 -0.022899
v 0.022904 -0.053949 0.050041
vn 0.108760 -0.993221 -0.041029
v 0.007957 -0.060597 0.047658
vn 0.516565 -0.841960 0.155768
v 0.020803 -0.053287 0.073528
vn 0.891749 -0.390606 -0.228498
v 0.031609 -0.037523 0.026201
vn 0.930477 -0.349642 0.109380
v 0.031301 -0.034656 0.077578
vn 0.998852 -0.047834 0.002689
v 0.037200 -0.019553 0.035784
vn 0.721913 -0.636730 0.270953
v 0.018972 -0.046182 0.104243
vn 0.141875 -0.942686 0.302019
v 0.007620 -0.050972 0.107438
vn 0.427556 -0.838977 0.336622
v 0.011475 -0.038969 0.130869
vn 0.960285 -0.212751 0.180527
v 0.028970 -0.018581 0.115082
vn 0.327146 -0.934781 0.138420
v 0.010389 -0.032427 0.155512
vn 0.305789 -0.948465 -0.083106
v 0.009388 -0.032732 0.180528
vn 0.682029 -0.730568 0.033268
v 0.018227 -0.026707 0.165670
vn 0.734633 -0.676759 0.048087
v 0.013650 -0.032319 0.194428
vn 0.930045 -0.356779 0.087892
v 0.022813 -0.017554 0.167708
vn 0.668199 -0.528013 0.524131
v 0.015582 -0.028357 0.201214
vn 0.990737 -0.104328 0.086928
v 0.022309 -0.010644 0.187643
vn 0.873593 0.076092 0.480672
v 0.021416 -0.006444 0.204440
vn 0.872218 -0.353015 0.338551
v 0.003312 -0.030521 0.230761
vn 0.061576 0.253934 -0.965259
v 0.007274 0.005180 0.009750
vn 0.318698 0.231604 -0.919125
v 0.020841 0.002395 0.011238
vn 0.732392 0.250151 -0.633267
v 0.030788 0.000901 0.017184
vn 0.216129 0.614267 -0.758923
v 0.013252 0.025559 0.019157
vn 0.670667 0.533646 -0.515196
v 0.023626 0.017307 0.019618
vn 0.612049 0.746547 -0.260888
v 0.017862 0.029967 0.028243
vn 0.931604 0.018802 -0.362988
v 0.036059 -0.009875 0.022112
vn 0.898466 0.416422 -0.139108
v 0.031214 0.013617 0.032996
vn 0.253795 0.934596 -0.249235
v 0.008300 0.037762 0.037273
vn 0.717237 0.691561 0.085527
v 0.021333 0.026628 0.073028
vn 0.992126 0.081323 0.095250
v 0.033318 -0.012746 0.083718
vn 0.954183 0.290796 0.070520
v 0.030437 0.009991 0.055396
vn 0.825392 0.563857 -0.028170
v 0.025534 0.023279 0.049070
vn 0.871347 0.463821 0.160074
v 0.025361 0.017889 0.087270
vn 0.263200 0.958216 0.112020
v 0.004853 0.039405 0.060985
vn 0.515131 0.808377 0.284899
v 0.008676 0.028869 0.102337
vn 0.931716 0.322731 0.166582
v 0.028440 -0.000615 0.112690
vn 0.943381 0.317940 0.094583
v 0.025648 -0.004328 0.139138
vn 0.845434 0.530118 0.064935
v 0.021933 0.000025 0.164691
vn 0.404948 0.911431 0.072868
v 0.012681 0.008528 0.160092
vn 0.860006 0.503048 0.085635
v 0.020942 0.001341 0.180459
vn 0.856870 0.503975 0.108549
v 0.020321 0.000135 0.187584
vn 0.447944 0.892150 0.058426
v 0.011680 0.008250 0.185610
vn 0.560886 0.750333 0.349868
v 0.012803 0.006255 0.202203
vn 0.164467 0.229007 0.959430
v 0.005695 -0.005810 0.217752
# 129 vertices, 0 vertices normals

f 2//2 20//20 19//19
f 21//21 25//25 23//23
f 27//27 24//24 21//21
f 23//23 26//26 22//22
f 23//23 22//22 21//21
f 1//1 22//22 26//26
f 21//21 22//22 19//19
f 21//21 19//19 20//20
f 1//1 19//19 22//22
f 25//25 21//21 24//24
f 23//23 7//7 26//26
f 2//2 28//28 20//20
f 28//28 2//2 87//87
f 27//27 20//20 28//28
f 28//28 87//87 29//29
f 27//27 28//28 30//30
f 30//30 28//28 29//29
f 20//20 27//27 21//21
f 27//27 30//30 31//31
f 24//24 27//27 32//32
f 24//24 32//32 59//59
f 33//33 31//31 30//30
f 33//33 30//30 3//3
f 30//30 29//29 3//3
f 31//31 32//32 27//27
f 32//32 31//31 33//33
f 33//33 34//34 32//32
f 65//65 32//32 69//69
f 33//33 3//3 35//35
f 34//34 33//33 35//35
f 35//35 3//3 4//4
f 36//36 34//34 35//35
f 70//70 34//34 36//36
f 35//35 4//4 37//37
f 37//37 4//4 12//12
f 38//38 70//70 36//36
f 71//71 70//70 38//38
f 36//36 35//35 37//37
f 12//12 39//39 37//37
f 40//40 13//13 71//71
f 71//71 38//38 40//40
f 38//38 36//36 37//37
f 38//38 37//37 39//39
f 39//39 12//12 14//14
f 39//39 40//40 38//38
f 39//39 14//14 41//41
f 41//41 42//42 39//39
f 41//41 45//45 42//42
f 41//41 14//14 43//43
f 42//42 13//13 40//40
f 40//40 39//39 42//42
f 41//41 43//43 45//45
f 46//46 44//44 51//51
f 44//44 46//46 49//49
f 104//104 51//51 44//44
f 47//47 46//46 51//51
f 43//43 48//48 45//45
f 43//43 15//15 48//48
f 42//42 45//45 80//80
f 45//45 48//48 80//80
f 48//48 15//15 80//80
f 50//50 49//49 46//46
f 46//46 47//47 50//50
f 49//49 50//50 52//52
f 51//51 104//104 53//53
f 51//51 53//53 47//47
f 52//52 47//47 53//53
f 49//49 52//52 53//53
f 54//54 23//23 25//25
f 55//55 54//54 25//25
f 55//55 25//25 56//56
f 7//7 23//23 54//54
f 54//54 105//105 7//7
f 55//55 57//57 54//54
f 57//57 105//105 54//54
f 55//55 58//58 57//57
f 59//59 25//25 24//24
f 59//59 56//56 25//25
f 65//65 59//59 32//32
f 59//59 65//65 60//60
f 61//61 55//55 56//56
f 64//64 56//56 59//59
f 61//61 56//56 64//64
f 58//58 55//55 61//61
f 61//61 113//113 58//58
f 61//61 63//63 113//113
f 60//60 64//64 59//59
f 64//64 67//67 61//61
f 64//64 60//60 62//62
f 61//61 67//67 63//63
f 60//60 65//65 69//69
f 60//60 66//66 62//62
f 67//67 64//64 62//62
f 62//62 68//68 67//67
f 67//67 119//119 63//63
f 68//68 62//62 66//66
f 8//8 119//119 67//67
f 8//8 67//67 68//68
f 34//34 69//69 32//32
f 70//70 69//69 34//34
f 66//66 60//60 69//69
f 66//66 69//69 70//70
f 9//9 68//68 66//66
f 73//73 66//66 70//70
f 71//71 73//73 70//70
f 73//73 9//9 66//66
f 17//17 8//8 9//9
f 8//8 68//68 9//9
f 72//72 17//17 9//9
f 72//72 9//9 73//73
f 73//73 71//71 74//74
f 74//74 71//71 13//13
f 75//75 73//73 74//74
f 72//72 73//73 75//75
f 18//18 72//72 75//75
f 76//76 74//74 13//13
f 75//75 74//74 76//76
f 76//76 77//77 75//75
f 78//78 75//75 77//77
f 18//18 75//75 78//78
f 76//76 13//13 42//42
f 77//77 76//76 42//42
f 79//79 77//77 80//80
f 79//79 78//78 77//77
f 79//79 18//18 78//78
f 77//77 42//42 80//80
f 80//80 129//129 79//79
f 50//50 47//47 52//52
f 81//81 2//2 19//19
f 26//26 83//83 1//1
f 1//1 83//83 81//81
f 81//81 19//19 1//1
f 84//84 81//81 83//83
f 82//82 81//81 84//84
f 82//82 84//84 89//89
f 84//84 111//111 89//89
f 89//89 111//111 91//91
f 5//5 83//83 26//26
f 5//5 26//26 7//7
f 5//5 84//84 83//83
f 84//84 5//5 111//111
f 81//81 85//85 2//2
f 82//82 85//85 81//81
f 87//87 2//2 85//85
f 85//85 82//82 86//86
f 87//87 85//85 86//86
f 88//88 87//87 86//86
f 88//88 86//86 90//90
f 89//89 86//86 82//82
f 90//90 86//86 89//89
f 89//89 91//91 90//90
f 93//93 29//29 88//88
f 88//88 29//29 87//87
f 92//92 93//93 88//88
f 91//91 115//115 90//90
f 88//88 90//90 92//92
f 3//3 29//29 93//93
f 93//93 92//92 94//94
f 6//6 92//92 95//95
f 95//95 92//92 90//90
f 90//90 115//115 95//95
f 121//121 95//95 115//115
f 4//4 3//3 93//93
f 94//94 92//92 6//6
f 4//4 93//93 94//94
f 4//4 94//94 96//96
f 10//10 95//95 121//121
f 6//6 95//95 10//10
f 100//100 6//6 10//10
f 96//96 94//94 6//6
f 96//96 6//6 98//98
f 98//98 6//6 100//100
f 16//16 100//100 10//10
f 96//96 12//12 4//4
f 12//12 96//96 97//97
f 97//97 96//96 98//98
f 97//97 14//14 12//12
f 99//99 97//97 98//98
f 99//99 98//98 100//100
f 99//99 100//100 102//102
f 100//100 16//16 102//102
f 99//99 14//14 97//97
f 99//99 101//101 14//14
f 101//101 43//43 14//14
f 102//102 101//101 99//99
f 101//101 102//102 103//103
f 101//101 15//15 43//43
f 101//101 103//103 15//15
f 15//15 103//103 129//129
f 15//15 129//129 80//80
f 49//49 104//104 44//44
f 104//104 49//49 53//53
f 106//106 5//5 7//7
f 106//106 7//7 105//105
f 5//5 106//106 107//107
f 107//107 106//106 109//109
f 107//107 111//111 5//5
f 57//57 108//108 105//105
f 106//106 105//105 108//108
f 57//57 58//58 108//108
f 108//108 110//110 109//109
f 106//106 108//108 109//109
f 112//112 107//107 109//109
f 116//116 91//91 111//111
f 112//112 111//111 107//107
f 112//112 109//109 117//117
f 110//110 117//117 109//109
f 116//116 111//111 112//112
f 115//115 91//91 116//116
f 116//116 112//112 117//117
f 113//113 110//110 108//108
f 113//113 108//108 58//58
f 119//119 113//113 63//63
f 119//119 114//114 113//113
f 117//117 110//110 114//114
f 113//113 114//114 110//110
f 116//116 118//118 115//115
f 114//114 116//116 117//117
f 118//118 116//116 114//114
f 115//115 118//118 121//121
f 120//120 118//118 114//114
f 120//120 114//114 119//119
f 8//8 120//120 119//119
f 121//121 118//118 120//120
f 121//121 120//120 11//11
f 122//122 121//121 11//11
f 10//10 121//121 122//122
f 122//122 11//11 123//123
f 120//120 8//8 17//17
f 17//17 11//11 120//120
f 16//16 10//10 122//122
f 72//72 11//11 17//17
f 123//123 11//11 124//124
f 72//72 124//124 11//11
f 125//125 123//123 124//124
f 123//123 16//16 122//122
f 124//124 72//72 18//18
f 125//125 124//124 127//127
f 126//126 125//125 127//127
f 16//16 123//123 125//125
f 102//102 16//16 125//125
f 102//102 125//125 126//126
f 18//18 127//127 124//124
f 126//126 127//127 128//128
f 103//103 126//126 128//128
f 126//126 103//103 102//102
f 79//79 128//128 127//127
f 127//127 18//18 79//79
f 128//128 79//79 129//129
f 129//129 103//103 128//128
# 250 faces, 0 coords texture

# End of File
