####
#
# OBJ File Generated by Meshlab
#
####
# Object chewy_dipps_chocolate_chip_250_collision.obj
#
# Vertices: 127
# Faces: 250
#
####
vn 0.068458 0.084560 0.994064
v 0.008506 0.001896 0.000914
vn 0.630313 0.776323 0.005281
v -0.004290 -0.007261 0.070281
vn -0.033565 -0.044372 0.998451
v 0.024032 0.001582 0.000846
vn -0.453279 -0.590304 0.667891
v 0.032595 0.015669 0.005202
vn -0.177341 0.984078 -0.011822
v 0.054077 -0.048216 0.067226
vn -0.182744 -0.258500 0.948569
v 0.013939 0.023943 0.002605
vn 0.584635 0.726820 -0.360464
v -0.026636 0.014056 0.138074
vn 0.580665 0.706167 0.405163
v 0.006544 -0.014488 0.008570
vn 0.345829 0.439702 0.828894
v -0.003399 -0.000753 0.002686
vn 0.286706 0.340797 0.895353
v 0.019331 -0.017447 0.002554
vn 0.568559 0.721781 0.394680
v -0.025139 0.010216 0.008761
vn 0.635513 0.771840 0.019624
v 0.001484 -0.011013 0.022315
vn 0.617705 0.786301 0.013095
v -0.022557 0.007813 0.030367
vn 0.636889 0.768122 -0.066041
v -0.000728 -0.009150 0.118156
vn 0.593483 0.722971 -0.353682
v 0.003229 -0.009616 0.137703
vn 0.388280 0.353252 0.851147
v -0.047571 0.033725 0.002764
vn 0.114277 -0.038219 0.992714
v -0.039291 0.045160 0.000628
vn 0.618853 -0.206319 0.757927
v -0.054547 0.046439 0.004180
vn 0.633379 0.745449 0.207696
v -0.047810 0.027890 0.008997
vn 0.882639 0.469819 -0.014777
v -0.057438 0.036762 0.039373
vn 0.910261 0.256831 0.324750
v -0.058397 0.037760 0.009437
vn 0.892619 -0.422156 0.158163
v -0.057803 0.049135 0.013876
vn 0.268189 0.336724 0.902603
v -0.016303 0.010221 0.002568
vn 0.049759 0.062821 0.996784
v -0.021697 0.026300 0.000865
vn -0.098133 -0.122840 0.987563
v -0.006090 0.030343 0.000972
vn -0.616930 -0.757487 0.213567
v 0.011423 0.035992 0.012069
vn -0.627102 -0.777644 0.044857
v 0.012101 0.035756 0.023767
vn 0.501522 -0.820264 0.275032
v -0.043328 0.066953 0.009343
vn 0.058020 -0.996991 0.051413
v -0.036861 0.069663 0.030049
vn -0.141892 -0.222482 0.964556
v -0.025160 0.051249 0.000984
vn 0.171796 -0.484461 0.857779
v -0.039870 0.064900 0.003813
vn -0.281458 -0.851774 0.441886
v -0.028962 0.068251 0.008505
vn -0.483315 -0.874231 0.046121
v -0.026263 0.068164 0.031901
vn 0.795058 0.606189 -0.020411
v -0.054659 0.034716 0.069044
vn 0.947926 -0.318371 0.008776
v -0.057733 0.048862 0.041895
vn 0.998978 -0.044975 -0.004559
v -0.058773 0.047311 0.073789
vn 0.637833 0.770160 -0.004700
v -0.032108 0.015007 0.049885
vn 0.587998 -0.808343 0.028992
v -0.043155 0.067371 0.042610
vn 0.615331 -0.787997 0.020709
v -0.043614 0.069213 0.067902
vn 0.015491 -0.998938 0.043394
v -0.033797 0.071966 0.063173
vn -0.390691 -0.919181 0.049671
v -0.027135 0.069653 0.053895
vn 0.823930 0.566602 -0.010102
v -0.054644 0.034913 0.095426
vn 0.909815 -0.415011 0.001574
v -0.056767 0.051445 0.106732
vn 0.972399 0.231176 -0.031573
v -0.057867 0.041656 0.121845
vn 0.637706 0.769848 -0.025792
v -0.031741 0.015805 0.105155
vn 0.604697 -0.796455 0.001412
v -0.041387 0.069971 0.105297
vn -0.481608 -0.875417 0.041205
v -0.022565 0.068573 0.090483
vn -0.474905 -0.879911 0.014902
v -0.024783 0.071259 0.112327
vn 0.020455 -0.999449 0.026147
v -0.033094 0.072798 0.098786
vn 0.696216 0.641249 -0.322618
v -0.051614 0.033647 0.139060
vn 0.551397 0.322921 -0.769210
v -0.045596 0.037464 0.148579
vn 0.955433 0.033598 -0.293290
v -0.058144 0.047075 0.137070
vn 0.818704 -0.555091 -0.146964
v -0.055513 0.054294 0.135851
vn 0.163844 -0.122789 -0.978815
v -0.045230 0.046564 0.149560
vn 0.694006 -0.317099 -0.646378
v -0.054551 0.050699 0.143038
vn 0.423359 0.526353 -0.737373
v -0.005472 0.000517 0.142779
vn -0.288632 -0.377728 -0.879780
v -0.017854 0.057505 0.143690
vn -0.279607 -0.362436 -0.889078
v 0.000046 0.040218 0.146263
vn 0.077662 0.105499 -0.991382
v -0.007402 0.017240 0.148036
vn 0.167942 0.271226 -0.947751
v -0.031131 0.031486 0.149160
vn 0.449084 -0.851884 -0.269474
v -0.038316 0.072170 0.135326
vn 0.041382 -0.599434 -0.799354
v -0.033680 0.068075 0.143793
vn -0.191776 -0.942949 -0.272156
v -0.029473 0.072764 0.137379
vn -0.541853 -0.739829 -0.398808
v -0.018406 0.065600 0.138057
vn 0.160848 0.223932 0.961240
v 0.037800 -0.029046 0.001036
vn 0.007313 0.518580 0.854998
v 0.051074 -0.041763 0.002636
vn -0.195748 0.965240 0.173190
v 0.053956 -0.048207 0.013111
vn 0.423784 0.905489 -0.022290
v 0.046255 -0.047499 0.028357
vn 0.395663 0.880804 0.260067
v 0.043797 -0.047126 0.013841
vn -0.596372 0.626446 0.501902
v 0.060232 -0.041220 0.005914
vn -0.691072 0.717116 0.090352
v 0.059689 -0.044835 0.016587
vn -0.776478 0.629818 0.020274
v 0.064674 -0.039164 0.028168
vn 0.480353 0.635790 0.604179
v 0.034152 -0.036737 0.006407
vn 0.051046 0.046990 0.997590
v 0.024761 -0.011620 0.000880
vn -0.078939 -0.038774 0.996125
v 0.049620 -0.013400 0.000544
vn -0.298791 -0.350815 0.887498
v 0.056545 -0.005305 0.003229
vn -0.107296 -0.153519 0.982303
v 0.036589 -0.000011 0.001110
vn 0.639724 0.766137 0.061538
v 0.026838 -0.033094 0.015159
vn -0.539224 -0.111302 0.834775
v 0.071152 -0.020093 0.003390
vn -0.933180 0.193544 0.302846
v 0.074812 -0.023488 0.008425
vn -0.617067 -0.647564 0.447090
v 0.066462 -0.008418 0.007479
vn -0.840435 0.536578 0.075844
v 0.072791 -0.028899 0.016115
vn -0.844538 -0.515129 0.146277
v 0.073685 -0.014237 0.014120
vn -0.620215 -0.777517 0.103925
v 0.046834 0.008040 0.014084
vn -0.659071 -0.751170 0.037000
v 0.066617 -0.006941 0.037376
vn 0.375246 0.926875 -0.009632
v 0.045969 -0.047258 0.060075
vn -0.676555 0.736337 0.008991
v 0.062331 -0.043054 0.055502
vn 0.626741 0.779227 0.000063
v 0.022727 -0.029153 0.047546
vn -0.997134 0.071706 0.024142
v 0.075619 -0.021513 0.039642
vn -0.886403 0.461986 0.029303
v 0.073288 -0.029304 0.058293
vn -0.860290 -0.508939 0.029717
v 0.074615 -0.014121 0.057901
vn -0.882824 0.469296 0.019586
v 0.075916 -0.027042 0.084981
vn -0.683158 -0.729481 0.033949
v 0.068777 -0.007192 0.070793
vn 0.423599 0.905746 -0.013741
v 0.045299 -0.046010 0.092877
vn -0.042940 0.999076 -0.002005
v 0.052338 -0.047708 0.108240
vn -0.649482 0.760377 0.000711
v 0.062226 -0.043039 0.102144
vn -0.540327 0.828395 -0.147676
v 0.059733 -0.045731 0.131767
vn 0.623091 0.782078 -0.010534
v 0.017940 -0.025670 0.087321
vn 0.634013 0.768534 -0.085922
v 0.023003 -0.028911 0.122535
vn -0.859191 -0.487179 -0.156359
v 0.075174 -0.011579 0.134510
vn -0.996379 -0.080816 0.026399
v 0.077150 -0.019350 0.080577
vn -0.960191 0.278111 -0.026235
v 0.076723 -0.024991 0.118468
vn -0.743313 -0.668502 0.024307
v 0.072808 -0.009802 0.099870
vn 0.490714 0.852827 -0.178567
v 0.042332 -0.044180 0.131884
vn 0.481239 0.556459 -0.677319
v 0.033811 -0.032875 0.143763
vn 0.176509 0.615644 -0.768002
v 0.050148 -0.041602 0.145958
vn -0.065305 0.943731 -0.324201
v 0.052290 -0.047623 0.137255
vn 0.363378 0.464323 -0.807688
v 0.015499 -0.013193 0.144479
vn -0.205103 -0.253141 -0.945438
v 0.027829 0.015577 0.146767
vn 0.105953 0.113515 -0.987871
v 0.028953 -0.008632 0.148430
vn 0.185746 0.220384 -0.957564
v 0.006076 -0.000415 0.147589
vn -0.176186 -0.193902 -0.965070
v 0.049070 -0.007772 0.148081
vn -0.802446 0.563168 -0.197286
v 0.072752 -0.030455 0.136602
vn -0.892245 0.112602 -0.437287
v 0.075751 -0.020662 0.140750
vn -0.474453 0.457985 -0.751761
v 0.062978 -0.036060 0.145131
vn 0.018531 0.115182 -0.993172
v 0.044616 -0.028722 0.148089
vn -0.473436 -0.253122 -0.843675
v 0.071243 -0.013608 0.144316
vn -0.394944 -0.500741 0.770245
v 0.003833 0.038673 0.006004
vn -0.626062 -0.778318 0.047616
v 0.045254 0.009783 0.026732
vn -0.637912 -0.769143 0.038554
v 0.036259 0.019459 0.062043
vn -0.626182 -0.778167 0.048503
v 0.008741 0.042136 0.061362
vn -0.632645 -0.774379 0.009841
v 0.003689 0.047935 0.101901
vn -0.635831 -0.771722 0.012796
v 0.033921 0.023521 0.104165
vn -0.641209 -0.761951 -0.091004
v 0.063944 -0.001336 0.129323
vn -0.516123 -0.641036 -0.568058
v 0.057736 0.000470 0.140162
vn -0.577813 -0.695360 -0.427324
v 0.002490 0.049189 0.136275
vn -0.595293 -0.717796 -0.361103
v 0.022002 0.031867 0.138173
# 127 vertices, 0 vertices normals

f 11//11 8//8 9//9
f 23//23 11//11 9//9
f 9//9 10//10 1//1
f 8//8 10//10 9//9
f 1//1 23//23 9//9
f 24//24 23//23 1//1
f 12//12 11//11 13//13
f 12//12 8//8 11//11
f 2//2 12//12 13//13
f 88//88 12//12 2//2
f 2//2 13//13 37//37
f 98//98 45//45 14//14
f 98//98 2//2 45//45
f 7//7 15//15 14//14
f 15//15 99//99 14//14
f 108//108 56//56 111//111
f 15//15 7//7 56//56
f 111//111 56//56 59//59
f 18//18 16//16 17//17
f 19//19 16//16 21//21
f 18//18 21//21 16//16
f 21//21 18//18 22//22
f 28//28 22//22 18//18
f 31//31 28//28 18//18
f 18//18 17//17 31//31
f 20//20 19//19 21//21
f 22//22 35//35 21//21
f 20//20 21//21 35//35
f 11//11 16//16 19//19
f 24//24 16//16 23//23
f 16//16 11//11 23//23
f 24//24 17//17 16//16
f 24//24 1//1 25//25
f 30//30 17//17 24//24
f 24//24 25//25 30//30
f 30//30 31//31 17//17
f 118//118 32//32 30//30
f 30//30 25//25 118//118
f 118//118 25//25 6//6
f 13//13 11//11 19//19
f 27//27 33//33 26//26
f 32//32 26//26 33//33
f 38//38 22//22 28//28
f 35//35 22//22 38//38
f 32//32 31//31 30//30
f 28//28 31//31 32//32
f 32//32 118//118 26//26
f 28//28 32//32 29//29
f 29//29 32//32 33//33
f 20//20 37//37 19//19
f 20//20 35//35 36//36
f 34//34 37//37 20//20
f 36//36 35//35 39//39
f 34//34 20//20 36//36
f 13//13 19//19 37//37
f 121//121 41//41 33//33
f 33//33 27//27 121//121
f 45//45 2//2 37//37
f 45//45 37//37 34//34
f 38//38 28//28 29//29
f 35//35 38//38 39//39
f 40//40 39//39 38//38
f 29//29 33//33 41//41
f 40//40 38//38 29//29
f 40//40 29//29 41//41
f 121//121 47//47 41//41
f 39//39 40//40 49//49
f 47//47 40//40 41//41
f 42//42 45//45 34//34
f 36//36 42//42 34//34
f 44//44 42//42 36//36
f 43//43 44//44 36//36
f 43//43 36//36 39//39
f 45//45 42//42 50//50
f 44//44 43//43 52//52
f 44//44 50//50 42//42
f 122//122 121//121 123//123
f 121//121 122//122 47//47
f 46//46 39//39 49//49
f 43//43 39//39 46//46
f 53//53 43//43 46//46
f 49//49 40//40 47//47
f 47//47 122//122 48//48
f 49//49 47//47 48//48
f 48//48 122//122 64//64
f 46//46 49//49 61//61
f 61//61 49//49 63//63
f 48//48 63//63 49//49
f 64//64 122//122 126//126
f 50//50 7//7 45//45
f 52//52 50//50 44//44
f 53//53 52//52 43//43
f 51//51 50//50 52//52
f 55//55 51//51 52//52
f 53//53 55//55 52//52
f 54//54 51//51 55//55
f 14//14 45//45 7//7
f 60//60 7//7 50//50
f 56//56 7//7 60//60
f 50//50 51//51 60//60
f 59//59 56//56 60//60
f 58//58 60//60 57//57
f 57//57 60//60 54//54
f 126//126 58//58 57//57
f 60//60 51//51 54//54
f 58//58 59//59 60//60
f 53//53 46//46 61//61
f 55//55 53//53 61//61
f 54//54 55//55 62//62
f 61//61 62//62 55//55
f 63//63 48//48 64//64
f 57//57 54//54 62//62
f 57//57 64//64 126//126
f 62//62 63//63 64//64
f 57//57 62//62 64//64
f 63//63 62//62 61//61
f 65//65 73//73 66//66
f 69//69 66//66 73//73
f 66//66 69//69 67//67
f 68//68 67//67 69//69
f 78//78 69//69 73//73
f 68//68 69//69 78//78
f 79//79 66//66 70//70
f 70//70 66//66 67//67
f 67//67 71//71 70//70
f 82//82 71//71 72//72
f 67//67 87//87 71//71
f 72//72 71//71 87//87
f 73//73 10//10 8//8
f 10//10 73//73 65//65
f 65//65 66//66 75//75
f 74//74 10//10 65//65
f 75//75 74//74 65//65
f 74//74 1//1 10//10
f 77//77 3//3 74//74
f 1//1 74//74 3//3
f 1//1 3//3 25//25
f 77//77 74//74 75//75
f 77//77 75//75 76//76
f 4//4 6//6 77//77
f 4//4 77//77 76//76
f 4//4 76//76 81//81
f 78//78 8//8 12//12
f 78//78 73//73 8//8
f 88//88 68//68 78//78
f 88//88 78//78 12//12
f 4//4 81//81 84//84
f 79//79 75//75 66//66
f 80//80 79//79 70//70
f 75//75 79//79 76//76
f 81//81 76//76 79//79
f 82//82 70//70 71//71
f 82//82 80//80 70//70
f 80//80 83//83 79//79
f 79//79 83//83 81//81
f 80//80 89//89 83//83
f 82//82 89//89 80//80
f 89//89 91//91 83//83
f 119//119 84//84 85//85
f 84//84 81//81 83//83
f 83//83 85//85 84//84
f 85//85 83//83 91//91
f 67//67 68//68 86//86
f 88//88 86//86 68//68
f 5//5 67//67 86//86
f 87//87 67//67 5//5
f 92//92 90//90 87//87
f 5//5 96//96 87//87
f 120//120 119//119 85//85
f 98//98 86//86 88//88
f 98//98 88//88 2//2
f 93//93 120//120 85//85
f 90//90 82//82 72//72
f 89//89 82//82 90//90
f 87//87 90//90 72//72
f 85//85 91//91 93//93
f 90//90 101//101 89//89
f 101//101 90//90 92//92
f 91//91 89//89 101//101
f 5//5 86//86 94//94
f 94//94 86//86 98//98
f 95//95 5//5 94//94
f 94//94 99//99 104//104
f 95//95 94//94 104//104
f 96//96 92//92 87//87
f 96//96 5//5 95//95
f 97//97 96//96 95//95
f 113//113 96//96 97//97
f 94//94 98//98 99//99
f 99//99 98//98 14//14
f 103//103 91//91 101//101
f 103//103 101//101 100//100
f 102//102 92//92 96//96
f 101//101 92//92 102//102
f 103//103 93//93 91//91
f 103//103 120//120 93//93
f 100//100 101//101 102//102
f 123//123 103//103 124//124
f 124//124 103//103 100//100
f 107//107 95//95 104//104
f 104//104 99//99 105//105
f 104//104 106//106 107//107
f 106//106 104//104 105//105
f 97//97 95//95 107//107
f 107//107 106//106 115//115
f 115//115 97//97 107//107
f 113//113 97//97 115//115
f 105//105 99//99 15//15
f 108//108 105//105 15//15
f 108//108 15//15 56//56
f 110//110 108//108 111//111
f 109//109 125//125 112//112
f 108//108 110//110 105//105
f 105//105 116//116 106//106
f 110//110 116//116 105//105
f 111//111 109//109 110//110
f 109//109 111//111 59//59
f 112//112 116//116 110//110
f 112//112 110//110 109//109
f 102//102 96//96 113//113
f 113//113 114//114 102//102
f 114//114 113//113 115//115
f 100//100 114//114 117//117
f 114//114 115//115 117//117
f 100//100 102//102 114//114
f 100//100 125//125 124//124
f 112//112 125//125 117//117
f 117//117 125//125 100//100
f 116//116 115//115 106//106
f 115//115 116//116 117//117
f 117//117 116//116 112//112
f 25//25 3//3 6//6
f 3//3 77//77 6//6
f 4//4 118//118 6//6
f 118//118 4//4 26//26
f 26//26 4//4 84//84
f 27//27 26//26 84//84
f 119//119 27//27 84//84
f 121//121 27//27 119//119
f 121//121 119//119 120//120
f 123//123 121//121 120//120
f 103//103 123//123 120//120
f 127//127 122//122 123//123
f 124//124 127//127 123//123
f 126//126 127//127 58//58
f 58//58 127//127 109//109
f 125//125 127//127 124//124
f 125//125 109//109 127//127
f 122//122 127//127 126//126
f 59//59 58//58 109//109
# 250 faces, 0 coords texture

# End of File
