####
#
# OBJ File Generated by Meshlab
#
####
# Object quaker_chewy_dipps_peanut_butter_chocolate_250_collision.obj
#
# Vertices: 127
# Faces: 250
#
####
vn -0.301558 0.953057 0.027286
v -0.006262 -0.065142 0.067863
vn 0.890899 -0.454114 -0.008935
v -0.021948 -0.004293 0.090176
vn -0.893706 0.446819 -0.040534
v 0.044688 0.019644 0.117785
vn -0.221260 0.136065 -0.965676
v 0.016172 -0.002682 0.147950
vn 0.982754 0.030471 0.182388
v -0.039938 -0.040261 0.013134
vn 0.270141 0.836335 0.477041
v -0.020503 -0.059761 0.009122
vn 0.363870 0.428589 0.826989
v -0.026350 -0.051362 0.002674
vn 0.738412 0.016008 0.674159
v -0.035984 -0.042010 0.005454
vn 0.442317 -0.125847 0.887985
v -0.029161 -0.035564 0.001930
vn 0.057464 0.283387 0.957282
v -0.019792 -0.050655 0.001443
vn -0.272817 0.626491 0.730124
v -0.004458 -0.057584 0.005039
vn -0.145609 0.117441 0.982347
v -0.003977 -0.040045 0.000886
vn 0.696373 0.657357 0.288005
v -0.034974 -0.052803 0.011940
vn -0.081905 0.984022 0.158092
v -0.010612 -0.064615 0.016733
vn -0.836355 0.546666 0.040836
v 0.002300 -0.056496 0.030814
vn -0.549834 0.834782 0.028670
v -0.000690 -0.060515 0.039890
vn 0.854557 -0.426871 0.295826
v -0.028192 -0.017835 0.012517
vn 0.135653 -0.062955 0.988754
v -0.014015 -0.022517 0.000681
vn 0.594552 -0.282001 0.752983
v -0.025240 -0.021175 0.003906
vn -0.253645 0.105636 0.961512
v 0.011455 -0.010296 0.001473
vn -0.025340 0.002150 0.999677
v -0.001241 -0.012067 0.000208
vn 0.628592 -0.318046 0.709732
v -0.013830 0.000342 0.003581
vn 0.119230 -0.062199 0.990917
v 0.003051 0.015481 0.001231
vn 0.989142 -0.146621 -0.010055
v -0.039354 -0.041141 0.029394
vn 0.993226 0.115765 0.010010
v -0.039767 -0.043421 0.052892
vn 0.820712 0.571340 0.001430
v -0.035829 -0.051655 0.027902
vn -0.105621 0.993790 0.035003
v -0.007237 -0.064293 0.049202
vn 0.385188 0.922701 0.015882
v -0.016839 -0.062520 0.034245
vn 0.665256 0.746244 0.023533
v -0.034143 -0.053145 0.045346
vn 0.283244 0.958526 0.031627
v -0.014312 -0.064790 0.069911
vn 0.778112 0.627896 0.016977
v -0.037195 -0.052173 0.073603
vn -0.692130 0.721477 0.020674
v 0.001474 -0.060784 0.062999
vn 0.899872 -0.436043 0.009842
v -0.025182 -0.011174 0.042711
vn 0.971973 -0.235088 0.001465
v -0.039030 -0.038617 0.085636
vn 0.972732 0.231285 0.017329
v -0.040327 -0.046163 0.107741
vn 0.995852 -0.002024 -0.090971
v -0.040858 -0.044394 0.132790
vn -0.732487 0.680530 -0.018496
v -0.000302 -0.061312 0.084475
vn 0.201622 0.979428 0.008298
v -0.012804 -0.065927 0.100851
vn -0.477762 0.878082 -0.026734
v -0.002954 -0.064054 0.117059
vn 0.568409 0.822534 0.018718
v -0.029117 -0.057403 0.104636
vn -0.718232 0.587728 -0.372450
v -0.000119 -0.059278 0.138226
vn 0.903738 -0.425774 -0.044431
v -0.034481 -0.030742 0.122980
vn 0.228988 0.972585 -0.040536
v -0.014839 -0.065383 0.131456
vn -0.001193 0.905479 -0.424390
v -0.011005 -0.065050 0.140471
vn 0.654025 0.720083 -0.231801
v -0.035278 -0.054957 0.134856
vn 0.852711 -0.120079 -0.508395
v -0.038731 -0.043634 0.142976
vn 0.433686 0.429198 -0.792279
v -0.032201 -0.049193 0.147485
vn 0.185441 0.010143 -0.982603
v -0.027006 -0.034885 0.149517
vn -0.229927 0.396433 -0.888805
v -0.007928 -0.057936 0.146482
vn 0.230516 0.563496 -0.793306
v -0.021011 -0.056778 0.143785
vn 0.407578 -0.239708 -0.881147
v -0.020286 -0.020535 0.148501
vn -0.249000 0.134354 -0.959139
v 0.000589 -0.034837 0.146951
vn -0.578664 0.309371 -0.754611
v 0.011667 -0.029646 0.142229
vn 0.011302 -0.003580 -0.999930
v -0.015698 -0.021601 0.149546
vn 0.800924 -0.428910 -0.417801
v -0.025502 -0.014911 0.141058
vn 0.292463 -0.168908 -0.941241
v -0.005648 0.001538 0.149505
vn 0.012067 -0.024548 -0.999626
v -0.002114 -0.006559 0.149797
vn 0.856615 -0.428727 0.287059
v -0.003463 0.028639 0.009813
vn 0.502013 -0.248802 0.828300
v -0.003117 0.020614 0.003593
vn 0.883226 -0.449122 0.134909
v -0.009600 0.018059 0.015181
vn 0.885033 -0.464072 0.036788
v 0.001621 0.040657 0.025556
vn 0.886999 -0.461692 0.008526
v -0.005395 0.028443 0.045236
vn 0.881139 -0.472653 -0.013914
v -0.003920 0.029987 0.077960
vn 0.878738 -0.476937 -0.018717
v 0.002126 0.040700 0.104366
vn 0.883531 -0.465920 -0.047879
v -0.009441 0.018949 0.122449
vn 0.767270 -0.414809 -0.489112
v -0.008808 0.016210 0.139388
vn 0.412267 -0.231960 -0.881040
v 0.008667 0.030488 0.148409
vn -0.718226 0.677548 0.158367
v -0.000358 -0.061170 0.018341
vn -0.586243 0.264103 0.765878
v 0.020182 -0.008094 0.004486
vn -0.650732 0.341191 0.678334
v 0.007723 -0.039232 0.004990
vn -0.871701 0.440105 0.215508
v 0.019183 -0.023106 0.017618
vn -0.869640 0.492324 0.036667
v 0.016128 -0.037448 0.063778
vn -0.875795 0.446096 0.184339
v 0.032460 0.003235 0.018512
vn -0.864605 0.500893 -0.039549
v 0.022963 -0.026386 0.098892
vn -0.806825 0.446782 -0.386547
v 0.020738 -0.021474 0.136335
vn -0.871672 0.466036 -0.151650
v 0.031236 -0.005033 0.132598
vn -0.190444 0.093932 0.977194
v 0.022342 0.017303 0.001561
vn -0.671864 0.373227 0.639765
v 0.031709 0.010781 0.006108
vn -0.079450 0.035913 0.996192
v 0.028948 0.037567 0.001016
vn 0.148997 -0.100588 0.983708
v 0.016896 0.048176 0.001255
vn 0.605366 -0.320783 0.728443
v 0.009793 0.047740 0.003724
vn -0.632185 0.343885 0.694323
v 0.040584 0.027671 0.004206
vn -0.922223 0.207401 0.326328
v 0.058670 0.056257 0.011446
vn 0.344128 -0.450899 0.823569
v 0.023571 0.069445 0.003234
vn -0.022080 -0.385580 0.922410
v 0.030649 0.070774 0.002463
vn -0.431565 -0.038385 0.901265
v 0.051728 0.058265 0.002623
vn -0.525372 -0.703235 0.479004
v 0.052555 0.066255 0.005302
vn 0.724123 -0.636831 0.264749
v 0.019373 0.074102 0.010435
vn 0.023339 -0.906383 0.421811
v 0.031477 0.079247 0.010553
vn 0.298248 -0.953872 0.034293
v 0.024277 0.078917 0.021160
vn 0.885442 -0.464153 0.023564
v 0.013488 0.063717 0.026729
vn -0.630290 -0.775047 0.045141
v 0.054757 0.067572 0.022356
vn -0.217005 -0.976141 0.007527
v 0.032376 0.078490 0.033735
vn -0.887251 0.445067 0.121245
v 0.046994 0.030643 0.023355
vn -0.899430 0.435187 0.040481
v 0.038447 0.006408 0.070496
vn -0.995739 0.085828 0.033728
v 0.060571 0.054800 0.067937
vn 0.847768 -0.530242 -0.011570
v 0.016745 0.069618 0.048810
vn 0.466782 -0.883761 -0.032867
v 0.023770 0.077974 0.039191
vn -0.175571 -0.984448 0.006112
v 0.033849 0.078475 0.069107
vn 0.366971 -0.930120 -0.014455
v 0.026660 0.077802 0.065503
vn -0.721580 -0.692236 0.011433
v 0.056083 0.068431 0.080072
vn -0.885432 -0.372079 0.278509
v 0.058051 0.063543 0.012603
vn -0.999753 -0.004968 0.021662
v 0.060095 0.055749 0.048171
vn -0.931613 0.363405 0.005741
v 0.057183 0.044198 0.092660
vn 0.845670 -0.452070 -0.283682
v 0.004543 0.042618 0.138775
vn -0.984183 -0.177027 -0.006753
v 0.061183 0.059920 0.100590
vn -0.925253 0.350376 -0.145410
v 0.058848 0.048531 0.134981
vn 0.791325 -0.611167 -0.016706
v 0.017173 0.069235 0.071553
vn -0.046526 -0.998885 0.008046
v 0.033237 0.078798 0.096506
vn 0.546093 -0.837676 -0.009022
v 0.023360 0.076207 0.099793
vn 0.835512 -0.548988 -0.023081
v 0.017359 0.069127 0.104886
vn -0.092747 -0.995279 -0.028581
v 0.032516 0.079402 0.119753
vn -0.688638 -0.724897 -0.017381
v 0.057102 0.066574 0.100058
vn -0.085824 0.062055 -0.994376
v 0.016781 0.015306 0.150538
vn -0.303293 0.143807 -0.941984
v 0.029326 0.020924 0.148955
vn -0.602517 0.346348 -0.719039
v 0.043711 0.025920 0.142156
vn -0.254684 0.144466 -0.956172
v 0.040985 0.036343 0.146736
vn -0.828606 0.452400 -0.329767
v 0.041388 0.016560 0.136667
vn -0.540387 0.321182 -0.777705
v 0.028168 0.003409 0.144750
vn -0.664630 0.338937 -0.665875
v 0.051234 0.040308 0.143315
vn -0.048404 -0.026409 -0.998479
v 0.024493 0.039731 0.149516
vn 0.650005 -0.656767 -0.382298
v 0.020565 0.071690 0.139792
vn -0.369862 -0.237136 -0.898315
v 0.047665 0.060741 0.149857
vn -0.887083 -0.044298 -0.459480
v 0.059418 0.057711 0.141878
vn -0.043462 -0.851397 -0.522717
v 0.032496 0.078166 0.140560
vn 0.129013 -0.261601 -0.956515
v 0.032165 0.067763 0.148756
vn -0.667092 -0.698481 -0.259060
v 0.056273 0.067163 0.137730
# 127 vertices, 0 vertices normals

f 26//26 5//5 24//24
f 7//7 6//6 10//10
f 11//11 10//10 6//6
f 13//13 7//7 8//8
f 8//8 7//7 9//9
f 10//10 11//11 12//12
f 12//12 11//11 70//70
f 13//13 6//6 7//7
f 26//26 28//28 13//13
f 28//28 6//6 13//13
f 28//28 14//14 6//6
f 13//13 8//8 5//5
f 13//13 5//5 26//26
f 6//6 14//14 11//11
f 11//11 14//14 68//68
f 70//70 11//11 68//68
f 16//16 68//68 14//14
f 15//15 68//68 16//16
f 71//71 68//68 15//15
f 17//17 8//8 9//9
f 9//9 19//19 17//17
f 9//9 7//7 10//10
f 9//9 10//10 18//18
f 18//18 19//19 9//9
f 12//12 18//18 10//10
f 20//20 12//12 70//70
f 18//18 12//12 21//21
f 20//20 21//21 12//12
f 19//19 18//18 22//22
f 21//21 23//23 18//18
f 18//18 23//23 22//22
f 22//22 23//23 59//59
f 21//21 20//20 77//77
f 17//17 5//5 8//8
f 5//5 17//17 24//24
f 19//19 22//22 17//17
f 17//17 22//22 60//60
f 22//22 58//58 60//60
f 24//24 17//17 33//33
f 17//17 60//60 33//33
f 26//26 24//24 25//25
f 26//26 29//29 28//28
f 29//29 26//26 25//25
f 25//25 31//31 29//29
f 27//27 14//14 28//28
f 27//27 16//16 14//14
f 16//16 32//32 15//15
f 27//27 28//28 30//30
f 30//30 1//1 27//27
f 30//30 29//29 31//31
f 28//28 29//29 30//30
f 16//16 27//27 1//1
f 1//1 32//32 16//16
f 72//72 15//15 32//32
f 37//37 32//32 1//1
f 32//32 37//37 72//72
f 25//25 24//24 33//33
f 25//25 33//33 34//34
f 34//34 33//33 2//2
f 31//31 25//25 34//34
f 31//31 34//34 35//35
f 38//38 1//1 30//30
f 39//39 37//37 1//1
f 39//39 1//1 38//38
f 30//30 31//31 38//38
f 40//40 38//38 31//31
f 74//74 37//37 39//39
f 39//39 38//38 43//43
f 40//40 31//31 35//35
f 45//45 40//40 35//35
f 45//45 43//43 40//40
f 38//38 40//40 43//43
f 45//45 35//35 36//36
f 41//41 74//74 39//39
f 42//42 35//35 34//34
f 2//2 42//42 34//34
f 42//42 2//2 65//65
f 42//42 65//65 55//55
f 35//35 42//42 36//36
f 43//43 44//44 39//39
f 44//44 43//43 45//45
f 45//45 36//36 46//46
f 46//46 47//47 45//45
f 44//44 45//45 50//50
f 50//50 45//45 47//47
f 50//50 49//49 44//44
f 46//46 48//48 47//47
f 50//50 48//48 49//49
f 48//48 50//50 47//47
f 41//41 39//39 44//44
f 44//44 49//49 41//41
f 49//49 53//53 41//41
f 46//46 36//36 42//42
f 46//46 42//42 55//55
f 51//51 48//48 46//46
f 54//54 48//48 51//51
f 52//52 49//49 48//48
f 51//51 46//46 55//55
f 52//52 48//48 54//54
f 52//52 53//53 49//49
f 54//54 4//4 52//52
f 4//4 53//53 52//52
f 54//54 57//57 4//4
f 55//55 65//65 66//66
f 57//57 54//54 51//51
f 51//51 55//55 56//56
f 56//56 57//57 51//51
f 55//55 66//66 56//56
f 4//4 57//57 56//56
f 67//67 114//114 56//56
f 114//114 4//4 56//56
f 58//58 22//22 59//59
f 77//77 23//23 21//21
f 59//59 80//80 81//81
f 58//58 59//59 81//81
f 59//59 23//23 80//80
f 60//60 58//58 61//61
f 61//61 58//58 91//91
f 91//91 58//58 88//88
f 62//62 33//33 60//60
f 33//33 62//62 2//2
f 60//60 61//61 62//62
f 62//62 61//61 97//97
f 97//97 61//61 91//91
f 2//2 62//62 63//63
f 62//62 97//97 63//63
f 63//63 97//97 108//108
f 64//64 63//63 108//108
f 2//2 63//63 65//65
f 64//64 65//65 63//63
f 64//64 105//105 65//65
f 56//56 66//66 67//67
f 105//105 67//67 66//66
f 105//105 66//66 65//65
f 69//69 20//20 70//70
f 69//69 77//77 20//20
f 71//71 69//69 70//70
f 68//68 71//71 70//70
f 71//71 78//78 69//69
f 73//73 78//78 71//71
f 15//15 72//72 71//71
f 37//37 74//74 72//72
f 71//71 72//72 73//73
f 72//72 95//95 73//73
f 74//74 95//95 72//72
f 76//76 74//74 75//75
f 3//3 95//95 74//74
f 3//3 74//74 76//76
f 75//75 74//74 41//41
f 53//53 75//75 41//41
f 118//118 76//76 75//75
f 119//119 53//53 4//4
f 53//53 119//119 75//75
f 118//118 75//75 119//119
f 69//69 78//78 77//77
f 78//78 82//82 77//77
f 79//79 23//23 77//77
f 79//79 80//80 23//23
f 77//77 82//82 79//79
f 80//80 84//84 81//81
f 86//86 79//79 82//82
f 83//83 86//86 82//82
f 79//79 86//86 80//80
f 82//82 78//78 73//73
f 73//73 94//94 82//82
f 88//88 58//58 81//81
f 83//83 82//82 94//94
f 102//102 86//86 83//83
f 83//83 94//94 103//103
f 81//81 84//84 88//88
f 84//84 80//80 85//85
f 85//85 89//89 84//84
f 88//88 84//84 89//89
f 86//86 85//85 80//80
f 85//85 86//86 87//87
f 87//87 89//89 85//85
f 90//90 88//88 89//89
f 88//88 90//90 98//98
f 88//88 97//97 91//91
f 90//90 89//89 93//93
f 98//98 90//90 93//93
f 102//102 87//87 86//86
f 93//93 89//89 87//87
f 93//93 87//87 92//92
f 92//92 87//87 102//102
f 95//95 94//94 73//73
f 95//95 103//103 94//94
f 95//95 96//96 103//103
f 96//96 95//95 104//104
f 88//88 98//98 97//97
f 98//98 93//93 99//99
f 99//99 100//100 98//98
f 99//99 93//93 92//92
f 99//99 92//92 101//101
f 98//98 108//108 97//97
f 100//100 108//108 98//98
f 110//110 108//108 100//100
f 102//102 83//83 103//103
f 92//92 102//102 103//103
f 101//101 92//92 103//103
f 101//101 103//103 96//96
f 101//101 96//96 106//106
f 104//104 95//95 3//3
f 64//64 111//111 105//105
f 107//107 104//104 3//3
f 106//106 96//96 104//104
f 106//106 104//104 107//107
f 124//124 106//106 107//107
f 64//64 108//108 111//111
f 111//111 108//108 110//110
f 110//110 100//100 109//109
f 99//99 109//109 100//100
f 99//99 101//101 109//109
f 101//101 112//112 109//109
f 110//110 109//109 112//112
f 113//113 112//112 101//101
f 101//101 106//106 113//113
f 113//113 106//106 127//127
f 114//114 119//119 4//4
f 115//115 119//119 114//114
f 116//116 119//119 115//115
f 121//121 114//114 67//67
f 115//115 114//114 121//121
f 121//121 117//117 115//115
f 118//118 3//3 76//76
f 116//116 120//120 118//118
f 119//119 116//116 118//118
f 116//116 115//115 117//117
f 67//67 126//126 121//121
f 107//107 3//3 118//118
f 107//107 118//118 120//120
f 126//126 117//117 121//121
f 120//120 116//116 117//117
f 120//120 117//117 123//123
f 123//123 117//117 126//126
f 124//124 120//120 123//123
f 107//107 120//120 124//124
f 105//105 111//111 122//122
f 111//111 110//110 122//122
f 122//122 110//110 112//112
f 122//122 112//112 125//125
f 105//105 122//122 67//67
f 67//67 122//122 126//126
f 125//125 126//126 122//122
f 125//125 112//112 127//127
f 112//112 113//113 127//127
f 123//123 126//126 125//125
f 124//124 123//123 127//127
f 127//127 123//123 125//125
f 124//124 127//127 106//106
# 250 faces, 0 coords texture

# End of File
